solid 
 facet normal  0.000000e+00  0.000000e+00  1.000000e+00
   outer loop
     vertex  9.800000e-01  0.000000e+00  5.000000e-01
     vertex -9.800000e-01  0.000000e+00  5.000000e-01
     vertex -9.800000e-01 -1.700000e-01  5.000000e-01
   endloop
 endfacet
 facet normal  0.000000e+00  0.000000e+00  1.000000e+00
   outer loop
     vertex  9.800000e-01  0.000000e+00  5.000000e-01
     vertex -9.800000e-01 -1.700000e-01  5.000000e-01
     vertex  9.800000e-01 -1.700000e-01  5.000000e-01
   endloop
 endfacet
 facet normal  1.000000e+00  0.000000e+00 -0.000000e+00
   outer loop
     vertex  9.800000e-01  0.000000e+00 -5.000000e-01
     vertex  9.800000e-01  0.000000e+00  5.000000e-01
     vertex  9.800000e-01 -1.700000e-01  5.000000e-01
   endloop
 endfacet
 facet normal  1.000000e+00  0.000000e+00  0.000000e+00
   outer loop
     vertex  9.800000e-01  0.000000e+00 -5.000000e-01
     vertex  9.800000e-01 -1.700000e-01  5.000000e-01
     vertex  9.800000e-01 -1.700000e-01 -5.000000e-01
   endloop
 endfacet
 facet normal  0.000000e+00  0.000000e+00 -1.000000e+00
   outer loop
     vertex  9.800000e-01  0.000000e+00 -5.000000e-01
     vertex -9.800000e-01 -1.700000e-01 -5.000000e-01
     vertex -9.800000e-01 -0.000000e+00 -5.000000e-01
   endloop
 endfacet
 facet normal  0.000000e+00 -0.000000e+00 -1.000000e+00
   outer loop
     vertex  9.800000e-01  0.000000e+00 -5.000000e-01
     vertex  9.800000e-01 -1.700000e-01 -5.000000e-01
     vertex -9.800000e-01 -1.700000e-01 -5.000000e-01
   endloop
 endfacet
 facet normal -1.000000e+00  0.000000e+00  0.000000e+00
   outer loop
     vertex -9.800000e-01 -0.000000e+00 -5.000000e-01
     vertex -9.800000e-01 -1.700000e-01  5.000000e-01
     vertex -9.800000e-01  0.000000e+00  5.000000e-01
   endloop
 endfacet
 facet normal -1.000000e+00  0.000000e+00  0.000000e+00
   outer loop
     vertex -9.800000e-01 -0.000000e+00 -5.000000e-01
     vertex -9.800000e-01 -1.700000e-01 -5.000000e-01
     vertex -9.800000e-01 -1.700000e-01  5.000000e-01
   endloop
 endfacet
 facet normal  0.000000e+00  1.000000e+00 -0.000000e+00
   outer loop
     vertex  9.800000e-01  0.000000e+00  5.000000e-01
     vertex -9.800000e-01 -0.000000e+00 -5.000000e-01
     vertex -9.800000e-01  0.000000e+00  5.000000e-01
   endloop
 endfacet
 facet normal -0.000000e+00  1.000000e+00  0.000000e+00
   outer loop
     vertex  9.800000e-01  0.000000e+00  5.000000e-01
     vertex  9.800000e-01  0.000000e+00 -5.000000e-01
     vertex -9.800000e-01 -0.000000e+00 -5.000000e-01
   endloop
 endfacet
 facet normal -0.000000e+00 -1.000000e+00  0.000000e+00
   outer loop
     vertex  9.800000e-01 -1.700000e-01  5.000000e-01
     vertex -9.800000e-01 -1.700000e-01  5.000000e-01
     vertex -9.800000e-01 -1.700000e-01 -5.000000e-01
   endloop
 endfacet
 facet normal  0.000000e+00 -1.000000e+00 -0.000000e+00
   outer loop
     vertex  9.800000e-01 -1.700000e-01  5.000000e-01
     vertex -9.800000e-01 -1.700000e-01 -5.000000e-01
     vertex  9.800000e-01 -1.700000e-01 -5.000000e-01
   endloop
 endfacet
endsolid
