solid 
 facet normal  0.000000e+00 -1.000000e+00  0.000000e+00
   outer loop
     vertex  9.800000e-01  0.000000e+00  0.000000e+00
     vertex  0.000000e+00  0.000000e+00  7.500000e-02
     vertex  0.000000e+00  0.000000e+00  0.000000e+00
   endloop
 endfacet
 facet normal  0.000000e+00 -1.000000e+00  0.000000e+00
   outer loop
     vertex  9.800000e-01  0.000000e+00  0.000000e+00
     vertex  9.800000e-01  0.000000e+00  7.500000e-02
     vertex  0.000000e+00  0.000000e+00  7.500000e-02
   endloop
 endfacet
 facet normal  1.000000e+00  0.000000e+00  0.000000e+00
   outer loop
     vertex  9.800000e-01  6.500000e-02  0.000000e+00
     vertex  9.800000e-01  0.000000e+00  7.500000e-02
     vertex  9.800000e-01  0.000000e+00  0.000000e+00
   endloop
 endfacet
 facet normal  1.000000e+00  0.000000e+00 -0.000000e+00
   outer loop
     vertex  9.800000e-01  6.500000e-02  0.000000e+00
     vertex  9.800000e-01  6.500000e-02  7.500000e-02
     vertex  9.800000e-01  0.000000e+00  7.500000e-02
   endloop
 endfacet
 facet normal -5.101974e-03  9.999870e-01  0.000000e+00
   outer loop
     vertex  9.800000e-01  6.500000e-02  0.000000e+00
     vertex  0.000000e+00  6.000000e-02  0.000000e+00
     vertex  0.000000e+00  6.000000e-02  7.500000e-02
   endloop
 endfacet
 facet normal -5.101974e-03  9.999870e-01  0.000000e+00
   outer loop
     vertex  9.800000e-01  6.500000e-02  0.000000e+00
     vertex  0.000000e+00  6.000000e-02  7.500000e-02
     vertex  9.800000e-01  6.500000e-02  7.500000e-02
   endloop
 endfacet
 facet normal -1.000000e+00  0.000000e+00  0.000000e+00
   outer loop
     vertex  0.000000e+00  6.000000e-02  0.000000e+00
     vertex  0.000000e+00  0.000000e+00  0.000000e+00
     vertex  0.000000e+00  0.000000e+00  7.500000e-02
   endloop
 endfacet
 facet normal -1.000000e+00  0.000000e+00  0.000000e+00
   outer loop
     vertex  0.000000e+00  6.000000e-02  0.000000e+00
     vertex  0.000000e+00  0.000000e+00  7.500000e-02
     vertex  0.000000e+00  6.000000e-02  7.500000e-02
   endloop
 endfacet
 facet normal  0.000000e+00  0.000000e+00 -1.000000e+00
   outer loop
     vertex  9.800000e-01  0.000000e+00  0.000000e+00
     vertex  0.000000e+00  0.000000e+00  0.000000e+00
     vertex  0.000000e+00  6.000000e-02  0.000000e+00
   endloop
 endfacet
 facet normal  0.000000e+00 -0.000000e+00 -1.000000e+00
   outer loop
     vertex  9.800000e-01  6.500000e-02  0.000000e+00
     vertex  9.800000e-01  0.000000e+00  0.000000e+00
     vertex  0.000000e+00  6.000000e-02  0.000000e+00
   endloop
 endfacet
 facet normal  0.000000e+00  0.000000e+00  1.000000e+00
   outer loop
     vertex  9.800000e-01  0.000000e+00  7.500000e-02
     vertex  0.000000e+00  6.000000e-02  7.500000e-02
     vertex  0.000000e+00  0.000000e+00  7.500000e-02
   endloop
 endfacet
 facet normal  0.000000e+00  0.000000e+00  1.000000e+00
   outer loop
     vertex  9.800000e-01  6.500000e-02  7.500000e-02
     vertex  0.000000e+00  6.000000e-02  7.500000e-02
     vertex  9.800000e-01  0.000000e+00  7.500000e-02
   endloop
 endfacet
endsolid
