solid 
 facet normal  9.927089e-01  1.205367e-01  0.000000e+00
   outer loop
     vertex  5.825651e-02  1.143589e-01  0.000000e+00
     vertex  6.000000e-02  1.000000e-01  1.000000e+00
     vertex  6.000000e-02  1.000000e-01  0.000000e+00
   endloop
 endfacet
 facet normal  9.927089e-01  1.205367e-01 -0.000000e+00
   outer loop
     vertex  5.825651e-02  1.143589e-01  0.000000e+00
     vertex  5.825651e-02  1.143589e-01  1.000000e+00
     vertex  6.000000e-02  1.000000e-01  1.000000e+00
   endloop
 endfacet
 facet normal  9.350162e-01  3.546049e-01 -0.000000e+00
   outer loop
     vertex  5.312736e-02  1.278834e-01  0.000000e+00
     vertex  5.312736e-02  1.278834e-01  1.000000e+00
     vertex  5.825651e-02  1.143589e-01  1.000000e+00
   endloop
 endfacet
 facet normal  9.350162e-01  3.546049e-01  0.000000e+00
   outer loop
     vertex  5.312736e-02  1.278834e-01  0.000000e+00
     vertex  5.825651e-02  1.143589e-01  1.000000e+00
     vertex  5.825651e-02  1.143589e-01  0.000000e+00
   endloop
 endfacet
 facet normal  8.229839e-01  5.680647e-01 -0.000000e+00
   outer loop
     vertex  4.491064e-02  1.397874e-01  0.000000e+00
     vertex  4.491064e-02  1.397874e-01  1.000000e+00
     vertex  5.312736e-02  1.278834e-01  1.000000e+00
   endloop
 endfacet
 facet normal  8.229839e-01  5.680647e-01  0.000000e+00
   outer loop
     vertex  4.491064e-02  1.397874e-01  0.000000e+00
     vertex  5.312736e-02  1.278834e-01  1.000000e+00
     vertex  5.312736e-02  1.278834e-01  0.000000e+00
   endloop
 endfacet
 facet normal  6.631227e-01  7.485107e-01 -0.000000e+00
   outer loop
     vertex  3.408388e-02  1.493790e-01  0.000000e+00
     vertex  3.408388e-02  1.493790e-01  1.000000e+00
     vertex  4.491064e-02  1.397874e-01  1.000000e+00
   endloop
 endfacet
 facet normal  6.631227e-01  7.485107e-01  0.000000e+00
   outer loop
     vertex  3.408388e-02  1.493790e-01  0.000000e+00
     vertex  4.491064e-02  1.397874e-01  1.000000e+00
     vertex  4.491064e-02  1.397874e-01  0.000000e+00
   endloop
 endfacet
 facet normal  4.647232e-01  8.854560e-01 -0.000000e+00
   outer loop
     vertex  2.127629e-02  1.561010e-01  0.000000e+00
     vertex  2.127629e-02  1.561010e-01  1.000000e+00
     vertex  3.408388e-02  1.493790e-01  1.000000e+00
   endloop
 endfacet
 facet normal  4.647232e-01  8.854560e-01  0.000000e+00
   outer loop
     vertex  2.127629e-02  1.561010e-01  0.000000e+00
     vertex  3.408388e-02  1.493790e-01  1.000000e+00
     vertex  3.408388e-02  1.493790e-01  0.000000e+00
   endloop
 endfacet
 facet normal  2.393157e-01  9.709418e-01 -0.000000e+00
   outer loop
     vertex  7.232201e-03  1.595625e-01  0.000000e+00
     vertex  7.232201e-03  1.595625e-01  1.000000e+00
     vertex  2.127629e-02  1.561010e-01  1.000000e+00
   endloop
 endfacet
 facet normal  2.393157e-01  9.709418e-01  0.000000e+00
   outer loop
     vertex  7.232201e-03  1.595625e-01  0.000000e+00
     vertex  2.127629e-02  1.561010e-01  1.000000e+00
     vertex  2.127629e-02  1.561010e-01  0.000000e+00
   endloop
 endfacet
 facet normal  0.000000e+00  1.000000e+00  0.000000e+00
   outer loop
     vertex -7.232201e-03  1.595625e-01  0.000000e+00
     vertex -7.232201e-03  1.595625e-01  1.000000e+00
     vertex  7.232201e-03  1.595625e-01  1.000000e+00
   endloop
 endfacet
 facet normal  0.000000e+00  1.000000e+00  0.000000e+00
   outer loop
     vertex -7.232201e-03  1.595625e-01  0.000000e+00
     vertex  7.232201e-03  1.595625e-01  1.000000e+00
     vertex  7.232201e-03  1.595625e-01  0.000000e+00
   endloop
 endfacet
 facet normal -2.393157e-01  9.709418e-01  0.000000e+00
   outer loop
     vertex -2.127629e-02  1.561010e-01  0.000000e+00
     vertex -2.127629e-02  1.561010e-01  1.000000e+00
     vertex -7.232201e-03  1.595625e-01  1.000000e+00
   endloop
 endfacet
 facet normal -2.393157e-01  9.709418e-01  0.000000e+00
   outer loop
     vertex -2.127629e-02  1.561010e-01  0.000000e+00
     vertex -7.232201e-03  1.595625e-01  1.000000e+00
     vertex -7.232201e-03  1.595625e-01  0.000000e+00
   endloop
 endfacet
 facet normal -4.647232e-01  8.854560e-01  0.000000e+00
   outer loop
     vertex -3.408388e-02  1.493790e-01  0.000000e+00
     vertex -3.408388e-02  1.493790e-01  1.000000e+00
     vertex -2.127629e-02  1.561010e-01  1.000000e+00
   endloop
 endfacet
 facet normal -4.647232e-01  8.854560e-01  0.000000e+00
   outer loop
     vertex -3.408388e-02  1.493790e-01  0.000000e+00
     vertex -2.127629e-02  1.561010e-01  1.000000e+00
     vertex -2.127629e-02  1.561010e-01  0.000000e+00
   endloop
 endfacet
 facet normal -6.631227e-01  7.485107e-01  0.000000e+00
   outer loop
     vertex -4.491064e-02  1.397874e-01  0.000000e+00
     vertex -4.491064e-02  1.397874e-01  1.000000e+00
     vertex -3.408388e-02  1.493790e-01  1.000000e+00
   endloop
 endfacet
 facet normal -6.631227e-01  7.485107e-01  0.000000e+00
   outer loop
     vertex -4.491064e-02  1.397874e-01  0.000000e+00
     vertex -3.408388e-02  1.493790e-01  1.000000e+00
     vertex -3.408388e-02  1.493790e-01  0.000000e+00
   endloop
 endfacet
 facet normal -8.229839e-01  5.680647e-01  0.000000e+00
   outer loop
     vertex -5.312736e-02  1.278834e-01  0.000000e+00
     vertex -4.491064e-02  1.397874e-01  1.000000e+00
     vertex -4.491064e-02  1.397874e-01  0.000000e+00
   endloop
 endfacet
 facet normal -8.229839e-01  5.680647e-01  0.000000e+00
   outer loop
     vertex -5.312736e-02  1.278834e-01  0.000000e+00
     vertex -5.312736e-02  1.278834e-01  1.000000e+00
     vertex -4.491064e-02  1.397874e-01  1.000000e+00
   endloop
 endfacet
 facet normal -9.350162e-01  3.546049e-01  0.000000e+00
   outer loop
     vertex -5.825651e-02  1.143589e-01  0.000000e+00
     vertex -5.312736e-02  1.278834e-01  1.000000e+00
     vertex -5.312736e-02  1.278834e-01  0.000000e+00
   endloop
 endfacet
 facet normal -9.350162e-01  3.546049e-01  0.000000e+00
   outer loop
     vertex -5.825651e-02  1.143589e-01  0.000000e+00
     vertex -5.825651e-02  1.143589e-01  1.000000e+00
     vertex -5.312736e-02  1.278834e-01  1.000000e+00
   endloop
 endfacet
 facet normal -9.927089e-01  1.205367e-01  0.000000e+00
   outer loop
     vertex -6.000000e-02  1.000000e-01  0.000000e+00
     vertex -5.825651e-02  1.143589e-01  1.000000e+00
     vertex -5.825651e-02  1.143589e-01  0.000000e+00
   endloop
 endfacet
 facet normal -9.927089e-01  1.205367e-01  0.000000e+00
   outer loop
     vertex -6.000000e-02  1.000000e-01  0.000000e+00
     vertex -6.000000e-02  1.000000e-01  1.000000e+00
     vertex -5.825651e-02  1.143589e-01  1.000000e+00
   endloop
 endfacet
 facet normal -9.927089e-01 -1.205367e-01  0.000000e+00
   outer loop
     vertex -5.825651e-02  8.564106e-02  0.000000e+00
     vertex -5.825651e-02  8.564106e-02  1.000000e+00
     vertex -6.000000e-02  1.000000e-01  1.000000e+00
   endloop
 endfacet
 facet normal -9.927089e-01 -1.205367e-01  0.000000e+00
   outer loop
     vertex -5.825651e-02  8.564106e-02  0.000000e+00
     vertex -6.000000e-02  1.000000e-01  1.000000e+00
     vertex -6.000000e-02  1.000000e-01  0.000000e+00
   endloop
 endfacet
 facet normal -9.350162e-01 -3.546049e-01  0.000000e+00
   outer loop
     vertex -5.312736e-02  7.211661e-02  0.000000e+00
     vertex -5.825651e-02  8.564106e-02  1.000000e+00
     vertex -5.825651e-02  8.564106e-02  0.000000e+00
   endloop
 endfacet
 facet normal -9.350162e-01 -3.546049e-01  0.000000e+00
   outer loop
     vertex -5.312736e-02  7.211661e-02  0.000000e+00
     vertex -5.312736e-02  7.211661e-02  1.000000e+00
     vertex -5.825651e-02  8.564106e-02  1.000000e+00
   endloop
 endfacet
 facet normal -8.229839e-01 -5.680647e-01  0.000000e+00
   outer loop
     vertex -5.312736e-02  7.211661e-02  0.000000e+00
     vertex -4.491064e-02  6.021264e-02  1.000000e+00
     vertex -5.312736e-02  7.211661e-02  1.000000e+00
   endloop
 endfacet
 facet normal -8.229839e-01 -5.680647e-01  0.000000e+00
   outer loop
     vertex -4.491064e-02  6.021264e-02  0.000000e+00
     vertex -4.491064e-02  6.021264e-02  1.000000e+00
     vertex -5.312736e-02  7.211661e-02  0.000000e+00
   endloop
 endfacet
 facet normal -6.631227e-01 -7.485107e-01  0.000000e+00
   outer loop
     vertex -3.408388e-02  5.062097e-02  0.000000e+00
     vertex -3.408388e-02  5.062097e-02  1.000000e+00
     vertex -4.491064e-02  6.021264e-02  1.000000e+00
   endloop
 endfacet
 facet normal -6.631227e-01 -7.485107e-01  0.000000e+00
   outer loop
     vertex -3.408388e-02  5.062097e-02  0.000000e+00
     vertex -4.491064e-02  6.021264e-02  1.000000e+00
     vertex -4.491064e-02  6.021264e-02  0.000000e+00
   endloop
 endfacet
 facet normal -4.647232e-01 -8.854560e-01  0.000000e+00
   outer loop
     vertex -2.127629e-02  4.389903e-02  0.000000e+00
     vertex -2.127629e-02  4.389903e-02  1.000000e+00
     vertex -3.408388e-02  5.062097e-02  1.000000e+00
   endloop
 endfacet
 facet normal -4.647232e-01 -8.854560e-01  0.000000e+00
   outer loop
     vertex -2.127629e-02  4.389903e-02  0.000000e+00
     vertex -3.408388e-02  5.062097e-02  1.000000e+00
     vertex -3.408388e-02  5.062097e-02  0.000000e+00
   endloop
 endfacet
 facet normal -2.393157e-01 -9.709418e-01  0.000000e+00
   outer loop
     vertex -7.232201e-03  4.043747e-02  0.000000e+00
     vertex -7.232201e-03  4.043747e-02  1.000000e+00
     vertex -2.127629e-02  4.389903e-02  1.000000e+00
   endloop
 endfacet
 facet normal -2.393157e-01 -9.709418e-01  0.000000e+00
   outer loop
     vertex -7.232201e-03  4.043747e-02  0.000000e+00
     vertex -2.127629e-02  4.389903e-02  1.000000e+00
     vertex -2.127629e-02  4.389903e-02  0.000000e+00
   endloop
 endfacet
 facet normal -2.398611e-15 -1.000000e+00  0.000000e+00
   outer loop
     vertex  7.232201e-03  4.043747e-02  0.000000e+00
     vertex  7.232201e-03  4.043747e-02  1.000000e+00
     vertex -7.232201e-03  4.043747e-02  1.000000e+00
   endloop
 endfacet
 facet normal -2.398611e-15 -1.000000e+00  0.000000e+00
   outer loop
     vertex  7.232201e-03  4.043747e-02  0.000000e+00
     vertex -7.232201e-03  4.043747e-02  1.000000e+00
     vertex -7.232201e-03  4.043747e-02  0.000000e+00
   endloop
 endfacet
 facet normal  2.393157e-01 -9.709418e-01  0.000000e+00
   outer loop
     vertex  2.127629e-02  4.389903e-02  0.000000e+00
     vertex  2.127629e-02  4.389903e-02  1.000000e+00
     vertex  7.232201e-03  4.043747e-02  1.000000e+00
   endloop
 endfacet
 facet normal  2.393157e-01 -9.709418e-01  0.000000e+00
   outer loop
     vertex  2.127629e-02  4.389903e-02  0.000000e+00
     vertex  7.232201e-03  4.043747e-02  1.000000e+00
     vertex  7.232201e-03  4.043747e-02  0.000000e+00
   endloop
 endfacet
 facet normal  4.647232e-01 -8.854560e-01  0.000000e+00
   outer loop
     vertex  3.408388e-02  5.062097e-02  0.000000e+00
     vertex  3.408388e-02  5.062097e-02  1.000000e+00
     vertex  2.127629e-02  4.389903e-02  1.000000e+00
   endloop
 endfacet
 facet normal  4.647232e-01 -8.854560e-01  0.000000e+00
   outer loop
     vertex  3.408388e-02  5.062097e-02  0.000000e+00
     vertex  2.127629e-02  4.389903e-02  1.000000e+00
     vertex  2.127629e-02  4.389903e-02  0.000000e+00
   endloop
 endfacet
 facet normal  6.631227e-01 -7.485107e-01  0.000000e+00
   outer loop
     vertex  4.491064e-02  6.021264e-02  0.000000e+00
     vertex  4.491064e-02  6.021264e-02  1.000000e+00
     vertex  3.408388e-02  5.062097e-02  1.000000e+00
   endloop
 endfacet
 facet normal  6.631227e-01 -7.485107e-01  0.000000e+00
   outer loop
     vertex  4.491064e-02  6.021264e-02  0.000000e+00
     vertex  3.408388e-02  5.062097e-02  1.000000e+00
     vertex  3.408388e-02  5.062097e-02  0.000000e+00
   endloop
 endfacet
 facet normal  8.229839e-01 -5.680647e-01  0.000000e+00
   outer loop
     vertex  5.312736e-02  7.211661e-02  0.000000e+00
     vertex  5.312736e-02  7.211661e-02  1.000000e+00
     vertex  4.491064e-02  6.021264e-02  1.000000e+00
   endloop
 endfacet
 facet normal  9.350162e-01 -3.546049e-01  0.000000e+00
   outer loop
     vertex  5.312736e-02  7.211661e-02  0.000000e+00
     vertex  5.825651e-02  8.564106e-02  1.000000e+00
     vertex  5.312736e-02  7.211661e-02  1.000000e+00
   endloop
 endfacet
 facet normal  8.229839e-01 -5.680647e-01  0.000000e+00
   outer loop
     vertex  5.312736e-02  7.211661e-02  0.000000e+00
     vertex  4.491064e-02  6.021264e-02  1.000000e+00
     vertex  4.491064e-02  6.021264e-02  0.000000e+00
   endloop
 endfacet
 facet normal  9.350162e-01 -3.546049e-01  0.000000e+00
   outer loop
     vertex  5.825651e-02  8.564106e-02  0.000000e+00
     vertex  5.825651e-02  8.564106e-02  1.000000e+00
     vertex  5.312736e-02  7.211661e-02  0.000000e+00
   endloop
 endfacet
 facet normal  9.927089e-01 -1.205367e-01  0.000000e+00
   outer loop
     vertex  6.000000e-02  1.000000e-01  0.000000e+00
     vertex  6.000000e-02  1.000000e-01  1.000000e+00
     vertex  5.825651e-02  8.564106e-02  1.000000e+00
   endloop
 endfacet
 facet normal  9.927089e-01 -1.205367e-01  0.000000e+00
   outer loop
     vertex  6.000000e-02  1.000000e-01  0.000000e+00
     vertex  5.825651e-02  8.564106e-02  1.000000e+00
     vertex  5.825651e-02  8.564106e-02  0.000000e+00
   endloop
 endfacet
 facet normal  0.000000e+00  0.000000e+00 -1.000000e+00
   outer loop
     vertex  4.491064e-02  1.397874e-01  0.000000e+00
     vertex  5.825651e-02  1.143589e-01  0.000000e+00
     vertex  6.000000e-02  1.000000e-01  0.000000e+00
   endloop
 endfacet
 facet normal  0.000000e+00  0.000000e+00 -1.000000e+00
   outer loop
     vertex  4.491064e-02  1.397874e-01  0.000000e+00
     vertex  5.312736e-02  1.278834e-01  0.000000e+00
     vertex  5.825651e-02  1.143589e-01  0.000000e+00
   endloop
 endfacet
 facet normal  0.000000e+00  0.000000e+00 -1.000000e+00
   outer loop
     vertex  4.491064e-02  1.397874e-01  0.000000e+00
     vertex  2.127629e-02  1.561010e-01  0.000000e+00
     vertex  3.408388e-02  1.493790e-01  0.000000e+00
   endloop
 endfacet
 facet normal  0.000000e+00  0.000000e+00 -1.000000e+00
   outer loop
     vertex  4.491064e-02  1.397874e-01  0.000000e+00
     vertex  7.232201e-03  1.595625e-01  0.000000e+00
     vertex  2.127629e-02  1.561010e-01  0.000000e+00
   endloop
 endfacet
 facet normal  0.000000e+00  0.000000e+00 -1.000000e+00
   outer loop
     vertex  4.491064e-02  1.397874e-01  0.000000e+00
     vertex -7.232201e-03  1.595625e-01  0.000000e+00
     vertex  7.232201e-03  1.595625e-01  0.000000e+00
   endloop
 endfacet
 facet normal  0.000000e+00  0.000000e+00 -1.000000e+00
   outer loop
     vertex  4.491064e-02  1.397874e-01  0.000000e+00
     vertex -2.127629e-02  1.561010e-01  0.000000e+00
     vertex -7.232201e-03  1.595625e-01  0.000000e+00
   endloop
 endfacet
 facet normal  0.000000e+00  0.000000e+00 -1.000000e+00
   outer loop
     vertex  4.491064e-02  1.397874e-01  0.000000e+00
     vertex -3.408388e-02  1.493790e-01  0.000000e+00
     vertex -2.127629e-02  1.561010e-01  0.000000e+00
   endloop
 endfacet
 facet normal  0.000000e+00  0.000000e+00 -1.000000e+00
   outer loop
     vertex  4.491064e-02  1.397874e-01  0.000000e+00
     vertex -4.491064e-02  1.397874e-01  0.000000e+00
     vertex -3.408388e-02  1.493790e-01  0.000000e+00
   endloop
 endfacet
 facet normal -0.000000e+00  0.000000e+00 -1.000000e+00
   outer loop
     vertex  4.491064e-02  1.397874e-01  0.000000e+00
     vertex -5.312736e-02  1.278834e-01  0.000000e+00
     vertex -4.491064e-02  1.397874e-01  0.000000e+00
   endloop
 endfacet
 facet normal  0.000000e+00  0.000000e+00 -1.000000e+00
   outer loop
     vertex  4.491064e-02  1.397874e-01  0.000000e+00
     vertex -5.825651e-02  1.143589e-01  0.000000e+00
     vertex -5.312736e-02  1.278834e-01  0.000000e+00
   endloop
 endfacet
 facet normal  0.000000e+00  0.000000e+00 -1.000000e+00
   outer loop
     vertex  4.491064e-02  1.397874e-01  0.000000e+00
     vertex -6.000000e-02  1.000000e-01  0.000000e+00
     vertex -5.825651e-02  1.143589e-01  0.000000e+00
   endloop
 endfacet
 facet normal  0.000000e+00  0.000000e+00 -1.000000e+00
   outer loop
     vertex  4.491064e-02  1.397874e-01  0.000000e+00
     vertex -5.825651e-02  8.564106e-02  0.000000e+00
     vertex -6.000000e-02  1.000000e-01  0.000000e+00
   endloop
 endfacet
 facet normal  0.000000e+00  0.000000e+00 -1.000000e+00
   outer loop
     vertex  4.491064e-02  1.397874e-01  0.000000e+00
     vertex -5.312736e-02  7.211661e-02  0.000000e+00
     vertex -5.825651e-02  8.564106e-02  0.000000e+00
   endloop
 endfacet
 facet normal  0.000000e+00  0.000000e+00 -1.000000e+00
   outer loop
     vertex  4.491064e-02  1.397874e-01  0.000000e+00
     vertex -4.491064e-02  6.021264e-02  0.000000e+00
     vertex -5.312736e-02  7.211661e-02  0.000000e+00
   endloop
 endfacet
 facet normal  0.000000e+00  0.000000e+00 -1.000000e+00
   outer loop
     vertex  4.491064e-02  1.397874e-01  0.000000e+00
     vertex -3.408388e-02  5.062097e-02  0.000000e+00
     vertex -4.491064e-02  6.021264e-02  0.000000e+00
   endloop
 endfacet
 facet normal  0.000000e+00  0.000000e+00 -1.000000e+00
   outer loop
     vertex  4.491064e-02  1.397874e-01  0.000000e+00
     vertex -2.127629e-02  4.389903e-02  0.000000e+00
     vertex -3.408388e-02  5.062097e-02  0.000000e+00
   endloop
 endfacet
 facet normal  0.000000e+00  0.000000e+00 -1.000000e+00
   outer loop
     vertex  4.491064e-02  1.397874e-01  0.000000e+00
     vertex -7.232201e-03  4.043747e-02  0.000000e+00
     vertex -2.127629e-02  4.389903e-02  0.000000e+00
   endloop
 endfacet
 facet normal  0.000000e+00  0.000000e+00 -1.000000e+00
   outer loop
     vertex  4.491064e-02  1.397874e-01  0.000000e+00
     vertex  7.232201e-03  4.043747e-02  0.000000e+00
     vertex -7.232201e-03  4.043747e-02  0.000000e+00
   endloop
 endfacet
 facet normal  0.000000e+00  0.000000e+00 -1.000000e+00
   outer loop
     vertex  4.491064e-02  1.397874e-01  0.000000e+00
     vertex  2.127629e-02  4.389903e-02  0.000000e+00
     vertex  7.232201e-03  4.043747e-02  0.000000e+00
   endloop
 endfacet
 facet normal  0.000000e+00  0.000000e+00 -1.000000e+00
   outer loop
     vertex  4.491064e-02  1.397874e-01  0.000000e+00
     vertex  3.408388e-02  5.062097e-02  0.000000e+00
     vertex  2.127629e-02  4.389903e-02  0.000000e+00
   endloop
 endfacet
 facet normal  0.000000e+00  0.000000e+00 -1.000000e+00
   outer loop
     vertex  4.491064e-02  1.397874e-01  0.000000e+00
     vertex  4.491064e-02  6.021264e-02  0.000000e+00
     vertex  3.408388e-02  5.062097e-02  0.000000e+00
   endloop
 endfacet
 facet normal  0.000000e+00 -0.000000e+00 -1.000000e+00
   outer loop
     vertex  4.491064e-02  1.397874e-01  0.000000e+00
     vertex  5.312736e-02  7.211661e-02  0.000000e+00
     vertex  4.491064e-02  6.021264e-02  0.000000e+00
   endloop
 endfacet
 facet normal  0.000000e+00  0.000000e+00 -1.000000e+00
   outer loop
     vertex  4.491064e-02  1.397874e-01  0.000000e+00
     vertex  5.825651e-02  8.564106e-02  0.000000e+00
     vertex  5.312736e-02  7.211661e-02  0.000000e+00
   endloop
 endfacet
 facet normal  0.000000e+00  0.000000e+00 -1.000000e+00
   outer loop
     vertex  4.491064e-02  1.397874e-01  0.000000e+00
     vertex  6.000000e-02  1.000000e-01  0.000000e+00
     vertex  5.825651e-02  8.564106e-02  0.000000e+00
   endloop
 endfacet
 facet normal  0.000000e+00  0.000000e+00  1.000000e+00
   outer loop
     vertex  4.491064e-02  1.397874e-01  1.000000e+00
     vertex  6.000000e-02  1.000000e-01  1.000000e+00
     vertex  5.825651e-02  1.143589e-01  1.000000e+00
   endloop
 endfacet
 facet normal  0.000000e+00  0.000000e+00  1.000000e+00
   outer loop
     vertex  4.491064e-02  1.397874e-01  1.000000e+00
     vertex  5.825651e-02  1.143589e-01  1.000000e+00
     vertex  5.312736e-02  1.278834e-01  1.000000e+00
   endloop
 endfacet
 facet normal  0.000000e+00  0.000000e+00  1.000000e+00
   outer loop
     vertex  4.491064e-02  1.397874e-01  1.000000e+00
     vertex  3.408388e-02  1.493790e-01  1.000000e+00
     vertex  2.127629e-02  1.561010e-01  1.000000e+00
   endloop
 endfacet
 facet normal  0.000000e+00  0.000000e+00  1.000000e+00
   outer loop
     vertex  4.491064e-02  1.397874e-01  1.000000e+00
     vertex  2.127629e-02  1.561010e-01  1.000000e+00
     vertex  7.232201e-03  1.595625e-01  1.000000e+00
   endloop
 endfacet
 facet normal  0.000000e+00  0.000000e+00  1.000000e+00
   outer loop
     vertex  4.491064e-02  1.397874e-01  1.000000e+00
     vertex  7.232201e-03  1.595625e-01  1.000000e+00
     vertex -7.232201e-03  1.595625e-01  1.000000e+00
   endloop
 endfacet
 facet normal  0.000000e+00  0.000000e+00  1.000000e+00
   outer loop
     vertex  4.491064e-02  1.397874e-01  1.000000e+00
     vertex -7.232201e-03  1.595625e-01  1.000000e+00
     vertex -2.127629e-02  1.561010e-01  1.000000e+00
   endloop
 endfacet
 facet normal  0.000000e+00  0.000000e+00  1.000000e+00
   outer loop
     vertex  4.491064e-02  1.397874e-01  1.000000e+00
     vertex -2.127629e-02  1.561010e-01  1.000000e+00
     vertex -3.408388e-02  1.493790e-01  1.000000e+00
   endloop
 endfacet
 facet normal  0.000000e+00  0.000000e+00  1.000000e+00
   outer loop
     vertex  4.491064e-02  1.397874e-01  1.000000e+00
     vertex -3.408388e-02  1.493790e-01  1.000000e+00
     vertex -4.491064e-02  1.397874e-01  1.000000e+00
   endloop
 endfacet
 facet normal  0.000000e+00  0.000000e+00  1.000000e+00
   outer loop
     vertex  4.491064e-02  1.397874e-01  1.000000e+00
     vertex -4.491064e-02  1.397874e-01  1.000000e+00
     vertex -5.312736e-02  1.278834e-01  1.000000e+00
   endloop
 endfacet
 facet normal  0.000000e+00  0.000000e+00  1.000000e+00
   outer loop
     vertex  4.491064e-02  1.397874e-01  1.000000e+00
     vertex -5.312736e-02  1.278834e-01  1.000000e+00
     vertex -5.825651e-02  1.143589e-01  1.000000e+00
   endloop
 endfacet
 facet normal  0.000000e+00  0.000000e+00  1.000000e+00
   outer loop
     vertex  4.491064e-02  1.397874e-01  1.000000e+00
     vertex -5.825651e-02  1.143589e-01  1.000000e+00
     vertex -6.000000e-02  1.000000e-01  1.000000e+00
   endloop
 endfacet
 facet normal  0.000000e+00  0.000000e+00  1.000000e+00
   outer loop
     vertex  4.491064e-02  1.397874e-01  1.000000e+00
     vertex -6.000000e-02  1.000000e-01  1.000000e+00
     vertex -5.825651e-02  8.564106e-02  1.000000e+00
   endloop
 endfacet
 facet normal  0.000000e+00  0.000000e+00  1.000000e+00
   outer loop
     vertex  4.491064e-02  1.397874e-01  1.000000e+00
     vertex -5.825651e-02  8.564106e-02  1.000000e+00
     vertex -5.312736e-02  7.211661e-02  1.000000e+00
   endloop
 endfacet
 facet normal  0.000000e+00  0.000000e+00  1.000000e+00
   outer loop
     vertex  4.491064e-02  1.397874e-01  1.000000e+00
     vertex -5.312736e-02  7.211661e-02  1.000000e+00
     vertex -4.491064e-02  6.021264e-02  1.000000e+00
   endloop
 endfacet
 facet normal  0.000000e+00  0.000000e+00  1.000000e+00
   outer loop
     vertex  4.491064e-02  1.397874e-01  1.000000e+00
     vertex -4.491064e-02  6.021264e-02  1.000000e+00
     vertex -3.408388e-02  5.062097e-02  1.000000e+00
   endloop
 endfacet
 facet normal  0.000000e+00  0.000000e+00  1.000000e+00
   outer loop
     vertex  4.491064e-02  1.397874e-01  1.000000e+00
     vertex -3.408388e-02  5.062097e-02  1.000000e+00
     vertex -2.127629e-02  4.389903e-02  1.000000e+00
   endloop
 endfacet
 facet normal  0.000000e+00  0.000000e+00  1.000000e+00
   outer loop
     vertex  4.491064e-02  1.397874e-01  1.000000e+00
     vertex -2.127629e-02  4.389903e-02  1.000000e+00
     vertex -7.232201e-03  4.043747e-02  1.000000e+00
   endloop
 endfacet
 facet normal  0.000000e+00  0.000000e+00  1.000000e+00
   outer loop
     vertex  4.491064e-02  1.397874e-01  1.000000e+00
     vertex -7.232201e-03  4.043747e-02  1.000000e+00
     vertex  7.232201e-03  4.043747e-02  1.000000e+00
   endloop
 endfacet
 facet normal  0.000000e+00  0.000000e+00  1.000000e+00
   outer loop
     vertex  4.491064e-02  1.397874e-01  1.000000e+00
     vertex  7.232201e-03  4.043747e-02  1.000000e+00
     vertex  2.127629e-02  4.389903e-02  1.000000e+00
   endloop
 endfacet
 facet normal  0.000000e+00  0.000000e+00  1.000000e+00
   outer loop
     vertex  4.491064e-02  1.397874e-01  1.000000e+00
     vertex  2.127629e-02  4.389903e-02  1.000000e+00
     vertex  3.408388e-02  5.062097e-02  1.000000e+00
   endloop
 endfacet
 facet normal  0.000000e+00  0.000000e+00  1.000000e+00
   outer loop
     vertex  4.491064e-02  1.397874e-01  1.000000e+00
     vertex  3.408388e-02  5.062097e-02  1.000000e+00
     vertex  4.491064e-02  6.021264e-02  1.000000e+00
   endloop
 endfacet
 facet normal  0.000000e+00  0.000000e+00  1.000000e+00
   outer loop
     vertex  4.491064e-02  1.397874e-01  1.000000e+00
     vertex  4.491064e-02  6.021264e-02  1.000000e+00
     vertex  5.312736e-02  7.211661e-02  1.000000e+00
   endloop
 endfacet
 facet normal  0.000000e+00  0.000000e+00  1.000000e+00
   outer loop
     vertex  4.491064e-02  1.397874e-01  1.000000e+00
     vertex  5.312736e-02  7.211661e-02  1.000000e+00
     vertex  5.825651e-02  8.564106e-02  1.000000e+00
   endloop
 endfacet
 facet normal  0.000000e+00  0.000000e+00  1.000000e+00
   outer loop
     vertex  4.491064e-02  1.397874e-01  1.000000e+00
     vertex  5.825651e-02  8.564106e-02  1.000000e+00
     vertex  6.000000e-02  1.000000e-01  1.000000e+00
   endloop
 endfacet
endsolid
