solid 
 facet normal -0.000000e+00  0.000000e+00 -1.000000e+00
   outer loop
     vertex  9.800000e-01  0.000000e+00  0.000000e+00
     vertex -9.800000e-01 -1.400000e-01  0.000000e+00
     vertex -9.800000e-01  0.000000e+00  0.000000e+00
   endloop
 endfacet
 facet normal  0.000000e+00 -0.000000e+00 -1.000000e+00
   outer loop
     vertex  9.800000e-01  0.000000e+00  0.000000e+00
     vertex  9.800000e-01 -1.400000e-01  0.000000e+00
     vertex -9.800000e-01 -1.400000e-01  0.000000e+00
   endloop
 endfacet
 facet normal -1.000000e+00  0.000000e+00 -0.000000e+00
   outer loop
     vertex -9.800000e-01  0.000000e+00  4.500000e-01
     vertex -9.800000e-01  0.000000e+00  0.000000e+00
     vertex -9.800000e-01 -1.400000e-01  0.000000e+00
   endloop
 endfacet
 facet normal -1.000000e+00 -0.000000e+00  0.000000e+00
   outer loop
     vertex -9.800000e-01  0.000000e+00  4.500000e-01
     vertex -9.800000e-01 -1.400000e-01  0.000000e+00
     vertex -9.800000e-01 -1.400000e-01  4.500000e-01
   endloop
 endfacet
 facet normal  1.000000e+00  0.000000e+00  0.000000e+00
   outer loop
     vertex  9.800000e-01  0.000000e+00  1.200000e-01
     vertex  9.800000e-01 -1.400000e-01  0.000000e+00
     vertex  9.800000e-01  0.000000e+00  0.000000e+00
   endloop
 endfacet
 facet normal  1.000000e+00  0.000000e+00  0.000000e+00
   outer loop
     vertex  9.800000e-01  0.000000e+00  1.200000e-01
     vertex  9.800000e-01 -1.400000e-01  1.200000e-01
     vertex  9.800000e-01 -1.400000e-01  0.000000e+00
   endloop
 endfacet
 facet normal  0.000000e+00  0.000000e+00 -1.000000e+00
   outer loop
     vertex  9.800000e-01  0.000000e+00  0.000000e+00
     vertex -9.800000e-01  0.000000e+00  0.000000e+00
     vertex -9.800000e-01  1.400000e-01  0.000000e+00
   endloop
 endfacet
 facet normal  0.000000e+00  0.000000e+00 -1.000000e+00
   outer loop
     vertex  9.800000e-01  0.000000e+00  0.000000e+00
     vertex -9.800000e-01  1.400000e-01  0.000000e+00
     vertex  9.800000e-01  1.400000e-01  0.000000e+00
   endloop
 endfacet
 facet normal  0.000000e+00 -1.000000e+00 -0.000000e+00
   outer loop
     vertex  9.800000e-01 -1.400000e-01  1.200000e-01
     vertex -9.800000e-01 -1.400000e-01  0.000000e+00
     vertex  9.800000e-01 -1.400000e-01  0.000000e+00
   endloop
 endfacet
 facet normal -0.000000e+00 -1.000000e+00  0.000000e+00
   outer loop
     vertex  9.800000e-01 -1.400000e-01  1.200000e-01
     vertex -9.800000e-01 -1.400000e-01  4.500000e-01
     vertex -9.800000e-01 -1.400000e-01  0.000000e+00
   endloop
 endfacet
 facet normal  1.660305e-01  0.000000e+00  9.861206e-01
   outer loop
     vertex  9.800000e-01  0.000000e+00  1.200000e-01
     vertex -9.800000e-01  0.000000e+00  4.500000e-01
     vertex -9.800000e-01 -1.400000e-01  4.500000e-01
   endloop
 endfacet
 facet normal  1.660305e-01  0.000000e+00  9.861206e-01
   outer loop
     vertex  9.800000e-01  0.000000e+00  1.200000e-01
     vertex -9.800000e-01 -1.400000e-01  4.500000e-01
     vertex  9.800000e-01 -1.400000e-01  1.200000e-01
   endloop
 endfacet
 facet normal -1.000000e+00  0.000000e+00  0.000000e+00
   outer loop
     vertex -9.800000e-01  0.000000e+00  4.500000e-01
     vertex -9.800000e-01  1.400000e-01  0.000000e+00
     vertex -9.800000e-01  0.000000e+00  0.000000e+00
   endloop
 endfacet
 facet normal -1.000000e+00  0.000000e+00  0.000000e+00
   outer loop
     vertex -9.800000e-01  0.000000e+00  4.500000e-01
     vertex -9.800000e-01  1.400000e-01  4.500000e-01
     vertex -9.800000e-01  1.400000e-01  0.000000e+00
   endloop
 endfacet
 facet normal  1.000000e+00  0.000000e+00  0.000000e+00
   outer loop
     vertex  9.800000e-01  0.000000e+00  1.200000e-01
     vertex  9.800000e-01  0.000000e+00  0.000000e+00
     vertex  9.800000e-01  1.400000e-01  0.000000e+00
   endloop
 endfacet
 facet normal  1.000000e+00 -0.000000e+00  0.000000e+00
   outer loop
     vertex  9.800000e-01  0.000000e+00  1.200000e-01
     vertex  9.800000e-01  1.400000e-01  0.000000e+00
     vertex  9.800000e-01  1.400000e-01  1.200000e-01
   endloop
 endfacet
 facet normal  0.000000e+00  1.000000e+00  0.000000e+00
   outer loop
     vertex  9.800000e-01  1.400000e-01  1.200000e-01
     vertex  9.800000e-01  1.400000e-01  0.000000e+00
     vertex -9.800000e-01  1.400000e-01  0.000000e+00
   endloop
 endfacet
 facet normal  0.000000e+00  1.000000e+00  0.000000e+00
   outer loop
     vertex  9.800000e-01  1.400000e-01  1.200000e-01
     vertex -9.800000e-01  1.400000e-01  0.000000e+00
     vertex -9.800000e-01  1.400000e-01  4.500000e-01
   endloop
 endfacet
 facet normal  1.660305e-01  0.000000e+00  9.861206e-01
   outer loop
     vertex  9.800000e-01  0.000000e+00  1.200000e-01
     vertex -9.800000e-01  1.400000e-01  4.500000e-01
     vertex -9.800000e-01  0.000000e+00  4.500000e-01
   endloop
 endfacet
 facet normal  1.660305e-01 -0.000000e+00  9.861206e-01
   outer loop
     vertex  9.800000e-01  0.000000e+00  1.200000e-01
     vertex  9.800000e-01  1.400000e-01  1.200000e-01
     vertex -9.800000e-01  1.400000e-01  4.500000e-01
   endloop
 endfacet
endsolid
