solid 
 facet normal  0.000000e+00 -1.000000e+00  0.000000e+00
   outer loop
     vertex  9.800000e-01  0.000000e+00  0.000000e+00
     vertex  0.000000e+00  0.000000e+00  1.000000e+00
     vertex  0.000000e+00  0.000000e+00  0.000000e+00
   endloop
 endfacet
 facet normal  0.000000e+00 -1.000000e+00  0.000000e+00
   outer loop
     vertex  9.800000e-01  0.000000e+00  0.000000e+00
     vertex  9.800000e-01  0.000000e+00  1.000000e+00
     vertex  0.000000e+00  0.000000e+00  1.000000e+00
   endloop
 endfacet
 facet normal  1.414214e-01  9.899495e-01  0.000000e+00
   outer loop
     vertex -9.800000e-01  2.800000e-01  0.000000e+00
     vertex  9.800000e-01  0.000000e+00  1.000000e+00
     vertex  9.800000e-01  0.000000e+00  0.000000e+00
   endloop
 endfacet
 facet normal  1.414214e-01  9.899495e-01 -0.000000e+00
   outer loop
     vertex -9.800000e-01  2.800000e-01  0.000000e+00
     vertex -9.800000e-01  2.800000e-01  1.000000e+00
     vertex  9.800000e-01  0.000000e+00  1.000000e+00
   endloop
 endfacet
 facet normal -4.651879e-01 -8.852120e-01  0.000000e+00
   outer loop
     vertex -9.800000e-01  2.800000e-01  0.000000e+00
     vertex  0.000000e+00 -2.350000e-01  0.000000e+00
     vertex  0.000000e+00 -2.350000e-01  1.000000e+00
   endloop
 endfacet
 facet normal -4.651879e-01 -8.852120e-01  0.000000e+00
   outer loop
     vertex -9.800000e-01  2.800000e-01  0.000000e+00
     vertex  0.000000e+00 -2.350000e-01  1.000000e+00
     vertex -9.800000e-01  2.800000e-01  1.000000e+00
   endloop
 endfacet
 facet normal  1.000000e+00  0.000000e+00  0.000000e+00
   outer loop
     vertex  0.000000e+00 -2.350000e-01  0.000000e+00
     vertex  0.000000e+00  0.000000e+00  0.000000e+00
     vertex  0.000000e+00  0.000000e+00  1.000000e+00
   endloop
 endfacet
 facet normal  1.000000e+00  0.000000e+00  0.000000e+00
   outer loop
     vertex  0.000000e+00 -2.350000e-01  0.000000e+00
     vertex  0.000000e+00  0.000000e+00  1.000000e+00
     vertex  0.000000e+00 -2.350000e-01  1.000000e+00
   endloop
 endfacet
 facet normal -0.000000e+00 -0.000000e+00 -1.000000e+00
   outer loop
     vertex  0.000000e+00  0.000000e+00  0.000000e+00
     vertex  0.000000e+00 -2.350000e-01  0.000000e+00
     vertex -9.800000e-01  2.800000e-01  0.000000e+00
   endloop
 endfacet
 facet normal  0.000000e+00  0.000000e+00 -1.000000e+00
   outer loop
     vertex  9.800000e-01  0.000000e+00  0.000000e+00
     vertex  0.000000e+00  0.000000e+00  0.000000e+00
     vertex -9.800000e-01  2.800000e-01  0.000000e+00
   endloop
 endfacet
 facet normal  0.000000e+00  0.000000e+00  1.000000e+00
   outer loop
     vertex  0.000000e+00  0.000000e+00  1.000000e+00
     vertex -9.800000e-01  2.800000e-01  1.000000e+00
     vertex  0.000000e+00 -2.350000e-01  1.000000e+00
   endloop
 endfacet
 facet normal  0.000000e+00  0.000000e+00  1.000000e+00
   outer loop
     vertex  9.800000e-01  0.000000e+00  1.000000e+00
     vertex -9.800000e-01  2.800000e-01  1.000000e+00
     vertex  0.000000e+00  0.000000e+00  1.000000e+00
   endloop
 endfacet
endsolid
