solid 
 facet normal -3.141076e-02  9.995066e-01  0.000000e+00
   outer loop
     vertex -6.153471e-02  9.780662e-01  0.000000e+00
     vertex  0.000000e+00  9.800000e-01  5.900000e-01
     vertex  0.000000e+00  9.800000e-01  0.000000e+00
   endloop
 endfacet
 facet normal -3.141076e-02  9.995066e-01  0.000000e+00
   outer loop
     vertex -6.153471e-02  9.780662e-01  0.000000e+00
     vertex -6.153471e-02  9.780662e-01  5.900000e-01
     vertex  0.000000e+00  9.800000e-01  5.900000e-01
   endloop
 endfacet
 facet normal -9.410831e-02  9.955620e-01  0.000000e+00
   outer loop
     vertex -1.228266e-01  9.722724e-01  0.000000e+00
     vertex -1.228266e-01  9.722724e-01  5.900000e-01
     vertex -6.153471e-02  9.780662e-01  5.900000e-01
   endloop
 endfacet
 facet normal -9.410831e-02  9.955620e-01  0.000000e+00
   outer loop
     vertex -1.228266e-01  9.722724e-01  0.000000e+00
     vertex -6.153471e-02  9.780662e-01  5.900000e-01
     vertex -6.153471e-02  9.780662e-01  0.000000e+00
   endloop
 endfacet
 facet normal -1.564345e-01  9.876883e-01  0.000000e+00
   outer loop
     vertex -1.836337e-01  9.626415e-01  0.000000e+00
     vertex -1.836337e-01  9.626415e-01  5.900000e-01
     vertex -1.228266e-01  9.722724e-01  5.900000e-01
   endloop
 endfacet
 facet normal -1.564345e-01  9.876883e-01  0.000000e+00
   outer loop
     vertex -1.836337e-01  9.626415e-01  0.000000e+00
     vertex -1.228266e-01  9.722724e-01  5.900000e-01
     vertex -1.228266e-01  9.722724e-01  0.000000e+00
   endloop
 endfacet
 facet normal -2.181432e-01  9.759168e-01  0.000000e+00
   outer loop
     vertex -2.437161e-01  9.492115e-01  0.000000e+00
     vertex -2.437161e-01  9.492115e-01  5.900000e-01
     vertex -1.836337e-01  9.626415e-01  5.900000e-01
   endloop
 endfacet
 facet normal -2.181432e-01  9.759168e-01  0.000000e+00
   outer loop
     vertex -2.437161e-01  9.492115e-01  0.000000e+00
     vertex -1.836337e-01  9.626415e-01  5.900000e-01
     vertex -1.836337e-01  9.626415e-01  0.000000e+00
   endloop
 endfacet
 facet normal -2.789911e-01  9.602937e-01  0.000000e+00
   outer loop
     vertex -3.028367e-01  9.320354e-01  0.000000e+00
     vertex -3.028367e-01  9.320354e-01  5.900000e-01
     vertex -2.437161e-01  9.492115e-01  5.900000e-01
   endloop
 endfacet
 facet normal -2.789911e-01  9.602937e-01  0.000000e+00
   outer loop
     vertex -3.028367e-01  9.320354e-01  0.000000e+00
     vertex -2.437161e-01  9.492115e-01  5.900000e-01
     vertex -2.437161e-01  9.492115e-01  0.000000e+00
   endloop
 endfacet
 facet normal -3.387379e-01  9.408808e-01  0.000000e+00
   outer loop
     vertex -3.607621e-01  9.111810e-01  0.000000e+00
     vertex -3.607621e-01  9.111810e-01  5.900000e-01
     vertex -3.028367e-01  9.320354e-01  5.900000e-01
   endloop
 endfacet
 facet normal -3.387379e-01  9.408808e-01  0.000000e+00
   outer loop
     vertex -3.607621e-01  9.111810e-01  0.000000e+00
     vertex -3.028367e-01  9.320354e-01  5.900000e-01
     vertex -3.028367e-01  9.320354e-01  0.000000e+00
   endloop
 endfacet
 facet normal -3.971479e-01  9.177546e-01  0.000000e+00
   outer loop
     vertex -4.172637e-01  8.867305e-01  0.000000e+00
     vertex -4.172637e-01  8.867305e-01  5.900000e-01
     vertex -3.607621e-01  9.111810e-01  5.900000e-01
   endloop
 endfacet
 facet normal -3.971479e-01  9.177546e-01  0.000000e+00
   outer loop
     vertex -4.172637e-01  8.867305e-01  0.000000e+00
     vertex -3.607621e-01  9.111810e-01  5.900000e-01
     vertex -3.607621e-01  9.111810e-01  0.000000e+00
   endloop
 endfacet
 facet normal -4.539905e-01  8.910065e-01  0.000000e+00
   outer loop
     vertex -4.721186e-01  8.587805e-01  0.000000e+00
     vertex -4.721186e-01  8.587805e-01  5.900000e-01
     vertex -4.172637e-01  8.867305e-01  5.900000e-01
   endloop
 endfacet
 facet normal -4.539905e-01  8.910065e-01  0.000000e+00
   outer loop
     vertex -4.721186e-01  8.587805e-01  0.000000e+00
     vertex -4.172637e-01  8.867305e-01  5.900000e-01
     vertex -4.172637e-01  8.867305e-01  0.000000e+00
   endloop
 endfacet
 facet normal -5.090414e-01  8.607420e-01  0.000000e+00
   outer loop
     vertex -5.251103e-01  8.274414e-01  0.000000e+00
     vertex -5.251103e-01  8.274414e-01  5.900000e-01
     vertex -4.721186e-01  8.587805e-01  5.900000e-01
   endloop
 endfacet
 facet normal -5.090414e-01  8.607420e-01  0.000000e+00
   outer loop
     vertex -5.251103e-01  8.274414e-01  0.000000e+00
     vertex -4.721186e-01  8.587805e-01  5.900000e-01
     vertex -4.721186e-01  8.587805e-01  0.000000e+00
   endloop
 endfacet
 facet normal -5.620834e-01  8.270806e-01  0.000000e+00
   outer loop
     vertex -5.760295e-01  7.928367e-01  0.000000e+00
     vertex -5.760295e-01  7.928367e-01  5.900000e-01
     vertex -5.251103e-01  8.274414e-01  5.900000e-01
   endloop
 endfacet
 facet normal -5.620834e-01  8.270806e-01  0.000000e+00
   outer loop
     vertex -5.760295e-01  7.928367e-01  0.000000e+00
     vertex -5.251103e-01  8.274414e-01  5.900000e-01
     vertex -5.251103e-01  8.274414e-01  0.000000e+00
   endloop
 endfacet
 facet normal -6.129071e-01  7.901550e-01  0.000000e+00
   outer loop
     vertex -6.246755e-01  7.551030e-01  0.000000e+00
     vertex -6.246755e-01  7.551030e-01  5.900000e-01
     vertex -5.760295e-01  7.928367e-01  5.900000e-01
   endloop
 endfacet
 facet normal -6.129071e-01  7.901550e-01  0.000000e+00
   outer loop
     vertex -6.246755e-01  7.551030e-01  0.000000e+00
     vertex -5.760295e-01  7.928367e-01  5.900000e-01
     vertex -5.760295e-01  7.928367e-01  0.000000e+00
   endloop
 endfacet
 facet normal -6.613119e-01  7.501111e-01  0.000000e+00
   outer loop
     vertex -6.708562e-01  7.143893e-01  0.000000e+00
     vertex -6.708562e-01  7.143893e-01  5.900000e-01
     vertex -6.246755e-01  7.551030e-01  5.900000e-01
   endloop
 endfacet
 facet normal -6.613119e-01  7.501111e-01  0.000000e+00
   outer loop
     vertex -6.708562e-01  7.143893e-01  0.000000e+00
     vertex -6.246755e-01  7.551030e-01  5.900000e-01
     vertex -6.246755e-01  7.551030e-01  0.000000e+00
   endloop
 endfacet
 facet normal -7.071068e-01  7.071068e-01  0.000000e+00
   outer loop
     vertex -7.143893e-01  6.708562e-01  0.000000e+00
     vertex -7.143893e-01  6.708562e-01  5.900000e-01
     vertex -6.708562e-01  7.143893e-01  5.900000e-01
   endloop
 endfacet
 facet normal -7.501111e-01  6.613119e-01  0.000000e+00
   outer loop
     vertex -7.143893e-01  6.708562e-01  0.000000e+00
     vertex -7.551030e-01  6.246755e-01  5.900000e-01
     vertex -7.143893e-01  6.708562e-01  5.900000e-01
   endloop
 endfacet
 facet normal -7.071068e-01  7.071068e-01  0.000000e+00
   outer loop
     vertex -7.143893e-01  6.708562e-01  0.000000e+00
     vertex -6.708562e-01  7.143893e-01  5.900000e-01
     vertex -6.708562e-01  7.143893e-01  0.000000e+00
   endloop
 endfacet
 facet normal -7.501111e-01  6.613119e-01  0.000000e+00
   outer loop
     vertex -7.551030e-01  6.246755e-01  0.000000e+00
     vertex -7.551030e-01  6.246755e-01  5.900000e-01
     vertex -7.143893e-01  6.708562e-01  0.000000e+00
   endloop
 endfacet
 facet normal -7.901550e-01  6.129071e-01  0.000000e+00
   outer loop
     vertex -7.928367e-01  5.760295e-01  0.000000e+00
     vertex -7.928367e-01  5.760295e-01  5.900000e-01
     vertex -7.551030e-01  6.246755e-01  5.900000e-01
   endloop
 endfacet
 facet normal -7.901550e-01  6.129071e-01  0.000000e+00
   outer loop
     vertex -7.928367e-01  5.760295e-01  0.000000e+00
     vertex -7.551030e-01  6.246755e-01  5.900000e-01
     vertex -7.551030e-01  6.246755e-01  0.000000e+00
   endloop
 endfacet
 facet normal -8.270806e-01  5.620834e-01  0.000000e+00
   outer loop
     vertex -8.274414e-01  5.251103e-01  0.000000e+00
     vertex -8.274414e-01  5.251103e-01  5.900000e-01
     vertex -7.928367e-01  5.760295e-01  5.900000e-01
   endloop
 endfacet
 facet normal -8.270806e-01  5.620834e-01  0.000000e+00
   outer loop
     vertex -8.274414e-01  5.251103e-01  0.000000e+00
     vertex -7.928367e-01  5.760295e-01  5.900000e-01
     vertex -7.928367e-01  5.760295e-01  0.000000e+00
   endloop
 endfacet
 facet normal -8.607420e-01  5.090414e-01  0.000000e+00
   outer loop
     vertex -8.587805e-01  4.721186e-01  0.000000e+00
     vertex -8.587805e-01  4.721186e-01  5.900000e-01
     vertex -8.274414e-01  5.251103e-01  5.900000e-01
   endloop
 endfacet
 facet normal -8.607420e-01  5.090414e-01  0.000000e+00
   outer loop
     vertex -8.587805e-01  4.721186e-01  0.000000e+00
     vertex -8.274414e-01  5.251103e-01  5.900000e-01
     vertex -8.274414e-01  5.251103e-01  0.000000e+00
   endloop
 endfacet
 facet normal -8.910065e-01  4.539905e-01  0.000000e+00
   outer loop
     vertex -8.867305e-01  4.172637e-01  0.000000e+00
     vertex -8.867305e-01  4.172637e-01  5.900000e-01
     vertex -8.587805e-01  4.721186e-01  5.900000e-01
   endloop
 endfacet
 facet normal -8.910065e-01  4.539905e-01  0.000000e+00
   outer loop
     vertex -8.867305e-01  4.172637e-01  0.000000e+00
     vertex -8.587805e-01  4.721186e-01  5.900000e-01
     vertex -8.587805e-01  4.721186e-01  0.000000e+00
   endloop
 endfacet
 facet normal -9.177546e-01  3.971479e-01  0.000000e+00
   outer loop
     vertex -9.111810e-01  3.607621e-01  0.000000e+00
     vertex -9.111810e-01  3.607621e-01  5.900000e-01
     vertex -8.867305e-01  4.172637e-01  5.900000e-01
   endloop
 endfacet
 facet normal -9.177546e-01  3.971479e-01  0.000000e+00
   outer loop
     vertex -9.111810e-01  3.607621e-01  0.000000e+00
     vertex -8.867305e-01  4.172637e-01  5.900000e-01
     vertex -8.867305e-01  4.172637e-01  0.000000e+00
   endloop
 endfacet
 facet normal -9.408808e-01  3.387379e-01  0.000000e+00
   outer loop
     vertex -9.320354e-01  3.028367e-01  0.000000e+00
     vertex -9.320354e-01  3.028367e-01  5.900000e-01
     vertex -9.111810e-01  3.607621e-01  5.900000e-01
   endloop
 endfacet
 facet normal -9.408808e-01  3.387379e-01  0.000000e+00
   outer loop
     vertex -9.320354e-01  3.028367e-01  0.000000e+00
     vertex -9.111810e-01  3.607621e-01  5.900000e-01
     vertex -9.111810e-01  3.607621e-01  0.000000e+00
   endloop
 endfacet
 facet normal -9.602937e-01  2.789911e-01  0.000000e+00
   outer loop
     vertex -9.492115e-01  2.437161e-01  0.000000e+00
     vertex -9.492115e-01  2.437161e-01  5.900000e-01
     vertex -9.320354e-01  3.028367e-01  5.900000e-01
   endloop
 endfacet
 facet normal -9.602937e-01  2.789911e-01  0.000000e+00
   outer loop
     vertex -9.492115e-01  2.437161e-01  0.000000e+00
     vertex -9.320354e-01  3.028367e-01  5.900000e-01
     vertex -9.320354e-01  3.028367e-01  0.000000e+00
   endloop
 endfacet
 facet normal -9.759168e-01  2.181432e-01  0.000000e+00
   outer loop
     vertex -9.626415e-01  1.836337e-01  0.000000e+00
     vertex -9.626415e-01  1.836337e-01  5.900000e-01
     vertex -9.492115e-01  2.437161e-01  5.900000e-01
   endloop
 endfacet
 facet normal -9.759168e-01  2.181432e-01  0.000000e+00
   outer loop
     vertex -9.626415e-01  1.836337e-01  0.000000e+00
     vertex -9.492115e-01  2.437161e-01  5.900000e-01
     vertex -9.492115e-01  2.437161e-01  0.000000e+00
   endloop
 endfacet
 facet normal -9.876883e-01  1.564345e-01  0.000000e+00
   outer loop
     vertex -9.722724e-01  1.228266e-01  0.000000e+00
     vertex -9.722724e-01  1.228266e-01  5.900000e-01
     vertex -9.626415e-01  1.836337e-01  5.900000e-01
   endloop
 endfacet
 facet normal -9.955620e-01  9.410831e-02  0.000000e+00
   outer loop
     vertex -9.722724e-01  1.228266e-01  0.000000e+00
     vertex -9.780662e-01  6.153471e-02  5.900000e-01
     vertex -9.722724e-01  1.228266e-01  5.900000e-01
   endloop
 endfacet
 facet normal -9.876883e-01  1.564345e-01  0.000000e+00
   outer loop
     vertex -9.722724e-01  1.228266e-01  0.000000e+00
     vertex -9.626415e-01  1.836337e-01  5.900000e-01
     vertex -9.626415e-01  1.836337e-01  0.000000e+00
   endloop
 endfacet
 facet normal -9.955620e-01  9.410831e-02  0.000000e+00
   outer loop
     vertex -9.780662e-01  6.153471e-02  0.000000e+00
     vertex -9.780662e-01  6.153471e-02  5.900000e-01
     vertex -9.722724e-01  1.228266e-01  0.000000e+00
   endloop
 endfacet
 facet normal -9.995066e-01  3.141076e-02  0.000000e+00
   outer loop
     vertex -9.780662e-01  6.153471e-02  0.000000e+00
     vertex -9.800000e-01 -6.483146e-16  5.900000e-01
     vertex -9.780662e-01  6.153471e-02  5.900000e-01
   endloop
 endfacet
 facet normal -9.995066e-01  3.141076e-02  0.000000e+00
   outer loop
     vertex -9.800000e-01 -6.483146e-16  0.000000e+00
     vertex -9.800000e-01 -6.483146e-16  5.900000e-01
     vertex -9.780662e-01  6.153471e-02  0.000000e+00
   endloop
 endfacet
 facet normal -9.995066e-01 -3.141076e-02  0.000000e+00
   outer loop
     vertex -9.780662e-01 -6.153471e-02  0.000000e+00
     vertex -9.800000e-01 -6.483146e-16  5.900000e-01
     vertex -9.800000e-01 -6.483146e-16  0.000000e+00
   endloop
 endfacet
 facet normal -9.995066e-01 -3.141076e-02  0.000000e+00
   outer loop
     vertex -9.780662e-01 -6.153471e-02  0.000000e+00
     vertex -9.780662e-01 -6.153471e-02  5.900000e-01
     vertex -9.800000e-01 -6.483146e-16  5.900000e-01
   endloop
 endfacet
 facet normal -9.955620e-01 -9.410831e-02  0.000000e+00
   outer loop
     vertex -9.722724e-01 -1.228266e-01  0.000000e+00
     vertex -9.780662e-01 -6.153471e-02  5.900000e-01
     vertex -9.780662e-01 -6.153471e-02  0.000000e+00
   endloop
 endfacet
 facet normal -9.955620e-01 -9.410831e-02  0.000000e+00
   outer loop
     vertex -9.722724e-01 -1.228266e-01  0.000000e+00
     vertex -9.722724e-01 -1.228266e-01  5.900000e-01
     vertex -9.780662e-01 -6.153471e-02  5.900000e-01
   endloop
 endfacet
 facet normal -9.876883e-01 -1.564345e-01  0.000000e+00
   outer loop
     vertex -9.722724e-01 -1.228266e-01  0.000000e+00
     vertex -9.626415e-01 -1.836337e-01  5.900000e-01
     vertex -9.722724e-01 -1.228266e-01  5.900000e-01
   endloop
 endfacet
 facet normal -9.876883e-01 -1.564345e-01  0.000000e+00
   outer loop
     vertex -9.626415e-01 -1.836337e-01  0.000000e+00
     vertex -9.626415e-01 -1.836337e-01  5.900000e-01
     vertex -9.722724e-01 -1.228266e-01  0.000000e+00
   endloop
 endfacet
 facet normal -9.759168e-01 -2.181432e-01  0.000000e+00
   outer loop
     vertex -9.492115e-01 -2.437161e-01  0.000000e+00
     vertex -9.626415e-01 -1.836337e-01  5.900000e-01
     vertex -9.626415e-01 -1.836337e-01  0.000000e+00
   endloop
 endfacet
 facet normal -9.759168e-01 -2.181432e-01  0.000000e+00
   outer loop
     vertex -9.492115e-01 -2.437161e-01  0.000000e+00
     vertex -9.492115e-01 -2.437161e-01  5.900000e-01
     vertex -9.626415e-01 -1.836337e-01  5.900000e-01
   endloop
 endfacet
 facet normal -9.602937e-01 -2.789911e-01  0.000000e+00
   outer loop
     vertex -9.320354e-01 -3.028367e-01  0.000000e+00
     vertex -9.492115e-01 -2.437161e-01  5.900000e-01
     vertex -9.492115e-01 -2.437161e-01  0.000000e+00
   endloop
 endfacet
 facet normal -9.602937e-01 -2.789911e-01  0.000000e+00
   outer loop
     vertex -9.320354e-01 -3.028367e-01  0.000000e+00
     vertex -9.320354e-01 -3.028367e-01  5.900000e-01
     vertex -9.492115e-01 -2.437161e-01  5.900000e-01
   endloop
 endfacet
 facet normal -9.408808e-01 -3.387379e-01  0.000000e+00
   outer loop
     vertex -9.320354e-01 -3.028367e-01  0.000000e+00
     vertex -9.111810e-01 -3.607621e-01  5.900000e-01
     vertex -9.320354e-01 -3.028367e-01  5.900000e-01
   endloop
 endfacet
 facet normal -9.408808e-01 -3.387379e-01  0.000000e+00
   outer loop
     vertex -9.111810e-01 -3.607621e-01  0.000000e+00
     vertex -9.111810e-01 -3.607621e-01  5.900000e-01
     vertex -9.320354e-01 -3.028367e-01  0.000000e+00
   endloop
 endfacet
 facet normal -9.177546e-01 -3.971479e-01  0.000000e+00
   outer loop
     vertex -8.867305e-01 -4.172637e-01  0.000000e+00
     vertex -8.867305e-01 -4.172637e-01  5.900000e-01
     vertex -9.111810e-01 -3.607621e-01  5.900000e-01
   endloop
 endfacet
 facet normal -9.177546e-01 -3.971479e-01  0.000000e+00
   outer loop
     vertex -8.867305e-01 -4.172637e-01  0.000000e+00
     vertex -9.111810e-01 -3.607621e-01  5.900000e-01
     vertex -9.111810e-01 -3.607621e-01  0.000000e+00
   endloop
 endfacet
 facet normal -8.910065e-01 -4.539905e-01  0.000000e+00
   outer loop
     vertex -8.867305e-01 -4.172637e-01  0.000000e+00
     vertex -8.587805e-01 -4.721186e-01  5.900000e-01
     vertex -8.867305e-01 -4.172637e-01  5.900000e-01
   endloop
 endfacet
 facet normal -8.910065e-01 -4.539905e-01  0.000000e+00
   outer loop
     vertex -8.587805e-01 -4.721186e-01  0.000000e+00
     vertex -8.587805e-01 -4.721186e-01  5.900000e-01
     vertex -8.867305e-01 -4.172637e-01  0.000000e+00
   endloop
 endfacet
 facet normal -8.607420e-01 -5.090414e-01  0.000000e+00
   outer loop
     vertex -8.274414e-01 -5.251103e-01  0.000000e+00
     vertex -8.274414e-01 -5.251103e-01  5.900000e-01
     vertex -8.587805e-01 -4.721186e-01  5.900000e-01
   endloop
 endfacet
 facet normal -8.270806e-01 -5.620834e-01  0.000000e+00
   outer loop
     vertex -8.274414e-01 -5.251103e-01  0.000000e+00
     vertex -7.928367e-01 -5.760295e-01  5.900000e-01
     vertex -8.274414e-01 -5.251103e-01  5.900000e-01
   endloop
 endfacet
 facet normal -8.607420e-01 -5.090414e-01  0.000000e+00
   outer loop
     vertex -8.274414e-01 -5.251103e-01  0.000000e+00
     vertex -8.587805e-01 -4.721186e-01  5.900000e-01
     vertex -8.587805e-01 -4.721186e-01  0.000000e+00
   endloop
 endfacet
 facet normal -8.270806e-01 -5.620834e-01  0.000000e+00
   outer loop
     vertex -7.928367e-01 -5.760295e-01  0.000000e+00
     vertex -7.928367e-01 -5.760295e-01  5.900000e-01
     vertex -8.274414e-01 -5.251103e-01  0.000000e+00
   endloop
 endfacet
 facet normal -7.901550e-01 -6.129071e-01  0.000000e+00
   outer loop
     vertex -7.551030e-01 -6.246755e-01  0.000000e+00
     vertex -7.551030e-01 -6.246755e-01  5.900000e-01
     vertex -7.928367e-01 -5.760295e-01  5.900000e-01
   endloop
 endfacet
 facet normal -7.901550e-01 -6.129071e-01  0.000000e+00
   outer loop
     vertex -7.551030e-01 -6.246755e-01  0.000000e+00
     vertex -7.928367e-01 -5.760295e-01  5.900000e-01
     vertex -7.928367e-01 -5.760295e-01  0.000000e+00
   endloop
 endfacet
 facet normal -7.501111e-01 -6.613119e-01  0.000000e+00
   outer loop
     vertex -7.143893e-01 -6.708562e-01  0.000000e+00
     vertex -7.143893e-01 -6.708562e-01  5.900000e-01
     vertex -7.551030e-01 -6.246755e-01  5.900000e-01
   endloop
 endfacet
 facet normal -7.071068e-01 -7.071068e-01  0.000000e+00
   outer loop
     vertex -7.143893e-01 -6.708562e-01  0.000000e+00
     vertex -6.708562e-01 -7.143893e-01  5.900000e-01
     vertex -7.143893e-01 -6.708562e-01  5.900000e-01
   endloop
 endfacet
 facet normal -7.501111e-01 -6.613119e-01  0.000000e+00
   outer loop
     vertex -7.143893e-01 -6.708562e-01  0.000000e+00
     vertex -7.551030e-01 -6.246755e-01  5.900000e-01
     vertex -7.551030e-01 -6.246755e-01  0.000000e+00
   endloop
 endfacet
 facet normal -7.071068e-01 -7.071068e-01  0.000000e+00
   outer loop
     vertex -6.708562e-01 -7.143893e-01  0.000000e+00
     vertex -6.708562e-01 -7.143893e-01  5.900000e-01
     vertex -7.143893e-01 -6.708562e-01  0.000000e+00
   endloop
 endfacet
 facet normal -6.613119e-01 -7.501111e-01  0.000000e+00
   outer loop
     vertex -6.246755e-01 -7.551030e-01  0.000000e+00
     vertex -6.246755e-01 -7.551030e-01  5.900000e-01
     vertex -6.708562e-01 -7.143893e-01  5.900000e-01
   endloop
 endfacet
 facet normal -6.129071e-01 -7.901550e-01  0.000000e+00
   outer loop
     vertex -6.246755e-01 -7.551030e-01  0.000000e+00
     vertex -5.760295e-01 -7.928367e-01  5.900000e-01
     vertex -6.246755e-01 -7.551030e-01  5.900000e-01
   endloop
 endfacet
 facet normal -6.613119e-01 -7.501111e-01  0.000000e+00
   outer loop
     vertex -6.246755e-01 -7.551030e-01  0.000000e+00
     vertex -6.708562e-01 -7.143893e-01  5.900000e-01
     vertex -6.708562e-01 -7.143893e-01  0.000000e+00
   endloop
 endfacet
 facet normal -6.129071e-01 -7.901550e-01  0.000000e+00
   outer loop
     vertex -5.760295e-01 -7.928367e-01  0.000000e+00
     vertex -5.760295e-01 -7.928367e-01  5.900000e-01
     vertex -6.246755e-01 -7.551030e-01  0.000000e+00
   endloop
 endfacet
 facet normal -5.620834e-01 -8.270806e-01  0.000000e+00
   outer loop
     vertex -5.251103e-01 -8.274414e-01  0.000000e+00
     vertex -5.251103e-01 -8.274414e-01  5.900000e-01
     vertex -5.760295e-01 -7.928367e-01  5.900000e-01
   endloop
 endfacet
 facet normal -5.620834e-01 -8.270806e-01  0.000000e+00
   outer loop
     vertex -5.251103e-01 -8.274414e-01  0.000000e+00
     vertex -5.760295e-01 -7.928367e-01  5.900000e-01
     vertex -5.760295e-01 -7.928367e-01  0.000000e+00
   endloop
 endfacet
 facet normal -5.090414e-01 -8.607420e-01  0.000000e+00
   outer loop
     vertex -4.721186e-01 -8.587805e-01  0.000000e+00
     vertex -4.721186e-01 -8.587805e-01  5.900000e-01
     vertex -5.251103e-01 -8.274414e-01  5.900000e-01
   endloop
 endfacet
 facet normal -4.539905e-01 -8.910065e-01  0.000000e+00
   outer loop
     vertex -4.721186e-01 -8.587805e-01  0.000000e+00
     vertex -4.172637e-01 -8.867305e-01  5.900000e-01
     vertex -4.721186e-01 -8.587805e-01  5.900000e-01
   endloop
 endfacet
 facet normal -5.090414e-01 -8.607420e-01  0.000000e+00
   outer loop
     vertex -4.721186e-01 -8.587805e-01  0.000000e+00
     vertex -5.251103e-01 -8.274414e-01  5.900000e-01
     vertex -5.251103e-01 -8.274414e-01  0.000000e+00
   endloop
 endfacet
 facet normal -4.539905e-01 -8.910065e-01  0.000000e+00
   outer loop
     vertex -4.172637e-01 -8.867305e-01  0.000000e+00
     vertex -4.172637e-01 -8.867305e-01  5.900000e-01
     vertex -4.721186e-01 -8.587805e-01  0.000000e+00
   endloop
 endfacet
 facet normal -3.971479e-01 -9.177546e-01  0.000000e+00
   outer loop
     vertex -3.607621e-01 -9.111810e-01  0.000000e+00
     vertex -3.607621e-01 -9.111810e-01  5.900000e-01
     vertex -4.172637e-01 -8.867305e-01  5.900000e-01
   endloop
 endfacet
 facet normal -3.387379e-01 -9.408808e-01  0.000000e+00
   outer loop
     vertex -3.607621e-01 -9.111810e-01  0.000000e+00
     vertex -3.028367e-01 -9.320354e-01  5.900000e-01
     vertex -3.607621e-01 -9.111810e-01  5.900000e-01
   endloop
 endfacet
 facet normal -3.971479e-01 -9.177546e-01  0.000000e+00
   outer loop
     vertex -3.607621e-01 -9.111810e-01  0.000000e+00
     vertex -4.172637e-01 -8.867305e-01  5.900000e-01
     vertex -4.172637e-01 -8.867305e-01  0.000000e+00
   endloop
 endfacet
 facet normal -3.387379e-01 -9.408808e-01  0.000000e+00
   outer loop
     vertex -3.028367e-01 -9.320354e-01  0.000000e+00
     vertex -3.028367e-01 -9.320354e-01  5.900000e-01
     vertex -3.607621e-01 -9.111810e-01  0.000000e+00
   endloop
 endfacet
 facet normal -2.789911e-01 -9.602937e-01  0.000000e+00
   outer loop
     vertex -2.437161e-01 -9.492115e-01  0.000000e+00
     vertex -2.437161e-01 -9.492115e-01  5.900000e-01
     vertex -3.028367e-01 -9.320354e-01  5.900000e-01
   endloop
 endfacet
 facet normal -2.181432e-01 -9.759168e-01  0.000000e+00
   outer loop
     vertex -2.437161e-01 -9.492115e-01  0.000000e+00
     vertex -1.836337e-01 -9.626415e-01  5.900000e-01
     vertex -2.437161e-01 -9.492115e-01  5.900000e-01
   endloop
 endfacet
 facet normal -2.789911e-01 -9.602937e-01  0.000000e+00
   outer loop
     vertex -2.437161e-01 -9.492115e-01  0.000000e+00
     vertex -3.028367e-01 -9.320354e-01  5.900000e-01
     vertex -3.028367e-01 -9.320354e-01  0.000000e+00
   endloop
 endfacet
 facet normal -2.181432e-01 -9.759168e-01  0.000000e+00
   outer loop
     vertex -1.836337e-01 -9.626415e-01  0.000000e+00
     vertex -1.836337e-01 -9.626415e-01  5.900000e-01
     vertex -2.437161e-01 -9.492115e-01  0.000000e+00
   endloop
 endfacet
 facet normal -1.564345e-01 -9.876883e-01  0.000000e+00
   outer loop
     vertex -1.228266e-01 -9.722724e-01  0.000000e+00
     vertex -1.228266e-01 -9.722724e-01  5.900000e-01
     vertex -1.836337e-01 -9.626415e-01  5.900000e-01
   endloop
 endfacet
 facet normal -9.410831e-02 -9.955620e-01  0.000000e+00
   outer loop
     vertex -1.228266e-01 -9.722724e-01  0.000000e+00
     vertex -6.153471e-02 -9.780662e-01  5.900000e-01
     vertex -1.228266e-01 -9.722724e-01  5.900000e-01
   endloop
 endfacet
 facet normal -1.564345e-01 -9.876883e-01  0.000000e+00
   outer loop
     vertex -1.228266e-01 -9.722724e-01  0.000000e+00
     vertex -1.836337e-01 -9.626415e-01  5.900000e-01
     vertex -1.836337e-01 -9.626415e-01  0.000000e+00
   endloop
 endfacet
 facet normal -9.410831e-02 -9.955620e-01  0.000000e+00
   outer loop
     vertex -6.153471e-02 -9.780662e-01  0.000000e+00
     vertex -6.153471e-02 -9.780662e-01  5.900000e-01
     vertex -1.228266e-01 -9.722724e-01  0.000000e+00
   endloop
 endfacet
 facet normal -3.141076e-02 -9.995066e-01  0.000000e+00
   outer loop
     vertex -4.496541e-18 -9.800000e-01  0.000000e+00
     vertex -4.496541e-18 -9.800000e-01  5.900000e-01
     vertex -6.153471e-02 -9.780662e-01  5.900000e-01
   endloop
 endfacet
 facet normal -3.141076e-02 -9.995066e-01  0.000000e+00
   outer loop
     vertex -4.496541e-18 -9.800000e-01  0.000000e+00
     vertex -6.153471e-02 -9.780662e-01  5.900000e-01
     vertex -6.153471e-02 -9.780662e-01  0.000000e+00
   endloop
 endfacet
 facet normal  1.000000e+00  3.657765e-16  0.000000e+00
   outer loop
     vertex -7.582296e-17 -7.850000e-01  0.000000e+00
     vertex -4.496541e-18 -9.800000e-01  5.900000e-01
     vertex -4.496541e-18 -9.800000e-01  0.000000e+00
   endloop
 endfacet
 facet normal  1.000000e+00  3.657765e-16 -0.000000e+00
   outer loop
     vertex -7.582296e-17 -7.850000e-01  0.000000e+00
     vertex -7.582296e-17 -7.850000e-01  5.900000e-01
     vertex -4.496541e-18 -9.800000e-01  5.900000e-01
   endloop
 endfacet
 facet normal  3.489950e-02 -9.993908e-01  0.000000e+00
   outer loop
     vertex -5.475883e-02  7.830878e-01  0.000000e+00
     vertex  0.000000e+00  7.850000e-01  0.000000e+00
     vertex  0.000000e+00  7.850000e-01  5.900000e-01
   endloop
 endfacet
 facet normal  3.489950e-02 -9.993908e-01  0.000000e+00
   outer loop
     vertex -5.475883e-02  7.830878e-01  0.000000e+00
     vertex  0.000000e+00  7.850000e-01  5.900000e-01
     vertex -5.475883e-02  7.830878e-01  5.900000e-01
   endloop
 endfacet
 facet normal  1.045285e-01 -9.945219e-01  0.000000e+00
   outer loop
     vertex -1.092509e-01  7.773604e-01  0.000000e+00
     vertex -5.475883e-02  7.830878e-01  5.900000e-01
     vertex -1.092509e-01  7.773604e-01  5.900000e-01
   endloop
 endfacet
 facet normal  1.045285e-01 -9.945219e-01  0.000000e+00
   outer loop
     vertex -1.092509e-01  7.773604e-01  0.000000e+00
     vertex -5.475883e-02  7.830878e-01  0.000000e+00
     vertex -5.475883e-02  7.830878e-01  5.900000e-01
   endloop
 endfacet
 facet normal  1.736482e-01 -9.848078e-01  0.000000e+00
   outer loop
     vertex -1.632107e-01  7.678459e-01  0.000000e+00
     vertex -1.092509e-01  7.773604e-01  5.900000e-01
     vertex -1.632107e-01  7.678459e-01  5.900000e-01
   endloop
 endfacet
 facet normal  1.736482e-01 -9.848078e-01  0.000000e+00
   outer loop
     vertex -1.632107e-01  7.678459e-01  0.000000e+00
     vertex -1.092509e-01  7.773604e-01  0.000000e+00
     vertex -1.092509e-01  7.773604e-01  5.900000e-01
   endloop
 endfacet
 facet normal  2.419219e-01 -9.702957e-01  0.000000e+00
   outer loop
     vertex -2.163753e-01  7.545904e-01  0.000000e+00
     vertex -1.632107e-01  7.678459e-01  5.900000e-01
     vertex -2.163753e-01  7.545904e-01  5.900000e-01
   endloop
 endfacet
 facet normal  2.419219e-01 -9.702957e-01  0.000000e+00
   outer loop
     vertex -2.163753e-01  7.545904e-01  0.000000e+00
     vertex -1.632107e-01  7.678459e-01  0.000000e+00
     vertex -1.632107e-01  7.678459e-01  5.900000e-01
   endloop
 endfacet
 facet normal  3.090170e-01 -9.510565e-01  0.000000e+00
   outer loop
     vertex -2.684858e-01  7.376587e-01  0.000000e+00
     vertex -2.163753e-01  7.545904e-01  5.900000e-01
     vertex -2.684858e-01  7.376587e-01  5.900000e-01
   endloop
 endfacet
 facet normal  3.090170e-01 -9.510565e-01  0.000000e+00
   outer loop
     vertex -2.684858e-01  7.376587e-01  0.000000e+00
     vertex -2.163753e-01  7.545904e-01  0.000000e+00
     vertex -2.163753e-01  7.545904e-01  5.900000e-01
   endloop
 endfacet
 facet normal  3.746066e-01 -9.271839e-01  0.000000e+00
   outer loop
     vertex -3.192883e-01  7.171332e-01  0.000000e+00
     vertex -2.684858e-01  7.376587e-01  5.900000e-01
     vertex -3.192883e-01  7.171332e-01  5.900000e-01
   endloop
 endfacet
 facet normal  3.746066e-01 -9.271839e-01  0.000000e+00
   outer loop
     vertex -3.192883e-01  7.171332e-01  0.000000e+00
     vertex -2.684858e-01  7.376587e-01  0.000000e+00
     vertex -2.684858e-01  7.376587e-01  5.900000e-01
   endloop
 endfacet
 facet normal  4.383711e-01 -8.987940e-01  0.000000e+00
   outer loop
     vertex -3.685352e-01  6.931139e-01  0.000000e+00
     vertex -3.192883e-01  7.171332e-01  5.900000e-01
     vertex -3.685352e-01  6.931139e-01  5.900000e-01
   endloop
 endfacet
 facet normal  4.383711e-01 -8.987940e-01  0.000000e+00
   outer loop
     vertex -3.685352e-01  6.931139e-01  0.000000e+00
     vertex -3.192883e-01  7.171332e-01  0.000000e+00
     vertex -3.192883e-01  7.171332e-01  5.900000e-01
   endloop
 endfacet
 facet normal  5.000000e-01 -8.660254e-01  0.000000e+00
   outer loop
     vertex -4.159866e-01  6.657178e-01  0.000000e+00
     vertex -3.685352e-01  6.931139e-01  5.900000e-01
     vertex -4.159866e-01  6.657178e-01  5.900000e-01
   endloop
 endfacet
 facet normal  5.000000e-01 -8.660254e-01  0.000000e+00
   outer loop
     vertex -4.159866e-01  6.657178e-01  0.000000e+00
     vertex -3.685352e-01  6.931139e-01  0.000000e+00
     vertex -3.685352e-01  6.931139e-01  5.900000e-01
   endloop
 endfacet
 facet normal  5.591929e-01 -8.290376e-01  0.000000e+00
   outer loop
     vertex -4.614114e-01  6.350783e-01  0.000000e+00
     vertex -4.159866e-01  6.657178e-01  5.900000e-01
     vertex -4.614114e-01  6.350783e-01  5.900000e-01
   endloop
 endfacet
 facet normal  5.591929e-01 -8.290376e-01  0.000000e+00
   outer loop
     vertex -4.614114e-01  6.350783e-01  0.000000e+00
     vertex -4.159866e-01  6.657178e-01  0.000000e+00
     vertex -4.159866e-01  6.657178e-01  5.900000e-01
   endloop
 endfacet
 facet normal  6.156615e-01 -7.880108e-01  0.000000e+00
   outer loop
     vertex -5.045883e-01  6.013449e-01  0.000000e+00
     vertex -4.614114e-01  6.350783e-01  5.900000e-01
     vertex -5.045883e-01  6.013449e-01  5.900000e-01
   endloop
 endfacet
 facet normal  6.156615e-01 -7.880108e-01  0.000000e+00
   outer loop
     vertex -5.045883e-01  6.013449e-01  0.000000e+00
     vertex -4.614114e-01  6.350783e-01  0.000000e+00
     vertex -4.614114e-01  6.350783e-01  5.900000e-01
   endloop
 endfacet
 facet normal  6.691306e-01 -7.431448e-01  0.000000e+00
   outer loop
     vertex -5.453068e-01  5.646817e-01  0.000000e+00
     vertex -5.045883e-01  6.013449e-01  5.900000e-01
     vertex -5.453068e-01  5.646817e-01  5.900000e-01
   endloop
 endfacet
 facet normal  7.193398e-01 -6.946584e-01  0.000000e+00
   outer loop
     vertex -5.453068e-01  5.646817e-01  0.000000e+00
     vertex -5.453068e-01  5.646817e-01  5.900000e-01
     vertex -5.833687e-01  5.252675e-01  5.900000e-01
   endloop
 endfacet
 facet normal  6.691306e-01 -7.431448e-01  0.000000e+00
   outer loop
     vertex -5.453068e-01  5.646817e-01  0.000000e+00
     vertex -5.045883e-01  6.013449e-01  0.000000e+00
     vertex -5.045883e-01  6.013449e-01  5.900000e-01
   endloop
 endfacet
 facet normal  7.660444e-01 -6.427876e-01  0.000000e+00
   outer loop
     vertex -5.833687e-01  5.252675e-01  0.000000e+00
     vertex -5.833687e-01  5.252675e-01  5.900000e-01
     vertex -6.185884e-01  4.832943e-01  5.900000e-01
   endloop
 endfacet
 facet normal  7.193398e-01 -6.946584e-01  0.000000e+00
   outer loop
     vertex -5.833687e-01  5.252675e-01  0.000000e+00
     vertex -5.453068e-01  5.646817e-01  0.000000e+00
     vertex -5.833687e-01  5.252675e-01  5.900000e-01
   endloop
 endfacet
 facet normal  7.660444e-01 -6.427876e-01  0.000000e+00
   outer loop
     vertex -6.185884e-01  4.832943e-01  0.000000e+00
     vertex -5.833687e-01  5.252675e-01  0.000000e+00
     vertex -6.185884e-01  4.832943e-01  5.900000e-01
   endloop
 endfacet
 facet normal  8.090170e-01 -5.877853e-01  0.000000e+00
   outer loop
     vertex -6.507945e-01  4.389664e-01  0.000000e+00
     vertex -6.185884e-01  4.832943e-01  5.900000e-01
     vertex -6.507945e-01  4.389664e-01  5.900000e-01
   endloop
 endfacet
 facet normal  8.090170e-01 -5.877853e-01  0.000000e+00
   outer loop
     vertex -6.507945e-01  4.389664e-01  0.000000e+00
     vertex -6.185884e-01  4.832943e-01  0.000000e+00
     vertex -6.185884e-01  4.832943e-01  5.900000e-01
   endloop
 endfacet
 facet normal  8.480481e-01 -5.299193e-01  0.000000e+00
   outer loop
     vertex -6.798299e-01  3.925000e-01  0.000000e+00
     vertex -6.507945e-01  4.389664e-01  5.900000e-01
     vertex -6.798299e-01  3.925000e-01  5.900000e-01
   endloop
 endfacet
 facet normal  8.480481e-01 -5.299193e-01  0.000000e+00
   outer loop
     vertex -6.798299e-01  3.925000e-01  0.000000e+00
     vertex -6.507945e-01  4.389664e-01  0.000000e+00
     vertex -6.507945e-01  4.389664e-01  5.900000e-01
   endloop
 endfacet
 facet normal  8.829476e-01 -4.694716e-01  0.000000e+00
   outer loop
     vertex -7.055533e-01  3.441214e-01  0.000000e+00
     vertex -6.798299e-01  3.925000e-01  5.900000e-01
     vertex -7.055533e-01  3.441214e-01  5.900000e-01
   endloop
 endfacet
 facet normal  8.829476e-01 -4.694716e-01  0.000000e+00
   outer loop
     vertex -7.055533e-01  3.441214e-01  0.000000e+00
     vertex -6.798299e-01  3.925000e-01  0.000000e+00
     vertex -6.798299e-01  3.925000e-01  5.900000e-01
   endloop
 endfacet
 facet normal  9.135455e-01 -4.067366e-01  0.000000e+00
   outer loop
     vertex -7.278393e-01  2.940662e-01  0.000000e+00
     vertex -7.055533e-01  3.441214e-01  5.900000e-01
     vertex -7.278393e-01  2.940662e-01  5.900000e-01
   endloop
 endfacet
 facet normal  9.135455e-01 -4.067366e-01  0.000000e+00
   outer loop
     vertex -7.278393e-01  2.940662e-01  0.000000e+00
     vertex -7.055533e-01  3.441214e-01  0.000000e+00
     vertex -7.055533e-01  3.441214e-01  5.900000e-01
   endloop
 endfacet
 facet normal  9.396926e-01 -3.420201e-01  0.000000e+00
   outer loop
     vertex -7.465794e-01  2.425783e-01  0.000000e+00
     vertex -7.278393e-01  2.940662e-01  5.900000e-01
     vertex -7.465794e-01  2.425783e-01  5.900000e-01
   endloop
 endfacet
 facet normal  9.396926e-01 -3.420201e-01  0.000000e+00
   outer loop
     vertex -7.465794e-01  2.425783e-01  0.000000e+00
     vertex -7.278393e-01  2.940662e-01  0.000000e+00
     vertex -7.278393e-01  2.940662e-01  5.900000e-01
   endloop
 endfacet
 facet normal  9.612617e-01 -2.756374e-01  0.000000e+00
   outer loop
     vertex -7.616821e-01  1.899087e-01  0.000000e+00
     vertex -7.465794e-01  2.425783e-01  5.900000e-01
     vertex -7.616821e-01  1.899087e-01  5.900000e-01
   endloop
 endfacet
 facet normal  9.612617e-01 -2.756374e-01  0.000000e+00
   outer loop
     vertex -7.616821e-01  1.899087e-01  0.000000e+00
     vertex -7.465794e-01  2.425783e-01  0.000000e+00
     vertex -7.465794e-01  2.425783e-01  5.900000e-01
   endloop
 endfacet
 facet normal  9.781476e-01 -2.079117e-01  0.000000e+00
   outer loop
     vertex -7.730741e-01  1.363138e-01  0.000000e+00
     vertex -7.616821e-01  1.899087e-01  5.900000e-01
     vertex -7.730741e-01  1.363138e-01  5.900000e-01
   endloop
 endfacet
 facet normal  9.781476e-01 -2.079117e-01  0.000000e+00
   outer loop
     vertex -7.730741e-01  1.363138e-01  0.000000e+00
     vertex -7.616821e-01  1.899087e-01  0.000000e+00
     vertex -7.616821e-01  1.899087e-01  5.900000e-01
   endloop
 endfacet
 facet normal  9.902681e-01 -1.391731e-01  0.000000e+00
   outer loop
     vertex -7.806997e-01  8.205484e-02  0.000000e+00
     vertex -7.730741e-01  1.363138e-01  5.900000e-01
     vertex -7.806997e-01  8.205484e-02  5.900000e-01
   endloop
 endfacet
 facet normal  9.902681e-01 -1.391731e-01  0.000000e+00
   outer loop
     vertex -7.806997e-01  8.205484e-02  0.000000e+00
     vertex -7.730741e-01  1.363138e-01  0.000000e+00
     vertex -7.730741e-01  1.363138e-01  5.900000e-01
   endloop
 endfacet
 facet normal  9.975641e-01 -6.975647e-02  0.000000e+00
   outer loop
     vertex -7.845218e-01  2.739610e-02  0.000000e+00
     vertex -7.806997e-01  8.205484e-02  5.900000e-01
     vertex -7.845218e-01  2.739610e-02  5.900000e-01
   endloop
 endfacet
 facet normal  9.975641e-01 -6.975647e-02  0.000000e+00
   outer loop
     vertex -7.845218e-01  2.739610e-02  0.000000e+00
     vertex -7.806997e-01  8.205484e-02  0.000000e+00
     vertex -7.806997e-01  8.205484e-02  5.900000e-01
   endloop
 endfacet
 facet normal  1.000000e+00  0.000000e+00  0.000000e+00
   outer loop
     vertex -7.845218e-01 -2.739610e-02  0.000000e+00
     vertex -7.845218e-01  2.739610e-02  5.900000e-01
     vertex -7.845218e-01 -2.739610e-02  5.900000e-01
   endloop
 endfacet
 facet normal  1.000000e+00  0.000000e+00  0.000000e+00
   outer loop
     vertex -7.845218e-01 -2.739610e-02  0.000000e+00
     vertex -7.845218e-01  2.739610e-02  0.000000e+00
     vertex -7.845218e-01  2.739610e-02  5.900000e-01
   endloop
 endfacet
 facet normal  9.975641e-01  6.975647e-02 -0.000000e+00
   outer loop
     vertex -7.806997e-01 -8.205484e-02  0.000000e+00
     vertex -7.845218e-01 -2.739610e-02  5.900000e-01
     vertex -7.806997e-01 -8.205484e-02  5.900000e-01
   endloop
 endfacet
 facet normal  9.975641e-01  6.975647e-02  0.000000e+00
   outer loop
     vertex -7.806997e-01 -8.205484e-02  0.000000e+00
     vertex -7.845218e-01 -2.739610e-02  0.000000e+00
     vertex -7.845218e-01 -2.739610e-02  5.900000e-01
   endloop
 endfacet
 facet normal  9.902681e-01  1.391731e-01 -0.000000e+00
   outer loop
     vertex -7.730741e-01 -1.363138e-01  0.000000e+00
     vertex -7.806997e-01 -8.205484e-02  5.900000e-01
     vertex -7.730741e-01 -1.363138e-01  5.900000e-01
   endloop
 endfacet
 facet normal  9.902681e-01  1.391731e-01  0.000000e+00
   outer loop
     vertex -7.730741e-01 -1.363138e-01  0.000000e+00
     vertex -7.806997e-01 -8.205484e-02  0.000000e+00
     vertex -7.806997e-01 -8.205484e-02  5.900000e-01
   endloop
 endfacet
 facet normal  9.781476e-01  2.079117e-01 -0.000000e+00
   outer loop
     vertex -7.616821e-01 -1.899087e-01  0.000000e+00
     vertex -7.730741e-01 -1.363138e-01  5.900000e-01
     vertex -7.616821e-01 -1.899087e-01  5.900000e-01
   endloop
 endfacet
 facet normal  9.781476e-01  2.079117e-01  0.000000e+00
   outer loop
     vertex -7.616821e-01 -1.899087e-01  0.000000e+00
     vertex -7.730741e-01 -1.363138e-01  0.000000e+00
     vertex -7.730741e-01 -1.363138e-01  5.900000e-01
   endloop
 endfacet
 facet normal  9.612617e-01  2.756374e-01  0.000000e+00
   outer loop
     vertex -7.465794e-01 -2.425783e-01  0.000000e+00
     vertex -7.616821e-01 -1.899087e-01  0.000000e+00
     vertex -7.616821e-01 -1.899087e-01  5.900000e-01
   endloop
 endfacet
 facet normal  9.612617e-01  2.756374e-01 -0.000000e+00
   outer loop
     vertex -7.465794e-01 -2.425783e-01  0.000000e+00
     vertex -7.616821e-01 -1.899087e-01  5.900000e-01
     vertex -7.465794e-01 -2.425783e-01  5.900000e-01
   endloop
 endfacet
 facet normal  9.396926e-01  3.420201e-01  0.000000e+00
   outer loop
     vertex -7.278393e-01 -2.940662e-01  0.000000e+00
     vertex -7.465794e-01 -2.425783e-01  0.000000e+00
     vertex -7.465794e-01 -2.425783e-01  5.900000e-01
   endloop
 endfacet
 facet normal  9.396926e-01  3.420201e-01 -0.000000e+00
   outer loop
     vertex -7.278393e-01 -2.940662e-01  0.000000e+00
     vertex -7.465794e-01 -2.425783e-01  5.900000e-01
     vertex -7.278393e-01 -2.940662e-01  5.900000e-01
   endloop
 endfacet
 facet normal  9.135455e-01  4.067366e-01 -0.000000e+00
   outer loop
     vertex -7.278393e-01 -2.940662e-01  0.000000e+00
     vertex -7.278393e-01 -2.940662e-01  5.900000e-01
     vertex -7.055533e-01 -3.441214e-01  5.900000e-01
   endloop
 endfacet
 facet normal  9.135455e-01  4.067366e-01 -0.000000e+00
   outer loop
     vertex -7.055533e-01 -3.441214e-01  0.000000e+00
     vertex -7.278393e-01 -2.940662e-01  0.000000e+00
     vertex -7.055533e-01 -3.441214e-01  5.900000e-01
   endloop
 endfacet
 facet normal  8.829476e-01  4.694716e-01 -0.000000e+00
   outer loop
     vertex -7.055533e-01 -3.441214e-01  0.000000e+00
     vertex -7.055533e-01 -3.441214e-01  5.900000e-01
     vertex -6.798299e-01 -3.925000e-01  5.900000e-01
   endloop
 endfacet
 facet normal  8.829476e-01  4.694716e-01 -0.000000e+00
   outer loop
     vertex -6.798299e-01 -3.925000e-01  0.000000e+00
     vertex -7.055533e-01 -3.441214e-01  0.000000e+00
     vertex -6.798299e-01 -3.925000e-01  5.900000e-01
   endloop
 endfacet
 facet normal  8.480481e-01  5.299193e-01  0.000000e+00
   outer loop
     vertex -6.507945e-01 -4.389664e-01  0.000000e+00
     vertex -6.798299e-01 -3.925000e-01  0.000000e+00
     vertex -6.798299e-01 -3.925000e-01  5.900000e-01
   endloop
 endfacet
 facet normal  8.480481e-01  5.299193e-01 -0.000000e+00
   outer loop
     vertex -6.507945e-01 -4.389664e-01  0.000000e+00
     vertex -6.798299e-01 -3.925000e-01  5.900000e-01
     vertex -6.507945e-01 -4.389664e-01  5.900000e-01
   endloop
 endfacet
 facet normal  8.090170e-01  5.877853e-01 -0.000000e+00
   outer loop
     vertex -6.507945e-01 -4.389664e-01  0.000000e+00
     vertex -6.507945e-01 -4.389664e-01  5.900000e-01
     vertex -6.185884e-01 -4.832943e-01  5.900000e-01
   endloop
 endfacet
 facet normal  8.090170e-01  5.877853e-01 -0.000000e+00
   outer loop
     vertex -6.185884e-01 -4.832943e-01  0.000000e+00
     vertex -6.507945e-01 -4.389664e-01  0.000000e+00
     vertex -6.185884e-01 -4.832943e-01  5.900000e-01
   endloop
 endfacet
 facet normal  7.660444e-01  6.427876e-01  0.000000e+00
   outer loop
     vertex -5.833687e-01 -5.252675e-01  0.000000e+00
     vertex -6.185884e-01 -4.832943e-01  0.000000e+00
     vertex -6.185884e-01 -4.832943e-01  5.900000e-01
   endloop
 endfacet
 facet normal  7.660444e-01  6.427876e-01 -0.000000e+00
   outer loop
     vertex -5.833687e-01 -5.252675e-01  0.000000e+00
     vertex -6.185884e-01 -4.832943e-01  5.900000e-01
     vertex -5.833687e-01 -5.252675e-01  5.900000e-01
   endloop
 endfacet
 facet normal  7.193398e-01  6.946584e-01 -0.000000e+00
   outer loop
     vertex -5.833687e-01 -5.252675e-01  0.000000e+00
     vertex -5.833687e-01 -5.252675e-01  5.900000e-01
     vertex -5.453068e-01 -5.646817e-01  5.900000e-01
   endloop
 endfacet
 facet normal  7.193398e-01  6.946584e-01 -0.000000e+00
   outer loop
     vertex -5.453068e-01 -5.646817e-01  0.000000e+00
     vertex -5.833687e-01 -5.252675e-01  0.000000e+00
     vertex -5.453068e-01 -5.646817e-01  5.900000e-01
   endloop
 endfacet
 facet normal  6.691306e-01  7.431448e-01  0.000000e+00
   outer loop
     vertex -5.045883e-01 -6.013449e-01  0.000000e+00
     vertex -5.453068e-01 -5.646817e-01  0.000000e+00
     vertex -5.453068e-01 -5.646817e-01  5.900000e-01
   endloop
 endfacet
 facet normal  6.691306e-01  7.431448e-01 -0.000000e+00
   outer loop
     vertex -5.045883e-01 -6.013449e-01  0.000000e+00
     vertex -5.453068e-01 -5.646817e-01  5.900000e-01
     vertex -5.045883e-01 -6.013449e-01  5.900000e-01
   endloop
 endfacet
 facet normal  6.156615e-01  7.880108e-01 -0.000000e+00
   outer loop
     vertex -5.045883e-01 -6.013449e-01  0.000000e+00
     vertex -5.045883e-01 -6.013449e-01  5.900000e-01
     vertex -4.614114e-01 -6.350783e-01  5.900000e-01
   endloop
 endfacet
 facet normal  6.156615e-01  7.880108e-01 -0.000000e+00
   outer loop
     vertex -4.614114e-01 -6.350783e-01  0.000000e+00
     vertex -5.045883e-01 -6.013449e-01  0.000000e+00
     vertex -4.614114e-01 -6.350783e-01  5.900000e-01
   endloop
 endfacet
 facet normal  5.591929e-01  8.290376e-01 -0.000000e+00
   outer loop
     vertex -4.159866e-01 -6.657178e-01  0.000000e+00
     vertex -4.614114e-01 -6.350783e-01  5.900000e-01
     vertex -4.159866e-01 -6.657178e-01  5.900000e-01
   endloop
 endfacet
 facet normal  5.591929e-01  8.290376e-01  0.000000e+00
   outer loop
     vertex -4.159866e-01 -6.657178e-01  0.000000e+00
     vertex -4.614114e-01 -6.350783e-01  0.000000e+00
     vertex -4.614114e-01 -6.350783e-01  5.900000e-01
   endloop
 endfacet
 facet normal  5.000000e-01  8.660254e-01 -0.000000e+00
   outer loop
     vertex -3.685352e-01 -6.931139e-01  0.000000e+00
     vertex -4.159866e-01 -6.657178e-01  5.900000e-01
     vertex -3.685352e-01 -6.931139e-01  5.900000e-01
   endloop
 endfacet
 facet normal  5.000000e-01  8.660254e-01  0.000000e+00
   outer loop
     vertex -3.685352e-01 -6.931139e-01  0.000000e+00
     vertex -4.159866e-01 -6.657178e-01  0.000000e+00
     vertex -4.159866e-01 -6.657178e-01  5.900000e-01
   endloop
 endfacet
 facet normal  4.383711e-01  8.987940e-01 -0.000000e+00
   outer loop
     vertex -3.192883e-01 -7.171332e-01  0.000000e+00
     vertex -3.685352e-01 -6.931139e-01  5.900000e-01
     vertex -3.192883e-01 -7.171332e-01  5.900000e-01
   endloop
 endfacet
 facet normal  4.383711e-01  8.987940e-01  0.000000e+00
   outer loop
     vertex -3.192883e-01 -7.171332e-01  0.000000e+00
     vertex -3.685352e-01 -6.931139e-01  0.000000e+00
     vertex -3.685352e-01 -6.931139e-01  5.900000e-01
   endloop
 endfacet
 facet normal  3.746066e-01  9.271839e-01 -0.000000e+00
   outer loop
     vertex -2.684858e-01 -7.376587e-01  0.000000e+00
     vertex -3.192883e-01 -7.171332e-01  5.900000e-01
     vertex -2.684858e-01 -7.376587e-01  5.900000e-01
   endloop
 endfacet
 facet normal  3.090170e-01  9.510565e-01 -0.000000e+00
   outer loop
     vertex -2.684858e-01 -7.376587e-01  0.000000e+00
     vertex -2.684858e-01 -7.376587e-01  5.900000e-01
     vertex -2.163753e-01 -7.545904e-01  5.900000e-01
   endloop
 endfacet
 facet normal  3.746066e-01  9.271839e-01  0.000000e+00
   outer loop
     vertex -2.684858e-01 -7.376587e-01  0.000000e+00
     vertex -3.192883e-01 -7.171332e-01  0.000000e+00
     vertex -3.192883e-01 -7.171332e-01  5.900000e-01
   endloop
 endfacet
 facet normal  3.090170e-01  9.510565e-01 -0.000000e+00
   outer loop
     vertex -2.163753e-01 -7.545904e-01  0.000000e+00
     vertex -2.684858e-01 -7.376587e-01  0.000000e+00
     vertex -2.163753e-01 -7.545904e-01  5.900000e-01
   endloop
 endfacet
 facet normal  2.419219e-01  9.702957e-01 -0.000000e+00
   outer loop
     vertex -1.632107e-01 -7.678459e-01  0.000000e+00
     vertex -2.163753e-01 -7.545904e-01  5.900000e-01
     vertex -1.632107e-01 -7.678459e-01  5.900000e-01
   endloop
 endfacet
 facet normal  2.419219e-01  9.702957e-01  0.000000e+00
   outer loop
     vertex -1.632107e-01 -7.678459e-01  0.000000e+00
     vertex -2.163753e-01 -7.545904e-01  0.000000e+00
     vertex -2.163753e-01 -7.545904e-01  5.900000e-01
   endloop
 endfacet
 facet normal  1.736482e-01  9.848078e-01 -0.000000e+00
   outer loop
     vertex -1.092509e-01 -7.773604e-01  0.000000e+00
     vertex -1.632107e-01 -7.678459e-01  5.900000e-01
     vertex -1.092509e-01 -7.773604e-01  5.900000e-01
   endloop
 endfacet
 facet normal  1.045285e-01  9.945219e-01 -0.000000e+00
   outer loop
     vertex -1.092509e-01 -7.773604e-01  0.000000e+00
     vertex -1.092509e-01 -7.773604e-01  5.900000e-01
     vertex -5.475883e-02 -7.830878e-01  5.900000e-01
   endloop
 endfacet
 facet normal  1.736482e-01  9.848078e-01  0.000000e+00
   outer loop
     vertex -1.092509e-01 -7.773604e-01  0.000000e+00
     vertex -1.632107e-01 -7.678459e-01  0.000000e+00
     vertex -1.632107e-01 -7.678459e-01  5.900000e-01
   endloop
 endfacet
 facet normal  3.489950e-02  9.993908e-01 -0.000000e+00
   outer loop
     vertex -5.475883e-02 -7.830878e-01  0.000000e+00
     vertex -5.475883e-02 -7.830878e-01  5.900000e-01
     vertex -7.582296e-17 -7.850000e-01  5.900000e-01
   endloop
 endfacet
 facet normal  1.045285e-01  9.945219e-01 -0.000000e+00
   outer loop
     vertex -5.475883e-02 -7.830878e-01  0.000000e+00
     vertex -1.092509e-01 -7.773604e-01  0.000000e+00
     vertex -5.475883e-02 -7.830878e-01  5.900000e-01
   endloop
 endfacet
 facet normal  3.489950e-02  9.993908e-01 -0.000000e+00
   outer loop
     vertex -7.582296e-17 -7.850000e-01  0.000000e+00
     vertex -5.475883e-02 -7.830878e-01  0.000000e+00
     vertex -7.582296e-17 -7.850000e-01  5.900000e-01
   endloop
 endfacet
 facet normal  1.000000e+00  0.000000e+00  0.000000e+00
   outer loop
     vertex  0.000000e+00  7.850000e-01  0.000000e+00
     vertex  0.000000e+00  9.800000e-01  0.000000e+00
     vertex  0.000000e+00  9.800000e-01  5.900000e-01
   endloop
 endfacet
 facet normal  1.000000e+00  0.000000e+00  0.000000e+00
   outer loop
     vertex  0.000000e+00  7.850000e-01  0.000000e+00
     vertex  0.000000e+00  9.800000e-01  5.900000e-01
     vertex  0.000000e+00  7.850000e-01  5.900000e-01
   endloop
 endfacet
 facet normal  0.000000e+00  0.000000e+00 -1.000000e+00
   outer loop
     vertex -5.453068e-01 -5.646817e-01  0.000000e+00
     vertex -6.708562e-01 -7.143893e-01  0.000000e+00
     vertex -7.143893e-01 -6.708562e-01  0.000000e+00
   endloop
 endfacet
 facet normal  0.000000e+00  0.000000e+00 -1.000000e+00
   outer loop
     vertex -5.833687e-01 -5.252675e-01  0.000000e+00
     vertex -7.143893e-01 -6.708562e-01  0.000000e+00
     vertex -7.551030e-01 -6.246755e-01  0.000000e+00
   endloop
 endfacet
 facet normal  0.000000e+00 -0.000000e+00 -1.000000e+00
   outer loop
     vertex -5.833687e-01 -5.252675e-01  0.000000e+00
     vertex -5.453068e-01 -5.646817e-01  0.000000e+00
     vertex -7.143893e-01 -6.708562e-01  0.000000e+00
   endloop
 endfacet
 facet normal -0.000000e+00  0.000000e+00 -1.000000e+00
   outer loop
     vertex -5.045883e-01 -6.013449e-01  0.000000e+00
     vertex -6.708562e-01 -7.143893e-01  0.000000e+00
     vertex -5.453068e-01 -5.646817e-01  0.000000e+00
   endloop
 endfacet
 facet normal  0.000000e+00  0.000000e+00 -1.000000e+00
   outer loop
     vertex -5.045883e-01 -6.013449e-01  0.000000e+00
     vertex -6.246755e-01 -7.551030e-01  0.000000e+00
     vertex -6.708562e-01 -7.143893e-01  0.000000e+00
   endloop
 endfacet
 facet normal  0.000000e+00  0.000000e+00 -1.000000e+00
   outer loop
     vertex -6.185884e-01 -4.832943e-01  0.000000e+00
     vertex -7.551030e-01 -6.246755e-01  0.000000e+00
     vertex -7.928367e-01 -5.760295e-01  0.000000e+00
   endloop
 endfacet
 facet normal  0.000000e+00 -0.000000e+00 -1.000000e+00
   outer loop
     vertex -6.185884e-01 -4.832943e-01  0.000000e+00
     vertex -5.833687e-01 -5.252675e-01  0.000000e+00
     vertex -7.551030e-01 -6.246755e-01  0.000000e+00
   endloop
 endfacet
 facet normal  0.000000e+00  0.000000e+00 -1.000000e+00
   outer loop
     vertex -4.614114e-01 -6.350783e-01  0.000000e+00
     vertex -5.760295e-01 -7.928367e-01  0.000000e+00
     vertex -6.246755e-01 -7.551030e-01  0.000000e+00
   endloop
 endfacet
 facet normal -0.000000e+00  0.000000e+00 -1.000000e+00
   outer loop
     vertex -4.614114e-01 -6.350783e-01  0.000000e+00
     vertex -6.246755e-01 -7.551030e-01  0.000000e+00
     vertex -5.045883e-01 -6.013449e-01  0.000000e+00
   endloop
 endfacet
 facet normal  0.000000e+00  0.000000e+00 -1.000000e+00
   outer loop
     vertex -4.614114e-01 -6.350783e-01  0.000000e+00
     vertex -5.251103e-01 -8.274414e-01  0.000000e+00
     vertex -5.760295e-01 -7.928367e-01  0.000000e+00
   endloop
 endfacet
 facet normal  0.000000e+00  0.000000e+00 -1.000000e+00
   outer loop
     vertex -6.507945e-01 -4.389664e-01  0.000000e+00
     vertex -7.928367e-01 -5.760295e-01  0.000000e+00
     vertex -8.274414e-01 -5.251103e-01  0.000000e+00
   endloop
 endfacet
 facet normal  0.000000e+00 -0.000000e+00 -1.000000e+00
   outer loop
     vertex -6.507945e-01 -4.389664e-01  0.000000e+00
     vertex -6.185884e-01 -4.832943e-01  0.000000e+00
     vertex -7.928367e-01 -5.760295e-01  0.000000e+00
   endloop
 endfacet
 facet normal  0.000000e+00  0.000000e+00 -1.000000e+00
   outer loop
     vertex -4.159866e-01 -6.657178e-01  0.000000e+00
     vertex -4.721186e-01 -8.587805e-01  0.000000e+00
     vertex -5.251103e-01 -8.274414e-01  0.000000e+00
   endloop
 endfacet
 facet normal -0.000000e+00  0.000000e+00 -1.000000e+00
   outer loop
     vertex -4.159866e-01 -6.657178e-01  0.000000e+00
     vertex -5.251103e-01 -8.274414e-01  0.000000e+00
     vertex -4.614114e-01 -6.350783e-01  0.000000e+00
   endloop
 endfacet
 facet normal  0.000000e+00 -0.000000e+00 -1.000000e+00
   outer loop
     vertex -6.798299e-01 -3.925000e-01  0.000000e+00
     vertex -6.507945e-01 -4.389664e-01  0.000000e+00
     vertex -8.274414e-01 -5.251103e-01  0.000000e+00
   endloop
 endfacet
 facet normal  0.000000e+00  0.000000e+00 -1.000000e+00
   outer loop
     vertex -6.798299e-01 -3.925000e-01  0.000000e+00
     vertex -8.274414e-01 -5.251103e-01  0.000000e+00
     vertex -8.587805e-01 -4.721186e-01  0.000000e+00
   endloop
 endfacet
 facet normal -0.000000e+00  0.000000e+00 -1.000000e+00
   outer loop
     vertex -3.685352e-01 -6.931139e-01  0.000000e+00
     vertex -4.721186e-01 -8.587805e-01  0.000000e+00
     vertex -4.159866e-01 -6.657178e-01  0.000000e+00
   endloop
 endfacet
 facet normal  0.000000e+00  0.000000e+00 -1.000000e+00
   outer loop
     vertex -3.685352e-01 -6.931139e-01  0.000000e+00
     vertex -4.172637e-01 -8.867305e-01  0.000000e+00
     vertex -4.721186e-01 -8.587805e-01  0.000000e+00
   endloop
 endfacet
 facet normal  0.000000e+00  0.000000e+00 -1.000000e+00
   outer loop
     vertex -7.055533e-01 -3.441214e-01  0.000000e+00
     vertex -8.587805e-01 -4.721186e-01  0.000000e+00
     vertex -8.867305e-01 -4.172637e-01  0.000000e+00
   endloop
 endfacet
 facet normal  0.000000e+00 -0.000000e+00 -1.000000e+00
   outer loop
     vertex -7.055533e-01 -3.441214e-01  0.000000e+00
     vertex -6.798299e-01 -3.925000e-01  0.000000e+00
     vertex -8.587805e-01 -4.721186e-01  0.000000e+00
   endloop
 endfacet
 facet normal  0.000000e+00  0.000000e+00 -1.000000e+00
   outer loop
     vertex -3.192883e-01 -7.171332e-01  0.000000e+00
     vertex -3.607621e-01 -9.111810e-01  0.000000e+00
     vertex -4.172637e-01 -8.867305e-01  0.000000e+00
   endloop
 endfacet
 facet normal -0.000000e+00  0.000000e+00 -1.000000e+00
   outer loop
     vertex -3.192883e-01 -7.171332e-01  0.000000e+00
     vertex -4.172637e-01 -8.867305e-01  0.000000e+00
     vertex -3.685352e-01 -6.931139e-01  0.000000e+00
   endloop
 endfacet
 facet normal  0.000000e+00 -0.000000e+00 -1.000000e+00
   outer loop
     vertex -7.278393e-01 -2.940662e-01  0.000000e+00
     vertex -7.055533e-01 -3.441214e-01  0.000000e+00
     vertex -8.867305e-01 -4.172637e-01  0.000000e+00
   endloop
 endfacet
 facet normal  0.000000e+00  0.000000e+00 -1.000000e+00
   outer loop
     vertex -7.278393e-01 -2.940662e-01  0.000000e+00
     vertex -8.867305e-01 -4.172637e-01  0.000000e+00
     vertex -9.111810e-01 -3.607621e-01  0.000000e+00
   endloop
 endfacet
 facet normal -0.000000e+00  0.000000e+00 -1.000000e+00
   outer loop
     vertex -2.684858e-01 -7.376587e-01  0.000000e+00
     vertex -3.607621e-01 -9.111810e-01  0.000000e+00
     vertex -3.192883e-01 -7.171332e-01  0.000000e+00
   endloop
 endfacet
 facet normal  0.000000e+00  0.000000e+00 -1.000000e+00
   outer loop
     vertex -2.684858e-01 -7.376587e-01  0.000000e+00
     vertex -3.028367e-01 -9.320354e-01  0.000000e+00
     vertex -3.607621e-01 -9.111810e-01  0.000000e+00
   endloop
 endfacet
 facet normal  0.000000e+00  0.000000e+00 -1.000000e+00
   outer loop
     vertex -7.465794e-01 -2.425783e-01  0.000000e+00
     vertex -9.320354e-01 -3.028367e-01  0.000000e+00
     vertex -9.492115e-01 -2.437161e-01  0.000000e+00
   endloop
 endfacet
 facet normal  0.000000e+00  0.000000e+00 -1.000000e+00
   outer loop
     vertex -7.465794e-01 -2.425783e-01  0.000000e+00
     vertex -9.111810e-01 -3.607621e-01  0.000000e+00
     vertex -9.320354e-01 -3.028367e-01  0.000000e+00
   endloop
 endfacet
 facet normal  0.000000e+00 -0.000000e+00 -1.000000e+00
   outer loop
     vertex -7.465794e-01 -2.425783e-01  0.000000e+00
     vertex -7.278393e-01 -2.940662e-01  0.000000e+00
     vertex -9.111810e-01 -3.607621e-01  0.000000e+00
   endloop
 endfacet
 facet normal -0.000000e+00  0.000000e+00 -1.000000e+00
   outer loop
     vertex -2.163753e-01 -7.545904e-01  0.000000e+00
     vertex -3.028367e-01 -9.320354e-01  0.000000e+00
     vertex -2.684858e-01 -7.376587e-01  0.000000e+00
   endloop
 endfacet
 facet normal  0.000000e+00  0.000000e+00 -1.000000e+00
   outer loop
     vertex -2.163753e-01 -7.545904e-01  0.000000e+00
     vertex -2.437161e-01 -9.492115e-01  0.000000e+00
     vertex -3.028367e-01 -9.320354e-01  0.000000e+00
   endloop
 endfacet
 facet normal -0.000000e+00  0.000000e+00 -1.000000e+00
   outer loop
     vertex -7.616821e-01 -1.899087e-01  0.000000e+00
     vertex -9.492115e-01 -2.437161e-01  0.000000e+00
     vertex -9.626415e-01 -1.836337e-01  0.000000e+00
   endloop
 endfacet
 facet normal  0.000000e+00 -0.000000e+00 -1.000000e+00
   outer loop
     vertex -7.616821e-01 -1.899087e-01  0.000000e+00
     vertex -7.465794e-01 -2.425783e-01  0.000000e+00
     vertex -9.492115e-01 -2.437161e-01  0.000000e+00
   endloop
 endfacet
 facet normal  0.000000e+00  0.000000e+00 -1.000000e+00
   outer loop
     vertex -1.632107e-01 -7.678459e-01  0.000000e+00
     vertex -1.836337e-01 -9.626415e-01  0.000000e+00
     vertex -2.437161e-01 -9.492115e-01  0.000000e+00
   endloop
 endfacet
 facet normal -0.000000e+00  0.000000e+00 -1.000000e+00
   outer loop
     vertex -1.632107e-01 -7.678459e-01  0.000000e+00
     vertex -2.437161e-01 -9.492115e-01  0.000000e+00
     vertex -2.163753e-01 -7.545904e-01  0.000000e+00
   endloop
 endfacet
 facet normal -0.000000e+00  0.000000e+00 -1.000000e+00
   outer loop
     vertex -7.730741e-01 -1.363138e-01  0.000000e+00
     vertex -9.626415e-01 -1.836337e-01  0.000000e+00
     vertex -9.722724e-01 -1.228266e-01  0.000000e+00
   endloop
 endfacet
 facet normal  0.000000e+00 -0.000000e+00 -1.000000e+00
   outer loop
     vertex -7.730741e-01 -1.363138e-01  0.000000e+00
     vertex -7.616821e-01 -1.899087e-01  0.000000e+00
     vertex -9.626415e-01 -1.836337e-01  0.000000e+00
   endloop
 endfacet
 facet normal  0.000000e+00  0.000000e+00 -1.000000e+00
   outer loop
     vertex -1.092509e-01 -7.773604e-01  0.000000e+00
     vertex -1.228266e-01 -9.722724e-01  0.000000e+00
     vertex -1.836337e-01 -9.626415e-01  0.000000e+00
   endloop
 endfacet
 facet normal -0.000000e+00  0.000000e+00 -1.000000e+00
   outer loop
     vertex -1.092509e-01 -7.773604e-01  0.000000e+00
     vertex -1.836337e-01 -9.626415e-01  0.000000e+00
     vertex -1.632107e-01 -7.678459e-01  0.000000e+00
   endloop
 endfacet
 facet normal -0.000000e+00  0.000000e+00 -1.000000e+00
   outer loop
     vertex -7.806997e-01 -8.205484e-02  0.000000e+00
     vertex -9.722724e-01 -1.228266e-01  0.000000e+00
     vertex -9.780662e-01 -6.153471e-02  0.000000e+00
   endloop
 endfacet
 facet normal  0.000000e+00 -0.000000e+00 -1.000000e+00
   outer loop
     vertex -7.806997e-01 -8.205484e-02  0.000000e+00
     vertex -7.730741e-01 -1.363138e-01  0.000000e+00
     vertex -9.722724e-01 -1.228266e-01  0.000000e+00
   endloop
 endfacet
 facet normal  0.000000e+00  0.000000e+00 -1.000000e+00
   outer loop
     vertex -5.475883e-02 -7.830878e-01  0.000000e+00
     vertex -6.153471e-02 -9.780662e-01  0.000000e+00
     vertex -1.228266e-01 -9.722724e-01  0.000000e+00
   endloop
 endfacet
 facet normal -0.000000e+00  0.000000e+00 -1.000000e+00
   outer loop
     vertex -5.475883e-02 -7.830878e-01  0.000000e+00
     vertex -1.228266e-01 -9.722724e-01  0.000000e+00
     vertex -1.092509e-01 -7.773604e-01  0.000000e+00
   endloop
 endfacet
 facet normal -0.000000e+00  0.000000e+00 -1.000000e+00
   outer loop
     vertex -7.845218e-01 -2.739610e-02  0.000000e+00
     vertex -9.780662e-01 -6.153471e-02  0.000000e+00
     vertex -9.800000e-01 -6.483146e-16  0.000000e+00
   endloop
 endfacet
 facet normal  0.000000e+00 -0.000000e+00 -1.000000e+00
   outer loop
     vertex -7.845218e-01 -2.739610e-02  0.000000e+00
     vertex -7.806997e-01 -8.205484e-02  0.000000e+00
     vertex -9.780662e-01 -6.153471e-02  0.000000e+00
   endloop
 endfacet
 facet normal  0.000000e+00 -0.000000e+00 -1.000000e+00
   outer loop
     vertex -7.582296e-17 -7.850000e-01  0.000000e+00
     vertex -4.496541e-18 -9.800000e-01  0.000000e+00
     vertex -6.153471e-02 -9.780662e-01  0.000000e+00
   endloop
 endfacet
 facet normal -0.000000e+00  0.000000e+00 -1.000000e+00
   outer loop
     vertex -7.582296e-17 -7.850000e-01  0.000000e+00
     vertex -6.153471e-02 -9.780662e-01  0.000000e+00
     vertex -5.475883e-02 -7.830878e-01  0.000000e+00
   endloop
 endfacet
 facet normal -0.000000e+00  0.000000e+00 -1.000000e+00
   outer loop
     vertex -7.845218e-01  2.739610e-02  0.000000e+00
     vertex -9.800000e-01 -6.483146e-16  0.000000e+00
     vertex -9.780662e-01  6.153471e-02  0.000000e+00
   endloop
 endfacet
 facet normal  0.000000e+00 -0.000000e+00 -1.000000e+00
   outer loop
     vertex -7.845218e-01  2.739610e-02  0.000000e+00
     vertex -7.845218e-01 -2.739610e-02  0.000000e+00
     vertex -9.800000e-01 -6.483146e-16  0.000000e+00
   endloop
 endfacet
 facet normal  0.000000e+00  0.000000e+00 -1.000000e+00
   outer loop
     vertex -7.806997e-01  8.205484e-02  0.000000e+00
     vertex -7.845218e-01  2.739610e-02  0.000000e+00
     vertex -9.780662e-01  6.153471e-02  0.000000e+00
   endloop
 endfacet
 facet normal -0.000000e+00  0.000000e+00 -1.000000e+00
   outer loop
     vertex -7.806997e-01  8.205484e-02  0.000000e+00
     vertex -9.780662e-01  6.153471e-02  0.000000e+00
     vertex -9.722724e-01  1.228266e-01  0.000000e+00
   endloop
 endfacet
 facet normal  0.000000e+00  0.000000e+00 -1.000000e+00
   outer loop
     vertex -7.730741e-01  1.363138e-01  0.000000e+00
     vertex -7.806997e-01  8.205484e-02  0.000000e+00
     vertex -9.722724e-01  1.228266e-01  0.000000e+00
   endloop
 endfacet
 facet normal -0.000000e+00  0.000000e+00 -1.000000e+00
   outer loop
     vertex -7.730741e-01  1.363138e-01  0.000000e+00
     vertex -9.722724e-01  1.228266e-01  0.000000e+00
     vertex -9.626415e-01  1.836337e-01  0.000000e+00
   endloop
 endfacet
 facet normal  0.000000e+00  0.000000e+00 -1.000000e+00
   outer loop
     vertex -7.616821e-01  1.899087e-01  0.000000e+00
     vertex -7.730741e-01  1.363138e-01  0.000000e+00
     vertex -9.626415e-01  1.836337e-01  0.000000e+00
   endloop
 endfacet
 facet normal -0.000000e+00  0.000000e+00 -1.000000e+00
   outer loop
     vertex -7.616821e-01  1.899087e-01  0.000000e+00
     vertex -9.626415e-01  1.836337e-01  0.000000e+00
     vertex -9.492115e-01  2.437161e-01  0.000000e+00
   endloop
 endfacet
 facet normal  0.000000e+00  0.000000e+00 -1.000000e+00
   outer loop
     vertex -7.465794e-01  2.425783e-01  0.000000e+00
     vertex -9.320354e-01  3.028367e-01  0.000000e+00
     vertex -9.111810e-01  3.607621e-01  0.000000e+00
   endloop
 endfacet
 facet normal  0.000000e+00  0.000000e+00 -1.000000e+00
   outer loop
     vertex -7.465794e-01  2.425783e-01  0.000000e+00
     vertex -9.492115e-01  2.437161e-01  0.000000e+00
     vertex -9.320354e-01  3.028367e-01  0.000000e+00
   endloop
 endfacet
 facet normal -0.000000e+00  0.000000e+00 -1.000000e+00
   outer loop
     vertex -7.465794e-01  2.425783e-01  0.000000e+00
     vertex -7.616821e-01  1.899087e-01  0.000000e+00
     vertex -9.492115e-01  2.437161e-01  0.000000e+00
   endloop
 endfacet
 facet normal -0.000000e+00  0.000000e+00 -1.000000e+00
   outer loop
     vertex -7.278393e-01  2.940662e-01  0.000000e+00
     vertex -7.465794e-01  2.425783e-01  0.000000e+00
     vertex -9.111810e-01  3.607621e-01  0.000000e+00
   endloop
 endfacet
 facet normal  0.000000e+00  0.000000e+00 -1.000000e+00
   outer loop
     vertex -7.278393e-01  2.940662e-01  0.000000e+00
     vertex -9.111810e-01  3.607621e-01  0.000000e+00
     vertex -8.867305e-01  4.172637e-01  0.000000e+00
   endloop
 endfacet
 facet normal -0.000000e+00  0.000000e+00 -1.000000e+00
   outer loop
     vertex -7.055533e-01  3.441214e-01  0.000000e+00
     vertex -7.278393e-01  2.940662e-01  0.000000e+00
     vertex -8.867305e-01  4.172637e-01  0.000000e+00
   endloop
 endfacet
 facet normal  0.000000e+00  0.000000e+00 -1.000000e+00
   outer loop
     vertex -7.055533e-01  3.441214e-01  0.000000e+00
     vertex -8.867305e-01  4.172637e-01  0.000000e+00
     vertex -8.587805e-01  4.721186e-01  0.000000e+00
   endloop
 endfacet
 facet normal  0.000000e+00  0.000000e+00 -1.000000e+00
   outer loop
     vertex -6.798299e-01  3.925000e-01  0.000000e+00
     vertex -8.587805e-01  4.721186e-01  0.000000e+00
     vertex -8.274414e-01  5.251103e-01  0.000000e+00
   endloop
 endfacet
 facet normal -0.000000e+00  0.000000e+00 -1.000000e+00
   outer loop
     vertex -6.798299e-01  3.925000e-01  0.000000e+00
     vertex -7.055533e-01  3.441214e-01  0.000000e+00
     vertex -8.587805e-01  4.721186e-01  0.000000e+00
   endloop
 endfacet
 facet normal  0.000000e+00  0.000000e+00 -1.000000e+00
   outer loop
     vertex -6.507945e-01  4.389664e-01  0.000000e+00
     vertex -8.274414e-01  5.251103e-01  0.000000e+00
     vertex -7.928367e-01  5.760295e-01  0.000000e+00
   endloop
 endfacet
 facet normal -0.000000e+00  0.000000e+00 -1.000000e+00
   outer loop
     vertex -6.507945e-01  4.389664e-01  0.000000e+00
     vertex -6.798299e-01  3.925000e-01  0.000000e+00
     vertex -8.274414e-01  5.251103e-01  0.000000e+00
   endloop
 endfacet
 facet normal -0.000000e+00  0.000000e+00 -1.000000e+00
   outer loop
     vertex -6.185884e-01  4.832943e-01  0.000000e+00
     vertex -6.507945e-01  4.389664e-01  0.000000e+00
     vertex -7.928367e-01  5.760295e-01  0.000000e+00
   endloop
 endfacet
 facet normal  0.000000e+00 -0.000000e+00 -1.000000e+00
   outer loop
     vertex -7.551030e-01  6.246755e-01  0.000000e+00
     vertex -6.185884e-01  4.832943e-01  0.000000e+00
     vertex -7.928367e-01  5.760295e-01  0.000000e+00
   endloop
 endfacet
 facet normal -0.000000e+00  0.000000e+00 -1.000000e+00
   outer loop
     vertex -5.833687e-01  5.252675e-01  0.000000e+00
     vertex -6.185884e-01  4.832943e-01  0.000000e+00
     vertex -7.551030e-01  6.246755e-01  0.000000e+00
   endloop
 endfacet
 facet normal  0.000000e+00 -0.000000e+00 -1.000000e+00
   outer loop
     vertex -7.143893e-01  6.708562e-01  0.000000e+00
     vertex -5.833687e-01  5.252675e-01  0.000000e+00
     vertex -7.551030e-01  6.246755e-01  0.000000e+00
   endloop
 endfacet
 facet normal -0.000000e+00  0.000000e+00 -1.000000e+00
   outer loop
     vertex -5.453068e-01  5.646817e-01  0.000000e+00
     vertex -5.833687e-01  5.252675e-01  0.000000e+00
     vertex -7.143893e-01  6.708562e-01  0.000000e+00
   endloop
 endfacet
 facet normal  0.000000e+00 -0.000000e+00 -1.000000e+00
   outer loop
     vertex -6.708562e-01  7.143893e-01  0.000000e+00
     vertex -5.453068e-01  5.646817e-01  0.000000e+00
     vertex -7.143893e-01  6.708562e-01  0.000000e+00
   endloop
 endfacet
 facet normal -0.000000e+00  0.000000e+00 -1.000000e+00
   outer loop
     vertex -5.045883e-01  6.013449e-01  0.000000e+00
     vertex -5.453068e-01  5.646817e-01  0.000000e+00
     vertex -6.708562e-01  7.143893e-01  0.000000e+00
   endloop
 endfacet
 facet normal  0.000000e+00 -0.000000e+00 -1.000000e+00
   outer loop
     vertex -6.246755e-01  7.551030e-01  0.000000e+00
     vertex -5.045883e-01  6.013449e-01  0.000000e+00
     vertex -6.708562e-01  7.143893e-01  0.000000e+00
   endloop
 endfacet
 facet normal -0.000000e+00  0.000000e+00 -1.000000e+00
   outer loop
     vertex -4.614114e-01  6.350783e-01  0.000000e+00
     vertex -5.045883e-01  6.013449e-01  0.000000e+00
     vertex -6.246755e-01  7.551030e-01  0.000000e+00
   endloop
 endfacet
 facet normal  0.000000e+00 -0.000000e+00 -1.000000e+00
   outer loop
     vertex -5.760295e-01  7.928367e-01  0.000000e+00
     vertex -4.614114e-01  6.350783e-01  0.000000e+00
     vertex -6.246755e-01  7.551030e-01  0.000000e+00
   endloop
 endfacet
 facet normal  0.000000e+00 -0.000000e+00 -1.000000e+00
   outer loop
     vertex -5.251103e-01  8.274414e-01  0.000000e+00
     vertex -4.614114e-01  6.350783e-01  0.000000e+00
     vertex -5.760295e-01  7.928367e-01  0.000000e+00
   endloop
 endfacet
 facet normal  0.000000e+00  0.000000e+00 -1.000000e+00
   outer loop
     vertex -5.251103e-01  8.274414e-01  0.000000e+00
     vertex -4.159866e-01  6.657178e-01  0.000000e+00
     vertex -4.614114e-01  6.350783e-01  0.000000e+00
   endloop
 endfacet
 facet normal  0.000000e+00 -0.000000e+00 -1.000000e+00
   outer loop
     vertex -4.721186e-01  8.587805e-01  0.000000e+00
     vertex -4.159866e-01  6.657178e-01  0.000000e+00
     vertex -5.251103e-01  8.274414e-01  0.000000e+00
   endloop
 endfacet
 facet normal  0.000000e+00  0.000000e+00 -1.000000e+00
   outer loop
     vertex -4.721186e-01  8.587805e-01  0.000000e+00
     vertex -3.685352e-01  6.931139e-01  0.000000e+00
     vertex -4.159866e-01  6.657178e-01  0.000000e+00
   endloop
 endfacet
 facet normal  0.000000e+00  0.000000e+00 -1.000000e+00
   outer loop
     vertex -4.172637e-01  8.867305e-01  0.000000e+00
     vertex -3.192883e-01  7.171332e-01  0.000000e+00
     vertex -3.685352e-01  6.931139e-01  0.000000e+00
   endloop
 endfacet
 facet normal  0.000000e+00 -0.000000e+00 -1.000000e+00
   outer loop
     vertex -4.172637e-01  8.867305e-01  0.000000e+00
     vertex -3.685352e-01  6.931139e-01  0.000000e+00
     vertex -4.721186e-01  8.587805e-01  0.000000e+00
   endloop
 endfacet
 facet normal  0.000000e+00  0.000000e+00 -1.000000e+00
   outer loop
     vertex -3.607621e-01  9.111810e-01  0.000000e+00
     vertex -2.684858e-01  7.376587e-01  0.000000e+00
     vertex -3.192883e-01  7.171332e-01  0.000000e+00
   endloop
 endfacet
 facet normal  0.000000e+00 -0.000000e+00 -1.000000e+00
   outer loop
     vertex -3.607621e-01  9.111810e-01  0.000000e+00
     vertex -3.192883e-01  7.171332e-01  0.000000e+00
     vertex -4.172637e-01  8.867305e-01  0.000000e+00
   endloop
 endfacet
 facet normal  0.000000e+00  0.000000e+00 -1.000000e+00
   outer loop
     vertex -3.028367e-01  9.320354e-01  0.000000e+00
     vertex -2.163753e-01  7.545904e-01  0.000000e+00
     vertex -2.684858e-01  7.376587e-01  0.000000e+00
   endloop
 endfacet
 facet normal  0.000000e+00 -0.000000e+00 -1.000000e+00
   outer loop
     vertex -3.028367e-01  9.320354e-01  0.000000e+00
     vertex -2.684858e-01  7.376587e-01  0.000000e+00
     vertex -3.607621e-01  9.111810e-01  0.000000e+00
   endloop
 endfacet
 facet normal  0.000000e+00  0.000000e+00 -1.000000e+00
   outer loop
     vertex -2.437161e-01  9.492115e-01  0.000000e+00
     vertex -1.632107e-01  7.678459e-01  0.000000e+00
     vertex -2.163753e-01  7.545904e-01  0.000000e+00
   endloop
 endfacet
 facet normal  0.000000e+00 -0.000000e+00 -1.000000e+00
   outer loop
     vertex -2.437161e-01  9.492115e-01  0.000000e+00
     vertex -2.163753e-01  7.545904e-01  0.000000e+00
     vertex -3.028367e-01  9.320354e-01  0.000000e+00
   endloop
 endfacet
 facet normal  0.000000e+00  0.000000e+00 -1.000000e+00
   outer loop
     vertex -1.836337e-01  9.626415e-01  0.000000e+00
     vertex -1.092509e-01  7.773604e-01  0.000000e+00
     vertex -1.632107e-01  7.678459e-01  0.000000e+00
   endloop
 endfacet
 facet normal  0.000000e+00 -0.000000e+00 -1.000000e+00
   outer loop
     vertex -1.836337e-01  9.626415e-01  0.000000e+00
     vertex -1.632107e-01  7.678459e-01  0.000000e+00
     vertex -2.437161e-01  9.492115e-01  0.000000e+00
   endloop
 endfacet
 facet normal  0.000000e+00 -0.000000e+00 -1.000000e+00
   outer loop
     vertex -1.228266e-01  9.722724e-01  0.000000e+00
     vertex -1.092509e-01  7.773604e-01  0.000000e+00
     vertex -1.836337e-01  9.626415e-01  0.000000e+00
   endloop
 endfacet
 facet normal  0.000000e+00  0.000000e+00 -1.000000e+00
   outer loop
     vertex -1.228266e-01  9.722724e-01  0.000000e+00
     vertex -5.475883e-02  7.830878e-01  0.000000e+00
     vertex -1.092509e-01  7.773604e-01  0.000000e+00
   endloop
 endfacet
 facet normal  0.000000e+00 -0.000000e+00 -1.000000e+00
   outer loop
     vertex -6.153471e-02  9.780662e-01  0.000000e+00
     vertex -5.475883e-02  7.830878e-01  0.000000e+00
     vertex -1.228266e-01  9.722724e-01  0.000000e+00
   endloop
 endfacet
 facet normal  0.000000e+00  0.000000e+00 -1.000000e+00
   outer loop
     vertex -6.153471e-02  9.780662e-01  0.000000e+00
     vertex  0.000000e+00  7.850000e-01  0.000000e+00
     vertex -5.475883e-02  7.830878e-01  0.000000e+00
   endloop
 endfacet
 facet normal  0.000000e+00 -0.000000e+00 -1.000000e+00
   outer loop
     vertex  0.000000e+00  9.800000e-01  0.000000e+00
     vertex  0.000000e+00  7.850000e-01  0.000000e+00
     vertex -6.153471e-02  9.780662e-01  0.000000e+00
   endloop
 endfacet
 facet normal  0.000000e+00  0.000000e+00  1.000000e+00
   outer loop
     vertex -5.453068e-01 -5.646817e-01  5.900000e-01
     vertex -7.143893e-01 -6.708562e-01  5.900000e-01
     vertex -6.708562e-01 -7.143893e-01  5.900000e-01
   endloop
 endfacet
 facet normal  0.000000e+00  0.000000e+00  1.000000e+00
   outer loop
     vertex -5.833687e-01 -5.252675e-01  5.900000e-01
     vertex -7.551030e-01 -6.246755e-01  5.900000e-01
     vertex -7.143893e-01 -6.708562e-01  5.900000e-01
   endloop
 endfacet
 facet normal  0.000000e+00  0.000000e+00  1.000000e+00
   outer loop
     vertex -5.833687e-01 -5.252675e-01  5.900000e-01
     vertex -7.143893e-01 -6.708562e-01  5.900000e-01
     vertex -5.453068e-01 -5.646817e-01  5.900000e-01
   endloop
 endfacet
 facet normal  0.000000e+00  0.000000e+00  1.000000e+00
   outer loop
     vertex -5.045883e-01 -6.013449e-01  5.900000e-01
     vertex -5.453068e-01 -5.646817e-01  5.900000e-01
     vertex -6.708562e-01 -7.143893e-01  5.900000e-01
   endloop
 endfacet
 facet normal  0.000000e+00  0.000000e+00  1.000000e+00
   outer loop
     vertex -5.045883e-01 -6.013449e-01  5.900000e-01
     vertex -6.708562e-01 -7.143893e-01  5.900000e-01
     vertex -6.246755e-01 -7.551030e-01  5.900000e-01
   endloop
 endfacet
 facet normal  0.000000e+00  0.000000e+00  1.000000e+00
   outer loop
     vertex -6.185884e-01 -4.832943e-01  5.900000e-01
     vertex -7.928367e-01 -5.760295e-01  5.900000e-01
     vertex -7.551030e-01 -6.246755e-01  5.900000e-01
   endloop
 endfacet
 facet normal  0.000000e+00  0.000000e+00  1.000000e+00
   outer loop
     vertex -6.185884e-01 -4.832943e-01  5.900000e-01
     vertex -7.551030e-01 -6.246755e-01  5.900000e-01
     vertex -5.833687e-01 -5.252675e-01  5.900000e-01
   endloop
 endfacet
 facet normal  0.000000e+00  0.000000e+00  1.000000e+00
   outer loop
     vertex -4.614114e-01 -6.350783e-01  5.900000e-01
     vertex -6.246755e-01 -7.551030e-01  5.900000e-01
     vertex -5.760295e-01 -7.928367e-01  5.900000e-01
   endloop
 endfacet
 facet normal  0.000000e+00  0.000000e+00  1.000000e+00
   outer loop
     vertex -4.614114e-01 -6.350783e-01  5.900000e-01
     vertex -5.045883e-01 -6.013449e-01  5.900000e-01
     vertex -6.246755e-01 -7.551030e-01  5.900000e-01
   endloop
 endfacet
 facet normal  0.000000e+00  0.000000e+00  1.000000e+00
   outer loop
     vertex -4.614114e-01 -6.350783e-01  5.900000e-01
     vertex -5.760295e-01 -7.928367e-01  5.900000e-01
     vertex -5.251103e-01 -8.274414e-01  5.900000e-01
   endloop
 endfacet
 facet normal  0.000000e+00  0.000000e+00  1.000000e+00
   outer loop
     vertex -6.507945e-01 -4.389664e-01  5.900000e-01
     vertex -8.274414e-01 -5.251103e-01  5.900000e-01
     vertex -7.928367e-01 -5.760295e-01  5.900000e-01
   endloop
 endfacet
 facet normal  0.000000e+00  0.000000e+00  1.000000e+00
   outer loop
     vertex -6.507945e-01 -4.389664e-01  5.900000e-01
     vertex -7.928367e-01 -5.760295e-01  5.900000e-01
     vertex -6.185884e-01 -4.832943e-01  5.900000e-01
   endloop
 endfacet
 facet normal  0.000000e+00  0.000000e+00  1.000000e+00
   outer loop
     vertex -4.159866e-01 -6.657178e-01  5.900000e-01
     vertex -5.251103e-01 -8.274414e-01  5.900000e-01
     vertex -4.721186e-01 -8.587805e-01  5.900000e-01
   endloop
 endfacet
 facet normal  0.000000e+00  0.000000e+00  1.000000e+00
   outer loop
     vertex -4.159866e-01 -6.657178e-01  5.900000e-01
     vertex -4.614114e-01 -6.350783e-01  5.900000e-01
     vertex -5.251103e-01 -8.274414e-01  5.900000e-01
   endloop
 endfacet
 facet normal  0.000000e+00  0.000000e+00  1.000000e+00
   outer loop
     vertex -6.798299e-01 -3.925000e-01  5.900000e-01
     vertex -8.274414e-01 -5.251103e-01  5.900000e-01
     vertex -6.507945e-01 -4.389664e-01  5.900000e-01
   endloop
 endfacet
 facet normal  0.000000e+00  0.000000e+00  1.000000e+00
   outer loop
     vertex -6.798299e-01 -3.925000e-01  5.900000e-01
     vertex -8.587805e-01 -4.721186e-01  5.900000e-01
     vertex -8.274414e-01 -5.251103e-01  5.900000e-01
   endloop
 endfacet
 facet normal  0.000000e+00  0.000000e+00  1.000000e+00
   outer loop
     vertex -3.685352e-01 -6.931139e-01  5.900000e-01
     vertex -4.159866e-01 -6.657178e-01  5.900000e-01
     vertex -4.721186e-01 -8.587805e-01  5.900000e-01
   endloop
 endfacet
 facet normal  0.000000e+00  0.000000e+00  1.000000e+00
   outer loop
     vertex -3.685352e-01 -6.931139e-01  5.900000e-01
     vertex -4.721186e-01 -8.587805e-01  5.900000e-01
     vertex -4.172637e-01 -8.867305e-01  5.900000e-01
   endloop
 endfacet
 facet normal  0.000000e+00  0.000000e+00  1.000000e+00
   outer loop
     vertex -7.055533e-01 -3.441214e-01  5.900000e-01
     vertex -8.867305e-01 -4.172637e-01  5.900000e-01
     vertex -8.587805e-01 -4.721186e-01  5.900000e-01
   endloop
 endfacet
 facet normal  0.000000e+00  0.000000e+00  1.000000e+00
   outer loop
     vertex -7.055533e-01 -3.441214e-01  5.900000e-01
     vertex -8.587805e-01 -4.721186e-01  5.900000e-01
     vertex -6.798299e-01 -3.925000e-01  5.900000e-01
   endloop
 endfacet
 facet normal  0.000000e+00  0.000000e+00  1.000000e+00
   outer loop
     vertex -3.192883e-01 -7.171332e-01  5.900000e-01
     vertex -4.172637e-01 -8.867305e-01  5.900000e-01
     vertex -3.607621e-01 -9.111810e-01  5.900000e-01
   endloop
 endfacet
 facet normal  0.000000e+00  0.000000e+00  1.000000e+00
   outer loop
     vertex -3.192883e-01 -7.171332e-01  5.900000e-01
     vertex -3.685352e-01 -6.931139e-01  5.900000e-01
     vertex -4.172637e-01 -8.867305e-01  5.900000e-01
   endloop
 endfacet
 facet normal  0.000000e+00  0.000000e+00  1.000000e+00
   outer loop
     vertex -7.278393e-01 -2.940662e-01  5.900000e-01
     vertex -8.867305e-01 -4.172637e-01  5.900000e-01
     vertex -7.055533e-01 -3.441214e-01  5.900000e-01
   endloop
 endfacet
 facet normal  0.000000e+00  0.000000e+00  1.000000e+00
   outer loop
     vertex -7.278393e-01 -2.940662e-01  5.900000e-01
     vertex -9.111810e-01 -3.607621e-01  5.900000e-01
     vertex -8.867305e-01 -4.172637e-01  5.900000e-01
   endloop
 endfacet
 facet normal  0.000000e+00  0.000000e+00  1.000000e+00
   outer loop
     vertex -2.684858e-01 -7.376587e-01  5.900000e-01
     vertex -3.192883e-01 -7.171332e-01  5.900000e-01
     vertex -3.607621e-01 -9.111810e-01  5.900000e-01
   endloop
 endfacet
 facet normal  0.000000e+00  0.000000e+00  1.000000e+00
   outer loop
     vertex -2.684858e-01 -7.376587e-01  5.900000e-01
     vertex -3.607621e-01 -9.111810e-01  5.900000e-01
     vertex -3.028367e-01 -9.320354e-01  5.900000e-01
   endloop
 endfacet
 facet normal  0.000000e+00  0.000000e+00  1.000000e+00
   outer loop
     vertex -7.465794e-01 -2.425783e-01  5.900000e-01
     vertex -9.492115e-01 -2.437161e-01  5.900000e-01
     vertex -9.320354e-01 -3.028367e-01  5.900000e-01
   endloop
 endfacet
 facet normal  0.000000e+00  0.000000e+00  1.000000e+00
   outer loop
     vertex -7.465794e-01 -2.425783e-01  5.900000e-01
     vertex -9.320354e-01 -3.028367e-01  5.900000e-01
     vertex -9.111810e-01 -3.607621e-01  5.900000e-01
   endloop
 endfacet
 facet normal  0.000000e+00  0.000000e+00  1.000000e+00
   outer loop
     vertex -7.465794e-01 -2.425783e-01  5.900000e-01
     vertex -9.111810e-01 -3.607621e-01  5.900000e-01
     vertex -7.278393e-01 -2.940662e-01  5.900000e-01
   endloop
 endfacet
 facet normal  0.000000e+00  0.000000e+00  1.000000e+00
   outer loop
     vertex -2.163753e-01 -7.545904e-01  5.900000e-01
     vertex -2.684858e-01 -7.376587e-01  5.900000e-01
     vertex -3.028367e-01 -9.320354e-01  5.900000e-01
   endloop
 endfacet
 facet normal  0.000000e+00  0.000000e+00  1.000000e+00
   outer loop
     vertex -2.163753e-01 -7.545904e-01  5.900000e-01
     vertex -3.028367e-01 -9.320354e-01  5.900000e-01
     vertex -2.437161e-01 -9.492115e-01  5.900000e-01
   endloop
 endfacet
 facet normal  0.000000e+00  0.000000e+00  1.000000e+00
   outer loop
     vertex -7.616821e-01 -1.899087e-01  5.900000e-01
     vertex -9.626415e-01 -1.836337e-01  5.900000e-01
     vertex -9.492115e-01 -2.437161e-01  5.900000e-01
   endloop
 endfacet
 facet normal  0.000000e+00  0.000000e+00  1.000000e+00
   outer loop
     vertex -7.616821e-01 -1.899087e-01  5.900000e-01
     vertex -9.492115e-01 -2.437161e-01  5.900000e-01
     vertex -7.465794e-01 -2.425783e-01  5.900000e-01
   endloop
 endfacet
 facet normal  0.000000e+00  0.000000e+00  1.000000e+00
   outer loop
     vertex -1.632107e-01 -7.678459e-01  5.900000e-01
     vertex -2.437161e-01 -9.492115e-01  5.900000e-01
     vertex -1.836337e-01 -9.626415e-01  5.900000e-01
   endloop
 endfacet
 facet normal  0.000000e+00  0.000000e+00  1.000000e+00
   outer loop
     vertex -1.632107e-01 -7.678459e-01  5.900000e-01
     vertex -2.163753e-01 -7.545904e-01  5.900000e-01
     vertex -2.437161e-01 -9.492115e-01  5.900000e-01
   endloop
 endfacet
 facet normal  0.000000e+00  0.000000e+00  1.000000e+00
   outer loop
     vertex -7.730741e-01 -1.363138e-01  5.900000e-01
     vertex -9.722724e-01 -1.228266e-01  5.900000e-01
     vertex -9.626415e-01 -1.836337e-01  5.900000e-01
   endloop
 endfacet
 facet normal  0.000000e+00  0.000000e+00  1.000000e+00
   outer loop
     vertex -7.730741e-01 -1.363138e-01  5.900000e-01
     vertex -9.626415e-01 -1.836337e-01  5.900000e-01
     vertex -7.616821e-01 -1.899087e-01  5.900000e-01
   endloop
 endfacet
 facet normal  0.000000e+00  0.000000e+00  1.000000e+00
   outer loop
     vertex -1.092509e-01 -7.773604e-01  5.900000e-01
     vertex -1.836337e-01 -9.626415e-01  5.900000e-01
     vertex -1.228266e-01 -9.722724e-01  5.900000e-01
   endloop
 endfacet
 facet normal  0.000000e+00  0.000000e+00  1.000000e+00
   outer loop
     vertex -1.092509e-01 -7.773604e-01  5.900000e-01
     vertex -1.632107e-01 -7.678459e-01  5.900000e-01
     vertex -1.836337e-01 -9.626415e-01  5.900000e-01
   endloop
 endfacet
 facet normal  0.000000e+00  0.000000e+00  1.000000e+00
   outer loop
     vertex -7.806997e-01 -8.205484e-02  5.900000e-01
     vertex -9.780662e-01 -6.153471e-02  5.900000e-01
     vertex -9.722724e-01 -1.228266e-01  5.900000e-01
   endloop
 endfacet
 facet normal  0.000000e+00  0.000000e+00  1.000000e+00
   outer loop
     vertex -7.806997e-01 -8.205484e-02  5.900000e-01
     vertex -9.722724e-01 -1.228266e-01  5.900000e-01
     vertex -7.730741e-01 -1.363138e-01  5.900000e-01
   endloop
 endfacet
 facet normal  0.000000e+00  0.000000e+00  1.000000e+00
   outer loop
     vertex -5.475883e-02 -7.830878e-01  5.900000e-01
     vertex -1.228266e-01 -9.722724e-01  5.900000e-01
     vertex -6.153471e-02 -9.780662e-01  5.900000e-01
   endloop
 endfacet
 facet normal  0.000000e+00  0.000000e+00  1.000000e+00
   outer loop
     vertex -5.475883e-02 -7.830878e-01  5.900000e-01
     vertex -1.092509e-01 -7.773604e-01  5.900000e-01
     vertex -1.228266e-01 -9.722724e-01  5.900000e-01
   endloop
 endfacet
 facet normal  0.000000e+00  0.000000e+00  1.000000e+00
   outer loop
     vertex -7.845218e-01 -2.739610e-02  5.900000e-01
     vertex -9.800000e-01 -6.483146e-16  5.900000e-01
     vertex -9.780662e-01 -6.153471e-02  5.900000e-01
   endloop
 endfacet
 facet normal  0.000000e+00  0.000000e+00  1.000000e+00
   outer loop
     vertex -7.845218e-01 -2.739610e-02  5.900000e-01
     vertex -9.780662e-01 -6.153471e-02  5.900000e-01
     vertex -7.806997e-01 -8.205484e-02  5.900000e-01
   endloop
 endfacet
 facet normal  0.000000e+00  0.000000e+00  1.000000e+00
   outer loop
     vertex -7.582296e-17 -7.850000e-01  5.900000e-01
     vertex -6.153471e-02 -9.780662e-01  5.900000e-01
     vertex -4.496541e-18 -9.800000e-01  5.900000e-01
   endloop
 endfacet
 facet normal  0.000000e+00  0.000000e+00  1.000000e+00
   outer loop
     vertex -7.582296e-17 -7.850000e-01  5.900000e-01
     vertex -5.475883e-02 -7.830878e-01  5.900000e-01
     vertex -6.153471e-02 -9.780662e-01  5.900000e-01
   endloop
 endfacet
 facet normal  0.000000e+00  0.000000e+00  1.000000e+00
   outer loop
     vertex -7.845218e-01  2.739610e-02  5.900000e-01
     vertex -9.780662e-01  6.153471e-02  5.900000e-01
     vertex -9.800000e-01 -6.483146e-16  5.900000e-01
   endloop
 endfacet
 facet normal  0.000000e+00  0.000000e+00  1.000000e+00
   outer loop
     vertex -7.845218e-01  2.739610e-02  5.900000e-01
     vertex -9.800000e-01 -6.483146e-16  5.900000e-01
     vertex -7.845218e-01 -2.739610e-02  5.900000e-01
   endloop
 endfacet
 facet normal  0.000000e+00  0.000000e+00  1.000000e+00
   outer loop
     vertex -7.806997e-01  8.205484e-02  5.900000e-01
     vertex -9.780662e-01  6.153471e-02  5.900000e-01
     vertex -7.845218e-01  2.739610e-02  5.900000e-01
   endloop
 endfacet
 facet normal  0.000000e+00  0.000000e+00  1.000000e+00
   outer loop
     vertex -7.806997e-01  8.205484e-02  5.900000e-01
     vertex -9.722724e-01  1.228266e-01  5.900000e-01
     vertex -9.780662e-01  6.153471e-02  5.900000e-01
   endloop
 endfacet
 facet normal  0.000000e+00  0.000000e+00  1.000000e+00
   outer loop
     vertex -7.730741e-01  1.363138e-01  5.900000e-01
     vertex -9.722724e-01  1.228266e-01  5.900000e-01
     vertex -7.806997e-01  8.205484e-02  5.900000e-01
   endloop
 endfacet
 facet normal  0.000000e+00  0.000000e+00  1.000000e+00
   outer loop
     vertex -7.730741e-01  1.363138e-01  5.900000e-01
     vertex -9.626415e-01  1.836337e-01  5.900000e-01
     vertex -9.722724e-01  1.228266e-01  5.900000e-01
   endloop
 endfacet
 facet normal  0.000000e+00  0.000000e+00  1.000000e+00
   outer loop
     vertex -7.616821e-01  1.899087e-01  5.900000e-01
     vertex -9.626415e-01  1.836337e-01  5.900000e-01
     vertex -7.730741e-01  1.363138e-01  5.900000e-01
   endloop
 endfacet
 facet normal  0.000000e+00  0.000000e+00  1.000000e+00
   outer loop
     vertex -7.616821e-01  1.899087e-01  5.900000e-01
     vertex -9.492115e-01  2.437161e-01  5.900000e-01
     vertex -9.626415e-01  1.836337e-01  5.900000e-01
   endloop
 endfacet
 facet normal  0.000000e+00  0.000000e+00  1.000000e+00
   outer loop
     vertex -7.465794e-01  2.425783e-01  5.900000e-01
     vertex -9.111810e-01  3.607621e-01  5.900000e-01
     vertex -9.320354e-01  3.028367e-01  5.900000e-01
   endloop
 endfacet
 facet normal  0.000000e+00  0.000000e+00  1.000000e+00
   outer loop
     vertex -7.465794e-01  2.425783e-01  5.900000e-01
     vertex -9.320354e-01  3.028367e-01  5.900000e-01
     vertex -9.492115e-01  2.437161e-01  5.900000e-01
   endloop
 endfacet
 facet normal  0.000000e+00  0.000000e+00  1.000000e+00
   outer loop
     vertex -7.465794e-01  2.425783e-01  5.900000e-01
     vertex -9.492115e-01  2.437161e-01  5.900000e-01
     vertex -7.616821e-01  1.899087e-01  5.900000e-01
   endloop
 endfacet
 facet normal  0.000000e+00  0.000000e+00  1.000000e+00
   outer loop
     vertex -7.278393e-01  2.940662e-01  5.900000e-01
     vertex -9.111810e-01  3.607621e-01  5.900000e-01
     vertex -7.465794e-01  2.425783e-01  5.900000e-01
   endloop
 endfacet
 facet normal  0.000000e+00  0.000000e+00  1.000000e+00
   outer loop
     vertex -7.278393e-01  2.940662e-01  5.900000e-01
     vertex -8.867305e-01  4.172637e-01  5.900000e-01
     vertex -9.111810e-01  3.607621e-01  5.900000e-01
   endloop
 endfacet
 facet normal  0.000000e+00  0.000000e+00  1.000000e+00
   outer loop
     vertex -7.055533e-01  3.441214e-01  5.900000e-01
     vertex -8.867305e-01  4.172637e-01  5.900000e-01
     vertex -7.278393e-01  2.940662e-01  5.900000e-01
   endloop
 endfacet
 facet normal  0.000000e+00  0.000000e+00  1.000000e+00
   outer loop
     vertex -7.055533e-01  3.441214e-01  5.900000e-01
     vertex -8.587805e-01  4.721186e-01  5.900000e-01
     vertex -8.867305e-01  4.172637e-01  5.900000e-01
   endloop
 endfacet
 facet normal  0.000000e+00  0.000000e+00  1.000000e+00
   outer loop
     vertex -6.798299e-01  3.925000e-01  5.900000e-01
     vertex -8.274414e-01  5.251103e-01  5.900000e-01
     vertex -8.587805e-01  4.721186e-01  5.900000e-01
   endloop
 endfacet
 facet normal  0.000000e+00  0.000000e+00  1.000000e+00
   outer loop
     vertex -6.798299e-01  3.925000e-01  5.900000e-01
     vertex -8.587805e-01  4.721186e-01  5.900000e-01
     vertex -7.055533e-01  3.441214e-01  5.900000e-01
   endloop
 endfacet
 facet normal  0.000000e+00  0.000000e+00  1.000000e+00
   outer loop
     vertex -6.507945e-01  4.389664e-01  5.900000e-01
     vertex -7.928367e-01  5.760295e-01  5.900000e-01
     vertex -8.274414e-01  5.251103e-01  5.900000e-01
   endloop
 endfacet
 facet normal  0.000000e+00  0.000000e+00  1.000000e+00
   outer loop
     vertex -6.507945e-01  4.389664e-01  5.900000e-01
     vertex -8.274414e-01  5.251103e-01  5.900000e-01
     vertex -6.798299e-01  3.925000e-01  5.900000e-01
   endloop
 endfacet
 facet normal  0.000000e+00  0.000000e+00  1.000000e+00
   outer loop
     vertex -6.185884e-01  4.832943e-01  5.900000e-01
     vertex -7.928367e-01  5.760295e-01  5.900000e-01
     vertex -6.507945e-01  4.389664e-01  5.900000e-01
   endloop
 endfacet
 facet normal  0.000000e+00  0.000000e+00  1.000000e+00
   outer loop
     vertex -7.551030e-01  6.246755e-01  5.900000e-01
     vertex -7.928367e-01  5.760295e-01  5.900000e-01
     vertex -6.185884e-01  4.832943e-01  5.900000e-01
   endloop
 endfacet
 facet normal  0.000000e+00  0.000000e+00  1.000000e+00
   outer loop
     vertex -5.833687e-01  5.252675e-01  5.900000e-01
     vertex -7.551030e-01  6.246755e-01  5.900000e-01
     vertex -6.185884e-01  4.832943e-01  5.900000e-01
   endloop
 endfacet
 facet normal  0.000000e+00  0.000000e+00  1.000000e+00
   outer loop
     vertex -7.143893e-01  6.708562e-01  5.900000e-01
     vertex -7.551030e-01  6.246755e-01  5.900000e-01
     vertex -5.833687e-01  5.252675e-01  5.900000e-01
   endloop
 endfacet
 facet normal  0.000000e+00  0.000000e+00  1.000000e+00
   outer loop
     vertex -5.453068e-01  5.646817e-01  5.900000e-01
     vertex -7.143893e-01  6.708562e-01  5.900000e-01
     vertex -5.833687e-01  5.252675e-01  5.900000e-01
   endloop
 endfacet
 facet normal  0.000000e+00  0.000000e+00  1.000000e+00
   outer loop
     vertex -6.708562e-01  7.143893e-01  5.900000e-01
     vertex -7.143893e-01  6.708562e-01  5.900000e-01
     vertex -5.453068e-01  5.646817e-01  5.900000e-01
   endloop
 endfacet
 facet normal  0.000000e+00  0.000000e+00  1.000000e+00
   outer loop
     vertex -5.045883e-01  6.013449e-01  5.900000e-01
     vertex -6.708562e-01  7.143893e-01  5.900000e-01
     vertex -5.453068e-01  5.646817e-01  5.900000e-01
   endloop
 endfacet
 facet normal  0.000000e+00  0.000000e+00  1.000000e+00
   outer loop
     vertex -6.246755e-01  7.551030e-01  5.900000e-01
     vertex -6.708562e-01  7.143893e-01  5.900000e-01
     vertex -5.045883e-01  6.013449e-01  5.900000e-01
   endloop
 endfacet
 facet normal  0.000000e+00  0.000000e+00  1.000000e+00
   outer loop
     vertex -4.614114e-01  6.350783e-01  5.900000e-01
     vertex -6.246755e-01  7.551030e-01  5.900000e-01
     vertex -5.045883e-01  6.013449e-01  5.900000e-01
   endloop
 endfacet
 facet normal  0.000000e+00  0.000000e+00  1.000000e+00
   outer loop
     vertex -5.760295e-01  7.928367e-01  5.900000e-01
     vertex -6.246755e-01  7.551030e-01  5.900000e-01
     vertex -4.614114e-01  6.350783e-01  5.900000e-01
   endloop
 endfacet
 facet normal  0.000000e+00  0.000000e+00  1.000000e+00
   outer loop
     vertex -5.251103e-01  8.274414e-01  5.900000e-01
     vertex -5.760295e-01  7.928367e-01  5.900000e-01
     vertex -4.614114e-01  6.350783e-01  5.900000e-01
   endloop
 endfacet
 facet normal  0.000000e+00  0.000000e+00  1.000000e+00
   outer loop
     vertex -5.251103e-01  8.274414e-01  5.900000e-01
     vertex -4.614114e-01  6.350783e-01  5.900000e-01
     vertex -4.159866e-01  6.657178e-01  5.900000e-01
   endloop
 endfacet
 facet normal  0.000000e+00  0.000000e+00  1.000000e+00
   outer loop
     vertex -4.721186e-01  8.587805e-01  5.900000e-01
     vertex -5.251103e-01  8.274414e-01  5.900000e-01
     vertex -4.159866e-01  6.657178e-01  5.900000e-01
   endloop
 endfacet
 facet normal  0.000000e+00  0.000000e+00  1.000000e+00
   outer loop
     vertex -4.721186e-01  8.587805e-01  5.900000e-01
     vertex -4.159866e-01  6.657178e-01  5.900000e-01
     vertex -3.685352e-01  6.931139e-01  5.900000e-01
   endloop
 endfacet
 facet normal  0.000000e+00  0.000000e+00  1.000000e+00
   outer loop
     vertex -4.172637e-01  8.867305e-01  5.900000e-01
     vertex -3.685352e-01  6.931139e-01  5.900000e-01
     vertex -3.192883e-01  7.171332e-01  5.900000e-01
   endloop
 endfacet
 facet normal  0.000000e+00  0.000000e+00  1.000000e+00
   outer loop
     vertex -4.172637e-01  8.867305e-01  5.900000e-01
     vertex -4.721186e-01  8.587805e-01  5.900000e-01
     vertex -3.685352e-01  6.931139e-01  5.900000e-01
   endloop
 endfacet
 facet normal  0.000000e+00  0.000000e+00  1.000000e+00
   outer loop
     vertex -3.607621e-01  9.111810e-01  5.900000e-01
     vertex -3.192883e-01  7.171332e-01  5.900000e-01
     vertex -2.684858e-01  7.376587e-01  5.900000e-01
   endloop
 endfacet
 facet normal  0.000000e+00  0.000000e+00  1.000000e+00
   outer loop
     vertex -3.607621e-01  9.111810e-01  5.900000e-01
     vertex -4.172637e-01  8.867305e-01  5.900000e-01
     vertex -3.192883e-01  7.171332e-01  5.900000e-01
   endloop
 endfacet
 facet normal  0.000000e+00  0.000000e+00  1.000000e+00
   outer loop
     vertex -3.028367e-01  9.320354e-01  5.900000e-01
     vertex -2.684858e-01  7.376587e-01  5.900000e-01
     vertex -2.163753e-01  7.545904e-01  5.900000e-01
   endloop
 endfacet
 facet normal  0.000000e+00  0.000000e+00  1.000000e+00
   outer loop
     vertex -3.028367e-01  9.320354e-01  5.900000e-01
     vertex -3.607621e-01  9.111810e-01  5.900000e-01
     vertex -2.684858e-01  7.376587e-01  5.900000e-01
   endloop
 endfacet
 facet normal  0.000000e+00  0.000000e+00  1.000000e+00
   outer loop
     vertex -2.437161e-01  9.492115e-01  5.900000e-01
     vertex -2.163753e-01  7.545904e-01  5.900000e-01
     vertex -1.632107e-01  7.678459e-01  5.900000e-01
   endloop
 endfacet
 facet normal  0.000000e+00  0.000000e+00  1.000000e+00
   outer loop
     vertex -2.437161e-01  9.492115e-01  5.900000e-01
     vertex -3.028367e-01  9.320354e-01  5.900000e-01
     vertex -2.163753e-01  7.545904e-01  5.900000e-01
   endloop
 endfacet
 facet normal  0.000000e+00  0.000000e+00  1.000000e+00
   outer loop
     vertex -1.836337e-01  9.626415e-01  5.900000e-01
     vertex -1.632107e-01  7.678459e-01  5.900000e-01
     vertex -1.092509e-01  7.773604e-01  5.900000e-01
   endloop
 endfacet
 facet normal  0.000000e+00  0.000000e+00  1.000000e+00
   outer loop
     vertex -1.836337e-01  9.626415e-01  5.900000e-01
     vertex -2.437161e-01  9.492115e-01  5.900000e-01
     vertex -1.632107e-01  7.678459e-01  5.900000e-01
   endloop
 endfacet
 facet normal  0.000000e+00  0.000000e+00  1.000000e+00
   outer loop
     vertex -1.228266e-01  9.722724e-01  5.900000e-01
     vertex -1.836337e-01  9.626415e-01  5.900000e-01
     vertex -1.092509e-01  7.773604e-01  5.900000e-01
   endloop
 endfacet
 facet normal  0.000000e+00  0.000000e+00  1.000000e+00
   outer loop
     vertex -1.228266e-01  9.722724e-01  5.900000e-01
     vertex -1.092509e-01  7.773604e-01  5.900000e-01
     vertex -5.475883e-02  7.830878e-01  5.900000e-01
   endloop
 endfacet
 facet normal  0.000000e+00  0.000000e+00  1.000000e+00
   outer loop
     vertex -6.153471e-02  9.780662e-01  5.900000e-01
     vertex -1.228266e-01  9.722724e-01  5.900000e-01
     vertex -5.475883e-02  7.830878e-01  5.900000e-01
   endloop
 endfacet
 facet normal  0.000000e+00  0.000000e+00  1.000000e+00
   outer loop
     vertex -6.153471e-02  9.780662e-01  5.900000e-01
     vertex -5.475883e-02  7.830878e-01  5.900000e-01
     vertex  0.000000e+00  7.850000e-01  5.900000e-01
   endloop
 endfacet
 facet normal  0.000000e+00  0.000000e+00  1.000000e+00
   outer loop
     vertex  0.000000e+00  9.800000e-01  5.900000e-01
     vertex -6.153471e-02  9.780662e-01  5.900000e-01
     vertex  0.000000e+00  7.850000e-01  5.900000e-01
   endloop
 endfacet
endsolid
