solid 
 facet normal  9.927089e-01  0.000000e+00  1.205367e-01
   outer loop
     vertex  5.825651e-02  0.000000e+00  1.435894e-02
     vertex  6.000000e-02 -1.000000e+00  0.000000e+00
     vertex  6.000000e-02  0.000000e+00  0.000000e+00
   endloop
 endfacet
 facet normal  9.927089e-01  0.000000e+00  1.205367e-01
   outer loop
     vertex  5.825651e-02  0.000000e+00  1.435894e-02
     vertex  5.825651e-02 -1.000000e+00  1.435894e-02
     vertex  6.000000e-02 -1.000000e+00  0.000000e+00
   endloop
 endfacet
 facet normal  9.350162e-01  0.000000e+00  3.546049e-01
   outer loop
     vertex  5.312736e-02  0.000000e+00  2.788339e-02
     vertex  5.312736e-02 -1.000000e+00  2.788339e-02
     vertex  5.825651e-02 -1.000000e+00  1.435894e-02
   endloop
 endfacet
 facet normal  9.350162e-01  0.000000e+00  3.546049e-01
   outer loop
     vertex  5.312736e-02  0.000000e+00  2.788339e-02
     vertex  5.825651e-02 -1.000000e+00  1.435894e-02
     vertex  5.825651e-02  0.000000e+00  1.435894e-02
   endloop
 endfacet
 facet normal  8.229839e-01  0.000000e+00  5.680647e-01
   outer loop
     vertex  4.491064e-02  0.000000e+00  3.978736e-02
     vertex  4.491064e-02 -1.000000e+00  3.978736e-02
     vertex  5.312736e-02 -1.000000e+00  2.788339e-02
   endloop
 endfacet
 facet normal  8.229839e-01  0.000000e+00  5.680647e-01
   outer loop
     vertex  4.491064e-02  0.000000e+00  3.978736e-02
     vertex  5.312736e-02 -1.000000e+00  2.788339e-02
     vertex  5.312736e-02  0.000000e+00  2.788339e-02
   endloop
 endfacet
 facet normal  6.631227e-01  0.000000e+00  7.485107e-01
   outer loop
     vertex  3.408388e-02  0.000000e+00  4.937903e-02
     vertex  3.408388e-02 -1.000000e+00  4.937903e-02
     vertex  4.491064e-02 -1.000000e+00  3.978736e-02
   endloop
 endfacet
 facet normal  6.631227e-01  0.000000e+00  7.485107e-01
   outer loop
     vertex  3.408388e-02  0.000000e+00  4.937903e-02
     vertex  4.491064e-02 -1.000000e+00  3.978736e-02
     vertex  4.491064e-02  0.000000e+00  3.978736e-02
   endloop
 endfacet
 facet normal  4.647232e-01  0.000000e+00  8.854560e-01
   outer loop
     vertex  2.127629e-02  0.000000e+00  5.610097e-02
     vertex  2.127629e-02 -1.000000e+00  5.610097e-02
     vertex  3.408388e-02 -1.000000e+00  4.937903e-02
   endloop
 endfacet
 facet normal  4.647232e-01  0.000000e+00  8.854560e-01
   outer loop
     vertex  2.127629e-02  0.000000e+00  5.610097e-02
     vertex  3.408388e-02 -1.000000e+00  4.937903e-02
     vertex  3.408388e-02  0.000000e+00  4.937903e-02
   endloop
 endfacet
 facet normal  2.393157e-01  0.000000e+00  9.709418e-01
   outer loop
     vertex  7.232201e-03  0.000000e+00  5.956253e-02
     vertex  7.232201e-03 -1.000000e+00  5.956253e-02
     vertex  2.127629e-02 -1.000000e+00  5.610097e-02
   endloop
 endfacet
 facet normal  2.393157e-01  0.000000e+00  9.709418e-01
   outer loop
     vertex  7.232201e-03  0.000000e+00  5.956253e-02
     vertex  2.127629e-02 -1.000000e+00  5.610097e-02
     vertex  2.127629e-02  0.000000e+00  5.610097e-02
   endloop
 endfacet
 facet normal  0.000000e+00  0.000000e+00  1.000000e+00
   outer loop
     vertex -7.232201e-03  0.000000e+00  5.956253e-02
     vertex -7.232201e-03 -1.000000e+00  5.956253e-02
     vertex  7.232201e-03 -1.000000e+00  5.956253e-02
   endloop
 endfacet
 facet normal -0.000000e+00  0.000000e+00  1.000000e+00
   outer loop
     vertex -7.232201e-03  0.000000e+00  5.956253e-02
     vertex  7.232201e-03 -1.000000e+00  5.956253e-02
     vertex  7.232201e-03  0.000000e+00  5.956253e-02
   endloop
 endfacet
 facet normal -2.393157e-01  0.000000e+00  9.709418e-01
   outer loop
     vertex -2.127629e-02  0.000000e+00  5.610097e-02
     vertex -2.127629e-02 -1.000000e+00  5.610097e-02
     vertex -7.232201e-03 -1.000000e+00  5.956253e-02
   endloop
 endfacet
 facet normal -2.393157e-01  0.000000e+00  9.709418e-01
   outer loop
     vertex -2.127629e-02  0.000000e+00  5.610097e-02
     vertex -7.232201e-03 -1.000000e+00  5.956253e-02
     vertex -7.232201e-03  0.000000e+00  5.956253e-02
   endloop
 endfacet
 facet normal -4.647232e-01  0.000000e+00  8.854560e-01
   outer loop
     vertex -3.408388e-02  0.000000e+00  4.937903e-02
     vertex -3.408388e-02 -1.000000e+00  4.937903e-02
     vertex -2.127629e-02 -1.000000e+00  5.610097e-02
   endloop
 endfacet
 facet normal -4.647232e-01  0.000000e+00  8.854560e-01
   outer loop
     vertex -3.408388e-02  0.000000e+00  4.937903e-02
     vertex -2.127629e-02 -1.000000e+00  5.610097e-02
     vertex -2.127629e-02  0.000000e+00  5.610097e-02
   endloop
 endfacet
 facet normal -6.631227e-01  0.000000e+00  7.485107e-01
   outer loop
     vertex -4.491064e-02  0.000000e+00  3.978736e-02
     vertex -4.491064e-02 -1.000000e+00  3.978736e-02
     vertex -3.408388e-02 -1.000000e+00  4.937903e-02
   endloop
 endfacet
 facet normal -6.631227e-01  0.000000e+00  7.485107e-01
   outer loop
     vertex -4.491064e-02  0.000000e+00  3.978736e-02
     vertex -3.408388e-02 -1.000000e+00  4.937903e-02
     vertex -3.408388e-02  0.000000e+00  4.937903e-02
   endloop
 endfacet
 facet normal -8.229839e-01  0.000000e+00  5.680647e-01
   outer loop
     vertex -5.312736e-02  0.000000e+00  2.788339e-02
     vertex -4.491064e-02 -1.000000e+00  3.978736e-02
     vertex -4.491064e-02  0.000000e+00  3.978736e-02
   endloop
 endfacet
 facet normal -8.229839e-01  0.000000e+00  5.680647e-01
   outer loop
     vertex -5.312736e-02  0.000000e+00  2.788339e-02
     vertex -5.312736e-02 -1.000000e+00  2.788339e-02
     vertex -4.491064e-02 -1.000000e+00  3.978736e-02
   endloop
 endfacet
 facet normal -9.350162e-01  0.000000e+00  3.546049e-01
   outer loop
     vertex -5.825651e-02  0.000000e+00  1.435894e-02
     vertex -5.312736e-02 -1.000000e+00  2.788339e-02
     vertex -5.312736e-02  0.000000e+00  2.788339e-02
   endloop
 endfacet
 facet normal -9.350162e-01  0.000000e+00  3.546049e-01
   outer loop
     vertex -5.825651e-02  0.000000e+00  1.435894e-02
     vertex -5.825651e-02 -1.000000e+00  1.435894e-02
     vertex -5.312736e-02 -1.000000e+00  2.788339e-02
   endloop
 endfacet
 facet normal -9.927089e-01  0.000000e+00  1.205367e-01
   outer loop
     vertex -6.000000e-02  0.000000e+00  6.063859e-17
     vertex -5.825651e-02 -1.000000e+00  1.435894e-02
     vertex -5.825651e-02  0.000000e+00  1.435894e-02
   endloop
 endfacet
 facet normal -9.927089e-01  0.000000e+00  1.205367e-01
   outer loop
     vertex -6.000000e-02  0.000000e+00  6.063859e-17
     vertex -6.000000e-02 -1.000000e+00  6.063859e-17
     vertex -5.825651e-02 -1.000000e+00  1.435894e-02
   endloop
 endfacet
 facet normal -9.927089e-01 -0.000000e+00 -1.205367e-01
   outer loop
     vertex -5.825651e-02  0.000000e+00 -1.435894e-02
     vertex -5.825651e-02 -1.000000e+00 -1.435894e-02
     vertex -6.000000e-02 -1.000000e+00  6.063859e-17
   endloop
 endfacet
 facet normal -9.927089e-01  0.000000e+00 -1.205367e-01
   outer loop
     vertex -5.825651e-02  0.000000e+00 -1.435894e-02
     vertex -6.000000e-02 -1.000000e+00  6.063859e-17
     vertex -6.000000e-02  0.000000e+00  6.063859e-17
   endloop
 endfacet
 facet normal -9.350162e-01  0.000000e+00 -3.546049e-01
   outer loop
     vertex -5.312736e-02  0.000000e+00 -2.788339e-02
     vertex -5.825651e-02 -1.000000e+00 -1.435894e-02
     vertex -5.825651e-02  0.000000e+00 -1.435894e-02
   endloop
 endfacet
 facet normal -9.350162e-01 -0.000000e+00 -3.546049e-01
   outer loop
     vertex -5.312736e-02  0.000000e+00 -2.788339e-02
     vertex -5.312736e-02 -1.000000e+00 -2.788339e-02
     vertex -5.825651e-02 -1.000000e+00 -1.435894e-02
   endloop
 endfacet
 facet normal -8.229839e-01 -0.000000e+00 -5.680647e-01
   outer loop
     vertex -5.312736e-02  0.000000e+00 -2.788339e-02
     vertex -4.491064e-02 -1.000000e+00 -3.978736e-02
     vertex -5.312736e-02 -1.000000e+00 -2.788339e-02
   endloop
 endfacet
 facet normal -8.229839e-01 -0.000000e+00 -5.680647e-01
   outer loop
     vertex -4.491064e-02  0.000000e+00 -3.978736e-02
     vertex -4.491064e-02 -1.000000e+00 -3.978736e-02
     vertex -5.312736e-02  0.000000e+00 -2.788339e-02
   endloop
 endfacet
 facet normal -6.631227e-01 -0.000000e+00 -7.485107e-01
   outer loop
     vertex -3.408388e-02  0.000000e+00 -4.937903e-02
     vertex -3.408388e-02 -1.000000e+00 -4.937903e-02
     vertex -4.491064e-02 -1.000000e+00 -3.978736e-02
   endloop
 endfacet
 facet normal -6.631227e-01  0.000000e+00 -7.485107e-01
   outer loop
     vertex -3.408388e-02  0.000000e+00 -4.937903e-02
     vertex -4.491064e-02 -1.000000e+00 -3.978736e-02
     vertex -4.491064e-02  0.000000e+00 -3.978736e-02
   endloop
 endfacet
 facet normal -4.647232e-01 -0.000000e+00 -8.854560e-01
   outer loop
     vertex -2.127629e-02  0.000000e+00 -5.610097e-02
     vertex -2.127629e-02 -1.000000e+00 -5.610097e-02
     vertex -3.408388e-02 -1.000000e+00 -4.937903e-02
   endloop
 endfacet
 facet normal -4.647232e-01  0.000000e+00 -8.854560e-01
   outer loop
     vertex -2.127629e-02  0.000000e+00 -5.610097e-02
     vertex -3.408388e-02 -1.000000e+00 -4.937903e-02
     vertex -3.408388e-02  0.000000e+00 -4.937903e-02
   endloop
 endfacet
 facet normal -2.393157e-01 -0.000000e+00 -9.709418e-01
   outer loop
     vertex -7.232201e-03  0.000000e+00 -5.956253e-02
     vertex -7.232201e-03 -1.000000e+00 -5.956253e-02
     vertex -2.127629e-02 -1.000000e+00 -5.610097e-02
   endloop
 endfacet
 facet normal -2.393157e-01  0.000000e+00 -9.709418e-01
   outer loop
     vertex -7.232201e-03  0.000000e+00 -5.956253e-02
     vertex -2.127629e-02 -1.000000e+00 -5.610097e-02
     vertex -2.127629e-02  0.000000e+00 -5.610097e-02
   endloop
 endfacet
 facet normal -2.398611e-15 -0.000000e+00 -1.000000e+00
   outer loop
     vertex  7.232201e-03  0.000000e+00 -5.956253e-02
     vertex  7.232201e-03 -1.000000e+00 -5.956253e-02
     vertex -7.232201e-03 -1.000000e+00 -5.956253e-02
   endloop
 endfacet
 facet normal -2.398611e-15  0.000000e+00 -1.000000e+00
   outer loop
     vertex  7.232201e-03  0.000000e+00 -5.956253e-02
     vertex -7.232201e-03 -1.000000e+00 -5.956253e-02
     vertex -7.232201e-03  0.000000e+00 -5.956253e-02
   endloop
 endfacet
 facet normal  2.393157e-01  0.000000e+00 -9.709418e-01
   outer loop
     vertex  2.127629e-02  0.000000e+00 -5.610097e-02
     vertex  2.127629e-02 -1.000000e+00 -5.610097e-02
     vertex  7.232201e-03 -1.000000e+00 -5.956253e-02
   endloop
 endfacet
 facet normal  2.393157e-01  0.000000e+00 -9.709418e-01
   outer loop
     vertex  2.127629e-02  0.000000e+00 -5.610097e-02
     vertex  7.232201e-03 -1.000000e+00 -5.956253e-02
     vertex  7.232201e-03  0.000000e+00 -5.956253e-02
   endloop
 endfacet
 facet normal  4.647232e-01  0.000000e+00 -8.854560e-01
   outer loop
     vertex  3.408388e-02  0.000000e+00 -4.937903e-02
     vertex  3.408388e-02 -1.000000e+00 -4.937903e-02
     vertex  2.127629e-02 -1.000000e+00 -5.610097e-02
   endloop
 endfacet
 facet normal  4.647232e-01  0.000000e+00 -8.854560e-01
   outer loop
     vertex  3.408388e-02  0.000000e+00 -4.937903e-02
     vertex  2.127629e-02 -1.000000e+00 -5.610097e-02
     vertex  2.127629e-02  0.000000e+00 -5.610097e-02
   endloop
 endfacet
 facet normal  6.631227e-01  0.000000e+00 -7.485107e-01
   outer loop
     vertex  4.491064e-02  0.000000e+00 -3.978736e-02
     vertex  4.491064e-02 -1.000000e+00 -3.978736e-02
     vertex  3.408388e-02 -1.000000e+00 -4.937903e-02
   endloop
 endfacet
 facet normal  6.631227e-01  0.000000e+00 -7.485107e-01
   outer loop
     vertex  4.491064e-02  0.000000e+00 -3.978736e-02
     vertex  3.408388e-02 -1.000000e+00 -4.937903e-02
     vertex  3.408388e-02  0.000000e+00 -4.937903e-02
   endloop
 endfacet
 facet normal  8.229839e-01  0.000000e+00 -5.680647e-01
   outer loop
     vertex  5.312736e-02  0.000000e+00 -2.788339e-02
     vertex  5.312736e-02 -1.000000e+00 -2.788339e-02
     vertex  4.491064e-02 -1.000000e+00 -3.978736e-02
   endloop
 endfacet
 facet normal  9.350162e-01  0.000000e+00 -3.546049e-01
   outer loop
     vertex  5.312736e-02  0.000000e+00 -2.788339e-02
     vertex  5.825651e-02 -1.000000e+00 -1.435894e-02
     vertex  5.312736e-02 -1.000000e+00 -2.788339e-02
   endloop
 endfacet
 facet normal  8.229839e-01  0.000000e+00 -5.680647e-01
   outer loop
     vertex  5.312736e-02  0.000000e+00 -2.788339e-02
     vertex  4.491064e-02 -1.000000e+00 -3.978736e-02
     vertex  4.491064e-02  0.000000e+00 -3.978736e-02
   endloop
 endfacet
 facet normal  9.350162e-01  0.000000e+00 -3.546049e-01
   outer loop
     vertex  5.825651e-02  0.000000e+00 -1.435894e-02
     vertex  5.825651e-02 -1.000000e+00 -1.435894e-02
     vertex  5.312736e-02  0.000000e+00 -2.788339e-02
   endloop
 endfacet
 facet normal  9.927089e-01  0.000000e+00 -1.205367e-01
   outer loop
     vertex  6.000000e-02  0.000000e+00  0.000000e+00
     vertex  6.000000e-02 -1.000000e+00  0.000000e+00
     vertex  5.825651e-02 -1.000000e+00 -1.435894e-02
   endloop
 endfacet
 facet normal  9.927089e-01  0.000000e+00 -1.205367e-01
   outer loop
     vertex  6.000000e-02  0.000000e+00  0.000000e+00
     vertex  5.825651e-02 -1.000000e+00 -1.435894e-02
     vertex  5.825651e-02  0.000000e+00 -1.435894e-02
   endloop
 endfacet
 facet normal  0.000000e+00  1.000000e+00  0.000000e+00
   outer loop
     vertex  4.491064e-02  0.000000e+00  3.978736e-02
     vertex  5.825651e-02  0.000000e+00  1.435894e-02
     vertex  6.000000e-02  0.000000e+00  0.000000e+00
   endloop
 endfacet
 facet normal  0.000000e+00  1.000000e+00  0.000000e+00
   outer loop
     vertex  4.491064e-02  0.000000e+00  3.978736e-02
     vertex  5.312736e-02  0.000000e+00  2.788339e-02
     vertex  5.825651e-02  0.000000e+00  1.435894e-02
   endloop
 endfacet
 facet normal  0.000000e+00  1.000000e+00  0.000000e+00
   outer loop
     vertex  4.491064e-02  0.000000e+00  3.978736e-02
     vertex  2.127629e-02  0.000000e+00  5.610097e-02
     vertex  3.408388e-02  0.000000e+00  4.937903e-02
   endloop
 endfacet
 facet normal  0.000000e+00  1.000000e+00  0.000000e+00
   outer loop
     vertex  4.491064e-02  0.000000e+00  3.978736e-02
     vertex  7.232201e-03  0.000000e+00  5.956253e-02
     vertex  2.127629e-02  0.000000e+00  5.610097e-02
   endloop
 endfacet
 facet normal  0.000000e+00  1.000000e+00  0.000000e+00
   outer loop
     vertex  4.491064e-02  0.000000e+00  3.978736e-02
     vertex -7.232201e-03  0.000000e+00  5.956253e-02
     vertex  7.232201e-03  0.000000e+00  5.956253e-02
   endloop
 endfacet
 facet normal  0.000000e+00  1.000000e+00  0.000000e+00
   outer loop
     vertex  4.491064e-02  0.000000e+00  3.978736e-02
     vertex -2.127629e-02  0.000000e+00  5.610097e-02
     vertex -7.232201e-03  0.000000e+00  5.956253e-02
   endloop
 endfacet
 facet normal  0.000000e+00  1.000000e+00  0.000000e+00
   outer loop
     vertex  4.491064e-02  0.000000e+00  3.978736e-02
     vertex -3.408388e-02  0.000000e+00  4.937903e-02
     vertex -2.127629e-02  0.000000e+00  5.610097e-02
   endloop
 endfacet
 facet normal  0.000000e+00  1.000000e+00  0.000000e+00
   outer loop
     vertex  4.491064e-02  0.000000e+00  3.978736e-02
     vertex -4.491064e-02  0.000000e+00  3.978736e-02
     vertex -3.408388e-02  0.000000e+00  4.937903e-02
   endloop
 endfacet
 facet normal  0.000000e+00  1.000000e+00  0.000000e+00
   outer loop
     vertex  4.491064e-02  0.000000e+00  3.978736e-02
     vertex -5.312736e-02  0.000000e+00  2.788339e-02
     vertex -4.491064e-02  0.000000e+00  3.978736e-02
   endloop
 endfacet
 facet normal  0.000000e+00  1.000000e+00  0.000000e+00
   outer loop
     vertex  4.491064e-02  0.000000e+00  3.978736e-02
     vertex -5.825651e-02  0.000000e+00  1.435894e-02
     vertex -5.312736e-02  0.000000e+00  2.788339e-02
   endloop
 endfacet
 facet normal  0.000000e+00  1.000000e+00  0.000000e+00
   outer loop
     vertex  4.491064e-02  0.000000e+00  3.978736e-02
     vertex -6.000000e-02  0.000000e+00  6.063859e-17
     vertex -5.825651e-02  0.000000e+00  1.435894e-02
   endloop
 endfacet
 facet normal  0.000000e+00  1.000000e+00  0.000000e+00
   outer loop
     vertex  4.491064e-02  0.000000e+00  3.978736e-02
     vertex -5.825651e-02  0.000000e+00 -1.435894e-02
     vertex -6.000000e-02  0.000000e+00  6.063859e-17
   endloop
 endfacet
 facet normal  0.000000e+00  1.000000e+00  0.000000e+00
   outer loop
     vertex  4.491064e-02  0.000000e+00  3.978736e-02
     vertex -5.312736e-02  0.000000e+00 -2.788339e-02
     vertex -5.825651e-02  0.000000e+00 -1.435894e-02
   endloop
 endfacet
 facet normal  0.000000e+00  1.000000e+00  0.000000e+00
   outer loop
     vertex  4.491064e-02  0.000000e+00  3.978736e-02
     vertex -4.491064e-02  0.000000e+00 -3.978736e-02
     vertex -5.312736e-02  0.000000e+00 -2.788339e-02
   endloop
 endfacet
 facet normal  0.000000e+00  1.000000e+00  0.000000e+00
   outer loop
     vertex  4.491064e-02  0.000000e+00  3.978736e-02
     vertex -3.408388e-02  0.000000e+00 -4.937903e-02
     vertex -4.491064e-02  0.000000e+00 -3.978736e-02
   endloop
 endfacet
 facet normal  0.000000e+00  1.000000e+00  0.000000e+00
   outer loop
     vertex  4.491064e-02  0.000000e+00  3.978736e-02
     vertex -2.127629e-02  0.000000e+00 -5.610097e-02
     vertex -3.408388e-02  0.000000e+00 -4.937903e-02
   endloop
 endfacet
 facet normal  0.000000e+00  1.000000e+00  0.000000e+00
   outer loop
     vertex  4.491064e-02  0.000000e+00  3.978736e-02
     vertex -7.232201e-03  0.000000e+00 -5.956253e-02
     vertex -2.127629e-02  0.000000e+00 -5.610097e-02
   endloop
 endfacet
 facet normal  0.000000e+00  1.000000e+00  0.000000e+00
   outer loop
     vertex  4.491064e-02  0.000000e+00  3.978736e-02
     vertex  7.232201e-03  0.000000e+00 -5.956253e-02
     vertex -7.232201e-03  0.000000e+00 -5.956253e-02
   endloop
 endfacet
 facet normal  0.000000e+00  1.000000e+00  0.000000e+00
   outer loop
     vertex  4.491064e-02  0.000000e+00  3.978736e-02
     vertex  2.127629e-02  0.000000e+00 -5.610097e-02
     vertex  7.232201e-03  0.000000e+00 -5.956253e-02
   endloop
 endfacet
 facet normal  0.000000e+00  1.000000e+00  0.000000e+00
   outer loop
     vertex  4.491064e-02  0.000000e+00  3.978736e-02
     vertex  3.408388e-02  0.000000e+00 -4.937903e-02
     vertex  2.127629e-02  0.000000e+00 -5.610097e-02
   endloop
 endfacet
 facet normal  0.000000e+00  1.000000e+00  0.000000e+00
   outer loop
     vertex  4.491064e-02  0.000000e+00  3.978736e-02
     vertex  4.491064e-02  0.000000e+00 -3.978736e-02
     vertex  3.408388e-02  0.000000e+00 -4.937903e-02
   endloop
 endfacet
 facet normal  0.000000e+00  1.000000e+00  0.000000e+00
   outer loop
     vertex  4.491064e-02  0.000000e+00  3.978736e-02
     vertex  5.312736e-02  0.000000e+00 -2.788339e-02
     vertex  4.491064e-02  0.000000e+00 -3.978736e-02
   endloop
 endfacet
 facet normal  0.000000e+00  1.000000e+00  0.000000e+00
   outer loop
     vertex  4.491064e-02  0.000000e+00  3.978736e-02
     vertex  5.825651e-02  0.000000e+00 -1.435894e-02
     vertex  5.312736e-02  0.000000e+00 -2.788339e-02
   endloop
 endfacet
 facet normal  0.000000e+00  1.000000e+00  0.000000e+00
   outer loop
     vertex  4.491064e-02  0.000000e+00  3.978736e-02
     vertex  6.000000e-02  0.000000e+00  0.000000e+00
     vertex  5.825651e-02  0.000000e+00 -1.435894e-02
   endloop
 endfacet
 facet normal  0.000000e+00 -1.000000e+00  0.000000e+00
   outer loop
     vertex  4.491064e-02 -1.000000e+00  3.978736e-02
     vertex  6.000000e-02 -1.000000e+00  0.000000e+00
     vertex  5.825651e-02 -1.000000e+00  1.435894e-02
   endloop
 endfacet
 facet normal  0.000000e+00 -1.000000e+00  0.000000e+00
   outer loop
     vertex  4.491064e-02 -1.000000e+00  3.978736e-02
     vertex  5.825651e-02 -1.000000e+00  1.435894e-02
     vertex  5.312736e-02 -1.000000e+00  2.788339e-02
   endloop
 endfacet
 facet normal  0.000000e+00 -1.000000e+00  0.000000e+00
   outer loop
     vertex  4.491064e-02 -1.000000e+00  3.978736e-02
     vertex  3.408388e-02 -1.000000e+00  4.937903e-02
     vertex  2.127629e-02 -1.000000e+00  5.610097e-02
   endloop
 endfacet
 facet normal  0.000000e+00 -1.000000e+00  0.000000e+00
   outer loop
     vertex  4.491064e-02 -1.000000e+00  3.978736e-02
     vertex  2.127629e-02 -1.000000e+00  5.610097e-02
     vertex  7.232201e-03 -1.000000e+00  5.956253e-02
   endloop
 endfacet
 facet normal  0.000000e+00 -1.000000e+00  0.000000e+00
   outer loop
     vertex  4.491064e-02 -1.000000e+00  3.978736e-02
     vertex  7.232201e-03 -1.000000e+00  5.956253e-02
     vertex -7.232201e-03 -1.000000e+00  5.956253e-02
   endloop
 endfacet
 facet normal  0.000000e+00 -1.000000e+00  0.000000e+00
   outer loop
     vertex  4.491064e-02 -1.000000e+00  3.978736e-02
     vertex -7.232201e-03 -1.000000e+00  5.956253e-02
     vertex -2.127629e-02 -1.000000e+00  5.610097e-02
   endloop
 endfacet
 facet normal  0.000000e+00 -1.000000e+00  0.000000e+00
   outer loop
     vertex  4.491064e-02 -1.000000e+00  3.978736e-02
     vertex -2.127629e-02 -1.000000e+00  5.610097e-02
     vertex -3.408388e-02 -1.000000e+00  4.937903e-02
   endloop
 endfacet
 facet normal  0.000000e+00 -1.000000e+00  0.000000e+00
   outer loop
     vertex  4.491064e-02 -1.000000e+00  3.978736e-02
     vertex -3.408388e-02 -1.000000e+00  4.937903e-02
     vertex -4.491064e-02 -1.000000e+00  3.978736e-02
   endloop
 endfacet
 facet normal -0.000000e+00 -1.000000e+00  0.000000e+00
   outer loop
     vertex  4.491064e-02 -1.000000e+00  3.978736e-02
     vertex -4.491064e-02 -1.000000e+00  3.978736e-02
     vertex -5.312736e-02 -1.000000e+00  2.788339e-02
   endloop
 endfacet
 facet normal  0.000000e+00 -1.000000e+00  0.000000e+00
   outer loop
     vertex  4.491064e-02 -1.000000e+00  3.978736e-02
     vertex -5.312736e-02 -1.000000e+00  2.788339e-02
     vertex -5.825651e-02 -1.000000e+00  1.435894e-02
   endloop
 endfacet
 facet normal  0.000000e+00 -1.000000e+00  0.000000e+00
   outer loop
     vertex  4.491064e-02 -1.000000e+00  3.978736e-02
     vertex -5.825651e-02 -1.000000e+00  1.435894e-02
     vertex -6.000000e-02 -1.000000e+00  6.063859e-17
   endloop
 endfacet
 facet normal  0.000000e+00 -1.000000e+00  0.000000e+00
   outer loop
     vertex  4.491064e-02 -1.000000e+00  3.978736e-02
     vertex -6.000000e-02 -1.000000e+00  6.063859e-17
     vertex -5.825651e-02 -1.000000e+00 -1.435894e-02
   endloop
 endfacet
 facet normal  0.000000e+00 -1.000000e+00  0.000000e+00
   outer loop
     vertex  4.491064e-02 -1.000000e+00  3.978736e-02
     vertex -5.825651e-02 -1.000000e+00 -1.435894e-02
     vertex -5.312736e-02 -1.000000e+00 -2.788339e-02
   endloop
 endfacet
 facet normal  0.000000e+00 -1.000000e+00  0.000000e+00
   outer loop
     vertex  4.491064e-02 -1.000000e+00  3.978736e-02
     vertex -5.312736e-02 -1.000000e+00 -2.788339e-02
     vertex -4.491064e-02 -1.000000e+00 -3.978736e-02
   endloop
 endfacet
 facet normal  0.000000e+00 -1.000000e+00  0.000000e+00
   outer loop
     vertex  4.491064e-02 -1.000000e+00  3.978736e-02
     vertex -4.491064e-02 -1.000000e+00 -3.978736e-02
     vertex -3.408388e-02 -1.000000e+00 -4.937903e-02
   endloop
 endfacet
 facet normal  0.000000e+00 -1.000000e+00  0.000000e+00
   outer loop
     vertex  4.491064e-02 -1.000000e+00  3.978736e-02
     vertex -3.408388e-02 -1.000000e+00 -4.937903e-02
     vertex -2.127629e-02 -1.000000e+00 -5.610097e-02
   endloop
 endfacet
 facet normal  0.000000e+00 -1.000000e+00  0.000000e+00
   outer loop
     vertex  4.491064e-02 -1.000000e+00  3.978736e-02
     vertex -2.127629e-02 -1.000000e+00 -5.610097e-02
     vertex -7.232201e-03 -1.000000e+00 -5.956253e-02
   endloop
 endfacet
 facet normal  0.000000e+00 -1.000000e+00  0.000000e+00
   outer loop
     vertex  4.491064e-02 -1.000000e+00  3.978736e-02
     vertex -7.232201e-03 -1.000000e+00 -5.956253e-02
     vertex  7.232201e-03 -1.000000e+00 -5.956253e-02
   endloop
 endfacet
 facet normal  0.000000e+00 -1.000000e+00  0.000000e+00
   outer loop
     vertex  4.491064e-02 -1.000000e+00  3.978736e-02
     vertex  7.232201e-03 -1.000000e+00 -5.956253e-02
     vertex  2.127629e-02 -1.000000e+00 -5.610097e-02
   endloop
 endfacet
 facet normal  0.000000e+00 -1.000000e+00  0.000000e+00
   outer loop
     vertex  4.491064e-02 -1.000000e+00  3.978736e-02
     vertex  2.127629e-02 -1.000000e+00 -5.610097e-02
     vertex  3.408388e-02 -1.000000e+00 -4.937903e-02
   endloop
 endfacet
 facet normal  0.000000e+00 -1.000000e+00  0.000000e+00
   outer loop
     vertex  4.491064e-02 -1.000000e+00  3.978736e-02
     vertex  3.408388e-02 -1.000000e+00 -4.937903e-02
     vertex  4.491064e-02 -1.000000e+00 -3.978736e-02
   endloop
 endfacet
 facet normal  0.000000e+00 -1.000000e+00 -0.000000e+00
   outer loop
     vertex  4.491064e-02 -1.000000e+00  3.978736e-02
     vertex  4.491064e-02 -1.000000e+00 -3.978736e-02
     vertex  5.312736e-02 -1.000000e+00 -2.788339e-02
   endloop
 endfacet
 facet normal  0.000000e+00 -1.000000e+00  0.000000e+00
   outer loop
     vertex  4.491064e-02 -1.000000e+00  3.978736e-02
     vertex  5.312736e-02 -1.000000e+00 -2.788339e-02
     vertex  5.825651e-02 -1.000000e+00 -1.435894e-02
   endloop
 endfacet
 facet normal  0.000000e+00 -1.000000e+00  0.000000e+00
   outer loop
     vertex  4.491064e-02 -1.000000e+00  3.978736e-02
     vertex  5.825651e-02 -1.000000e+00 -1.435894e-02
     vertex  6.000000e-02 -1.000000e+00  0.000000e+00
   endloop
 endfacet
endsolid
