solid 
 facet normal  0.000000e+00  1.000000e+00  0.000000e+00
   outer loop
     vertex -9.800000e-01  9.800000e-01  0.000000e+00
     vertex  9.800000e-01  9.800000e-01  1.950000e-01
     vertex  9.800000e-01  9.800000e-01  0.000000e+00
   endloop
 endfacet
 facet normal  0.000000e+00  1.000000e+00  0.000000e+00
   outer loop
     vertex -9.800000e-01  9.800000e-01  0.000000e+00
     vertex -9.800000e-01  9.800000e-01  1.950000e-01
     vertex  9.800000e-01  9.800000e-01  1.950000e-01
   endloop
 endfacet
 facet normal  1.000000e+00  0.000000e+00  0.000000e+00
   outer loop
     vertex  9.800000e-01 -9.800000e-01  0.000000e+00
     vertex  9.800000e-01  9.800000e-01  0.000000e+00
     vertex  9.800000e-01  9.800000e-01  1.950000e-01
   endloop
 endfacet
 facet normal  1.000000e+00  0.000000e+00  0.000000e+00
   outer loop
     vertex  9.800000e-01 -9.800000e-01  0.000000e+00
     vertex  9.800000e-01  9.800000e-01  1.950000e-01
     vertex  9.800000e-01 -9.800000e-01  1.950000e-01
   endloop
 endfacet
 facet normal -1.000000e+00  0.000000e+00  0.000000e+00
   outer loop
     vertex -9.800000e-01 -9.800000e-01  0.000000e+00
     vertex -9.800000e-01  9.800000e-01  1.950000e-01
     vertex -9.800000e-01  9.800000e-01  0.000000e+00
   endloop
 endfacet
 facet normal -1.000000e+00  0.000000e+00  0.000000e+00
   outer loop
     vertex -9.800000e-01 -9.800000e-01  0.000000e+00
     vertex -9.800000e-01 -9.800000e-01  1.950000e-01
     vertex -9.800000e-01  9.800000e-01  1.950000e-01
   endloop
 endfacet
 facet normal  0.000000e+00 -1.000000e+00  0.000000e+00
   outer loop
     vertex -9.800000e-01 -9.800000e-01  0.000000e+00
     vertex  9.800000e-01 -9.800000e-01  0.000000e+00
     vertex  9.800000e-01 -9.800000e-01  1.950000e-01
   endloop
 endfacet
 facet normal  0.000000e+00 -1.000000e+00  0.000000e+00
   outer loop
     vertex -9.800000e-01 -9.800000e-01  0.000000e+00
     vertex  9.800000e-01 -9.800000e-01  1.950000e-01
     vertex -9.800000e-01 -9.800000e-01  1.950000e-01
   endloop
 endfacet
 facet normal -9.963975e-01 -8.480592e-02  0.000000e+00
   outer loop
     vertex -5.519419e-01 -6.621849e-01  0.000000e+00
     vertex -5.500000e-01 -6.850000e-01  0.000000e+00
     vertex -5.500000e-01 -6.850000e-01  1.950000e-01
   endloop
 endfacet
 facet normal -9.963975e-01 -8.480592e-02  0.000000e+00
   outer loop
     vertex -5.519419e-01 -6.621849e-01  0.000000e+00
     vertex -5.500000e-01 -6.850000e-01  1.950000e-01
     vertex -5.519419e-01 -6.621849e-01  1.950000e-01
   endloop
 endfacet
 facet normal -9.677329e-01 -2.519781e-01  0.000000e+00
   outer loop
     vertex -5.577115e-01 -6.400261e-01  0.000000e+00
     vertex -5.519419e-01 -6.621849e-01  1.950000e-01
     vertex -5.577115e-01 -6.400261e-01  1.950000e-01
   endloop
 endfacet
 facet normal -9.677329e-01 -2.519781e-01  0.000000e+00
   outer loop
     vertex -5.577115e-01 -6.400261e-01  0.000000e+00
     vertex -5.519419e-01 -6.621849e-01  0.000000e+00
     vertex -5.519419e-01 -6.621849e-01  1.950000e-01
   endloop
 endfacet
 facet normal -9.112285e-01 -4.119012e-01  0.000000e+00
   outer loop
     vertex -5.671431e-01 -6.191612e-01  0.000000e+00
     vertex -5.577115e-01 -6.400261e-01  1.950000e-01
     vertex -5.671431e-01 -6.191612e-01  1.950000e-01
   endloop
 endfacet
 facet normal -9.112285e-01 -4.119012e-01  0.000000e+00
   outer loop
     vertex -5.671431e-01 -6.191612e-01  0.000000e+00
     vertex -5.577115e-01 -6.400261e-01  0.000000e+00
     vertex -5.577115e-01 -6.400261e-01  1.950000e-01
   endloop
 endfacet
 facet normal -8.285096e-01 -5.599748e-01  0.000000e+00
   outer loop
     vertex -5.799652e-01 -6.001903e-01  0.000000e+00
     vertex -5.671431e-01 -6.191612e-01  1.950000e-01
     vertex -5.799652e-01 -6.001903e-01  1.950000e-01
   endloop
 endfacet
 facet normal -8.285096e-01 -5.599748e-01  0.000000e+00
   outer loop
     vertex -5.799652e-01 -6.001903e-01  0.000000e+00
     vertex -5.671431e-01 -6.191612e-01  0.000000e+00
     vertex -5.671431e-01 -6.191612e-01  1.950000e-01
   endloop
 endfacet
 facet normal -7.219561e-01 -6.919389e-01  0.000000e+00
   outer loop
     vertex -5.958089e-01 -5.836592e-01  0.000000e+00
     vertex -5.799652e-01 -6.001903e-01  1.950000e-01
     vertex -5.958089e-01 -5.836592e-01  1.950000e-01
   endloop
 endfacet
 facet normal -7.219561e-01 -6.919389e-01  0.000000e+00
   outer loop
     vertex -5.958089e-01 -5.836592e-01  0.000000e+00
     vertex -5.799652e-01 -6.001903e-01  0.000000e+00
     vertex -5.799652e-01 -6.001903e-01  1.950000e-01
   endloop
 endfacet
 facet normal -5.946332e-01 -8.039971e-01  0.000000e+00
   outer loop
     vertex -6.142185e-01 -5.700436e-01  0.000000e+00
     vertex -5.958089e-01 -5.836592e-01  0.000000e+00
     vertex -5.958089e-01 -5.836592e-01  1.950000e-01
   endloop
 endfacet
 facet normal -5.946332e-01 -8.039971e-01  0.000000e+00
   outer loop
     vertex -6.142185e-01 -5.700436e-01  0.000000e+00
     vertex -5.958089e-01 -5.836592e-01  1.950000e-01
     vertex -6.142185e-01 -5.700436e-01  1.950000e-01
   endloop
 endfacet
 facet normal -4.502037e-01 -8.929259e-01  0.000000e+00
   outer loop
     vertex -6.346644e-01 -5.597350e-01  0.000000e+00
     vertex -6.142185e-01 -5.700436e-01  0.000000e+00
     vertex -6.142185e-01 -5.700436e-01  1.950000e-01
   endloop
 endfacet
 facet normal -4.502037e-01 -8.929259e-01  0.000000e+00
   outer loop
     vertex -6.346644e-01 -5.597350e-01  0.000000e+00
     vertex -6.142185e-01 -5.700436e-01  1.950000e-01
     vertex -6.346644e-01 -5.597350e-01  1.950000e-01
   endloop
 endfacet
 facet normal -2.928228e-01 -9.561667e-01  0.000000e+00
   outer loop
     vertex -6.565583e-01 -5.530300e-01  0.000000e+00
     vertex -6.346644e-01 -5.597350e-01  1.950000e-01
     vertex -6.565583e-01 -5.530300e-01  1.950000e-01
   endloop
 endfacet
 facet normal -2.928228e-01 -9.561667e-01  0.000000e+00
   outer loop
     vertex -6.565583e-01 -5.530300e-01  0.000000e+00
     vertex -6.346644e-01 -5.597350e-01  0.000000e+00
     vertex -6.346644e-01 -5.597350e-01  1.950000e-01
   endloop
 endfacet
 facet normal -1.270178e-01 -9.919004e-01  0.000000e+00
   outer loop
     vertex -6.792704e-01 -5.501216e-01  0.000000e+00
     vertex -6.565583e-01 -5.530300e-01  0.000000e+00
     vertex -6.565583e-01 -5.530300e-01  1.950000e-01
   endloop
 endfacet
 facet normal -1.270178e-01 -9.919004e-01  0.000000e+00
   outer loop
     vertex -6.792704e-01 -5.501216e-01  0.000000e+00
     vertex -6.565583e-01 -5.530300e-01  1.950000e-01
     vertex -6.792704e-01 -5.501216e-01  1.950000e-01
   endloop
 endfacet
 facet normal  4.244120e-02 -9.990990e-01  0.000000e+00
   outer loop
     vertex -7.021474e-01 -5.510934e-01  0.000000e+00
     vertex -6.792704e-01 -5.501216e-01  1.950000e-01
     vertex -7.021474e-01 -5.510934e-01  1.950000e-01
   endloop
 endfacet
 facet normal  4.244120e-02 -9.990990e-01  0.000000e+00
   outer loop
     vertex -7.021474e-01 -5.510934e-01  0.000000e+00
     vertex -6.792704e-01 -5.501216e-01  0.000000e+00
     vertex -6.792704e-01 -5.501216e-01  1.950000e-01
   endloop
 endfacet
 facet normal  2.106793e-01 -9.775552e-01  0.000000e+00
   outer loop
     vertex -7.245311e-01 -5.559175e-01  0.000000e+00
     vertex -7.021474e-01 -5.510934e-01  1.950000e-01
     vertex -7.245311e-01 -5.559175e-01  1.950000e-01
   endloop
 endfacet
 facet normal  2.106793e-01 -9.775552e-01  0.000000e+00
   outer loop
     vertex -7.245311e-01 -5.559175e-01  0.000000e+00
     vertex -7.021474e-01 -5.510934e-01  0.000000e+00
     vertex -7.021474e-01 -5.510934e-01  1.950000e-01
   endloop
 endfacet
 facet normal  3.728565e-01 -9.278890e-01  0.000000e+00
   outer loop
     vertex -7.457775e-01 -5.644550e-01  0.000000e+00
     vertex -7.245311e-01 -5.559175e-01  1.950000e-01
     vertex -7.457775e-01 -5.644550e-01  1.950000e-01
   endloop
 endfacet
 facet normal  3.728565e-01 -9.278890e-01  0.000000e+00
   outer loop
     vertex -7.457775e-01 -5.644550e-01  0.000000e+00
     vertex -7.245311e-01 -5.559175e-01  0.000000e+00
     vertex -7.245311e-01 -5.559175e-01  1.950000e-01
   endloop
 endfacet
 facet normal  5.243073e-01 -8.515291e-01  0.000000e+00
   outer loop
     vertex -7.652755e-01 -5.764604e-01  0.000000e+00
     vertex -7.457775e-01 -5.644550e-01  1.950000e-01
     vertex -7.652755e-01 -5.764604e-01  1.950000e-01
   endloop
 endfacet
 facet normal  5.243073e-01 -8.515291e-01  0.000000e+00
   outer loop
     vertex -7.652755e-01 -5.764604e-01  0.000000e+00
     vertex -7.457775e-01 -5.644550e-01  0.000000e+00
     vertex -7.457775e-01 -5.644550e-01  1.950000e-01
   endloop
 endfacet
 facet normal  6.606747e-01 -7.506723e-01  0.000000e+00
   outer loop
     vertex -7.824641e-01 -5.915883e-01  0.000000e+00
     vertex -7.652755e-01 -5.764604e-01  1.950000e-01
     vertex -7.824641e-01 -5.915883e-01  1.950000e-01
   endloop
 endfacet
 facet normal  6.606747e-01 -7.506723e-01  0.000000e+00
   outer loop
     vertex -7.824641e-01 -5.915883e-01  0.000000e+00
     vertex -7.652755e-01 -5.764604e-01  0.000000e+00
     vertex -7.652755e-01 -5.764604e-01  1.950000e-01
   endloop
 endfacet
 facet normal  7.780358e-01 -6.282200e-01  0.000000e+00
   outer loop
     vertex -7.968488e-01 -6.094034e-01  0.000000e+00
     vertex -7.824641e-01 -5.915883e-01  1.950000e-01
     vertex -7.968488e-01 -6.094034e-01  1.950000e-01
   endloop
 endfacet
 facet normal  7.780358e-01 -6.282200e-01  0.000000e+00
   outer loop
     vertex -7.968488e-01 -6.094034e-01  0.000000e+00
     vertex -7.824641e-01 -5.915883e-01  0.000000e+00
     vertex -7.824641e-01 -5.915883e-01  1.950000e-01
   endloop
 endfacet
 facet normal  8.730141e-01 -4.876949e-01  0.000000e+00
   outer loop
     vertex -8.080158e-01 -6.293933e-01  0.000000e+00
     vertex -7.968488e-01 -6.094034e-01  1.950000e-01
     vertex -8.080158e-01 -6.293933e-01  1.950000e-01
   endloop
 endfacet
 facet normal  8.730141e-01 -4.876949e-01  0.000000e+00
   outer loop
     vertex -8.080158e-01 -6.293933e-01  0.000000e+00
     vertex -7.968488e-01 -6.094034e-01  0.000000e+00
     vertex -7.968488e-01 -6.094034e-01  1.950000e-01
   endloop
 endfacet
 facet normal  9.428774e-01 -3.331398e-01  0.000000e+00
   outer loop
     vertex -8.156439e-01 -6.509830e-01  0.000000e+00
     vertex -8.080158e-01 -6.293933e-01  1.950000e-01
     vertex -8.156439e-01 -6.509830e-01  1.950000e-01
   endloop
 endfacet
 facet normal  9.428774e-01 -3.331398e-01  0.000000e+00
   outer loop
     vertex -8.156439e-01 -6.509830e-01  0.000000e+00
     vertex -8.080158e-01 -6.293933e-01  0.000000e+00
     vertex -8.080158e-01 -6.293933e-01  1.950000e-01
   endloop
 endfacet
 facet normal  9.856159e-01 -1.690008e-01  0.000000e+00
   outer loop
     vertex -8.195137e-01 -6.735512e-01  0.000000e+00
     vertex -8.156439e-01 -6.509830e-01  1.950000e-01
     vertex -8.195137e-01 -6.735512e-01  1.950000e-01
   endloop
 endfacet
 facet normal  9.856159e-01 -1.690008e-01  0.000000e+00
   outer loop
     vertex -8.195137e-01 -6.735512e-01  0.000000e+00
     vertex -8.156439e-01 -6.509830e-01  0.000000e+00
     vertex -8.156439e-01 -6.509830e-01  1.950000e-01
   endloop
 endfacet
 facet normal  1.000000e+00  0.000000e+00  0.000000e+00
   outer loop
     vertex -8.195137e-01 -6.964488e-01  0.000000e+00
     vertex -8.195137e-01 -6.735512e-01  1.950000e-01
     vertex -8.195137e-01 -6.964488e-01  1.950000e-01
   endloop
 endfacet
 facet normal  1.000000e+00  0.000000e+00  0.000000e+00
   outer loop
     vertex -8.195137e-01 -6.964488e-01  0.000000e+00
     vertex -8.195137e-01 -6.735512e-01  0.000000e+00
     vertex -8.195137e-01 -6.735512e-01  1.950000e-01
   endloop
 endfacet
 facet normal  9.856159e-01  1.690008e-01 -0.000000e+00
   outer loop
     vertex -8.156439e-01 -7.190170e-01  0.000000e+00
     vertex -8.195137e-01 -6.964488e-01  1.950000e-01
     vertex -8.156439e-01 -7.190170e-01  1.950000e-01
   endloop
 endfacet
 facet normal  9.856159e-01  1.690008e-01  0.000000e+00
   outer loop
     vertex -8.156439e-01 -7.190170e-01  0.000000e+00
     vertex -8.195137e-01 -6.964488e-01  0.000000e+00
     vertex -8.195137e-01 -6.964488e-01  1.950000e-01
   endloop
 endfacet
 facet normal  9.428774e-01  3.331398e-01 -0.000000e+00
   outer loop
     vertex -8.080158e-01 -7.406067e-01  0.000000e+00
     vertex -8.156439e-01 -7.190170e-01  1.950000e-01
     vertex -8.080158e-01 -7.406067e-01  1.950000e-01
   endloop
 endfacet
 facet normal  9.428774e-01  3.331398e-01  0.000000e+00
   outer loop
     vertex -8.080158e-01 -7.406067e-01  0.000000e+00
     vertex -8.156439e-01 -7.190170e-01  0.000000e+00
     vertex -8.156439e-01 -7.190170e-01  1.950000e-01
   endloop
 endfacet
 facet normal  8.730141e-01  4.876949e-01 -0.000000e+00
   outer loop
     vertex -7.968488e-01 -7.605966e-01  0.000000e+00
     vertex -8.080158e-01 -7.406067e-01  1.950000e-01
     vertex -7.968488e-01 -7.605966e-01  1.950000e-01
   endloop
 endfacet
 facet normal  8.730141e-01  4.876949e-01  0.000000e+00
   outer loop
     vertex -7.968488e-01 -7.605966e-01  0.000000e+00
     vertex -8.080158e-01 -7.406067e-01  0.000000e+00
     vertex -8.080158e-01 -7.406067e-01  1.950000e-01
   endloop
 endfacet
 facet normal  7.780358e-01  6.282200e-01 -0.000000e+00
   outer loop
     vertex -7.824641e-01 -7.784117e-01  0.000000e+00
     vertex -7.968488e-01 -7.605966e-01  1.950000e-01
     vertex -7.824641e-01 -7.784117e-01  1.950000e-01
   endloop
 endfacet
 facet normal  7.780358e-01  6.282200e-01  0.000000e+00
   outer loop
     vertex -7.824641e-01 -7.784117e-01  0.000000e+00
     vertex -7.968488e-01 -7.605966e-01  0.000000e+00
     vertex -7.968488e-01 -7.605966e-01  1.950000e-01
   endloop
 endfacet
 facet normal  6.606747e-01  7.506723e-01 -0.000000e+00
   outer loop
     vertex -7.652755e-01 -7.935396e-01  0.000000e+00
     vertex -7.824641e-01 -7.784117e-01  1.950000e-01
     vertex -7.652755e-01 -7.935396e-01  1.950000e-01
   endloop
 endfacet
 facet normal  6.606747e-01  7.506723e-01  0.000000e+00
   outer loop
     vertex -7.652755e-01 -7.935396e-01  0.000000e+00
     vertex -7.824641e-01 -7.784117e-01  0.000000e+00
     vertex -7.824641e-01 -7.784117e-01  1.950000e-01
   endloop
 endfacet
 facet normal  5.243073e-01  8.515291e-01 -0.000000e+00
   outer loop
     vertex -7.457775e-01 -8.055450e-01  0.000000e+00
     vertex -7.652755e-01 -7.935396e-01  1.950000e-01
     vertex -7.457775e-01 -8.055450e-01  1.950000e-01
   endloop
 endfacet
 facet normal  3.728565e-01  9.278890e-01 -0.000000e+00
   outer loop
     vertex -7.457775e-01 -8.055450e-01  0.000000e+00
     vertex -7.457775e-01 -8.055450e-01  1.950000e-01
     vertex -7.245311e-01 -8.140825e-01  1.950000e-01
   endloop
 endfacet
 facet normal  5.243073e-01  8.515291e-01  0.000000e+00
   outer loop
     vertex -7.457775e-01 -8.055450e-01  0.000000e+00
     vertex -7.652755e-01 -7.935396e-01  0.000000e+00
     vertex -7.652755e-01 -7.935396e-01  1.950000e-01
   endloop
 endfacet
 facet normal  3.728565e-01  9.278890e-01 -0.000000e+00
   outer loop
     vertex -7.245311e-01 -8.140825e-01  0.000000e+00
     vertex -7.457775e-01 -8.055450e-01  0.000000e+00
     vertex -7.245311e-01 -8.140825e-01  1.950000e-01
   endloop
 endfacet
 facet normal  2.106793e-01  9.775552e-01 -0.000000e+00
   outer loop
     vertex -7.021474e-01 -8.189066e-01  0.000000e+00
     vertex -7.245311e-01 -8.140825e-01  1.950000e-01
     vertex -7.021474e-01 -8.189066e-01  1.950000e-01
   endloop
 endfacet
 facet normal  2.106793e-01  9.775552e-01  0.000000e+00
   outer loop
     vertex -7.021474e-01 -8.189066e-01  0.000000e+00
     vertex -7.245311e-01 -8.140825e-01  0.000000e+00
     vertex -7.245311e-01 -8.140825e-01  1.950000e-01
   endloop
 endfacet
 facet normal  4.244120e-02  9.990990e-01 -0.000000e+00
   outer loop
     vertex -6.792704e-01 -8.198784e-01  0.000000e+00
     vertex -7.021474e-01 -8.189066e-01  1.950000e-01
     vertex -6.792704e-01 -8.198784e-01  1.950000e-01
   endloop
 endfacet
 facet normal -1.270178e-01  9.919004e-01  0.000000e+00
   outer loop
     vertex -6.792704e-01 -8.198784e-01  0.000000e+00
     vertex -6.792704e-01 -8.198784e-01  1.950000e-01
     vertex -6.565583e-01 -8.169700e-01  1.950000e-01
   endloop
 endfacet
 facet normal  4.244120e-02  9.990990e-01  0.000000e+00
   outer loop
     vertex -6.792704e-01 -8.198784e-01  0.000000e+00
     vertex -7.021474e-01 -8.189066e-01  0.000000e+00
     vertex -7.021474e-01 -8.189066e-01  1.950000e-01
   endloop
 endfacet
 facet normal -1.270178e-01  9.919004e-01  0.000000e+00
   outer loop
     vertex -6.565583e-01 -8.169700e-01  0.000000e+00
     vertex -6.792704e-01 -8.198784e-01  0.000000e+00
     vertex -6.565583e-01 -8.169700e-01  1.950000e-01
   endloop
 endfacet
 facet normal -2.928228e-01  9.561667e-01  0.000000e+00
   outer loop
     vertex -6.346644e-01 -8.102650e-01  0.000000e+00
     vertex -6.565583e-01 -8.169700e-01  1.950000e-01
     vertex -6.346644e-01 -8.102650e-01  1.950000e-01
   endloop
 endfacet
 facet normal -2.928228e-01  9.561667e-01  0.000000e+00
   outer loop
     vertex -6.346644e-01 -8.102650e-01  0.000000e+00
     vertex -6.565583e-01 -8.169700e-01  0.000000e+00
     vertex -6.565583e-01 -8.169700e-01  1.950000e-01
   endloop
 endfacet
 facet normal -4.502037e-01  8.929259e-01  0.000000e+00
   outer loop
     vertex -6.142185e-01 -7.999564e-01  0.000000e+00
     vertex -6.346644e-01 -8.102650e-01  0.000000e+00
     vertex -6.346644e-01 -8.102650e-01  1.950000e-01
   endloop
 endfacet
 facet normal -4.502037e-01  8.929259e-01  0.000000e+00
   outer loop
     vertex -6.142185e-01 -7.999564e-01  0.000000e+00
     vertex -6.346644e-01 -8.102650e-01  1.950000e-01
     vertex -6.142185e-01 -7.999564e-01  1.950000e-01
   endloop
 endfacet
 facet normal -5.946332e-01  8.039971e-01  0.000000e+00
   outer loop
     vertex -6.142185e-01 -7.999564e-01  0.000000e+00
     vertex -6.142185e-01 -7.999564e-01  1.950000e-01
     vertex -5.958089e-01 -7.863408e-01  1.950000e-01
   endloop
 endfacet
 facet normal -7.219561e-01  6.919389e-01  0.000000e+00
   outer loop
     vertex -5.958089e-01 -7.863408e-01  0.000000e+00
     vertex -5.958089e-01 -7.863408e-01  1.950000e-01
     vertex -5.799652e-01 -7.698097e-01  1.950000e-01
   endloop
 endfacet
 facet normal -5.946332e-01  8.039971e-01  0.000000e+00
   outer loop
     vertex -5.958089e-01 -7.863408e-01  0.000000e+00
     vertex -6.142185e-01 -7.999564e-01  0.000000e+00
     vertex -5.958089e-01 -7.863408e-01  1.950000e-01
   endloop
 endfacet
 facet normal -7.219561e-01  6.919389e-01  0.000000e+00
   outer loop
     vertex -5.799652e-01 -7.698097e-01  0.000000e+00
     vertex -5.958089e-01 -7.863408e-01  0.000000e+00
     vertex -5.799652e-01 -7.698097e-01  1.950000e-01
   endloop
 endfacet
 facet normal -8.285096e-01  5.599748e-01  0.000000e+00
   outer loop
     vertex -5.671431e-01 -7.508388e-01  0.000000e+00
     vertex -5.799652e-01 -7.698097e-01  0.000000e+00
     vertex -5.799652e-01 -7.698097e-01  1.950000e-01
   endloop
 endfacet
 facet normal -8.285096e-01  5.599748e-01  0.000000e+00
   outer loop
     vertex -5.671431e-01 -7.508388e-01  0.000000e+00
     vertex -5.799652e-01 -7.698097e-01  1.950000e-01
     vertex -5.671431e-01 -7.508388e-01  1.950000e-01
   endloop
 endfacet
 facet normal -9.112285e-01  4.119012e-01  0.000000e+00
   outer loop
     vertex -5.577115e-01 -7.299739e-01  0.000000e+00
     vertex -5.671431e-01 -7.508388e-01  0.000000e+00
     vertex -5.671431e-01 -7.508388e-01  1.950000e-01
   endloop
 endfacet
 facet normal -9.112285e-01  4.119012e-01  0.000000e+00
   outer loop
     vertex -5.577115e-01 -7.299739e-01  0.000000e+00
     vertex -5.671431e-01 -7.508388e-01  1.950000e-01
     vertex -5.577115e-01 -7.299739e-01  1.950000e-01
   endloop
 endfacet
 facet normal -9.677329e-01  2.519781e-01  0.000000e+00
   outer loop
     vertex -5.577115e-01 -7.299739e-01  0.000000e+00
     vertex -5.577115e-01 -7.299739e-01  1.950000e-01
     vertex -5.519419e-01 -7.078151e-01  1.950000e-01
   endloop
 endfacet
 facet normal -9.677329e-01  2.519781e-01  0.000000e+00
   outer loop
     vertex -5.519419e-01 -7.078151e-01  0.000000e+00
     vertex -5.577115e-01 -7.299739e-01  0.000000e+00
     vertex -5.519419e-01 -7.078151e-01  1.950000e-01
   endloop
 endfacet
 facet normal -9.963975e-01  8.480592e-02  0.000000e+00
   outer loop
     vertex -5.500000e-01 -6.850000e-01  0.000000e+00
     vertex -5.519419e-01 -7.078151e-01  0.000000e+00
     vertex -5.519419e-01 -7.078151e-01  1.950000e-01
   endloop
 endfacet
 facet normal -9.963975e-01  8.480592e-02  0.000000e+00
   outer loop
     vertex -5.500000e-01 -6.850000e-01  0.000000e+00
     vertex -5.519419e-01 -7.078151e-01  1.950000e-01
     vertex -5.500000e-01 -6.850000e-01  1.950000e-01
   endloop
 endfacet
 facet normal -9.963975e-01 -8.480592e-02  0.000000e+00
   outer loop
     vertex -5.519419e-01  7.078151e-01  0.000000e+00
     vertex -5.500000e-01  6.850000e-01  0.000000e+00
     vertex -5.500000e-01  6.850000e-01  1.950000e-01
   endloop
 endfacet
 facet normal -9.963975e-01 -8.480592e-02  0.000000e+00
   outer loop
     vertex -5.519419e-01  7.078151e-01  0.000000e+00
     vertex -5.500000e-01  6.850000e-01  1.950000e-01
     vertex -5.519419e-01  7.078151e-01  1.950000e-01
   endloop
 endfacet
 facet normal -9.677329e-01 -2.519781e-01  0.000000e+00
   outer loop
     vertex -5.577115e-01  7.299739e-01  0.000000e+00
     vertex -5.519419e-01  7.078151e-01  1.950000e-01
     vertex -5.577115e-01  7.299739e-01  1.950000e-01
   endloop
 endfacet
 facet normal -9.677329e-01 -2.519781e-01  0.000000e+00
   outer loop
     vertex -5.577115e-01  7.299739e-01  0.000000e+00
     vertex -5.519419e-01  7.078151e-01  0.000000e+00
     vertex -5.519419e-01  7.078151e-01  1.950000e-01
   endloop
 endfacet
 facet normal -9.112285e-01 -4.119012e-01  0.000000e+00
   outer loop
     vertex -5.671431e-01  7.508388e-01  0.000000e+00
     vertex -5.577115e-01  7.299739e-01  1.950000e-01
     vertex -5.671431e-01  7.508388e-01  1.950000e-01
   endloop
 endfacet
 facet normal -9.112285e-01 -4.119012e-01  0.000000e+00
   outer loop
     vertex -5.671431e-01  7.508388e-01  0.000000e+00
     vertex -5.577115e-01  7.299739e-01  0.000000e+00
     vertex -5.577115e-01  7.299739e-01  1.950000e-01
   endloop
 endfacet
 facet normal -8.285096e-01 -5.599748e-01  0.000000e+00
   outer loop
     vertex -5.799652e-01  7.698097e-01  0.000000e+00
     vertex -5.671431e-01  7.508388e-01  1.950000e-01
     vertex -5.799652e-01  7.698097e-01  1.950000e-01
   endloop
 endfacet
 facet normal -8.285096e-01 -5.599748e-01  0.000000e+00
   outer loop
     vertex -5.799652e-01  7.698097e-01  0.000000e+00
     vertex -5.671431e-01  7.508388e-01  0.000000e+00
     vertex -5.671431e-01  7.508388e-01  1.950000e-01
   endloop
 endfacet
 facet normal -7.219561e-01 -6.919389e-01  0.000000e+00
   outer loop
     vertex -5.958089e-01  7.863408e-01  0.000000e+00
     vertex -5.799652e-01  7.698097e-01  1.950000e-01
     vertex -5.958089e-01  7.863408e-01  1.950000e-01
   endloop
 endfacet
 facet normal -7.219561e-01 -6.919389e-01  0.000000e+00
   outer loop
     vertex -5.958089e-01  7.863408e-01  0.000000e+00
     vertex -5.799652e-01  7.698097e-01  0.000000e+00
     vertex -5.799652e-01  7.698097e-01  1.950000e-01
   endloop
 endfacet
 facet normal -5.946332e-01 -8.039971e-01  0.000000e+00
   outer loop
     vertex -6.142185e-01  7.999564e-01  0.000000e+00
     vertex -5.958089e-01  7.863408e-01  0.000000e+00
     vertex -5.958089e-01  7.863408e-01  1.950000e-01
   endloop
 endfacet
 facet normal -5.946332e-01 -8.039971e-01  0.000000e+00
   outer loop
     vertex -6.142185e-01  7.999564e-01  0.000000e+00
     vertex -5.958089e-01  7.863408e-01  1.950000e-01
     vertex -6.142185e-01  7.999564e-01  1.950000e-01
   endloop
 endfacet
 facet normal -4.502037e-01 -8.929259e-01  0.000000e+00
   outer loop
     vertex -6.346644e-01  8.102650e-01  0.000000e+00
     vertex -6.142185e-01  7.999564e-01  0.000000e+00
     vertex -6.142185e-01  7.999564e-01  1.950000e-01
   endloop
 endfacet
 facet normal -4.502037e-01 -8.929259e-01  0.000000e+00
   outer loop
     vertex -6.346644e-01  8.102650e-01  0.000000e+00
     vertex -6.142185e-01  7.999564e-01  1.950000e-01
     vertex -6.346644e-01  8.102650e-01  1.950000e-01
   endloop
 endfacet
 facet normal -2.928228e-01 -9.561667e-01  0.000000e+00
   outer loop
     vertex -6.565583e-01  8.169700e-01  0.000000e+00
     vertex -6.346644e-01  8.102650e-01  1.950000e-01
     vertex -6.565583e-01  8.169700e-01  1.950000e-01
   endloop
 endfacet
 facet normal -2.928228e-01 -9.561667e-01  0.000000e+00
   outer loop
     vertex -6.565583e-01  8.169700e-01  0.000000e+00
     vertex -6.346644e-01  8.102650e-01  0.000000e+00
     vertex -6.346644e-01  8.102650e-01  1.950000e-01
   endloop
 endfacet
 facet normal -1.270178e-01 -9.919004e-01  0.000000e+00
   outer loop
     vertex -6.792704e-01  8.198784e-01  0.000000e+00
     vertex -6.565583e-01  8.169700e-01  0.000000e+00
     vertex -6.565583e-01  8.169700e-01  1.950000e-01
   endloop
 endfacet
 facet normal -1.270178e-01 -9.919004e-01  0.000000e+00
   outer loop
     vertex -6.792704e-01  8.198784e-01  0.000000e+00
     vertex -6.565583e-01  8.169700e-01  1.950000e-01
     vertex -6.792704e-01  8.198784e-01  1.950000e-01
   endloop
 endfacet
 facet normal  4.244120e-02 -9.990990e-01  0.000000e+00
   outer loop
     vertex -7.021474e-01  8.189066e-01  0.000000e+00
     vertex -6.792704e-01  8.198784e-01  1.950000e-01
     vertex -7.021474e-01  8.189066e-01  1.950000e-01
   endloop
 endfacet
 facet normal  4.244120e-02 -9.990990e-01  0.000000e+00
   outer loop
     vertex -7.021474e-01  8.189066e-01  0.000000e+00
     vertex -6.792704e-01  8.198784e-01  0.000000e+00
     vertex -6.792704e-01  8.198784e-01  1.950000e-01
   endloop
 endfacet
 facet normal  2.106793e-01 -9.775552e-01  0.000000e+00
   outer loop
     vertex -7.245311e-01  8.140825e-01  0.000000e+00
     vertex -7.021474e-01  8.189066e-01  1.950000e-01
     vertex -7.245311e-01  8.140825e-01  1.950000e-01
   endloop
 endfacet
 facet normal  2.106793e-01 -9.775552e-01  0.000000e+00
   outer loop
     vertex -7.245311e-01  8.140825e-01  0.000000e+00
     vertex -7.021474e-01  8.189066e-01  0.000000e+00
     vertex -7.021474e-01  8.189066e-01  1.950000e-01
   endloop
 endfacet
 facet normal  3.728565e-01 -9.278890e-01  0.000000e+00
   outer loop
     vertex -7.457775e-01  8.055450e-01  0.000000e+00
     vertex -7.245311e-01  8.140825e-01  1.950000e-01
     vertex -7.457775e-01  8.055450e-01  1.950000e-01
   endloop
 endfacet
 facet normal  3.728565e-01 -9.278890e-01  0.000000e+00
   outer loop
     vertex -7.457775e-01  8.055450e-01  0.000000e+00
     vertex -7.245311e-01  8.140825e-01  0.000000e+00
     vertex -7.245311e-01  8.140825e-01  1.950000e-01
   endloop
 endfacet
 facet normal  5.243073e-01 -8.515291e-01  0.000000e+00
   outer loop
     vertex -7.652755e-01  7.935396e-01  0.000000e+00
     vertex -7.457775e-01  8.055450e-01  1.950000e-01
     vertex -7.652755e-01  7.935396e-01  1.950000e-01
   endloop
 endfacet
 facet normal  5.243073e-01 -8.515291e-01  0.000000e+00
   outer loop
     vertex -7.652755e-01  7.935396e-01  0.000000e+00
     vertex -7.457775e-01  8.055450e-01  0.000000e+00
     vertex -7.457775e-01  8.055450e-01  1.950000e-01
   endloop
 endfacet
 facet normal  6.606747e-01 -7.506723e-01  0.000000e+00
   outer loop
     vertex -7.824641e-01  7.784117e-01  0.000000e+00
     vertex -7.652755e-01  7.935396e-01  1.950000e-01
     vertex -7.824641e-01  7.784117e-01  1.950000e-01
   endloop
 endfacet
 facet normal  6.606747e-01 -7.506723e-01  0.000000e+00
   outer loop
     vertex -7.824641e-01  7.784117e-01  0.000000e+00
     vertex -7.652755e-01  7.935396e-01  0.000000e+00
     vertex -7.652755e-01  7.935396e-01  1.950000e-01
   endloop
 endfacet
 facet normal  7.780358e-01 -6.282200e-01  0.000000e+00
   outer loop
     vertex -7.968488e-01  7.605966e-01  0.000000e+00
     vertex -7.824641e-01  7.784117e-01  1.950000e-01
     vertex -7.968488e-01  7.605966e-01  1.950000e-01
   endloop
 endfacet
 facet normal  7.780358e-01 -6.282200e-01  0.000000e+00
   outer loop
     vertex -7.968488e-01  7.605966e-01  0.000000e+00
     vertex -7.824641e-01  7.784117e-01  0.000000e+00
     vertex -7.824641e-01  7.784117e-01  1.950000e-01
   endloop
 endfacet
 facet normal  8.730141e-01 -4.876949e-01  0.000000e+00
   outer loop
     vertex -8.080158e-01  7.406067e-01  0.000000e+00
     vertex -7.968488e-01  7.605966e-01  1.950000e-01
     vertex -8.080158e-01  7.406067e-01  1.950000e-01
   endloop
 endfacet
 facet normal  8.730141e-01 -4.876949e-01  0.000000e+00
   outer loop
     vertex -8.080158e-01  7.406067e-01  0.000000e+00
     vertex -7.968488e-01  7.605966e-01  0.000000e+00
     vertex -7.968488e-01  7.605966e-01  1.950000e-01
   endloop
 endfacet
 facet normal  9.428774e-01 -3.331398e-01  0.000000e+00
   outer loop
     vertex -8.156439e-01  7.190170e-01  0.000000e+00
     vertex -8.080158e-01  7.406067e-01  1.950000e-01
     vertex -8.156439e-01  7.190170e-01  1.950000e-01
   endloop
 endfacet
 facet normal  9.428774e-01 -3.331398e-01  0.000000e+00
   outer loop
     vertex -8.156439e-01  7.190170e-01  0.000000e+00
     vertex -8.080158e-01  7.406067e-01  0.000000e+00
     vertex -8.080158e-01  7.406067e-01  1.950000e-01
   endloop
 endfacet
 facet normal  9.856159e-01 -1.690008e-01  0.000000e+00
   outer loop
     vertex -8.195137e-01  6.964488e-01  0.000000e+00
     vertex -8.156439e-01  7.190170e-01  1.950000e-01
     vertex -8.195137e-01  6.964488e-01  1.950000e-01
   endloop
 endfacet
 facet normal  9.856159e-01 -1.690008e-01  0.000000e+00
   outer loop
     vertex -8.195137e-01  6.964488e-01  0.000000e+00
     vertex -8.156439e-01  7.190170e-01  0.000000e+00
     vertex -8.156439e-01  7.190170e-01  1.950000e-01
   endloop
 endfacet
 facet normal  1.000000e+00  0.000000e+00  0.000000e+00
   outer loop
     vertex -8.195137e-01  6.735512e-01  0.000000e+00
     vertex -8.195137e-01  6.964488e-01  1.950000e-01
     vertex -8.195137e-01  6.735512e-01  1.950000e-01
   endloop
 endfacet
 facet normal  1.000000e+00  0.000000e+00  0.000000e+00
   outer loop
     vertex -8.195137e-01  6.735512e-01  0.000000e+00
     vertex -8.195137e-01  6.964488e-01  0.000000e+00
     vertex -8.195137e-01  6.964488e-01  1.950000e-01
   endloop
 endfacet
 facet normal  9.856159e-01  1.690008e-01 -0.000000e+00
   outer loop
     vertex -8.156439e-01  6.509830e-01  0.000000e+00
     vertex -8.195137e-01  6.735512e-01  1.950000e-01
     vertex -8.156439e-01  6.509830e-01  1.950000e-01
   endloop
 endfacet
 facet normal  9.856159e-01  1.690008e-01  0.000000e+00
   outer loop
     vertex -8.156439e-01  6.509830e-01  0.000000e+00
     vertex -8.195137e-01  6.735512e-01  0.000000e+00
     vertex -8.195137e-01  6.735512e-01  1.950000e-01
   endloop
 endfacet
 facet normal  9.428774e-01  3.331398e-01 -0.000000e+00
   outer loop
     vertex -8.080158e-01  6.293933e-01  0.000000e+00
     vertex -8.156439e-01  6.509830e-01  1.950000e-01
     vertex -8.080158e-01  6.293933e-01  1.950000e-01
   endloop
 endfacet
 facet normal  9.428774e-01  3.331398e-01  0.000000e+00
   outer loop
     vertex -8.080158e-01  6.293933e-01  0.000000e+00
     vertex -8.156439e-01  6.509830e-01  0.000000e+00
     vertex -8.156439e-01  6.509830e-01  1.950000e-01
   endloop
 endfacet
 facet normal  8.730141e-01  4.876949e-01 -0.000000e+00
   outer loop
     vertex -7.968488e-01  6.094034e-01  0.000000e+00
     vertex -8.080158e-01  6.293933e-01  1.950000e-01
     vertex -7.968488e-01  6.094034e-01  1.950000e-01
   endloop
 endfacet
 facet normal  8.730141e-01  4.876949e-01  0.000000e+00
   outer loop
     vertex -7.968488e-01  6.094034e-01  0.000000e+00
     vertex -8.080158e-01  6.293933e-01  0.000000e+00
     vertex -8.080158e-01  6.293933e-01  1.950000e-01
   endloop
 endfacet
 facet normal  7.780358e-01  6.282200e-01 -0.000000e+00
   outer loop
     vertex -7.824641e-01  5.915883e-01  0.000000e+00
     vertex -7.968488e-01  6.094034e-01  1.950000e-01
     vertex -7.824641e-01  5.915883e-01  1.950000e-01
   endloop
 endfacet
 facet normal  7.780358e-01  6.282200e-01  0.000000e+00
   outer loop
     vertex -7.824641e-01  5.915883e-01  0.000000e+00
     vertex -7.968488e-01  6.094034e-01  0.000000e+00
     vertex -7.968488e-01  6.094034e-01  1.950000e-01
   endloop
 endfacet
 facet normal  6.606747e-01  7.506723e-01 -0.000000e+00
   outer loop
     vertex -7.652755e-01  5.764604e-01  0.000000e+00
     vertex -7.824641e-01  5.915883e-01  1.950000e-01
     vertex -7.652755e-01  5.764604e-01  1.950000e-01
   endloop
 endfacet
 facet normal  6.606747e-01  7.506723e-01  0.000000e+00
   outer loop
     vertex -7.652755e-01  5.764604e-01  0.000000e+00
     vertex -7.824641e-01  5.915883e-01  0.000000e+00
     vertex -7.824641e-01  5.915883e-01  1.950000e-01
   endloop
 endfacet
 facet normal  5.243073e-01  8.515291e-01 -0.000000e+00
   outer loop
     vertex -7.457775e-01  5.644550e-01  0.000000e+00
     vertex -7.652755e-01  5.764604e-01  1.950000e-01
     vertex -7.457775e-01  5.644550e-01  1.950000e-01
   endloop
 endfacet
 facet normal  3.728565e-01  9.278890e-01 -0.000000e+00
   outer loop
     vertex -7.457775e-01  5.644550e-01  0.000000e+00
     vertex -7.457775e-01  5.644550e-01  1.950000e-01
     vertex -7.245311e-01  5.559175e-01  1.950000e-01
   endloop
 endfacet
 facet normal  5.243073e-01  8.515291e-01  0.000000e+00
   outer loop
     vertex -7.457775e-01  5.644550e-01  0.000000e+00
     vertex -7.652755e-01  5.764604e-01  0.000000e+00
     vertex -7.652755e-01  5.764604e-01  1.950000e-01
   endloop
 endfacet
 facet normal  3.728565e-01  9.278890e-01 -0.000000e+00
   outer loop
     vertex -7.245311e-01  5.559175e-01  0.000000e+00
     vertex -7.457775e-01  5.644550e-01  0.000000e+00
     vertex -7.245311e-01  5.559175e-01  1.950000e-01
   endloop
 endfacet
 facet normal  2.106793e-01  9.775552e-01 -0.000000e+00
   outer loop
     vertex -7.021474e-01  5.510934e-01  0.000000e+00
     vertex -7.245311e-01  5.559175e-01  1.950000e-01
     vertex -7.021474e-01  5.510934e-01  1.950000e-01
   endloop
 endfacet
 facet normal  2.106793e-01  9.775552e-01  0.000000e+00
   outer loop
     vertex -7.021474e-01  5.510934e-01  0.000000e+00
     vertex -7.245311e-01  5.559175e-01  0.000000e+00
     vertex -7.245311e-01  5.559175e-01  1.950000e-01
   endloop
 endfacet
 facet normal  4.244120e-02  9.990990e-01 -0.000000e+00
   outer loop
     vertex -6.792704e-01  5.501216e-01  0.000000e+00
     vertex -7.021474e-01  5.510934e-01  1.950000e-01
     vertex -6.792704e-01  5.501216e-01  1.950000e-01
   endloop
 endfacet
 facet normal -1.270178e-01  9.919004e-01  0.000000e+00
   outer loop
     vertex -6.792704e-01  5.501216e-01  0.000000e+00
     vertex -6.792704e-01  5.501216e-01  1.950000e-01
     vertex -6.565583e-01  5.530300e-01  1.950000e-01
   endloop
 endfacet
 facet normal  4.244120e-02  9.990990e-01  0.000000e+00
   outer loop
     vertex -6.792704e-01  5.501216e-01  0.000000e+00
     vertex -7.021474e-01  5.510934e-01  0.000000e+00
     vertex -7.021474e-01  5.510934e-01  1.950000e-01
   endloop
 endfacet
 facet normal -1.270178e-01  9.919004e-01  0.000000e+00
   outer loop
     vertex -6.565583e-01  5.530300e-01  0.000000e+00
     vertex -6.792704e-01  5.501216e-01  0.000000e+00
     vertex -6.565583e-01  5.530300e-01  1.950000e-01
   endloop
 endfacet
 facet normal -2.928228e-01  9.561667e-01  0.000000e+00
   outer loop
     vertex -6.346644e-01  5.597350e-01  0.000000e+00
     vertex -6.565583e-01  5.530300e-01  1.950000e-01
     vertex -6.346644e-01  5.597350e-01  1.950000e-01
   endloop
 endfacet
 facet normal -2.928228e-01  9.561667e-01  0.000000e+00
   outer loop
     vertex -6.346644e-01  5.597350e-01  0.000000e+00
     vertex -6.565583e-01  5.530300e-01  0.000000e+00
     vertex -6.565583e-01  5.530300e-01  1.950000e-01
   endloop
 endfacet
 facet normal -4.502037e-01  8.929259e-01  0.000000e+00
   outer loop
     vertex -6.142185e-01  5.700436e-01  0.000000e+00
     vertex -6.346644e-01  5.597350e-01  0.000000e+00
     vertex -6.346644e-01  5.597350e-01  1.950000e-01
   endloop
 endfacet
 facet normal -4.502037e-01  8.929259e-01  0.000000e+00
   outer loop
     vertex -6.142185e-01  5.700436e-01  0.000000e+00
     vertex -6.346644e-01  5.597350e-01  1.950000e-01
     vertex -6.142185e-01  5.700436e-01  1.950000e-01
   endloop
 endfacet
 facet normal -5.946332e-01  8.039971e-01  0.000000e+00
   outer loop
     vertex -6.142185e-01  5.700436e-01  0.000000e+00
     vertex -6.142185e-01  5.700436e-01  1.950000e-01
     vertex -5.958089e-01  5.836592e-01  1.950000e-01
   endloop
 endfacet
 facet normal -7.219561e-01  6.919389e-01  0.000000e+00
   outer loop
     vertex -5.958089e-01  5.836592e-01  0.000000e+00
     vertex -5.958089e-01  5.836592e-01  1.950000e-01
     vertex -5.799652e-01  6.001903e-01  1.950000e-01
   endloop
 endfacet
 facet normal -5.946332e-01  8.039971e-01  0.000000e+00
   outer loop
     vertex -5.958089e-01  5.836592e-01  0.000000e+00
     vertex -6.142185e-01  5.700436e-01  0.000000e+00
     vertex -5.958089e-01  5.836592e-01  1.950000e-01
   endloop
 endfacet
 facet normal -7.219561e-01  6.919389e-01  0.000000e+00
   outer loop
     vertex -5.799652e-01  6.001903e-01  0.000000e+00
     vertex -5.958089e-01  5.836592e-01  0.000000e+00
     vertex -5.799652e-01  6.001903e-01  1.950000e-01
   endloop
 endfacet
 facet normal -8.285096e-01  5.599748e-01  0.000000e+00
   outer loop
     vertex -5.671431e-01  6.191612e-01  0.000000e+00
     vertex -5.799652e-01  6.001903e-01  0.000000e+00
     vertex -5.799652e-01  6.001903e-01  1.950000e-01
   endloop
 endfacet
 facet normal -8.285096e-01  5.599748e-01  0.000000e+00
   outer loop
     vertex -5.671431e-01  6.191612e-01  0.000000e+00
     vertex -5.799652e-01  6.001903e-01  1.950000e-01
     vertex -5.671431e-01  6.191612e-01  1.950000e-01
   endloop
 endfacet
 facet normal -9.112285e-01  4.119012e-01  0.000000e+00
   outer loop
     vertex -5.577115e-01  6.400261e-01  0.000000e+00
     vertex -5.671431e-01  6.191612e-01  0.000000e+00
     vertex -5.671431e-01  6.191612e-01  1.950000e-01
   endloop
 endfacet
 facet normal -9.112285e-01  4.119012e-01  0.000000e+00
   outer loop
     vertex -5.577115e-01  6.400261e-01  0.000000e+00
     vertex -5.671431e-01  6.191612e-01  1.950000e-01
     vertex -5.577115e-01  6.400261e-01  1.950000e-01
   endloop
 endfacet
 facet normal -9.677329e-01  2.519781e-01  0.000000e+00
   outer loop
     vertex -5.577115e-01  6.400261e-01  0.000000e+00
     vertex -5.577115e-01  6.400261e-01  1.950000e-01
     vertex -5.519419e-01  6.621849e-01  1.950000e-01
   endloop
 endfacet
 facet normal -9.677329e-01  2.519781e-01  0.000000e+00
   outer loop
     vertex -5.519419e-01  6.621849e-01  0.000000e+00
     vertex -5.577115e-01  6.400261e-01  0.000000e+00
     vertex -5.519419e-01  6.621849e-01  1.950000e-01
   endloop
 endfacet
 facet normal -9.963975e-01  8.480592e-02  0.000000e+00
   outer loop
     vertex -5.500000e-01  6.850000e-01  0.000000e+00
     vertex -5.519419e-01  6.621849e-01  0.000000e+00
     vertex -5.519419e-01  6.621849e-01  1.950000e-01
   endloop
 endfacet
 facet normal -9.963975e-01  8.480592e-02  0.000000e+00
   outer loop
     vertex -5.500000e-01  6.850000e-01  0.000000e+00
     vertex -5.519419e-01  6.621849e-01  1.950000e-01
     vertex -5.500000e-01  6.850000e-01  1.950000e-01
   endloop
 endfacet
 facet normal -0.000000e+00  0.000000e+00 -1.000000e+00
   outer loop
     vertex -7.652755e-01 -7.935396e-01  0.000000e+00
     vertex -9.800000e-01 -9.800000e-01  0.000000e+00
     vertex -7.824641e-01 -7.784117e-01  0.000000e+00
   endloop
 endfacet
 facet normal  0.000000e+00 -0.000000e+00 -1.000000e+00
   outer loop
     vertex -7.968488e-01 -7.605966e-01  0.000000e+00
     vertex -7.824641e-01 -7.784117e-01  0.000000e+00
     vertex -9.800000e-01 -9.800000e-01  0.000000e+00
   endloop
 endfacet
 facet normal -0.000000e+00  0.000000e+00 -1.000000e+00
   outer loop
     vertex -7.457775e-01 -8.055450e-01  0.000000e+00
     vertex -9.800000e-01 -9.800000e-01  0.000000e+00
     vertex -7.652755e-01 -7.935396e-01  0.000000e+00
   endloop
 endfacet
 facet normal  0.000000e+00 -0.000000e+00 -1.000000e+00
   outer loop
     vertex -8.080158e-01 -7.406067e-01  0.000000e+00
     vertex -7.968488e-01 -7.605966e-01  0.000000e+00
     vertex -9.800000e-01 -9.800000e-01  0.000000e+00
   endloop
 endfacet
 facet normal -0.000000e+00  0.000000e+00 -1.000000e+00
   outer loop
     vertex -7.245311e-01 -8.140825e-01  0.000000e+00
     vertex -9.800000e-01 -9.800000e-01  0.000000e+00
     vertex -7.457775e-01 -8.055450e-01  0.000000e+00
   endloop
 endfacet
 facet normal  0.000000e+00 -0.000000e+00 -1.000000e+00
   outer loop
     vertex -8.156439e-01 -7.190170e-01  0.000000e+00
     vertex -8.080158e-01 -7.406067e-01  0.000000e+00
     vertex -9.800000e-01 -9.800000e-01  0.000000e+00
   endloop
 endfacet
 facet normal -0.000000e+00  0.000000e+00 -1.000000e+00
   outer loop
     vertex -7.021474e-01 -8.189066e-01  0.000000e+00
     vertex -9.800000e-01 -9.800000e-01  0.000000e+00
     vertex -7.245311e-01 -8.140825e-01  0.000000e+00
   endloop
 endfacet
 facet normal  0.000000e+00 -0.000000e+00 -1.000000e+00
   outer loop
     vertex -8.195137e-01 -6.964488e-01  0.000000e+00
     vertex -8.156439e-01 -7.190170e-01  0.000000e+00
     vertex -9.800000e-01 -9.800000e-01  0.000000e+00
   endloop
 endfacet
 facet normal -0.000000e+00  0.000000e+00 -1.000000e+00
   outer loop
     vertex -6.792704e-01 -8.198784e-01  0.000000e+00
     vertex -9.800000e-01 -9.800000e-01  0.000000e+00
     vertex -7.021474e-01 -8.189066e-01  0.000000e+00
   endloop
 endfacet
 facet normal  0.000000e+00 -0.000000e+00 -1.000000e+00
   outer loop
     vertex -8.195137e-01 -6.735512e-01  0.000000e+00
     vertex -8.195137e-01 -6.964488e-01  0.000000e+00
     vertex -9.800000e-01 -9.800000e-01  0.000000e+00
   endloop
 endfacet
 facet normal  0.000000e+00  0.000000e+00 -1.000000e+00
   outer loop
     vertex -6.565583e-01 -8.169700e-01  0.000000e+00
     vertex -9.800000e-01 -9.800000e-01  0.000000e+00
     vertex -6.792704e-01 -8.198784e-01  0.000000e+00
   endloop
 endfacet
 facet normal  0.000000e+00  0.000000e+00 -1.000000e+00
   outer loop
     vertex -8.156439e-01 -6.509830e-01  0.000000e+00
     vertex -8.195137e-01 -6.735512e-01  0.000000e+00
     vertex -9.800000e-01 -9.800000e-01  0.000000e+00
   endloop
 endfacet
 facet normal  0.000000e+00  0.000000e+00 -1.000000e+00
   outer loop
     vertex -6.346644e-01 -8.102650e-01  0.000000e+00
     vertex -9.800000e-01 -9.800000e-01  0.000000e+00
     vertex -6.565583e-01 -8.169700e-01  0.000000e+00
   endloop
 endfacet
 facet normal  0.000000e+00  0.000000e+00 -1.000000e+00
   outer loop
     vertex -8.080158e-01 -6.293933e-01  0.000000e+00
     vertex -8.156439e-01 -6.509830e-01  0.000000e+00
     vertex -9.800000e-01 -9.800000e-01  0.000000e+00
   endloop
 endfacet
 facet normal -0.000000e+00  0.000000e+00 -1.000000e+00
   outer loop
     vertex -7.652755e-01  5.764604e-01  0.000000e+00
     vertex -7.824641e-01 -5.915883e-01  0.000000e+00
     vertex -7.824641e-01  5.915883e-01  0.000000e+00
   endloop
 endfacet
 facet normal  0.000000e+00 -0.000000e+00 -1.000000e+00
   outer loop
     vertex -7.652755e-01  5.764604e-01  0.000000e+00
     vertex -7.652755e-01 -5.764604e-01  0.000000e+00
     vertex -7.824641e-01 -5.915883e-01  0.000000e+00
   endloop
 endfacet
 facet normal  0.000000e+00  0.000000e+00 -1.000000e+00
   outer loop
     vertex -7.968488e-01  6.094034e-01  0.000000e+00
     vertex -7.824641e-01  5.915883e-01  0.000000e+00
     vertex -7.824641e-01 -5.915883e-01  0.000000e+00
   endloop
 endfacet
 facet normal  0.000000e+00  0.000000e+00 -1.000000e+00
   outer loop
     vertex -7.968488e-01  6.094034e-01  0.000000e+00
     vertex -7.824641e-01 -5.915883e-01  0.000000e+00
     vertex -7.968488e-01 -6.094034e-01  0.000000e+00
   endloop
 endfacet
 facet normal  0.000000e+00 -0.000000e+00 -1.000000e+00
   outer loop
     vertex -7.457775e-01  5.644550e-01  0.000000e+00
     vertex -7.457775e-01 -5.644550e-01  0.000000e+00
     vertex -7.652755e-01 -5.764604e-01  0.000000e+00
   endloop
 endfacet
 facet normal -0.000000e+00  0.000000e+00 -1.000000e+00
   outer loop
     vertex -7.457775e-01  5.644550e-01  0.000000e+00
     vertex -7.652755e-01 -5.764604e-01  0.000000e+00
     vertex -7.652755e-01  5.764604e-01  0.000000e+00
   endloop
 endfacet
 facet normal  0.000000e+00  0.000000e+00 -1.000000e+00
   outer loop
     vertex -8.080158e-01  6.293933e-01  0.000000e+00
     vertex -7.968488e-01 -6.094034e-01  0.000000e+00
     vertex -8.080158e-01 -6.293933e-01  0.000000e+00
   endloop
 endfacet
 facet normal  0.000000e+00  0.000000e+00 -1.000000e+00
   outer loop
     vertex -8.080158e-01  6.293933e-01  0.000000e+00
     vertex -7.968488e-01  6.094034e-01  0.000000e+00
     vertex -7.968488e-01 -6.094034e-01  0.000000e+00
   endloop
 endfacet
 facet normal  0.000000e+00 -0.000000e+00 -1.000000e+00
   outer loop
     vertex -7.245311e-01  5.559175e-01  0.000000e+00
     vertex -7.245311e-01 -5.559175e-01  0.000000e+00
     vertex -7.457775e-01 -5.644550e-01  0.000000e+00
   endloop
 endfacet
 facet normal -0.000000e+00  0.000000e+00 -1.000000e+00
   outer loop
     vertex -7.245311e-01  5.559175e-01  0.000000e+00
     vertex -7.457775e-01 -5.644550e-01  0.000000e+00
     vertex -7.457775e-01  5.644550e-01  0.000000e+00
   endloop
 endfacet
 facet normal  0.000000e+00 -0.000000e+00 -1.000000e+00
   outer loop
     vertex -7.021474e-01  5.510934e-01  0.000000e+00
     vertex -7.021474e-01 -5.510934e-01  0.000000e+00
     vertex -7.245311e-01 -5.559175e-01  0.000000e+00
   endloop
 endfacet
 facet normal -0.000000e+00  0.000000e+00 -1.000000e+00
   outer loop
     vertex -7.021474e-01  5.510934e-01  0.000000e+00
     vertex -7.245311e-01 -5.559175e-01  0.000000e+00
     vertex -7.245311e-01  5.559175e-01  0.000000e+00
   endloop
 endfacet
 facet normal  0.000000e+00  0.000000e+00 -1.000000e+00
   outer loop
     vertex -6.792704e-01  5.501216e-01  0.000000e+00
     vertex -6.792704e-01 -5.501216e-01  0.000000e+00
     vertex -7.021474e-01 -5.510934e-01  0.000000e+00
   endloop
 endfacet
 facet normal -0.000000e+00  0.000000e+00 -1.000000e+00
   outer loop
     vertex -6.792704e-01  5.501216e-01  0.000000e+00
     vertex -7.021474e-01 -5.510934e-01  0.000000e+00
     vertex -7.021474e-01  5.510934e-01  0.000000e+00
   endloop
 endfacet
 facet normal  0.000000e+00  0.000000e+00 -1.000000e+00
   outer loop
     vertex -6.565583e-01  5.530300e-01  0.000000e+00
     vertex -6.565583e-01 -5.530300e-01  0.000000e+00
     vertex -6.792704e-01 -5.501216e-01  0.000000e+00
   endloop
 endfacet
 facet normal  0.000000e+00  0.000000e+00 -1.000000e+00
   outer loop
     vertex -6.565583e-01  5.530300e-01  0.000000e+00
     vertex -6.792704e-01 -5.501216e-01  0.000000e+00
     vertex -6.792704e-01  5.501216e-01  0.000000e+00
   endloop
 endfacet
 facet normal  0.000000e+00  0.000000e+00 -1.000000e+00
   outer loop
     vertex -6.346644e-01  5.597350e-01  0.000000e+00
     vertex -6.346644e-01 -5.597350e-01  0.000000e+00
     vertex -6.565583e-01 -5.530300e-01  0.000000e+00
   endloop
 endfacet
 facet normal  0.000000e+00  0.000000e+00 -1.000000e+00
   outer loop
     vertex -6.346644e-01  5.597350e-01  0.000000e+00
     vertex -6.565583e-01 -5.530300e-01  0.000000e+00
     vertex -6.565583e-01  5.530300e-01  0.000000e+00
   endloop
 endfacet
 facet normal  0.000000e+00  0.000000e+00 -1.000000e+00
   outer loop
     vertex -6.142185e-01  5.700436e-01  0.000000e+00
     vertex -6.142185e-01 -5.700436e-01  0.000000e+00
     vertex -6.346644e-01 -5.597350e-01  0.000000e+00
   endloop
 endfacet
 facet normal  0.000000e+00  0.000000e+00 -1.000000e+00
   outer loop
     vertex -6.142185e-01  5.700436e-01  0.000000e+00
     vertex -6.346644e-01 -5.597350e-01  0.000000e+00
     vertex -6.346644e-01  5.597350e-01  0.000000e+00
   endloop
 endfacet
 facet normal  0.000000e+00  0.000000e+00 -1.000000e+00
   outer loop
     vertex -5.958089e-01  5.836592e-01  0.000000e+00
     vertex -6.142185e-01 -5.700436e-01  0.000000e+00
     vertex -6.142185e-01  5.700436e-01  0.000000e+00
   endloop
 endfacet
 facet normal  0.000000e+00  0.000000e+00 -1.000000e+00
   outer loop
     vertex -5.958089e-01  5.836592e-01  0.000000e+00
     vertex -5.958089e-01 -5.836592e-01  0.000000e+00
     vertex -6.142185e-01 -5.700436e-01  0.000000e+00
   endloop
 endfacet
 facet normal  0.000000e+00  0.000000e+00 -1.000000e+00
   outer loop
     vertex  9.800000e-01 -9.800000e-01  0.000000e+00
     vertex -5.500000e-01 -6.850000e-01  0.000000e+00
     vertex -5.519419e-01 -6.621849e-01  0.000000e+00
   endloop
 endfacet
 facet normal  0.000000e+00  0.000000e+00 -1.000000e+00
   outer loop
     vertex  9.800000e-01 -9.800000e-01  0.000000e+00
     vertex -5.519419e-01 -6.621849e-01  0.000000e+00
     vertex -5.577115e-01 -6.400261e-01  0.000000e+00
   endloop
 endfacet
 facet normal  0.000000e+00  0.000000e+00 -1.000000e+00
   outer loop
     vertex  9.800000e-01 -9.800000e-01  0.000000e+00
     vertex -5.577115e-01 -6.400261e-01  0.000000e+00
     vertex -5.671431e-01 -6.191612e-01  0.000000e+00
   endloop
 endfacet
 facet normal  0.000000e+00  0.000000e+00 -1.000000e+00
   outer loop
     vertex  9.800000e-01 -9.800000e-01  0.000000e+00
     vertex -6.346644e-01 -8.102650e-01  0.000000e+00
     vertex -6.142185e-01 -7.999564e-01  0.000000e+00
   endloop
 endfacet
 facet normal  0.000000e+00  0.000000e+00 -1.000000e+00
   outer loop
     vertex  9.800000e-01 -9.800000e-01  0.000000e+00
     vertex -6.142185e-01 -7.999564e-01  0.000000e+00
     vertex -5.958089e-01 -7.863408e-01  0.000000e+00
   endloop
 endfacet
 facet normal  0.000000e+00  0.000000e+00 -1.000000e+00
   outer loop
     vertex  9.800000e-01 -9.800000e-01  0.000000e+00
     vertex -5.958089e-01 -7.863408e-01  0.000000e+00
     vertex -5.799652e-01 -7.698097e-01  0.000000e+00
   endloop
 endfacet
 facet normal  0.000000e+00  0.000000e+00 -1.000000e+00
   outer loop
     vertex  9.800000e-01 -9.800000e-01  0.000000e+00
     vertex -5.799652e-01 -7.698097e-01  0.000000e+00
     vertex -5.671431e-01 -7.508388e-01  0.000000e+00
   endloop
 endfacet
 facet normal  0.000000e+00  0.000000e+00 -1.000000e+00
   outer loop
     vertex  9.800000e-01 -9.800000e-01  0.000000e+00
     vertex -5.671431e-01 -7.508388e-01  0.000000e+00
     vertex -5.577115e-01 -7.299739e-01  0.000000e+00
   endloop
 endfacet
 facet normal  0.000000e+00  0.000000e+00 -1.000000e+00
   outer loop
     vertex  9.800000e-01 -9.800000e-01  0.000000e+00
     vertex -5.577115e-01 -7.299739e-01  0.000000e+00
     vertex -5.519419e-01 -7.078151e-01  0.000000e+00
   endloop
 endfacet
 facet normal  0.000000e+00  0.000000e+00 -1.000000e+00
   outer loop
     vertex  9.800000e-01 -9.800000e-01  0.000000e+00
     vertex -5.519419e-01 -7.078151e-01  0.000000e+00
     vertex -5.500000e-01 -6.850000e-01  0.000000e+00
   endloop
 endfacet
 facet normal  0.000000e+00  0.000000e+00 -1.000000e+00
   outer loop
     vertex  9.800000e-01 -9.800000e-01  0.000000e+00
     vertex -9.800000e-01 -9.800000e-01  0.000000e+00
     vertex -6.346644e-01 -8.102650e-01  0.000000e+00
   endloop
 endfacet
 facet normal  0.000000e+00  0.000000e+00 -1.000000e+00
   outer loop
     vertex -9.800000e-01  9.800000e-01  0.000000e+00
     vertex -8.080158e-01 -6.293933e-01  0.000000e+00
     vertex -9.800000e-01 -9.800000e-01  0.000000e+00
   endloop
 endfacet
 facet normal  0.000000e+00  0.000000e+00 -1.000000e+00
   outer loop
     vertex -9.800000e-01  9.800000e-01  0.000000e+00
     vertex -7.824641e-01  7.784117e-01  0.000000e+00
     vertex -7.968488e-01  7.605966e-01  0.000000e+00
   endloop
 endfacet
 facet normal  0.000000e+00  0.000000e+00 -1.000000e+00
   outer loop
     vertex -9.800000e-01  9.800000e-01  0.000000e+00
     vertex -7.968488e-01  7.605966e-01  0.000000e+00
     vertex -8.080158e-01  7.406067e-01  0.000000e+00
   endloop
 endfacet
 facet normal  0.000000e+00  0.000000e+00 -1.000000e+00
   outer loop
     vertex -9.800000e-01  9.800000e-01  0.000000e+00
     vertex -8.080158e-01  7.406067e-01  0.000000e+00
     vertex -8.156439e-01  7.190170e-01  0.000000e+00
   endloop
 endfacet
 facet normal  0.000000e+00  0.000000e+00 -1.000000e+00
   outer loop
     vertex -9.800000e-01  9.800000e-01  0.000000e+00
     vertex -8.156439e-01  7.190170e-01  0.000000e+00
     vertex -8.195137e-01  6.964488e-01  0.000000e+00
   endloop
 endfacet
 facet normal  0.000000e+00  0.000000e+00 -1.000000e+00
   outer loop
     vertex -9.800000e-01  9.800000e-01  0.000000e+00
     vertex -8.195137e-01  6.964488e-01  0.000000e+00
     vertex -8.195137e-01  6.735512e-01  0.000000e+00
   endloop
 endfacet
 facet normal  0.000000e+00  0.000000e+00 -1.000000e+00
   outer loop
     vertex -9.800000e-01  9.800000e-01  0.000000e+00
     vertex -8.195137e-01  6.735512e-01  0.000000e+00
     vertex -8.156439e-01  6.509830e-01  0.000000e+00
   endloop
 endfacet
 facet normal  0.000000e+00  0.000000e+00 -1.000000e+00
   outer loop
     vertex -9.800000e-01  9.800000e-01  0.000000e+00
     vertex -8.156439e-01  6.509830e-01  0.000000e+00
     vertex -8.080158e-01  6.293933e-01  0.000000e+00
   endloop
 endfacet
 facet normal  0.000000e+00  0.000000e+00 -1.000000e+00
   outer loop
     vertex -9.800000e-01  9.800000e-01  0.000000e+00
     vertex -8.080158e-01  6.293933e-01  0.000000e+00
     vertex -8.080158e-01 -6.293933e-01  0.000000e+00
   endloop
 endfacet
 facet normal  0.000000e+00  0.000000e+00 -1.000000e+00
   outer loop
     vertex -5.799652e-01  6.001903e-01  0.000000e+00
     vertex -5.799652e-01 -6.001903e-01  0.000000e+00
     vertex -5.958089e-01 -5.836592e-01  0.000000e+00
   endloop
 endfacet
 facet normal  0.000000e+00  0.000000e+00 -1.000000e+00
   outer loop
     vertex -5.799652e-01  6.001903e-01  0.000000e+00
     vertex -5.958089e-01 -5.836592e-01  0.000000e+00
     vertex -5.958089e-01  5.836592e-01  0.000000e+00
   endloop
 endfacet
 facet normal -0.000000e+00  0.000000e+00 -1.000000e+00
   outer loop
     vertex -7.652755e-01  7.935396e-01  0.000000e+00
     vertex -7.824641e-01  7.784117e-01  0.000000e+00
     vertex -9.800000e-01  9.800000e-01  0.000000e+00
   endloop
 endfacet
 facet normal  0.000000e+00  0.000000e+00 -1.000000e+00
   outer loop
     vertex -5.671431e-01  6.191612e-01  0.000000e+00
     vertex -5.671431e-01 -6.191612e-01  0.000000e+00
     vertex -5.799652e-01 -6.001903e-01  0.000000e+00
   endloop
 endfacet
 facet normal  0.000000e+00  0.000000e+00 -1.000000e+00
   outer loop
     vertex -5.671431e-01  6.191612e-01  0.000000e+00
     vertex -5.799652e-01 -6.001903e-01  0.000000e+00
     vertex -5.799652e-01  6.001903e-01  0.000000e+00
   endloop
 endfacet
 facet normal -0.000000e+00  0.000000e+00 -1.000000e+00
   outer loop
     vertex -7.457775e-01  8.055450e-01  0.000000e+00
     vertex -7.652755e-01  7.935396e-01  0.000000e+00
     vertex -9.800000e-01  9.800000e-01  0.000000e+00
   endloop
 endfacet
 facet normal -0.000000e+00  0.000000e+00 -1.000000e+00
   outer loop
     vertex -7.245311e-01  8.140825e-01  0.000000e+00
     vertex -7.457775e-01  8.055450e-01  0.000000e+00
     vertex -9.800000e-01  9.800000e-01  0.000000e+00
   endloop
 endfacet
 facet normal -0.000000e+00  0.000000e+00 -1.000000e+00
   outer loop
     vertex -7.021474e-01  8.189066e-01  0.000000e+00
     vertex -7.245311e-01  8.140825e-01  0.000000e+00
     vertex -9.800000e-01  9.800000e-01  0.000000e+00
   endloop
 endfacet
 facet normal -0.000000e+00  0.000000e+00 -1.000000e+00
   outer loop
     vertex -6.792704e-01  8.198784e-01  0.000000e+00
     vertex -7.021474e-01  8.189066e-01  0.000000e+00
     vertex -9.800000e-01  9.800000e-01  0.000000e+00
   endloop
 endfacet
 facet normal  0.000000e+00  0.000000e+00 -1.000000e+00
   outer loop
     vertex -6.565583e-01  8.169700e-01  0.000000e+00
     vertex -6.792704e-01  8.198784e-01  0.000000e+00
     vertex -9.800000e-01  9.800000e-01  0.000000e+00
   endloop
 endfacet
 facet normal  0.000000e+00  0.000000e+00 -1.000000e+00
   outer loop
     vertex  9.800000e-01  9.800000e-01  0.000000e+00
     vertex -5.671431e-01 -6.191612e-01  0.000000e+00
     vertex -5.671431e-01  6.191612e-01  0.000000e+00
   endloop
 endfacet
 facet normal  0.000000e+00 -0.000000e+00 -1.000000e+00
   outer loop
     vertex  9.800000e-01  9.800000e-01  0.000000e+00
     vertex  9.800000e-01 -9.800000e-01  0.000000e+00
     vertex -5.671431e-01 -6.191612e-01  0.000000e+00
   endloop
 endfacet
 facet normal  0.000000e+00  0.000000e+00 -1.000000e+00
   outer loop
     vertex  9.800000e-01  9.800000e-01  0.000000e+00
     vertex -5.500000e-01  6.850000e-01  0.000000e+00
     vertex -5.519419e-01  7.078151e-01  0.000000e+00
   endloop
 endfacet
 facet normal  0.000000e+00  0.000000e+00 -1.000000e+00
   outer loop
     vertex  9.800000e-01  9.800000e-01  0.000000e+00
     vertex -5.519419e-01  7.078151e-01  0.000000e+00
     vertex -5.577115e-01  7.299739e-01  0.000000e+00
   endloop
 endfacet
 facet normal  0.000000e+00  0.000000e+00 -1.000000e+00
   outer loop
     vertex  9.800000e-01  9.800000e-01  0.000000e+00
     vertex -5.577115e-01  7.299739e-01  0.000000e+00
     vertex -5.671431e-01  7.508388e-01  0.000000e+00
   endloop
 endfacet
 facet normal  0.000000e+00  0.000000e+00 -1.000000e+00
   outer loop
     vertex  9.800000e-01  9.800000e-01  0.000000e+00
     vertex -5.671431e-01  7.508388e-01  0.000000e+00
     vertex -5.799652e-01  7.698097e-01  0.000000e+00
   endloop
 endfacet
 facet normal  0.000000e+00  0.000000e+00 -1.000000e+00
   outer loop
     vertex  9.800000e-01  9.800000e-01  0.000000e+00
     vertex -5.799652e-01  7.698097e-01  0.000000e+00
     vertex -5.958089e-01  7.863408e-01  0.000000e+00
   endloop
 endfacet
 facet normal  0.000000e+00  0.000000e+00 -1.000000e+00
   outer loop
     vertex  9.800000e-01  9.800000e-01  0.000000e+00
     vertex -5.958089e-01  7.863408e-01  0.000000e+00
     vertex -6.142185e-01  7.999564e-01  0.000000e+00
   endloop
 endfacet
 facet normal  0.000000e+00  0.000000e+00 -1.000000e+00
   outer loop
     vertex  9.800000e-01  9.800000e-01  0.000000e+00
     vertex -5.671431e-01  6.191612e-01  0.000000e+00
     vertex -5.577115e-01  6.400261e-01  0.000000e+00
   endloop
 endfacet
 facet normal  0.000000e+00  0.000000e+00 -1.000000e+00
   outer loop
     vertex  9.800000e-01  9.800000e-01  0.000000e+00
     vertex -5.577115e-01  6.400261e-01  0.000000e+00
     vertex -5.519419e-01  6.621849e-01  0.000000e+00
   endloop
 endfacet
 facet normal  0.000000e+00  0.000000e+00 -1.000000e+00
   outer loop
     vertex  9.800000e-01  9.800000e-01  0.000000e+00
     vertex -5.519419e-01  6.621849e-01  0.000000e+00
     vertex -5.500000e-01  6.850000e-01  0.000000e+00
   endloop
 endfacet
 facet normal -0.000000e+00  0.000000e+00 -1.000000e+00
   outer loop
     vertex  9.800000e-01  9.800000e-01  0.000000e+00
     vertex -6.565583e-01  8.169700e-01  0.000000e+00
     vertex -9.800000e-01  9.800000e-01  0.000000e+00
   endloop
 endfacet
 facet normal  0.000000e+00  0.000000e+00 -1.000000e+00
   outer loop
     vertex  9.800000e-01  9.800000e-01  0.000000e+00
     vertex -6.346644e-01  8.102650e-01  0.000000e+00
     vertex -6.565583e-01  8.169700e-01  0.000000e+00
   endloop
 endfacet
 facet normal  0.000000e+00  0.000000e+00 -1.000000e+00
   outer loop
     vertex  9.800000e-01  9.800000e-01  0.000000e+00
     vertex -6.142185e-01  7.999564e-01  0.000000e+00
     vertex -6.346644e-01  8.102650e-01  0.000000e+00
   endloop
 endfacet
 facet normal  0.000000e+00  0.000000e+00  1.000000e+00
   outer loop
     vertex -7.652755e-01 -7.935396e-01  1.950000e-01
     vertex -7.824641e-01 -7.784117e-01  1.950000e-01
     vertex -9.800000e-01 -9.800000e-01  1.950000e-01
   endloop
 endfacet
 facet normal  0.000000e+00  0.000000e+00  1.000000e+00
   outer loop
     vertex -7.968488e-01 -7.605966e-01  1.950000e-01
     vertex -9.800000e-01 -9.800000e-01  1.950000e-01
     vertex -7.824641e-01 -7.784117e-01  1.950000e-01
   endloop
 endfacet
 facet normal  0.000000e+00  0.000000e+00  1.000000e+00
   outer loop
     vertex -7.457775e-01 -8.055450e-01  1.950000e-01
     vertex -7.652755e-01 -7.935396e-01  1.950000e-01
     vertex -9.800000e-01 -9.800000e-01  1.950000e-01
   endloop
 endfacet
 facet normal  0.000000e+00  0.000000e+00  1.000000e+00
   outer loop
     vertex -8.080158e-01 -7.406067e-01  1.950000e-01
     vertex -9.800000e-01 -9.800000e-01  1.950000e-01
     vertex -7.968488e-01 -7.605966e-01  1.950000e-01
   endloop
 endfacet
 facet normal  0.000000e+00  0.000000e+00  1.000000e+00
   outer loop
     vertex -7.245311e-01 -8.140825e-01  1.950000e-01
     vertex -7.457775e-01 -8.055450e-01  1.950000e-01
     vertex -9.800000e-01 -9.800000e-01  1.950000e-01
   endloop
 endfacet
 facet normal  0.000000e+00  0.000000e+00  1.000000e+00
   outer loop
     vertex -8.156439e-01 -7.190170e-01  1.950000e-01
     vertex -9.800000e-01 -9.800000e-01  1.950000e-01
     vertex -8.080158e-01 -7.406067e-01  1.950000e-01
   endloop
 endfacet
 facet normal  0.000000e+00  0.000000e+00  1.000000e+00
   outer loop
     vertex -7.021474e-01 -8.189066e-01  1.950000e-01
     vertex -7.245311e-01 -8.140825e-01  1.950000e-01
     vertex -9.800000e-01 -9.800000e-01  1.950000e-01
   endloop
 endfacet
 facet normal  0.000000e+00  0.000000e+00  1.000000e+00
   outer loop
     vertex -8.195137e-01 -6.964488e-01  1.950000e-01
     vertex -9.800000e-01 -9.800000e-01  1.950000e-01
     vertex -8.156439e-01 -7.190170e-01  1.950000e-01
   endloop
 endfacet
 facet normal  0.000000e+00  0.000000e+00  1.000000e+00
   outer loop
     vertex -6.792704e-01 -8.198784e-01  1.950000e-01
     vertex -7.021474e-01 -8.189066e-01  1.950000e-01
     vertex -9.800000e-01 -9.800000e-01  1.950000e-01
   endloop
 endfacet
 facet normal  0.000000e+00  0.000000e+00  1.000000e+00
   outer loop
     vertex -8.195137e-01 -6.735512e-01  1.950000e-01
     vertex -9.800000e-01 -9.800000e-01  1.950000e-01
     vertex -8.195137e-01 -6.964488e-01  1.950000e-01
   endloop
 endfacet
 facet normal  0.000000e+00  0.000000e+00  1.000000e+00
   outer loop
     vertex -6.565583e-01 -8.169700e-01  1.950000e-01
     vertex -6.792704e-01 -8.198784e-01  1.950000e-01
     vertex -9.800000e-01 -9.800000e-01  1.950000e-01
   endloop
 endfacet
 facet normal  0.000000e+00  0.000000e+00  1.000000e+00
   outer loop
     vertex -8.156439e-01 -6.509830e-01  1.950000e-01
     vertex -9.800000e-01 -9.800000e-01  1.950000e-01
     vertex -8.195137e-01 -6.735512e-01  1.950000e-01
   endloop
 endfacet
 facet normal  0.000000e+00  0.000000e+00  1.000000e+00
   outer loop
     vertex -6.346644e-01 -8.102650e-01  1.950000e-01
     vertex -6.565583e-01 -8.169700e-01  1.950000e-01
     vertex -9.800000e-01 -9.800000e-01  1.950000e-01
   endloop
 endfacet
 facet normal  0.000000e+00  0.000000e+00  1.000000e+00
   outer loop
     vertex -8.080158e-01 -6.293933e-01  1.950000e-01
     vertex -9.800000e-01 -9.800000e-01  1.950000e-01
     vertex -8.156439e-01 -6.509830e-01  1.950000e-01
   endloop
 endfacet
 facet normal  0.000000e+00  0.000000e+00  1.000000e+00
   outer loop
     vertex -7.652755e-01  5.764604e-01  1.950000e-01
     vertex -7.824641e-01  5.915883e-01  1.950000e-01
     vertex -7.824641e-01 -5.915883e-01  1.950000e-01
   endloop
 endfacet
 facet normal  0.000000e+00  0.000000e+00  1.000000e+00
   outer loop
     vertex -7.652755e-01  5.764604e-01  1.950000e-01
     vertex -7.824641e-01 -5.915883e-01  1.950000e-01
     vertex -7.652755e-01 -5.764604e-01  1.950000e-01
   endloop
 endfacet
 facet normal  0.000000e+00  0.000000e+00  1.000000e+00
   outer loop
     vertex -7.968488e-01  6.094034e-01  1.950000e-01
     vertex -7.824641e-01 -5.915883e-01  1.950000e-01
     vertex -7.824641e-01  5.915883e-01  1.950000e-01
   endloop
 endfacet
 facet normal  0.000000e+00  0.000000e+00  1.000000e+00
   outer loop
     vertex -7.968488e-01  6.094034e-01  1.950000e-01
     vertex -7.968488e-01 -6.094034e-01  1.950000e-01
     vertex -7.824641e-01 -5.915883e-01  1.950000e-01
   endloop
 endfacet
 facet normal  0.000000e+00  0.000000e+00  1.000000e+00
   outer loop
     vertex -7.457775e-01  5.644550e-01  1.950000e-01
     vertex -7.652755e-01 -5.764604e-01  1.950000e-01
     vertex -7.457775e-01 -5.644550e-01  1.950000e-01
   endloop
 endfacet
 facet normal  0.000000e+00  0.000000e+00  1.000000e+00
   outer loop
     vertex -7.457775e-01  5.644550e-01  1.950000e-01
     vertex -7.652755e-01  5.764604e-01  1.950000e-01
     vertex -7.652755e-01 -5.764604e-01  1.950000e-01
   endloop
 endfacet
 facet normal  0.000000e+00  0.000000e+00  1.000000e+00
   outer loop
     vertex -8.080158e-01  6.293933e-01  1.950000e-01
     vertex -8.080158e-01 -6.293933e-01  1.950000e-01
     vertex -7.968488e-01 -6.094034e-01  1.950000e-01
   endloop
 endfacet
 facet normal  0.000000e+00  0.000000e+00  1.000000e+00
   outer loop
     vertex -8.080158e-01  6.293933e-01  1.950000e-01
     vertex -7.968488e-01 -6.094034e-01  1.950000e-01
     vertex -7.968488e-01  6.094034e-01  1.950000e-01
   endloop
 endfacet
 facet normal  0.000000e+00  0.000000e+00  1.000000e+00
   outer loop
     vertex -7.245311e-01  5.559175e-01  1.950000e-01
     vertex -7.457775e-01 -5.644550e-01  1.950000e-01
     vertex -7.245311e-01 -5.559175e-01  1.950000e-01
   endloop
 endfacet
 facet normal  0.000000e+00  0.000000e+00  1.000000e+00
   outer loop
     vertex -7.245311e-01  5.559175e-01  1.950000e-01
     vertex -7.457775e-01  5.644550e-01  1.950000e-01
     vertex -7.457775e-01 -5.644550e-01  1.950000e-01
   endloop
 endfacet
 facet normal  0.000000e+00  0.000000e+00  1.000000e+00
   outer loop
     vertex -7.021474e-01  5.510934e-01  1.950000e-01
     vertex -7.245311e-01 -5.559175e-01  1.950000e-01
     vertex -7.021474e-01 -5.510934e-01  1.950000e-01
   endloop
 endfacet
 facet normal  0.000000e+00  0.000000e+00  1.000000e+00
   outer loop
     vertex -7.021474e-01  5.510934e-01  1.950000e-01
     vertex -7.245311e-01  5.559175e-01  1.950000e-01
     vertex -7.245311e-01 -5.559175e-01  1.950000e-01
   endloop
 endfacet
 facet normal  0.000000e+00  0.000000e+00  1.000000e+00
   outer loop
     vertex -6.792704e-01  5.501216e-01  1.950000e-01
     vertex -7.021474e-01 -5.510934e-01  1.950000e-01
     vertex -6.792704e-01 -5.501216e-01  1.950000e-01
   endloop
 endfacet
 facet normal  0.000000e+00  0.000000e+00  1.000000e+00
   outer loop
     vertex -6.792704e-01  5.501216e-01  1.950000e-01
     vertex -7.021474e-01  5.510934e-01  1.950000e-01
     vertex -7.021474e-01 -5.510934e-01  1.950000e-01
   endloop
 endfacet
 facet normal  0.000000e+00  0.000000e+00  1.000000e+00
   outer loop
     vertex -6.565583e-01  5.530300e-01  1.950000e-01
     vertex -6.792704e-01 -5.501216e-01  1.950000e-01
     vertex -6.565583e-01 -5.530300e-01  1.950000e-01
   endloop
 endfacet
 facet normal  0.000000e+00  0.000000e+00  1.000000e+00
   outer loop
     vertex -6.565583e-01  5.530300e-01  1.950000e-01
     vertex -6.792704e-01  5.501216e-01  1.950000e-01
     vertex -6.792704e-01 -5.501216e-01  1.950000e-01
   endloop
 endfacet
 facet normal  0.000000e+00  0.000000e+00  1.000000e+00
   outer loop
     vertex -6.346644e-01  5.597350e-01  1.950000e-01
     vertex -6.565583e-01 -5.530300e-01  1.950000e-01
     vertex -6.346644e-01 -5.597350e-01  1.950000e-01
   endloop
 endfacet
 facet normal  0.000000e+00  0.000000e+00  1.000000e+00
   outer loop
     vertex -6.346644e-01  5.597350e-01  1.950000e-01
     vertex -6.565583e-01  5.530300e-01  1.950000e-01
     vertex -6.565583e-01 -5.530300e-01  1.950000e-01
   endloop
 endfacet
 facet normal  0.000000e+00  0.000000e+00  1.000000e+00
   outer loop
     vertex -6.142185e-01  5.700436e-01  1.950000e-01
     vertex -6.346644e-01 -5.597350e-01  1.950000e-01
     vertex -6.142185e-01 -5.700436e-01  1.950000e-01
   endloop
 endfacet
 facet normal  0.000000e+00  0.000000e+00  1.000000e+00
   outer loop
     vertex -6.142185e-01  5.700436e-01  1.950000e-01
     vertex -6.346644e-01  5.597350e-01  1.950000e-01
     vertex -6.346644e-01 -5.597350e-01  1.950000e-01
   endloop
 endfacet
 facet normal  0.000000e+00  0.000000e+00  1.000000e+00
   outer loop
     vertex -5.958089e-01  5.836592e-01  1.950000e-01
     vertex -6.142185e-01  5.700436e-01  1.950000e-01
     vertex -6.142185e-01 -5.700436e-01  1.950000e-01
   endloop
 endfacet
 facet normal  0.000000e+00  0.000000e+00  1.000000e+00
   outer loop
     vertex -5.958089e-01  5.836592e-01  1.950000e-01
     vertex -6.142185e-01 -5.700436e-01  1.950000e-01
     vertex -5.958089e-01 -5.836592e-01  1.950000e-01
   endloop
 endfacet
 facet normal  0.000000e+00  0.000000e+00  1.000000e+00
   outer loop
     vertex  9.800000e-01 -9.800000e-01  1.950000e-01
     vertex -5.519419e-01 -6.621849e-01  1.950000e-01
     vertex -5.500000e-01 -6.850000e-01  1.950000e-01
   endloop
 endfacet
 facet normal  0.000000e+00  0.000000e+00  1.000000e+00
   outer loop
     vertex  9.800000e-01 -9.800000e-01  1.950000e-01
     vertex -5.577115e-01 -6.400261e-01  1.950000e-01
     vertex -5.519419e-01 -6.621849e-01  1.950000e-01
   endloop
 endfacet
 facet normal  0.000000e+00  0.000000e+00  1.000000e+00
   outer loop
     vertex  9.800000e-01 -9.800000e-01  1.950000e-01
     vertex -5.671431e-01 -6.191612e-01  1.950000e-01
     vertex -5.577115e-01 -6.400261e-01  1.950000e-01
   endloop
 endfacet
 facet normal  0.000000e+00  0.000000e+00  1.000000e+00
   outer loop
     vertex  9.800000e-01 -9.800000e-01  1.950000e-01
     vertex -6.142185e-01 -7.999564e-01  1.950000e-01
     vertex -6.346644e-01 -8.102650e-01  1.950000e-01
   endloop
 endfacet
 facet normal  0.000000e+00  0.000000e+00  1.000000e+00
   outer loop
     vertex  9.800000e-01 -9.800000e-01  1.950000e-01
     vertex -5.958089e-01 -7.863408e-01  1.950000e-01
     vertex -6.142185e-01 -7.999564e-01  1.950000e-01
   endloop
 endfacet
 facet normal  0.000000e+00  0.000000e+00  1.000000e+00
   outer loop
     vertex  9.800000e-01 -9.800000e-01  1.950000e-01
     vertex -5.799652e-01 -7.698097e-01  1.950000e-01
     vertex -5.958089e-01 -7.863408e-01  1.950000e-01
   endloop
 endfacet
 facet normal  0.000000e+00  0.000000e+00  1.000000e+00
   outer loop
     vertex  9.800000e-01 -9.800000e-01  1.950000e-01
     vertex -5.671431e-01 -7.508388e-01  1.950000e-01
     vertex -5.799652e-01 -7.698097e-01  1.950000e-01
   endloop
 endfacet
 facet normal  0.000000e+00  0.000000e+00  1.000000e+00
   outer loop
     vertex  9.800000e-01 -9.800000e-01  1.950000e-01
     vertex -5.577115e-01 -7.299739e-01  1.950000e-01
     vertex -5.671431e-01 -7.508388e-01  1.950000e-01
   endloop
 endfacet
 facet normal  0.000000e+00  0.000000e+00  1.000000e+00
   outer loop
     vertex  9.800000e-01 -9.800000e-01  1.950000e-01
     vertex -5.519419e-01 -7.078151e-01  1.950000e-01
     vertex -5.577115e-01 -7.299739e-01  1.950000e-01
   endloop
 endfacet
 facet normal  0.000000e+00  0.000000e+00  1.000000e+00
   outer loop
     vertex  9.800000e-01 -9.800000e-01  1.950000e-01
     vertex -5.500000e-01 -6.850000e-01  1.950000e-01
     vertex -5.519419e-01 -7.078151e-01  1.950000e-01
   endloop
 endfacet
 facet normal  0.000000e+00  0.000000e+00  1.000000e+00
   outer loop
     vertex  9.800000e-01 -9.800000e-01  1.950000e-01
     vertex -6.346644e-01 -8.102650e-01  1.950000e-01
     vertex -9.800000e-01 -9.800000e-01  1.950000e-01
   endloop
 endfacet
 facet normal  0.000000e+00  0.000000e+00  1.000000e+00
   outer loop
     vertex -9.800000e-01  9.800000e-01  1.950000e-01
     vertex -9.800000e-01 -9.800000e-01  1.950000e-01
     vertex -8.080158e-01 -6.293933e-01  1.950000e-01
   endloop
 endfacet
 facet normal  0.000000e+00  0.000000e+00  1.000000e+00
   outer loop
     vertex -9.800000e-01  9.800000e-01  1.950000e-01
     vertex -7.968488e-01  7.605966e-01  1.950000e-01
     vertex -7.824641e-01  7.784117e-01  1.950000e-01
   endloop
 endfacet
 facet normal  0.000000e+00  0.000000e+00  1.000000e+00
   outer loop
     vertex -9.800000e-01  9.800000e-01  1.950000e-01
     vertex -8.080158e-01  7.406067e-01  1.950000e-01
     vertex -7.968488e-01  7.605966e-01  1.950000e-01
   endloop
 endfacet
 facet normal  0.000000e+00  0.000000e+00  1.000000e+00
   outer loop
     vertex -9.800000e-01  9.800000e-01  1.950000e-01
     vertex -8.156439e-01  7.190170e-01  1.950000e-01
     vertex -8.080158e-01  7.406067e-01  1.950000e-01
   endloop
 endfacet
 facet normal  0.000000e+00  0.000000e+00  1.000000e+00
   outer loop
     vertex -9.800000e-01  9.800000e-01  1.950000e-01
     vertex -8.195137e-01  6.964488e-01  1.950000e-01
     vertex -8.156439e-01  7.190170e-01  1.950000e-01
   endloop
 endfacet
 facet normal  0.000000e+00  0.000000e+00  1.000000e+00
   outer loop
     vertex -9.800000e-01  9.800000e-01  1.950000e-01
     vertex -8.195137e-01  6.735512e-01  1.950000e-01
     vertex -8.195137e-01  6.964488e-01  1.950000e-01
   endloop
 endfacet
 facet normal  0.000000e+00  0.000000e+00  1.000000e+00
   outer loop
     vertex -9.800000e-01  9.800000e-01  1.950000e-01
     vertex -8.156439e-01  6.509830e-01  1.950000e-01
     vertex -8.195137e-01  6.735512e-01  1.950000e-01
   endloop
 endfacet
 facet normal  0.000000e+00  0.000000e+00  1.000000e+00
   outer loop
     vertex -9.800000e-01  9.800000e-01  1.950000e-01
     vertex -8.080158e-01  6.293933e-01  1.950000e-01
     vertex -8.156439e-01  6.509830e-01  1.950000e-01
   endloop
 endfacet
 facet normal  0.000000e+00  0.000000e+00  1.000000e+00
   outer loop
     vertex -9.800000e-01  9.800000e-01  1.950000e-01
     vertex -8.080158e-01 -6.293933e-01  1.950000e-01
     vertex -8.080158e-01  6.293933e-01  1.950000e-01
   endloop
 endfacet
 facet normal  0.000000e+00  0.000000e+00  1.000000e+00
   outer loop
     vertex -5.799652e-01  6.001903e-01  1.950000e-01
     vertex -5.958089e-01 -5.836592e-01  1.950000e-01
     vertex -5.799652e-01 -6.001903e-01  1.950000e-01
   endloop
 endfacet
 facet normal  0.000000e+00  0.000000e+00  1.000000e+00
   outer loop
     vertex -5.799652e-01  6.001903e-01  1.950000e-01
     vertex -5.958089e-01  5.836592e-01  1.950000e-01
     vertex -5.958089e-01 -5.836592e-01  1.950000e-01
   endloop
 endfacet
 facet normal  0.000000e+00  0.000000e+00  1.000000e+00
   outer loop
     vertex -7.652755e-01  7.935396e-01  1.950000e-01
     vertex -9.800000e-01  9.800000e-01  1.950000e-01
     vertex -7.824641e-01  7.784117e-01  1.950000e-01
   endloop
 endfacet
 facet normal  0.000000e+00  0.000000e+00  1.000000e+00
   outer loop
     vertex -5.671431e-01  6.191612e-01  1.950000e-01
     vertex -5.799652e-01 -6.001903e-01  1.950000e-01
     vertex -5.671431e-01 -6.191612e-01  1.950000e-01
   endloop
 endfacet
 facet normal  0.000000e+00  0.000000e+00  1.000000e+00
   outer loop
     vertex -5.671431e-01  6.191612e-01  1.950000e-01
     vertex -5.799652e-01  6.001903e-01  1.950000e-01
     vertex -5.799652e-01 -6.001903e-01  1.950000e-01
   endloop
 endfacet
 facet normal  0.000000e+00  0.000000e+00  1.000000e+00
   outer loop
     vertex -7.457775e-01  8.055450e-01  1.950000e-01
     vertex -9.800000e-01  9.800000e-01  1.950000e-01
     vertex -7.652755e-01  7.935396e-01  1.950000e-01
   endloop
 endfacet
 facet normal  0.000000e+00  0.000000e+00  1.000000e+00
   outer loop
     vertex -7.245311e-01  8.140825e-01  1.950000e-01
     vertex -9.800000e-01  9.800000e-01  1.950000e-01
     vertex -7.457775e-01  8.055450e-01  1.950000e-01
   endloop
 endfacet
 facet normal  0.000000e+00  0.000000e+00  1.000000e+00
   outer loop
     vertex -7.021474e-01  8.189066e-01  1.950000e-01
     vertex -9.800000e-01  9.800000e-01  1.950000e-01
     vertex -7.245311e-01  8.140825e-01  1.950000e-01
   endloop
 endfacet
 facet normal  0.000000e+00  0.000000e+00  1.000000e+00
   outer loop
     vertex -6.792704e-01  8.198784e-01  1.950000e-01
     vertex -9.800000e-01  9.800000e-01  1.950000e-01
     vertex -7.021474e-01  8.189066e-01  1.950000e-01
   endloop
 endfacet
 facet normal  0.000000e+00  0.000000e+00  1.000000e+00
   outer loop
     vertex -6.565583e-01  8.169700e-01  1.950000e-01
     vertex -9.800000e-01  9.800000e-01  1.950000e-01
     vertex -6.792704e-01  8.198784e-01  1.950000e-01
   endloop
 endfacet
 facet normal  0.000000e+00  0.000000e+00  1.000000e+00
   outer loop
     vertex  9.800000e-01  9.800000e-01  1.950000e-01
     vertex -5.671431e-01  6.191612e-01  1.950000e-01
     vertex -5.671431e-01 -6.191612e-01  1.950000e-01
   endloop
 endfacet
 facet normal  0.000000e+00  0.000000e+00  1.000000e+00
   outer loop
     vertex  9.800000e-01  9.800000e-01  1.950000e-01
     vertex -5.671431e-01 -6.191612e-01  1.950000e-01
     vertex  9.800000e-01 -9.800000e-01  1.950000e-01
   endloop
 endfacet
 facet normal  0.000000e+00  0.000000e+00  1.000000e+00
   outer loop
     vertex  9.800000e-01  9.800000e-01  1.950000e-01
     vertex -5.519419e-01  7.078151e-01  1.950000e-01
     vertex -5.500000e-01  6.850000e-01  1.950000e-01
   endloop
 endfacet
 facet normal  0.000000e+00  0.000000e+00  1.000000e+00
   outer loop
     vertex  9.800000e-01  9.800000e-01  1.950000e-01
     vertex -5.577115e-01  7.299739e-01  1.950000e-01
     vertex -5.519419e-01  7.078151e-01  1.950000e-01
   endloop
 endfacet
 facet normal  0.000000e+00  0.000000e+00  1.000000e+00
   outer loop
     vertex  9.800000e-01  9.800000e-01  1.950000e-01
     vertex -5.671431e-01  7.508388e-01  1.950000e-01
     vertex -5.577115e-01  7.299739e-01  1.950000e-01
   endloop
 endfacet
 facet normal  0.000000e+00  0.000000e+00  1.000000e+00
   outer loop
     vertex  9.800000e-01  9.800000e-01  1.950000e-01
     vertex -5.799652e-01  7.698097e-01  1.950000e-01
     vertex -5.671431e-01  7.508388e-01  1.950000e-01
   endloop
 endfacet
 facet normal  0.000000e+00  0.000000e+00  1.000000e+00
   outer loop
     vertex  9.800000e-01  9.800000e-01  1.950000e-01
     vertex -5.958089e-01  7.863408e-01  1.950000e-01
     vertex -5.799652e-01  7.698097e-01  1.950000e-01
   endloop
 endfacet
 facet normal  0.000000e+00  0.000000e+00  1.000000e+00
   outer loop
     vertex  9.800000e-01  9.800000e-01  1.950000e-01
     vertex -6.142185e-01  7.999564e-01  1.950000e-01
     vertex -5.958089e-01  7.863408e-01  1.950000e-01
   endloop
 endfacet
 facet normal  0.000000e+00  0.000000e+00  1.000000e+00
   outer loop
     vertex  9.800000e-01  9.800000e-01  1.950000e-01
     vertex -5.577115e-01  6.400261e-01  1.950000e-01
     vertex -5.671431e-01  6.191612e-01  1.950000e-01
   endloop
 endfacet
 facet normal  0.000000e+00  0.000000e+00  1.000000e+00
   outer loop
     vertex  9.800000e-01  9.800000e-01  1.950000e-01
     vertex -5.519419e-01  6.621849e-01  1.950000e-01
     vertex -5.577115e-01  6.400261e-01  1.950000e-01
   endloop
 endfacet
 facet normal  0.000000e+00  0.000000e+00  1.000000e+00
   outer loop
     vertex  9.800000e-01  9.800000e-01  1.950000e-01
     vertex -5.500000e-01  6.850000e-01  1.950000e-01
     vertex -5.519419e-01  6.621849e-01  1.950000e-01
   endloop
 endfacet
 facet normal  0.000000e+00  0.000000e+00  1.000000e+00
   outer loop
     vertex  9.800000e-01  9.800000e-01  1.950000e-01
     vertex -9.800000e-01  9.800000e-01  1.950000e-01
     vertex -6.565583e-01  8.169700e-01  1.950000e-01
   endloop
 endfacet
 facet normal  0.000000e+00  0.000000e+00  1.000000e+00
   outer loop
     vertex  9.800000e-01  9.800000e-01  1.950000e-01
     vertex -6.565583e-01  8.169700e-01  1.950000e-01
     vertex -6.346644e-01  8.102650e-01  1.950000e-01
   endloop
 endfacet
 facet normal  0.000000e+00  0.000000e+00  1.000000e+00
   outer loop
     vertex  9.800000e-01  9.800000e-01  1.950000e-01
     vertex -6.346644e-01  8.102650e-01  1.950000e-01
     vertex -6.142185e-01  7.999564e-01  1.950000e-01
   endloop
 endfacet
endsolid
