solid 
 facet normal -1.000000e+00  0.000000e+00  0.000000e+00
   outer loop
     vertex  0.000000e+00  9.800000e-01  0.000000e+00
     vertex  0.000000e+00  0.000000e+00  0.000000e+00
     vertex  0.000000e+00  0.000000e+00  4.900000e-01
   endloop
 endfacet
 facet normal -1.000000e+00  0.000000e+00  0.000000e+00
   outer loop
     vertex  0.000000e+00  9.800000e-01  0.000000e+00
     vertex  0.000000e+00  0.000000e+00  4.900000e-01
     vertex  0.000000e+00  9.800000e-01  4.900000e-01
   endloop
 endfacet
 facet normal  0.000000e+00 -1.000000e+00  0.000000e+00
   outer loop
     vertex  9.800000e-01  0.000000e+00  0.000000e+00
     vertex  0.000000e+00  0.000000e+00  4.900000e-01
     vertex  0.000000e+00  0.000000e+00  0.000000e+00
   endloop
 endfacet
 facet normal  0.000000e+00 -1.000000e+00  0.000000e+00
   outer loop
     vertex  9.800000e-01  0.000000e+00  0.000000e+00
     vertex  9.800000e-01  0.000000e+00  4.900000e-01
     vertex  0.000000e+00  0.000000e+00  4.900000e-01
   endloop
 endfacet
 facet normal  0.000000e+00  1.000000e+00  0.000000e+00
   outer loop
     vertex  9.800000e-01  9.800000e-01  0.000000e+00
     vertex  0.000000e+00  9.800000e-01  0.000000e+00
     vertex  0.000000e+00  9.800000e-01  4.900000e-01
   endloop
 endfacet
 facet normal  0.000000e+00  1.000000e+00 -0.000000e+00
   outer loop
     vertex  9.800000e-01  9.800000e-01  0.000000e+00
     vertex  0.000000e+00  9.800000e-01  4.900000e-01
     vertex  9.800000e-01  9.800000e-01  4.900000e-01
   endloop
 endfacet
 facet normal  1.000000e+00  0.000000e+00  0.000000e+00
   outer loop
     vertex  9.800000e-01  0.000000e+00  0.000000e+00
     vertex  9.800000e-01  9.800000e-01  0.000000e+00
     vertex  9.800000e-01  9.800000e-01  4.900000e-01
   endloop
 endfacet
 facet normal  1.000000e+00  0.000000e+00  0.000000e+00
   outer loop
     vertex  9.800000e-01  0.000000e+00  0.000000e+00
     vertex  9.800000e-01  9.800000e-01  4.900000e-01
     vertex  9.800000e-01  0.000000e+00  4.900000e-01
   endloop
 endfacet
 facet normal -9.980267e-01 -6.279052e-02  0.000000e+00
   outer loop
     vertex  7.330681e-01  5.207066e-01  0.000000e+00
     vertex  7.350000e-01  4.900000e-01  0.000000e+00
     vertex  7.350000e-01  4.900000e-01  4.900000e-01
   endloop
 endfacet
 facet normal -9.980267e-01 -6.279052e-02  0.000000e+00
   outer loop
     vertex  7.330681e-01  5.207066e-01  0.000000e+00
     vertex  7.350000e-01  4.900000e-01  4.900000e-01
     vertex  7.330681e-01  5.207066e-01  4.900000e-01
   endloop
 endfacet
 facet normal -9.822873e-01 -1.873813e-01  0.000000e+00
   outer loop
     vertex  7.273029e-01  5.509290e-01  0.000000e+00
     vertex  7.330681e-01  5.207066e-01  4.900000e-01
     vertex  7.273029e-01  5.509290e-01  4.900000e-01
   endloop
 endfacet
 facet normal -9.822873e-01 -1.873813e-01  0.000000e+00
   outer loop
     vertex  7.273029e-01  5.509290e-01  0.000000e+00
     vertex  7.330681e-01  5.207066e-01  0.000000e+00
     vertex  7.330681e-01  5.207066e-01  4.900000e-01
   endloop
 endfacet
 facet normal -9.510565e-01 -3.090170e-01  0.000000e+00
   outer loop
     vertex  7.177952e-01  5.801905e-01  0.000000e+00
     vertex  7.273029e-01  5.509290e-01  4.900000e-01
     vertex  7.177952e-01  5.801905e-01  4.900000e-01
   endloop
 endfacet
 facet normal -9.510565e-01 -3.090170e-01  0.000000e+00
   outer loop
     vertex  7.177952e-01  5.801905e-01  0.000000e+00
     vertex  7.273029e-01  5.509290e-01  0.000000e+00
     vertex  7.273029e-01  5.509290e-01  4.900000e-01
   endloop
 endfacet
 facet normal -9.048271e-01 -4.257793e-01  0.000000e+00
   outer loop
     vertex  7.046951e-01  6.080297e-01  0.000000e+00
     vertex  7.177952e-01  5.801905e-01  4.900000e-01
     vertex  7.046951e-01  6.080297e-01  4.900000e-01
   endloop
 endfacet
 facet normal -9.048271e-01 -4.257793e-01  0.000000e+00
   outer loop
     vertex  7.046951e-01  6.080297e-01  0.000000e+00
     vertex  7.177952e-01  5.801905e-01  0.000000e+00
     vertex  7.177952e-01  5.801905e-01  4.900000e-01
   endloop
 endfacet
 facet normal -8.443279e-01 -5.358268e-01  0.000000e+00
   outer loop
     vertex  6.882092e-01  6.340074e-01  0.000000e+00
     vertex  7.046951e-01  6.080297e-01  4.900000e-01
     vertex  6.882092e-01  6.340074e-01  4.900000e-01
   endloop
 endfacet
 facet normal -8.443279e-01 -5.358268e-01  0.000000e+00
   outer loop
     vertex  6.882092e-01  6.340074e-01  0.000000e+00
     vertex  7.046951e-01  6.080297e-01  0.000000e+00
     vertex  7.046951e-01  6.080297e-01  4.900000e-01
   endloop
 endfacet
 facet normal -7.705132e-01 -6.374240e-01  0.000000e+00
   outer loop
     vertex  6.685973e-01  6.577140e-01  0.000000e+00
     vertex  6.882092e-01  6.340074e-01  4.900000e-01
     vertex  6.685973e-01  6.577140e-01  4.900000e-01
   endloop
 endfacet
 facet normal -7.705132e-01 -6.374240e-01  0.000000e+00
   outer loop
     vertex  6.685973e-01  6.577140e-01  0.000000e+00
     vertex  6.882092e-01  6.340074e-01  0.000000e+00
     vertex  6.882092e-01  6.340074e-01  4.900000e-01
   endloop
 endfacet
 facet normal -6.845471e-01 -7.289686e-01  0.000000e+00
   outer loop
     vertex  6.461689e-01  6.787757e-01  0.000000e+00
     vertex  6.685973e-01  6.577140e-01  4.900000e-01
     vertex  6.461689e-01  6.787757e-01  4.900000e-01
   endloop
 endfacet
 facet normal -6.845471e-01 -7.289686e-01  0.000000e+00
   outer loop
     vertex  6.461689e-01  6.787757e-01  0.000000e+00
     vertex  6.685973e-01  6.577140e-01  0.000000e+00
     vertex  6.685973e-01  6.577140e-01  4.900000e-01
   endloop
 endfacet
 facet normal -5.877853e-01 -8.090170e-01  0.000000e+00
   outer loop
     vertex  6.212776e-01  6.968603e-01  0.000000e+00
     vertex  6.461689e-01  6.787757e-01  4.900000e-01
     vertex  6.212776e-01  6.968603e-01  4.900000e-01
   endloop
 endfacet
 facet normal -5.877853e-01 -8.090170e-01  0.000000e+00
   outer loop
     vertex  6.212776e-01  6.968603e-01  0.000000e+00
     vertex  6.461689e-01  6.787757e-01  0.000000e+00
     vertex  6.461689e-01  6.787757e-01  4.900000e-01
   endloop
 endfacet
 facet normal -4.817537e-01 -8.763067e-01  0.000000e+00
   outer loop
     vertex  5.943159e-01  7.116826e-01  0.000000e+00
     vertex  6.212776e-01  6.968603e-01  4.900000e-01
     vertex  5.943159e-01  7.116826e-01  4.900000e-01
   endloop
 endfacet
 facet normal -4.817537e-01 -8.763067e-01  0.000000e+00
   outer loop
     vertex  5.943159e-01  7.116826e-01  0.000000e+00
     vertex  6.212776e-01  6.968603e-01  0.000000e+00
     vertex  6.212776e-01  6.968603e-01  4.900000e-01
   endloop
 endfacet
 facet normal -3.681246e-01 -9.297765e-01  0.000000e+00
   outer loop
     vertex  5.657092e-01  7.230088e-01  0.000000e+00
     vertex  5.943159e-01  7.116826e-01  4.900000e-01
     vertex  5.657092e-01  7.230088e-01  4.900000e-01
   endloop
 endfacet
 facet normal -3.681246e-01 -9.297765e-01  0.000000e+00
   outer loop
     vertex  5.657092e-01  7.230088e-01  0.000000e+00
     vertex  5.943159e-01  7.116826e-01  0.000000e+00
     vertex  5.943159e-01  7.116826e-01  4.900000e-01
   endloop
 endfacet
 facet normal -2.486899e-01 -9.685832e-01  0.000000e+00
   outer loop
     vertex  5.359084e-01  7.306604e-01  0.000000e+00
     vertex  5.657092e-01  7.230088e-01  4.900000e-01
     vertex  5.359084e-01  7.306604e-01  4.900000e-01
   endloop
 endfacet
 facet normal -2.486899e-01 -9.685832e-01  0.000000e+00
   outer loop
     vertex  5.359084e-01  7.306604e-01  0.000000e+00
     vertex  5.657092e-01  7.230088e-01  0.000000e+00
     vertex  5.657092e-01  7.230088e-01  4.900000e-01
   endloop
 endfacet
 facet normal -1.253332e-01 -9.921147e-01  0.000000e+00
   outer loop
     vertex  5.053837e-01  7.345165e-01  0.000000e+00
     vertex  5.359084e-01  7.306604e-01  4.900000e-01
     vertex  5.053837e-01  7.345165e-01  4.900000e-01
   endloop
 endfacet
 facet normal -1.253332e-01 -9.921147e-01  0.000000e+00
   outer loop
     vertex  5.053837e-01  7.345165e-01  0.000000e+00
     vertex  5.359084e-01  7.306604e-01  0.000000e+00
     vertex  5.359084e-01  7.306604e-01  4.900000e-01
   endloop
 endfacet
 facet normal  0.000000e+00 -1.000000e+00  0.000000e+00
   outer loop
     vertex  4.746163e-01  7.345165e-01  0.000000e+00
     vertex  5.053837e-01  7.345165e-01  4.900000e-01
     vertex  4.746163e-01  7.345165e-01  4.900000e-01
   endloop
 endfacet
 facet normal  0.000000e+00 -1.000000e+00  0.000000e+00
   outer loop
     vertex  4.746163e-01  7.345165e-01  0.000000e+00
     vertex  5.053837e-01  7.345165e-01  0.000000e+00
     vertex  5.053837e-01  7.345165e-01  4.900000e-01
   endloop
 endfacet
 facet normal  1.253332e-01 -9.921147e-01  0.000000e+00
   outer loop
     vertex  4.440916e-01  7.306604e-01  0.000000e+00
     vertex  4.746163e-01  7.345165e-01  4.900000e-01
     vertex  4.440916e-01  7.306604e-01  4.900000e-01
   endloop
 endfacet
 facet normal  1.253332e-01 -9.921147e-01  0.000000e+00
   outer loop
     vertex  4.440916e-01  7.306604e-01  0.000000e+00
     vertex  4.746163e-01  7.345165e-01  0.000000e+00
     vertex  4.746163e-01  7.345165e-01  4.900000e-01
   endloop
 endfacet
 facet normal  2.486899e-01 -9.685832e-01  0.000000e+00
   outer loop
     vertex  4.142908e-01  7.230088e-01  0.000000e+00
     vertex  4.440916e-01  7.306604e-01  4.900000e-01
     vertex  4.142908e-01  7.230088e-01  4.900000e-01
   endloop
 endfacet
 facet normal  2.486899e-01 -9.685832e-01  0.000000e+00
   outer loop
     vertex  4.142908e-01  7.230088e-01  0.000000e+00
     vertex  4.440916e-01  7.306604e-01  0.000000e+00
     vertex  4.440916e-01  7.306604e-01  4.900000e-01
   endloop
 endfacet
 facet normal  3.681246e-01 -9.297765e-01  0.000000e+00
   outer loop
     vertex  3.856841e-01  7.116826e-01  0.000000e+00
     vertex  4.142908e-01  7.230088e-01  4.900000e-01
     vertex  3.856841e-01  7.116826e-01  4.900000e-01
   endloop
 endfacet
 facet normal  3.681246e-01 -9.297765e-01  0.000000e+00
   outer loop
     vertex  3.856841e-01  7.116826e-01  0.000000e+00
     vertex  4.142908e-01  7.230088e-01  0.000000e+00
     vertex  4.142908e-01  7.230088e-01  4.900000e-01
   endloop
 endfacet
 facet normal  4.817537e-01 -8.763067e-01  0.000000e+00
   outer loop
     vertex  3.587224e-01  6.968603e-01  0.000000e+00
     vertex  3.856841e-01  7.116826e-01  4.900000e-01
     vertex  3.587224e-01  6.968603e-01  4.900000e-01
   endloop
 endfacet
 facet normal  5.877853e-01 -8.090170e-01  0.000000e+00
   outer loop
     vertex  3.587224e-01  6.968603e-01  0.000000e+00
     vertex  3.587224e-01  6.968603e-01  4.900000e-01
     vertex  3.338311e-01  6.787757e-01  4.900000e-01
   endloop
 endfacet
 facet normal  4.817537e-01 -8.763067e-01  0.000000e+00
   outer loop
     vertex  3.587224e-01  6.968603e-01  0.000000e+00
     vertex  3.856841e-01  7.116826e-01  0.000000e+00
     vertex  3.856841e-01  7.116826e-01  4.900000e-01
   endloop
 endfacet
 facet normal  5.877853e-01 -8.090170e-01  0.000000e+00
   outer loop
     vertex  3.338311e-01  6.787757e-01  0.000000e+00
     vertex  3.587224e-01  6.968603e-01  0.000000e+00
     vertex  3.338311e-01  6.787757e-01  4.900000e-01
   endloop
 endfacet
 facet normal  6.845471e-01 -7.289686e-01  0.000000e+00
   outer loop
     vertex  3.114027e-01  6.577140e-01  0.000000e+00
     vertex  3.338311e-01  6.787757e-01  4.900000e-01
     vertex  3.114027e-01  6.577140e-01  4.900000e-01
   endloop
 endfacet
 facet normal  6.845471e-01 -7.289686e-01  0.000000e+00
   outer loop
     vertex  3.114027e-01  6.577140e-01  0.000000e+00
     vertex  3.338311e-01  6.787757e-01  0.000000e+00
     vertex  3.338311e-01  6.787757e-01  4.900000e-01
   endloop
 endfacet
 facet normal  7.705132e-01 -6.374240e-01  0.000000e+00
   outer loop
     vertex  2.917908e-01  6.340074e-01  0.000000e+00
     vertex  3.114027e-01  6.577140e-01  4.900000e-01
     vertex  2.917908e-01  6.340074e-01  4.900000e-01
   endloop
 endfacet
 facet normal  7.705132e-01 -6.374240e-01  0.000000e+00
   outer loop
     vertex  2.917908e-01  6.340074e-01  0.000000e+00
     vertex  3.114027e-01  6.577140e-01  0.000000e+00
     vertex  3.114027e-01  6.577140e-01  4.900000e-01
   endloop
 endfacet
 facet normal  8.443279e-01 -5.358268e-01  0.000000e+00
   outer loop
     vertex  2.753049e-01  6.080297e-01  0.000000e+00
     vertex  2.917908e-01  6.340074e-01  4.900000e-01
     vertex  2.753049e-01  6.080297e-01  4.900000e-01
   endloop
 endfacet
 facet normal  9.048271e-01 -4.257793e-01  0.000000e+00
   outer loop
     vertex  2.753049e-01  6.080297e-01  0.000000e+00
     vertex  2.753049e-01  6.080297e-01  4.900000e-01
     vertex  2.622048e-01  5.801905e-01  4.900000e-01
   endloop
 endfacet
 facet normal  8.443279e-01 -5.358268e-01  0.000000e+00
   outer loop
     vertex  2.753049e-01  6.080297e-01  0.000000e+00
     vertex  2.917908e-01  6.340074e-01  0.000000e+00
     vertex  2.917908e-01  6.340074e-01  4.900000e-01
   endloop
 endfacet
 facet normal  9.048271e-01 -4.257793e-01  0.000000e+00
   outer loop
     vertex  2.622048e-01  5.801905e-01  0.000000e+00
     vertex  2.753049e-01  6.080297e-01  0.000000e+00
     vertex  2.622048e-01  5.801905e-01  4.900000e-01
   endloop
 endfacet
 facet normal  9.510565e-01 -3.090170e-01  0.000000e+00
   outer loop
     vertex  2.526971e-01  5.509290e-01  0.000000e+00
     vertex  2.622048e-01  5.801905e-01  4.900000e-01
     vertex  2.526971e-01  5.509290e-01  4.900000e-01
   endloop
 endfacet
 facet normal  9.510565e-01 -3.090170e-01  0.000000e+00
   outer loop
     vertex  2.526971e-01  5.509290e-01  0.000000e+00
     vertex  2.622048e-01  5.801905e-01  0.000000e+00
     vertex  2.622048e-01  5.801905e-01  4.900000e-01
   endloop
 endfacet
 facet normal  9.822873e-01 -1.873813e-01  0.000000e+00
   outer loop
     vertex  2.469319e-01  5.207066e-01  0.000000e+00
     vertex  2.526971e-01  5.509290e-01  4.900000e-01
     vertex  2.469319e-01  5.207066e-01  4.900000e-01
   endloop
 endfacet
 facet normal  9.822873e-01 -1.873813e-01  0.000000e+00
   outer loop
     vertex  2.469319e-01  5.207066e-01  0.000000e+00
     vertex  2.526971e-01  5.509290e-01  0.000000e+00
     vertex  2.526971e-01  5.509290e-01  4.900000e-01
   endloop
 endfacet
 facet normal  9.980267e-01 -6.279052e-02  0.000000e+00
   outer loop
     vertex  2.450000e-01  4.900000e-01  0.000000e+00
     vertex  2.469319e-01  5.207066e-01  0.000000e+00
     vertex  2.469319e-01  5.207066e-01  4.900000e-01
   endloop
 endfacet
 facet normal  9.980267e-01 -6.279052e-02  0.000000e+00
   outer loop
     vertex  2.450000e-01  4.900000e-01  0.000000e+00
     vertex  2.469319e-01  5.207066e-01  4.900000e-01
     vertex  2.450000e-01  4.900000e-01  4.900000e-01
   endloop
 endfacet
 facet normal  9.980267e-01  6.279052e-02  0.000000e+00
   outer loop
     vertex  2.469319e-01  4.592934e-01  0.000000e+00
     vertex  2.450000e-01  4.900000e-01  0.000000e+00
     vertex  2.450000e-01  4.900000e-01  4.900000e-01
   endloop
 endfacet
 facet normal  9.980267e-01  6.279052e-02 -0.000000e+00
   outer loop
     vertex  2.469319e-01  4.592934e-01  0.000000e+00
     vertex  2.450000e-01  4.900000e-01  4.900000e-01
     vertex  2.469319e-01  4.592934e-01  4.900000e-01
   endloop
 endfacet
 facet normal  9.822873e-01  1.873813e-01  0.000000e+00
   outer loop
     vertex  2.526971e-01  4.290710e-01  0.000000e+00
     vertex  2.469319e-01  4.592934e-01  0.000000e+00
     vertex  2.469319e-01  4.592934e-01  4.900000e-01
   endloop
 endfacet
 facet normal  9.822873e-01  1.873813e-01 -0.000000e+00
   outer loop
     vertex  2.526971e-01  4.290710e-01  0.000000e+00
     vertex  2.469319e-01  4.592934e-01  4.900000e-01
     vertex  2.526971e-01  4.290710e-01  4.900000e-01
   endloop
 endfacet
 facet normal  9.510565e-01  3.090170e-01 -0.000000e+00
   outer loop
     vertex  2.526971e-01  4.290710e-01  0.000000e+00
     vertex  2.526971e-01  4.290710e-01  4.900000e-01
     vertex  2.622048e-01  3.998095e-01  4.900000e-01
   endloop
 endfacet
 facet normal  9.510565e-01  3.090170e-01 -0.000000e+00
   outer loop
     vertex  2.622048e-01  3.998095e-01  0.000000e+00
     vertex  2.526971e-01  4.290710e-01  0.000000e+00
     vertex  2.622048e-01  3.998095e-01  4.900000e-01
   endloop
 endfacet
 facet normal  9.048271e-01  4.257793e-01  0.000000e+00
   outer loop
     vertex  2.753049e-01  3.719703e-01  0.000000e+00
     vertex  2.622048e-01  3.998095e-01  0.000000e+00
     vertex  2.622048e-01  3.998095e-01  4.900000e-01
   endloop
 endfacet
 facet normal  9.048271e-01  4.257793e-01 -0.000000e+00
   outer loop
     vertex  2.753049e-01  3.719703e-01  0.000000e+00
     vertex  2.622048e-01  3.998095e-01  4.900000e-01
     vertex  2.753049e-01  3.719703e-01  4.900000e-01
   endloop
 endfacet
 facet normal  8.443279e-01  5.358268e-01 -0.000000e+00
   outer loop
     vertex  2.753049e-01  3.719703e-01  0.000000e+00
     vertex  2.753049e-01  3.719703e-01  4.900000e-01
     vertex  2.917908e-01  3.459926e-01  4.900000e-01
   endloop
 endfacet
 facet normal  8.443279e-01  5.358268e-01 -0.000000e+00
   outer loop
     vertex  2.917908e-01  3.459926e-01  0.000000e+00
     vertex  2.753049e-01  3.719703e-01  0.000000e+00
     vertex  2.917908e-01  3.459926e-01  4.900000e-01
   endloop
 endfacet
 facet normal  7.705132e-01  6.374240e-01  0.000000e+00
   outer loop
     vertex  3.114027e-01  3.222860e-01  0.000000e+00
     vertex  2.917908e-01  3.459926e-01  0.000000e+00
     vertex  2.917908e-01  3.459926e-01  4.900000e-01
   endloop
 endfacet
 facet normal  7.705132e-01  6.374240e-01 -0.000000e+00
   outer loop
     vertex  3.114027e-01  3.222860e-01  0.000000e+00
     vertex  2.917908e-01  3.459926e-01  4.900000e-01
     vertex  3.114027e-01  3.222860e-01  4.900000e-01
   endloop
 endfacet
 facet normal  6.845471e-01  7.289686e-01 -0.000000e+00
   outer loop
     vertex  3.338311e-01  3.012243e-01  0.000000e+00
     vertex  3.114027e-01  3.222860e-01  4.900000e-01
     vertex  3.338311e-01  3.012243e-01  4.900000e-01
   endloop
 endfacet
 facet normal  6.845471e-01  7.289686e-01  0.000000e+00
   outer loop
     vertex  3.338311e-01  3.012243e-01  0.000000e+00
     vertex  3.114027e-01  3.222860e-01  0.000000e+00
     vertex  3.114027e-01  3.222860e-01  4.900000e-01
   endloop
 endfacet
 facet normal  5.877853e-01  8.090170e-01 -0.000000e+00
   outer loop
     vertex  3.338311e-01  3.012243e-01  0.000000e+00
     vertex  3.338311e-01  3.012243e-01  4.900000e-01
     vertex  3.587224e-01  2.831397e-01  4.900000e-01
   endloop
 endfacet
 facet normal  5.877853e-01  8.090170e-01 -0.000000e+00
   outer loop
     vertex  3.587224e-01  2.831397e-01  0.000000e+00
     vertex  3.338311e-01  3.012243e-01  0.000000e+00
     vertex  3.587224e-01  2.831397e-01  4.900000e-01
   endloop
 endfacet
 facet normal  4.817537e-01  8.763067e-01 -0.000000e+00
   outer loop
     vertex  3.856841e-01  2.683174e-01  0.000000e+00
     vertex  3.587224e-01  2.831397e-01  4.900000e-01
     vertex  3.856841e-01  2.683174e-01  4.900000e-01
   endloop
 endfacet
 facet normal  4.817537e-01  8.763067e-01  0.000000e+00
   outer loop
     vertex  3.856841e-01  2.683174e-01  0.000000e+00
     vertex  3.587224e-01  2.831397e-01  0.000000e+00
     vertex  3.587224e-01  2.831397e-01  4.900000e-01
   endloop
 endfacet
 facet normal  3.681246e-01  9.297765e-01 -0.000000e+00
   outer loop
     vertex  4.142908e-01  2.569912e-01  0.000000e+00
     vertex  3.856841e-01  2.683174e-01  4.900000e-01
     vertex  4.142908e-01  2.569912e-01  4.900000e-01
   endloop
 endfacet
 facet normal  3.681246e-01  9.297765e-01  0.000000e+00
   outer loop
     vertex  4.142908e-01  2.569912e-01  0.000000e+00
     vertex  3.856841e-01  2.683174e-01  0.000000e+00
     vertex  3.856841e-01  2.683174e-01  4.900000e-01
   endloop
 endfacet
 facet normal  2.486899e-01  9.685832e-01 -0.000000e+00
   outer loop
     vertex  4.440916e-01  2.493396e-01  0.000000e+00
     vertex  4.142908e-01  2.569912e-01  4.900000e-01
     vertex  4.440916e-01  2.493396e-01  4.900000e-01
   endloop
 endfacet
 facet normal  2.486899e-01  9.685832e-01  0.000000e+00
   outer loop
     vertex  4.440916e-01  2.493396e-01  0.000000e+00
     vertex  4.142908e-01  2.569912e-01  0.000000e+00
     vertex  4.142908e-01  2.569912e-01  4.900000e-01
   endloop
 endfacet
 facet normal  1.253332e-01  9.921147e-01 -0.000000e+00
   outer loop
     vertex  4.746163e-01  2.454835e-01  0.000000e+00
     vertex  4.440916e-01  2.493396e-01  4.900000e-01
     vertex  4.746163e-01  2.454835e-01  4.900000e-01
   endloop
 endfacet
 facet normal  1.253332e-01  9.921147e-01  0.000000e+00
   outer loop
     vertex  4.746163e-01  2.454835e-01  0.000000e+00
     vertex  4.440916e-01  2.493396e-01  0.000000e+00
     vertex  4.440916e-01  2.493396e-01  4.900000e-01
   endloop
 endfacet
 facet normal -2.706334e-15  1.000000e+00  0.000000e+00
   outer loop
     vertex  5.053837e-01  2.454835e-01  0.000000e+00
     vertex  4.746163e-01  2.454835e-01  4.900000e-01
     vertex  5.053837e-01  2.454835e-01  4.900000e-01
   endloop
 endfacet
 facet normal -2.706334e-15  1.000000e+00  0.000000e+00
   outer loop
     vertex  5.053837e-01  2.454835e-01  0.000000e+00
     vertex  4.746163e-01  2.454835e-01  0.000000e+00
     vertex  4.746163e-01  2.454835e-01  4.900000e-01
   endloop
 endfacet
 facet normal -1.253332e-01  9.921147e-01  0.000000e+00
   outer loop
     vertex  5.359084e-01  2.493396e-01  0.000000e+00
     vertex  5.053837e-01  2.454835e-01  4.900000e-01
     vertex  5.359084e-01  2.493396e-01  4.900000e-01
   endloop
 endfacet
 facet normal -1.253332e-01  9.921147e-01  0.000000e+00
   outer loop
     vertex  5.359084e-01  2.493396e-01  0.000000e+00
     vertex  5.053837e-01  2.454835e-01  0.000000e+00
     vertex  5.053837e-01  2.454835e-01  4.900000e-01
   endloop
 endfacet
 facet normal -2.486899e-01  9.685832e-01  0.000000e+00
   outer loop
     vertex  5.657092e-01  2.569912e-01  0.000000e+00
     vertex  5.359084e-01  2.493396e-01  4.900000e-01
     vertex  5.657092e-01  2.569912e-01  4.900000e-01
   endloop
 endfacet
 facet normal -2.486899e-01  9.685832e-01  0.000000e+00
   outer loop
     vertex  5.657092e-01  2.569912e-01  0.000000e+00
     vertex  5.359084e-01  2.493396e-01  0.000000e+00
     vertex  5.359084e-01  2.493396e-01  4.900000e-01
   endloop
 endfacet
 facet normal -3.681246e-01  9.297765e-01  0.000000e+00
   outer loop
     vertex  5.943159e-01  2.683174e-01  0.000000e+00
     vertex  5.657092e-01  2.569912e-01  4.900000e-01
     vertex  5.943159e-01  2.683174e-01  4.900000e-01
   endloop
 endfacet
 facet normal -3.681246e-01  9.297765e-01  0.000000e+00
   outer loop
     vertex  5.943159e-01  2.683174e-01  0.000000e+00
     vertex  5.657092e-01  2.569912e-01  0.000000e+00
     vertex  5.657092e-01  2.569912e-01  4.900000e-01
   endloop
 endfacet
 facet normal -4.817537e-01  8.763067e-01  0.000000e+00
   outer loop
     vertex  6.212776e-01  2.831397e-01  0.000000e+00
     vertex  5.943159e-01  2.683174e-01  4.900000e-01
     vertex  6.212776e-01  2.831397e-01  4.900000e-01
   endloop
 endfacet
 facet normal -4.817537e-01  8.763067e-01  0.000000e+00
   outer loop
     vertex  6.212776e-01  2.831397e-01  0.000000e+00
     vertex  5.943159e-01  2.683174e-01  0.000000e+00
     vertex  5.943159e-01  2.683174e-01  4.900000e-01
   endloop
 endfacet
 facet normal -5.877853e-01  8.090170e-01  0.000000e+00
   outer loop
     vertex  6.461689e-01  3.012243e-01  0.000000e+00
     vertex  6.212776e-01  2.831397e-01  4.900000e-01
     vertex  6.461689e-01  3.012243e-01  4.900000e-01
   endloop
 endfacet
 facet normal -6.845471e-01  7.289686e-01  0.000000e+00
   outer loop
     vertex  6.461689e-01  3.012243e-01  0.000000e+00
     vertex  6.461689e-01  3.012243e-01  4.900000e-01
     vertex  6.685973e-01  3.222860e-01  4.900000e-01
   endloop
 endfacet
 facet normal -5.877853e-01  8.090170e-01  0.000000e+00
   outer loop
     vertex  6.461689e-01  3.012243e-01  0.000000e+00
     vertex  6.212776e-01  2.831397e-01  0.000000e+00
     vertex  6.212776e-01  2.831397e-01  4.900000e-01
   endloop
 endfacet
 facet normal -6.845471e-01  7.289686e-01  0.000000e+00
   outer loop
     vertex  6.685973e-01  3.222860e-01  0.000000e+00
     vertex  6.461689e-01  3.012243e-01  0.000000e+00
     vertex  6.685973e-01  3.222860e-01  4.900000e-01
   endloop
 endfacet
 facet normal -7.705132e-01  6.374240e-01  0.000000e+00
   outer loop
     vertex  6.882092e-01  3.459926e-01  0.000000e+00
     vertex  6.685973e-01  3.222860e-01  4.900000e-01
     vertex  6.882092e-01  3.459926e-01  4.900000e-01
   endloop
 endfacet
 facet normal -7.705132e-01  6.374240e-01  0.000000e+00
   outer loop
     vertex  6.882092e-01  3.459926e-01  0.000000e+00
     vertex  6.685973e-01  3.222860e-01  0.000000e+00
     vertex  6.685973e-01  3.222860e-01  4.900000e-01
   endloop
 endfacet
 facet normal -8.443279e-01  5.358268e-01  0.000000e+00
   outer loop
     vertex  7.046951e-01  3.719703e-01  0.000000e+00
     vertex  6.882092e-01  3.459926e-01  4.900000e-01
     vertex  7.046951e-01  3.719703e-01  4.900000e-01
   endloop
 endfacet
 facet normal -8.443279e-01  5.358268e-01  0.000000e+00
   outer loop
     vertex  7.046951e-01  3.719703e-01  0.000000e+00
     vertex  6.882092e-01  3.459926e-01  0.000000e+00
     vertex  6.882092e-01  3.459926e-01  4.900000e-01
   endloop
 endfacet
 facet normal -9.048271e-01  4.257793e-01  0.000000e+00
   outer loop
     vertex  7.177952e-01  3.998095e-01  0.000000e+00
     vertex  7.046951e-01  3.719703e-01  4.900000e-01
     vertex  7.177952e-01  3.998095e-01  4.900000e-01
   endloop
 endfacet
 facet normal -9.048271e-01  4.257793e-01  0.000000e+00
   outer loop
     vertex  7.177952e-01  3.998095e-01  0.000000e+00
     vertex  7.046951e-01  3.719703e-01  0.000000e+00
     vertex  7.046951e-01  3.719703e-01  4.900000e-01
   endloop
 endfacet
 facet normal -9.510565e-01  3.090170e-01  0.000000e+00
   outer loop
     vertex  7.273029e-01  4.290710e-01  0.000000e+00
     vertex  7.177952e-01  3.998095e-01  4.900000e-01
     vertex  7.273029e-01  4.290710e-01  4.900000e-01
   endloop
 endfacet
 facet normal -9.822873e-01  1.873813e-01  0.000000e+00
   outer loop
     vertex  7.273029e-01  4.290710e-01  0.000000e+00
     vertex  7.273029e-01  4.290710e-01  4.900000e-01
     vertex  7.330681e-01  4.592934e-01  4.900000e-01
   endloop
 endfacet
 facet normal -9.510565e-01  3.090170e-01  0.000000e+00
   outer loop
     vertex  7.273029e-01  4.290710e-01  0.000000e+00
     vertex  7.177952e-01  3.998095e-01  0.000000e+00
     vertex  7.177952e-01  3.998095e-01  4.900000e-01
   endloop
 endfacet
 facet normal -9.822873e-01  1.873813e-01  0.000000e+00
   outer loop
     vertex  7.330681e-01  4.592934e-01  0.000000e+00
     vertex  7.273029e-01  4.290710e-01  0.000000e+00
     vertex  7.330681e-01  4.592934e-01  4.900000e-01
   endloop
 endfacet
 facet normal -9.980267e-01  6.279052e-02  0.000000e+00
   outer loop
     vertex  7.330681e-01  4.592934e-01  0.000000e+00
     vertex  7.330681e-01  4.592934e-01  4.900000e-01
     vertex  7.350000e-01  4.900000e-01  4.900000e-01
   endloop
 endfacet
 facet normal -9.980267e-01  6.279052e-02  0.000000e+00
   outer loop
     vertex  7.350000e-01  4.900000e-01  0.000000e+00
     vertex  7.330681e-01  4.592934e-01  0.000000e+00
     vertex  7.350000e-01  4.900000e-01  4.900000e-01
   endloop
 endfacet
 facet normal -0.000000e+00  0.000000e+00 -1.000000e+00
   outer loop
     vertex  3.338311e-01  3.012243e-01  0.000000e+00
     vertex  0.000000e+00  0.000000e+00  0.000000e+00
     vertex  3.114027e-01  3.222860e-01  0.000000e+00
   endloop
 endfacet
 facet normal  0.000000e+00 -0.000000e+00 -1.000000e+00
   outer loop
     vertex  2.917908e-01  3.459926e-01  0.000000e+00
     vertex  3.114027e-01  3.222860e-01  0.000000e+00
     vertex  0.000000e+00  0.000000e+00  0.000000e+00
   endloop
 endfacet
 facet normal -0.000000e+00  0.000000e+00 -1.000000e+00
   outer loop
     vertex  3.587224e-01  2.831397e-01  0.000000e+00
     vertex  0.000000e+00  0.000000e+00  0.000000e+00
     vertex  3.338311e-01  3.012243e-01  0.000000e+00
   endloop
 endfacet
 facet normal  0.000000e+00 -0.000000e+00 -1.000000e+00
   outer loop
     vertex  2.753049e-01  3.719703e-01  0.000000e+00
     vertex  2.917908e-01  3.459926e-01  0.000000e+00
     vertex  0.000000e+00  0.000000e+00  0.000000e+00
   endloop
 endfacet
 facet normal -0.000000e+00  0.000000e+00 -1.000000e+00
   outer loop
     vertex  3.856841e-01  2.683174e-01  0.000000e+00
     vertex  0.000000e+00  0.000000e+00  0.000000e+00
     vertex  3.587224e-01  2.831397e-01  0.000000e+00
   endloop
 endfacet
 facet normal  0.000000e+00 -0.000000e+00 -1.000000e+00
   outer loop
     vertex  2.622048e-01  3.998095e-01  0.000000e+00
     vertex  2.753049e-01  3.719703e-01  0.000000e+00
     vertex  0.000000e+00  0.000000e+00  0.000000e+00
   endloop
 endfacet
 facet normal -0.000000e+00  0.000000e+00 -1.000000e+00
   outer loop
     vertex  4.142908e-01  2.569912e-01  0.000000e+00
     vertex  0.000000e+00  0.000000e+00  0.000000e+00
     vertex  3.856841e-01  2.683174e-01  0.000000e+00
   endloop
 endfacet
 facet normal  0.000000e+00 -0.000000e+00 -1.000000e+00
   outer loop
     vertex  2.526971e-01  4.290710e-01  0.000000e+00
     vertex  2.622048e-01  3.998095e-01  0.000000e+00
     vertex  0.000000e+00  0.000000e+00  0.000000e+00
   endloop
 endfacet
 facet normal -0.000000e+00  0.000000e+00 -1.000000e+00
   outer loop
     vertex  4.440916e-01  2.493396e-01  0.000000e+00
     vertex  0.000000e+00  0.000000e+00  0.000000e+00
     vertex  4.142908e-01  2.569912e-01  0.000000e+00
   endloop
 endfacet
 facet normal  0.000000e+00 -0.000000e+00 -1.000000e+00
   outer loop
     vertex  2.469319e-01  4.592934e-01  0.000000e+00
     vertex  2.526971e-01  4.290710e-01  0.000000e+00
     vertex  0.000000e+00  0.000000e+00  0.000000e+00
   endloop
 endfacet
 facet normal -0.000000e+00  0.000000e+00 -1.000000e+00
   outer loop
     vertex  4.746163e-01  2.454835e-01  0.000000e+00
     vertex  0.000000e+00  0.000000e+00  0.000000e+00
     vertex  4.440916e-01  2.493396e-01  0.000000e+00
   endloop
 endfacet
 facet normal  0.000000e+00 -0.000000e+00 -1.000000e+00
   outer loop
     vertex  2.450000e-01  4.900000e-01  0.000000e+00
     vertex  2.469319e-01  4.592934e-01  0.000000e+00
     vertex  0.000000e+00  0.000000e+00  0.000000e+00
   endloop
 endfacet
 facet normal  0.000000e+00  0.000000e+00 -1.000000e+00
   outer loop
     vertex  0.000000e+00  9.800000e-01  0.000000e+00
     vertex  3.114027e-01  6.577140e-01  0.000000e+00
     vertex  2.917908e-01  6.340074e-01  0.000000e+00
   endloop
 endfacet
 facet normal  0.000000e+00  0.000000e+00 -1.000000e+00
   outer loop
     vertex  0.000000e+00  9.800000e-01  0.000000e+00
     vertex  2.917908e-01  6.340074e-01  0.000000e+00
     vertex  2.753049e-01  6.080297e-01  0.000000e+00
   endloop
 endfacet
 facet normal  0.000000e+00  0.000000e+00 -1.000000e+00
   outer loop
     vertex  0.000000e+00  9.800000e-01  0.000000e+00
     vertex  2.753049e-01  6.080297e-01  0.000000e+00
     vertex  2.622048e-01  5.801905e-01  0.000000e+00
   endloop
 endfacet
 facet normal  0.000000e+00  0.000000e+00 -1.000000e+00
   outer loop
     vertex  0.000000e+00  9.800000e-01  0.000000e+00
     vertex  2.622048e-01  5.801905e-01  0.000000e+00
     vertex  2.526971e-01  5.509290e-01  0.000000e+00
   endloop
 endfacet
 facet normal  0.000000e+00  0.000000e+00 -1.000000e+00
   outer loop
     vertex  0.000000e+00  9.800000e-01  0.000000e+00
     vertex  2.526971e-01  5.509290e-01  0.000000e+00
     vertex  2.469319e-01  5.207066e-01  0.000000e+00
   endloop
 endfacet
 facet normal  0.000000e+00  0.000000e+00 -1.000000e+00
   outer loop
     vertex  0.000000e+00  9.800000e-01  0.000000e+00
     vertex  2.469319e-01  5.207066e-01  0.000000e+00
     vertex  2.450000e-01  4.900000e-01  0.000000e+00
   endloop
 endfacet
 facet normal  0.000000e+00  0.000000e+00 -1.000000e+00
   outer loop
     vertex  0.000000e+00  9.800000e-01  0.000000e+00
     vertex  2.450000e-01  4.900000e-01  0.000000e+00
     vertex  0.000000e+00  0.000000e+00  0.000000e+00
   endloop
 endfacet
 facet normal  0.000000e+00  0.000000e+00 -1.000000e+00
   outer loop
     vertex  9.800000e-01  0.000000e+00  0.000000e+00
     vertex  4.746163e-01  2.454835e-01  0.000000e+00
     vertex  5.053837e-01  2.454835e-01  0.000000e+00
   endloop
 endfacet
 facet normal  0.000000e+00  0.000000e+00 -1.000000e+00
   outer loop
     vertex  9.800000e-01  0.000000e+00  0.000000e+00
     vertex  5.053837e-01  2.454835e-01  0.000000e+00
     vertex  5.359084e-01  2.493396e-01  0.000000e+00
   endloop
 endfacet
 facet normal  0.000000e+00  0.000000e+00 -1.000000e+00
   outer loop
     vertex  9.800000e-01  0.000000e+00  0.000000e+00
     vertex  5.359084e-01  2.493396e-01  0.000000e+00
     vertex  5.657092e-01  2.569912e-01  0.000000e+00
   endloop
 endfacet
 facet normal  0.000000e+00  0.000000e+00 -1.000000e+00
   outer loop
     vertex  9.800000e-01  0.000000e+00  0.000000e+00
     vertex  5.657092e-01  2.569912e-01  0.000000e+00
     vertex  5.943159e-01  2.683174e-01  0.000000e+00
   endloop
 endfacet
 facet normal  0.000000e+00  0.000000e+00 -1.000000e+00
   outer loop
     vertex  9.800000e-01  0.000000e+00  0.000000e+00
     vertex  5.943159e-01  2.683174e-01  0.000000e+00
     vertex  6.212776e-01  2.831397e-01  0.000000e+00
   endloop
 endfacet
 facet normal  0.000000e+00  0.000000e+00 -1.000000e+00
   outer loop
     vertex  9.800000e-01  0.000000e+00  0.000000e+00
     vertex  6.212776e-01  2.831397e-01  0.000000e+00
     vertex  6.461689e-01  3.012243e-01  0.000000e+00
   endloop
 endfacet
 facet normal  0.000000e+00  0.000000e+00 -1.000000e+00
   outer loop
     vertex  9.800000e-01  0.000000e+00  0.000000e+00
     vertex  0.000000e+00  0.000000e+00  0.000000e+00
     vertex  4.746163e-01  2.454835e-01  0.000000e+00
   endloop
 endfacet
 facet normal  0.000000e+00 -0.000000e+00 -1.000000e+00
   outer loop
     vertex  6.685973e-01  3.222860e-01  0.000000e+00
     vertex  9.800000e-01  0.000000e+00  0.000000e+00
     vertex  6.461689e-01  3.012243e-01  0.000000e+00
   endloop
 endfacet
 facet normal -0.000000e+00  0.000000e+00 -1.000000e+00
   outer loop
     vertex  3.338311e-01  6.787757e-01  0.000000e+00
     vertex  3.114027e-01  6.577140e-01  0.000000e+00
     vertex  0.000000e+00  9.800000e-01  0.000000e+00
   endloop
 endfacet
 facet normal  0.000000e+00 -0.000000e+00 -1.000000e+00
   outer loop
     vertex  6.882092e-01  3.459926e-01  0.000000e+00
     vertex  9.800000e-01  0.000000e+00  0.000000e+00
     vertex  6.685973e-01  3.222860e-01  0.000000e+00
   endloop
 endfacet
 facet normal -0.000000e+00  0.000000e+00 -1.000000e+00
   outer loop
     vertex  3.587224e-01  6.968603e-01  0.000000e+00
     vertex  3.338311e-01  6.787757e-01  0.000000e+00
     vertex  0.000000e+00  9.800000e-01  0.000000e+00
   endloop
 endfacet
 facet normal  0.000000e+00 -0.000000e+00 -1.000000e+00
   outer loop
     vertex  7.046951e-01  3.719703e-01  0.000000e+00
     vertex  9.800000e-01  0.000000e+00  0.000000e+00
     vertex  6.882092e-01  3.459926e-01  0.000000e+00
   endloop
 endfacet
 facet normal -0.000000e+00  0.000000e+00 -1.000000e+00
   outer loop
     vertex  3.856841e-01  7.116826e-01  0.000000e+00
     vertex  3.587224e-01  6.968603e-01  0.000000e+00
     vertex  0.000000e+00  9.800000e-01  0.000000e+00
   endloop
 endfacet
 facet normal  0.000000e+00 -0.000000e+00 -1.000000e+00
   outer loop
     vertex  7.177952e-01  3.998095e-01  0.000000e+00
     vertex  9.800000e-01  0.000000e+00  0.000000e+00
     vertex  7.046951e-01  3.719703e-01  0.000000e+00
   endloop
 endfacet
 facet normal -0.000000e+00  0.000000e+00 -1.000000e+00
   outer loop
     vertex  4.142908e-01  7.230088e-01  0.000000e+00
     vertex  3.856841e-01  7.116826e-01  0.000000e+00
     vertex  0.000000e+00  9.800000e-01  0.000000e+00
   endloop
 endfacet
 facet normal  0.000000e+00 -0.000000e+00 -1.000000e+00
   outer loop
     vertex  7.273029e-01  4.290710e-01  0.000000e+00
     vertex  9.800000e-01  0.000000e+00  0.000000e+00
     vertex  7.177952e-01  3.998095e-01  0.000000e+00
   endloop
 endfacet
 facet normal -0.000000e+00  0.000000e+00 -1.000000e+00
   outer loop
     vertex  4.440916e-01  7.306604e-01  0.000000e+00
     vertex  4.142908e-01  7.230088e-01  0.000000e+00
     vertex  0.000000e+00  9.800000e-01  0.000000e+00
   endloop
 endfacet
 facet normal  0.000000e+00 -0.000000e+00 -1.000000e+00
   outer loop
     vertex  7.330681e-01  4.592934e-01  0.000000e+00
     vertex  9.800000e-01  0.000000e+00  0.000000e+00
     vertex  7.273029e-01  4.290710e-01  0.000000e+00
   endloop
 endfacet
 facet normal -0.000000e+00  0.000000e+00 -1.000000e+00
   outer loop
     vertex  4.746163e-01  7.345165e-01  0.000000e+00
     vertex  4.440916e-01  7.306604e-01  0.000000e+00
     vertex  0.000000e+00  9.800000e-01  0.000000e+00
   endloop
 endfacet
 facet normal  0.000000e+00 -0.000000e+00 -1.000000e+00
   outer loop
     vertex  7.350000e-01  4.900000e-01  0.000000e+00
     vertex  9.800000e-01  0.000000e+00  0.000000e+00
     vertex  7.330681e-01  4.592934e-01  0.000000e+00
   endloop
 endfacet
 facet normal  0.000000e+00  0.000000e+00 -1.000000e+00
   outer loop
     vertex  9.800000e-01  9.800000e-01  0.000000e+00
     vertex  7.350000e-01  4.900000e-01  0.000000e+00
     vertex  7.330681e-01  5.207066e-01  0.000000e+00
   endloop
 endfacet
 facet normal  0.000000e+00  0.000000e+00 -1.000000e+00
   outer loop
     vertex  9.800000e-01  9.800000e-01  0.000000e+00
     vertex  7.330681e-01  5.207066e-01  0.000000e+00
     vertex  7.273029e-01  5.509290e-01  0.000000e+00
   endloop
 endfacet
 facet normal  0.000000e+00  0.000000e+00 -1.000000e+00
   outer loop
     vertex  9.800000e-01  9.800000e-01  0.000000e+00
     vertex  7.273029e-01  5.509290e-01  0.000000e+00
     vertex  7.177952e-01  5.801905e-01  0.000000e+00
   endloop
 endfacet
 facet normal  0.000000e+00  0.000000e+00 -1.000000e+00
   outer loop
     vertex  9.800000e-01  9.800000e-01  0.000000e+00
     vertex  7.177952e-01  5.801905e-01  0.000000e+00
     vertex  7.046951e-01  6.080297e-01  0.000000e+00
   endloop
 endfacet
 facet normal  0.000000e+00  0.000000e+00 -1.000000e+00
   outer loop
     vertex  9.800000e-01  9.800000e-01  0.000000e+00
     vertex  7.046951e-01  6.080297e-01  0.000000e+00
     vertex  6.882092e-01  6.340074e-01  0.000000e+00
   endloop
 endfacet
 facet normal  0.000000e+00  0.000000e+00 -1.000000e+00
   outer loop
     vertex  9.800000e-01  9.800000e-01  0.000000e+00
     vertex  6.882092e-01  6.340074e-01  0.000000e+00
     vertex  6.685973e-01  6.577140e-01  0.000000e+00
   endloop
 endfacet
 facet normal  0.000000e+00  0.000000e+00 -1.000000e+00
   outer loop
     vertex  9.800000e-01  9.800000e-01  0.000000e+00
     vertex  6.685973e-01  6.577140e-01  0.000000e+00
     vertex  6.461689e-01  6.787757e-01  0.000000e+00
   endloop
 endfacet
 facet normal  0.000000e+00  0.000000e+00 -1.000000e+00
   outer loop
     vertex  9.800000e-01  9.800000e-01  0.000000e+00
     vertex  6.461689e-01  6.787757e-01  0.000000e+00
     vertex  6.212776e-01  6.968603e-01  0.000000e+00
   endloop
 endfacet
 facet normal  0.000000e+00  0.000000e+00 -1.000000e+00
   outer loop
     vertex  9.800000e-01  9.800000e-01  0.000000e+00
     vertex  6.212776e-01  6.968603e-01  0.000000e+00
     vertex  5.943159e-01  7.116826e-01  0.000000e+00
   endloop
 endfacet
 facet normal  0.000000e+00  0.000000e+00 -1.000000e+00
   outer loop
     vertex  9.800000e-01  9.800000e-01  0.000000e+00
     vertex  5.943159e-01  7.116826e-01  0.000000e+00
     vertex  5.657092e-01  7.230088e-01  0.000000e+00
   endloop
 endfacet
 facet normal  0.000000e+00  0.000000e+00 -1.000000e+00
   outer loop
     vertex  9.800000e-01  9.800000e-01  0.000000e+00
     vertex  5.657092e-01  7.230088e-01  0.000000e+00
     vertex  5.359084e-01  7.306604e-01  0.000000e+00
   endloop
 endfacet
 facet normal  0.000000e+00  0.000000e+00 -1.000000e+00
   outer loop
     vertex  9.800000e-01  9.800000e-01  0.000000e+00
     vertex  5.359084e-01  7.306604e-01  0.000000e+00
     vertex  5.053837e-01  7.345165e-01  0.000000e+00
   endloop
 endfacet
 facet normal  0.000000e+00  0.000000e+00 -1.000000e+00
   outer loop
     vertex  9.800000e-01  9.800000e-01  0.000000e+00
     vertex  5.053837e-01  7.345165e-01  0.000000e+00
     vertex  4.746163e-01  7.345165e-01  0.000000e+00
   endloop
 endfacet
 facet normal  0.000000e+00 -0.000000e+00 -1.000000e+00
   outer loop
     vertex  9.800000e-01  9.800000e-01  0.000000e+00
     vertex  9.800000e-01  0.000000e+00  0.000000e+00
     vertex  7.350000e-01  4.900000e-01  0.000000e+00
   endloop
 endfacet
 facet normal -0.000000e+00  0.000000e+00 -1.000000e+00
   outer loop
     vertex  9.800000e-01  9.800000e-01  0.000000e+00
     vertex  4.746163e-01  7.345165e-01  0.000000e+00
     vertex  0.000000e+00  9.800000e-01  0.000000e+00
   endloop
 endfacet
 facet normal  0.000000e+00  0.000000e+00  1.000000e+00
   outer loop
     vertex  3.338311e-01  3.012243e-01  4.900000e-01
     vertex  3.114027e-01  3.222860e-01  4.900000e-01
     vertex  0.000000e+00  0.000000e+00  4.900000e-01
   endloop
 endfacet
 facet normal  0.000000e+00  0.000000e+00  1.000000e+00
   outer loop
     vertex  2.917908e-01  3.459926e-01  4.900000e-01
     vertex  0.000000e+00  0.000000e+00  4.900000e-01
     vertex  3.114027e-01  3.222860e-01  4.900000e-01
   endloop
 endfacet
 facet normal  0.000000e+00  0.000000e+00  1.000000e+00
   outer loop
     vertex  3.587224e-01  2.831397e-01  4.900000e-01
     vertex  3.338311e-01  3.012243e-01  4.900000e-01
     vertex  0.000000e+00  0.000000e+00  4.900000e-01
   endloop
 endfacet
 facet normal  0.000000e+00  0.000000e+00  1.000000e+00
   outer loop
     vertex  2.753049e-01  3.719703e-01  4.900000e-01
     vertex  0.000000e+00  0.000000e+00  4.900000e-01
     vertex  2.917908e-01  3.459926e-01  4.900000e-01
   endloop
 endfacet
 facet normal  0.000000e+00  0.000000e+00  1.000000e+00
   outer loop
     vertex  3.856841e-01  2.683174e-01  4.900000e-01
     vertex  3.587224e-01  2.831397e-01  4.900000e-01
     vertex  0.000000e+00  0.000000e+00  4.900000e-01
   endloop
 endfacet
 facet normal  0.000000e+00  0.000000e+00  1.000000e+00
   outer loop
     vertex  2.622048e-01  3.998095e-01  4.900000e-01
     vertex  0.000000e+00  0.000000e+00  4.900000e-01
     vertex  2.753049e-01  3.719703e-01  4.900000e-01
   endloop
 endfacet
 facet normal  0.000000e+00  0.000000e+00  1.000000e+00
   outer loop
     vertex  4.142908e-01  2.569912e-01  4.900000e-01
     vertex  3.856841e-01  2.683174e-01  4.900000e-01
     vertex  0.000000e+00  0.000000e+00  4.900000e-01
   endloop
 endfacet
 facet normal  0.000000e+00  0.000000e+00  1.000000e+00
   outer loop
     vertex  2.526971e-01  4.290710e-01  4.900000e-01
     vertex  0.000000e+00  0.000000e+00  4.900000e-01
     vertex  2.622048e-01  3.998095e-01  4.900000e-01
   endloop
 endfacet
 facet normal  0.000000e+00  0.000000e+00  1.000000e+00
   outer loop
     vertex  4.440916e-01  2.493396e-01  4.900000e-01
     vertex  4.142908e-01  2.569912e-01  4.900000e-01
     vertex  0.000000e+00  0.000000e+00  4.900000e-01
   endloop
 endfacet
 facet normal  0.000000e+00  0.000000e+00  1.000000e+00
   outer loop
     vertex  2.469319e-01  4.592934e-01  4.900000e-01
     vertex  0.000000e+00  0.000000e+00  4.900000e-01
     vertex  2.526971e-01  4.290710e-01  4.900000e-01
   endloop
 endfacet
 facet normal  0.000000e+00  0.000000e+00  1.000000e+00
   outer loop
     vertex  4.746163e-01  2.454835e-01  4.900000e-01
     vertex  4.440916e-01  2.493396e-01  4.900000e-01
     vertex  0.000000e+00  0.000000e+00  4.900000e-01
   endloop
 endfacet
 facet normal  0.000000e+00  0.000000e+00  1.000000e+00
   outer loop
     vertex  2.450000e-01  4.900000e-01  4.900000e-01
     vertex  0.000000e+00  0.000000e+00  4.900000e-01
     vertex  2.469319e-01  4.592934e-01  4.900000e-01
   endloop
 endfacet
 facet normal  0.000000e+00  0.000000e+00  1.000000e+00
   outer loop
     vertex  0.000000e+00  9.800000e-01  4.900000e-01
     vertex  2.917908e-01  6.340074e-01  4.900000e-01
     vertex  3.114027e-01  6.577140e-01  4.900000e-01
   endloop
 endfacet
 facet normal  0.000000e+00  0.000000e+00  1.000000e+00
   outer loop
     vertex  0.000000e+00  9.800000e-01  4.900000e-01
     vertex  2.753049e-01  6.080297e-01  4.900000e-01
     vertex  2.917908e-01  6.340074e-01  4.900000e-01
   endloop
 endfacet
 facet normal  0.000000e+00  0.000000e+00  1.000000e+00
   outer loop
     vertex  0.000000e+00  9.800000e-01  4.900000e-01
     vertex  2.622048e-01  5.801905e-01  4.900000e-01
     vertex  2.753049e-01  6.080297e-01  4.900000e-01
   endloop
 endfacet
 facet normal  0.000000e+00  0.000000e+00  1.000000e+00
   outer loop
     vertex  0.000000e+00  9.800000e-01  4.900000e-01
     vertex  2.526971e-01  5.509290e-01  4.900000e-01
     vertex  2.622048e-01  5.801905e-01  4.900000e-01
   endloop
 endfacet
 facet normal  0.000000e+00  0.000000e+00  1.000000e+00
   outer loop
     vertex  0.000000e+00  9.800000e-01  4.900000e-01
     vertex  2.469319e-01  5.207066e-01  4.900000e-01
     vertex  2.526971e-01  5.509290e-01  4.900000e-01
   endloop
 endfacet
 facet normal  0.000000e+00  0.000000e+00  1.000000e+00
   outer loop
     vertex  0.000000e+00  9.800000e-01  4.900000e-01
     vertex  2.450000e-01  4.900000e-01  4.900000e-01
     vertex  2.469319e-01  5.207066e-01  4.900000e-01
   endloop
 endfacet
 facet normal  0.000000e+00  0.000000e+00  1.000000e+00
   outer loop
     vertex  0.000000e+00  9.800000e-01  4.900000e-01
     vertex  0.000000e+00  0.000000e+00  4.900000e-01
     vertex  2.450000e-01  4.900000e-01  4.900000e-01
   endloop
 endfacet
 facet normal  0.000000e+00  0.000000e+00  1.000000e+00
   outer loop
     vertex  9.800000e-01  0.000000e+00  4.900000e-01
     vertex  5.053837e-01  2.454835e-01  4.900000e-01
     vertex  4.746163e-01  2.454835e-01  4.900000e-01
   endloop
 endfacet
 facet normal  0.000000e+00  0.000000e+00  1.000000e+00
   outer loop
     vertex  9.800000e-01  0.000000e+00  4.900000e-01
     vertex  5.359084e-01  2.493396e-01  4.900000e-01
     vertex  5.053837e-01  2.454835e-01  4.900000e-01
   endloop
 endfacet
 facet normal  0.000000e+00  0.000000e+00  1.000000e+00
   outer loop
     vertex  9.800000e-01  0.000000e+00  4.900000e-01
     vertex  5.657092e-01  2.569912e-01  4.900000e-01
     vertex  5.359084e-01  2.493396e-01  4.900000e-01
   endloop
 endfacet
 facet normal  0.000000e+00  0.000000e+00  1.000000e+00
   outer loop
     vertex  9.800000e-01  0.000000e+00  4.900000e-01
     vertex  5.943159e-01  2.683174e-01  4.900000e-01
     vertex  5.657092e-01  2.569912e-01  4.900000e-01
   endloop
 endfacet
 facet normal  0.000000e+00  0.000000e+00  1.000000e+00
   outer loop
     vertex  9.800000e-01  0.000000e+00  4.900000e-01
     vertex  6.212776e-01  2.831397e-01  4.900000e-01
     vertex  5.943159e-01  2.683174e-01  4.900000e-01
   endloop
 endfacet
 facet normal  0.000000e+00  0.000000e+00  1.000000e+00
   outer loop
     vertex  9.800000e-01  0.000000e+00  4.900000e-01
     vertex  6.461689e-01  3.012243e-01  4.900000e-01
     vertex  6.212776e-01  2.831397e-01  4.900000e-01
   endloop
 endfacet
 facet normal  0.000000e+00  0.000000e+00  1.000000e+00
   outer loop
     vertex  9.800000e-01  0.000000e+00  4.900000e-01
     vertex  4.746163e-01  2.454835e-01  4.900000e-01
     vertex  0.000000e+00  0.000000e+00  4.900000e-01
   endloop
 endfacet
 facet normal  0.000000e+00  0.000000e+00  1.000000e+00
   outer loop
     vertex  6.685973e-01  3.222860e-01  4.900000e-01
     vertex  6.461689e-01  3.012243e-01  4.900000e-01
     vertex  9.800000e-01  0.000000e+00  4.900000e-01
   endloop
 endfacet
 facet normal  0.000000e+00  0.000000e+00  1.000000e+00
   outer loop
     vertex  3.338311e-01  6.787757e-01  4.900000e-01
     vertex  0.000000e+00  9.800000e-01  4.900000e-01
     vertex  3.114027e-01  6.577140e-01  4.900000e-01
   endloop
 endfacet
 facet normal  0.000000e+00  0.000000e+00  1.000000e+00
   outer loop
     vertex  6.882092e-01  3.459926e-01  4.900000e-01
     vertex  6.685973e-01  3.222860e-01  4.900000e-01
     vertex  9.800000e-01  0.000000e+00  4.900000e-01
   endloop
 endfacet
 facet normal  0.000000e+00  0.000000e+00  1.000000e+00
   outer loop
     vertex  3.587224e-01  6.968603e-01  4.900000e-01
     vertex  0.000000e+00  9.800000e-01  4.900000e-01
     vertex  3.338311e-01  6.787757e-01  4.900000e-01
   endloop
 endfacet
 facet normal  0.000000e+00  0.000000e+00  1.000000e+00
   outer loop
     vertex  7.046951e-01  3.719703e-01  4.900000e-01
     vertex  6.882092e-01  3.459926e-01  4.900000e-01
     vertex  9.800000e-01  0.000000e+00  4.900000e-01
   endloop
 endfacet
 facet normal  0.000000e+00  0.000000e+00  1.000000e+00
   outer loop
     vertex  3.856841e-01  7.116826e-01  4.900000e-01
     vertex  0.000000e+00  9.800000e-01  4.900000e-01
     vertex  3.587224e-01  6.968603e-01  4.900000e-01
   endloop
 endfacet
 facet normal  0.000000e+00  0.000000e+00  1.000000e+00
   outer loop
     vertex  7.177952e-01  3.998095e-01  4.900000e-01
     vertex  7.046951e-01  3.719703e-01  4.900000e-01
     vertex  9.800000e-01  0.000000e+00  4.900000e-01
   endloop
 endfacet
 facet normal  0.000000e+00  0.000000e+00  1.000000e+00
   outer loop
     vertex  4.142908e-01  7.230088e-01  4.900000e-01
     vertex  0.000000e+00  9.800000e-01  4.900000e-01
     vertex  3.856841e-01  7.116826e-01  4.900000e-01
   endloop
 endfacet
 facet normal  0.000000e+00  0.000000e+00  1.000000e+00
   outer loop
     vertex  7.273029e-01  4.290710e-01  4.900000e-01
     vertex  7.177952e-01  3.998095e-01  4.900000e-01
     vertex  9.800000e-01  0.000000e+00  4.900000e-01
   endloop
 endfacet
 facet normal  0.000000e+00  0.000000e+00  1.000000e+00
   outer loop
     vertex  4.440916e-01  7.306604e-01  4.900000e-01
     vertex  0.000000e+00  9.800000e-01  4.900000e-01
     vertex  4.142908e-01  7.230088e-01  4.900000e-01
   endloop
 endfacet
 facet normal  0.000000e+00  0.000000e+00  1.000000e+00
   outer loop
     vertex  7.330681e-01  4.592934e-01  4.900000e-01
     vertex  7.273029e-01  4.290710e-01  4.900000e-01
     vertex  9.800000e-01  0.000000e+00  4.900000e-01
   endloop
 endfacet
 facet normal  0.000000e+00  0.000000e+00  1.000000e+00
   outer loop
     vertex  4.746163e-01  7.345165e-01  4.900000e-01
     vertex  0.000000e+00  9.800000e-01  4.900000e-01
     vertex  4.440916e-01  7.306604e-01  4.900000e-01
   endloop
 endfacet
 facet normal  0.000000e+00  0.000000e+00  1.000000e+00
   outer loop
     vertex  7.350000e-01  4.900000e-01  4.900000e-01
     vertex  7.330681e-01  4.592934e-01  4.900000e-01
     vertex  9.800000e-01  0.000000e+00  4.900000e-01
   endloop
 endfacet
 facet normal  0.000000e+00  0.000000e+00  1.000000e+00
   outer loop
     vertex  9.800000e-01  9.800000e-01  4.900000e-01
     vertex  7.330681e-01  5.207066e-01  4.900000e-01
     vertex  7.350000e-01  4.900000e-01  4.900000e-01
   endloop
 endfacet
 facet normal  0.000000e+00  0.000000e+00  1.000000e+00
   outer loop
     vertex  9.800000e-01  9.800000e-01  4.900000e-01
     vertex  7.273029e-01  5.509290e-01  4.900000e-01
     vertex  7.330681e-01  5.207066e-01  4.900000e-01
   endloop
 endfacet
 facet normal  0.000000e+00  0.000000e+00  1.000000e+00
   outer loop
     vertex  9.800000e-01  9.800000e-01  4.900000e-01
     vertex  7.177952e-01  5.801905e-01  4.900000e-01
     vertex  7.273029e-01  5.509290e-01  4.900000e-01
   endloop
 endfacet
 facet normal  0.000000e+00  0.000000e+00  1.000000e+00
   outer loop
     vertex  9.800000e-01  9.800000e-01  4.900000e-01
     vertex  7.046951e-01  6.080297e-01  4.900000e-01
     vertex  7.177952e-01  5.801905e-01  4.900000e-01
   endloop
 endfacet
 facet normal  0.000000e+00  0.000000e+00  1.000000e+00
   outer loop
     vertex  9.800000e-01  9.800000e-01  4.900000e-01
     vertex  6.882092e-01  6.340074e-01  4.900000e-01
     vertex  7.046951e-01  6.080297e-01  4.900000e-01
   endloop
 endfacet
 facet normal  0.000000e+00  0.000000e+00  1.000000e+00
   outer loop
     vertex  9.800000e-01  9.800000e-01  4.900000e-01
     vertex  6.685973e-01  6.577140e-01  4.900000e-01
     vertex  6.882092e-01  6.340074e-01  4.900000e-01
   endloop
 endfacet
 facet normal  0.000000e+00  0.000000e+00  1.000000e+00
   outer loop
     vertex  9.800000e-01  9.800000e-01  4.900000e-01
     vertex  6.461689e-01  6.787757e-01  4.900000e-01
     vertex  6.685973e-01  6.577140e-01  4.900000e-01
   endloop
 endfacet
 facet normal  0.000000e+00  0.000000e+00  1.000000e+00
   outer loop
     vertex  9.800000e-01  9.800000e-01  4.900000e-01
     vertex  6.212776e-01  6.968603e-01  4.900000e-01
     vertex  6.461689e-01  6.787757e-01  4.900000e-01
   endloop
 endfacet
 facet normal  0.000000e+00  0.000000e+00  1.000000e+00
   outer loop
     vertex  9.800000e-01  9.800000e-01  4.900000e-01
     vertex  5.943159e-01  7.116826e-01  4.900000e-01
     vertex  6.212776e-01  6.968603e-01  4.900000e-01
   endloop
 endfacet
 facet normal  0.000000e+00  0.000000e+00  1.000000e+00
   outer loop
     vertex  9.800000e-01  9.800000e-01  4.900000e-01
     vertex  5.657092e-01  7.230088e-01  4.900000e-01
     vertex  5.943159e-01  7.116826e-01  4.900000e-01
   endloop
 endfacet
 facet normal  0.000000e+00  0.000000e+00  1.000000e+00
   outer loop
     vertex  9.800000e-01  9.800000e-01  4.900000e-01
     vertex  5.359084e-01  7.306604e-01  4.900000e-01
     vertex  5.657092e-01  7.230088e-01  4.900000e-01
   endloop
 endfacet
 facet normal  0.000000e+00  0.000000e+00  1.000000e+00
   outer loop
     vertex  9.800000e-01  9.800000e-01  4.900000e-01
     vertex  5.053837e-01  7.345165e-01  4.900000e-01
     vertex  5.359084e-01  7.306604e-01  4.900000e-01
   endloop
 endfacet
 facet normal  0.000000e+00  0.000000e+00  1.000000e+00
   outer loop
     vertex  9.800000e-01  9.800000e-01  4.900000e-01
     vertex  4.746163e-01  7.345165e-01  4.900000e-01
     vertex  5.053837e-01  7.345165e-01  4.900000e-01
   endloop
 endfacet
 facet normal  0.000000e+00  0.000000e+00  1.000000e+00
   outer loop
     vertex  9.800000e-01  9.800000e-01  4.900000e-01
     vertex  7.350000e-01  4.900000e-01  4.900000e-01
     vertex  9.800000e-01  0.000000e+00  4.900000e-01
   endloop
 endfacet
 facet normal  0.000000e+00  0.000000e+00  1.000000e+00
   outer loop
     vertex  9.800000e-01  9.800000e-01  4.900000e-01
     vertex  0.000000e+00  9.800000e-01  4.900000e-01
     vertex  4.746163e-01  7.345165e-01  4.900000e-01
   endloop
 endfacet
endsolid
