solid 
 facet normal  0.000000e+00  1.000000e+00  0.000000e+00
   outer loop
     vertex  1.094500e+01  1.502500e+01  7.000000e+00
     vertex  1.094000e+01  1.502500e+01  7.000000e+00
     vertex  1.094000e+01  1.502500e+01  8.000000e+00
   endloop
 endfacet
 facet normal  0.000000e+00  1.000000e+00 -0.000000e+00
   outer loop
     vertex  1.094500e+01  1.502500e+01  7.000000e+00
     vertex  1.094000e+01  1.502500e+01  8.000000e+00
     vertex  1.094500e+01  1.502500e+01  8.000000e+00
   endloop
 endfacet
 facet normal  1.000000e+00  0.000000e+00  0.000000e+00
   outer loop
     vertex  1.094500e+01  1.500000e+01  7.000000e+00
     vertex  1.094500e+01  1.502500e+01  7.000000e+00
     vertex  1.094500e+01  1.502500e+01  8.000000e+00
   endloop
 endfacet
 facet normal  1.000000e+00  0.000000e+00  0.000000e+00
   outer loop
     vertex  1.094500e+01  1.500000e+01  7.000000e+00
     vertex  1.094500e+01  1.502500e+01  8.000000e+00
     vertex  1.094500e+01  1.500000e+01  8.000000e+00
   endloop
 endfacet
 facet normal  0.000000e+00 -1.000000e+00  0.000000e+00
   outer loop
     vertex  1.094500e+01  1.500000e+01  7.000000e+00
     vertex  1.094000e+01  1.500000e+01  8.000000e+00
     vertex  1.094000e+01  1.500000e+01  7.000000e+00
   endloop
 endfacet
 facet normal  0.000000e+00 -1.000000e+00  0.000000e+00
   outer loop
     vertex  1.094500e+01  1.500000e+01  7.000000e+00
     vertex  1.094500e+01  1.500000e+01  8.000000e+00
     vertex  1.094000e+01  1.500000e+01  8.000000e+00
   endloop
 endfacet
 facet normal -1.000000e+00  0.000000e+00  0.000000e+00
   outer loop
     vertex  1.094000e+01  1.500000e+01  7.000000e+00
     vertex  1.094000e+01  1.502500e+01  8.000000e+00
     vertex  1.094000e+01  1.502500e+01  7.000000e+00
   endloop
 endfacet
 facet normal -1.000000e+00  0.000000e+00  0.000000e+00
   outer loop
     vertex  1.094000e+01  1.500000e+01  7.000000e+00
     vertex  1.094000e+01  1.500000e+01  8.000000e+00
     vertex  1.094000e+01  1.502500e+01  8.000000e+00
   endloop
 endfacet
 facet normal -0.000000e+00  0.000000e+00 -1.000000e+00
   outer loop
     vertex  1.094500e+01  1.502500e+01  7.000000e+00
     vertex  1.094000e+01  1.500000e+01  7.000000e+00
     vertex  1.094000e+01  1.502500e+01  7.000000e+00
   endloop
 endfacet
 facet normal  0.000000e+00 -0.000000e+00 -1.000000e+00
   outer loop
     vertex  1.094500e+01  1.502500e+01  7.000000e+00
     vertex  1.094500e+01  1.500000e+01  7.000000e+00
     vertex  1.094000e+01  1.500000e+01  7.000000e+00
   endloop
 endfacet
 facet normal  0.000000e+00  0.000000e+00  1.000000e+00
   outer loop
     vertex  1.094500e+01  1.502500e+01  8.000000e+00
     vertex  1.094000e+01  1.502500e+01  8.000000e+00
     vertex  1.094000e+01  1.500000e+01  8.000000e+00
   endloop
 endfacet
 facet normal  0.000000e+00  0.000000e+00  1.000000e+00
   outer loop
     vertex  1.094500e+01  1.502500e+01  8.000000e+00
     vertex  1.094000e+01  1.500000e+01  8.000000e+00
     vertex  1.094500e+01  1.500000e+01  8.000000e+00
   endloop
 endfacet
 facet normal  0.000000e+00 -1.000000e+00  0.000000e+00
   outer loop
     vertex  3.500000e-02  0.000000e+00  0.000000e+00
     vertex  0.000000e+00  0.000000e+00  2.500000e-02
     vertex  0.000000e+00  0.000000e+00  0.000000e+00
   endloop
 endfacet
 facet normal  0.000000e+00 -1.000000e+00  0.000000e+00
   outer loop
     vertex  3.500000e-02  0.000000e+00  0.000000e+00
     vertex  3.500000e-02  0.000000e+00  2.500000e-02
     vertex  0.000000e+00  0.000000e+00  2.500000e-02
   endloop
 endfacet
 facet normal  1.000000e+00  0.000000e+00  0.000000e+00
   outer loop
     vertex  3.500000e-02  8.500000e-02  0.000000e+00
     vertex  3.500000e-02  0.000000e+00  2.500000e-02
     vertex  3.500000e-02  0.000000e+00  0.000000e+00
   endloop
 endfacet
 facet normal  1.000000e+00  0.000000e+00 -0.000000e+00
   outer loop
     vertex  3.500000e-02  8.500000e-02  0.000000e+00
     vertex  3.500000e-02  8.500000e-02  2.500000e-02
     vertex  3.500000e-02  0.000000e+00  2.500000e-02
   endloop
 endfacet
 facet normal  0.000000e+00  1.000000e+00  0.000000e+00
   outer loop
     vertex  3.500000e-02  8.500000e-02  0.000000e+00
     vertex  0.000000e+00  8.500000e-02  0.000000e+00
     vertex  0.000000e+00  8.500000e-02  2.500000e-02
   endloop
 endfacet
 facet normal  0.000000e+00  1.000000e+00 -0.000000e+00
   outer loop
     vertex  3.500000e-02  8.500000e-02  0.000000e+00
     vertex  0.000000e+00  8.500000e-02  2.500000e-02
     vertex  3.500000e-02  8.500000e-02  2.500000e-02
   endloop
 endfacet
 facet normal -1.000000e+00  0.000000e+00  0.000000e+00
   outer loop
     vertex  0.000000e+00  8.500000e-02  0.000000e+00
     vertex  0.000000e+00  0.000000e+00  0.000000e+00
     vertex  0.000000e+00  0.000000e+00  2.500000e-02
   endloop
 endfacet
 facet normal -1.000000e+00  0.000000e+00  0.000000e+00
   outer loop
     vertex  0.000000e+00  8.500000e-02  0.000000e+00
     vertex  0.000000e+00  0.000000e+00  2.500000e-02
     vertex  0.000000e+00  8.500000e-02  2.500000e-02
   endloop
 endfacet
 facet normal  0.000000e+00 -0.000000e+00 -1.000000e+00
   outer loop
     vertex  3.500000e-02  8.500000e-02  0.000000e+00
     vertex  3.500000e-02  0.000000e+00  0.000000e+00
     vertex  0.000000e+00  0.000000e+00  0.000000e+00
   endloop
 endfacet
 facet normal -0.000000e+00  0.000000e+00 -1.000000e+00
   outer loop
     vertex  3.500000e-02  8.500000e-02  0.000000e+00
     vertex  0.000000e+00  0.000000e+00  0.000000e+00
     vertex  0.000000e+00  8.500000e-02  0.000000e+00
   endloop
 endfacet
 facet normal  0.000000e+00  0.000000e+00  1.000000e+00
   outer loop
     vertex  3.500000e-02  8.500000e-02  2.500000e-02
     vertex  0.000000e+00  0.000000e+00  2.500000e-02
     vertex  3.500000e-02  0.000000e+00  2.500000e-02
   endloop
 endfacet
 facet normal  0.000000e+00  0.000000e+00  1.000000e+00
   outer loop
     vertex  3.500000e-02  8.500000e-02  2.500000e-02
     vertex  0.000000e+00  8.500000e-02  2.500000e-02
     vertex  0.000000e+00  0.000000e+00  2.500000e-02
   endloop
 endfacet
 facet normal  0.000000e+00  0.000000e+00  1.000000e+00
   outer loop
     vertex  1.700000e+01  8.955000e+00  5.025000e+00
     vertex  1.800000e+01  9.045000e+00  5.025000e+00
     vertex  1.700000e+01  9.045000e+00  5.025000e+00
   endloop
 endfacet
 facet normal  0.000000e+00  0.000000e+00  1.000000e+00
   outer loop
     vertex  1.700000e+01  8.955000e+00  5.025000e+00
     vertex  1.800000e+01  8.955000e+00  5.025000e+00
     vertex  1.800000e+01  9.045000e+00  5.025000e+00
   endloop
 endfacet
 facet normal  0.000000e+00 -1.000000e+00  0.000000e+00
   outer loop
     vertex  1.700000e+01  8.955000e+00  5.000000e+00
     vertex  1.800000e+01  8.955000e+00  5.025000e+00
     vertex  1.700000e+01  8.955000e+00  5.025000e+00
   endloop
 endfacet
 facet normal  0.000000e+00 -1.000000e+00  0.000000e+00
   outer loop
     vertex  1.700000e+01  8.955000e+00  5.000000e+00
     vertex  1.800000e+01  8.955000e+00  5.000000e+00
     vertex  1.800000e+01  8.955000e+00  5.025000e+00
   endloop
 endfacet
 facet normal  0.000000e+00  0.000000e+00 -1.000000e+00
   outer loop
     vertex  1.700000e+01  8.955000e+00  5.000000e+00
     vertex  1.700000e+01  9.045000e+00  5.000000e+00
     vertex  1.800000e+01  9.045000e+00  5.000000e+00
   endloop
 endfacet
 facet normal  0.000000e+00  0.000000e+00 -1.000000e+00
   outer loop
     vertex  1.700000e+01  8.955000e+00  5.000000e+00
     vertex  1.800000e+01  9.045000e+00  5.000000e+00
     vertex  1.800000e+01  8.955000e+00  5.000000e+00
   endloop
 endfacet
 facet normal  0.000000e+00  1.000000e+00  0.000000e+00
   outer loop
     vertex  1.700000e+01  9.045000e+00  5.000000e+00
     vertex  1.700000e+01  9.045000e+00  5.025000e+00
     vertex  1.800000e+01  9.045000e+00  5.025000e+00
   endloop
 endfacet
 facet normal  0.000000e+00  1.000000e+00  0.000000e+00
   outer loop
     vertex  1.700000e+01  9.045000e+00  5.000000e+00
     vertex  1.800000e+01  9.045000e+00  5.025000e+00
     vertex  1.800000e+01  9.045000e+00  5.000000e+00
   endloop
 endfacet
 facet normal -1.000000e+00 -0.000000e+00  0.000000e+00
   outer loop
     vertex  1.700000e+01  9.045000e+00  5.025000e+00
     vertex  1.700000e+01  8.955000e+00  5.000000e+00
     vertex  1.700000e+01  8.955000e+00  5.025000e+00
   endloop
 endfacet
 facet normal -1.000000e+00  0.000000e+00 -0.000000e+00
   outer loop
     vertex  1.700000e+01  9.045000e+00  5.025000e+00
     vertex  1.700000e+01  9.045000e+00  5.000000e+00
     vertex  1.700000e+01  8.955000e+00  5.000000e+00
   endloop
 endfacet
 facet normal  1.000000e+00  0.000000e+00  0.000000e+00
   outer loop
     vertex  1.800000e+01  9.045000e+00  5.025000e+00
     vertex  1.800000e+01  8.955000e+00  5.025000e+00
     vertex  1.800000e+01  8.955000e+00  5.000000e+00
   endloop
 endfacet
 facet normal  1.000000e+00  0.000000e+00  0.000000e+00
   outer loop
     vertex  1.800000e+01  9.045000e+00  5.025000e+00
     vertex  1.800000e+01  8.955000e+00  5.000000e+00
     vertex  1.800000e+01  9.045000e+00  5.000000e+00
   endloop
 endfacet
endsolid
