solid 
 facet normal  0.000000e+00 -1.000000e+00  0.000000e+00
   outer loop
     vertex  0.000000e+00  0.000000e+00  5.000000e-01
     vertex  0.000000e+00  0.000000e+00  0.000000e+00
     vertex  1.000000e+00  0.000000e+00  0.000000e+00
   endloop
 endfacet
 facet normal  0.000000e+00 -1.000000e+00  0.000000e+00
   outer loop
     vertex  0.000000e+00  0.000000e+00  5.000000e-01
     vertex  1.000000e+00  0.000000e+00  0.000000e+00
     vertex  1.000000e+00  0.000000e+00  5.000000e-01
   endloop
 endfacet
 facet normal  0.000000e+00  0.000000e+00  1.000000e+00
   outer loop
     vertex  0.000000e+00  0.000000e+00  5.000000e-01
     vertex  1.000000e+00  4.500000e-01  5.000000e-01
     vertex  0.000000e+00  4.500000e-01  5.000000e-01
   endloop
 endfacet
 facet normal  0.000000e+00  0.000000e+00  1.000000e+00
   outer loop
     vertex  0.000000e+00  0.000000e+00  5.000000e-01
     vertex  1.000000e+00  0.000000e+00  5.000000e-01
     vertex  1.000000e+00  4.500000e-01  5.000000e-01
   endloop
 endfacet
 facet normal  0.000000e+00  7.071068e-01  7.071068e-01
   outer loop
     vertex  0.000000e+00  4.500000e-01  5.000000e-01
     vertex  1.000000e+00  7.500000e-01  2.000000e-01
     vertex  0.000000e+00  7.500000e-01  2.000000e-01
   endloop
 endfacet
 facet normal -0.000000e+00  7.071068e-01  7.071068e-01
   outer loop
     vertex  0.000000e+00  4.500000e-01  5.000000e-01
     vertex  1.000000e+00  4.500000e-01  5.000000e-01
     vertex  1.000000e+00  7.500000e-01  2.000000e-01
   endloop
 endfacet
 facet normal  0.000000e+00  1.000000e+00  0.000000e+00
   outer loop
     vertex  0.000000e+00  7.500000e-01  2.000000e-01
     vertex  1.000000e+00  7.500000e-01  0.000000e+00
     vertex  0.000000e+00  7.500000e-01  0.000000e+00
   endloop
 endfacet
 facet normal -0.000000e+00  1.000000e+00  0.000000e+00
   outer loop
     vertex  0.000000e+00  7.500000e-01  2.000000e-01
     vertex  1.000000e+00  7.500000e-01  2.000000e-01
     vertex  1.000000e+00  7.500000e-01  0.000000e+00
   endloop
 endfacet
 facet normal  0.000000e+00 -4.348569e-15 -1.000000e+00
   outer loop
     vertex  0.000000e+00  7.500000e-01  0.000000e+00
     vertex  1.000000e+00  3.997498e-01  1.523087e-15
     vertex  0.000000e+00  3.997498e-01  1.523087e-15
   endloop
 endfacet
 facet normal  0.000000e+00 -4.348569e-15 -1.000000e+00
   outer loop
     vertex  0.000000e+00  7.500000e-01  0.000000e+00
     vertex  1.000000e+00  7.500000e-01  0.000000e+00
     vertex  1.000000e+00  3.997498e-01  1.523087e-15
   endloop
 endfacet
 facet normal  0.000000e+00 -9.764367e-01  2.158041e-01
   outer loop
     vertex  0.000000e+00  4.026592e-01  1.316402e-02
     vertex  0.000000e+00  3.997498e-01  1.523087e-15
     vertex  1.000000e+00  3.997498e-01  1.523087e-15
   endloop
 endfacet
 facet normal  0.000000e+00 -9.764367e-01  2.158041e-01
   outer loop
     vertex  0.000000e+00  4.026592e-01  1.316402e-02
     vertex  1.000000e+00  3.997498e-01  1.523087e-15
     vertex  1.000000e+00  4.026592e-01  1.316402e-02
   endloop
 endfacet
 facet normal  0.000000e+00 -9.914958e-01  1.301390e-01
   outer loop
     vertex  0.000000e+00  4.044137e-01  2.653106e-02
     vertex  1.000000e+00  4.026592e-01  1.316402e-02
     vertex  1.000000e+00  4.044137e-01  2.653106e-02
   endloop
 endfacet
 facet normal  0.000000e+00 -9.914958e-01  1.301390e-01
   outer loop
     vertex  0.000000e+00  4.044137e-01  2.653106e-02
     vertex  0.000000e+00  4.026592e-01  1.316402e-02
     vertex  1.000000e+00  4.026592e-01  1.316402e-02
   endloop
 endfacet
 facet normal  0.000000e+00 -9.990539e-01  4.348933e-02
   outer loop
     vertex  0.000000e+00  4.050000e-01  4.000000e-02
     vertex  1.000000e+00  4.044137e-01  2.653106e-02
     vertex  1.000000e+00  4.050000e-01  4.000000e-02
   endloop
 endfacet
 facet normal  0.000000e+00 -9.990539e-01  4.348933e-02
   outer loop
     vertex  0.000000e+00  4.050000e-01  4.000000e-02
     vertex  0.000000e+00  4.044137e-01  2.653106e-02
     vertex  1.000000e+00  4.044137e-01  2.653106e-02
   endloop
 endfacet
 facet normal  0.000000e+00 -9.970114e-01 -7.725501e-02
   outer loop
     vertex  0.000000e+00  4.031498e-01  6.387748e-02
     vertex  0.000000e+00  4.050000e-01  4.000000e-02
     vertex  1.000000e+00  4.050000e-01  4.000000e-02
   endloop
 endfacet
 facet normal  0.000000e+00 -9.970114e-01 -7.725501e-02
   outer loop
     vertex  0.000000e+00  4.031498e-01  6.387748e-02
     vertex  1.000000e+00  4.050000e-01  4.000000e-02
     vertex  1.000000e+00  4.031498e-01  6.387748e-02
   endloop
 endfacet
 facet normal  0.000000e+00 -9.732094e-01 -2.299207e-01
   outer loop
     vertex  0.000000e+00  3.976434e-01  8.718492e-02
     vertex  1.000000e+00  4.031498e-01  6.387748e-02
     vertex  1.000000e+00  3.976434e-01  8.718492e-02
   endloop
 endfacet
 facet normal  0.000000e+00 -9.732094e-01 -2.299207e-01
   outer loop
     vertex  0.000000e+00  3.976434e-01  8.718492e-02
     vertex  0.000000e+00  4.031498e-01  6.387748e-02
     vertex  1.000000e+00  4.031498e-01  6.387748e-02
   endloop
 endfacet
 facet normal  0.000000e+00 -9.261736e-01 -3.770974e-01
   outer loop
     vertex  0.000000e+00  3.886123e-01  1.093659e-01
     vertex  1.000000e+00  3.976434e-01  8.718492e-02
     vertex  1.000000e+00  3.886123e-01  1.093659e-01
   endloop
 endfacet
 facet normal  0.000000e+00 -9.261736e-01 -3.770974e-01
   outer loop
     vertex  0.000000e+00  3.886123e-01  1.093659e-01
     vertex  0.000000e+00  3.976434e-01  8.718492e-02
     vertex  1.000000e+00  3.976434e-01  8.718492e-02
   endloop
 endfacet
 facet normal  0.000000e+00 -8.570270e-01 -5.152716e-01
   outer loop
     vertex  0.000000e+00  3.762720e-01  1.298909e-01
     vertex  1.000000e+00  3.886123e-01  1.093659e-01
     vertex  1.000000e+00  3.762720e-01  1.298909e-01
   endloop
 endfacet
 facet normal  0.000000e+00 -8.570270e-01 -5.152716e-01
   outer loop
     vertex  0.000000e+00  3.762720e-01  1.298909e-01
     vertex  0.000000e+00  3.886123e-01  1.093659e-01
     vertex  1.000000e+00  3.886123e-01  1.093659e-01
   endloop
 endfacet
 facet normal  0.000000e+00 -7.674202e-01 -6.411444e-01
   outer loop
     vertex  0.000000e+00  3.609172e-01  1.482699e-01
     vertex  1.000000e+00  3.762720e-01  1.298909e-01
     vertex  1.000000e+00  3.609172e-01  1.482699e-01
   endloop
 endfacet
 facet normal  0.000000e+00 -7.674202e-01 -6.411444e-01
   outer loop
     vertex  0.000000e+00  3.609172e-01  1.482699e-01
     vertex  0.000000e+00  3.762720e-01  1.298909e-01
     vertex  1.000000e+00  3.762720e-01  1.298909e-01
   endloop
 endfacet
 facet normal  0.000000e+00 -6.594926e-01 -7.517110e-01
   outer loop
     vertex  0.000000e+00  3.429145e-01  1.640641e-01
     vertex  1.000000e+00  3.609172e-01  1.482699e-01
     vertex  1.000000e+00  3.429145e-01  1.640641e-01
   endloop
 endfacet
 facet normal  0.000000e+00 -6.594926e-01 -7.517110e-01
   outer loop
     vertex  0.000000e+00  3.429145e-01  1.640641e-01
     vertex  0.000000e+00  3.609172e-01  1.482699e-01
     vertex  1.000000e+00  3.609172e-01  1.482699e-01
   endloop
 endfacet
 facet normal  0.000000e+00 -5.358207e-01 -8.443318e-01
   outer loop
     vertex  0.000000e+00  3.226935e-01  1.768965e-01
     vertex  1.000000e+00  3.429145e-01  1.640641e-01
     vertex  1.000000e+00  3.226935e-01  1.768965e-01
   endloop
 endfacet
 facet normal  0.000000e+00 -5.358207e-01 -8.443318e-01
   outer loop
     vertex  0.000000e+00  3.226935e-01  1.768965e-01
     vertex  0.000000e+00  3.429145e-01  1.640641e-01
     vertex  1.000000e+00  3.429145e-01  1.640641e-01
   endloop
 endfacet
 facet normal  0.000000e+00 -3.993569e-01 -9.167955e-01
   outer loop
     vertex  0.000000e+00  3.007371e-01  1.864607e-01
     vertex  1.000000e+00  3.226935e-01  1.768965e-01
     vertex  1.000000e+00  3.007371e-01  1.864607e-01
   endloop
 endfacet
 facet normal  0.000000e+00 -3.993569e-01 -9.167955e-01
   outer loop
     vertex  0.000000e+00  3.007371e-01  1.864607e-01
     vertex  0.000000e+00  3.226935e-01  1.768965e-01
     vertex  1.000000e+00  3.226935e-01  1.768965e-01
   endloop
 endfacet
 facet normal  0.000000e+00 -2.533592e-01 -9.673723e-01
   outer loop
     vertex  0.000000e+00  2.775695e-01  1.925284e-01
     vertex  1.000000e+00  3.007371e-01  1.864607e-01
     vertex  1.000000e+00  2.775695e-01  1.925284e-01
   endloop
 endfacet
 facet normal  0.000000e+00 -2.533592e-01 -9.673723e-01
   outer loop
     vertex  0.000000e+00  2.775695e-01  1.925284e-01
     vertex  0.000000e+00  3.007371e-01  1.864607e-01
     vertex  1.000000e+00  3.007371e-01  1.864607e-01
   endloop
 endfacet
 facet normal  0.000000e+00 -1.013129e-01 -9.948546e-01
   outer loop
     vertex  0.000000e+00  2.537437e-01  1.949548e-01
     vertex  1.000000e+00  2.775695e-01  1.925284e-01
     vertex  1.000000e+00  2.537437e-01  1.949548e-01
   endloop
 endfacet
 facet normal  0.000000e+00 -1.013129e-01 -9.948546e-01
   outer loop
     vertex  0.000000e+00  2.537437e-01  1.949548e-01
     vertex  0.000000e+00  2.775695e-01  1.925284e-01
     vertex  1.000000e+00  2.775695e-01  1.925284e-01
   endloop
 endfacet
 facet normal  0.000000e+00  5.315204e-02 -9.985864e-01
   outer loop
     vertex  0.000000e+00  2.298285e-01  1.936818e-01
     vertex  1.000000e+00  2.537437e-01  1.949548e-01
     vertex  1.000000e+00  2.298285e-01  1.936818e-01
   endloop
 endfacet
 facet normal  0.000000e+00  5.315204e-02 -9.985864e-01
   outer loop
     vertex  0.000000e+00  2.298285e-01  1.936818e-01
     vertex  0.000000e+00  2.537437e-01  1.949548e-01
     vertex  1.000000e+00  2.537437e-01  1.949548e-01
   endloop
 endfacet
 facet normal  0.000000e+00  2.063481e-01 -9.784787e-01
   outer loop
     vertex  0.000000e+00  2.063948e-01  1.887400e-01
     vertex  1.000000e+00  2.298285e-01  1.936818e-01
     vertex  1.000000e+00  2.063948e-01  1.887400e-01
   endloop
 endfacet
 facet normal  0.000000e+00  2.063481e-01 -9.784787e-01
   outer loop
     vertex  0.000000e+00  2.063948e-01  1.887400e-01
     vertex  0.000000e+00  2.298285e-01  1.936818e-01
     vertex  1.000000e+00  2.298285e-01  1.936818e-01
   endloop
 endfacet
 facet normal  0.000000e+00  3.546179e-01 -9.350113e-01
   outer loop
     vertex  0.000000e+00  1.840022e-01  1.802472e-01
     vertex  0.000000e+00  2.063948e-01  1.887400e-01
     vertex  1.000000e+00  2.063948e-01  1.887400e-01
   endloop
 endfacet
 facet normal  0.000000e+00  3.546179e-01 -9.350113e-01
   outer loop
     vertex  0.000000e+00  1.840022e-01  1.802472e-01
     vertex  1.000000e+00  2.063948e-01  1.887400e-01
     vertex  1.000000e+00  1.840022e-01  1.802472e-01
   endloop
 endfacet
 facet normal  0.000000e+00  4.944218e-01 -8.692221e-01
   outer loop
     vertex  0.000000e+00  1.840022e-01  1.802472e-01
     vertex  1.000000e+00  1.840022e-01  1.802472e-01
     vertex  1.000000e+00  1.631851e-01  1.684063e-01
   endloop
 endfacet
 facet normal  0.000000e+00  4.944218e-01 -8.692221e-01
   outer loop
     vertex  0.000000e+00  1.631851e-01  1.684063e-01
     vertex  0.000000e+00  1.840022e-01  1.802472e-01
     vertex  1.000000e+00  1.631851e-01  1.684063e-01
   endloop
 endfacet
 facet normal  0.000000e+00  6.224222e-01 -7.826817e-01
   outer loop
     vertex  0.000000e+00  1.444406e-01  1.534999e-01
     vertex  0.000000e+00  1.631851e-01  1.684063e-01
     vertex  1.000000e+00  1.631851e-01  1.684063e-01
   endloop
 endfacet
 facet normal  0.000000e+00  6.224222e-01 -7.826817e-01
   outer loop
     vertex  0.000000e+00  1.444406e-01  1.534999e-01
     vertex  1.000000e+00  1.631851e-01  1.684063e-01
     vertex  1.000000e+00  1.444406e-01  1.534999e-01
   endloop
 endfacet
 facet normal  0.000000e+00  7.355633e-01 -6.774560e-01
   outer loop
     vertex  0.000000e+00  1.444406e-01  1.534999e-01
     vertex  1.000000e+00  1.444406e-01  1.534999e-01
     vertex  1.000000e+00  1.282162e-01  1.358838e-01
   endloop
 endfacet
 facet normal  0.000000e+00  7.355633e-01 -6.774560e-01
   outer loop
     vertex  0.000000e+00  1.282162e-01  1.358838e-01
     vertex  0.000000e+00  1.444406e-01  1.534999e-01
     vertex  1.000000e+00  1.282162e-01  1.358838e-01
   endloop
 endfacet
 facet normal  0.000000e+00  8.311440e-01 -5.560572e-01
   outer loop
     vertex  0.000000e+00  1.148992e-01  1.159787e-01
     vertex  0.000000e+00  1.282162e-01  1.358838e-01
     vertex  1.000000e+00  1.282162e-01  1.358838e-01
   endloop
 endfacet
 facet normal  0.000000e+00  8.311440e-01 -5.560572e-01
   outer loop
     vertex  0.000000e+00  1.148992e-01  1.159787e-01
     vertex  1.000000e+00  1.282162e-01  1.358838e-01
     vertex  1.000000e+00  1.148992e-01  1.159787e-01
   endloop
 endfacet
 facet normal  0.000000e+00  9.068826e-01 -4.213835e-01
   outer loop
     vertex  0.000000e+00  1.148992e-01  1.159787e-01
     vertex  1.000000e+00  1.148992e-01  1.159787e-01
     vertex  1.000000e+00  1.048074e-01  9.425974e-02
   endloop
 endfacet
 facet normal  0.000000e+00  9.068826e-01 -4.213835e-01
   outer loop
     vertex  0.000000e+00  1.048074e-01  9.425974e-02
     vertex  0.000000e+00  1.148992e-01  1.159787e-01
     vertex  1.000000e+00  1.048074e-01  9.425974e-02
   endloop
 endfacet
 facet normal  0.000000e+00  9.609708e-01 -2.766499e-01
   outer loop
     vertex  0.000000e+00  9.818194e-02  7.124540e-02
     vertex  1.000000e+00  1.048074e-01  9.425974e-02
     vertex  1.000000e+00  9.818194e-02  7.124540e-02
   endloop
 endfacet
 facet normal  0.000000e+00  9.609708e-01 -2.766499e-01
   outer loop
     vertex  0.000000e+00  9.818194e-02  7.124540e-02
     vertex  0.000000e+00  1.048074e-01  9.425974e-02
     vertex  1.000000e+00  1.048074e-01  9.425974e-02
   endloop
 endfacet
 facet normal  0.000000e+00  9.921174e-01 -1.253117e-01
   outer loop
     vertex  0.000000e+00  9.518084e-02  4.748513e-02
     vertex  1.000000e+00  9.818194e-02  7.124540e-02
     vertex  1.000000e+00  9.518084e-02  4.748513e-02
   endloop
 endfacet
 facet normal  0.000000e+00  9.921174e-01 -1.253117e-01
   outer loop
     vertex  0.000000e+00  9.518084e-02  4.748513e-02
     vertex  0.000000e+00  9.818194e-02  7.124540e-02
     vertex  1.000000e+00  9.818194e-02  7.124540e-02
   endloop
 endfacet
 facet normal -0.000000e+00  9.995789e-01  2.901805e-02
   outer loop
     vertex  0.000000e+00  9.587579e-02  2.354616e-02
     vertex  1.000000e+00  9.518084e-02  4.748513e-02
     vertex  1.000000e+00  9.587579e-02  2.354616e-02
   endloop
 endfacet
 facet normal  0.000000e+00  9.995789e-01  2.901805e-02
   outer loop
     vertex  0.000000e+00  9.587579e-02  2.354616e-02
     vertex  0.000000e+00  9.518084e-02  4.748513e-02
     vertex  1.000000e+00  9.518084e-02  4.748513e-02
   endloop
 endfacet
 facet normal -0.000000e+00  9.831771e-01  1.826550e-01
   outer loop
     vertex  0.000000e+00  1.002502e-01 -4.465178e-15
     vertex  1.000000e+00  9.587579e-02  2.354616e-02
     vertex  1.000000e+00  1.002502e-01 -4.465178e-15
   endloop
 endfacet
 facet normal  0.000000e+00  9.831771e-01  1.826550e-01
   outer loop
     vertex  0.000000e+00  1.002502e-01 -4.465178e-15
     vertex  0.000000e+00  9.587579e-02  2.354616e-02
     vertex  1.000000e+00  9.587579e-02  2.354616e-02
   endloop
 endfacet
 facet normal  0.000000e+00 -4.454034e-14 -1.000000e+00
   outer loop
     vertex  0.000000e+00  1.002502e-01 -4.465178e-15
     vertex  1.000000e+00  0.000000e+00  0.000000e+00
     vertex  0.000000e+00  0.000000e+00  0.000000e+00
   endloop
 endfacet
 facet normal  0.000000e+00 -4.454034e-14 -1.000000e+00
   outer loop
     vertex  0.000000e+00  1.002502e-01 -4.465178e-15
     vertex  1.000000e+00  1.002502e-01 -4.465178e-15
     vertex  1.000000e+00  0.000000e+00  0.000000e+00
   endloop
 endfacet
 facet normal -1.000000e+00  0.000000e+00 -0.000000e+00
   outer loop
     vertex  0.000000e+00  9.587579e-02  2.354616e-02
     vertex  0.000000e+00  1.002502e-01 -4.465178e-15
     vertex  0.000000e+00  0.000000e+00  0.000000e+00
   endloop
 endfacet
 facet normal -1.000000e+00  0.000000e+00 -0.000000e+00
   outer loop
     vertex  0.000000e+00  9.518084e-02  4.748513e-02
     vertex  0.000000e+00  9.587579e-02  2.354616e-02
     vertex  0.000000e+00  0.000000e+00  0.000000e+00
   endloop
 endfacet
 facet normal -1.000000e+00  0.000000e+00  0.000000e+00
   outer loop
     vertex  0.000000e+00  9.818194e-02  7.124540e-02
     vertex  0.000000e+00  9.518084e-02  4.748513e-02
     vertex  0.000000e+00  0.000000e+00  0.000000e+00
   endloop
 endfacet
 facet normal -1.000000e+00  0.000000e+00  0.000000e+00
   outer loop
     vertex  0.000000e+00  1.048074e-01  9.425974e-02
     vertex  0.000000e+00  9.818194e-02  7.124540e-02
     vertex  0.000000e+00  0.000000e+00  0.000000e+00
   endloop
 endfacet
 facet normal -1.000000e+00  0.000000e+00  0.000000e+00
   outer loop
     vertex  0.000000e+00  1.148992e-01  1.159787e-01
     vertex  0.000000e+00  1.048074e-01  9.425974e-02
     vertex  0.000000e+00  0.000000e+00  0.000000e+00
   endloop
 endfacet
 facet normal -1.000000e+00  0.000000e+00  0.000000e+00
   outer loop
     vertex  0.000000e+00  0.000000e+00  5.000000e-01
     vertex  0.000000e+00  2.298285e-01  1.936818e-01
     vertex  0.000000e+00  2.063948e-01  1.887400e-01
   endloop
 endfacet
 facet normal -1.000000e+00  0.000000e+00  0.000000e+00
   outer loop
     vertex  0.000000e+00  0.000000e+00  5.000000e-01
     vertex  0.000000e+00  2.063948e-01  1.887400e-01
     vertex  0.000000e+00  1.840022e-01  1.802472e-01
   endloop
 endfacet
 facet normal -1.000000e+00  0.000000e+00  0.000000e+00
   outer loop
     vertex  0.000000e+00  0.000000e+00  5.000000e-01
     vertex  0.000000e+00  1.840022e-01  1.802472e-01
     vertex  0.000000e+00  1.631851e-01  1.684063e-01
   endloop
 endfacet
 facet normal -1.000000e+00  0.000000e+00  0.000000e+00
   outer loop
     vertex  0.000000e+00  0.000000e+00  5.000000e-01
     vertex  0.000000e+00  1.631851e-01  1.684063e-01
     vertex  0.000000e+00  1.444406e-01  1.534999e-01
   endloop
 endfacet
 facet normal -1.000000e+00  0.000000e+00  0.000000e+00
   outer loop
     vertex  0.000000e+00  0.000000e+00  5.000000e-01
     vertex  0.000000e+00  1.444406e-01  1.534999e-01
     vertex  0.000000e+00  1.282162e-01  1.358838e-01
   endloop
 endfacet
 facet normal -1.000000e+00  0.000000e+00  0.000000e+00
   outer loop
     vertex  0.000000e+00  0.000000e+00  5.000000e-01
     vertex  0.000000e+00  1.282162e-01  1.358838e-01
     vertex  0.000000e+00  1.148992e-01  1.159787e-01
   endloop
 endfacet
 facet normal -1.000000e+00  0.000000e+00  0.000000e+00
   outer loop
     vertex  0.000000e+00  0.000000e+00  5.000000e-01
     vertex  0.000000e+00  1.148992e-01  1.159787e-01
     vertex  0.000000e+00  0.000000e+00  0.000000e+00
   endloop
 endfacet
 facet normal -1.000000e+00  0.000000e+00  0.000000e+00
   outer loop
     vertex  0.000000e+00  7.500000e-01  0.000000e+00
     vertex  0.000000e+00  4.050000e-01  4.000000e-02
     vertex  0.000000e+00  4.031498e-01  6.387748e-02
   endloop
 endfacet
 facet normal -1.000000e+00  0.000000e+00  0.000000e+00
   outer loop
     vertex  0.000000e+00  7.500000e-01  0.000000e+00
     vertex  0.000000e+00  3.997498e-01  1.523087e-15
     vertex  0.000000e+00  4.026592e-01  1.316402e-02
   endloop
 endfacet
 facet normal -1.000000e+00  0.000000e+00  0.000000e+00
   outer loop
     vertex  0.000000e+00  7.500000e-01  0.000000e+00
     vertex  0.000000e+00  4.026592e-01  1.316402e-02
     vertex  0.000000e+00  4.044137e-01  2.653106e-02
   endloop
 endfacet
 facet normal -1.000000e+00  0.000000e+00  0.000000e+00
   outer loop
     vertex  0.000000e+00  7.500000e-01  0.000000e+00
     vertex  0.000000e+00  4.044137e-01  2.653106e-02
     vertex  0.000000e+00  4.050000e-01  4.000000e-02
   endloop
 endfacet
 facet normal -1.000000e+00  0.000000e+00  0.000000e+00
   outer loop
     vertex  0.000000e+00  7.500000e-01  2.000000e-01
     vertex  0.000000e+00  4.031498e-01  6.387748e-02
     vertex  0.000000e+00  3.976434e-01  8.718492e-02
   endloop
 endfacet
 facet normal -1.000000e+00  0.000000e+00  0.000000e+00
   outer loop
     vertex  0.000000e+00  7.500000e-01  2.000000e-01
     vertex  0.000000e+00  3.976434e-01  8.718492e-02
     vertex  0.000000e+00  3.886123e-01  1.093659e-01
   endloop
 endfacet
 facet normal -1.000000e+00  0.000000e+00  0.000000e+00
   outer loop
     vertex  0.000000e+00  7.500000e-01  2.000000e-01
     vertex  0.000000e+00  3.886123e-01  1.093659e-01
     vertex  0.000000e+00  3.762720e-01  1.298909e-01
   endloop
 endfacet
 facet normal -1.000000e+00  0.000000e+00  0.000000e+00
   outer loop
     vertex  0.000000e+00  7.500000e-01  2.000000e-01
     vertex  0.000000e+00  3.762720e-01  1.298909e-01
     vertex  0.000000e+00  3.609172e-01  1.482699e-01
   endloop
 endfacet
 facet normal -1.000000e+00  0.000000e+00 -0.000000e+00
   outer loop
     vertex  0.000000e+00  7.500000e-01  2.000000e-01
     vertex  0.000000e+00  7.500000e-01  0.000000e+00
     vertex  0.000000e+00  4.031498e-01  6.387748e-02
   endloop
 endfacet
 facet normal -1.000000e+00  0.000000e+00  0.000000e+00
   outer loop
     vertex  0.000000e+00  4.500000e-01  5.000000e-01
     vertex  0.000000e+00  3.609172e-01  1.482699e-01
     vertex  0.000000e+00  3.429145e-01  1.640641e-01
   endloop
 endfacet
 facet normal -1.000000e+00  0.000000e+00  0.000000e+00
   outer loop
     vertex  0.000000e+00  4.500000e-01  5.000000e-01
     vertex  0.000000e+00  3.429145e-01  1.640641e-01
     vertex  0.000000e+00  3.226935e-01  1.768965e-01
   endloop
 endfacet
 facet normal -1.000000e+00  0.000000e+00  0.000000e+00
   outer loop
     vertex  0.000000e+00  4.500000e-01  5.000000e-01
     vertex  0.000000e+00  3.226935e-01  1.768965e-01
     vertex  0.000000e+00  3.007371e-01  1.864607e-01
   endloop
 endfacet
 facet normal -1.000000e+00  0.000000e+00  0.000000e+00
   outer loop
     vertex  0.000000e+00  4.500000e-01  5.000000e-01
     vertex  0.000000e+00  3.007371e-01  1.864607e-01
     vertex  0.000000e+00  2.775695e-01  1.925284e-01
   endloop
 endfacet
 facet normal -1.000000e+00  0.000000e+00  0.000000e+00
   outer loop
     vertex  0.000000e+00  4.500000e-01  5.000000e-01
     vertex  0.000000e+00  2.775695e-01  1.925284e-01
     vertex  0.000000e+00  2.537437e-01  1.949548e-01
   endloop
 endfacet
 facet normal -1.000000e+00  0.000000e+00  0.000000e+00
   outer loop
     vertex  0.000000e+00  4.500000e-01  5.000000e-01
     vertex  0.000000e+00  2.537437e-01  1.949548e-01
     vertex  0.000000e+00  2.298285e-01  1.936818e-01
   endloop
 endfacet
 facet normal -1.000000e+00 -0.000000e+00  0.000000e+00
   outer loop
     vertex  0.000000e+00  4.500000e-01  5.000000e-01
     vertex  0.000000e+00  2.298285e-01  1.936818e-01
     vertex  0.000000e+00  0.000000e+00  5.000000e-01
   endloop
 endfacet
 facet normal -1.000000e+00  0.000000e+00 -0.000000e+00
   outer loop
     vertex  0.000000e+00  4.500000e-01  5.000000e-01
     vertex  0.000000e+00  7.500000e-01  2.000000e-01
     vertex  0.000000e+00  3.609172e-01  1.482699e-01
   endloop
 endfacet
 facet normal  1.000000e+00  0.000000e+00  0.000000e+00
   outer loop
     vertex  1.000000e+00  9.587579e-02  2.354616e-02
     vertex  1.000000e+00  0.000000e+00  0.000000e+00
     vertex  1.000000e+00  1.002502e-01 -4.465178e-15
   endloop
 endfacet
 facet normal  1.000000e+00  0.000000e+00  0.000000e+00
   outer loop
     vertex  1.000000e+00  9.518084e-02  4.748513e-02
     vertex  1.000000e+00  0.000000e+00  0.000000e+00
     vertex  1.000000e+00  9.587579e-02  2.354616e-02
   endloop
 endfacet
 facet normal  1.000000e+00  0.000000e+00  0.000000e+00
   outer loop
     vertex  1.000000e+00  9.818194e-02  7.124540e-02
     vertex  1.000000e+00  0.000000e+00  0.000000e+00
     vertex  1.000000e+00  9.518084e-02  4.748513e-02
   endloop
 endfacet
 facet normal  1.000000e+00  0.000000e+00  0.000000e+00
   outer loop
     vertex  1.000000e+00  1.048074e-01  9.425974e-02
     vertex  1.000000e+00  0.000000e+00  0.000000e+00
     vertex  1.000000e+00  9.818194e-02  7.124540e-02
   endloop
 endfacet
 facet normal  1.000000e+00  0.000000e+00  0.000000e+00
   outer loop
     vertex  1.000000e+00  1.148992e-01  1.159787e-01
     vertex  1.000000e+00  0.000000e+00  0.000000e+00
     vertex  1.000000e+00  1.048074e-01  9.425974e-02
   endloop
 endfacet
 facet normal  1.000000e+00  0.000000e+00  0.000000e+00
   outer loop
     vertex  1.000000e+00  0.000000e+00  5.000000e-01
     vertex  1.000000e+00  2.063948e-01  1.887400e-01
     vertex  1.000000e+00  2.298285e-01  1.936818e-01
   endloop
 endfacet
 facet normal  1.000000e+00  0.000000e+00  0.000000e+00
   outer loop
     vertex  1.000000e+00  0.000000e+00  5.000000e-01
     vertex  1.000000e+00  1.840022e-01  1.802472e-01
     vertex  1.000000e+00  2.063948e-01  1.887400e-01
   endloop
 endfacet
 facet normal  1.000000e+00  0.000000e+00  0.000000e+00
   outer loop
     vertex  1.000000e+00  0.000000e+00  5.000000e-01
     vertex  1.000000e+00  1.631851e-01  1.684063e-01
     vertex  1.000000e+00  1.840022e-01  1.802472e-01
   endloop
 endfacet
 facet normal  1.000000e+00  0.000000e+00  0.000000e+00
   outer loop
     vertex  1.000000e+00  0.000000e+00  5.000000e-01
     vertex  1.000000e+00  1.444406e-01  1.534999e-01
     vertex  1.000000e+00  1.631851e-01  1.684063e-01
   endloop
 endfacet
 facet normal  1.000000e+00  0.000000e+00  0.000000e+00
   outer loop
     vertex  1.000000e+00  0.000000e+00  5.000000e-01
     vertex  1.000000e+00  1.282162e-01  1.358838e-01
     vertex  1.000000e+00  1.444406e-01  1.534999e-01
   endloop
 endfacet
 facet normal  1.000000e+00  0.000000e+00  0.000000e+00
   outer loop
     vertex  1.000000e+00  0.000000e+00  5.000000e-01
     vertex  1.000000e+00  1.148992e-01  1.159787e-01
     vertex  1.000000e+00  1.282162e-01  1.358838e-01
   endloop
 endfacet
 facet normal  1.000000e+00  0.000000e+00  0.000000e+00
   outer loop
     vertex  1.000000e+00  0.000000e+00  5.000000e-01
     vertex  1.000000e+00  0.000000e+00  0.000000e+00
     vertex  1.000000e+00  1.148992e-01  1.159787e-01
   endloop
 endfacet
 facet normal  1.000000e+00  0.000000e+00  0.000000e+00
   outer loop
     vertex  1.000000e+00  7.500000e-01  0.000000e+00
     vertex  1.000000e+00  4.031498e-01  6.387748e-02
     vertex  1.000000e+00  4.050000e-01  4.000000e-02
   endloop
 endfacet
 facet normal  1.000000e+00  0.000000e+00  0.000000e+00
   outer loop
     vertex  1.000000e+00  7.500000e-01  0.000000e+00
     vertex  1.000000e+00  4.026592e-01  1.316402e-02
     vertex  1.000000e+00  3.997498e-01  1.523087e-15
   endloop
 endfacet
 facet normal  1.000000e+00  0.000000e+00  0.000000e+00
   outer loop
     vertex  1.000000e+00  7.500000e-01  0.000000e+00
     vertex  1.000000e+00  4.044137e-01  2.653106e-02
     vertex  1.000000e+00  4.026592e-01  1.316402e-02
   endloop
 endfacet
 facet normal  1.000000e+00  0.000000e+00  0.000000e+00
   outer loop
     vertex  1.000000e+00  7.500000e-01  0.000000e+00
     vertex  1.000000e+00  4.050000e-01  4.000000e-02
     vertex  1.000000e+00  4.044137e-01  2.653106e-02
   endloop
 endfacet
 facet normal  1.000000e+00  0.000000e+00  0.000000e+00
   outer loop
     vertex  1.000000e+00  7.500000e-01  2.000000e-01
     vertex  1.000000e+00  3.976434e-01  8.718492e-02
     vertex  1.000000e+00  4.031498e-01  6.387748e-02
   endloop
 endfacet
 facet normal  1.000000e+00  0.000000e+00  0.000000e+00
   outer loop
     vertex  1.000000e+00  7.500000e-01  2.000000e-01
     vertex  1.000000e+00  3.886123e-01  1.093659e-01
     vertex  1.000000e+00  3.976434e-01  8.718492e-02
   endloop
 endfacet
 facet normal  1.000000e+00  0.000000e+00  0.000000e+00
   outer loop
     vertex  1.000000e+00  7.500000e-01  2.000000e-01
     vertex  1.000000e+00  3.762720e-01  1.298909e-01
     vertex  1.000000e+00  3.886123e-01  1.093659e-01
   endloop
 endfacet
 facet normal  1.000000e+00  0.000000e+00  0.000000e+00
   outer loop
     vertex  1.000000e+00  7.500000e-01  2.000000e-01
     vertex  1.000000e+00  3.609172e-01  1.482699e-01
     vertex  1.000000e+00  3.762720e-01  1.298909e-01
   endloop
 endfacet
 facet normal  1.000000e+00  0.000000e+00  0.000000e+00
   outer loop
     vertex  1.000000e+00  7.500000e-01  2.000000e-01
     vertex  1.000000e+00  4.031498e-01  6.387748e-02
     vertex  1.000000e+00  7.500000e-01  0.000000e+00
   endloop
 endfacet
 facet normal  1.000000e+00  0.000000e+00  0.000000e+00
   outer loop
     vertex  1.000000e+00  4.500000e-01  5.000000e-01
     vertex  1.000000e+00  3.429145e-01  1.640641e-01
     vertex  1.000000e+00  3.609172e-01  1.482699e-01
   endloop
 endfacet
 facet normal  1.000000e+00  0.000000e+00  0.000000e+00
   outer loop
     vertex  1.000000e+00  4.500000e-01  5.000000e-01
     vertex  1.000000e+00  3.226935e-01  1.768965e-01
     vertex  1.000000e+00  3.429145e-01  1.640641e-01
   endloop
 endfacet
 facet normal  1.000000e+00  0.000000e+00  0.000000e+00
   outer loop
     vertex  1.000000e+00  4.500000e-01  5.000000e-01
     vertex  1.000000e+00  3.007371e-01  1.864607e-01
     vertex  1.000000e+00  3.226935e-01  1.768965e-01
   endloop
 endfacet
 facet normal  1.000000e+00  0.000000e+00  0.000000e+00
   outer loop
     vertex  1.000000e+00  4.500000e-01  5.000000e-01
     vertex  1.000000e+00  2.775695e-01  1.925284e-01
     vertex  1.000000e+00  3.007371e-01  1.864607e-01
   endloop
 endfacet
 facet normal  1.000000e+00  0.000000e+00  0.000000e+00
   outer loop
     vertex  1.000000e+00  4.500000e-01  5.000000e-01
     vertex  1.000000e+00  2.537437e-01  1.949548e-01
     vertex  1.000000e+00  2.775695e-01  1.925284e-01
   endloop
 endfacet
 facet normal  1.000000e+00  0.000000e+00  0.000000e+00
   outer loop
     vertex  1.000000e+00  4.500000e-01  5.000000e-01
     vertex  1.000000e+00  2.298285e-01  1.936818e-01
     vertex  1.000000e+00  2.537437e-01  1.949548e-01
   endloop
 endfacet
 facet normal  1.000000e+00  0.000000e+00  0.000000e+00
   outer loop
     vertex  1.000000e+00  4.500000e-01  5.000000e-01
     vertex  1.000000e+00  0.000000e+00  5.000000e-01
     vertex  1.000000e+00  2.298285e-01  1.936818e-01
   endloop
 endfacet
 facet normal  1.000000e+00  0.000000e+00  0.000000e+00
   outer loop
     vertex  1.000000e+00  4.500000e-01  5.000000e-01
     vertex  1.000000e+00  3.609172e-01  1.482699e-01
     vertex  1.000000e+00  7.500000e-01  2.000000e-01
   endloop
 endfacet
endsolid
