solid 
 facet normal  9.941380e-01  1.081190e-01  0.000000e+00
   outer loop
     vertex  7.812964e-02  1.719764e-02  0.000000e+00
     vertex  8.000000e-02  0.000000e+00  1.000000e+00
     vertex  8.000000e-02  0.000000e+00  0.000000e+00
   endloop
 endfacet
 facet normal  9.941380e-01  1.081190e-01 -0.000000e+00
   outer loop
     vertex  7.812964e-02  1.719764e-02  0.000000e+00
     vertex  7.812964e-02  1.719764e-02  1.000000e+00
     vertex  8.000000e-02  0.000000e+00  1.000000e+00
   endloop
 endfacet
 facet normal  9.476532e-01  3.193015e-01 -0.000000e+00
   outer loop
     vertex  7.260603e-02  3.359113e-02  0.000000e+00
     vertex  7.260603e-02  3.359113e-02  1.000000e+00
     vertex  7.812964e-02  1.719764e-02  1.000000e+00
   endloop
 endfacet
 facet normal  9.476532e-01  3.193015e-01  0.000000e+00
   outer loop
     vertex  7.260603e-02  3.359113e-02  0.000000e+00
     vertex  7.812964e-02  1.719764e-02  1.000000e+00
     vertex  7.812964e-02  1.719764e-02  0.000000e+00
   endloop
 endfacet
 facet normal  8.568572e-01  5.155539e-01 -0.000000e+00
   outer loop
     vertex  6.368745e-02  4.841394e-02  0.000000e+00
     vertex  6.368745e-02  4.841394e-02  1.000000e+00
     vertex  7.260603e-02  3.359113e-02  1.000000e+00
   endloop
 endfacet
 facet normal  8.568572e-01  5.155539e-01  0.000000e+00
   outer loop
     vertex  6.368745e-02  4.841394e-02  0.000000e+00
     vertex  7.260603e-02  3.359113e-02  1.000000e+00
     vertex  7.260603e-02  3.359113e-02  0.000000e+00
   endloop
 endfacet
 facet normal  7.259955e-01  6.876995e-01 -0.000000e+00
   outer loop
     vertex  5.179090e-02  6.097296e-02  0.000000e+00
     vertex  5.179090e-02  6.097296e-02  1.000000e+00
     vertex  6.368745e-02  4.841394e-02  1.000000e+00
   endloop
 endfacet
 facet normal  7.259955e-01  6.876995e-01  0.000000e+00
   outer loop
     vertex  5.179090e-02  6.097296e-02  0.000000e+00
     vertex  6.368745e-02  4.841394e-02  1.000000e+00
     vertex  6.368745e-02  4.841394e-02  0.000000e+00
   endloop
 endfacet
 facet normal  5.611871e-01  8.276890e-01 -0.000000e+00
   outer loop
     vertex  3.747268e-02  7.068096e-02  0.000000e+00
     vertex  3.747268e-02  7.068096e-02  1.000000e+00
     vertex  5.179090e-02  6.097296e-02  1.000000e+00
   endloop
 endfacet
 facet normal  5.611871e-01  8.276890e-01  0.000000e+00
   outer loop
     vertex  3.747268e-02  7.068096e-02  0.000000e+00
     vertex  5.179090e-02  6.097296e-02  1.000000e+00
     vertex  5.179090e-02  6.097296e-02  0.000000e+00
   endloop
 endfacet
 facet normal  3.701382e-01  9.289767e-01 -0.000000e+00
   outer loop
     vertex  2.140227e-02  7.708400e-02  0.000000e+00
     vertex  2.140227e-02  7.708400e-02  1.000000e+00
     vertex  3.747268e-02  7.068096e-02  1.000000e+00
   endloop
 endfacet
 facet normal  3.701382e-01  9.289767e-01  0.000000e+00
   outer loop
     vertex  2.140227e-02  7.708400e-02  0.000000e+00
     vertex  3.747268e-02  7.068096e-02  1.000000e+00
     vertex  3.747268e-02  7.068096e-02  0.000000e+00
   endloop
 endfacet
 facet normal  1.617820e-01  9.868265e-01 -0.000000e+00
   outer loop
     vertex  4.331113e-03  7.988267e-02  0.000000e+00
     vertex  4.331113e-03  7.988267e-02  1.000000e+00
     vertex  2.140227e-02  7.708400e-02  1.000000e+00
   endloop
 endfacet
 facet normal  1.617820e-01  9.868265e-01  0.000000e+00
   outer loop
     vertex  4.331113e-03  7.988267e-02  0.000000e+00
     vertex  2.140227e-02  7.708400e-02  1.000000e+00
     vertex  2.140227e-02  7.708400e-02  0.000000e+00
   endloop
 endfacet
 facet normal -5.413891e-02  9.985334e-01  0.000000e+00
   outer loop
     vertex -1.294256e-02  7.894612e-02  0.000000e+00
     vertex -1.294256e-02  7.894612e-02  1.000000e+00
     vertex  4.331113e-03  7.988267e-02  1.000000e+00
   endloop
 endfacet
 facet normal -5.413891e-02  9.985334e-01  0.000000e+00
   outer loop
     vertex -1.294256e-02  7.894612e-02  0.000000e+00
     vertex  4.331113e-03  7.988267e-02  1.000000e+00
     vertex  4.331113e-03  7.988267e-02  0.000000e+00
   endloop
 endfacet
 facet normal -2.675283e-01  9.635500e-01  0.000000e+00
   outer loop
     vertex -2.961105e-02  7.431814e-02  0.000000e+00
     vertex -2.961105e-02  7.431814e-02  1.000000e+00
     vertex -1.294256e-02  7.894612e-02  1.000000e+00
   endloop
 endfacet
 facet normal -2.675283e-01  9.635500e-01  0.000000e+00
   outer loop
     vertex -2.961105e-02  7.431814e-02  0.000000e+00
     vertex -1.294256e-02  7.894612e-02  1.000000e+00
     vertex -1.294256e-02  7.894612e-02  0.000000e+00
   endloop
 endfacet
 facet normal -4.684084e-01  8.835120e-01  0.000000e+00
   outer loop
     vertex -4.489497e-02  6.621512e-02  0.000000e+00
     vertex -2.961105e-02  7.431814e-02  1.000000e+00
     vertex -2.961105e-02  7.431814e-02  0.000000e+00
   endloop
 endfacet
 facet normal -4.684084e-01  8.835120e-01  0.000000e+00
   outer loop
     vertex -4.489497e-02  6.621512e-02  0.000000e+00
     vertex -4.489497e-02  6.621512e-02  1.000000e+00
     vertex -2.961105e-02  7.431814e-02  1.000000e+00
   endloop
 endfacet
 facet normal -6.473863e-01  7.621621e-01  0.000000e+00
   outer loop
     vertex -5.807964e-02  5.501596e-02  0.000000e+00
     vertex -4.489497e-02  6.621512e-02  1.000000e+00
     vertex -4.489497e-02  6.621512e-02  0.000000e+00
   endloop
 endfacet
 facet normal -6.473863e-01  7.621621e-01  0.000000e+00
   outer loop
     vertex -5.807964e-02  5.501596e-02  0.000000e+00
     vertex -5.807964e-02  5.501596e-02  1.000000e+00
     vertex -4.489497e-02  6.621512e-02  1.000000e+00
   endloop
 endfacet
 facet normal -7.960931e-01  6.051742e-01  0.000000e+00
   outer loop
     vertex -6.854857e-02  4.124431e-02  0.000000e+00
     vertex -6.854857e-02  4.124431e-02  1.000000e+00
     vertex -5.807964e-02  5.501596e-02  1.000000e+00
   endloop
 endfacet
 facet normal -7.960931e-01  6.051742e-01  0.000000e+00
   outer loop
     vertex -6.854857e-02  4.124431e-02  0.000000e+00
     vertex -5.807964e-02  5.501596e-02  1.000000e+00
     vertex -5.807964e-02  5.501596e-02  0.000000e+00
   endloop
 endfacet
 facet normal -9.075754e-01  4.198891e-01  0.000000e+00
   outer loop
     vertex -7.581225e-02  2.554412e-02  0.000000e+00
     vertex -7.581225e-02  2.554412e-02  1.000000e+00
     vertex -6.854857e-02  4.124431e-02  1.000000e+00
   endloop
 endfacet
 facet normal -9.766206e-01  2.149704e-01  0.000000e+00
   outer loop
     vertex -7.581225e-02  2.554412e-02  0.000000e+00
     vertex -7.953104e-02  8.649521e-03  1.000000e+00
     vertex -7.581225e-02  2.554412e-02  1.000000e+00
   endloop
 endfacet
 facet normal -9.075754e-01  4.198891e-01  0.000000e+00
   outer loop
     vertex -7.581225e-02  2.554412e-02  0.000000e+00
     vertex -6.854857e-02  4.124431e-02  1.000000e+00
     vertex -6.854857e-02  4.124431e-02  0.000000e+00
   endloop
 endfacet
 facet normal -9.766206e-01  2.149704e-01  0.000000e+00
   outer loop
     vertex -7.953104e-02  8.649521e-03  0.000000e+00
     vertex -7.953104e-02  8.649521e-03  1.000000e+00
     vertex -7.581225e-02  2.554412e-02  0.000000e+00
   endloop
 endfacet
 facet normal -1.000000e+00 -8.022286e-16  0.000000e+00
   outer loop
     vertex -7.953104e-02 -8.649521e-03  0.000000e+00
     vertex -7.953104e-02 -8.649521e-03  1.000000e+00
     vertex -7.953104e-02  8.649521e-03  1.000000e+00
   endloop
 endfacet
 facet normal -1.000000e+00 -8.022286e-16  0.000000e+00
   outer loop
     vertex -7.953104e-02 -8.649521e-03  0.000000e+00
     vertex -7.953104e-02  8.649521e-03  1.000000e+00
     vertex -7.953104e-02  8.649521e-03  0.000000e+00
   endloop
 endfacet
 facet normal -9.766206e-01 -2.149704e-01  0.000000e+00
   outer loop
     vertex -7.581225e-02 -2.554412e-02  0.000000e+00
     vertex -7.581225e-02 -2.554412e-02  1.000000e+00
     vertex -7.953104e-02 -8.649521e-03  1.000000e+00
   endloop
 endfacet
 facet normal -9.766206e-01 -2.149704e-01  0.000000e+00
   outer loop
     vertex -7.581225e-02 -2.554412e-02  0.000000e+00
     vertex -7.953104e-02 -8.649521e-03  1.000000e+00
     vertex -7.953104e-02 -8.649521e-03  0.000000e+00
   endloop
 endfacet
 facet normal -9.075754e-01 -4.198891e-01  0.000000e+00
   outer loop
     vertex -6.854857e-02 -4.124431e-02  0.000000e+00
     vertex -6.854857e-02 -4.124431e-02  1.000000e+00
     vertex -7.581225e-02 -2.554412e-02  1.000000e+00
   endloop
 endfacet
 facet normal -9.075754e-01 -4.198891e-01  0.000000e+00
   outer loop
     vertex -6.854857e-02 -4.124431e-02  0.000000e+00
     vertex -7.581225e-02 -2.554412e-02  1.000000e+00
     vertex -7.581225e-02 -2.554412e-02  0.000000e+00
   endloop
 endfacet
 facet normal -7.960931e-01 -6.051742e-01  0.000000e+00
   outer loop
     vertex -5.807964e-02 -5.501596e-02  0.000000e+00
     vertex -5.807964e-02 -5.501596e-02  1.000000e+00
     vertex -6.854857e-02 -4.124431e-02  1.000000e+00
   endloop
 endfacet
 facet normal -6.473863e-01 -7.621621e-01  0.000000e+00
   outer loop
     vertex -5.807964e-02 -5.501596e-02  0.000000e+00
     vertex -4.489497e-02 -6.621512e-02  1.000000e+00
     vertex -5.807964e-02 -5.501596e-02  1.000000e+00
   endloop
 endfacet
 facet normal -7.960931e-01 -6.051742e-01  0.000000e+00
   outer loop
     vertex -5.807964e-02 -5.501596e-02  0.000000e+00
     vertex -6.854857e-02 -4.124431e-02  1.000000e+00
     vertex -6.854857e-02 -4.124431e-02  0.000000e+00
   endloop
 endfacet
 facet normal -6.473863e-01 -7.621621e-01  0.000000e+00
   outer loop
     vertex -4.489497e-02 -6.621512e-02  0.000000e+00
     vertex -4.489497e-02 -6.621512e-02  1.000000e+00
     vertex -5.807964e-02 -5.501596e-02  0.000000e+00
   endloop
 endfacet
 facet normal -4.684084e-01 -8.835120e-01  0.000000e+00
   outer loop
     vertex -2.961105e-02 -7.431814e-02  0.000000e+00
     vertex -2.961105e-02 -7.431814e-02  1.000000e+00
     vertex -4.489497e-02 -6.621512e-02  1.000000e+00
   endloop
 endfacet
 facet normal -4.684084e-01 -8.835120e-01  0.000000e+00
   outer loop
     vertex -2.961105e-02 -7.431814e-02  0.000000e+00
     vertex -4.489497e-02 -6.621512e-02  1.000000e+00
     vertex -4.489497e-02 -6.621512e-02  0.000000e+00
   endloop
 endfacet
 facet normal -2.675283e-01 -9.635500e-01  0.000000e+00
   outer loop
     vertex -1.294256e-02 -7.894612e-02  0.000000e+00
     vertex -1.294256e-02 -7.894612e-02  1.000000e+00
     vertex -2.961105e-02 -7.431814e-02  1.000000e+00
   endloop
 endfacet
 facet normal -2.675283e-01 -9.635500e-01  0.000000e+00
   outer loop
     vertex -1.294256e-02 -7.894612e-02  0.000000e+00
     vertex -2.961105e-02 -7.431814e-02  1.000000e+00
     vertex -2.961105e-02 -7.431814e-02  0.000000e+00
   endloop
 endfacet
 facet normal -5.413891e-02 -9.985334e-01  0.000000e+00
   outer loop
     vertex  4.331113e-03 -7.988267e-02  0.000000e+00
     vertex  4.331113e-03 -7.988267e-02  1.000000e+00
     vertex -1.294256e-02 -7.894612e-02  1.000000e+00
   endloop
 endfacet
 facet normal -5.413891e-02 -9.985334e-01  0.000000e+00
   outer loop
     vertex  4.331113e-03 -7.988267e-02  0.000000e+00
     vertex -1.294256e-02 -7.894612e-02  1.000000e+00
     vertex -1.294256e-02 -7.894612e-02  0.000000e+00
   endloop
 endfacet
 facet normal  1.617820e-01 -9.868265e-01  0.000000e+00
   outer loop
     vertex  2.140227e-02 -7.708400e-02  0.000000e+00
     vertex  2.140227e-02 -7.708400e-02  1.000000e+00
     vertex  4.331113e-03 -7.988267e-02  1.000000e+00
   endloop
 endfacet
 facet normal  1.617820e-01 -9.868265e-01  0.000000e+00
   outer loop
     vertex  2.140227e-02 -7.708400e-02  0.000000e+00
     vertex  4.331113e-03 -7.988267e-02  1.000000e+00
     vertex  4.331113e-03 -7.988267e-02  0.000000e+00
   endloop
 endfacet
 facet normal  3.701382e-01 -9.289767e-01  0.000000e+00
   outer loop
     vertex  3.747268e-02 -7.068096e-02  0.000000e+00
     vertex  3.747268e-02 -7.068096e-02  1.000000e+00
     vertex  2.140227e-02 -7.708400e-02  1.000000e+00
   endloop
 endfacet
 facet normal  3.701382e-01 -9.289767e-01  0.000000e+00
   outer loop
     vertex  3.747268e-02 -7.068096e-02  0.000000e+00
     vertex  2.140227e-02 -7.708400e-02  1.000000e+00
     vertex  2.140227e-02 -7.708400e-02  0.000000e+00
   endloop
 endfacet
 facet normal  5.611871e-01 -8.276890e-01  0.000000e+00
   outer loop
     vertex  5.179090e-02 -6.097296e-02  0.000000e+00
     vertex  5.179090e-02 -6.097296e-02  1.000000e+00
     vertex  3.747268e-02 -7.068096e-02  1.000000e+00
   endloop
 endfacet
 facet normal  5.611871e-01 -8.276890e-01  0.000000e+00
   outer loop
     vertex  5.179090e-02 -6.097296e-02  0.000000e+00
     vertex  3.747268e-02 -7.068096e-02  1.000000e+00
     vertex  3.747268e-02 -7.068096e-02  0.000000e+00
   endloop
 endfacet
 facet normal  7.259955e-01 -6.876995e-01  0.000000e+00
   outer loop
     vertex  6.368745e-02 -4.841394e-02  0.000000e+00
     vertex  6.368745e-02 -4.841394e-02  1.000000e+00
     vertex  5.179090e-02 -6.097296e-02  1.000000e+00
   endloop
 endfacet
 facet normal  7.259955e-01 -6.876995e-01  0.000000e+00
   outer loop
     vertex  6.368745e-02 -4.841394e-02  0.000000e+00
     vertex  5.179090e-02 -6.097296e-02  1.000000e+00
     vertex  5.179090e-02 -6.097296e-02  0.000000e+00
   endloop
 endfacet
 facet normal  8.568572e-01 -5.155539e-01  0.000000e+00
   outer loop
     vertex  7.260603e-02 -3.359113e-02  0.000000e+00
     vertex  7.260603e-02 -3.359113e-02  1.000000e+00
     vertex  6.368745e-02 -4.841394e-02  1.000000e+00
   endloop
 endfacet
 facet normal  8.568572e-01 -5.155539e-01  0.000000e+00
   outer loop
     vertex  7.260603e-02 -3.359113e-02  0.000000e+00
     vertex  6.368745e-02 -4.841394e-02  1.000000e+00
     vertex  6.368745e-02 -4.841394e-02  0.000000e+00
   endloop
 endfacet
 facet normal  9.476532e-01 -3.193015e-01  0.000000e+00
   outer loop
     vertex  7.812964e-02 -1.719764e-02  0.000000e+00
     vertex  7.812964e-02 -1.719764e-02  1.000000e+00
     vertex  7.260603e-02 -3.359113e-02  1.000000e+00
   endloop
 endfacet
 facet normal  9.476532e-01 -3.193015e-01  0.000000e+00
   outer loop
     vertex  7.812964e-02 -1.719764e-02  0.000000e+00
     vertex  7.260603e-02 -3.359113e-02  1.000000e+00
     vertex  7.260603e-02 -3.359113e-02  0.000000e+00
   endloop
 endfacet
 facet normal  9.941380e-01 -1.081190e-01  0.000000e+00
   outer loop
     vertex  8.000000e-02  0.000000e+00  0.000000e+00
     vertex  8.000000e-02  0.000000e+00  1.000000e+00
     vertex  7.812964e-02 -1.719764e-02  1.000000e+00
   endloop
 endfacet
 facet normal  9.941380e-01 -1.081190e-01  0.000000e+00
   outer loop
     vertex  8.000000e-02  0.000000e+00  0.000000e+00
     vertex  7.812964e-02 -1.719764e-02  1.000000e+00
     vertex  7.812964e-02 -1.719764e-02  0.000000e+00
   endloop
 endfacet
 facet normal -9.932384e-01 -1.160929e-01  0.000000e+00
   outer loop
     vertex  6.811314e-02  1.614311e-02  0.000000e+00
     vertex  7.000000e-02  0.000000e+00  0.000000e+00
     vertex  7.000000e-02  0.000000e+00  1.000000e+00
   endloop
 endfacet
 facet normal -9.932384e-01 -1.160929e-01  0.000000e+00
   outer loop
     vertex  6.811314e-02  1.614311e-02  0.000000e+00
     vertex  7.000000e-02  0.000000e+00  1.000000e+00
     vertex  6.811314e-02  1.614311e-02  1.000000e+00
   endloop
 endfacet
 facet normal -9.396926e-01 -3.420201e-01  0.000000e+00
   outer loop
     vertex  6.255428e-02  3.141594e-02  0.000000e+00
     vertex  6.811314e-02  1.614311e-02  1.000000e+00
     vertex  6.255428e-02  3.141594e-02  1.000000e+00
   endloop
 endfacet
 facet normal -9.396926e-01 -3.420201e-01  0.000000e+00
   outer loop
     vertex  6.255428e-02  3.141594e-02  0.000000e+00
     vertex  6.811314e-02  1.614311e-02  0.000000e+00
     vertex  6.811314e-02  1.614311e-02  1.000000e+00
   endloop
 endfacet
 facet normal -8.354878e-01 -5.495090e-01  0.000000e+00
   outer loop
     vertex  5.362311e-02  4.499513e-02  0.000000e+00
     vertex  6.255428e-02  3.141594e-02  1.000000e+00
     vertex  5.362311e-02  4.499513e-02  1.000000e+00
   endloop
 endfacet
 facet normal -8.354878e-01 -5.495090e-01  0.000000e+00
   outer loop
     vertex  5.362311e-02  4.499513e-02  0.000000e+00
     vertex  6.255428e-02  3.141594e-02  0.000000e+00
     vertex  6.255428e-02  3.141594e-02  1.000000e+00
   endloop
 endfacet
 facet normal -6.862416e-01 -7.273736e-01  0.000000e+00
   outer loop
     vertex  4.180110e-02  5.614862e-02  0.000000e+00
     vertex  5.362311e-02  4.499513e-02  1.000000e+00
     vertex  4.180110e-02  5.614862e-02  1.000000e+00
   endloop
 endfacet
 facet normal -6.862416e-01 -7.273736e-01  0.000000e+00
   outer loop
     vertex  4.180110e-02  5.614862e-02  0.000000e+00
     vertex  5.362311e-02  4.499513e-02  0.000000e+00
     vertex  5.362311e-02  4.499513e-02  1.000000e+00
   endloop
 endfacet
 facet normal -5.000000e-01 -8.660254e-01  0.000000e+00
   outer loop
     vertex  2.772558e-02  6.427513e-02  0.000000e+00
     vertex  4.180110e-02  5.614862e-02  1.000000e+00
     vertex  2.772558e-02  6.427513e-02  1.000000e+00
   endloop
 endfacet
 facet normal -5.000000e-01 -8.660254e-01  0.000000e+00
   outer loop
     vertex  2.772558e-02  6.427513e-02  0.000000e+00
     vertex  4.180110e-02  5.614862e-02  0.000000e+00
     vertex  4.180110e-02  5.614862e-02  1.000000e+00
   endloop
 endfacet
 facet normal -2.868032e-01 -9.579895e-01  0.000000e+00
   outer loop
     vertex  1.215537e-02  6.893654e-02  0.000000e+00
     vertex  2.772558e-02  6.427513e-02  1.000000e+00
     vertex  1.215537e-02  6.893654e-02  1.000000e+00
   endloop
 endfacet
 facet normal -5.814483e-02 -9.983082e-01  0.000000e+00
   outer loop
     vertex  1.215537e-02  6.893654e-02  0.000000e+00
     vertex  1.215537e-02  6.893654e-02  1.000000e+00
     vertex -4.070138e-03  6.988157e-02  1.000000e+00
   endloop
 endfacet
 facet normal -2.868032e-01 -9.579895e-01  0.000000e+00
   outer loop
     vertex  1.215537e-02  6.893654e-02  0.000000e+00
     vertex  2.772558e-02  6.427513e-02  0.000000e+00
     vertex  2.772558e-02  6.427513e-02  1.000000e+00
   endloop
 endfacet
 facet normal -5.814483e-02 -9.983082e-01  0.000000e+00
   outer loop
     vertex -4.070138e-03  6.988157e-02  0.000000e+00
     vertex  1.215537e-02  6.893654e-02  0.000000e+00
     vertex -4.070138e-03  6.988157e-02  1.000000e+00
   endloop
 endfacet
 facet normal  1.736482e-01 -9.848078e-01  0.000000e+00
   outer loop
     vertex -2.007623e-02  6.705927e-02  0.000000e+00
     vertex -4.070138e-03  6.988157e-02  1.000000e+00
     vertex -2.007623e-02  6.705927e-02  1.000000e+00
   endloop
 endfacet
 facet normal  1.736482e-01 -9.848078e-01  0.000000e+00
   outer loop
     vertex -2.007623e-02  6.705927e-02  0.000000e+00
     vertex -4.070138e-03  6.988157e-02  0.000000e+00
     vertex -4.070138e-03  6.988157e-02  1.000000e+00
   endloop
 endfacet
 facet normal  3.960798e-01 -9.182161e-01  0.000000e+00
   outer loop
     vertex -3.500000e-02  6.062178e-02  0.000000e+00
     vertex -2.007623e-02  6.705927e-02  1.000000e+00
     vertex -3.500000e-02  6.062178e-02  1.000000e+00
   endloop
 endfacet
 facet normal  3.960798e-01 -9.182161e-01  0.000000e+00
   outer loop
     vertex -3.500000e-02  6.062178e-02  0.000000e+00
     vertex -2.007623e-02  6.705927e-02  0.000000e+00
     vertex -2.007623e-02  6.705927e-02  1.000000e+00
   endloop
 endfacet
 facet normal  5.971586e-01 -8.021232e-01  0.000000e+00
   outer loop
     vertex -4.803691e-02  5.091615e-02  0.000000e+00
     vertex -3.500000e-02  6.062178e-02  1.000000e+00
     vertex -4.803691e-02  5.091615e-02  1.000000e+00
   endloop
 endfacet
 facet normal  5.971586e-01 -8.021232e-01  0.000000e+00
   outer loop
     vertex -4.803691e-02  5.091615e-02  0.000000e+00
     vertex -3.500000e-02  6.062178e-02  0.000000e+00
     vertex -3.500000e-02  6.062178e-02  1.000000e+00
   endloop
 endfacet
 facet normal  7.660444e-01 -6.427876e-01  0.000000e+00
   outer loop
     vertex -5.848415e-02  3.846563e-02  0.000000e+00
     vertex -4.803691e-02  5.091615e-02  0.000000e+00
     vertex -4.803691e-02  5.091615e-02  1.000000e+00
   endloop
 endfacet
 facet normal  7.660444e-01 -6.427876e-01  0.000000e+00
   outer loop
     vertex -5.848415e-02  3.846563e-02  0.000000e+00
     vertex -4.803691e-02  5.091615e-02  1.000000e+00
     vertex -5.848415e-02  3.846563e-02  1.000000e+00
   endloop
 endfacet
 facet normal  8.936326e-01 -4.487992e-01  0.000000e+00
   outer loop
     vertex -6.577848e-02  2.394141e-02  0.000000e+00
     vertex -5.848415e-02  3.846563e-02  0.000000e+00
     vertex -5.848415e-02  3.846563e-02  1.000000e+00
   endloop
 endfacet
 facet normal  8.936326e-01 -4.487992e-01  0.000000e+00
   outer loop
     vertex -6.577848e-02  2.394141e-02  0.000000e+00
     vertex -5.848415e-02  3.846563e-02  1.000000e+00
     vertex -6.577848e-02  2.394141e-02  1.000000e+00
   endloop
 endfacet
 facet normal  9.730449e-01 -2.306159e-01  0.000000e+00
   outer loop
     vertex -6.952669e-02  8.126504e-03  0.000000e+00
     vertex -6.577848e-02  2.394141e-02  0.000000e+00
     vertex -6.577848e-02  2.394141e-02  1.000000e+00
   endloop
 endfacet
 facet normal  9.730449e-01 -2.306159e-01  0.000000e+00
   outer loop
     vertex -6.952669e-02  8.126504e-03  0.000000e+00
     vertex -6.577848e-02  2.394141e-02  1.000000e+00
     vertex -6.952669e-02  8.126504e-03  1.000000e+00
   endloop
 endfacet
 facet normal  1.000000e+00  0.000000e+00  0.000000e+00
   outer loop
     vertex -6.952669e-02 -8.126504e-03  0.000000e+00
     vertex -6.952669e-02  8.126504e-03  1.000000e+00
     vertex -6.952669e-02 -8.126504e-03  1.000000e+00
   endloop
 endfacet
 facet normal  1.000000e+00  0.000000e+00  0.000000e+00
   outer loop
     vertex -6.952669e-02 -8.126504e-03  0.000000e+00
     vertex -6.952669e-02  8.126504e-03  0.000000e+00
     vertex -6.952669e-02  8.126504e-03  1.000000e+00
   endloop
 endfacet
 facet normal  9.730449e-01  2.306159e-01 -0.000000e+00
   outer loop
     vertex -6.577848e-02 -2.394141e-02  0.000000e+00
     vertex -6.952669e-02 -8.126504e-03  1.000000e+00
     vertex -6.577848e-02 -2.394141e-02  1.000000e+00
   endloop
 endfacet
 facet normal  9.730449e-01  2.306159e-01  0.000000e+00
   outer loop
     vertex -6.577848e-02 -2.394141e-02  0.000000e+00
     vertex -6.952669e-02 -8.126504e-03  0.000000e+00
     vertex -6.952669e-02 -8.126504e-03  1.000000e+00
   endloop
 endfacet
 facet normal  8.936326e-01  4.487992e-01 -0.000000e+00
   outer loop
     vertex -5.848415e-02 -3.846563e-02  0.000000e+00
     vertex -6.577848e-02 -2.394141e-02  1.000000e+00
     vertex -5.848415e-02 -3.846563e-02  1.000000e+00
   endloop
 endfacet
 facet normal  8.936326e-01  4.487992e-01  0.000000e+00
   outer loop
     vertex -5.848415e-02 -3.846563e-02  0.000000e+00
     vertex -6.577848e-02 -2.394141e-02  0.000000e+00
     vertex -6.577848e-02 -2.394141e-02  1.000000e+00
   endloop
 endfacet
 facet normal  7.660444e-01  6.427876e-01 -0.000000e+00
   outer loop
     vertex -4.803691e-02 -5.091615e-02  0.000000e+00
     vertex -5.848415e-02 -3.846563e-02  1.000000e+00
     vertex -4.803691e-02 -5.091615e-02  1.000000e+00
   endloop
 endfacet
 facet normal  7.660444e-01  6.427876e-01  0.000000e+00
   outer loop
     vertex -4.803691e-02 -5.091615e-02  0.000000e+00
     vertex -5.848415e-02 -3.846563e-02  0.000000e+00
     vertex -5.848415e-02 -3.846563e-02  1.000000e+00
   endloop
 endfacet
 facet normal  5.971586e-01  8.021232e-01 -0.000000e+00
   outer loop
     vertex -3.500000e-02 -6.062178e-02  0.000000e+00
     vertex -4.803691e-02 -5.091615e-02  1.000000e+00
     vertex -3.500000e-02 -6.062178e-02  1.000000e+00
   endloop
 endfacet
 facet normal  5.971586e-01  8.021232e-01  0.000000e+00
   outer loop
     vertex -3.500000e-02 -6.062178e-02  0.000000e+00
     vertex -4.803691e-02 -5.091615e-02  0.000000e+00
     vertex -4.803691e-02 -5.091615e-02  1.000000e+00
   endloop
 endfacet
 facet normal  3.960798e-01  9.182161e-01 -0.000000e+00
   outer loop
     vertex -2.007623e-02 -6.705927e-02  0.000000e+00
     vertex -3.500000e-02 -6.062178e-02  1.000000e+00
     vertex -2.007623e-02 -6.705927e-02  1.000000e+00
   endloop
 endfacet
 facet normal  3.960798e-01  9.182161e-01  0.000000e+00
   outer loop
     vertex -2.007623e-02 -6.705927e-02  0.000000e+00
     vertex -3.500000e-02 -6.062178e-02  0.000000e+00
     vertex -3.500000e-02 -6.062178e-02  1.000000e+00
   endloop
 endfacet
 facet normal  1.736482e-01  9.848078e-01 -0.000000e+00
   outer loop
     vertex -4.070138e-03 -6.988157e-02  0.000000e+00
     vertex -2.007623e-02 -6.705927e-02  1.000000e+00
     vertex -4.070138e-03 -6.988157e-02  1.000000e+00
   endloop
 endfacet
 facet normal  1.736482e-01  9.848078e-01  0.000000e+00
   outer loop
     vertex -4.070138e-03 -6.988157e-02  0.000000e+00
     vertex -2.007623e-02 -6.705927e-02  0.000000e+00
     vertex -2.007623e-02 -6.705927e-02  1.000000e+00
   endloop
 endfacet
 facet normal -5.814483e-02  9.983082e-01  0.000000e+00
   outer loop
     vertex  1.215537e-02 -6.893654e-02  0.000000e+00
     vertex -4.070138e-03 -6.988157e-02  1.000000e+00
     vertex  1.215537e-02 -6.893654e-02  1.000000e+00
   endloop
 endfacet
 facet normal -5.814483e-02  9.983082e-01  0.000000e+00
   outer loop
     vertex  1.215537e-02 -6.893654e-02  0.000000e+00
     vertex -4.070138e-03 -6.988157e-02  0.000000e+00
     vertex -4.070138e-03 -6.988157e-02  1.000000e+00
   endloop
 endfacet
 facet normal -2.868032e-01  9.579895e-01  0.000000e+00
   outer loop
     vertex  2.772558e-02 -6.427513e-02  0.000000e+00
     vertex  1.215537e-02 -6.893654e-02  1.000000e+00
     vertex  2.772558e-02 -6.427513e-02  1.000000e+00
   endloop
 endfacet
 facet normal -2.868032e-01  9.579895e-01  0.000000e+00
   outer loop
     vertex  2.772558e-02 -6.427513e-02  0.000000e+00
     vertex  1.215537e-02 -6.893654e-02  0.000000e+00
     vertex  1.215537e-02 -6.893654e-02  1.000000e+00
   endloop
 endfacet
 facet normal -5.000000e-01  8.660254e-01  0.000000e+00
   outer loop
     vertex  4.180110e-02 -5.614862e-02  0.000000e+00
     vertex  2.772558e-02 -6.427513e-02  1.000000e+00
     vertex  4.180110e-02 -5.614862e-02  1.000000e+00
   endloop
 endfacet
 facet normal -5.000000e-01  8.660254e-01  0.000000e+00
   outer loop
     vertex  4.180110e-02 -5.614862e-02  0.000000e+00
     vertex  2.772558e-02 -6.427513e-02  0.000000e+00
     vertex  2.772558e-02 -6.427513e-02  1.000000e+00
   endloop
 endfacet
 facet normal -6.862416e-01  7.273736e-01  0.000000e+00
   outer loop
     vertex  5.362311e-02 -4.499513e-02  0.000000e+00
     vertex  4.180110e-02 -5.614862e-02  1.000000e+00
     vertex  5.362311e-02 -4.499513e-02  1.000000e+00
   endloop
 endfacet
 facet normal -6.862416e-01  7.273736e-01  0.000000e+00
   outer loop
     vertex  5.362311e-02 -4.499513e-02  0.000000e+00
     vertex  4.180110e-02 -5.614862e-02  0.000000e+00
     vertex  4.180110e-02 -5.614862e-02  1.000000e+00
   endloop
 endfacet
 facet normal -8.354878e-01  5.495090e-01  0.000000e+00
   outer loop
     vertex  6.255428e-02 -3.141594e-02  0.000000e+00
     vertex  5.362311e-02 -4.499513e-02  1.000000e+00
     vertex  6.255428e-02 -3.141594e-02  1.000000e+00
   endloop
 endfacet
 facet normal -8.354878e-01  5.495090e-01  0.000000e+00
   outer loop
     vertex  6.255428e-02 -3.141594e-02  0.000000e+00
     vertex  5.362311e-02 -4.499513e-02  0.000000e+00
     vertex  5.362311e-02 -4.499513e-02  1.000000e+00
   endloop
 endfacet
 facet normal -9.396926e-01  3.420201e-01  0.000000e+00
   outer loop
     vertex  6.811314e-02 -1.614311e-02  0.000000e+00
     vertex  6.255428e-02 -3.141594e-02  1.000000e+00
     vertex  6.811314e-02 -1.614311e-02  1.000000e+00
   endloop
 endfacet
 facet normal -9.396926e-01  3.420201e-01  0.000000e+00
   outer loop
     vertex  6.811314e-02 -1.614311e-02  0.000000e+00
     vertex  6.255428e-02 -3.141594e-02  0.000000e+00
     vertex  6.255428e-02 -3.141594e-02  1.000000e+00
   endloop
 endfacet
 facet normal -9.932384e-01  1.160929e-01  0.000000e+00
   outer loop
     vertex  7.000000e-02  0.000000e+00  0.000000e+00
     vertex  6.811314e-02 -1.614311e-02  1.000000e+00
     vertex  7.000000e-02  0.000000e+00  1.000000e+00
   endloop
 endfacet
 facet normal -9.932384e-01  1.160929e-01  0.000000e+00
   outer loop
     vertex  7.000000e-02  0.000000e+00  0.000000e+00
     vertex  6.811314e-02 -1.614311e-02  0.000000e+00
     vertex  6.811314e-02 -1.614311e-02  1.000000e+00
   endloop
 endfacet
 facet normal  0.000000e+00 -0.000000e+00 -1.000000e+00
   outer loop
     vertex -4.803691e-02 -5.091615e-02  0.000000e+00
     vertex -4.489497e-02 -6.621512e-02  0.000000e+00
     vertex -5.807964e-02 -5.501596e-02  0.000000e+00
   endloop
 endfacet
 facet normal  0.000000e+00 -0.000000e+00 -1.000000e+00
   outer loop
     vertex -5.848415e-02 -3.846563e-02  0.000000e+00
     vertex -5.807964e-02 -5.501596e-02  0.000000e+00
     vertex -6.854857e-02 -4.124431e-02  0.000000e+00
   endloop
 endfacet
 facet normal  0.000000e+00  0.000000e+00 -1.000000e+00
   outer loop
     vertex -5.848415e-02 -3.846563e-02  0.000000e+00
     vertex -4.803691e-02 -5.091615e-02  0.000000e+00
     vertex -5.807964e-02 -5.501596e-02  0.000000e+00
   endloop
 endfacet
 facet normal  0.000000e+00 -0.000000e+00 -1.000000e+00
   outer loop
     vertex -3.500000e-02 -6.062178e-02  0.000000e+00
     vertex -2.961105e-02 -7.431814e-02  0.000000e+00
     vertex -4.489497e-02 -6.621512e-02  0.000000e+00
   endloop
 endfacet
 facet normal -0.000000e+00  0.000000e+00 -1.000000e+00
   outer loop
     vertex -3.500000e-02 -6.062178e-02  0.000000e+00
     vertex -4.489497e-02 -6.621512e-02  0.000000e+00
     vertex -4.803691e-02 -5.091615e-02  0.000000e+00
   endloop
 endfacet
 facet normal  0.000000e+00  0.000000e+00 -1.000000e+00
   outer loop
     vertex -6.577848e-02 -2.394141e-02  0.000000e+00
     vertex -6.854857e-02 -4.124431e-02  0.000000e+00
     vertex -7.581225e-02 -2.554412e-02  0.000000e+00
   endloop
 endfacet
 facet normal  0.000000e+00 -0.000000e+00 -1.000000e+00
   outer loop
     vertex -6.577848e-02 -2.394141e-02  0.000000e+00
     vertex -5.848415e-02 -3.846563e-02  0.000000e+00
     vertex -6.854857e-02 -4.124431e-02  0.000000e+00
   endloop
 endfacet
 facet normal  0.000000e+00 -0.000000e+00 -1.000000e+00
   outer loop
     vertex -2.007623e-02 -6.705927e-02  0.000000e+00
     vertex -1.294256e-02 -7.894612e-02  0.000000e+00
     vertex -2.961105e-02 -7.431814e-02  0.000000e+00
   endloop
 endfacet
 facet normal -0.000000e+00  0.000000e+00 -1.000000e+00
   outer loop
     vertex -2.007623e-02 -6.705927e-02  0.000000e+00
     vertex -2.961105e-02 -7.431814e-02  0.000000e+00
     vertex -3.500000e-02 -6.062178e-02  0.000000e+00
   endloop
 endfacet
 facet normal  0.000000e+00  0.000000e+00 -1.000000e+00
   outer loop
     vertex -6.952669e-02 -8.126504e-03  0.000000e+00
     vertex -7.581225e-02 -2.554412e-02  0.000000e+00
     vertex -7.953104e-02 -8.649521e-03  0.000000e+00
   endloop
 endfacet
 facet normal  0.000000e+00 -0.000000e+00 -1.000000e+00
   outer loop
     vertex -6.952669e-02 -8.126504e-03  0.000000e+00
     vertex -6.577848e-02 -2.394141e-02  0.000000e+00
     vertex -7.581225e-02 -2.554412e-02  0.000000e+00
   endloop
 endfacet
 facet normal  0.000000e+00 -0.000000e+00 -1.000000e+00
   outer loop
     vertex -4.070138e-03 -6.988157e-02  0.000000e+00
     vertex  4.331113e-03 -7.988267e-02  0.000000e+00
     vertex -1.294256e-02 -7.894612e-02  0.000000e+00
   endloop
 endfacet
 facet normal -0.000000e+00  0.000000e+00 -1.000000e+00
   outer loop
     vertex -4.070138e-03 -6.988157e-02  0.000000e+00
     vertex -1.294256e-02 -7.894612e-02  0.000000e+00
     vertex -2.007623e-02 -6.705927e-02  0.000000e+00
   endloop
 endfacet
 facet normal -0.000000e+00  0.000000e+00 -1.000000e+00
   outer loop
     vertex -6.952669e-02  8.126504e-03  0.000000e+00
     vertex -7.953104e-02 -8.649521e-03  0.000000e+00
     vertex -7.953104e-02  8.649521e-03  0.000000e+00
   endloop
 endfacet
 facet normal  0.000000e+00 -0.000000e+00 -1.000000e+00
   outer loop
     vertex -6.952669e-02  8.126504e-03  0.000000e+00
     vertex -6.952669e-02 -8.126504e-03  0.000000e+00
     vertex -7.953104e-02 -8.649521e-03  0.000000e+00
   endloop
 endfacet
 facet normal  0.000000e+00  0.000000e+00 -1.000000e+00
   outer loop
     vertex  1.215537e-02 -6.893654e-02  0.000000e+00
     vertex  4.331113e-03 -7.988267e-02  0.000000e+00
     vertex -4.070138e-03 -6.988157e-02  0.000000e+00
   endloop
 endfacet
 facet normal -0.000000e+00  0.000000e+00 -1.000000e+00
   outer loop
     vertex  2.140227e-02 -7.708400e-02  0.000000e+00
     vertex  4.331113e-03 -7.988267e-02  0.000000e+00
     vertex  1.215537e-02 -6.893654e-02  0.000000e+00
   endloop
 endfacet
 facet normal  0.000000e+00 -0.000000e+00 -1.000000e+00
   outer loop
     vertex -7.581225e-02  2.554412e-02  0.000000e+00
     vertex -6.952669e-02  8.126504e-03  0.000000e+00
     vertex -7.953104e-02  8.649521e-03  0.000000e+00
   endloop
 endfacet
 facet normal -0.000000e+00  0.000000e+00 -1.000000e+00
   outer loop
     vertex -6.577848e-02  2.394141e-02  0.000000e+00
     vertex -6.952669e-02  8.126504e-03  0.000000e+00
     vertex -7.581225e-02  2.554412e-02  0.000000e+00
   endloop
 endfacet
 facet normal  0.000000e+00  0.000000e+00 -1.000000e+00
   outer loop
     vertex  2.772558e-02 -6.427513e-02  0.000000e+00
     vertex  2.140227e-02 -7.708400e-02  0.000000e+00
     vertex  1.215537e-02 -6.893654e-02  0.000000e+00
   endloop
 endfacet
 facet normal -0.000000e+00  0.000000e+00 -1.000000e+00
   outer loop
     vertex  3.747268e-02 -7.068096e-02  0.000000e+00
     vertex  2.140227e-02 -7.708400e-02  0.000000e+00
     vertex  2.772558e-02 -6.427513e-02  0.000000e+00
   endloop
 endfacet
 facet normal  0.000000e+00 -0.000000e+00 -1.000000e+00
   outer loop
     vertex -6.854857e-02  4.124431e-02  0.000000e+00
     vertex -6.577848e-02  2.394141e-02  0.000000e+00
     vertex -7.581225e-02  2.554412e-02  0.000000e+00
   endloop
 endfacet
 facet normal -0.000000e+00  0.000000e+00 -1.000000e+00
   outer loop
     vertex -5.848415e-02  3.846563e-02  0.000000e+00
     vertex -6.577848e-02  2.394141e-02  0.000000e+00
     vertex -6.854857e-02  4.124431e-02  0.000000e+00
   endloop
 endfacet
 facet normal  0.000000e+00  0.000000e+00 -1.000000e+00
   outer loop
     vertex  4.180110e-02 -5.614862e-02  0.000000e+00
     vertex  3.747268e-02 -7.068096e-02  0.000000e+00
     vertex  2.772558e-02 -6.427513e-02  0.000000e+00
   endloop
 endfacet
 facet normal -0.000000e+00  0.000000e+00 -1.000000e+00
   outer loop
     vertex  5.179090e-02 -6.097296e-02  0.000000e+00
     vertex  3.747268e-02 -7.068096e-02  0.000000e+00
     vertex  4.180110e-02 -5.614862e-02  0.000000e+00
   endloop
 endfacet
 facet normal  0.000000e+00  0.000000e+00 -1.000000e+00
   outer loop
     vertex -5.807964e-02  5.501596e-02  0.000000e+00
     vertex -5.848415e-02  3.846563e-02  0.000000e+00
     vertex -6.854857e-02  4.124431e-02  0.000000e+00
   endloop
 endfacet
 facet normal -0.000000e+00  0.000000e+00 -1.000000e+00
   outer loop
     vertex -4.803691e-02  5.091615e-02  0.000000e+00
     vertex -5.848415e-02  3.846563e-02  0.000000e+00
     vertex -5.807964e-02  5.501596e-02  0.000000e+00
   endloop
 endfacet
 facet normal  0.000000e+00  0.000000e+00 -1.000000e+00
   outer loop
     vertex  5.362311e-02 -4.499513e-02  0.000000e+00
     vertex  5.179090e-02 -6.097296e-02  0.000000e+00
     vertex  4.180110e-02 -5.614862e-02  0.000000e+00
   endloop
 endfacet
 facet normal -0.000000e+00  0.000000e+00 -1.000000e+00
   outer loop
     vertex  6.368745e-02 -4.841394e-02  0.000000e+00
     vertex  5.179090e-02 -6.097296e-02  0.000000e+00
     vertex  5.362311e-02 -4.499513e-02  0.000000e+00
   endloop
 endfacet
 facet normal  0.000000e+00  0.000000e+00 -1.000000e+00
   outer loop
     vertex -4.489497e-02  6.621512e-02  0.000000e+00
     vertex -4.803691e-02  5.091615e-02  0.000000e+00
     vertex -5.807964e-02  5.501596e-02  0.000000e+00
   endloop
 endfacet
 facet normal -0.000000e+00  0.000000e+00 -1.000000e+00
   outer loop
     vertex -3.500000e-02  6.062178e-02  0.000000e+00
     vertex -4.803691e-02  5.091615e-02  0.000000e+00
     vertex -4.489497e-02  6.621512e-02  0.000000e+00
   endloop
 endfacet
 facet normal  0.000000e+00 -0.000000e+00 -1.000000e+00
   outer loop
     vertex  6.255428e-02 -3.141594e-02  0.000000e+00
     vertex  6.368745e-02 -4.841394e-02  0.000000e+00
     vertex  5.362311e-02 -4.499513e-02  0.000000e+00
   endloop
 endfacet
 facet normal -0.000000e+00  0.000000e+00 -1.000000e+00
   outer loop
     vertex  7.260603e-02 -3.359113e-02  0.000000e+00
     vertex  6.368745e-02 -4.841394e-02  0.000000e+00
     vertex  6.255428e-02 -3.141594e-02  0.000000e+00
   endloop
 endfacet
 facet normal  0.000000e+00  0.000000e+00 -1.000000e+00
   outer loop
     vertex -2.961105e-02  7.431814e-02  0.000000e+00
     vertex -3.500000e-02  6.062178e-02  0.000000e+00
     vertex -4.489497e-02  6.621512e-02  0.000000e+00
   endloop
 endfacet
 facet normal -0.000000e+00  0.000000e+00 -1.000000e+00
   outer loop
     vertex -2.007623e-02  6.705927e-02  0.000000e+00
     vertex -3.500000e-02  6.062178e-02  0.000000e+00
     vertex -2.961105e-02  7.431814e-02  0.000000e+00
   endloop
 endfacet
 facet normal  0.000000e+00 -0.000000e+00 -1.000000e+00
   outer loop
     vertex  6.811314e-02 -1.614311e-02  0.000000e+00
     vertex  7.260603e-02 -3.359113e-02  0.000000e+00
     vertex  6.255428e-02 -3.141594e-02  0.000000e+00
   endloop
 endfacet
 facet normal -0.000000e+00  0.000000e+00 -1.000000e+00
   outer loop
     vertex  7.812964e-02 -1.719764e-02  0.000000e+00
     vertex  7.260603e-02 -3.359113e-02  0.000000e+00
     vertex  6.811314e-02 -1.614311e-02  0.000000e+00
   endloop
 endfacet
 facet normal  0.000000e+00  0.000000e+00 -1.000000e+00
   outer loop
     vertex -1.294256e-02  7.894612e-02  0.000000e+00
     vertex -2.007623e-02  6.705927e-02  0.000000e+00
     vertex -2.961105e-02  7.431814e-02  0.000000e+00
   endloop
 endfacet
 facet normal  0.000000e+00 -0.000000e+00 -1.000000e+00
   outer loop
     vertex -1.294256e-02  7.894612e-02  0.000000e+00
     vertex -4.070138e-03  6.988157e-02  0.000000e+00
     vertex -2.007623e-02  6.705927e-02  0.000000e+00
   endloop
 endfacet
 facet normal  0.000000e+00 -0.000000e+00 -1.000000e+00
   outer loop
     vertex  7.000000e-02  0.000000e+00  0.000000e+00
     vertex  7.812964e-02 -1.719764e-02  0.000000e+00
     vertex  6.811314e-02 -1.614311e-02  0.000000e+00
   endloop
 endfacet
 facet normal -0.000000e+00  0.000000e+00 -1.000000e+00
   outer loop
     vertex  8.000000e-02  0.000000e+00  0.000000e+00
     vertex  7.812964e-02 -1.719764e-02  0.000000e+00
     vertex  7.000000e-02  0.000000e+00  0.000000e+00
   endloop
 endfacet
 facet normal  0.000000e+00 -0.000000e+00 -1.000000e+00
   outer loop
     vertex  4.331113e-03  7.988267e-02  0.000000e+00
     vertex  1.215537e-02  6.893654e-02  0.000000e+00
     vertex -4.070138e-03  6.988157e-02  0.000000e+00
   endloop
 endfacet
 facet normal  0.000000e+00  0.000000e+00 -1.000000e+00
   outer loop
     vertex  4.331113e-03  7.988267e-02  0.000000e+00
     vertex -4.070138e-03  6.988157e-02  0.000000e+00
     vertex -1.294256e-02  7.894612e-02  0.000000e+00
   endloop
 endfacet
 facet normal  0.000000e+00  0.000000e+00 -1.000000e+00
   outer loop
     vertex  7.812964e-02  1.719764e-02  0.000000e+00
     vertex  7.000000e-02  0.000000e+00  0.000000e+00
     vertex  6.811314e-02  1.614311e-02  0.000000e+00
   endloop
 endfacet
 facet normal  0.000000e+00 -0.000000e+00 -1.000000e+00
   outer loop
     vertex  7.812964e-02  1.719764e-02  0.000000e+00
     vertex  8.000000e-02  0.000000e+00  0.000000e+00
     vertex  7.000000e-02  0.000000e+00  0.000000e+00
   endloop
 endfacet
 facet normal -0.000000e+00  0.000000e+00 -1.000000e+00
   outer loop
     vertex  2.140227e-02  7.708400e-02  0.000000e+00
     vertex  1.215537e-02  6.893654e-02  0.000000e+00
     vertex  4.331113e-03  7.988267e-02  0.000000e+00
   endloop
 endfacet
 facet normal  0.000000e+00 -0.000000e+00 -1.000000e+00
   outer loop
     vertex  2.140227e-02  7.708400e-02  0.000000e+00
     vertex  2.772558e-02  6.427513e-02  0.000000e+00
     vertex  1.215537e-02  6.893654e-02  0.000000e+00
   endloop
 endfacet
 facet normal  0.000000e+00 -0.000000e+00 -1.000000e+00
   outer loop
     vertex  7.260603e-02  3.359113e-02  0.000000e+00
     vertex  7.812964e-02  1.719764e-02  0.000000e+00
     vertex  6.811314e-02  1.614311e-02  0.000000e+00
   endloop
 endfacet
 facet normal  0.000000e+00  0.000000e+00 -1.000000e+00
   outer loop
     vertex  7.260603e-02  3.359113e-02  0.000000e+00
     vertex  6.811314e-02  1.614311e-02  0.000000e+00
     vertex  6.255428e-02  3.141594e-02  0.000000e+00
   endloop
 endfacet
 facet normal -0.000000e+00  0.000000e+00 -1.000000e+00
   outer loop
     vertex  3.747268e-02  7.068096e-02  0.000000e+00
     vertex  2.772558e-02  6.427513e-02  0.000000e+00
     vertex  2.140227e-02  7.708400e-02  0.000000e+00
   endloop
 endfacet
 facet normal  0.000000e+00 -0.000000e+00 -1.000000e+00
   outer loop
     vertex  3.747268e-02  7.068096e-02  0.000000e+00
     vertex  4.180110e-02  5.614862e-02  0.000000e+00
     vertex  2.772558e-02  6.427513e-02  0.000000e+00
   endloop
 endfacet
 facet normal  0.000000e+00  0.000000e+00 -1.000000e+00
   outer loop
     vertex  6.368745e-02  4.841394e-02  0.000000e+00
     vertex  6.255428e-02  3.141594e-02  0.000000e+00
     vertex  5.362311e-02  4.499513e-02  0.000000e+00
   endloop
 endfacet
 facet normal  0.000000e+00 -0.000000e+00 -1.000000e+00
   outer loop
     vertex  6.368745e-02  4.841394e-02  0.000000e+00
     vertex  7.260603e-02  3.359113e-02  0.000000e+00
     vertex  6.255428e-02  3.141594e-02  0.000000e+00
   endloop
 endfacet
 facet normal -0.000000e+00  0.000000e+00 -1.000000e+00
   outer loop
     vertex  5.179090e-02  6.097296e-02  0.000000e+00
     vertex  4.180110e-02  5.614862e-02  0.000000e+00
     vertex  3.747268e-02  7.068096e-02  0.000000e+00
   endloop
 endfacet
 facet normal  0.000000e+00 -0.000000e+00 -1.000000e+00
   outer loop
     vertex  5.179090e-02  6.097296e-02  0.000000e+00
     vertex  5.362311e-02  4.499513e-02  0.000000e+00
     vertex  4.180110e-02  5.614862e-02  0.000000e+00
   endloop
 endfacet
 facet normal  0.000000e+00  0.000000e+00 -1.000000e+00
   outer loop
     vertex  5.179090e-02  6.097296e-02  0.000000e+00
     vertex  6.368745e-02  4.841394e-02  0.000000e+00
     vertex  5.362311e-02  4.499513e-02  0.000000e+00
   endloop
 endfacet
 facet normal  0.000000e+00  0.000000e+00  1.000000e+00
   outer loop
     vertex -4.803691e-02 -5.091615e-02  1.000000e+00
     vertex -5.807964e-02 -5.501596e-02  1.000000e+00
     vertex -4.489497e-02 -6.621512e-02  1.000000e+00
   endloop
 endfacet
 facet normal  0.000000e+00  0.000000e+00  1.000000e+00
   outer loop
     vertex -5.848415e-02 -3.846563e-02  1.000000e+00
     vertex -6.854857e-02 -4.124431e-02  1.000000e+00
     vertex -5.807964e-02 -5.501596e-02  1.000000e+00
   endloop
 endfacet
 facet normal  0.000000e+00  0.000000e+00  1.000000e+00
   outer loop
     vertex -5.848415e-02 -3.846563e-02  1.000000e+00
     vertex -5.807964e-02 -5.501596e-02  1.000000e+00
     vertex -4.803691e-02 -5.091615e-02  1.000000e+00
   endloop
 endfacet
 facet normal  0.000000e+00  0.000000e+00  1.000000e+00
   outer loop
     vertex -3.500000e-02 -6.062178e-02  1.000000e+00
     vertex -4.489497e-02 -6.621512e-02  1.000000e+00
     vertex -2.961105e-02 -7.431814e-02  1.000000e+00
   endloop
 endfacet
 facet normal  0.000000e+00  0.000000e+00  1.000000e+00
   outer loop
     vertex -3.500000e-02 -6.062178e-02  1.000000e+00
     vertex -4.803691e-02 -5.091615e-02  1.000000e+00
     vertex -4.489497e-02 -6.621512e-02  1.000000e+00
   endloop
 endfacet
 facet normal  0.000000e+00  0.000000e+00  1.000000e+00
   outer loop
     vertex -6.577848e-02 -2.394141e-02  1.000000e+00
     vertex -7.581225e-02 -2.554412e-02  1.000000e+00
     vertex -6.854857e-02 -4.124431e-02  1.000000e+00
   endloop
 endfacet
 facet normal  0.000000e+00  0.000000e+00  1.000000e+00
   outer loop
     vertex -6.577848e-02 -2.394141e-02  1.000000e+00
     vertex -6.854857e-02 -4.124431e-02  1.000000e+00
     vertex -5.848415e-02 -3.846563e-02  1.000000e+00
   endloop
 endfacet
 facet normal  0.000000e+00  0.000000e+00  1.000000e+00
   outer loop
     vertex -2.007623e-02 -6.705927e-02  1.000000e+00
     vertex -2.961105e-02 -7.431814e-02  1.000000e+00
     vertex -1.294256e-02 -7.894612e-02  1.000000e+00
   endloop
 endfacet
 facet normal  0.000000e+00  0.000000e+00  1.000000e+00
   outer loop
     vertex -2.007623e-02 -6.705927e-02  1.000000e+00
     vertex -3.500000e-02 -6.062178e-02  1.000000e+00
     vertex -2.961105e-02 -7.431814e-02  1.000000e+00
   endloop
 endfacet
 facet normal  0.000000e+00  0.000000e+00  1.000000e+00
   outer loop
     vertex -6.952669e-02 -8.126504e-03  1.000000e+00
     vertex -7.953104e-02 -8.649521e-03  1.000000e+00
     vertex -7.581225e-02 -2.554412e-02  1.000000e+00
   endloop
 endfacet
 facet normal  0.000000e+00  0.000000e+00  1.000000e+00
   outer loop
     vertex -6.952669e-02 -8.126504e-03  1.000000e+00
     vertex -7.581225e-02 -2.554412e-02  1.000000e+00
     vertex -6.577848e-02 -2.394141e-02  1.000000e+00
   endloop
 endfacet
 facet normal  0.000000e+00  0.000000e+00  1.000000e+00
   outer loop
     vertex -4.070138e-03 -6.988157e-02  1.000000e+00
     vertex -1.294256e-02 -7.894612e-02  1.000000e+00
     vertex  4.331113e-03 -7.988267e-02  1.000000e+00
   endloop
 endfacet
 facet normal  0.000000e+00  0.000000e+00  1.000000e+00
   outer loop
     vertex -4.070138e-03 -6.988157e-02  1.000000e+00
     vertex -2.007623e-02 -6.705927e-02  1.000000e+00
     vertex -1.294256e-02 -7.894612e-02  1.000000e+00
   endloop
 endfacet
 facet normal  0.000000e+00  0.000000e+00  1.000000e+00
   outer loop
     vertex -6.952669e-02  8.126504e-03  1.000000e+00
     vertex -7.953104e-02  8.649521e-03  1.000000e+00
     vertex -7.953104e-02 -8.649521e-03  1.000000e+00
   endloop
 endfacet
 facet normal  0.000000e+00  0.000000e+00  1.000000e+00
   outer loop
     vertex -6.952669e-02  8.126504e-03  1.000000e+00
     vertex -7.953104e-02 -8.649521e-03  1.000000e+00
     vertex -6.952669e-02 -8.126504e-03  1.000000e+00
   endloop
 endfacet
 facet normal  0.000000e+00  0.000000e+00  1.000000e+00
   outer loop
     vertex  1.215537e-02 -6.893654e-02  1.000000e+00
     vertex -4.070138e-03 -6.988157e-02  1.000000e+00
     vertex  4.331113e-03 -7.988267e-02  1.000000e+00
   endloop
 endfacet
 facet normal  0.000000e+00  0.000000e+00  1.000000e+00
   outer loop
     vertex  2.140227e-02 -7.708400e-02  1.000000e+00
     vertex  1.215537e-02 -6.893654e-02  1.000000e+00
     vertex  4.331113e-03 -7.988267e-02  1.000000e+00
   endloop
 endfacet
 facet normal  0.000000e+00  0.000000e+00  1.000000e+00
   outer loop
     vertex -7.581225e-02  2.554412e-02  1.000000e+00
     vertex -7.953104e-02  8.649521e-03  1.000000e+00
     vertex -6.952669e-02  8.126504e-03  1.000000e+00
   endloop
 endfacet
 facet normal  0.000000e+00  0.000000e+00  1.000000e+00
   outer loop
     vertex -6.577848e-02  2.394141e-02  1.000000e+00
     vertex -7.581225e-02  2.554412e-02  1.000000e+00
     vertex -6.952669e-02  8.126504e-03  1.000000e+00
   endloop
 endfacet
 facet normal  0.000000e+00  0.000000e+00  1.000000e+00
   outer loop
     vertex  2.772558e-02 -6.427513e-02  1.000000e+00
     vertex  1.215537e-02 -6.893654e-02  1.000000e+00
     vertex  2.140227e-02 -7.708400e-02  1.000000e+00
   endloop
 endfacet
 facet normal  0.000000e+00  0.000000e+00  1.000000e+00
   outer loop
     vertex  3.747268e-02 -7.068096e-02  1.000000e+00
     vertex  2.772558e-02 -6.427513e-02  1.000000e+00
     vertex  2.140227e-02 -7.708400e-02  1.000000e+00
   endloop
 endfacet
 facet normal  0.000000e+00  0.000000e+00  1.000000e+00
   outer loop
     vertex -6.854857e-02  4.124431e-02  1.000000e+00
     vertex -7.581225e-02  2.554412e-02  1.000000e+00
     vertex -6.577848e-02  2.394141e-02  1.000000e+00
   endloop
 endfacet
 facet normal  0.000000e+00  0.000000e+00  1.000000e+00
   outer loop
     vertex -5.848415e-02  3.846563e-02  1.000000e+00
     vertex -6.854857e-02  4.124431e-02  1.000000e+00
     vertex -6.577848e-02  2.394141e-02  1.000000e+00
   endloop
 endfacet
 facet normal  0.000000e+00  0.000000e+00  1.000000e+00
   outer loop
     vertex  4.180110e-02 -5.614862e-02  1.000000e+00
     vertex  2.772558e-02 -6.427513e-02  1.000000e+00
     vertex  3.747268e-02 -7.068096e-02  1.000000e+00
   endloop
 endfacet
 facet normal  0.000000e+00  0.000000e+00  1.000000e+00
   outer loop
     vertex  5.179090e-02 -6.097296e-02  1.000000e+00
     vertex  4.180110e-02 -5.614862e-02  1.000000e+00
     vertex  3.747268e-02 -7.068096e-02  1.000000e+00
   endloop
 endfacet
 facet normal  0.000000e+00  0.000000e+00  1.000000e+00
   outer loop
     vertex -5.807964e-02  5.501596e-02  1.000000e+00
     vertex -6.854857e-02  4.124431e-02  1.000000e+00
     vertex -5.848415e-02  3.846563e-02  1.000000e+00
   endloop
 endfacet
 facet normal  0.000000e+00  0.000000e+00  1.000000e+00
   outer loop
     vertex -4.803691e-02  5.091615e-02  1.000000e+00
     vertex -5.807964e-02  5.501596e-02  1.000000e+00
     vertex -5.848415e-02  3.846563e-02  1.000000e+00
   endloop
 endfacet
 facet normal  0.000000e+00  0.000000e+00  1.000000e+00
   outer loop
     vertex  5.362311e-02 -4.499513e-02  1.000000e+00
     vertex  4.180110e-02 -5.614862e-02  1.000000e+00
     vertex  5.179090e-02 -6.097296e-02  1.000000e+00
   endloop
 endfacet
 facet normal  0.000000e+00  0.000000e+00  1.000000e+00
   outer loop
     vertex  6.368745e-02 -4.841394e-02  1.000000e+00
     vertex  5.362311e-02 -4.499513e-02  1.000000e+00
     vertex  5.179090e-02 -6.097296e-02  1.000000e+00
   endloop
 endfacet
 facet normal  0.000000e+00  0.000000e+00  1.000000e+00
   outer loop
     vertex -4.489497e-02  6.621512e-02  1.000000e+00
     vertex -5.807964e-02  5.501596e-02  1.000000e+00
     vertex -4.803691e-02  5.091615e-02  1.000000e+00
   endloop
 endfacet
 facet normal  0.000000e+00  0.000000e+00  1.000000e+00
   outer loop
     vertex -3.500000e-02  6.062178e-02  1.000000e+00
     vertex -4.489497e-02  6.621512e-02  1.000000e+00
     vertex -4.803691e-02  5.091615e-02  1.000000e+00
   endloop
 endfacet
 facet normal  0.000000e+00  0.000000e+00  1.000000e+00
   outer loop
     vertex  6.255428e-02 -3.141594e-02  1.000000e+00
     vertex  5.362311e-02 -4.499513e-02  1.000000e+00
     vertex  6.368745e-02 -4.841394e-02  1.000000e+00
   endloop
 endfacet
 facet normal  0.000000e+00  0.000000e+00  1.000000e+00
   outer loop
     vertex  7.260603e-02 -3.359113e-02  1.000000e+00
     vertex  6.255428e-02 -3.141594e-02  1.000000e+00
     vertex  6.368745e-02 -4.841394e-02  1.000000e+00
   endloop
 endfacet
 facet normal  0.000000e+00  0.000000e+00  1.000000e+00
   outer loop
     vertex -2.961105e-02  7.431814e-02  1.000000e+00
     vertex -4.489497e-02  6.621512e-02  1.000000e+00
     vertex -3.500000e-02  6.062178e-02  1.000000e+00
   endloop
 endfacet
 facet normal  0.000000e+00  0.000000e+00  1.000000e+00
   outer loop
     vertex -2.007623e-02  6.705927e-02  1.000000e+00
     vertex -2.961105e-02  7.431814e-02  1.000000e+00
     vertex -3.500000e-02  6.062178e-02  1.000000e+00
   endloop
 endfacet
 facet normal  0.000000e+00  0.000000e+00  1.000000e+00
   outer loop
     vertex  6.811314e-02 -1.614311e-02  1.000000e+00
     vertex  6.255428e-02 -3.141594e-02  1.000000e+00
     vertex  7.260603e-02 -3.359113e-02  1.000000e+00
   endloop
 endfacet
 facet normal  0.000000e+00  0.000000e+00  1.000000e+00
   outer loop
     vertex  7.812964e-02 -1.719764e-02  1.000000e+00
     vertex  6.811314e-02 -1.614311e-02  1.000000e+00
     vertex  7.260603e-02 -3.359113e-02  1.000000e+00
   endloop
 endfacet
 facet normal  0.000000e+00  0.000000e+00  1.000000e+00
   outer loop
     vertex -1.294256e-02  7.894612e-02  1.000000e+00
     vertex -2.961105e-02  7.431814e-02  1.000000e+00
     vertex -2.007623e-02  6.705927e-02  1.000000e+00
   endloop
 endfacet
 facet normal  0.000000e+00  0.000000e+00  1.000000e+00
   outer loop
     vertex -1.294256e-02  7.894612e-02  1.000000e+00
     vertex -2.007623e-02  6.705927e-02  1.000000e+00
     vertex -4.070138e-03  6.988157e-02  1.000000e+00
   endloop
 endfacet
 facet normal  0.000000e+00  0.000000e+00  1.000000e+00
   outer loop
     vertex  7.000000e-02  0.000000e+00  1.000000e+00
     vertex  6.811314e-02 -1.614311e-02  1.000000e+00
     vertex  7.812964e-02 -1.719764e-02  1.000000e+00
   endloop
 endfacet
 facet normal  0.000000e+00  0.000000e+00  1.000000e+00
   outer loop
     vertex  8.000000e-02  0.000000e+00  1.000000e+00
     vertex  7.000000e-02  0.000000e+00  1.000000e+00
     vertex  7.812964e-02 -1.719764e-02  1.000000e+00
   endloop
 endfacet
 facet normal  0.000000e+00  0.000000e+00  1.000000e+00
   outer loop
     vertex  4.331113e-03  7.988267e-02  1.000000e+00
     vertex -4.070138e-03  6.988157e-02  1.000000e+00
     vertex  1.215537e-02  6.893654e-02  1.000000e+00
   endloop
 endfacet
 facet normal  0.000000e+00  0.000000e+00  1.000000e+00
   outer loop
     vertex  4.331113e-03  7.988267e-02  1.000000e+00
     vertex -1.294256e-02  7.894612e-02  1.000000e+00
     vertex -4.070138e-03  6.988157e-02  1.000000e+00
   endloop
 endfacet
 facet normal  0.000000e+00  0.000000e+00  1.000000e+00
   outer loop
     vertex  7.812964e-02  1.719764e-02  1.000000e+00
     vertex  6.811314e-02  1.614311e-02  1.000000e+00
     vertex  7.000000e-02  0.000000e+00  1.000000e+00
   endloop
 endfacet
 facet normal  0.000000e+00  0.000000e+00  1.000000e+00
   outer loop
     vertex  7.812964e-02  1.719764e-02  1.000000e+00
     vertex  7.000000e-02  0.000000e+00  1.000000e+00
     vertex  8.000000e-02  0.000000e+00  1.000000e+00
   endloop
 endfacet
 facet normal  0.000000e+00  0.000000e+00  1.000000e+00
   outer loop
     vertex  2.140227e-02  7.708400e-02  1.000000e+00
     vertex  4.331113e-03  7.988267e-02  1.000000e+00
     vertex  1.215537e-02  6.893654e-02  1.000000e+00
   endloop
 endfacet
 facet normal  0.000000e+00  0.000000e+00  1.000000e+00
   outer loop
     vertex  2.140227e-02  7.708400e-02  1.000000e+00
     vertex  1.215537e-02  6.893654e-02  1.000000e+00
     vertex  2.772558e-02  6.427513e-02  1.000000e+00
   endloop
 endfacet
 facet normal  0.000000e+00  0.000000e+00  1.000000e+00
   outer loop
     vertex  7.260603e-02  3.359113e-02  1.000000e+00
     vertex  6.811314e-02  1.614311e-02  1.000000e+00
     vertex  7.812964e-02  1.719764e-02  1.000000e+00
   endloop
 endfacet
 facet normal  0.000000e+00  0.000000e+00  1.000000e+00
   outer loop
     vertex  7.260603e-02  3.359113e-02  1.000000e+00
     vertex  6.255428e-02  3.141594e-02  1.000000e+00
     vertex  6.811314e-02  1.614311e-02  1.000000e+00
   endloop
 endfacet
 facet normal  0.000000e+00  0.000000e+00  1.000000e+00
   outer loop
     vertex  3.747268e-02  7.068096e-02  1.000000e+00
     vertex  2.140227e-02  7.708400e-02  1.000000e+00
     vertex  2.772558e-02  6.427513e-02  1.000000e+00
   endloop
 endfacet
 facet normal  0.000000e+00  0.000000e+00  1.000000e+00
   outer loop
     vertex  3.747268e-02  7.068096e-02  1.000000e+00
     vertex  2.772558e-02  6.427513e-02  1.000000e+00
     vertex  4.180110e-02  5.614862e-02  1.000000e+00
   endloop
 endfacet
 facet normal  0.000000e+00  0.000000e+00  1.000000e+00
   outer loop
     vertex  6.368745e-02  4.841394e-02  1.000000e+00
     vertex  5.362311e-02  4.499513e-02  1.000000e+00
     vertex  6.255428e-02  3.141594e-02  1.000000e+00
   endloop
 endfacet
 facet normal  0.000000e+00  0.000000e+00  1.000000e+00
   outer loop
     vertex  6.368745e-02  4.841394e-02  1.000000e+00
     vertex  6.255428e-02  3.141594e-02  1.000000e+00
     vertex  7.260603e-02  3.359113e-02  1.000000e+00
   endloop
 endfacet
 facet normal  0.000000e+00  0.000000e+00  1.000000e+00
   outer loop
     vertex  5.179090e-02  6.097296e-02  1.000000e+00
     vertex  3.747268e-02  7.068096e-02  1.000000e+00
     vertex  4.180110e-02  5.614862e-02  1.000000e+00
   endloop
 endfacet
 facet normal  0.000000e+00  0.000000e+00  1.000000e+00
   outer loop
     vertex  5.179090e-02  6.097296e-02  1.000000e+00
     vertex  4.180110e-02  5.614862e-02  1.000000e+00
     vertex  5.362311e-02  4.499513e-02  1.000000e+00
   endloop
 endfacet
 facet normal  0.000000e+00  0.000000e+00  1.000000e+00
   outer loop
     vertex  5.179090e-02  6.097296e-02  1.000000e+00
     vertex  5.362311e-02  4.499513e-02  1.000000e+00
     vertex  6.368745e-02  4.841394e-02  1.000000e+00
   endloop
 endfacet
endsolid
