solid 
 facet normal  9.965845e-01  8.257935e-02  0.000000e+00
   outer loop
     vertex  1.380906e-01  2.304324e-02  0.000000e+00
     vertex  1.400000e-01  0.000000e+00  1.000000e+00
     vertex  1.400000e-01  0.000000e+00  0.000000e+00
   endloop
 endfacet
 facet normal  9.965845e-01  8.257935e-02 -0.000000e+00
   outer loop
     vertex  1.380906e-01  2.304324e-02  0.000000e+00
     vertex  1.380906e-01  2.304324e-02  1.000000e+00
     vertex  1.400000e-01  0.000000e+00  1.000000e+00
   endloop
 endfacet
 facet normal  9.694003e-01  2.454855e-01 -0.000000e+00
   outer loop
     vertex  1.324144e-01  4.545793e-02  0.000000e+00
     vertex  1.324144e-01  4.545793e-02  1.000000e+00
     vertex  1.380906e-01  2.304324e-02  1.000000e+00
   endloop
 endfacet
 facet normal  9.694003e-01  2.454855e-01  0.000000e+00
   outer loop
     vertex  1.324144e-01  4.545793e-02  0.000000e+00
     vertex  1.380906e-01  2.304324e-02  1.000000e+00
     vertex  1.380906e-01  2.304324e-02  0.000000e+00
   endloop
 endfacet
 facet normal  9.157733e-01  4.016954e-01 -0.000000e+00
   outer loop
     vertex  1.231263e-01  6.663264e-02  0.000000e+00
     vertex  1.231263e-01  6.663264e-02  1.000000e+00
     vertex  1.324144e-01  4.545793e-02  1.000000e+00
   endloop
 endfacet
 facet normal  9.157733e-01  4.016954e-01  0.000000e+00
   outer loop
     vertex  1.231263e-01  6.663264e-02  0.000000e+00
     vertex  1.324144e-01  4.545793e-02  1.000000e+00
     vertex  1.324144e-01  4.545793e-02  0.000000e+00
   endloop
 endfacet
 facet normal  8.371665e-01  5.469482e-01 -0.000000e+00
   outer loop
     vertex  1.104797e-01  8.598978e-02  0.000000e+00
     vertex  1.104797e-01  8.598978e-02  1.000000e+00
     vertex  1.231263e-01  6.663264e-02  1.000000e+00
   endloop
 endfacet
 facet normal  8.371665e-01  5.469482e-01  0.000000e+00
   outer loop
     vertex  1.104797e-01  8.598978e-02  0.000000e+00
     vertex  1.231263e-01  6.663264e-02  1.000000e+00
     vertex  1.231263e-01  6.663264e-02  0.000000e+00
   endloop
 endfacet
 facet normal  7.357239e-01  6.772816e-01  0.000000e+00
   outer loop
     vertex  9.481942e-02  1.030013e-01  0.000000e+00
     vertex  1.104797e-01  8.598978e-02  1.000000e+00
     vertex  1.104797e-01  8.598978e-02  0.000000e+00
   endloop
 endfacet
 facet normal  7.357239e-01  6.772816e-01 -0.000000e+00
   outer loop
     vertex  9.481942e-02  1.030013e-01  0.000000e+00
     vertex  9.481942e-02  1.030013e-01  1.000000e+00
     vertex  1.104797e-01  8.598978e-02  1.000000e+00
   endloop
 endfacet
 facet normal  6.142127e-01  7.891405e-01 -0.000000e+00
   outer loop
     vertex  9.481942e-02  1.030013e-01  0.000000e+00
     vertex  7.657274e-02  1.172033e-01  1.000000e+00
     vertex  9.481942e-02  1.030013e-01  1.000000e+00
   endloop
 endfacet
 facet normal  6.142127e-01  7.891405e-01 -0.000000e+00
   outer loop
     vertex  7.657274e-02  1.172033e-01  0.000000e+00
     vertex  7.657274e-02  1.172033e-01  1.000000e+00
     vertex  9.481942e-02  1.030013e-01  0.000000e+00
   endloop
 endfacet
 facet normal  4.759474e-01  8.794738e-01  0.000000e+00
   outer loop
     vertex  5.623736e-02  1.282083e-01  0.000000e+00
     vertex  7.657274e-02  1.172033e-01  1.000000e+00
     vertex  7.657274e-02  1.172033e-01  0.000000e+00
   endloop
 endfacet
 facet normal  4.759474e-01  8.794738e-01 -0.000000e+00
   outer loop
     vertex  5.623736e-02  1.282083e-01  0.000000e+00
     vertex  5.623736e-02  1.282083e-01  1.000000e+00
     vertex  7.657274e-02  1.172033e-01  1.000000e+00
   endloop
 endfacet
 facet normal  3.246995e-01  9.458172e-01 -0.000000e+00
   outer loop
     vertex  5.623736e-02  1.282083e-01  0.000000e+00
     vertex  3.436797e-02  1.357160e-01  1.000000e+00
     vertex  5.623736e-02  1.282083e-01  1.000000e+00
   endloop
 endfacet
 facet normal  3.246995e-01  9.458172e-01 -0.000000e+00
   outer loop
     vertex  3.436797e-02  1.357160e-01  0.000000e+00
     vertex  3.436797e-02  1.357160e-01  1.000000e+00
     vertex  5.623736e-02  1.282083e-01  0.000000e+00
   endloop
 endfacet
 facet normal  1.645946e-01  9.863613e-01 -0.000000e+00
   outer loop
     vertex  1.156111e-02  1.395218e-01  0.000000e+00
     vertex  1.156111e-02  1.395218e-01  1.000000e+00
     vertex  3.436797e-02  1.357160e-01  1.000000e+00
   endloop
 endfacet
 facet normal  1.645946e-01  9.863613e-01  0.000000e+00
   outer loop
     vertex  1.156111e-02  1.395218e-01  0.000000e+00
     vertex  3.436797e-02  1.357160e-01  1.000000e+00
     vertex  3.436797e-02  1.357160e-01  0.000000e+00
   endloop
 endfacet
 facet normal  0.000000e+00  1.000000e+00  0.000000e+00
   outer loop
     vertex -1.156111e-02  1.395218e-01  0.000000e+00
     vertex -1.156111e-02  1.395218e-01  1.000000e+00
     vertex  1.156111e-02  1.395218e-01  1.000000e+00
   endloop
 endfacet
 facet normal -1.645946e-01  9.863613e-01  0.000000e+00
   outer loop
     vertex -1.156111e-02  1.395218e-01  0.000000e+00
     vertex -3.436797e-02  1.357160e-01  1.000000e+00
     vertex -1.156111e-02  1.395218e-01  1.000000e+00
   endloop
 endfacet
 facet normal  0.000000e+00  1.000000e+00  0.000000e+00
   outer loop
     vertex -1.156111e-02  1.395218e-01  0.000000e+00
     vertex  1.156111e-02  1.395218e-01  1.000000e+00
     vertex  1.156111e-02  1.395218e-01  0.000000e+00
   endloop
 endfacet
 facet normal -3.246995e-01  9.458172e-01  0.000000e+00
   outer loop
     vertex -3.436797e-02  1.357160e-01  0.000000e+00
     vertex -5.623736e-02  1.282083e-01  1.000000e+00
     vertex -3.436797e-02  1.357160e-01  1.000000e+00
   endloop
 endfacet
 facet normal -1.645946e-01  9.863613e-01  0.000000e+00
   outer loop
     vertex -3.436797e-02  1.357160e-01  0.000000e+00
     vertex -3.436797e-02  1.357160e-01  1.000000e+00
     vertex -1.156111e-02  1.395218e-01  0.000000e+00
   endloop
 endfacet
 facet normal -4.759474e-01  8.794738e-01  0.000000e+00
   outer loop
     vertex -5.623736e-02  1.282083e-01  0.000000e+00
     vertex -7.657274e-02  1.172033e-01  1.000000e+00
     vertex -5.623736e-02  1.282083e-01  1.000000e+00
   endloop
 endfacet
 facet normal -3.246995e-01  9.458172e-01  0.000000e+00
   outer loop
     vertex -5.623736e-02  1.282083e-01  0.000000e+00
     vertex -5.623736e-02  1.282083e-01  1.000000e+00
     vertex -3.436797e-02  1.357160e-01  0.000000e+00
   endloop
 endfacet
 facet normal -4.759474e-01  8.794738e-01  0.000000e+00
   outer loop
     vertex -7.657274e-02  1.172033e-01  0.000000e+00
     vertex -7.657274e-02  1.172033e-01  1.000000e+00
     vertex -5.623736e-02  1.282083e-01  0.000000e+00
   endloop
 endfacet
 facet normal -6.142127e-01  7.891405e-01  0.000000e+00
   outer loop
     vertex -9.481942e-02  1.030013e-01  0.000000e+00
     vertex -9.481942e-02  1.030013e-01  1.000000e+00
     vertex -7.657274e-02  1.172033e-01  1.000000e+00
   endloop
 endfacet
 facet normal -7.357239e-01  6.772816e-01  0.000000e+00
   outer loop
     vertex -9.481942e-02  1.030013e-01  0.000000e+00
     vertex -1.104797e-01  8.598978e-02  1.000000e+00
     vertex -9.481942e-02  1.030013e-01  1.000000e+00
   endloop
 endfacet
 facet normal -6.142127e-01  7.891405e-01  0.000000e+00
   outer loop
     vertex -9.481942e-02  1.030013e-01  0.000000e+00
     vertex -7.657274e-02  1.172033e-01  1.000000e+00
     vertex -7.657274e-02  1.172033e-01  0.000000e+00
   endloop
 endfacet
 facet normal -7.357239e-01  6.772816e-01  0.000000e+00
   outer loop
     vertex -1.104797e-01  8.598978e-02  0.000000e+00
     vertex -1.104797e-01  8.598978e-02  1.000000e+00
     vertex -9.481942e-02  1.030013e-01  0.000000e+00
   endloop
 endfacet
 facet normal -8.371665e-01  5.469482e-01  0.000000e+00
   outer loop
     vertex -1.231263e-01  6.663264e-02  0.000000e+00
     vertex -1.231263e-01  6.663264e-02  1.000000e+00
     vertex -1.104797e-01  8.598978e-02  1.000000e+00
   endloop
 endfacet
 facet normal -8.371665e-01  5.469482e-01  0.000000e+00
   outer loop
     vertex -1.231263e-01  6.663264e-02  0.000000e+00
     vertex -1.104797e-01  8.598978e-02  1.000000e+00
     vertex -1.104797e-01  8.598978e-02  0.000000e+00
   endloop
 endfacet
 facet normal -9.157733e-01  4.016954e-01  0.000000e+00
   outer loop
     vertex -1.324144e-01  4.545793e-02  0.000000e+00
     vertex -1.324144e-01  4.545793e-02  1.000000e+00
     vertex -1.231263e-01  6.663264e-02  1.000000e+00
   endloop
 endfacet
 facet normal -9.694003e-01  2.454855e-01  0.000000e+00
   outer loop
     vertex -1.324144e-01  4.545793e-02  0.000000e+00
     vertex -1.380906e-01  2.304324e-02  1.000000e+00
     vertex -1.324144e-01  4.545793e-02  1.000000e+00
   endloop
 endfacet
 facet normal -9.157733e-01  4.016954e-01  0.000000e+00
   outer loop
     vertex -1.324144e-01  4.545793e-02  0.000000e+00
     vertex -1.231263e-01  6.663264e-02  1.000000e+00
     vertex -1.231263e-01  6.663264e-02  0.000000e+00
   endloop
 endfacet
 facet normal -9.965845e-01  8.257935e-02  0.000000e+00
   outer loop
     vertex -1.380906e-01  2.304324e-02  0.000000e+00
     vertex -1.400000e-01  1.714506e-17  1.000000e+00
     vertex -1.380906e-01  2.304324e-02  1.000000e+00
   endloop
 endfacet
 facet normal -9.694003e-01  2.454855e-01  0.000000e+00
   outer loop
     vertex -1.380906e-01  2.304324e-02  0.000000e+00
     vertex -1.380906e-01  2.304324e-02  1.000000e+00
     vertex -1.324144e-01  4.545793e-02  0.000000e+00
   endloop
 endfacet
 facet normal -9.965845e-01  8.257935e-02  0.000000e+00
   outer loop
     vertex -1.400000e-01  1.714506e-17  0.000000e+00
     vertex -1.400000e-01  1.714506e-17  1.000000e+00
     vertex -1.380906e-01  2.304324e-02  0.000000e+00
   endloop
 endfacet
 facet normal -9.965845e-01 -8.257935e-02  0.000000e+00
   outer loop
     vertex -1.380906e-01 -2.304324e-02  0.000000e+00
     vertex -1.380906e-01 -2.304324e-02  1.000000e+00
     vertex -1.400000e-01  1.714506e-17  1.000000e+00
   endloop
 endfacet
 facet normal -9.694003e-01 -2.454855e-01  0.000000e+00
   outer loop
     vertex -1.380906e-01 -2.304324e-02  0.000000e+00
     vertex -1.324144e-01 -4.545793e-02  1.000000e+00
     vertex -1.380906e-01 -2.304324e-02  1.000000e+00
   endloop
 endfacet
 facet normal -9.965845e-01 -8.257935e-02  0.000000e+00
   outer loop
     vertex -1.380906e-01 -2.304324e-02  0.000000e+00
     vertex -1.400000e-01  1.714506e-17  1.000000e+00
     vertex -1.400000e-01  1.714506e-17  0.000000e+00
   endloop
 endfacet
 facet normal -9.694003e-01 -2.454855e-01  0.000000e+00
   outer loop
     vertex -1.324144e-01 -4.545793e-02  0.000000e+00
     vertex -1.324144e-01 -4.545793e-02  1.000000e+00
     vertex -1.380906e-01 -2.304324e-02  0.000000e+00
   endloop
 endfacet
 facet normal -9.157733e-01 -4.016954e-01  0.000000e+00
   outer loop
     vertex -1.231263e-01 -6.663264e-02  0.000000e+00
     vertex -1.231263e-01 -6.663264e-02  1.000000e+00
     vertex -1.324144e-01 -4.545793e-02  1.000000e+00
   endloop
 endfacet
 facet normal -8.371665e-01 -5.469482e-01  0.000000e+00
   outer loop
     vertex -1.231263e-01 -6.663264e-02  0.000000e+00
     vertex -1.104797e-01 -8.598978e-02  1.000000e+00
     vertex -1.231263e-01 -6.663264e-02  1.000000e+00
   endloop
 endfacet
 facet normal -9.157733e-01 -4.016954e-01  0.000000e+00
   outer loop
     vertex -1.231263e-01 -6.663264e-02  0.000000e+00
     vertex -1.324144e-01 -4.545793e-02  1.000000e+00
     vertex -1.324144e-01 -4.545793e-02  0.000000e+00
   endloop
 endfacet
 facet normal -8.371665e-01 -5.469482e-01  0.000000e+00
   outer loop
     vertex -1.104797e-01 -8.598978e-02  0.000000e+00
     vertex -1.104797e-01 -8.598978e-02  1.000000e+00
     vertex -1.231263e-01 -6.663264e-02  0.000000e+00
   endloop
 endfacet
 facet normal -7.357239e-01 -6.772816e-01  0.000000e+00
   outer loop
     vertex -9.481942e-02 -1.030013e-01  0.000000e+00
     vertex -9.481942e-02 -1.030013e-01  1.000000e+00
     vertex -1.104797e-01 -8.598978e-02  1.000000e+00
   endloop
 endfacet
 facet normal -7.357239e-01 -6.772816e-01  0.000000e+00
   outer loop
     vertex -9.481942e-02 -1.030013e-01  0.000000e+00
     vertex -1.104797e-01 -8.598978e-02  1.000000e+00
     vertex -1.104797e-01 -8.598978e-02  0.000000e+00
   endloop
 endfacet
 facet normal -6.142127e-01 -7.891405e-01  0.000000e+00
   outer loop
     vertex -7.657274e-02 -1.172033e-01  0.000000e+00
     vertex -7.657274e-02 -1.172033e-01  1.000000e+00
     vertex -9.481942e-02 -1.030013e-01  1.000000e+00
   endloop
 endfacet
 facet normal -4.759474e-01 -8.794738e-01  0.000000e+00
   outer loop
     vertex -7.657274e-02 -1.172033e-01  0.000000e+00
     vertex -5.623736e-02 -1.282083e-01  1.000000e+00
     vertex -7.657274e-02 -1.172033e-01  1.000000e+00
   endloop
 endfacet
 facet normal -6.142127e-01 -7.891405e-01  0.000000e+00
   outer loop
     vertex -7.657274e-02 -1.172033e-01  0.000000e+00
     vertex -9.481942e-02 -1.030013e-01  1.000000e+00
     vertex -9.481942e-02 -1.030013e-01  0.000000e+00
   endloop
 endfacet
 facet normal -4.759474e-01 -8.794738e-01  0.000000e+00
   outer loop
     vertex -5.623736e-02 -1.282083e-01  0.000000e+00
     vertex -5.623736e-02 -1.282083e-01  1.000000e+00
     vertex -7.657274e-02 -1.172033e-01  0.000000e+00
   endloop
 endfacet
 facet normal -3.246995e-01 -9.458172e-01  0.000000e+00
   outer loop
     vertex -3.436797e-02 -1.357160e-01  0.000000e+00
     vertex -3.436797e-02 -1.357160e-01  1.000000e+00
     vertex -5.623736e-02 -1.282083e-01  1.000000e+00
   endloop
 endfacet
 facet normal -3.246995e-01 -9.458172e-01  0.000000e+00
   outer loop
     vertex -3.436797e-02 -1.357160e-01  0.000000e+00
     vertex -5.623736e-02 -1.282083e-01  1.000000e+00
     vertex -5.623736e-02 -1.282083e-01  0.000000e+00
   endloop
 endfacet
 facet normal -1.645946e-01 -9.863613e-01  0.000000e+00
   outer loop
     vertex -1.156111e-02 -1.395218e-01  0.000000e+00
     vertex -1.156111e-02 -1.395218e-01  1.000000e+00
     vertex -3.436797e-02 -1.357160e-01  1.000000e+00
   endloop
 endfacet
 facet normal -1.200386e-15 -1.000000e+00  0.000000e+00
   outer loop
     vertex -1.156111e-02 -1.395218e-01  0.000000e+00
     vertex  1.156111e-02 -1.395218e-01  1.000000e+00
     vertex -1.156111e-02 -1.395218e-01  1.000000e+00
   endloop
 endfacet
 facet normal -1.645946e-01 -9.863613e-01  0.000000e+00
   outer loop
     vertex -1.156111e-02 -1.395218e-01  0.000000e+00
     vertex -3.436797e-02 -1.357160e-01  1.000000e+00
     vertex -3.436797e-02 -1.357160e-01  0.000000e+00
   endloop
 endfacet
 facet normal -1.200386e-15 -1.000000e+00  0.000000e+00
   outer loop
     vertex  1.156111e-02 -1.395218e-01  0.000000e+00
     vertex  1.156111e-02 -1.395218e-01  1.000000e+00
     vertex -1.156111e-02 -1.395218e-01  0.000000e+00
   endloop
 endfacet
 facet normal  1.645946e-01 -9.863613e-01  0.000000e+00
   outer loop
     vertex  3.436797e-02 -1.357160e-01  0.000000e+00
     vertex  1.156111e-02 -1.395218e-01  1.000000e+00
     vertex  1.156111e-02 -1.395218e-01  0.000000e+00
   endloop
 endfacet
 facet normal  1.645946e-01 -9.863613e-01  0.000000e+00
   outer loop
     vertex  3.436797e-02 -1.357160e-01  0.000000e+00
     vertex  3.436797e-02 -1.357160e-01  1.000000e+00
     vertex  1.156111e-02 -1.395218e-01  1.000000e+00
   endloop
 endfacet
 facet normal  3.246995e-01 -9.458172e-01  0.000000e+00
   outer loop
     vertex  3.436797e-02 -1.357160e-01  0.000000e+00
     vertex  5.623736e-02 -1.282083e-01  1.000000e+00
     vertex  3.436797e-02 -1.357160e-01  1.000000e+00
   endloop
 endfacet
 facet normal  3.246995e-01 -9.458172e-01  0.000000e+00
   outer loop
     vertex  5.623736e-02 -1.282083e-01  0.000000e+00
     vertex  5.623736e-02 -1.282083e-01  1.000000e+00
     vertex  3.436797e-02 -1.357160e-01  0.000000e+00
   endloop
 endfacet
 facet normal  4.759474e-01 -8.794738e-01  0.000000e+00
   outer loop
     vertex  7.657274e-02 -1.172033e-01  0.000000e+00
     vertex  5.623736e-02 -1.282083e-01  1.000000e+00
     vertex  5.623736e-02 -1.282083e-01  0.000000e+00
   endloop
 endfacet
 facet normal  4.759474e-01 -8.794738e-01  0.000000e+00
   outer loop
     vertex  7.657274e-02 -1.172033e-01  0.000000e+00
     vertex  7.657274e-02 -1.172033e-01  1.000000e+00
     vertex  5.623736e-02 -1.282083e-01  1.000000e+00
   endloop
 endfacet
 facet normal  6.142127e-01 -7.891405e-01  0.000000e+00
   outer loop
     vertex  9.481942e-02 -1.030013e-01  0.000000e+00
     vertex  7.657274e-02 -1.172033e-01  1.000000e+00
     vertex  7.657274e-02 -1.172033e-01  0.000000e+00
   endloop
 endfacet
 facet normal  6.142127e-01 -7.891405e-01  0.000000e+00
   outer loop
     vertex  9.481942e-02 -1.030013e-01  0.000000e+00
     vertex  9.481942e-02 -1.030013e-01  1.000000e+00
     vertex  7.657274e-02 -1.172033e-01  1.000000e+00
   endloop
 endfacet
 facet normal  7.357239e-01 -6.772816e-01  0.000000e+00
   outer loop
     vertex  1.104797e-01 -8.598978e-02  0.000000e+00
     vertex  9.481942e-02 -1.030013e-01  1.000000e+00
     vertex  9.481942e-02 -1.030013e-01  0.000000e+00
   endloop
 endfacet
 facet normal  7.357239e-01 -6.772816e-01  0.000000e+00
   outer loop
     vertex  1.104797e-01 -8.598978e-02  0.000000e+00
     vertex  1.104797e-01 -8.598978e-02  1.000000e+00
     vertex  9.481942e-02 -1.030013e-01  1.000000e+00
   endloop
 endfacet
 facet normal  8.371665e-01 -5.469482e-01  0.000000e+00
   outer loop
     vertex  1.231263e-01 -6.663264e-02  0.000000e+00
     vertex  1.104797e-01 -8.598978e-02  1.000000e+00
     vertex  1.104797e-01 -8.598978e-02  0.000000e+00
   endloop
 endfacet
 facet normal  8.371665e-01 -5.469482e-01  0.000000e+00
   outer loop
     vertex  1.231263e-01 -6.663264e-02  0.000000e+00
     vertex  1.231263e-01 -6.663264e-02  1.000000e+00
     vertex  1.104797e-01 -8.598978e-02  1.000000e+00
   endloop
 endfacet
 facet normal  9.157733e-01 -4.016954e-01  0.000000e+00
   outer loop
     vertex  1.324144e-01 -4.545793e-02  0.000000e+00
     vertex  1.231263e-01 -6.663264e-02  1.000000e+00
     vertex  1.231263e-01 -6.663264e-02  0.000000e+00
   endloop
 endfacet
 facet normal  9.157733e-01 -4.016954e-01  0.000000e+00
   outer loop
     vertex  1.324144e-01 -4.545793e-02  0.000000e+00
     vertex  1.324144e-01 -4.545793e-02  1.000000e+00
     vertex  1.231263e-01 -6.663264e-02  1.000000e+00
   endloop
 endfacet
 facet normal  9.694003e-01 -2.454855e-01  0.000000e+00
   outer loop
     vertex  1.324144e-01 -4.545793e-02  0.000000e+00
     vertex  1.380906e-01 -2.304324e-02  1.000000e+00
     vertex  1.324144e-01 -4.545793e-02  1.000000e+00
   endloop
 endfacet
 facet normal  9.694003e-01 -2.454855e-01  0.000000e+00
   outer loop
     vertex  1.380906e-01 -2.304324e-02  0.000000e+00
     vertex  1.380906e-01 -2.304324e-02  1.000000e+00
     vertex  1.324144e-01 -4.545793e-02  0.000000e+00
   endloop
 endfacet
 facet normal  9.965845e-01 -8.257935e-02  0.000000e+00
   outer loop
     vertex  1.400000e-01  0.000000e+00  0.000000e+00
     vertex  1.380906e-01 -2.304324e-02  1.000000e+00
     vertex  1.380906e-01 -2.304324e-02  0.000000e+00
   endloop
 endfacet
 facet normal  9.965845e-01 -8.257935e-02  0.000000e+00
   outer loop
     vertex  1.400000e-01  0.000000e+00  0.000000e+00
     vertex  1.400000e-01  0.000000e+00  1.000000e+00
     vertex  1.380906e-01 -2.304324e-02  1.000000e+00
   endloop
 endfacet
 facet normal -9.961947e-01 -8.715574e-02  0.000000e+00
   outer loop
     vertex  1.231010e-01  2.170602e-02  0.000000e+00
     vertex  1.250000e-01  0.000000e+00  0.000000e+00
     vertex  1.250000e-01  0.000000e+00  1.000000e+00
   endloop
 endfacet
 facet normal -9.961947e-01 -8.715574e-02  0.000000e+00
   outer loop
     vertex  1.231010e-01  2.170602e-02  0.000000e+00
     vertex  1.250000e-01  0.000000e+00  1.000000e+00
     vertex  1.231010e-01  2.170602e-02  1.000000e+00
   endloop
 endfacet
 facet normal -9.659258e-01 -2.588190e-01  0.000000e+00
   outer loop
     vertex  1.174616e-01  4.275252e-02  0.000000e+00
     vertex  1.231010e-01  2.170602e-02  1.000000e+00
     vertex  1.174616e-01  4.275252e-02  1.000000e+00
   endloop
 endfacet
 facet normal -9.659258e-01 -2.588190e-01  0.000000e+00
   outer loop
     vertex  1.174616e-01  4.275252e-02  0.000000e+00
     vertex  1.231010e-01  2.170602e-02  0.000000e+00
     vertex  1.231010e-01  2.170602e-02  1.000000e+00
   endloop
 endfacet
 facet normal -9.063078e-01 -4.226183e-01  0.000000e+00
   outer loop
     vertex  1.082532e-01  6.250000e-02  0.000000e+00
     vertex  1.174616e-01  4.275252e-02  1.000000e+00
     vertex  1.082532e-01  6.250000e-02  1.000000e+00
   endloop
 endfacet
 facet normal -9.063078e-01 -4.226183e-01  0.000000e+00
   outer loop
     vertex  1.082532e-01  6.250000e-02  0.000000e+00
     vertex  1.174616e-01  4.275252e-02  0.000000e+00
     vertex  1.174616e-01  4.275252e-02  1.000000e+00
   endloop
 endfacet
 facet normal -8.191520e-01 -5.735764e-01  0.000000e+00
   outer loop
     vertex  9.575556e-02  8.034845e-02  0.000000e+00
     vertex  1.082532e-01  6.250000e-02  1.000000e+00
     vertex  9.575556e-02  8.034845e-02  1.000000e+00
   endloop
 endfacet
 facet normal -8.191520e-01 -5.735764e-01  0.000000e+00
   outer loop
     vertex  9.575556e-02  8.034845e-02  0.000000e+00
     vertex  1.082532e-01  6.250000e-02  0.000000e+00
     vertex  1.082532e-01  6.250000e-02  1.000000e+00
   endloop
 endfacet
 facet normal -7.071068e-01 -7.071068e-01  0.000000e+00
   outer loop
     vertex  8.034845e-02  9.575556e-02  0.000000e+00
     vertex  9.575556e-02  8.034845e-02  1.000000e+00
     vertex  8.034845e-02  9.575556e-02  1.000000e+00
   endloop
 endfacet
 facet normal -7.071068e-01 -7.071068e-01  0.000000e+00
   outer loop
     vertex  8.034845e-02  9.575556e-02  0.000000e+00
     vertex  9.575556e-02  8.034845e-02  0.000000e+00
     vertex  9.575556e-02  8.034845e-02  1.000000e+00
   endloop
 endfacet
 facet normal -5.735764e-01 -8.191520e-01  0.000000e+00
   outer loop
     vertex  6.250000e-02  1.082532e-01  0.000000e+00
     vertex  8.034845e-02  9.575556e-02  0.000000e+00
     vertex  8.034845e-02  9.575556e-02  1.000000e+00
   endloop
 endfacet
 facet normal -5.735764e-01 -8.191520e-01  0.000000e+00
   outer loop
     vertex  6.250000e-02  1.082532e-01  0.000000e+00
     vertex  8.034845e-02  9.575556e-02  1.000000e+00
     vertex  6.250000e-02  1.082532e-01  1.000000e+00
   endloop
 endfacet
 facet normal -4.226183e-01 -9.063078e-01  0.000000e+00
   outer loop
     vertex  4.275252e-02  1.174616e-01  0.000000e+00
     vertex  6.250000e-02  1.082532e-01  0.000000e+00
     vertex  6.250000e-02  1.082532e-01  1.000000e+00
   endloop
 endfacet
 facet normal -4.226183e-01 -9.063078e-01  0.000000e+00
   outer loop
     vertex  4.275252e-02  1.174616e-01  0.000000e+00
     vertex  6.250000e-02  1.082532e-01  1.000000e+00
     vertex  4.275252e-02  1.174616e-01  1.000000e+00
   endloop
 endfacet
 facet normal -2.588190e-01 -9.659258e-01  0.000000e+00
   outer loop
     vertex  2.170602e-02  1.231010e-01  0.000000e+00
     vertex  4.275252e-02  1.174616e-01  1.000000e+00
     vertex  2.170602e-02  1.231010e-01  1.000000e+00
   endloop
 endfacet
 facet normal -2.588190e-01 -9.659258e-01  0.000000e+00
   outer loop
     vertex  2.170602e-02  1.231010e-01  0.000000e+00
     vertex  4.275252e-02  1.174616e-01  0.000000e+00
     vertex  4.275252e-02  1.174616e-01  1.000000e+00
   endloop
 endfacet
 facet normal -8.715574e-02 -9.961947e-01  0.000000e+00
   outer loop
     vertex  7.654042e-18  1.250000e-01  0.000000e+00
     vertex  2.170602e-02  1.231010e-01  1.000000e+00
     vertex  7.654042e-18  1.250000e-01  1.000000e+00
   endloop
 endfacet
 facet normal  8.715574e-02 -9.961947e-01  0.000000e+00
   outer loop
     vertex  7.654042e-18  1.250000e-01  0.000000e+00
     vertex  7.654042e-18  1.250000e-01  1.000000e+00
     vertex -2.170602e-02  1.231010e-01  1.000000e+00
   endloop
 endfacet
 facet normal -8.715574e-02 -9.961947e-01  0.000000e+00
   outer loop
     vertex  7.654042e-18  1.250000e-01  0.000000e+00
     vertex  2.170602e-02  1.231010e-01  0.000000e+00
     vertex  2.170602e-02  1.231010e-01  1.000000e+00
   endloop
 endfacet
 facet normal  8.715574e-02 -9.961947e-01  0.000000e+00
   outer loop
     vertex -2.170602e-02  1.231010e-01  0.000000e+00
     vertex  7.654042e-18  1.250000e-01  0.000000e+00
     vertex -2.170602e-02  1.231010e-01  1.000000e+00
   endloop
 endfacet
 facet normal  2.588190e-01 -9.659258e-01  0.000000e+00
   outer loop
     vertex -4.275252e-02  1.174616e-01  0.000000e+00
     vertex -2.170602e-02  1.231010e-01  1.000000e+00
     vertex -4.275252e-02  1.174616e-01  1.000000e+00
   endloop
 endfacet
 facet normal  4.226183e-01 -9.063078e-01  0.000000e+00
   outer loop
     vertex -4.275252e-02  1.174616e-01  0.000000e+00
     vertex -4.275252e-02  1.174616e-01  1.000000e+00
     vertex -6.250000e-02  1.082532e-01  1.000000e+00
   endloop
 endfacet
 facet normal  2.588190e-01 -9.659258e-01  0.000000e+00
   outer loop
     vertex -4.275252e-02  1.174616e-01  0.000000e+00
     vertex -2.170602e-02  1.231010e-01  0.000000e+00
     vertex -2.170602e-02  1.231010e-01  1.000000e+00
   endloop
 endfacet
 facet normal  4.226183e-01 -9.063078e-01  0.000000e+00
   outer loop
     vertex -6.250000e-02  1.082532e-01  0.000000e+00
     vertex -4.275252e-02  1.174616e-01  0.000000e+00
     vertex -6.250000e-02  1.082532e-01  1.000000e+00
   endloop
 endfacet
 facet normal  5.735764e-01 -8.191520e-01  0.000000e+00
   outer loop
     vertex -8.034845e-02  9.575556e-02  0.000000e+00
     vertex -6.250000e-02  1.082532e-01  1.000000e+00
     vertex -8.034845e-02  9.575556e-02  1.000000e+00
   endloop
 endfacet
 facet normal  5.735764e-01 -8.191520e-01  0.000000e+00
   outer loop
     vertex -8.034845e-02  9.575556e-02  0.000000e+00
     vertex -6.250000e-02  1.082532e-01  0.000000e+00
     vertex -6.250000e-02  1.082532e-01  1.000000e+00
   endloop
 endfacet
 facet normal  7.071068e-01 -7.071068e-01  0.000000e+00
   outer loop
     vertex -9.575556e-02  8.034845e-02  0.000000e+00
     vertex -8.034845e-02  9.575556e-02  1.000000e+00
     vertex -9.575556e-02  8.034845e-02  1.000000e+00
   endloop
 endfacet
 facet normal  7.071068e-01 -7.071068e-01  0.000000e+00
   outer loop
     vertex -9.575556e-02  8.034845e-02  0.000000e+00
     vertex -8.034845e-02  9.575556e-02  0.000000e+00
     vertex -8.034845e-02  9.575556e-02  1.000000e+00
   endloop
 endfacet
 facet normal  8.191520e-01 -5.735764e-01  0.000000e+00
   outer loop
     vertex -1.082532e-01  6.250000e-02  0.000000e+00
     vertex -9.575556e-02  8.034845e-02  1.000000e+00
     vertex -1.082532e-01  6.250000e-02  1.000000e+00
   endloop
 endfacet
 facet normal  8.191520e-01 -5.735764e-01  0.000000e+00
   outer loop
     vertex -1.082532e-01  6.250000e-02  0.000000e+00
     vertex -9.575556e-02  8.034845e-02  0.000000e+00
     vertex -9.575556e-02  8.034845e-02  1.000000e+00
   endloop
 endfacet
 facet normal  9.063078e-01 -4.226183e-01  0.000000e+00
   outer loop
     vertex -1.174616e-01  4.275252e-02  0.000000e+00
     vertex -1.082532e-01  6.250000e-02  1.000000e+00
     vertex -1.174616e-01  4.275252e-02  1.000000e+00
   endloop
 endfacet
 facet normal  9.063078e-01 -4.226183e-01  0.000000e+00
   outer loop
     vertex -1.174616e-01  4.275252e-02  0.000000e+00
     vertex -1.082532e-01  6.250000e-02  0.000000e+00
     vertex -1.082532e-01  6.250000e-02  1.000000e+00
   endloop
 endfacet
 facet normal  9.659258e-01 -2.588190e-01  0.000000e+00
   outer loop
     vertex -1.231010e-01  2.170602e-02  0.000000e+00
     vertex -1.174616e-01  4.275252e-02  1.000000e+00
     vertex -1.231010e-01  2.170602e-02  1.000000e+00
   endloop
 endfacet
 facet normal  9.961947e-01 -8.715574e-02  0.000000e+00
   outer loop
     vertex -1.231010e-01  2.170602e-02  0.000000e+00
     vertex -1.231010e-01  2.170602e-02  1.000000e+00
     vertex -1.250000e-01  1.818415e-16  1.000000e+00
   endloop
 endfacet
 facet normal  9.659258e-01 -2.588190e-01  0.000000e+00
   outer loop
     vertex -1.231010e-01  2.170602e-02  0.000000e+00
     vertex -1.174616e-01  4.275252e-02  0.000000e+00
     vertex -1.174616e-01  4.275252e-02  1.000000e+00
   endloop
 endfacet
 facet normal  9.961947e-01 -8.715574e-02  0.000000e+00
   outer loop
     vertex -1.250000e-01  1.818415e-16  0.000000e+00
     vertex -1.231010e-01  2.170602e-02  0.000000e+00
     vertex -1.250000e-01  1.818415e-16  1.000000e+00
   endloop
 endfacet
 facet normal  9.961947e-01  8.715574e-02 -0.000000e+00
   outer loop
     vertex -1.231010e-01 -2.170602e-02  0.000000e+00
     vertex -1.250000e-01  1.818415e-16  1.000000e+00
     vertex -1.231010e-01 -2.170602e-02  1.000000e+00
   endloop
 endfacet
 facet normal  9.961947e-01  8.715574e-02  0.000000e+00
   outer loop
     vertex -1.231010e-01 -2.170602e-02  0.000000e+00
     vertex -1.250000e-01  1.818415e-16  0.000000e+00
     vertex -1.250000e-01  1.818415e-16  1.000000e+00
   endloop
 endfacet
 facet normal  9.659258e-01  2.588190e-01 -0.000000e+00
   outer loop
     vertex -1.174616e-01 -4.275252e-02  0.000000e+00
     vertex -1.231010e-01 -2.170602e-02  1.000000e+00
     vertex -1.174616e-01 -4.275252e-02  1.000000e+00
   endloop
 endfacet
 facet normal  9.659258e-01  2.588190e-01  0.000000e+00
   outer loop
     vertex -1.174616e-01 -4.275252e-02  0.000000e+00
     vertex -1.231010e-01 -2.170602e-02  0.000000e+00
     vertex -1.231010e-01 -2.170602e-02  1.000000e+00
   endloop
 endfacet
 facet normal  9.063078e-01  4.226183e-01 -0.000000e+00
   outer loop
     vertex -1.082532e-01 -6.250000e-02  0.000000e+00
     vertex -1.174616e-01 -4.275252e-02  1.000000e+00
     vertex -1.082532e-01 -6.250000e-02  1.000000e+00
   endloop
 endfacet
 facet normal  8.191520e-01  5.735764e-01 -0.000000e+00
   outer loop
     vertex -1.082532e-01 -6.250000e-02  0.000000e+00
     vertex -1.082532e-01 -6.250000e-02  1.000000e+00
     vertex -9.575556e-02 -8.034845e-02  1.000000e+00
   endloop
 endfacet
 facet normal  9.063078e-01  4.226183e-01  0.000000e+00
   outer loop
     vertex -1.082532e-01 -6.250000e-02  0.000000e+00
     vertex -1.174616e-01 -4.275252e-02  0.000000e+00
     vertex -1.174616e-01 -4.275252e-02  1.000000e+00
   endloop
 endfacet
 facet normal  8.191520e-01  5.735764e-01 -0.000000e+00
   outer loop
     vertex -9.575556e-02 -8.034845e-02  0.000000e+00
     vertex -1.082532e-01 -6.250000e-02  0.000000e+00
     vertex -9.575556e-02 -8.034845e-02  1.000000e+00
   endloop
 endfacet
 facet normal  7.071068e-01  7.071068e-01 -0.000000e+00
   outer loop
     vertex -8.034845e-02 -9.575556e-02  0.000000e+00
     vertex -9.575556e-02 -8.034845e-02  1.000000e+00
     vertex -8.034845e-02 -9.575556e-02  1.000000e+00
   endloop
 endfacet
 facet normal  7.071068e-01  7.071068e-01  0.000000e+00
   outer loop
     vertex -8.034845e-02 -9.575556e-02  0.000000e+00
     vertex -9.575556e-02 -8.034845e-02  0.000000e+00
     vertex -9.575556e-02 -8.034845e-02  1.000000e+00
   endloop
 endfacet
 facet normal  5.735764e-01  8.191520e-01 -0.000000e+00
   outer loop
     vertex -6.250000e-02 -1.082532e-01  0.000000e+00
     vertex -8.034845e-02 -9.575556e-02  1.000000e+00
     vertex -6.250000e-02 -1.082532e-01  1.000000e+00
   endloop
 endfacet
 facet normal  5.735764e-01  8.191520e-01  0.000000e+00
   outer loop
     vertex -6.250000e-02 -1.082532e-01  0.000000e+00
     vertex -8.034845e-02 -9.575556e-02  0.000000e+00
     vertex -8.034845e-02 -9.575556e-02  1.000000e+00
   endloop
 endfacet
 facet normal  4.226183e-01  9.063078e-01 -0.000000e+00
   outer loop
     vertex -4.275252e-02 -1.174616e-01  0.000000e+00
     vertex -6.250000e-02 -1.082532e-01  1.000000e+00
     vertex -4.275252e-02 -1.174616e-01  1.000000e+00
   endloop
 endfacet
 facet normal  4.226183e-01  9.063078e-01  0.000000e+00
   outer loop
     vertex -4.275252e-02 -1.174616e-01  0.000000e+00
     vertex -6.250000e-02 -1.082532e-01  0.000000e+00
     vertex -6.250000e-02 -1.082532e-01  1.000000e+00
   endloop
 endfacet
 facet normal  2.588190e-01  9.659258e-01 -0.000000e+00
   outer loop
     vertex -2.170602e-02 -1.231010e-01  0.000000e+00
     vertex -4.275252e-02 -1.174616e-01  1.000000e+00
     vertex -2.170602e-02 -1.231010e-01  1.000000e+00
   endloop
 endfacet
 facet normal  2.588190e-01  9.659258e-01  0.000000e+00
   outer loop
     vertex -2.170602e-02 -1.231010e-01  0.000000e+00
     vertex -4.275252e-02 -1.174616e-01  0.000000e+00
     vertex -4.275252e-02 -1.174616e-01  1.000000e+00
   endloop
 endfacet
 facet normal  8.715574e-02  9.961947e-01 -0.000000e+00
   outer loop
     vertex -3.560290e-16 -1.250000e-01  0.000000e+00
     vertex -2.170602e-02 -1.231010e-01  1.000000e+00
     vertex -3.560290e-16 -1.250000e-01  1.000000e+00
   endloop
 endfacet
 facet normal  8.715574e-02  9.961947e-01  0.000000e+00
   outer loop
     vertex -3.560290e-16 -1.250000e-01  0.000000e+00
     vertex -2.170602e-02 -1.231010e-01  0.000000e+00
     vertex -2.170602e-02 -1.231010e-01  1.000000e+00
   endloop
 endfacet
 facet normal -8.715574e-02  9.961947e-01  0.000000e+00
   outer loop
     vertex  2.170602e-02 -1.231010e-01  0.000000e+00
     vertex -3.560290e-16 -1.250000e-01  1.000000e+00
     vertex  2.170602e-02 -1.231010e-01  1.000000e+00
   endloop
 endfacet
 facet normal -8.715574e-02  9.961947e-01  0.000000e+00
   outer loop
     vertex  2.170602e-02 -1.231010e-01  0.000000e+00
     vertex -3.560290e-16 -1.250000e-01  0.000000e+00
     vertex -3.560290e-16 -1.250000e-01  1.000000e+00
   endloop
 endfacet
 facet normal -2.588190e-01  9.659258e-01  0.000000e+00
   outer loop
     vertex  4.275252e-02 -1.174616e-01  0.000000e+00
     vertex  2.170602e-02 -1.231010e-01  1.000000e+00
     vertex  4.275252e-02 -1.174616e-01  1.000000e+00
   endloop
 endfacet
 facet normal -2.588190e-01  9.659258e-01  0.000000e+00
   outer loop
     vertex  4.275252e-02 -1.174616e-01  0.000000e+00
     vertex  2.170602e-02 -1.231010e-01  0.000000e+00
     vertex  2.170602e-02 -1.231010e-01  1.000000e+00
   endloop
 endfacet
 facet normal -4.226183e-01  9.063078e-01  0.000000e+00
   outer loop
     vertex  6.250000e-02 -1.082532e-01  0.000000e+00
     vertex  4.275252e-02 -1.174616e-01  1.000000e+00
     vertex  6.250000e-02 -1.082532e-01  1.000000e+00
   endloop
 endfacet
 facet normal -4.226183e-01  9.063078e-01  0.000000e+00
   outer loop
     vertex  6.250000e-02 -1.082532e-01  0.000000e+00
     vertex  4.275252e-02 -1.174616e-01  0.000000e+00
     vertex  4.275252e-02 -1.174616e-01  1.000000e+00
   endloop
 endfacet
 facet normal -5.735764e-01  8.191520e-01  0.000000e+00
   outer loop
     vertex  8.034845e-02 -9.575556e-02  0.000000e+00
     vertex  6.250000e-02 -1.082532e-01  1.000000e+00
     vertex  8.034845e-02 -9.575556e-02  1.000000e+00
   endloop
 endfacet
 facet normal -5.735764e-01  8.191520e-01  0.000000e+00
   outer loop
     vertex  8.034845e-02 -9.575556e-02  0.000000e+00
     vertex  6.250000e-02 -1.082532e-01  0.000000e+00
     vertex  6.250000e-02 -1.082532e-01  1.000000e+00
   endloop
 endfacet
 facet normal -7.071068e-01  7.071068e-01  0.000000e+00
   outer loop
     vertex  9.575556e-02 -8.034845e-02  0.000000e+00
     vertex  8.034845e-02 -9.575556e-02  0.000000e+00
     vertex  8.034845e-02 -9.575556e-02  1.000000e+00
   endloop
 endfacet
 facet normal -7.071068e-01  7.071068e-01  0.000000e+00
   outer loop
     vertex  9.575556e-02 -8.034845e-02  0.000000e+00
     vertex  8.034845e-02 -9.575556e-02  1.000000e+00
     vertex  9.575556e-02 -8.034845e-02  1.000000e+00
   endloop
 endfacet
 facet normal -8.191520e-01  5.735764e-01  0.000000e+00
   outer loop
     vertex  1.082532e-01 -6.250000e-02  0.000000e+00
     vertex  9.575556e-02 -8.034845e-02  0.000000e+00
     vertex  9.575556e-02 -8.034845e-02  1.000000e+00
   endloop
 endfacet
 facet normal -8.191520e-01  5.735764e-01  0.000000e+00
   outer loop
     vertex  1.082532e-01 -6.250000e-02  0.000000e+00
     vertex  9.575556e-02 -8.034845e-02  1.000000e+00
     vertex  1.082532e-01 -6.250000e-02  1.000000e+00
   endloop
 endfacet
 facet normal -9.063078e-01  4.226183e-01  0.000000e+00
   outer loop
     vertex  1.174616e-01 -4.275252e-02  0.000000e+00
     vertex  1.082532e-01 -6.250000e-02  0.000000e+00
     vertex  1.082532e-01 -6.250000e-02  1.000000e+00
   endloop
 endfacet
 facet normal -9.063078e-01  4.226183e-01  0.000000e+00
   outer loop
     vertex  1.174616e-01 -4.275252e-02  0.000000e+00
     vertex  1.082532e-01 -6.250000e-02  1.000000e+00
     vertex  1.174616e-01 -4.275252e-02  1.000000e+00
   endloop
 endfacet
 facet normal -9.659258e-01  2.588190e-01  0.000000e+00
   outer loop
     vertex  1.231010e-01 -2.170602e-02  0.000000e+00
     vertex  1.174616e-01 -4.275252e-02  0.000000e+00
     vertex  1.174616e-01 -4.275252e-02  1.000000e+00
   endloop
 endfacet
 facet normal -9.659258e-01  2.588190e-01  0.000000e+00
   outer loop
     vertex  1.231010e-01 -2.170602e-02  0.000000e+00
     vertex  1.174616e-01 -4.275252e-02  1.000000e+00
     vertex  1.231010e-01 -2.170602e-02  1.000000e+00
   endloop
 endfacet
 facet normal -9.961947e-01  8.715574e-02  0.000000e+00
   outer loop
     vertex  1.250000e-01  0.000000e+00  0.000000e+00
     vertex  1.231010e-01 -2.170602e-02  0.000000e+00
     vertex  1.231010e-01 -2.170602e-02  1.000000e+00
   endloop
 endfacet
 facet normal -9.961947e-01  8.715574e-02  0.000000e+00
   outer loop
     vertex  1.250000e-01  0.000000e+00  0.000000e+00
     vertex  1.231010e-01 -2.170602e-02  1.000000e+00
     vertex  1.250000e-01  0.000000e+00  1.000000e+00
   endloop
 endfacet
 facet normal  0.000000e+00 -0.000000e+00 -1.000000e+00
   outer loop
     vertex -8.034845e-02 -9.575556e-02  0.000000e+00
     vertex -7.657274e-02 -1.172033e-01  0.000000e+00
     vertex -9.481942e-02 -1.030013e-01  0.000000e+00
   endloop
 endfacet
 facet normal  0.000000e+00 -0.000000e+00 -1.000000e+00
   outer loop
     vertex -9.575556e-02 -8.034845e-02  0.000000e+00
     vertex -9.481942e-02 -1.030013e-01  0.000000e+00
     vertex -1.104797e-01 -8.598978e-02  0.000000e+00
   endloop
 endfacet
 facet normal  0.000000e+00  0.000000e+00 -1.000000e+00
   outer loop
     vertex -9.575556e-02 -8.034845e-02  0.000000e+00
     vertex -8.034845e-02 -9.575556e-02  0.000000e+00
     vertex -9.481942e-02 -1.030013e-01  0.000000e+00
   endloop
 endfacet
 facet normal  0.000000e+00 -0.000000e+00 -1.000000e+00
   outer loop
     vertex -6.250000e-02 -1.082532e-01  0.000000e+00
     vertex -5.623736e-02 -1.282083e-01  0.000000e+00
     vertex -7.657274e-02 -1.172033e-01  0.000000e+00
   endloop
 endfacet
 facet normal -0.000000e+00  0.000000e+00 -1.000000e+00
   outer loop
     vertex -6.250000e-02 -1.082532e-01  0.000000e+00
     vertex -7.657274e-02 -1.172033e-01  0.000000e+00
     vertex -8.034845e-02 -9.575556e-02  0.000000e+00
   endloop
 endfacet
 facet normal  0.000000e+00  0.000000e+00 -1.000000e+00
   outer loop
     vertex -1.082532e-01 -6.250000e-02  0.000000e+00
     vertex -1.104797e-01 -8.598978e-02  0.000000e+00
     vertex -1.231263e-01 -6.663264e-02  0.000000e+00
   endloop
 endfacet
 facet normal  0.000000e+00 -0.000000e+00 -1.000000e+00
   outer loop
     vertex -1.082532e-01 -6.250000e-02  0.000000e+00
     vertex -9.575556e-02 -8.034845e-02  0.000000e+00
     vertex -1.104797e-01 -8.598978e-02  0.000000e+00
   endloop
 endfacet
 facet normal  0.000000e+00 -0.000000e+00 -1.000000e+00
   outer loop
     vertex -4.275252e-02 -1.174616e-01  0.000000e+00
     vertex -3.436797e-02 -1.357160e-01  0.000000e+00
     vertex -5.623736e-02 -1.282083e-01  0.000000e+00
   endloop
 endfacet
 facet normal -0.000000e+00  0.000000e+00 -1.000000e+00
   outer loop
     vertex -4.275252e-02 -1.174616e-01  0.000000e+00
     vertex -5.623736e-02 -1.282083e-01  0.000000e+00
     vertex -6.250000e-02 -1.082532e-01  0.000000e+00
   endloop
 endfacet
 facet normal  0.000000e+00  0.000000e+00 -1.000000e+00
   outer loop
     vertex -1.174616e-01 -4.275252e-02  0.000000e+00
     vertex -1.231263e-01 -6.663264e-02  0.000000e+00
     vertex -1.324144e-01 -4.545793e-02  0.000000e+00
   endloop
 endfacet
 facet normal  0.000000e+00 -0.000000e+00 -1.000000e+00
   outer loop
     vertex -1.174616e-01 -4.275252e-02  0.000000e+00
     vertex -1.082532e-01 -6.250000e-02  0.000000e+00
     vertex -1.231263e-01 -6.663264e-02  0.000000e+00
   endloop
 endfacet
 facet normal  0.000000e+00 -0.000000e+00 -1.000000e+00
   outer loop
     vertex -2.170602e-02 -1.231010e-01  0.000000e+00
     vertex -1.156111e-02 -1.395218e-01  0.000000e+00
     vertex -3.436797e-02 -1.357160e-01  0.000000e+00
   endloop
 endfacet
 facet normal -0.000000e+00  0.000000e+00 -1.000000e+00
   outer loop
     vertex -2.170602e-02 -1.231010e-01  0.000000e+00
     vertex -3.436797e-02 -1.357160e-01  0.000000e+00
     vertex -4.275252e-02 -1.174616e-01  0.000000e+00
   endloop
 endfacet
 facet normal  0.000000e+00 -0.000000e+00 -1.000000e+00
   outer loop
     vertex -1.231010e-01 -2.170602e-02  0.000000e+00
     vertex -1.174616e-01 -4.275252e-02  0.000000e+00
     vertex -1.324144e-01 -4.545793e-02  0.000000e+00
   endloop
 endfacet
 facet normal  0.000000e+00  0.000000e+00 -1.000000e+00
   outer loop
     vertex -1.231010e-01 -2.170602e-02  0.000000e+00
     vertex -1.324144e-01 -4.545793e-02  0.000000e+00
     vertex -1.380906e-01 -2.304324e-02  0.000000e+00
   endloop
 endfacet
 facet normal -0.000000e+00  0.000000e+00 -1.000000e+00
   outer loop
     vertex -3.560290e-16 -1.250000e-01  0.000000e+00
     vertex -1.156111e-02 -1.395218e-01  0.000000e+00
     vertex -2.170602e-02 -1.231010e-01  0.000000e+00
   endloop
 endfacet
 facet normal  0.000000e+00 -0.000000e+00 -1.000000e+00
   outer loop
     vertex -3.560290e-16 -1.250000e-01  0.000000e+00
     vertex  1.156111e-02 -1.395218e-01  0.000000e+00
     vertex -1.156111e-02 -1.395218e-01  0.000000e+00
   endloop
 endfacet
 facet normal  0.000000e+00 -0.000000e+00 -1.000000e+00
   outer loop
     vertex -1.250000e-01  1.818415e-16  0.000000e+00
     vertex -1.231010e-01 -2.170602e-02  0.000000e+00
     vertex -1.380906e-01 -2.304324e-02  0.000000e+00
   endloop
 endfacet
 facet normal  0.000000e+00  0.000000e+00 -1.000000e+00
   outer loop
     vertex -1.250000e-01  1.818415e-16  0.000000e+00
     vertex -1.380906e-01 -2.304324e-02  0.000000e+00
     vertex -1.400000e-01  1.714506e-17  0.000000e+00
   endloop
 endfacet
 facet normal  0.000000e+00 -0.000000e+00 -1.000000e+00
   outer loop
     vertex -1.380906e-01  2.304324e-02  0.000000e+00
     vertex -1.250000e-01  1.818415e-16  0.000000e+00
     vertex -1.400000e-01  1.714506e-17  0.000000e+00
   endloop
 endfacet
 facet normal  0.000000e+00  0.000000e+00 -1.000000e+00
   outer loop
     vertex  2.170602e-02 -1.231010e-01  0.000000e+00
     vertex  1.156111e-02 -1.395218e-01  0.000000e+00
     vertex -3.560290e-16 -1.250000e-01  0.000000e+00
   endloop
 endfacet
 facet normal -0.000000e+00  0.000000e+00 -1.000000e+00
   outer loop
     vertex -1.231010e-01  2.170602e-02  0.000000e+00
     vertex -1.250000e-01  1.818415e-16  0.000000e+00
     vertex -1.380906e-01  2.304324e-02  0.000000e+00
   endloop
 endfacet
 facet normal -0.000000e+00  0.000000e+00 -1.000000e+00
   outer loop
     vertex  3.436797e-02 -1.357160e-01  0.000000e+00
     vertex  1.156111e-02 -1.395218e-01  0.000000e+00
     vertex  2.170602e-02 -1.231010e-01  0.000000e+00
   endloop
 endfacet
 facet normal  0.000000e+00 -0.000000e+00 -1.000000e+00
   outer loop
     vertex -1.324144e-01  4.545793e-02  0.000000e+00
     vertex -1.231010e-01  2.170602e-02  0.000000e+00
     vertex -1.380906e-01  2.304324e-02  0.000000e+00
   endloop
 endfacet
 facet normal  0.000000e+00  0.000000e+00 -1.000000e+00
   outer loop
     vertex  4.275252e-02 -1.174616e-01  0.000000e+00
     vertex  3.436797e-02 -1.357160e-01  0.000000e+00
     vertex  2.170602e-02 -1.231010e-01  0.000000e+00
   endloop
 endfacet
 facet normal -0.000000e+00  0.000000e+00 -1.000000e+00
   outer loop
     vertex -1.174616e-01  4.275252e-02  0.000000e+00
     vertex -1.231010e-01  2.170602e-02  0.000000e+00
     vertex -1.324144e-01  4.545793e-02  0.000000e+00
   endloop
 endfacet
 facet normal -0.000000e+00  0.000000e+00 -1.000000e+00
   outer loop
     vertex  5.623736e-02 -1.282083e-01  0.000000e+00
     vertex  3.436797e-02 -1.357160e-01  0.000000e+00
     vertex  4.275252e-02 -1.174616e-01  0.000000e+00
   endloop
 endfacet
 facet normal  0.000000e+00 -0.000000e+00 -1.000000e+00
   outer loop
     vertex -1.231263e-01  6.663264e-02  0.000000e+00
     vertex -1.174616e-01  4.275252e-02  0.000000e+00
     vertex -1.324144e-01  4.545793e-02  0.000000e+00
   endloop
 endfacet
 facet normal  0.000000e+00  0.000000e+00 -1.000000e+00
   outer loop
     vertex  6.250000e-02 -1.082532e-01  0.000000e+00
     vertex  5.623736e-02 -1.282083e-01  0.000000e+00
     vertex  4.275252e-02 -1.174616e-01  0.000000e+00
   endloop
 endfacet
 facet normal -0.000000e+00  0.000000e+00 -1.000000e+00
   outer loop
     vertex -1.082532e-01  6.250000e-02  0.000000e+00
     vertex -1.174616e-01  4.275252e-02  0.000000e+00
     vertex -1.231263e-01  6.663264e-02  0.000000e+00
   endloop
 endfacet
 facet normal -0.000000e+00  0.000000e+00 -1.000000e+00
   outer loop
     vertex  7.657274e-02 -1.172033e-01  0.000000e+00
     vertex  5.623736e-02 -1.282083e-01  0.000000e+00
     vertex  6.250000e-02 -1.082532e-01  0.000000e+00
   endloop
 endfacet
 facet normal  0.000000e+00 -0.000000e+00 -1.000000e+00
   outer loop
     vertex -1.104797e-01  8.598978e-02  0.000000e+00
     vertex -1.082532e-01  6.250000e-02  0.000000e+00
     vertex -1.231263e-01  6.663264e-02  0.000000e+00
   endloop
 endfacet
 facet normal  0.000000e+00  0.000000e+00 -1.000000e+00
   outer loop
     vertex  8.034845e-02 -9.575556e-02  0.000000e+00
     vertex  7.657274e-02 -1.172033e-01  0.000000e+00
     vertex  6.250000e-02 -1.082532e-01  0.000000e+00
   endloop
 endfacet
 facet normal -0.000000e+00  0.000000e+00 -1.000000e+00
   outer loop
     vertex -9.575556e-02  8.034845e-02  0.000000e+00
     vertex -1.082532e-01  6.250000e-02  0.000000e+00
     vertex -1.104797e-01  8.598978e-02  0.000000e+00
   endloop
 endfacet
 facet normal -0.000000e+00  0.000000e+00 -1.000000e+00
   outer loop
     vertex  9.481942e-02 -1.030013e-01  0.000000e+00
     vertex  7.657274e-02 -1.172033e-01  0.000000e+00
     vertex  8.034845e-02 -9.575556e-02  0.000000e+00
   endloop
 endfacet
 facet normal  0.000000e+00  0.000000e+00 -1.000000e+00
   outer loop
     vertex -9.481942e-02  1.030013e-01  0.000000e+00
     vertex -9.575556e-02  8.034845e-02  0.000000e+00
     vertex -1.104797e-01  8.598978e-02  0.000000e+00
   endloop
 endfacet
 facet normal  0.000000e+00  0.000000e+00 -1.000000e+00
   outer loop
     vertex  9.575556e-02 -8.034845e-02  0.000000e+00
     vertex  9.481942e-02 -1.030013e-01  0.000000e+00
     vertex  8.034845e-02 -9.575556e-02  0.000000e+00
   endloop
 endfacet
 facet normal -0.000000e+00  0.000000e+00 -1.000000e+00
   outer loop
     vertex -8.034845e-02  9.575556e-02  0.000000e+00
     vertex -9.575556e-02  8.034845e-02  0.000000e+00
     vertex -9.481942e-02  1.030013e-01  0.000000e+00
   endloop
 endfacet
 facet normal -0.000000e+00  0.000000e+00 -1.000000e+00
   outer loop
     vertex  1.104797e-01 -8.598978e-02  0.000000e+00
     vertex  9.481942e-02 -1.030013e-01  0.000000e+00
     vertex  9.575556e-02 -8.034845e-02  0.000000e+00
   endloop
 endfacet
 facet normal  0.000000e+00  0.000000e+00 -1.000000e+00
   outer loop
     vertex -7.657274e-02  1.172033e-01  0.000000e+00
     vertex -8.034845e-02  9.575556e-02  0.000000e+00
     vertex -9.481942e-02  1.030013e-01  0.000000e+00
   endloop
 endfacet
 facet normal  0.000000e+00 -0.000000e+00 -1.000000e+00
   outer loop
     vertex  1.082532e-01 -6.250000e-02  0.000000e+00
     vertex  1.104797e-01 -8.598978e-02  0.000000e+00
     vertex  9.575556e-02 -8.034845e-02  0.000000e+00
   endloop
 endfacet
 facet normal -0.000000e+00  0.000000e+00 -1.000000e+00
   outer loop
     vertex -6.250000e-02  1.082532e-01  0.000000e+00
     vertex -8.034845e-02  9.575556e-02  0.000000e+00
     vertex -7.657274e-02  1.172033e-01  0.000000e+00
   endloop
 endfacet
 facet normal -0.000000e+00  0.000000e+00 -1.000000e+00
   outer loop
     vertex  1.231263e-01 -6.663264e-02  0.000000e+00
     vertex  1.104797e-01 -8.598978e-02  0.000000e+00
     vertex  1.082532e-01 -6.250000e-02  0.000000e+00
   endloop
 endfacet
 facet normal  0.000000e+00  0.000000e+00 -1.000000e+00
   outer loop
     vertex -5.623736e-02  1.282083e-01  0.000000e+00
     vertex -6.250000e-02  1.082532e-01  0.000000e+00
     vertex -7.657274e-02  1.172033e-01  0.000000e+00
   endloop
 endfacet
 facet normal  0.000000e+00 -0.000000e+00 -1.000000e+00
   outer loop
     vertex  1.174616e-01 -4.275252e-02  0.000000e+00
     vertex  1.231263e-01 -6.663264e-02  0.000000e+00
     vertex  1.082532e-01 -6.250000e-02  0.000000e+00
   endloop
 endfacet
 facet normal -0.000000e+00  0.000000e+00 -1.000000e+00
   outer loop
     vertex -4.275252e-02  1.174616e-01  0.000000e+00
     vertex -6.250000e-02  1.082532e-01  0.000000e+00
     vertex -5.623736e-02  1.282083e-01  0.000000e+00
   endloop
 endfacet
 facet normal -0.000000e+00  0.000000e+00 -1.000000e+00
   outer loop
     vertex  1.324144e-01 -4.545793e-02  0.000000e+00
     vertex  1.231263e-01 -6.663264e-02  0.000000e+00
     vertex  1.174616e-01 -4.275252e-02  0.000000e+00
   endloop
 endfacet
 facet normal  0.000000e+00  0.000000e+00 -1.000000e+00
   outer loop
     vertex -3.436797e-02  1.357160e-01  0.000000e+00
     vertex -4.275252e-02  1.174616e-01  0.000000e+00
     vertex -5.623736e-02  1.282083e-01  0.000000e+00
   endloop
 endfacet
 facet normal  0.000000e+00 -0.000000e+00 -1.000000e+00
   outer loop
     vertex  1.231010e-01 -2.170602e-02  0.000000e+00
     vertex  1.324144e-01 -4.545793e-02  0.000000e+00
     vertex  1.174616e-01 -4.275252e-02  0.000000e+00
   endloop
 endfacet
 facet normal -0.000000e+00  0.000000e+00 -1.000000e+00
   outer loop
     vertex -2.170602e-02  1.231010e-01  0.000000e+00
     vertex -4.275252e-02  1.174616e-01  0.000000e+00
     vertex -3.436797e-02  1.357160e-01  0.000000e+00
   endloop
 endfacet
 facet normal -0.000000e+00  0.000000e+00 -1.000000e+00
   outer loop
     vertex  1.380906e-01 -2.304324e-02  0.000000e+00
     vertex  1.324144e-01 -4.545793e-02  0.000000e+00
     vertex  1.231010e-01 -2.170602e-02  0.000000e+00
   endloop
 endfacet
 facet normal  0.000000e+00 -0.000000e+00 -1.000000e+00
   outer loop
     vertex  1.250000e-01  0.000000e+00  0.000000e+00
     vertex  1.380906e-01 -2.304324e-02  0.000000e+00
     vertex  1.231010e-01 -2.170602e-02  0.000000e+00
   endloop
 endfacet
 facet normal  0.000000e+00 -0.000000e+00 -1.000000e+00
   outer loop
     vertex -1.156111e-02  1.395218e-01  0.000000e+00
     vertex  7.654042e-18  1.250000e-01  0.000000e+00
     vertex -2.170602e-02  1.231010e-01  0.000000e+00
   endloop
 endfacet
 facet normal  0.000000e+00  0.000000e+00 -1.000000e+00
   outer loop
     vertex -1.156111e-02  1.395218e-01  0.000000e+00
     vertex -2.170602e-02  1.231010e-01  0.000000e+00
     vertex -3.436797e-02  1.357160e-01  0.000000e+00
   endloop
 endfacet
 facet normal -0.000000e+00  0.000000e+00 -1.000000e+00
   outer loop
     vertex  1.400000e-01  0.000000e+00  0.000000e+00
     vertex  1.380906e-01 -2.304324e-02  0.000000e+00
     vertex  1.250000e-01  0.000000e+00  0.000000e+00
   endloop
 endfacet
 facet normal  0.000000e+00 -0.000000e+00 -1.000000e+00
   outer loop
     vertex  1.156111e-02  1.395218e-01  0.000000e+00
     vertex  2.170602e-02  1.231010e-01  0.000000e+00
     vertex  7.654042e-18  1.250000e-01  0.000000e+00
   endloop
 endfacet
 facet normal -0.000000e+00  0.000000e+00 -1.000000e+00
   outer loop
     vertex  1.156111e-02  1.395218e-01  0.000000e+00
     vertex  7.654042e-18  1.250000e-01  0.000000e+00
     vertex -1.156111e-02  1.395218e-01  0.000000e+00
   endloop
 endfacet
 facet normal  0.000000e+00  0.000000e+00 -1.000000e+00
   outer loop
     vertex  1.380906e-01  2.304324e-02  0.000000e+00
     vertex  1.250000e-01  0.000000e+00  0.000000e+00
     vertex  1.231010e-01  2.170602e-02  0.000000e+00
   endloop
 endfacet
 facet normal  0.000000e+00 -0.000000e+00 -1.000000e+00
   outer loop
     vertex  1.380906e-01  2.304324e-02  0.000000e+00
     vertex  1.400000e-01  0.000000e+00  0.000000e+00
     vertex  1.250000e-01  0.000000e+00  0.000000e+00
   endloop
 endfacet
 facet normal  0.000000e+00 -0.000000e+00 -1.000000e+00
   outer loop
     vertex  3.436797e-02  1.357160e-01  0.000000e+00
     vertex  4.275252e-02  1.174616e-01  0.000000e+00
     vertex  2.170602e-02  1.231010e-01  0.000000e+00
   endloop
 endfacet
 facet normal -0.000000e+00  0.000000e+00 -1.000000e+00
   outer loop
     vertex  3.436797e-02  1.357160e-01  0.000000e+00
     vertex  2.170602e-02  1.231010e-01  0.000000e+00
     vertex  1.156111e-02  1.395218e-01  0.000000e+00
   endloop
 endfacet
 facet normal  0.000000e+00  0.000000e+00 -1.000000e+00
   outer loop
     vertex  1.324144e-01  4.545793e-02  0.000000e+00
     vertex  1.231010e-01  2.170602e-02  0.000000e+00
     vertex  1.174616e-01  4.275252e-02  0.000000e+00
   endloop
 endfacet
 facet normal  0.000000e+00 -0.000000e+00 -1.000000e+00
   outer loop
     vertex  1.324144e-01  4.545793e-02  0.000000e+00
     vertex  1.380906e-01  2.304324e-02  0.000000e+00
     vertex  1.231010e-01  2.170602e-02  0.000000e+00
   endloop
 endfacet
 facet normal -0.000000e+00  0.000000e+00 -1.000000e+00
   outer loop
     vertex  5.623736e-02  1.282083e-01  0.000000e+00
     vertex  4.275252e-02  1.174616e-01  0.000000e+00
     vertex  3.436797e-02  1.357160e-01  0.000000e+00
   endloop
 endfacet
 facet normal  0.000000e+00 -0.000000e+00 -1.000000e+00
   outer loop
     vertex  5.623736e-02  1.282083e-01  0.000000e+00
     vertex  6.250000e-02  1.082532e-01  0.000000e+00
     vertex  4.275252e-02  1.174616e-01  0.000000e+00
   endloop
 endfacet
 facet normal  0.000000e+00  0.000000e+00 -1.000000e+00
   outer loop
     vertex  1.231263e-01  6.663264e-02  0.000000e+00
     vertex  1.174616e-01  4.275252e-02  0.000000e+00
     vertex  1.082532e-01  6.250000e-02  0.000000e+00
   endloop
 endfacet
 facet normal  0.000000e+00 -0.000000e+00 -1.000000e+00
   outer loop
     vertex  1.231263e-01  6.663264e-02  0.000000e+00
     vertex  1.324144e-01  4.545793e-02  0.000000e+00
     vertex  1.174616e-01  4.275252e-02  0.000000e+00
   endloop
 endfacet
 facet normal -0.000000e+00  0.000000e+00 -1.000000e+00
   outer loop
     vertex  7.657274e-02  1.172033e-01  0.000000e+00
     vertex  6.250000e-02  1.082532e-01  0.000000e+00
     vertex  5.623736e-02  1.282083e-01  0.000000e+00
   endloop
 endfacet
 facet normal  0.000000e+00 -0.000000e+00 -1.000000e+00
   outer loop
     vertex  7.657274e-02  1.172033e-01  0.000000e+00
     vertex  8.034845e-02  9.575556e-02  0.000000e+00
     vertex  6.250000e-02  1.082532e-01  0.000000e+00
   endloop
 endfacet
 facet normal  0.000000e+00  0.000000e+00 -1.000000e+00
   outer loop
     vertex  1.104797e-01  8.598978e-02  0.000000e+00
     vertex  1.082532e-01  6.250000e-02  0.000000e+00
     vertex  9.575556e-02  8.034845e-02  0.000000e+00
   endloop
 endfacet
 facet normal  0.000000e+00 -0.000000e+00 -1.000000e+00
   outer loop
     vertex  1.104797e-01  8.598978e-02  0.000000e+00
     vertex  1.231263e-01  6.663264e-02  0.000000e+00
     vertex  1.082532e-01  6.250000e-02  0.000000e+00
   endloop
 endfacet
 facet normal -0.000000e+00  0.000000e+00 -1.000000e+00
   outer loop
     vertex  9.481942e-02  1.030013e-01  0.000000e+00
     vertex  8.034845e-02  9.575556e-02  0.000000e+00
     vertex  7.657274e-02  1.172033e-01  0.000000e+00
   endloop
 endfacet
 facet normal  0.000000e+00  0.000000e+00 -1.000000e+00
   outer loop
     vertex  9.481942e-02  1.030013e-01  0.000000e+00
     vertex  1.104797e-01  8.598978e-02  0.000000e+00
     vertex  9.575556e-02  8.034845e-02  0.000000e+00
   endloop
 endfacet
 facet normal  0.000000e+00 -0.000000e+00 -1.000000e+00
   outer loop
     vertex  9.481942e-02  1.030013e-01  0.000000e+00
     vertex  9.575556e-02  8.034845e-02  0.000000e+00
     vertex  8.034845e-02  9.575556e-02  0.000000e+00
   endloop
 endfacet
 facet normal  0.000000e+00  0.000000e+00  1.000000e+00
   outer loop
     vertex -8.034845e-02 -9.575556e-02  1.000000e+00
     vertex -9.481942e-02 -1.030013e-01  1.000000e+00
     vertex -7.657274e-02 -1.172033e-01  1.000000e+00
   endloop
 endfacet
 facet normal  0.000000e+00  0.000000e+00  1.000000e+00
   outer loop
     vertex -9.575556e-02 -8.034845e-02  1.000000e+00
     vertex -1.104797e-01 -8.598978e-02  1.000000e+00
     vertex -9.481942e-02 -1.030013e-01  1.000000e+00
   endloop
 endfacet
 facet normal  0.000000e+00  0.000000e+00  1.000000e+00
   outer loop
     vertex -9.575556e-02 -8.034845e-02  1.000000e+00
     vertex -9.481942e-02 -1.030013e-01  1.000000e+00
     vertex -8.034845e-02 -9.575556e-02  1.000000e+00
   endloop
 endfacet
 facet normal  0.000000e+00  0.000000e+00  1.000000e+00
   outer loop
     vertex -6.250000e-02 -1.082532e-01  1.000000e+00
     vertex -7.657274e-02 -1.172033e-01  1.000000e+00
     vertex -5.623736e-02 -1.282083e-01  1.000000e+00
   endloop
 endfacet
 facet normal  0.000000e+00  0.000000e+00  1.000000e+00
   outer loop
     vertex -6.250000e-02 -1.082532e-01  1.000000e+00
     vertex -8.034845e-02 -9.575556e-02  1.000000e+00
     vertex -7.657274e-02 -1.172033e-01  1.000000e+00
   endloop
 endfacet
 facet normal  0.000000e+00  0.000000e+00  1.000000e+00
   outer loop
     vertex -1.082532e-01 -6.250000e-02  1.000000e+00
     vertex -1.231263e-01 -6.663264e-02  1.000000e+00
     vertex -1.104797e-01 -8.598978e-02  1.000000e+00
   endloop
 endfacet
 facet normal  0.000000e+00  0.000000e+00  1.000000e+00
   outer loop
     vertex -1.082532e-01 -6.250000e-02  1.000000e+00
     vertex -1.104797e-01 -8.598978e-02  1.000000e+00
     vertex -9.575556e-02 -8.034845e-02  1.000000e+00
   endloop
 endfacet
 facet normal  0.000000e+00  0.000000e+00  1.000000e+00
   outer loop
     vertex -4.275252e-02 -1.174616e-01  1.000000e+00
     vertex -5.623736e-02 -1.282083e-01  1.000000e+00
     vertex -3.436797e-02 -1.357160e-01  1.000000e+00
   endloop
 endfacet
 facet normal  0.000000e+00  0.000000e+00  1.000000e+00
   outer loop
     vertex -4.275252e-02 -1.174616e-01  1.000000e+00
     vertex -6.250000e-02 -1.082532e-01  1.000000e+00
     vertex -5.623736e-02 -1.282083e-01  1.000000e+00
   endloop
 endfacet
 facet normal  0.000000e+00  0.000000e+00  1.000000e+00
   outer loop
     vertex -1.174616e-01 -4.275252e-02  1.000000e+00
     vertex -1.324144e-01 -4.545793e-02  1.000000e+00
     vertex -1.231263e-01 -6.663264e-02  1.000000e+00
   endloop
 endfacet
 facet normal  0.000000e+00  0.000000e+00  1.000000e+00
   outer loop
     vertex -1.174616e-01 -4.275252e-02  1.000000e+00
     vertex -1.231263e-01 -6.663264e-02  1.000000e+00
     vertex -1.082532e-01 -6.250000e-02  1.000000e+00
   endloop
 endfacet
 facet normal  0.000000e+00  0.000000e+00  1.000000e+00
   outer loop
     vertex -2.170602e-02 -1.231010e-01  1.000000e+00
     vertex -3.436797e-02 -1.357160e-01  1.000000e+00
     vertex -1.156111e-02 -1.395218e-01  1.000000e+00
   endloop
 endfacet
 facet normal  0.000000e+00  0.000000e+00  1.000000e+00
   outer loop
     vertex -2.170602e-02 -1.231010e-01  1.000000e+00
     vertex -4.275252e-02 -1.174616e-01  1.000000e+00
     vertex -3.436797e-02 -1.357160e-01  1.000000e+00
   endloop
 endfacet
 facet normal  0.000000e+00  0.000000e+00  1.000000e+00
   outer loop
     vertex -1.231010e-01 -2.170602e-02  1.000000e+00
     vertex -1.324144e-01 -4.545793e-02  1.000000e+00
     vertex -1.174616e-01 -4.275252e-02  1.000000e+00
   endloop
 endfacet
 facet normal  0.000000e+00  0.000000e+00  1.000000e+00
   outer loop
     vertex -1.231010e-01 -2.170602e-02  1.000000e+00
     vertex -1.380906e-01 -2.304324e-02  1.000000e+00
     vertex -1.324144e-01 -4.545793e-02  1.000000e+00
   endloop
 endfacet
 facet normal  0.000000e+00  0.000000e+00  1.000000e+00
   outer loop
     vertex -3.560290e-16 -1.250000e-01  1.000000e+00
     vertex -2.170602e-02 -1.231010e-01  1.000000e+00
     vertex -1.156111e-02 -1.395218e-01  1.000000e+00
   endloop
 endfacet
 facet normal  0.000000e+00  0.000000e+00  1.000000e+00
   outer loop
     vertex -3.560290e-16 -1.250000e-01  1.000000e+00
     vertex -1.156111e-02 -1.395218e-01  1.000000e+00
     vertex  1.156111e-02 -1.395218e-01  1.000000e+00
   endloop
 endfacet
 facet normal  0.000000e+00  0.000000e+00  1.000000e+00
   outer loop
     vertex -1.250000e-01  1.818415e-16  1.000000e+00
     vertex -1.380906e-01 -2.304324e-02  1.000000e+00
     vertex -1.231010e-01 -2.170602e-02  1.000000e+00
   endloop
 endfacet
 facet normal  0.000000e+00  0.000000e+00  1.000000e+00
   outer loop
     vertex -1.250000e-01  1.818415e-16  1.000000e+00
     vertex -1.400000e-01  1.714506e-17  1.000000e+00
     vertex -1.380906e-01 -2.304324e-02  1.000000e+00
   endloop
 endfacet
 facet normal  0.000000e+00  0.000000e+00  1.000000e+00
   outer loop
     vertex -1.380906e-01  2.304324e-02  1.000000e+00
     vertex -1.400000e-01  1.714506e-17  1.000000e+00
     vertex -1.250000e-01  1.818415e-16  1.000000e+00
   endloop
 endfacet
 facet normal  0.000000e+00  0.000000e+00  1.000000e+00
   outer loop
     vertex  2.170602e-02 -1.231010e-01  1.000000e+00
     vertex -3.560290e-16 -1.250000e-01  1.000000e+00
     vertex  1.156111e-02 -1.395218e-01  1.000000e+00
   endloop
 endfacet
 facet normal  0.000000e+00  0.000000e+00  1.000000e+00
   outer loop
     vertex -1.231010e-01  2.170602e-02  1.000000e+00
     vertex -1.380906e-01  2.304324e-02  1.000000e+00
     vertex -1.250000e-01  1.818415e-16  1.000000e+00
   endloop
 endfacet
 facet normal  0.000000e+00  0.000000e+00  1.000000e+00
   outer loop
     vertex  3.436797e-02 -1.357160e-01  1.000000e+00
     vertex  2.170602e-02 -1.231010e-01  1.000000e+00
     vertex  1.156111e-02 -1.395218e-01  1.000000e+00
   endloop
 endfacet
 facet normal  0.000000e+00  0.000000e+00  1.000000e+00
   outer loop
     vertex -1.324144e-01  4.545793e-02  1.000000e+00
     vertex -1.380906e-01  2.304324e-02  1.000000e+00
     vertex -1.231010e-01  2.170602e-02  1.000000e+00
   endloop
 endfacet
 facet normal  0.000000e+00  0.000000e+00  1.000000e+00
   outer loop
     vertex  4.275252e-02 -1.174616e-01  1.000000e+00
     vertex  2.170602e-02 -1.231010e-01  1.000000e+00
     vertex  3.436797e-02 -1.357160e-01  1.000000e+00
   endloop
 endfacet
 facet normal  0.000000e+00  0.000000e+00  1.000000e+00
   outer loop
     vertex -1.174616e-01  4.275252e-02  1.000000e+00
     vertex -1.324144e-01  4.545793e-02  1.000000e+00
     vertex -1.231010e-01  2.170602e-02  1.000000e+00
   endloop
 endfacet
 facet normal  0.000000e+00  0.000000e+00  1.000000e+00
   outer loop
     vertex  5.623736e-02 -1.282083e-01  1.000000e+00
     vertex  4.275252e-02 -1.174616e-01  1.000000e+00
     vertex  3.436797e-02 -1.357160e-01  1.000000e+00
   endloop
 endfacet
 facet normal  0.000000e+00  0.000000e+00  1.000000e+00
   outer loop
     vertex -1.231263e-01  6.663264e-02  1.000000e+00
     vertex -1.324144e-01  4.545793e-02  1.000000e+00
     vertex -1.174616e-01  4.275252e-02  1.000000e+00
   endloop
 endfacet
 facet normal  0.000000e+00  0.000000e+00  1.000000e+00
   outer loop
     vertex  6.250000e-02 -1.082532e-01  1.000000e+00
     vertex  4.275252e-02 -1.174616e-01  1.000000e+00
     vertex  5.623736e-02 -1.282083e-01  1.000000e+00
   endloop
 endfacet
 facet normal  0.000000e+00  0.000000e+00  1.000000e+00
   outer loop
     vertex -1.082532e-01  6.250000e-02  1.000000e+00
     vertex -1.231263e-01  6.663264e-02  1.000000e+00
     vertex -1.174616e-01  4.275252e-02  1.000000e+00
   endloop
 endfacet
 facet normal  0.000000e+00  0.000000e+00  1.000000e+00
   outer loop
     vertex  7.657274e-02 -1.172033e-01  1.000000e+00
     vertex  6.250000e-02 -1.082532e-01  1.000000e+00
     vertex  5.623736e-02 -1.282083e-01  1.000000e+00
   endloop
 endfacet
 facet normal  0.000000e+00  0.000000e+00  1.000000e+00
   outer loop
     vertex -1.104797e-01  8.598978e-02  1.000000e+00
     vertex -1.231263e-01  6.663264e-02  1.000000e+00
     vertex -1.082532e-01  6.250000e-02  1.000000e+00
   endloop
 endfacet
 facet normal  0.000000e+00  0.000000e+00  1.000000e+00
   outer loop
     vertex  8.034845e-02 -9.575556e-02  1.000000e+00
     vertex  6.250000e-02 -1.082532e-01  1.000000e+00
     vertex  7.657274e-02 -1.172033e-01  1.000000e+00
   endloop
 endfacet
 facet normal  0.000000e+00  0.000000e+00  1.000000e+00
   outer loop
     vertex -9.575556e-02  8.034845e-02  1.000000e+00
     vertex -1.104797e-01  8.598978e-02  1.000000e+00
     vertex -1.082532e-01  6.250000e-02  1.000000e+00
   endloop
 endfacet
 facet normal  0.000000e+00  0.000000e+00  1.000000e+00
   outer loop
     vertex  9.481942e-02 -1.030013e-01  1.000000e+00
     vertex  8.034845e-02 -9.575556e-02  1.000000e+00
     vertex  7.657274e-02 -1.172033e-01  1.000000e+00
   endloop
 endfacet
 facet normal  0.000000e+00  0.000000e+00  1.000000e+00
   outer loop
     vertex -9.481942e-02  1.030013e-01  1.000000e+00
     vertex -1.104797e-01  8.598978e-02  1.000000e+00
     vertex -9.575556e-02  8.034845e-02  1.000000e+00
   endloop
 endfacet
 facet normal  0.000000e+00  0.000000e+00  1.000000e+00
   outer loop
     vertex  9.575556e-02 -8.034845e-02  1.000000e+00
     vertex  8.034845e-02 -9.575556e-02  1.000000e+00
     vertex  9.481942e-02 -1.030013e-01  1.000000e+00
   endloop
 endfacet
 facet normal  0.000000e+00  0.000000e+00  1.000000e+00
   outer loop
     vertex -8.034845e-02  9.575556e-02  1.000000e+00
     vertex -9.481942e-02  1.030013e-01  1.000000e+00
     vertex -9.575556e-02  8.034845e-02  1.000000e+00
   endloop
 endfacet
 facet normal  0.000000e+00  0.000000e+00  1.000000e+00
   outer loop
     vertex  1.104797e-01 -8.598978e-02  1.000000e+00
     vertex  9.575556e-02 -8.034845e-02  1.000000e+00
     vertex  9.481942e-02 -1.030013e-01  1.000000e+00
   endloop
 endfacet
 facet normal  0.000000e+00  0.000000e+00  1.000000e+00
   outer loop
     vertex -7.657274e-02  1.172033e-01  1.000000e+00
     vertex -9.481942e-02  1.030013e-01  1.000000e+00
     vertex -8.034845e-02  9.575556e-02  1.000000e+00
   endloop
 endfacet
 facet normal  0.000000e+00  0.000000e+00  1.000000e+00
   outer loop
     vertex  1.082532e-01 -6.250000e-02  1.000000e+00
     vertex  9.575556e-02 -8.034845e-02  1.000000e+00
     vertex  1.104797e-01 -8.598978e-02  1.000000e+00
   endloop
 endfacet
 facet normal  0.000000e+00  0.000000e+00  1.000000e+00
   outer loop
     vertex -6.250000e-02  1.082532e-01  1.000000e+00
     vertex -7.657274e-02  1.172033e-01  1.000000e+00
     vertex -8.034845e-02  9.575556e-02  1.000000e+00
   endloop
 endfacet
 facet normal  0.000000e+00  0.000000e+00  1.000000e+00
   outer loop
     vertex  1.231263e-01 -6.663264e-02  1.000000e+00
     vertex  1.082532e-01 -6.250000e-02  1.000000e+00
     vertex  1.104797e-01 -8.598978e-02  1.000000e+00
   endloop
 endfacet
 facet normal  0.000000e+00  0.000000e+00  1.000000e+00
   outer loop
     vertex -5.623736e-02  1.282083e-01  1.000000e+00
     vertex -7.657274e-02  1.172033e-01  1.000000e+00
     vertex -6.250000e-02  1.082532e-01  1.000000e+00
   endloop
 endfacet
 facet normal  0.000000e+00  0.000000e+00  1.000000e+00
   outer loop
     vertex  1.174616e-01 -4.275252e-02  1.000000e+00
     vertex  1.082532e-01 -6.250000e-02  1.000000e+00
     vertex  1.231263e-01 -6.663264e-02  1.000000e+00
   endloop
 endfacet
 facet normal  0.000000e+00  0.000000e+00  1.000000e+00
   outer loop
     vertex -4.275252e-02  1.174616e-01  1.000000e+00
     vertex -5.623736e-02  1.282083e-01  1.000000e+00
     vertex -6.250000e-02  1.082532e-01  1.000000e+00
   endloop
 endfacet
 facet normal  0.000000e+00  0.000000e+00  1.000000e+00
   outer loop
     vertex  1.324144e-01 -4.545793e-02  1.000000e+00
     vertex  1.174616e-01 -4.275252e-02  1.000000e+00
     vertex  1.231263e-01 -6.663264e-02  1.000000e+00
   endloop
 endfacet
 facet normal  0.000000e+00  0.000000e+00  1.000000e+00
   outer loop
     vertex -3.436797e-02  1.357160e-01  1.000000e+00
     vertex -5.623736e-02  1.282083e-01  1.000000e+00
     vertex -4.275252e-02  1.174616e-01  1.000000e+00
   endloop
 endfacet
 facet normal  0.000000e+00  0.000000e+00  1.000000e+00
   outer loop
     vertex  1.231010e-01 -2.170602e-02  1.000000e+00
     vertex  1.174616e-01 -4.275252e-02  1.000000e+00
     vertex  1.324144e-01 -4.545793e-02  1.000000e+00
   endloop
 endfacet
 facet normal  0.000000e+00  0.000000e+00  1.000000e+00
   outer loop
     vertex -2.170602e-02  1.231010e-01  1.000000e+00
     vertex -3.436797e-02  1.357160e-01  1.000000e+00
     vertex -4.275252e-02  1.174616e-01  1.000000e+00
   endloop
 endfacet
 facet normal  0.000000e+00  0.000000e+00  1.000000e+00
   outer loop
     vertex  1.380906e-01 -2.304324e-02  1.000000e+00
     vertex  1.231010e-01 -2.170602e-02  1.000000e+00
     vertex  1.324144e-01 -4.545793e-02  1.000000e+00
   endloop
 endfacet
 facet normal  0.000000e+00  0.000000e+00  1.000000e+00
   outer loop
     vertex  1.250000e-01  0.000000e+00  1.000000e+00
     vertex  1.231010e-01 -2.170602e-02  1.000000e+00
     vertex  1.380906e-01 -2.304324e-02  1.000000e+00
   endloop
 endfacet
 facet normal  0.000000e+00  0.000000e+00  1.000000e+00
   outer loop
     vertex -1.156111e-02  1.395218e-01  1.000000e+00
     vertex -2.170602e-02  1.231010e-01  1.000000e+00
     vertex  7.654042e-18  1.250000e-01  1.000000e+00
   endloop
 endfacet
 facet normal  0.000000e+00  0.000000e+00  1.000000e+00
   outer loop
     vertex -1.156111e-02  1.395218e-01  1.000000e+00
     vertex -3.436797e-02  1.357160e-01  1.000000e+00
     vertex -2.170602e-02  1.231010e-01  1.000000e+00
   endloop
 endfacet
 facet normal  0.000000e+00  0.000000e+00  1.000000e+00
   outer loop
     vertex  1.400000e-01  0.000000e+00  1.000000e+00
     vertex  1.250000e-01  0.000000e+00  1.000000e+00
     vertex  1.380906e-01 -2.304324e-02  1.000000e+00
   endloop
 endfacet
 facet normal  0.000000e+00  0.000000e+00  1.000000e+00
   outer loop
     vertex  1.156111e-02  1.395218e-01  1.000000e+00
     vertex  7.654042e-18  1.250000e-01  1.000000e+00
     vertex  2.170602e-02  1.231010e-01  1.000000e+00
   endloop
 endfacet
 facet normal  0.000000e+00  0.000000e+00  1.000000e+00
   outer loop
     vertex  1.156111e-02  1.395218e-01  1.000000e+00
     vertex -1.156111e-02  1.395218e-01  1.000000e+00
     vertex  7.654042e-18  1.250000e-01  1.000000e+00
   endloop
 endfacet
 facet normal  0.000000e+00  0.000000e+00  1.000000e+00
   outer loop
     vertex  1.380906e-01  2.304324e-02  1.000000e+00
     vertex  1.231010e-01  2.170602e-02  1.000000e+00
     vertex  1.250000e-01  0.000000e+00  1.000000e+00
   endloop
 endfacet
 facet normal  0.000000e+00  0.000000e+00  1.000000e+00
   outer loop
     vertex  1.380906e-01  2.304324e-02  1.000000e+00
     vertex  1.250000e-01  0.000000e+00  1.000000e+00
     vertex  1.400000e-01  0.000000e+00  1.000000e+00
   endloop
 endfacet
 facet normal  0.000000e+00  0.000000e+00  1.000000e+00
   outer loop
     vertex  3.436797e-02  1.357160e-01  1.000000e+00
     vertex  2.170602e-02  1.231010e-01  1.000000e+00
     vertex  4.275252e-02  1.174616e-01  1.000000e+00
   endloop
 endfacet
 facet normal  0.000000e+00  0.000000e+00  1.000000e+00
   outer loop
     vertex  3.436797e-02  1.357160e-01  1.000000e+00
     vertex  1.156111e-02  1.395218e-01  1.000000e+00
     vertex  2.170602e-02  1.231010e-01  1.000000e+00
   endloop
 endfacet
 facet normal  0.000000e+00  0.000000e+00  1.000000e+00
   outer loop
     vertex  1.324144e-01  4.545793e-02  1.000000e+00
     vertex  1.174616e-01  4.275252e-02  1.000000e+00
     vertex  1.231010e-01  2.170602e-02  1.000000e+00
   endloop
 endfacet
 facet normal  0.000000e+00  0.000000e+00  1.000000e+00
   outer loop
     vertex  1.324144e-01  4.545793e-02  1.000000e+00
     vertex  1.231010e-01  2.170602e-02  1.000000e+00
     vertex  1.380906e-01  2.304324e-02  1.000000e+00
   endloop
 endfacet
 facet normal  0.000000e+00  0.000000e+00  1.000000e+00
   outer loop
     vertex  5.623736e-02  1.282083e-01  1.000000e+00
     vertex  3.436797e-02  1.357160e-01  1.000000e+00
     vertex  4.275252e-02  1.174616e-01  1.000000e+00
   endloop
 endfacet
 facet normal  0.000000e+00  0.000000e+00  1.000000e+00
   outer loop
     vertex  5.623736e-02  1.282083e-01  1.000000e+00
     vertex  4.275252e-02  1.174616e-01  1.000000e+00
     vertex  6.250000e-02  1.082532e-01  1.000000e+00
   endloop
 endfacet
 facet normal  0.000000e+00  0.000000e+00  1.000000e+00
   outer loop
     vertex  1.231263e-01  6.663264e-02  1.000000e+00
     vertex  1.082532e-01  6.250000e-02  1.000000e+00
     vertex  1.174616e-01  4.275252e-02  1.000000e+00
   endloop
 endfacet
 facet normal  0.000000e+00  0.000000e+00  1.000000e+00
   outer loop
     vertex  1.231263e-01  6.663264e-02  1.000000e+00
     vertex  1.174616e-01  4.275252e-02  1.000000e+00
     vertex  1.324144e-01  4.545793e-02  1.000000e+00
   endloop
 endfacet
 facet normal  0.000000e+00  0.000000e+00  1.000000e+00
   outer loop
     vertex  7.657274e-02  1.172033e-01  1.000000e+00
     vertex  5.623736e-02  1.282083e-01  1.000000e+00
     vertex  6.250000e-02  1.082532e-01  1.000000e+00
   endloop
 endfacet
 facet normal  0.000000e+00  0.000000e+00  1.000000e+00
   outer loop
     vertex  7.657274e-02  1.172033e-01  1.000000e+00
     vertex  6.250000e-02  1.082532e-01  1.000000e+00
     vertex  8.034845e-02  9.575556e-02  1.000000e+00
   endloop
 endfacet
 facet normal  0.000000e+00  0.000000e+00  1.000000e+00
   outer loop
     vertex  1.104797e-01  8.598978e-02  1.000000e+00
     vertex  9.575556e-02  8.034845e-02  1.000000e+00
     vertex  1.082532e-01  6.250000e-02  1.000000e+00
   endloop
 endfacet
 facet normal  0.000000e+00  0.000000e+00  1.000000e+00
   outer loop
     vertex  1.104797e-01  8.598978e-02  1.000000e+00
     vertex  1.082532e-01  6.250000e-02  1.000000e+00
     vertex  1.231263e-01  6.663264e-02  1.000000e+00
   endloop
 endfacet
 facet normal  0.000000e+00  0.000000e+00  1.000000e+00
   outer loop
     vertex  9.481942e-02  1.030013e-01  1.000000e+00
     vertex  7.657274e-02  1.172033e-01  1.000000e+00
     vertex  8.034845e-02  9.575556e-02  1.000000e+00
   endloop
 endfacet
 facet normal  0.000000e+00  0.000000e+00  1.000000e+00
   outer loop
     vertex  9.481942e-02  1.030013e-01  1.000000e+00
     vertex  9.575556e-02  8.034845e-02  1.000000e+00
     vertex  1.104797e-01  8.598978e-02  1.000000e+00
   endloop
 endfacet
 facet normal  0.000000e+00  0.000000e+00  1.000000e+00
   outer loop
     vertex  9.481942e-02  1.030013e-01  1.000000e+00
     vertex  8.034845e-02  9.575556e-02  1.000000e+00
     vertex  9.575556e-02  8.034845e-02  1.000000e+00
   endloop
 endfacet
endsolid
