solid 
 facet normal  0.000000e+00 -1.000000e+00  0.000000e+00
   outer loop
     vertex  9.800000e-01  0.000000e+00  0.000000e+00
     vertex  0.000000e+00  0.000000e+00  1.000000e+00
     vertex  0.000000e+00  0.000000e+00  0.000000e+00
   endloop
 endfacet
 facet normal  0.000000e+00 -1.000000e+00  0.000000e+00
   outer loop
     vertex  9.800000e-01  0.000000e+00  0.000000e+00
     vertex  9.800000e-01  0.000000e+00  1.000000e+00
     vertex  0.000000e+00  0.000000e+00  1.000000e+00
   endloop
 endfacet
 facet normal  1.782227e-01  9.839902e-01  0.000000e+00
   outer loop
     vertex -9.800000e-01  3.550000e-01  0.000000e+00
     vertex  9.800000e-01  0.000000e+00  1.000000e+00
     vertex  9.800000e-01  0.000000e+00  0.000000e+00
   endloop
 endfacet
 facet normal  1.782227e-01  9.839902e-01 -0.000000e+00
   outer loop
     vertex -9.800000e-01  3.550000e-01  0.000000e+00
     vertex -9.800000e-01  3.550000e-01  1.000000e+00
     vertex  9.800000e-01  0.000000e+00  1.000000e+00
   endloop
 endfacet
 facet normal -8.061169e-01 -5.917563e-01  0.000000e+00
   outer loop
     vertex -9.800000e-01  3.550000e-01  0.000000e+00
     vertex  0.000000e+00 -9.800000e-01  0.000000e+00
     vertex  0.000000e+00 -9.800000e-01  1.000000e+00
   endloop
 endfacet
 facet normal -8.061169e-01 -5.917563e-01  0.000000e+00
   outer loop
     vertex -9.800000e-01  3.550000e-01  0.000000e+00
     vertex  0.000000e+00 -9.800000e-01  1.000000e+00
     vertex -9.800000e-01  3.550000e-01  1.000000e+00
   endloop
 endfacet
 facet normal  1.000000e+00  0.000000e+00  0.000000e+00
   outer loop
     vertex  0.000000e+00 -9.800000e-01  0.000000e+00
     vertex  0.000000e+00  0.000000e+00  0.000000e+00
     vertex  0.000000e+00  0.000000e+00  1.000000e+00
   endloop
 endfacet
 facet normal  1.000000e+00  0.000000e+00  0.000000e+00
   outer loop
     vertex  0.000000e+00 -9.800000e-01  0.000000e+00
     vertex  0.000000e+00  0.000000e+00  1.000000e+00
     vertex  0.000000e+00 -9.800000e-01  1.000000e+00
   endloop
 endfacet
 facet normal -0.000000e+00 -0.000000e+00 -1.000000e+00
   outer loop
     vertex  0.000000e+00  0.000000e+00  0.000000e+00
     vertex  0.000000e+00 -9.800000e-01  0.000000e+00
     vertex -9.800000e-01  3.550000e-01  0.000000e+00
   endloop
 endfacet
 facet normal  0.000000e+00  0.000000e+00 -1.000000e+00
   outer loop
     vertex  9.800000e-01  0.000000e+00  0.000000e+00
     vertex  0.000000e+00  0.000000e+00  0.000000e+00
     vertex -9.800000e-01  3.550000e-01  0.000000e+00
   endloop
 endfacet
 facet normal  0.000000e+00  0.000000e+00  1.000000e+00
   outer loop
     vertex  0.000000e+00  0.000000e+00  1.000000e+00
     vertex -9.800000e-01  3.550000e-01  1.000000e+00
     vertex  0.000000e+00 -9.800000e-01  1.000000e+00
   endloop
 endfacet
 facet normal  0.000000e+00  0.000000e+00  1.000000e+00
   outer loop
     vertex  9.800000e-01  0.000000e+00  1.000000e+00
     vertex -9.800000e-01  3.550000e-01  1.000000e+00
     vertex  0.000000e+00  0.000000e+00  1.000000e+00
   endloop
 endfacet
endsolid
