solid 
 facet normal  9.974521e-01  7.133918e-02  0.000000e+00
   outer loop
     vertex  1.880661e-01  2.703982e-02  0.000000e+00
     vertex  1.900000e-01  0.000000e+00  1.000000e+00
     vertex  1.900000e-01  0.000000e+00  0.000000e+00
   endloop
 endfacet
 facet normal  9.974521e-01  7.133918e-02 -0.000000e+00
   outer loop
     vertex  1.880661e-01  2.703982e-02  0.000000e+00
     vertex  1.880661e-01  2.703982e-02  1.000000e+00
     vertex  1.900000e-01  0.000000e+00  1.000000e+00
   endloop
 endfacet
 facet normal  9.771469e-01  2.125653e-01 -0.000000e+00
   outer loop
     vertex  1.823037e-01  5.352919e-02  0.000000e+00
     vertex  1.823037e-01  5.352919e-02  1.000000e+00
     vertex  1.880661e-01  2.703982e-02  1.000000e+00
   endloop
 endfacet
 facet normal  9.771469e-01  2.125653e-01  0.000000e+00
   outer loop
     vertex  1.823037e-01  5.352919e-02  0.000000e+00
     vertex  1.880661e-01  2.703982e-02  1.000000e+00
     vertex  1.880661e-01  2.703982e-02  0.000000e+00
   endloop
 endfacet
 facet normal  9.369497e-01  3.494642e-01  0.000000e+00
   outer loop
     vertex  1.728301e-01  7.892885e-02  0.000000e+00
     vertex  1.823037e-01  5.352919e-02  1.000000e+00
     vertex  1.823037e-01  5.352919e-02  0.000000e+00
   endloop
 endfacet
 facet normal  9.369497e-01  3.494642e-01 -0.000000e+00
   outer loop
     vertex  1.728301e-01  7.892885e-02  0.000000e+00
     vertex  1.728301e-01  7.892885e-02  1.000000e+00
     vertex  1.823037e-01  5.352919e-02  1.000000e+00
   endloop
 endfacet
 facet normal  8.776790e-01  4.792490e-01 -0.000000e+00
   outer loop
     vertex  1.598382e-01  1.027218e-01  0.000000e+00
     vertex  1.598382e-01  1.027218e-01  1.000000e+00
     vertex  1.728301e-01  7.892885e-02  1.000000e+00
   endloop
 endfacet
 facet normal  8.776790e-01  4.792490e-01  0.000000e+00
   outer loop
     vertex  1.598382e-01  1.027218e-01  0.000000e+00
     vertex  1.728301e-01  7.892885e-02  1.000000e+00
     vertex  1.728301e-01  7.892885e-02  0.000000e+00
   endloop
 endfacet
 facet normal  8.005412e-01  5.992777e-01 -0.000000e+00
   outer loop
     vertex  1.435924e-01  1.244235e-01  0.000000e+00
     vertex  1.435924e-01  1.244235e-01  1.000000e+00
     vertex  1.598382e-01  1.027218e-01  1.000000e+00
   endloop
 endfacet
 facet normal  8.005412e-01  5.992777e-01  0.000000e+00
   outer loop
     vertex  1.435924e-01  1.244235e-01  0.000000e+00
     vertex  1.598382e-01  1.027218e-01  1.000000e+00
     vertex  1.598382e-01  1.027218e-01  0.000000e+00
   endloop
 endfacet
 facet normal  7.071068e-01  7.071068e-01 -0.000000e+00
   outer loop
     vertex  1.244235e-01  1.435924e-01  0.000000e+00
     vertex  1.244235e-01  1.435924e-01  1.000000e+00
     vertex  1.435924e-01  1.244235e-01  1.000000e+00
   endloop
 endfacet
 facet normal  7.071068e-01  7.071068e-01  0.000000e+00
   outer loop
     vertex  1.244235e-01  1.435924e-01  0.000000e+00
     vertex  1.435924e-01  1.244235e-01  1.000000e+00
     vertex  1.435924e-01  1.244235e-01  0.000000e+00
   endloop
 endfacet
 facet normal  5.992777e-01  8.005412e-01 -0.000000e+00
   outer loop
     vertex  1.027218e-01  1.598382e-01  0.000000e+00
     vertex  1.027218e-01  1.598382e-01  1.000000e+00
     vertex  1.244235e-01  1.435924e-01  1.000000e+00
   endloop
 endfacet
 facet normal  5.992777e-01  8.005412e-01  0.000000e+00
   outer loop
     vertex  1.027218e-01  1.598382e-01  0.000000e+00
     vertex  1.244235e-01  1.435924e-01  1.000000e+00
     vertex  1.244235e-01  1.435924e-01  0.000000e+00
   endloop
 endfacet
 facet normal  4.792490e-01  8.776790e-01 -0.000000e+00
   outer loop
     vertex  7.892885e-02  1.728301e-01  0.000000e+00
     vertex  7.892885e-02  1.728301e-01  1.000000e+00
     vertex  1.027218e-01  1.598382e-01  1.000000e+00
   endloop
 endfacet
 facet normal  4.792490e-01  8.776790e-01  0.000000e+00
   outer loop
     vertex  7.892885e-02  1.728301e-01  0.000000e+00
     vertex  1.027218e-01  1.598382e-01  1.000000e+00
     vertex  1.027218e-01  1.598382e-01  0.000000e+00
   endloop
 endfacet
 facet normal  3.494642e-01  9.369497e-01 -0.000000e+00
   outer loop
     vertex  5.352919e-02  1.823037e-01  0.000000e+00
     vertex  5.352919e-02  1.823037e-01  1.000000e+00
     vertex  7.892885e-02  1.728301e-01  1.000000e+00
   endloop
 endfacet
 facet normal  3.494642e-01  9.369497e-01  0.000000e+00
   outer loop
     vertex  5.352919e-02  1.823037e-01  0.000000e+00
     vertex  7.892885e-02  1.728301e-01  1.000000e+00
     vertex  7.892885e-02  1.728301e-01  0.000000e+00
   endloop
 endfacet
 facet normal  2.125653e-01  9.771469e-01 -0.000000e+00
   outer loop
     vertex  2.703982e-02  1.880661e-01  0.000000e+00
     vertex  2.703982e-02  1.880661e-01  1.000000e+00
     vertex  5.352919e-02  1.823037e-01  1.000000e+00
   endloop
 endfacet
 facet normal  2.125653e-01  9.771469e-01  0.000000e+00
   outer loop
     vertex  2.703982e-02  1.880661e-01  0.000000e+00
     vertex  5.352919e-02  1.823037e-01  1.000000e+00
     vertex  5.352919e-02  1.823037e-01  0.000000e+00
   endloop
 endfacet
 facet normal  7.133918e-02  9.974521e-01 -0.000000e+00
   outer loop
     vertex  5.382262e-17  1.900000e-01  0.000000e+00
     vertex  5.382262e-17  1.900000e-01  1.000000e+00
     vertex  2.703982e-02  1.880661e-01  1.000000e+00
   endloop
 endfacet
 facet normal  7.133918e-02  9.974521e-01  0.000000e+00
   outer loop
     vertex  5.382262e-17  1.900000e-01  0.000000e+00
     vertex  2.703982e-02  1.880661e-01  1.000000e+00
     vertex  2.703982e-02  1.880661e-01  0.000000e+00
   endloop
 endfacet
 facet normal -7.133918e-02  9.974521e-01  0.000000e+00
   outer loop
     vertex -2.703982e-02  1.880661e-01  0.000000e+00
     vertex -2.703982e-02  1.880661e-01  1.000000e+00
     vertex  5.382262e-17  1.900000e-01  1.000000e+00
   endloop
 endfacet
 facet normal -7.133918e-02  9.974521e-01  0.000000e+00
   outer loop
     vertex -2.703982e-02  1.880661e-01  0.000000e+00
     vertex  5.382262e-17  1.900000e-01  1.000000e+00
     vertex  5.382262e-17  1.900000e-01  0.000000e+00
   endloop
 endfacet
 facet normal -2.125653e-01  9.771469e-01  0.000000e+00
   outer loop
     vertex -5.352919e-02  1.823037e-01  0.000000e+00
     vertex -5.352919e-02  1.823037e-01  1.000000e+00
     vertex -2.703982e-02  1.880661e-01  1.000000e+00
   endloop
 endfacet
 facet normal -2.125653e-01  9.771469e-01  0.000000e+00
   outer loop
     vertex -5.352919e-02  1.823037e-01  0.000000e+00
     vertex -2.703982e-02  1.880661e-01  1.000000e+00
     vertex -2.703982e-02  1.880661e-01  0.000000e+00
   endloop
 endfacet
 facet normal -3.494642e-01  9.369497e-01  0.000000e+00
   outer loop
     vertex -7.892885e-02  1.728301e-01  0.000000e+00
     vertex -7.892885e-02  1.728301e-01  1.000000e+00
     vertex -5.352919e-02  1.823037e-01  1.000000e+00
   endloop
 endfacet
 facet normal -3.494642e-01  9.369497e-01  0.000000e+00
   outer loop
     vertex -7.892885e-02  1.728301e-01  0.000000e+00
     vertex -5.352919e-02  1.823037e-01  1.000000e+00
     vertex -5.352919e-02  1.823037e-01  0.000000e+00
   endloop
 endfacet
 facet normal -4.792490e-01  8.776790e-01  0.000000e+00
   outer loop
     vertex -1.027218e-01  1.598382e-01  0.000000e+00
     vertex -1.027218e-01  1.598382e-01  1.000000e+00
     vertex -7.892885e-02  1.728301e-01  1.000000e+00
   endloop
 endfacet
 facet normal -4.792490e-01  8.776790e-01  0.000000e+00
   outer loop
     vertex -1.027218e-01  1.598382e-01  0.000000e+00
     vertex -7.892885e-02  1.728301e-01  1.000000e+00
     vertex -7.892885e-02  1.728301e-01  0.000000e+00
   endloop
 endfacet
 facet normal -5.992777e-01  8.005412e-01  0.000000e+00
   outer loop
     vertex -1.244235e-01  1.435924e-01  0.000000e+00
     vertex -1.244235e-01  1.435924e-01  1.000000e+00
     vertex -1.027218e-01  1.598382e-01  1.000000e+00
   endloop
 endfacet
 facet normal -5.992777e-01  8.005412e-01  0.000000e+00
   outer loop
     vertex -1.244235e-01  1.435924e-01  0.000000e+00
     vertex -1.027218e-01  1.598382e-01  1.000000e+00
     vertex -1.027218e-01  1.598382e-01  0.000000e+00
   endloop
 endfacet
 facet normal -7.071068e-01  7.071068e-01  0.000000e+00
   outer loop
     vertex -1.435924e-01  1.244235e-01  0.000000e+00
     vertex -1.435924e-01  1.244235e-01  1.000000e+00
     vertex -1.244235e-01  1.435924e-01  1.000000e+00
   endloop
 endfacet
 facet normal -7.071068e-01  7.071068e-01  0.000000e+00
   outer loop
     vertex -1.435924e-01  1.244235e-01  0.000000e+00
     vertex -1.244235e-01  1.435924e-01  1.000000e+00
     vertex -1.244235e-01  1.435924e-01  0.000000e+00
   endloop
 endfacet
 facet normal -8.005412e-01  5.992777e-01  0.000000e+00
   outer loop
     vertex -1.598382e-01  1.027218e-01  0.000000e+00
     vertex -1.598382e-01  1.027218e-01  1.000000e+00
     vertex -1.435924e-01  1.244235e-01  1.000000e+00
   endloop
 endfacet
 facet normal -8.005412e-01  5.992777e-01  0.000000e+00
   outer loop
     vertex -1.598382e-01  1.027218e-01  0.000000e+00
     vertex -1.435924e-01  1.244235e-01  1.000000e+00
     vertex -1.435924e-01  1.244235e-01  0.000000e+00
   endloop
 endfacet
 facet normal -8.776790e-01  4.792490e-01  0.000000e+00
   outer loop
     vertex -1.728301e-01  7.892885e-02  0.000000e+00
     vertex -1.728301e-01  7.892885e-02  1.000000e+00
     vertex -1.598382e-01  1.027218e-01  1.000000e+00
   endloop
 endfacet
 facet normal -8.776790e-01  4.792490e-01  0.000000e+00
   outer loop
     vertex -1.728301e-01  7.892885e-02  0.000000e+00
     vertex -1.598382e-01  1.027218e-01  1.000000e+00
     vertex -1.598382e-01  1.027218e-01  0.000000e+00
   endloop
 endfacet
 facet normal -9.369497e-01  3.494642e-01  0.000000e+00
   outer loop
     vertex -1.823037e-01  5.352919e-02  0.000000e+00
     vertex -1.823037e-01  5.352919e-02  1.000000e+00
     vertex -1.728301e-01  7.892885e-02  1.000000e+00
   endloop
 endfacet
 facet normal -9.369497e-01  3.494642e-01  0.000000e+00
   outer loop
     vertex -1.823037e-01  5.352919e-02  0.000000e+00
     vertex -1.728301e-01  7.892885e-02  1.000000e+00
     vertex -1.728301e-01  7.892885e-02  0.000000e+00
   endloop
 endfacet
 facet normal -9.771469e-01  2.125653e-01  0.000000e+00
   outer loop
     vertex -1.880661e-01  2.703982e-02  0.000000e+00
     vertex -1.880661e-01  2.703982e-02  1.000000e+00
     vertex -1.823037e-01  5.352919e-02  1.000000e+00
   endloop
 endfacet
 facet normal -9.771469e-01  2.125653e-01  0.000000e+00
   outer loop
     vertex -1.880661e-01  2.703982e-02  0.000000e+00
     vertex -1.823037e-01  5.352919e-02  1.000000e+00
     vertex -1.823037e-01  5.352919e-02  0.000000e+00
   endloop
 endfacet
 facet normal -9.974521e-01  7.133918e-02  0.000000e+00
   outer loop
     vertex -1.900000e-01  1.920222e-16  0.000000e+00
     vertex -1.900000e-01  1.920222e-16  1.000000e+00
     vertex -1.880661e-01  2.703982e-02  1.000000e+00
   endloop
 endfacet
 facet normal -9.974521e-01  7.133918e-02  0.000000e+00
   outer loop
     vertex -1.900000e-01  1.920222e-16  0.000000e+00
     vertex -1.880661e-01  2.703982e-02  1.000000e+00
     vertex -1.880661e-01  2.703982e-02  0.000000e+00
   endloop
 endfacet
 facet normal -9.974521e-01 -7.133918e-02  0.000000e+00
   outer loop
     vertex -1.880661e-01 -2.703982e-02  0.000000e+00
     vertex -1.880661e-01 -2.703982e-02  1.000000e+00
     vertex -1.900000e-01  1.920222e-16  1.000000e+00
   endloop
 endfacet
 facet normal -9.974521e-01 -7.133918e-02  0.000000e+00
   outer loop
     vertex -1.880661e-01 -2.703982e-02  0.000000e+00
     vertex -1.900000e-01  1.920222e-16  1.000000e+00
     vertex -1.900000e-01  1.920222e-16  0.000000e+00
   endloop
 endfacet
 facet normal -9.771469e-01 -2.125653e-01  0.000000e+00
   outer loop
     vertex -1.823037e-01 -5.352919e-02  0.000000e+00
     vertex -1.823037e-01 -5.352919e-02  1.000000e+00
     vertex -1.880661e-01 -2.703982e-02  1.000000e+00
   endloop
 endfacet
 facet normal -9.771469e-01 -2.125653e-01  0.000000e+00
   outer loop
     vertex -1.823037e-01 -5.352919e-02  0.000000e+00
     vertex -1.880661e-01 -2.703982e-02  1.000000e+00
     vertex -1.880661e-01 -2.703982e-02  0.000000e+00
   endloop
 endfacet
 facet normal -9.369497e-01 -3.494642e-01  0.000000e+00
   outer loop
     vertex -1.728301e-01 -7.892885e-02  0.000000e+00
     vertex -1.728301e-01 -7.892885e-02  1.000000e+00
     vertex -1.823037e-01 -5.352919e-02  1.000000e+00
   endloop
 endfacet
 facet normal -9.369497e-01 -3.494642e-01  0.000000e+00
   outer loop
     vertex -1.728301e-01 -7.892885e-02  0.000000e+00
     vertex -1.823037e-01 -5.352919e-02  1.000000e+00
     vertex -1.823037e-01 -5.352919e-02  0.000000e+00
   endloop
 endfacet
 facet normal -8.776790e-01 -4.792490e-01  0.000000e+00
   outer loop
     vertex -1.598382e-01 -1.027218e-01  0.000000e+00
     vertex -1.598382e-01 -1.027218e-01  1.000000e+00
     vertex -1.728301e-01 -7.892885e-02  1.000000e+00
   endloop
 endfacet
 facet normal -8.776790e-01 -4.792490e-01  0.000000e+00
   outer loop
     vertex -1.598382e-01 -1.027218e-01  0.000000e+00
     vertex -1.728301e-01 -7.892885e-02  1.000000e+00
     vertex -1.728301e-01 -7.892885e-02  0.000000e+00
   endloop
 endfacet
 facet normal -8.005412e-01 -5.992777e-01  0.000000e+00
   outer loop
     vertex -1.435924e-01 -1.244235e-01  0.000000e+00
     vertex -1.435924e-01 -1.244235e-01  1.000000e+00
     vertex -1.598382e-01 -1.027218e-01  1.000000e+00
   endloop
 endfacet
 facet normal -8.005412e-01 -5.992777e-01  0.000000e+00
   outer loop
     vertex -1.435924e-01 -1.244235e-01  0.000000e+00
     vertex -1.598382e-01 -1.027218e-01  1.000000e+00
     vertex -1.598382e-01 -1.027218e-01  0.000000e+00
   endloop
 endfacet
 facet normal -7.071068e-01 -7.071068e-01  0.000000e+00
   outer loop
     vertex -1.244235e-01 -1.435924e-01  0.000000e+00
     vertex -1.435924e-01 -1.244235e-01  1.000000e+00
     vertex -1.435924e-01 -1.244235e-01  0.000000e+00
   endloop
 endfacet
 facet normal -7.071068e-01 -7.071068e-01  0.000000e+00
   outer loop
     vertex -1.244235e-01 -1.435924e-01  0.000000e+00
     vertex -1.244235e-01 -1.435924e-01  1.000000e+00
     vertex -1.435924e-01 -1.244235e-01  1.000000e+00
   endloop
 endfacet
 facet normal -5.992777e-01 -8.005412e-01  0.000000e+00
   outer loop
     vertex -1.027218e-01 -1.598382e-01  0.000000e+00
     vertex -1.244235e-01 -1.435924e-01  1.000000e+00
     vertex -1.244235e-01 -1.435924e-01  0.000000e+00
   endloop
 endfacet
 facet normal -5.992777e-01 -8.005412e-01  0.000000e+00
   outer loop
     vertex -1.027218e-01 -1.598382e-01  0.000000e+00
     vertex -1.027218e-01 -1.598382e-01  1.000000e+00
     vertex -1.244235e-01 -1.435924e-01  1.000000e+00
   endloop
 endfacet
 facet normal -4.792490e-01 -8.776790e-01  0.000000e+00
   outer loop
     vertex -7.892885e-02 -1.728301e-01  0.000000e+00
     vertex -1.027218e-01 -1.598382e-01  1.000000e+00
     vertex -1.027218e-01 -1.598382e-01  0.000000e+00
   endloop
 endfacet
 facet normal -4.792490e-01 -8.776790e-01  0.000000e+00
   outer loop
     vertex -7.892885e-02 -1.728301e-01  0.000000e+00
     vertex -7.892885e-02 -1.728301e-01  1.000000e+00
     vertex -1.027218e-01 -1.598382e-01  1.000000e+00
   endloop
 endfacet
 facet normal -3.494642e-01 -9.369497e-01  0.000000e+00
   outer loop
     vertex -5.352919e-02 -1.823037e-01  0.000000e+00
     vertex -7.892885e-02 -1.728301e-01  1.000000e+00
     vertex -7.892885e-02 -1.728301e-01  0.000000e+00
   endloop
 endfacet
 facet normal -3.494642e-01 -9.369497e-01  0.000000e+00
   outer loop
     vertex -5.352919e-02 -1.823037e-01  0.000000e+00
     vertex -5.352919e-02 -1.823037e-01  1.000000e+00
     vertex -7.892885e-02 -1.728301e-01  1.000000e+00
   endloop
 endfacet
 facet normal -2.125653e-01 -9.771469e-01  0.000000e+00
   outer loop
     vertex -2.703982e-02 -1.880661e-01  0.000000e+00
     vertex -5.352919e-02 -1.823037e-01  1.000000e+00
     vertex -5.352919e-02 -1.823037e-01  0.000000e+00
   endloop
 endfacet
 facet normal -2.125653e-01 -9.771469e-01  0.000000e+00
   outer loop
     vertex -2.703982e-02 -1.880661e-01  0.000000e+00
     vertex -2.703982e-02 -1.880661e-01  1.000000e+00
     vertex -5.352919e-02 -1.823037e-01  1.000000e+00
   endloop
 endfacet
 facet normal -7.133918e-02 -9.974521e-01  0.000000e+00
   outer loop
     vertex -3.724102e-16 -1.900000e-01  0.000000e+00
     vertex -2.703982e-02 -1.880661e-01  1.000000e+00
     vertex -2.703982e-02 -1.880661e-01  0.000000e+00
   endloop
 endfacet
 facet normal -7.133918e-02 -9.974521e-01  0.000000e+00
   outer loop
     vertex -3.724102e-16 -1.900000e-01  0.000000e+00
     vertex -3.724102e-16 -1.900000e-01  1.000000e+00
     vertex -2.703982e-02 -1.880661e-01  1.000000e+00
   endloop
 endfacet
 facet normal  7.133918e-02 -9.974521e-01  0.000000e+00
   outer loop
     vertex  2.703982e-02 -1.880661e-01  0.000000e+00
     vertex -3.724102e-16 -1.900000e-01  1.000000e+00
     vertex -3.724102e-16 -1.900000e-01  0.000000e+00
   endloop
 endfacet
 facet normal  7.133918e-02 -9.974521e-01  0.000000e+00
   outer loop
     vertex  2.703982e-02 -1.880661e-01  0.000000e+00
     vertex  2.703982e-02 -1.880661e-01  1.000000e+00
     vertex -3.724102e-16 -1.900000e-01  1.000000e+00
   endloop
 endfacet
 facet normal  2.125653e-01 -9.771469e-01  0.000000e+00
   outer loop
     vertex  5.352919e-02 -1.823037e-01  0.000000e+00
     vertex  2.703982e-02 -1.880661e-01  1.000000e+00
     vertex  2.703982e-02 -1.880661e-01  0.000000e+00
   endloop
 endfacet
 facet normal  2.125653e-01 -9.771469e-01  0.000000e+00
   outer loop
     vertex  5.352919e-02 -1.823037e-01  0.000000e+00
     vertex  5.352919e-02 -1.823037e-01  1.000000e+00
     vertex  2.703982e-02 -1.880661e-01  1.000000e+00
   endloop
 endfacet
 facet normal  3.494642e-01 -9.369497e-01  0.000000e+00
   outer loop
     vertex  7.892885e-02 -1.728301e-01  0.000000e+00
     vertex  5.352919e-02 -1.823037e-01  1.000000e+00
     vertex  5.352919e-02 -1.823037e-01  0.000000e+00
   endloop
 endfacet
 facet normal  3.494642e-01 -9.369497e-01  0.000000e+00
   outer loop
     vertex  7.892885e-02 -1.728301e-01  0.000000e+00
     vertex  7.892885e-02 -1.728301e-01  1.000000e+00
     vertex  5.352919e-02 -1.823037e-01  1.000000e+00
   endloop
 endfacet
 facet normal  4.792490e-01 -8.776790e-01  0.000000e+00
   outer loop
     vertex  1.027218e-01 -1.598382e-01  0.000000e+00
     vertex  7.892885e-02 -1.728301e-01  1.000000e+00
     vertex  7.892885e-02 -1.728301e-01  0.000000e+00
   endloop
 endfacet
 facet normal  4.792490e-01 -8.776790e-01  0.000000e+00
   outer loop
     vertex  1.027218e-01 -1.598382e-01  0.000000e+00
     vertex  1.027218e-01 -1.598382e-01  1.000000e+00
     vertex  7.892885e-02 -1.728301e-01  1.000000e+00
   endloop
 endfacet
 facet normal  5.992777e-01 -8.005412e-01  0.000000e+00
   outer loop
     vertex  1.244235e-01 -1.435924e-01  0.000000e+00
     vertex  1.244235e-01 -1.435924e-01  1.000000e+00
     vertex  1.027218e-01 -1.598382e-01  1.000000e+00
   endloop
 endfacet
 facet normal  5.992777e-01 -8.005412e-01  0.000000e+00
   outer loop
     vertex  1.244235e-01 -1.435924e-01  0.000000e+00
     vertex  1.027218e-01 -1.598382e-01  1.000000e+00
     vertex  1.027218e-01 -1.598382e-01  0.000000e+00
   endloop
 endfacet
 facet normal  7.071068e-01 -7.071068e-01  0.000000e+00
   outer loop
     vertex  1.435924e-01 -1.244235e-01  0.000000e+00
     vertex  1.435924e-01 -1.244235e-01  1.000000e+00
     vertex  1.244235e-01 -1.435924e-01  1.000000e+00
   endloop
 endfacet
 facet normal  7.071068e-01 -7.071068e-01  0.000000e+00
   outer loop
     vertex  1.435924e-01 -1.244235e-01  0.000000e+00
     vertex  1.244235e-01 -1.435924e-01  1.000000e+00
     vertex  1.244235e-01 -1.435924e-01  0.000000e+00
   endloop
 endfacet
 facet normal  8.005412e-01 -5.992777e-01  0.000000e+00
   outer loop
     vertex  1.598382e-01 -1.027218e-01  0.000000e+00
     vertex  1.598382e-01 -1.027218e-01  1.000000e+00
     vertex  1.435924e-01 -1.244235e-01  1.000000e+00
   endloop
 endfacet
 facet normal  8.005412e-01 -5.992777e-01  0.000000e+00
   outer loop
     vertex  1.598382e-01 -1.027218e-01  0.000000e+00
     vertex  1.435924e-01 -1.244235e-01  1.000000e+00
     vertex  1.435924e-01 -1.244235e-01  0.000000e+00
   endloop
 endfacet
 facet normal  8.776790e-01 -4.792490e-01  0.000000e+00
   outer loop
     vertex  1.728301e-01 -7.892885e-02  0.000000e+00
     vertex  1.728301e-01 -7.892885e-02  1.000000e+00
     vertex  1.598382e-01 -1.027218e-01  1.000000e+00
   endloop
 endfacet
 facet normal  8.776790e-01 -4.792490e-01  0.000000e+00
   outer loop
     vertex  1.728301e-01 -7.892885e-02  0.000000e+00
     vertex  1.598382e-01 -1.027218e-01  1.000000e+00
     vertex  1.598382e-01 -1.027218e-01  0.000000e+00
   endloop
 endfacet
 facet normal  9.369497e-01 -3.494642e-01  0.000000e+00
   outer loop
     vertex  1.823037e-01 -5.352919e-02  0.000000e+00
     vertex  1.823037e-01 -5.352919e-02  1.000000e+00
     vertex  1.728301e-01 -7.892885e-02  1.000000e+00
   endloop
 endfacet
 facet normal  9.369497e-01 -3.494642e-01  0.000000e+00
   outer loop
     vertex  1.823037e-01 -5.352919e-02  0.000000e+00
     vertex  1.728301e-01 -7.892885e-02  1.000000e+00
     vertex  1.728301e-01 -7.892885e-02  0.000000e+00
   endloop
 endfacet
 facet normal  9.771469e-01 -2.125653e-01  0.000000e+00
   outer loop
     vertex  1.880661e-01 -2.703982e-02  0.000000e+00
     vertex  1.880661e-01 -2.703982e-02  1.000000e+00
     vertex  1.823037e-01 -5.352919e-02  1.000000e+00
   endloop
 endfacet
 facet normal  9.771469e-01 -2.125653e-01  0.000000e+00
   outer loop
     vertex  1.880661e-01 -2.703982e-02  0.000000e+00
     vertex  1.823037e-01 -5.352919e-02  1.000000e+00
     vertex  1.823037e-01 -5.352919e-02  0.000000e+00
   endloop
 endfacet
 facet normal  9.974521e-01 -7.133918e-02  0.000000e+00
   outer loop
     vertex  1.900000e-01  0.000000e+00  0.000000e+00
     vertex  1.900000e-01  0.000000e+00  1.000000e+00
     vertex  1.880661e-01 -2.703982e-02  1.000000e+00
   endloop
 endfacet
 facet normal  9.974521e-01 -7.133918e-02  0.000000e+00
   outer loop
     vertex  1.900000e-01  0.000000e+00  0.000000e+00
     vertex  1.880661e-01 -2.703982e-02  1.000000e+00
     vertex  1.880661e-01 -2.703982e-02  0.000000e+00
   endloop
 endfacet
 facet normal -9.973323e-01 -7.299531e-02  0.000000e+00
   outer loop
     vertex  1.830285e-01  2.693622e-02  0.000000e+00
     vertex  1.850000e-01  0.000000e+00  0.000000e+00
     vertex  1.850000e-01  0.000000e+00  1.000000e+00
   endloop
 endfacet
 facet normal -9.973323e-01 -7.299531e-02  0.000000e+00
   outer loop
     vertex  1.830285e-01  2.693622e-02  0.000000e+00
     vertex  1.850000e-01  0.000000e+00  1.000000e+00
     vertex  1.830285e-01  2.693622e-02  1.000000e+00
   endloop
 endfacet
 facet normal -9.760759e-01 -2.174302e-01  0.000000e+00
   outer loop
     vertex  1.771561e-01  5.329833e-02  0.000000e+00
     vertex  1.830285e-01  2.693622e-02  1.000000e+00
     vertex  1.771561e-01  5.329833e-02  1.000000e+00
   endloop
 endfacet
 facet normal -9.760759e-01 -2.174302e-01  0.000000e+00
   outer loop
     vertex  1.771561e-01  5.329833e-02  0.000000e+00
     vertex  1.830285e-01  2.693622e-02  0.000000e+00
     vertex  1.830285e-01  2.693622e-02  1.000000e+00
   endloop
 endfacet
 facet normal -9.340161e-01 -3.572309e-01  0.000000e+00
   outer loop
     vertex  1.675079e-01  7.852449e-02  0.000000e+00
     vertex  1.771561e-01  5.329833e-02  1.000000e+00
     vertex  1.675079e-01  7.852449e-02  1.000000e+00
   endloop
 endfacet
 facet normal -9.340161e-01 -3.572309e-01  0.000000e+00
   outer loop
     vertex  1.675079e-01  7.852449e-02  0.000000e+00
     vertex  1.771561e-01  5.329833e-02  0.000000e+00
     vertex  1.771561e-01  5.329833e-02  1.000000e+00
   endloop
 endfacet
 facet normal -8.720494e-01 -4.894178e-01  0.000000e+00
   outer loop
     vertex  1.542896e-01  1.020770e-01  0.000000e+00
     vertex  1.675079e-01  7.852449e-02  1.000000e+00
     vertex  1.542896e-01  1.020770e-01  1.000000e+00
   endloop
 endfacet
 facet normal -8.720494e-01 -4.894178e-01  0.000000e+00
   outer loop
     vertex  1.542896e-01  1.020770e-01  0.000000e+00
     vertex  1.675079e-01  7.852449e-02  0.000000e+00
     vertex  1.675079e-01  7.852449e-02  1.000000e+00
   endloop
 endfacet
 facet normal -7.914965e-01 -6.111737e-01  0.000000e+00
   outer loop
     vertex  1.377829e-01  1.234540e-01  0.000000e+00
     vertex  1.542896e-01  1.020770e-01  1.000000e+00
     vertex  1.377829e-01  1.234540e-01  1.000000e+00
   endloop
 endfacet
 facet normal -7.914965e-01 -6.111737e-01  0.000000e+00
   outer loop
     vertex  1.377829e-01  1.234540e-01  0.000000e+00
     vertex  1.542896e-01  1.020770e-01  0.000000e+00
     vertex  1.542896e-01  1.020770e-01  1.000000e+00
   endloop
 endfacet
 facet normal -6.940742e-01 -7.199035e-01  0.000000e+00
   outer loop
     vertex  1.183395e-01  1.421997e-01  0.000000e+00
     vertex  1.377829e-01  1.234540e-01  1.000000e+00
     vertex  1.183395e-01  1.421997e-01  1.000000e+00
   endloop
 endfacet
 facet normal -6.940742e-01 -7.199035e-01  0.000000e+00
   outer loop
     vertex  1.183395e-01  1.421997e-01  0.000000e+00
     vertex  1.377829e-01  1.234540e-01  0.000000e+00
     vertex  1.377829e-01  1.234540e-01  1.000000e+00
   endloop
 endfacet
 facet normal -5.818589e-01 -8.132897e-01  0.000000e+00
   outer loop
     vertex  9.637396e-02  1.579147e-01  0.000000e+00
     vertex  1.183395e-01  1.421997e-01  1.000000e+00
     vertex  9.637396e-02  1.579147e-01  1.000000e+00
   endloop
 endfacet
 facet normal -5.818589e-01 -8.132897e-01  0.000000e+00
   outer loop
     vertex  9.637396e-02  1.579147e-01  0.000000e+00
     vertex  1.183395e-01  1.421997e-01  0.000000e+00
     vertex  1.183395e-01  1.421997e-01  1.000000e+00
   endloop
 endfacet
 facet normal -4.572423e-01 -8.893421e-01  0.000000e+00
   outer loop
     vertex  7.235437e-02  1.702640e-01  0.000000e+00
     vertex  9.637396e-02  1.579147e-01  1.000000e+00
     vertex  7.235437e-02  1.702640e-01  1.000000e+00
   endloop
 endfacet
 facet normal -4.572423e-01 -8.893421e-01  0.000000e+00
   outer loop
     vertex  7.235437e-02  1.702640e-01  0.000000e+00
     vertex  9.637396e-02  1.579147e-01  0.000000e+00
     vertex  9.637396e-02  1.579147e-01  1.000000e+00
   endloop
 endfacet
 facet normal -3.228804e-01 -9.464398e-01  0.000000e+00
   outer loop
     vertex  4.679268e-02  1.789845e-01  0.000000e+00
     vertex  7.235437e-02  1.702640e-01  1.000000e+00
     vertex  4.679268e-02  1.789845e-01  1.000000e+00
   endloop
 endfacet
 facet normal -3.228804e-01 -9.464398e-01  0.000000e+00
   outer loop
     vertex  4.679268e-02  1.789845e-01  0.000000e+00
     vertex  7.235437e-02  1.702640e-01  0.000000e+00
     vertex  7.235437e-02  1.702640e-01  1.000000e+00
   endloop
 endfacet
 facet normal -1.816369e-01 -9.833657e-01  0.000000e+00
   outer loop
     vertex  2.023367e-02  1.838902e-01  0.000000e+00
     vertex  4.679268e-02  1.789845e-01  1.000000e+00
     vertex  2.023367e-02  1.838902e-01  1.000000e+00
   endloop
 endfacet
 facet normal -1.816369e-01 -9.833657e-01  0.000000e+00
   outer loop
     vertex  2.023367e-02  1.838902e-01  0.000000e+00
     vertex  4.679268e-02  1.789845e-01  0.000000e+00
     vertex  4.679268e-02  1.789845e-01  1.000000e+00
   endloop
 endfacet
 facet normal -3.652202e-02 -9.993328e-01  0.000000e+00
   outer loop
     vertex -6.756574e-03  1.848766e-01  0.000000e+00
     vertex  2.023367e-02  1.838902e-01  1.000000e+00
     vertex -6.756574e-03  1.848766e-01  1.000000e+00
   endloop
 endfacet
 facet normal -3.652202e-02 -9.993328e-01  0.000000e+00
   outer loop
     vertex -6.756574e-03  1.848766e-01  0.000000e+00
     vertex  2.023367e-02  1.838902e-01  0.000000e+00
     vertex  2.023367e-02  1.838902e-01  1.000000e+00
   endloop
 endfacet
 facet normal  1.093712e-01 -9.940010e-01  0.000000e+00
   outer loop
     vertex -3.360282e-02  1.819227e-01  0.000000e+00
     vertex -6.756574e-03  1.848766e-01  1.000000e+00
     vertex -3.360282e-02  1.819227e-01  1.000000e+00
   endloop
 endfacet
 facet normal  1.093712e-01 -9.940010e-01  0.000000e+00
   outer loop
     vertex -3.360282e-02  1.819227e-01  0.000000e+00
     vertex -6.756574e-03  1.848766e-01  0.000000e+00
     vertex -6.756574e-03  1.848766e-01  1.000000e+00
   endloop
 endfacet
 facet normal  2.529334e-01 -9.674837e-01  0.000000e+00
   outer loop
     vertex -5.973287e-02  1.750914e-01  0.000000e+00
     vertex -3.360282e-02  1.819227e-01  1.000000e+00
     vertex -5.973287e-02  1.750914e-01  1.000000e+00
   endloop
 endfacet
 facet normal  2.529334e-01 -9.674837e-01  0.000000e+00
   outer loop
     vertex -5.973287e-02  1.750914e-01  0.000000e+00
     vertex -3.360282e-02  1.819227e-01  0.000000e+00
     vertex -3.360282e-02  1.819227e-01  1.000000e+00
   endloop
 endfacet
 facet normal  3.911047e-01 -9.203462e-01  0.000000e+00
   outer loop
     vertex -8.458983e-02  1.645283e-01  0.000000e+00
     vertex -5.973287e-02  1.750914e-01  1.000000e+00
     vertex -8.458983e-02  1.645283e-01  1.000000e+00
   endloop
 endfacet
 facet normal  3.911047e-01 -9.203462e-01  0.000000e+00
   outer loop
     vertex -8.458983e-02  1.645283e-01  0.000000e+00
     vertex -5.973287e-02  1.750914e-01  0.000000e+00
     vertex -5.973287e-02  1.750914e-01  1.000000e+00
   endloop
 endfacet
 facet normal  5.209403e-01 -8.535931e-01  0.000000e+00
   outer loop
     vertex -1.076439e-01  1.504586e-01  0.000000e+00
     vertex -8.458983e-02  1.645283e-01  1.000000e+00
     vertex -1.076439e-01  1.504586e-01  1.000000e+00
   endloop
 endfacet
 facet normal  5.209403e-01 -8.535931e-01  0.000000e+00
   outer loop
     vertex -1.076439e-01  1.504586e-01  0.000000e+00
     vertex -8.458983e-02  1.645283e-01  0.000000e+00
     vertex -8.458983e-02  1.645283e-01  1.000000e+00
   endloop
 endfacet
 facet normal  6.396730e-01 -7.686471e-01  0.000000e+00
   outer loop
     vertex -1.284037e-01  1.331821e-01  0.000000e+00
     vertex -1.076439e-01  1.504586e-01  1.000000e+00
     vertex -1.284037e-01  1.331821e-01  1.000000e+00
   endloop
 endfacet
 facet normal  6.396730e-01 -7.686471e-01  0.000000e+00
   outer loop
     vertex -1.284037e-01  1.331821e-01  0.000000e+00
     vertex -1.076439e-01  1.504586e-01  0.000000e+00
     vertex -1.076439e-01  1.504586e-01  1.000000e+00
   endloop
 endfacet
 facet normal  7.447722e-01 -6.673188e-01  0.000000e+00
   outer loop
     vertex -1.464269e-01  1.130671e-01  0.000000e+00
     vertex -1.284037e-01  1.331821e-01  1.000000e+00
     vertex -1.464269e-01  1.130671e-01  1.000000e+00
   endloop
 endfacet
 facet normal  7.447722e-01 -6.673188e-01  0.000000e+00
   outer loop
     vertex -1.464269e-01  1.130671e-01  0.000000e+00
     vertex -1.284037e-01  1.331821e-01  0.000000e+00
     vertex -1.284037e-01  1.331821e-01  1.000000e+00
   endloop
 endfacet
 facet normal  8.339978e-01 -5.517677e-01  0.000000e+00
   outer loop
     vertex -1.613291e-01  9.054230e-02  0.000000e+00
     vertex -1.464269e-01  1.130671e-01  1.000000e+00
     vertex -1.613291e-01  9.054230e-02  1.000000e+00
   endloop
 endfacet
 facet normal  9.054482e-01 -4.244567e-01  0.000000e+00
   outer loop
     vertex -1.613291e-01  9.054230e-02  0.000000e+00
     vertex -1.613291e-01  9.054230e-02  1.000000e+00
     vertex -1.727930e-01  6.608771e-02  1.000000e+00
   endloop
 endfacet
 facet normal  8.339978e-01 -5.517677e-01  0.000000e+00
   outer loop
     vertex -1.613291e-01  9.054230e-02  0.000000e+00
     vertex -1.464269e-01  1.130671e-01  0.000000e+00
     vertex -1.464269e-01  1.130671e-01  1.000000e+00
   endloop
 endfacet
 facet normal  9.054482e-01 -4.244567e-01  0.000000e+00
   outer loop
     vertex -1.727930e-01  6.608771e-02  0.000000e+00
     vertex -1.613291e-01  9.054230e-02  0.000000e+00
     vertex -1.727930e-01  6.608771e-02  1.000000e+00
   endloop
 endfacet
 facet normal  9.576006e-01 -2.880991e-01  0.000000e+00
   outer loop
     vertex -1.805740e-01  4.022458e-02  0.000000e+00
     vertex -1.727930e-01  6.608771e-02  1.000000e+00
     vertex -1.805740e-01  4.022458e-02  1.000000e+00
   endloop
 endfacet
 facet normal  9.576006e-01 -2.880991e-01  0.000000e+00
   outer loop
     vertex -1.805740e-01  4.022458e-02  0.000000e+00
     vertex -1.727930e-01  6.608771e-02  0.000000e+00
     vertex -1.727930e-01  6.608771e-02  1.000000e+00
   endloop
 endfacet
 facet normal  9.893434e-01 -1.456012e-01  0.000000e+00
   outer loop
     vertex -1.845065e-01  1.350413e-02  0.000000e+00
     vertex -1.805740e-01  4.022458e-02  1.000000e+00
     vertex -1.845065e-01  1.350413e-02  1.000000e+00
   endloop
 endfacet
 facet normal  9.893434e-01 -1.456012e-01  0.000000e+00
   outer loop
     vertex -1.845065e-01  1.350413e-02  0.000000e+00
     vertex -1.805740e-01  4.022458e-02  0.000000e+00
     vertex -1.805740e-01  4.022458e-02  1.000000e+00
   endloop
 endfacet
 facet normal  1.000000e+00 -1.027670e-15  0.000000e+00
   outer loop
     vertex -1.845065e-01 -1.350413e-02  0.000000e+00
     vertex -1.845065e-01  1.350413e-02  1.000000e+00
     vertex -1.845065e-01 -1.350413e-02  1.000000e+00
   endloop
 endfacet
 facet normal  1.000000e+00 -1.027670e-15  0.000000e+00
   outer loop
     vertex -1.845065e-01 -1.350413e-02  0.000000e+00
     vertex -1.845065e-01  1.350413e-02  0.000000e+00
     vertex -1.845065e-01  1.350413e-02  1.000000e+00
   endloop
 endfacet
 facet normal  9.893434e-01  1.456012e-01 -0.000000e+00
   outer loop
     vertex -1.805740e-01 -4.022458e-02  0.000000e+00
     vertex -1.845065e-01 -1.350413e-02  1.000000e+00
     vertex -1.805740e-01 -4.022458e-02  1.000000e+00
   endloop
 endfacet
 facet normal  9.893434e-01  1.456012e-01  0.000000e+00
   outer loop
     vertex -1.805740e-01 -4.022458e-02  0.000000e+00
     vertex -1.845065e-01 -1.350413e-02  0.000000e+00
     vertex -1.845065e-01 -1.350413e-02  1.000000e+00
   endloop
 endfacet
 facet normal  9.576006e-01  2.880991e-01 -0.000000e+00
   outer loop
     vertex -1.727930e-01 -6.608771e-02  0.000000e+00
     vertex -1.805740e-01 -4.022458e-02  1.000000e+00
     vertex -1.727930e-01 -6.608771e-02  1.000000e+00
   endloop
 endfacet
 facet normal  9.576006e-01  2.880991e-01  0.000000e+00
   outer loop
     vertex -1.727930e-01 -6.608771e-02  0.000000e+00
     vertex -1.805740e-01 -4.022458e-02  0.000000e+00
     vertex -1.805740e-01 -4.022458e-02  1.000000e+00
   endloop
 endfacet
 facet normal  9.054482e-01  4.244567e-01 -0.000000e+00
   outer loop
     vertex -1.613291e-01 -9.054230e-02  0.000000e+00
     vertex -1.727930e-01 -6.608771e-02  1.000000e+00
     vertex -1.613291e-01 -9.054230e-02  1.000000e+00
   endloop
 endfacet
 facet normal  9.054482e-01  4.244567e-01  0.000000e+00
   outer loop
     vertex -1.613291e-01 -9.054230e-02  0.000000e+00
     vertex -1.727930e-01 -6.608771e-02  0.000000e+00
     vertex -1.727930e-01 -6.608771e-02  1.000000e+00
   endloop
 endfacet
 facet normal  8.339978e-01  5.517677e-01 -0.000000e+00
   outer loop
     vertex -1.464269e-01 -1.130671e-01  0.000000e+00
     vertex -1.613291e-01 -9.054230e-02  1.000000e+00
     vertex -1.464269e-01 -1.130671e-01  1.000000e+00
   endloop
 endfacet
 facet normal  8.339978e-01  5.517677e-01  0.000000e+00
   outer loop
     vertex -1.464269e-01 -1.130671e-01  0.000000e+00
     vertex -1.613291e-01 -9.054230e-02  0.000000e+00
     vertex -1.613291e-01 -9.054230e-02  1.000000e+00
   endloop
 endfacet
 facet normal  7.447722e-01  6.673188e-01 -0.000000e+00
   outer loop
     vertex -1.284037e-01 -1.331821e-01  0.000000e+00
     vertex -1.464269e-01 -1.130671e-01  1.000000e+00
     vertex -1.284037e-01 -1.331821e-01  1.000000e+00
   endloop
 endfacet
 facet normal  7.447722e-01  6.673188e-01  0.000000e+00
   outer loop
     vertex -1.284037e-01 -1.331821e-01  0.000000e+00
     vertex -1.464269e-01 -1.130671e-01  0.000000e+00
     vertex -1.464269e-01 -1.130671e-01  1.000000e+00
   endloop
 endfacet
 facet normal  6.396730e-01  7.686471e-01  0.000000e+00
   outer loop
     vertex -1.076439e-01 -1.504586e-01  0.000000e+00
     vertex -1.284037e-01 -1.331821e-01  0.000000e+00
     vertex -1.284037e-01 -1.331821e-01  1.000000e+00
   endloop
 endfacet
 facet normal  6.396730e-01  7.686471e-01 -0.000000e+00
   outer loop
     vertex -1.076439e-01 -1.504586e-01  0.000000e+00
     vertex -1.284037e-01 -1.331821e-01  1.000000e+00
     vertex -1.076439e-01 -1.504586e-01  1.000000e+00
   endloop
 endfacet
 facet normal  5.209403e-01  8.535931e-01  0.000000e+00
   outer loop
     vertex -8.458983e-02 -1.645283e-01  0.000000e+00
     vertex -1.076439e-01 -1.504586e-01  0.000000e+00
     vertex -1.076439e-01 -1.504586e-01  1.000000e+00
   endloop
 endfacet
 facet normal  5.209403e-01  8.535931e-01 -0.000000e+00
   outer loop
     vertex -8.458983e-02 -1.645283e-01  0.000000e+00
     vertex -1.076439e-01 -1.504586e-01  1.000000e+00
     vertex -8.458983e-02 -1.645283e-01  1.000000e+00
   endloop
 endfacet
 facet normal  3.911047e-01  9.203462e-01  0.000000e+00
   outer loop
     vertex -5.973287e-02 -1.750914e-01  0.000000e+00
     vertex -8.458983e-02 -1.645283e-01  0.000000e+00
     vertex -8.458983e-02 -1.645283e-01  1.000000e+00
   endloop
 endfacet
 facet normal  3.911047e-01  9.203462e-01 -0.000000e+00
   outer loop
     vertex -5.973287e-02 -1.750914e-01  0.000000e+00
     vertex -8.458983e-02 -1.645283e-01  1.000000e+00
     vertex -5.973287e-02 -1.750914e-01  1.000000e+00
   endloop
 endfacet
 facet normal  2.529334e-01  9.674837e-01  0.000000e+00
   outer loop
     vertex -3.360282e-02 -1.819227e-01  0.000000e+00
     vertex -5.973287e-02 -1.750914e-01  0.000000e+00
     vertex -5.973287e-02 -1.750914e-01  1.000000e+00
   endloop
 endfacet
 facet normal  2.529334e-01  9.674837e-01 -0.000000e+00
   outer loop
     vertex -3.360282e-02 -1.819227e-01  0.000000e+00
     vertex -5.973287e-02 -1.750914e-01  1.000000e+00
     vertex -3.360282e-02 -1.819227e-01  1.000000e+00
   endloop
 endfacet
 facet normal  1.093712e-01  9.940010e-01 -0.000000e+00
   outer loop
     vertex -3.360282e-02 -1.819227e-01  0.000000e+00
     vertex -3.360282e-02 -1.819227e-01  1.000000e+00
     vertex -6.756574e-03 -1.848766e-01  1.000000e+00
   endloop
 endfacet
 facet normal  1.093712e-01  9.940010e-01 -0.000000e+00
   outer loop
     vertex -6.756574e-03 -1.848766e-01  0.000000e+00
     vertex -3.360282e-02 -1.819227e-01  0.000000e+00
     vertex -6.756574e-03 -1.848766e-01  1.000000e+00
   endloop
 endfacet
 facet normal -3.652202e-02  9.993328e-01  0.000000e+00
   outer loop
     vertex  2.023367e-02 -1.838902e-01  0.000000e+00
     vertex -6.756574e-03 -1.848766e-01  0.000000e+00
     vertex -6.756574e-03 -1.848766e-01  1.000000e+00
   endloop
 endfacet
 facet normal -3.652202e-02  9.993328e-01  0.000000e+00
   outer loop
     vertex  2.023367e-02 -1.838902e-01  0.000000e+00
     vertex -6.756574e-03 -1.848766e-01  1.000000e+00
     vertex  2.023367e-02 -1.838902e-01  1.000000e+00
   endloop
 endfacet
 facet normal -1.816369e-01  9.833657e-01  0.000000e+00
   outer loop
     vertex  4.679268e-02 -1.789845e-01  0.000000e+00
     vertex  2.023367e-02 -1.838902e-01  0.000000e+00
     vertex  2.023367e-02 -1.838902e-01  1.000000e+00
   endloop
 endfacet
 facet normal -1.816369e-01  9.833657e-01  0.000000e+00
   outer loop
     vertex  4.679268e-02 -1.789845e-01  0.000000e+00
     vertex  2.023367e-02 -1.838902e-01  1.000000e+00
     vertex  4.679268e-02 -1.789845e-01  1.000000e+00
   endloop
 endfacet
 facet normal -3.228804e-01  9.464398e-01  0.000000e+00
   outer loop
     vertex  7.235437e-02 -1.702640e-01  0.000000e+00
     vertex  4.679268e-02 -1.789845e-01  0.000000e+00
     vertex  4.679268e-02 -1.789845e-01  1.000000e+00
   endloop
 endfacet
 facet normal -3.228804e-01  9.464398e-01  0.000000e+00
   outer loop
     vertex  7.235437e-02 -1.702640e-01  0.000000e+00
     vertex  4.679268e-02 -1.789845e-01  1.000000e+00
     vertex  7.235437e-02 -1.702640e-01  1.000000e+00
   endloop
 endfacet
 facet normal -4.572423e-01  8.893421e-01  0.000000e+00
   outer loop
     vertex  9.637396e-02 -1.579147e-01  0.000000e+00
     vertex  7.235437e-02 -1.702640e-01  0.000000e+00
     vertex  7.235437e-02 -1.702640e-01  1.000000e+00
   endloop
 endfacet
 facet normal -4.572423e-01  8.893421e-01  0.000000e+00
   outer loop
     vertex  9.637396e-02 -1.579147e-01  0.000000e+00
     vertex  7.235437e-02 -1.702640e-01  1.000000e+00
     vertex  9.637396e-02 -1.579147e-01  1.000000e+00
   endloop
 endfacet
 facet normal -5.818589e-01  8.132897e-01  0.000000e+00
   outer loop
     vertex  9.637396e-02 -1.579147e-01  0.000000e+00
     vertex  9.637396e-02 -1.579147e-01  1.000000e+00
     vertex  1.183395e-01 -1.421997e-01  1.000000e+00
   endloop
 endfacet
 facet normal -5.818589e-01  8.132897e-01  0.000000e+00
   outer loop
     vertex  1.183395e-01 -1.421997e-01  0.000000e+00
     vertex  9.637396e-02 -1.579147e-01  0.000000e+00
     vertex  1.183395e-01 -1.421997e-01  1.000000e+00
   endloop
 endfacet
 facet normal -6.940742e-01  7.199035e-01  0.000000e+00
   outer loop
     vertex  1.377829e-01 -1.234540e-01  0.000000e+00
     vertex  1.183395e-01 -1.421997e-01  1.000000e+00
     vertex  1.377829e-01 -1.234540e-01  1.000000e+00
   endloop
 endfacet
 facet normal -6.940742e-01  7.199035e-01  0.000000e+00
   outer loop
     vertex  1.377829e-01 -1.234540e-01  0.000000e+00
     vertex  1.183395e-01 -1.421997e-01  0.000000e+00
     vertex  1.183395e-01 -1.421997e-01  1.000000e+00
   endloop
 endfacet
 facet normal -7.914965e-01  6.111737e-01  0.000000e+00
   outer loop
     vertex  1.542896e-01 -1.020770e-01  0.000000e+00
     vertex  1.377829e-01 -1.234540e-01  1.000000e+00
     vertex  1.542896e-01 -1.020770e-01  1.000000e+00
   endloop
 endfacet
 facet normal -7.914965e-01  6.111737e-01  0.000000e+00
   outer loop
     vertex  1.542896e-01 -1.020770e-01  0.000000e+00
     vertex  1.377829e-01 -1.234540e-01  0.000000e+00
     vertex  1.377829e-01 -1.234540e-01  1.000000e+00
   endloop
 endfacet
 facet normal -8.720494e-01  4.894178e-01  0.000000e+00
   outer loop
     vertex  1.675079e-01 -7.852449e-02  0.000000e+00
     vertex  1.542896e-01 -1.020770e-01  1.000000e+00
     vertex  1.675079e-01 -7.852449e-02  1.000000e+00
   endloop
 endfacet
 facet normal -9.340161e-01  3.572309e-01  0.000000e+00
   outer loop
     vertex  1.675079e-01 -7.852449e-02  0.000000e+00
     vertex  1.675079e-01 -7.852449e-02  1.000000e+00
     vertex  1.771561e-01 -5.329833e-02  1.000000e+00
   endloop
 endfacet
 facet normal -8.720494e-01  4.894178e-01  0.000000e+00
   outer loop
     vertex  1.675079e-01 -7.852449e-02  0.000000e+00
     vertex  1.542896e-01 -1.020770e-01  0.000000e+00
     vertex  1.542896e-01 -1.020770e-01  1.000000e+00
   endloop
 endfacet
 facet normal -9.760759e-01  2.174302e-01  0.000000e+00
   outer loop
     vertex  1.771561e-01 -5.329833e-02  0.000000e+00
     vertex  1.771561e-01 -5.329833e-02  1.000000e+00
     vertex  1.830285e-01 -2.693622e-02  1.000000e+00
   endloop
 endfacet
 facet normal -9.340161e-01  3.572309e-01  0.000000e+00
   outer loop
     vertex  1.771561e-01 -5.329833e-02  0.000000e+00
     vertex  1.675079e-01 -7.852449e-02  0.000000e+00
     vertex  1.771561e-01 -5.329833e-02  1.000000e+00
   endloop
 endfacet
 facet normal -9.760759e-01  2.174302e-01  0.000000e+00
   outer loop
     vertex  1.830285e-01 -2.693622e-02  0.000000e+00
     vertex  1.771561e-01 -5.329833e-02  0.000000e+00
     vertex  1.830285e-01 -2.693622e-02  1.000000e+00
   endloop
 endfacet
 facet normal -9.973323e-01  7.299531e-02  0.000000e+00
   outer loop
     vertex  1.850000e-01  0.000000e+00  0.000000e+00
     vertex  1.830285e-01 -2.693622e-02  1.000000e+00
     vertex  1.850000e-01  0.000000e+00  1.000000e+00
   endloop
 endfacet
 facet normal -9.973323e-01  7.299531e-02  0.000000e+00
   outer loop
     vertex  1.850000e-01  0.000000e+00  0.000000e+00
     vertex  1.830285e-01 -2.693622e-02  0.000000e+00
     vertex  1.830285e-01 -2.693622e-02  1.000000e+00
   endloop
 endfacet
 facet normal -0.000000e+00 -0.000000e+00 -1.000000e+00
   outer loop
     vertex -1.284037e-01 -1.331821e-01  0.000000e+00
     vertex -1.244235e-01 -1.435924e-01  0.000000e+00
     vertex -1.435924e-01 -1.244235e-01  0.000000e+00
   endloop
 endfacet
 facet normal -0.000000e+00 -0.000000e+00 -1.000000e+00
   outer loop
     vertex -1.464269e-01 -1.130671e-01  0.000000e+00
     vertex -1.435924e-01 -1.244235e-01  0.000000e+00
     vertex -1.598382e-01 -1.027218e-01  0.000000e+00
   endloop
 endfacet
 facet normal  0.000000e+00  0.000000e+00 -1.000000e+00
   outer loop
     vertex -1.464269e-01 -1.130671e-01  0.000000e+00
     vertex -1.284037e-01 -1.331821e-01  0.000000e+00
     vertex -1.435924e-01 -1.244235e-01  0.000000e+00
   endloop
 endfacet
 facet normal -0.000000e+00 -0.000000e+00 -1.000000e+00
   outer loop
     vertex -1.076439e-01 -1.504586e-01  0.000000e+00
     vertex -1.027218e-01 -1.598382e-01  0.000000e+00
     vertex -1.244235e-01 -1.435924e-01  0.000000e+00
   endloop
 endfacet
 facet normal  0.000000e+00  0.000000e+00 -1.000000e+00
   outer loop
     vertex -1.076439e-01 -1.504586e-01  0.000000e+00
     vertex -1.244235e-01 -1.435924e-01  0.000000e+00
     vertex -1.284037e-01 -1.331821e-01  0.000000e+00
   endloop
 endfacet
 facet normal  0.000000e+00  0.000000e+00 -1.000000e+00
   outer loop
     vertex -1.613291e-01 -9.054230e-02  0.000000e+00
     vertex -1.464269e-01 -1.130671e-01  0.000000e+00
     vertex -1.598382e-01 -1.027218e-01  0.000000e+00
   endloop
 endfacet
 facet normal  0.000000e+00  0.000000e+00 -1.000000e+00
   outer loop
     vertex -1.728301e-01 -7.892885e-02  0.000000e+00
     vertex -1.613291e-01 -9.054230e-02  0.000000e+00
     vertex -1.598382e-01 -1.027218e-01  0.000000e+00
   endloop
 endfacet
 facet normal  0.000000e+00  0.000000e+00 -1.000000e+00
   outer loop
     vertex -8.458983e-02 -1.645283e-01  0.000000e+00
     vertex -1.027218e-01 -1.598382e-01  0.000000e+00
     vertex -1.076439e-01 -1.504586e-01  0.000000e+00
   endloop
 endfacet
 facet normal -0.000000e+00 -0.000000e+00 -1.000000e+00
   outer loop
     vertex -8.458983e-02 -1.645283e-01  0.000000e+00
     vertex -7.892885e-02 -1.728301e-01  0.000000e+00
     vertex -1.027218e-01 -1.598382e-01  0.000000e+00
   endloop
 endfacet
 facet normal  0.000000e+00 -0.000000e+00 -1.000000e+00
   outer loop
     vertex -1.727930e-01 -6.608771e-02  0.000000e+00
     vertex -1.613291e-01 -9.054230e-02  0.000000e+00
     vertex -1.728301e-01 -7.892885e-02  0.000000e+00
   endloop
 endfacet
 facet normal  0.000000e+00  0.000000e+00 -1.000000e+00
   outer loop
     vertex -1.823037e-01 -5.352919e-02  0.000000e+00
     vertex -1.727930e-01 -6.608771e-02  0.000000e+00
     vertex -1.728301e-01 -7.892885e-02  0.000000e+00
   endloop
 endfacet
 facet normal  0.000000e+00  0.000000e+00 -1.000000e+00
   outer loop
     vertex -5.973287e-02 -1.750914e-01  0.000000e+00
     vertex -7.892885e-02 -1.728301e-01  0.000000e+00
     vertex -8.458983e-02 -1.645283e-01  0.000000e+00
   endloop
 endfacet
 facet normal -0.000000e+00 -0.000000e+00 -1.000000e+00
   outer loop
     vertex -5.973287e-02 -1.750914e-01  0.000000e+00
     vertex -5.352919e-02 -1.823037e-01  0.000000e+00
     vertex -7.892885e-02 -1.728301e-01  0.000000e+00
   endloop
 endfacet
 facet normal  0.000000e+00 -0.000000e+00 -1.000000e+00
   outer loop
     vertex -1.805740e-01 -4.022458e-02  0.000000e+00
     vertex -1.727930e-01 -6.608771e-02  0.000000e+00
     vertex -1.823037e-01 -5.352919e-02  0.000000e+00
   endloop
 endfacet
 facet normal -0.000000e+00  0.000000e+00 -1.000000e+00
   outer loop
     vertex -3.360282e-02 -1.819227e-01  0.000000e+00
     vertex -5.352919e-02 -1.823037e-01  0.000000e+00
     vertex -5.973287e-02 -1.750914e-01  0.000000e+00
   endloop
 endfacet
 facet normal  0.000000e+00  0.000000e+00 -1.000000e+00
   outer loop
     vertex -2.703982e-02 -1.880661e-01  0.000000e+00
     vertex -5.352919e-02 -1.823037e-01  0.000000e+00
     vertex -3.360282e-02 -1.819227e-01  0.000000e+00
   endloop
 endfacet
 facet normal  0.000000e+00  0.000000e+00 -1.000000e+00
   outer loop
     vertex -1.880661e-01 -2.703982e-02  0.000000e+00
     vertex -1.805740e-01 -4.022458e-02  0.000000e+00
     vertex -1.823037e-01 -5.352919e-02  0.000000e+00
   endloop
 endfacet
 facet normal  0.000000e+00 -0.000000e+00 -1.000000e+00
   outer loop
     vertex -1.845065e-01 -1.350413e-02  0.000000e+00
     vertex -1.805740e-01 -4.022458e-02  0.000000e+00
     vertex -1.880661e-01 -2.703982e-02  0.000000e+00
   endloop
 endfacet
 facet normal -0.000000e+00  0.000000e+00 -1.000000e+00
   outer loop
     vertex -6.756574e-03 -1.848766e-01  0.000000e+00
     vertex -2.703982e-02 -1.880661e-01  0.000000e+00
     vertex -3.360282e-02 -1.819227e-01  0.000000e+00
   endloop
 endfacet
 facet normal  0.000000e+00  0.000000e+00 -1.000000e+00
   outer loop
     vertex -3.724102e-16 -1.900000e-01  0.000000e+00
     vertex -2.703982e-02 -1.880661e-01  0.000000e+00
     vertex -6.756574e-03 -1.848766e-01  0.000000e+00
   endloop
 endfacet
 facet normal  0.000000e+00  0.000000e+00 -1.000000e+00
   outer loop
     vertex -1.900000e-01  1.920222e-16  0.000000e+00
     vertex -1.845065e-01 -1.350413e-02  0.000000e+00
     vertex -1.880661e-01 -2.703982e-02  0.000000e+00
   endloop
 endfacet
 facet normal  0.000000e+00  0.000000e+00 -1.000000e+00
   outer loop
     vertex -1.845065e-01  1.350413e-02  0.000000e+00
     vertex -1.845065e-01 -1.350413e-02  0.000000e+00
     vertex -1.900000e-01  1.920222e-16  0.000000e+00
   endloop
 endfacet
 facet normal  0.000000e+00  0.000000e+00 -1.000000e+00
   outer loop
     vertex  2.023367e-02 -1.838902e-01  0.000000e+00
     vertex -3.724102e-16 -1.900000e-01  0.000000e+00
     vertex -6.756574e-03 -1.848766e-01  0.000000e+00
   endloop
 endfacet
 facet normal -0.000000e+00  0.000000e+00 -1.000000e+00
   outer loop
     vertex  2.703982e-02 -1.880661e-01  0.000000e+00
     vertex -3.724102e-16 -1.900000e-01  0.000000e+00
     vertex  2.023367e-02 -1.838902e-01  0.000000e+00
   endloop
 endfacet
 facet normal  0.000000e+00 -0.000000e+00 -1.000000e+00
   outer loop
     vertex -1.880661e-01  2.703982e-02  0.000000e+00
     vertex -1.845065e-01  1.350413e-02  0.000000e+00
     vertex -1.900000e-01  1.920222e-16  0.000000e+00
   endloop
 endfacet
 facet normal  0.000000e+00  0.000000e+00 -1.000000e+00
   outer loop
     vertex -1.805740e-01  4.022458e-02  0.000000e+00
     vertex -1.845065e-01  1.350413e-02  0.000000e+00
     vertex -1.880661e-01  2.703982e-02  0.000000e+00
   endloop
 endfacet
 facet normal  0.000000e+00  0.000000e+00 -1.000000e+00
   outer loop
     vertex  4.679268e-02 -1.789845e-01  0.000000e+00
     vertex  2.703982e-02 -1.880661e-01  0.000000e+00
     vertex  2.023367e-02 -1.838902e-01  0.000000e+00
   endloop
 endfacet
 facet normal -0.000000e+00  0.000000e+00 -1.000000e+00
   outer loop
     vertex  5.352919e-02 -1.823037e-01  0.000000e+00
     vertex  2.703982e-02 -1.880661e-01  0.000000e+00
     vertex  4.679268e-02 -1.789845e-01  0.000000e+00
   endloop
 endfacet
 facet normal  0.000000e+00 -0.000000e+00 -1.000000e+00
   outer loop
     vertex -1.823037e-01  5.352919e-02  0.000000e+00
     vertex -1.805740e-01  4.022458e-02  0.000000e+00
     vertex -1.880661e-01  2.703982e-02  0.000000e+00
   endloop
 endfacet
 facet normal  0.000000e+00  0.000000e+00 -1.000000e+00
   outer loop
     vertex -1.727930e-01  6.608771e-02  0.000000e+00
     vertex -1.805740e-01  4.022458e-02  0.000000e+00
     vertex -1.823037e-01  5.352919e-02  0.000000e+00
   endloop
 endfacet
 facet normal  0.000000e+00  0.000000e+00 -1.000000e+00
   outer loop
     vertex  7.235437e-02 -1.702640e-01  0.000000e+00
     vertex  5.352919e-02 -1.823037e-01  0.000000e+00
     vertex  4.679268e-02 -1.789845e-01  0.000000e+00
   endloop
 endfacet
 facet normal -0.000000e+00  0.000000e+00 -1.000000e+00
   outer loop
     vertex  7.892885e-02 -1.728301e-01  0.000000e+00
     vertex  5.352919e-02 -1.823037e-01  0.000000e+00
     vertex  7.235437e-02 -1.702640e-01  0.000000e+00
   endloop
 endfacet
 facet normal  0.000000e+00 -0.000000e+00 -1.000000e+00
   outer loop
     vertex -1.728301e-01  7.892885e-02  0.000000e+00
     vertex -1.727930e-01  6.608771e-02  0.000000e+00
     vertex -1.823037e-01  5.352919e-02  0.000000e+00
   endloop
 endfacet
 facet normal  0.000000e+00  0.000000e+00 -1.000000e+00
   outer loop
     vertex -1.613291e-01  9.054230e-02  0.000000e+00
     vertex -1.727930e-01  6.608771e-02  0.000000e+00
     vertex -1.728301e-01  7.892885e-02  0.000000e+00
   endloop
 endfacet
 facet normal  0.000000e+00  0.000000e+00 -1.000000e+00
   outer loop
     vertex  9.637396e-02 -1.579147e-01  0.000000e+00
     vertex  7.892885e-02 -1.728301e-01  0.000000e+00
     vertex  7.235437e-02 -1.702640e-01  0.000000e+00
   endloop
 endfacet
 facet normal -0.000000e+00  0.000000e+00 -1.000000e+00
   outer loop
     vertex  1.027218e-01 -1.598382e-01  0.000000e+00
     vertex  7.892885e-02 -1.728301e-01  0.000000e+00
     vertex  9.637396e-02 -1.579147e-01  0.000000e+00
   endloop
 endfacet
 facet normal  0.000000e+00  0.000000e+00 -1.000000e+00
   outer loop
     vertex -1.598382e-01  1.027218e-01  0.000000e+00
     vertex -1.613291e-01  9.054230e-02  0.000000e+00
     vertex -1.728301e-01  7.892885e-02  0.000000e+00
   endloop
 endfacet
 facet normal  0.000000e+00  0.000000e+00 -1.000000e+00
   outer loop
     vertex -1.464269e-01  1.130671e-01  0.000000e+00
     vertex -1.613291e-01  9.054230e-02  0.000000e+00
     vertex -1.598382e-01  1.027218e-01  0.000000e+00
   endloop
 endfacet
 facet normal  0.000000e+00  0.000000e+00 -1.000000e+00
   outer loop
     vertex  1.183395e-01 -1.421997e-01  0.000000e+00
     vertex  1.027218e-01 -1.598382e-01  0.000000e+00
     vertex  9.637396e-02 -1.579147e-01  0.000000e+00
   endloop
 endfacet
 facet normal -0.000000e+00  0.000000e+00 -1.000000e+00
   outer loop
     vertex  1.244235e-01 -1.435924e-01  0.000000e+00
     vertex  1.027218e-01 -1.598382e-01  0.000000e+00
     vertex  1.183395e-01 -1.421997e-01  0.000000e+00
   endloop
 endfacet
 facet normal  0.000000e+00  0.000000e+00 -1.000000e+00
   outer loop
     vertex -1.435924e-01  1.244235e-01  0.000000e+00
     vertex -1.464269e-01  1.130671e-01  0.000000e+00
     vertex -1.598382e-01  1.027218e-01  0.000000e+00
   endloop
 endfacet
 facet normal  0.000000e+00  0.000000e+00 -1.000000e+00
   outer loop
     vertex -1.284037e-01  1.331821e-01  0.000000e+00
     vertex -1.464269e-01  1.130671e-01  0.000000e+00
     vertex -1.435924e-01  1.244235e-01  0.000000e+00
   endloop
 endfacet
 facet normal  0.000000e+00  0.000000e+00 -1.000000e+00
   outer loop
     vertex  1.377829e-01 -1.234540e-01  0.000000e+00
     vertex  1.244235e-01 -1.435924e-01  0.000000e+00
     vertex  1.183395e-01 -1.421997e-01  0.000000e+00
   endloop
 endfacet
 facet normal -0.000000e+00  0.000000e+00 -1.000000e+00
   outer loop
     vertex  1.435924e-01 -1.244235e-01  0.000000e+00
     vertex  1.244235e-01 -1.435924e-01  0.000000e+00
     vertex  1.377829e-01 -1.234540e-01  0.000000e+00
   endloop
 endfacet
 facet normal  0.000000e+00  0.000000e+00 -1.000000e+00
   outer loop
     vertex -1.244235e-01  1.435924e-01  0.000000e+00
     vertex -1.284037e-01  1.331821e-01  0.000000e+00
     vertex -1.435924e-01  1.244235e-01  0.000000e+00
   endloop
 endfacet
 facet normal  0.000000e+00  0.000000e+00 -1.000000e+00
   outer loop
     vertex -1.076439e-01  1.504586e-01  0.000000e+00
     vertex -1.284037e-01  1.331821e-01  0.000000e+00
     vertex -1.244235e-01  1.435924e-01  0.000000e+00
   endloop
 endfacet
 facet normal  0.000000e+00  0.000000e+00 -1.000000e+00
   outer loop
     vertex  1.542896e-01 -1.020770e-01  0.000000e+00
     vertex  1.435924e-01 -1.244235e-01  0.000000e+00
     vertex  1.377829e-01 -1.234540e-01  0.000000e+00
   endloop
 endfacet
 facet normal -0.000000e+00  0.000000e+00 -1.000000e+00
   outer loop
     vertex  1.598382e-01 -1.027218e-01  0.000000e+00
     vertex  1.435924e-01 -1.244235e-01  0.000000e+00
     vertex  1.542896e-01 -1.020770e-01  0.000000e+00
   endloop
 endfacet
 facet normal  0.000000e+00  0.000000e+00 -1.000000e+00
   outer loop
     vertex -1.027218e-01  1.598382e-01  0.000000e+00
     vertex -1.076439e-01  1.504586e-01  0.000000e+00
     vertex -1.244235e-01  1.435924e-01  0.000000e+00
   endloop
 endfacet
 facet normal  0.000000e+00  0.000000e+00 -1.000000e+00
   outer loop
     vertex -8.458983e-02  1.645283e-01  0.000000e+00
     vertex -1.076439e-01  1.504586e-01  0.000000e+00
     vertex -1.027218e-01  1.598382e-01  0.000000e+00
   endloop
 endfacet
 facet normal  0.000000e+00  0.000000e+00 -1.000000e+00
   outer loop
     vertex  1.675079e-01 -7.852449e-02  0.000000e+00
     vertex  1.598382e-01 -1.027218e-01  0.000000e+00
     vertex  1.542896e-01 -1.020770e-01  0.000000e+00
   endloop
 endfacet
 facet normal -0.000000e+00  0.000000e+00 -1.000000e+00
   outer loop
     vertex  1.728301e-01 -7.892885e-02  0.000000e+00
     vertex  1.598382e-01 -1.027218e-01  0.000000e+00
     vertex  1.675079e-01 -7.852449e-02  0.000000e+00
   endloop
 endfacet
 facet normal  0.000000e+00  0.000000e+00 -1.000000e+00
   outer loop
     vertex -7.892885e-02  1.728301e-01  0.000000e+00
     vertex -8.458983e-02  1.645283e-01  0.000000e+00
     vertex -1.027218e-01  1.598382e-01  0.000000e+00
   endloop
 endfacet
 facet normal  0.000000e+00  0.000000e+00 -1.000000e+00
   outer loop
     vertex -5.973287e-02  1.750914e-01  0.000000e+00
     vertex -8.458983e-02  1.645283e-01  0.000000e+00
     vertex -7.892885e-02  1.728301e-01  0.000000e+00
   endloop
 endfacet
 facet normal  0.000000e+00  0.000000e+00 -1.000000e+00
   outer loop
     vertex  1.771561e-01 -5.329833e-02  0.000000e+00
     vertex  1.728301e-01 -7.892885e-02  0.000000e+00
     vertex  1.675079e-01 -7.852449e-02  0.000000e+00
   endloop
 endfacet
 facet normal -0.000000e+00  0.000000e+00 -1.000000e+00
   outer loop
     vertex  1.823037e-01 -5.352919e-02  0.000000e+00
     vertex  1.728301e-01 -7.892885e-02  0.000000e+00
     vertex  1.771561e-01 -5.329833e-02  0.000000e+00
   endloop
 endfacet
 facet normal  0.000000e+00  0.000000e+00 -1.000000e+00
   outer loop
     vertex -5.352919e-02  1.823037e-01  0.000000e+00
     vertex -5.973287e-02  1.750914e-01  0.000000e+00
     vertex -7.892885e-02  1.728301e-01  0.000000e+00
   endloop
 endfacet
 facet normal -0.000000e+00  0.000000e+00 -1.000000e+00
   outer loop
     vertex -3.360282e-02  1.819227e-01  0.000000e+00
     vertex -5.973287e-02  1.750914e-01  0.000000e+00
     vertex -5.352919e-02  1.823037e-01  0.000000e+00
   endloop
 endfacet
 facet normal  0.000000e+00  0.000000e+00 -1.000000e+00
   outer loop
     vertex  1.830285e-01 -2.693622e-02  0.000000e+00
     vertex  1.823037e-01 -5.352919e-02  0.000000e+00
     vertex  1.771561e-01 -5.329833e-02  0.000000e+00
   endloop
 endfacet
 facet normal -0.000000e+00  0.000000e+00 -1.000000e+00
   outer loop
     vertex  1.880661e-01 -2.703982e-02  0.000000e+00
     vertex  1.823037e-01 -5.352919e-02  0.000000e+00
     vertex  1.830285e-01 -2.693622e-02  0.000000e+00
   endloop
 endfacet
 facet normal  0.000000e+00  0.000000e+00 -1.000000e+00
   outer loop
     vertex -2.703982e-02  1.880661e-01  0.000000e+00
     vertex -3.360282e-02  1.819227e-01  0.000000e+00
     vertex -5.352919e-02  1.823037e-01  0.000000e+00
   endloop
 endfacet
 facet normal -0.000000e+00  0.000000e+00 -1.000000e+00
   outer loop
     vertex -6.756574e-03  1.848766e-01  0.000000e+00
     vertex -3.360282e-02  1.819227e-01  0.000000e+00
     vertex -2.703982e-02  1.880661e-01  0.000000e+00
   endloop
 endfacet
 facet normal  0.000000e+00 -0.000000e+00 -1.000000e+00
   outer loop
     vertex  1.850000e-01  0.000000e+00  0.000000e+00
     vertex  1.880661e-01 -2.703982e-02  0.000000e+00
     vertex  1.830285e-01 -2.693622e-02  0.000000e+00
   endloop
 endfacet
 facet normal -0.000000e+00  0.000000e+00 -1.000000e+00
   outer loop
     vertex  1.900000e-01  0.000000e+00  0.000000e+00
     vertex  1.880661e-01 -2.703982e-02  0.000000e+00
     vertex  1.850000e-01  0.000000e+00  0.000000e+00
   endloop
 endfacet
 facet normal  0.000000e+00  0.000000e+00 -1.000000e+00
   outer loop
     vertex  5.382262e-17  1.900000e-01  0.000000e+00
     vertex -6.756574e-03  1.848766e-01  0.000000e+00
     vertex -2.703982e-02  1.880661e-01  0.000000e+00
   endloop
 endfacet
 facet normal  0.000000e+00  0.000000e+00 -1.000000e+00
   outer loop
     vertex  2.023367e-02  1.838902e-01  0.000000e+00
     vertex -6.756574e-03  1.848766e-01  0.000000e+00
     vertex  5.382262e-17  1.900000e-01  0.000000e+00
   endloop
 endfacet
 facet normal  0.000000e+00 -0.000000e+00 -1.000000e+00
   outer loop
     vertex  1.880661e-01  2.703982e-02  0.000000e+00
     vertex  1.900000e-01  0.000000e+00  0.000000e+00
     vertex  1.850000e-01  0.000000e+00  0.000000e+00
   endloop
 endfacet
 facet normal  0.000000e+00  0.000000e+00 -1.000000e+00
   outer loop
     vertex  1.880661e-01  2.703982e-02  0.000000e+00
     vertex  1.850000e-01  0.000000e+00  0.000000e+00
     vertex  1.830285e-01  2.693622e-02  0.000000e+00
   endloop
 endfacet
 facet normal -0.000000e+00  0.000000e+00 -1.000000e+00
   outer loop
     vertex  2.703982e-02  1.880661e-01  0.000000e+00
     vertex  2.023367e-02  1.838902e-01  0.000000e+00
     vertex  5.382262e-17  1.900000e-01  0.000000e+00
   endloop
 endfacet
 facet normal  0.000000e+00  0.000000e+00 -1.000000e+00
   outer loop
     vertex  4.679268e-02  1.789845e-01  0.000000e+00
     vertex  2.023367e-02  1.838902e-01  0.000000e+00
     vertex  2.703982e-02  1.880661e-01  0.000000e+00
   endloop
 endfacet
 facet normal -0.000000e+00  0.000000e+00 -1.000000e+00
   outer loop
     vertex  5.352919e-02  1.823037e-01  0.000000e+00
     vertex  4.679268e-02  1.789845e-01  0.000000e+00
     vertex  2.703982e-02  1.880661e-01  0.000000e+00
   endloop
 endfacet
 facet normal  0.000000e+00  0.000000e+00 -1.000000e+00
   outer loop
     vertex  1.823037e-01  5.352919e-02  0.000000e+00
     vertex  1.880661e-01  2.703982e-02  0.000000e+00
     vertex  1.830285e-01  2.693622e-02  0.000000e+00
   endloop
 endfacet
 facet normal  0.000000e+00 -0.000000e+00 -1.000000e+00
   outer loop
     vertex  1.823037e-01  5.352919e-02  0.000000e+00
     vertex  1.830285e-01  2.693622e-02  0.000000e+00
     vertex  1.771561e-01  5.329833e-02  0.000000e+00
   endloop
 endfacet
 facet normal  0.000000e+00  0.000000e+00 -1.000000e+00
   outer loop
     vertex  7.235437e-02  1.702640e-01  0.000000e+00
     vertex  4.679268e-02  1.789845e-01  0.000000e+00
     vertex  5.352919e-02  1.823037e-01  0.000000e+00
   endloop
 endfacet
 facet normal  0.000000e+00  0.000000e+00 -1.000000e+00
   outer loop
     vertex  1.728301e-01  7.892885e-02  0.000000e+00
     vertex  1.823037e-01  5.352919e-02  0.000000e+00
     vertex  1.771561e-01  5.329833e-02  0.000000e+00
   endloop
 endfacet
 facet normal  0.000000e+00 -0.000000e+00 -1.000000e+00
   outer loop
     vertex  1.728301e-01  7.892885e-02  0.000000e+00
     vertex  1.771561e-01  5.329833e-02  0.000000e+00
     vertex  1.675079e-01  7.852449e-02  0.000000e+00
   endloop
 endfacet
 facet normal -0.000000e+00  0.000000e+00 -1.000000e+00
   outer loop
     vertex  7.892885e-02  1.728301e-01  0.000000e+00
     vertex  7.235437e-02  1.702640e-01  0.000000e+00
     vertex  5.352919e-02  1.823037e-01  0.000000e+00
   endloop
 endfacet
 facet normal  0.000000e+00  0.000000e+00 -1.000000e+00
   outer loop
     vertex  9.637396e-02  1.579147e-01  0.000000e+00
     vertex  7.235437e-02  1.702640e-01  0.000000e+00
     vertex  7.892885e-02  1.728301e-01  0.000000e+00
   endloop
 endfacet
 facet normal -0.000000e+00  0.000000e+00 -1.000000e+00
   outer loop
     vertex  1.027218e-01  1.598382e-01  0.000000e+00
     vertex  9.637396e-02  1.579147e-01  0.000000e+00
     vertex  7.892885e-02  1.728301e-01  0.000000e+00
   endloop
 endfacet
 facet normal  0.000000e+00 -0.000000e+00 -1.000000e+00
   outer loop
     vertex  1.027218e-01  1.598382e-01  0.000000e+00
     vertex  1.183395e-01  1.421997e-01  0.000000e+00
     vertex  9.637396e-02  1.579147e-01  0.000000e+00
   endloop
 endfacet
 facet normal  0.000000e+00  0.000000e+00 -1.000000e+00
   outer loop
     vertex  1.598382e-01  1.027218e-01  0.000000e+00
     vertex  1.728301e-01  7.892885e-02  0.000000e+00
     vertex  1.675079e-01  7.852449e-02  0.000000e+00
   endloop
 endfacet
 facet normal  0.000000e+00 -0.000000e+00 -1.000000e+00
   outer loop
     vertex  1.598382e-01  1.027218e-01  0.000000e+00
     vertex  1.675079e-01  7.852449e-02  0.000000e+00
     vertex  1.542896e-01  1.020770e-01  0.000000e+00
   endloop
 endfacet
 facet normal  0.000000e+00  0.000000e+00 -1.000000e+00
   outer loop
     vertex  1.435924e-01  1.244235e-01  0.000000e+00
     vertex  1.598382e-01  1.027218e-01  0.000000e+00
     vertex  1.542896e-01  1.020770e-01  0.000000e+00
   endloop
 endfacet
 facet normal  0.000000e+00 -0.000000e+00 -1.000000e+00
   outer loop
     vertex  1.435924e-01  1.244235e-01  0.000000e+00
     vertex  1.542896e-01  1.020770e-01  0.000000e+00
     vertex  1.377829e-01  1.234540e-01  0.000000e+00
   endloop
 endfacet
 facet normal  0.000000e+00 -0.000000e+00 -1.000000e+00
   outer loop
     vertex  1.244235e-01  1.435924e-01  0.000000e+00
     vertex  1.377829e-01  1.234540e-01  0.000000e+00
     vertex  1.183395e-01  1.421997e-01  0.000000e+00
   endloop
 endfacet
 facet normal -0.000000e+00  0.000000e+00 -1.000000e+00
   outer loop
     vertex  1.244235e-01  1.435924e-01  0.000000e+00
     vertex  1.183395e-01  1.421997e-01  0.000000e+00
     vertex  1.027218e-01  1.598382e-01  0.000000e+00
   endloop
 endfacet
 facet normal  0.000000e+00  0.000000e+00 -1.000000e+00
   outer loop
     vertex  1.244235e-01  1.435924e-01  0.000000e+00
     vertex  1.435924e-01  1.244235e-01  0.000000e+00
     vertex  1.377829e-01  1.234540e-01  0.000000e+00
   endloop
 endfacet
 facet normal  0.000000e+00  0.000000e+00  1.000000e+00
   outer loop
     vertex -1.284037e-01 -1.331821e-01  1.000000e+00
     vertex -1.435924e-01 -1.244235e-01  1.000000e+00
     vertex -1.244235e-01 -1.435924e-01  1.000000e+00
   endloop
 endfacet
 facet normal  0.000000e+00  0.000000e+00  1.000000e+00
   outer loop
     vertex -1.464269e-01 -1.130671e-01  1.000000e+00
     vertex -1.598382e-01 -1.027218e-01  1.000000e+00
     vertex -1.435924e-01 -1.244235e-01  1.000000e+00
   endloop
 endfacet
 facet normal  0.000000e+00  0.000000e+00  1.000000e+00
   outer loop
     vertex -1.464269e-01 -1.130671e-01  1.000000e+00
     vertex -1.435924e-01 -1.244235e-01  1.000000e+00
     vertex -1.284037e-01 -1.331821e-01  1.000000e+00
   endloop
 endfacet
 facet normal  0.000000e+00  0.000000e+00  1.000000e+00
   outer loop
     vertex -1.076439e-01 -1.504586e-01  1.000000e+00
     vertex -1.244235e-01 -1.435924e-01  1.000000e+00
     vertex -1.027218e-01 -1.598382e-01  1.000000e+00
   endloop
 endfacet
 facet normal  0.000000e+00  0.000000e+00  1.000000e+00
   outer loop
     vertex -1.076439e-01 -1.504586e-01  1.000000e+00
     vertex -1.284037e-01 -1.331821e-01  1.000000e+00
     vertex -1.244235e-01 -1.435924e-01  1.000000e+00
   endloop
 endfacet
 facet normal  0.000000e+00  0.000000e+00  1.000000e+00
   outer loop
     vertex -1.613291e-01 -9.054230e-02  1.000000e+00
     vertex -1.598382e-01 -1.027218e-01  1.000000e+00
     vertex -1.464269e-01 -1.130671e-01  1.000000e+00
   endloop
 endfacet
 facet normal  0.000000e+00  0.000000e+00  1.000000e+00
   outer loop
     vertex -1.728301e-01 -7.892885e-02  1.000000e+00
     vertex -1.598382e-01 -1.027218e-01  1.000000e+00
     vertex -1.613291e-01 -9.054230e-02  1.000000e+00
   endloop
 endfacet
 facet normal  0.000000e+00  0.000000e+00  1.000000e+00
   outer loop
     vertex -8.458983e-02 -1.645283e-01  1.000000e+00
     vertex -1.076439e-01 -1.504586e-01  1.000000e+00
     vertex -1.027218e-01 -1.598382e-01  1.000000e+00
   endloop
 endfacet
 facet normal  0.000000e+00  0.000000e+00  1.000000e+00
   outer loop
     vertex -8.458983e-02 -1.645283e-01  1.000000e+00
     vertex -1.027218e-01 -1.598382e-01  1.000000e+00
     vertex -7.892885e-02 -1.728301e-01  1.000000e+00
   endloop
 endfacet
 facet normal  0.000000e+00  0.000000e+00  1.000000e+00
   outer loop
     vertex -1.727930e-01 -6.608771e-02  1.000000e+00
     vertex -1.728301e-01 -7.892885e-02  1.000000e+00
     vertex -1.613291e-01 -9.054230e-02  1.000000e+00
   endloop
 endfacet
 facet normal  0.000000e+00  0.000000e+00  1.000000e+00
   outer loop
     vertex -1.823037e-01 -5.352919e-02  1.000000e+00
     vertex -1.728301e-01 -7.892885e-02  1.000000e+00
     vertex -1.727930e-01 -6.608771e-02  1.000000e+00
   endloop
 endfacet
 facet normal  0.000000e+00  0.000000e+00  1.000000e+00
   outer loop
     vertex -5.973287e-02 -1.750914e-01  1.000000e+00
     vertex -8.458983e-02 -1.645283e-01  1.000000e+00
     vertex -7.892885e-02 -1.728301e-01  1.000000e+00
   endloop
 endfacet
 facet normal  0.000000e+00  0.000000e+00  1.000000e+00
   outer loop
     vertex -5.973287e-02 -1.750914e-01  1.000000e+00
     vertex -7.892885e-02 -1.728301e-01  1.000000e+00
     vertex -5.352919e-02 -1.823037e-01  1.000000e+00
   endloop
 endfacet
 facet normal  0.000000e+00  0.000000e+00  1.000000e+00
   outer loop
     vertex -1.805740e-01 -4.022458e-02  1.000000e+00
     vertex -1.823037e-01 -5.352919e-02  1.000000e+00
     vertex -1.727930e-01 -6.608771e-02  1.000000e+00
   endloop
 endfacet
 facet normal  0.000000e+00  0.000000e+00  1.000000e+00
   outer loop
     vertex -3.360282e-02 -1.819227e-01  1.000000e+00
     vertex -5.973287e-02 -1.750914e-01  1.000000e+00
     vertex -5.352919e-02 -1.823037e-01  1.000000e+00
   endloop
 endfacet
 facet normal  0.000000e+00  0.000000e+00  1.000000e+00
   outer loop
     vertex -2.703982e-02 -1.880661e-01  1.000000e+00
     vertex -3.360282e-02 -1.819227e-01  1.000000e+00
     vertex -5.352919e-02 -1.823037e-01  1.000000e+00
   endloop
 endfacet
 facet normal  0.000000e+00  0.000000e+00  1.000000e+00
   outer loop
     vertex -1.880661e-01 -2.703982e-02  1.000000e+00
     vertex -1.823037e-01 -5.352919e-02  1.000000e+00
     vertex -1.805740e-01 -4.022458e-02  1.000000e+00
   endloop
 endfacet
 facet normal  0.000000e+00  0.000000e+00  1.000000e+00
   outer loop
     vertex -1.845065e-01 -1.350413e-02  1.000000e+00
     vertex -1.880661e-01 -2.703982e-02  1.000000e+00
     vertex -1.805740e-01 -4.022458e-02  1.000000e+00
   endloop
 endfacet
 facet normal  0.000000e+00  0.000000e+00  1.000000e+00
   outer loop
     vertex -6.756574e-03 -1.848766e-01  1.000000e+00
     vertex -3.360282e-02 -1.819227e-01  1.000000e+00
     vertex -2.703982e-02 -1.880661e-01  1.000000e+00
   endloop
 endfacet
 facet normal  0.000000e+00  0.000000e+00  1.000000e+00
   outer loop
     vertex -3.724102e-16 -1.900000e-01  1.000000e+00
     vertex -6.756574e-03 -1.848766e-01  1.000000e+00
     vertex -2.703982e-02 -1.880661e-01  1.000000e+00
   endloop
 endfacet
 facet normal  0.000000e+00  0.000000e+00  1.000000e+00
   outer loop
     vertex -1.900000e-01  1.920222e-16  1.000000e+00
     vertex -1.880661e-01 -2.703982e-02  1.000000e+00
     vertex -1.845065e-01 -1.350413e-02  1.000000e+00
   endloop
 endfacet
 facet normal  0.000000e+00  0.000000e+00  1.000000e+00
   outer loop
     vertex -1.845065e-01  1.350413e-02  1.000000e+00
     vertex -1.900000e-01  1.920222e-16  1.000000e+00
     vertex -1.845065e-01 -1.350413e-02  1.000000e+00
   endloop
 endfacet
 facet normal  0.000000e+00  0.000000e+00  1.000000e+00
   outer loop
     vertex  2.023367e-02 -1.838902e-01  1.000000e+00
     vertex -6.756574e-03 -1.848766e-01  1.000000e+00
     vertex -3.724102e-16 -1.900000e-01  1.000000e+00
   endloop
 endfacet
 facet normal  0.000000e+00  0.000000e+00  1.000000e+00
   outer loop
     vertex  2.703982e-02 -1.880661e-01  1.000000e+00
     vertex  2.023367e-02 -1.838902e-01  1.000000e+00
     vertex -3.724102e-16 -1.900000e-01  1.000000e+00
   endloop
 endfacet
 facet normal  0.000000e+00  0.000000e+00  1.000000e+00
   outer loop
     vertex -1.880661e-01  2.703982e-02  1.000000e+00
     vertex -1.900000e-01  1.920222e-16  1.000000e+00
     vertex -1.845065e-01  1.350413e-02  1.000000e+00
   endloop
 endfacet
 facet normal  0.000000e+00  0.000000e+00  1.000000e+00
   outer loop
     vertex -1.805740e-01  4.022458e-02  1.000000e+00
     vertex -1.880661e-01  2.703982e-02  1.000000e+00
     vertex -1.845065e-01  1.350413e-02  1.000000e+00
   endloop
 endfacet
 facet normal  0.000000e+00  0.000000e+00  1.000000e+00
   outer loop
     vertex  4.679268e-02 -1.789845e-01  1.000000e+00
     vertex  2.023367e-02 -1.838902e-01  1.000000e+00
     vertex  2.703982e-02 -1.880661e-01  1.000000e+00
   endloop
 endfacet
 facet normal  0.000000e+00  0.000000e+00  1.000000e+00
   outer loop
     vertex  5.352919e-02 -1.823037e-01  1.000000e+00
     vertex  4.679268e-02 -1.789845e-01  1.000000e+00
     vertex  2.703982e-02 -1.880661e-01  1.000000e+00
   endloop
 endfacet
 facet normal  0.000000e+00  0.000000e+00  1.000000e+00
   outer loop
     vertex -1.823037e-01  5.352919e-02  1.000000e+00
     vertex -1.880661e-01  2.703982e-02  1.000000e+00
     vertex -1.805740e-01  4.022458e-02  1.000000e+00
   endloop
 endfacet
 facet normal  0.000000e+00  0.000000e+00  1.000000e+00
   outer loop
     vertex -1.727930e-01  6.608771e-02  1.000000e+00
     vertex -1.823037e-01  5.352919e-02  1.000000e+00
     vertex -1.805740e-01  4.022458e-02  1.000000e+00
   endloop
 endfacet
 facet normal  0.000000e+00  0.000000e+00  1.000000e+00
   outer loop
     vertex  7.235437e-02 -1.702640e-01  1.000000e+00
     vertex  4.679268e-02 -1.789845e-01  1.000000e+00
     vertex  5.352919e-02 -1.823037e-01  1.000000e+00
   endloop
 endfacet
 facet normal  0.000000e+00  0.000000e+00  1.000000e+00
   outer loop
     vertex  7.892885e-02 -1.728301e-01  1.000000e+00
     vertex  7.235437e-02 -1.702640e-01  1.000000e+00
     vertex  5.352919e-02 -1.823037e-01  1.000000e+00
   endloop
 endfacet
 facet normal  0.000000e+00  0.000000e+00  1.000000e+00
   outer loop
     vertex -1.728301e-01  7.892885e-02  1.000000e+00
     vertex -1.823037e-01  5.352919e-02  1.000000e+00
     vertex -1.727930e-01  6.608771e-02  1.000000e+00
   endloop
 endfacet
 facet normal  0.000000e+00  0.000000e+00  1.000000e+00
   outer loop
     vertex -1.613291e-01  9.054230e-02  1.000000e+00
     vertex -1.728301e-01  7.892885e-02  1.000000e+00
     vertex -1.727930e-01  6.608771e-02  1.000000e+00
   endloop
 endfacet
 facet normal  0.000000e+00  0.000000e+00  1.000000e+00
   outer loop
     vertex  9.637396e-02 -1.579147e-01  1.000000e+00
     vertex  7.235437e-02 -1.702640e-01  1.000000e+00
     vertex  7.892885e-02 -1.728301e-01  1.000000e+00
   endloop
 endfacet
 facet normal  0.000000e+00  0.000000e+00  1.000000e+00
   outer loop
     vertex  1.027218e-01 -1.598382e-01  1.000000e+00
     vertex  9.637396e-02 -1.579147e-01  1.000000e+00
     vertex  7.892885e-02 -1.728301e-01  1.000000e+00
   endloop
 endfacet
 facet normal  0.000000e+00  0.000000e+00  1.000000e+00
   outer loop
     vertex -1.598382e-01  1.027218e-01  1.000000e+00
     vertex -1.728301e-01  7.892885e-02  1.000000e+00
     vertex -1.613291e-01  9.054230e-02  1.000000e+00
   endloop
 endfacet
 facet normal  0.000000e+00  0.000000e+00  1.000000e+00
   outer loop
     vertex -1.464269e-01  1.130671e-01  1.000000e+00
     vertex -1.598382e-01  1.027218e-01  1.000000e+00
     vertex -1.613291e-01  9.054230e-02  1.000000e+00
   endloop
 endfacet
 facet normal  0.000000e+00  0.000000e+00  1.000000e+00
   outer loop
     vertex  1.183395e-01 -1.421997e-01  1.000000e+00
     vertex  9.637396e-02 -1.579147e-01  1.000000e+00
     vertex  1.027218e-01 -1.598382e-01  1.000000e+00
   endloop
 endfacet
 facet normal  0.000000e+00  0.000000e+00  1.000000e+00
   outer loop
     vertex  1.244235e-01 -1.435924e-01  1.000000e+00
     vertex  1.183395e-01 -1.421997e-01  1.000000e+00
     vertex  1.027218e-01 -1.598382e-01  1.000000e+00
   endloop
 endfacet
 facet normal  0.000000e+00  0.000000e+00  1.000000e+00
   outer loop
     vertex -1.435924e-01  1.244235e-01  1.000000e+00
     vertex -1.598382e-01  1.027218e-01  1.000000e+00
     vertex -1.464269e-01  1.130671e-01  1.000000e+00
   endloop
 endfacet
 facet normal  0.000000e+00  0.000000e+00  1.000000e+00
   outer loop
     vertex -1.284037e-01  1.331821e-01  1.000000e+00
     vertex -1.435924e-01  1.244235e-01  1.000000e+00
     vertex -1.464269e-01  1.130671e-01  1.000000e+00
   endloop
 endfacet
 facet normal  0.000000e+00  0.000000e+00  1.000000e+00
   outer loop
     vertex  1.377829e-01 -1.234540e-01  1.000000e+00
     vertex  1.183395e-01 -1.421997e-01  1.000000e+00
     vertex  1.244235e-01 -1.435924e-01  1.000000e+00
   endloop
 endfacet
 facet normal  0.000000e+00  0.000000e+00  1.000000e+00
   outer loop
     vertex  1.435924e-01 -1.244235e-01  1.000000e+00
     vertex  1.377829e-01 -1.234540e-01  1.000000e+00
     vertex  1.244235e-01 -1.435924e-01  1.000000e+00
   endloop
 endfacet
 facet normal  0.000000e+00  0.000000e+00  1.000000e+00
   outer loop
     vertex -1.244235e-01  1.435924e-01  1.000000e+00
     vertex -1.435924e-01  1.244235e-01  1.000000e+00
     vertex -1.284037e-01  1.331821e-01  1.000000e+00
   endloop
 endfacet
 facet normal  0.000000e+00  0.000000e+00  1.000000e+00
   outer loop
     vertex -1.076439e-01  1.504586e-01  1.000000e+00
     vertex -1.244235e-01  1.435924e-01  1.000000e+00
     vertex -1.284037e-01  1.331821e-01  1.000000e+00
   endloop
 endfacet
 facet normal  0.000000e+00  0.000000e+00  1.000000e+00
   outer loop
     vertex  1.542896e-01 -1.020770e-01  1.000000e+00
     vertex  1.377829e-01 -1.234540e-01  1.000000e+00
     vertex  1.435924e-01 -1.244235e-01  1.000000e+00
   endloop
 endfacet
 facet normal  0.000000e+00  0.000000e+00  1.000000e+00
   outer loop
     vertex  1.598382e-01 -1.027218e-01  1.000000e+00
     vertex  1.542896e-01 -1.020770e-01  1.000000e+00
     vertex  1.435924e-01 -1.244235e-01  1.000000e+00
   endloop
 endfacet
 facet normal  0.000000e+00  0.000000e+00  1.000000e+00
   outer loop
     vertex -1.027218e-01  1.598382e-01  1.000000e+00
     vertex -1.244235e-01  1.435924e-01  1.000000e+00
     vertex -1.076439e-01  1.504586e-01  1.000000e+00
   endloop
 endfacet
 facet normal  0.000000e+00  0.000000e+00  1.000000e+00
   outer loop
     vertex -8.458983e-02  1.645283e-01  1.000000e+00
     vertex -1.027218e-01  1.598382e-01  1.000000e+00
     vertex -1.076439e-01  1.504586e-01  1.000000e+00
   endloop
 endfacet
 facet normal  0.000000e+00  0.000000e+00  1.000000e+00
   outer loop
     vertex  1.675079e-01 -7.852449e-02  1.000000e+00
     vertex  1.542896e-01 -1.020770e-01  1.000000e+00
     vertex  1.598382e-01 -1.027218e-01  1.000000e+00
   endloop
 endfacet
 facet normal  0.000000e+00  0.000000e+00  1.000000e+00
   outer loop
     vertex  1.728301e-01 -7.892885e-02  1.000000e+00
     vertex  1.675079e-01 -7.852449e-02  1.000000e+00
     vertex  1.598382e-01 -1.027218e-01  1.000000e+00
   endloop
 endfacet
 facet normal  0.000000e+00  0.000000e+00  1.000000e+00
   outer loop
     vertex -7.892885e-02  1.728301e-01  1.000000e+00
     vertex -1.027218e-01  1.598382e-01  1.000000e+00
     vertex -8.458983e-02  1.645283e-01  1.000000e+00
   endloop
 endfacet
 facet normal  0.000000e+00  0.000000e+00  1.000000e+00
   outer loop
     vertex -5.973287e-02  1.750914e-01  1.000000e+00
     vertex -7.892885e-02  1.728301e-01  1.000000e+00
     vertex -8.458983e-02  1.645283e-01  1.000000e+00
   endloop
 endfacet
 facet normal  0.000000e+00  0.000000e+00  1.000000e+00
   outer loop
     vertex  1.771561e-01 -5.329833e-02  1.000000e+00
     vertex  1.675079e-01 -7.852449e-02  1.000000e+00
     vertex  1.728301e-01 -7.892885e-02  1.000000e+00
   endloop
 endfacet
 facet normal  0.000000e+00  0.000000e+00  1.000000e+00
   outer loop
     vertex  1.823037e-01 -5.352919e-02  1.000000e+00
     vertex  1.771561e-01 -5.329833e-02  1.000000e+00
     vertex  1.728301e-01 -7.892885e-02  1.000000e+00
   endloop
 endfacet
 facet normal  0.000000e+00  0.000000e+00  1.000000e+00
   outer loop
     vertex -5.352919e-02  1.823037e-01  1.000000e+00
     vertex -7.892885e-02  1.728301e-01  1.000000e+00
     vertex -5.973287e-02  1.750914e-01  1.000000e+00
   endloop
 endfacet
 facet normal  0.000000e+00  0.000000e+00  1.000000e+00
   outer loop
     vertex -3.360282e-02  1.819227e-01  1.000000e+00
     vertex -5.352919e-02  1.823037e-01  1.000000e+00
     vertex -5.973287e-02  1.750914e-01  1.000000e+00
   endloop
 endfacet
 facet normal  0.000000e+00  0.000000e+00  1.000000e+00
   outer loop
     vertex  1.830285e-01 -2.693622e-02  1.000000e+00
     vertex  1.771561e-01 -5.329833e-02  1.000000e+00
     vertex  1.823037e-01 -5.352919e-02  1.000000e+00
   endloop
 endfacet
 facet normal  0.000000e+00  0.000000e+00  1.000000e+00
   outer loop
     vertex  1.880661e-01 -2.703982e-02  1.000000e+00
     vertex  1.830285e-01 -2.693622e-02  1.000000e+00
     vertex  1.823037e-01 -5.352919e-02  1.000000e+00
   endloop
 endfacet
 facet normal  0.000000e+00  0.000000e+00  1.000000e+00
   outer loop
     vertex -2.703982e-02  1.880661e-01  1.000000e+00
     vertex -5.352919e-02  1.823037e-01  1.000000e+00
     vertex -3.360282e-02  1.819227e-01  1.000000e+00
   endloop
 endfacet
 facet normal  0.000000e+00  0.000000e+00  1.000000e+00
   outer loop
     vertex -6.756574e-03  1.848766e-01  1.000000e+00
     vertex -2.703982e-02  1.880661e-01  1.000000e+00
     vertex -3.360282e-02  1.819227e-01  1.000000e+00
   endloop
 endfacet
 facet normal  0.000000e+00  0.000000e+00  1.000000e+00
   outer loop
     vertex  1.850000e-01  0.000000e+00  1.000000e+00
     vertex  1.830285e-01 -2.693622e-02  1.000000e+00
     vertex  1.880661e-01 -2.703982e-02  1.000000e+00
   endloop
 endfacet
 facet normal  0.000000e+00  0.000000e+00  1.000000e+00
   outer loop
     vertex  1.900000e-01  0.000000e+00  1.000000e+00
     vertex  1.850000e-01  0.000000e+00  1.000000e+00
     vertex  1.880661e-01 -2.703982e-02  1.000000e+00
   endloop
 endfacet
 facet normal  0.000000e+00  0.000000e+00  1.000000e+00
   outer loop
     vertex  5.382262e-17  1.900000e-01  1.000000e+00
     vertex -2.703982e-02  1.880661e-01  1.000000e+00
     vertex -6.756574e-03  1.848766e-01  1.000000e+00
   endloop
 endfacet
 facet normal  0.000000e+00  0.000000e+00  1.000000e+00
   outer loop
     vertex  2.023367e-02  1.838902e-01  1.000000e+00
     vertex  5.382262e-17  1.900000e-01  1.000000e+00
     vertex -6.756574e-03  1.848766e-01  1.000000e+00
   endloop
 endfacet
 facet normal  0.000000e+00  0.000000e+00  1.000000e+00
   outer loop
     vertex  1.880661e-01  2.703982e-02  1.000000e+00
     vertex  1.850000e-01  0.000000e+00  1.000000e+00
     vertex  1.900000e-01  0.000000e+00  1.000000e+00
   endloop
 endfacet
 facet normal  0.000000e+00  0.000000e+00  1.000000e+00
   outer loop
     vertex  1.880661e-01  2.703982e-02  1.000000e+00
     vertex  1.830285e-01  2.693622e-02  1.000000e+00
     vertex  1.850000e-01  0.000000e+00  1.000000e+00
   endloop
 endfacet
 facet normal  0.000000e+00  0.000000e+00  1.000000e+00
   outer loop
     vertex  2.703982e-02  1.880661e-01  1.000000e+00
     vertex  5.382262e-17  1.900000e-01  1.000000e+00
     vertex  2.023367e-02  1.838902e-01  1.000000e+00
   endloop
 endfacet
 facet normal  0.000000e+00  0.000000e+00  1.000000e+00
   outer loop
     vertex  4.679268e-02  1.789845e-01  1.000000e+00
     vertex  2.703982e-02  1.880661e-01  1.000000e+00
     vertex  2.023367e-02  1.838902e-01  1.000000e+00
   endloop
 endfacet
 facet normal  0.000000e+00  0.000000e+00  1.000000e+00
   outer loop
     vertex  5.352919e-02  1.823037e-01  1.000000e+00
     vertex  2.703982e-02  1.880661e-01  1.000000e+00
     vertex  4.679268e-02  1.789845e-01  1.000000e+00
   endloop
 endfacet
 facet normal  0.000000e+00  0.000000e+00  1.000000e+00
   outer loop
     vertex  1.823037e-01  5.352919e-02  1.000000e+00
     vertex  1.830285e-01  2.693622e-02  1.000000e+00
     vertex  1.880661e-01  2.703982e-02  1.000000e+00
   endloop
 endfacet
 facet normal  0.000000e+00  0.000000e+00  1.000000e+00
   outer loop
     vertex  1.823037e-01  5.352919e-02  1.000000e+00
     vertex  1.771561e-01  5.329833e-02  1.000000e+00
     vertex  1.830285e-01  2.693622e-02  1.000000e+00
   endloop
 endfacet
 facet normal  0.000000e+00  0.000000e+00  1.000000e+00
   outer loop
     vertex  7.235437e-02  1.702640e-01  1.000000e+00
     vertex  5.352919e-02  1.823037e-01  1.000000e+00
     vertex  4.679268e-02  1.789845e-01  1.000000e+00
   endloop
 endfacet
 facet normal  0.000000e+00  0.000000e+00  1.000000e+00
   outer loop
     vertex  1.728301e-01  7.892885e-02  1.000000e+00
     vertex  1.771561e-01  5.329833e-02  1.000000e+00
     vertex  1.823037e-01  5.352919e-02  1.000000e+00
   endloop
 endfacet
 facet normal  0.000000e+00  0.000000e+00  1.000000e+00
   outer loop
     vertex  1.728301e-01  7.892885e-02  1.000000e+00
     vertex  1.675079e-01  7.852449e-02  1.000000e+00
     vertex  1.771561e-01  5.329833e-02  1.000000e+00
   endloop
 endfacet
 facet normal  0.000000e+00  0.000000e+00  1.000000e+00
   outer loop
     vertex  7.892885e-02  1.728301e-01  1.000000e+00
     vertex  5.352919e-02  1.823037e-01  1.000000e+00
     vertex  7.235437e-02  1.702640e-01  1.000000e+00
   endloop
 endfacet
 facet normal  0.000000e+00  0.000000e+00  1.000000e+00
   outer loop
     vertex  9.637396e-02  1.579147e-01  1.000000e+00
     vertex  7.892885e-02  1.728301e-01  1.000000e+00
     vertex  7.235437e-02  1.702640e-01  1.000000e+00
   endloop
 endfacet
 facet normal  0.000000e+00  0.000000e+00  1.000000e+00
   outer loop
     vertex  1.027218e-01  1.598382e-01  1.000000e+00
     vertex  7.892885e-02  1.728301e-01  1.000000e+00
     vertex  9.637396e-02  1.579147e-01  1.000000e+00
   endloop
 endfacet
 facet normal  0.000000e+00  0.000000e+00  1.000000e+00
   outer loop
     vertex  1.027218e-01  1.598382e-01  1.000000e+00
     vertex  9.637396e-02  1.579147e-01  1.000000e+00
     vertex  1.183395e-01  1.421997e-01  1.000000e+00
   endloop
 endfacet
 facet normal  0.000000e+00  0.000000e+00  1.000000e+00
   outer loop
     vertex  1.598382e-01  1.027218e-01  1.000000e+00
     vertex  1.675079e-01  7.852449e-02  1.000000e+00
     vertex  1.728301e-01  7.892885e-02  1.000000e+00
   endloop
 endfacet
 facet normal  0.000000e+00  0.000000e+00  1.000000e+00
   outer loop
     vertex  1.598382e-01  1.027218e-01  1.000000e+00
     vertex  1.542896e-01  1.020770e-01  1.000000e+00
     vertex  1.675079e-01  7.852449e-02  1.000000e+00
   endloop
 endfacet
 facet normal  0.000000e+00  0.000000e+00  1.000000e+00
   outer loop
     vertex  1.435924e-01  1.244235e-01  1.000000e+00
     vertex  1.542896e-01  1.020770e-01  1.000000e+00
     vertex  1.598382e-01  1.027218e-01  1.000000e+00
   endloop
 endfacet
 facet normal  0.000000e+00  0.000000e+00  1.000000e+00
   outer loop
     vertex  1.435924e-01  1.244235e-01  1.000000e+00
     vertex  1.377829e-01  1.234540e-01  1.000000e+00
     vertex  1.542896e-01  1.020770e-01  1.000000e+00
   endloop
 endfacet
 facet normal  0.000000e+00  0.000000e+00  1.000000e+00
   outer loop
     vertex  1.244235e-01  1.435924e-01  1.000000e+00
     vertex  1.183395e-01  1.421997e-01  1.000000e+00
     vertex  1.377829e-01  1.234540e-01  1.000000e+00
   endloop
 endfacet
 facet normal  0.000000e+00  0.000000e+00  1.000000e+00
   outer loop
     vertex  1.244235e-01  1.435924e-01  1.000000e+00
     vertex  1.027218e-01  1.598382e-01  1.000000e+00
     vertex  1.183395e-01  1.421997e-01  1.000000e+00
   endloop
 endfacet
 facet normal  0.000000e+00  0.000000e+00  1.000000e+00
   outer loop
     vertex  1.244235e-01  1.435924e-01  1.000000e+00
     vertex  1.377829e-01  1.234540e-01  1.000000e+00
     vertex  1.435924e-01  1.244235e-01  1.000000e+00
   endloop
 endfacet
endsolid
