solid 
 facet normal  0.000000e+00  0.000000e+00  1.000000e+00
   outer loop
     vertex  1.003800e+02 -2.400000e+01  5.542500e+01
     vertex  1.005000e+02 -2.400000e+01  5.542500e+01
     vertex  1.005000e+02 -2.394000e+01  5.542500e+01
   endloop
 endfacet
 facet normal  0.000000e+00  0.000000e+00  1.000000e+00
   outer loop
     vertex  1.003800e+02 -2.400000e+01  5.542500e+01
     vertex  1.005000e+02 -2.394000e+01  5.542500e+01
     vertex  1.003800e+02 -2.394000e+01  5.542500e+01
   endloop
 endfacet
 facet normal  1.000000e+00  0.000000e+00  0.000000e+00
   outer loop
     vertex  1.005000e+02 -2.400000e+01  5.542500e+01
     vertex  1.005000e+02 -2.400000e+01  5.527500e+01
     vertex  1.005000e+02 -2.394000e+01  5.527500e+01
   endloop
 endfacet
 facet normal  1.000000e+00 -0.000000e+00  0.000000e+00
   outer loop
     vertex  1.005000e+02 -2.400000e+01  5.542500e+01
     vertex  1.005000e+02 -2.394000e+01  5.527500e+01
     vertex  1.005000e+02 -2.394000e+01  5.542500e+01
   endloop
 endfacet
 facet normal -1.000000e+00  0.000000e+00  0.000000e+00
   outer loop
     vertex  1.003800e+02 -2.400000e+01  5.527500e+01
     vertex  1.003800e+02 -2.400000e+01  5.542500e+01
     vertex  1.003800e+02 -2.394000e+01  5.542500e+01
   endloop
 endfacet
 facet normal -1.000000e+00  0.000000e+00  0.000000e+00
   outer loop
     vertex  1.003800e+02 -2.400000e+01  5.527500e+01
     vertex  1.003800e+02 -2.394000e+01  5.542500e+01
     vertex  1.003800e+02 -2.394000e+01  5.527500e+01
   endloop
 endfacet
 facet normal -0.000000e+00 -1.000000e+00  0.000000e+00
   outer loop
     vertex  1.005000e+02 -2.400000e+01  5.542500e+01
     vertex  1.003800e+02 -2.400000e+01  5.542500e+01
     vertex  1.003800e+02 -2.400000e+01  5.527500e+01
   endloop
 endfacet
 facet normal  0.000000e+00 -1.000000e+00 -0.000000e+00
   outer loop
     vertex  1.005000e+02 -2.400000e+01  5.542500e+01
     vertex  1.003800e+02 -2.400000e+01  5.527500e+01
     vertex  1.005000e+02 -2.400000e+01  5.527500e+01
   endloop
 endfacet
 facet normal  0.000000e+00  1.000000e+00  0.000000e+00
   outer loop
     vertex  1.005000e+02 -2.394000e+01  5.542500e+01
     vertex  1.003800e+02 -2.394000e+01  5.527500e+01
     vertex  1.003800e+02 -2.394000e+01  5.542500e+01
   endloop
 endfacet
 facet normal  0.000000e+00  1.000000e+00  0.000000e+00
   outer loop
     vertex  1.005000e+02 -2.394000e+01  5.542500e+01
     vertex  1.005000e+02 -2.394000e+01  5.527500e+01
     vertex  1.003800e+02 -2.394000e+01  5.527500e+01
   endloop
 endfacet
 facet normal  1.000000e+00  0.000000e+00  0.000000e+00
   outer loop
     vertex  1.005000e+02 -2.400000e+01  5.472500e+01
     vertex  1.005000e+02 -2.394000e+01  5.527500e+01
     vertex  1.005000e+02 -2.400000e+01  5.527500e+01
   endloop
 endfacet
 facet normal  1.000000e+00  0.000000e+00  0.000000e+00
   outer loop
     vertex  1.005000e+02 -2.400000e+01  5.472500e+01
     vertex  1.005000e+02 -2.394000e+01  5.472500e+01
     vertex  1.005000e+02 -2.394000e+01  5.527500e+01
   endloop
 endfacet
 facet normal -1.000000e+00  0.000000e+00  0.000000e+00
   outer loop
     vertex  1.003800e+02 -2.400000e+01  5.527500e+01
     vertex  1.003800e+02 -2.394000e+01  5.472500e+01
     vertex  1.003800e+02 -2.400000e+01  5.472500e+01
   endloop
 endfacet
 facet normal -1.000000e+00  0.000000e+00  0.000000e+00
   outer loop
     vertex  1.003800e+02 -2.400000e+01  5.527500e+01
     vertex  1.003800e+02 -2.394000e+01  5.527500e+01
     vertex  1.003800e+02 -2.394000e+01  5.472500e+01
   endloop
 endfacet
 facet normal -0.000000e+00 -1.000000e+00  0.000000e+00
   outer loop
     vertex  1.005000e+02 -2.400000e+01  5.527500e+01
     vertex  1.003800e+02 -2.400000e+01  5.527500e+01
     vertex  1.003800e+02 -2.400000e+01  5.472500e+01
   endloop
 endfacet
 facet normal  0.000000e+00 -1.000000e+00 -0.000000e+00
   outer loop
     vertex  1.005000e+02 -2.400000e+01  5.527500e+01
     vertex  1.003800e+02 -2.400000e+01  5.472500e+01
     vertex  1.005000e+02 -2.400000e+01  5.472500e+01
   endloop
 endfacet
 facet normal  0.000000e+00  1.000000e+00  0.000000e+00
   outer loop
     vertex  1.005000e+02 -2.394000e+01  5.527500e+01
     vertex  1.003800e+02 -2.394000e+01  5.472500e+01
     vertex  1.003800e+02 -2.394000e+01  5.527500e+01
   endloop
 endfacet
 facet normal  0.000000e+00  1.000000e+00  0.000000e+00
   outer loop
     vertex  1.005000e+02 -2.394000e+01  5.527500e+01
     vertex  1.005000e+02 -2.394000e+01  5.472500e+01
     vertex  1.003800e+02 -2.394000e+01  5.472500e+01
   endloop
 endfacet
 facet normal  0.000000e+00  0.000000e+00 -1.000000e+00
   outer loop
     vertex  1.003800e+02 -2.400000e+01  5.472500e+01
     vertex  1.005000e+02 -2.394000e+01  5.472500e+01
     vertex  1.005000e+02 -2.400000e+01  5.472500e+01
   endloop
 endfacet
 facet normal  0.000000e+00  0.000000e+00 -1.000000e+00
   outer loop
     vertex  1.003800e+02 -2.400000e+01  5.472500e+01
     vertex  1.003800e+02 -2.394000e+01  5.472500e+01
     vertex  1.005000e+02 -2.394000e+01  5.472500e+01
   endloop
 endfacet
 facet normal  0.000000e+00  0.000000e+00  1.000000e+00
   outer loop
     vertex  9.962000e+01 -2.400000e+01  5.542500e+01
     vertex  9.950000e+01 -2.394000e+01  5.542500e+01
     vertex  9.950000e+01 -2.400000e+01  5.542500e+01
   endloop
 endfacet
 facet normal  0.000000e+00 -0.000000e+00  1.000000e+00
   outer loop
     vertex  9.962000e+01 -2.400000e+01  5.542500e+01
     vertex  9.962000e+01 -2.394000e+01  5.542500e+01
     vertex  9.950000e+01 -2.394000e+01  5.542500e+01
   endloop
 endfacet
 facet normal -1.000000e+00  0.000000e+00  0.000000e+00
   outer loop
     vertex  9.950000e+01 -2.400000e+01  5.542500e+01
     vertex  9.950000e+01 -2.394000e+01  5.527500e+01
     vertex  9.950000e+01 -2.400000e+01  5.527500e+01
   endloop
 endfacet
 facet normal -1.000000e+00  0.000000e+00  0.000000e+00
   outer loop
     vertex  9.950000e+01 -2.400000e+01  5.542500e+01
     vertex  9.950000e+01 -2.394000e+01  5.542500e+01
     vertex  9.950000e+01 -2.394000e+01  5.527500e+01
   endloop
 endfacet
 facet normal  1.000000e+00  0.000000e+00  0.000000e+00
   outer loop
     vertex  9.962000e+01 -2.400000e+01  5.527500e+01
     vertex  9.962000e+01 -2.394000e+01  5.542500e+01
     vertex  9.962000e+01 -2.400000e+01  5.542500e+01
   endloop
 endfacet
 facet normal  1.000000e+00  0.000000e+00  0.000000e+00
   outer loop
     vertex  9.962000e+01 -2.400000e+01  5.527500e+01
     vertex  9.962000e+01 -2.394000e+01  5.527500e+01
     vertex  9.962000e+01 -2.394000e+01  5.542500e+01
   endloop
 endfacet
 facet normal -0.000000e+00 -1.000000e+00  0.000000e+00
   outer loop
     vertex  9.962000e+01 -2.400000e+01  5.542500e+01
     vertex  9.950000e+01 -2.400000e+01  5.542500e+01
     vertex  9.950000e+01 -2.400000e+01  5.527500e+01
   endloop
 endfacet
 facet normal  0.000000e+00 -1.000000e+00 -0.000000e+00
   outer loop
     vertex  9.962000e+01 -2.400000e+01  5.542500e+01
     vertex  9.950000e+01 -2.400000e+01  5.527500e+01
     vertex  9.962000e+01 -2.400000e+01  5.527500e+01
   endloop
 endfacet
 facet normal  0.000000e+00  1.000000e+00  0.000000e+00
   outer loop
     vertex  9.962000e+01 -2.394000e+01  5.542500e+01
     vertex  9.950000e+01 -2.394000e+01  5.527500e+01
     vertex  9.950000e+01 -2.394000e+01  5.542500e+01
   endloop
 endfacet
 facet normal  0.000000e+00  1.000000e+00  0.000000e+00
   outer loop
     vertex  9.962000e+01 -2.394000e+01  5.542500e+01
     vertex  9.962000e+01 -2.394000e+01  5.527500e+01
     vertex  9.950000e+01 -2.394000e+01  5.527500e+01
   endloop
 endfacet
 facet normal -1.000000e+00  0.000000e+00  0.000000e+00
   outer loop
     vertex  9.950000e+01 -2.400000e+01  5.472500e+01
     vertex  9.950000e+01 -2.400000e+01  5.527500e+01
     vertex  9.950000e+01 -2.394000e+01  5.527500e+01
   endloop
 endfacet
 facet normal -1.000000e+00  0.000000e+00  0.000000e+00
   outer loop
     vertex  9.950000e+01 -2.400000e+01  5.472500e+01
     vertex  9.950000e+01 -2.394000e+01  5.527500e+01
     vertex  9.950000e+01 -2.394000e+01  5.472500e+01
   endloop
 endfacet
 facet normal  1.000000e+00  0.000000e+00  0.000000e+00
   outer loop
     vertex  9.962000e+01 -2.400000e+01  5.527500e+01
     vertex  9.962000e+01 -2.400000e+01  5.472500e+01
     vertex  9.962000e+01 -2.394000e+01  5.472500e+01
   endloop
 endfacet
 facet normal  1.000000e+00 -0.000000e+00  0.000000e+00
   outer loop
     vertex  9.962000e+01 -2.400000e+01  5.527500e+01
     vertex  9.962000e+01 -2.394000e+01  5.472500e+01
     vertex  9.962000e+01 -2.394000e+01  5.527500e+01
   endloop
 endfacet
 facet normal  0.000000e+00 -1.000000e+00 -0.000000e+00
   outer loop
     vertex  9.962000e+01 -2.400000e+01  5.527500e+01
     vertex  9.950000e+01 -2.400000e+01  5.472500e+01
     vertex  9.962000e+01 -2.400000e+01  5.472500e+01
   endloop
 endfacet
 facet normal -0.000000e+00 -1.000000e+00  0.000000e+00
   outer loop
     vertex  9.962000e+01 -2.400000e+01  5.527500e+01
     vertex  9.950000e+01 -2.400000e+01  5.527500e+01
     vertex  9.950000e+01 -2.400000e+01  5.472500e+01
   endloop
 endfacet
 facet normal  0.000000e+00  1.000000e+00  0.000000e+00
   outer loop
     vertex  9.962000e+01 -2.394000e+01  5.527500e+01
     vertex  9.962000e+01 -2.394000e+01  5.472500e+01
     vertex  9.950000e+01 -2.394000e+01  5.472500e+01
   endloop
 endfacet
 facet normal  0.000000e+00  1.000000e+00  0.000000e+00
   outer loop
     vertex  9.962000e+01 -2.394000e+01  5.527500e+01
     vertex  9.950000e+01 -2.394000e+01  5.472500e+01
     vertex  9.950000e+01 -2.394000e+01  5.527500e+01
   endloop
 endfacet
 facet normal  0.000000e+00  0.000000e+00 -1.000000e+00
   outer loop
     vertex  9.962000e+01 -2.400000e+01  5.472500e+01
     vertex  9.950000e+01 -2.400000e+01  5.472500e+01
     vertex  9.950000e+01 -2.394000e+01  5.472500e+01
   endloop
 endfacet
 facet normal  0.000000e+00  0.000000e+00 -1.000000e+00
   outer loop
     vertex  9.962000e+01 -2.400000e+01  5.472500e+01
     vertex  9.950000e+01 -2.394000e+01  5.472500e+01
     vertex  9.962000e+01 -2.394000e+01  5.472500e+01
   endloop
 endfacet
 facet normal  1.000000e+00  0.000000e+00  0.000000e+00
   outer loop
     vertex  0.000000e+00  7.000000e-01  0.000000e+00
     vertex  0.000000e+00  0.000000e+00  1.000000e+00
     vertex  0.000000e+00  0.000000e+00  0.000000e+00
   endloop
 endfacet
 facet normal  1.000000e+00  0.000000e+00 -0.000000e+00
   outer loop
     vertex  0.000000e+00  7.000000e-01  0.000000e+00
     vertex  0.000000e+00  7.000000e-01  1.000000e+00
     vertex  0.000000e+00  0.000000e+00  1.000000e+00
   endloop
 endfacet
 facet normal  0.000000e+00  1.000000e+00  0.000000e+00
   outer loop
     vertex -1.200000e-01  7.000000e-01  0.000000e+00
     vertex  0.000000e+00  7.000000e-01  1.000000e+00
     vertex  0.000000e+00  7.000000e-01  0.000000e+00
   endloop
 endfacet
 facet normal  0.000000e+00  1.000000e+00  0.000000e+00
   outer loop
     vertex -1.200000e-01  7.000000e-01  0.000000e+00
     vertex -1.200000e-01  7.000000e-01  1.000000e+00
     vertex  0.000000e+00  7.000000e-01  1.000000e+00
   endloop
 endfacet
 facet normal -1.000000e+00  0.000000e+00  0.000000e+00
   outer loop
     vertex -1.200000e-01  6.000000e-01  0.000000e+00
     vertex -1.200000e-01  7.000000e-01  1.000000e+00
     vertex -1.200000e-01  7.000000e-01  0.000000e+00
   endloop
 endfacet
 facet normal -1.000000e+00  0.000000e+00  0.000000e+00
   outer loop
     vertex -1.200000e-01  6.000000e-01  0.000000e+00
     vertex -1.200000e-01  6.000000e-01  1.000000e+00
     vertex -1.200000e-01  7.000000e-01  1.000000e+00
   endloop
 endfacet
 facet normal  0.000000e+00 -1.000000e+00  0.000000e+00
   outer loop
     vertex -9.000000e-02  6.000000e-01  0.000000e+00
     vertex -1.200000e-01  6.000000e-01  1.000000e+00
     vertex -1.200000e-01  6.000000e-01  0.000000e+00
   endloop
 endfacet
 facet normal  0.000000e+00 -1.000000e+00  0.000000e+00
   outer loop
     vertex -9.000000e-02  6.000000e-01  0.000000e+00
     vertex -9.000000e-02  6.000000e-01  1.000000e+00
     vertex -1.200000e-01  6.000000e-01  1.000000e+00
   endloop
 endfacet
 facet normal -1.000000e+00  0.000000e+00  0.000000e+00
   outer loop
     vertex -9.000000e-02  5.500000e-01  0.000000e+00
     vertex -9.000000e-02  6.000000e-01  1.000000e+00
     vertex -9.000000e-02  6.000000e-01  0.000000e+00
   endloop
 endfacet
 facet normal -1.000000e+00  0.000000e+00  0.000000e+00
   outer loop
     vertex -9.000000e-02  5.500000e-01  0.000000e+00
     vertex -9.000000e-02  5.500000e-01  1.000000e+00
     vertex -9.000000e-02  6.000000e-01  1.000000e+00
   endloop
 endfacet
 facet normal  0.000000e+00  1.000000e+00  0.000000e+00
   outer loop
     vertex -1.200000e-01  5.500000e-01  0.000000e+00
     vertex -9.000000e-02  5.500000e-01  1.000000e+00
     vertex -9.000000e-02  5.500000e-01  0.000000e+00
   endloop
 endfacet
 facet normal  0.000000e+00  1.000000e+00  0.000000e+00
   outer loop
     vertex -1.200000e-01  5.500000e-01  0.000000e+00
     vertex -1.200000e-01  5.500000e-01  1.000000e+00
     vertex -9.000000e-02  5.500000e-01  1.000000e+00
   endloop
 endfacet
 facet normal -1.000000e+00  0.000000e+00  0.000000e+00
   outer loop
     vertex -1.200000e-01  0.000000e+00  0.000000e+00
     vertex -1.200000e-01  5.500000e-01  1.000000e+00
     vertex -1.200000e-01  5.500000e-01  0.000000e+00
   endloop
 endfacet
 facet normal -1.000000e+00  0.000000e+00  0.000000e+00
   outer loop
     vertex -1.200000e-01  0.000000e+00  0.000000e+00
     vertex -1.200000e-01  0.000000e+00  1.000000e+00
     vertex -1.200000e-01  5.500000e-01  1.000000e+00
   endloop
 endfacet
 facet normal  0.000000e+00 -1.000000e+00  0.000000e+00
   outer loop
     vertex -1.200000e-01  0.000000e+00  0.000000e+00
     vertex  0.000000e+00  0.000000e+00  0.000000e+00
     vertex  0.000000e+00  0.000000e+00  1.000000e+00
   endloop
 endfacet
 facet normal  0.000000e+00 -1.000000e+00  0.000000e+00
   outer loop
     vertex -1.200000e-01  0.000000e+00  0.000000e+00
     vertex  0.000000e+00  0.000000e+00  1.000000e+00
     vertex -1.200000e-01  0.000000e+00  1.000000e+00
   endloop
 endfacet
 facet normal -0.000000e+00  0.000000e+00 -1.000000e+00
   outer loop
     vertex -9.000000e-02  5.500000e-01  0.000000e+00
     vertex -1.200000e-01  0.000000e+00  0.000000e+00
     vertex -1.200000e-01  5.500000e-01  0.000000e+00
   endloop
 endfacet
 facet normal  0.000000e+00 -0.000000e+00 -1.000000e+00
   outer loop
     vertex -9.000000e-02  5.500000e-01  0.000000e+00
     vertex  0.000000e+00  0.000000e+00  0.000000e+00
     vertex -1.200000e-01  0.000000e+00  0.000000e+00
   endloop
 endfacet
 facet normal  0.000000e+00  0.000000e+00 -1.000000e+00
   outer loop
     vertex -1.200000e-01  7.000000e-01  0.000000e+00
     vertex -9.000000e-02  6.000000e-01  0.000000e+00
     vertex -1.200000e-01  6.000000e-01  0.000000e+00
   endloop
 endfacet
 facet normal  0.000000e+00  0.000000e+00 -1.000000e+00
   outer loop
     vertex  0.000000e+00  7.000000e-01  0.000000e+00
     vertex -9.000000e-02  5.500000e-01  0.000000e+00
     vertex -9.000000e-02  6.000000e-01  0.000000e+00
   endloop
 endfacet
 facet normal  0.000000e+00 -0.000000e+00 -1.000000e+00
   outer loop
     vertex  0.000000e+00  7.000000e-01  0.000000e+00
     vertex  0.000000e+00  0.000000e+00  0.000000e+00
     vertex -9.000000e-02  5.500000e-01  0.000000e+00
   endloop
 endfacet
 facet normal -0.000000e+00  0.000000e+00 -1.000000e+00
   outer loop
     vertex  0.000000e+00  7.000000e-01  0.000000e+00
     vertex -9.000000e-02  6.000000e-01  0.000000e+00
     vertex -1.200000e-01  7.000000e-01  0.000000e+00
   endloop
 endfacet
 facet normal  0.000000e+00  0.000000e+00  1.000000e+00
   outer loop
     vertex -9.000000e-02  5.500000e-01  1.000000e+00
     vertex -1.200000e-01  5.500000e-01  1.000000e+00
     vertex -1.200000e-01  0.000000e+00  1.000000e+00
   endloop
 endfacet
 facet normal  0.000000e+00  0.000000e+00  1.000000e+00
   outer loop
     vertex -9.000000e-02  5.500000e-01  1.000000e+00
     vertex -1.200000e-01  0.000000e+00  1.000000e+00
     vertex  0.000000e+00  0.000000e+00  1.000000e+00
   endloop
 endfacet
 facet normal  0.000000e+00  0.000000e+00  1.000000e+00
   outer loop
     vertex -1.200000e-01  7.000000e-01  1.000000e+00
     vertex -1.200000e-01  6.000000e-01  1.000000e+00
     vertex -9.000000e-02  6.000000e-01  1.000000e+00
   endloop
 endfacet
 facet normal  0.000000e+00  0.000000e+00  1.000000e+00
   outer loop
     vertex  0.000000e+00  7.000000e-01  1.000000e+00
     vertex -9.000000e-02  6.000000e-01  1.000000e+00
     vertex -9.000000e-02  5.500000e-01  1.000000e+00
   endloop
 endfacet
 facet normal  0.000000e+00  0.000000e+00  1.000000e+00
   outer loop
     vertex  0.000000e+00  7.000000e-01  1.000000e+00
     vertex -9.000000e-02  5.500000e-01  1.000000e+00
     vertex  0.000000e+00  0.000000e+00  1.000000e+00
   endloop
 endfacet
 facet normal  0.000000e+00  0.000000e+00  1.000000e+00
   outer loop
     vertex  0.000000e+00  7.000000e-01  1.000000e+00
     vertex -1.200000e-01  7.000000e-01  1.000000e+00
     vertex -9.000000e-02  6.000000e-01  1.000000e+00
   endloop
 endfacet
endsolid
