solid 
 facet normal -1.000000e+00  0.000000e+00  0.000000e+00
   outer loop
     vertex  0.000000e+00  4.000000e-02  0.000000e+00
     vertex  0.000000e+00  0.000000e+00  0.000000e+00
     vertex  0.000000e+00  0.000000e+00  1.000000e+00
   endloop
 endfacet
 facet normal -1.000000e+00  0.000000e+00  0.000000e+00
   outer loop
     vertex  0.000000e+00  4.000000e-02  0.000000e+00
     vertex  0.000000e+00  0.000000e+00  1.000000e+00
     vertex  0.000000e+00  4.000000e-02  1.000000e+00
   endloop
 endfacet
 facet normal  0.000000e+00  1.000000e+00  0.000000e+00
   outer loop
     vertex  3.500000e-02  4.000000e-02  0.000000e+00
     vertex  0.000000e+00  4.000000e-02  0.000000e+00
     vertex  0.000000e+00  4.000000e-02  1.000000e+00
   endloop
 endfacet
 facet normal  0.000000e+00  1.000000e+00 -0.000000e+00
   outer loop
     vertex  3.500000e-02  4.000000e-02  0.000000e+00
     vertex  0.000000e+00  4.000000e-02  1.000000e+00
     vertex  3.500000e-02  4.000000e-02  1.000000e+00
   endloop
 endfacet
 facet normal -1.000000e+00  0.000000e+00  0.000000e+00
   outer loop
     vertex  3.500000e-02  8.000000e-02  0.000000e+00
     vertex  3.500000e-02  4.000000e-02  0.000000e+00
     vertex  3.500000e-02  4.000000e-02  1.000000e+00
   endloop
 endfacet
 facet normal -1.000000e+00  0.000000e+00  0.000000e+00
   outer loop
     vertex  3.500000e-02  8.000000e-02  0.000000e+00
     vertex  3.500000e-02  4.000000e-02  1.000000e+00
     vertex  3.500000e-02  8.000000e-02  1.000000e+00
   endloop
 endfacet
 facet normal  0.000000e+00  1.000000e+00  0.000000e+00
   outer loop
     vertex  4.000000e-02  8.000000e-02  0.000000e+00
     vertex  3.500000e-02  8.000000e-02  0.000000e+00
     vertex  3.500000e-02  8.000000e-02  1.000000e+00
   endloop
 endfacet
 facet normal  0.000000e+00  1.000000e+00 -0.000000e+00
   outer loop
     vertex  4.000000e-02  8.000000e-02  0.000000e+00
     vertex  3.500000e-02  8.000000e-02  1.000000e+00
     vertex  4.000000e-02  8.000000e-02  1.000000e+00
   endloop
 endfacet
 facet normal  1.000000e+00  0.000000e+00  0.000000e+00
   outer loop
     vertex  4.000000e-02  0.000000e+00  0.000000e+00
     vertex  4.000000e-02  8.000000e-02  0.000000e+00
     vertex  4.000000e-02  8.000000e-02  1.000000e+00
   endloop
 endfacet
 facet normal  1.000000e+00  0.000000e+00  0.000000e+00
   outer loop
     vertex  4.000000e-02  0.000000e+00  0.000000e+00
     vertex  4.000000e-02  8.000000e-02  1.000000e+00
     vertex  4.000000e-02  0.000000e+00  1.000000e+00
   endloop
 endfacet
 facet normal  0.000000e+00 -1.000000e+00  0.000000e+00
   outer loop
     vertex  4.000000e-02  0.000000e+00  0.000000e+00
     vertex  0.000000e+00  0.000000e+00  1.000000e+00
     vertex  0.000000e+00  0.000000e+00  0.000000e+00
   endloop
 endfacet
 facet normal  0.000000e+00 -1.000000e+00  0.000000e+00
   outer loop
     vertex  4.000000e-02  0.000000e+00  0.000000e+00
     vertex  4.000000e-02  0.000000e+00  1.000000e+00
     vertex  0.000000e+00  0.000000e+00  1.000000e+00
   endloop
 endfacet
 facet normal  0.000000e+00 -0.000000e+00 -1.000000e+00
   outer loop
     vertex  3.500000e-02  4.000000e-02  0.000000e+00
     vertex  4.000000e-02  0.000000e+00  0.000000e+00
     vertex  0.000000e+00  0.000000e+00  0.000000e+00
   endloop
 endfacet
 facet normal -0.000000e+00  0.000000e+00 -1.000000e+00
   outer loop
     vertex  3.500000e-02  4.000000e-02  0.000000e+00
     vertex  0.000000e+00  0.000000e+00  0.000000e+00
     vertex  0.000000e+00  4.000000e-02  0.000000e+00
   endloop
 endfacet
 facet normal -0.000000e+00  0.000000e+00 -1.000000e+00
   outer loop
     vertex  4.000000e-02  8.000000e-02  0.000000e+00
     vertex  3.500000e-02  4.000000e-02  0.000000e+00
     vertex  3.500000e-02  8.000000e-02  0.000000e+00
   endloop
 endfacet
 facet normal  0.000000e+00  0.000000e+00 -1.000000e+00
   outer loop
     vertex  4.000000e-02  0.000000e+00  0.000000e+00
     vertex  3.500000e-02  4.000000e-02  0.000000e+00
     vertex  4.000000e-02  8.000000e-02  0.000000e+00
   endloop
 endfacet
 facet normal  0.000000e+00  0.000000e+00  1.000000e+00
   outer loop
     vertex  3.500000e-02  4.000000e-02  1.000000e+00
     vertex  0.000000e+00  0.000000e+00  1.000000e+00
     vertex  4.000000e-02  0.000000e+00  1.000000e+00
   endloop
 endfacet
 facet normal  0.000000e+00  0.000000e+00  1.000000e+00
   outer loop
     vertex  3.500000e-02  4.000000e-02  1.000000e+00
     vertex  0.000000e+00  4.000000e-02  1.000000e+00
     vertex  0.000000e+00  0.000000e+00  1.000000e+00
   endloop
 endfacet
 facet normal  0.000000e+00  0.000000e+00  1.000000e+00
   outer loop
     vertex  4.000000e-02  8.000000e-02  1.000000e+00
     vertex  3.500000e-02  8.000000e-02  1.000000e+00
     vertex  3.500000e-02  4.000000e-02  1.000000e+00
   endloop
 endfacet
 facet normal  0.000000e+00 -0.000000e+00  1.000000e+00
   outer loop
     vertex  4.000000e-02  0.000000e+00  1.000000e+00
     vertex  4.000000e-02  8.000000e-02  1.000000e+00
     vertex  3.500000e-02  4.000000e-02  1.000000e+00
   endloop
 endfacet
 facet normal  0.000000e+00  0.000000e+00 -1.000000e+00
   outer loop
     vertex  3.980000e+00  1.600000e+01  1.000050e+02
     vertex  4.020000e+00  1.600000e+01  1.000050e+02
     vertex  4.020000e+00  1.598500e+01  1.000050e+02
   endloop
 endfacet
 facet normal  0.000000e+00  0.000000e+00 -1.000000e+00
   outer loop
     vertex  3.980000e+00  1.600000e+01  1.000050e+02
     vertex  4.020000e+00  1.598500e+01  1.000050e+02
     vertex  3.980000e+00  1.598500e+01  1.000050e+02
   endloop
 endfacet
 facet normal -1.000000e+00  0.000000e+00 -0.000000e+00
   outer loop
     vertex  3.980000e+00  1.600000e+01  1.000350e+02
     vertex  3.980000e+00  1.600000e+01  1.000050e+02
     vertex  3.980000e+00  1.598500e+01  1.000050e+02
   endloop
 endfacet
 facet normal -1.000000e+00 -0.000000e+00  0.000000e+00
   outer loop
     vertex  3.980000e+00  1.600000e+01  1.000350e+02
     vertex  3.980000e+00  1.598500e+01  1.000050e+02
     vertex  3.980000e+00  1.598500e+01  1.000350e+02
   endloop
 endfacet
 facet normal -0.000000e+00  0.000000e+00  1.000000e+00
   outer loop
     vertex  3.980000e+00  1.600000e+01  1.000350e+02
     vertex  4.020000e+00  1.598500e+01  1.000350e+02
     vertex  4.020000e+00  1.600000e+01  1.000350e+02
   endloop
 endfacet
 facet normal  0.000000e+00  0.000000e+00  1.000000e+00
   outer loop
     vertex  3.980000e+00  1.600000e+01  1.000350e+02
     vertex  3.980000e+00  1.598500e+01  1.000350e+02
     vertex  4.020000e+00  1.598500e+01  1.000350e+02
   endloop
 endfacet
 facet normal  1.000000e+00  0.000000e+00  0.000000e+00
   outer loop
     vertex  4.020000e+00  1.600000e+01  1.000350e+02
     vertex  4.020000e+00  1.598500e+01  1.000050e+02
     vertex  4.020000e+00  1.600000e+01  1.000050e+02
   endloop
 endfacet
 facet normal  1.000000e+00  0.000000e+00  0.000000e+00
   outer loop
     vertex  4.020000e+00  1.600000e+01  1.000350e+02
     vertex  4.020000e+00  1.598500e+01  1.000350e+02
     vertex  4.020000e+00  1.598500e+01  1.000050e+02
   endloop
 endfacet
 facet normal  0.000000e+00  1.000000e+00  0.000000e+00
   outer loop
     vertex  3.980000e+00  1.600000e+01  1.000350e+02
     vertex  4.020000e+00  1.600000e+01  1.000050e+02
     vertex  3.980000e+00  1.600000e+01  1.000050e+02
   endloop
 endfacet
 facet normal -0.000000e+00  1.000000e+00  0.000000e+00
   outer loop
     vertex  3.980000e+00  1.600000e+01  1.000350e+02
     vertex  4.020000e+00  1.600000e+01  1.000350e+02
     vertex  4.020000e+00  1.600000e+01  1.000050e+02
   endloop
 endfacet
 facet normal  0.000000e+00 -1.000000e+00  0.000000e+00
   outer loop
     vertex  3.980000e+00  1.598500e+01  1.000350e+02
     vertex  3.980000e+00  1.598500e+01  1.000050e+02
     vertex  4.020000e+00  1.598500e+01  1.000050e+02
   endloop
 endfacet
 facet normal  0.000000e+00 -1.000000e+00  0.000000e+00
   outer loop
     vertex  3.980000e+00  1.598500e+01  1.000350e+02
     vertex  4.020000e+00  1.598500e+01  1.000050e+02
     vertex  4.020000e+00  1.598500e+01  1.000350e+02
   endloop
 endfacet
endsolid
