solid 
 facet normal  9.927089e-01  1.205367e-01  0.000000e+00
   outer loop
     vertex  4.854709e-02  1.196578e-02  2.000000e+01
     vertex  5.000000e-02  0.000000e+00  2.000000e+01
     vertex  5.000000e-02  0.000000e+00  1.983500e+01
   endloop
 endfacet
 facet normal  9.927089e-01  1.205367e-01  0.000000e+00
   outer loop
     vertex  4.854709e-02  1.196578e-02  2.000000e+01
     vertex  5.000000e-02  0.000000e+00  1.983500e+01
     vertex  4.854709e-02  1.196578e-02  1.983500e+01
   endloop
 endfacet
 facet normal  9.350162e-01  3.546049e-01  0.000000e+00
   outer loop
     vertex  4.427280e-02  2.323616e-02  2.000000e+01
     vertex  4.854709e-02  1.196578e-02  1.983500e+01
     vertex  4.427280e-02  2.323616e-02  1.983500e+01
   endloop
 endfacet
 facet normal  9.350162e-01  3.546049e-01  0.000000e+00
   outer loop
     vertex  4.427280e-02  2.323616e-02  2.000000e+01
     vertex  4.854709e-02  1.196578e-02  2.000000e+01
     vertex  4.854709e-02  1.196578e-02  1.983500e+01
   endloop
 endfacet
 facet normal  8.229839e-01  5.680647e-01  0.000000e+00
   outer loop
     vertex  3.742554e-02  3.315613e-02  2.000000e+01
     vertex  4.427280e-02  2.323616e-02  1.983500e+01
     vertex  3.742554e-02  3.315613e-02  1.983500e+01
   endloop
 endfacet
 facet normal  8.229839e-01  5.680647e-01  0.000000e+00
   outer loop
     vertex  3.742554e-02  3.315613e-02  2.000000e+01
     vertex  4.427280e-02  2.323616e-02  2.000000e+01
     vertex  4.427280e-02  2.323616e-02  1.983500e+01
   endloop
 endfacet
 facet normal  6.631227e-01  7.485107e-01  0.000000e+00
   outer loop
     vertex  2.840324e-02  4.114919e-02  2.000000e+01
     vertex  3.742554e-02  3.315613e-02  1.983500e+01
     vertex  2.840324e-02  4.114919e-02  1.983500e+01
   endloop
 endfacet
 facet normal  6.631227e-01  7.485107e-01  0.000000e+00
   outer loop
     vertex  2.840324e-02  4.114919e-02  2.000000e+01
     vertex  3.742554e-02  3.315613e-02  2.000000e+01
     vertex  3.742554e-02  3.315613e-02  1.983500e+01
   endloop
 endfacet
 facet normal  4.647232e-01  8.854560e-01  0.000000e+00
   outer loop
     vertex  1.773024e-02  4.675081e-02  2.000000e+01
     vertex  2.840324e-02  4.114919e-02  1.983500e+01
     vertex  1.773024e-02  4.675081e-02  1.983500e+01
   endloop
 endfacet
 facet normal  4.647232e-01  8.854560e-01  0.000000e+00
   outer loop
     vertex  1.773024e-02  4.675081e-02  2.000000e+01
     vertex  2.840324e-02  4.114919e-02  2.000000e+01
     vertex  2.840324e-02  4.114919e-02  1.983500e+01
   endloop
 endfacet
 facet normal  2.393157e-01  9.709418e-01  0.000000e+00
   outer loop
     vertex  6.026834e-03  4.963544e-02  2.000000e+01
     vertex  1.773024e-02  4.675081e-02  1.983500e+01
     vertex  6.026834e-03  4.963544e-02  1.983500e+01
   endloop
 endfacet
 facet normal  2.393157e-01  9.709418e-01  0.000000e+00
   outer loop
     vertex  6.026834e-03  4.963544e-02  2.000000e+01
     vertex  1.773024e-02  4.675081e-02  2.000000e+01
     vertex  1.773024e-02  4.675081e-02  1.983500e+01
   endloop
 endfacet
 facet normal  0.000000e+00  1.000000e+00  0.000000e+00
   outer loop
     vertex -6.026834e-03  4.963544e-02  2.000000e+01
     vertex  6.026834e-03  4.963544e-02  1.983500e+01
     vertex -6.026834e-03  4.963544e-02  1.983500e+01
   endloop
 endfacet
 facet normal -0.000000e+00  1.000000e+00  0.000000e+00
   outer loop
     vertex -6.026834e-03  4.963544e-02  2.000000e+01
     vertex  6.026834e-03  4.963544e-02  2.000000e+01
     vertex  6.026834e-03  4.963544e-02  1.983500e+01
   endloop
 endfacet
 facet normal -2.393157e-01  9.709418e-01  0.000000e+00
   outer loop
     vertex -1.773024e-02  4.675081e-02  2.000000e+01
     vertex -6.026834e-03  4.963544e-02  1.983500e+01
     vertex -1.773024e-02  4.675081e-02  1.983500e+01
   endloop
 endfacet
 facet normal -2.393157e-01  9.709418e-01  0.000000e+00
   outer loop
     vertex -1.773024e-02  4.675081e-02  2.000000e+01
     vertex -6.026834e-03  4.963544e-02  2.000000e+01
     vertex -6.026834e-03  4.963544e-02  1.983500e+01
   endloop
 endfacet
 facet normal -4.647232e-01  8.854560e-01  0.000000e+00
   outer loop
     vertex -2.840324e-02  4.114919e-02  2.000000e+01
     vertex -1.773024e-02  4.675081e-02  1.983500e+01
     vertex -2.840324e-02  4.114919e-02  1.983500e+01
   endloop
 endfacet
 facet normal -4.647232e-01  8.854560e-01  0.000000e+00
   outer loop
     vertex -2.840324e-02  4.114919e-02  2.000000e+01
     vertex -1.773024e-02  4.675081e-02  2.000000e+01
     vertex -1.773024e-02  4.675081e-02  1.983500e+01
   endloop
 endfacet
 facet normal -6.631227e-01  7.485107e-01  0.000000e+00
   outer loop
     vertex -3.742554e-02  3.315613e-02  2.000000e+01
     vertex -2.840324e-02  4.114919e-02  1.983500e+01
     vertex -3.742554e-02  3.315613e-02  1.983500e+01
   endloop
 endfacet
 facet normal -6.631227e-01  7.485107e-01  0.000000e+00
   outer loop
     vertex -3.742554e-02  3.315613e-02  2.000000e+01
     vertex -2.840324e-02  4.114919e-02  2.000000e+01
     vertex -2.840324e-02  4.114919e-02  1.983500e+01
   endloop
 endfacet
 facet normal -8.229839e-01  5.680647e-01  0.000000e+00
   outer loop
     vertex -4.427280e-02  2.323616e-02  2.000000e+01
     vertex -3.742554e-02  3.315613e-02  2.000000e+01
     vertex -3.742554e-02  3.315613e-02  1.983500e+01
   endloop
 endfacet
 facet normal -8.229839e-01  5.680647e-01  0.000000e+00
   outer loop
     vertex -4.427280e-02  2.323616e-02  2.000000e+01
     vertex -3.742554e-02  3.315613e-02  1.983500e+01
     vertex -4.427280e-02  2.323616e-02  1.983500e+01
   endloop
 endfacet
 facet normal -9.350162e-01  3.546049e-01  0.000000e+00
   outer loop
     vertex -4.854709e-02  1.196578e-02  2.000000e+01
     vertex -4.427280e-02  2.323616e-02  2.000000e+01
     vertex -4.427280e-02  2.323616e-02  1.983500e+01
   endloop
 endfacet
 facet normal -9.350162e-01  3.546049e-01  0.000000e+00
   outer loop
     vertex -4.854709e-02  1.196578e-02  2.000000e+01
     vertex -4.427280e-02  2.323616e-02  1.983500e+01
     vertex -4.854709e-02  1.196578e-02  1.983500e+01
   endloop
 endfacet
 facet normal -9.927089e-01  1.205367e-01  0.000000e+00
   outer loop
     vertex -5.000000e-02  5.053215e-17  2.000000e+01
     vertex -4.854709e-02  1.196578e-02  2.000000e+01
     vertex -4.854709e-02  1.196578e-02  1.983500e+01
   endloop
 endfacet
 facet normal -9.927089e-01  1.205367e-01  0.000000e+00
   outer loop
     vertex -5.000000e-02  5.053215e-17  2.000000e+01
     vertex -4.854709e-02  1.196578e-02  1.983500e+01
     vertex -5.000000e-02  5.053215e-17  1.983500e+01
   endloop
 endfacet
 facet normal -9.927089e-01 -1.205367e-01 -0.000000e+00
   outer loop
     vertex -4.854709e-02 -1.196578e-02  2.000000e+01
     vertex -5.000000e-02  5.053215e-17  1.983500e+01
     vertex -4.854709e-02 -1.196578e-02  1.983500e+01
   endloop
 endfacet
 facet normal -9.927089e-01 -1.205367e-01  0.000000e+00
   outer loop
     vertex -4.854709e-02 -1.196578e-02  2.000000e+01
     vertex -5.000000e-02  5.053215e-17  2.000000e+01
     vertex -5.000000e-02  5.053215e-17  1.983500e+01
   endloop
 endfacet
 facet normal -9.350162e-01 -3.546049e-01  0.000000e+00
   outer loop
     vertex -4.427280e-02 -2.323616e-02  2.000000e+01
     vertex -4.854709e-02 -1.196578e-02  2.000000e+01
     vertex -4.854709e-02 -1.196578e-02  1.983500e+01
   endloop
 endfacet
 facet normal -9.350162e-01 -3.546049e-01 -0.000000e+00
   outer loop
     vertex -4.427280e-02 -2.323616e-02  2.000000e+01
     vertex -4.854709e-02 -1.196578e-02  1.983500e+01
     vertex -4.427280e-02 -2.323616e-02  1.983500e+01
   endloop
 endfacet
 facet normal -8.229839e-01 -5.680647e-01 -0.000000e+00
   outer loop
     vertex -3.742554e-02 -3.315613e-02  2.000000e+01
     vertex -4.427280e-02 -2.323616e-02  1.983500e+01
     vertex -3.742554e-02 -3.315613e-02  1.983500e+01
   endloop
 endfacet
 facet normal -8.229839e-01 -5.680647e-01  0.000000e+00
   outer loop
     vertex -3.742554e-02 -3.315613e-02  2.000000e+01
     vertex -4.427280e-02 -2.323616e-02  2.000000e+01
     vertex -4.427280e-02 -2.323616e-02  1.983500e+01
   endloop
 endfacet
 facet normal -6.631227e-01 -7.485107e-01 -0.000000e+00
   outer loop
     vertex -2.840324e-02 -4.114919e-02  2.000000e+01
     vertex -3.742554e-02 -3.315613e-02  1.983500e+01
     vertex -2.840324e-02 -4.114919e-02  1.983500e+01
   endloop
 endfacet
 facet normal -6.631227e-01 -7.485107e-01  0.000000e+00
   outer loop
     vertex -2.840324e-02 -4.114919e-02  2.000000e+01
     vertex -3.742554e-02 -3.315613e-02  2.000000e+01
     vertex -3.742554e-02 -3.315613e-02  1.983500e+01
   endloop
 endfacet
 facet normal -4.647232e-01 -8.854560e-01 -0.000000e+00
   outer loop
     vertex -1.773024e-02 -4.675081e-02  2.000000e+01
     vertex -2.840324e-02 -4.114919e-02  1.983500e+01
     vertex -1.773024e-02 -4.675081e-02  1.983500e+01
   endloop
 endfacet
 facet normal -4.647232e-01 -8.854560e-01  0.000000e+00
   outer loop
     vertex -1.773024e-02 -4.675081e-02  2.000000e+01
     vertex -2.840324e-02 -4.114919e-02  2.000000e+01
     vertex -2.840324e-02 -4.114919e-02  1.983500e+01
   endloop
 endfacet
 facet normal -2.393157e-01 -9.709418e-01 -0.000000e+00
   outer loop
     vertex -6.026834e-03 -4.963544e-02  2.000000e+01
     vertex -1.773024e-02 -4.675081e-02  1.983500e+01
     vertex -6.026834e-03 -4.963544e-02  1.983500e+01
   endloop
 endfacet
 facet normal -2.393157e-01 -9.709418e-01  0.000000e+00
   outer loop
     vertex -6.026834e-03 -4.963544e-02  2.000000e+01
     vertex -1.773024e-02 -4.675081e-02  2.000000e+01
     vertex -1.773024e-02 -4.675081e-02  1.983500e+01
   endloop
 endfacet
 facet normal -2.302666e-15 -1.000000e+00 -0.000000e+00
   outer loop
     vertex  6.026834e-03 -4.963544e-02  2.000000e+01
     vertex -6.026834e-03 -4.963544e-02  1.983500e+01
     vertex  6.026834e-03 -4.963544e-02  1.983500e+01
   endloop
 endfacet
 facet normal -2.302666e-15 -1.000000e+00  0.000000e+00
   outer loop
     vertex  6.026834e-03 -4.963544e-02  2.000000e+01
     vertex -6.026834e-03 -4.963544e-02  2.000000e+01
     vertex -6.026834e-03 -4.963544e-02  1.983500e+01
   endloop
 endfacet
 facet normal  2.393157e-01 -9.709418e-01  0.000000e+00
   outer loop
     vertex  1.773024e-02 -4.675081e-02  2.000000e+01
     vertex  6.026834e-03 -4.963544e-02  1.983500e+01
     vertex  1.773024e-02 -4.675081e-02  1.983500e+01
   endloop
 endfacet
 facet normal  2.393157e-01 -9.709418e-01  0.000000e+00
   outer loop
     vertex  1.773024e-02 -4.675081e-02  2.000000e+01
     vertex  6.026834e-03 -4.963544e-02  2.000000e+01
     vertex  6.026834e-03 -4.963544e-02  1.983500e+01
   endloop
 endfacet
 facet normal  4.647232e-01 -8.854560e-01  0.000000e+00
   outer loop
     vertex  2.840324e-02 -4.114919e-02  2.000000e+01
     vertex  1.773024e-02 -4.675081e-02  1.983500e+01
     vertex  2.840324e-02 -4.114919e-02  1.983500e+01
   endloop
 endfacet
 facet normal  4.647232e-01 -8.854560e-01  0.000000e+00
   outer loop
     vertex  2.840324e-02 -4.114919e-02  2.000000e+01
     vertex  1.773024e-02 -4.675081e-02  2.000000e+01
     vertex  1.773024e-02 -4.675081e-02  1.983500e+01
   endloop
 endfacet
 facet normal  6.631227e-01 -7.485107e-01  0.000000e+00
   outer loop
     vertex  3.742554e-02 -3.315613e-02  2.000000e+01
     vertex  2.840324e-02 -4.114919e-02  1.983500e+01
     vertex  3.742554e-02 -3.315613e-02  1.983500e+01
   endloop
 endfacet
 facet normal  6.631227e-01 -7.485107e-01  0.000000e+00
   outer loop
     vertex  3.742554e-02 -3.315613e-02  2.000000e+01
     vertex  2.840324e-02 -4.114919e-02  2.000000e+01
     vertex  2.840324e-02 -4.114919e-02  1.983500e+01
   endloop
 endfacet
 facet normal  8.229839e-01 -5.680647e-01  0.000000e+00
   outer loop
     vertex  4.427280e-02 -2.323616e-02  2.000000e+01
     vertex  3.742554e-02 -3.315613e-02  1.983500e+01
     vertex  4.427280e-02 -2.323616e-02  1.983500e+01
   endloop
 endfacet
 facet normal  9.350162e-01 -3.546049e-01  0.000000e+00
   outer loop
     vertex  4.427280e-02 -2.323616e-02  2.000000e+01
     vertex  4.427280e-02 -2.323616e-02  1.983500e+01
     vertex  4.854709e-02 -1.196578e-02  1.983500e+01
   endloop
 endfacet
 facet normal  8.229839e-01 -5.680647e-01  0.000000e+00
   outer loop
     vertex  4.427280e-02 -2.323616e-02  2.000000e+01
     vertex  3.742554e-02 -3.315613e-02  2.000000e+01
     vertex  3.742554e-02 -3.315613e-02  1.983500e+01
   endloop
 endfacet
 facet normal  9.350162e-01 -3.546049e-01  0.000000e+00
   outer loop
     vertex  4.854709e-02 -1.196578e-02  2.000000e+01
     vertex  4.427280e-02 -2.323616e-02  2.000000e+01
     vertex  4.854709e-02 -1.196578e-02  1.983500e+01
   endloop
 endfacet
 facet normal  9.927089e-01 -1.205367e-01  0.000000e+00
   outer loop
     vertex  5.000000e-02  0.000000e+00  2.000000e+01
     vertex  4.854709e-02 -1.196578e-02  1.983500e+01
     vertex  5.000000e-02  0.000000e+00  1.983500e+01
   endloop
 endfacet
 facet normal  9.927089e-01 -1.205367e-01  0.000000e+00
   outer loop
     vertex  5.000000e-02  0.000000e+00  2.000000e+01
     vertex  4.854709e-02 -1.196578e-02  2.000000e+01
     vertex  4.854709e-02 -1.196578e-02  1.983500e+01
   endloop
 endfacet
 facet normal  0.000000e+00  0.000000e+00  1.000000e+00
   outer loop
     vertex  3.742554e-02  3.315613e-02  2.000000e+01
     vertex  5.000000e-02  0.000000e+00  2.000000e+01
     vertex  4.854709e-02  1.196578e-02  2.000000e+01
   endloop
 endfacet
 facet normal  0.000000e+00  0.000000e+00  1.000000e+00
   outer loop
     vertex  3.742554e-02  3.315613e-02  2.000000e+01
     vertex  4.854709e-02  1.196578e-02  2.000000e+01
     vertex  4.427280e-02  2.323616e-02  2.000000e+01
   endloop
 endfacet
 facet normal  0.000000e+00  0.000000e+00  1.000000e+00
   outer loop
     vertex  3.742554e-02  3.315613e-02  2.000000e+01
     vertex  2.840324e-02  4.114919e-02  2.000000e+01
     vertex  1.773024e-02  4.675081e-02  2.000000e+01
   endloop
 endfacet
 facet normal  0.000000e+00  0.000000e+00  1.000000e+00
   outer loop
     vertex  3.742554e-02  3.315613e-02  2.000000e+01
     vertex  1.773024e-02  4.675081e-02  2.000000e+01
     vertex  6.026834e-03  4.963544e-02  2.000000e+01
   endloop
 endfacet
 facet normal  0.000000e+00  0.000000e+00  1.000000e+00
   outer loop
     vertex  3.742554e-02  3.315613e-02  2.000000e+01
     vertex  6.026834e-03  4.963544e-02  2.000000e+01
     vertex -6.026834e-03  4.963544e-02  2.000000e+01
   endloop
 endfacet
 facet normal  0.000000e+00  0.000000e+00  1.000000e+00
   outer loop
     vertex  3.742554e-02  3.315613e-02  2.000000e+01
     vertex -6.026834e-03  4.963544e-02  2.000000e+01
     vertex -1.773024e-02  4.675081e-02  2.000000e+01
   endloop
 endfacet
 facet normal  0.000000e+00  0.000000e+00  1.000000e+00
   outer loop
     vertex  3.742554e-02  3.315613e-02  2.000000e+01
     vertex -1.773024e-02  4.675081e-02  2.000000e+01
     vertex -2.840324e-02  4.114919e-02  2.000000e+01
   endloop
 endfacet
 facet normal  0.000000e+00  0.000000e+00  1.000000e+00
   outer loop
     vertex  3.742554e-02  3.315613e-02  2.000000e+01
     vertex -2.840324e-02  4.114919e-02  2.000000e+01
     vertex -3.742554e-02  3.315613e-02  2.000000e+01
   endloop
 endfacet
 facet normal  0.000000e+00  0.000000e+00  1.000000e+00
   outer loop
     vertex  3.742554e-02  3.315613e-02  2.000000e+01
     vertex -3.742554e-02  3.315613e-02  2.000000e+01
     vertex -4.427280e-02  2.323616e-02  2.000000e+01
   endloop
 endfacet
 facet normal  0.000000e+00  0.000000e+00  1.000000e+00
   outer loop
     vertex  3.742554e-02  3.315613e-02  2.000000e+01
     vertex -4.427280e-02  2.323616e-02  2.000000e+01
     vertex -4.854709e-02  1.196578e-02  2.000000e+01
   endloop
 endfacet
 facet normal  0.000000e+00  0.000000e+00  1.000000e+00
   outer loop
     vertex  3.742554e-02  3.315613e-02  2.000000e+01
     vertex -4.854709e-02  1.196578e-02  2.000000e+01
     vertex -5.000000e-02  5.053215e-17  2.000000e+01
   endloop
 endfacet
 facet normal  0.000000e+00  0.000000e+00  1.000000e+00
   outer loop
     vertex  3.742554e-02  3.315613e-02  2.000000e+01
     vertex -5.000000e-02  5.053215e-17  2.000000e+01
     vertex -4.854709e-02 -1.196578e-02  2.000000e+01
   endloop
 endfacet
 facet normal  0.000000e+00  0.000000e+00  1.000000e+00
   outer loop
     vertex  3.742554e-02  3.315613e-02  2.000000e+01
     vertex -4.854709e-02 -1.196578e-02  2.000000e+01
     vertex -4.427280e-02 -2.323616e-02  2.000000e+01
   endloop
 endfacet
 facet normal  0.000000e+00  0.000000e+00  1.000000e+00
   outer loop
     vertex  3.742554e-02  3.315613e-02  2.000000e+01
     vertex -4.427280e-02 -2.323616e-02  2.000000e+01
     vertex -3.742554e-02 -3.315613e-02  2.000000e+01
   endloop
 endfacet
 facet normal  0.000000e+00  0.000000e+00  1.000000e+00
   outer loop
     vertex  3.742554e-02  3.315613e-02  2.000000e+01
     vertex -3.742554e-02 -3.315613e-02  2.000000e+01
     vertex -2.840324e-02 -4.114919e-02  2.000000e+01
   endloop
 endfacet
 facet normal  0.000000e+00  0.000000e+00  1.000000e+00
   outer loop
     vertex  3.742554e-02  3.315613e-02  2.000000e+01
     vertex -2.840324e-02 -4.114919e-02  2.000000e+01
     vertex -1.773024e-02 -4.675081e-02  2.000000e+01
   endloop
 endfacet
 facet normal  0.000000e+00  0.000000e+00  1.000000e+00
   outer loop
     vertex  3.742554e-02  3.315613e-02  2.000000e+01
     vertex -1.773024e-02 -4.675081e-02  2.000000e+01
     vertex -6.026834e-03 -4.963544e-02  2.000000e+01
   endloop
 endfacet
 facet normal  0.000000e+00  0.000000e+00  1.000000e+00
   outer loop
     vertex  3.742554e-02  3.315613e-02  2.000000e+01
     vertex -6.026834e-03 -4.963544e-02  2.000000e+01
     vertex  6.026834e-03 -4.963544e-02  2.000000e+01
   endloop
 endfacet
 facet normal  0.000000e+00  0.000000e+00  1.000000e+00
   outer loop
     vertex  3.742554e-02  3.315613e-02  2.000000e+01
     vertex  6.026834e-03 -4.963544e-02  2.000000e+01
     vertex  1.773024e-02 -4.675081e-02  2.000000e+01
   endloop
 endfacet
 facet normal  0.000000e+00  0.000000e+00  1.000000e+00
   outer loop
     vertex  3.742554e-02  3.315613e-02  2.000000e+01
     vertex  1.773024e-02 -4.675081e-02  2.000000e+01
     vertex  2.840324e-02 -4.114919e-02  2.000000e+01
   endloop
 endfacet
 facet normal  0.000000e+00  0.000000e+00  1.000000e+00
   outer loop
     vertex  3.742554e-02  3.315613e-02  2.000000e+01
     vertex  2.840324e-02 -4.114919e-02  2.000000e+01
     vertex  3.742554e-02 -3.315613e-02  2.000000e+01
   endloop
 endfacet
 facet normal  0.000000e+00  0.000000e+00  1.000000e+00
   outer loop
     vertex  3.742554e-02  3.315613e-02  2.000000e+01
     vertex  3.742554e-02 -3.315613e-02  2.000000e+01
     vertex  4.427280e-02 -2.323616e-02  2.000000e+01
   endloop
 endfacet
 facet normal  0.000000e+00  0.000000e+00  1.000000e+00
   outer loop
     vertex  3.742554e-02  3.315613e-02  2.000000e+01
     vertex  4.427280e-02 -2.323616e-02  2.000000e+01
     vertex  4.854709e-02 -1.196578e-02  2.000000e+01
   endloop
 endfacet
 facet normal  0.000000e+00  0.000000e+00  1.000000e+00
   outer loop
     vertex  3.742554e-02  3.315613e-02  2.000000e+01
     vertex  4.854709e-02 -1.196578e-02  2.000000e+01
     vertex  5.000000e-02  0.000000e+00  2.000000e+01
   endloop
 endfacet
 facet normal  0.000000e+00  0.000000e+00 -1.000000e+00
   outer loop
     vertex  3.742554e-02  3.315613e-02  1.983500e+01
     vertex  4.854709e-02  1.196578e-02  1.983500e+01
     vertex  5.000000e-02  0.000000e+00  1.983500e+01
   endloop
 endfacet
 facet normal  0.000000e+00  0.000000e+00 -1.000000e+00
   outer loop
     vertex  3.742554e-02  3.315613e-02  1.983500e+01
     vertex  4.427280e-02  2.323616e-02  1.983500e+01
     vertex  4.854709e-02  1.196578e-02  1.983500e+01
   endloop
 endfacet
 facet normal  0.000000e+00  0.000000e+00 -1.000000e+00
   outer loop
     vertex  3.742554e-02  3.315613e-02  1.983500e+01
     vertex  1.773024e-02  4.675081e-02  1.983500e+01
     vertex  2.840324e-02  4.114919e-02  1.983500e+01
   endloop
 endfacet
 facet normal  0.000000e+00  0.000000e+00 -1.000000e+00
   outer loop
     vertex  3.742554e-02  3.315613e-02  1.983500e+01
     vertex  6.026834e-03  4.963544e-02  1.983500e+01
     vertex  1.773024e-02  4.675081e-02  1.983500e+01
   endloop
 endfacet
 facet normal  0.000000e+00  0.000000e+00 -1.000000e+00
   outer loop
     vertex  3.742554e-02  3.315613e-02  1.983500e+01
     vertex -6.026834e-03  4.963544e-02  1.983500e+01
     vertex  6.026834e-03  4.963544e-02  1.983500e+01
   endloop
 endfacet
 facet normal  0.000000e+00  0.000000e+00 -1.000000e+00
   outer loop
     vertex  3.742554e-02  3.315613e-02  1.983500e+01
     vertex -1.773024e-02  4.675081e-02  1.983500e+01
     vertex -6.026834e-03  4.963544e-02  1.983500e+01
   endloop
 endfacet
 facet normal  0.000000e+00  0.000000e+00 -1.000000e+00
   outer loop
     vertex  3.742554e-02  3.315613e-02  1.983500e+01
     vertex -2.840324e-02  4.114919e-02  1.983500e+01
     vertex -1.773024e-02  4.675081e-02  1.983500e+01
   endloop
 endfacet
 facet normal  0.000000e+00  0.000000e+00 -1.000000e+00
   outer loop
     vertex  3.742554e-02  3.315613e-02  1.983500e+01
     vertex -3.742554e-02  3.315613e-02  1.983500e+01
     vertex -2.840324e-02  4.114919e-02  1.983500e+01
   endloop
 endfacet
 facet normal -0.000000e+00  0.000000e+00 -1.000000e+00
   outer loop
     vertex  3.742554e-02  3.315613e-02  1.983500e+01
     vertex -4.427280e-02  2.323616e-02  1.983500e+01
     vertex -3.742554e-02  3.315613e-02  1.983500e+01
   endloop
 endfacet
 facet normal  0.000000e+00  0.000000e+00 -1.000000e+00
   outer loop
     vertex  3.742554e-02  3.315613e-02  1.983500e+01
     vertex -4.854709e-02  1.196578e-02  1.983500e+01
     vertex -4.427280e-02  2.323616e-02  1.983500e+01
   endloop
 endfacet
 facet normal  0.000000e+00  0.000000e+00 -1.000000e+00
   outer loop
     vertex  3.742554e-02  3.315613e-02  1.983500e+01
     vertex -5.000000e-02  5.053215e-17  1.983500e+01
     vertex -4.854709e-02  1.196578e-02  1.983500e+01
   endloop
 endfacet
 facet normal  0.000000e+00  0.000000e+00 -1.000000e+00
   outer loop
     vertex  3.742554e-02  3.315613e-02  1.983500e+01
     vertex -4.854709e-02 -1.196578e-02  1.983500e+01
     vertex -5.000000e-02  5.053215e-17  1.983500e+01
   endloop
 endfacet
 facet normal  0.000000e+00  0.000000e+00 -1.000000e+00
   outer loop
     vertex  3.742554e-02  3.315613e-02  1.983500e+01
     vertex -4.427280e-02 -2.323616e-02  1.983500e+01
     vertex -4.854709e-02 -1.196578e-02  1.983500e+01
   endloop
 endfacet
 facet normal  0.000000e+00  0.000000e+00 -1.000000e+00
   outer loop
     vertex  3.742554e-02  3.315613e-02  1.983500e+01
     vertex -3.742554e-02 -3.315613e-02  1.983500e+01
     vertex -4.427280e-02 -2.323616e-02  1.983500e+01
   endloop
 endfacet
 facet normal  0.000000e+00  0.000000e+00 -1.000000e+00
   outer loop
     vertex  3.742554e-02  3.315613e-02  1.983500e+01
     vertex -2.840324e-02 -4.114919e-02  1.983500e+01
     vertex -3.742554e-02 -3.315613e-02  1.983500e+01
   endloop
 endfacet
 facet normal  0.000000e+00  0.000000e+00 -1.000000e+00
   outer loop
     vertex  3.742554e-02  3.315613e-02  1.983500e+01
     vertex -1.773024e-02 -4.675081e-02  1.983500e+01
     vertex -2.840324e-02 -4.114919e-02  1.983500e+01
   endloop
 endfacet
 facet normal  0.000000e+00  0.000000e+00 -1.000000e+00
   outer loop
     vertex  3.742554e-02  3.315613e-02  1.983500e+01
     vertex -6.026834e-03 -4.963544e-02  1.983500e+01
     vertex -1.773024e-02 -4.675081e-02  1.983500e+01
   endloop
 endfacet
 facet normal  0.000000e+00  0.000000e+00 -1.000000e+00
   outer loop
     vertex  3.742554e-02  3.315613e-02  1.983500e+01
     vertex  6.026834e-03 -4.963544e-02  1.983500e+01
     vertex -6.026834e-03 -4.963544e-02  1.983500e+01
   endloop
 endfacet
 facet normal  0.000000e+00  0.000000e+00 -1.000000e+00
   outer loop
     vertex  3.742554e-02  3.315613e-02  1.983500e+01
     vertex  1.773024e-02 -4.675081e-02  1.983500e+01
     vertex  6.026834e-03 -4.963544e-02  1.983500e+01
   endloop
 endfacet
 facet normal  0.000000e+00  0.000000e+00 -1.000000e+00
   outer loop
     vertex  3.742554e-02  3.315613e-02  1.983500e+01
     vertex  2.840324e-02 -4.114919e-02  1.983500e+01
     vertex  1.773024e-02 -4.675081e-02  1.983500e+01
   endloop
 endfacet
 facet normal  0.000000e+00  0.000000e+00 -1.000000e+00
   outer loop
     vertex  3.742554e-02  3.315613e-02  1.983500e+01
     vertex  3.742554e-02 -3.315613e-02  1.983500e+01
     vertex  2.840324e-02 -4.114919e-02  1.983500e+01
   endloop
 endfacet
 facet normal  0.000000e+00 -0.000000e+00 -1.000000e+00
   outer loop
     vertex  3.742554e-02  3.315613e-02  1.983500e+01
     vertex  4.427280e-02 -2.323616e-02  1.983500e+01
     vertex  3.742554e-02 -3.315613e-02  1.983500e+01
   endloop
 endfacet
 facet normal  0.000000e+00  0.000000e+00 -1.000000e+00
   outer loop
     vertex  3.742554e-02  3.315613e-02  1.983500e+01
     vertex  4.854709e-02 -1.196578e-02  1.983500e+01
     vertex  4.427280e-02 -2.323616e-02  1.983500e+01
   endloop
 endfacet
 facet normal  0.000000e+00  0.000000e+00 -1.000000e+00
   outer loop
     vertex  3.742554e-02  3.315613e-02  1.983500e+01
     vertex  5.000000e-02  0.000000e+00  1.983500e+01
     vertex  4.854709e-02 -1.196578e-02  1.983500e+01
   endloop
 endfacet
 facet normal  0.000000e+00 -1.000000e+00  0.000000e+00
   outer loop
     vertex -9.800000e-01 -9.800000e-01  0.000000e+00
     vertex  9.800000e-01 -9.800000e-01  0.000000e+00
     vertex  9.800000e-01 -9.800000e-01  1.000000e-01
   endloop
 endfacet
 facet normal  0.000000e+00 -1.000000e+00  0.000000e+00
   outer loop
     vertex -9.800000e-01 -9.800000e-01  0.000000e+00
     vertex  9.800000e-01 -9.800000e-01  1.000000e-01
     vertex -9.800000e-01 -9.800000e-01  1.000000e-01
   endloop
 endfacet
 facet normal  1.000000e+00  0.000000e+00  0.000000e+00
   outer loop
     vertex  9.800000e-01  9.800000e-01  0.000000e+00
     vertex  9.800000e-01 -9.800000e-01  1.000000e-01
     vertex  9.800000e-01 -9.800000e-01  0.000000e+00
   endloop
 endfacet
 facet normal  1.000000e+00  0.000000e+00 -0.000000e+00
   outer loop
     vertex  9.800000e-01  9.800000e-01  0.000000e+00
     vertex  9.800000e-01  9.800000e-01  1.000000e-01
     vertex  9.800000e-01 -9.800000e-01  1.000000e-01
   endloop
 endfacet
 facet normal -1.000000e+00  0.000000e+00  0.000000e+00
   outer loop
     vertex -9.800000e-01  9.800000e-01  0.000000e+00
     vertex -9.800000e-01 -9.800000e-01  0.000000e+00
     vertex -9.800000e-01 -9.800000e-01  1.000000e-01
   endloop
 endfacet
 facet normal -1.000000e+00  0.000000e+00  0.000000e+00
   outer loop
     vertex -9.800000e-01  9.800000e-01  0.000000e+00
     vertex -9.800000e-01 -9.800000e-01  1.000000e-01
     vertex -9.800000e-01  9.800000e-01  1.000000e-01
   endloop
 endfacet
 facet normal  0.000000e+00  1.000000e+00  0.000000e+00
   outer loop
     vertex -9.800000e-01  9.800000e-01  0.000000e+00
     vertex  9.800000e-01  9.800000e-01  1.000000e-01
     vertex  9.800000e-01  9.800000e-01  0.000000e+00
   endloop
 endfacet
 facet normal  0.000000e+00  1.000000e+00  0.000000e+00
   outer loop
     vertex -9.800000e-01  9.800000e-01  0.000000e+00
     vertex -9.800000e-01  9.800000e-01  1.000000e-01
     vertex  9.800000e-01  9.800000e-01  1.000000e-01
   endloop
 endfacet
 facet normal -9.937122e-01 -1.119645e-01  0.000000e+00
   outer loop
     vertex  7.311959e-02  1.668907e-02  0.000000e+00
     vertex  7.500000e-02  0.000000e+00  0.000000e+00
     vertex  7.500000e-02  0.000000e+00  1.000000e-01
   endloop
 endfacet
 facet normal -9.937122e-01 -1.119645e-01  0.000000e+00
   outer loop
     vertex  7.311959e-02  1.668907e-02  0.000000e+00
     vertex  7.500000e-02  0.000000e+00  1.000000e-01
     vertex  7.311959e-02  1.668907e-02  1.000000e-01
   endloop
 endfacet
 facet normal -9.438833e-01 -3.302791e-01  0.000000e+00
   outer loop
     vertex  6.757267e-02  3.254128e-02  0.000000e+00
     vertex  7.311959e-02  1.668907e-02  1.000000e-01
     vertex  6.757267e-02  3.254128e-02  1.000000e-01
   endloop
 endfacet
 facet normal -9.438833e-01 -3.302791e-01  0.000000e+00
   outer loop
     vertex  6.757267e-02  3.254128e-02  0.000000e+00
     vertex  7.311959e-02  1.668907e-02  0.000000e+00
     vertex  7.311959e-02  1.668907e-02  1.000000e-01
   endloop
 endfacet
 facet normal -8.467242e-01 -5.320321e-01  0.000000e+00
   outer loop
     vertex  5.863736e-02  4.676174e-02  0.000000e+00
     vertex  6.757267e-02  3.254128e-02  1.000000e-01
     vertex  5.863736e-02  4.676174e-02  1.000000e-01
   endloop
 endfacet
 facet normal -8.467242e-01 -5.320321e-01  0.000000e+00
   outer loop
     vertex  5.863736e-02  4.676174e-02  0.000000e+00
     vertex  6.757267e-02  3.254128e-02  0.000000e+00
     vertex  6.757267e-02  3.254128e-02  1.000000e-01
   endloop
 endfacet
 facet normal -7.071068e-01 -7.071068e-01  0.000000e+00
   outer loop
     vertex  4.676174e-02  5.863736e-02  0.000000e+00
     vertex  5.863736e-02  4.676174e-02  1.000000e-01
     vertex  4.676174e-02  5.863736e-02  1.000000e-01
   endloop
 endfacet
 facet normal -7.071068e-01 -7.071068e-01  0.000000e+00
   outer loop
     vertex  4.676174e-02  5.863736e-02  0.000000e+00
     vertex  5.863736e-02  4.676174e-02  0.000000e+00
     vertex  5.863736e-02  4.676174e-02  1.000000e-01
   endloop
 endfacet
 facet normal -5.320321e-01 -8.467242e-01  0.000000e+00
   outer loop
     vertex  3.254128e-02  6.757267e-02  0.000000e+00
     vertex  4.676174e-02  5.863736e-02  1.000000e-01
     vertex  3.254128e-02  6.757267e-02  1.000000e-01
   endloop
 endfacet
 facet normal -5.320321e-01 -8.467242e-01  0.000000e+00
   outer loop
     vertex  3.254128e-02  6.757267e-02  0.000000e+00
     vertex  4.676174e-02  5.863736e-02  0.000000e+00
     vertex  4.676174e-02  5.863736e-02  1.000000e-01
   endloop
 endfacet
 facet normal -3.302791e-01 -9.438833e-01  0.000000e+00
   outer loop
     vertex  1.668907e-02  7.311959e-02  0.000000e+00
     vertex  3.254128e-02  6.757267e-02  1.000000e-01
     vertex  1.668907e-02  7.311959e-02  1.000000e-01
   endloop
 endfacet
 facet normal -3.302791e-01 -9.438833e-01  0.000000e+00
   outer loop
     vertex  1.668907e-02  7.311959e-02  0.000000e+00
     vertex  3.254128e-02  6.757267e-02  0.000000e+00
     vertex  3.254128e-02  6.757267e-02  1.000000e-01
   endloop
 endfacet
 facet normal -1.119645e-01 -9.937122e-01  0.000000e+00
   outer loop
     vertex  4.592425e-18  7.500000e-02  0.000000e+00
     vertex  1.668907e-02  7.311959e-02  1.000000e-01
     vertex  4.592425e-18  7.500000e-02  1.000000e-01
   endloop
 endfacet
 facet normal -1.119645e-01 -9.937122e-01  0.000000e+00
   outer loop
     vertex  4.592425e-18  7.500000e-02  0.000000e+00
     vertex  1.668907e-02  7.311959e-02  0.000000e+00
     vertex  1.668907e-02  7.311959e-02  1.000000e-01
   endloop
 endfacet
 facet normal  1.119645e-01 -9.937122e-01  0.000000e+00
   outer loop
     vertex -1.668907e-02  7.311959e-02  0.000000e+00
     vertex  4.592425e-18  7.500000e-02  1.000000e-01
     vertex -1.668907e-02  7.311959e-02  1.000000e-01
   endloop
 endfacet
 facet normal  1.119645e-01 -9.937122e-01  0.000000e+00
   outer loop
     vertex -1.668907e-02  7.311959e-02  0.000000e+00
     vertex  4.592425e-18  7.500000e-02  0.000000e+00
     vertex  4.592425e-18  7.500000e-02  1.000000e-01
   endloop
 endfacet
 facet normal  3.302791e-01 -9.438833e-01  0.000000e+00
   outer loop
     vertex -3.254128e-02  6.757267e-02  0.000000e+00
     vertex -1.668907e-02  7.311959e-02  1.000000e-01
     vertex -3.254128e-02  6.757267e-02  1.000000e-01
   endloop
 endfacet
 facet normal  3.302791e-01 -9.438833e-01  0.000000e+00
   outer loop
     vertex -3.254128e-02  6.757267e-02  0.000000e+00
     vertex -1.668907e-02  7.311959e-02  0.000000e+00
     vertex -1.668907e-02  7.311959e-02  1.000000e-01
   endloop
 endfacet
 facet normal  5.320321e-01 -8.467242e-01  0.000000e+00
   outer loop
     vertex -4.676174e-02  5.863736e-02  0.000000e+00
     vertex -3.254128e-02  6.757267e-02  0.000000e+00
     vertex -3.254128e-02  6.757267e-02  1.000000e-01
   endloop
 endfacet
 facet normal  5.320321e-01 -8.467242e-01  0.000000e+00
   outer loop
     vertex -4.676174e-02  5.863736e-02  0.000000e+00
     vertex -3.254128e-02  6.757267e-02  1.000000e-01
     vertex -4.676174e-02  5.863736e-02  1.000000e-01
   endloop
 endfacet
 facet normal  7.071068e-01 -7.071068e-01  0.000000e+00
   outer loop
     vertex -5.863736e-02  4.676174e-02  0.000000e+00
     vertex -4.676174e-02  5.863736e-02  0.000000e+00
     vertex -4.676174e-02  5.863736e-02  1.000000e-01
   endloop
 endfacet
 facet normal  7.071068e-01 -7.071068e-01  0.000000e+00
   outer loop
     vertex -5.863736e-02  4.676174e-02  0.000000e+00
     vertex -4.676174e-02  5.863736e-02  1.000000e-01
     vertex -5.863736e-02  4.676174e-02  1.000000e-01
   endloop
 endfacet
 facet normal  8.467242e-01 -5.320321e-01  0.000000e+00
   outer loop
     vertex -6.757267e-02  3.254128e-02  0.000000e+00
     vertex -5.863736e-02  4.676174e-02  0.000000e+00
     vertex -5.863736e-02  4.676174e-02  1.000000e-01
   endloop
 endfacet
 facet normal  8.467242e-01 -5.320321e-01  0.000000e+00
   outer loop
     vertex -6.757267e-02  3.254128e-02  0.000000e+00
     vertex -5.863736e-02  4.676174e-02  1.000000e-01
     vertex -6.757267e-02  3.254128e-02  1.000000e-01
   endloop
 endfacet
 facet normal  9.438833e-01 -3.302791e-01  0.000000e+00
   outer loop
     vertex -7.311959e-02  1.668907e-02  0.000000e+00
     vertex -6.757267e-02  3.254128e-02  1.000000e-01
     vertex -7.311959e-02  1.668907e-02  1.000000e-01
   endloop
 endfacet
 facet normal  9.438833e-01 -3.302791e-01  0.000000e+00
   outer loop
     vertex -7.311959e-02  1.668907e-02  0.000000e+00
     vertex -6.757267e-02  3.254128e-02  0.000000e+00
     vertex -6.757267e-02  3.254128e-02  1.000000e-01
   endloop
 endfacet
 facet normal  9.937122e-01 -1.119645e-01  0.000000e+00
   outer loop
     vertex -7.500000e-02  9.184851e-18  0.000000e+00
     vertex -7.311959e-02  1.668907e-02  1.000000e-01
     vertex -7.500000e-02  9.184851e-18  1.000000e-01
   endloop
 endfacet
 facet normal  9.937122e-01 -1.119645e-01  0.000000e+00
   outer loop
     vertex -7.500000e-02  9.184851e-18  0.000000e+00
     vertex -7.311959e-02  1.668907e-02  0.000000e+00
     vertex -7.311959e-02  1.668907e-02  1.000000e-01
   endloop
 endfacet
 facet normal  9.937122e-01  1.119645e-01 -0.000000e+00
   outer loop
     vertex -7.311959e-02 -1.668907e-02  0.000000e+00
     vertex -7.500000e-02  9.184851e-18  1.000000e-01
     vertex -7.311959e-02 -1.668907e-02  1.000000e-01
   endloop
 endfacet
 facet normal  9.438833e-01  3.302791e-01 -0.000000e+00
   outer loop
     vertex -7.311959e-02 -1.668907e-02  0.000000e+00
     vertex -7.311959e-02 -1.668907e-02  1.000000e-01
     vertex -6.757267e-02 -3.254128e-02  1.000000e-01
   endloop
 endfacet
 facet normal  9.937122e-01  1.119645e-01  0.000000e+00
   outer loop
     vertex -7.311959e-02 -1.668907e-02  0.000000e+00
     vertex -7.500000e-02  9.184851e-18  0.000000e+00
     vertex -7.500000e-02  9.184851e-18  1.000000e-01
   endloop
 endfacet
 facet normal  9.438833e-01  3.302791e-01 -0.000000e+00
   outer loop
     vertex -6.757267e-02 -3.254128e-02  0.000000e+00
     vertex -7.311959e-02 -1.668907e-02  0.000000e+00
     vertex -6.757267e-02 -3.254128e-02  1.000000e-01
   endloop
 endfacet
 facet normal  8.467242e-01  5.320321e-01 -0.000000e+00
   outer loop
     vertex -5.863736e-02 -4.676174e-02  0.000000e+00
     vertex -6.757267e-02 -3.254128e-02  1.000000e-01
     vertex -5.863736e-02 -4.676174e-02  1.000000e-01
   endloop
 endfacet
 facet normal  8.467242e-01  5.320321e-01  0.000000e+00
   outer loop
     vertex -5.863736e-02 -4.676174e-02  0.000000e+00
     vertex -6.757267e-02 -3.254128e-02  0.000000e+00
     vertex -6.757267e-02 -3.254128e-02  1.000000e-01
   endloop
 endfacet
 facet normal  7.071068e-01  7.071068e-01 -0.000000e+00
   outer loop
     vertex -4.676174e-02 -5.863736e-02  0.000000e+00
     vertex -5.863736e-02 -4.676174e-02  1.000000e-01
     vertex -4.676174e-02 -5.863736e-02  1.000000e-01
   endloop
 endfacet
 facet normal  7.071068e-01  7.071068e-01  0.000000e+00
   outer loop
     vertex -4.676174e-02 -5.863736e-02  0.000000e+00
     vertex -5.863736e-02 -4.676174e-02  0.000000e+00
     vertex -5.863736e-02 -4.676174e-02  1.000000e-01
   endloop
 endfacet
 facet normal  5.320321e-01  8.467242e-01 -0.000000e+00
   outer loop
     vertex -3.254128e-02 -6.757267e-02  0.000000e+00
     vertex -4.676174e-02 -5.863736e-02  1.000000e-01
     vertex -3.254128e-02 -6.757267e-02  1.000000e-01
   endloop
 endfacet
 facet normal  5.320321e-01  8.467242e-01  0.000000e+00
   outer loop
     vertex -3.254128e-02 -6.757267e-02  0.000000e+00
     vertex -4.676174e-02 -5.863736e-02  0.000000e+00
     vertex -4.676174e-02 -5.863736e-02  1.000000e-01
   endloop
 endfacet
 facet normal  3.302791e-01  9.438833e-01 -0.000000e+00
   outer loop
     vertex -1.668907e-02 -7.311959e-02  0.000000e+00
     vertex -3.254128e-02 -6.757267e-02  1.000000e-01
     vertex -1.668907e-02 -7.311959e-02  1.000000e-01
   endloop
 endfacet
 facet normal  3.302791e-01  9.438833e-01  0.000000e+00
   outer loop
     vertex -1.668907e-02 -7.311959e-02  0.000000e+00
     vertex -3.254128e-02 -6.757267e-02  0.000000e+00
     vertex -3.254128e-02 -6.757267e-02  1.000000e-01
   endloop
 endfacet
 facet normal  1.119645e-01  9.937122e-01 -0.000000e+00
   outer loop
     vertex -1.377728e-17 -7.500000e-02  0.000000e+00
     vertex -1.668907e-02 -7.311959e-02  1.000000e-01
     vertex -1.377728e-17 -7.500000e-02  1.000000e-01
   endloop
 endfacet
 facet normal  1.119645e-01  9.937122e-01  0.000000e+00
   outer loop
     vertex -1.377728e-17 -7.500000e-02  0.000000e+00
     vertex -1.668907e-02 -7.311959e-02  0.000000e+00
     vertex -1.668907e-02 -7.311959e-02  1.000000e-01
   endloop
 endfacet
 facet normal -1.119645e-01  9.937122e-01  0.000000e+00
   outer loop
     vertex  1.668907e-02 -7.311959e-02  0.000000e+00
     vertex -1.377728e-17 -7.500000e-02  1.000000e-01
     vertex  1.668907e-02 -7.311959e-02  1.000000e-01
   endloop
 endfacet
 facet normal -3.302791e-01  9.438833e-01  0.000000e+00
   outer loop
     vertex  1.668907e-02 -7.311959e-02  0.000000e+00
     vertex  1.668907e-02 -7.311959e-02  1.000000e-01
     vertex  3.254128e-02 -6.757267e-02  1.000000e-01
   endloop
 endfacet
 facet normal -1.119645e-01  9.937122e-01  0.000000e+00
   outer loop
     vertex  1.668907e-02 -7.311959e-02  0.000000e+00
     vertex -1.377728e-17 -7.500000e-02  0.000000e+00
     vertex -1.377728e-17 -7.500000e-02  1.000000e-01
   endloop
 endfacet
 facet normal -3.302791e-01  9.438833e-01  0.000000e+00
   outer loop
     vertex  3.254128e-02 -6.757267e-02  0.000000e+00
     vertex  1.668907e-02 -7.311959e-02  0.000000e+00
     vertex  3.254128e-02 -6.757267e-02  1.000000e-01
   endloop
 endfacet
 facet normal -5.320321e-01  8.467242e-01  0.000000e+00
   outer loop
     vertex  4.676174e-02 -5.863736e-02  0.000000e+00
     vertex  3.254128e-02 -6.757267e-02  1.000000e-01
     vertex  4.676174e-02 -5.863736e-02  1.000000e-01
   endloop
 endfacet
 facet normal -5.320321e-01  8.467242e-01  0.000000e+00
   outer loop
     vertex  4.676174e-02 -5.863736e-02  0.000000e+00
     vertex  3.254128e-02 -6.757267e-02  0.000000e+00
     vertex  3.254128e-02 -6.757267e-02  1.000000e-01
   endloop
 endfacet
 facet normal -7.071068e-01  7.071068e-01  0.000000e+00
   outer loop
     vertex  5.863736e-02 -4.676174e-02  0.000000e+00
     vertex  4.676174e-02 -5.863736e-02  1.000000e-01
     vertex  5.863736e-02 -4.676174e-02  1.000000e-01
   endloop
 endfacet
 facet normal -7.071068e-01  7.071068e-01  0.000000e+00
   outer loop
     vertex  5.863736e-02 -4.676174e-02  0.000000e+00
     vertex  4.676174e-02 -5.863736e-02  0.000000e+00
     vertex  4.676174e-02 -5.863736e-02  1.000000e-01
   endloop
 endfacet
 facet normal -8.467242e-01  5.320321e-01  0.000000e+00
   outer loop
     vertex  6.757267e-02 -3.254128e-02  0.000000e+00
     vertex  5.863736e-02 -4.676174e-02  1.000000e-01
     vertex  6.757267e-02 -3.254128e-02  1.000000e-01
   endloop
 endfacet
 facet normal -8.467242e-01  5.320321e-01  0.000000e+00
   outer loop
     vertex  6.757267e-02 -3.254128e-02  0.000000e+00
     vertex  5.863736e-02 -4.676174e-02  0.000000e+00
     vertex  5.863736e-02 -4.676174e-02  1.000000e-01
   endloop
 endfacet
 facet normal -9.438833e-01  3.302791e-01  0.000000e+00
   outer loop
     vertex  7.311959e-02 -1.668907e-02  0.000000e+00
     vertex  6.757267e-02 -3.254128e-02  1.000000e-01
     vertex  7.311959e-02 -1.668907e-02  1.000000e-01
   endloop
 endfacet
 facet normal -9.438833e-01  3.302791e-01  0.000000e+00
   outer loop
     vertex  7.311959e-02 -1.668907e-02  0.000000e+00
     vertex  6.757267e-02 -3.254128e-02  0.000000e+00
     vertex  6.757267e-02 -3.254128e-02  1.000000e-01
   endloop
 endfacet
 facet normal -9.937122e-01  1.119645e-01  0.000000e+00
   outer loop
     vertex  7.500000e-02  0.000000e+00  0.000000e+00
     vertex  7.311959e-02 -1.668907e-02  1.000000e-01
     vertex  7.500000e-02  0.000000e+00  1.000000e-01
   endloop
 endfacet
 facet normal -9.937122e-01  1.119645e-01  0.000000e+00
   outer loop
     vertex  7.500000e-02  0.000000e+00  0.000000e+00
     vertex  7.311959e-02 -1.668907e-02  0.000000e+00
     vertex  7.311959e-02 -1.668907e-02  1.000000e-01
   endloop
 endfacet
 facet normal -0.000000e+00  0.000000e+00 -1.000000e+00
   outer loop
     vertex -4.676174e-02 -5.863736e-02  0.000000e+00
     vertex -9.800000e-01 -9.800000e-01  0.000000e+00
     vertex -5.863736e-02 -4.676174e-02  0.000000e+00
   endloop
 endfacet
 facet normal  0.000000e+00 -0.000000e+00 -1.000000e+00
   outer loop
     vertex -6.757267e-02 -3.254128e-02  0.000000e+00
     vertex -5.863736e-02 -4.676174e-02  0.000000e+00
     vertex -9.800000e-01 -9.800000e-01  0.000000e+00
   endloop
 endfacet
 facet normal -0.000000e+00  0.000000e+00 -1.000000e+00
   outer loop
     vertex -3.254128e-02 -6.757267e-02  0.000000e+00
     vertex -9.800000e-01 -9.800000e-01  0.000000e+00
     vertex -4.676174e-02 -5.863736e-02  0.000000e+00
   endloop
 endfacet
 facet normal  0.000000e+00 -0.000000e+00 -1.000000e+00
   outer loop
     vertex -7.311959e-02 -1.668907e-02  0.000000e+00
     vertex -6.757267e-02 -3.254128e-02  0.000000e+00
     vertex -9.800000e-01 -9.800000e-01  0.000000e+00
   endloop
 endfacet
 facet normal -0.000000e+00  0.000000e+00 -1.000000e+00
   outer loop
     vertex -1.668907e-02 -7.311959e-02  0.000000e+00
     vertex -9.800000e-01 -9.800000e-01  0.000000e+00
     vertex -3.254128e-02 -6.757267e-02  0.000000e+00
   endloop
 endfacet
 facet normal  0.000000e+00 -0.000000e+00 -1.000000e+00
   outer loop
     vertex -7.500000e-02  9.184851e-18  0.000000e+00
     vertex -7.311959e-02 -1.668907e-02  0.000000e+00
     vertex -9.800000e-01 -9.800000e-01  0.000000e+00
   endloop
 endfacet
 facet normal -0.000000e+00  0.000000e+00 -1.000000e+00
   outer loop
     vertex -1.377728e-17 -7.500000e-02  0.000000e+00
     vertex -9.800000e-01 -9.800000e-01  0.000000e+00
     vertex -1.668907e-02 -7.311959e-02  0.000000e+00
   endloop
 endfacet
 facet normal  0.000000e+00  0.000000e+00 -1.000000e+00
   outer loop
     vertex -9.800000e-01  9.800000e-01  0.000000e+00
     vertex -5.863736e-02  4.676174e-02  0.000000e+00
     vertex -6.757267e-02  3.254128e-02  0.000000e+00
   endloop
 endfacet
 facet normal  0.000000e+00  0.000000e+00 -1.000000e+00
   outer loop
     vertex -9.800000e-01  9.800000e-01  0.000000e+00
     vertex -6.757267e-02  3.254128e-02  0.000000e+00
     vertex -7.311959e-02  1.668907e-02  0.000000e+00
   endloop
 endfacet
 facet normal  0.000000e+00  0.000000e+00 -1.000000e+00
   outer loop
     vertex -9.800000e-01  9.800000e-01  0.000000e+00
     vertex -7.311959e-02  1.668907e-02  0.000000e+00
     vertex -7.500000e-02  9.184851e-18  0.000000e+00
   endloop
 endfacet
 facet normal  0.000000e+00  0.000000e+00 -1.000000e+00
   outer loop
     vertex -9.800000e-01  9.800000e-01  0.000000e+00
     vertex -7.500000e-02  9.184851e-18  0.000000e+00
     vertex -9.800000e-01 -9.800000e-01  0.000000e+00
   endloop
 endfacet
 facet normal  0.000000e+00  0.000000e+00 -1.000000e+00
   outer loop
     vertex  9.800000e-01 -9.800000e-01  0.000000e+00
     vertex -1.377728e-17 -7.500000e-02  0.000000e+00
     vertex  1.668907e-02 -7.311959e-02  0.000000e+00
   endloop
 endfacet
 facet normal  0.000000e+00  0.000000e+00 -1.000000e+00
   outer loop
     vertex  9.800000e-01 -9.800000e-01  0.000000e+00
     vertex  1.668907e-02 -7.311959e-02  0.000000e+00
     vertex  3.254128e-02 -6.757267e-02  0.000000e+00
   endloop
 endfacet
 facet normal  0.000000e+00  0.000000e+00 -1.000000e+00
   outer loop
     vertex  9.800000e-01 -9.800000e-01  0.000000e+00
     vertex  3.254128e-02 -6.757267e-02  0.000000e+00
     vertex  4.676174e-02 -5.863736e-02  0.000000e+00
   endloop
 endfacet
 facet normal  0.000000e+00  0.000000e+00 -1.000000e+00
   outer loop
     vertex  9.800000e-01 -9.800000e-01  0.000000e+00
     vertex -9.800000e-01 -9.800000e-01  0.000000e+00
     vertex -1.377728e-17 -7.500000e-02  0.000000e+00
   endloop
 endfacet
 facet normal  0.000000e+00 -0.000000e+00 -1.000000e+00
   outer loop
     vertex  5.863736e-02 -4.676174e-02  0.000000e+00
     vertex  9.800000e-01 -9.800000e-01  0.000000e+00
     vertex  4.676174e-02 -5.863736e-02  0.000000e+00
   endloop
 endfacet
 facet normal -0.000000e+00  0.000000e+00 -1.000000e+00
   outer loop
     vertex -4.676174e-02  5.863736e-02  0.000000e+00
     vertex -5.863736e-02  4.676174e-02  0.000000e+00
     vertex -9.800000e-01  9.800000e-01  0.000000e+00
   endloop
 endfacet
 facet normal -0.000000e+00  0.000000e+00 -1.000000e+00
   outer loop
     vertex -3.254128e-02  6.757267e-02  0.000000e+00
     vertex -4.676174e-02  5.863736e-02  0.000000e+00
     vertex -9.800000e-01  9.800000e-01  0.000000e+00
   endloop
 endfacet
 facet normal  0.000000e+00 -0.000000e+00 -1.000000e+00
   outer loop
     vertex  6.757267e-02 -3.254128e-02  0.000000e+00
     vertex  9.800000e-01 -9.800000e-01  0.000000e+00
     vertex  5.863736e-02 -4.676174e-02  0.000000e+00
   endloop
 endfacet
 facet normal  0.000000e+00 -0.000000e+00 -1.000000e+00
   outer loop
     vertex  7.311959e-02 -1.668907e-02  0.000000e+00
     vertex  9.800000e-01 -9.800000e-01  0.000000e+00
     vertex  6.757267e-02 -3.254128e-02  0.000000e+00
   endloop
 endfacet
 facet normal -0.000000e+00  0.000000e+00 -1.000000e+00
   outer loop
     vertex -1.668907e-02  7.311959e-02  0.000000e+00
     vertex -3.254128e-02  6.757267e-02  0.000000e+00
     vertex -9.800000e-01  9.800000e-01  0.000000e+00
   endloop
 endfacet
 facet normal  0.000000e+00 -0.000000e+00 -1.000000e+00
   outer loop
     vertex  7.500000e-02  0.000000e+00  0.000000e+00
     vertex  9.800000e-01 -9.800000e-01  0.000000e+00
     vertex  7.311959e-02 -1.668907e-02  0.000000e+00
   endloop
 endfacet
 facet normal -0.000000e+00  0.000000e+00 -1.000000e+00
   outer loop
     vertex  4.592425e-18  7.500000e-02  0.000000e+00
     vertex -1.668907e-02  7.311959e-02  0.000000e+00
     vertex -9.800000e-01  9.800000e-01  0.000000e+00
   endloop
 endfacet
 facet normal  0.000000e+00  0.000000e+00 -1.000000e+00
   outer loop
     vertex  9.800000e-01  9.800000e-01  0.000000e+00
     vertex  7.500000e-02  0.000000e+00  0.000000e+00
     vertex  7.311959e-02  1.668907e-02  0.000000e+00
   endloop
 endfacet
 facet normal  0.000000e+00  0.000000e+00 -1.000000e+00
   outer loop
     vertex  9.800000e-01  9.800000e-01  0.000000e+00
     vertex  7.311959e-02  1.668907e-02  0.000000e+00
     vertex  6.757267e-02  3.254128e-02  0.000000e+00
   endloop
 endfacet
 facet normal  0.000000e+00  0.000000e+00 -1.000000e+00
   outer loop
     vertex  9.800000e-01  9.800000e-01  0.000000e+00
     vertex  6.757267e-02  3.254128e-02  0.000000e+00
     vertex  5.863736e-02  4.676174e-02  0.000000e+00
   endloop
 endfacet
 facet normal  0.000000e+00  0.000000e+00 -1.000000e+00
   outer loop
     vertex  9.800000e-01  9.800000e-01  0.000000e+00
     vertex  5.863736e-02  4.676174e-02  0.000000e+00
     vertex  4.676174e-02  5.863736e-02  0.000000e+00
   endloop
 endfacet
 facet normal  0.000000e+00  0.000000e+00 -1.000000e+00
   outer loop
     vertex  9.800000e-01  9.800000e-01  0.000000e+00
     vertex  4.676174e-02  5.863736e-02  0.000000e+00
     vertex  3.254128e-02  6.757267e-02  0.000000e+00
   endloop
 endfacet
 facet normal  0.000000e+00  0.000000e+00 -1.000000e+00
   outer loop
     vertex  9.800000e-01  9.800000e-01  0.000000e+00
     vertex  3.254128e-02  6.757267e-02  0.000000e+00
     vertex  1.668907e-02  7.311959e-02  0.000000e+00
   endloop
 endfacet
 facet normal  0.000000e+00  0.000000e+00 -1.000000e+00
   outer loop
     vertex  9.800000e-01  9.800000e-01  0.000000e+00
     vertex  1.668907e-02  7.311959e-02  0.000000e+00
     vertex  4.592425e-18  7.500000e-02  0.000000e+00
   endloop
 endfacet
 facet normal  0.000000e+00 -0.000000e+00 -1.000000e+00
   outer loop
     vertex  9.800000e-01  9.800000e-01  0.000000e+00
     vertex  9.800000e-01 -9.800000e-01  0.000000e+00
     vertex  7.500000e-02  0.000000e+00  0.000000e+00
   endloop
 endfacet
 facet normal -0.000000e+00  0.000000e+00 -1.000000e+00
   outer loop
     vertex  9.800000e-01  9.800000e-01  0.000000e+00
     vertex  4.592425e-18  7.500000e-02  0.000000e+00
     vertex -9.800000e-01  9.800000e-01  0.000000e+00
   endloop
 endfacet
 facet normal  0.000000e+00  0.000000e+00  1.000000e+00
   outer loop
     vertex -4.676174e-02 -5.863736e-02  1.000000e-01
     vertex -5.863736e-02 -4.676174e-02  1.000000e-01
     vertex -9.800000e-01 -9.800000e-01  1.000000e-01
   endloop
 endfacet
 facet normal  0.000000e+00  0.000000e+00  1.000000e+00
   outer loop
     vertex -6.757267e-02 -3.254128e-02  1.000000e-01
     vertex -9.800000e-01 -9.800000e-01  1.000000e-01
     vertex -5.863736e-02 -4.676174e-02  1.000000e-01
   endloop
 endfacet
 facet normal  0.000000e+00  0.000000e+00  1.000000e+00
   outer loop
     vertex -3.254128e-02 -6.757267e-02  1.000000e-01
     vertex -4.676174e-02 -5.863736e-02  1.000000e-01
     vertex -9.800000e-01 -9.800000e-01  1.000000e-01
   endloop
 endfacet
 facet normal  0.000000e+00  0.000000e+00  1.000000e+00
   outer loop
     vertex -7.311959e-02 -1.668907e-02  1.000000e-01
     vertex -9.800000e-01 -9.800000e-01  1.000000e-01
     vertex -6.757267e-02 -3.254128e-02  1.000000e-01
   endloop
 endfacet
 facet normal  0.000000e+00  0.000000e+00  1.000000e+00
   outer loop
     vertex -1.668907e-02 -7.311959e-02  1.000000e-01
     vertex -3.254128e-02 -6.757267e-02  1.000000e-01
     vertex -9.800000e-01 -9.800000e-01  1.000000e-01
   endloop
 endfacet
 facet normal  0.000000e+00  0.000000e+00  1.000000e+00
   outer loop
     vertex -7.500000e-02  9.184851e-18  1.000000e-01
     vertex -9.800000e-01 -9.800000e-01  1.000000e-01
     vertex -7.311959e-02 -1.668907e-02  1.000000e-01
   endloop
 endfacet
 facet normal  0.000000e+00  0.000000e+00  1.000000e+00
   outer loop
     vertex -1.377728e-17 -7.500000e-02  1.000000e-01
     vertex -1.668907e-02 -7.311959e-02  1.000000e-01
     vertex -9.800000e-01 -9.800000e-01  1.000000e-01
   endloop
 endfacet
 facet normal  0.000000e+00  0.000000e+00  1.000000e+00
   outer loop
     vertex -9.800000e-01  9.800000e-01  1.000000e-01
     vertex -6.757267e-02  3.254128e-02  1.000000e-01
     vertex -5.863736e-02  4.676174e-02  1.000000e-01
   endloop
 endfacet
 facet normal  0.000000e+00  0.000000e+00  1.000000e+00
   outer loop
     vertex -9.800000e-01  9.800000e-01  1.000000e-01
     vertex -7.311959e-02  1.668907e-02  1.000000e-01
     vertex -6.757267e-02  3.254128e-02  1.000000e-01
   endloop
 endfacet
 facet normal  0.000000e+00  0.000000e+00  1.000000e+00
   outer loop
     vertex -9.800000e-01  9.800000e-01  1.000000e-01
     vertex -7.500000e-02  9.184851e-18  1.000000e-01
     vertex -7.311959e-02  1.668907e-02  1.000000e-01
   endloop
 endfacet
 facet normal  0.000000e+00  0.000000e+00  1.000000e+00
   outer loop
     vertex -9.800000e-01  9.800000e-01  1.000000e-01
     vertex -9.800000e-01 -9.800000e-01  1.000000e-01
     vertex -7.500000e-02  9.184851e-18  1.000000e-01
   endloop
 endfacet
 facet normal  0.000000e+00  0.000000e+00  1.000000e+00
   outer loop
     vertex  9.800000e-01 -9.800000e-01  1.000000e-01
     vertex  1.668907e-02 -7.311959e-02  1.000000e-01
     vertex -1.377728e-17 -7.500000e-02  1.000000e-01
   endloop
 endfacet
 facet normal  0.000000e+00  0.000000e+00  1.000000e+00
   outer loop
     vertex  9.800000e-01 -9.800000e-01  1.000000e-01
     vertex  3.254128e-02 -6.757267e-02  1.000000e-01
     vertex  1.668907e-02 -7.311959e-02  1.000000e-01
   endloop
 endfacet
 facet normal  0.000000e+00  0.000000e+00  1.000000e+00
   outer loop
     vertex  9.800000e-01 -9.800000e-01  1.000000e-01
     vertex  4.676174e-02 -5.863736e-02  1.000000e-01
     vertex  3.254128e-02 -6.757267e-02  1.000000e-01
   endloop
 endfacet
 facet normal  0.000000e+00  0.000000e+00  1.000000e+00
   outer loop
     vertex  9.800000e-01 -9.800000e-01  1.000000e-01
     vertex -1.377728e-17 -7.500000e-02  1.000000e-01
     vertex -9.800000e-01 -9.800000e-01  1.000000e-01
   endloop
 endfacet
 facet normal  0.000000e+00  0.000000e+00  1.000000e+00
   outer loop
     vertex  5.863736e-02 -4.676174e-02  1.000000e-01
     vertex  4.676174e-02 -5.863736e-02  1.000000e-01
     vertex  9.800000e-01 -9.800000e-01  1.000000e-01
   endloop
 endfacet
 facet normal  0.000000e+00  0.000000e+00  1.000000e+00
   outer loop
     vertex -4.676174e-02  5.863736e-02  1.000000e-01
     vertex -9.800000e-01  9.800000e-01  1.000000e-01
     vertex -5.863736e-02  4.676174e-02  1.000000e-01
   endloop
 endfacet
 facet normal  0.000000e+00  0.000000e+00  1.000000e+00
   outer loop
     vertex -3.254128e-02  6.757267e-02  1.000000e-01
     vertex -9.800000e-01  9.800000e-01  1.000000e-01
     vertex -4.676174e-02  5.863736e-02  1.000000e-01
   endloop
 endfacet
 facet normal  0.000000e+00  0.000000e+00  1.000000e+00
   outer loop
     vertex  6.757267e-02 -3.254128e-02  1.000000e-01
     vertex  5.863736e-02 -4.676174e-02  1.000000e-01
     vertex  9.800000e-01 -9.800000e-01  1.000000e-01
   endloop
 endfacet
 facet normal  0.000000e+00  0.000000e+00  1.000000e+00
   outer loop
     vertex  7.311959e-02 -1.668907e-02  1.000000e-01
     vertex  6.757267e-02 -3.254128e-02  1.000000e-01
     vertex  9.800000e-01 -9.800000e-01  1.000000e-01
   endloop
 endfacet
 facet normal  0.000000e+00  0.000000e+00  1.000000e+00
   outer loop
     vertex -1.668907e-02  7.311959e-02  1.000000e-01
     vertex -9.800000e-01  9.800000e-01  1.000000e-01
     vertex -3.254128e-02  6.757267e-02  1.000000e-01
   endloop
 endfacet
 facet normal  0.000000e+00  0.000000e+00  1.000000e+00
   outer loop
     vertex  7.500000e-02  0.000000e+00  1.000000e-01
     vertex  7.311959e-02 -1.668907e-02  1.000000e-01
     vertex  9.800000e-01 -9.800000e-01  1.000000e-01
   endloop
 endfacet
 facet normal  0.000000e+00  0.000000e+00  1.000000e+00
   outer loop
     vertex  4.592425e-18  7.500000e-02  1.000000e-01
     vertex -9.800000e-01  9.800000e-01  1.000000e-01
     vertex -1.668907e-02  7.311959e-02  1.000000e-01
   endloop
 endfacet
 facet normal  0.000000e+00  0.000000e+00  1.000000e+00
   outer loop
     vertex  9.800000e-01  9.800000e-01  1.000000e-01
     vertex  7.311959e-02  1.668907e-02  1.000000e-01
     vertex  7.500000e-02  0.000000e+00  1.000000e-01
   endloop
 endfacet
 facet normal  0.000000e+00  0.000000e+00  1.000000e+00
   outer loop
     vertex  9.800000e-01  9.800000e-01  1.000000e-01
     vertex  6.757267e-02  3.254128e-02  1.000000e-01
     vertex  7.311959e-02  1.668907e-02  1.000000e-01
   endloop
 endfacet
 facet normal  0.000000e+00  0.000000e+00  1.000000e+00
   outer loop
     vertex  9.800000e-01  9.800000e-01  1.000000e-01
     vertex  5.863736e-02  4.676174e-02  1.000000e-01
     vertex  6.757267e-02  3.254128e-02  1.000000e-01
   endloop
 endfacet
 facet normal  0.000000e+00  0.000000e+00  1.000000e+00
   outer loop
     vertex  9.800000e-01  9.800000e-01  1.000000e-01
     vertex  4.676174e-02  5.863736e-02  1.000000e-01
     vertex  5.863736e-02  4.676174e-02  1.000000e-01
   endloop
 endfacet
 facet normal  0.000000e+00  0.000000e+00  1.000000e+00
   outer loop
     vertex  9.800000e-01  9.800000e-01  1.000000e-01
     vertex  3.254128e-02  6.757267e-02  1.000000e-01
     vertex  4.676174e-02  5.863736e-02  1.000000e-01
   endloop
 endfacet
 facet normal  0.000000e+00  0.000000e+00  1.000000e+00
   outer loop
     vertex  9.800000e-01  9.800000e-01  1.000000e-01
     vertex  1.668907e-02  7.311959e-02  1.000000e-01
     vertex  3.254128e-02  6.757267e-02  1.000000e-01
   endloop
 endfacet
 facet normal  0.000000e+00  0.000000e+00  1.000000e+00
   outer loop
     vertex  9.800000e-01  9.800000e-01  1.000000e-01
     vertex  4.592425e-18  7.500000e-02  1.000000e-01
     vertex  1.668907e-02  7.311959e-02  1.000000e-01
   endloop
 endfacet
 facet normal  0.000000e+00  0.000000e+00  1.000000e+00
   outer loop
     vertex  9.800000e-01  9.800000e-01  1.000000e-01
     vertex  7.500000e-02  0.000000e+00  1.000000e-01
     vertex  9.800000e-01 -9.800000e-01  1.000000e-01
   endloop
 endfacet
 facet normal  0.000000e+00  0.000000e+00  1.000000e+00
   outer loop
     vertex  9.800000e-01  9.800000e-01  1.000000e-01
     vertex -9.800000e-01  9.800000e-01  1.000000e-01
     vertex  4.592425e-18  7.500000e-02  1.000000e-01
   endloop
 endfacet
endsolid
