solid 
 facet normal -0.000000e+00  0.000000e+00 -1.000000e+00
   outer loop
     vertex  3.350000e-01  0.000000e+00  0.000000e+00
     vertex  5.000000e-03 -1.500000e-02  0.000000e+00
     vertex  5.000000e-03  0.000000e+00  0.000000e+00
   endloop
 endfacet
 facet normal  0.000000e+00 -0.000000e+00 -1.000000e+00
   outer loop
     vertex  3.350000e-01  0.000000e+00  0.000000e+00
     vertex  3.350000e-01 -1.500000e-02  0.000000e+00
     vertex  5.000000e-03 -1.500000e-02  0.000000e+00
   endloop
 endfacet
 facet normal  1.000000e+00  0.000000e+00  0.000000e+00
   outer loop
     vertex  3.350000e-01  0.000000e+00  9.800000e-01
     vertex  3.350000e-01 -1.500000e-02  0.000000e+00
     vertex  3.350000e-01  0.000000e+00  0.000000e+00
   endloop
 endfacet
 facet normal  1.000000e+00  0.000000e+00  0.000000e+00
   outer loop
     vertex  3.350000e-01  0.000000e+00  9.800000e-01
     vertex  3.350000e-01 -1.500000e-02  9.800000e-01
     vertex  3.350000e-01 -1.500000e-02  0.000000e+00
   endloop
 endfacet
 facet normal  0.000000e+00  0.000000e+00  1.000000e+00
   outer loop
     vertex  3.350000e-01  0.000000e+00  9.800000e-01
     vertex  0.000000e+00  0.000000e+00  9.800000e-01
     vertex  0.000000e+00 -1.500000e-02  9.800000e-01
   endloop
 endfacet
 facet normal  0.000000e+00  0.000000e+00  1.000000e+00
   outer loop
     vertex  3.350000e-01  0.000000e+00  9.800000e-01
     vertex  0.000000e+00 -1.500000e-02  9.800000e-01
     vertex  3.350000e-01 -1.500000e-02  9.800000e-01
   endloop
 endfacet
 facet normal -9.999870e-01  0.000000e+00 -5.101974e-03
   outer loop
     vertex  5.000000e-03  0.000000e+00  0.000000e+00
     vertex  0.000000e+00 -1.500000e-02  9.800000e-01
     vertex  0.000000e+00  0.000000e+00  9.800000e-01
   endloop
 endfacet
 facet normal -9.999870e-01 -0.000000e+00 -5.101974e-03
   outer loop
     vertex  5.000000e-03  0.000000e+00  0.000000e+00
     vertex  5.000000e-03 -1.500000e-02  0.000000e+00
     vertex  0.000000e+00 -1.500000e-02  9.800000e-01
   endloop
 endfacet
 facet normal  0.000000e+00  1.000000e+00  0.000000e+00
   outer loop
     vertex  3.350000e-01  0.000000e+00  9.800000e-01
     vertex  3.350000e-01  0.000000e+00  0.000000e+00
     vertex  5.000000e-03  0.000000e+00  0.000000e+00
   endloop
 endfacet
 facet normal  0.000000e+00  1.000000e+00  0.000000e+00
   outer loop
     vertex  3.350000e-01  0.000000e+00  9.800000e-01
     vertex  5.000000e-03  0.000000e+00  0.000000e+00
     vertex  0.000000e+00  0.000000e+00  9.800000e-01
   endloop
 endfacet
 facet normal  0.000000e+00 -1.000000e+00 -0.000000e+00
   outer loop
     vertex  3.350000e-01 -1.500000e-02  9.800000e-01
     vertex  5.000000e-03 -1.500000e-02  0.000000e+00
     vertex  3.350000e-01 -1.500000e-02  0.000000e+00
   endloop
 endfacet
 facet normal -0.000000e+00 -1.000000e+00  0.000000e+00
   outer loop
     vertex  3.350000e-01 -1.500000e-02  9.800000e-01
     vertex  0.000000e+00 -1.500000e-02  9.800000e-01
     vertex  5.000000e-03 -1.500000e-02  0.000000e+00
   endloop
 endfacet
 facet normal -0.000000e+00  0.000000e+00 -1.000000e+00
   outer loop
     vertex  3.260500e+01 -3.000000e+00  9.751000e+01
     vertex  3.256000e+01 -3.035000e+00  9.751000e+01
     vertex  3.256000e+01 -3.000000e+00  9.751000e+01
   endloop
 endfacet
 facet normal  0.000000e+00 -0.000000e+00 -1.000000e+00
   outer loop
     vertex  3.260500e+01 -3.000000e+00  9.751000e+01
     vertex  3.260500e+01 -3.035000e+00  9.751000e+01
     vertex  3.256000e+01 -3.035000e+00  9.751000e+01
   endloop
 endfacet
 facet normal  1.000000e+00  0.000000e+00  0.000000e+00
   outer loop
     vertex  3.260500e+01 -3.000000e+00  9.757000e+01
     vertex  3.260500e+01 -3.035000e+00  9.751000e+01
     vertex  3.260500e+01 -3.000000e+00  9.751000e+01
   endloop
 endfacet
 facet normal  1.000000e+00  0.000000e+00  0.000000e+00
   outer loop
     vertex  3.260500e+01 -3.000000e+00  9.757000e+01
     vertex  3.260500e+01 -3.035000e+00  9.757000e+01
     vertex  3.260500e+01 -3.035000e+00  9.751000e+01
   endloop
 endfacet
 facet normal  0.000000e+00  0.000000e+00  1.000000e+00
   outer loop
     vertex  3.260500e+01 -3.000000e+00  9.757000e+01
     vertex  3.256000e+01 -3.000000e+00  9.757000e+01
     vertex  3.256000e+01 -3.035000e+00  9.757000e+01
   endloop
 endfacet
 facet normal  0.000000e+00  0.000000e+00  1.000000e+00
   outer loop
     vertex  3.260500e+01 -3.000000e+00  9.757000e+01
     vertex  3.256000e+01 -3.035000e+00  9.757000e+01
     vertex  3.260500e+01 -3.035000e+00  9.757000e+01
   endloop
 endfacet
 facet normal -1.000000e+00  0.000000e+00 -0.000000e+00
   outer loop
     vertex  3.256000e+01 -3.000000e+00  9.757000e+01
     vertex  3.256000e+01 -3.000000e+00  9.751000e+01
     vertex  3.256000e+01 -3.035000e+00  9.751000e+01
   endloop
 endfacet
 facet normal -1.000000e+00 -0.000000e+00  0.000000e+00
   outer loop
     vertex  3.256000e+01 -3.000000e+00  9.757000e+01
     vertex  3.256000e+01 -3.035000e+00  9.751000e+01
     vertex  3.256000e+01 -3.035000e+00  9.757000e+01
   endloop
 endfacet
 facet normal  0.000000e+00  1.000000e+00  0.000000e+00
   outer loop
     vertex  3.260500e+01 -3.000000e+00  9.757000e+01
     vertex  3.260500e+01 -3.000000e+00  9.751000e+01
     vertex  3.256000e+01 -3.000000e+00  9.751000e+01
   endloop
 endfacet
 facet normal  0.000000e+00  1.000000e+00  0.000000e+00
   outer loop
     vertex  3.260500e+01 -3.000000e+00  9.757000e+01
     vertex  3.256000e+01 -3.000000e+00  9.751000e+01
     vertex  3.256000e+01 -3.000000e+00  9.757000e+01
   endloop
 endfacet
 facet normal  0.000000e+00 -1.000000e+00 -0.000000e+00
   outer loop
     vertex  3.260500e+01 -3.035000e+00  9.757000e+01
     vertex  3.256000e+01 -3.035000e+00  9.751000e+01
     vertex  3.260500e+01 -3.035000e+00  9.751000e+01
   endloop
 endfacet
 facet normal -0.000000e+00 -1.000000e+00  0.000000e+00
   outer loop
     vertex  3.260500e+01 -3.035000e+00  9.757000e+01
     vertex  3.256000e+01 -3.035000e+00  9.757000e+01
     vertex  3.256000e+01 -3.035000e+00  9.751000e+01
   endloop
 endfacet
 facet normal  0.000000e+00  0.000000e+00  1.000000e+00
   outer loop
     vertex  3.260500e+01 -3.000000e+00  9.824500e+01
     vertex  3.256000e+01 -3.000000e+00  9.824500e+01
     vertex  3.256000e+01 -3.035000e+00  9.824500e+01
   endloop
 endfacet
 facet normal  0.000000e+00  0.000000e+00  1.000000e+00
   outer loop
     vertex  3.260500e+01 -3.000000e+00  9.824500e+01
     vertex  3.256000e+01 -3.035000e+00  9.824500e+01
     vertex  3.260500e+01 -3.035000e+00  9.824500e+01
   endloop
 endfacet
 facet normal  1.000000e+00  0.000000e+00 -0.000000e+00
   outer loop
     vertex  3.260500e+01 -3.000000e+00  9.814000e+01
     vertex  3.260500e+01 -3.000000e+00  9.824500e+01
     vertex  3.260500e+01 -3.035000e+00  9.824500e+01
   endloop
 endfacet
 facet normal  1.000000e+00  0.000000e+00  0.000000e+00
   outer loop
     vertex  3.260500e+01 -3.000000e+00  9.814000e+01
     vertex  3.260500e+01 -3.035000e+00  9.824500e+01
     vertex  3.260500e+01 -3.035000e+00  9.814000e+01
   endloop
 endfacet
 facet normal -0.000000e+00  0.000000e+00 -1.000000e+00
   outer loop
     vertex  3.260500e+01 -3.000000e+00  9.814000e+01
     vertex  3.256000e+01 -3.035000e+00  9.814000e+01
     vertex  3.256000e+01 -3.000000e+00  9.814000e+01
   endloop
 endfacet
 facet normal  0.000000e+00 -0.000000e+00 -1.000000e+00
   outer loop
     vertex  3.260500e+01 -3.000000e+00  9.814000e+01
     vertex  3.260500e+01 -3.035000e+00  9.814000e+01
     vertex  3.256000e+01 -3.035000e+00  9.814000e+01
   endloop
 endfacet
 facet normal -1.000000e+00  0.000000e+00  0.000000e+00
   outer loop
     vertex  3.256000e+01 -3.000000e+00  9.814000e+01
     vertex  3.256000e+01 -3.035000e+00  9.824500e+01
     vertex  3.256000e+01 -3.000000e+00  9.824500e+01
   endloop
 endfacet
 facet normal -1.000000e+00  0.000000e+00  0.000000e+00
   outer loop
     vertex  3.256000e+01 -3.000000e+00  9.814000e+01
     vertex  3.256000e+01 -3.035000e+00  9.814000e+01
     vertex  3.256000e+01 -3.035000e+00  9.824500e+01
   endloop
 endfacet
 facet normal  0.000000e+00  1.000000e+00  0.000000e+00
   outer loop
     vertex  3.260500e+01 -3.000000e+00  9.824500e+01
     vertex  3.256000e+01 -3.000000e+00  9.814000e+01
     vertex  3.256000e+01 -3.000000e+00  9.824500e+01
   endloop
 endfacet
 facet normal  0.000000e+00  1.000000e+00  0.000000e+00
   outer loop
     vertex  3.260500e+01 -3.000000e+00  9.824500e+01
     vertex  3.260500e+01 -3.000000e+00  9.814000e+01
     vertex  3.256000e+01 -3.000000e+00  9.814000e+01
   endloop
 endfacet
 facet normal -0.000000e+00 -1.000000e+00  0.000000e+00
   outer loop
     vertex  3.260500e+01 -3.035000e+00  9.824500e+01
     vertex  3.256000e+01 -3.035000e+00  9.824500e+01
     vertex  3.256000e+01 -3.035000e+00  9.814000e+01
   endloop
 endfacet
 facet normal  0.000000e+00 -1.000000e+00 -0.000000e+00
   outer loop
     vertex  3.260500e+01 -3.035000e+00  9.824500e+01
     vertex  3.256000e+01 -3.035000e+00  9.814000e+01
     vertex  3.260500e+01 -3.035000e+00  9.814000e+01
   endloop
 endfacet
 facet normal -0.000000e+00  0.000000e+00 -1.000000e+00
   outer loop
     vertex  3.344000e+01 -3.000000e+00  9.751000e+01
     vertex  3.339500e+01 -3.035000e+00  9.751000e+01
     vertex  3.339500e+01 -3.000000e+00  9.751000e+01
   endloop
 endfacet
 facet normal  0.000000e+00 -0.000000e+00 -1.000000e+00
   outer loop
     vertex  3.344000e+01 -3.000000e+00  9.751000e+01
     vertex  3.344000e+01 -3.035000e+00  9.751000e+01
     vertex  3.339500e+01 -3.035000e+00  9.751000e+01
   endloop
 endfacet
 facet normal  1.000000e+00  0.000000e+00  0.000000e+00
   outer loop
     vertex  3.344000e+01 -3.000000e+00  9.757000e+01
     vertex  3.344000e+01 -3.035000e+00  9.751000e+01
     vertex  3.344000e+01 -3.000000e+00  9.751000e+01
   endloop
 endfacet
 facet normal  1.000000e+00  0.000000e+00  0.000000e+00
   outer loop
     vertex  3.344000e+01 -3.000000e+00  9.757000e+01
     vertex  3.344000e+01 -3.035000e+00  9.757000e+01
     vertex  3.344000e+01 -3.035000e+00  9.751000e+01
   endloop
 endfacet
 facet normal -0.000000e+00  0.000000e+00  1.000000e+00
   outer loop
     vertex  3.339500e+01 -3.000000e+00  9.757000e+01
     vertex  3.344000e+01 -3.035000e+00  9.757000e+01
     vertex  3.344000e+01 -3.000000e+00  9.757000e+01
   endloop
 endfacet
 facet normal  0.000000e+00  0.000000e+00  1.000000e+00
   outer loop
     vertex  3.339500e+01 -3.000000e+00  9.757000e+01
     vertex  3.339500e+01 -3.035000e+00  9.757000e+01
     vertex  3.344000e+01 -3.035000e+00  9.757000e+01
   endloop
 endfacet
 facet normal -1.000000e+00  0.000000e+00 -0.000000e+00
   outer loop
     vertex  3.339500e+01 -3.000000e+00  9.757000e+01
     vertex  3.339500e+01 -3.000000e+00  9.751000e+01
     vertex  3.339500e+01 -3.035000e+00  9.751000e+01
   endloop
 endfacet
 facet normal -1.000000e+00 -0.000000e+00  0.000000e+00
   outer loop
     vertex  3.339500e+01 -3.000000e+00  9.757000e+01
     vertex  3.339500e+01 -3.035000e+00  9.751000e+01
     vertex  3.339500e+01 -3.035000e+00  9.757000e+01
   endloop
 endfacet
 facet normal  0.000000e+00  1.000000e+00  0.000000e+00
   outer loop
     vertex  3.344000e+01 -3.000000e+00  9.757000e+01
     vertex  3.344000e+01 -3.000000e+00  9.751000e+01
     vertex  3.339500e+01 -3.000000e+00  9.751000e+01
   endloop
 endfacet
 facet normal  0.000000e+00  1.000000e+00  0.000000e+00
   outer loop
     vertex  3.344000e+01 -3.000000e+00  9.757000e+01
     vertex  3.339500e+01 -3.000000e+00  9.751000e+01
     vertex  3.339500e+01 -3.000000e+00  9.757000e+01
   endloop
 endfacet
 facet normal  0.000000e+00 -1.000000e+00 -0.000000e+00
   outer loop
     vertex  3.344000e+01 -3.035000e+00  9.757000e+01
     vertex  3.339500e+01 -3.035000e+00  9.751000e+01
     vertex  3.344000e+01 -3.035000e+00  9.751000e+01
   endloop
 endfacet
 facet normal -0.000000e+00 -1.000000e+00  0.000000e+00
   outer loop
     vertex  3.344000e+01 -3.035000e+00  9.757000e+01
     vertex  3.339500e+01 -3.035000e+00  9.757000e+01
     vertex  3.339500e+01 -3.035000e+00  9.751000e+01
   endloop
 endfacet
 facet normal  0.000000e+00  0.000000e+00  1.000000e+00
   outer loop
     vertex  3.344000e+01 -3.000000e+00  9.824500e+01
     vertex  3.339500e+01 -3.000000e+00  9.824500e+01
     vertex  3.339500e+01 -3.035000e+00  9.824500e+01
   endloop
 endfacet
 facet normal  0.000000e+00  0.000000e+00  1.000000e+00
   outer loop
     vertex  3.344000e+01 -3.000000e+00  9.824500e+01
     vertex  3.339500e+01 -3.035000e+00  9.824500e+01
     vertex  3.344000e+01 -3.035000e+00  9.824500e+01
   endloop
 endfacet
 facet normal  1.000000e+00  0.000000e+00 -0.000000e+00
   outer loop
     vertex  3.344000e+01 -3.000000e+00  9.814000e+01
     vertex  3.344000e+01 -3.000000e+00  9.824500e+01
     vertex  3.344000e+01 -3.035000e+00  9.824500e+01
   endloop
 endfacet
 facet normal  1.000000e+00  0.000000e+00  0.000000e+00
   outer loop
     vertex  3.344000e+01 -3.000000e+00  9.814000e+01
     vertex  3.344000e+01 -3.035000e+00  9.824500e+01
     vertex  3.344000e+01 -3.035000e+00  9.814000e+01
   endloop
 endfacet
 facet normal -0.000000e+00  0.000000e+00 -1.000000e+00
   outer loop
     vertex  3.344000e+01 -3.000000e+00  9.814000e+01
     vertex  3.339500e+01 -3.035000e+00  9.814000e+01
     vertex  3.339500e+01 -3.000000e+00  9.814000e+01
   endloop
 endfacet
 facet normal  0.000000e+00 -0.000000e+00 -1.000000e+00
   outer loop
     vertex  3.344000e+01 -3.000000e+00  9.814000e+01
     vertex  3.344000e+01 -3.035000e+00  9.814000e+01
     vertex  3.339500e+01 -3.035000e+00  9.814000e+01
   endloop
 endfacet
 facet normal -1.000000e+00  0.000000e+00  0.000000e+00
   outer loop
     vertex  3.339500e+01 -3.000000e+00  9.814000e+01
     vertex  3.339500e+01 -3.035000e+00  9.824500e+01
     vertex  3.339500e+01 -3.000000e+00  9.824500e+01
   endloop
 endfacet
 facet normal -1.000000e+00  0.000000e+00  0.000000e+00
   outer loop
     vertex  3.339500e+01 -3.000000e+00  9.814000e+01
     vertex  3.339500e+01 -3.035000e+00  9.814000e+01
     vertex  3.339500e+01 -3.035000e+00  9.824500e+01
   endloop
 endfacet
 facet normal  0.000000e+00  1.000000e+00  0.000000e+00
   outer loop
     vertex  3.344000e+01 -3.000000e+00  9.824500e+01
     vertex  3.339500e+01 -3.000000e+00  9.814000e+01
     vertex  3.339500e+01 -3.000000e+00  9.824500e+01
   endloop
 endfacet
 facet normal  0.000000e+00  1.000000e+00  0.000000e+00
   outer loop
     vertex  3.344000e+01 -3.000000e+00  9.824500e+01
     vertex  3.344000e+01 -3.000000e+00  9.814000e+01
     vertex  3.339500e+01 -3.000000e+00  9.814000e+01
   endloop
 endfacet
 facet normal -0.000000e+00 -1.000000e+00  0.000000e+00
   outer loop
     vertex  3.344000e+01 -3.035000e+00  9.824500e+01
     vertex  3.339500e+01 -3.035000e+00  9.824500e+01
     vertex  3.339500e+01 -3.035000e+00  9.814000e+01
   endloop
 endfacet
 facet normal  0.000000e+00 -1.000000e+00 -0.000000e+00
   outer loop
     vertex  3.344000e+01 -3.035000e+00  9.824500e+01
     vertex  3.339500e+01 -3.035000e+00  9.814000e+01
     vertex  3.344000e+01 -3.035000e+00  9.814000e+01
   endloop
 endfacet
endsolid
