solid 
 facet normal  0.000000e+00 -1.000000e+00  0.000000e+00
   outer loop
     vertex -9.800000e-01 -9.800000e-01  0.000000e+00
     vertex  9.800000e-01 -9.800000e-01  0.000000e+00
     vertex  9.800000e-01 -9.800000e-01  3.250000e-01
   endloop
 endfacet
 facet normal  0.000000e+00 -1.000000e+00  0.000000e+00
   outer loop
     vertex -9.800000e-01 -9.800000e-01  0.000000e+00
     vertex  9.800000e-01 -9.800000e-01  3.250000e-01
     vertex -9.800000e-01 -9.800000e-01  3.250000e-01
   endloop
 endfacet
 facet normal  1.000000e+00  0.000000e+00  0.000000e+00
   outer loop
     vertex  9.800000e-01  9.800000e-01  0.000000e+00
     vertex  9.800000e-01 -9.800000e-01  3.250000e-01
     vertex  9.800000e-01 -9.800000e-01  0.000000e+00
   endloop
 endfacet
 facet normal  1.000000e+00  0.000000e+00 -0.000000e+00
   outer loop
     vertex  9.800000e-01  9.800000e-01  0.000000e+00
     vertex  9.800000e-01  9.800000e-01  3.250000e-01
     vertex  9.800000e-01 -9.800000e-01  3.250000e-01
   endloop
 endfacet
 facet normal -1.000000e+00  0.000000e+00  0.000000e+00
   outer loop
     vertex -9.800000e-01  9.800000e-01  0.000000e+00
     vertex -9.800000e-01 -9.800000e-01  0.000000e+00
     vertex -9.800000e-01 -9.800000e-01  3.250000e-01
   endloop
 endfacet
 facet normal -1.000000e+00  0.000000e+00  0.000000e+00
   outer loop
     vertex -9.800000e-01  9.800000e-01  0.000000e+00
     vertex -9.800000e-01 -9.800000e-01  3.250000e-01
     vertex -9.800000e-01  9.800000e-01  3.250000e-01
   endloop
 endfacet
 facet normal  0.000000e+00  1.000000e+00  0.000000e+00
   outer loop
     vertex -9.800000e-01  9.800000e-01  0.000000e+00
     vertex  9.800000e-01  9.800000e-01  3.250000e-01
     vertex  9.800000e-01  9.800000e-01  0.000000e+00
   endloop
 endfacet
 facet normal  0.000000e+00  1.000000e+00  0.000000e+00
   outer loop
     vertex -9.800000e-01  9.800000e-01  0.000000e+00
     vertex -9.800000e-01  9.800000e-01  3.250000e-01
     vertex  9.800000e-01  9.800000e-01  3.250000e-01
   endloop
 endfacet
 facet normal -9.961947e-01 -8.715574e-02  0.000000e+00
   outer loop
     vertex  1.280250e-01  2.257426e-02  0.000000e+00
     vertex  1.300000e-01  0.000000e+00  0.000000e+00
     vertex  1.300000e-01  0.000000e+00  3.250000e-01
   endloop
 endfacet
 facet normal -9.961947e-01 -8.715574e-02  0.000000e+00
   outer loop
     vertex  1.280250e-01  2.257426e-02  0.000000e+00
     vertex  1.300000e-01  0.000000e+00  3.250000e-01
     vertex  1.280250e-01  2.257426e-02  3.250000e-01
   endloop
 endfacet
 facet normal -9.659258e-01 -2.588190e-01  0.000000e+00
   outer loop
     vertex  1.221600e-01  4.446262e-02  0.000000e+00
     vertex  1.280250e-01  2.257426e-02  3.250000e-01
     vertex  1.221600e-01  4.446262e-02  3.250000e-01
   endloop
 endfacet
 facet normal -9.659258e-01 -2.588190e-01  0.000000e+00
   outer loop
     vertex  1.221600e-01  4.446262e-02  0.000000e+00
     vertex  1.280250e-01  2.257426e-02  0.000000e+00
     vertex  1.280250e-01  2.257426e-02  3.250000e-01
   endloop
 endfacet
 facet normal -9.063078e-01 -4.226183e-01  0.000000e+00
   outer loop
     vertex  1.125833e-01  6.500000e-02  0.000000e+00
     vertex  1.221600e-01  4.446262e-02  3.250000e-01
     vertex  1.125833e-01  6.500000e-02  3.250000e-01
   endloop
 endfacet
 facet normal -9.063078e-01 -4.226183e-01  0.000000e+00
   outer loop
     vertex  1.125833e-01  6.500000e-02  0.000000e+00
     vertex  1.221600e-01  4.446262e-02  0.000000e+00
     vertex  1.221600e-01  4.446262e-02  3.250000e-01
   endloop
 endfacet
 facet normal -8.191520e-01 -5.735764e-01  0.000000e+00
   outer loop
     vertex  9.958578e-02  8.356239e-02  0.000000e+00
     vertex  1.125833e-01  6.500000e-02  3.250000e-01
     vertex  9.958578e-02  8.356239e-02  3.250000e-01
   endloop
 endfacet
 facet normal -8.191520e-01 -5.735764e-01  0.000000e+00
   outer loop
     vertex  9.958578e-02  8.356239e-02  0.000000e+00
     vertex  1.125833e-01  6.500000e-02  0.000000e+00
     vertex  1.125833e-01  6.500000e-02  3.250000e-01
   endloop
 endfacet
 facet normal -7.071068e-01 -7.071068e-01  0.000000e+00
   outer loop
     vertex  8.356239e-02  9.958578e-02  0.000000e+00
     vertex  9.958578e-02  8.356239e-02  3.250000e-01
     vertex  8.356239e-02  9.958578e-02  3.250000e-01
   endloop
 endfacet
 facet normal -7.071068e-01 -7.071068e-01  0.000000e+00
   outer loop
     vertex  8.356239e-02  9.958578e-02  0.000000e+00
     vertex  9.958578e-02  8.356239e-02  0.000000e+00
     vertex  9.958578e-02  8.356239e-02  3.250000e-01
   endloop
 endfacet
 facet normal -5.735764e-01 -8.191520e-01  0.000000e+00
   outer loop
     vertex  6.500000e-02  1.125833e-01  0.000000e+00
     vertex  8.356239e-02  9.958578e-02  0.000000e+00
     vertex  8.356239e-02  9.958578e-02  3.250000e-01
   endloop
 endfacet
 facet normal -5.735764e-01 -8.191520e-01  0.000000e+00
   outer loop
     vertex  6.500000e-02  1.125833e-01  0.000000e+00
     vertex  8.356239e-02  9.958578e-02  3.250000e-01
     vertex  6.500000e-02  1.125833e-01  3.250000e-01
   endloop
 endfacet
 facet normal -4.226183e-01 -9.063078e-01  0.000000e+00
   outer loop
     vertex  4.446262e-02  1.221600e-01  0.000000e+00
     vertex  6.500000e-02  1.125833e-01  0.000000e+00
     vertex  6.500000e-02  1.125833e-01  3.250000e-01
   endloop
 endfacet
 facet normal -4.226183e-01 -9.063078e-01  0.000000e+00
   outer loop
     vertex  4.446262e-02  1.221600e-01  0.000000e+00
     vertex  6.500000e-02  1.125833e-01  3.250000e-01
     vertex  4.446262e-02  1.221600e-01  3.250000e-01
   endloop
 endfacet
 facet normal -2.588190e-01 -9.659258e-01  0.000000e+00
   outer loop
     vertex  2.257426e-02  1.280250e-01  0.000000e+00
     vertex  4.446262e-02  1.221600e-01  3.250000e-01
     vertex  2.257426e-02  1.280250e-01  3.250000e-01
   endloop
 endfacet
 facet normal -2.588190e-01 -9.659258e-01  0.000000e+00
   outer loop
     vertex  2.257426e-02  1.280250e-01  0.000000e+00
     vertex  4.446262e-02  1.221600e-01  0.000000e+00
     vertex  4.446262e-02  1.221600e-01  3.250000e-01
   endloop
 endfacet
 facet normal -8.715574e-02 -9.961947e-01  0.000000e+00
   outer loop
     vertex  7.960204e-18  1.300000e-01  0.000000e+00
     vertex  2.257426e-02  1.280250e-01  3.250000e-01
     vertex  7.960204e-18  1.300000e-01  3.250000e-01
   endloop
 endfacet
 facet normal -8.715574e-02 -9.961947e-01  0.000000e+00
   outer loop
     vertex  7.960204e-18  1.300000e-01  0.000000e+00
     vertex  2.257426e-02  1.280250e-01  0.000000e+00
     vertex  2.257426e-02  1.280250e-01  3.250000e-01
   endloop
 endfacet
 facet normal  8.715574e-02 -9.961947e-01  0.000000e+00
   outer loop
     vertex -2.257426e-02  1.280250e-01  0.000000e+00
     vertex  7.960204e-18  1.300000e-01  3.250000e-01
     vertex -2.257426e-02  1.280250e-01  3.250000e-01
   endloop
 endfacet
 facet normal  8.715574e-02 -9.961947e-01  0.000000e+00
   outer loop
     vertex -2.257426e-02  1.280250e-01  0.000000e+00
     vertex  7.960204e-18  1.300000e-01  0.000000e+00
     vertex  7.960204e-18  1.300000e-01  3.250000e-01
   endloop
 endfacet
 facet normal  2.588190e-01 -9.659258e-01  0.000000e+00
   outer loop
     vertex -4.446262e-02  1.221600e-01  0.000000e+00
     vertex -2.257426e-02  1.280250e-01  3.250000e-01
     vertex -4.446262e-02  1.221600e-01  3.250000e-01
   endloop
 endfacet
 facet normal  2.588190e-01 -9.659258e-01  0.000000e+00
   outer loop
     vertex -4.446262e-02  1.221600e-01  0.000000e+00
     vertex -2.257426e-02  1.280250e-01  0.000000e+00
     vertex -2.257426e-02  1.280250e-01  3.250000e-01
   endloop
 endfacet
 facet normal  4.226183e-01 -9.063078e-01  0.000000e+00
   outer loop
     vertex -6.500000e-02  1.125833e-01  0.000000e+00
     vertex -4.446262e-02  1.221600e-01  3.250000e-01
     vertex -6.500000e-02  1.125833e-01  3.250000e-01
   endloop
 endfacet
 facet normal  4.226183e-01 -9.063078e-01  0.000000e+00
   outer loop
     vertex -6.500000e-02  1.125833e-01  0.000000e+00
     vertex -4.446262e-02  1.221600e-01  0.000000e+00
     vertex -4.446262e-02  1.221600e-01  3.250000e-01
   endloop
 endfacet
 facet normal  5.735764e-01 -8.191520e-01  0.000000e+00
   outer loop
     vertex -8.356239e-02  9.958578e-02  0.000000e+00
     vertex -6.500000e-02  1.125833e-01  3.250000e-01
     vertex -8.356239e-02  9.958578e-02  3.250000e-01
   endloop
 endfacet
 facet normal  7.071068e-01 -7.071068e-01  0.000000e+00
   outer loop
     vertex -8.356239e-02  9.958578e-02  0.000000e+00
     vertex -8.356239e-02  9.958578e-02  3.250000e-01
     vertex -9.958578e-02  8.356239e-02  3.250000e-01
   endloop
 endfacet
 facet normal  5.735764e-01 -8.191520e-01  0.000000e+00
   outer loop
     vertex -8.356239e-02  9.958578e-02  0.000000e+00
     vertex -6.500000e-02  1.125833e-01  0.000000e+00
     vertex -6.500000e-02  1.125833e-01  3.250000e-01
   endloop
 endfacet
 facet normal  7.071068e-01 -7.071068e-01  0.000000e+00
   outer loop
     vertex -9.958578e-02  8.356239e-02  0.000000e+00
     vertex -8.356239e-02  9.958578e-02  0.000000e+00
     vertex -9.958578e-02  8.356239e-02  3.250000e-01
   endloop
 endfacet
 facet normal  8.191520e-01 -5.735764e-01  0.000000e+00
   outer loop
     vertex -1.125833e-01  6.500000e-02  0.000000e+00
     vertex -9.958578e-02  8.356239e-02  3.250000e-01
     vertex -1.125833e-01  6.500000e-02  3.250000e-01
   endloop
 endfacet
 facet normal  9.063078e-01 -4.226183e-01  0.000000e+00
   outer loop
     vertex -1.125833e-01  6.500000e-02  0.000000e+00
     vertex -1.125833e-01  6.500000e-02  3.250000e-01
     vertex -1.221600e-01  4.446262e-02  3.250000e-01
   endloop
 endfacet
 facet normal  8.191520e-01 -5.735764e-01  0.000000e+00
   outer loop
     vertex -1.125833e-01  6.500000e-02  0.000000e+00
     vertex -9.958578e-02  8.356239e-02  0.000000e+00
     vertex -9.958578e-02  8.356239e-02  3.250000e-01
   endloop
 endfacet
 facet normal  9.063078e-01 -4.226183e-01  0.000000e+00
   outer loop
     vertex -1.221600e-01  4.446262e-02  0.000000e+00
     vertex -1.125833e-01  6.500000e-02  0.000000e+00
     vertex -1.221600e-01  4.446262e-02  3.250000e-01
   endloop
 endfacet
 facet normal  9.659258e-01 -2.588190e-01  0.000000e+00
   outer loop
     vertex -1.280250e-01  2.257426e-02  0.000000e+00
     vertex -1.221600e-01  4.446262e-02  3.250000e-01
     vertex -1.280250e-01  2.257426e-02  3.250000e-01
   endloop
 endfacet
 facet normal  9.659258e-01 -2.588190e-01  0.000000e+00
   outer loop
     vertex -1.280250e-01  2.257426e-02  0.000000e+00
     vertex -1.221600e-01  4.446262e-02  0.000000e+00
     vertex -1.221600e-01  4.446262e-02  3.250000e-01
   endloop
 endfacet
 facet normal  9.961947e-01 -8.715574e-02  0.000000e+00
   outer loop
     vertex -1.300000e-01  1.891152e-16  0.000000e+00
     vertex -1.280250e-01  2.257426e-02  3.250000e-01
     vertex -1.300000e-01  1.891152e-16  3.250000e-01
   endloop
 endfacet
 facet normal  9.961947e-01 -8.715574e-02  0.000000e+00
   outer loop
     vertex -1.300000e-01  1.891152e-16  0.000000e+00
     vertex -1.280250e-01  2.257426e-02  0.000000e+00
     vertex -1.280250e-01  2.257426e-02  3.250000e-01
   endloop
 endfacet
 facet normal  9.961947e-01  8.715574e-02 -0.000000e+00
   outer loop
     vertex -1.280250e-01 -2.257426e-02  0.000000e+00
     vertex -1.300000e-01  1.891152e-16  3.250000e-01
     vertex -1.280250e-01 -2.257426e-02  3.250000e-01
   endloop
 endfacet
 facet normal  9.961947e-01  8.715574e-02  0.000000e+00
   outer loop
     vertex -1.280250e-01 -2.257426e-02  0.000000e+00
     vertex -1.300000e-01  1.891152e-16  0.000000e+00
     vertex -1.300000e-01  1.891152e-16  3.250000e-01
   endloop
 endfacet
 facet normal  9.659258e-01  2.588190e-01 -0.000000e+00
   outer loop
     vertex -1.221600e-01 -4.446262e-02  0.000000e+00
     vertex -1.280250e-01 -2.257426e-02  3.250000e-01
     vertex -1.221600e-01 -4.446262e-02  3.250000e-01
   endloop
 endfacet
 facet normal  9.659258e-01  2.588190e-01  0.000000e+00
   outer loop
     vertex -1.221600e-01 -4.446262e-02  0.000000e+00
     vertex -1.280250e-01 -2.257426e-02  0.000000e+00
     vertex -1.280250e-01 -2.257426e-02  3.250000e-01
   endloop
 endfacet
 facet normal  9.063078e-01  4.226183e-01 -0.000000e+00
   outer loop
     vertex -1.125833e-01 -6.500000e-02  0.000000e+00
     vertex -1.221600e-01 -4.446262e-02  3.250000e-01
     vertex -1.125833e-01 -6.500000e-02  3.250000e-01
   endloop
 endfacet
 facet normal  9.063078e-01  4.226183e-01  0.000000e+00
   outer loop
     vertex -1.125833e-01 -6.500000e-02  0.000000e+00
     vertex -1.221600e-01 -4.446262e-02  0.000000e+00
     vertex -1.221600e-01 -4.446262e-02  3.250000e-01
   endloop
 endfacet
 facet normal  8.191520e-01  5.735764e-01 -0.000000e+00
   outer loop
     vertex -9.958578e-02 -8.356239e-02  0.000000e+00
     vertex -1.125833e-01 -6.500000e-02  3.250000e-01
     vertex -9.958578e-02 -8.356239e-02  3.250000e-01
   endloop
 endfacet
 facet normal  8.191520e-01  5.735764e-01  0.000000e+00
   outer loop
     vertex -9.958578e-02 -8.356239e-02  0.000000e+00
     vertex -1.125833e-01 -6.500000e-02  0.000000e+00
     vertex -1.125833e-01 -6.500000e-02  3.250000e-01
   endloop
 endfacet
 facet normal  7.071068e-01  7.071068e-01 -0.000000e+00
   outer loop
     vertex -8.356239e-02 -9.958578e-02  0.000000e+00
     vertex -9.958578e-02 -8.356239e-02  3.250000e-01
     vertex -8.356239e-02 -9.958578e-02  3.250000e-01
   endloop
 endfacet
 facet normal  7.071068e-01  7.071068e-01  0.000000e+00
   outer loop
     vertex -8.356239e-02 -9.958578e-02  0.000000e+00
     vertex -9.958578e-02 -8.356239e-02  0.000000e+00
     vertex -9.958578e-02 -8.356239e-02  3.250000e-01
   endloop
 endfacet
 facet normal  5.735764e-01  8.191520e-01 -0.000000e+00
   outer loop
     vertex -6.500000e-02 -1.125833e-01  0.000000e+00
     vertex -8.356239e-02 -9.958578e-02  3.250000e-01
     vertex -6.500000e-02 -1.125833e-01  3.250000e-01
   endloop
 endfacet
 facet normal  4.226183e-01  9.063078e-01 -0.000000e+00
   outer loop
     vertex -6.500000e-02 -1.125833e-01  0.000000e+00
     vertex -6.500000e-02 -1.125833e-01  3.250000e-01
     vertex -4.446262e-02 -1.221600e-01  3.250000e-01
   endloop
 endfacet
 facet normal  5.735764e-01  8.191520e-01  0.000000e+00
   outer loop
     vertex -6.500000e-02 -1.125833e-01  0.000000e+00
     vertex -8.356239e-02 -9.958578e-02  0.000000e+00
     vertex -8.356239e-02 -9.958578e-02  3.250000e-01
   endloop
 endfacet
 facet normal  4.226183e-01  9.063078e-01 -0.000000e+00
   outer loop
     vertex -4.446262e-02 -1.221600e-01  0.000000e+00
     vertex -6.500000e-02 -1.125833e-01  0.000000e+00
     vertex -4.446262e-02 -1.221600e-01  3.250000e-01
   endloop
 endfacet
 facet normal  2.588190e-01  9.659258e-01 -0.000000e+00
   outer loop
     vertex -2.257426e-02 -1.280250e-01  0.000000e+00
     vertex -4.446262e-02 -1.221600e-01  3.250000e-01
     vertex -2.257426e-02 -1.280250e-01  3.250000e-01
   endloop
 endfacet
 facet normal  2.588190e-01  9.659258e-01  0.000000e+00
   outer loop
     vertex -2.257426e-02 -1.280250e-01  0.000000e+00
     vertex -4.446262e-02 -1.221600e-01  0.000000e+00
     vertex -4.446262e-02 -1.221600e-01  3.250000e-01
   endloop
 endfacet
 facet normal  8.715574e-02  9.961947e-01 -0.000000e+00
   outer loop
     vertex -3.702702e-16 -1.300000e-01  0.000000e+00
     vertex -2.257426e-02 -1.280250e-01  3.250000e-01
     vertex -3.702702e-16 -1.300000e-01  3.250000e-01
   endloop
 endfacet
 facet normal -8.715574e-02  9.961947e-01  0.000000e+00
   outer loop
     vertex -3.702702e-16 -1.300000e-01  0.000000e+00
     vertex -3.702702e-16 -1.300000e-01  3.250000e-01
     vertex  2.257426e-02 -1.280250e-01  3.250000e-01
   endloop
 endfacet
 facet normal  8.715574e-02  9.961947e-01  0.000000e+00
   outer loop
     vertex -3.702702e-16 -1.300000e-01  0.000000e+00
     vertex -2.257426e-02 -1.280250e-01  0.000000e+00
     vertex -2.257426e-02 -1.280250e-01  3.250000e-01
   endloop
 endfacet
 facet normal -8.715574e-02  9.961947e-01  0.000000e+00
   outer loop
     vertex  2.257426e-02 -1.280250e-01  0.000000e+00
     vertex -3.702702e-16 -1.300000e-01  0.000000e+00
     vertex  2.257426e-02 -1.280250e-01  3.250000e-01
   endloop
 endfacet
 facet normal -2.588190e-01  9.659258e-01  0.000000e+00
   outer loop
     vertex  4.446262e-02 -1.221600e-01  0.000000e+00
     vertex  2.257426e-02 -1.280250e-01  3.250000e-01
     vertex  4.446262e-02 -1.221600e-01  3.250000e-01
   endloop
 endfacet
 facet normal -2.588190e-01  9.659258e-01  0.000000e+00
   outer loop
     vertex  4.446262e-02 -1.221600e-01  0.000000e+00
     vertex  2.257426e-02 -1.280250e-01  0.000000e+00
     vertex  2.257426e-02 -1.280250e-01  3.250000e-01
   endloop
 endfacet
 facet normal -4.226183e-01  9.063078e-01  0.000000e+00
   outer loop
     vertex  6.500000e-02 -1.125833e-01  0.000000e+00
     vertex  4.446262e-02 -1.221600e-01  3.250000e-01
     vertex  6.500000e-02 -1.125833e-01  3.250000e-01
   endloop
 endfacet
 facet normal -4.226183e-01  9.063078e-01  0.000000e+00
   outer loop
     vertex  6.500000e-02 -1.125833e-01  0.000000e+00
     vertex  4.446262e-02 -1.221600e-01  0.000000e+00
     vertex  4.446262e-02 -1.221600e-01  3.250000e-01
   endloop
 endfacet
 facet normal -5.735764e-01  8.191520e-01  0.000000e+00
   outer loop
     vertex  8.356239e-02 -9.958578e-02  0.000000e+00
     vertex  6.500000e-02 -1.125833e-01  3.250000e-01
     vertex  8.356239e-02 -9.958578e-02  3.250000e-01
   endloop
 endfacet
 facet normal -5.735764e-01  8.191520e-01  0.000000e+00
   outer loop
     vertex  8.356239e-02 -9.958578e-02  0.000000e+00
     vertex  6.500000e-02 -1.125833e-01  0.000000e+00
     vertex  6.500000e-02 -1.125833e-01  3.250000e-01
   endloop
 endfacet
 facet normal -7.071068e-01  7.071068e-01  0.000000e+00
   outer loop
     vertex  9.958578e-02 -8.356239e-02  0.000000e+00
     vertex  8.356239e-02 -9.958578e-02  0.000000e+00
     vertex  8.356239e-02 -9.958578e-02  3.250000e-01
   endloop
 endfacet
 facet normal -7.071068e-01  7.071068e-01  0.000000e+00
   outer loop
     vertex  9.958578e-02 -8.356239e-02  0.000000e+00
     vertex  8.356239e-02 -9.958578e-02  3.250000e-01
     vertex  9.958578e-02 -8.356239e-02  3.250000e-01
   endloop
 endfacet
 facet normal -8.191520e-01  5.735764e-01  0.000000e+00
   outer loop
     vertex  1.125833e-01 -6.500000e-02  0.000000e+00
     vertex  9.958578e-02 -8.356239e-02  0.000000e+00
     vertex  9.958578e-02 -8.356239e-02  3.250000e-01
   endloop
 endfacet
 facet normal -8.191520e-01  5.735764e-01  0.000000e+00
   outer loop
     vertex  1.125833e-01 -6.500000e-02  0.000000e+00
     vertex  9.958578e-02 -8.356239e-02  3.250000e-01
     vertex  1.125833e-01 -6.500000e-02  3.250000e-01
   endloop
 endfacet
 facet normal -9.063078e-01  4.226183e-01  0.000000e+00
   outer loop
     vertex  1.221600e-01 -4.446262e-02  0.000000e+00
     vertex  1.125833e-01 -6.500000e-02  0.000000e+00
     vertex  1.125833e-01 -6.500000e-02  3.250000e-01
   endloop
 endfacet
 facet normal -9.063078e-01  4.226183e-01  0.000000e+00
   outer loop
     vertex  1.221600e-01 -4.446262e-02  0.000000e+00
     vertex  1.125833e-01 -6.500000e-02  3.250000e-01
     vertex  1.221600e-01 -4.446262e-02  3.250000e-01
   endloop
 endfacet
 facet normal -9.659258e-01  2.588190e-01  0.000000e+00
   outer loop
     vertex  1.221600e-01 -4.446262e-02  0.000000e+00
     vertex  1.221600e-01 -4.446262e-02  3.250000e-01
     vertex  1.280250e-01 -2.257426e-02  3.250000e-01
   endloop
 endfacet
 facet normal -9.659258e-01  2.588190e-01  0.000000e+00
   outer loop
     vertex  1.280250e-01 -2.257426e-02  0.000000e+00
     vertex  1.221600e-01 -4.446262e-02  0.000000e+00
     vertex  1.280250e-01 -2.257426e-02  3.250000e-01
   endloop
 endfacet
 facet normal -9.961947e-01  8.715574e-02  0.000000e+00
   outer loop
     vertex  1.300000e-01  0.000000e+00  0.000000e+00
     vertex  1.280250e-01 -2.257426e-02  0.000000e+00
     vertex  1.280250e-01 -2.257426e-02  3.250000e-01
   endloop
 endfacet
 facet normal -9.961947e-01  8.715574e-02  0.000000e+00
   outer loop
     vertex  1.300000e-01  0.000000e+00  0.000000e+00
     vertex  1.280250e-01 -2.257426e-02  3.250000e-01
     vertex  1.300000e-01  0.000000e+00  3.250000e-01
   endloop
 endfacet
 facet normal  0.000000e+00 -0.000000e+00 -1.000000e+00
   outer loop
     vertex -9.958578e-02 -8.356239e-02  0.000000e+00
     vertex -8.356239e-02 -9.958578e-02  0.000000e+00
     vertex -9.800000e-01 -9.800000e-01  0.000000e+00
   endloop
 endfacet
 facet normal -0.000000e+00  0.000000e+00 -1.000000e+00
   outer loop
     vertex -6.500000e-02 -1.125833e-01  0.000000e+00
     vertex -9.800000e-01 -9.800000e-01  0.000000e+00
     vertex -8.356239e-02 -9.958578e-02  0.000000e+00
   endloop
 endfacet
 facet normal  0.000000e+00 -0.000000e+00 -1.000000e+00
   outer loop
     vertex -1.125833e-01 -6.500000e-02  0.000000e+00
     vertex -9.958578e-02 -8.356239e-02  0.000000e+00
     vertex -9.800000e-01 -9.800000e-01  0.000000e+00
   endloop
 endfacet
 facet normal -0.000000e+00  0.000000e+00 -1.000000e+00
   outer loop
     vertex -4.446262e-02 -1.221600e-01  0.000000e+00
     vertex -9.800000e-01 -9.800000e-01  0.000000e+00
     vertex -6.500000e-02 -1.125833e-01  0.000000e+00
   endloop
 endfacet
 facet normal  0.000000e+00 -0.000000e+00 -1.000000e+00
   outer loop
     vertex -1.221600e-01 -4.446262e-02  0.000000e+00
     vertex -1.125833e-01 -6.500000e-02  0.000000e+00
     vertex -9.800000e-01 -9.800000e-01  0.000000e+00
   endloop
 endfacet
 facet normal -0.000000e+00  0.000000e+00 -1.000000e+00
   outer loop
     vertex -2.257426e-02 -1.280250e-01  0.000000e+00
     vertex -9.800000e-01 -9.800000e-01  0.000000e+00
     vertex -4.446262e-02 -1.221600e-01  0.000000e+00
   endloop
 endfacet
 facet normal  0.000000e+00 -0.000000e+00 -1.000000e+00
   outer loop
     vertex -1.280250e-01 -2.257426e-02  0.000000e+00
     vertex -1.221600e-01 -4.446262e-02  0.000000e+00
     vertex -9.800000e-01 -9.800000e-01  0.000000e+00
   endloop
 endfacet
 facet normal -0.000000e+00  0.000000e+00 -1.000000e+00
   outer loop
     vertex -3.702702e-16 -1.300000e-01  0.000000e+00
     vertex -9.800000e-01 -9.800000e-01  0.000000e+00
     vertex -2.257426e-02 -1.280250e-01  0.000000e+00
   endloop
 endfacet
 facet normal  0.000000e+00 -0.000000e+00 -1.000000e+00
   outer loop
     vertex -1.300000e-01  1.891152e-16  0.000000e+00
     vertex -1.280250e-01 -2.257426e-02  0.000000e+00
     vertex -9.800000e-01 -9.800000e-01  0.000000e+00
   endloop
 endfacet
 facet normal  0.000000e+00  0.000000e+00 -1.000000e+00
   outer loop
     vertex -9.800000e-01  9.800000e-01  0.000000e+00
     vertex -9.958578e-02  8.356239e-02  0.000000e+00
     vertex -1.125833e-01  6.500000e-02  0.000000e+00
   endloop
 endfacet
 facet normal  0.000000e+00  0.000000e+00 -1.000000e+00
   outer loop
     vertex -9.800000e-01  9.800000e-01  0.000000e+00
     vertex -1.125833e-01  6.500000e-02  0.000000e+00
     vertex -1.221600e-01  4.446262e-02  0.000000e+00
   endloop
 endfacet
 facet normal  0.000000e+00  0.000000e+00 -1.000000e+00
   outer loop
     vertex -9.800000e-01  9.800000e-01  0.000000e+00
     vertex -1.221600e-01  4.446262e-02  0.000000e+00
     vertex -1.280250e-01  2.257426e-02  0.000000e+00
   endloop
 endfacet
 facet normal  0.000000e+00  0.000000e+00 -1.000000e+00
   outer loop
     vertex -9.800000e-01  9.800000e-01  0.000000e+00
     vertex -1.280250e-01  2.257426e-02  0.000000e+00
     vertex -1.300000e-01  1.891152e-16  0.000000e+00
   endloop
 endfacet
 facet normal  0.000000e+00  0.000000e+00 -1.000000e+00
   outer loop
     vertex -9.800000e-01  9.800000e-01  0.000000e+00
     vertex -1.300000e-01  1.891152e-16  0.000000e+00
     vertex -9.800000e-01 -9.800000e-01  0.000000e+00
   endloop
 endfacet
 facet normal  0.000000e+00  0.000000e+00 -1.000000e+00
   outer loop
     vertex  9.800000e-01 -9.800000e-01  0.000000e+00
     vertex -3.702702e-16 -1.300000e-01  0.000000e+00
     vertex  2.257426e-02 -1.280250e-01  0.000000e+00
   endloop
 endfacet
 facet normal  0.000000e+00  0.000000e+00 -1.000000e+00
   outer loop
     vertex  9.800000e-01 -9.800000e-01  0.000000e+00
     vertex  2.257426e-02 -1.280250e-01  0.000000e+00
     vertex  4.446262e-02 -1.221600e-01  0.000000e+00
   endloop
 endfacet
 facet normal  0.000000e+00  0.000000e+00 -1.000000e+00
   outer loop
     vertex  9.800000e-01 -9.800000e-01  0.000000e+00
     vertex  4.446262e-02 -1.221600e-01  0.000000e+00
     vertex  6.500000e-02 -1.125833e-01  0.000000e+00
   endloop
 endfacet
 facet normal  0.000000e+00  0.000000e+00 -1.000000e+00
   outer loop
     vertex  9.800000e-01 -9.800000e-01  0.000000e+00
     vertex  6.500000e-02 -1.125833e-01  0.000000e+00
     vertex  8.356239e-02 -9.958578e-02  0.000000e+00
   endloop
 endfacet
 facet normal  0.000000e+00  0.000000e+00 -1.000000e+00
   outer loop
     vertex  9.800000e-01 -9.800000e-01  0.000000e+00
     vertex -9.800000e-01 -9.800000e-01  0.000000e+00
     vertex -3.702702e-16 -1.300000e-01  0.000000e+00
   endloop
 endfacet
 facet normal  0.000000e+00 -0.000000e+00 -1.000000e+00
   outer loop
     vertex  9.958578e-02 -8.356239e-02  0.000000e+00
     vertex  9.800000e-01 -9.800000e-01  0.000000e+00
     vertex  8.356239e-02 -9.958578e-02  0.000000e+00
   endloop
 endfacet
 facet normal -0.000000e+00  0.000000e+00 -1.000000e+00
   outer loop
     vertex -8.356239e-02  9.958578e-02  0.000000e+00
     vertex -9.958578e-02  8.356239e-02  0.000000e+00
     vertex -9.800000e-01  9.800000e-01  0.000000e+00
   endloop
 endfacet
 facet normal  0.000000e+00 -0.000000e+00 -1.000000e+00
   outer loop
     vertex  1.125833e-01 -6.500000e-02  0.000000e+00
     vertex  9.800000e-01 -9.800000e-01  0.000000e+00
     vertex  9.958578e-02 -8.356239e-02  0.000000e+00
   endloop
 endfacet
 facet normal -0.000000e+00  0.000000e+00 -1.000000e+00
   outer loop
     vertex -6.500000e-02  1.125833e-01  0.000000e+00
     vertex -8.356239e-02  9.958578e-02  0.000000e+00
     vertex -9.800000e-01  9.800000e-01  0.000000e+00
   endloop
 endfacet
 facet normal  0.000000e+00 -0.000000e+00 -1.000000e+00
   outer loop
     vertex  1.221600e-01 -4.446262e-02  0.000000e+00
     vertex  9.800000e-01 -9.800000e-01  0.000000e+00
     vertex  1.125833e-01 -6.500000e-02  0.000000e+00
   endloop
 endfacet
 facet normal -0.000000e+00  0.000000e+00 -1.000000e+00
   outer loop
     vertex -4.446262e-02  1.221600e-01  0.000000e+00
     vertex -6.500000e-02  1.125833e-01  0.000000e+00
     vertex -9.800000e-01  9.800000e-01  0.000000e+00
   endloop
 endfacet
 facet normal  0.000000e+00 -0.000000e+00 -1.000000e+00
   outer loop
     vertex  1.280250e-01 -2.257426e-02  0.000000e+00
     vertex  9.800000e-01 -9.800000e-01  0.000000e+00
     vertex  1.221600e-01 -4.446262e-02  0.000000e+00
   endloop
 endfacet
 facet normal -0.000000e+00  0.000000e+00 -1.000000e+00
   outer loop
     vertex -2.257426e-02  1.280250e-01  0.000000e+00
     vertex -4.446262e-02  1.221600e-01  0.000000e+00
     vertex -9.800000e-01  9.800000e-01  0.000000e+00
   endloop
 endfacet
 facet normal  0.000000e+00 -0.000000e+00 -1.000000e+00
   outer loop
     vertex  1.300000e-01  0.000000e+00  0.000000e+00
     vertex  9.800000e-01 -9.800000e-01  0.000000e+00
     vertex  1.280250e-01 -2.257426e-02  0.000000e+00
   endloop
 endfacet
 facet normal -0.000000e+00  0.000000e+00 -1.000000e+00
   outer loop
     vertex  7.960204e-18  1.300000e-01  0.000000e+00
     vertex -2.257426e-02  1.280250e-01  0.000000e+00
     vertex -9.800000e-01  9.800000e-01  0.000000e+00
   endloop
 endfacet
 facet normal -0.000000e+00  0.000000e+00 -1.000000e+00
   outer loop
     vertex  9.800000e-01  9.800000e-01  0.000000e+00
     vertex  7.960204e-18  1.300000e-01  0.000000e+00
     vertex -9.800000e-01  9.800000e-01  0.000000e+00
   endloop
 endfacet
 facet normal  0.000000e+00  0.000000e+00 -1.000000e+00
   outer loop
     vertex  9.800000e-01  9.800000e-01  0.000000e+00
     vertex  1.300000e-01  0.000000e+00  0.000000e+00
     vertex  1.280250e-01  2.257426e-02  0.000000e+00
   endloop
 endfacet
 facet normal  0.000000e+00  0.000000e+00 -1.000000e+00
   outer loop
     vertex  9.800000e-01  9.800000e-01  0.000000e+00
     vertex  1.280250e-01  2.257426e-02  0.000000e+00
     vertex  1.221600e-01  4.446262e-02  0.000000e+00
   endloop
 endfacet
 facet normal  0.000000e+00  0.000000e+00 -1.000000e+00
   outer loop
     vertex  9.800000e-01  9.800000e-01  0.000000e+00
     vertex  1.221600e-01  4.446262e-02  0.000000e+00
     vertex  1.125833e-01  6.500000e-02  0.000000e+00
   endloop
 endfacet
 facet normal  0.000000e+00  0.000000e+00 -1.000000e+00
   outer loop
     vertex  9.800000e-01  9.800000e-01  0.000000e+00
     vertex  1.125833e-01  6.500000e-02  0.000000e+00
     vertex  9.958578e-02  8.356239e-02  0.000000e+00
   endloop
 endfacet
 facet normal  0.000000e+00  0.000000e+00 -1.000000e+00
   outer loop
     vertex  9.800000e-01  9.800000e-01  0.000000e+00
     vertex  9.958578e-02  8.356239e-02  0.000000e+00
     vertex  8.356239e-02  9.958578e-02  0.000000e+00
   endloop
 endfacet
 facet normal  0.000000e+00  0.000000e+00 -1.000000e+00
   outer loop
     vertex  9.800000e-01  9.800000e-01  0.000000e+00
     vertex  8.356239e-02  9.958578e-02  0.000000e+00
     vertex  6.500000e-02  1.125833e-01  0.000000e+00
   endloop
 endfacet
 facet normal  0.000000e+00  0.000000e+00 -1.000000e+00
   outer loop
     vertex  9.800000e-01  9.800000e-01  0.000000e+00
     vertex  6.500000e-02  1.125833e-01  0.000000e+00
     vertex  4.446262e-02  1.221600e-01  0.000000e+00
   endloop
 endfacet
 facet normal  0.000000e+00  0.000000e+00 -1.000000e+00
   outer loop
     vertex  9.800000e-01  9.800000e-01  0.000000e+00
     vertex  4.446262e-02  1.221600e-01  0.000000e+00
     vertex  2.257426e-02  1.280250e-01  0.000000e+00
   endloop
 endfacet
 facet normal  0.000000e+00  0.000000e+00 -1.000000e+00
   outer loop
     vertex  9.800000e-01  9.800000e-01  0.000000e+00
     vertex  2.257426e-02  1.280250e-01  0.000000e+00
     vertex  7.960204e-18  1.300000e-01  0.000000e+00
   endloop
 endfacet
 facet normal  0.000000e+00 -0.000000e+00 -1.000000e+00
   outer loop
     vertex  9.800000e-01  9.800000e-01  0.000000e+00
     vertex  9.800000e-01 -9.800000e-01  0.000000e+00
     vertex  1.300000e-01  0.000000e+00  0.000000e+00
   endloop
 endfacet
 facet normal  0.000000e+00  0.000000e+00  1.000000e+00
   outer loop
     vertex -9.958578e-02 -8.356239e-02  3.250000e-01
     vertex -9.800000e-01 -9.800000e-01  3.250000e-01
     vertex -8.356239e-02 -9.958578e-02  3.250000e-01
   endloop
 endfacet
 facet normal  0.000000e+00  0.000000e+00  1.000000e+00
   outer loop
     vertex -6.500000e-02 -1.125833e-01  3.250000e-01
     vertex -8.356239e-02 -9.958578e-02  3.250000e-01
     vertex -9.800000e-01 -9.800000e-01  3.250000e-01
   endloop
 endfacet
 facet normal  0.000000e+00  0.000000e+00  1.000000e+00
   outer loop
     vertex -1.125833e-01 -6.500000e-02  3.250000e-01
     vertex -9.800000e-01 -9.800000e-01  3.250000e-01
     vertex -9.958578e-02 -8.356239e-02  3.250000e-01
   endloop
 endfacet
 facet normal  0.000000e+00  0.000000e+00  1.000000e+00
   outer loop
     vertex -4.446262e-02 -1.221600e-01  3.250000e-01
     vertex -6.500000e-02 -1.125833e-01  3.250000e-01
     vertex -9.800000e-01 -9.800000e-01  3.250000e-01
   endloop
 endfacet
 facet normal  0.000000e+00  0.000000e+00  1.000000e+00
   outer loop
     vertex -1.221600e-01 -4.446262e-02  3.250000e-01
     vertex -9.800000e-01 -9.800000e-01  3.250000e-01
     vertex -1.125833e-01 -6.500000e-02  3.250000e-01
   endloop
 endfacet
 facet normal  0.000000e+00  0.000000e+00  1.000000e+00
   outer loop
     vertex -2.257426e-02 -1.280250e-01  3.250000e-01
     vertex -4.446262e-02 -1.221600e-01  3.250000e-01
     vertex -9.800000e-01 -9.800000e-01  3.250000e-01
   endloop
 endfacet
 facet normal  0.000000e+00  0.000000e+00  1.000000e+00
   outer loop
     vertex -1.280250e-01 -2.257426e-02  3.250000e-01
     vertex -9.800000e-01 -9.800000e-01  3.250000e-01
     vertex -1.221600e-01 -4.446262e-02  3.250000e-01
   endloop
 endfacet
 facet normal  0.000000e+00  0.000000e+00  1.000000e+00
   outer loop
     vertex -3.702702e-16 -1.300000e-01  3.250000e-01
     vertex -2.257426e-02 -1.280250e-01  3.250000e-01
     vertex -9.800000e-01 -9.800000e-01  3.250000e-01
   endloop
 endfacet
 facet normal  0.000000e+00  0.000000e+00  1.000000e+00
   outer loop
     vertex -1.300000e-01  1.891152e-16  3.250000e-01
     vertex -9.800000e-01 -9.800000e-01  3.250000e-01
     vertex -1.280250e-01 -2.257426e-02  3.250000e-01
   endloop
 endfacet
 facet normal  0.000000e+00  0.000000e+00  1.000000e+00
   outer loop
     vertex -9.800000e-01  9.800000e-01  3.250000e-01
     vertex -1.125833e-01  6.500000e-02  3.250000e-01
     vertex -9.958578e-02  8.356239e-02  3.250000e-01
   endloop
 endfacet
 facet normal  0.000000e+00  0.000000e+00  1.000000e+00
   outer loop
     vertex -9.800000e-01  9.800000e-01  3.250000e-01
     vertex -1.221600e-01  4.446262e-02  3.250000e-01
     vertex -1.125833e-01  6.500000e-02  3.250000e-01
   endloop
 endfacet
 facet normal  0.000000e+00  0.000000e+00  1.000000e+00
   outer loop
     vertex -9.800000e-01  9.800000e-01  3.250000e-01
     vertex -1.280250e-01  2.257426e-02  3.250000e-01
     vertex -1.221600e-01  4.446262e-02  3.250000e-01
   endloop
 endfacet
 facet normal  0.000000e+00  0.000000e+00  1.000000e+00
   outer loop
     vertex -9.800000e-01  9.800000e-01  3.250000e-01
     vertex -1.300000e-01  1.891152e-16  3.250000e-01
     vertex -1.280250e-01  2.257426e-02  3.250000e-01
   endloop
 endfacet
 facet normal  0.000000e+00  0.000000e+00  1.000000e+00
   outer loop
     vertex -9.800000e-01  9.800000e-01  3.250000e-01
     vertex -9.800000e-01 -9.800000e-01  3.250000e-01
     vertex -1.300000e-01  1.891152e-16  3.250000e-01
   endloop
 endfacet
 facet normal  0.000000e+00  0.000000e+00  1.000000e+00
   outer loop
     vertex  9.800000e-01 -9.800000e-01  3.250000e-01
     vertex  2.257426e-02 -1.280250e-01  3.250000e-01
     vertex -3.702702e-16 -1.300000e-01  3.250000e-01
   endloop
 endfacet
 facet normal  0.000000e+00  0.000000e+00  1.000000e+00
   outer loop
     vertex  9.800000e-01 -9.800000e-01  3.250000e-01
     vertex  4.446262e-02 -1.221600e-01  3.250000e-01
     vertex  2.257426e-02 -1.280250e-01  3.250000e-01
   endloop
 endfacet
 facet normal  0.000000e+00  0.000000e+00  1.000000e+00
   outer loop
     vertex  9.800000e-01 -9.800000e-01  3.250000e-01
     vertex  6.500000e-02 -1.125833e-01  3.250000e-01
     vertex  4.446262e-02 -1.221600e-01  3.250000e-01
   endloop
 endfacet
 facet normal  0.000000e+00  0.000000e+00  1.000000e+00
   outer loop
     vertex  9.800000e-01 -9.800000e-01  3.250000e-01
     vertex  8.356239e-02 -9.958578e-02  3.250000e-01
     vertex  6.500000e-02 -1.125833e-01  3.250000e-01
   endloop
 endfacet
 facet normal  0.000000e+00  0.000000e+00  1.000000e+00
   outer loop
     vertex  9.800000e-01 -9.800000e-01  3.250000e-01
     vertex -3.702702e-16 -1.300000e-01  3.250000e-01
     vertex -9.800000e-01 -9.800000e-01  3.250000e-01
   endloop
 endfacet
 facet normal  0.000000e+00  0.000000e+00  1.000000e+00
   outer loop
     vertex  9.958578e-02 -8.356239e-02  3.250000e-01
     vertex  8.356239e-02 -9.958578e-02  3.250000e-01
     vertex  9.800000e-01 -9.800000e-01  3.250000e-01
   endloop
 endfacet
 facet normal  0.000000e+00  0.000000e+00  1.000000e+00
   outer loop
     vertex -8.356239e-02  9.958578e-02  3.250000e-01
     vertex -9.800000e-01  9.800000e-01  3.250000e-01
     vertex -9.958578e-02  8.356239e-02  3.250000e-01
   endloop
 endfacet
 facet normal  0.000000e+00  0.000000e+00  1.000000e+00
   outer loop
     vertex  1.125833e-01 -6.500000e-02  3.250000e-01
     vertex  9.958578e-02 -8.356239e-02  3.250000e-01
     vertex  9.800000e-01 -9.800000e-01  3.250000e-01
   endloop
 endfacet
 facet normal  0.000000e+00  0.000000e+00  1.000000e+00
   outer loop
     vertex -6.500000e-02  1.125833e-01  3.250000e-01
     vertex -9.800000e-01  9.800000e-01  3.250000e-01
     vertex -8.356239e-02  9.958578e-02  3.250000e-01
   endloop
 endfacet
 facet normal  0.000000e+00  0.000000e+00  1.000000e+00
   outer loop
     vertex  1.221600e-01 -4.446262e-02  3.250000e-01
     vertex  1.125833e-01 -6.500000e-02  3.250000e-01
     vertex  9.800000e-01 -9.800000e-01  3.250000e-01
   endloop
 endfacet
 facet normal  0.000000e+00  0.000000e+00  1.000000e+00
   outer loop
     vertex -4.446262e-02  1.221600e-01  3.250000e-01
     vertex -9.800000e-01  9.800000e-01  3.250000e-01
     vertex -6.500000e-02  1.125833e-01  3.250000e-01
   endloop
 endfacet
 facet normal  0.000000e+00  0.000000e+00  1.000000e+00
   outer loop
     vertex  1.280250e-01 -2.257426e-02  3.250000e-01
     vertex  1.221600e-01 -4.446262e-02  3.250000e-01
     vertex  9.800000e-01 -9.800000e-01  3.250000e-01
   endloop
 endfacet
 facet normal  0.000000e+00  0.000000e+00  1.000000e+00
   outer loop
     vertex -2.257426e-02  1.280250e-01  3.250000e-01
     vertex -9.800000e-01  9.800000e-01  3.250000e-01
     vertex -4.446262e-02  1.221600e-01  3.250000e-01
   endloop
 endfacet
 facet normal  0.000000e+00  0.000000e+00  1.000000e+00
   outer loop
     vertex  1.300000e-01  0.000000e+00  3.250000e-01
     vertex  1.280250e-01 -2.257426e-02  3.250000e-01
     vertex  9.800000e-01 -9.800000e-01  3.250000e-01
   endloop
 endfacet
 facet normal  0.000000e+00  0.000000e+00  1.000000e+00
   outer loop
     vertex  7.960204e-18  1.300000e-01  3.250000e-01
     vertex -9.800000e-01  9.800000e-01  3.250000e-01
     vertex -2.257426e-02  1.280250e-01  3.250000e-01
   endloop
 endfacet
 facet normal  0.000000e+00  0.000000e+00  1.000000e+00
   outer loop
     vertex  9.800000e-01  9.800000e-01  3.250000e-01
     vertex -9.800000e-01  9.800000e-01  3.250000e-01
     vertex  7.960204e-18  1.300000e-01  3.250000e-01
   endloop
 endfacet
 facet normal  0.000000e+00  0.000000e+00  1.000000e+00
   outer loop
     vertex  9.800000e-01  9.800000e-01  3.250000e-01
     vertex  1.280250e-01  2.257426e-02  3.250000e-01
     vertex  1.300000e-01  0.000000e+00  3.250000e-01
   endloop
 endfacet
 facet normal  0.000000e+00  0.000000e+00  1.000000e+00
   outer loop
     vertex  9.800000e-01  9.800000e-01  3.250000e-01
     vertex  1.221600e-01  4.446262e-02  3.250000e-01
     vertex  1.280250e-01  2.257426e-02  3.250000e-01
   endloop
 endfacet
 facet normal  0.000000e+00  0.000000e+00  1.000000e+00
   outer loop
     vertex  9.800000e-01  9.800000e-01  3.250000e-01
     vertex  1.125833e-01  6.500000e-02  3.250000e-01
     vertex  1.221600e-01  4.446262e-02  3.250000e-01
   endloop
 endfacet
 facet normal  0.000000e+00  0.000000e+00  1.000000e+00
   outer loop
     vertex  9.800000e-01  9.800000e-01  3.250000e-01
     vertex  9.958578e-02  8.356239e-02  3.250000e-01
     vertex  1.125833e-01  6.500000e-02  3.250000e-01
   endloop
 endfacet
 facet normal  0.000000e+00  0.000000e+00  1.000000e+00
   outer loop
     vertex  9.800000e-01  9.800000e-01  3.250000e-01
     vertex  8.356239e-02  9.958578e-02  3.250000e-01
     vertex  9.958578e-02  8.356239e-02  3.250000e-01
   endloop
 endfacet
 facet normal  0.000000e+00  0.000000e+00  1.000000e+00
   outer loop
     vertex  9.800000e-01  9.800000e-01  3.250000e-01
     vertex  6.500000e-02  1.125833e-01  3.250000e-01
     vertex  8.356239e-02  9.958578e-02  3.250000e-01
   endloop
 endfacet
 facet normal  0.000000e+00  0.000000e+00  1.000000e+00
   outer loop
     vertex  9.800000e-01  9.800000e-01  3.250000e-01
     vertex  4.446262e-02  1.221600e-01  3.250000e-01
     vertex  6.500000e-02  1.125833e-01  3.250000e-01
   endloop
 endfacet
 facet normal  0.000000e+00  0.000000e+00  1.000000e+00
   outer loop
     vertex  9.800000e-01  9.800000e-01  3.250000e-01
     vertex  2.257426e-02  1.280250e-01  3.250000e-01
     vertex  4.446262e-02  1.221600e-01  3.250000e-01
   endloop
 endfacet
 facet normal  0.000000e+00  0.000000e+00  1.000000e+00
   outer loop
     vertex  9.800000e-01  9.800000e-01  3.250000e-01
     vertex  7.960204e-18  1.300000e-01  3.250000e-01
     vertex  2.257426e-02  1.280250e-01  3.250000e-01
   endloop
 endfacet
 facet normal  0.000000e+00  0.000000e+00  1.000000e+00
   outer loop
     vertex  9.800000e-01  9.800000e-01  3.250000e-01
     vertex  1.300000e-01  0.000000e+00  3.250000e-01
     vertex  9.800000e-01 -9.800000e-01  3.250000e-01
   endloop
 endfacet
endsolid
