solid 
 facet normal -8.350608e-01  5.501577e-01  0.000000e+00
   outer loop
     vertex -9.800000e-01  0.000000e+00  0.000000e+00
     vertex -4.200000e-01  8.500000e-01  1.000000e+00
     vertex -4.200000e-01  8.500000e-01  0.000000e+00
   endloop
 endfacet
 facet normal -8.350608e-01  5.501577e-01  0.000000e+00
   outer loop
     vertex -9.800000e-01  0.000000e+00  0.000000e+00
     vertex -9.800000e-01  0.000000e+00  1.000000e+00
     vertex -4.200000e-01  8.500000e-01  1.000000e+00
   endloop
 endfacet
 facet normal  0.000000e+00 -1.000000e+00  0.000000e+00
   outer loop
     vertex  0.000000e+00  0.000000e+00  0.000000e+00
     vertex -9.800000e-01  0.000000e+00  1.000000e+00
     vertex -9.800000e-01  0.000000e+00  0.000000e+00
   endloop
 endfacet
 facet normal  0.000000e+00 -1.000000e+00  0.000000e+00
   outer loop
     vertex  0.000000e+00  0.000000e+00  0.000000e+00
     vertex  0.000000e+00  0.000000e+00  1.000000e+00
     vertex -9.800000e-01  0.000000e+00  1.000000e+00
   endloop
 endfacet
 facet normal  1.000000e+00  0.000000e+00  0.000000e+00
   outer loop
     vertex  0.000000e+00  0.000000e+00  0.000000e+00
     vertex  0.000000e+00  5.000000e-03  0.000000e+00
     vertex  0.000000e+00  5.000000e-03  1.000000e+00
   endloop
 endfacet
 facet normal  1.000000e+00  0.000000e+00  0.000000e+00
   outer loop
     vertex  0.000000e+00  0.000000e+00  0.000000e+00
     vertex  0.000000e+00  5.000000e-03  1.000000e+00
     vertex  0.000000e+00  0.000000e+00  1.000000e+00
   endloop
 endfacet
 facet normal  8.954844e-01  4.450929e-01  0.000000e+00
   outer loop
     vertex  0.000000e+00  5.000000e-03  0.000000e+00
     vertex -4.200000e-01  8.500000e-01  0.000000e+00
     vertex -4.200000e-01  8.500000e-01  1.000000e+00
   endloop
 endfacet
 facet normal  8.954844e-01  4.450929e-01 -0.000000e+00
   outer loop
     vertex  0.000000e+00  5.000000e-03  0.000000e+00
     vertex -4.200000e-01  8.500000e-01  1.000000e+00
     vertex  0.000000e+00  5.000000e-03  1.000000e+00
   endloop
 endfacet
 facet normal  0.000000e+00 -0.000000e+00 -1.000000e+00
   outer loop
     vertex  0.000000e+00  5.000000e-03  0.000000e+00
     vertex  0.000000e+00  0.000000e+00  0.000000e+00
     vertex -9.800000e-01  0.000000e+00  0.000000e+00
   endloop
 endfacet
 facet normal  0.000000e+00 -0.000000e+00 -1.000000e+00
   outer loop
     vertex -4.200000e-01  8.500000e-01  0.000000e+00
     vertex  0.000000e+00  5.000000e-03  0.000000e+00
     vertex -9.800000e-01  0.000000e+00  0.000000e+00
   endloop
 endfacet
 facet normal  0.000000e+00  0.000000e+00  1.000000e+00
   outer loop
     vertex  0.000000e+00  5.000000e-03  1.000000e+00
     vertex -9.800000e-01  0.000000e+00  1.000000e+00
     vertex  0.000000e+00  0.000000e+00  1.000000e+00
   endloop
 endfacet
 facet normal  0.000000e+00  0.000000e+00  1.000000e+00
   outer loop
     vertex -4.200000e-01  8.500000e-01  1.000000e+00
     vertex -9.800000e-01  0.000000e+00  1.000000e+00
     vertex  0.000000e+00  5.000000e-03  1.000000e+00
   endloop
 endfacet
endsolid
