solid 
 facet normal  9.927089e-01  0.000000e+00  1.205367e-01
   outer loop
     vertex  4.369238e-02  0.000000e+00  1.076920e-02
     vertex  4.500000e-02 -1.000000e+00  0.000000e+00
     vertex  4.500000e-02  0.000000e+00  0.000000e+00
   endloop
 endfacet
 facet normal  9.927089e-01  0.000000e+00  1.205367e-01
   outer loop
     vertex  4.369238e-02  0.000000e+00  1.076920e-02
     vertex  4.369238e-02 -1.000000e+00  1.076920e-02
     vertex  4.500000e-02 -1.000000e+00  0.000000e+00
   endloop
 endfacet
 facet normal  9.350162e-01  0.000000e+00  3.546049e-01
   outer loop
     vertex  3.984552e-02  0.000000e+00  2.091254e-02
     vertex  3.984552e-02 -1.000000e+00  2.091254e-02
     vertex  4.369238e-02 -1.000000e+00  1.076920e-02
   endloop
 endfacet
 facet normal  9.350162e-01  0.000000e+00  3.546049e-01
   outer loop
     vertex  3.984552e-02  0.000000e+00  2.091254e-02
     vertex  4.369238e-02 -1.000000e+00  1.076920e-02
     vertex  4.369238e-02  0.000000e+00  1.076920e-02
   endloop
 endfacet
 facet normal  8.229839e-01  0.000000e+00  5.680647e-01
   outer loop
     vertex  3.368298e-02  0.000000e+00  2.984052e-02
     vertex  3.368298e-02 -1.000000e+00  2.984052e-02
     vertex  3.984552e-02 -1.000000e+00  2.091254e-02
   endloop
 endfacet
 facet normal  8.229839e-01  0.000000e+00  5.680647e-01
   outer loop
     vertex  3.368298e-02  0.000000e+00  2.984052e-02
     vertex  3.984552e-02 -1.000000e+00  2.091254e-02
     vertex  3.984552e-02  0.000000e+00  2.091254e-02
   endloop
 endfacet
 facet normal  6.631227e-01  0.000000e+00  7.485107e-01
   outer loop
     vertex  2.556291e-02  0.000000e+00  3.703427e-02
     vertex  2.556291e-02 -1.000000e+00  3.703427e-02
     vertex  3.368298e-02 -1.000000e+00  2.984052e-02
   endloop
 endfacet
 facet normal  6.631227e-01  0.000000e+00  7.485107e-01
   outer loop
     vertex  2.556291e-02  0.000000e+00  3.703427e-02
     vertex  3.368298e-02 -1.000000e+00  2.984052e-02
     vertex  3.368298e-02  0.000000e+00  2.984052e-02
   endloop
 endfacet
 facet normal  4.647232e-01  0.000000e+00  8.854560e-01
   outer loop
     vertex  1.595722e-02  0.000000e+00  4.207573e-02
     vertex  1.595722e-02 -1.000000e+00  4.207573e-02
     vertex  2.556291e-02 -1.000000e+00  3.703427e-02
   endloop
 endfacet
 facet normal  4.647232e-01  0.000000e+00  8.854560e-01
   outer loop
     vertex  1.595722e-02  0.000000e+00  4.207573e-02
     vertex  2.556291e-02 -1.000000e+00  3.703427e-02
     vertex  2.556291e-02  0.000000e+00  3.703427e-02
   endloop
 endfacet
 facet normal  2.393157e-01  0.000000e+00  9.709418e-01
   outer loop
     vertex  5.424151e-03  0.000000e+00  4.467190e-02
     vertex  5.424151e-03 -1.000000e+00  4.467190e-02
     vertex  1.595722e-02 -1.000000e+00  4.207573e-02
   endloop
 endfacet
 facet normal  2.393157e-01  0.000000e+00  9.709418e-01
   outer loop
     vertex  5.424151e-03  0.000000e+00  4.467190e-02
     vertex  1.595722e-02 -1.000000e+00  4.207573e-02
     vertex  1.595722e-02  0.000000e+00  4.207573e-02
   endloop
 endfacet
 facet normal  0.000000e+00  0.000000e+00  1.000000e+00
   outer loop
     vertex -5.424151e-03  0.000000e+00  4.467190e-02
     vertex -5.424151e-03 -1.000000e+00  4.467190e-02
     vertex  5.424151e-03 -1.000000e+00  4.467190e-02
   endloop
 endfacet
 facet normal -0.000000e+00  0.000000e+00  1.000000e+00
   outer loop
     vertex -5.424151e-03  0.000000e+00  4.467190e-02
     vertex  5.424151e-03 -1.000000e+00  4.467190e-02
     vertex  5.424151e-03  0.000000e+00  4.467190e-02
   endloop
 endfacet
 facet normal -2.393157e-01  0.000000e+00  9.709418e-01
   outer loop
     vertex -1.595722e-02  0.000000e+00  4.207573e-02
     vertex -1.595722e-02 -1.000000e+00  4.207573e-02
     vertex -5.424151e-03 -1.000000e+00  4.467190e-02
   endloop
 endfacet
 facet normal -4.647232e-01  0.000000e+00  8.854560e-01
   outer loop
     vertex -1.595722e-02  0.000000e+00  4.207573e-02
     vertex -2.556291e-02 -1.000000e+00  3.703427e-02
     vertex -1.595722e-02 -1.000000e+00  4.207573e-02
   endloop
 endfacet
 facet normal -2.393157e-01  0.000000e+00  9.709418e-01
   outer loop
     vertex -1.595722e-02  0.000000e+00  4.207573e-02
     vertex -5.424151e-03 -1.000000e+00  4.467190e-02
     vertex -5.424151e-03  0.000000e+00  4.467190e-02
   endloop
 endfacet
 facet normal -4.647232e-01  0.000000e+00  8.854560e-01
   outer loop
     vertex -2.556291e-02  0.000000e+00  3.703427e-02
     vertex -2.556291e-02 -1.000000e+00  3.703427e-02
     vertex -1.595722e-02  0.000000e+00  4.207573e-02
   endloop
 endfacet
 facet normal -6.631227e-01  0.000000e+00  7.485107e-01
   outer loop
     vertex -3.368298e-02  0.000000e+00  2.984052e-02
     vertex -3.368298e-02 -1.000000e+00  2.984052e-02
     vertex -2.556291e-02 -1.000000e+00  3.703427e-02
   endloop
 endfacet
 facet normal -8.229839e-01  0.000000e+00  5.680647e-01
   outer loop
     vertex -3.368298e-02  0.000000e+00  2.984052e-02
     vertex -3.984552e-02 -1.000000e+00  2.091254e-02
     vertex -3.368298e-02 -1.000000e+00  2.984052e-02
   endloop
 endfacet
 facet normal -6.631227e-01  0.000000e+00  7.485107e-01
   outer loop
     vertex -3.368298e-02  0.000000e+00  2.984052e-02
     vertex -2.556291e-02 -1.000000e+00  3.703427e-02
     vertex -2.556291e-02  0.000000e+00  3.703427e-02
   endloop
 endfacet
 facet normal -8.229839e-01  0.000000e+00  5.680647e-01
   outer loop
     vertex -3.984552e-02  0.000000e+00  2.091254e-02
     vertex -3.984552e-02 -1.000000e+00  2.091254e-02
     vertex -3.368298e-02  0.000000e+00  2.984052e-02
   endloop
 endfacet
 facet normal -9.350162e-01  0.000000e+00  3.546049e-01
   outer loop
     vertex -4.369238e-02  0.000000e+00  1.076920e-02
     vertex -3.984552e-02 -1.000000e+00  2.091254e-02
     vertex -3.984552e-02  0.000000e+00  2.091254e-02
   endloop
 endfacet
 facet normal -9.350162e-01  0.000000e+00  3.546049e-01
   outer loop
     vertex -4.369238e-02  0.000000e+00  1.076920e-02
     vertex -4.369238e-02 -1.000000e+00  1.076920e-02
     vertex -3.984552e-02 -1.000000e+00  2.091254e-02
   endloop
 endfacet
 facet normal -9.927089e-01  0.000000e+00  1.205367e-01
   outer loop
     vertex -4.500000e-02  0.000000e+00  4.547894e-17
     vertex -4.369238e-02 -1.000000e+00  1.076920e-02
     vertex -4.369238e-02  0.000000e+00  1.076920e-02
   endloop
 endfacet
 facet normal -9.927089e-01  0.000000e+00  1.205367e-01
   outer loop
     vertex -4.500000e-02  0.000000e+00  4.547894e-17
     vertex -4.500000e-02 -1.000000e+00  4.547894e-17
     vertex -4.369238e-02 -1.000000e+00  1.076920e-02
   endloop
 endfacet
 facet normal -9.927089e-01 -0.000000e+00 -1.205367e-01
   outer loop
     vertex -4.500000e-02  0.000000e+00  4.547894e-17
     vertex -4.369238e-02 -1.000000e+00 -1.076920e-02
     vertex -4.500000e-02 -1.000000e+00  4.547894e-17
   endloop
 endfacet
 facet normal -9.927089e-01 -0.000000e+00 -1.205367e-01
   outer loop
     vertex -4.369238e-02  0.000000e+00 -1.076920e-02
     vertex -4.369238e-02 -1.000000e+00 -1.076920e-02
     vertex -4.500000e-02  0.000000e+00  4.547894e-17
   endloop
 endfacet
 facet normal -9.350162e-01 -0.000000e+00 -3.546049e-01
   outer loop
     vertex -3.984552e-02  0.000000e+00 -2.091254e-02
     vertex -3.984552e-02 -1.000000e+00 -2.091254e-02
     vertex -4.369238e-02 -1.000000e+00 -1.076920e-02
   endloop
 endfacet
 facet normal -9.350162e-01  0.000000e+00 -3.546049e-01
   outer loop
     vertex -3.984552e-02  0.000000e+00 -2.091254e-02
     vertex -4.369238e-02 -1.000000e+00 -1.076920e-02
     vertex -4.369238e-02  0.000000e+00 -1.076920e-02
   endloop
 endfacet
 facet normal -8.229839e-01 -0.000000e+00 -5.680647e-01
   outer loop
     vertex -3.368298e-02  0.000000e+00 -2.984052e-02
     vertex -3.368298e-02 -1.000000e+00 -2.984052e-02
     vertex -3.984552e-02 -1.000000e+00 -2.091254e-02
   endloop
 endfacet
 facet normal -8.229839e-01  0.000000e+00 -5.680647e-01
   outer loop
     vertex -3.368298e-02  0.000000e+00 -2.984052e-02
     vertex -3.984552e-02 -1.000000e+00 -2.091254e-02
     vertex -3.984552e-02  0.000000e+00 -2.091254e-02
   endloop
 endfacet
 facet normal -6.631227e-01 -0.000000e+00 -7.485107e-01
   outer loop
     vertex -2.556291e-02  0.000000e+00 -3.703427e-02
     vertex -2.556291e-02 -1.000000e+00 -3.703427e-02
     vertex -3.368298e-02 -1.000000e+00 -2.984052e-02
   endloop
 endfacet
 facet normal -6.631227e-01  0.000000e+00 -7.485107e-01
   outer loop
     vertex -2.556291e-02  0.000000e+00 -3.703427e-02
     vertex -3.368298e-02 -1.000000e+00 -2.984052e-02
     vertex -3.368298e-02  0.000000e+00 -2.984052e-02
   endloop
 endfacet
 facet normal -4.647232e-01 -0.000000e+00 -8.854560e-01
   outer loop
     vertex -1.595722e-02  0.000000e+00 -4.207573e-02
     vertex -1.595722e-02 -1.000000e+00 -4.207573e-02
     vertex -2.556291e-02 -1.000000e+00 -3.703427e-02
   endloop
 endfacet
 facet normal -4.647232e-01  0.000000e+00 -8.854560e-01
   outer loop
     vertex -1.595722e-02  0.000000e+00 -4.207573e-02
     vertex -2.556291e-02 -1.000000e+00 -3.703427e-02
     vertex -2.556291e-02  0.000000e+00 -3.703427e-02
   endloop
 endfacet
 facet normal -2.393157e-01 -0.000000e+00 -9.709418e-01
   outer loop
     vertex -5.424151e-03  0.000000e+00 -4.467190e-02
     vertex -5.424151e-03 -1.000000e+00 -4.467190e-02
     vertex -1.595722e-02 -1.000000e+00 -4.207573e-02
   endloop
 endfacet
 facet normal -2.393157e-01  0.000000e+00 -9.709418e-01
   outer loop
     vertex -5.424151e-03  0.000000e+00 -4.467190e-02
     vertex -1.595722e-02 -1.000000e+00 -4.207573e-02
     vertex -1.595722e-02  0.000000e+00 -4.207573e-02
   endloop
 endfacet
 facet normal -2.558518e-15 -0.000000e+00 -1.000000e+00
   outer loop
     vertex  5.424151e-03  0.000000e+00 -4.467190e-02
     vertex  5.424151e-03 -1.000000e+00 -4.467190e-02
     vertex -5.424151e-03 -1.000000e+00 -4.467190e-02
   endloop
 endfacet
 facet normal -2.558518e-15  0.000000e+00 -1.000000e+00
   outer loop
     vertex  5.424151e-03  0.000000e+00 -4.467190e-02
     vertex -5.424151e-03 -1.000000e+00 -4.467190e-02
     vertex -5.424151e-03  0.000000e+00 -4.467190e-02
   endloop
 endfacet
 facet normal  2.393157e-01  0.000000e+00 -9.709418e-01
   outer loop
     vertex  1.595722e-02  0.000000e+00 -4.207573e-02
     vertex  1.595722e-02 -1.000000e+00 -4.207573e-02
     vertex  5.424151e-03 -1.000000e+00 -4.467190e-02
   endloop
 endfacet
 facet normal  2.393157e-01  0.000000e+00 -9.709418e-01
   outer loop
     vertex  1.595722e-02  0.000000e+00 -4.207573e-02
     vertex  5.424151e-03 -1.000000e+00 -4.467190e-02
     vertex  5.424151e-03  0.000000e+00 -4.467190e-02
   endloop
 endfacet
 facet normal  4.647232e-01  0.000000e+00 -8.854560e-01
   outer loop
     vertex  2.556291e-02  0.000000e+00 -3.703427e-02
     vertex  2.556291e-02 -1.000000e+00 -3.703427e-02
     vertex  1.595722e-02 -1.000000e+00 -4.207573e-02
   endloop
 endfacet
 facet normal  4.647232e-01  0.000000e+00 -8.854560e-01
   outer loop
     vertex  2.556291e-02  0.000000e+00 -3.703427e-02
     vertex  1.595722e-02 -1.000000e+00 -4.207573e-02
     vertex  1.595722e-02  0.000000e+00 -4.207573e-02
   endloop
 endfacet
 facet normal  6.631227e-01  0.000000e+00 -7.485107e-01
   outer loop
     vertex  3.368298e-02  0.000000e+00 -2.984052e-02
     vertex  3.368298e-02 -1.000000e+00 -2.984052e-02
     vertex  2.556291e-02 -1.000000e+00 -3.703427e-02
   endloop
 endfacet
 facet normal  6.631227e-01  0.000000e+00 -7.485107e-01
   outer loop
     vertex  3.368298e-02  0.000000e+00 -2.984052e-02
     vertex  2.556291e-02 -1.000000e+00 -3.703427e-02
     vertex  2.556291e-02  0.000000e+00 -3.703427e-02
   endloop
 endfacet
 facet normal  8.229839e-01  0.000000e+00 -5.680647e-01
   outer loop
     vertex  3.984552e-02  0.000000e+00 -2.091254e-02
     vertex  3.984552e-02 -1.000000e+00 -2.091254e-02
     vertex  3.368298e-02 -1.000000e+00 -2.984052e-02
   endloop
 endfacet
 facet normal  8.229839e-01  0.000000e+00 -5.680647e-01
   outer loop
     vertex  3.984552e-02  0.000000e+00 -2.091254e-02
     vertex  3.368298e-02 -1.000000e+00 -2.984052e-02
     vertex  3.368298e-02  0.000000e+00 -2.984052e-02
   endloop
 endfacet
 facet normal  9.350162e-01  0.000000e+00 -3.546049e-01
   outer loop
     vertex  4.369238e-02  0.000000e+00 -1.076920e-02
     vertex  4.369238e-02 -1.000000e+00 -1.076920e-02
     vertex  3.984552e-02 -1.000000e+00 -2.091254e-02
   endloop
 endfacet
 facet normal  9.350162e-01  0.000000e+00 -3.546049e-01
   outer loop
     vertex  4.369238e-02  0.000000e+00 -1.076920e-02
     vertex  3.984552e-02 -1.000000e+00 -2.091254e-02
     vertex  3.984552e-02  0.000000e+00 -2.091254e-02
   endloop
 endfacet
 facet normal  9.927089e-01  0.000000e+00 -1.205367e-01
   outer loop
     vertex  4.500000e-02  0.000000e+00  0.000000e+00
     vertex  4.500000e-02 -1.000000e+00  0.000000e+00
     vertex  4.369238e-02 -1.000000e+00 -1.076920e-02
   endloop
 endfacet
 facet normal  9.927089e-01  0.000000e+00 -1.205367e-01
   outer loop
     vertex  4.500000e-02  0.000000e+00  0.000000e+00
     vertex  4.369238e-02 -1.000000e+00 -1.076920e-02
     vertex  4.369238e-02  0.000000e+00 -1.076920e-02
   endloop
 endfacet
 facet normal  0.000000e+00  1.000000e+00  0.000000e+00
   outer loop
     vertex  3.368298e-02  0.000000e+00  2.984052e-02
     vertex  4.369238e-02  0.000000e+00  1.076920e-02
     vertex  4.500000e-02  0.000000e+00  0.000000e+00
   endloop
 endfacet
 facet normal  0.000000e+00  1.000000e+00  0.000000e+00
   outer loop
     vertex  3.368298e-02  0.000000e+00  2.984052e-02
     vertex  3.984552e-02  0.000000e+00  2.091254e-02
     vertex  4.369238e-02  0.000000e+00  1.076920e-02
   endloop
 endfacet
 facet normal  0.000000e+00  1.000000e+00  0.000000e+00
   outer loop
     vertex  3.368298e-02  0.000000e+00  2.984052e-02
     vertex  1.595722e-02  0.000000e+00  4.207573e-02
     vertex  2.556291e-02  0.000000e+00  3.703427e-02
   endloop
 endfacet
 facet normal  0.000000e+00  1.000000e+00  0.000000e+00
   outer loop
     vertex  3.368298e-02  0.000000e+00  2.984052e-02
     vertex  5.424151e-03  0.000000e+00  4.467190e-02
     vertex  1.595722e-02  0.000000e+00  4.207573e-02
   endloop
 endfacet
 facet normal  0.000000e+00  1.000000e+00  0.000000e+00
   outer loop
     vertex  3.368298e-02  0.000000e+00  2.984052e-02
     vertex -5.424151e-03  0.000000e+00  4.467190e-02
     vertex  5.424151e-03  0.000000e+00  4.467190e-02
   endloop
 endfacet
 facet normal  0.000000e+00  1.000000e+00  0.000000e+00
   outer loop
     vertex  3.368298e-02  0.000000e+00  2.984052e-02
     vertex -1.595722e-02  0.000000e+00  4.207573e-02
     vertex -5.424151e-03  0.000000e+00  4.467190e-02
   endloop
 endfacet
 facet normal  0.000000e+00  1.000000e+00  0.000000e+00
   outer loop
     vertex  3.368298e-02  0.000000e+00  2.984052e-02
     vertex -2.556291e-02  0.000000e+00  3.703427e-02
     vertex -1.595722e-02  0.000000e+00  4.207573e-02
   endloop
 endfacet
 facet normal  0.000000e+00  1.000000e+00  0.000000e+00
   outer loop
     vertex  3.368298e-02  0.000000e+00  2.984052e-02
     vertex -3.368298e-02  0.000000e+00  2.984052e-02
     vertex -2.556291e-02  0.000000e+00  3.703427e-02
   endloop
 endfacet
 facet normal  0.000000e+00  1.000000e+00  0.000000e+00
   outer loop
     vertex  3.368298e-02  0.000000e+00  2.984052e-02
     vertex -3.984552e-02  0.000000e+00  2.091254e-02
     vertex -3.368298e-02  0.000000e+00  2.984052e-02
   endloop
 endfacet
 facet normal  0.000000e+00  1.000000e+00  0.000000e+00
   outer loop
     vertex  3.368298e-02  0.000000e+00  2.984052e-02
     vertex -4.369238e-02  0.000000e+00  1.076920e-02
     vertex -3.984552e-02  0.000000e+00  2.091254e-02
   endloop
 endfacet
 facet normal  0.000000e+00  1.000000e+00  0.000000e+00
   outer loop
     vertex  3.368298e-02  0.000000e+00  2.984052e-02
     vertex -4.500000e-02  0.000000e+00  4.547894e-17
     vertex -4.369238e-02  0.000000e+00  1.076920e-02
   endloop
 endfacet
 facet normal  0.000000e+00  1.000000e+00  0.000000e+00
   outer loop
     vertex  3.368298e-02  0.000000e+00  2.984052e-02
     vertex -4.369238e-02  0.000000e+00 -1.076920e-02
     vertex -4.500000e-02  0.000000e+00  4.547894e-17
   endloop
 endfacet
 facet normal  0.000000e+00  1.000000e+00  0.000000e+00
   outer loop
     vertex  3.368298e-02  0.000000e+00  2.984052e-02
     vertex -3.984552e-02  0.000000e+00 -2.091254e-02
     vertex -4.369238e-02  0.000000e+00 -1.076920e-02
   endloop
 endfacet
 facet normal  0.000000e+00  1.000000e+00  0.000000e+00
   outer loop
     vertex  3.368298e-02  0.000000e+00  2.984052e-02
     vertex -3.368298e-02  0.000000e+00 -2.984052e-02
     vertex -3.984552e-02  0.000000e+00 -2.091254e-02
   endloop
 endfacet
 facet normal  0.000000e+00  1.000000e+00  0.000000e+00
   outer loop
     vertex  3.368298e-02  0.000000e+00  2.984052e-02
     vertex -2.556291e-02  0.000000e+00 -3.703427e-02
     vertex -3.368298e-02  0.000000e+00 -2.984052e-02
   endloop
 endfacet
 facet normal  0.000000e+00  1.000000e+00  0.000000e+00
   outer loop
     vertex  3.368298e-02  0.000000e+00  2.984052e-02
     vertex -1.595722e-02  0.000000e+00 -4.207573e-02
     vertex -2.556291e-02  0.000000e+00 -3.703427e-02
   endloop
 endfacet
 facet normal  0.000000e+00  1.000000e+00  0.000000e+00
   outer loop
     vertex  3.368298e-02  0.000000e+00  2.984052e-02
     vertex -5.424151e-03  0.000000e+00 -4.467190e-02
     vertex -1.595722e-02  0.000000e+00 -4.207573e-02
   endloop
 endfacet
 facet normal  0.000000e+00  1.000000e+00  0.000000e+00
   outer loop
     vertex  3.368298e-02  0.000000e+00  2.984052e-02
     vertex  5.424151e-03  0.000000e+00 -4.467190e-02
     vertex -5.424151e-03  0.000000e+00 -4.467190e-02
   endloop
 endfacet
 facet normal  0.000000e+00  1.000000e+00  0.000000e+00
   outer loop
     vertex  3.368298e-02  0.000000e+00  2.984052e-02
     vertex  1.595722e-02  0.000000e+00 -4.207573e-02
     vertex  5.424151e-03  0.000000e+00 -4.467190e-02
   endloop
 endfacet
 facet normal  0.000000e+00  1.000000e+00  0.000000e+00
   outer loop
     vertex  3.368298e-02  0.000000e+00  2.984052e-02
     vertex  2.556291e-02  0.000000e+00 -3.703427e-02
     vertex  1.595722e-02  0.000000e+00 -4.207573e-02
   endloop
 endfacet
 facet normal  0.000000e+00  1.000000e+00  0.000000e+00
   outer loop
     vertex  3.368298e-02  0.000000e+00  2.984052e-02
     vertex  3.368298e-02  0.000000e+00 -2.984052e-02
     vertex  2.556291e-02  0.000000e+00 -3.703427e-02
   endloop
 endfacet
 facet normal  0.000000e+00  1.000000e+00  0.000000e+00
   outer loop
     vertex  3.368298e-02  0.000000e+00  2.984052e-02
     vertex  3.984552e-02  0.000000e+00 -2.091254e-02
     vertex  3.368298e-02  0.000000e+00 -2.984052e-02
   endloop
 endfacet
 facet normal  0.000000e+00  1.000000e+00  0.000000e+00
   outer loop
     vertex  3.368298e-02  0.000000e+00  2.984052e-02
     vertex  4.369238e-02  0.000000e+00 -1.076920e-02
     vertex  3.984552e-02  0.000000e+00 -2.091254e-02
   endloop
 endfacet
 facet normal  0.000000e+00  1.000000e+00  0.000000e+00
   outer loop
     vertex  3.368298e-02  0.000000e+00  2.984052e-02
     vertex  4.500000e-02  0.000000e+00  0.000000e+00
     vertex  4.369238e-02  0.000000e+00 -1.076920e-02
   endloop
 endfacet
 facet normal  0.000000e+00 -1.000000e+00  0.000000e+00
   outer loop
     vertex  3.368298e-02 -1.000000e+00  2.984052e-02
     vertex  4.500000e-02 -1.000000e+00  0.000000e+00
     vertex  4.369238e-02 -1.000000e+00  1.076920e-02
   endloop
 endfacet
 facet normal  0.000000e+00 -1.000000e+00  0.000000e+00
   outer loop
     vertex  3.368298e-02 -1.000000e+00  2.984052e-02
     vertex  4.369238e-02 -1.000000e+00  1.076920e-02
     vertex  3.984552e-02 -1.000000e+00  2.091254e-02
   endloop
 endfacet
 facet normal  0.000000e+00 -1.000000e+00  0.000000e+00
   outer loop
     vertex  3.368298e-02 -1.000000e+00  2.984052e-02
     vertex  2.556291e-02 -1.000000e+00  3.703427e-02
     vertex  1.595722e-02 -1.000000e+00  4.207573e-02
   endloop
 endfacet
 facet normal  0.000000e+00 -1.000000e+00  0.000000e+00
   outer loop
     vertex  3.368298e-02 -1.000000e+00  2.984052e-02
     vertex  1.595722e-02 -1.000000e+00  4.207573e-02
     vertex  5.424151e-03 -1.000000e+00  4.467190e-02
   endloop
 endfacet
 facet normal  0.000000e+00 -1.000000e+00  0.000000e+00
   outer loop
     vertex  3.368298e-02 -1.000000e+00  2.984052e-02
     vertex  5.424151e-03 -1.000000e+00  4.467190e-02
     vertex -5.424151e-03 -1.000000e+00  4.467190e-02
   endloop
 endfacet
 facet normal  0.000000e+00 -1.000000e+00  0.000000e+00
   outer loop
     vertex  3.368298e-02 -1.000000e+00  2.984052e-02
     vertex -5.424151e-03 -1.000000e+00  4.467190e-02
     vertex -1.595722e-02 -1.000000e+00  4.207573e-02
   endloop
 endfacet
 facet normal  0.000000e+00 -1.000000e+00  0.000000e+00
   outer loop
     vertex  3.368298e-02 -1.000000e+00  2.984052e-02
     vertex -1.595722e-02 -1.000000e+00  4.207573e-02
     vertex -2.556291e-02 -1.000000e+00  3.703427e-02
   endloop
 endfacet
 facet normal  0.000000e+00 -1.000000e+00  0.000000e+00
   outer loop
     vertex  3.368298e-02 -1.000000e+00  2.984052e-02
     vertex -2.556291e-02 -1.000000e+00  3.703427e-02
     vertex -3.368298e-02 -1.000000e+00  2.984052e-02
   endloop
 endfacet
 facet normal -0.000000e+00 -1.000000e+00  0.000000e+00
   outer loop
     vertex  3.368298e-02 -1.000000e+00  2.984052e-02
     vertex -3.368298e-02 -1.000000e+00  2.984052e-02
     vertex -3.984552e-02 -1.000000e+00  2.091254e-02
   endloop
 endfacet
 facet normal  0.000000e+00 -1.000000e+00  0.000000e+00
   outer loop
     vertex  3.368298e-02 -1.000000e+00  2.984052e-02
     vertex -3.984552e-02 -1.000000e+00  2.091254e-02
     vertex -4.369238e-02 -1.000000e+00  1.076920e-02
   endloop
 endfacet
 facet normal  0.000000e+00 -1.000000e+00  0.000000e+00
   outer loop
     vertex  3.368298e-02 -1.000000e+00  2.984052e-02
     vertex -4.369238e-02 -1.000000e+00  1.076920e-02
     vertex -4.500000e-02 -1.000000e+00  4.547894e-17
   endloop
 endfacet
 facet normal  0.000000e+00 -1.000000e+00  0.000000e+00
   outer loop
     vertex  3.368298e-02 -1.000000e+00  2.984052e-02
     vertex -4.500000e-02 -1.000000e+00  4.547894e-17
     vertex -4.369238e-02 -1.000000e+00 -1.076920e-02
   endloop
 endfacet
 facet normal  0.000000e+00 -1.000000e+00  0.000000e+00
   outer loop
     vertex  3.368298e-02 -1.000000e+00  2.984052e-02
     vertex -4.369238e-02 -1.000000e+00 -1.076920e-02
     vertex -3.984552e-02 -1.000000e+00 -2.091254e-02
   endloop
 endfacet
 facet normal  0.000000e+00 -1.000000e+00  0.000000e+00
   outer loop
     vertex  3.368298e-02 -1.000000e+00  2.984052e-02
     vertex -3.984552e-02 -1.000000e+00 -2.091254e-02
     vertex -3.368298e-02 -1.000000e+00 -2.984052e-02
   endloop
 endfacet
 facet normal  0.000000e+00 -1.000000e+00  0.000000e+00
   outer loop
     vertex  3.368298e-02 -1.000000e+00  2.984052e-02
     vertex -3.368298e-02 -1.000000e+00 -2.984052e-02
     vertex -2.556291e-02 -1.000000e+00 -3.703427e-02
   endloop
 endfacet
 facet normal  0.000000e+00 -1.000000e+00  0.000000e+00
   outer loop
     vertex  3.368298e-02 -1.000000e+00  2.984052e-02
     vertex -2.556291e-02 -1.000000e+00 -3.703427e-02
     vertex -1.595722e-02 -1.000000e+00 -4.207573e-02
   endloop
 endfacet
 facet normal  0.000000e+00 -1.000000e+00  0.000000e+00
   outer loop
     vertex  3.368298e-02 -1.000000e+00  2.984052e-02
     vertex -1.595722e-02 -1.000000e+00 -4.207573e-02
     vertex -5.424151e-03 -1.000000e+00 -4.467190e-02
   endloop
 endfacet
 facet normal  0.000000e+00 -1.000000e+00  0.000000e+00
   outer loop
     vertex  3.368298e-02 -1.000000e+00  2.984052e-02
     vertex -5.424151e-03 -1.000000e+00 -4.467190e-02
     vertex  5.424151e-03 -1.000000e+00 -4.467190e-02
   endloop
 endfacet
 facet normal  0.000000e+00 -1.000000e+00  0.000000e+00
   outer loop
     vertex  3.368298e-02 -1.000000e+00  2.984052e-02
     vertex  5.424151e-03 -1.000000e+00 -4.467190e-02
     vertex  1.595722e-02 -1.000000e+00 -4.207573e-02
   endloop
 endfacet
 facet normal  0.000000e+00 -1.000000e+00  0.000000e+00
   outer loop
     vertex  3.368298e-02 -1.000000e+00  2.984052e-02
     vertex  1.595722e-02 -1.000000e+00 -4.207573e-02
     vertex  2.556291e-02 -1.000000e+00 -3.703427e-02
   endloop
 endfacet
 facet normal  0.000000e+00 -1.000000e+00  0.000000e+00
   outer loop
     vertex  3.368298e-02 -1.000000e+00  2.984052e-02
     vertex  2.556291e-02 -1.000000e+00 -3.703427e-02
     vertex  3.368298e-02 -1.000000e+00 -2.984052e-02
   endloop
 endfacet
 facet normal  0.000000e+00 -1.000000e+00 -0.000000e+00
   outer loop
     vertex  3.368298e-02 -1.000000e+00  2.984052e-02
     vertex  3.368298e-02 -1.000000e+00 -2.984052e-02
     vertex  3.984552e-02 -1.000000e+00 -2.091254e-02
   endloop
 endfacet
 facet normal  0.000000e+00 -1.000000e+00  0.000000e+00
   outer loop
     vertex  3.368298e-02 -1.000000e+00  2.984052e-02
     vertex  3.984552e-02 -1.000000e+00 -2.091254e-02
     vertex  4.369238e-02 -1.000000e+00 -1.076920e-02
   endloop
 endfacet
 facet normal  0.000000e+00 -1.000000e+00  0.000000e+00
   outer loop
     vertex  3.368298e-02 -1.000000e+00  2.984052e-02
     vertex  4.369238e-02 -1.000000e+00 -1.076920e-02
     vertex  4.500000e-02 -1.000000e+00  0.000000e+00
   endloop
 endfacet
endsolid
