solid 
 facet normal  9.984268e-01  5.607045e-02  0.000000e+00
   outer loop
     vertex  3.080508e-01  3.470899e-02  0.000000e+00
     vertex  3.100000e-01  0.000000e+00  9.000000e-02
     vertex  3.100000e-01  0.000000e+00  0.000000e+00
   endloop
 endfacet
 facet normal  9.984268e-01  5.607045e-02 -0.000000e+00
   outer loop
     vertex  3.080508e-01  3.470899e-02  0.000000e+00
     vertex  3.080508e-01  3.470899e-02  9.000000e-02
     vertex  3.100000e-01  0.000000e+00  9.000000e-02
   endloop
 endfacet
 facet normal  9.858710e-01  1.675062e-01 -0.000000e+00
   outer loop
     vertex  3.022277e-01  6.898149e-02  0.000000e+00
     vertex  3.022277e-01  6.898149e-02  9.000000e-02
     vertex  3.080508e-01  3.470899e-02  9.000000e-02
   endloop
 endfacet
 facet normal  9.858710e-01  1.675062e-01  0.000000e+00
   outer loop
     vertex  3.022277e-01  6.898149e-02  0.000000e+00
     vertex  3.080508e-01  3.470899e-02  9.000000e-02
     vertex  3.080508e-01  3.470899e-02  0.000000e+00
   endloop
 endfacet
 facet normal  9.609173e-01  2.768355e-01 -0.000000e+00
   outer loop
     vertex  2.926038e-01  1.023865e-01  0.000000e+00
     vertex  2.926038e-01  1.023865e-01  9.000000e-02
     vertex  3.022277e-01  6.898149e-02  9.000000e-02
   endloop
 endfacet
 facet normal  9.609173e-01  2.768355e-01  0.000000e+00
   outer loop
     vertex  2.926038e-01  1.023865e-01  0.000000e+00
     vertex  3.022277e-01  6.898149e-02  9.000000e-02
     vertex  3.022277e-01  6.898149e-02  0.000000e+00
   endloop
 endfacet
 facet normal  9.238795e-01  3.826834e-01 -0.000000e+00
   outer loop
     vertex  2.793003e-01  1.345040e-01  0.000000e+00
     vertex  2.793003e-01  1.345040e-01  9.000000e-02
     vertex  2.926038e-01  1.023865e-01  9.000000e-02
   endloop
 endfacet
 facet normal  9.238795e-01  3.826834e-01  0.000000e+00
   outer loop
     vertex  2.793003e-01  1.345040e-01  0.000000e+00
     vertex  2.926038e-01  1.023865e-01  9.000000e-02
     vertex  2.926038e-01  1.023865e-01  0.000000e+00
   endloop
 endfacet
 facet normal  8.752234e-01  4.837189e-01 -0.000000e+00
   outer loop
     vertex  2.624845e-01  1.649299e-01  0.000000e+00
     vertex  2.624845e-01  1.649299e-01  9.000000e-02
     vertex  2.793003e-01  1.345040e-01  9.000000e-02
   endloop
 endfacet
 facet normal  8.752234e-01  4.837189e-01  0.000000e+00
   outer loop
     vertex  2.624845e-01  1.649299e-01  0.000000e+00
     vertex  2.793003e-01  1.345040e-01  9.000000e-02
     vertex  2.793003e-01  1.345040e-01  0.000000e+00
   endloop
 endfacet
 facet normal  8.155609e-01  5.786713e-01 -0.000000e+00
   outer loop
     vertex  2.423678e-01  1.932818e-01  0.000000e+00
     vertex  2.423678e-01  1.932818e-01  9.000000e-02
     vertex  2.624845e-01  1.649299e-01  9.000000e-02
   endloop
 endfacet
 facet normal  8.155609e-01  5.786713e-01  0.000000e+00
   outer loop
     vertex  2.423678e-01  1.932818e-01  0.000000e+00
     vertex  2.624845e-01  1.649299e-01  9.000000e-02
     vertex  2.624845e-01  1.649299e-01  0.000000e+00
   endloop
 endfacet
 facet normal  7.456422e-01  6.663466e-01 -0.000000e+00
   outer loop
     vertex  2.192031e-01  2.192031e-01  0.000000e+00
     vertex  2.192031e-01  2.192031e-01  9.000000e-02
     vertex  2.423678e-01  1.932818e-01  9.000000e-02
   endloop
 endfacet
 facet normal  7.456422e-01  6.663466e-01  0.000000e+00
   outer loop
     vertex  2.192031e-01  2.192031e-01  0.000000e+00
     vertex  2.423678e-01  1.932818e-01  9.000000e-02
     vertex  2.423678e-01  1.932818e-01  0.000000e+00
   endloop
 endfacet
 facet normal  6.663466e-01  7.456422e-01 -0.000000e+00
   outer loop
     vertex  1.932818e-01  2.423678e-01  0.000000e+00
     vertex  1.932818e-01  2.423678e-01  9.000000e-02
     vertex  2.192031e-01  2.192031e-01  9.000000e-02
   endloop
 endfacet
 facet normal  6.663466e-01  7.456422e-01  0.000000e+00
   outer loop
     vertex  1.932818e-01  2.423678e-01  0.000000e+00
     vertex  2.192031e-01  2.192031e-01  9.000000e-02
     vertex  2.192031e-01  2.192031e-01  0.000000e+00
   endloop
 endfacet
 facet normal  5.786713e-01  8.155609e-01 -0.000000e+00
   outer loop
     vertex  1.649299e-01  2.624845e-01  0.000000e+00
     vertex  1.649299e-01  2.624845e-01  9.000000e-02
     vertex  1.932818e-01  2.423678e-01  9.000000e-02
   endloop
 endfacet
 facet normal  5.786713e-01  8.155609e-01  0.000000e+00
   outer loop
     vertex  1.649299e-01  2.624845e-01  0.000000e+00
     vertex  1.932818e-01  2.423678e-01  9.000000e-02
     vertex  1.932818e-01  2.423678e-01  0.000000e+00
   endloop
 endfacet
 facet normal  4.837189e-01  8.752234e-01 -0.000000e+00
   outer loop
     vertex  1.345040e-01  2.793003e-01  0.000000e+00
     vertex  1.345040e-01  2.793003e-01  9.000000e-02
     vertex  1.649299e-01  2.624845e-01  9.000000e-02
   endloop
 endfacet
 facet normal  4.837189e-01  8.752234e-01  0.000000e+00
   outer loop
     vertex  1.345040e-01  2.793003e-01  0.000000e+00
     vertex  1.649299e-01  2.624845e-01  9.000000e-02
     vertex  1.649299e-01  2.624845e-01  0.000000e+00
   endloop
 endfacet
 facet normal  3.826834e-01  9.238795e-01 -0.000000e+00
   outer loop
     vertex  1.023865e-01  2.926038e-01  0.000000e+00
     vertex  1.023865e-01  2.926038e-01  9.000000e-02
     vertex  1.345040e-01  2.793003e-01  9.000000e-02
   endloop
 endfacet
 facet normal  2.768355e-01  9.609173e-01 -0.000000e+00
   outer loop
     vertex  1.023865e-01  2.926038e-01  0.000000e+00
     vertex  6.898149e-02  3.022277e-01  9.000000e-02
     vertex  1.023865e-01  2.926038e-01  9.000000e-02
   endloop
 endfacet
 facet normal  3.826834e-01  9.238795e-01  0.000000e+00
   outer loop
     vertex  1.023865e-01  2.926038e-01  0.000000e+00
     vertex  1.345040e-01  2.793003e-01  9.000000e-02
     vertex  1.345040e-01  2.793003e-01  0.000000e+00
   endloop
 endfacet
 facet normal  2.768355e-01  9.609173e-01 -0.000000e+00
   outer loop
     vertex  6.898149e-02  3.022277e-01  0.000000e+00
     vertex  6.898149e-02  3.022277e-01  9.000000e-02
     vertex  1.023865e-01  2.926038e-01  0.000000e+00
   endloop
 endfacet
 facet normal  1.675062e-01  9.858710e-01 -0.000000e+00
   outer loop
     vertex  3.470899e-02  3.080508e-01  0.000000e+00
     vertex  3.470899e-02  3.080508e-01  9.000000e-02
     vertex  6.898149e-02  3.022277e-01  9.000000e-02
   endloop
 endfacet
 facet normal  1.675062e-01  9.858710e-01  0.000000e+00
   outer loop
     vertex  3.470899e-02  3.080508e-01  0.000000e+00
     vertex  6.898149e-02  3.022277e-01  9.000000e-02
     vertex  6.898149e-02  3.022277e-01  0.000000e+00
   endloop
 endfacet
 facet normal  5.607045e-02  9.984268e-01 -0.000000e+00
   outer loop
     vertex  1.898203e-17  3.100000e-01  0.000000e+00
     vertex  1.898203e-17  3.100000e-01  9.000000e-02
     vertex  3.470899e-02  3.080508e-01  9.000000e-02
   endloop
 endfacet
 facet normal  5.607045e-02  9.984268e-01  0.000000e+00
   outer loop
     vertex  1.898203e-17  3.100000e-01  0.000000e+00
     vertex  3.470899e-02  3.080508e-01  9.000000e-02
     vertex  3.470899e-02  3.080508e-01  0.000000e+00
   endloop
 endfacet
 facet normal -5.607045e-02  9.984268e-01  0.000000e+00
   outer loop
     vertex -3.470899e-02  3.080508e-01  0.000000e+00
     vertex -3.470899e-02  3.080508e-01  9.000000e-02
     vertex  1.898203e-17  3.100000e-01  9.000000e-02
   endloop
 endfacet
 facet normal -5.607045e-02  9.984268e-01  0.000000e+00
   outer loop
     vertex -3.470899e-02  3.080508e-01  0.000000e+00
     vertex  1.898203e-17  3.100000e-01  9.000000e-02
     vertex  1.898203e-17  3.100000e-01  0.000000e+00
   endloop
 endfacet
 facet normal -1.675062e-01  9.858710e-01  0.000000e+00
   outer loop
     vertex -6.898149e-02  3.022277e-01  0.000000e+00
     vertex -6.898149e-02  3.022277e-01  9.000000e-02
     vertex -3.470899e-02  3.080508e-01  9.000000e-02
   endloop
 endfacet
 facet normal -1.675062e-01  9.858710e-01  0.000000e+00
   outer loop
     vertex -6.898149e-02  3.022277e-01  0.000000e+00
     vertex -3.470899e-02  3.080508e-01  9.000000e-02
     vertex -3.470899e-02  3.080508e-01  0.000000e+00
   endloop
 endfacet
 facet normal -2.768355e-01  9.609173e-01  0.000000e+00
   outer loop
     vertex -1.023865e-01  2.926038e-01  0.000000e+00
     vertex -1.023865e-01  2.926038e-01  9.000000e-02
     vertex -6.898149e-02  3.022277e-01  9.000000e-02
   endloop
 endfacet
 facet normal -2.768355e-01  9.609173e-01  0.000000e+00
   outer loop
     vertex -1.023865e-01  2.926038e-01  0.000000e+00
     vertex -6.898149e-02  3.022277e-01  9.000000e-02
     vertex -6.898149e-02  3.022277e-01  0.000000e+00
   endloop
 endfacet
 facet normal -3.826834e-01  9.238795e-01  0.000000e+00
   outer loop
     vertex -1.345040e-01  2.793003e-01  0.000000e+00
     vertex -1.345040e-01  2.793003e-01  9.000000e-02
     vertex -1.023865e-01  2.926038e-01  9.000000e-02
   endloop
 endfacet
 facet normal -3.826834e-01  9.238795e-01  0.000000e+00
   outer loop
     vertex -1.345040e-01  2.793003e-01  0.000000e+00
     vertex -1.023865e-01  2.926038e-01  9.000000e-02
     vertex -1.023865e-01  2.926038e-01  0.000000e+00
   endloop
 endfacet
 facet normal -4.837189e-01  8.752234e-01  0.000000e+00
   outer loop
     vertex -1.649299e-01  2.624845e-01  0.000000e+00
     vertex -1.649299e-01  2.624845e-01  9.000000e-02
     vertex -1.345040e-01  2.793003e-01  9.000000e-02
   endloop
 endfacet
 facet normal -4.837189e-01  8.752234e-01  0.000000e+00
   outer loop
     vertex -1.649299e-01  2.624845e-01  0.000000e+00
     vertex -1.345040e-01  2.793003e-01  9.000000e-02
     vertex -1.345040e-01  2.793003e-01  0.000000e+00
   endloop
 endfacet
 facet normal -5.786713e-01  8.155609e-01  0.000000e+00
   outer loop
     vertex -1.932818e-01  2.423678e-01  0.000000e+00
     vertex -1.932818e-01  2.423678e-01  9.000000e-02
     vertex -1.649299e-01  2.624845e-01  9.000000e-02
   endloop
 endfacet
 facet normal -5.786713e-01  8.155609e-01  0.000000e+00
   outer loop
     vertex -1.932818e-01  2.423678e-01  0.000000e+00
     vertex -1.649299e-01  2.624845e-01  9.000000e-02
     vertex -1.649299e-01  2.624845e-01  0.000000e+00
   endloop
 endfacet
 facet normal -6.663466e-01  7.456422e-01  0.000000e+00
   outer loop
     vertex -2.192031e-01  2.192031e-01  0.000000e+00
     vertex -2.192031e-01  2.192031e-01  9.000000e-02
     vertex -1.932818e-01  2.423678e-01  9.000000e-02
   endloop
 endfacet
 facet normal -6.663466e-01  7.456422e-01  0.000000e+00
   outer loop
     vertex -2.192031e-01  2.192031e-01  0.000000e+00
     vertex -1.932818e-01  2.423678e-01  9.000000e-02
     vertex -1.932818e-01  2.423678e-01  0.000000e+00
   endloop
 endfacet
 facet normal -7.456422e-01  6.663466e-01  0.000000e+00
   outer loop
     vertex -2.423678e-01  1.932818e-01  0.000000e+00
     vertex -2.192031e-01  2.192031e-01  9.000000e-02
     vertex -2.192031e-01  2.192031e-01  0.000000e+00
   endloop
 endfacet
 facet normal -7.456422e-01  6.663466e-01  0.000000e+00
   outer loop
     vertex -2.423678e-01  1.932818e-01  0.000000e+00
     vertex -2.423678e-01  1.932818e-01  9.000000e-02
     vertex -2.192031e-01  2.192031e-01  9.000000e-02
   endloop
 endfacet
 facet normal -8.155609e-01  5.786713e-01  0.000000e+00
   outer loop
     vertex -2.624845e-01  1.649299e-01  0.000000e+00
     vertex -2.423678e-01  1.932818e-01  9.000000e-02
     vertex -2.423678e-01  1.932818e-01  0.000000e+00
   endloop
 endfacet
 facet normal -8.155609e-01  5.786713e-01  0.000000e+00
   outer loop
     vertex -2.624845e-01  1.649299e-01  0.000000e+00
     vertex -2.624845e-01  1.649299e-01  9.000000e-02
     vertex -2.423678e-01  1.932818e-01  9.000000e-02
   endloop
 endfacet
 facet normal -8.752234e-01  4.837189e-01  0.000000e+00
   outer loop
     vertex -2.793003e-01  1.345040e-01  0.000000e+00
     vertex -2.624845e-01  1.649299e-01  9.000000e-02
     vertex -2.624845e-01  1.649299e-01  0.000000e+00
   endloop
 endfacet
 facet normal -8.752234e-01  4.837189e-01  0.000000e+00
   outer loop
     vertex -2.793003e-01  1.345040e-01  0.000000e+00
     vertex -2.793003e-01  1.345040e-01  9.000000e-02
     vertex -2.624845e-01  1.649299e-01  9.000000e-02
   endloop
 endfacet
 facet normal -9.238795e-01  3.826834e-01  0.000000e+00
   outer loop
     vertex -2.926038e-01  1.023865e-01  0.000000e+00
     vertex -2.793003e-01  1.345040e-01  9.000000e-02
     vertex -2.793003e-01  1.345040e-01  0.000000e+00
   endloop
 endfacet
 facet normal -9.238795e-01  3.826834e-01  0.000000e+00
   outer loop
     vertex -2.926038e-01  1.023865e-01  0.000000e+00
     vertex -2.926038e-01  1.023865e-01  9.000000e-02
     vertex -2.793003e-01  1.345040e-01  9.000000e-02
   endloop
 endfacet
 facet normal -9.609173e-01  2.768355e-01  0.000000e+00
   outer loop
     vertex -3.022277e-01  6.898149e-02  0.000000e+00
     vertex -2.926038e-01  1.023865e-01  9.000000e-02
     vertex -2.926038e-01  1.023865e-01  0.000000e+00
   endloop
 endfacet
 facet normal -9.609173e-01  2.768355e-01  0.000000e+00
   outer loop
     vertex -3.022277e-01  6.898149e-02  0.000000e+00
     vertex -3.022277e-01  6.898149e-02  9.000000e-02
     vertex -2.926038e-01  1.023865e-01  9.000000e-02
   endloop
 endfacet
 facet normal -9.858710e-01  1.675062e-01  0.000000e+00
   outer loop
     vertex -3.080508e-01  3.470899e-02  0.000000e+00
     vertex -3.022277e-01  6.898149e-02  9.000000e-02
     vertex -3.022277e-01  6.898149e-02  0.000000e+00
   endloop
 endfacet
 facet normal -9.858710e-01  1.675062e-01  0.000000e+00
   outer loop
     vertex -3.080508e-01  3.470899e-02  0.000000e+00
     vertex -3.080508e-01  3.470899e-02  9.000000e-02
     vertex -3.022277e-01  6.898149e-02  9.000000e-02
   endloop
 endfacet
 facet normal -9.984268e-01  5.607045e-02  0.000000e+00
   outer loop
     vertex -3.100000e-01  3.796405e-17  0.000000e+00
     vertex -3.100000e-01  3.796405e-17  9.000000e-02
     vertex -3.080508e-01  3.470899e-02  9.000000e-02
   endloop
 endfacet
 facet normal -9.984268e-01  5.607045e-02  0.000000e+00
   outer loop
     vertex -3.100000e-01  3.796405e-17  0.000000e+00
     vertex -3.080508e-01  3.470899e-02  9.000000e-02
     vertex -3.080508e-01  3.470899e-02  0.000000e+00
   endloop
 endfacet
 facet normal -9.984268e-01 -5.607045e-02  0.000000e+00
   outer loop
     vertex -3.080508e-01 -3.470899e-02  0.000000e+00
     vertex -3.080508e-01 -3.470899e-02  9.000000e-02
     vertex -3.100000e-01  3.796405e-17  9.000000e-02
   endloop
 endfacet
 facet normal -9.984268e-01 -5.607045e-02  0.000000e+00
   outer loop
     vertex -3.080508e-01 -3.470899e-02  0.000000e+00
     vertex -3.100000e-01  3.796405e-17  9.000000e-02
     vertex -3.100000e-01  3.796405e-17  0.000000e+00
   endloop
 endfacet
 facet normal -9.858710e-01 -1.675062e-01  0.000000e+00
   outer loop
     vertex -3.022277e-01 -6.898149e-02  0.000000e+00
     vertex -3.022277e-01 -6.898149e-02  9.000000e-02
     vertex -3.080508e-01 -3.470899e-02  9.000000e-02
   endloop
 endfacet
 facet normal -9.858710e-01 -1.675062e-01  0.000000e+00
   outer loop
     vertex -3.022277e-01 -6.898149e-02  0.000000e+00
     vertex -3.080508e-01 -3.470899e-02  9.000000e-02
     vertex -3.080508e-01 -3.470899e-02  0.000000e+00
   endloop
 endfacet
 facet normal -9.609173e-01 -2.768355e-01  0.000000e+00
   outer loop
     vertex -2.926038e-01 -1.023865e-01  0.000000e+00
     vertex -2.926038e-01 -1.023865e-01  9.000000e-02
     vertex -3.022277e-01 -6.898149e-02  9.000000e-02
   endloop
 endfacet
 facet normal -9.609173e-01 -2.768355e-01  0.000000e+00
   outer loop
     vertex -2.926038e-01 -1.023865e-01  0.000000e+00
     vertex -3.022277e-01 -6.898149e-02  9.000000e-02
     vertex -3.022277e-01 -6.898149e-02  0.000000e+00
   endloop
 endfacet
 facet normal -9.238795e-01 -3.826834e-01  0.000000e+00
   outer loop
     vertex -2.793003e-01 -1.345040e-01  0.000000e+00
     vertex -2.793003e-01 -1.345040e-01  9.000000e-02
     vertex -2.926038e-01 -1.023865e-01  9.000000e-02
   endloop
 endfacet
 facet normal -9.238795e-01 -3.826834e-01  0.000000e+00
   outer loop
     vertex -2.793003e-01 -1.345040e-01  0.000000e+00
     vertex -2.926038e-01 -1.023865e-01  9.000000e-02
     vertex -2.926038e-01 -1.023865e-01  0.000000e+00
   endloop
 endfacet
 facet normal -8.752234e-01 -4.837189e-01  0.000000e+00
   outer loop
     vertex -2.624845e-01 -1.649299e-01  0.000000e+00
     vertex -2.624845e-01 -1.649299e-01  9.000000e-02
     vertex -2.793003e-01 -1.345040e-01  9.000000e-02
   endloop
 endfacet
 facet normal -8.155609e-01 -5.786713e-01  0.000000e+00
   outer loop
     vertex -2.624845e-01 -1.649299e-01  0.000000e+00
     vertex -2.423678e-01 -1.932818e-01  9.000000e-02
     vertex -2.624845e-01 -1.649299e-01  9.000000e-02
   endloop
 endfacet
 facet normal -8.752234e-01 -4.837189e-01  0.000000e+00
   outer loop
     vertex -2.624845e-01 -1.649299e-01  0.000000e+00
     vertex -2.793003e-01 -1.345040e-01  9.000000e-02
     vertex -2.793003e-01 -1.345040e-01  0.000000e+00
   endloop
 endfacet
 facet normal -7.456422e-01 -6.663466e-01  0.000000e+00
   outer loop
     vertex -2.423678e-01 -1.932818e-01  0.000000e+00
     vertex -2.192031e-01 -2.192031e-01  9.000000e-02
     vertex -2.423678e-01 -1.932818e-01  9.000000e-02
   endloop
 endfacet
 facet normal -8.155609e-01 -5.786713e-01  0.000000e+00
   outer loop
     vertex -2.423678e-01 -1.932818e-01  0.000000e+00
     vertex -2.423678e-01 -1.932818e-01  9.000000e-02
     vertex -2.624845e-01 -1.649299e-01  0.000000e+00
   endloop
 endfacet
 facet normal -7.456422e-01 -6.663466e-01  0.000000e+00
   outer loop
     vertex -2.192031e-01 -2.192031e-01  0.000000e+00
     vertex -2.192031e-01 -2.192031e-01  9.000000e-02
     vertex -2.423678e-01 -1.932818e-01  0.000000e+00
   endloop
 endfacet
 facet normal -6.663466e-01 -7.456422e-01  0.000000e+00
   outer loop
     vertex -1.932818e-01 -2.423678e-01  0.000000e+00
     vertex -1.932818e-01 -2.423678e-01  9.000000e-02
     vertex -2.192031e-01 -2.192031e-01  9.000000e-02
   endloop
 endfacet
 facet normal -6.663466e-01 -7.456422e-01  0.000000e+00
   outer loop
     vertex -1.932818e-01 -2.423678e-01  0.000000e+00
     vertex -2.192031e-01 -2.192031e-01  9.000000e-02
     vertex -2.192031e-01 -2.192031e-01  0.000000e+00
   endloop
 endfacet
 facet normal -5.786713e-01 -8.155609e-01  0.000000e+00
   outer loop
     vertex -1.649299e-01 -2.624845e-01  0.000000e+00
     vertex -1.649299e-01 -2.624845e-01  9.000000e-02
     vertex -1.932818e-01 -2.423678e-01  9.000000e-02
   endloop
 endfacet
 facet normal -4.837189e-01 -8.752234e-01  0.000000e+00
   outer loop
     vertex -1.649299e-01 -2.624845e-01  0.000000e+00
     vertex -1.345040e-01 -2.793003e-01  9.000000e-02
     vertex -1.649299e-01 -2.624845e-01  9.000000e-02
   endloop
 endfacet
 facet normal -5.786713e-01 -8.155609e-01  0.000000e+00
   outer loop
     vertex -1.649299e-01 -2.624845e-01  0.000000e+00
     vertex -1.932818e-01 -2.423678e-01  9.000000e-02
     vertex -1.932818e-01 -2.423678e-01  0.000000e+00
   endloop
 endfacet
 facet normal -4.837189e-01 -8.752234e-01  0.000000e+00
   outer loop
     vertex -1.345040e-01 -2.793003e-01  0.000000e+00
     vertex -1.345040e-01 -2.793003e-01  9.000000e-02
     vertex -1.649299e-01 -2.624845e-01  0.000000e+00
   endloop
 endfacet
 facet normal -3.826834e-01 -9.238795e-01  0.000000e+00
   outer loop
     vertex -1.023865e-01 -2.926038e-01  0.000000e+00
     vertex -1.023865e-01 -2.926038e-01  9.000000e-02
     vertex -1.345040e-01 -2.793003e-01  9.000000e-02
   endloop
 endfacet
 facet normal -2.768355e-01 -9.609173e-01  0.000000e+00
   outer loop
     vertex -1.023865e-01 -2.926038e-01  0.000000e+00
     vertex -6.898149e-02 -3.022277e-01  9.000000e-02
     vertex -1.023865e-01 -2.926038e-01  9.000000e-02
   endloop
 endfacet
 facet normal -3.826834e-01 -9.238795e-01  0.000000e+00
   outer loop
     vertex -1.023865e-01 -2.926038e-01  0.000000e+00
     vertex -1.345040e-01 -2.793003e-01  9.000000e-02
     vertex -1.345040e-01 -2.793003e-01  0.000000e+00
   endloop
 endfacet
 facet normal -1.675062e-01 -9.858710e-01  0.000000e+00
   outer loop
     vertex -6.898149e-02 -3.022277e-01  0.000000e+00
     vertex -3.470899e-02 -3.080508e-01  9.000000e-02
     vertex -6.898149e-02 -3.022277e-01  9.000000e-02
   endloop
 endfacet
 facet normal -2.768355e-01 -9.609173e-01  0.000000e+00
   outer loop
     vertex -6.898149e-02 -3.022277e-01  0.000000e+00
     vertex -6.898149e-02 -3.022277e-01  9.000000e-02
     vertex -1.023865e-01 -2.926038e-01  0.000000e+00
   endloop
 endfacet
 facet normal -1.675062e-01 -9.858710e-01  0.000000e+00
   outer loop
     vertex -3.470899e-02 -3.080508e-01  0.000000e+00
     vertex -3.470899e-02 -3.080508e-01  9.000000e-02
     vertex -6.898149e-02 -3.022277e-01  0.000000e+00
   endloop
 endfacet
 facet normal -5.607045e-02 -9.984268e-01  0.000000e+00
   outer loop
     vertex -5.694608e-17 -3.100000e-01  0.000000e+00
     vertex -5.694608e-17 -3.100000e-01  9.000000e-02
     vertex -3.470899e-02 -3.080508e-01  9.000000e-02
   endloop
 endfacet
 facet normal -5.607045e-02 -9.984268e-01  0.000000e+00
   outer loop
     vertex -5.694608e-17 -3.100000e-01  0.000000e+00
     vertex -3.470899e-02 -3.080508e-01  9.000000e-02
     vertex -3.470899e-02 -3.080508e-01  0.000000e+00
   endloop
 endfacet
 facet normal  5.607045e-02 -9.984268e-01  0.000000e+00
   outer loop
     vertex  3.470899e-02 -3.080508e-01  0.000000e+00
     vertex  3.470899e-02 -3.080508e-01  9.000000e-02
     vertex -5.694608e-17 -3.100000e-01  9.000000e-02
   endloop
 endfacet
 facet normal  1.675062e-01 -9.858710e-01  0.000000e+00
   outer loop
     vertex  3.470899e-02 -3.080508e-01  0.000000e+00
     vertex  6.898149e-02 -3.022277e-01  9.000000e-02
     vertex  3.470899e-02 -3.080508e-01  9.000000e-02
   endloop
 endfacet
 facet normal  5.607045e-02 -9.984268e-01  0.000000e+00
   outer loop
     vertex  3.470899e-02 -3.080508e-01  0.000000e+00
     vertex -5.694608e-17 -3.100000e-01  9.000000e-02
     vertex -5.694608e-17 -3.100000e-01  0.000000e+00
   endloop
 endfacet
 facet normal  1.675062e-01 -9.858710e-01  0.000000e+00
   outer loop
     vertex  6.898149e-02 -3.022277e-01  0.000000e+00
     vertex  6.898149e-02 -3.022277e-01  9.000000e-02
     vertex  3.470899e-02 -3.080508e-01  0.000000e+00
   endloop
 endfacet
 facet normal  2.768355e-01 -9.609173e-01  0.000000e+00
   outer loop
     vertex  1.023865e-01 -2.926038e-01  0.000000e+00
     vertex  1.023865e-01 -2.926038e-01  9.000000e-02
     vertex  6.898149e-02 -3.022277e-01  9.000000e-02
   endloop
 endfacet
 facet normal  2.768355e-01 -9.609173e-01  0.000000e+00
   outer loop
     vertex  1.023865e-01 -2.926038e-01  0.000000e+00
     vertex  6.898149e-02 -3.022277e-01  9.000000e-02
     vertex  6.898149e-02 -3.022277e-01  0.000000e+00
   endloop
 endfacet
 facet normal  3.826834e-01 -9.238795e-01  0.000000e+00
   outer loop
     vertex  1.345040e-01 -2.793003e-01  0.000000e+00
     vertex  1.023865e-01 -2.926038e-01  9.000000e-02
     vertex  1.023865e-01 -2.926038e-01  0.000000e+00
   endloop
 endfacet
 facet normal  3.826834e-01 -9.238795e-01  0.000000e+00
   outer loop
     vertex  1.345040e-01 -2.793003e-01  0.000000e+00
     vertex  1.345040e-01 -2.793003e-01  9.000000e-02
     vertex  1.023865e-01 -2.926038e-01  9.000000e-02
   endloop
 endfacet
 facet normal  4.837189e-01 -8.752234e-01  0.000000e+00
   outer loop
     vertex  1.649299e-01 -2.624845e-01  0.000000e+00
     vertex  1.345040e-01 -2.793003e-01  9.000000e-02
     vertex  1.345040e-01 -2.793003e-01  0.000000e+00
   endloop
 endfacet
 facet normal  4.837189e-01 -8.752234e-01  0.000000e+00
   outer loop
     vertex  1.649299e-01 -2.624845e-01  0.000000e+00
     vertex  1.649299e-01 -2.624845e-01  9.000000e-02
     vertex  1.345040e-01 -2.793003e-01  9.000000e-02
   endloop
 endfacet
 facet normal  5.786713e-01 -8.155609e-01  0.000000e+00
   outer loop
     vertex  1.932818e-01 -2.423678e-01  0.000000e+00
     vertex  1.649299e-01 -2.624845e-01  9.000000e-02
     vertex  1.649299e-01 -2.624845e-01  0.000000e+00
   endloop
 endfacet
 facet normal  5.786713e-01 -8.155609e-01  0.000000e+00
   outer loop
     vertex  1.932818e-01 -2.423678e-01  0.000000e+00
     vertex  1.932818e-01 -2.423678e-01  9.000000e-02
     vertex  1.649299e-01 -2.624845e-01  9.000000e-02
   endloop
 endfacet
 facet normal  6.663466e-01 -7.456422e-01  0.000000e+00
   outer loop
     vertex  2.192031e-01 -2.192031e-01  0.000000e+00
     vertex  1.932818e-01 -2.423678e-01  9.000000e-02
     vertex  1.932818e-01 -2.423678e-01  0.000000e+00
   endloop
 endfacet
 facet normal  6.663466e-01 -7.456422e-01  0.000000e+00
   outer loop
     vertex  2.192031e-01 -2.192031e-01  0.000000e+00
     vertex  2.192031e-01 -2.192031e-01  9.000000e-02
     vertex  1.932818e-01 -2.423678e-01  9.000000e-02
   endloop
 endfacet
 facet normal  7.456422e-01 -6.663466e-01  0.000000e+00
   outer loop
     vertex  2.423678e-01 -1.932818e-01  0.000000e+00
     vertex  2.192031e-01 -2.192031e-01  9.000000e-02
     vertex  2.192031e-01 -2.192031e-01  0.000000e+00
   endloop
 endfacet
 facet normal  7.456422e-01 -6.663466e-01  0.000000e+00
   outer loop
     vertex  2.423678e-01 -1.932818e-01  0.000000e+00
     vertex  2.423678e-01 -1.932818e-01  9.000000e-02
     vertex  2.192031e-01 -2.192031e-01  9.000000e-02
   endloop
 endfacet
 facet normal  8.155609e-01 -5.786713e-01  0.000000e+00
   outer loop
     vertex  2.624845e-01 -1.649299e-01  0.000000e+00
     vertex  2.423678e-01 -1.932818e-01  9.000000e-02
     vertex  2.423678e-01 -1.932818e-01  0.000000e+00
   endloop
 endfacet
 facet normal  8.155609e-01 -5.786713e-01  0.000000e+00
   outer loop
     vertex  2.624845e-01 -1.649299e-01  0.000000e+00
     vertex  2.624845e-01 -1.649299e-01  9.000000e-02
     vertex  2.423678e-01 -1.932818e-01  9.000000e-02
   endloop
 endfacet
 facet normal  8.752234e-01 -4.837189e-01  0.000000e+00
   outer loop
     vertex  2.793003e-01 -1.345040e-01  0.000000e+00
     vertex  2.624845e-01 -1.649299e-01  9.000000e-02
     vertex  2.624845e-01 -1.649299e-01  0.000000e+00
   endloop
 endfacet
 facet normal  8.752234e-01 -4.837189e-01  0.000000e+00
   outer loop
     vertex  2.793003e-01 -1.345040e-01  0.000000e+00
     vertex  2.793003e-01 -1.345040e-01  9.000000e-02
     vertex  2.624845e-01 -1.649299e-01  9.000000e-02
   endloop
 endfacet
 facet normal  9.238795e-01 -3.826834e-01  0.000000e+00
   outer loop
     vertex  2.926038e-01 -1.023865e-01  0.000000e+00
     vertex  2.793003e-01 -1.345040e-01  9.000000e-02
     vertex  2.793003e-01 -1.345040e-01  0.000000e+00
   endloop
 endfacet
 facet normal  9.238795e-01 -3.826834e-01  0.000000e+00
   outer loop
     vertex  2.926038e-01 -1.023865e-01  0.000000e+00
     vertex  2.926038e-01 -1.023865e-01  9.000000e-02
     vertex  2.793003e-01 -1.345040e-01  9.000000e-02
   endloop
 endfacet
 facet normal  9.609173e-01 -2.768355e-01  0.000000e+00
   outer loop
     vertex  3.022277e-01 -6.898149e-02  0.000000e+00
     vertex  2.926038e-01 -1.023865e-01  9.000000e-02
     vertex  2.926038e-01 -1.023865e-01  0.000000e+00
   endloop
 endfacet
 facet normal  9.609173e-01 -2.768355e-01  0.000000e+00
   outer loop
     vertex  3.022277e-01 -6.898149e-02  0.000000e+00
     vertex  3.022277e-01 -6.898149e-02  9.000000e-02
     vertex  2.926038e-01 -1.023865e-01  9.000000e-02
   endloop
 endfacet
 facet normal  9.858710e-01 -1.675062e-01  0.000000e+00
   outer loop
     vertex  3.080508e-01 -3.470899e-02  0.000000e+00
     vertex  3.022277e-01 -6.898149e-02  9.000000e-02
     vertex  3.022277e-01 -6.898149e-02  0.000000e+00
   endloop
 endfacet
 facet normal  9.858710e-01 -1.675062e-01  0.000000e+00
   outer loop
     vertex  3.080508e-01 -3.470899e-02  0.000000e+00
     vertex  3.080508e-01 -3.470899e-02  9.000000e-02
     vertex  3.022277e-01 -6.898149e-02  9.000000e-02
   endloop
 endfacet
 facet normal  9.984268e-01 -5.607045e-02  0.000000e+00
   outer loop
     vertex  3.100000e-01  0.000000e+00  0.000000e+00
     vertex  3.080508e-01 -3.470899e-02  9.000000e-02
     vertex  3.080508e-01 -3.470899e-02  0.000000e+00
   endloop
 endfacet
 facet normal  9.984268e-01 -5.607045e-02  0.000000e+00
   outer loop
     vertex  3.100000e-01  0.000000e+00  0.000000e+00
     vertex  3.100000e-01  0.000000e+00  9.000000e-02
     vertex  3.080508e-01 -3.470899e-02  9.000000e-02
   endloop
 endfacet
 facet normal  0.000000e+00  0.000000e+00 -1.000000e+00
   outer loop
     vertex -2.793003e-01  1.345040e-01  0.000000e+00
     vertex -3.022277e-01  6.898149e-02  0.000000e+00
     vertex -2.926038e-01  1.023865e-01  0.000000e+00
   endloop
 endfacet
 facet normal  0.000000e+00  0.000000e+00 -1.000000e+00
   outer loop
     vertex  2.192031e-01 -2.192031e-01  0.000000e+00
     vertex  1.649299e-01 -2.624845e-01  0.000000e+00
     vertex  1.345040e-01 -2.793003e-01  0.000000e+00
   endloop
 endfacet
 facet normal  0.000000e+00  0.000000e+00 -1.000000e+00
   outer loop
     vertex  2.192031e-01 -2.192031e-01  0.000000e+00
     vertex  1.932818e-01 -2.423678e-01  0.000000e+00
     vertex  1.649299e-01 -2.624845e-01  0.000000e+00
   endloop
 endfacet
 facet normal  0.000000e+00  0.000000e+00 -1.000000e+00
   outer loop
     vertex  2.624845e-01 -1.649299e-01  0.000000e+00
     vertex  2.423678e-01 -1.932818e-01  0.000000e+00
     vertex  2.192031e-01 -2.192031e-01  0.000000e+00
   endloop
 endfacet
 facet normal  0.000000e+00  0.000000e+00 -1.000000e+00
   outer loop
     vertex -1.649299e-01  2.624845e-01  0.000000e+00
     vertex -2.192031e-01  2.192031e-01  0.000000e+00
     vertex -1.932818e-01  2.423678e-01  0.000000e+00
   endloop
 endfacet
 facet normal  0.000000e+00  0.000000e+00 -1.000000e+00
   outer loop
     vertex  2.793003e-01 -1.345040e-01  0.000000e+00
     vertex  2.624845e-01 -1.649299e-01  0.000000e+00
     vertex  2.192031e-01 -2.192031e-01  0.000000e+00
   endloop
 endfacet
 facet normal  0.000000e+00  0.000000e+00 -1.000000e+00
   outer loop
     vertex  2.926038e-01 -1.023865e-01  0.000000e+00
     vertex  2.793003e-01 -1.345040e-01  0.000000e+00
     vertex  2.192031e-01 -2.192031e-01  0.000000e+00
   endloop
 endfacet
 facet normal  0.000000e+00  0.000000e+00 -1.000000e+00
   outer loop
     vertex  3.080508e-01 -3.470899e-02  0.000000e+00
     vertex  3.022277e-01 -6.898149e-02  0.000000e+00
     vertex  2.926038e-01 -1.023865e-01  0.000000e+00
   endloop
 endfacet
 facet normal  0.000000e+00  0.000000e+00 -1.000000e+00
   outer loop
     vertex  3.100000e-01  0.000000e+00  0.000000e+00
     vertex  3.080508e-01 -3.470899e-02  0.000000e+00
     vertex  2.926038e-01 -1.023865e-01  0.000000e+00
   endloop
 endfacet
 facet normal  0.000000e+00  0.000000e+00 -1.000000e+00
   outer loop
     vertex  2.793003e-01  1.345040e-01  0.000000e+00
     vertex  2.926038e-01  1.023865e-01  0.000000e+00
     vertex  3.022277e-01  6.898149e-02  0.000000e+00
   endloop
 endfacet
 facet normal  0.000000e+00  0.000000e+00 -1.000000e+00
   outer loop
     vertex  1.345040e-01  2.793003e-01  0.000000e+00
     vertex  6.898149e-02  3.022277e-01  0.000000e+00
     vertex  1.023865e-01  2.926038e-01  0.000000e+00
   endloop
 endfacet
 facet normal  0.000000e+00  0.000000e+00 -1.000000e+00
   outer loop
     vertex  2.423678e-01  1.932818e-01  0.000000e+00
     vertex  2.624845e-01  1.649299e-01  0.000000e+00
     vertex  2.793003e-01  1.345040e-01  0.000000e+00
   endloop
 endfacet
 facet normal  0.000000e+00  0.000000e+00 -1.000000e+00
   outer loop
     vertex  1.932818e-01  2.423678e-01  0.000000e+00
     vertex  1.345040e-01  2.793003e-01  0.000000e+00
     vertex  1.649299e-01  2.624845e-01  0.000000e+00
   endloop
 endfacet
 facet normal  0.000000e+00  0.000000e+00 -1.000000e+00
   outer loop
     vertex  2.192031e-01  2.192031e-01  0.000000e+00
     vertex  3.080508e-01  3.470899e-02  0.000000e+00
     vertex  3.100000e-01  0.000000e+00  0.000000e+00
   endloop
 endfacet
 facet normal  0.000000e+00  0.000000e+00 -1.000000e+00
   outer loop
     vertex  2.192031e-01  2.192031e-01  0.000000e+00
     vertex  3.022277e-01  6.898149e-02  0.000000e+00
     vertex  3.080508e-01  3.470899e-02  0.000000e+00
   endloop
 endfacet
 facet normal  0.000000e+00  0.000000e+00 -1.000000e+00
   outer loop
     vertex  2.192031e-01  2.192031e-01  0.000000e+00
     vertex  1.345040e-01  2.793003e-01  0.000000e+00
     vertex  1.932818e-01  2.423678e-01  0.000000e+00
   endloop
 endfacet
 facet normal  0.000000e+00  0.000000e+00 -1.000000e+00
   outer loop
     vertex  2.192031e-01  2.192031e-01  0.000000e+00
     vertex  2.793003e-01  1.345040e-01  0.000000e+00
     vertex  3.022277e-01  6.898149e-02  0.000000e+00
   endloop
 endfacet
 facet normal  0.000000e+00  0.000000e+00 -1.000000e+00
   outer loop
     vertex  2.192031e-01  2.192031e-01  0.000000e+00
     vertex  3.470899e-02  3.080508e-01  0.000000e+00
     vertex  6.898149e-02  3.022277e-01  0.000000e+00
   endloop
 endfacet
 facet normal  0.000000e+00  0.000000e+00 -1.000000e+00
   outer loop
     vertex  2.192031e-01  2.192031e-01  0.000000e+00
     vertex  1.898203e-17  3.100000e-01  0.000000e+00
     vertex  3.470899e-02  3.080508e-01  0.000000e+00
   endloop
 endfacet
 facet normal  0.000000e+00  0.000000e+00 -1.000000e+00
   outer loop
     vertex  2.192031e-01  2.192031e-01  0.000000e+00
     vertex  2.192031e-01 -2.192031e-01  0.000000e+00
     vertex  1.345040e-01 -2.793003e-01  0.000000e+00
   endloop
 endfacet
 facet normal  0.000000e+00  0.000000e+00 -1.000000e+00
   outer loop
     vertex  2.192031e-01  2.192031e-01  0.000000e+00
     vertex -3.470899e-02  3.080508e-01  0.000000e+00
     vertex  1.898203e-17  3.100000e-01  0.000000e+00
   endloop
 endfacet
 facet normal  0.000000e+00  0.000000e+00 -1.000000e+00
   outer loop
     vertex  2.192031e-01  2.192031e-01  0.000000e+00
     vertex -6.898149e-02  3.022277e-01  0.000000e+00
     vertex -3.470899e-02  3.080508e-01  0.000000e+00
   endloop
 endfacet
 facet normal  0.000000e+00  0.000000e+00 -1.000000e+00
   outer loop
     vertex  2.192031e-01  2.192031e-01  0.000000e+00
     vertex -1.023865e-01  2.926038e-01  0.000000e+00
     vertex -6.898149e-02  3.022277e-01  0.000000e+00
   endloop
 endfacet
 facet normal  0.000000e+00  0.000000e+00 -1.000000e+00
   outer loop
     vertex  2.192031e-01  2.192031e-01  0.000000e+00
     vertex -1.345040e-01  2.793003e-01  0.000000e+00
     vertex -1.023865e-01  2.926038e-01  0.000000e+00
   endloop
 endfacet
 facet normal  0.000000e+00  0.000000e+00 -1.000000e+00
   outer loop
     vertex  2.192031e-01  2.192031e-01  0.000000e+00
     vertex -1.649299e-01  2.624845e-01  0.000000e+00
     vertex -1.345040e-01  2.793003e-01  0.000000e+00
   endloop
 endfacet
 facet normal -0.000000e+00  0.000000e+00 -1.000000e+00
   outer loop
     vertex  2.192031e-01  2.192031e-01  0.000000e+00
     vertex -2.423678e-01  1.932818e-01  0.000000e+00
     vertex -2.192031e-01  2.192031e-01  0.000000e+00
   endloop
 endfacet
 facet normal  0.000000e+00  0.000000e+00 -1.000000e+00
   outer loop
     vertex  2.192031e-01  2.192031e-01  0.000000e+00
     vertex -2.192031e-01  2.192031e-01  0.000000e+00
     vertex -1.649299e-01  2.624845e-01  0.000000e+00
   endloop
 endfacet
 facet normal  0.000000e+00  0.000000e+00 -1.000000e+00
   outer loop
     vertex  2.192031e-01  2.192031e-01  0.000000e+00
     vertex -2.624845e-01  1.649299e-01  0.000000e+00
     vertex -2.423678e-01  1.932818e-01  0.000000e+00
   endloop
 endfacet
 facet normal  0.000000e+00  0.000000e+00 -1.000000e+00
   outer loop
     vertex  2.192031e-01  2.192031e-01  0.000000e+00
     vertex -2.793003e-01  1.345040e-01  0.000000e+00
     vertex -2.624845e-01  1.649299e-01  0.000000e+00
   endloop
 endfacet
 facet normal  0.000000e+00  0.000000e+00 -1.000000e+00
   outer loop
     vertex  2.192031e-01  2.192031e-01  0.000000e+00
     vertex -3.080508e-01  3.470899e-02  0.000000e+00
     vertex -3.022277e-01  6.898149e-02  0.000000e+00
   endloop
 endfacet
 facet normal  0.000000e+00  0.000000e+00 -1.000000e+00
   outer loop
     vertex  2.192031e-01  2.192031e-01  0.000000e+00
     vertex -3.100000e-01  3.796405e-17  0.000000e+00
     vertex -3.080508e-01  3.470899e-02  0.000000e+00
   endloop
 endfacet
 facet normal  0.000000e+00 -0.000000e+00 -1.000000e+00
   outer loop
     vertex  2.192031e-01  2.192031e-01  0.000000e+00
     vertex  2.926038e-01 -1.023865e-01  0.000000e+00
     vertex  2.192031e-01 -2.192031e-01  0.000000e+00
   endloop
 endfacet
 facet normal  0.000000e+00  0.000000e+00 -1.000000e+00
   outer loop
     vertex  2.192031e-01  2.192031e-01  0.000000e+00
     vertex -3.080508e-01 -3.470899e-02  0.000000e+00
     vertex -3.100000e-01  3.796405e-17  0.000000e+00
   endloop
 endfacet
 facet normal  0.000000e+00  0.000000e+00 -1.000000e+00
   outer loop
     vertex  2.192031e-01  2.192031e-01  0.000000e+00
     vertex -3.022277e-01 -6.898149e-02  0.000000e+00
     vertex -3.080508e-01 -3.470899e-02  0.000000e+00
   endloop
 endfacet
 facet normal  0.000000e+00  0.000000e+00 -1.000000e+00
   outer loop
     vertex  2.192031e-01  2.192031e-01  0.000000e+00
     vertex -2.926038e-01 -1.023865e-01  0.000000e+00
     vertex -3.022277e-01 -6.898149e-02  0.000000e+00
   endloop
 endfacet
 facet normal  0.000000e+00  0.000000e+00 -1.000000e+00
   outer loop
     vertex  2.192031e-01  2.192031e-01  0.000000e+00
     vertex -2.793003e-01 -1.345040e-01  0.000000e+00
     vertex -2.926038e-01 -1.023865e-01  0.000000e+00
   endloop
 endfacet
 facet normal  0.000000e+00  0.000000e+00 -1.000000e+00
   outer loop
     vertex  2.192031e-01  2.192031e-01  0.000000e+00
     vertex -2.624845e-01 -1.649299e-01  0.000000e+00
     vertex -2.793003e-01 -1.345040e-01  0.000000e+00
   endloop
 endfacet
 facet normal  0.000000e+00  0.000000e+00 -1.000000e+00
   outer loop
     vertex  2.192031e-01  2.192031e-01  0.000000e+00
     vertex -2.423678e-01 -1.932818e-01  0.000000e+00
     vertex -2.624845e-01 -1.649299e-01  0.000000e+00
   endloop
 endfacet
 facet normal  0.000000e+00  0.000000e+00 -1.000000e+00
   outer loop
     vertex  2.192031e-01  2.192031e-01  0.000000e+00
     vertex -2.192031e-01 -2.192031e-01  0.000000e+00
     vertex -2.423678e-01 -1.932818e-01  0.000000e+00
   endloop
 endfacet
 facet normal  0.000000e+00  0.000000e+00 -1.000000e+00
   outer loop
     vertex  2.192031e-01  2.192031e-01  0.000000e+00
     vertex -1.932818e-01 -2.423678e-01  0.000000e+00
     vertex -2.192031e-01 -2.192031e-01  0.000000e+00
   endloop
 endfacet
 facet normal  0.000000e+00  0.000000e+00 -1.000000e+00
   outer loop
     vertex  2.192031e-01  2.192031e-01  0.000000e+00
     vertex -1.649299e-01 -2.624845e-01  0.000000e+00
     vertex -1.932818e-01 -2.423678e-01  0.000000e+00
   endloop
 endfacet
 facet normal  0.000000e+00  0.000000e+00 -1.000000e+00
   outer loop
     vertex  2.192031e-01  2.192031e-01  0.000000e+00
     vertex -1.345040e-01 -2.793003e-01  0.000000e+00
     vertex -1.649299e-01 -2.624845e-01  0.000000e+00
   endloop
 endfacet
 facet normal  0.000000e+00  0.000000e+00 -1.000000e+00
   outer loop
     vertex  2.192031e-01  2.192031e-01  0.000000e+00
     vertex -1.023865e-01 -2.926038e-01  0.000000e+00
     vertex -1.345040e-01 -2.793003e-01  0.000000e+00
   endloop
 endfacet
 facet normal  0.000000e+00  0.000000e+00 -1.000000e+00
   outer loop
     vertex  2.192031e-01  2.192031e-01  0.000000e+00
     vertex -6.898149e-02 -3.022277e-01  0.000000e+00
     vertex -1.023865e-01 -2.926038e-01  0.000000e+00
   endloop
 endfacet
 facet normal  0.000000e+00  0.000000e+00 -1.000000e+00
   outer loop
     vertex  2.192031e-01  2.192031e-01  0.000000e+00
     vertex  3.100000e-01  0.000000e+00  0.000000e+00
     vertex  2.926038e-01 -1.023865e-01  0.000000e+00
   endloop
 endfacet
 facet normal  0.000000e+00  0.000000e+00 -1.000000e+00
   outer loop
     vertex  2.192031e-01  2.192031e-01  0.000000e+00
     vertex -3.470899e-02 -3.080508e-01  0.000000e+00
     vertex -6.898149e-02 -3.022277e-01  0.000000e+00
   endloop
 endfacet
 facet normal  0.000000e+00  0.000000e+00 -1.000000e+00
   outer loop
     vertex  2.192031e-01  2.192031e-01  0.000000e+00
     vertex -5.694608e-17 -3.100000e-01  0.000000e+00
     vertex -3.470899e-02 -3.080508e-01  0.000000e+00
   endloop
 endfacet
 facet normal  0.000000e+00  0.000000e+00 -1.000000e+00
   outer loop
     vertex  2.192031e-01  2.192031e-01  0.000000e+00
     vertex  2.423678e-01  1.932818e-01  0.000000e+00
     vertex  2.793003e-01  1.345040e-01  0.000000e+00
   endloop
 endfacet
 facet normal  0.000000e+00  0.000000e+00 -1.000000e+00
   outer loop
     vertex  2.192031e-01  2.192031e-01  0.000000e+00
     vertex  3.470899e-02 -3.080508e-01  0.000000e+00
     vertex -5.694608e-17 -3.100000e-01  0.000000e+00
   endloop
 endfacet
 facet normal  0.000000e+00  0.000000e+00 -1.000000e+00
   outer loop
     vertex  2.192031e-01  2.192031e-01  0.000000e+00
     vertex  6.898149e-02 -3.022277e-01  0.000000e+00
     vertex  3.470899e-02 -3.080508e-01  0.000000e+00
   endloop
 endfacet
 facet normal  0.000000e+00  0.000000e+00 -1.000000e+00
   outer loop
     vertex  2.192031e-01  2.192031e-01  0.000000e+00
     vertex  1.023865e-01 -2.926038e-01  0.000000e+00
     vertex  6.898149e-02 -3.022277e-01  0.000000e+00
   endloop
 endfacet
 facet normal  0.000000e+00  0.000000e+00 -1.000000e+00
   outer loop
     vertex  2.192031e-01  2.192031e-01  0.000000e+00
     vertex  1.345040e-01 -2.793003e-01  0.000000e+00
     vertex  1.023865e-01 -2.926038e-01  0.000000e+00
   endloop
 endfacet
 facet normal  0.000000e+00  0.000000e+00 -1.000000e+00
   outer loop
     vertex  2.192031e-01  2.192031e-01  0.000000e+00
     vertex  6.898149e-02  3.022277e-01  0.000000e+00
     vertex  1.345040e-01  2.793003e-01  0.000000e+00
   endloop
 endfacet
 facet normal  0.000000e+00  0.000000e+00 -1.000000e+00
   outer loop
     vertex  2.192031e-01  2.192031e-01  0.000000e+00
     vertex -3.022277e-01  6.898149e-02  0.000000e+00
     vertex -2.793003e-01  1.345040e-01  0.000000e+00
   endloop
 endfacet
 facet normal  0.000000e+00  0.000000e+00  1.000000e+00
   outer loop
     vertex -2.793003e-01  1.345040e-01  9.000000e-02
     vertex -2.926038e-01  1.023865e-01  9.000000e-02
     vertex -3.022277e-01  6.898149e-02  9.000000e-02
   endloop
 endfacet
 facet normal  0.000000e+00  0.000000e+00  1.000000e+00
   outer loop
     vertex  2.192031e-01 -2.192031e-01  9.000000e-02
     vertex  1.345040e-01 -2.793003e-01  9.000000e-02
     vertex  1.649299e-01 -2.624845e-01  9.000000e-02
   endloop
 endfacet
 facet normal  0.000000e+00  0.000000e+00  1.000000e+00
   outer loop
     vertex  2.192031e-01 -2.192031e-01  9.000000e-02
     vertex  1.649299e-01 -2.624845e-01  9.000000e-02
     vertex  1.932818e-01 -2.423678e-01  9.000000e-02
   endloop
 endfacet
 facet normal  0.000000e+00  0.000000e+00  1.000000e+00
   outer loop
     vertex  2.624845e-01 -1.649299e-01  9.000000e-02
     vertex  2.192031e-01 -2.192031e-01  9.000000e-02
     vertex  2.423678e-01 -1.932818e-01  9.000000e-02
   endloop
 endfacet
 facet normal  0.000000e+00  0.000000e+00  1.000000e+00
   outer loop
     vertex -1.649299e-01  2.624845e-01  9.000000e-02
     vertex -1.932818e-01  2.423678e-01  9.000000e-02
     vertex -2.192031e-01  2.192031e-01  9.000000e-02
   endloop
 endfacet
 facet normal  0.000000e+00  0.000000e+00  1.000000e+00
   outer loop
     vertex  2.793003e-01 -1.345040e-01  9.000000e-02
     vertex  2.192031e-01 -2.192031e-01  9.000000e-02
     vertex  2.624845e-01 -1.649299e-01  9.000000e-02
   endloop
 endfacet
 facet normal  0.000000e+00  0.000000e+00  1.000000e+00
   outer loop
     vertex  2.926038e-01 -1.023865e-01  9.000000e-02
     vertex  2.192031e-01 -2.192031e-01  9.000000e-02
     vertex  2.793003e-01 -1.345040e-01  9.000000e-02
   endloop
 endfacet
 facet normal  0.000000e+00  0.000000e+00  1.000000e+00
   outer loop
     vertex  3.080508e-01 -3.470899e-02  9.000000e-02
     vertex  2.926038e-01 -1.023865e-01  9.000000e-02
     vertex  3.022277e-01 -6.898149e-02  9.000000e-02
   endloop
 endfacet
 facet normal  0.000000e+00  0.000000e+00  1.000000e+00
   outer loop
     vertex  3.100000e-01  0.000000e+00  9.000000e-02
     vertex  2.926038e-01 -1.023865e-01  9.000000e-02
     vertex  3.080508e-01 -3.470899e-02  9.000000e-02
   endloop
 endfacet
 facet normal  0.000000e+00  0.000000e+00  1.000000e+00
   outer loop
     vertex  2.793003e-01  1.345040e-01  9.000000e-02
     vertex  3.022277e-01  6.898149e-02  9.000000e-02
     vertex  2.926038e-01  1.023865e-01  9.000000e-02
   endloop
 endfacet
 facet normal  0.000000e+00  0.000000e+00  1.000000e+00
   outer loop
     vertex  1.345040e-01  2.793003e-01  9.000000e-02
     vertex  1.023865e-01  2.926038e-01  9.000000e-02
     vertex  6.898149e-02  3.022277e-01  9.000000e-02
   endloop
 endfacet
 facet normal  0.000000e+00  0.000000e+00  1.000000e+00
   outer loop
     vertex  2.423678e-01  1.932818e-01  9.000000e-02
     vertex  2.793003e-01  1.345040e-01  9.000000e-02
     vertex  2.624845e-01  1.649299e-01  9.000000e-02
   endloop
 endfacet
 facet normal  0.000000e+00  0.000000e+00  1.000000e+00
   outer loop
     vertex  1.932818e-01  2.423678e-01  9.000000e-02
     vertex  1.649299e-01  2.624845e-01  9.000000e-02
     vertex  1.345040e-01  2.793003e-01  9.000000e-02
   endloop
 endfacet
 facet normal  0.000000e+00  0.000000e+00  1.000000e+00
   outer loop
     vertex  2.192031e-01  2.192031e-01  9.000000e-02
     vertex  3.100000e-01  0.000000e+00  9.000000e-02
     vertex  3.080508e-01  3.470899e-02  9.000000e-02
   endloop
 endfacet
 facet normal  0.000000e+00  0.000000e+00  1.000000e+00
   outer loop
     vertex  2.192031e-01  2.192031e-01  9.000000e-02
     vertex  3.080508e-01  3.470899e-02  9.000000e-02
     vertex  3.022277e-01  6.898149e-02  9.000000e-02
   endloop
 endfacet
 facet normal  0.000000e+00  0.000000e+00  1.000000e+00
   outer loop
     vertex  2.192031e-01  2.192031e-01  9.000000e-02
     vertex  1.932818e-01  2.423678e-01  9.000000e-02
     vertex  1.345040e-01  2.793003e-01  9.000000e-02
   endloop
 endfacet
 facet normal  0.000000e+00  0.000000e+00  1.000000e+00
   outer loop
     vertex  2.192031e-01  2.192031e-01  9.000000e-02
     vertex  3.022277e-01  6.898149e-02  9.000000e-02
     vertex  2.793003e-01  1.345040e-01  9.000000e-02
   endloop
 endfacet
 facet normal  0.000000e+00  0.000000e+00  1.000000e+00
   outer loop
     vertex  2.192031e-01  2.192031e-01  9.000000e-02
     vertex  6.898149e-02  3.022277e-01  9.000000e-02
     vertex  3.470899e-02  3.080508e-01  9.000000e-02
   endloop
 endfacet
 facet normal  0.000000e+00  0.000000e+00  1.000000e+00
   outer loop
     vertex  2.192031e-01  2.192031e-01  9.000000e-02
     vertex  3.470899e-02  3.080508e-01  9.000000e-02
     vertex  1.898203e-17  3.100000e-01  9.000000e-02
   endloop
 endfacet
 facet normal  0.000000e+00  0.000000e+00  1.000000e+00
   outer loop
     vertex  2.192031e-01  2.192031e-01  9.000000e-02
     vertex  1.345040e-01 -2.793003e-01  9.000000e-02
     vertex  2.192031e-01 -2.192031e-01  9.000000e-02
   endloop
 endfacet
 facet normal  0.000000e+00  0.000000e+00  1.000000e+00
   outer loop
     vertex  2.192031e-01  2.192031e-01  9.000000e-02
     vertex  1.898203e-17  3.100000e-01  9.000000e-02
     vertex -3.470899e-02  3.080508e-01  9.000000e-02
   endloop
 endfacet
 facet normal  0.000000e+00  0.000000e+00  1.000000e+00
   outer loop
     vertex  2.192031e-01  2.192031e-01  9.000000e-02
     vertex -3.470899e-02  3.080508e-01  9.000000e-02
     vertex -6.898149e-02  3.022277e-01  9.000000e-02
   endloop
 endfacet
 facet normal  0.000000e+00  0.000000e+00  1.000000e+00
   outer loop
     vertex  2.192031e-01  2.192031e-01  9.000000e-02
     vertex -6.898149e-02  3.022277e-01  9.000000e-02
     vertex -1.023865e-01  2.926038e-01  9.000000e-02
   endloop
 endfacet
 facet normal  0.000000e+00  0.000000e+00  1.000000e+00
   outer loop
     vertex  2.192031e-01  2.192031e-01  9.000000e-02
     vertex -1.023865e-01  2.926038e-01  9.000000e-02
     vertex -1.345040e-01  2.793003e-01  9.000000e-02
   endloop
 endfacet
 facet normal  0.000000e+00  0.000000e+00  1.000000e+00
   outer loop
     vertex  2.192031e-01  2.192031e-01  9.000000e-02
     vertex -1.345040e-01  2.793003e-01  9.000000e-02
     vertex -1.649299e-01  2.624845e-01  9.000000e-02
   endloop
 endfacet
 facet normal  0.000000e+00  0.000000e+00  1.000000e+00
   outer loop
     vertex  2.192031e-01  2.192031e-01  9.000000e-02
     vertex -2.192031e-01  2.192031e-01  9.000000e-02
     vertex -2.423678e-01  1.932818e-01  9.000000e-02
   endloop
 endfacet
 facet normal  0.000000e+00  0.000000e+00  1.000000e+00
   outer loop
     vertex  2.192031e-01  2.192031e-01  9.000000e-02
     vertex -1.649299e-01  2.624845e-01  9.000000e-02
     vertex -2.192031e-01  2.192031e-01  9.000000e-02
   endloop
 endfacet
 facet normal  0.000000e+00  0.000000e+00  1.000000e+00
   outer loop
     vertex  2.192031e-01  2.192031e-01  9.000000e-02
     vertex -2.423678e-01  1.932818e-01  9.000000e-02
     vertex -2.624845e-01  1.649299e-01  9.000000e-02
   endloop
 endfacet
 facet normal  0.000000e+00  0.000000e+00  1.000000e+00
   outer loop
     vertex  2.192031e-01  2.192031e-01  9.000000e-02
     vertex -2.624845e-01  1.649299e-01  9.000000e-02
     vertex -2.793003e-01  1.345040e-01  9.000000e-02
   endloop
 endfacet
 facet normal  0.000000e+00  0.000000e+00  1.000000e+00
   outer loop
     vertex  2.192031e-01  2.192031e-01  9.000000e-02
     vertex -3.022277e-01  6.898149e-02  9.000000e-02
     vertex -3.080508e-01  3.470899e-02  9.000000e-02
   endloop
 endfacet
 facet normal  0.000000e+00  0.000000e+00  1.000000e+00
   outer loop
     vertex  2.192031e-01  2.192031e-01  9.000000e-02
     vertex -3.080508e-01  3.470899e-02  9.000000e-02
     vertex -3.100000e-01  3.796405e-17  9.000000e-02
   endloop
 endfacet
 facet normal  0.000000e+00  0.000000e+00  1.000000e+00
   outer loop
     vertex  2.192031e-01  2.192031e-01  9.000000e-02
     vertex  2.192031e-01 -2.192031e-01  9.000000e-02
     vertex  2.926038e-01 -1.023865e-01  9.000000e-02
   endloop
 endfacet
 facet normal  0.000000e+00  0.000000e+00  1.000000e+00
   outer loop
     vertex  2.192031e-01  2.192031e-01  9.000000e-02
     vertex -3.100000e-01  3.796405e-17  9.000000e-02
     vertex -3.080508e-01 -3.470899e-02  9.000000e-02
   endloop
 endfacet
 facet normal  0.000000e+00  0.000000e+00  1.000000e+00
   outer loop
     vertex  2.192031e-01  2.192031e-01  9.000000e-02
     vertex -3.080508e-01 -3.470899e-02  9.000000e-02
     vertex -3.022277e-01 -6.898149e-02  9.000000e-02
   endloop
 endfacet
 facet normal  0.000000e+00  0.000000e+00  1.000000e+00
   outer loop
     vertex  2.192031e-01  2.192031e-01  9.000000e-02
     vertex -3.022277e-01 -6.898149e-02  9.000000e-02
     vertex -2.926038e-01 -1.023865e-01  9.000000e-02
   endloop
 endfacet
 facet normal  0.000000e+00  0.000000e+00  1.000000e+00
   outer loop
     vertex  2.192031e-01  2.192031e-01  9.000000e-02
     vertex -2.926038e-01 -1.023865e-01  9.000000e-02
     vertex -2.793003e-01 -1.345040e-01  9.000000e-02
   endloop
 endfacet
 facet normal  0.000000e+00  0.000000e+00  1.000000e+00
   outer loop
     vertex  2.192031e-01  2.192031e-01  9.000000e-02
     vertex -2.793003e-01 -1.345040e-01  9.000000e-02
     vertex -2.624845e-01 -1.649299e-01  9.000000e-02
   endloop
 endfacet
 facet normal  0.000000e+00  0.000000e+00  1.000000e+00
   outer loop
     vertex  2.192031e-01  2.192031e-01  9.000000e-02
     vertex -2.624845e-01 -1.649299e-01  9.000000e-02
     vertex -2.423678e-01 -1.932818e-01  9.000000e-02
   endloop
 endfacet
 facet normal  0.000000e+00  0.000000e+00  1.000000e+00
   outer loop
     vertex  2.192031e-01  2.192031e-01  9.000000e-02
     vertex -2.423678e-01 -1.932818e-01  9.000000e-02
     vertex -2.192031e-01 -2.192031e-01  9.000000e-02
   endloop
 endfacet
 facet normal  0.000000e+00  0.000000e+00  1.000000e+00
   outer loop
     vertex  2.192031e-01  2.192031e-01  9.000000e-02
     vertex -2.192031e-01 -2.192031e-01  9.000000e-02
     vertex -1.932818e-01 -2.423678e-01  9.000000e-02
   endloop
 endfacet
 facet normal  0.000000e+00  0.000000e+00  1.000000e+00
   outer loop
     vertex  2.192031e-01  2.192031e-01  9.000000e-02
     vertex -1.932818e-01 -2.423678e-01  9.000000e-02
     vertex -1.649299e-01 -2.624845e-01  9.000000e-02
   endloop
 endfacet
 facet normal  0.000000e+00  0.000000e+00  1.000000e+00
   outer loop
     vertex  2.192031e-01  2.192031e-01  9.000000e-02
     vertex -1.649299e-01 -2.624845e-01  9.000000e-02
     vertex -1.345040e-01 -2.793003e-01  9.000000e-02
   endloop
 endfacet
 facet normal  0.000000e+00  0.000000e+00  1.000000e+00
   outer loop
     vertex  2.192031e-01  2.192031e-01  9.000000e-02
     vertex -1.345040e-01 -2.793003e-01  9.000000e-02
     vertex -1.023865e-01 -2.926038e-01  9.000000e-02
   endloop
 endfacet
 facet normal  0.000000e+00  0.000000e+00  1.000000e+00
   outer loop
     vertex  2.192031e-01  2.192031e-01  9.000000e-02
     vertex -1.023865e-01 -2.926038e-01  9.000000e-02
     vertex -6.898149e-02 -3.022277e-01  9.000000e-02
   endloop
 endfacet
 facet normal  0.000000e+00  0.000000e+00  1.000000e+00
   outer loop
     vertex  2.192031e-01  2.192031e-01  9.000000e-02
     vertex  2.926038e-01 -1.023865e-01  9.000000e-02
     vertex  3.100000e-01  0.000000e+00  9.000000e-02
   endloop
 endfacet
 facet normal  0.000000e+00  0.000000e+00  1.000000e+00
   outer loop
     vertex  2.192031e-01  2.192031e-01  9.000000e-02
     vertex -6.898149e-02 -3.022277e-01  9.000000e-02
     vertex -3.470899e-02 -3.080508e-01  9.000000e-02
   endloop
 endfacet
 facet normal  0.000000e+00  0.000000e+00  1.000000e+00
   outer loop
     vertex  2.192031e-01  2.192031e-01  9.000000e-02
     vertex -3.470899e-02 -3.080508e-01  9.000000e-02
     vertex -5.694608e-17 -3.100000e-01  9.000000e-02
   endloop
 endfacet
 facet normal  0.000000e+00  0.000000e+00  1.000000e+00
   outer loop
     vertex  2.192031e-01  2.192031e-01  9.000000e-02
     vertex  2.793003e-01  1.345040e-01  9.000000e-02
     vertex  2.423678e-01  1.932818e-01  9.000000e-02
   endloop
 endfacet
 facet normal  0.000000e+00  0.000000e+00  1.000000e+00
   outer loop
     vertex  2.192031e-01  2.192031e-01  9.000000e-02
     vertex -5.694608e-17 -3.100000e-01  9.000000e-02
     vertex  3.470899e-02 -3.080508e-01  9.000000e-02
   endloop
 endfacet
 facet normal  0.000000e+00  0.000000e+00  1.000000e+00
   outer loop
     vertex  2.192031e-01  2.192031e-01  9.000000e-02
     vertex  3.470899e-02 -3.080508e-01  9.000000e-02
     vertex  6.898149e-02 -3.022277e-01  9.000000e-02
   endloop
 endfacet
 facet normal  0.000000e+00  0.000000e+00  1.000000e+00
   outer loop
     vertex  2.192031e-01  2.192031e-01  9.000000e-02
     vertex  6.898149e-02 -3.022277e-01  9.000000e-02
     vertex  1.023865e-01 -2.926038e-01  9.000000e-02
   endloop
 endfacet
 facet normal  0.000000e+00  0.000000e+00  1.000000e+00
   outer loop
     vertex  2.192031e-01  2.192031e-01  9.000000e-02
     vertex  1.023865e-01 -2.926038e-01  9.000000e-02
     vertex  1.345040e-01 -2.793003e-01  9.000000e-02
   endloop
 endfacet
 facet normal  0.000000e+00  0.000000e+00  1.000000e+00
   outer loop
     vertex  2.192031e-01  2.192031e-01  9.000000e-02
     vertex  1.345040e-01  2.793003e-01  9.000000e-02
     vertex  6.898149e-02  3.022277e-01  9.000000e-02
   endloop
 endfacet
 facet normal  0.000000e+00  0.000000e+00  1.000000e+00
   outer loop
     vertex  2.192031e-01  2.192031e-01  9.000000e-02
     vertex -2.793003e-01  1.345040e-01  9.000000e-02
     vertex -3.022277e-01  6.898149e-02  9.000000e-02
   endloop
 endfacet
endsolid
