solid 
 facet normal  9.927089e-01  1.205367e-01  0.000000e+00
   outer loop
     vertex  4.854709e-02  1.196578e-02  0.000000e+00
     vertex  5.000000e-02  0.000000e+00  1.000000e+00
     vertex  5.000000e-02  0.000000e+00  0.000000e+00
   endloop
 endfacet
 facet normal  9.927089e-01  1.205367e-01 -0.000000e+00
   outer loop
     vertex  4.854709e-02  1.196578e-02  0.000000e+00
     vertex  4.854709e-02  1.196578e-02  1.000000e+00
     vertex  5.000000e-02  0.000000e+00  1.000000e+00
   endloop
 endfacet
 facet normal  9.350162e-01  3.546049e-01 -0.000000e+00
   outer loop
     vertex  4.427280e-02  2.323616e-02  0.000000e+00
     vertex  4.427280e-02  2.323616e-02  1.000000e+00
     vertex  4.854709e-02  1.196578e-02  1.000000e+00
   endloop
 endfacet
 facet normal  9.350162e-01  3.546049e-01  0.000000e+00
   outer loop
     vertex  4.427280e-02  2.323616e-02  0.000000e+00
     vertex  4.854709e-02  1.196578e-02  1.000000e+00
     vertex  4.854709e-02  1.196578e-02  0.000000e+00
   endloop
 endfacet
 facet normal  8.229839e-01  5.680647e-01 -0.000000e+00
   outer loop
     vertex  3.742554e-02  3.315613e-02  0.000000e+00
     vertex  3.742554e-02  3.315613e-02  1.000000e+00
     vertex  4.427280e-02  2.323616e-02  1.000000e+00
   endloop
 endfacet
 facet normal  8.229839e-01  5.680647e-01  0.000000e+00
   outer loop
     vertex  3.742554e-02  3.315613e-02  0.000000e+00
     vertex  4.427280e-02  2.323616e-02  1.000000e+00
     vertex  4.427280e-02  2.323616e-02  0.000000e+00
   endloop
 endfacet
 facet normal  6.631227e-01  7.485107e-01 -0.000000e+00
   outer loop
     vertex  2.840324e-02  4.114919e-02  0.000000e+00
     vertex  2.840324e-02  4.114919e-02  1.000000e+00
     vertex  3.742554e-02  3.315613e-02  1.000000e+00
   endloop
 endfacet
 facet normal  6.631227e-01  7.485107e-01  0.000000e+00
   outer loop
     vertex  2.840324e-02  4.114919e-02  0.000000e+00
     vertex  3.742554e-02  3.315613e-02  1.000000e+00
     vertex  3.742554e-02  3.315613e-02  0.000000e+00
   endloop
 endfacet
 facet normal  4.647232e-01  8.854560e-01 -0.000000e+00
   outer loop
     vertex  1.773024e-02  4.675081e-02  0.000000e+00
     vertex  1.773024e-02  4.675081e-02  1.000000e+00
     vertex  2.840324e-02  4.114919e-02  1.000000e+00
   endloop
 endfacet
 facet normal  4.647232e-01  8.854560e-01  0.000000e+00
   outer loop
     vertex  1.773024e-02  4.675081e-02  0.000000e+00
     vertex  2.840324e-02  4.114919e-02  1.000000e+00
     vertex  2.840324e-02  4.114919e-02  0.000000e+00
   endloop
 endfacet
 facet normal  2.393157e-01  9.709418e-01 -0.000000e+00
   outer loop
     vertex  6.026834e-03  4.963544e-02  0.000000e+00
     vertex  6.026834e-03  4.963544e-02  1.000000e+00
     vertex  1.773024e-02  4.675081e-02  1.000000e+00
   endloop
 endfacet
 facet normal  2.393157e-01  9.709418e-01  0.000000e+00
   outer loop
     vertex  6.026834e-03  4.963544e-02  0.000000e+00
     vertex  1.773024e-02  4.675081e-02  1.000000e+00
     vertex  1.773024e-02  4.675081e-02  0.000000e+00
   endloop
 endfacet
 facet normal  0.000000e+00  1.000000e+00  0.000000e+00
   outer loop
     vertex -6.026834e-03  4.963544e-02  0.000000e+00
     vertex -6.026834e-03  4.963544e-02  1.000000e+00
     vertex  6.026834e-03  4.963544e-02  1.000000e+00
   endloop
 endfacet
 facet normal  0.000000e+00  1.000000e+00  0.000000e+00
   outer loop
     vertex -6.026834e-03  4.963544e-02  0.000000e+00
     vertex  6.026834e-03  4.963544e-02  1.000000e+00
     vertex  6.026834e-03  4.963544e-02  0.000000e+00
   endloop
 endfacet
 facet normal -2.393157e-01  9.709418e-01  0.000000e+00
   outer loop
     vertex -1.773024e-02  4.675081e-02  0.000000e+00
     vertex -1.773024e-02  4.675081e-02  1.000000e+00
     vertex -6.026834e-03  4.963544e-02  1.000000e+00
   endloop
 endfacet
 facet normal -2.393157e-01  9.709418e-01  0.000000e+00
   outer loop
     vertex -1.773024e-02  4.675081e-02  0.000000e+00
     vertex -6.026834e-03  4.963544e-02  1.000000e+00
     vertex -6.026834e-03  4.963544e-02  0.000000e+00
   endloop
 endfacet
 facet normal -4.647232e-01  8.854560e-01  0.000000e+00
   outer loop
     vertex -2.840324e-02  4.114919e-02  0.000000e+00
     vertex -2.840324e-02  4.114919e-02  1.000000e+00
     vertex -1.773024e-02  4.675081e-02  1.000000e+00
   endloop
 endfacet
 facet normal -4.647232e-01  8.854560e-01  0.000000e+00
   outer loop
     vertex -2.840324e-02  4.114919e-02  0.000000e+00
     vertex -1.773024e-02  4.675081e-02  1.000000e+00
     vertex -1.773024e-02  4.675081e-02  0.000000e+00
   endloop
 endfacet
 facet normal -6.631227e-01  7.485107e-01  0.000000e+00
   outer loop
     vertex -3.742554e-02  3.315613e-02  0.000000e+00
     vertex -3.742554e-02  3.315613e-02  1.000000e+00
     vertex -2.840324e-02  4.114919e-02  1.000000e+00
   endloop
 endfacet
 facet normal -6.631227e-01  7.485107e-01  0.000000e+00
   outer loop
     vertex -3.742554e-02  3.315613e-02  0.000000e+00
     vertex -2.840324e-02  4.114919e-02  1.000000e+00
     vertex -2.840324e-02  4.114919e-02  0.000000e+00
   endloop
 endfacet
 facet normal -8.229839e-01  5.680647e-01  0.000000e+00
   outer loop
     vertex -4.427280e-02  2.323616e-02  0.000000e+00
     vertex -3.742554e-02  3.315613e-02  1.000000e+00
     vertex -3.742554e-02  3.315613e-02  0.000000e+00
   endloop
 endfacet
 facet normal -8.229839e-01  5.680647e-01  0.000000e+00
   outer loop
     vertex -4.427280e-02  2.323616e-02  0.000000e+00
     vertex -4.427280e-02  2.323616e-02  1.000000e+00
     vertex -3.742554e-02  3.315613e-02  1.000000e+00
   endloop
 endfacet
 facet normal -9.350162e-01  3.546049e-01  0.000000e+00
   outer loop
     vertex -4.854709e-02  1.196578e-02  0.000000e+00
     vertex -4.427280e-02  2.323616e-02  1.000000e+00
     vertex -4.427280e-02  2.323616e-02  0.000000e+00
   endloop
 endfacet
 facet normal -9.350162e-01  3.546049e-01  0.000000e+00
   outer loop
     vertex -4.854709e-02  1.196578e-02  0.000000e+00
     vertex -4.854709e-02  1.196578e-02  1.000000e+00
     vertex -4.427280e-02  2.323616e-02  1.000000e+00
   endloop
 endfacet
 facet normal -9.927089e-01  1.205367e-01  0.000000e+00
   outer loop
     vertex -4.854709e-02  1.196578e-02  0.000000e+00
     vertex -5.000000e-02  5.053215e-17  1.000000e+00
     vertex -4.854709e-02  1.196578e-02  1.000000e+00
   endloop
 endfacet
 facet normal -9.927089e-01  1.205367e-01  0.000000e+00
   outer loop
     vertex -5.000000e-02  5.053215e-17  0.000000e+00
     vertex -5.000000e-02  5.053215e-17  1.000000e+00
     vertex -4.854709e-02  1.196578e-02  0.000000e+00
   endloop
 endfacet
 facet normal -9.927089e-01 -1.205367e-01  0.000000e+00
   outer loop
     vertex -4.854709e-02 -1.196578e-02  0.000000e+00
     vertex -5.000000e-02  5.053215e-17  1.000000e+00
     vertex -5.000000e-02  5.053215e-17  0.000000e+00
   endloop
 endfacet
 facet normal -9.927089e-01 -1.205367e-01  0.000000e+00
   outer loop
     vertex -4.854709e-02 -1.196578e-02  0.000000e+00
     vertex -4.854709e-02 -1.196578e-02  1.000000e+00
     vertex -5.000000e-02  5.053215e-17  1.000000e+00
   endloop
 endfacet
 facet normal -9.350162e-01 -3.546049e-01  0.000000e+00
   outer loop
     vertex -4.427280e-02 -2.323616e-02  0.000000e+00
     vertex -4.854709e-02 -1.196578e-02  1.000000e+00
     vertex -4.854709e-02 -1.196578e-02  0.000000e+00
   endloop
 endfacet
 facet normal -9.350162e-01 -3.546049e-01  0.000000e+00
   outer loop
     vertex -4.427280e-02 -2.323616e-02  0.000000e+00
     vertex -4.427280e-02 -2.323616e-02  1.000000e+00
     vertex -4.854709e-02 -1.196578e-02  1.000000e+00
   endloop
 endfacet
 facet normal -8.229839e-01 -5.680647e-01  0.000000e+00
   outer loop
     vertex -3.742554e-02 -3.315613e-02  0.000000e+00
     vertex -3.742554e-02 -3.315613e-02  1.000000e+00
     vertex -4.427280e-02 -2.323616e-02  1.000000e+00
   endloop
 endfacet
 facet normal -8.229839e-01 -5.680647e-01  0.000000e+00
   outer loop
     vertex -3.742554e-02 -3.315613e-02  0.000000e+00
     vertex -4.427280e-02 -2.323616e-02  1.000000e+00
     vertex -4.427280e-02 -2.323616e-02  0.000000e+00
   endloop
 endfacet
 facet normal -6.631227e-01 -7.485107e-01  0.000000e+00
   outer loop
     vertex -2.840324e-02 -4.114919e-02  0.000000e+00
     vertex -2.840324e-02 -4.114919e-02  1.000000e+00
     vertex -3.742554e-02 -3.315613e-02  1.000000e+00
   endloop
 endfacet
 facet normal -4.647232e-01 -8.854560e-01  0.000000e+00
   outer loop
     vertex -2.840324e-02 -4.114919e-02  0.000000e+00
     vertex -1.773024e-02 -4.675081e-02  1.000000e+00
     vertex -2.840324e-02 -4.114919e-02  1.000000e+00
   endloop
 endfacet
 facet normal -6.631227e-01 -7.485107e-01  0.000000e+00
   outer loop
     vertex -2.840324e-02 -4.114919e-02  0.000000e+00
     vertex -3.742554e-02 -3.315613e-02  1.000000e+00
     vertex -3.742554e-02 -3.315613e-02  0.000000e+00
   endloop
 endfacet
 facet normal -4.647232e-01 -8.854560e-01  0.000000e+00
   outer loop
     vertex -1.773024e-02 -4.675081e-02  0.000000e+00
     vertex -1.773024e-02 -4.675081e-02  1.000000e+00
     vertex -2.840324e-02 -4.114919e-02  0.000000e+00
   endloop
 endfacet
 facet normal -2.393157e-01 -9.709418e-01  0.000000e+00
   outer loop
     vertex -6.026834e-03 -4.963544e-02  0.000000e+00
     vertex -6.026834e-03 -4.963544e-02  1.000000e+00
     vertex -1.773024e-02 -4.675081e-02  1.000000e+00
   endloop
 endfacet
 facet normal -2.393157e-01 -9.709418e-01  0.000000e+00
   outer loop
     vertex -6.026834e-03 -4.963544e-02  0.000000e+00
     vertex -1.773024e-02 -4.675081e-02  1.000000e+00
     vertex -1.773024e-02 -4.675081e-02  0.000000e+00
   endloop
 endfacet
 facet normal -2.302666e-15 -1.000000e+00  0.000000e+00
   outer loop
     vertex  6.026834e-03 -4.963544e-02  0.000000e+00
     vertex  6.026834e-03 -4.963544e-02  1.000000e+00
     vertex -6.026834e-03 -4.963544e-02  1.000000e+00
   endloop
 endfacet
 facet normal -2.302666e-15 -1.000000e+00  0.000000e+00
   outer loop
     vertex  6.026834e-03 -4.963544e-02  0.000000e+00
     vertex -6.026834e-03 -4.963544e-02  1.000000e+00
     vertex -6.026834e-03 -4.963544e-02  0.000000e+00
   endloop
 endfacet
 facet normal  2.393157e-01 -9.709418e-01  0.000000e+00
   outer loop
     vertex  1.773024e-02 -4.675081e-02  0.000000e+00
     vertex  1.773024e-02 -4.675081e-02  1.000000e+00
     vertex  6.026834e-03 -4.963544e-02  1.000000e+00
   endloop
 endfacet
 facet normal  2.393157e-01 -9.709418e-01  0.000000e+00
   outer loop
     vertex  1.773024e-02 -4.675081e-02  0.000000e+00
     vertex  6.026834e-03 -4.963544e-02  1.000000e+00
     vertex  6.026834e-03 -4.963544e-02  0.000000e+00
   endloop
 endfacet
 facet normal  4.647232e-01 -8.854560e-01  0.000000e+00
   outer loop
     vertex  2.840324e-02 -4.114919e-02  0.000000e+00
     vertex  2.840324e-02 -4.114919e-02  1.000000e+00
     vertex  1.773024e-02 -4.675081e-02  1.000000e+00
   endloop
 endfacet
 facet normal  4.647232e-01 -8.854560e-01  0.000000e+00
   outer loop
     vertex  2.840324e-02 -4.114919e-02  0.000000e+00
     vertex  1.773024e-02 -4.675081e-02  1.000000e+00
     vertex  1.773024e-02 -4.675081e-02  0.000000e+00
   endloop
 endfacet
 facet normal  6.631227e-01 -7.485107e-01  0.000000e+00
   outer loop
     vertex  3.742554e-02 -3.315613e-02  0.000000e+00
     vertex  3.742554e-02 -3.315613e-02  1.000000e+00
     vertex  2.840324e-02 -4.114919e-02  1.000000e+00
   endloop
 endfacet
 facet normal  6.631227e-01 -7.485107e-01  0.000000e+00
   outer loop
     vertex  3.742554e-02 -3.315613e-02  0.000000e+00
     vertex  2.840324e-02 -4.114919e-02  1.000000e+00
     vertex  2.840324e-02 -4.114919e-02  0.000000e+00
   endloop
 endfacet
 facet normal  8.229839e-01 -5.680647e-01  0.000000e+00
   outer loop
     vertex  4.427280e-02 -2.323616e-02  0.000000e+00
     vertex  4.427280e-02 -2.323616e-02  1.000000e+00
     vertex  3.742554e-02 -3.315613e-02  1.000000e+00
   endloop
 endfacet
 facet normal  8.229839e-01 -5.680647e-01  0.000000e+00
   outer loop
     vertex  4.427280e-02 -2.323616e-02  0.000000e+00
     vertex  3.742554e-02 -3.315613e-02  1.000000e+00
     vertex  3.742554e-02 -3.315613e-02  0.000000e+00
   endloop
 endfacet
 facet normal  9.350162e-01 -3.546049e-01  0.000000e+00
   outer loop
     vertex  4.854709e-02 -1.196578e-02  0.000000e+00
     vertex  4.854709e-02 -1.196578e-02  1.000000e+00
     vertex  4.427280e-02 -2.323616e-02  1.000000e+00
   endloop
 endfacet
 facet normal  9.350162e-01 -3.546049e-01  0.000000e+00
   outer loop
     vertex  4.854709e-02 -1.196578e-02  0.000000e+00
     vertex  4.427280e-02 -2.323616e-02  1.000000e+00
     vertex  4.427280e-02 -2.323616e-02  0.000000e+00
   endloop
 endfacet
 facet normal  9.927089e-01 -1.205367e-01  0.000000e+00
   outer loop
     vertex  5.000000e-02  0.000000e+00  0.000000e+00
     vertex  5.000000e-02  0.000000e+00  1.000000e+00
     vertex  4.854709e-02 -1.196578e-02  1.000000e+00
   endloop
 endfacet
 facet normal  9.927089e-01 -1.205367e-01  0.000000e+00
   outer loop
     vertex  5.000000e-02  0.000000e+00  0.000000e+00
     vertex  4.854709e-02 -1.196578e-02  1.000000e+00
     vertex  4.854709e-02 -1.196578e-02  0.000000e+00
   endloop
 endfacet
 facet normal  9.927089e-01  1.205367e-01  0.000000e+00
   outer loop
     vertex  4.854709e-02  1.196578e-02  0.000000e+00
     vertex  5.000000e-02  0.000000e+00  0.000000e+00
     vertex  5.000000e-02  0.000000e+00 -1.000000e+00
   endloop
 endfacet
 facet normal  9.927089e-01  1.205367e-01  0.000000e+00
   outer loop
     vertex  4.854709e-02  1.196578e-02  0.000000e+00
     vertex  5.000000e-02  0.000000e+00 -1.000000e+00
     vertex  4.854709e-02  1.196578e-02 -1.000000e+00
   endloop
 endfacet
 facet normal  9.350162e-01  3.546049e-01  0.000000e+00
   outer loop
     vertex  4.427280e-02  2.323616e-02  0.000000e+00
     vertex  4.854709e-02  1.196578e-02 -1.000000e+00
     vertex  4.427280e-02  2.323616e-02 -1.000000e+00
   endloop
 endfacet
 facet normal  9.350162e-01  3.546049e-01  0.000000e+00
   outer loop
     vertex  4.427280e-02  2.323616e-02  0.000000e+00
     vertex  4.854709e-02  1.196578e-02  0.000000e+00
     vertex  4.854709e-02  1.196578e-02 -1.000000e+00
   endloop
 endfacet
 facet normal  8.229839e-01  5.680647e-01  0.000000e+00
   outer loop
     vertex  3.742554e-02  3.315613e-02  0.000000e+00
     vertex  4.427280e-02  2.323616e-02 -1.000000e+00
     vertex  3.742554e-02  3.315613e-02 -1.000000e+00
   endloop
 endfacet
 facet normal  8.229839e-01  5.680647e-01  0.000000e+00
   outer loop
     vertex  3.742554e-02  3.315613e-02  0.000000e+00
     vertex  4.427280e-02  2.323616e-02  0.000000e+00
     vertex  4.427280e-02  2.323616e-02 -1.000000e+00
   endloop
 endfacet
 facet normal  6.631227e-01  7.485107e-01  0.000000e+00
   outer loop
     vertex  2.840324e-02  4.114919e-02  0.000000e+00
     vertex  3.742554e-02  3.315613e-02 -1.000000e+00
     vertex  2.840324e-02  4.114919e-02 -1.000000e+00
   endloop
 endfacet
 facet normal  6.631227e-01  7.485107e-01  0.000000e+00
   outer loop
     vertex  2.840324e-02  4.114919e-02  0.000000e+00
     vertex  3.742554e-02  3.315613e-02  0.000000e+00
     vertex  3.742554e-02  3.315613e-02 -1.000000e+00
   endloop
 endfacet
 facet normal  4.647232e-01  8.854560e-01  0.000000e+00
   outer loop
     vertex  1.773024e-02  4.675081e-02  0.000000e+00
     vertex  2.840324e-02  4.114919e-02 -1.000000e+00
     vertex  1.773024e-02  4.675081e-02 -1.000000e+00
   endloop
 endfacet
 facet normal  4.647232e-01  8.854560e-01  0.000000e+00
   outer loop
     vertex  1.773024e-02  4.675081e-02  0.000000e+00
     vertex  2.840324e-02  4.114919e-02  0.000000e+00
     vertex  2.840324e-02  4.114919e-02 -1.000000e+00
   endloop
 endfacet
 facet normal  2.393157e-01  9.709418e-01  0.000000e+00
   outer loop
     vertex  6.026834e-03  4.963544e-02  0.000000e+00
     vertex  1.773024e-02  4.675081e-02 -1.000000e+00
     vertex  6.026834e-03  4.963544e-02 -1.000000e+00
   endloop
 endfacet
 facet normal  2.393157e-01  9.709418e-01  0.000000e+00
   outer loop
     vertex  6.026834e-03  4.963544e-02  0.000000e+00
     vertex  1.773024e-02  4.675081e-02  0.000000e+00
     vertex  1.773024e-02  4.675081e-02 -1.000000e+00
   endloop
 endfacet
 facet normal  0.000000e+00  1.000000e+00  0.000000e+00
   outer loop
     vertex -6.026834e-03  4.963544e-02  0.000000e+00
     vertex  6.026834e-03  4.963544e-02 -1.000000e+00
     vertex -6.026834e-03  4.963544e-02 -1.000000e+00
   endloop
 endfacet
 facet normal -0.000000e+00  1.000000e+00  0.000000e+00
   outer loop
     vertex -6.026834e-03  4.963544e-02  0.000000e+00
     vertex  6.026834e-03  4.963544e-02  0.000000e+00
     vertex  6.026834e-03  4.963544e-02 -1.000000e+00
   endloop
 endfacet
 facet normal -2.393157e-01  9.709418e-01  0.000000e+00
   outer loop
     vertex -1.773024e-02  4.675081e-02  0.000000e+00
     vertex -6.026834e-03  4.963544e-02 -1.000000e+00
     vertex -1.773024e-02  4.675081e-02 -1.000000e+00
   endloop
 endfacet
 facet normal -2.393157e-01  9.709418e-01  0.000000e+00
   outer loop
     vertex -1.773024e-02  4.675081e-02  0.000000e+00
     vertex -6.026834e-03  4.963544e-02  0.000000e+00
     vertex -6.026834e-03  4.963544e-02 -1.000000e+00
   endloop
 endfacet
 facet normal -4.647232e-01  8.854560e-01  0.000000e+00
   outer loop
     vertex -2.840324e-02  4.114919e-02  0.000000e+00
     vertex -1.773024e-02  4.675081e-02 -1.000000e+00
     vertex -2.840324e-02  4.114919e-02 -1.000000e+00
   endloop
 endfacet
 facet normal -4.647232e-01  8.854560e-01  0.000000e+00
   outer loop
     vertex -2.840324e-02  4.114919e-02  0.000000e+00
     vertex -1.773024e-02  4.675081e-02  0.000000e+00
     vertex -1.773024e-02  4.675081e-02 -1.000000e+00
   endloop
 endfacet
 facet normal -6.631227e-01  7.485107e-01  0.000000e+00
   outer loop
     vertex -3.742554e-02  3.315613e-02  0.000000e+00
     vertex -2.840324e-02  4.114919e-02 -1.000000e+00
     vertex -3.742554e-02  3.315613e-02 -1.000000e+00
   endloop
 endfacet
 facet normal -6.631227e-01  7.485107e-01  0.000000e+00
   outer loop
     vertex -3.742554e-02  3.315613e-02  0.000000e+00
     vertex -2.840324e-02  4.114919e-02  0.000000e+00
     vertex -2.840324e-02  4.114919e-02 -1.000000e+00
   endloop
 endfacet
 facet normal -8.229839e-01  5.680647e-01  0.000000e+00
   outer loop
     vertex -4.427280e-02  2.323616e-02  0.000000e+00
     vertex -3.742554e-02  3.315613e-02  0.000000e+00
     vertex -3.742554e-02  3.315613e-02 -1.000000e+00
   endloop
 endfacet
 facet normal -8.229839e-01  5.680647e-01  0.000000e+00
   outer loop
     vertex -4.427280e-02  2.323616e-02  0.000000e+00
     vertex -3.742554e-02  3.315613e-02 -1.000000e+00
     vertex -4.427280e-02  2.323616e-02 -1.000000e+00
   endloop
 endfacet
 facet normal -9.350162e-01  3.546049e-01  0.000000e+00
   outer loop
     vertex -4.854709e-02  1.196578e-02  0.000000e+00
     vertex -4.427280e-02  2.323616e-02  0.000000e+00
     vertex -4.427280e-02  2.323616e-02 -1.000000e+00
   endloop
 endfacet
 facet normal -9.350162e-01  3.546049e-01  0.000000e+00
   outer loop
     vertex -4.854709e-02  1.196578e-02  0.000000e+00
     vertex -4.427280e-02  2.323616e-02 -1.000000e+00
     vertex -4.854709e-02  1.196578e-02 -1.000000e+00
   endloop
 endfacet
 facet normal -9.927089e-01  1.205367e-01  0.000000e+00
   outer loop
     vertex -4.854709e-02  1.196578e-02  0.000000e+00
     vertex -4.854709e-02  1.196578e-02 -1.000000e+00
     vertex -5.000000e-02  5.053215e-17 -1.000000e+00
   endloop
 endfacet
 facet normal -9.927089e-01  1.205367e-01  0.000000e+00
   outer loop
     vertex -5.000000e-02  5.053215e-17  0.000000e+00
     vertex -4.854709e-02  1.196578e-02  0.000000e+00
     vertex -5.000000e-02  5.053215e-17 -1.000000e+00
   endloop
 endfacet
 facet normal -9.927089e-01 -1.205367e-01  0.000000e+00
   outer loop
     vertex -4.854709e-02 -1.196578e-02  0.000000e+00
     vertex -5.000000e-02  5.053215e-17  0.000000e+00
     vertex -5.000000e-02  5.053215e-17 -1.000000e+00
   endloop
 endfacet
 facet normal -9.927089e-01 -1.205367e-01 -0.000000e+00
   outer loop
     vertex -4.854709e-02 -1.196578e-02  0.000000e+00
     vertex -5.000000e-02  5.053215e-17 -1.000000e+00
     vertex -4.854709e-02 -1.196578e-02 -1.000000e+00
   endloop
 endfacet
 facet normal -9.350162e-01 -3.546049e-01  0.000000e+00
   outer loop
     vertex -4.427280e-02 -2.323616e-02  0.000000e+00
     vertex -4.854709e-02 -1.196578e-02  0.000000e+00
     vertex -4.854709e-02 -1.196578e-02 -1.000000e+00
   endloop
 endfacet
 facet normal -9.350162e-01 -3.546049e-01 -0.000000e+00
   outer loop
     vertex -4.427280e-02 -2.323616e-02  0.000000e+00
     vertex -4.854709e-02 -1.196578e-02 -1.000000e+00
     vertex -4.427280e-02 -2.323616e-02 -1.000000e+00
   endloop
 endfacet
 facet normal -8.229839e-01 -5.680647e-01 -0.000000e+00
   outer loop
     vertex -3.742554e-02 -3.315613e-02  0.000000e+00
     vertex -4.427280e-02 -2.323616e-02 -1.000000e+00
     vertex -3.742554e-02 -3.315613e-02 -1.000000e+00
   endloop
 endfacet
 facet normal -8.229839e-01 -5.680647e-01  0.000000e+00
   outer loop
     vertex -3.742554e-02 -3.315613e-02  0.000000e+00
     vertex -4.427280e-02 -2.323616e-02  0.000000e+00
     vertex -4.427280e-02 -2.323616e-02 -1.000000e+00
   endloop
 endfacet
 facet normal -6.631227e-01 -7.485107e-01 -0.000000e+00
   outer loop
     vertex -2.840324e-02 -4.114919e-02  0.000000e+00
     vertex -3.742554e-02 -3.315613e-02 -1.000000e+00
     vertex -2.840324e-02 -4.114919e-02 -1.000000e+00
   endloop
 endfacet
 facet normal -4.647232e-01 -8.854560e-01 -0.000000e+00
   outer loop
     vertex -2.840324e-02 -4.114919e-02  0.000000e+00
     vertex -2.840324e-02 -4.114919e-02 -1.000000e+00
     vertex -1.773024e-02 -4.675081e-02 -1.000000e+00
   endloop
 endfacet
 facet normal -6.631227e-01 -7.485107e-01  0.000000e+00
   outer loop
     vertex -2.840324e-02 -4.114919e-02  0.000000e+00
     vertex -3.742554e-02 -3.315613e-02  0.000000e+00
     vertex -3.742554e-02 -3.315613e-02 -1.000000e+00
   endloop
 endfacet
 facet normal -4.647232e-01 -8.854560e-01 -0.000000e+00
   outer loop
     vertex -1.773024e-02 -4.675081e-02  0.000000e+00
     vertex -2.840324e-02 -4.114919e-02  0.000000e+00
     vertex -1.773024e-02 -4.675081e-02 -1.000000e+00
   endloop
 endfacet
 facet normal -2.393157e-01 -9.709418e-01 -0.000000e+00
   outer loop
     vertex -6.026834e-03 -4.963544e-02  0.000000e+00
     vertex -1.773024e-02 -4.675081e-02 -1.000000e+00
     vertex -6.026834e-03 -4.963544e-02 -1.000000e+00
   endloop
 endfacet
 facet normal -2.393157e-01 -9.709418e-01  0.000000e+00
   outer loop
     vertex -6.026834e-03 -4.963544e-02  0.000000e+00
     vertex -1.773024e-02 -4.675081e-02  0.000000e+00
     vertex -1.773024e-02 -4.675081e-02 -1.000000e+00
   endloop
 endfacet
 facet normal -2.302666e-15 -1.000000e+00 -0.000000e+00
   outer loop
     vertex  6.026834e-03 -4.963544e-02  0.000000e+00
     vertex -6.026834e-03 -4.963544e-02 -1.000000e+00
     vertex  6.026834e-03 -4.963544e-02 -1.000000e+00
   endloop
 endfacet
 facet normal -2.302666e-15 -1.000000e+00  0.000000e+00
   outer loop
     vertex  6.026834e-03 -4.963544e-02  0.000000e+00
     vertex -6.026834e-03 -4.963544e-02  0.000000e+00
     vertex -6.026834e-03 -4.963544e-02 -1.000000e+00
   endloop
 endfacet
 facet normal  2.393157e-01 -9.709418e-01  0.000000e+00
   outer loop
     vertex  1.773024e-02 -4.675081e-02  0.000000e+00
     vertex  6.026834e-03 -4.963544e-02 -1.000000e+00
     vertex  1.773024e-02 -4.675081e-02 -1.000000e+00
   endloop
 endfacet
 facet normal  2.393157e-01 -9.709418e-01  0.000000e+00
   outer loop
     vertex  1.773024e-02 -4.675081e-02  0.000000e+00
     vertex  6.026834e-03 -4.963544e-02  0.000000e+00
     vertex  6.026834e-03 -4.963544e-02 -1.000000e+00
   endloop
 endfacet
 facet normal  4.647232e-01 -8.854560e-01  0.000000e+00
   outer loop
     vertex  2.840324e-02 -4.114919e-02  0.000000e+00
     vertex  1.773024e-02 -4.675081e-02 -1.000000e+00
     vertex  2.840324e-02 -4.114919e-02 -1.000000e+00
   endloop
 endfacet
 facet normal  4.647232e-01 -8.854560e-01  0.000000e+00
   outer loop
     vertex  2.840324e-02 -4.114919e-02  0.000000e+00
     vertex  1.773024e-02 -4.675081e-02  0.000000e+00
     vertex  1.773024e-02 -4.675081e-02 -1.000000e+00
   endloop
 endfacet
 facet normal  6.631227e-01 -7.485107e-01  0.000000e+00
   outer loop
     vertex  3.742554e-02 -3.315613e-02  0.000000e+00
     vertex  2.840324e-02 -4.114919e-02 -1.000000e+00
     vertex  3.742554e-02 -3.315613e-02 -1.000000e+00
   endloop
 endfacet
 facet normal  6.631227e-01 -7.485107e-01  0.000000e+00
   outer loop
     vertex  3.742554e-02 -3.315613e-02  0.000000e+00
     vertex  2.840324e-02 -4.114919e-02  0.000000e+00
     vertex  2.840324e-02 -4.114919e-02 -1.000000e+00
   endloop
 endfacet
 facet normal  8.229839e-01 -5.680647e-01  0.000000e+00
   outer loop
     vertex  4.427280e-02 -2.323616e-02  0.000000e+00
     vertex  3.742554e-02 -3.315613e-02 -1.000000e+00
     vertex  4.427280e-02 -2.323616e-02 -1.000000e+00
   endloop
 endfacet
 facet normal  8.229839e-01 -5.680647e-01  0.000000e+00
   outer loop
     vertex  4.427280e-02 -2.323616e-02  0.000000e+00
     vertex  3.742554e-02 -3.315613e-02  0.000000e+00
     vertex  3.742554e-02 -3.315613e-02 -1.000000e+00
   endloop
 endfacet
 facet normal  9.350162e-01 -3.546049e-01  0.000000e+00
   outer loop
     vertex  4.854709e-02 -1.196578e-02  0.000000e+00
     vertex  4.427280e-02 -2.323616e-02 -1.000000e+00
     vertex  4.854709e-02 -1.196578e-02 -1.000000e+00
   endloop
 endfacet
 facet normal  9.350162e-01 -3.546049e-01  0.000000e+00
   outer loop
     vertex  4.854709e-02 -1.196578e-02  0.000000e+00
     vertex  4.427280e-02 -2.323616e-02  0.000000e+00
     vertex  4.427280e-02 -2.323616e-02 -1.000000e+00
   endloop
 endfacet
 facet normal  9.927089e-01 -1.205367e-01  0.000000e+00
   outer loop
     vertex  5.000000e-02  0.000000e+00  0.000000e+00
     vertex  4.854709e-02 -1.196578e-02 -1.000000e+00
     vertex  5.000000e-02  0.000000e+00 -1.000000e+00
   endloop
 endfacet
 facet normal  9.927089e-01 -1.205367e-01  0.000000e+00
   outer loop
     vertex  5.000000e-02  0.000000e+00  0.000000e+00
     vertex  4.854709e-02 -1.196578e-02  0.000000e+00
     vertex  4.854709e-02 -1.196578e-02 -1.000000e+00
   endloop
 endfacet
 facet normal  0.000000e+00  0.000000e+00  1.000000e+00
   outer loop
     vertex -1.988227e-02 -2.880444e-02  1.000000e+00
     vertex -3.742554e-02 -3.315613e-02  1.000000e+00
     vertex -2.840324e-02 -4.114919e-02  1.000000e+00
   endloop
 endfacet
 facet normal  0.000000e+00  0.000000e+00  1.000000e+00
   outer loop
     vertex -1.988227e-02 -2.880444e-02  1.000000e+00
     vertex -2.619788e-02 -2.320929e-02  1.000000e+00
     vertex -3.742554e-02 -3.315613e-02  1.000000e+00
   endloop
 endfacet
 facet normal  0.000000e+00  0.000000e+00  1.000000e+00
   outer loop
     vertex -3.099096e-02 -1.626531e-02  1.000000e+00
     vertex -4.427280e-02 -2.323616e-02  1.000000e+00
     vertex -3.742554e-02 -3.315613e-02  1.000000e+00
   endloop
 endfacet
 facet normal  0.000000e+00  0.000000e+00  1.000000e+00
   outer loop
     vertex -3.099096e-02 -1.626531e-02  1.000000e+00
     vertex -3.742554e-02 -3.315613e-02  1.000000e+00
     vertex -2.619788e-02 -2.320929e-02  1.000000e+00
   endloop
 endfacet
 facet normal  0.000000e+00  0.000000e+00  1.000000e+00
   outer loop
     vertex -1.241117e-02 -3.272557e-02  1.000000e+00
     vertex -2.840324e-02 -4.114919e-02  1.000000e+00
     vertex -1.773024e-02 -4.675081e-02  1.000000e+00
   endloop
 endfacet
 facet normal  0.000000e+00  0.000000e+00  1.000000e+00
   outer loop
     vertex -1.241117e-02 -3.272557e-02  1.000000e+00
     vertex -1.988227e-02 -2.880444e-02  1.000000e+00
     vertex -2.840324e-02 -4.114919e-02  1.000000e+00
   endloop
 endfacet
 facet normal  0.000000e+00  0.000000e+00  1.000000e+00
   outer loop
     vertex -3.398296e-02 -8.376048e-03  1.000000e+00
     vertex -4.854709e-02 -1.196578e-02  1.000000e+00
     vertex -4.427280e-02 -2.323616e-02  1.000000e+00
   endloop
 endfacet
 facet normal  0.000000e+00  0.000000e+00  1.000000e+00
   outer loop
     vertex -3.398296e-02 -8.376048e-03  1.000000e+00
     vertex -4.427280e-02 -2.323616e-02  1.000000e+00
     vertex -3.099096e-02 -1.626531e-02  1.000000e+00
   endloop
 endfacet
 facet normal  0.000000e+00  0.000000e+00  1.000000e+00
   outer loop
     vertex -4.218784e-03 -3.474481e-02  1.000000e+00
     vertex -1.773024e-02 -4.675081e-02  1.000000e+00
     vertex -6.026834e-03 -4.963544e-02  1.000000e+00
   endloop
 endfacet
 facet normal  0.000000e+00  0.000000e+00  1.000000e+00
   outer loop
     vertex -4.218784e-03 -3.474481e-02  1.000000e+00
     vertex -1.241117e-02 -3.272557e-02  1.000000e+00
     vertex -1.773024e-02 -4.675081e-02  1.000000e+00
   endloop
 endfacet
 facet normal  0.000000e+00  0.000000e+00  1.000000e+00
   outer loop
     vertex -3.500000e-02  3.537251e-17  1.000000e+00
     vertex -5.000000e-02  5.053215e-17  1.000000e+00
     vertex -4.854709e-02 -1.196578e-02  1.000000e+00
   endloop
 endfacet
 facet normal  0.000000e+00  0.000000e+00  1.000000e+00
   outer loop
     vertex -3.500000e-02  3.537251e-17  1.000000e+00
     vertex -4.854709e-02 -1.196578e-02  1.000000e+00
     vertex -3.398296e-02 -8.376048e-03  1.000000e+00
   endloop
 endfacet
 facet normal  0.000000e+00  0.000000e+00  1.000000e+00
   outer loop
     vertex  4.218784e-03 -3.474481e-02  1.000000e+00
     vertex -6.026834e-03 -4.963544e-02  1.000000e+00
     vertex  6.026834e-03 -4.963544e-02  1.000000e+00
   endloop
 endfacet
 facet normal  0.000000e+00  0.000000e+00  1.000000e+00
   outer loop
     vertex  4.218784e-03 -3.474481e-02  1.000000e+00
     vertex -4.218784e-03 -3.474481e-02  1.000000e+00
     vertex -6.026834e-03 -4.963544e-02  1.000000e+00
   endloop
 endfacet
 facet normal  0.000000e+00  0.000000e+00  1.000000e+00
   outer loop
     vertex -3.398296e-02  8.376048e-03  1.000000e+00
     vertex -4.854709e-02  1.196578e-02  1.000000e+00
     vertex -5.000000e-02  5.053215e-17  1.000000e+00
   endloop
 endfacet
 facet normal  0.000000e+00  0.000000e+00  1.000000e+00
   outer loop
     vertex -3.398296e-02  8.376048e-03  1.000000e+00
     vertex -5.000000e-02  5.053215e-17  1.000000e+00
     vertex -3.500000e-02  3.537251e-17  1.000000e+00
   endloop
 endfacet
 facet normal  0.000000e+00  0.000000e+00  1.000000e+00
   outer loop
     vertex  1.241117e-02 -3.272557e-02  1.000000e+00
     vertex  6.026834e-03 -4.963544e-02  1.000000e+00
     vertex  1.773024e-02 -4.675081e-02  1.000000e+00
   endloop
 endfacet
 facet normal  0.000000e+00  0.000000e+00  1.000000e+00
   outer loop
     vertex  1.241117e-02 -3.272557e-02  1.000000e+00
     vertex  4.218784e-03 -3.474481e-02  1.000000e+00
     vertex  6.026834e-03 -4.963544e-02  1.000000e+00
   endloop
 endfacet
 facet normal  0.000000e+00  0.000000e+00  1.000000e+00
   outer loop
     vertex -3.099096e-02  1.626531e-02  1.000000e+00
     vertex -4.427280e-02  2.323616e-02  1.000000e+00
     vertex -4.854709e-02  1.196578e-02  1.000000e+00
   endloop
 endfacet
 facet normal  0.000000e+00  0.000000e+00  1.000000e+00
   outer loop
     vertex -3.099096e-02  1.626531e-02  1.000000e+00
     vertex -4.854709e-02  1.196578e-02  1.000000e+00
     vertex -3.398296e-02  8.376048e-03  1.000000e+00
   endloop
 endfacet
 facet normal  0.000000e+00  0.000000e+00  1.000000e+00
   outer loop
     vertex  1.988227e-02 -2.880444e-02  1.000000e+00
     vertex  1.773024e-02 -4.675081e-02  1.000000e+00
     vertex  2.840324e-02 -4.114919e-02  1.000000e+00
   endloop
 endfacet
 facet normal  0.000000e+00  0.000000e+00  1.000000e+00
   outer loop
     vertex  1.988227e-02 -2.880444e-02  1.000000e+00
     vertex  1.241117e-02 -3.272557e-02  1.000000e+00
     vertex  1.773024e-02 -4.675081e-02  1.000000e+00
   endloop
 endfacet
 facet normal  0.000000e+00  0.000000e+00  1.000000e+00
   outer loop
     vertex -2.619788e-02  2.320929e-02  1.000000e+00
     vertex -3.742554e-02  3.315613e-02  1.000000e+00
     vertex -4.427280e-02  2.323616e-02  1.000000e+00
   endloop
 endfacet
 facet normal  0.000000e+00  0.000000e+00  1.000000e+00
   outer loop
     vertex -2.619788e-02  2.320929e-02  1.000000e+00
     vertex -4.427280e-02  2.323616e-02  1.000000e+00
     vertex -3.099096e-02  1.626531e-02  1.000000e+00
   endloop
 endfacet
 facet normal  0.000000e+00  0.000000e+00  1.000000e+00
   outer loop
     vertex  3.742554e-02 -3.315613e-02  1.000000e+00
     vertex  2.619788e-02 -2.320929e-02  1.000000e+00
     vertex  1.988227e-02 -2.880444e-02  1.000000e+00
   endloop
 endfacet
 facet normal  0.000000e+00  0.000000e+00  1.000000e+00
   outer loop
     vertex  3.742554e-02 -3.315613e-02  1.000000e+00
     vertex  1.988227e-02 -2.880444e-02  1.000000e+00
     vertex  2.840324e-02 -4.114919e-02  1.000000e+00
   endloop
 endfacet
 facet normal  0.000000e+00  0.000000e+00  1.000000e+00
   outer loop
     vertex -2.840324e-02  4.114919e-02  1.000000e+00
     vertex -2.619788e-02  2.320929e-02  1.000000e+00
     vertex -1.988227e-02  2.880444e-02  1.000000e+00
   endloop
 endfacet
 facet normal  0.000000e+00  0.000000e+00  1.000000e+00
   outer loop
     vertex -2.840324e-02  4.114919e-02  1.000000e+00
     vertex -3.742554e-02  3.315613e-02  1.000000e+00
     vertex -2.619788e-02  2.320929e-02  1.000000e+00
   endloop
 endfacet
 facet normal  0.000000e+00  0.000000e+00  1.000000e+00
   outer loop
     vertex  4.427280e-02 -2.323616e-02  1.000000e+00
     vertex  2.619788e-02 -2.320929e-02  1.000000e+00
     vertex  3.742554e-02 -3.315613e-02  1.000000e+00
   endloop
 endfacet
 facet normal  0.000000e+00  0.000000e+00  1.000000e+00
   outer loop
     vertex  4.427280e-02 -2.323616e-02  1.000000e+00
     vertex  3.099096e-02 -1.626531e-02  1.000000e+00
     vertex  2.619788e-02 -2.320929e-02  1.000000e+00
   endloop
 endfacet
 facet normal  0.000000e+00  0.000000e+00  1.000000e+00
   outer loop
     vertex -1.773024e-02  4.675081e-02  1.000000e+00
     vertex -2.840324e-02  4.114919e-02  1.000000e+00
     vertex -1.988227e-02  2.880444e-02  1.000000e+00
   endloop
 endfacet
 facet normal  0.000000e+00  0.000000e+00  1.000000e+00
   outer loop
     vertex -1.773024e-02  4.675081e-02  1.000000e+00
     vertex -1.988227e-02  2.880444e-02  1.000000e+00
     vertex -1.241117e-02  3.272557e-02  1.000000e+00
   endloop
 endfacet
 facet normal  0.000000e+00  0.000000e+00  1.000000e+00
   outer loop
     vertex  4.854709e-02 -1.196578e-02  1.000000e+00
     vertex  3.099096e-02 -1.626531e-02  1.000000e+00
     vertex  4.427280e-02 -2.323616e-02  1.000000e+00
   endloop
 endfacet
 facet normal  0.000000e+00  0.000000e+00  1.000000e+00
   outer loop
     vertex  4.854709e-02 -1.196578e-02  1.000000e+00
     vertex  3.398296e-02 -8.376048e-03  1.000000e+00
     vertex  3.099096e-02 -1.626531e-02  1.000000e+00
   endloop
 endfacet
 facet normal  0.000000e+00  0.000000e+00  1.000000e+00
   outer loop
     vertex -6.026834e-03  4.963544e-02  1.000000e+00
     vertex -1.773024e-02  4.675081e-02  1.000000e+00
     vertex -1.241117e-02  3.272557e-02  1.000000e+00
   endloop
 endfacet
 facet normal  0.000000e+00  0.000000e+00  1.000000e+00
   outer loop
     vertex -6.026834e-03  4.963544e-02  1.000000e+00
     vertex -1.241117e-02  3.272557e-02  1.000000e+00
     vertex -4.218784e-03  3.474481e-02  1.000000e+00
   endloop
 endfacet
 facet normal  0.000000e+00  0.000000e+00  1.000000e+00
   outer loop
     vertex  5.000000e-02  0.000000e+00  1.000000e+00
     vertex  3.398296e-02 -8.376048e-03  1.000000e+00
     vertex  4.854709e-02 -1.196578e-02  1.000000e+00
   endloop
 endfacet
 facet normal  0.000000e+00  0.000000e+00  1.000000e+00
   outer loop
     vertex  5.000000e-02  0.000000e+00  1.000000e+00
     vertex  3.500000e-02  0.000000e+00  1.000000e+00
     vertex  3.398296e-02 -8.376048e-03  1.000000e+00
   endloop
 endfacet
 facet normal  0.000000e+00  0.000000e+00  1.000000e+00
   outer loop
     vertex  6.026834e-03  4.963544e-02  1.000000e+00
     vertex -4.218784e-03  3.474481e-02  1.000000e+00
     vertex  4.218784e-03  3.474481e-02  1.000000e+00
   endloop
 endfacet
 facet normal  0.000000e+00  0.000000e+00  1.000000e+00
   outer loop
     vertex  6.026834e-03  4.963544e-02  1.000000e+00
     vertex -6.026834e-03  4.963544e-02  1.000000e+00
     vertex -4.218784e-03  3.474481e-02  1.000000e+00
   endloop
 endfacet
 facet normal  0.000000e+00  0.000000e+00  1.000000e+00
   outer loop
     vertex  4.854709e-02  1.196578e-02  1.000000e+00
     vertex  3.500000e-02  0.000000e+00  1.000000e+00
     vertex  5.000000e-02  0.000000e+00  1.000000e+00
   endloop
 endfacet
 facet normal  0.000000e+00  0.000000e+00  1.000000e+00
   outer loop
     vertex  4.854709e-02  1.196578e-02  1.000000e+00
     vertex  3.398296e-02  8.376048e-03  1.000000e+00
     vertex  3.500000e-02  0.000000e+00  1.000000e+00
   endloop
 endfacet
 facet normal  0.000000e+00  0.000000e+00  1.000000e+00
   outer loop
     vertex  1.773024e-02  4.675081e-02  1.000000e+00
     vertex  4.218784e-03  3.474481e-02  1.000000e+00
     vertex  1.241117e-02  3.272557e-02  1.000000e+00
   endloop
 endfacet
 facet normal  0.000000e+00  0.000000e+00  1.000000e+00
   outer loop
     vertex  1.773024e-02  4.675081e-02  1.000000e+00
     vertex  6.026834e-03  4.963544e-02  1.000000e+00
     vertex  4.218784e-03  3.474481e-02  1.000000e+00
   endloop
 endfacet
 facet normal  0.000000e+00  0.000000e+00  1.000000e+00
   outer loop
     vertex  4.427280e-02  2.323616e-02  1.000000e+00
     vertex  3.099096e-02  1.626531e-02  1.000000e+00
     vertex  3.398296e-02  8.376048e-03  1.000000e+00
   endloop
 endfacet
 facet normal  0.000000e+00  0.000000e+00  1.000000e+00
   outer loop
     vertex  4.427280e-02  2.323616e-02  1.000000e+00
     vertex  3.398296e-02  8.376048e-03  1.000000e+00
     vertex  4.854709e-02  1.196578e-02  1.000000e+00
   endloop
 endfacet
 facet normal  0.000000e+00  0.000000e+00  1.000000e+00
   outer loop
     vertex  2.840324e-02  4.114919e-02  1.000000e+00
     vertex  1.773024e-02  4.675081e-02  1.000000e+00
     vertex  1.241117e-02  3.272557e-02  1.000000e+00
   endloop
 endfacet
 facet normal  0.000000e+00  0.000000e+00  1.000000e+00
   outer loop
     vertex  2.840324e-02  4.114919e-02  1.000000e+00
     vertex  1.241117e-02  3.272557e-02  1.000000e+00
     vertex  1.988227e-02  2.880444e-02  1.000000e+00
   endloop
 endfacet
 facet normal  0.000000e+00  0.000000e+00  1.000000e+00
   outer loop
     vertex  3.742554e-02  3.315613e-02  1.000000e+00
     vertex  2.619788e-02  2.320929e-02  1.000000e+00
     vertex  3.099096e-02  1.626531e-02  1.000000e+00
   endloop
 endfacet
 facet normal  0.000000e+00  0.000000e+00  1.000000e+00
   outer loop
     vertex  3.742554e-02  3.315613e-02  1.000000e+00
     vertex  1.988227e-02  2.880444e-02  1.000000e+00
     vertex  2.619788e-02  2.320929e-02  1.000000e+00
   endloop
 endfacet
 facet normal  0.000000e+00  0.000000e+00  1.000000e+00
   outer loop
     vertex  3.742554e-02  3.315613e-02  1.000000e+00
     vertex  3.099096e-02  1.626531e-02  1.000000e+00
     vertex  4.427280e-02  2.323616e-02  1.000000e+00
   endloop
 endfacet
 facet normal  0.000000e+00  0.000000e+00  1.000000e+00
   outer loop
     vertex  3.742554e-02  3.315613e-02  1.000000e+00
     vertex  2.840324e-02  4.114919e-02  1.000000e+00
     vertex  1.988227e-02  2.880444e-02  1.000000e+00
   endloop
 endfacet
 facet normal  0.000000e+00  0.000000e+00 -1.000000e+00
   outer loop
     vertex -1.988227e-02 -2.880444e-02 -1.000000e+00
     vertex -2.840324e-02 -4.114919e-02 -1.000000e+00
     vertex -3.742554e-02 -3.315613e-02 -1.000000e+00
   endloop
 endfacet
 facet normal -0.000000e+00  0.000000e+00 -1.000000e+00
   outer loop
     vertex -1.988227e-02 -2.880444e-02 -1.000000e+00
     vertex -3.742554e-02 -3.315613e-02 -1.000000e+00
     vertex -2.619788e-02 -2.320929e-02 -1.000000e+00
   endloop
 endfacet
 facet normal  0.000000e+00  0.000000e+00 -1.000000e+00
   outer loop
     vertex -3.099096e-02 -1.626531e-02 -1.000000e+00
     vertex -3.742554e-02 -3.315613e-02 -1.000000e+00
     vertex -4.427280e-02 -2.323616e-02 -1.000000e+00
   endloop
 endfacet
 facet normal  0.000000e+00 -0.000000e+00 -1.000000e+00
   outer loop
     vertex -3.099096e-02 -1.626531e-02 -1.000000e+00
     vertex -2.619788e-02 -2.320929e-02 -1.000000e+00
     vertex -3.742554e-02 -3.315613e-02 -1.000000e+00
   endloop
 endfacet
 facet normal  0.000000e+00  0.000000e+00 -1.000000e+00
   outer loop
     vertex -1.241117e-02 -3.272557e-02 -1.000000e+00
     vertex -1.773024e-02 -4.675081e-02 -1.000000e+00
     vertex -2.840324e-02 -4.114919e-02 -1.000000e+00
   endloop
 endfacet
 facet normal -0.000000e+00  0.000000e+00 -1.000000e+00
   outer loop
     vertex -1.241117e-02 -3.272557e-02 -1.000000e+00
     vertex -2.840324e-02 -4.114919e-02 -1.000000e+00
     vertex -1.988227e-02 -2.880444e-02 -1.000000e+00
   endloop
 endfacet
 facet normal  0.000000e+00  0.000000e+00 -1.000000e+00
   outer loop
     vertex -3.398296e-02 -8.376048e-03 -1.000000e+00
     vertex -4.427280e-02 -2.323616e-02 -1.000000e+00
     vertex -4.854709e-02 -1.196578e-02 -1.000000e+00
   endloop
 endfacet
 facet normal  0.000000e+00 -0.000000e+00 -1.000000e+00
   outer loop
     vertex -3.398296e-02 -8.376048e-03 -1.000000e+00
     vertex -3.099096e-02 -1.626531e-02 -1.000000e+00
     vertex -4.427280e-02 -2.323616e-02 -1.000000e+00
   endloop
 endfacet
 facet normal  0.000000e+00  0.000000e+00 -1.000000e+00
   outer loop
     vertex -4.218784e-03 -3.474481e-02 -1.000000e+00
     vertex -6.026834e-03 -4.963544e-02 -1.000000e+00
     vertex -1.773024e-02 -4.675081e-02 -1.000000e+00
   endloop
 endfacet
 facet normal -0.000000e+00  0.000000e+00 -1.000000e+00
   outer loop
     vertex -4.218784e-03 -3.474481e-02 -1.000000e+00
     vertex -1.773024e-02 -4.675081e-02 -1.000000e+00
     vertex -1.241117e-02 -3.272557e-02 -1.000000e+00
   endloop
 endfacet
 facet normal -0.000000e+00  0.000000e+00 -1.000000e+00
   outer loop
     vertex -3.500000e-02  3.537251e-17 -1.000000e+00
     vertex -4.854709e-02 -1.196578e-02 -1.000000e+00
     vertex -5.000000e-02  5.053215e-17 -1.000000e+00
   endloop
 endfacet
 facet normal  0.000000e+00 -0.000000e+00 -1.000000e+00
   outer loop
     vertex -3.500000e-02  3.537251e-17 -1.000000e+00
     vertex -3.398296e-02 -8.376048e-03 -1.000000e+00
     vertex -4.854709e-02 -1.196578e-02 -1.000000e+00
   endloop
 endfacet
 facet normal  0.000000e+00 -0.000000e+00 -1.000000e+00
   outer loop
     vertex  4.218784e-03 -3.474481e-02 -1.000000e+00
     vertex  6.026834e-03 -4.963544e-02 -1.000000e+00
     vertex -6.026834e-03 -4.963544e-02 -1.000000e+00
   endloop
 endfacet
 facet normal -0.000000e+00  0.000000e+00 -1.000000e+00
   outer loop
     vertex  4.218784e-03 -3.474481e-02 -1.000000e+00
     vertex -6.026834e-03 -4.963544e-02 -1.000000e+00
     vertex -4.218784e-03 -3.474481e-02 -1.000000e+00
   endloop
 endfacet
 facet normal -0.000000e+00  0.000000e+00 -1.000000e+00
   outer loop
     vertex -3.398296e-02  8.376048e-03 -1.000000e+00
     vertex -5.000000e-02  5.053215e-17 -1.000000e+00
     vertex -4.854709e-02  1.196578e-02 -1.000000e+00
   endloop
 endfacet
 facet normal  0.000000e+00  0.000000e+00 -1.000000e+00
   outer loop
     vertex -3.398296e-02  8.376048e-03 -1.000000e+00
     vertex -3.500000e-02  3.537251e-17 -1.000000e+00
     vertex -5.000000e-02  5.053215e-17 -1.000000e+00
   endloop
 endfacet
 facet normal  0.000000e+00 -0.000000e+00 -1.000000e+00
   outer loop
     vertex  1.241117e-02 -3.272557e-02 -1.000000e+00
     vertex  1.773024e-02 -4.675081e-02 -1.000000e+00
     vertex  6.026834e-03 -4.963544e-02 -1.000000e+00
   endloop
 endfacet
 facet normal  0.000000e+00  0.000000e+00 -1.000000e+00
   outer loop
     vertex  1.241117e-02 -3.272557e-02 -1.000000e+00
     vertex  6.026834e-03 -4.963544e-02 -1.000000e+00
     vertex  4.218784e-03 -3.474481e-02 -1.000000e+00
   endloop
 endfacet
 facet normal -0.000000e+00  0.000000e+00 -1.000000e+00
   outer loop
     vertex -3.099096e-02  1.626531e-02 -1.000000e+00
     vertex -4.854709e-02  1.196578e-02 -1.000000e+00
     vertex -4.427280e-02  2.323616e-02 -1.000000e+00
   endloop
 endfacet
 facet normal  0.000000e+00  0.000000e+00 -1.000000e+00
   outer loop
     vertex -3.099096e-02  1.626531e-02 -1.000000e+00
     vertex -3.398296e-02  8.376048e-03 -1.000000e+00
     vertex -4.854709e-02  1.196578e-02 -1.000000e+00
   endloop
 endfacet
 facet normal  0.000000e+00 -0.000000e+00 -1.000000e+00
   outer loop
     vertex  1.988227e-02 -2.880444e-02 -1.000000e+00
     vertex  2.840324e-02 -4.114919e-02 -1.000000e+00
     vertex  1.773024e-02 -4.675081e-02 -1.000000e+00
   endloop
 endfacet
 facet normal  0.000000e+00  0.000000e+00 -1.000000e+00
   outer loop
     vertex  1.988227e-02 -2.880444e-02 -1.000000e+00
     vertex  1.773024e-02 -4.675081e-02 -1.000000e+00
     vertex  1.241117e-02 -3.272557e-02 -1.000000e+00
   endloop
 endfacet
 facet normal  0.000000e+00  0.000000e+00 -1.000000e+00
   outer loop
     vertex -2.619788e-02  2.320929e-02 -1.000000e+00
     vertex -4.427280e-02  2.323616e-02 -1.000000e+00
     vertex -3.742554e-02  3.315613e-02 -1.000000e+00
   endloop
 endfacet
 facet normal -0.000000e+00  0.000000e+00 -1.000000e+00
   outer loop
     vertex -2.619788e-02  2.320929e-02 -1.000000e+00
     vertex -3.099096e-02  1.626531e-02 -1.000000e+00
     vertex -4.427280e-02  2.323616e-02 -1.000000e+00
   endloop
 endfacet
 facet normal  0.000000e+00  0.000000e+00 -1.000000e+00
   outer loop
     vertex  3.742554e-02 -3.315613e-02 -1.000000e+00
     vertex  1.988227e-02 -2.880444e-02 -1.000000e+00
     vertex  2.619788e-02 -2.320929e-02 -1.000000e+00
   endloop
 endfacet
 facet normal -0.000000e+00  0.000000e+00 -1.000000e+00
   outer loop
     vertex  3.742554e-02 -3.315613e-02 -1.000000e+00
     vertex  2.840324e-02 -4.114919e-02 -1.000000e+00
     vertex  1.988227e-02 -2.880444e-02 -1.000000e+00
   endloop
 endfacet
 facet normal  0.000000e+00  0.000000e+00 -1.000000e+00
   outer loop
     vertex -2.840324e-02  4.114919e-02 -1.000000e+00
     vertex -1.988227e-02  2.880444e-02 -1.000000e+00
     vertex -2.619788e-02  2.320929e-02 -1.000000e+00
   endloop
 endfacet
 facet normal  0.000000e+00 -0.000000e+00 -1.000000e+00
   outer loop
     vertex -2.840324e-02  4.114919e-02 -1.000000e+00
     vertex -2.619788e-02  2.320929e-02 -1.000000e+00
     vertex -3.742554e-02  3.315613e-02 -1.000000e+00
   endloop
 endfacet
 facet normal -0.000000e+00  0.000000e+00 -1.000000e+00
   outer loop
     vertex  4.427280e-02 -2.323616e-02 -1.000000e+00
     vertex  3.742554e-02 -3.315613e-02 -1.000000e+00
     vertex  2.619788e-02 -2.320929e-02 -1.000000e+00
   endloop
 endfacet
 facet normal  0.000000e+00  0.000000e+00 -1.000000e+00
   outer loop
     vertex  4.427280e-02 -2.323616e-02 -1.000000e+00
     vertex  2.619788e-02 -2.320929e-02 -1.000000e+00
     vertex  3.099096e-02 -1.626531e-02 -1.000000e+00
   endloop
 endfacet
 facet normal  0.000000e+00  0.000000e+00 -1.000000e+00
   outer loop
     vertex -1.773024e-02  4.675081e-02 -1.000000e+00
     vertex -1.988227e-02  2.880444e-02 -1.000000e+00
     vertex -2.840324e-02  4.114919e-02 -1.000000e+00
   endloop
 endfacet
 facet normal  0.000000e+00 -0.000000e+00 -1.000000e+00
   outer loop
     vertex -1.773024e-02  4.675081e-02 -1.000000e+00
     vertex -1.241117e-02  3.272557e-02 -1.000000e+00
     vertex -1.988227e-02  2.880444e-02 -1.000000e+00
   endloop
 endfacet
 facet normal  0.000000e+00  0.000000e+00 -1.000000e+00
   outer loop
     vertex  4.854709e-02 -1.196578e-02 -1.000000e+00
     vertex  4.427280e-02 -2.323616e-02 -1.000000e+00
     vertex  3.099096e-02 -1.626531e-02 -1.000000e+00
   endloop
 endfacet
 facet normal -0.000000e+00  0.000000e+00 -1.000000e+00
   outer loop
     vertex  4.854709e-02 -1.196578e-02 -1.000000e+00
     vertex  3.099096e-02 -1.626531e-02 -1.000000e+00
     vertex  3.398296e-02 -8.376048e-03 -1.000000e+00
   endloop
 endfacet
 facet normal  0.000000e+00  0.000000e+00 -1.000000e+00
   outer loop
     vertex -6.026834e-03  4.963544e-02 -1.000000e+00
     vertex -1.241117e-02  3.272557e-02 -1.000000e+00
     vertex -1.773024e-02  4.675081e-02 -1.000000e+00
   endloop
 endfacet
 facet normal  0.000000e+00 -0.000000e+00 -1.000000e+00
   outer loop
     vertex -6.026834e-03  4.963544e-02 -1.000000e+00
     vertex -4.218784e-03  3.474481e-02 -1.000000e+00
     vertex -1.241117e-02  3.272557e-02 -1.000000e+00
   endloop
 endfacet
 facet normal  0.000000e+00  0.000000e+00 -1.000000e+00
   outer loop
     vertex  5.000000e-02  0.000000e+00 -1.000000e+00
     vertex  4.854709e-02 -1.196578e-02 -1.000000e+00
     vertex  3.398296e-02 -8.376048e-03 -1.000000e+00
   endloop
 endfacet
 facet normal -0.000000e+00  0.000000e+00 -1.000000e+00
   outer loop
     vertex  5.000000e-02  0.000000e+00 -1.000000e+00
     vertex  3.398296e-02 -8.376048e-03 -1.000000e+00
     vertex  3.500000e-02  0.000000e+00 -1.000000e+00
   endloop
 endfacet
 facet normal  0.000000e+00  0.000000e+00 -1.000000e+00
   outer loop
     vertex  6.026834e-03  4.963544e-02 -1.000000e+00
     vertex  4.218784e-03  3.474481e-02 -1.000000e+00
     vertex -4.218784e-03  3.474481e-02 -1.000000e+00
   endloop
 endfacet
 facet normal -0.000000e+00  0.000000e+00 -1.000000e+00
   outer loop
     vertex  6.026834e-03  4.963544e-02 -1.000000e+00
     vertex -4.218784e-03  3.474481e-02 -1.000000e+00
     vertex -6.026834e-03  4.963544e-02 -1.000000e+00
   endloop
 endfacet
 facet normal  0.000000e+00 -0.000000e+00 -1.000000e+00
   outer loop
     vertex  4.854709e-02  1.196578e-02 -1.000000e+00
     vertex  5.000000e-02  0.000000e+00 -1.000000e+00
     vertex  3.500000e-02  0.000000e+00 -1.000000e+00
   endloop
 endfacet
 facet normal  0.000000e+00  0.000000e+00 -1.000000e+00
   outer loop
     vertex  4.854709e-02  1.196578e-02 -1.000000e+00
     vertex  3.500000e-02  0.000000e+00 -1.000000e+00
     vertex  3.398296e-02  8.376048e-03 -1.000000e+00
   endloop
 endfacet
 facet normal  0.000000e+00  0.000000e+00 -1.000000e+00
   outer loop
     vertex  1.773024e-02  4.675081e-02 -1.000000e+00
     vertex  1.241117e-02  3.272557e-02 -1.000000e+00
     vertex  4.218784e-03  3.474481e-02 -1.000000e+00
   endloop
 endfacet
 facet normal -0.000000e+00  0.000000e+00 -1.000000e+00
   outer loop
     vertex  1.773024e-02  4.675081e-02 -1.000000e+00
     vertex  4.218784e-03  3.474481e-02 -1.000000e+00
     vertex  6.026834e-03  4.963544e-02 -1.000000e+00
   endloop
 endfacet
 facet normal  0.000000e+00  0.000000e+00 -1.000000e+00
   outer loop
     vertex  4.427280e-02  2.323616e-02 -1.000000e+00
     vertex  3.398296e-02  8.376048e-03 -1.000000e+00
     vertex  3.099096e-02  1.626531e-02 -1.000000e+00
   endloop
 endfacet
 facet normal  0.000000e+00 -0.000000e+00 -1.000000e+00
   outer loop
     vertex  4.427280e-02  2.323616e-02 -1.000000e+00
     vertex  4.854709e-02  1.196578e-02 -1.000000e+00
     vertex  3.398296e-02  8.376048e-03 -1.000000e+00
   endloop
 endfacet
 facet normal -0.000000e+00  0.000000e+00 -1.000000e+00
   outer loop
     vertex  2.840324e-02  4.114919e-02 -1.000000e+00
     vertex  1.241117e-02  3.272557e-02 -1.000000e+00
     vertex  1.773024e-02  4.675081e-02 -1.000000e+00
   endloop
 endfacet
 facet normal  0.000000e+00  0.000000e+00 -1.000000e+00
   outer loop
     vertex  2.840324e-02  4.114919e-02 -1.000000e+00
     vertex  1.988227e-02  2.880444e-02 -1.000000e+00
     vertex  1.241117e-02  3.272557e-02 -1.000000e+00
   endloop
 endfacet
 facet normal  0.000000e+00  0.000000e+00 -1.000000e+00
   outer loop
     vertex  3.742554e-02  3.315613e-02 -1.000000e+00
     vertex  3.099096e-02  1.626531e-02 -1.000000e+00
     vertex  2.619788e-02  2.320929e-02 -1.000000e+00
   endloop
 endfacet
 facet normal  0.000000e+00  0.000000e+00 -1.000000e+00
   outer loop
     vertex  3.742554e-02  3.315613e-02 -1.000000e+00
     vertex  2.619788e-02  2.320929e-02 -1.000000e+00
     vertex  1.988227e-02  2.880444e-02 -1.000000e+00
   endloop
 endfacet
 facet normal  0.000000e+00 -0.000000e+00 -1.000000e+00
   outer loop
     vertex  3.742554e-02  3.315613e-02 -1.000000e+00
     vertex  4.427280e-02  2.323616e-02 -1.000000e+00
     vertex  3.099096e-02  1.626531e-02 -1.000000e+00
   endloop
 endfacet
 facet normal -0.000000e+00  0.000000e+00 -1.000000e+00
   outer loop
     vertex  3.742554e-02  3.315613e-02 -1.000000e+00
     vertex  1.988227e-02  2.880444e-02 -1.000000e+00
     vertex  2.840324e-02  4.114919e-02 -1.000000e+00
   endloop
 endfacet
 facet normal -9.927089e-01 -1.205367e-01  0.000000e+00
   outer loop
     vertex  3.398296e-02  8.376048e-03  0.000000e+00
     vertex  3.500000e-02  0.000000e+00  0.000000e+00
     vertex  3.500000e-02  0.000000e+00  1.000000e+00
   endloop
 endfacet
 facet normal -9.927089e-01 -1.205367e-01  0.000000e+00
   outer loop
     vertex  3.398296e-02  8.376048e-03  0.000000e+00
     vertex  3.500000e-02  0.000000e+00  1.000000e+00
     vertex  3.398296e-02  8.376048e-03  1.000000e+00
   endloop
 endfacet
 facet normal -9.350162e-01 -3.546049e-01  0.000000e+00
   outer loop
     vertex  3.099096e-02  1.626531e-02  0.000000e+00
     vertex  3.398296e-02  8.376048e-03  1.000000e+00
     vertex  3.099096e-02  1.626531e-02  1.000000e+00
   endloop
 endfacet
 facet normal -9.350162e-01 -3.546049e-01  0.000000e+00
   outer loop
     vertex  3.099096e-02  1.626531e-02  0.000000e+00
     vertex  3.398296e-02  8.376048e-03  0.000000e+00
     vertex  3.398296e-02  8.376048e-03  1.000000e+00
   endloop
 endfacet
 facet normal -8.229839e-01 -5.680647e-01  0.000000e+00
   outer loop
     vertex  2.619788e-02  2.320929e-02  0.000000e+00
     vertex  3.099096e-02  1.626531e-02  1.000000e+00
     vertex  2.619788e-02  2.320929e-02  1.000000e+00
   endloop
 endfacet
 facet normal -8.229839e-01 -5.680647e-01  0.000000e+00
   outer loop
     vertex  2.619788e-02  2.320929e-02  0.000000e+00
     vertex  3.099096e-02  1.626531e-02  0.000000e+00
     vertex  3.099096e-02  1.626531e-02  1.000000e+00
   endloop
 endfacet
 facet normal -6.631227e-01 -7.485107e-01  0.000000e+00
   outer loop
     vertex  1.988227e-02  2.880444e-02  0.000000e+00
     vertex  2.619788e-02  2.320929e-02  1.000000e+00
     vertex  1.988227e-02  2.880444e-02  1.000000e+00
   endloop
 endfacet
 facet normal -6.631227e-01 -7.485107e-01  0.000000e+00
   outer loop
     vertex  1.988227e-02  2.880444e-02  0.000000e+00
     vertex  2.619788e-02  2.320929e-02  0.000000e+00
     vertex  2.619788e-02  2.320929e-02  1.000000e+00
   endloop
 endfacet
 facet normal -4.647232e-01 -8.854560e-01  0.000000e+00
   outer loop
     vertex  1.241117e-02  3.272557e-02  0.000000e+00
     vertex  1.988227e-02  2.880444e-02  1.000000e+00
     vertex  1.241117e-02  3.272557e-02  1.000000e+00
   endloop
 endfacet
 facet normal -4.647232e-01 -8.854560e-01  0.000000e+00
   outer loop
     vertex  1.241117e-02  3.272557e-02  0.000000e+00
     vertex  1.988227e-02  2.880444e-02  0.000000e+00
     vertex  1.988227e-02  2.880444e-02  1.000000e+00
   endloop
 endfacet
 facet normal -2.393157e-01 -9.709418e-01  0.000000e+00
   outer loop
     vertex  4.218784e-03  3.474481e-02  0.000000e+00
     vertex  1.241117e-02  3.272557e-02  1.000000e+00
     vertex  4.218784e-03  3.474481e-02  1.000000e+00
   endloop
 endfacet
 facet normal -2.393157e-01 -9.709418e-01  0.000000e+00
   outer loop
     vertex  4.218784e-03  3.474481e-02  0.000000e+00
     vertex  1.241117e-02  3.272557e-02  0.000000e+00
     vertex  1.241117e-02  3.272557e-02  1.000000e+00
   endloop
 endfacet
 facet normal  0.000000e+00 -1.000000e+00  0.000000e+00
   outer loop
     vertex -4.218784e-03  3.474481e-02  0.000000e+00
     vertex  4.218784e-03  3.474481e-02  1.000000e+00
     vertex -4.218784e-03  3.474481e-02  1.000000e+00
   endloop
 endfacet
 facet normal  0.000000e+00 -1.000000e+00  0.000000e+00
   outer loop
     vertex -4.218784e-03  3.474481e-02  0.000000e+00
     vertex  4.218784e-03  3.474481e-02  0.000000e+00
     vertex  4.218784e-03  3.474481e-02  1.000000e+00
   endloop
 endfacet
 facet normal  2.393157e-01 -9.709418e-01  0.000000e+00
   outer loop
     vertex -1.241117e-02  3.272557e-02  0.000000e+00
     vertex -4.218784e-03  3.474481e-02  1.000000e+00
     vertex -1.241117e-02  3.272557e-02  1.000000e+00
   endloop
 endfacet
 facet normal  2.393157e-01 -9.709418e-01  0.000000e+00
   outer loop
     vertex -1.241117e-02  3.272557e-02  0.000000e+00
     vertex -4.218784e-03  3.474481e-02  0.000000e+00
     vertex -4.218784e-03  3.474481e-02  1.000000e+00
   endloop
 endfacet
 facet normal  4.647232e-01 -8.854560e-01  0.000000e+00
   outer loop
     vertex -1.988227e-02  2.880444e-02  0.000000e+00
     vertex -1.241117e-02  3.272557e-02  1.000000e+00
     vertex -1.988227e-02  2.880444e-02  1.000000e+00
   endloop
 endfacet
 facet normal  6.631227e-01 -7.485107e-01  0.000000e+00
   outer loop
     vertex -1.988227e-02  2.880444e-02  0.000000e+00
     vertex -1.988227e-02  2.880444e-02  1.000000e+00
     vertex -2.619788e-02  2.320929e-02  1.000000e+00
   endloop
 endfacet
 facet normal  4.647232e-01 -8.854560e-01  0.000000e+00
   outer loop
     vertex -1.988227e-02  2.880444e-02  0.000000e+00
     vertex -1.241117e-02  3.272557e-02  0.000000e+00
     vertex -1.241117e-02  3.272557e-02  1.000000e+00
   endloop
 endfacet
 facet normal  6.631227e-01 -7.485107e-01  0.000000e+00
   outer loop
     vertex -2.619788e-02  2.320929e-02  0.000000e+00
     vertex -1.988227e-02  2.880444e-02  0.000000e+00
     vertex -2.619788e-02  2.320929e-02  1.000000e+00
   endloop
 endfacet
 facet normal  8.229839e-01 -5.680647e-01  0.000000e+00
   outer loop
     vertex -3.099096e-02  1.626531e-02  0.000000e+00
     vertex -2.619788e-02  2.320929e-02  0.000000e+00
     vertex -2.619788e-02  2.320929e-02  1.000000e+00
   endloop
 endfacet
 facet normal  8.229839e-01 -5.680647e-01  0.000000e+00
   outer loop
     vertex -3.099096e-02  1.626531e-02  0.000000e+00
     vertex -2.619788e-02  2.320929e-02  1.000000e+00
     vertex -3.099096e-02  1.626531e-02  1.000000e+00
   endloop
 endfacet
 facet normal  9.350162e-01 -3.546049e-01  0.000000e+00
   outer loop
     vertex -3.398296e-02  8.376048e-03  0.000000e+00
     vertex -3.099096e-02  1.626531e-02  0.000000e+00
     vertex -3.099096e-02  1.626531e-02  1.000000e+00
   endloop
 endfacet
 facet normal  9.350162e-01 -3.546049e-01  0.000000e+00
   outer loop
     vertex -3.398296e-02  8.376048e-03  0.000000e+00
     vertex -3.099096e-02  1.626531e-02  1.000000e+00
     vertex -3.398296e-02  8.376048e-03  1.000000e+00
   endloop
 endfacet
 facet normal  9.927089e-01 -1.205367e-01  0.000000e+00
   outer loop
     vertex -3.500000e-02  3.537251e-17  0.000000e+00
     vertex -3.398296e-02  8.376048e-03  0.000000e+00
     vertex -3.398296e-02  8.376048e-03  1.000000e+00
   endloop
 endfacet
 facet normal  9.927089e-01 -1.205367e-01  0.000000e+00
   outer loop
     vertex -3.500000e-02  3.537251e-17  0.000000e+00
     vertex -3.398296e-02  8.376048e-03  1.000000e+00
     vertex -3.500000e-02  3.537251e-17  1.000000e+00
   endloop
 endfacet
 facet normal  9.927089e-01  1.205367e-01 -0.000000e+00
   outer loop
     vertex -3.398296e-02 -8.376048e-03  0.000000e+00
     vertex -3.500000e-02  3.537251e-17  1.000000e+00
     vertex -3.398296e-02 -8.376048e-03  1.000000e+00
   endloop
 endfacet
 facet normal  9.927089e-01  1.205367e-01  0.000000e+00
   outer loop
     vertex -3.398296e-02 -8.376048e-03  0.000000e+00
     vertex -3.500000e-02  3.537251e-17  0.000000e+00
     vertex -3.500000e-02  3.537251e-17  1.000000e+00
   endloop
 endfacet
 facet normal  9.350162e-01  3.546049e-01  0.000000e+00
   outer loop
     vertex -3.099096e-02 -1.626531e-02  0.000000e+00
     vertex -3.398296e-02 -8.376048e-03  0.000000e+00
     vertex -3.398296e-02 -8.376048e-03  1.000000e+00
   endloop
 endfacet
 facet normal  9.350162e-01  3.546049e-01 -0.000000e+00
   outer loop
     vertex -3.099096e-02 -1.626531e-02  0.000000e+00
     vertex -3.398296e-02 -8.376048e-03  1.000000e+00
     vertex -3.099096e-02 -1.626531e-02  1.000000e+00
   endloop
 endfacet
 facet normal  8.229839e-01  5.680647e-01 -0.000000e+00
   outer loop
     vertex -2.619788e-02 -2.320929e-02  0.000000e+00
     vertex -3.099096e-02 -1.626531e-02  1.000000e+00
     vertex -2.619788e-02 -2.320929e-02  1.000000e+00
   endloop
 endfacet
 facet normal  8.229839e-01  5.680647e-01  0.000000e+00
   outer loop
     vertex -2.619788e-02 -2.320929e-02  0.000000e+00
     vertex -3.099096e-02 -1.626531e-02  0.000000e+00
     vertex -3.099096e-02 -1.626531e-02  1.000000e+00
   endloop
 endfacet
 facet normal  6.631227e-01  7.485107e-01 -0.000000e+00
   outer loop
     vertex -1.988227e-02 -2.880444e-02  0.000000e+00
     vertex -2.619788e-02 -2.320929e-02  1.000000e+00
     vertex -1.988227e-02 -2.880444e-02  1.000000e+00
   endloop
 endfacet
 facet normal  6.631227e-01  7.485107e-01  0.000000e+00
   outer loop
     vertex -1.988227e-02 -2.880444e-02  0.000000e+00
     vertex -2.619788e-02 -2.320929e-02  0.000000e+00
     vertex -2.619788e-02 -2.320929e-02  1.000000e+00
   endloop
 endfacet
 facet normal  4.647232e-01  8.854560e-01 -0.000000e+00
   outer loop
     vertex -1.241117e-02 -3.272557e-02  0.000000e+00
     vertex -1.988227e-02 -2.880444e-02  1.000000e+00
     vertex -1.241117e-02 -3.272557e-02  1.000000e+00
   endloop
 endfacet
 facet normal  4.647232e-01  8.854560e-01  0.000000e+00
   outer loop
     vertex -1.241117e-02 -3.272557e-02  0.000000e+00
     vertex -1.988227e-02 -2.880444e-02  0.000000e+00
     vertex -1.988227e-02 -2.880444e-02  1.000000e+00
   endloop
 endfacet
 facet normal  2.393157e-01  9.709418e-01 -0.000000e+00
   outer loop
     vertex -4.218784e-03 -3.474481e-02  0.000000e+00
     vertex -1.241117e-02 -3.272557e-02  1.000000e+00
     vertex -4.218784e-03 -3.474481e-02  1.000000e+00
   endloop
 endfacet
 facet normal  2.393157e-01  9.709418e-01  0.000000e+00
   outer loop
     vertex -4.218784e-03 -3.474481e-02  0.000000e+00
     vertex -1.241117e-02 -3.272557e-02  0.000000e+00
     vertex -1.241117e-02 -3.272557e-02  1.000000e+00
   endloop
 endfacet
 facet normal  1.644762e-15  1.000000e+00 -0.000000e+00
   outer loop
     vertex  4.218784e-03 -3.474481e-02  0.000000e+00
     vertex -4.218784e-03 -3.474481e-02  1.000000e+00
     vertex  4.218784e-03 -3.474481e-02  1.000000e+00
   endloop
 endfacet
 facet normal  1.644762e-15  1.000000e+00  0.000000e+00
   outer loop
     vertex  4.218784e-03 -3.474481e-02  0.000000e+00
     vertex -4.218784e-03 -3.474481e-02  0.000000e+00
     vertex -4.218784e-03 -3.474481e-02  1.000000e+00
   endloop
 endfacet
 facet normal -2.393157e-01  9.709418e-01  0.000000e+00
   outer loop
     vertex  1.241117e-02 -3.272557e-02  0.000000e+00
     vertex  4.218784e-03 -3.474481e-02  1.000000e+00
     vertex  1.241117e-02 -3.272557e-02  1.000000e+00
   endloop
 endfacet
 facet normal -2.393157e-01  9.709418e-01  0.000000e+00
   outer loop
     vertex  1.241117e-02 -3.272557e-02  0.000000e+00
     vertex  4.218784e-03 -3.474481e-02  0.000000e+00
     vertex  4.218784e-03 -3.474481e-02  1.000000e+00
   endloop
 endfacet
 facet normal -4.647232e-01  8.854560e-01  0.000000e+00
   outer loop
     vertex  1.988227e-02 -2.880444e-02  0.000000e+00
     vertex  1.241117e-02 -3.272557e-02  1.000000e+00
     vertex  1.988227e-02 -2.880444e-02  1.000000e+00
   endloop
 endfacet
 facet normal -6.631227e-01  7.485107e-01  0.000000e+00
   outer loop
     vertex  1.988227e-02 -2.880444e-02  0.000000e+00
     vertex  1.988227e-02 -2.880444e-02  1.000000e+00
     vertex  2.619788e-02 -2.320929e-02  1.000000e+00
   endloop
 endfacet
 facet normal -4.647232e-01  8.854560e-01  0.000000e+00
   outer loop
     vertex  1.988227e-02 -2.880444e-02  0.000000e+00
     vertex  1.241117e-02 -3.272557e-02  0.000000e+00
     vertex  1.241117e-02 -3.272557e-02  1.000000e+00
   endloop
 endfacet
 facet normal -6.631227e-01  7.485107e-01  0.000000e+00
   outer loop
     vertex  2.619788e-02 -2.320929e-02  0.000000e+00
     vertex  1.988227e-02 -2.880444e-02  0.000000e+00
     vertex  2.619788e-02 -2.320929e-02  1.000000e+00
   endloop
 endfacet
 facet normal -8.229839e-01  5.680647e-01  0.000000e+00
   outer loop
     vertex  3.099096e-02 -1.626531e-02  0.000000e+00
     vertex  2.619788e-02 -2.320929e-02  1.000000e+00
     vertex  3.099096e-02 -1.626531e-02  1.000000e+00
   endloop
 endfacet
 facet normal -8.229839e-01  5.680647e-01  0.000000e+00
   outer loop
     vertex  3.099096e-02 -1.626531e-02  0.000000e+00
     vertex  2.619788e-02 -2.320929e-02  0.000000e+00
     vertex  2.619788e-02 -2.320929e-02  1.000000e+00
   endloop
 endfacet
 facet normal -9.350162e-01  3.546049e-01  0.000000e+00
   outer loop
     vertex  3.398296e-02 -8.376048e-03  0.000000e+00
     vertex  3.099096e-02 -1.626531e-02  1.000000e+00
     vertex  3.398296e-02 -8.376048e-03  1.000000e+00
   endloop
 endfacet
 facet normal -9.350162e-01  3.546049e-01  0.000000e+00
   outer loop
     vertex  3.398296e-02 -8.376048e-03  0.000000e+00
     vertex  3.099096e-02 -1.626531e-02  0.000000e+00
     vertex  3.099096e-02 -1.626531e-02  1.000000e+00
   endloop
 endfacet
 facet normal -9.927089e-01  1.205367e-01  0.000000e+00
   outer loop
     vertex  3.500000e-02  0.000000e+00  0.000000e+00
     vertex  3.398296e-02 -8.376048e-03  1.000000e+00
     vertex  3.500000e-02  0.000000e+00  1.000000e+00
   endloop
 endfacet
 facet normal -9.927089e-01  1.205367e-01  0.000000e+00
   outer loop
     vertex  3.500000e-02  0.000000e+00  0.000000e+00
     vertex  3.398296e-02 -8.376048e-03  0.000000e+00
     vertex  3.398296e-02 -8.376048e-03  1.000000e+00
   endloop
 endfacet
 facet normal -9.927089e-01 -1.205367e-01  0.000000e+00
   outer loop
     vertex  3.398296e-02  8.376048e-03  0.000000e+00
     vertex  3.500000e-02  0.000000e+00 -1.000000e+00
     vertex  3.500000e-02  0.000000e+00  0.000000e+00
   endloop
 endfacet
 facet normal -9.927089e-01 -1.205367e-01 -0.000000e+00
   outer loop
     vertex  3.398296e-02  8.376048e-03  0.000000e+00
     vertex  3.398296e-02  8.376048e-03 -1.000000e+00
     vertex  3.500000e-02  0.000000e+00 -1.000000e+00
   endloop
 endfacet
 facet normal -9.350162e-01 -3.546049e-01 -0.000000e+00
   outer loop
     vertex  3.099096e-02  1.626531e-02  0.000000e+00
     vertex  3.099096e-02  1.626531e-02 -1.000000e+00
     vertex  3.398296e-02  8.376048e-03 -1.000000e+00
   endloop
 endfacet
 facet normal -9.350162e-01 -3.546049e-01  0.000000e+00
   outer loop
     vertex  3.099096e-02  1.626531e-02  0.000000e+00
     vertex  3.398296e-02  8.376048e-03 -1.000000e+00
     vertex  3.398296e-02  8.376048e-03  0.000000e+00
   endloop
 endfacet
 facet normal -8.229839e-01 -5.680647e-01 -0.000000e+00
   outer loop
     vertex  2.619788e-02  2.320929e-02  0.000000e+00
     vertex  2.619788e-02  2.320929e-02 -1.000000e+00
     vertex  3.099096e-02  1.626531e-02 -1.000000e+00
   endloop
 endfacet
 facet normal -8.229839e-01 -5.680647e-01  0.000000e+00
   outer loop
     vertex  2.619788e-02  2.320929e-02  0.000000e+00
     vertex  3.099096e-02  1.626531e-02 -1.000000e+00
     vertex  3.099096e-02  1.626531e-02  0.000000e+00
   endloop
 endfacet
 facet normal -6.631227e-01 -7.485107e-01 -0.000000e+00
   outer loop
     vertex  1.988227e-02  2.880444e-02  0.000000e+00
     vertex  1.988227e-02  2.880444e-02 -1.000000e+00
     vertex  2.619788e-02  2.320929e-02 -1.000000e+00
   endloop
 endfacet
 facet normal -6.631227e-01 -7.485107e-01  0.000000e+00
   outer loop
     vertex  1.988227e-02  2.880444e-02  0.000000e+00
     vertex  2.619788e-02  2.320929e-02 -1.000000e+00
     vertex  2.619788e-02  2.320929e-02  0.000000e+00
   endloop
 endfacet
 facet normal -4.647232e-01 -8.854560e-01 -0.000000e+00
   outer loop
     vertex  1.241117e-02  3.272557e-02  0.000000e+00
     vertex  1.241117e-02  3.272557e-02 -1.000000e+00
     vertex  1.988227e-02  2.880444e-02 -1.000000e+00
   endloop
 endfacet
 facet normal -4.647232e-01 -8.854560e-01  0.000000e+00
   outer loop
     vertex  1.241117e-02  3.272557e-02  0.000000e+00
     vertex  1.988227e-02  2.880444e-02 -1.000000e+00
     vertex  1.988227e-02  2.880444e-02  0.000000e+00
   endloop
 endfacet
 facet normal -2.393157e-01 -9.709418e-01 -0.000000e+00
   outer loop
     vertex  4.218784e-03  3.474481e-02  0.000000e+00
     vertex  4.218784e-03  3.474481e-02 -1.000000e+00
     vertex  1.241117e-02  3.272557e-02 -1.000000e+00
   endloop
 endfacet
 facet normal -2.393157e-01 -9.709418e-01  0.000000e+00
   outer loop
     vertex  4.218784e-03  3.474481e-02  0.000000e+00
     vertex  1.241117e-02  3.272557e-02 -1.000000e+00
     vertex  1.241117e-02  3.272557e-02  0.000000e+00
   endloop
 endfacet
 facet normal  0.000000e+00 -1.000000e+00  0.000000e+00
   outer loop
     vertex -4.218784e-03  3.474481e-02  0.000000e+00
     vertex -4.218784e-03  3.474481e-02 -1.000000e+00
     vertex  4.218784e-03  3.474481e-02 -1.000000e+00
   endloop
 endfacet
 facet normal  0.000000e+00 -1.000000e+00  0.000000e+00
   outer loop
     vertex -4.218784e-03  3.474481e-02  0.000000e+00
     vertex  4.218784e-03  3.474481e-02 -1.000000e+00
     vertex  4.218784e-03  3.474481e-02  0.000000e+00
   endloop
 endfacet
 facet normal  2.393157e-01 -9.709418e-01  0.000000e+00
   outer loop
     vertex -1.241117e-02  3.272557e-02  0.000000e+00
     vertex -1.241117e-02  3.272557e-02 -1.000000e+00
     vertex -4.218784e-03  3.474481e-02 -1.000000e+00
   endloop
 endfacet
 facet normal  2.393157e-01 -9.709418e-01  0.000000e+00
   outer loop
     vertex -1.241117e-02  3.272557e-02  0.000000e+00
     vertex -4.218784e-03  3.474481e-02 -1.000000e+00
     vertex -4.218784e-03  3.474481e-02  0.000000e+00
   endloop
 endfacet
 facet normal  4.647232e-01 -8.854560e-01  0.000000e+00
   outer loop
     vertex -1.988227e-02  2.880444e-02  0.000000e+00
     vertex -1.988227e-02  2.880444e-02 -1.000000e+00
     vertex -1.241117e-02  3.272557e-02 -1.000000e+00
   endloop
 endfacet
 facet normal  6.631227e-01 -7.485107e-01  0.000000e+00
   outer loop
     vertex -1.988227e-02  2.880444e-02  0.000000e+00
     vertex -2.619788e-02  2.320929e-02 -1.000000e+00
     vertex -1.988227e-02  2.880444e-02 -1.000000e+00
   endloop
 endfacet
 facet normal  4.647232e-01 -8.854560e-01  0.000000e+00
   outer loop
     vertex -1.988227e-02  2.880444e-02  0.000000e+00
     vertex -1.241117e-02  3.272557e-02 -1.000000e+00
     vertex -1.241117e-02  3.272557e-02  0.000000e+00
   endloop
 endfacet
 facet normal  6.631227e-01 -7.485107e-01  0.000000e+00
   outer loop
     vertex -2.619788e-02  2.320929e-02  0.000000e+00
     vertex -2.619788e-02  2.320929e-02 -1.000000e+00
     vertex -1.988227e-02  2.880444e-02  0.000000e+00
   endloop
 endfacet
 facet normal  8.229839e-01 -5.680647e-01  0.000000e+00
   outer loop
     vertex -3.099096e-02  1.626531e-02  0.000000e+00
     vertex -2.619788e-02  2.320929e-02 -1.000000e+00
     vertex -2.619788e-02  2.320929e-02  0.000000e+00
   endloop
 endfacet
 facet normal  8.229839e-01 -5.680647e-01  0.000000e+00
   outer loop
     vertex -3.099096e-02  1.626531e-02  0.000000e+00
     vertex -3.099096e-02  1.626531e-02 -1.000000e+00
     vertex -2.619788e-02  2.320929e-02 -1.000000e+00
   endloop
 endfacet
 facet normal  9.350162e-01 -3.546049e-01  0.000000e+00
   outer loop
     vertex -3.398296e-02  8.376048e-03  0.000000e+00
     vertex -3.099096e-02  1.626531e-02 -1.000000e+00
     vertex -3.099096e-02  1.626531e-02  0.000000e+00
   endloop
 endfacet
 facet normal  9.350162e-01 -3.546049e-01  0.000000e+00
   outer loop
     vertex -3.398296e-02  8.376048e-03  0.000000e+00
     vertex -3.398296e-02  8.376048e-03 -1.000000e+00
     vertex -3.099096e-02  1.626531e-02 -1.000000e+00
   endloop
 endfacet
 facet normal  9.927089e-01 -1.205367e-01  0.000000e+00
   outer loop
     vertex -3.500000e-02  3.537251e-17  0.000000e+00
     vertex -3.398296e-02  8.376048e-03 -1.000000e+00
     vertex -3.398296e-02  8.376048e-03  0.000000e+00
   endloop
 endfacet
 facet normal  9.927089e-01 -1.205367e-01  0.000000e+00
   outer loop
     vertex -3.500000e-02  3.537251e-17  0.000000e+00
     vertex -3.500000e-02  3.537251e-17 -1.000000e+00
     vertex -3.398296e-02  8.376048e-03 -1.000000e+00
   endloop
 endfacet
 facet normal  9.927089e-01  1.205367e-01  0.000000e+00
   outer loop
     vertex -3.398296e-02 -8.376048e-03  0.000000e+00
     vertex -3.398296e-02 -8.376048e-03 -1.000000e+00
     vertex -3.500000e-02  3.537251e-17 -1.000000e+00
   endloop
 endfacet
 facet normal  9.927089e-01  1.205367e-01  0.000000e+00
   outer loop
     vertex -3.398296e-02 -8.376048e-03  0.000000e+00
     vertex -3.500000e-02  3.537251e-17 -1.000000e+00
     vertex -3.500000e-02  3.537251e-17  0.000000e+00
   endloop
 endfacet
 facet normal  9.350162e-01  3.546049e-01  0.000000e+00
   outer loop
     vertex -3.099096e-02 -1.626531e-02  0.000000e+00
     vertex -3.398296e-02 -8.376048e-03 -1.000000e+00
     vertex -3.398296e-02 -8.376048e-03  0.000000e+00
   endloop
 endfacet
 facet normal  9.350162e-01  3.546049e-01  0.000000e+00
   outer loop
     vertex -3.099096e-02 -1.626531e-02  0.000000e+00
     vertex -3.099096e-02 -1.626531e-02 -1.000000e+00
     vertex -3.398296e-02 -8.376048e-03 -1.000000e+00
   endloop
 endfacet
 facet normal  8.229839e-01  5.680647e-01  0.000000e+00
   outer loop
     vertex -2.619788e-02 -2.320929e-02  0.000000e+00
     vertex -2.619788e-02 -2.320929e-02 -1.000000e+00
     vertex -3.099096e-02 -1.626531e-02 -1.000000e+00
   endloop
 endfacet
 facet normal  8.229839e-01  5.680647e-01  0.000000e+00
   outer loop
     vertex -2.619788e-02 -2.320929e-02  0.000000e+00
     vertex -3.099096e-02 -1.626531e-02 -1.000000e+00
     vertex -3.099096e-02 -1.626531e-02  0.000000e+00
   endloop
 endfacet
 facet normal  6.631227e-01  7.485107e-01  0.000000e+00
   outer loop
     vertex -1.988227e-02 -2.880444e-02  0.000000e+00
     vertex -1.988227e-02 -2.880444e-02 -1.000000e+00
     vertex -2.619788e-02 -2.320929e-02 -1.000000e+00
   endloop
 endfacet
 facet normal  6.631227e-01  7.485107e-01  0.000000e+00
   outer loop
     vertex -1.988227e-02 -2.880444e-02  0.000000e+00
     vertex -2.619788e-02 -2.320929e-02 -1.000000e+00
     vertex -2.619788e-02 -2.320929e-02  0.000000e+00
   endloop
 endfacet
 facet normal  4.647232e-01  8.854560e-01  0.000000e+00
   outer loop
     vertex -1.241117e-02 -3.272557e-02  0.000000e+00
     vertex -1.241117e-02 -3.272557e-02 -1.000000e+00
     vertex -1.988227e-02 -2.880444e-02 -1.000000e+00
   endloop
 endfacet
 facet normal  4.647232e-01  8.854560e-01  0.000000e+00
   outer loop
     vertex -1.241117e-02 -3.272557e-02  0.000000e+00
     vertex -1.988227e-02 -2.880444e-02 -1.000000e+00
     vertex -1.988227e-02 -2.880444e-02  0.000000e+00
   endloop
 endfacet
 facet normal  2.393157e-01  9.709418e-01  0.000000e+00
   outer loop
     vertex -4.218784e-03 -3.474481e-02  0.000000e+00
     vertex -4.218784e-03 -3.474481e-02 -1.000000e+00
     vertex -1.241117e-02 -3.272557e-02 -1.000000e+00
   endloop
 endfacet
 facet normal  2.393157e-01  9.709418e-01  0.000000e+00
   outer loop
     vertex -4.218784e-03 -3.474481e-02  0.000000e+00
     vertex -1.241117e-02 -3.272557e-02 -1.000000e+00
     vertex -1.241117e-02 -3.272557e-02  0.000000e+00
   endloop
 endfacet
 facet normal  1.644762e-15  1.000000e+00  0.000000e+00
   outer loop
     vertex  4.218784e-03 -3.474481e-02  0.000000e+00
     vertex  4.218784e-03 -3.474481e-02 -1.000000e+00
     vertex -4.218784e-03 -3.474481e-02 -1.000000e+00
   endloop
 endfacet
 facet normal  1.644762e-15  1.000000e+00  0.000000e+00
   outer loop
     vertex  4.218784e-03 -3.474481e-02  0.000000e+00
     vertex -4.218784e-03 -3.474481e-02 -1.000000e+00
     vertex -4.218784e-03 -3.474481e-02  0.000000e+00
   endloop
 endfacet
 facet normal -2.393157e-01  9.709418e-01  0.000000e+00
   outer loop
     vertex  1.241117e-02 -3.272557e-02  0.000000e+00
     vertex  1.241117e-02 -3.272557e-02 -1.000000e+00
     vertex  4.218784e-03 -3.474481e-02 -1.000000e+00
   endloop
 endfacet
 facet normal -2.393157e-01  9.709418e-01  0.000000e+00
   outer loop
     vertex  1.241117e-02 -3.272557e-02  0.000000e+00
     vertex  4.218784e-03 -3.474481e-02 -1.000000e+00
     vertex  4.218784e-03 -3.474481e-02  0.000000e+00
   endloop
 endfacet
 facet normal -4.647232e-01  8.854560e-01  0.000000e+00
   outer loop
     vertex  1.988227e-02 -2.880444e-02  0.000000e+00
     vertex  1.988227e-02 -2.880444e-02 -1.000000e+00
     vertex  1.241117e-02 -3.272557e-02 -1.000000e+00
   endloop
 endfacet
 facet normal -6.631227e-01  7.485107e-01  0.000000e+00
   outer loop
     vertex  1.988227e-02 -2.880444e-02  0.000000e+00
     vertex  2.619788e-02 -2.320929e-02 -1.000000e+00
     vertex  1.988227e-02 -2.880444e-02 -1.000000e+00
   endloop
 endfacet
 facet normal -4.647232e-01  8.854560e-01  0.000000e+00
   outer loop
     vertex  1.988227e-02 -2.880444e-02  0.000000e+00
     vertex  1.241117e-02 -3.272557e-02 -1.000000e+00
     vertex  1.241117e-02 -3.272557e-02  0.000000e+00
   endloop
 endfacet
 facet normal -6.631227e-01  7.485107e-01  0.000000e+00
   outer loop
     vertex  2.619788e-02 -2.320929e-02  0.000000e+00
     vertex  2.619788e-02 -2.320929e-02 -1.000000e+00
     vertex  1.988227e-02 -2.880444e-02  0.000000e+00
   endloop
 endfacet
 facet normal -8.229839e-01  5.680647e-01  0.000000e+00
   outer loop
     vertex  3.099096e-02 -1.626531e-02  0.000000e+00
     vertex  3.099096e-02 -1.626531e-02 -1.000000e+00
     vertex  2.619788e-02 -2.320929e-02 -1.000000e+00
   endloop
 endfacet
 facet normal -8.229839e-01  5.680647e-01  0.000000e+00
   outer loop
     vertex  3.099096e-02 -1.626531e-02  0.000000e+00
     vertex  2.619788e-02 -2.320929e-02 -1.000000e+00
     vertex  2.619788e-02 -2.320929e-02  0.000000e+00
   endloop
 endfacet
 facet normal -9.350162e-01  3.546049e-01  0.000000e+00
   outer loop
     vertex  3.398296e-02 -8.376048e-03  0.000000e+00
     vertex  3.398296e-02 -8.376048e-03 -1.000000e+00
     vertex  3.099096e-02 -1.626531e-02 -1.000000e+00
   endloop
 endfacet
 facet normal -9.350162e-01  3.546049e-01  0.000000e+00
   outer loop
     vertex  3.398296e-02 -8.376048e-03  0.000000e+00
     vertex  3.099096e-02 -1.626531e-02 -1.000000e+00
     vertex  3.099096e-02 -1.626531e-02  0.000000e+00
   endloop
 endfacet
 facet normal -9.927089e-01  1.205367e-01  0.000000e+00
   outer loop
     vertex  3.500000e-02  0.000000e+00  0.000000e+00
     vertex  3.500000e-02  0.000000e+00 -1.000000e+00
     vertex  3.398296e-02 -8.376048e-03 -1.000000e+00
   endloop
 endfacet
 facet normal -9.927089e-01  1.205367e-01  0.000000e+00
   outer loop
     vertex  3.500000e-02  0.000000e+00  0.000000e+00
     vertex  3.398296e-02 -8.376048e-03 -1.000000e+00
     vertex  3.398296e-02 -8.376048e-03  0.000000e+00
   endloop
 endfacet
endsolid
