solid 
 facet normal  0.000000e+00 -1.000000e+00  0.000000e+00
   outer loop
     vertex  0.000000e+00  0.000000e+00  0.000000e+00
     vertex  1.650000e-01  0.000000e+00  0.000000e+00
     vertex  1.650000e-01  0.000000e+00  1.000000e+00
   endloop
 endfacet
 facet normal  0.000000e+00 -1.000000e+00  0.000000e+00
   outer loop
     vertex  0.000000e+00  0.000000e+00  0.000000e+00
     vertex  1.650000e-01  0.000000e+00  1.000000e+00
     vertex  0.000000e+00  0.000000e+00  1.000000e+00
   endloop
 endfacet
 facet normal -1.000000e+00  0.000000e+00  0.000000e+00
   outer loop
     vertex  0.000000e+00  4.900000e-01  0.000000e+00
     vertex  0.000000e+00  0.000000e+00  0.000000e+00
     vertex  0.000000e+00  0.000000e+00  1.000000e+00
   endloop
 endfacet
 facet normal -1.000000e+00  0.000000e+00  0.000000e+00
   outer loop
     vertex  0.000000e+00  4.900000e-01  0.000000e+00
     vertex  0.000000e+00  0.000000e+00  1.000000e+00
     vertex  0.000000e+00  4.900000e-01  1.000000e+00
   endloop
 endfacet
 facet normal  8.932086e-01  4.496424e-01  0.000000e+00
   outer loop
     vertex  3.700000e-01 -2.450000e-01  0.000000e+00
     vertex  0.000000e+00  4.900000e-01  0.000000e+00
     vertex  0.000000e+00  4.900000e-01  1.000000e+00
   endloop
 endfacet
 facet normal  8.932086e-01  4.496424e-01 -0.000000e+00
   outer loop
     vertex  3.700000e-01 -2.450000e-01  0.000000e+00
     vertex  0.000000e+00  4.900000e-01  1.000000e+00
     vertex  3.700000e-01 -2.450000e-01  1.000000e+00
   endloop
 endfacet
 facet normal -7.669368e-01 -6.417226e-01  0.000000e+00
   outer loop
     vertex  3.700000e-01 -2.450000e-01  0.000000e+00
     vertex  1.650000e-01  0.000000e+00  1.000000e+00
     vertex  1.650000e-01  0.000000e+00  0.000000e+00
   endloop
 endfacet
 facet normal -7.669368e-01 -6.417226e-01  0.000000e+00
   outer loop
     vertex  3.700000e-01 -2.450000e-01  0.000000e+00
     vertex  3.700000e-01 -2.450000e-01  1.000000e+00
     vertex  1.650000e-01  0.000000e+00  1.000000e+00
   endloop
 endfacet
 facet normal  0.000000e+00  0.000000e+00 -1.000000e+00
   outer loop
     vertex  0.000000e+00  4.900000e-01  0.000000e+00
     vertex  3.700000e-01 -2.450000e-01  0.000000e+00
     vertex  1.650000e-01  0.000000e+00  0.000000e+00
   endloop
 endfacet
 facet normal  0.000000e+00  0.000000e+00 -1.000000e+00
   outer loop
     vertex  0.000000e+00  4.900000e-01  0.000000e+00
     vertex  1.650000e-01  0.000000e+00  0.000000e+00
     vertex  0.000000e+00  0.000000e+00  0.000000e+00
   endloop
 endfacet
 facet normal  0.000000e+00  0.000000e+00  1.000000e+00
   outer loop
     vertex  0.000000e+00  4.900000e-01  1.000000e+00
     vertex  1.650000e-01  0.000000e+00  1.000000e+00
     vertex  3.700000e-01 -2.450000e-01  1.000000e+00
   endloop
 endfacet
 facet normal  0.000000e+00  0.000000e+00  1.000000e+00
   outer loop
     vertex  0.000000e+00  4.900000e-01  1.000000e+00
     vertex  0.000000e+00  0.000000e+00  1.000000e+00
     vertex  1.650000e-01  0.000000e+00  1.000000e+00
   endloop
 endfacet
endsolid
