solid 
 facet normal -1.000000e+00  0.000000e+00 -0.000000e+00
   outer loop
     vertex  0.000000e+00  0.000000e+00  6.550000e-01
     vertex  0.000000e+00  0.000000e+00  0.000000e+00
     vertex  0.000000e+00 -3.250000e-01  0.000000e+00
   endloop
 endfacet
 facet normal -1.000000e+00 -0.000000e+00  0.000000e+00
   outer loop
     vertex  0.000000e+00  0.000000e+00  6.550000e-01
     vertex  0.000000e+00 -3.250000e-01  0.000000e+00
     vertex  0.000000e+00 -3.250000e-01  6.550000e-01
   endloop
 endfacet
 facet normal  9.291291e-01  0.000000e+00 -3.697555e-01
   outer loop
     vertex  1.950000e-01  0.000000e+00  4.900000e-01
     vertex  0.000000e+00 -3.250000e-01  0.000000e+00
     vertex  0.000000e+00  0.000000e+00  0.000000e+00
   endloop
 endfacet
 facet normal  9.291291e-01  0.000000e+00 -3.697555e-01
   outer loop
     vertex  1.950000e-01  0.000000e+00  4.900000e-01
     vertex  1.950000e-01 -3.250000e-01  4.900000e-01
     vertex  0.000000e+00 -3.250000e-01  0.000000e+00
   endloop
 endfacet
 facet normal  0.000000e+00  0.000000e+00  1.000000e+00
   outer loop
     vertex  9.800000e-01  0.000000e+00  6.550000e-01
     vertex  0.000000e+00  0.000000e+00  6.550000e-01
     vertex  0.000000e+00 -3.250000e-01  6.550000e-01
   endloop
 endfacet
 facet normal  0.000000e+00  0.000000e+00  1.000000e+00
   outer loop
     vertex  9.800000e-01  0.000000e+00  6.550000e-01
     vertex  0.000000e+00 -3.250000e-01  6.550000e-01
     vertex  9.800000e-01 -3.250000e-01  6.550000e-01
   endloop
 endfacet
 facet normal  0.000000e+00  1.000000e+00  0.000000e+00
   outer loop
     vertex  1.950000e-01  0.000000e+00  4.900000e-01
     vertex  0.000000e+00  0.000000e+00  0.000000e+00
     vertex  0.000000e+00  0.000000e+00  6.550000e-01
   endloop
 endfacet
 facet normal  0.000000e+00  1.000000e+00  0.000000e+00
   outer loop
     vertex  3.250000e-01  0.000000e+00  4.900000e-01
     vertex  1.950000e-01  0.000000e+00  4.900000e-01
     vertex  0.000000e+00  0.000000e+00  6.550000e-01
   endloop
 endfacet
 facet normal  0.000000e+00  1.000000e+00  0.000000e+00
   outer loop
     vertex  9.800000e-01  0.000000e+00  6.550000e-01
     vertex  9.800000e-01  0.000000e+00  3.250000e-01
     vertex  3.250000e-01  0.000000e+00  4.900000e-01
   endloop
 endfacet
 facet normal  0.000000e+00  1.000000e+00  0.000000e+00
   outer loop
     vertex  9.800000e-01  0.000000e+00  6.550000e-01
     vertex  3.250000e-01  0.000000e+00  4.900000e-01
     vertex  0.000000e+00  0.000000e+00  6.550000e-01
   endloop
 endfacet
 facet normal -0.000000e+00 -1.000000e+00  0.000000e+00
   outer loop
     vertex  1.950000e-01 -3.250000e-01  4.900000e-01
     vertex  0.000000e+00 -3.250000e-01  6.550000e-01
     vertex  0.000000e+00 -3.250000e-01  0.000000e+00
   endloop
 endfacet
 facet normal  0.000000e+00 -1.000000e+00  0.000000e+00
   outer loop
     vertex  3.250000e-01 -3.250000e-01  4.900000e-01
     vertex  0.000000e+00 -3.250000e-01  6.550000e-01
     vertex  1.950000e-01 -3.250000e-01  4.900000e-01
   endloop
 endfacet
 facet normal  0.000000e+00 -1.000000e+00 -0.000000e+00
   outer loop
     vertex  9.800000e-01 -3.250000e-01  6.550000e-01
     vertex  3.250000e-01 -3.250000e-01  4.900000e-01
     vertex  9.800000e-01 -3.250000e-01  3.250000e-01
   endloop
 endfacet
 facet normal -0.000000e+00 -1.000000e+00  0.000000e+00
   outer loop
     vertex  9.800000e-01 -3.250000e-01  6.550000e-01
     vertex  0.000000e+00 -3.250000e-01  6.550000e-01
     vertex  3.250000e-01 -3.250000e-01  4.900000e-01
   endloop
 endfacet
 facet normal  0.000000e+00  0.000000e+00 -1.000000e+00
   outer loop
     vertex  1.950000e-01  0.000000e+00  4.900000e-01
     vertex  3.250000e-01  0.000000e+00  4.900000e-01
     vertex  3.250000e-01 -3.250000e-01  4.900000e-01
   endloop
 endfacet
 facet normal  0.000000e+00  0.000000e+00 -1.000000e+00
   outer loop
     vertex  1.950000e-01  0.000000e+00  4.900000e-01
     vertex  3.250000e-01 -3.250000e-01  4.900000e-01
     vertex  1.950000e-01 -3.250000e-01  4.900000e-01
   endloop
 endfacet
 facet normal  1.000000e+00  0.000000e+00 -0.000000e+00
   outer loop
     vertex  9.800000e-01  0.000000e+00  3.250000e-01
     vertex  9.800000e-01  0.000000e+00  6.550000e-01
     vertex  9.800000e-01 -3.250000e-01  6.550000e-01
   endloop
 endfacet
 facet normal  1.000000e+00  0.000000e+00  0.000000e+00
   outer loop
     vertex  9.800000e-01  0.000000e+00  3.250000e-01
     vertex  9.800000e-01 -3.250000e-01  6.550000e-01
     vertex  9.800000e-01 -3.250000e-01  3.250000e-01
   endloop
 endfacet
 facet normal -2.442770e-01  0.000000e+00 -9.697055e-01
   outer loop
     vertex  3.250000e-01  0.000000e+00  4.900000e-01
     vertex  9.800000e-01  0.000000e+00  3.250000e-01
     vertex  9.800000e-01 -3.250000e-01  3.250000e-01
   endloop
 endfacet
 facet normal -2.442770e-01 -0.000000e+00 -9.697055e-01
   outer loop
     vertex  3.250000e-01  0.000000e+00  4.900000e-01
     vertex  9.800000e-01 -3.250000e-01  3.250000e-01
     vertex  3.250000e-01 -3.250000e-01  4.900000e-01
   endloop
 endfacet
 facet normal  8.957906e-01 -4.444763e-01  0.000000e+00
   outer loop
     vertex  3.250000e-01  6.550000e-01  0.000000e+00
     vertex  0.000000e+00  0.000000e+00  6.550000e-01
     vertex  0.000000e+00  0.000000e+00  0.000000e+00
   endloop
 endfacet
 facet normal  8.957906e-01 -4.444763e-01  0.000000e+00
   outer loop
     vertex  3.250000e-01  6.550000e-01  0.000000e+00
     vertex  3.250000e-01  6.550000e-01  6.550000e-01
     vertex  0.000000e+00  0.000000e+00  6.550000e-01
   endloop
 endfacet
 facet normal -1.000000e+00  0.000000e+00  0.000000e+00
   outer loop
     vertex  0.000000e+00  0.000000e+00  0.000000e+00
     vertex  0.000000e+00  6.550000e-01  6.550000e-01
     vertex  0.000000e+00  6.550000e-01  0.000000e+00
   endloop
 endfacet
 facet normal -1.000000e+00  0.000000e+00  0.000000e+00
   outer loop
     vertex  0.000000e+00  0.000000e+00  0.000000e+00
     vertex  0.000000e+00  0.000000e+00  6.550000e-01
     vertex  0.000000e+00  6.550000e-01  6.550000e-01
   endloop
 endfacet
 facet normal  0.000000e+00  1.000000e+00  0.000000e+00
   outer loop
     vertex  3.250000e-01  6.550000e-01  0.000000e+00
     vertex  0.000000e+00  6.550000e-01  0.000000e+00
     vertex  0.000000e+00  6.550000e-01  6.550000e-01
   endloop
 endfacet
 facet normal  0.000000e+00  1.000000e+00 -0.000000e+00
   outer loop
     vertex  3.250000e-01  6.550000e-01  0.000000e+00
     vertex  0.000000e+00  6.550000e-01  6.550000e-01
     vertex  3.250000e-01  6.550000e-01  6.550000e-01
   endloop
 endfacet
 facet normal -0.000000e+00  0.000000e+00 -1.000000e+00
   outer loop
     vertex  3.250000e-01  6.550000e-01  0.000000e+00
     vertex  0.000000e+00  0.000000e+00  0.000000e+00
     vertex  0.000000e+00  6.550000e-01  0.000000e+00
   endloop
 endfacet
 facet normal  0.000000e+00  0.000000e+00  1.000000e+00
   outer loop
     vertex  3.250000e-01  6.550000e-01  6.550000e-01
     vertex  0.000000e+00  6.550000e-01  6.550000e-01
     vertex  0.000000e+00  0.000000e+00  6.550000e-01
   endloop
 endfacet
endsolid
