solid 
 facet normal  4.757048e-01  8.796050e-01  0.000000e+00
   outer loop
     vertex -9.800000e-01  9.800000e-01  0.000000e+00
     vertex  9.800000e-01 -8.000000e-02  6.550000e-01
     vertex  9.800000e-01 -8.000000e-02  0.000000e+00
   endloop
 endfacet
 facet normal  4.757048e-01  8.796050e-01 -0.000000e+00
   outer loop
     vertex -9.800000e-01  9.800000e-01  0.000000e+00
     vertex -9.800000e-01  9.800000e-01  6.550000e-01
     vertex  9.800000e-01 -8.000000e-02  6.550000e-01
   endloop
 endfacet
 facet normal -1.000000e+00  0.000000e+00  0.000000e+00
   outer loop
     vertex -9.800000e-01 -9.800000e-01  0.000000e+00
     vertex -9.800000e-01  9.800000e-01  6.550000e-01
     vertex -9.800000e-01  9.800000e-01  0.000000e+00
   endloop
 endfacet
 facet normal -1.000000e+00  0.000000e+00  0.000000e+00
   outer loop
     vertex -9.800000e-01 -9.800000e-01  0.000000e+00
     vertex -9.800000e-01 -9.800000e-01  6.550000e-01
     vertex -9.800000e-01  9.800000e-01  6.550000e-01
   endloop
 endfacet
 facet normal  0.000000e+00 -1.000000e+00  0.000000e+00
   outer loop
     vertex -9.800000e-01 -9.800000e-01  0.000000e+00
     vertex  9.800000e-01 -9.800000e-01  0.000000e+00
     vertex  9.800000e-01 -9.800000e-01  6.550000e-01
   endloop
 endfacet
 facet normal  0.000000e+00 -1.000000e+00  0.000000e+00
   outer loop
     vertex -9.800000e-01 -9.800000e-01  0.000000e+00
     vertex  9.800000e-01 -9.800000e-01  6.550000e-01
     vertex -9.800000e-01 -9.800000e-01  6.550000e-01
   endloop
 endfacet
 facet normal  1.000000e+00  0.000000e+00  0.000000e+00
   outer loop
     vertex  9.800000e-01 -9.800000e-01  0.000000e+00
     vertex  9.800000e-01 -8.000000e-02  0.000000e+00
     vertex  9.800000e-01 -8.000000e-02  6.550000e-01
   endloop
 endfacet
 facet normal  1.000000e+00  0.000000e+00  0.000000e+00
   outer loop
     vertex  9.800000e-01 -9.800000e-01  0.000000e+00
     vertex  9.800000e-01 -8.000000e-02  6.550000e-01
     vertex  9.800000e-01 -9.800000e-01  6.550000e-01
   endloop
 endfacet
 facet normal -0.000000e+00  0.000000e+00 -1.000000e+00
   outer loop
     vertex  9.800000e-01 -8.000000e-02  0.000000e+00
     vertex -9.800000e-01 -9.800000e-01  0.000000e+00
     vertex -9.800000e-01  9.800000e-01  0.000000e+00
   endloop
 endfacet
 facet normal  0.000000e+00 -0.000000e+00 -1.000000e+00
   outer loop
     vertex  9.800000e-01 -8.000000e-02  0.000000e+00
     vertex  9.800000e-01 -9.800000e-01  0.000000e+00
     vertex -9.800000e-01 -9.800000e-01  0.000000e+00
   endloop
 endfacet
 facet normal  0.000000e+00  0.000000e+00  1.000000e+00
   outer loop
     vertex  9.800000e-01 -8.000000e-02  6.550000e-01
     vertex -9.800000e-01  9.800000e-01  6.550000e-01
     vertex -9.800000e-01 -9.800000e-01  6.550000e-01
   endloop
 endfacet
 facet normal  0.000000e+00  0.000000e+00  1.000000e+00
   outer loop
     vertex  9.800000e-01 -8.000000e-02  6.550000e-01
     vertex -9.800000e-01 -9.800000e-01  6.550000e-01
     vertex  9.800000e-01 -9.800000e-01  6.550000e-01
   endloop
 endfacet
endsolid
