solid 
 facet normal  0.000000e+00  1.000000e+00  0.000000e+00
   outer loop
     vertex -9.800000e-01  3.900000e-01  0.000000e+00
     vertex  9.800000e-01  3.900000e-01  1.950000e-01
     vertex  9.800000e-01  3.900000e-01  0.000000e+00
   endloop
 endfacet
 facet normal  0.000000e+00  1.000000e+00  0.000000e+00
   outer loop
     vertex -9.800000e-01  3.900000e-01  0.000000e+00
     vertex -9.800000e-01  3.900000e-01  1.950000e-01
     vertex  9.800000e-01  3.900000e-01  1.950000e-01
   endloop
 endfacet
 facet normal  1.000000e+00  0.000000e+00  0.000000e+00
   outer loop
     vertex  9.800000e-01 -3.900000e-01  0.000000e+00
     vertex  9.800000e-01  3.900000e-01  0.000000e+00
     vertex  9.800000e-01  3.900000e-01  1.950000e-01
   endloop
 endfacet
 facet normal  1.000000e+00  0.000000e+00  0.000000e+00
   outer loop
     vertex  9.800000e-01 -3.900000e-01  0.000000e+00
     vertex  9.800000e-01  3.900000e-01  1.950000e-01
     vertex  9.800000e-01 -3.900000e-01  1.950000e-01
   endloop
 endfacet
 facet normal -1.000000e+00  0.000000e+00  0.000000e+00
   outer loop
     vertex -9.800000e-01 -3.900000e-01  0.000000e+00
     vertex -9.800000e-01  3.900000e-01  1.950000e-01
     vertex -9.800000e-01  3.900000e-01  0.000000e+00
   endloop
 endfacet
 facet normal -1.000000e+00  0.000000e+00  0.000000e+00
   outer loop
     vertex -9.800000e-01 -3.900000e-01  0.000000e+00
     vertex -9.800000e-01 -3.900000e-01  1.950000e-01
     vertex -9.800000e-01  3.900000e-01  1.950000e-01
   endloop
 endfacet
 facet normal  0.000000e+00 -1.000000e+00  0.000000e+00
   outer loop
     vertex -9.800000e-01 -3.900000e-01  0.000000e+00
     vertex  9.800000e-01 -3.900000e-01  0.000000e+00
     vertex  9.800000e-01 -3.900000e-01  1.950000e-01
   endloop
 endfacet
 facet normal  0.000000e+00 -1.000000e+00  0.000000e+00
   outer loop
     vertex -9.800000e-01 -3.900000e-01  0.000000e+00
     vertex  9.800000e-01 -3.900000e-01  1.950000e-01
     vertex -9.800000e-01 -3.900000e-01  1.950000e-01
   endloop
 endfacet
 facet normal -9.951847e-01 -9.801714e-02  0.000000e+00
   outer loop
     vertex -4.919215e-01  1.950903e-02  0.000000e+00
     vertex -4.900000e-01  0.000000e+00  0.000000e+00
     vertex -4.900000e-01  0.000000e+00  1.950000e-01
   endloop
 endfacet
 facet normal -9.951847e-01 -9.801714e-02  0.000000e+00
   outer loop
     vertex -4.919215e-01  1.950903e-02  0.000000e+00
     vertex -4.900000e-01  0.000000e+00  1.950000e-01
     vertex -4.919215e-01  1.950903e-02  1.950000e-01
   endloop
 endfacet
 facet normal -9.569403e-01 -2.902847e-01  0.000000e+00
   outer loop
     vertex -4.976120e-01  3.826834e-02  0.000000e+00
     vertex -4.919215e-01  1.950903e-02  1.950000e-01
     vertex -4.976120e-01  3.826834e-02  1.950000e-01
   endloop
 endfacet
 facet normal -9.569403e-01 -2.902847e-01  0.000000e+00
   outer loop
     vertex -4.976120e-01  3.826834e-02  0.000000e+00
     vertex -4.919215e-01  1.950903e-02  0.000000e+00
     vertex -4.919215e-01  1.950903e-02  1.950000e-01
   endloop
 endfacet
 facet normal -8.819213e-01 -4.713967e-01  0.000000e+00
   outer loop
     vertex -5.068530e-01  5.555702e-02  0.000000e+00
     vertex -4.976120e-01  3.826834e-02  1.950000e-01
     vertex -5.068530e-01  5.555702e-02  1.950000e-01
   endloop
 endfacet
 facet normal -8.819213e-01 -4.713967e-01  0.000000e+00
   outer loop
     vertex -5.068530e-01  5.555702e-02  0.000000e+00
     vertex -4.976120e-01  3.826834e-02  0.000000e+00
     vertex -4.976120e-01  3.826834e-02  1.950000e-01
   endloop
 endfacet
 facet normal -7.730105e-01 -6.343933e-01  0.000000e+00
   outer loop
     vertex -5.192893e-01  7.071068e-02  0.000000e+00
     vertex -5.068530e-01  5.555702e-02  1.950000e-01
     vertex -5.192893e-01  7.071068e-02  1.950000e-01
   endloop
 endfacet
 facet normal -7.730105e-01 -6.343933e-01  0.000000e+00
   outer loop
     vertex -5.192893e-01  7.071068e-02  0.000000e+00
     vertex -5.068530e-01  5.555702e-02  0.000000e+00
     vertex -5.068530e-01  5.555702e-02  1.950000e-01
   endloop
 endfacet
 facet normal -6.343933e-01 -7.730105e-01  0.000000e+00
   outer loop
     vertex -5.344430e-01  8.314696e-02  0.000000e+00
     vertex -5.192893e-01  7.071068e-02  1.950000e-01
     vertex -5.344430e-01  8.314696e-02  1.950000e-01
   endloop
 endfacet
 facet normal -6.343933e-01 -7.730105e-01  0.000000e+00
   outer loop
     vertex -5.344430e-01  8.314696e-02  0.000000e+00
     vertex -5.192893e-01  7.071068e-02  0.000000e+00
     vertex -5.192893e-01  7.071068e-02  1.950000e-01
   endloop
 endfacet
 facet normal -4.713967e-01 -8.819213e-01  0.000000e+00
   outer loop
     vertex -5.517317e-01  9.238795e-02  0.000000e+00
     vertex -5.344430e-01  8.314696e-02  1.950000e-01
     vertex -5.517317e-01  9.238795e-02  1.950000e-01
   endloop
 endfacet
 facet normal -4.713967e-01 -8.819213e-01  0.000000e+00
   outer loop
     vertex -5.517317e-01  9.238795e-02  0.000000e+00
     vertex -5.344430e-01  8.314696e-02  0.000000e+00
     vertex -5.344430e-01  8.314696e-02  1.950000e-01
   endloop
 endfacet
 facet normal -2.902847e-01 -9.569403e-01  0.000000e+00
   outer loop
     vertex -5.704910e-01  9.807853e-02  0.000000e+00
     vertex -5.517317e-01  9.238795e-02  1.950000e-01
     vertex -5.704910e-01  9.807853e-02  1.950000e-01
   endloop
 endfacet
 facet normal -2.902847e-01 -9.569403e-01  0.000000e+00
   outer loop
     vertex -5.704910e-01  9.807853e-02  0.000000e+00
     vertex -5.517317e-01  9.238795e-02  0.000000e+00
     vertex -5.517317e-01  9.238795e-02  1.950000e-01
   endloop
 endfacet
 facet normal -9.801714e-02 -9.951847e-01  0.000000e+00
   outer loop
     vertex -5.900000e-01  1.000000e-01  0.000000e+00
     vertex -5.704910e-01  9.807853e-02  0.000000e+00
     vertex -5.704910e-01  9.807853e-02  1.950000e-01
   endloop
 endfacet
 facet normal -9.801714e-02 -9.951847e-01  0.000000e+00
   outer loop
     vertex -5.900000e-01  1.000000e-01  0.000000e+00
     vertex -5.704910e-01  9.807853e-02  1.950000e-01
     vertex -5.900000e-01  1.000000e-01  1.950000e-01
   endloop
 endfacet
 facet normal  9.801714e-02 -9.951847e-01  0.000000e+00
   outer loop
     vertex -6.095090e-01  9.807853e-02  0.000000e+00
     vertex -5.900000e-01  1.000000e-01  0.000000e+00
     vertex -5.900000e-01  1.000000e-01  1.950000e-01
   endloop
 endfacet
 facet normal  9.801714e-02 -9.951847e-01  0.000000e+00
   outer loop
     vertex -6.095090e-01  9.807853e-02  0.000000e+00
     vertex -5.900000e-01  1.000000e-01  1.950000e-01
     vertex -6.095090e-01  9.807853e-02  1.950000e-01
   endloop
 endfacet
 facet normal  2.902847e-01 -9.569403e-01  0.000000e+00
   outer loop
     vertex -6.282683e-01  9.238795e-02  0.000000e+00
     vertex -6.095090e-01  9.807853e-02  1.950000e-01
     vertex -6.282683e-01  9.238795e-02  1.950000e-01
   endloop
 endfacet
 facet normal  2.902847e-01 -9.569403e-01  0.000000e+00
   outer loop
     vertex -6.282683e-01  9.238795e-02  0.000000e+00
     vertex -6.095090e-01  9.807853e-02  0.000000e+00
     vertex -6.095090e-01  9.807853e-02  1.950000e-01
   endloop
 endfacet
 facet normal  4.713967e-01 -8.819213e-01  0.000000e+00
   outer loop
     vertex -6.455570e-01  8.314696e-02  0.000000e+00
     vertex -6.282683e-01  9.238795e-02  1.950000e-01
     vertex -6.455570e-01  8.314696e-02  1.950000e-01
   endloop
 endfacet
 facet normal  4.713967e-01 -8.819213e-01  0.000000e+00
   outer loop
     vertex -6.455570e-01  8.314696e-02  0.000000e+00
     vertex -6.282683e-01  9.238795e-02  0.000000e+00
     vertex -6.282683e-01  9.238795e-02  1.950000e-01
   endloop
 endfacet
 facet normal  6.343933e-01 -7.730105e-01  0.000000e+00
   outer loop
     vertex -6.607107e-01  7.071068e-02  0.000000e+00
     vertex -6.455570e-01  8.314696e-02  1.950000e-01
     vertex -6.607107e-01  7.071068e-02  1.950000e-01
   endloop
 endfacet
 facet normal  6.343933e-01 -7.730105e-01  0.000000e+00
   outer loop
     vertex -6.607107e-01  7.071068e-02  0.000000e+00
     vertex -6.455570e-01  8.314696e-02  0.000000e+00
     vertex -6.455570e-01  8.314696e-02  1.950000e-01
   endloop
 endfacet
 facet normal  7.730105e-01 -6.343933e-01  0.000000e+00
   outer loop
     vertex -6.731470e-01  5.555702e-02  0.000000e+00
     vertex -6.607107e-01  7.071068e-02  1.950000e-01
     vertex -6.731470e-01  5.555702e-02  1.950000e-01
   endloop
 endfacet
 facet normal  7.730105e-01 -6.343933e-01  0.000000e+00
   outer loop
     vertex -6.731470e-01  5.555702e-02  0.000000e+00
     vertex -6.607107e-01  7.071068e-02  0.000000e+00
     vertex -6.607107e-01  7.071068e-02  1.950000e-01
   endloop
 endfacet
 facet normal  8.819213e-01 -4.713967e-01  0.000000e+00
   outer loop
     vertex -6.823880e-01  3.826834e-02  0.000000e+00
     vertex -6.731470e-01  5.555702e-02  1.950000e-01
     vertex -6.823880e-01  3.826834e-02  1.950000e-01
   endloop
 endfacet
 facet normal  9.569403e-01 -2.902847e-01  0.000000e+00
   outer loop
     vertex -6.823880e-01  3.826834e-02  0.000000e+00
     vertex -6.823880e-01  3.826834e-02  1.950000e-01
     vertex -6.880785e-01  1.950903e-02  1.950000e-01
   endloop
 endfacet
 facet normal  8.819213e-01 -4.713967e-01  0.000000e+00
   outer loop
     vertex -6.823880e-01  3.826834e-02  0.000000e+00
     vertex -6.731470e-01  5.555702e-02  0.000000e+00
     vertex -6.731470e-01  5.555702e-02  1.950000e-01
   endloop
 endfacet
 facet normal  9.569403e-01 -2.902847e-01  0.000000e+00
   outer loop
     vertex -6.880785e-01  1.950903e-02  0.000000e+00
     vertex -6.823880e-01  3.826834e-02  0.000000e+00
     vertex -6.880785e-01  1.950903e-02  1.950000e-01
   endloop
 endfacet
 facet normal  9.951847e-01 -9.801714e-02  0.000000e+00
   outer loop
     vertex -6.900000e-01 -7.657137e-17  0.000000e+00
     vertex -6.880785e-01  1.950903e-02  1.950000e-01
     vertex -6.900000e-01 -7.657137e-17  1.950000e-01
   endloop
 endfacet
 facet normal  9.951847e-01 -9.801714e-02  0.000000e+00
   outer loop
     vertex -6.900000e-01 -7.657137e-17  0.000000e+00
     vertex -6.880785e-01  1.950903e-02  0.000000e+00
     vertex -6.880785e-01  1.950903e-02  1.950000e-01
   endloop
 endfacet
 facet normal  9.951847e-01  9.801714e-02 -0.000000e+00
   outer loop
     vertex -6.880785e-01 -1.950903e-02  0.000000e+00
     vertex -6.900000e-01 -7.657137e-17  1.950000e-01
     vertex -6.880785e-01 -1.950903e-02  1.950000e-01
   endloop
 endfacet
 facet normal  9.951847e-01  9.801714e-02  0.000000e+00
   outer loop
     vertex -6.880785e-01 -1.950903e-02  0.000000e+00
     vertex -6.900000e-01 -7.657137e-17  0.000000e+00
     vertex -6.900000e-01 -7.657137e-17  1.950000e-01
   endloop
 endfacet
 facet normal  9.569403e-01  2.902847e-01 -0.000000e+00
   outer loop
     vertex -6.823880e-01 -3.826834e-02  0.000000e+00
     vertex -6.880785e-01 -1.950903e-02  1.950000e-01
     vertex -6.823880e-01 -3.826834e-02  1.950000e-01
   endloop
 endfacet
 facet normal  9.569403e-01  2.902847e-01  0.000000e+00
   outer loop
     vertex -6.823880e-01 -3.826834e-02  0.000000e+00
     vertex -6.880785e-01 -1.950903e-02  0.000000e+00
     vertex -6.880785e-01 -1.950903e-02  1.950000e-01
   endloop
 endfacet
 facet normal  8.819213e-01  4.713967e-01 -0.000000e+00
   outer loop
     vertex -6.731470e-01 -5.555702e-02  0.000000e+00
     vertex -6.823880e-01 -3.826834e-02  1.950000e-01
     vertex -6.731470e-01 -5.555702e-02  1.950000e-01
   endloop
 endfacet
 facet normal  7.730105e-01  6.343933e-01 -0.000000e+00
   outer loop
     vertex -6.731470e-01 -5.555702e-02  0.000000e+00
     vertex -6.731470e-01 -5.555702e-02  1.950000e-01
     vertex -6.607107e-01 -7.071068e-02  1.950000e-01
   endloop
 endfacet
 facet normal  8.819213e-01  4.713967e-01  0.000000e+00
   outer loop
     vertex -6.731470e-01 -5.555702e-02  0.000000e+00
     vertex -6.823880e-01 -3.826834e-02  0.000000e+00
     vertex -6.823880e-01 -3.826834e-02  1.950000e-01
   endloop
 endfacet
 facet normal  7.730105e-01  6.343933e-01 -0.000000e+00
   outer loop
     vertex -6.607107e-01 -7.071068e-02  0.000000e+00
     vertex -6.731470e-01 -5.555702e-02  0.000000e+00
     vertex -6.607107e-01 -7.071068e-02  1.950000e-01
   endloop
 endfacet
 facet normal  6.343933e-01  7.730105e-01 -0.000000e+00
   outer loop
     vertex -6.455570e-01 -8.314696e-02  0.000000e+00
     vertex -6.607107e-01 -7.071068e-02  1.950000e-01
     vertex -6.455570e-01 -8.314696e-02  1.950000e-01
   endloop
 endfacet
 facet normal  6.343933e-01  7.730105e-01  0.000000e+00
   outer loop
     vertex -6.455570e-01 -8.314696e-02  0.000000e+00
     vertex -6.607107e-01 -7.071068e-02  0.000000e+00
     vertex -6.607107e-01 -7.071068e-02  1.950000e-01
   endloop
 endfacet
 facet normal  4.713967e-01  8.819213e-01 -0.000000e+00
   outer loop
     vertex -6.282683e-01 -9.238795e-02  0.000000e+00
     vertex -6.455570e-01 -8.314696e-02  1.950000e-01
     vertex -6.282683e-01 -9.238795e-02  1.950000e-01
   endloop
 endfacet
 facet normal  2.902847e-01  9.569403e-01 -0.000000e+00
   outer loop
     vertex -6.282683e-01 -9.238795e-02  0.000000e+00
     vertex -6.282683e-01 -9.238795e-02  1.950000e-01
     vertex -6.095090e-01 -9.807853e-02  1.950000e-01
   endloop
 endfacet
 facet normal  4.713967e-01  8.819213e-01  0.000000e+00
   outer loop
     vertex -6.282683e-01 -9.238795e-02  0.000000e+00
     vertex -6.455570e-01 -8.314696e-02  0.000000e+00
     vertex -6.455570e-01 -8.314696e-02  1.950000e-01
   endloop
 endfacet
 facet normal  2.902847e-01  9.569403e-01 -0.000000e+00
   outer loop
     vertex -6.095090e-01 -9.807853e-02  0.000000e+00
     vertex -6.282683e-01 -9.238795e-02  0.000000e+00
     vertex -6.095090e-01 -9.807853e-02  1.950000e-01
   endloop
 endfacet
 facet normal  9.801714e-02  9.951847e-01 -0.000000e+00
   outer loop
     vertex -5.900000e-01 -1.000000e-01  0.000000e+00
     vertex -6.095090e-01 -9.807853e-02  1.950000e-01
     vertex -5.900000e-01 -1.000000e-01  1.950000e-01
   endloop
 endfacet
 facet normal  9.801714e-02  9.951847e-01  0.000000e+00
   outer loop
     vertex -5.900000e-01 -1.000000e-01  0.000000e+00
     vertex -6.095090e-01 -9.807853e-02  0.000000e+00
     vertex -6.095090e-01 -9.807853e-02  1.950000e-01
   endloop
 endfacet
 facet normal -9.801714e-02  9.951847e-01  0.000000e+00
   outer loop
     vertex -5.704910e-01 -9.807853e-02  0.000000e+00
     vertex -5.900000e-01 -1.000000e-01  1.950000e-01
     vertex -5.704910e-01 -9.807853e-02  1.950000e-01
   endloop
 endfacet
 facet normal -2.902847e-01  9.569403e-01  0.000000e+00
   outer loop
     vertex -5.704910e-01 -9.807853e-02  0.000000e+00
     vertex -5.704910e-01 -9.807853e-02  1.950000e-01
     vertex -5.517317e-01 -9.238795e-02  1.950000e-01
   endloop
 endfacet
 facet normal -9.801714e-02  9.951847e-01  0.000000e+00
   outer loop
     vertex -5.704910e-01 -9.807853e-02  0.000000e+00
     vertex -5.900000e-01 -1.000000e-01  0.000000e+00
     vertex -5.900000e-01 -1.000000e-01  1.950000e-01
   endloop
 endfacet
 facet normal -2.902847e-01  9.569403e-01  0.000000e+00
   outer loop
     vertex -5.517317e-01 -9.238795e-02  0.000000e+00
     vertex -5.704910e-01 -9.807853e-02  0.000000e+00
     vertex -5.517317e-01 -9.238795e-02  1.950000e-01
   endloop
 endfacet
 facet normal -4.713967e-01  8.819213e-01  0.000000e+00
   outer loop
     vertex -5.344430e-01 -8.314696e-02  0.000000e+00
     vertex -5.517317e-01 -9.238795e-02  1.950000e-01
     vertex -5.344430e-01 -8.314696e-02  1.950000e-01
   endloop
 endfacet
 facet normal -4.713967e-01  8.819213e-01  0.000000e+00
   outer loop
     vertex -5.344430e-01 -8.314696e-02  0.000000e+00
     vertex -5.517317e-01 -9.238795e-02  0.000000e+00
     vertex -5.517317e-01 -9.238795e-02  1.950000e-01
   endloop
 endfacet
 facet normal -6.343933e-01  7.730105e-01  0.000000e+00
   outer loop
     vertex -5.192893e-01 -7.071068e-02  0.000000e+00
     vertex -5.344430e-01 -8.314696e-02  1.950000e-01
     vertex -5.192893e-01 -7.071068e-02  1.950000e-01
   endloop
 endfacet
 facet normal -7.730105e-01  6.343933e-01  0.000000e+00
   outer loop
     vertex -5.192893e-01 -7.071068e-02  0.000000e+00
     vertex -5.192893e-01 -7.071068e-02  1.950000e-01
     vertex -5.068530e-01 -5.555702e-02  1.950000e-01
   endloop
 endfacet
 facet normal -6.343933e-01  7.730105e-01  0.000000e+00
   outer loop
     vertex -5.192893e-01 -7.071068e-02  0.000000e+00
     vertex -5.344430e-01 -8.314696e-02  0.000000e+00
     vertex -5.344430e-01 -8.314696e-02  1.950000e-01
   endloop
 endfacet
 facet normal -7.730105e-01  6.343933e-01  0.000000e+00
   outer loop
     vertex -5.068530e-01 -5.555702e-02  0.000000e+00
     vertex -5.192893e-01 -7.071068e-02  0.000000e+00
     vertex -5.068530e-01 -5.555702e-02  1.950000e-01
   endloop
 endfacet
 facet normal -8.819213e-01  4.713967e-01  0.000000e+00
   outer loop
     vertex -4.976120e-01 -3.826834e-02  0.000000e+00
     vertex -5.068530e-01 -5.555702e-02  1.950000e-01
     vertex -4.976120e-01 -3.826834e-02  1.950000e-01
   endloop
 endfacet
 facet normal -8.819213e-01  4.713967e-01  0.000000e+00
   outer loop
     vertex -4.976120e-01 -3.826834e-02  0.000000e+00
     vertex -5.068530e-01 -5.555702e-02  0.000000e+00
     vertex -5.068530e-01 -5.555702e-02  1.950000e-01
   endloop
 endfacet
 facet normal -9.569403e-01  2.902847e-01  0.000000e+00
   outer loop
     vertex -4.919215e-01 -1.950903e-02  0.000000e+00
     vertex -4.976120e-01 -3.826834e-02  1.950000e-01
     vertex -4.919215e-01 -1.950903e-02  1.950000e-01
   endloop
 endfacet
 facet normal -9.569403e-01  2.902847e-01  0.000000e+00
   outer loop
     vertex -4.919215e-01 -1.950903e-02  0.000000e+00
     vertex -4.976120e-01 -3.826834e-02  0.000000e+00
     vertex -4.976120e-01 -3.826834e-02  1.950000e-01
   endloop
 endfacet
 facet normal -9.951847e-01  9.801714e-02  0.000000e+00
   outer loop
     vertex -4.900000e-01  0.000000e+00  0.000000e+00
     vertex -4.919215e-01 -1.950903e-02  1.950000e-01
     vertex -4.900000e-01  0.000000e+00  1.950000e-01
   endloop
 endfacet
 facet normal -9.951847e-01  9.801714e-02  0.000000e+00
   outer loop
     vertex -4.900000e-01  0.000000e+00  0.000000e+00
     vertex -4.919215e-01 -1.950903e-02  0.000000e+00
     vertex -4.919215e-01 -1.950903e-02  1.950000e-01
   endloop
 endfacet
 facet normal -9.951847e-01 -9.801714e-02  0.000000e+00
   outer loop
     vertex  6.880785e-01  1.950903e-02  0.000000e+00
     vertex  6.900000e-01  0.000000e+00  0.000000e+00
     vertex  6.900000e-01  0.000000e+00  1.950000e-01
   endloop
 endfacet
 facet normal -9.951847e-01 -9.801714e-02  0.000000e+00
   outer loop
     vertex  6.880785e-01  1.950903e-02  0.000000e+00
     vertex  6.900000e-01  0.000000e+00  1.950000e-01
     vertex  6.880785e-01  1.950903e-02  1.950000e-01
   endloop
 endfacet
 facet normal -9.569403e-01 -2.902847e-01  0.000000e+00
   outer loop
     vertex  6.823880e-01  3.826834e-02  0.000000e+00
     vertex  6.880785e-01  1.950903e-02  1.950000e-01
     vertex  6.823880e-01  3.826834e-02  1.950000e-01
   endloop
 endfacet
 facet normal -9.569403e-01 -2.902847e-01  0.000000e+00
   outer loop
     vertex  6.823880e-01  3.826834e-02  0.000000e+00
     vertex  6.880785e-01  1.950903e-02  0.000000e+00
     vertex  6.880785e-01  1.950903e-02  1.950000e-01
   endloop
 endfacet
 facet normal -8.819213e-01 -4.713967e-01  0.000000e+00
   outer loop
     vertex  6.731470e-01  5.555702e-02  0.000000e+00
     vertex  6.823880e-01  3.826834e-02  1.950000e-01
     vertex  6.731470e-01  5.555702e-02  1.950000e-01
   endloop
 endfacet
 facet normal -8.819213e-01 -4.713967e-01  0.000000e+00
   outer loop
     vertex  6.731470e-01  5.555702e-02  0.000000e+00
     vertex  6.823880e-01  3.826834e-02  0.000000e+00
     vertex  6.823880e-01  3.826834e-02  1.950000e-01
   endloop
 endfacet
 facet normal -7.730105e-01 -6.343933e-01  0.000000e+00
   outer loop
     vertex  6.607107e-01  7.071068e-02  0.000000e+00
     vertex  6.731470e-01  5.555702e-02  1.950000e-01
     vertex  6.607107e-01  7.071068e-02  1.950000e-01
   endloop
 endfacet
 facet normal -7.730105e-01 -6.343933e-01  0.000000e+00
   outer loop
     vertex  6.607107e-01  7.071068e-02  0.000000e+00
     vertex  6.731470e-01  5.555702e-02  0.000000e+00
     vertex  6.731470e-01  5.555702e-02  1.950000e-01
   endloop
 endfacet
 facet normal -6.343933e-01 -7.730105e-01  0.000000e+00
   outer loop
     vertex  6.455570e-01  8.314696e-02  0.000000e+00
     vertex  6.607107e-01  7.071068e-02  1.950000e-01
     vertex  6.455570e-01  8.314696e-02  1.950000e-01
   endloop
 endfacet
 facet normal -6.343933e-01 -7.730105e-01  0.000000e+00
   outer loop
     vertex  6.455570e-01  8.314696e-02  0.000000e+00
     vertex  6.607107e-01  7.071068e-02  0.000000e+00
     vertex  6.607107e-01  7.071068e-02  1.950000e-01
   endloop
 endfacet
 facet normal -4.713967e-01 -8.819213e-01  0.000000e+00
   outer loop
     vertex  6.282683e-01  9.238795e-02  0.000000e+00
     vertex  6.455570e-01  8.314696e-02  1.950000e-01
     vertex  6.282683e-01  9.238795e-02  1.950000e-01
   endloop
 endfacet
 facet normal -4.713967e-01 -8.819213e-01  0.000000e+00
   outer loop
     vertex  6.282683e-01  9.238795e-02  0.000000e+00
     vertex  6.455570e-01  8.314696e-02  0.000000e+00
     vertex  6.455570e-01  8.314696e-02  1.950000e-01
   endloop
 endfacet
 facet normal -2.902847e-01 -9.569403e-01  0.000000e+00
   outer loop
     vertex  6.095090e-01  9.807853e-02  0.000000e+00
     vertex  6.282683e-01  9.238795e-02  1.950000e-01
     vertex  6.095090e-01  9.807853e-02  1.950000e-01
   endloop
 endfacet
 facet normal -2.902847e-01 -9.569403e-01  0.000000e+00
   outer loop
     vertex  6.095090e-01  9.807853e-02  0.000000e+00
     vertex  6.282683e-01  9.238795e-02  0.000000e+00
     vertex  6.282683e-01  9.238795e-02  1.950000e-01
   endloop
 endfacet
 facet normal -9.801714e-02 -9.951847e-01  0.000000e+00
   outer loop
     vertex  5.900000e-01  1.000000e-01  0.000000e+00
     vertex  6.095090e-01  9.807853e-02  0.000000e+00
     vertex  6.095090e-01  9.807853e-02  1.950000e-01
   endloop
 endfacet
 facet normal -9.801714e-02 -9.951847e-01  0.000000e+00
   outer loop
     vertex  5.900000e-01  1.000000e-01  0.000000e+00
     vertex  6.095090e-01  9.807853e-02  1.950000e-01
     vertex  5.900000e-01  1.000000e-01  1.950000e-01
   endloop
 endfacet
 facet normal  9.801714e-02 -9.951847e-01  0.000000e+00
   outer loop
     vertex  5.704910e-01  9.807853e-02  0.000000e+00
     vertex  5.900000e-01  1.000000e-01  0.000000e+00
     vertex  5.900000e-01  1.000000e-01  1.950000e-01
   endloop
 endfacet
 facet normal  9.801714e-02 -9.951847e-01  0.000000e+00
   outer loop
     vertex  5.704910e-01  9.807853e-02  0.000000e+00
     vertex  5.900000e-01  1.000000e-01  1.950000e-01
     vertex  5.704910e-01  9.807853e-02  1.950000e-01
   endloop
 endfacet
 facet normal  2.902847e-01 -9.569403e-01  0.000000e+00
   outer loop
     vertex  5.517317e-01  9.238795e-02  0.000000e+00
     vertex  5.704910e-01  9.807853e-02  1.950000e-01
     vertex  5.517317e-01  9.238795e-02  1.950000e-01
   endloop
 endfacet
 facet normal  2.902847e-01 -9.569403e-01  0.000000e+00
   outer loop
     vertex  5.517317e-01  9.238795e-02  0.000000e+00
     vertex  5.704910e-01  9.807853e-02  0.000000e+00
     vertex  5.704910e-01  9.807853e-02  1.950000e-01
   endloop
 endfacet
 facet normal  4.713967e-01 -8.819213e-01  0.000000e+00
   outer loop
     vertex  5.344430e-01  8.314696e-02  0.000000e+00
     vertex  5.517317e-01  9.238795e-02  1.950000e-01
     vertex  5.344430e-01  8.314696e-02  1.950000e-01
   endloop
 endfacet
 facet normal  4.713967e-01 -8.819213e-01  0.000000e+00
   outer loop
     vertex  5.344430e-01  8.314696e-02  0.000000e+00
     vertex  5.517317e-01  9.238795e-02  0.000000e+00
     vertex  5.517317e-01  9.238795e-02  1.950000e-01
   endloop
 endfacet
 facet normal  6.343933e-01 -7.730105e-01  0.000000e+00
   outer loop
     vertex  5.192893e-01  7.071068e-02  0.000000e+00
     vertex  5.344430e-01  8.314696e-02  1.950000e-01
     vertex  5.192893e-01  7.071068e-02  1.950000e-01
   endloop
 endfacet
 facet normal  6.343933e-01 -7.730105e-01  0.000000e+00
   outer loop
     vertex  5.192893e-01  7.071068e-02  0.000000e+00
     vertex  5.344430e-01  8.314696e-02  0.000000e+00
     vertex  5.344430e-01  8.314696e-02  1.950000e-01
   endloop
 endfacet
 facet normal  7.730105e-01 -6.343933e-01  0.000000e+00
   outer loop
     vertex  5.068530e-01  5.555702e-02  0.000000e+00
     vertex  5.192893e-01  7.071068e-02  1.950000e-01
     vertex  5.068530e-01  5.555702e-02  1.950000e-01
   endloop
 endfacet
 facet normal  7.730105e-01 -6.343933e-01  0.000000e+00
   outer loop
     vertex  5.068530e-01  5.555702e-02  0.000000e+00
     vertex  5.192893e-01  7.071068e-02  0.000000e+00
     vertex  5.192893e-01  7.071068e-02  1.950000e-01
   endloop
 endfacet
 facet normal  8.819213e-01 -4.713967e-01  0.000000e+00
   outer loop
     vertex  4.976120e-01  3.826834e-02  0.000000e+00
     vertex  5.068530e-01  5.555702e-02  1.950000e-01
     vertex  4.976120e-01  3.826834e-02  1.950000e-01
   endloop
 endfacet
 facet normal  9.569403e-01 -2.902847e-01  0.000000e+00
   outer loop
     vertex  4.976120e-01  3.826834e-02  0.000000e+00
     vertex  4.976120e-01  3.826834e-02  1.950000e-01
     vertex  4.919215e-01  1.950903e-02  1.950000e-01
   endloop
 endfacet
 facet normal  8.819213e-01 -4.713967e-01  0.000000e+00
   outer loop
     vertex  4.976120e-01  3.826834e-02  0.000000e+00
     vertex  5.068530e-01  5.555702e-02  0.000000e+00
     vertex  5.068530e-01  5.555702e-02  1.950000e-01
   endloop
 endfacet
 facet normal  9.569403e-01 -2.902847e-01  0.000000e+00
   outer loop
     vertex  4.919215e-01  1.950903e-02  0.000000e+00
     vertex  4.976120e-01  3.826834e-02  0.000000e+00
     vertex  4.919215e-01  1.950903e-02  1.950000e-01
   endloop
 endfacet
 facet normal  9.951847e-01 -9.801714e-02  0.000000e+00
   outer loop
     vertex  4.900000e-01 -7.657137e-17  0.000000e+00
     vertex  4.919215e-01  1.950903e-02  1.950000e-01
     vertex  4.900000e-01 -7.657137e-17  1.950000e-01
   endloop
 endfacet
 facet normal  9.951847e-01 -9.801714e-02  0.000000e+00
   outer loop
     vertex  4.900000e-01 -7.657137e-17  0.000000e+00
     vertex  4.919215e-01  1.950903e-02  0.000000e+00
     vertex  4.919215e-01  1.950903e-02  1.950000e-01
   endloop
 endfacet
 facet normal  9.951847e-01  9.801714e-02 -0.000000e+00
   outer loop
     vertex  4.919215e-01 -1.950903e-02  0.000000e+00
     vertex  4.900000e-01 -7.657137e-17  1.950000e-01
     vertex  4.919215e-01 -1.950903e-02  1.950000e-01
   endloop
 endfacet
 facet normal  9.951847e-01  9.801714e-02  0.000000e+00
   outer loop
     vertex  4.919215e-01 -1.950903e-02  0.000000e+00
     vertex  4.900000e-01 -7.657137e-17  0.000000e+00
     vertex  4.900000e-01 -7.657137e-17  1.950000e-01
   endloop
 endfacet
 facet normal  9.569403e-01  2.902847e-01 -0.000000e+00
   outer loop
     vertex  4.976120e-01 -3.826834e-02  0.000000e+00
     vertex  4.919215e-01 -1.950903e-02  1.950000e-01
     vertex  4.976120e-01 -3.826834e-02  1.950000e-01
   endloop
 endfacet
 facet normal  9.569403e-01  2.902847e-01  0.000000e+00
   outer loop
     vertex  4.976120e-01 -3.826834e-02  0.000000e+00
     vertex  4.919215e-01 -1.950903e-02  0.000000e+00
     vertex  4.919215e-01 -1.950903e-02  1.950000e-01
   endloop
 endfacet
 facet normal  8.819213e-01  4.713967e-01 -0.000000e+00
   outer loop
     vertex  5.068530e-01 -5.555702e-02  0.000000e+00
     vertex  4.976120e-01 -3.826834e-02  1.950000e-01
     vertex  5.068530e-01 -5.555702e-02  1.950000e-01
   endloop
 endfacet
 facet normal  7.730105e-01  6.343933e-01 -0.000000e+00
   outer loop
     vertex  5.068530e-01 -5.555702e-02  0.000000e+00
     vertex  5.068530e-01 -5.555702e-02  1.950000e-01
     vertex  5.192893e-01 -7.071068e-02  1.950000e-01
   endloop
 endfacet
 facet normal  8.819213e-01  4.713967e-01  0.000000e+00
   outer loop
     vertex  5.068530e-01 -5.555702e-02  0.000000e+00
     vertex  4.976120e-01 -3.826834e-02  0.000000e+00
     vertex  4.976120e-01 -3.826834e-02  1.950000e-01
   endloop
 endfacet
 facet normal  7.730105e-01  6.343933e-01 -0.000000e+00
   outer loop
     vertex  5.192893e-01 -7.071068e-02  0.000000e+00
     vertex  5.068530e-01 -5.555702e-02  0.000000e+00
     vertex  5.192893e-01 -7.071068e-02  1.950000e-01
   endloop
 endfacet
 facet normal  6.343933e-01  7.730105e-01 -0.000000e+00
   outer loop
     vertex  5.344430e-01 -8.314696e-02  0.000000e+00
     vertex  5.192893e-01 -7.071068e-02  1.950000e-01
     vertex  5.344430e-01 -8.314696e-02  1.950000e-01
   endloop
 endfacet
 facet normal  6.343933e-01  7.730105e-01  0.000000e+00
   outer loop
     vertex  5.344430e-01 -8.314696e-02  0.000000e+00
     vertex  5.192893e-01 -7.071068e-02  0.000000e+00
     vertex  5.192893e-01 -7.071068e-02  1.950000e-01
   endloop
 endfacet
 facet normal  4.713967e-01  8.819213e-01 -0.000000e+00
   outer loop
     vertex  5.517317e-01 -9.238795e-02  0.000000e+00
     vertex  5.344430e-01 -8.314696e-02  1.950000e-01
     vertex  5.517317e-01 -9.238795e-02  1.950000e-01
   endloop
 endfacet
 facet normal  2.902847e-01  9.569403e-01 -0.000000e+00
   outer loop
     vertex  5.517317e-01 -9.238795e-02  0.000000e+00
     vertex  5.517317e-01 -9.238795e-02  1.950000e-01
     vertex  5.704910e-01 -9.807853e-02  1.950000e-01
   endloop
 endfacet
 facet normal  4.713967e-01  8.819213e-01  0.000000e+00
   outer loop
     vertex  5.517317e-01 -9.238795e-02  0.000000e+00
     vertex  5.344430e-01 -8.314696e-02  0.000000e+00
     vertex  5.344430e-01 -8.314696e-02  1.950000e-01
   endloop
 endfacet
 facet normal  2.902847e-01  9.569403e-01 -0.000000e+00
   outer loop
     vertex  5.704910e-01 -9.807853e-02  0.000000e+00
     vertex  5.517317e-01 -9.238795e-02  0.000000e+00
     vertex  5.704910e-01 -9.807853e-02  1.950000e-01
   endloop
 endfacet
 facet normal  9.801714e-02  9.951847e-01 -0.000000e+00
   outer loop
     vertex  5.900000e-01 -1.000000e-01  0.000000e+00
     vertex  5.704910e-01 -9.807853e-02  1.950000e-01
     vertex  5.900000e-01 -1.000000e-01  1.950000e-01
   endloop
 endfacet
 facet normal  9.801714e-02  9.951847e-01  0.000000e+00
   outer loop
     vertex  5.900000e-01 -1.000000e-01  0.000000e+00
     vertex  5.704910e-01 -9.807853e-02  0.000000e+00
     vertex  5.704910e-01 -9.807853e-02  1.950000e-01
   endloop
 endfacet
 facet normal -9.801714e-02  9.951847e-01  0.000000e+00
   outer loop
     vertex  6.095090e-01 -9.807853e-02  0.000000e+00
     vertex  5.900000e-01 -1.000000e-01  1.950000e-01
     vertex  6.095090e-01 -9.807853e-02  1.950000e-01
   endloop
 endfacet
 facet normal -2.902847e-01  9.569403e-01  0.000000e+00
   outer loop
     vertex  6.095090e-01 -9.807853e-02  0.000000e+00
     vertex  6.095090e-01 -9.807853e-02  1.950000e-01
     vertex  6.282683e-01 -9.238795e-02  1.950000e-01
   endloop
 endfacet
 facet normal -9.801714e-02  9.951847e-01  0.000000e+00
   outer loop
     vertex  6.095090e-01 -9.807853e-02  0.000000e+00
     vertex  5.900000e-01 -1.000000e-01  0.000000e+00
     vertex  5.900000e-01 -1.000000e-01  1.950000e-01
   endloop
 endfacet
 facet normal -2.902847e-01  9.569403e-01  0.000000e+00
   outer loop
     vertex  6.282683e-01 -9.238795e-02  0.000000e+00
     vertex  6.095090e-01 -9.807853e-02  0.000000e+00
     vertex  6.282683e-01 -9.238795e-02  1.950000e-01
   endloop
 endfacet
 facet normal -4.713967e-01  8.819213e-01  0.000000e+00
   outer loop
     vertex  6.455570e-01 -8.314696e-02  0.000000e+00
     vertex  6.282683e-01 -9.238795e-02  1.950000e-01
     vertex  6.455570e-01 -8.314696e-02  1.950000e-01
   endloop
 endfacet
 facet normal -4.713967e-01  8.819213e-01  0.000000e+00
   outer loop
     vertex  6.455570e-01 -8.314696e-02  0.000000e+00
     vertex  6.282683e-01 -9.238795e-02  0.000000e+00
     vertex  6.282683e-01 -9.238795e-02  1.950000e-01
   endloop
 endfacet
 facet normal -6.343933e-01  7.730105e-01  0.000000e+00
   outer loop
     vertex  6.607107e-01 -7.071068e-02  0.000000e+00
     vertex  6.455570e-01 -8.314696e-02  1.950000e-01
     vertex  6.607107e-01 -7.071068e-02  1.950000e-01
   endloop
 endfacet
 facet normal -7.730105e-01  6.343933e-01  0.000000e+00
   outer loop
     vertex  6.607107e-01 -7.071068e-02  0.000000e+00
     vertex  6.607107e-01 -7.071068e-02  1.950000e-01
     vertex  6.731470e-01 -5.555702e-02  1.950000e-01
   endloop
 endfacet
 facet normal -6.343933e-01  7.730105e-01  0.000000e+00
   outer loop
     vertex  6.607107e-01 -7.071068e-02  0.000000e+00
     vertex  6.455570e-01 -8.314696e-02  0.000000e+00
     vertex  6.455570e-01 -8.314696e-02  1.950000e-01
   endloop
 endfacet
 facet normal -7.730105e-01  6.343933e-01  0.000000e+00
   outer loop
     vertex  6.731470e-01 -5.555702e-02  0.000000e+00
     vertex  6.607107e-01 -7.071068e-02  0.000000e+00
     vertex  6.731470e-01 -5.555702e-02  1.950000e-01
   endloop
 endfacet
 facet normal -8.819213e-01  4.713967e-01  0.000000e+00
   outer loop
     vertex  6.823880e-01 -3.826834e-02  0.000000e+00
     vertex  6.731470e-01 -5.555702e-02  1.950000e-01
     vertex  6.823880e-01 -3.826834e-02  1.950000e-01
   endloop
 endfacet
 facet normal -8.819213e-01  4.713967e-01  0.000000e+00
   outer loop
     vertex  6.823880e-01 -3.826834e-02  0.000000e+00
     vertex  6.731470e-01 -5.555702e-02  0.000000e+00
     vertex  6.731470e-01 -5.555702e-02  1.950000e-01
   endloop
 endfacet
 facet normal -9.569403e-01  2.902847e-01  0.000000e+00
   outer loop
     vertex  6.880785e-01 -1.950903e-02  0.000000e+00
     vertex  6.823880e-01 -3.826834e-02  1.950000e-01
     vertex  6.880785e-01 -1.950903e-02  1.950000e-01
   endloop
 endfacet
 facet normal -9.569403e-01  2.902847e-01  0.000000e+00
   outer loop
     vertex  6.880785e-01 -1.950903e-02  0.000000e+00
     vertex  6.823880e-01 -3.826834e-02  0.000000e+00
     vertex  6.823880e-01 -3.826834e-02  1.950000e-01
   endloop
 endfacet
 facet normal -9.951847e-01  9.801714e-02  0.000000e+00
   outer loop
     vertex  6.900000e-01  0.000000e+00  0.000000e+00
     vertex  6.880785e-01 -1.950903e-02  1.950000e-01
     vertex  6.900000e-01  0.000000e+00  1.950000e-01
   endloop
 endfacet
 facet normal -9.951847e-01  9.801714e-02  0.000000e+00
   outer loop
     vertex  6.900000e-01  0.000000e+00  0.000000e+00
     vertex  6.880785e-01 -1.950903e-02  0.000000e+00
     vertex  6.880785e-01 -1.950903e-02  1.950000e-01
   endloop
 endfacet
 facet normal  0.000000e+00 -0.000000e+00 -1.000000e+00
   outer loop
     vertex -6.731470e-01 -5.555702e-02  0.000000e+00
     vertex -6.607107e-01 -7.071068e-02  0.000000e+00
     vertex -9.800000e-01 -3.900000e-01  0.000000e+00
   endloop
 endfacet
 facet normal -0.000000e+00  0.000000e+00 -1.000000e+00
   outer loop
     vertex -6.455570e-01 -8.314696e-02  0.000000e+00
     vertex -9.800000e-01 -3.900000e-01  0.000000e+00
     vertex -6.607107e-01 -7.071068e-02  0.000000e+00
   endloop
 endfacet
 facet normal  0.000000e+00 -0.000000e+00 -1.000000e+00
   outer loop
     vertex -6.823880e-01 -3.826834e-02  0.000000e+00
     vertex -6.731470e-01 -5.555702e-02  0.000000e+00
     vertex -9.800000e-01 -3.900000e-01  0.000000e+00
   endloop
 endfacet
 facet normal -0.000000e+00  0.000000e+00 -1.000000e+00
   outer loop
     vertex -6.282683e-01 -9.238795e-02  0.000000e+00
     vertex -9.800000e-01 -3.900000e-01  0.000000e+00
     vertex -6.455570e-01 -8.314696e-02  0.000000e+00
   endloop
 endfacet
 facet normal  0.000000e+00 -0.000000e+00 -1.000000e+00
   outer loop
     vertex -6.880785e-01 -1.950903e-02  0.000000e+00
     vertex -6.823880e-01 -3.826834e-02  0.000000e+00
     vertex -9.800000e-01 -3.900000e-01  0.000000e+00
   endloop
 endfacet
 facet normal -0.000000e+00  0.000000e+00 -1.000000e+00
   outer loop
     vertex -6.095090e-01 -9.807853e-02  0.000000e+00
     vertex -9.800000e-01 -3.900000e-01  0.000000e+00
     vertex -6.282683e-01 -9.238795e-02  0.000000e+00
   endloop
 endfacet
 facet normal  0.000000e+00 -0.000000e+00 -1.000000e+00
   outer loop
     vertex -6.900000e-01 -7.657137e-17  0.000000e+00
     vertex -6.880785e-01 -1.950903e-02  0.000000e+00
     vertex -9.800000e-01 -3.900000e-01  0.000000e+00
   endloop
 endfacet
 facet normal -0.000000e+00  0.000000e+00 -1.000000e+00
   outer loop
     vertex -5.900000e-01 -1.000000e-01  0.000000e+00
     vertex -9.800000e-01 -3.900000e-01  0.000000e+00
     vertex -6.095090e-01 -9.807853e-02  0.000000e+00
   endloop
 endfacet
 facet normal  0.000000e+00  0.000000e+00 -1.000000e+00
   outer loop
     vertex -5.704910e-01 -9.807853e-02  0.000000e+00
     vertex -9.800000e-01 -3.900000e-01  0.000000e+00
     vertex -5.900000e-01 -1.000000e-01  0.000000e+00
   endloop
 endfacet
 facet normal  0.000000e+00  0.000000e+00 -1.000000e+00
   outer loop
     vertex -5.517317e-01 -9.238795e-02  0.000000e+00
     vertex -9.800000e-01 -3.900000e-01  0.000000e+00
     vertex -5.704910e-01 -9.807853e-02  0.000000e+00
   endloop
 endfacet
 facet normal  0.000000e+00  0.000000e+00 -1.000000e+00
   outer loop
     vertex -9.800000e-01  3.900000e-01  0.000000e+00
     vertex -6.607107e-01  7.071068e-02  0.000000e+00
     vertex -6.731470e-01  5.555702e-02  0.000000e+00
   endloop
 endfacet
 facet normal  0.000000e+00  0.000000e+00 -1.000000e+00
   outer loop
     vertex -9.800000e-01  3.900000e-01  0.000000e+00
     vertex -6.731470e-01  5.555702e-02  0.000000e+00
     vertex -6.823880e-01  3.826834e-02  0.000000e+00
   endloop
 endfacet
 facet normal  0.000000e+00  0.000000e+00 -1.000000e+00
   outer loop
     vertex -9.800000e-01  3.900000e-01  0.000000e+00
     vertex -6.823880e-01  3.826834e-02  0.000000e+00
     vertex -6.880785e-01  1.950903e-02  0.000000e+00
   endloop
 endfacet
 facet normal  0.000000e+00  0.000000e+00 -1.000000e+00
   outer loop
     vertex -9.800000e-01  3.900000e-01  0.000000e+00
     vertex -6.880785e-01  1.950903e-02  0.000000e+00
     vertex -6.900000e-01 -7.657137e-17  0.000000e+00
   endloop
 endfacet
 facet normal  0.000000e+00  0.000000e+00 -1.000000e+00
   outer loop
     vertex -9.800000e-01  3.900000e-01  0.000000e+00
     vertex -6.900000e-01 -7.657137e-17  0.000000e+00
     vertex -9.800000e-01 -3.900000e-01  0.000000e+00
   endloop
 endfacet
 facet normal -0.000000e+00  0.000000e+00 -1.000000e+00
   outer loop
     vertex -6.455570e-01  8.314696e-02  0.000000e+00
     vertex -6.607107e-01  7.071068e-02  0.000000e+00
     vertex -9.800000e-01  3.900000e-01  0.000000e+00
   endloop
 endfacet
 facet normal -0.000000e+00  0.000000e+00 -1.000000e+00
   outer loop
     vertex -6.282683e-01  9.238795e-02  0.000000e+00
     vertex -6.455570e-01  8.314696e-02  0.000000e+00
     vertex -9.800000e-01  3.900000e-01  0.000000e+00
   endloop
 endfacet
 facet normal -0.000000e+00  0.000000e+00 -1.000000e+00
   outer loop
     vertex -6.095090e-01  9.807853e-02  0.000000e+00
     vertex -6.282683e-01  9.238795e-02  0.000000e+00
     vertex -9.800000e-01  3.900000e-01  0.000000e+00
   endloop
 endfacet
 facet normal -0.000000e+00  0.000000e+00 -1.000000e+00
   outer loop
     vertex -5.900000e-01  1.000000e-01  0.000000e+00
     vertex -6.095090e-01  9.807853e-02  0.000000e+00
     vertex -9.800000e-01  3.900000e-01  0.000000e+00
   endloop
 endfacet
 facet normal  0.000000e+00  0.000000e+00 -1.000000e+00
   outer loop
     vertex -5.704910e-01  9.807853e-02  0.000000e+00
     vertex -5.900000e-01  1.000000e-01  0.000000e+00
     vertex -9.800000e-01  3.900000e-01  0.000000e+00
   endloop
 endfacet
 facet normal  0.000000e+00  0.000000e+00 -1.000000e+00
   outer loop
     vertex -5.517317e-01  9.238795e-02  0.000000e+00
     vertex -5.704910e-01  9.807853e-02  0.000000e+00
     vertex -9.800000e-01  3.900000e-01  0.000000e+00
   endloop
 endfacet
 facet normal  0.000000e+00 -0.000000e+00 -1.000000e+00
   outer loop
     vertex  5.068530e-01 -5.555702e-02  0.000000e+00
     vertex  5.192893e-01 -7.071068e-02  0.000000e+00
     vertex -5.192893e-01 -7.071068e-02  0.000000e+00
   endloop
 endfacet
 facet normal -0.000000e+00  0.000000e+00 -1.000000e+00
   outer loop
     vertex  5.068530e-01 -5.555702e-02  0.000000e+00
     vertex -5.192893e-01 -7.071068e-02  0.000000e+00
     vertex -5.068530e-01 -5.555702e-02  0.000000e+00
   endloop
 endfacet
 facet normal  0.000000e+00  0.000000e+00 -1.000000e+00
   outer loop
     vertex  5.344430e-01 -8.314696e-02  0.000000e+00
     vertex -5.192893e-01 -7.071068e-02  0.000000e+00
     vertex  5.192893e-01 -7.071068e-02  0.000000e+00
   endloop
 endfacet
 facet normal  0.000000e+00  0.000000e+00 -1.000000e+00
   outer loop
     vertex  5.344430e-01 -8.314696e-02  0.000000e+00
     vertex -5.344430e-01 -8.314696e-02  0.000000e+00
     vertex -5.192893e-01 -7.071068e-02  0.000000e+00
   endloop
 endfacet
 facet normal -0.000000e+00  0.000000e+00 -1.000000e+00
   outer loop
     vertex  4.976120e-01 -3.826834e-02  0.000000e+00
     vertex -5.068530e-01 -5.555702e-02  0.000000e+00
     vertex -4.976120e-01 -3.826834e-02  0.000000e+00
   endloop
 endfacet
 facet normal  0.000000e+00 -0.000000e+00 -1.000000e+00
   outer loop
     vertex  4.976120e-01 -3.826834e-02  0.000000e+00
     vertex  5.068530e-01 -5.555702e-02  0.000000e+00
     vertex -5.068530e-01 -5.555702e-02  0.000000e+00
   endloop
 endfacet
 facet normal  0.000000e+00  0.000000e+00 -1.000000e+00
   outer loop
     vertex  5.517317e-01 -9.238795e-02  0.000000e+00
     vertex -5.517317e-01 -9.238795e-02  0.000000e+00
     vertex -5.344430e-01 -8.314696e-02  0.000000e+00
   endloop
 endfacet
 facet normal  0.000000e+00  0.000000e+00 -1.000000e+00
   outer loop
     vertex  5.517317e-01 -9.238795e-02  0.000000e+00
     vertex -5.344430e-01 -8.314696e-02  0.000000e+00
     vertex  5.344430e-01 -8.314696e-02  0.000000e+00
   endloop
 endfacet
 facet normal -0.000000e+00  0.000000e+00 -1.000000e+00
   outer loop
     vertex  4.919215e-01 -1.950903e-02  0.000000e+00
     vertex -4.976120e-01 -3.826834e-02  0.000000e+00
     vertex -4.919215e-01 -1.950903e-02  0.000000e+00
   endloop
 endfacet
 facet normal  0.000000e+00 -0.000000e+00 -1.000000e+00
   outer loop
     vertex  4.919215e-01 -1.950903e-02  0.000000e+00
     vertex  4.976120e-01 -3.826834e-02  0.000000e+00
     vertex -4.976120e-01 -3.826834e-02  0.000000e+00
   endloop
 endfacet
 facet normal -0.000000e+00  0.000000e+00 -1.000000e+00
   outer loop
     vertex  4.900000e-01 -7.657137e-17  0.000000e+00
     vertex -4.919215e-01 -1.950903e-02  0.000000e+00
     vertex -4.900000e-01  0.000000e+00  0.000000e+00
   endloop
 endfacet
 facet normal  0.000000e+00 -0.000000e+00 -1.000000e+00
   outer loop
     vertex  4.900000e-01 -7.657137e-17  0.000000e+00
     vertex  4.919215e-01 -1.950903e-02  0.000000e+00
     vertex -4.919215e-01 -1.950903e-02  0.000000e+00
   endloop
 endfacet
 facet normal -0.000000e+00  0.000000e+00 -1.000000e+00
   outer loop
     vertex  4.919215e-01  1.950903e-02  0.000000e+00
     vertex -4.900000e-01  0.000000e+00  0.000000e+00
     vertex -4.919215e-01  1.950903e-02  0.000000e+00
   endloop
 endfacet
 facet normal  0.000000e+00  0.000000e+00 -1.000000e+00
   outer loop
     vertex  4.919215e-01  1.950903e-02  0.000000e+00
     vertex  4.900000e-01 -7.657137e-17  0.000000e+00
     vertex -4.900000e-01  0.000000e+00  0.000000e+00
   endloop
 endfacet
 facet normal -0.000000e+00  0.000000e+00 -1.000000e+00
   outer loop
     vertex  4.976120e-01  3.826834e-02  0.000000e+00
     vertex -4.919215e-01  1.950903e-02  0.000000e+00
     vertex -4.976120e-01  3.826834e-02  0.000000e+00
   endloop
 endfacet
 facet normal  0.000000e+00  0.000000e+00 -1.000000e+00
   outer loop
     vertex  4.976120e-01  3.826834e-02  0.000000e+00
     vertex  4.919215e-01  1.950903e-02  0.000000e+00
     vertex -4.919215e-01  1.950903e-02  0.000000e+00
   endloop
 endfacet
 facet normal -0.000000e+00  0.000000e+00 -1.000000e+00
   outer loop
     vertex  5.068530e-01  5.555702e-02  0.000000e+00
     vertex -4.976120e-01  3.826834e-02  0.000000e+00
     vertex -5.068530e-01  5.555702e-02  0.000000e+00
   endloop
 endfacet
 facet normal  0.000000e+00  0.000000e+00 -1.000000e+00
   outer loop
     vertex  5.068530e-01  5.555702e-02  0.000000e+00
     vertex  4.976120e-01  3.826834e-02  0.000000e+00
     vertex -4.976120e-01  3.826834e-02  0.000000e+00
   endloop
 endfacet
 facet normal  0.000000e+00  0.000000e+00 -1.000000e+00
   outer loop
     vertex  9.800000e-01 -3.900000e-01  0.000000e+00
     vertex -9.800000e-01 -3.900000e-01  0.000000e+00
     vertex -5.517317e-01 -9.238795e-02  0.000000e+00
   endloop
 endfacet
 facet normal  0.000000e+00  0.000000e+00 -1.000000e+00
   outer loop
     vertex  9.800000e-01 -3.900000e-01  0.000000e+00
     vertex -5.517317e-01 -9.238795e-02  0.000000e+00
     vertex  5.517317e-01 -9.238795e-02  0.000000e+00
   endloop
 endfacet
 facet normal  0.000000e+00  0.000000e+00 -1.000000e+00
   outer loop
     vertex  9.800000e-01 -3.900000e-01  0.000000e+00
     vertex  5.517317e-01 -9.238795e-02  0.000000e+00
     vertex  5.704910e-01 -9.807853e-02  0.000000e+00
   endloop
 endfacet
 facet normal  0.000000e+00  0.000000e+00 -1.000000e+00
   outer loop
     vertex  9.800000e-01 -3.900000e-01  0.000000e+00
     vertex  5.704910e-01 -9.807853e-02  0.000000e+00
     vertex  5.900000e-01 -1.000000e-01  0.000000e+00
   endloop
 endfacet
 facet normal  0.000000e+00  0.000000e+00 -1.000000e+00
   outer loop
     vertex  9.800000e-01 -3.900000e-01  0.000000e+00
     vertex  5.900000e-01 -1.000000e-01  0.000000e+00
     vertex  6.095090e-01 -9.807853e-02  0.000000e+00
   endloop
 endfacet
 facet normal  0.000000e+00  0.000000e+00 -1.000000e+00
   outer loop
     vertex  9.800000e-01 -3.900000e-01  0.000000e+00
     vertex  6.095090e-01 -9.807853e-02  0.000000e+00
     vertex  6.282683e-01 -9.238795e-02  0.000000e+00
   endloop
 endfacet
 facet normal  0.000000e+00  0.000000e+00 -1.000000e+00
   outer loop
     vertex  9.800000e-01 -3.900000e-01  0.000000e+00
     vertex  6.282683e-01 -9.238795e-02  0.000000e+00
     vertex  6.455570e-01 -8.314696e-02  0.000000e+00
   endloop
 endfacet
 facet normal -0.000000e+00  0.000000e+00 -1.000000e+00
   outer loop
     vertex  5.192893e-01  7.071068e-02  0.000000e+00
     vertex -5.068530e-01  5.555702e-02  0.000000e+00
     vertex -5.192893e-01  7.071068e-02  0.000000e+00
   endloop
 endfacet
 facet normal  0.000000e+00  0.000000e+00 -1.000000e+00
   outer loop
     vertex  5.192893e-01  7.071068e-02  0.000000e+00
     vertex  5.068530e-01  5.555702e-02  0.000000e+00
     vertex -5.068530e-01  5.555702e-02  0.000000e+00
   endloop
 endfacet
 facet normal  0.000000e+00 -0.000000e+00 -1.000000e+00
   outer loop
     vertex  6.607107e-01 -7.071068e-02  0.000000e+00
     vertex  9.800000e-01 -3.900000e-01  0.000000e+00
     vertex  6.455570e-01 -8.314696e-02  0.000000e+00
   endloop
 endfacet
 facet normal  0.000000e+00  0.000000e+00 -1.000000e+00
   outer loop
     vertex  5.344430e-01  8.314696e-02  0.000000e+00
     vertex -5.192893e-01  7.071068e-02  0.000000e+00
     vertex -5.344430e-01  8.314696e-02  0.000000e+00
   endloop
 endfacet
 facet normal  0.000000e+00  0.000000e+00 -1.000000e+00
   outer loop
     vertex  5.344430e-01  8.314696e-02  0.000000e+00
     vertex  5.192893e-01  7.071068e-02  0.000000e+00
     vertex -5.192893e-01  7.071068e-02  0.000000e+00
   endloop
 endfacet
 facet normal  0.000000e+00 -0.000000e+00 -1.000000e+00
   outer loop
     vertex  6.731470e-01 -5.555702e-02  0.000000e+00
     vertex  9.800000e-01 -3.900000e-01  0.000000e+00
     vertex  6.607107e-01 -7.071068e-02  0.000000e+00
   endloop
 endfacet
 facet normal -0.000000e+00  0.000000e+00 -1.000000e+00
   outer loop
     vertex  5.517317e-01  9.238795e-02  0.000000e+00
     vertex -5.344430e-01  8.314696e-02  0.000000e+00
     vertex -5.517317e-01  9.238795e-02  0.000000e+00
   endloop
 endfacet
 facet normal  0.000000e+00  0.000000e+00 -1.000000e+00
   outer loop
     vertex  5.517317e-01  9.238795e-02  0.000000e+00
     vertex  5.344430e-01  8.314696e-02  0.000000e+00
     vertex -5.344430e-01  8.314696e-02  0.000000e+00
   endloop
 endfacet
 facet normal  0.000000e+00 -0.000000e+00 -1.000000e+00
   outer loop
     vertex  6.823880e-01 -3.826834e-02  0.000000e+00
     vertex  9.800000e-01 -3.900000e-01  0.000000e+00
     vertex  6.731470e-01 -5.555702e-02  0.000000e+00
   endloop
 endfacet
 facet normal  0.000000e+00 -0.000000e+00 -1.000000e+00
   outer loop
     vertex  6.880785e-01 -1.950903e-02  0.000000e+00
     vertex  9.800000e-01 -3.900000e-01  0.000000e+00
     vertex  6.823880e-01 -3.826834e-02  0.000000e+00
   endloop
 endfacet
 facet normal  0.000000e+00 -0.000000e+00 -1.000000e+00
   outer loop
     vertex  6.900000e-01  0.000000e+00  0.000000e+00
     vertex  9.800000e-01 -3.900000e-01  0.000000e+00
     vertex  6.880785e-01 -1.950903e-02  0.000000e+00
   endloop
 endfacet
 facet normal  0.000000e+00  0.000000e+00 -1.000000e+00
   outer loop
     vertex  9.800000e-01  3.900000e-01  0.000000e+00
     vertex  6.900000e-01  0.000000e+00  0.000000e+00
     vertex  6.880785e-01  1.950903e-02  0.000000e+00
   endloop
 endfacet
 facet normal  0.000000e+00  0.000000e+00 -1.000000e+00
   outer loop
     vertex  9.800000e-01  3.900000e-01  0.000000e+00
     vertex  6.880785e-01  1.950903e-02  0.000000e+00
     vertex  6.823880e-01  3.826834e-02  0.000000e+00
   endloop
 endfacet
 facet normal  0.000000e+00  0.000000e+00 -1.000000e+00
   outer loop
     vertex  9.800000e-01  3.900000e-01  0.000000e+00
     vertex  6.823880e-01  3.826834e-02  0.000000e+00
     vertex  6.731470e-01  5.555702e-02  0.000000e+00
   endloop
 endfacet
 facet normal  0.000000e+00  0.000000e+00 -1.000000e+00
   outer loop
     vertex  9.800000e-01  3.900000e-01  0.000000e+00
     vertex  6.731470e-01  5.555702e-02  0.000000e+00
     vertex  6.607107e-01  7.071068e-02  0.000000e+00
   endloop
 endfacet
 facet normal  0.000000e+00  0.000000e+00 -1.000000e+00
   outer loop
     vertex  9.800000e-01  3.900000e-01  0.000000e+00
     vertex  6.607107e-01  7.071068e-02  0.000000e+00
     vertex  6.455570e-01  8.314696e-02  0.000000e+00
   endloop
 endfacet
 facet normal  0.000000e+00  0.000000e+00 -1.000000e+00
   outer loop
     vertex  9.800000e-01  3.900000e-01  0.000000e+00
     vertex  6.455570e-01  8.314696e-02  0.000000e+00
     vertex  6.282683e-01  9.238795e-02  0.000000e+00
   endloop
 endfacet
 facet normal  0.000000e+00  0.000000e+00 -1.000000e+00
   outer loop
     vertex  9.800000e-01  3.900000e-01  0.000000e+00
     vertex  6.282683e-01  9.238795e-02  0.000000e+00
     vertex  6.095090e-01  9.807853e-02  0.000000e+00
   endloop
 endfacet
 facet normal  0.000000e+00  0.000000e+00 -1.000000e+00
   outer loop
     vertex  9.800000e-01  3.900000e-01  0.000000e+00
     vertex  6.095090e-01  9.807853e-02  0.000000e+00
     vertex  5.900000e-01  1.000000e-01  0.000000e+00
   endloop
 endfacet
 facet normal  0.000000e+00  0.000000e+00 -1.000000e+00
   outer loop
     vertex  9.800000e-01  3.900000e-01  0.000000e+00
     vertex  5.900000e-01  1.000000e-01  0.000000e+00
     vertex  5.704910e-01  9.807853e-02  0.000000e+00
   endloop
 endfacet
 facet normal  0.000000e+00  0.000000e+00 -1.000000e+00
   outer loop
     vertex  9.800000e-01  3.900000e-01  0.000000e+00
     vertex  5.704910e-01  9.807853e-02  0.000000e+00
     vertex  5.517317e-01  9.238795e-02  0.000000e+00
   endloop
 endfacet
 facet normal  0.000000e+00 -0.000000e+00 -1.000000e+00
   outer loop
     vertex  9.800000e-01  3.900000e-01  0.000000e+00
     vertex  9.800000e-01 -3.900000e-01  0.000000e+00
     vertex  6.900000e-01  0.000000e+00  0.000000e+00
   endloop
 endfacet
 facet normal -0.000000e+00  0.000000e+00 -1.000000e+00
   outer loop
     vertex  9.800000e-01  3.900000e-01  0.000000e+00
     vertex -5.517317e-01  9.238795e-02  0.000000e+00
     vertex -9.800000e-01  3.900000e-01  0.000000e+00
   endloop
 endfacet
 facet normal  0.000000e+00  0.000000e+00 -1.000000e+00
   outer loop
     vertex  9.800000e-01  3.900000e-01  0.000000e+00
     vertex  5.517317e-01  9.238795e-02  0.000000e+00
     vertex -5.517317e-01  9.238795e-02  0.000000e+00
   endloop
 endfacet
 facet normal  0.000000e+00  0.000000e+00  1.000000e+00
   outer loop
     vertex -6.731470e-01 -5.555702e-02  1.950000e-01
     vertex -9.800000e-01 -3.900000e-01  1.950000e-01
     vertex -6.607107e-01 -7.071068e-02  1.950000e-01
   endloop
 endfacet
 facet normal  0.000000e+00  0.000000e+00  1.000000e+00
   outer loop
     vertex -6.455570e-01 -8.314696e-02  1.950000e-01
     vertex -6.607107e-01 -7.071068e-02  1.950000e-01
     vertex -9.800000e-01 -3.900000e-01  1.950000e-01
   endloop
 endfacet
 facet normal  0.000000e+00  0.000000e+00  1.000000e+00
   outer loop
     vertex -6.823880e-01 -3.826834e-02  1.950000e-01
     vertex -9.800000e-01 -3.900000e-01  1.950000e-01
     vertex -6.731470e-01 -5.555702e-02  1.950000e-01
   endloop
 endfacet
 facet normal  0.000000e+00  0.000000e+00  1.000000e+00
   outer loop
     vertex -6.282683e-01 -9.238795e-02  1.950000e-01
     vertex -6.455570e-01 -8.314696e-02  1.950000e-01
     vertex -9.800000e-01 -3.900000e-01  1.950000e-01
   endloop
 endfacet
 facet normal  0.000000e+00  0.000000e+00  1.000000e+00
   outer loop
     vertex -6.880785e-01 -1.950903e-02  1.950000e-01
     vertex -9.800000e-01 -3.900000e-01  1.950000e-01
     vertex -6.823880e-01 -3.826834e-02  1.950000e-01
   endloop
 endfacet
 facet normal  0.000000e+00  0.000000e+00  1.000000e+00
   outer loop
     vertex -6.095090e-01 -9.807853e-02  1.950000e-01
     vertex -6.282683e-01 -9.238795e-02  1.950000e-01
     vertex -9.800000e-01 -3.900000e-01  1.950000e-01
   endloop
 endfacet
 facet normal  0.000000e+00  0.000000e+00  1.000000e+00
   outer loop
     vertex -6.900000e-01 -7.657137e-17  1.950000e-01
     vertex -9.800000e-01 -3.900000e-01  1.950000e-01
     vertex -6.880785e-01 -1.950903e-02  1.950000e-01
   endloop
 endfacet
 facet normal  0.000000e+00  0.000000e+00  1.000000e+00
   outer loop
     vertex -5.900000e-01 -1.000000e-01  1.950000e-01
     vertex -6.095090e-01 -9.807853e-02  1.950000e-01
     vertex -9.800000e-01 -3.900000e-01  1.950000e-01
   endloop
 endfacet
 facet normal  0.000000e+00  0.000000e+00  1.000000e+00
   outer loop
     vertex -5.704910e-01 -9.807853e-02  1.950000e-01
     vertex -5.900000e-01 -1.000000e-01  1.950000e-01
     vertex -9.800000e-01 -3.900000e-01  1.950000e-01
   endloop
 endfacet
 facet normal  0.000000e+00  0.000000e+00  1.000000e+00
   outer loop
     vertex -5.517317e-01 -9.238795e-02  1.950000e-01
     vertex -5.704910e-01 -9.807853e-02  1.950000e-01
     vertex -9.800000e-01 -3.900000e-01  1.950000e-01
   endloop
 endfacet
 facet normal  0.000000e+00  0.000000e+00  1.000000e+00
   outer loop
     vertex -9.800000e-01  3.900000e-01  1.950000e-01
     vertex -6.731470e-01  5.555702e-02  1.950000e-01
     vertex -6.607107e-01  7.071068e-02  1.950000e-01
   endloop
 endfacet
 facet normal  0.000000e+00  0.000000e+00  1.000000e+00
   outer loop
     vertex -9.800000e-01  3.900000e-01  1.950000e-01
     vertex -6.823880e-01  3.826834e-02  1.950000e-01
     vertex -6.731470e-01  5.555702e-02  1.950000e-01
   endloop
 endfacet
 facet normal  0.000000e+00  0.000000e+00  1.000000e+00
   outer loop
     vertex -9.800000e-01  3.900000e-01  1.950000e-01
     vertex -6.880785e-01  1.950903e-02  1.950000e-01
     vertex -6.823880e-01  3.826834e-02  1.950000e-01
   endloop
 endfacet
 facet normal  0.000000e+00  0.000000e+00  1.000000e+00
   outer loop
     vertex -9.800000e-01  3.900000e-01  1.950000e-01
     vertex -6.900000e-01 -7.657137e-17  1.950000e-01
     vertex -6.880785e-01  1.950903e-02  1.950000e-01
   endloop
 endfacet
 facet normal  0.000000e+00  0.000000e+00  1.000000e+00
   outer loop
     vertex -9.800000e-01  3.900000e-01  1.950000e-01
     vertex -9.800000e-01 -3.900000e-01  1.950000e-01
     vertex -6.900000e-01 -7.657137e-17  1.950000e-01
   endloop
 endfacet
 facet normal  0.000000e+00  0.000000e+00  1.000000e+00
   outer loop
     vertex -6.455570e-01  8.314696e-02  1.950000e-01
     vertex -9.800000e-01  3.900000e-01  1.950000e-01
     vertex -6.607107e-01  7.071068e-02  1.950000e-01
   endloop
 endfacet
 facet normal  0.000000e+00  0.000000e+00  1.000000e+00
   outer loop
     vertex -6.282683e-01  9.238795e-02  1.950000e-01
     vertex -9.800000e-01  3.900000e-01  1.950000e-01
     vertex -6.455570e-01  8.314696e-02  1.950000e-01
   endloop
 endfacet
 facet normal  0.000000e+00  0.000000e+00  1.000000e+00
   outer loop
     vertex -6.095090e-01  9.807853e-02  1.950000e-01
     vertex -9.800000e-01  3.900000e-01  1.950000e-01
     vertex -6.282683e-01  9.238795e-02  1.950000e-01
   endloop
 endfacet
 facet normal  0.000000e+00  0.000000e+00  1.000000e+00
   outer loop
     vertex -5.900000e-01  1.000000e-01  1.950000e-01
     vertex -9.800000e-01  3.900000e-01  1.950000e-01
     vertex -6.095090e-01  9.807853e-02  1.950000e-01
   endloop
 endfacet
 facet normal  0.000000e+00  0.000000e+00  1.000000e+00
   outer loop
     vertex -5.704910e-01  9.807853e-02  1.950000e-01
     vertex -9.800000e-01  3.900000e-01  1.950000e-01
     vertex -5.900000e-01  1.000000e-01  1.950000e-01
   endloop
 endfacet
 facet normal  0.000000e+00  0.000000e+00  1.000000e+00
   outer loop
     vertex -5.517317e-01  9.238795e-02  1.950000e-01
     vertex -9.800000e-01  3.900000e-01  1.950000e-01
     vertex -5.704910e-01  9.807853e-02  1.950000e-01
   endloop
 endfacet
 facet normal  0.000000e+00  0.000000e+00  1.000000e+00
   outer loop
     vertex  5.068530e-01 -5.555702e-02  1.950000e-01
     vertex -5.192893e-01 -7.071068e-02  1.950000e-01
     vertex  5.192893e-01 -7.071068e-02  1.950000e-01
   endloop
 endfacet
 facet normal  0.000000e+00  0.000000e+00  1.000000e+00
   outer loop
     vertex  5.068530e-01 -5.555702e-02  1.950000e-01
     vertex -5.068530e-01 -5.555702e-02  1.950000e-01
     vertex -5.192893e-01 -7.071068e-02  1.950000e-01
   endloop
 endfacet
 facet normal  0.000000e+00  0.000000e+00  1.000000e+00
   outer loop
     vertex  5.344430e-01 -8.314696e-02  1.950000e-01
     vertex  5.192893e-01 -7.071068e-02  1.950000e-01
     vertex -5.192893e-01 -7.071068e-02  1.950000e-01
   endloop
 endfacet
 facet normal  0.000000e+00  0.000000e+00  1.000000e+00
   outer loop
     vertex  5.344430e-01 -8.314696e-02  1.950000e-01
     vertex -5.192893e-01 -7.071068e-02  1.950000e-01
     vertex -5.344430e-01 -8.314696e-02  1.950000e-01
   endloop
 endfacet
 facet normal  0.000000e+00  0.000000e+00  1.000000e+00
   outer loop
     vertex  4.976120e-01 -3.826834e-02  1.950000e-01
     vertex -4.976120e-01 -3.826834e-02  1.950000e-01
     vertex -5.068530e-01 -5.555702e-02  1.950000e-01
   endloop
 endfacet
 facet normal  0.000000e+00  0.000000e+00  1.000000e+00
   outer loop
     vertex  4.976120e-01 -3.826834e-02  1.950000e-01
     vertex -5.068530e-01 -5.555702e-02  1.950000e-01
     vertex  5.068530e-01 -5.555702e-02  1.950000e-01
   endloop
 endfacet
 facet normal  0.000000e+00  0.000000e+00  1.000000e+00
   outer loop
     vertex  5.517317e-01 -9.238795e-02  1.950000e-01
     vertex -5.344430e-01 -8.314696e-02  1.950000e-01
     vertex -5.517317e-01 -9.238795e-02  1.950000e-01
   endloop
 endfacet
 facet normal  0.000000e+00  0.000000e+00  1.000000e+00
   outer loop
     vertex  5.517317e-01 -9.238795e-02  1.950000e-01
     vertex  5.344430e-01 -8.314696e-02  1.950000e-01
     vertex -5.344430e-01 -8.314696e-02  1.950000e-01
   endloop
 endfacet
 facet normal  0.000000e+00  0.000000e+00  1.000000e+00
   outer loop
     vertex  4.919215e-01 -1.950903e-02  1.950000e-01
     vertex -4.919215e-01 -1.950903e-02  1.950000e-01
     vertex -4.976120e-01 -3.826834e-02  1.950000e-01
   endloop
 endfacet
 facet normal  0.000000e+00  0.000000e+00  1.000000e+00
   outer loop
     vertex  4.919215e-01 -1.950903e-02  1.950000e-01
     vertex -4.976120e-01 -3.826834e-02  1.950000e-01
     vertex  4.976120e-01 -3.826834e-02  1.950000e-01
   endloop
 endfacet
 facet normal  0.000000e+00  0.000000e+00  1.000000e+00
   outer loop
     vertex  4.900000e-01 -7.657137e-17  1.950000e-01
     vertex -4.900000e-01  0.000000e+00  1.950000e-01
     vertex -4.919215e-01 -1.950903e-02  1.950000e-01
   endloop
 endfacet
 facet normal  0.000000e+00  0.000000e+00  1.000000e+00
   outer loop
     vertex  4.900000e-01 -7.657137e-17  1.950000e-01
     vertex -4.919215e-01 -1.950903e-02  1.950000e-01
     vertex  4.919215e-01 -1.950903e-02  1.950000e-01
   endloop
 endfacet
 facet normal  0.000000e+00  0.000000e+00  1.000000e+00
   outer loop
     vertex  4.919215e-01  1.950903e-02  1.950000e-01
     vertex -4.919215e-01  1.950903e-02  1.950000e-01
     vertex -4.900000e-01  0.000000e+00  1.950000e-01
   endloop
 endfacet
 facet normal  0.000000e+00  0.000000e+00  1.000000e+00
   outer loop
     vertex  4.919215e-01  1.950903e-02  1.950000e-01
     vertex -4.900000e-01  0.000000e+00  1.950000e-01
     vertex  4.900000e-01 -7.657137e-17  1.950000e-01
   endloop
 endfacet
 facet normal  0.000000e+00  0.000000e+00  1.000000e+00
   outer loop
     vertex  4.976120e-01  3.826834e-02  1.950000e-01
     vertex -4.976120e-01  3.826834e-02  1.950000e-01
     vertex -4.919215e-01  1.950903e-02  1.950000e-01
   endloop
 endfacet
 facet normal  0.000000e+00  0.000000e+00  1.000000e+00
   outer loop
     vertex  4.976120e-01  3.826834e-02  1.950000e-01
     vertex -4.919215e-01  1.950903e-02  1.950000e-01
     vertex  4.919215e-01  1.950903e-02  1.950000e-01
   endloop
 endfacet
 facet normal  0.000000e+00  0.000000e+00  1.000000e+00
   outer loop
     vertex  5.068530e-01  5.555702e-02  1.950000e-01
     vertex -5.068530e-01  5.555702e-02  1.950000e-01
     vertex -4.976120e-01  3.826834e-02  1.950000e-01
   endloop
 endfacet
 facet normal  0.000000e+00  0.000000e+00  1.000000e+00
   outer loop
     vertex  5.068530e-01  5.555702e-02  1.950000e-01
     vertex -4.976120e-01  3.826834e-02  1.950000e-01
     vertex  4.976120e-01  3.826834e-02  1.950000e-01
   endloop
 endfacet
 facet normal  0.000000e+00  0.000000e+00  1.000000e+00
   outer loop
     vertex  9.800000e-01 -3.900000e-01  1.950000e-01
     vertex -5.517317e-01 -9.238795e-02  1.950000e-01
     vertex -9.800000e-01 -3.900000e-01  1.950000e-01
   endloop
 endfacet
 facet normal  0.000000e+00  0.000000e+00  1.000000e+00
   outer loop
     vertex  9.800000e-01 -3.900000e-01  1.950000e-01
     vertex  5.517317e-01 -9.238795e-02  1.950000e-01
     vertex -5.517317e-01 -9.238795e-02  1.950000e-01
   endloop
 endfacet
 facet normal  0.000000e+00  0.000000e+00  1.000000e+00
   outer loop
     vertex  9.800000e-01 -3.900000e-01  1.950000e-01
     vertex  5.704910e-01 -9.807853e-02  1.950000e-01
     vertex  5.517317e-01 -9.238795e-02  1.950000e-01
   endloop
 endfacet
 facet normal  0.000000e+00  0.000000e+00  1.000000e+00
   outer loop
     vertex  9.800000e-01 -3.900000e-01  1.950000e-01
     vertex  5.900000e-01 -1.000000e-01  1.950000e-01
     vertex  5.704910e-01 -9.807853e-02  1.950000e-01
   endloop
 endfacet
 facet normal  0.000000e+00  0.000000e+00  1.000000e+00
   outer loop
     vertex  9.800000e-01 -3.900000e-01  1.950000e-01
     vertex  6.095090e-01 -9.807853e-02  1.950000e-01
     vertex  5.900000e-01 -1.000000e-01  1.950000e-01
   endloop
 endfacet
 facet normal  0.000000e+00  0.000000e+00  1.000000e+00
   outer loop
     vertex  9.800000e-01 -3.900000e-01  1.950000e-01
     vertex  6.282683e-01 -9.238795e-02  1.950000e-01
     vertex  6.095090e-01 -9.807853e-02  1.950000e-01
   endloop
 endfacet
 facet normal  0.000000e+00  0.000000e+00  1.000000e+00
   outer loop
     vertex  9.800000e-01 -3.900000e-01  1.950000e-01
     vertex  6.455570e-01 -8.314696e-02  1.950000e-01
     vertex  6.282683e-01 -9.238795e-02  1.950000e-01
   endloop
 endfacet
 facet normal  0.000000e+00  0.000000e+00  1.000000e+00
   outer loop
     vertex  5.192893e-01  7.071068e-02  1.950000e-01
     vertex -5.192893e-01  7.071068e-02  1.950000e-01
     vertex -5.068530e-01  5.555702e-02  1.950000e-01
   endloop
 endfacet
 facet normal  0.000000e+00  0.000000e+00  1.000000e+00
   outer loop
     vertex  5.192893e-01  7.071068e-02  1.950000e-01
     vertex -5.068530e-01  5.555702e-02  1.950000e-01
     vertex  5.068530e-01  5.555702e-02  1.950000e-01
   endloop
 endfacet
 facet normal  0.000000e+00  0.000000e+00  1.000000e+00
   outer loop
     vertex  6.607107e-01 -7.071068e-02  1.950000e-01
     vertex  6.455570e-01 -8.314696e-02  1.950000e-01
     vertex  9.800000e-01 -3.900000e-01  1.950000e-01
   endloop
 endfacet
 facet normal  0.000000e+00  0.000000e+00  1.000000e+00
   outer loop
     vertex  5.344430e-01  8.314696e-02  1.950000e-01
     vertex -5.344430e-01  8.314696e-02  1.950000e-01
     vertex -5.192893e-01  7.071068e-02  1.950000e-01
   endloop
 endfacet
 facet normal  0.000000e+00  0.000000e+00  1.000000e+00
   outer loop
     vertex  5.344430e-01  8.314696e-02  1.950000e-01
     vertex -5.192893e-01  7.071068e-02  1.950000e-01
     vertex  5.192893e-01  7.071068e-02  1.950000e-01
   endloop
 endfacet
 facet normal  0.000000e+00  0.000000e+00  1.000000e+00
   outer loop
     vertex  6.731470e-01 -5.555702e-02  1.950000e-01
     vertex  6.607107e-01 -7.071068e-02  1.950000e-01
     vertex  9.800000e-01 -3.900000e-01  1.950000e-01
   endloop
 endfacet
 facet normal  0.000000e+00  0.000000e+00  1.000000e+00
   outer loop
     vertex  5.517317e-01  9.238795e-02  1.950000e-01
     vertex -5.517317e-01  9.238795e-02  1.950000e-01
     vertex -5.344430e-01  8.314696e-02  1.950000e-01
   endloop
 endfacet
 facet normal  0.000000e+00  0.000000e+00  1.000000e+00
   outer loop
     vertex  5.517317e-01  9.238795e-02  1.950000e-01
     vertex -5.344430e-01  8.314696e-02  1.950000e-01
     vertex  5.344430e-01  8.314696e-02  1.950000e-01
   endloop
 endfacet
 facet normal  0.000000e+00  0.000000e+00  1.000000e+00
   outer loop
     vertex  6.823880e-01 -3.826834e-02  1.950000e-01
     vertex  6.731470e-01 -5.555702e-02  1.950000e-01
     vertex  9.800000e-01 -3.900000e-01  1.950000e-01
   endloop
 endfacet
 facet normal  0.000000e+00  0.000000e+00  1.000000e+00
   outer loop
     vertex  6.880785e-01 -1.950903e-02  1.950000e-01
     vertex  6.823880e-01 -3.826834e-02  1.950000e-01
     vertex  9.800000e-01 -3.900000e-01  1.950000e-01
   endloop
 endfacet
 facet normal  0.000000e+00  0.000000e+00  1.000000e+00
   outer loop
     vertex  6.900000e-01  0.000000e+00  1.950000e-01
     vertex  6.880785e-01 -1.950903e-02  1.950000e-01
     vertex  9.800000e-01 -3.900000e-01  1.950000e-01
   endloop
 endfacet
 facet normal  0.000000e+00  0.000000e+00  1.000000e+00
   outer loop
     vertex  9.800000e-01  3.900000e-01  1.950000e-01
     vertex  6.880785e-01  1.950903e-02  1.950000e-01
     vertex  6.900000e-01  0.000000e+00  1.950000e-01
   endloop
 endfacet
 facet normal  0.000000e+00  0.000000e+00  1.000000e+00
   outer loop
     vertex  9.800000e-01  3.900000e-01  1.950000e-01
     vertex  6.823880e-01  3.826834e-02  1.950000e-01
     vertex  6.880785e-01  1.950903e-02  1.950000e-01
   endloop
 endfacet
 facet normal  0.000000e+00  0.000000e+00  1.000000e+00
   outer loop
     vertex  9.800000e-01  3.900000e-01  1.950000e-01
     vertex  6.731470e-01  5.555702e-02  1.950000e-01
     vertex  6.823880e-01  3.826834e-02  1.950000e-01
   endloop
 endfacet
 facet normal  0.000000e+00  0.000000e+00  1.000000e+00
   outer loop
     vertex  9.800000e-01  3.900000e-01  1.950000e-01
     vertex  6.607107e-01  7.071068e-02  1.950000e-01
     vertex  6.731470e-01  5.555702e-02  1.950000e-01
   endloop
 endfacet
 facet normal  0.000000e+00  0.000000e+00  1.000000e+00
   outer loop
     vertex  9.800000e-01  3.900000e-01  1.950000e-01
     vertex  6.455570e-01  8.314696e-02  1.950000e-01
     vertex  6.607107e-01  7.071068e-02  1.950000e-01
   endloop
 endfacet
 facet normal  0.000000e+00  0.000000e+00  1.000000e+00
   outer loop
     vertex  9.800000e-01  3.900000e-01  1.950000e-01
     vertex  6.282683e-01  9.238795e-02  1.950000e-01
     vertex  6.455570e-01  8.314696e-02  1.950000e-01
   endloop
 endfacet
 facet normal  0.000000e+00  0.000000e+00  1.000000e+00
   outer loop
     vertex  9.800000e-01  3.900000e-01  1.950000e-01
     vertex  6.095090e-01  9.807853e-02  1.950000e-01
     vertex  6.282683e-01  9.238795e-02  1.950000e-01
   endloop
 endfacet
 facet normal  0.000000e+00  0.000000e+00  1.000000e+00
   outer loop
     vertex  9.800000e-01  3.900000e-01  1.950000e-01
     vertex  5.900000e-01  1.000000e-01  1.950000e-01
     vertex  6.095090e-01  9.807853e-02  1.950000e-01
   endloop
 endfacet
 facet normal  0.000000e+00  0.000000e+00  1.000000e+00
   outer loop
     vertex  9.800000e-01  3.900000e-01  1.950000e-01
     vertex  5.704910e-01  9.807853e-02  1.950000e-01
     vertex  5.900000e-01  1.000000e-01  1.950000e-01
   endloop
 endfacet
 facet normal  0.000000e+00  0.000000e+00  1.000000e+00
   outer loop
     vertex  9.800000e-01  3.900000e-01  1.950000e-01
     vertex  5.517317e-01  9.238795e-02  1.950000e-01
     vertex  5.704910e-01  9.807853e-02  1.950000e-01
   endloop
 endfacet
 facet normal  0.000000e+00  0.000000e+00  1.000000e+00
   outer loop
     vertex  9.800000e-01  3.900000e-01  1.950000e-01
     vertex  6.900000e-01  0.000000e+00  1.950000e-01
     vertex  9.800000e-01 -3.900000e-01  1.950000e-01
   endloop
 endfacet
 facet normal  0.000000e+00  0.000000e+00  1.000000e+00
   outer loop
     vertex  9.800000e-01  3.900000e-01  1.950000e-01
     vertex -9.800000e-01  3.900000e-01  1.950000e-01
     vertex -5.517317e-01  9.238795e-02  1.950000e-01
   endloop
 endfacet
 facet normal  0.000000e+00  0.000000e+00  1.000000e+00
   outer loop
     vertex  9.800000e-01  3.900000e-01  1.950000e-01
     vertex -5.517317e-01  9.238795e-02  1.950000e-01
     vertex  5.517317e-01  9.238795e-02  1.950000e-01
   endloop
 endfacet
endsolid
