solid 
 facet normal  9.987569e-01  4.984589e-02  0.000000e+00
   outer loop
     vertex  3.980123e-01  3.982714e-02  0.000000e+00
     vertex  4.000000e-01  0.000000e+00  1.000000e+00
     vertex  4.000000e-01  0.000000e+00  0.000000e+00
   endloop
 endfacet
 facet normal  9.987569e-01  4.984589e-02 -0.000000e+00
   outer loop
     vertex  3.980123e-01  3.982714e-02  0.000000e+00
     vertex  3.980123e-01  3.982714e-02  1.000000e+00
     vertex  4.000000e-01  0.000000e+00  1.000000e+00
   endloop
 endfacet
 facet normal  9.888308e-01  1.490423e-01 -0.000000e+00
   outer loop
     vertex  3.920690e-01  7.925846e-02  0.000000e+00
     vertex  3.920690e-01  7.925846e-02  1.000000e+00
     vertex  3.980123e-01  3.982714e-02  1.000000e+00
   endloop
 endfacet
 facet normal  9.888308e-01  1.490423e-01  0.000000e+00
   outer loop
     vertex  3.920690e-01  7.925846e-02  0.000000e+00
     vertex  3.980123e-01  3.982714e-02  1.000000e+00
     vertex  3.980123e-01  3.982714e-02  0.000000e+00
   endloop
 endfacet
 facet normal  9.690773e-01  2.467574e-01 -0.000000e+00
   outer loop
     vertex  3.822291e-01  1.179021e-01  0.000000e+00
     vertex  3.822291e-01  1.179021e-01  1.000000e+00
     vertex  3.920690e-01  7.925846e-02  1.000000e+00
   endloop
 endfacet
 facet normal  9.690773e-01  2.467574e-01  0.000000e+00
   outer loop
     vertex  3.822291e-01  1.179021e-01  0.000000e+00
     vertex  3.920690e-01  7.925846e-02  1.000000e+00
     vertex  3.920690e-01  7.925846e-02  0.000000e+00
   endloop
 endfacet
 facet normal  9.396926e-01  3.420201e-01 -0.000000e+00
   outer loop
     vertex  3.685905e-01  1.553739e-01  0.000000e+00
     vertex  3.685905e-01  1.553739e-01  1.000000e+00
     vertex  3.822291e-01  1.179021e-01  1.000000e+00
   endloop
 endfacet
 facet normal  9.396926e-01  3.420201e-01  0.000000e+00
   outer loop
     vertex  3.685905e-01  1.553739e-01  0.000000e+00
     vertex  3.822291e-01  1.179021e-01  1.000000e+00
     vertex  3.822291e-01  1.179021e-01  0.000000e+00
   endloop
 endfacet
 facet normal  9.009689e-01  4.338837e-01 -0.000000e+00
   outer loop
     vertex  3.512886e-01  1.913016e-01  0.000000e+00
     vertex  3.512886e-01  1.913016e-01  1.000000e+00
     vertex  3.685905e-01  1.553739e-01  1.000000e+00
   endloop
 endfacet
 facet normal  9.009689e-01  4.338837e-01  0.000000e+00
   outer loop
     vertex  3.512886e-01  1.913016e-01  0.000000e+00
     vertex  3.685905e-01  1.553739e-01  1.000000e+00
     vertex  3.685905e-01  1.553739e-01  0.000000e+00
   endloop
 endfacet
 facet normal  8.532909e-01  5.214352e-01 -0.000000e+00
   outer loop
     vertex  3.304955e-01  2.253280e-01  0.000000e+00
     vertex  3.304955e-01  2.253280e-01  1.000000e+00
     vertex  3.512886e-01  1.913016e-01  1.000000e+00
   endloop
 endfacet
 facet normal  8.532909e-01  5.214352e-01  0.000000e+00
   outer loop
     vertex  3.304955e-01  2.253280e-01  0.000000e+00
     vertex  3.512886e-01  1.913016e-01  1.000000e+00
     vertex  3.512886e-01  1.913016e-01  0.000000e+00
   endloop
 endfacet
 facet normal  7.971325e-01  6.038044e-01 -0.000000e+00
   outer loop
     vertex  3.064178e-01  2.571150e-01  0.000000e+00
     vertex  3.064178e-01  2.571150e-01  1.000000e+00
     vertex  3.304955e-01  2.253280e-01  1.000000e+00
   endloop
 endfacet
 facet normal  7.330519e-01  6.801727e-01 -0.000000e+00
   outer loop
     vertex  3.064178e-01  2.571150e-01  0.000000e+00
     vertex  2.792947e-01  2.863467e-01  1.000000e+00
     vertex  3.064178e-01  2.571150e-01  1.000000e+00
   endloop
 endfacet
 facet normal  7.971325e-01  6.038044e-01  0.000000e+00
   outer loop
     vertex  3.064178e-01  2.571150e-01  0.000000e+00
     vertex  3.304955e-01  2.253280e-01  1.000000e+00
     vertex  3.304955e-01  2.253280e-01  0.000000e+00
   endloop
 endfacet
 facet normal  7.330519e-01  6.801727e-01 -0.000000e+00
   outer loop
     vertex  2.792947e-01  2.863467e-01  0.000000e+00
     vertex  2.792947e-01  2.863467e-01  1.000000e+00
     vertex  3.064178e-01  2.571150e-01  0.000000e+00
   endloop
 endfacet
 facet normal  6.616858e-01  7.497812e-01 -0.000000e+00
   outer loop
     vertex  2.493959e-01  3.127326e-01  0.000000e+00
     vertex  2.493959e-01  3.127326e-01  1.000000e+00
     vertex  2.792947e-01  2.863467e-01  1.000000e+00
   endloop
 endfacet
 facet normal  6.616858e-01  7.497812e-01  0.000000e+00
   outer loop
     vertex  2.493959e-01  3.127326e-01  0.000000e+00
     vertex  2.792947e-01  2.863467e-01  1.000000e+00
     vertex  2.792947e-01  2.863467e-01  0.000000e+00
   endloop
 endfacet
 facet normal  5.837437e-01  8.119380e-01 -0.000000e+00
   outer loop
     vertex  2.170185e-01  3.360104e-01  0.000000e+00
     vertex  2.170185e-01  3.360104e-01  1.000000e+00
     vertex  2.493959e-01  3.127326e-01  1.000000e+00
   endloop
 endfacet
 facet normal  5.837437e-01  8.119380e-01  0.000000e+00
   outer loop
     vertex  2.170185e-01  3.360104e-01  0.000000e+00
     vertex  2.493959e-01  3.127326e-01  1.000000e+00
     vertex  2.493959e-01  3.127326e-01  0.000000e+00
   endloop
 endfacet
 facet normal  5.000000e-01  8.660254e-01 -0.000000e+00
   outer loop
     vertex  1.824843e-01  3.559487e-01  0.000000e+00
     vertex  1.824843e-01  3.559487e-01  1.000000e+00
     vertex  2.170185e-01  3.360104e-01  1.000000e+00
   endloop
 endfacet
 facet normal  5.000000e-01  8.660254e-01  0.000000e+00
   outer loop
     vertex  1.824843e-01  3.559487e-01  0.000000e+00
     vertex  2.170185e-01  3.360104e-01  1.000000e+00
     vertex  2.170185e-01  3.360104e-01  0.000000e+00
   endloop
 endfacet
 facet normal  4.112871e-01  9.115059e-01 -0.000000e+00
   outer loop
     vertex  1.461364e-01  3.723495e-01  0.000000e+00
     vertex  1.461364e-01  3.723495e-01  1.000000e+00
     vertex  1.824843e-01  3.559487e-01  1.000000e+00
   endloop
 endfacet
 facet normal  3.184867e-01  9.479273e-01 -0.000000e+00
   outer loop
     vertex  1.461364e-01  3.723495e-01  0.000000e+00
     vertex  1.083362e-01  3.850497e-01  1.000000e+00
     vertex  1.461364e-01  3.723495e-01  1.000000e+00
   endloop
 endfacet
 facet normal  4.112871e-01  9.115059e-01  0.000000e+00
   outer loop
     vertex  1.461364e-01  3.723495e-01  0.000000e+00
     vertex  1.824843e-01  3.559487e-01  1.000000e+00
     vertex  1.824843e-01  3.559487e-01  0.000000e+00
   endloop
 endfacet
 facet normal  3.184867e-01  9.479273e-01 -0.000000e+00
   outer loop
     vertex  1.083362e-01  3.850497e-01  0.000000e+00
     vertex  1.083362e-01  3.850497e-01  1.000000e+00
     vertex  1.461364e-01  3.723495e-01  0.000000e+00
   endloop
 endfacet
 facet normal  2.225209e-01  9.749279e-01 -0.000000e+00
   outer loop
     vertex  6.945927e-02  3.939231e-01  0.000000e+00
     vertex  6.945927e-02  3.939231e-01  1.000000e+00
     vertex  1.083362e-01  3.850497e-01  1.000000e+00
   endloop
 endfacet
 facet normal  2.225209e-01  9.749279e-01  0.000000e+00
   outer loop
     vertex  6.945927e-02  3.939231e-01  0.000000e+00
     vertex  1.083362e-01  3.850497e-01  1.000000e+00
     vertex  1.083362e-01  3.850497e-01  0.000000e+00
   endloop
 endfacet
 facet normal  1.243437e-01  9.922392e-01 -0.000000e+00
   outer loop
     vertex  2.989204e-02  3.988815e-01  0.000000e+00
     vertex  2.989204e-02  3.988815e-01  1.000000e+00
     vertex  6.945927e-02  3.939231e-01  1.000000e+00
   endloop
 endfacet
 facet normal  1.243437e-01  9.922392e-01  0.000000e+00
   outer loop
     vertex  2.989204e-02  3.988815e-01  0.000000e+00
     vertex  6.945927e-02  3.939231e-01  1.000000e+00
     vertex  6.945927e-02  3.939231e-01  0.000000e+00
   endloop
 endfacet
 facet normal  2.493069e-02  9.996892e-01 -0.000000e+00
   outer loop
     vertex -9.972277e-03  3.998757e-01  0.000000e+00
     vertex -9.972277e-03  3.998757e-01  1.000000e+00
     vertex  2.989204e-02  3.988815e-01  1.000000e+00
   endloop
 endfacet
 facet normal  2.493069e-02  9.996892e-01  0.000000e+00
   outer loop
     vertex -9.972277e-03  3.998757e-01  0.000000e+00
     vertex  2.989204e-02  3.988815e-01  1.000000e+00
     vertex  2.989204e-02  3.988815e-01  0.000000e+00
   endloop
 endfacet
 facet normal -7.473009e-02  9.972038e-01  0.000000e+00
   outer loop
     vertex -4.973748e-02  3.968957e-01  0.000000e+00
     vertex -4.973748e-02  3.968957e-01  1.000000e+00
     vertex -9.972277e-03  3.998757e-01  1.000000e+00
   endloop
 endfacet
 facet normal -1.736482e-01  9.848078e-01  0.000000e+00
   outer loop
     vertex -4.973748e-02  3.968957e-01  0.000000e+00
     vertex -8.900837e-02  3.899712e-01  1.000000e+00
     vertex -4.973748e-02  3.968957e-01  1.000000e+00
   endloop
 endfacet
 facet normal -7.473009e-02  9.972038e-01  0.000000e+00
   outer loop
     vertex -4.973748e-02  3.968957e-01  0.000000e+00
     vertex -9.972277e-03  3.998757e-01  1.000000e+00
     vertex -9.972277e-03  3.998757e-01  0.000000e+00
   endloop
 endfacet
 facet normal -1.736482e-01  9.848078e-01  0.000000e+00
   outer loop
     vertex -8.900837e-02  3.899712e-01  0.000000e+00
     vertex -8.900837e-02  3.899712e-01  1.000000e+00
     vertex -4.973748e-02  3.968957e-01  0.000000e+00
   endloop
 endfacet
 facet normal -2.708405e-01  9.626242e-01  0.000000e+00
   outer loop
     vertex -1.273947e-01  3.791709e-01  0.000000e+00
     vertex -8.900837e-02  3.899712e-01  1.000000e+00
     vertex -8.900837e-02  3.899712e-01  0.000000e+00
   endloop
 endfacet
 facet normal -2.708405e-01  9.626242e-01  0.000000e+00
   outer loop
     vertex -1.273947e-01  3.791709e-01  0.000000e+00
     vertex -1.273947e-01  3.791709e-01  1.000000e+00
     vertex -8.900837e-02  3.899712e-01  1.000000e+00
   endloop
 endfacet
 facet normal -3.653410e-01  9.308737e-01  0.000000e+00
   outer loop
     vertex -1.273947e-01  3.791709e-01  0.000000e+00
     vertex -1.645148e-01  3.646023e-01  1.000000e+00
     vertex -1.273947e-01  3.791709e-01  1.000000e+00
   endloop
 endfacet
 facet normal -3.653410e-01  9.308737e-01  0.000000e+00
   outer loop
     vertex -1.645148e-01  3.646023e-01  0.000000e+00
     vertex -1.645148e-01  3.646023e-01  1.000000e+00
     vertex -1.273947e-01  3.791709e-01  0.000000e+00
   endloop
 endfacet
 facet normal -4.562107e-01  8.898718e-01  0.000000e+00
   outer loop
     vertex -2.000000e-01  3.464102e-01  0.000000e+00
     vertex -1.645148e-01  3.646023e-01  1.000000e+00
     vertex -1.645148e-01  3.646023e-01  0.000000e+00
   endloop
 endfacet
 facet normal -4.562107e-01  8.898718e-01  0.000000e+00
   outer loop
     vertex -2.000000e-01  3.464102e-01  0.000000e+00
     vertex -2.000000e-01  3.464102e-01  1.000000e+00
     vertex -1.645148e-01  3.646023e-01  1.000000e+00
   endloop
 endfacet
 facet normal -5.425463e-01  8.400259e-01  0.000000e+00
   outer loop
     vertex -2.334975e-01  3.247752e-01  0.000000e+00
     vertex -2.000000e-01  3.464102e-01  1.000000e+00
     vertex -2.000000e-01  3.464102e-01  0.000000e+00
   endloop
 endfacet
 facet normal -5.425463e-01  8.400259e-01  0.000000e+00
   outer loop
     vertex -2.334975e-01  3.247752e-01  0.000000e+00
     vertex -2.334975e-01  3.247752e-01  1.000000e+00
     vertex -2.000000e-01  3.464102e-01  1.000000e+00
   endloop
 endfacet
 facet normal -6.234898e-01  7.818315e-01  0.000000e+00
   outer loop
     vertex -2.646743e-01  2.999125e-01  0.000000e+00
     vertex -2.646743e-01  2.999125e-01  1.000000e+00
     vertex -2.334975e-01  3.247752e-01  1.000000e+00
   endloop
 endfacet
 facet normal -6.234898e-01  7.818315e-01  0.000000e+00
   outer loop
     vertex -2.646743e-01  2.999125e-01  0.000000e+00
     vertex -2.334975e-01  3.247752e-01  1.000000e+00
     vertex -2.334975e-01  3.247752e-01  0.000000e+00
   endloop
 endfacet
 facet normal -6.982368e-01  7.158668e-01  0.000000e+00
   outer loop
     vertex -2.932207e-01  2.720691e-01  0.000000e+00
     vertex -2.932207e-01  2.720691e-01  1.000000e+00
     vertex -2.646743e-01  2.999125e-01  1.000000e+00
   endloop
 endfacet
 facet normal -6.982368e-01  7.158668e-01  0.000000e+00
   outer loop
     vertex -2.932207e-01  2.720691e-01  0.000000e+00
     vertex -2.646743e-01  2.999125e-01  1.000000e+00
     vertex -2.646743e-01  2.999125e-01  0.000000e+00
   endloop
 endfacet
 facet normal -7.660444e-01  6.427876e-01  0.000000e+00
   outer loop
     vertex -3.188530e-01  2.415218e-01  0.000000e+00
     vertex -2.932207e-01  2.720691e-01  1.000000e+00
     vertex -2.932207e-01  2.720691e-01  0.000000e+00
   endloop
 endfacet
 facet normal -7.660444e-01  6.427876e-01  0.000000e+00
   outer loop
     vertex -3.188530e-01  2.415218e-01  0.000000e+00
     vertex -3.188530e-01  2.415218e-01  1.000000e+00
     vertex -2.932207e-01  2.720691e-01  1.000000e+00
   endloop
 endfacet
 facet normal -8.262388e-01  5.633201e-01  0.000000e+00
   outer loop
     vertex -3.413164e-01  2.085741e-01  0.000000e+00
     vertex -3.413164e-01  2.085741e-01  1.000000e+00
     vertex -3.188530e-01  2.415218e-01  1.000000e+00
   endloop
 endfacet
 facet normal -8.262388e-01  5.633201e-01  0.000000e+00
   outer loop
     vertex -3.413164e-01  2.085741e-01  0.000000e+00
     vertex -3.188530e-01  2.415218e-01  1.000000e+00
     vertex -3.188530e-01  2.415218e-01  0.000000e+00
   endloop
 endfacet
 facet normal -8.782216e-01  4.782540e-01  0.000000e+00
   outer loop
     vertex -3.603875e-01  1.735535e-01  0.000000e+00
     vertex -3.603875e-01  1.735535e-01  1.000000e+00
     vertex -3.413164e-01  2.085741e-01  1.000000e+00
   endloop
 endfacet
 facet normal -8.782216e-01  4.782540e-01  0.000000e+00
   outer loop
     vertex -3.603875e-01  1.735535e-01  0.000000e+00
     vertex -3.413164e-01  2.085741e-01  1.000000e+00
     vertex -3.413164e-01  2.085741e-01  0.000000e+00
   endloop
 endfacet
 facet normal -9.214762e-01  3.884348e-01  0.000000e+00
   outer loop
     vertex -3.758770e-01  1.368081e-01  0.000000e+00
     vertex -3.758770e-01  1.368081e-01  1.000000e+00
     vertex -3.603875e-01  1.735535e-01  1.000000e+00
   endloop
 endfacet
 facet normal -9.214762e-01  3.884348e-01  0.000000e+00
   outer loop
     vertex -3.758770e-01  1.368081e-01  0.000000e+00
     vertex -3.603875e-01  1.735535e-01  1.000000e+00
     vertex -3.603875e-01  1.735535e-01  0.000000e+00
   endloop
 endfacet
 facet normal -9.555728e-01  2.947552e-01  0.000000e+00
   outer loop
     vertex -3.876309e-01  9.870296e-02  0.000000e+00
     vertex -3.876309e-01  9.870296e-02  1.000000e+00
     vertex -3.758770e-01  1.368081e-01  1.000000e+00
   endloop
 endfacet
 facet normal -9.555728e-01  2.947552e-01  0.000000e+00
   outer loop
     vertex -3.876309e-01  9.870296e-02  0.000000e+00
     vertex -3.758770e-01  1.368081e-01  1.000000e+00
     vertex -3.758770e-01  1.368081e-01  0.000000e+00
   endloop
 endfacet
 facet normal -9.801725e-01  1.981461e-01  0.000000e+00
   outer loop
     vertex -3.955323e-01  5.961691e-02  0.000000e+00
     vertex -3.955323e-01  5.961691e-02  1.000000e+00
     vertex -3.876309e-01  9.870296e-02  1.000000e+00
   endloop
 endfacet
 facet normal -9.801725e-01  1.981461e-01  0.000000e+00
   outer loop
     vertex -3.955323e-01  5.961691e-02  0.000000e+00
     vertex -3.876309e-01  9.870296e-02  1.000000e+00
     vertex -3.876309e-01  9.870296e-02  0.000000e+00
   endloop
 endfacet
 facet normal -9.950308e-01  9.956785e-02  0.000000e+00
   outer loop
     vertex -3.995028e-01  1.993835e-02  0.000000e+00
     vertex -3.995028e-01  1.993835e-02  1.000000e+00
     vertex -3.955323e-01  5.961691e-02  1.000000e+00
   endloop
 endfacet
 facet normal -1.000000e+00  1.392070e-15  0.000000e+00
   outer loop
     vertex -3.995028e-01  1.993835e-02  0.000000e+00
     vertex -3.995028e-01 -1.993835e-02  1.000000e+00
     vertex -3.995028e-01  1.993835e-02  1.000000e+00
   endloop
 endfacet
 facet normal -9.950308e-01  9.956785e-02  0.000000e+00
   outer loop
     vertex -3.995028e-01  1.993835e-02  0.000000e+00
     vertex -3.955323e-01  5.961691e-02  1.000000e+00
     vertex -3.955323e-01  5.961691e-02  0.000000e+00
   endloop
 endfacet
 facet normal -1.000000e+00  1.392070e-15  0.000000e+00
   outer loop
     vertex -3.995028e-01 -1.993835e-02  0.000000e+00
     vertex -3.995028e-01 -1.993835e-02  1.000000e+00
     vertex -3.995028e-01  1.993835e-02  0.000000e+00
   endloop
 endfacet
 facet normal -9.950308e-01 -9.956785e-02  0.000000e+00
   outer loop
     vertex -3.955323e-01 -5.961691e-02  0.000000e+00
     vertex -3.955323e-01 -5.961691e-02  1.000000e+00
     vertex -3.995028e-01 -1.993835e-02  1.000000e+00
   endloop
 endfacet
 facet normal -9.950308e-01 -9.956785e-02  0.000000e+00
   outer loop
     vertex -3.955323e-01 -5.961691e-02  0.000000e+00
     vertex -3.995028e-01 -1.993835e-02  1.000000e+00
     vertex -3.995028e-01 -1.993835e-02  0.000000e+00
   endloop
 endfacet
 facet normal -9.801725e-01 -1.981461e-01  0.000000e+00
   outer loop
     vertex -3.876309e-01 -9.870296e-02  0.000000e+00
     vertex -3.876309e-01 -9.870296e-02  1.000000e+00
     vertex -3.955323e-01 -5.961691e-02  1.000000e+00
   endloop
 endfacet
 facet normal -9.555728e-01 -2.947552e-01  0.000000e+00
   outer loop
     vertex -3.876309e-01 -9.870296e-02  0.000000e+00
     vertex -3.758770e-01 -1.368081e-01  1.000000e+00
     vertex -3.876309e-01 -9.870296e-02  1.000000e+00
   endloop
 endfacet
 facet normal -9.801725e-01 -1.981461e-01  0.000000e+00
   outer loop
     vertex -3.876309e-01 -9.870296e-02  0.000000e+00
     vertex -3.955323e-01 -5.961691e-02  1.000000e+00
     vertex -3.955323e-01 -5.961691e-02  0.000000e+00
   endloop
 endfacet
 facet normal -9.555728e-01 -2.947552e-01  0.000000e+00
   outer loop
     vertex -3.758770e-01 -1.368081e-01  0.000000e+00
     vertex -3.758770e-01 -1.368081e-01  1.000000e+00
     vertex -3.876309e-01 -9.870296e-02  0.000000e+00
   endloop
 endfacet
 facet normal -9.214762e-01 -3.884348e-01  0.000000e+00
   outer loop
     vertex -3.603875e-01 -1.735535e-01  0.000000e+00
     vertex -3.603875e-01 -1.735535e-01  1.000000e+00
     vertex -3.758770e-01 -1.368081e-01  1.000000e+00
   endloop
 endfacet
 facet normal -9.214762e-01 -3.884348e-01  0.000000e+00
   outer loop
     vertex -3.603875e-01 -1.735535e-01  0.000000e+00
     vertex -3.758770e-01 -1.368081e-01  1.000000e+00
     vertex -3.758770e-01 -1.368081e-01  0.000000e+00
   endloop
 endfacet
 facet normal -8.782216e-01 -4.782540e-01  0.000000e+00
   outer loop
     vertex -3.413164e-01 -2.085741e-01  0.000000e+00
     vertex -3.413164e-01 -2.085741e-01  1.000000e+00
     vertex -3.603875e-01 -1.735535e-01  1.000000e+00
   endloop
 endfacet
 facet normal -8.782216e-01 -4.782540e-01  0.000000e+00
   outer loop
     vertex -3.413164e-01 -2.085741e-01  0.000000e+00
     vertex -3.603875e-01 -1.735535e-01  1.000000e+00
     vertex -3.603875e-01 -1.735535e-01  0.000000e+00
   endloop
 endfacet
 facet normal -8.262388e-01 -5.633201e-01  0.000000e+00
   outer loop
     vertex -3.188530e-01 -2.415218e-01  0.000000e+00
     vertex -3.188530e-01 -2.415218e-01  1.000000e+00
     vertex -3.413164e-01 -2.085741e-01  1.000000e+00
   endloop
 endfacet
 facet normal -8.262388e-01 -5.633201e-01  0.000000e+00
   outer loop
     vertex -3.188530e-01 -2.415218e-01  0.000000e+00
     vertex -3.413164e-01 -2.085741e-01  1.000000e+00
     vertex -3.413164e-01 -2.085741e-01  0.000000e+00
   endloop
 endfacet
 facet normal -7.660444e-01 -6.427876e-01  0.000000e+00
   outer loop
     vertex -2.932207e-01 -2.720691e-01  0.000000e+00
     vertex -2.932207e-01 -2.720691e-01  1.000000e+00
     vertex -3.188530e-01 -2.415218e-01  1.000000e+00
   endloop
 endfacet
 facet normal -7.660444e-01 -6.427876e-01  0.000000e+00
   outer loop
     vertex -2.932207e-01 -2.720691e-01  0.000000e+00
     vertex -3.188530e-01 -2.415218e-01  1.000000e+00
     vertex -3.188530e-01 -2.415218e-01  0.000000e+00
   endloop
 endfacet
 facet normal -6.982368e-01 -7.158668e-01  0.000000e+00
   outer loop
     vertex -2.646743e-01 -2.999125e-01  0.000000e+00
     vertex -2.646743e-01 -2.999125e-01  1.000000e+00
     vertex -2.932207e-01 -2.720691e-01  1.000000e+00
   endloop
 endfacet
 facet normal -6.982368e-01 -7.158668e-01  0.000000e+00
   outer loop
     vertex -2.646743e-01 -2.999125e-01  0.000000e+00
     vertex -2.932207e-01 -2.720691e-01  1.000000e+00
     vertex -2.932207e-01 -2.720691e-01  0.000000e+00
   endloop
 endfacet
 facet normal -6.234898e-01 -7.818315e-01  0.000000e+00
   outer loop
     vertex -2.334975e-01 -3.247752e-01  0.000000e+00
     vertex -2.334975e-01 -3.247752e-01  1.000000e+00
     vertex -2.646743e-01 -2.999125e-01  1.000000e+00
   endloop
 endfacet
 facet normal -6.234898e-01 -7.818315e-01  0.000000e+00
   outer loop
     vertex -2.334975e-01 -3.247752e-01  0.000000e+00
     vertex -2.646743e-01 -2.999125e-01  1.000000e+00
     vertex -2.646743e-01 -2.999125e-01  0.000000e+00
   endloop
 endfacet
 facet normal -5.425463e-01 -8.400259e-01  0.000000e+00
   outer loop
     vertex -2.000000e-01 -3.464102e-01  0.000000e+00
     vertex -2.000000e-01 -3.464102e-01  1.000000e+00
     vertex -2.334975e-01 -3.247752e-01  1.000000e+00
   endloop
 endfacet
 facet normal -4.562107e-01 -8.898718e-01  0.000000e+00
   outer loop
     vertex -2.000000e-01 -3.464102e-01  0.000000e+00
     vertex -1.645148e-01 -3.646023e-01  1.000000e+00
     vertex -2.000000e-01 -3.464102e-01  1.000000e+00
   endloop
 endfacet
 facet normal -5.425463e-01 -8.400259e-01  0.000000e+00
   outer loop
     vertex -2.000000e-01 -3.464102e-01  0.000000e+00
     vertex -2.334975e-01 -3.247752e-01  1.000000e+00
     vertex -2.334975e-01 -3.247752e-01  0.000000e+00
   endloop
 endfacet
 facet normal -4.562107e-01 -8.898718e-01  0.000000e+00
   outer loop
     vertex -1.645148e-01 -3.646023e-01  0.000000e+00
     vertex -1.645148e-01 -3.646023e-01  1.000000e+00
     vertex -2.000000e-01 -3.464102e-01  0.000000e+00
   endloop
 endfacet
 facet normal -3.653410e-01 -9.308737e-01  0.000000e+00
   outer loop
     vertex -1.273947e-01 -3.791709e-01  0.000000e+00
     vertex -1.645148e-01 -3.646023e-01  1.000000e+00
     vertex -1.645148e-01 -3.646023e-01  0.000000e+00
   endloop
 endfacet
 facet normal -3.653410e-01 -9.308737e-01  0.000000e+00
   outer loop
     vertex -1.273947e-01 -3.791709e-01  0.000000e+00
     vertex -1.273947e-01 -3.791709e-01  1.000000e+00
     vertex -1.645148e-01 -3.646023e-01  1.000000e+00
   endloop
 endfacet
 facet normal -2.708405e-01 -9.626242e-01  0.000000e+00
   outer loop
     vertex -1.273947e-01 -3.791709e-01  0.000000e+00
     vertex -8.900837e-02 -3.899712e-01  1.000000e+00
     vertex -1.273947e-01 -3.791709e-01  1.000000e+00
   endloop
 endfacet
 facet normal -2.708405e-01 -9.626242e-01  0.000000e+00
   outer loop
     vertex -8.900837e-02 -3.899712e-01  0.000000e+00
     vertex -8.900837e-02 -3.899712e-01  1.000000e+00
     vertex -1.273947e-01 -3.791709e-01  0.000000e+00
   endloop
 endfacet
 facet normal -1.736482e-01 -9.848078e-01  0.000000e+00
   outer loop
     vertex -8.900837e-02 -3.899712e-01  0.000000e+00
     vertex -4.973748e-02 -3.968957e-01  1.000000e+00
     vertex -8.900837e-02 -3.899712e-01  1.000000e+00
   endloop
 endfacet
 facet normal -1.736482e-01 -9.848078e-01  0.000000e+00
   outer loop
     vertex -4.973748e-02 -3.968957e-01  0.000000e+00
     vertex -4.973748e-02 -3.968957e-01  1.000000e+00
     vertex -8.900837e-02 -3.899712e-01  0.000000e+00
   endloop
 endfacet
 facet normal -7.473009e-02 -9.972038e-01  0.000000e+00
   outer loop
     vertex -9.972277e-03 -3.998757e-01  0.000000e+00
     vertex -4.973748e-02 -3.968957e-01  1.000000e+00
     vertex -4.973748e-02 -3.968957e-01  0.000000e+00
   endloop
 endfacet
 facet normal -7.473009e-02 -9.972038e-01  0.000000e+00
   outer loop
     vertex -9.972277e-03 -3.998757e-01  0.000000e+00
     vertex -9.972277e-03 -3.998757e-01  1.000000e+00
     vertex -4.973748e-02 -3.968957e-01  1.000000e+00
   endloop
 endfacet
 facet normal  2.493069e-02 -9.996892e-01  0.000000e+00
   outer loop
     vertex  2.989204e-02 -3.988815e-01  0.000000e+00
     vertex -9.972277e-03 -3.998757e-01  1.000000e+00
     vertex -9.972277e-03 -3.998757e-01  0.000000e+00
   endloop
 endfacet
 facet normal  2.493069e-02 -9.996892e-01  0.000000e+00
   outer loop
     vertex  2.989204e-02 -3.988815e-01  0.000000e+00
     vertex  2.989204e-02 -3.988815e-01  1.000000e+00
     vertex -9.972277e-03 -3.998757e-01  1.000000e+00
   endloop
 endfacet
 facet normal  1.243437e-01 -9.922392e-01  0.000000e+00
   outer loop
     vertex  2.989204e-02 -3.988815e-01  0.000000e+00
     vertex  6.945927e-02 -3.939231e-01  1.000000e+00
     vertex  2.989204e-02 -3.988815e-01  1.000000e+00
   endloop
 endfacet
 facet normal  1.243437e-01 -9.922392e-01  0.000000e+00
   outer loop
     vertex  6.945927e-02 -3.939231e-01  0.000000e+00
     vertex  6.945927e-02 -3.939231e-01  1.000000e+00
     vertex  2.989204e-02 -3.988815e-01  0.000000e+00
   endloop
 endfacet
 facet normal  2.225209e-01 -9.749279e-01  0.000000e+00
   outer loop
     vertex  1.083362e-01 -3.850497e-01  0.000000e+00
     vertex  6.945927e-02 -3.939231e-01  1.000000e+00
     vertex  6.945927e-02 -3.939231e-01  0.000000e+00
   endloop
 endfacet
 facet normal  2.225209e-01 -9.749279e-01  0.000000e+00
   outer loop
     vertex  1.083362e-01 -3.850497e-01  0.000000e+00
     vertex  1.083362e-01 -3.850497e-01  1.000000e+00
     vertex  6.945927e-02 -3.939231e-01  1.000000e+00
   endloop
 endfacet
 facet normal  3.184867e-01 -9.479273e-01  0.000000e+00
   outer loop
     vertex  1.083362e-01 -3.850497e-01  0.000000e+00
     vertex  1.461364e-01 -3.723495e-01  1.000000e+00
     vertex  1.083362e-01 -3.850497e-01  1.000000e+00
   endloop
 endfacet
 facet normal  3.184867e-01 -9.479273e-01  0.000000e+00
   outer loop
     vertex  1.461364e-01 -3.723495e-01  0.000000e+00
     vertex  1.461364e-01 -3.723495e-01  1.000000e+00
     vertex  1.083362e-01 -3.850497e-01  0.000000e+00
   endloop
 endfacet
 facet normal  4.112871e-01 -9.115059e-01  0.000000e+00
   outer loop
     vertex  1.824843e-01 -3.559487e-01  0.000000e+00
     vertex  1.461364e-01 -3.723495e-01  1.000000e+00
     vertex  1.461364e-01 -3.723495e-01  0.000000e+00
   endloop
 endfacet
 facet normal  4.112871e-01 -9.115059e-01  0.000000e+00
   outer loop
     vertex  1.824843e-01 -3.559487e-01  0.000000e+00
     vertex  1.824843e-01 -3.559487e-01  1.000000e+00
     vertex  1.461364e-01 -3.723495e-01  1.000000e+00
   endloop
 endfacet
 facet normal  5.000000e-01 -8.660254e-01  0.000000e+00
   outer loop
     vertex  2.170185e-01 -3.360104e-01  0.000000e+00
     vertex  1.824843e-01 -3.559487e-01  1.000000e+00
     vertex  1.824843e-01 -3.559487e-01  0.000000e+00
   endloop
 endfacet
 facet normal  5.000000e-01 -8.660254e-01  0.000000e+00
   outer loop
     vertex  2.170185e-01 -3.360104e-01  0.000000e+00
     vertex  2.170185e-01 -3.360104e-01  1.000000e+00
     vertex  1.824843e-01 -3.559487e-01  1.000000e+00
   endloop
 endfacet
 facet normal  5.837437e-01 -8.119380e-01  0.000000e+00
   outer loop
     vertex  2.170185e-01 -3.360104e-01  0.000000e+00
     vertex  2.493959e-01 -3.127326e-01  1.000000e+00
     vertex  2.170185e-01 -3.360104e-01  1.000000e+00
   endloop
 endfacet
 facet normal  5.837437e-01 -8.119380e-01  0.000000e+00
   outer loop
     vertex  2.493959e-01 -3.127326e-01  0.000000e+00
     vertex  2.493959e-01 -3.127326e-01  1.000000e+00
     vertex  2.170185e-01 -3.360104e-01  0.000000e+00
   endloop
 endfacet
 facet normal  6.616858e-01 -7.497812e-01  0.000000e+00
   outer loop
     vertex  2.792947e-01 -2.863467e-01  0.000000e+00
     vertex  2.493959e-01 -3.127326e-01  1.000000e+00
     vertex  2.493959e-01 -3.127326e-01  0.000000e+00
   endloop
 endfacet
 facet normal  6.616858e-01 -7.497812e-01  0.000000e+00
   outer loop
     vertex  2.792947e-01 -2.863467e-01  0.000000e+00
     vertex  2.792947e-01 -2.863467e-01  1.000000e+00
     vertex  2.493959e-01 -3.127326e-01  1.000000e+00
   endloop
 endfacet
 facet normal  7.330519e-01 -6.801727e-01  0.000000e+00
   outer loop
     vertex  2.792947e-01 -2.863467e-01  0.000000e+00
     vertex  3.064178e-01 -2.571150e-01  1.000000e+00
     vertex  2.792947e-01 -2.863467e-01  1.000000e+00
   endloop
 endfacet
 facet normal  7.330519e-01 -6.801727e-01  0.000000e+00
   outer loop
     vertex  3.064178e-01 -2.571150e-01  0.000000e+00
     vertex  3.064178e-01 -2.571150e-01  1.000000e+00
     vertex  2.792947e-01 -2.863467e-01  0.000000e+00
   endloop
 endfacet
 facet normal  7.971325e-01 -6.038044e-01  0.000000e+00
   outer loop
     vertex  3.304955e-01 -2.253280e-01  0.000000e+00
     vertex  3.304955e-01 -2.253280e-01  1.000000e+00
     vertex  3.064178e-01 -2.571150e-01  1.000000e+00
   endloop
 endfacet
 facet normal  7.971325e-01 -6.038044e-01  0.000000e+00
   outer loop
     vertex  3.304955e-01 -2.253280e-01  0.000000e+00
     vertex  3.064178e-01 -2.571150e-01  1.000000e+00
     vertex  3.064178e-01 -2.571150e-01  0.000000e+00
   endloop
 endfacet
 facet normal  8.532909e-01 -5.214352e-01  0.000000e+00
   outer loop
     vertex  3.512886e-01 -1.913016e-01  0.000000e+00
     vertex  3.512886e-01 -1.913016e-01  1.000000e+00
     vertex  3.304955e-01 -2.253280e-01  1.000000e+00
   endloop
 endfacet
 facet normal  9.009689e-01 -4.338837e-01  0.000000e+00
   outer loop
     vertex  3.512886e-01 -1.913016e-01  0.000000e+00
     vertex  3.685905e-01 -1.553739e-01  1.000000e+00
     vertex  3.512886e-01 -1.913016e-01  1.000000e+00
   endloop
 endfacet
 facet normal  8.532909e-01 -5.214352e-01  0.000000e+00
   outer loop
     vertex  3.512886e-01 -1.913016e-01  0.000000e+00
     vertex  3.304955e-01 -2.253280e-01  1.000000e+00
     vertex  3.304955e-01 -2.253280e-01  0.000000e+00
   endloop
 endfacet
 facet normal  9.009689e-01 -4.338837e-01  0.000000e+00
   outer loop
     vertex  3.685905e-01 -1.553739e-01  0.000000e+00
     vertex  3.685905e-01 -1.553739e-01  1.000000e+00
     vertex  3.512886e-01 -1.913016e-01  0.000000e+00
   endloop
 endfacet
 facet normal  9.396926e-01 -3.420201e-01  0.000000e+00
   outer loop
     vertex  3.822291e-01 -1.179021e-01  0.000000e+00
     vertex  3.822291e-01 -1.179021e-01  1.000000e+00
     vertex  3.685905e-01 -1.553739e-01  1.000000e+00
   endloop
 endfacet
 facet normal  9.690773e-01 -2.467574e-01  0.000000e+00
   outer loop
     vertex  3.822291e-01 -1.179021e-01  0.000000e+00
     vertex  3.920690e-01 -7.925846e-02  1.000000e+00
     vertex  3.822291e-01 -1.179021e-01  1.000000e+00
   endloop
 endfacet
 facet normal  9.396926e-01 -3.420201e-01  0.000000e+00
   outer loop
     vertex  3.822291e-01 -1.179021e-01  0.000000e+00
     vertex  3.685905e-01 -1.553739e-01  1.000000e+00
     vertex  3.685905e-01 -1.553739e-01  0.000000e+00
   endloop
 endfacet
 facet normal  9.690773e-01 -2.467574e-01  0.000000e+00
   outer loop
     vertex  3.920690e-01 -7.925846e-02  0.000000e+00
     vertex  3.920690e-01 -7.925846e-02  1.000000e+00
     vertex  3.822291e-01 -1.179021e-01  0.000000e+00
   endloop
 endfacet
 facet normal  9.888308e-01 -1.490423e-01  0.000000e+00
   outer loop
     vertex  3.980123e-01 -3.982714e-02  0.000000e+00
     vertex  3.980123e-01 -3.982714e-02  1.000000e+00
     vertex  3.920690e-01 -7.925846e-02  1.000000e+00
   endloop
 endfacet
 facet normal  9.888308e-01 -1.490423e-01  0.000000e+00
   outer loop
     vertex  3.980123e-01 -3.982714e-02  0.000000e+00
     vertex  3.920690e-01 -7.925846e-02  1.000000e+00
     vertex  3.920690e-01 -7.925846e-02  0.000000e+00
   endloop
 endfacet
 facet normal  9.987569e-01 -4.984589e-02  0.000000e+00
   outer loop
     vertex  4.000000e-01  0.000000e+00  0.000000e+00
     vertex  4.000000e-01  0.000000e+00  1.000000e+00
     vertex  3.980123e-01 -3.982714e-02  1.000000e+00
   endloop
 endfacet
 facet normal  9.987569e-01 -4.984589e-02  0.000000e+00
   outer loop
     vertex  4.000000e-01  0.000000e+00  0.000000e+00
     vertex  3.980123e-01 -3.982714e-02  1.000000e+00
     vertex  3.980123e-01 -3.982714e-02  0.000000e+00
   endloop
 endfacet
 facet normal  0.000000e+00  0.000000e+00 -1.000000e+00
   outer loop
     vertex  2.170185e-01 -3.360104e-01  0.000000e+00
     vertex  1.824843e-01 -3.559487e-01  0.000000e+00
     vertex  1.461364e-01 -3.723495e-01  0.000000e+00
   endloop
 endfacet
 facet normal  0.000000e+00  0.000000e+00 -1.000000e+00
   outer loop
     vertex  2.792947e-01 -2.863467e-01  0.000000e+00
     vertex  2.493959e-01 -3.127326e-01  0.000000e+00
     vertex  2.170185e-01 -3.360104e-01  0.000000e+00
   endloop
 endfacet
 facet normal  0.000000e+00  0.000000e+00 -1.000000e+00
   outer loop
     vertex  3.304955e-01 -2.253280e-01  0.000000e+00
     vertex  3.064178e-01 -2.571150e-01  0.000000e+00
     vertex  2.792947e-01 -2.863467e-01  0.000000e+00
   endloop
 endfacet
 facet normal  0.000000e+00  0.000000e+00 -1.000000e+00
   outer loop
     vertex  3.512886e-01 -1.913016e-01  0.000000e+00
     vertex  3.304955e-01 -2.253280e-01  0.000000e+00
     vertex  2.792947e-01 -2.863467e-01  0.000000e+00
   endloop
 endfacet
 facet normal  0.000000e+00  0.000000e+00 -1.000000e+00
   outer loop
     vertex  3.512886e-01 -1.913016e-01  0.000000e+00
     vertex  2.792947e-01 -2.863467e-01  0.000000e+00
     vertex  2.170185e-01 -3.360104e-01  0.000000e+00
   endloop
 endfacet
 facet normal  0.000000e+00  0.000000e+00 -1.000000e+00
   outer loop
     vertex -1.273947e-01  3.791709e-01  0.000000e+00
     vertex -2.000000e-01  3.464102e-01  0.000000e+00
     vertex -1.645148e-01  3.646023e-01  0.000000e+00
   endloop
 endfacet
 facet normal  0.000000e+00  0.000000e+00 -1.000000e+00
   outer loop
     vertex -1.273947e-01  3.791709e-01  0.000000e+00
     vertex -2.334975e-01  3.247752e-01  0.000000e+00
     vertex -2.000000e-01  3.464102e-01  0.000000e+00
   endloop
 endfacet
 facet normal  0.000000e+00  0.000000e+00 -1.000000e+00
   outer loop
     vertex -1.273947e-01  3.791709e-01  0.000000e+00
     vertex -2.646743e-01  2.999125e-01  0.000000e+00
     vertex -2.334975e-01  3.247752e-01  0.000000e+00
   endloop
 endfacet
 facet normal  0.000000e+00  0.000000e+00 -1.000000e+00
   outer loop
     vertex -1.273947e-01  3.791709e-01  0.000000e+00
     vertex -2.932207e-01  2.720691e-01  0.000000e+00
     vertex -2.646743e-01  2.999125e-01  0.000000e+00
   endloop
 endfacet
 facet normal  0.000000e+00  0.000000e+00 -1.000000e+00
   outer loop
     vertex  3.822291e-01 -1.179021e-01  0.000000e+00
     vertex  3.685905e-01 -1.553739e-01  0.000000e+00
     vertex  3.512886e-01 -1.913016e-01  0.000000e+00
   endloop
 endfacet
 facet normal  0.000000e+00  0.000000e+00 -1.000000e+00
   outer loop
     vertex  3.920690e-01 -7.925846e-02  0.000000e+00
     vertex  3.822291e-01 -1.179021e-01  0.000000e+00
     vertex  3.512886e-01 -1.913016e-01  0.000000e+00
   endloop
 endfacet
 facet normal  0.000000e+00  0.000000e+00 -1.000000e+00
   outer loop
     vertex -4.973748e-02  3.968957e-01  0.000000e+00
     vertex -1.273947e-01  3.791709e-01  0.000000e+00
     vertex -8.900837e-02  3.899712e-01  0.000000e+00
   endloop
 endfacet
 facet normal  0.000000e+00  0.000000e+00 -1.000000e+00
   outer loop
     vertex  3.980123e-01  3.982714e-02  0.000000e+00
     vertex  4.000000e-01  0.000000e+00  0.000000e+00
     vertex  3.980123e-01 -3.982714e-02  0.000000e+00
   endloop
 endfacet
 facet normal  0.000000e+00  0.000000e+00 -1.000000e+00
   outer loop
     vertex  1.461364e-01  3.723495e-01  0.000000e+00
     vertex  6.945927e-02  3.939231e-01  0.000000e+00
     vertex  1.083362e-01  3.850497e-01  0.000000e+00
   endloop
 endfacet
 facet normal  0.000000e+00  0.000000e+00 -1.000000e+00
   outer loop
     vertex  3.685905e-01  1.553739e-01  0.000000e+00
     vertex  3.822291e-01  1.179021e-01  0.000000e+00
     vertex  3.920690e-01  7.925846e-02  0.000000e+00
   endloop
 endfacet
 facet normal  0.000000e+00  0.000000e+00 -1.000000e+00
   outer loop
     vertex  3.304955e-01  2.253280e-01  0.000000e+00
     vertex  3.512886e-01  1.913016e-01  0.000000e+00
     vertex  3.685905e-01  1.553739e-01  0.000000e+00
   endloop
 endfacet
 facet normal  0.000000e+00  0.000000e+00 -1.000000e+00
   outer loop
     vertex  2.792947e-01  2.863467e-01  0.000000e+00
     vertex  3.920690e-01  7.925846e-02  0.000000e+00
     vertex  3.980123e-01  3.982714e-02  0.000000e+00
   endloop
 endfacet
 facet normal  0.000000e+00  0.000000e+00 -1.000000e+00
   outer loop
     vertex  2.792947e-01  2.863467e-01  0.000000e+00
     vertex  3.064178e-01  2.571150e-01  0.000000e+00
     vertex  3.304955e-01  2.253280e-01  0.000000e+00
   endloop
 endfacet
 facet normal  0.000000e+00  0.000000e+00 -1.000000e+00
   outer loop
     vertex  2.792947e-01  2.863467e-01  0.000000e+00
     vertex  2.170185e-01  3.360104e-01  0.000000e+00
     vertex  2.493959e-01  3.127326e-01  0.000000e+00
   endloop
 endfacet
 facet normal  0.000000e+00  0.000000e+00 -1.000000e+00
   outer loop
     vertex  2.792947e-01  2.863467e-01  0.000000e+00
     vertex  1.824843e-01  3.559487e-01  0.000000e+00
     vertex  2.170185e-01  3.360104e-01  0.000000e+00
   endloop
 endfacet
 facet normal  0.000000e+00  0.000000e+00 -1.000000e+00
   outer loop
     vertex  2.792947e-01  2.863467e-01  0.000000e+00
     vertex  1.461364e-01  3.723495e-01  0.000000e+00
     vertex  1.824843e-01  3.559487e-01  0.000000e+00
   endloop
 endfacet
 facet normal  0.000000e+00  0.000000e+00 -1.000000e+00
   outer loop
     vertex  2.792947e-01  2.863467e-01  0.000000e+00
     vertex  2.989204e-02  3.988815e-01  0.000000e+00
     vertex  6.945927e-02  3.939231e-01  0.000000e+00
   endloop
 endfacet
 facet normal  0.000000e+00  0.000000e+00 -1.000000e+00
   outer loop
     vertex  2.792947e-01  2.863467e-01  0.000000e+00
     vertex -9.972277e-03  3.998757e-01  0.000000e+00
     vertex  2.989204e-02  3.988815e-01  0.000000e+00
   endloop
 endfacet
 facet normal  0.000000e+00  0.000000e+00 -1.000000e+00
   outer loop
     vertex  2.792947e-01  2.863467e-01  0.000000e+00
     vertex -4.973748e-02  3.968957e-01  0.000000e+00
     vertex -9.972277e-03  3.998757e-01  0.000000e+00
   endloop
 endfacet
 facet normal  0.000000e+00  0.000000e+00 -1.000000e+00
   outer loop
     vertex  2.792947e-01  2.863467e-01  0.000000e+00
     vertex  2.170185e-01 -3.360104e-01  0.000000e+00
     vertex  1.461364e-01 -3.723495e-01  0.000000e+00
   endloop
 endfacet
 facet normal  0.000000e+00  0.000000e+00 -1.000000e+00
   outer loop
     vertex  2.792947e-01  2.863467e-01  0.000000e+00
     vertex -3.188530e-01  2.415218e-01  0.000000e+00
     vertex -2.932207e-01  2.720691e-01  0.000000e+00
   endloop
 endfacet
 facet normal  0.000000e+00  0.000000e+00 -1.000000e+00
   outer loop
     vertex  2.792947e-01  2.863467e-01  0.000000e+00
     vertex -3.413164e-01  2.085741e-01  0.000000e+00
     vertex -3.188530e-01  2.415218e-01  0.000000e+00
   endloop
 endfacet
 facet normal  0.000000e+00  0.000000e+00 -1.000000e+00
   outer loop
     vertex  2.792947e-01  2.863467e-01  0.000000e+00
     vertex -3.603875e-01  1.735535e-01  0.000000e+00
     vertex -3.413164e-01  2.085741e-01  0.000000e+00
   endloop
 endfacet
 facet normal  0.000000e+00  0.000000e+00 -1.000000e+00
   outer loop
     vertex  2.792947e-01  2.863467e-01  0.000000e+00
     vertex -3.758770e-01  1.368081e-01  0.000000e+00
     vertex -3.603875e-01  1.735535e-01  0.000000e+00
   endloop
 endfacet
 facet normal  0.000000e+00  0.000000e+00 -1.000000e+00
   outer loop
     vertex  2.792947e-01  2.863467e-01  0.000000e+00
     vertex -3.876309e-01  9.870296e-02  0.000000e+00
     vertex -3.758770e-01  1.368081e-01  0.000000e+00
   endloop
 endfacet
 facet normal  0.000000e+00  0.000000e+00 -1.000000e+00
   outer loop
     vertex  2.792947e-01  2.863467e-01  0.000000e+00
     vertex -3.955323e-01  5.961691e-02  0.000000e+00
     vertex -3.876309e-01  9.870296e-02  0.000000e+00
   endloop
 endfacet
 facet normal  0.000000e+00  0.000000e+00 -1.000000e+00
   outer loop
     vertex  2.792947e-01  2.863467e-01  0.000000e+00
     vertex -3.995028e-01  1.993835e-02  0.000000e+00
     vertex -3.955323e-01  5.961691e-02  0.000000e+00
   endloop
 endfacet
 facet normal  0.000000e+00  0.000000e+00 -1.000000e+00
   outer loop
     vertex  2.792947e-01  2.863467e-01  0.000000e+00
     vertex -3.995028e-01 -1.993835e-02  0.000000e+00
     vertex -3.995028e-01  1.993835e-02  0.000000e+00
   endloop
 endfacet
 facet normal  0.000000e+00  0.000000e+00 -1.000000e+00
   outer loop
     vertex  2.792947e-01  2.863467e-01  0.000000e+00
     vertex -3.955323e-01 -5.961691e-02  0.000000e+00
     vertex -3.995028e-01 -1.993835e-02  0.000000e+00
   endloop
 endfacet
 facet normal  0.000000e+00  0.000000e+00 -1.000000e+00
   outer loop
     vertex  2.792947e-01  2.863467e-01  0.000000e+00
     vertex -3.876309e-01 -9.870296e-02  0.000000e+00
     vertex -3.955323e-01 -5.961691e-02  0.000000e+00
   endloop
 endfacet
 facet normal  0.000000e+00  0.000000e+00 -1.000000e+00
   outer loop
     vertex  2.792947e-01  2.863467e-01  0.000000e+00
     vertex -3.758770e-01 -1.368081e-01  0.000000e+00
     vertex -3.876309e-01 -9.870296e-02  0.000000e+00
   endloop
 endfacet
 facet normal  0.000000e+00  0.000000e+00 -1.000000e+00
   outer loop
     vertex  2.792947e-01  2.863467e-01  0.000000e+00
     vertex -3.603875e-01 -1.735535e-01  0.000000e+00
     vertex -3.758770e-01 -1.368081e-01  0.000000e+00
   endloop
 endfacet
 facet normal  0.000000e+00  0.000000e+00 -1.000000e+00
   outer loop
     vertex  2.792947e-01  2.863467e-01  0.000000e+00
     vertex  3.920690e-01 -7.925846e-02  0.000000e+00
     vertex  3.512886e-01 -1.913016e-01  0.000000e+00
   endloop
 endfacet
 facet normal  0.000000e+00  0.000000e+00 -1.000000e+00
   outer loop
     vertex  2.792947e-01  2.863467e-01  0.000000e+00
     vertex -3.413164e-01 -2.085741e-01  0.000000e+00
     vertex -3.603875e-01 -1.735535e-01  0.000000e+00
   endloop
 endfacet
 facet normal  0.000000e+00  0.000000e+00 -1.000000e+00
   outer loop
     vertex  2.792947e-01  2.863467e-01  0.000000e+00
     vertex -3.188530e-01 -2.415218e-01  0.000000e+00
     vertex -3.413164e-01 -2.085741e-01  0.000000e+00
   endloop
 endfacet
 facet normal  0.000000e+00  0.000000e+00 -1.000000e+00
   outer loop
     vertex  2.792947e-01  2.863467e-01  0.000000e+00
     vertex -2.932207e-01 -2.720691e-01  0.000000e+00
     vertex -3.188530e-01 -2.415218e-01  0.000000e+00
   endloop
 endfacet
 facet normal  0.000000e+00 -0.000000e+00 -1.000000e+00
   outer loop
     vertex  2.792947e-01  2.863467e-01  0.000000e+00
     vertex  3.512886e-01 -1.913016e-01  0.000000e+00
     vertex  2.170185e-01 -3.360104e-01  0.000000e+00
   endloop
 endfacet
 facet normal  0.000000e+00  0.000000e+00 -1.000000e+00
   outer loop
     vertex  2.792947e-01  2.863467e-01  0.000000e+00
     vertex -2.646743e-01 -2.999125e-01  0.000000e+00
     vertex -2.932207e-01 -2.720691e-01  0.000000e+00
   endloop
 endfacet
 facet normal  0.000000e+00  0.000000e+00 -1.000000e+00
   outer loop
     vertex  2.792947e-01  2.863467e-01  0.000000e+00
     vertex -2.334975e-01 -3.247752e-01  0.000000e+00
     vertex -2.646743e-01 -2.999125e-01  0.000000e+00
   endloop
 endfacet
 facet normal  0.000000e+00  0.000000e+00 -1.000000e+00
   outer loop
     vertex  2.792947e-01  2.863467e-01  0.000000e+00
     vertex -2.000000e-01 -3.464102e-01  0.000000e+00
     vertex -2.334975e-01 -3.247752e-01  0.000000e+00
   endloop
 endfacet
 facet normal  0.000000e+00  0.000000e+00 -1.000000e+00
   outer loop
     vertex  2.792947e-01  2.863467e-01  0.000000e+00
     vertex -1.645148e-01 -3.646023e-01  0.000000e+00
     vertex -2.000000e-01 -3.464102e-01  0.000000e+00
   endloop
 endfacet
 facet normal  0.000000e+00  0.000000e+00 -1.000000e+00
   outer loop
     vertex  2.792947e-01  2.863467e-01  0.000000e+00
     vertex -1.273947e-01 -3.791709e-01  0.000000e+00
     vertex -1.645148e-01 -3.646023e-01  0.000000e+00
   endloop
 endfacet
 facet normal  0.000000e+00  0.000000e+00 -1.000000e+00
   outer loop
     vertex  2.792947e-01  2.863467e-01  0.000000e+00
     vertex -8.900837e-02 -3.899712e-01  0.000000e+00
     vertex -1.273947e-01 -3.791709e-01  0.000000e+00
   endloop
 endfacet
 facet normal  0.000000e+00  0.000000e+00 -1.000000e+00
   outer loop
     vertex  2.792947e-01  2.863467e-01  0.000000e+00
     vertex -4.973748e-02 -3.968957e-01  0.000000e+00
     vertex -8.900837e-02 -3.899712e-01  0.000000e+00
   endloop
 endfacet
 facet normal  0.000000e+00  0.000000e+00 -1.000000e+00
   outer loop
     vertex  2.792947e-01  2.863467e-01  0.000000e+00
     vertex -9.972277e-03 -3.998757e-01  0.000000e+00
     vertex -4.973748e-02 -3.968957e-01  0.000000e+00
   endloop
 endfacet
 facet normal  0.000000e+00  0.000000e+00 -1.000000e+00
   outer loop
     vertex  2.792947e-01  2.863467e-01  0.000000e+00
     vertex  2.989204e-02 -3.988815e-01  0.000000e+00
     vertex -9.972277e-03 -3.998757e-01  0.000000e+00
   endloop
 endfacet
 facet normal  0.000000e+00  0.000000e+00 -1.000000e+00
   outer loop
     vertex  2.792947e-01  2.863467e-01  0.000000e+00
     vertex  6.945927e-02 -3.939231e-01  0.000000e+00
     vertex  2.989204e-02 -3.988815e-01  0.000000e+00
   endloop
 endfacet
 facet normal  0.000000e+00  0.000000e+00 -1.000000e+00
   outer loop
     vertex  2.792947e-01  2.863467e-01  0.000000e+00
     vertex  1.083362e-01 -3.850497e-01  0.000000e+00
     vertex  6.945927e-02 -3.939231e-01  0.000000e+00
   endloop
 endfacet
 facet normal  0.000000e+00  0.000000e+00 -1.000000e+00
   outer loop
     vertex  2.792947e-01  2.863467e-01  0.000000e+00
     vertex  1.461364e-01 -3.723495e-01  0.000000e+00
     vertex  1.083362e-01 -3.850497e-01  0.000000e+00
   endloop
 endfacet
 facet normal  0.000000e+00  0.000000e+00 -1.000000e+00
   outer loop
     vertex  2.792947e-01  2.863467e-01  0.000000e+00
     vertex -1.273947e-01  3.791709e-01  0.000000e+00
     vertex -4.973748e-02  3.968957e-01  0.000000e+00
   endloop
 endfacet
 facet normal  0.000000e+00  0.000000e+00 -1.000000e+00
   outer loop
     vertex  2.792947e-01  2.863467e-01  0.000000e+00
     vertex  3.980123e-01 -3.982714e-02  0.000000e+00
     vertex  3.920690e-01 -7.925846e-02  0.000000e+00
   endloop
 endfacet
 facet normal  0.000000e+00  0.000000e+00 -1.000000e+00
   outer loop
     vertex  2.792947e-01  2.863467e-01  0.000000e+00
     vertex  3.980123e-01  3.982714e-02  0.000000e+00
     vertex  3.980123e-01 -3.982714e-02  0.000000e+00
   endloop
 endfacet
 facet normal  0.000000e+00  0.000000e+00 -1.000000e+00
   outer loop
     vertex  2.792947e-01  2.863467e-01  0.000000e+00
     vertex  3.685905e-01  1.553739e-01  0.000000e+00
     vertex  3.920690e-01  7.925846e-02  0.000000e+00
   endloop
 endfacet
 facet normal  0.000000e+00  0.000000e+00 -1.000000e+00
   outer loop
     vertex  2.792947e-01  2.863467e-01  0.000000e+00
     vertex  6.945927e-02  3.939231e-01  0.000000e+00
     vertex  1.461364e-01  3.723495e-01  0.000000e+00
   endloop
 endfacet
 facet normal  0.000000e+00  0.000000e+00 -1.000000e+00
   outer loop
     vertex  2.792947e-01  2.863467e-01  0.000000e+00
     vertex  3.304955e-01  2.253280e-01  0.000000e+00
     vertex  3.685905e-01  1.553739e-01  0.000000e+00
   endloop
 endfacet
 facet normal -0.000000e+00  0.000000e+00 -1.000000e+00
   outer loop
     vertex  2.792947e-01  2.863467e-01  0.000000e+00
     vertex -2.932207e-01  2.720691e-01  0.000000e+00
     vertex -1.273947e-01  3.791709e-01  0.000000e+00
   endloop
 endfacet
 facet normal  0.000000e+00  0.000000e+00  1.000000e+00
   outer loop
     vertex  2.170185e-01 -3.360104e-01  1.000000e+00
     vertex  1.461364e-01 -3.723495e-01  1.000000e+00
     vertex  1.824843e-01 -3.559487e-01  1.000000e+00
   endloop
 endfacet
 facet normal  0.000000e+00  0.000000e+00  1.000000e+00
   outer loop
     vertex  2.792947e-01 -2.863467e-01  1.000000e+00
     vertex  2.170185e-01 -3.360104e-01  1.000000e+00
     vertex  2.493959e-01 -3.127326e-01  1.000000e+00
   endloop
 endfacet
 facet normal  0.000000e+00  0.000000e+00  1.000000e+00
   outer loop
     vertex  3.304955e-01 -2.253280e-01  1.000000e+00
     vertex  2.792947e-01 -2.863467e-01  1.000000e+00
     vertex  3.064178e-01 -2.571150e-01  1.000000e+00
   endloop
 endfacet
 facet normal  0.000000e+00  0.000000e+00  1.000000e+00
   outer loop
     vertex  3.512886e-01 -1.913016e-01  1.000000e+00
     vertex  2.792947e-01 -2.863467e-01  1.000000e+00
     vertex  3.304955e-01 -2.253280e-01  1.000000e+00
   endloop
 endfacet
 facet normal  0.000000e+00  0.000000e+00  1.000000e+00
   outer loop
     vertex  3.512886e-01 -1.913016e-01  1.000000e+00
     vertex  2.170185e-01 -3.360104e-01  1.000000e+00
     vertex  2.792947e-01 -2.863467e-01  1.000000e+00
   endloop
 endfacet
 facet normal  0.000000e+00  0.000000e+00  1.000000e+00
   outer loop
     vertex -1.273947e-01  3.791709e-01  1.000000e+00
     vertex -1.645148e-01  3.646023e-01  1.000000e+00
     vertex -2.000000e-01  3.464102e-01  1.000000e+00
   endloop
 endfacet
 facet normal  0.000000e+00  0.000000e+00  1.000000e+00
   outer loop
     vertex -1.273947e-01  3.791709e-01  1.000000e+00
     vertex -2.000000e-01  3.464102e-01  1.000000e+00
     vertex -2.334975e-01  3.247752e-01  1.000000e+00
   endloop
 endfacet
 facet normal  0.000000e+00  0.000000e+00  1.000000e+00
   outer loop
     vertex -1.273947e-01  3.791709e-01  1.000000e+00
     vertex -2.334975e-01  3.247752e-01  1.000000e+00
     vertex -2.646743e-01  2.999125e-01  1.000000e+00
   endloop
 endfacet
 facet normal  0.000000e+00  0.000000e+00  1.000000e+00
   outer loop
     vertex -1.273947e-01  3.791709e-01  1.000000e+00
     vertex -2.646743e-01  2.999125e-01  1.000000e+00
     vertex -2.932207e-01  2.720691e-01  1.000000e+00
   endloop
 endfacet
 facet normal  0.000000e+00  0.000000e+00  1.000000e+00
   outer loop
     vertex  3.822291e-01 -1.179021e-01  1.000000e+00
     vertex  3.512886e-01 -1.913016e-01  1.000000e+00
     vertex  3.685905e-01 -1.553739e-01  1.000000e+00
   endloop
 endfacet
 facet normal  0.000000e+00  0.000000e+00  1.000000e+00
   outer loop
     vertex  3.920690e-01 -7.925846e-02  1.000000e+00
     vertex  3.512886e-01 -1.913016e-01  1.000000e+00
     vertex  3.822291e-01 -1.179021e-01  1.000000e+00
   endloop
 endfacet
 facet normal  0.000000e+00  0.000000e+00  1.000000e+00
   outer loop
     vertex -4.973748e-02  3.968957e-01  1.000000e+00
     vertex -8.900837e-02  3.899712e-01  1.000000e+00
     vertex -1.273947e-01  3.791709e-01  1.000000e+00
   endloop
 endfacet
 facet normal  0.000000e+00  0.000000e+00  1.000000e+00
   outer loop
     vertex  3.980123e-01  3.982714e-02  1.000000e+00
     vertex  3.980123e-01 -3.982714e-02  1.000000e+00
     vertex  4.000000e-01  0.000000e+00  1.000000e+00
   endloop
 endfacet
 facet normal  0.000000e+00  0.000000e+00  1.000000e+00
   outer loop
     vertex  1.461364e-01  3.723495e-01  1.000000e+00
     vertex  1.083362e-01  3.850497e-01  1.000000e+00
     vertex  6.945927e-02  3.939231e-01  1.000000e+00
   endloop
 endfacet
 facet normal  0.000000e+00  0.000000e+00  1.000000e+00
   outer loop
     vertex  3.685905e-01  1.553739e-01  1.000000e+00
     vertex  3.920690e-01  7.925846e-02  1.000000e+00
     vertex  3.822291e-01  1.179021e-01  1.000000e+00
   endloop
 endfacet
 facet normal  0.000000e+00  0.000000e+00  1.000000e+00
   outer loop
     vertex  3.304955e-01  2.253280e-01  1.000000e+00
     vertex  3.685905e-01  1.553739e-01  1.000000e+00
     vertex  3.512886e-01  1.913016e-01  1.000000e+00
   endloop
 endfacet
 facet normal  0.000000e+00  0.000000e+00  1.000000e+00
   outer loop
     vertex  2.792947e-01  2.863467e-01  1.000000e+00
     vertex  3.980123e-01  3.982714e-02  1.000000e+00
     vertex  3.920690e-01  7.925846e-02  1.000000e+00
   endloop
 endfacet
 facet normal  0.000000e+00  0.000000e+00  1.000000e+00
   outer loop
     vertex  2.792947e-01  2.863467e-01  1.000000e+00
     vertex  3.304955e-01  2.253280e-01  1.000000e+00
     vertex  3.064178e-01  2.571150e-01  1.000000e+00
   endloop
 endfacet
 facet normal  0.000000e+00  0.000000e+00  1.000000e+00
   outer loop
     vertex  2.792947e-01  2.863467e-01  1.000000e+00
     vertex  2.493959e-01  3.127326e-01  1.000000e+00
     vertex  2.170185e-01  3.360104e-01  1.000000e+00
   endloop
 endfacet
 facet normal  0.000000e+00  0.000000e+00  1.000000e+00
   outer loop
     vertex  2.792947e-01  2.863467e-01  1.000000e+00
     vertex  2.170185e-01  3.360104e-01  1.000000e+00
     vertex  1.824843e-01  3.559487e-01  1.000000e+00
   endloop
 endfacet
 facet normal  0.000000e+00  0.000000e+00  1.000000e+00
   outer loop
     vertex  2.792947e-01  2.863467e-01  1.000000e+00
     vertex  1.824843e-01  3.559487e-01  1.000000e+00
     vertex  1.461364e-01  3.723495e-01  1.000000e+00
   endloop
 endfacet
 facet normal  0.000000e+00  0.000000e+00  1.000000e+00
   outer loop
     vertex  2.792947e-01  2.863467e-01  1.000000e+00
     vertex  6.945927e-02  3.939231e-01  1.000000e+00
     vertex  2.989204e-02  3.988815e-01  1.000000e+00
   endloop
 endfacet
 facet normal  0.000000e+00  0.000000e+00  1.000000e+00
   outer loop
     vertex  2.792947e-01  2.863467e-01  1.000000e+00
     vertex  2.989204e-02  3.988815e-01  1.000000e+00
     vertex -9.972277e-03  3.998757e-01  1.000000e+00
   endloop
 endfacet
 facet normal  0.000000e+00  0.000000e+00  1.000000e+00
   outer loop
     vertex  2.792947e-01  2.863467e-01  1.000000e+00
     vertex -9.972277e-03  3.998757e-01  1.000000e+00
     vertex -4.973748e-02  3.968957e-01  1.000000e+00
   endloop
 endfacet
 facet normal  0.000000e+00  0.000000e+00  1.000000e+00
   outer loop
     vertex  2.792947e-01  2.863467e-01  1.000000e+00
     vertex  1.461364e-01 -3.723495e-01  1.000000e+00
     vertex  2.170185e-01 -3.360104e-01  1.000000e+00
   endloop
 endfacet
 facet normal  0.000000e+00  0.000000e+00  1.000000e+00
   outer loop
     vertex  2.792947e-01  2.863467e-01  1.000000e+00
     vertex -2.932207e-01  2.720691e-01  1.000000e+00
     vertex -3.188530e-01  2.415218e-01  1.000000e+00
   endloop
 endfacet
 facet normal  0.000000e+00  0.000000e+00  1.000000e+00
   outer loop
     vertex  2.792947e-01  2.863467e-01  1.000000e+00
     vertex -3.188530e-01  2.415218e-01  1.000000e+00
     vertex -3.413164e-01  2.085741e-01  1.000000e+00
   endloop
 endfacet
 facet normal  0.000000e+00  0.000000e+00  1.000000e+00
   outer loop
     vertex  2.792947e-01  2.863467e-01  1.000000e+00
     vertex -3.413164e-01  2.085741e-01  1.000000e+00
     vertex -3.603875e-01  1.735535e-01  1.000000e+00
   endloop
 endfacet
 facet normal  0.000000e+00  0.000000e+00  1.000000e+00
   outer loop
     vertex  2.792947e-01  2.863467e-01  1.000000e+00
     vertex -3.603875e-01  1.735535e-01  1.000000e+00
     vertex -3.758770e-01  1.368081e-01  1.000000e+00
   endloop
 endfacet
 facet normal  0.000000e+00  0.000000e+00  1.000000e+00
   outer loop
     vertex  2.792947e-01  2.863467e-01  1.000000e+00
     vertex -3.758770e-01  1.368081e-01  1.000000e+00
     vertex -3.876309e-01  9.870296e-02  1.000000e+00
   endloop
 endfacet
 facet normal  0.000000e+00  0.000000e+00  1.000000e+00
   outer loop
     vertex  2.792947e-01  2.863467e-01  1.000000e+00
     vertex -3.876309e-01  9.870296e-02  1.000000e+00
     vertex -3.955323e-01  5.961691e-02  1.000000e+00
   endloop
 endfacet
 facet normal  0.000000e+00  0.000000e+00  1.000000e+00
   outer loop
     vertex  2.792947e-01  2.863467e-01  1.000000e+00
     vertex -3.955323e-01  5.961691e-02  1.000000e+00
     vertex -3.995028e-01  1.993835e-02  1.000000e+00
   endloop
 endfacet
 facet normal  0.000000e+00  0.000000e+00  1.000000e+00
   outer loop
     vertex  2.792947e-01  2.863467e-01  1.000000e+00
     vertex -3.995028e-01  1.993835e-02  1.000000e+00
     vertex -3.995028e-01 -1.993835e-02  1.000000e+00
   endloop
 endfacet
 facet normal  0.000000e+00  0.000000e+00  1.000000e+00
   outer loop
     vertex  2.792947e-01  2.863467e-01  1.000000e+00
     vertex -3.995028e-01 -1.993835e-02  1.000000e+00
     vertex -3.955323e-01 -5.961691e-02  1.000000e+00
   endloop
 endfacet
 facet normal  0.000000e+00  0.000000e+00  1.000000e+00
   outer loop
     vertex  2.792947e-01  2.863467e-01  1.000000e+00
     vertex -3.955323e-01 -5.961691e-02  1.000000e+00
     vertex -3.876309e-01 -9.870296e-02  1.000000e+00
   endloop
 endfacet
 facet normal  0.000000e+00  0.000000e+00  1.000000e+00
   outer loop
     vertex  2.792947e-01  2.863467e-01  1.000000e+00
     vertex -3.876309e-01 -9.870296e-02  1.000000e+00
     vertex -3.758770e-01 -1.368081e-01  1.000000e+00
   endloop
 endfacet
 facet normal  0.000000e+00  0.000000e+00  1.000000e+00
   outer loop
     vertex  2.792947e-01  2.863467e-01  1.000000e+00
     vertex -3.758770e-01 -1.368081e-01  1.000000e+00
     vertex -3.603875e-01 -1.735535e-01  1.000000e+00
   endloop
 endfacet
 facet normal  0.000000e+00  0.000000e+00  1.000000e+00
   outer loop
     vertex  2.792947e-01  2.863467e-01  1.000000e+00
     vertex  3.512886e-01 -1.913016e-01  1.000000e+00
     vertex  3.920690e-01 -7.925846e-02  1.000000e+00
   endloop
 endfacet
 facet normal  0.000000e+00  0.000000e+00  1.000000e+00
   outer loop
     vertex  2.792947e-01  2.863467e-01  1.000000e+00
     vertex -3.603875e-01 -1.735535e-01  1.000000e+00
     vertex -3.413164e-01 -2.085741e-01  1.000000e+00
   endloop
 endfacet
 facet normal  0.000000e+00  0.000000e+00  1.000000e+00
   outer loop
     vertex  2.792947e-01  2.863467e-01  1.000000e+00
     vertex -3.413164e-01 -2.085741e-01  1.000000e+00
     vertex -3.188530e-01 -2.415218e-01  1.000000e+00
   endloop
 endfacet
 facet normal  0.000000e+00  0.000000e+00  1.000000e+00
   outer loop
     vertex  2.792947e-01  2.863467e-01  1.000000e+00
     vertex -3.188530e-01 -2.415218e-01  1.000000e+00
     vertex -2.932207e-01 -2.720691e-01  1.000000e+00
   endloop
 endfacet
 facet normal  0.000000e+00  0.000000e+00  1.000000e+00
   outer loop
     vertex  2.792947e-01  2.863467e-01  1.000000e+00
     vertex  2.170185e-01 -3.360104e-01  1.000000e+00
     vertex  3.512886e-01 -1.913016e-01  1.000000e+00
   endloop
 endfacet
 facet normal  0.000000e+00  0.000000e+00  1.000000e+00
   outer loop
     vertex  2.792947e-01  2.863467e-01  1.000000e+00
     vertex -2.932207e-01 -2.720691e-01  1.000000e+00
     vertex -2.646743e-01 -2.999125e-01  1.000000e+00
   endloop
 endfacet
 facet normal  0.000000e+00  0.000000e+00  1.000000e+00
   outer loop
     vertex  2.792947e-01  2.863467e-01  1.000000e+00
     vertex -2.646743e-01 -2.999125e-01  1.000000e+00
     vertex -2.334975e-01 -3.247752e-01  1.000000e+00
   endloop
 endfacet
 facet normal  0.000000e+00  0.000000e+00  1.000000e+00
   outer loop
     vertex  2.792947e-01  2.863467e-01  1.000000e+00
     vertex -2.334975e-01 -3.247752e-01  1.000000e+00
     vertex -2.000000e-01 -3.464102e-01  1.000000e+00
   endloop
 endfacet
 facet normal  0.000000e+00  0.000000e+00  1.000000e+00
   outer loop
     vertex  2.792947e-01  2.863467e-01  1.000000e+00
     vertex -2.000000e-01 -3.464102e-01  1.000000e+00
     vertex -1.645148e-01 -3.646023e-01  1.000000e+00
   endloop
 endfacet
 facet normal  0.000000e+00  0.000000e+00  1.000000e+00
   outer loop
     vertex  2.792947e-01  2.863467e-01  1.000000e+00
     vertex -1.645148e-01 -3.646023e-01  1.000000e+00
     vertex -1.273947e-01 -3.791709e-01  1.000000e+00
   endloop
 endfacet
 facet normal  0.000000e+00  0.000000e+00  1.000000e+00
   outer loop
     vertex  2.792947e-01  2.863467e-01  1.000000e+00
     vertex -1.273947e-01 -3.791709e-01  1.000000e+00
     vertex -8.900837e-02 -3.899712e-01  1.000000e+00
   endloop
 endfacet
 facet normal  0.000000e+00  0.000000e+00  1.000000e+00
   outer loop
     vertex  2.792947e-01  2.863467e-01  1.000000e+00
     vertex -8.900837e-02 -3.899712e-01  1.000000e+00
     vertex -4.973748e-02 -3.968957e-01  1.000000e+00
   endloop
 endfacet
 facet normal  0.000000e+00  0.000000e+00  1.000000e+00
   outer loop
     vertex  2.792947e-01  2.863467e-01  1.000000e+00
     vertex -4.973748e-02 -3.968957e-01  1.000000e+00
     vertex -9.972277e-03 -3.998757e-01  1.000000e+00
   endloop
 endfacet
 facet normal  0.000000e+00  0.000000e+00  1.000000e+00
   outer loop
     vertex  2.792947e-01  2.863467e-01  1.000000e+00
     vertex -9.972277e-03 -3.998757e-01  1.000000e+00
     vertex  2.989204e-02 -3.988815e-01  1.000000e+00
   endloop
 endfacet
 facet normal  0.000000e+00  0.000000e+00  1.000000e+00
   outer loop
     vertex  2.792947e-01  2.863467e-01  1.000000e+00
     vertex  2.989204e-02 -3.988815e-01  1.000000e+00
     vertex  6.945927e-02 -3.939231e-01  1.000000e+00
   endloop
 endfacet
 facet normal  0.000000e+00  0.000000e+00  1.000000e+00
   outer loop
     vertex  2.792947e-01  2.863467e-01  1.000000e+00
     vertex  6.945927e-02 -3.939231e-01  1.000000e+00
     vertex  1.083362e-01 -3.850497e-01  1.000000e+00
   endloop
 endfacet
 facet normal  0.000000e+00  0.000000e+00  1.000000e+00
   outer loop
     vertex  2.792947e-01  2.863467e-01  1.000000e+00
     vertex  1.083362e-01 -3.850497e-01  1.000000e+00
     vertex  1.461364e-01 -3.723495e-01  1.000000e+00
   endloop
 endfacet
 facet normal  0.000000e+00  0.000000e+00  1.000000e+00
   outer loop
     vertex  2.792947e-01  2.863467e-01  1.000000e+00
     vertex -4.973748e-02  3.968957e-01  1.000000e+00
     vertex -1.273947e-01  3.791709e-01  1.000000e+00
   endloop
 endfacet
 facet normal  0.000000e+00  0.000000e+00  1.000000e+00
   outer loop
     vertex  2.792947e-01  2.863467e-01  1.000000e+00
     vertex  3.920690e-01 -7.925846e-02  1.000000e+00
     vertex  3.980123e-01 -3.982714e-02  1.000000e+00
   endloop
 endfacet
 facet normal  0.000000e+00  0.000000e+00  1.000000e+00
   outer loop
     vertex  2.792947e-01  2.863467e-01  1.000000e+00
     vertex  3.980123e-01 -3.982714e-02  1.000000e+00
     vertex  3.980123e-01  3.982714e-02  1.000000e+00
   endloop
 endfacet
 facet normal  0.000000e+00  0.000000e+00  1.000000e+00
   outer loop
     vertex  2.792947e-01  2.863467e-01  1.000000e+00
     vertex  3.920690e-01  7.925846e-02  1.000000e+00
     vertex  3.685905e-01  1.553739e-01  1.000000e+00
   endloop
 endfacet
 facet normal  0.000000e+00  0.000000e+00  1.000000e+00
   outer loop
     vertex  2.792947e-01  2.863467e-01  1.000000e+00
     vertex  1.461364e-01  3.723495e-01  1.000000e+00
     vertex  6.945927e-02  3.939231e-01  1.000000e+00
   endloop
 endfacet
 facet normal  0.000000e+00  0.000000e+00  1.000000e+00
   outer loop
     vertex  2.792947e-01  2.863467e-01  1.000000e+00
     vertex  3.685905e-01  1.553739e-01  1.000000e+00
     vertex  3.304955e-01  2.253280e-01  1.000000e+00
   endloop
 endfacet
 facet normal  0.000000e+00  0.000000e+00  1.000000e+00
   outer loop
     vertex  2.792947e-01  2.863467e-01  1.000000e+00
     vertex -1.273947e-01  3.791709e-01  1.000000e+00
     vertex -2.932207e-01  2.720691e-01  1.000000e+00
   endloop
 endfacet
endsolid
