solid 
 facet normal  0.000000e+00  1.000000e+00  0.000000e+00
   outer loop
     vertex -9.800000e-01  9.800000e-01  0.000000e+00
     vertex  9.800000e-01  9.800000e-01  2.450000e-01
     vertex  9.800000e-01  9.800000e-01  0.000000e+00
   endloop
 endfacet
 facet normal  0.000000e+00  1.000000e+00  0.000000e+00
   outer loop
     vertex -9.800000e-01  9.800000e-01  0.000000e+00
     vertex -9.800000e-01  9.800000e-01  2.450000e-01
     vertex  9.800000e-01  9.800000e-01  2.450000e-01
   endloop
 endfacet
 facet normal  1.000000e+00  0.000000e+00  0.000000e+00
   outer loop
     vertex  9.800000e-01 -9.800000e-01  0.000000e+00
     vertex  9.800000e-01  9.800000e-01  0.000000e+00
     vertex  9.800000e-01  9.800000e-01  2.450000e-01
   endloop
 endfacet
 facet normal  1.000000e+00  0.000000e+00  0.000000e+00
   outer loop
     vertex  9.800000e-01 -9.800000e-01  0.000000e+00
     vertex  9.800000e-01  9.800000e-01  2.450000e-01
     vertex  9.800000e-01 -9.800000e-01  2.450000e-01
   endloop
 endfacet
 facet normal -1.000000e+00  0.000000e+00  0.000000e+00
   outer loop
     vertex -9.800000e-01 -9.800000e-01  0.000000e+00
     vertex -9.800000e-01  9.800000e-01  2.450000e-01
     vertex -9.800000e-01  9.800000e-01  0.000000e+00
   endloop
 endfacet
 facet normal -1.000000e+00  0.000000e+00  0.000000e+00
   outer loop
     vertex -9.800000e-01 -9.800000e-01  0.000000e+00
     vertex -9.800000e-01 -9.800000e-01  2.450000e-01
     vertex -9.800000e-01  9.800000e-01  2.450000e-01
   endloop
 endfacet
 facet normal  0.000000e+00 -1.000000e+00  0.000000e+00
   outer loop
     vertex -9.800000e-01 -9.800000e-01  0.000000e+00
     vertex  9.800000e-01 -9.800000e-01  0.000000e+00
     vertex  9.800000e-01 -9.800000e-01  2.450000e-01
   endloop
 endfacet
 facet normal  0.000000e+00 -1.000000e+00  0.000000e+00
   outer loop
     vertex -9.800000e-01 -9.800000e-01  0.000000e+00
     vertex  9.800000e-01 -9.800000e-01  2.450000e-01
     vertex -9.800000e-01 -9.800000e-01  2.450000e-01
   endloop
 endfacet
 facet normal -9.951847e-01 -9.801714e-02  0.000000e+00
   outer loop
     vertex  9.807853e-02  1.950903e-02  0.000000e+00
     vertex  1.000000e-01  0.000000e+00  0.000000e+00
     vertex  1.000000e-01  0.000000e+00  2.450000e-01
   endloop
 endfacet
 facet normal -9.951847e-01 -9.801714e-02  0.000000e+00
   outer loop
     vertex  9.807853e-02  1.950903e-02  0.000000e+00
     vertex  1.000000e-01  0.000000e+00  2.450000e-01
     vertex  9.807853e-02  1.950903e-02  2.450000e-01
   endloop
 endfacet
 facet normal -9.569403e-01 -2.902847e-01  0.000000e+00
   outer loop
     vertex  9.238795e-02  3.826834e-02  0.000000e+00
     vertex  9.807853e-02  1.950903e-02  2.450000e-01
     vertex  9.238795e-02  3.826834e-02  2.450000e-01
   endloop
 endfacet
 facet normal -9.569403e-01 -2.902847e-01  0.000000e+00
   outer loop
     vertex  9.238795e-02  3.826834e-02  0.000000e+00
     vertex  9.807853e-02  1.950903e-02  0.000000e+00
     vertex  9.807853e-02  1.950903e-02  2.450000e-01
   endloop
 endfacet
 facet normal -8.819213e-01 -4.713967e-01  0.000000e+00
   outer loop
     vertex  8.314696e-02  5.555702e-02  0.000000e+00
     vertex  9.238795e-02  3.826834e-02  2.450000e-01
     vertex  8.314696e-02  5.555702e-02  2.450000e-01
   endloop
 endfacet
 facet normal -8.819213e-01 -4.713967e-01  0.000000e+00
   outer loop
     vertex  8.314696e-02  5.555702e-02  0.000000e+00
     vertex  9.238795e-02  3.826834e-02  0.000000e+00
     vertex  9.238795e-02  3.826834e-02  2.450000e-01
   endloop
 endfacet
 facet normal -7.730105e-01 -6.343933e-01  0.000000e+00
   outer loop
     vertex  7.071068e-02  7.071068e-02  0.000000e+00
     vertex  8.314696e-02  5.555702e-02  2.450000e-01
     vertex  7.071068e-02  7.071068e-02  2.450000e-01
   endloop
 endfacet
 facet normal -7.730105e-01 -6.343933e-01  0.000000e+00
   outer loop
     vertex  7.071068e-02  7.071068e-02  0.000000e+00
     vertex  8.314696e-02  5.555702e-02  0.000000e+00
     vertex  8.314696e-02  5.555702e-02  2.450000e-01
   endloop
 endfacet
 facet normal -6.343933e-01 -7.730105e-01  0.000000e+00
   outer loop
     vertex  5.555702e-02  8.314696e-02  0.000000e+00
     vertex  7.071068e-02  7.071068e-02  2.450000e-01
     vertex  5.555702e-02  8.314696e-02  2.450000e-01
   endloop
 endfacet
 facet normal -6.343933e-01 -7.730105e-01  0.000000e+00
   outer loop
     vertex  5.555702e-02  8.314696e-02  0.000000e+00
     vertex  7.071068e-02  7.071068e-02  0.000000e+00
     vertex  7.071068e-02  7.071068e-02  2.450000e-01
   endloop
 endfacet
 facet normal -4.713967e-01 -8.819213e-01  0.000000e+00
   outer loop
     vertex  3.826834e-02  9.238795e-02  0.000000e+00
     vertex  5.555702e-02  8.314696e-02  2.450000e-01
     vertex  3.826834e-02  9.238795e-02  2.450000e-01
   endloop
 endfacet
 facet normal -4.713967e-01 -8.819213e-01  0.000000e+00
   outer loop
     vertex  3.826834e-02  9.238795e-02  0.000000e+00
     vertex  5.555702e-02  8.314696e-02  0.000000e+00
     vertex  5.555702e-02  8.314696e-02  2.450000e-01
   endloop
 endfacet
 facet normal -2.902847e-01 -9.569403e-01  0.000000e+00
   outer loop
     vertex  1.950903e-02  9.807853e-02  0.000000e+00
     vertex  3.826834e-02  9.238795e-02  2.450000e-01
     vertex  1.950903e-02  9.807853e-02  2.450000e-01
   endloop
 endfacet
 facet normal -2.902847e-01 -9.569403e-01  0.000000e+00
   outer loop
     vertex  1.950903e-02  9.807853e-02  0.000000e+00
     vertex  3.826834e-02  9.238795e-02  0.000000e+00
     vertex  3.826834e-02  9.238795e-02  2.450000e-01
   endloop
 endfacet
 facet normal -9.801714e-02 -9.951847e-01  0.000000e+00
   outer loop
     vertex  6.123234e-18  1.000000e-01  0.000000e+00
     vertex  1.950903e-02  9.807853e-02  0.000000e+00
     vertex  1.950903e-02  9.807853e-02  2.450000e-01
   endloop
 endfacet
 facet normal -9.801714e-02 -9.951847e-01  0.000000e+00
   outer loop
     vertex  6.123234e-18  1.000000e-01  0.000000e+00
     vertex  1.950903e-02  9.807853e-02  2.450000e-01
     vertex  6.123234e-18  1.000000e-01  2.450000e-01
   endloop
 endfacet
 facet normal  9.801714e-02 -9.951847e-01  0.000000e+00
   outer loop
     vertex -1.950903e-02  9.807853e-02  0.000000e+00
     vertex  6.123234e-18  1.000000e-01  0.000000e+00
     vertex  6.123234e-18  1.000000e-01  2.450000e-01
   endloop
 endfacet
 facet normal  9.801714e-02 -9.951847e-01  0.000000e+00
   outer loop
     vertex -1.950903e-02  9.807853e-02  0.000000e+00
     vertex  6.123234e-18  1.000000e-01  2.450000e-01
     vertex -1.950903e-02  9.807853e-02  2.450000e-01
   endloop
 endfacet
 facet normal  2.902847e-01 -9.569403e-01  0.000000e+00
   outer loop
     vertex -3.826834e-02  9.238795e-02  0.000000e+00
     vertex -1.950903e-02  9.807853e-02  2.450000e-01
     vertex -3.826834e-02  9.238795e-02  2.450000e-01
   endloop
 endfacet
 facet normal  2.902847e-01 -9.569403e-01  0.000000e+00
   outer loop
     vertex -3.826834e-02  9.238795e-02  0.000000e+00
     vertex -1.950903e-02  9.807853e-02  0.000000e+00
     vertex -1.950903e-02  9.807853e-02  2.450000e-01
   endloop
 endfacet
 facet normal  4.713967e-01 -8.819213e-01  0.000000e+00
   outer loop
     vertex -5.555702e-02  8.314696e-02  0.000000e+00
     vertex -3.826834e-02  9.238795e-02  2.450000e-01
     vertex -5.555702e-02  8.314696e-02  2.450000e-01
   endloop
 endfacet
 facet normal  6.343933e-01 -7.730105e-01  0.000000e+00
   outer loop
     vertex -5.555702e-02  8.314696e-02  0.000000e+00
     vertex -5.555702e-02  8.314696e-02  2.450000e-01
     vertex -7.071068e-02  7.071068e-02  2.450000e-01
   endloop
 endfacet
 facet normal  4.713967e-01 -8.819213e-01  0.000000e+00
   outer loop
     vertex -5.555702e-02  8.314696e-02  0.000000e+00
     vertex -3.826834e-02  9.238795e-02  0.000000e+00
     vertex -3.826834e-02  9.238795e-02  2.450000e-01
   endloop
 endfacet
 facet normal  7.730105e-01 -6.343933e-01  0.000000e+00
   outer loop
     vertex -7.071068e-02  7.071068e-02  0.000000e+00
     vertex -7.071068e-02  7.071068e-02  2.450000e-01
     vertex -8.314696e-02  5.555702e-02  2.450000e-01
   endloop
 endfacet
 facet normal  6.343933e-01 -7.730105e-01  0.000000e+00
   outer loop
     vertex -7.071068e-02  7.071068e-02  0.000000e+00
     vertex -5.555702e-02  8.314696e-02  0.000000e+00
     vertex -7.071068e-02  7.071068e-02  2.450000e-01
   endloop
 endfacet
 facet normal  7.730105e-01 -6.343933e-01  0.000000e+00
   outer loop
     vertex -8.314696e-02  5.555702e-02  0.000000e+00
     vertex -7.071068e-02  7.071068e-02  0.000000e+00
     vertex -8.314696e-02  5.555702e-02  2.450000e-01
   endloop
 endfacet
 facet normal  8.819213e-01 -4.713967e-01  0.000000e+00
   outer loop
     vertex -9.238795e-02  3.826834e-02  0.000000e+00
     vertex -8.314696e-02  5.555702e-02  2.450000e-01
     vertex -9.238795e-02  3.826834e-02  2.450000e-01
   endloop
 endfacet
 facet normal  8.819213e-01 -4.713967e-01  0.000000e+00
   outer loop
     vertex -9.238795e-02  3.826834e-02  0.000000e+00
     vertex -8.314696e-02  5.555702e-02  0.000000e+00
     vertex -8.314696e-02  5.555702e-02  2.450000e-01
   endloop
 endfacet
 facet normal  9.569403e-01 -2.902847e-01  0.000000e+00
   outer loop
     vertex -9.807853e-02  1.950903e-02  0.000000e+00
     vertex -9.238795e-02  3.826834e-02  2.450000e-01
     vertex -9.807853e-02  1.950903e-02  2.450000e-01
   endloop
 endfacet
 facet normal  9.569403e-01 -2.902847e-01  0.000000e+00
   outer loop
     vertex -9.807853e-02  1.950903e-02  0.000000e+00
     vertex -9.238795e-02  3.826834e-02  0.000000e+00
     vertex -9.238795e-02  3.826834e-02  2.450000e-01
   endloop
 endfacet
 facet normal  9.951847e-01 -9.801714e-02  0.000000e+00
   outer loop
     vertex -1.000000e-01 -7.657137e-17  0.000000e+00
     vertex -9.807853e-02  1.950903e-02  2.450000e-01
     vertex -1.000000e-01 -7.657137e-17  2.450000e-01
   endloop
 endfacet
 facet normal  9.951847e-01 -9.801714e-02  0.000000e+00
   outer loop
     vertex -1.000000e-01 -7.657137e-17  0.000000e+00
     vertex -9.807853e-02  1.950903e-02  0.000000e+00
     vertex -9.807853e-02  1.950903e-02  2.450000e-01
   endloop
 endfacet
 facet normal  9.951847e-01  9.801714e-02 -0.000000e+00
   outer loop
     vertex -9.807853e-02 -1.950903e-02  0.000000e+00
     vertex -1.000000e-01 -7.657137e-17  2.450000e-01
     vertex -9.807853e-02 -1.950903e-02  2.450000e-01
   endloop
 endfacet
 facet normal  9.951847e-01  9.801714e-02  0.000000e+00
   outer loop
     vertex -9.807853e-02 -1.950903e-02  0.000000e+00
     vertex -1.000000e-01 -7.657137e-17  0.000000e+00
     vertex -1.000000e-01 -7.657137e-17  2.450000e-01
   endloop
 endfacet
 facet normal  9.569403e-01  2.902847e-01 -0.000000e+00
   outer loop
     vertex -9.238795e-02 -3.826834e-02  0.000000e+00
     vertex -9.807853e-02 -1.950903e-02  2.450000e-01
     vertex -9.238795e-02 -3.826834e-02  2.450000e-01
   endloop
 endfacet
 facet normal  8.819213e-01  4.713967e-01 -0.000000e+00
   outer loop
     vertex -9.238795e-02 -3.826834e-02  0.000000e+00
     vertex -9.238795e-02 -3.826834e-02  2.450000e-01
     vertex -8.314696e-02 -5.555702e-02  2.450000e-01
   endloop
 endfacet
 facet normal  9.569403e-01  2.902847e-01  0.000000e+00
   outer loop
     vertex -9.238795e-02 -3.826834e-02  0.000000e+00
     vertex -9.807853e-02 -1.950903e-02  0.000000e+00
     vertex -9.807853e-02 -1.950903e-02  2.450000e-01
   endloop
 endfacet
 facet normal  8.819213e-01  4.713967e-01 -0.000000e+00
   outer loop
     vertex -8.314696e-02 -5.555702e-02  0.000000e+00
     vertex -9.238795e-02 -3.826834e-02  0.000000e+00
     vertex -8.314696e-02 -5.555702e-02  2.450000e-01
   endloop
 endfacet
 facet normal  7.730105e-01  6.343933e-01 -0.000000e+00
   outer loop
     vertex -7.071068e-02 -7.071068e-02  0.000000e+00
     vertex -8.314696e-02 -5.555702e-02  2.450000e-01
     vertex -7.071068e-02 -7.071068e-02  2.450000e-01
   endloop
 endfacet
 facet normal  7.730105e-01  6.343933e-01  0.000000e+00
   outer loop
     vertex -7.071068e-02 -7.071068e-02  0.000000e+00
     vertex -8.314696e-02 -5.555702e-02  0.000000e+00
     vertex -8.314696e-02 -5.555702e-02  2.450000e-01
   endloop
 endfacet
 facet normal  6.343933e-01  7.730105e-01 -0.000000e+00
   outer loop
     vertex -5.555702e-02 -8.314696e-02  0.000000e+00
     vertex -7.071068e-02 -7.071068e-02  2.450000e-01
     vertex -5.555702e-02 -8.314696e-02  2.450000e-01
   endloop
 endfacet
 facet normal  6.343933e-01  7.730105e-01  0.000000e+00
   outer loop
     vertex -5.555702e-02 -8.314696e-02  0.000000e+00
     vertex -7.071068e-02 -7.071068e-02  0.000000e+00
     vertex -7.071068e-02 -7.071068e-02  2.450000e-01
   endloop
 endfacet
 facet normal  4.713967e-01  8.819213e-01 -0.000000e+00
   outer loop
     vertex -3.826834e-02 -9.238795e-02  0.000000e+00
     vertex -5.555702e-02 -8.314696e-02  2.450000e-01
     vertex -3.826834e-02 -9.238795e-02  2.450000e-01
   endloop
 endfacet
 facet normal  4.713967e-01  8.819213e-01  0.000000e+00
   outer loop
     vertex -3.826834e-02 -9.238795e-02  0.000000e+00
     vertex -5.555702e-02 -8.314696e-02  0.000000e+00
     vertex -5.555702e-02 -8.314696e-02  2.450000e-01
   endloop
 endfacet
 facet normal  2.902847e-01  9.569403e-01 -0.000000e+00
   outer loop
     vertex -1.950903e-02 -9.807853e-02  0.000000e+00
     vertex -3.826834e-02 -9.238795e-02  2.450000e-01
     vertex -1.950903e-02 -9.807853e-02  2.450000e-01
   endloop
 endfacet
 facet normal  2.902847e-01  9.569403e-01  0.000000e+00
   outer loop
     vertex -1.950903e-02 -9.807853e-02  0.000000e+00
     vertex -3.826834e-02 -9.238795e-02  0.000000e+00
     vertex -3.826834e-02 -9.238795e-02  2.450000e-01
   endloop
 endfacet
 facet normal  9.801714e-02  9.951847e-01 -0.000000e+00
   outer loop
     vertex  2.480838e-16 -1.000000e-01  0.000000e+00
     vertex -1.950903e-02 -9.807853e-02  2.450000e-01
     vertex  2.480838e-16 -1.000000e-01  2.450000e-01
   endloop
 endfacet
 facet normal  9.801714e-02  9.951847e-01  0.000000e+00
   outer loop
     vertex  2.480838e-16 -1.000000e-01  0.000000e+00
     vertex -1.950903e-02 -9.807853e-02  0.000000e+00
     vertex -1.950903e-02 -9.807853e-02  2.450000e-01
   endloop
 endfacet
 facet normal -9.801714e-02  9.951847e-01  0.000000e+00
   outer loop
     vertex  1.950903e-02 -9.807853e-02  0.000000e+00
     vertex  2.480838e-16 -1.000000e-01  2.450000e-01
     vertex  1.950903e-02 -9.807853e-02  2.450000e-01
   endloop
 endfacet
 facet normal -9.801714e-02  9.951847e-01  0.000000e+00
   outer loop
     vertex  1.950903e-02 -9.807853e-02  0.000000e+00
     vertex  2.480838e-16 -1.000000e-01  0.000000e+00
     vertex  2.480838e-16 -1.000000e-01  2.450000e-01
   endloop
 endfacet
 facet normal -2.902847e-01  9.569403e-01  0.000000e+00
   outer loop
     vertex  3.826834e-02 -9.238795e-02  0.000000e+00
     vertex  1.950903e-02 -9.807853e-02  2.450000e-01
     vertex  3.826834e-02 -9.238795e-02  2.450000e-01
   endloop
 endfacet
 facet normal -2.902847e-01  9.569403e-01  0.000000e+00
   outer loop
     vertex  3.826834e-02 -9.238795e-02  0.000000e+00
     vertex  1.950903e-02 -9.807853e-02  0.000000e+00
     vertex  1.950903e-02 -9.807853e-02  2.450000e-01
   endloop
 endfacet
 facet normal -4.713967e-01  8.819213e-01  0.000000e+00
   outer loop
     vertex  5.555702e-02 -8.314696e-02  0.000000e+00
     vertex  3.826834e-02 -9.238795e-02  2.450000e-01
     vertex  5.555702e-02 -8.314696e-02  2.450000e-01
   endloop
 endfacet
 facet normal -4.713967e-01  8.819213e-01  0.000000e+00
   outer loop
     vertex  5.555702e-02 -8.314696e-02  0.000000e+00
     vertex  3.826834e-02 -9.238795e-02  0.000000e+00
     vertex  3.826834e-02 -9.238795e-02  2.450000e-01
   endloop
 endfacet
 facet normal -6.343933e-01  7.730105e-01  0.000000e+00
   outer loop
     vertex  7.071068e-02 -7.071068e-02  0.000000e+00
     vertex  5.555702e-02 -8.314696e-02  2.450000e-01
     vertex  7.071068e-02 -7.071068e-02  2.450000e-01
   endloop
 endfacet
 facet normal -6.343933e-01  7.730105e-01  0.000000e+00
   outer loop
     vertex  7.071068e-02 -7.071068e-02  0.000000e+00
     vertex  5.555702e-02 -8.314696e-02  0.000000e+00
     vertex  5.555702e-02 -8.314696e-02  2.450000e-01
   endloop
 endfacet
 facet normal -7.730105e-01  6.343933e-01  0.000000e+00
   outer loop
     vertex  8.314696e-02 -5.555702e-02  0.000000e+00
     vertex  7.071068e-02 -7.071068e-02  2.450000e-01
     vertex  8.314696e-02 -5.555702e-02  2.450000e-01
   endloop
 endfacet
 facet normal -7.730105e-01  6.343933e-01  0.000000e+00
   outer loop
     vertex  8.314696e-02 -5.555702e-02  0.000000e+00
     vertex  7.071068e-02 -7.071068e-02  0.000000e+00
     vertex  7.071068e-02 -7.071068e-02  2.450000e-01
   endloop
 endfacet
 facet normal -8.819213e-01  4.713967e-01  0.000000e+00
   outer loop
     vertex  9.238795e-02 -3.826834e-02  0.000000e+00
     vertex  8.314696e-02 -5.555702e-02  2.450000e-01
     vertex  9.238795e-02 -3.826834e-02  2.450000e-01
   endloop
 endfacet
 facet normal -8.819213e-01  4.713967e-01  0.000000e+00
   outer loop
     vertex  9.238795e-02 -3.826834e-02  0.000000e+00
     vertex  8.314696e-02 -5.555702e-02  0.000000e+00
     vertex  8.314696e-02 -5.555702e-02  2.450000e-01
   endloop
 endfacet
 facet normal -9.569403e-01  2.902847e-01  0.000000e+00
   outer loop
     vertex  9.807853e-02 -1.950903e-02  0.000000e+00
     vertex  9.238795e-02 -3.826834e-02  2.450000e-01
     vertex  9.807853e-02 -1.950903e-02  2.450000e-01
   endloop
 endfacet
 facet normal -9.569403e-01  2.902847e-01  0.000000e+00
   outer loop
     vertex  9.807853e-02 -1.950903e-02  0.000000e+00
     vertex  9.238795e-02 -3.826834e-02  0.000000e+00
     vertex  9.238795e-02 -3.826834e-02  2.450000e-01
   endloop
 endfacet
 facet normal -9.951847e-01  9.801714e-02  0.000000e+00
   outer loop
     vertex  1.000000e-01  0.000000e+00  0.000000e+00
     vertex  9.807853e-02 -1.950903e-02  2.450000e-01
     vertex  1.000000e-01  0.000000e+00  2.450000e-01
   endloop
 endfacet
 facet normal -9.951847e-01  9.801714e-02  0.000000e+00
   outer loop
     vertex  1.000000e-01  0.000000e+00  0.000000e+00
     vertex  9.807853e-02 -1.950903e-02  0.000000e+00
     vertex  9.807853e-02 -1.950903e-02  2.450000e-01
   endloop
 endfacet
 facet normal  0.000000e+00 -0.000000e+00 -1.000000e+00
   outer loop
     vertex -8.314696e-02 -5.555702e-02  0.000000e+00
     vertex -7.071068e-02 -7.071068e-02  0.000000e+00
     vertex -9.800000e-01 -9.800000e-01  0.000000e+00
   endloop
 endfacet
 facet normal -0.000000e+00  0.000000e+00 -1.000000e+00
   outer loop
     vertex -5.555702e-02 -8.314696e-02  0.000000e+00
     vertex -9.800000e-01 -9.800000e-01  0.000000e+00
     vertex -7.071068e-02 -7.071068e-02  0.000000e+00
   endloop
 endfacet
 facet normal  0.000000e+00 -0.000000e+00 -1.000000e+00
   outer loop
     vertex -9.238795e-02 -3.826834e-02  0.000000e+00
     vertex -8.314696e-02 -5.555702e-02  0.000000e+00
     vertex -9.800000e-01 -9.800000e-01  0.000000e+00
   endloop
 endfacet
 facet normal -0.000000e+00  0.000000e+00 -1.000000e+00
   outer loop
     vertex -3.826834e-02 -9.238795e-02  0.000000e+00
     vertex -9.800000e-01 -9.800000e-01  0.000000e+00
     vertex -5.555702e-02 -8.314696e-02  0.000000e+00
   endloop
 endfacet
 facet normal -0.000000e+00  0.000000e+00 -1.000000e+00
   outer loop
     vertex -1.950903e-02 -9.807853e-02  0.000000e+00
     vertex -9.800000e-01 -9.800000e-01  0.000000e+00
     vertex -3.826834e-02 -9.238795e-02  0.000000e+00
   endloop
 endfacet
 facet normal  0.000000e+00 -0.000000e+00 -1.000000e+00
   outer loop
     vertex -9.807853e-02 -1.950903e-02  0.000000e+00
     vertex -9.238795e-02 -3.826834e-02  0.000000e+00
     vertex -9.800000e-01 -9.800000e-01  0.000000e+00
   endloop
 endfacet
 facet normal  0.000000e+00 -0.000000e+00 -1.000000e+00
   outer loop
     vertex -1.000000e-01 -7.657137e-17  0.000000e+00
     vertex -9.807853e-02 -1.950903e-02  0.000000e+00
     vertex -9.800000e-01 -9.800000e-01  0.000000e+00
   endloop
 endfacet
 facet normal -0.000000e+00  0.000000e+00 -1.000000e+00
   outer loop
     vertex  2.480838e-16 -1.000000e-01  0.000000e+00
     vertex -9.800000e-01 -9.800000e-01  0.000000e+00
     vertex -1.950903e-02 -9.807853e-02  0.000000e+00
   endloop
 endfacet
 facet normal  0.000000e+00  0.000000e+00 -1.000000e+00
   outer loop
     vertex  9.800000e-01 -9.800000e-01  0.000000e+00
     vertex  2.480838e-16 -1.000000e-01  0.000000e+00
     vertex  1.950903e-02 -9.807853e-02  0.000000e+00
   endloop
 endfacet
 facet normal  0.000000e+00  0.000000e+00 -1.000000e+00
   outer loop
     vertex  9.800000e-01 -9.800000e-01  0.000000e+00
     vertex  1.950903e-02 -9.807853e-02  0.000000e+00
     vertex  3.826834e-02 -9.238795e-02  0.000000e+00
   endloop
 endfacet
 facet normal  0.000000e+00  0.000000e+00 -1.000000e+00
   outer loop
     vertex  9.800000e-01 -9.800000e-01  0.000000e+00
     vertex  3.826834e-02 -9.238795e-02  0.000000e+00
     vertex  5.555702e-02 -8.314696e-02  0.000000e+00
   endloop
 endfacet
 facet normal  0.000000e+00  0.000000e+00 -1.000000e+00
   outer loop
     vertex  9.800000e-01 -9.800000e-01  0.000000e+00
     vertex -9.800000e-01 -9.800000e-01  0.000000e+00
     vertex  2.480838e-16 -1.000000e-01  0.000000e+00
   endloop
 endfacet
 facet normal  0.000000e+00  0.000000e+00 -1.000000e+00
   outer loop
     vertex -9.800000e-01  9.800000e-01  0.000000e+00
     vertex -7.071068e-02  7.071068e-02  0.000000e+00
     vertex -8.314696e-02  5.555702e-02  0.000000e+00
   endloop
 endfacet
 facet normal  0.000000e+00  0.000000e+00 -1.000000e+00
   outer loop
     vertex -9.800000e-01  9.800000e-01  0.000000e+00
     vertex -8.314696e-02  5.555702e-02  0.000000e+00
     vertex -9.238795e-02  3.826834e-02  0.000000e+00
   endloop
 endfacet
 facet normal  0.000000e+00  0.000000e+00 -1.000000e+00
   outer loop
     vertex -9.800000e-01  9.800000e-01  0.000000e+00
     vertex -9.238795e-02  3.826834e-02  0.000000e+00
     vertex -9.807853e-02  1.950903e-02  0.000000e+00
   endloop
 endfacet
 facet normal  0.000000e+00  0.000000e+00 -1.000000e+00
   outer loop
     vertex -9.800000e-01  9.800000e-01  0.000000e+00
     vertex -9.807853e-02  1.950903e-02  0.000000e+00
     vertex -1.000000e-01 -7.657137e-17  0.000000e+00
   endloop
 endfacet
 facet normal  0.000000e+00  0.000000e+00 -1.000000e+00
   outer loop
     vertex -9.800000e-01  9.800000e-01  0.000000e+00
     vertex -1.000000e-01 -7.657137e-17  0.000000e+00
     vertex -9.800000e-01 -9.800000e-01  0.000000e+00
   endloop
 endfacet
 facet normal  0.000000e+00 -0.000000e+00 -1.000000e+00
   outer loop
     vertex  7.071068e-02 -7.071068e-02  0.000000e+00
     vertex  9.800000e-01 -9.800000e-01  0.000000e+00
     vertex  5.555702e-02 -8.314696e-02  0.000000e+00
   endloop
 endfacet
 facet normal -0.000000e+00  0.000000e+00 -1.000000e+00
   outer loop
     vertex -5.555702e-02  8.314696e-02  0.000000e+00
     vertex -7.071068e-02  7.071068e-02  0.000000e+00
     vertex -9.800000e-01  9.800000e-01  0.000000e+00
   endloop
 endfacet
 facet normal  0.000000e+00 -0.000000e+00 -1.000000e+00
   outer loop
     vertex  8.314696e-02 -5.555702e-02  0.000000e+00
     vertex  9.800000e-01 -9.800000e-01  0.000000e+00
     vertex  7.071068e-02 -7.071068e-02  0.000000e+00
   endloop
 endfacet
 facet normal -0.000000e+00  0.000000e+00 -1.000000e+00
   outer loop
     vertex -3.826834e-02  9.238795e-02  0.000000e+00
     vertex -5.555702e-02  8.314696e-02  0.000000e+00
     vertex -9.800000e-01  9.800000e-01  0.000000e+00
   endloop
 endfacet
 facet normal  0.000000e+00 -0.000000e+00 -1.000000e+00
   outer loop
     vertex  9.238795e-02 -3.826834e-02  0.000000e+00
     vertex  9.800000e-01 -9.800000e-01  0.000000e+00
     vertex  8.314696e-02 -5.555702e-02  0.000000e+00
   endloop
 endfacet
 facet normal  0.000000e+00 -0.000000e+00 -1.000000e+00
   outer loop
     vertex  9.807853e-02 -1.950903e-02  0.000000e+00
     vertex  9.800000e-01 -9.800000e-01  0.000000e+00
     vertex  9.238795e-02 -3.826834e-02  0.000000e+00
   endloop
 endfacet
 facet normal -0.000000e+00  0.000000e+00 -1.000000e+00
   outer loop
     vertex -1.950903e-02  9.807853e-02  0.000000e+00
     vertex -3.826834e-02  9.238795e-02  0.000000e+00
     vertex -9.800000e-01  9.800000e-01  0.000000e+00
   endloop
 endfacet
 facet normal  0.000000e+00 -0.000000e+00 -1.000000e+00
   outer loop
     vertex  1.000000e-01  0.000000e+00  0.000000e+00
     vertex  9.800000e-01 -9.800000e-01  0.000000e+00
     vertex  9.807853e-02 -1.950903e-02  0.000000e+00
   endloop
 endfacet
 facet normal -0.000000e+00  0.000000e+00 -1.000000e+00
   outer loop
     vertex  6.123234e-18  1.000000e-01  0.000000e+00
     vertex -1.950903e-02  9.807853e-02  0.000000e+00
     vertex -9.800000e-01  9.800000e-01  0.000000e+00
   endloop
 endfacet
 facet normal  0.000000e+00  0.000000e+00 -1.000000e+00
   outer loop
     vertex  9.800000e-01  9.800000e-01  0.000000e+00
     vertex  1.000000e-01  0.000000e+00  0.000000e+00
     vertex  9.807853e-02  1.950903e-02  0.000000e+00
   endloop
 endfacet
 facet normal  0.000000e+00  0.000000e+00 -1.000000e+00
   outer loop
     vertex  9.800000e-01  9.800000e-01  0.000000e+00
     vertex  9.807853e-02  1.950903e-02  0.000000e+00
     vertex  9.238795e-02  3.826834e-02  0.000000e+00
   endloop
 endfacet
 facet normal  0.000000e+00  0.000000e+00 -1.000000e+00
   outer loop
     vertex  9.800000e-01  9.800000e-01  0.000000e+00
     vertex  9.238795e-02  3.826834e-02  0.000000e+00
     vertex  8.314696e-02  5.555702e-02  0.000000e+00
   endloop
 endfacet
 facet normal  0.000000e+00  0.000000e+00 -1.000000e+00
   outer loop
     vertex  9.800000e-01  9.800000e-01  0.000000e+00
     vertex  8.314696e-02  5.555702e-02  0.000000e+00
     vertex  7.071068e-02  7.071068e-02  0.000000e+00
   endloop
 endfacet
 facet normal  0.000000e+00  0.000000e+00 -1.000000e+00
   outer loop
     vertex  9.800000e-01  9.800000e-01  0.000000e+00
     vertex  7.071068e-02  7.071068e-02  0.000000e+00
     vertex  5.555702e-02  8.314696e-02  0.000000e+00
   endloop
 endfacet
 facet normal  0.000000e+00  0.000000e+00 -1.000000e+00
   outer loop
     vertex  9.800000e-01  9.800000e-01  0.000000e+00
     vertex  5.555702e-02  8.314696e-02  0.000000e+00
     vertex  3.826834e-02  9.238795e-02  0.000000e+00
   endloop
 endfacet
 facet normal  0.000000e+00  0.000000e+00 -1.000000e+00
   outer loop
     vertex  9.800000e-01  9.800000e-01  0.000000e+00
     vertex  3.826834e-02  9.238795e-02  0.000000e+00
     vertex  1.950903e-02  9.807853e-02  0.000000e+00
   endloop
 endfacet
 facet normal  0.000000e+00  0.000000e+00 -1.000000e+00
   outer loop
     vertex  9.800000e-01  9.800000e-01  0.000000e+00
     vertex  1.950903e-02  9.807853e-02  0.000000e+00
     vertex  6.123234e-18  1.000000e-01  0.000000e+00
   endloop
 endfacet
 facet normal  0.000000e+00 -0.000000e+00 -1.000000e+00
   outer loop
     vertex  9.800000e-01  9.800000e-01  0.000000e+00
     vertex  9.800000e-01 -9.800000e-01  0.000000e+00
     vertex  1.000000e-01  0.000000e+00  0.000000e+00
   endloop
 endfacet
 facet normal -0.000000e+00  0.000000e+00 -1.000000e+00
   outer loop
     vertex  9.800000e-01  9.800000e-01  0.000000e+00
     vertex  6.123234e-18  1.000000e-01  0.000000e+00
     vertex -9.800000e-01  9.800000e-01  0.000000e+00
   endloop
 endfacet
 facet normal  0.000000e+00  0.000000e+00  1.000000e+00
   outer loop
     vertex -8.314696e-02 -5.555702e-02  2.450000e-01
     vertex -9.800000e-01 -9.800000e-01  2.450000e-01
     vertex -7.071068e-02 -7.071068e-02  2.450000e-01
   endloop
 endfacet
 facet normal  0.000000e+00  0.000000e+00  1.000000e+00
   outer loop
     vertex -5.555702e-02 -8.314696e-02  2.450000e-01
     vertex -7.071068e-02 -7.071068e-02  2.450000e-01
     vertex -9.800000e-01 -9.800000e-01  2.450000e-01
   endloop
 endfacet
 facet normal  0.000000e+00  0.000000e+00  1.000000e+00
   outer loop
     vertex -9.238795e-02 -3.826834e-02  2.450000e-01
     vertex -9.800000e-01 -9.800000e-01  2.450000e-01
     vertex -8.314696e-02 -5.555702e-02  2.450000e-01
   endloop
 endfacet
 facet normal  0.000000e+00  0.000000e+00  1.000000e+00
   outer loop
     vertex -3.826834e-02 -9.238795e-02  2.450000e-01
     vertex -5.555702e-02 -8.314696e-02  2.450000e-01
     vertex -9.800000e-01 -9.800000e-01  2.450000e-01
   endloop
 endfacet
 facet normal  0.000000e+00  0.000000e+00  1.000000e+00
   outer loop
     vertex -1.950903e-02 -9.807853e-02  2.450000e-01
     vertex -3.826834e-02 -9.238795e-02  2.450000e-01
     vertex -9.800000e-01 -9.800000e-01  2.450000e-01
   endloop
 endfacet
 facet normal  0.000000e+00  0.000000e+00  1.000000e+00
   outer loop
     vertex -9.807853e-02 -1.950903e-02  2.450000e-01
     vertex -9.800000e-01 -9.800000e-01  2.450000e-01
     vertex -9.238795e-02 -3.826834e-02  2.450000e-01
   endloop
 endfacet
 facet normal  0.000000e+00  0.000000e+00  1.000000e+00
   outer loop
     vertex -1.000000e-01 -7.657137e-17  2.450000e-01
     vertex -9.800000e-01 -9.800000e-01  2.450000e-01
     vertex -9.807853e-02 -1.950903e-02  2.450000e-01
   endloop
 endfacet
 facet normal  0.000000e+00  0.000000e+00  1.000000e+00
   outer loop
     vertex  2.480838e-16 -1.000000e-01  2.450000e-01
     vertex -1.950903e-02 -9.807853e-02  2.450000e-01
     vertex -9.800000e-01 -9.800000e-01  2.450000e-01
   endloop
 endfacet
 facet normal  0.000000e+00  0.000000e+00  1.000000e+00
   outer loop
     vertex  9.800000e-01 -9.800000e-01  2.450000e-01
     vertex  1.950903e-02 -9.807853e-02  2.450000e-01
     vertex  2.480838e-16 -1.000000e-01  2.450000e-01
   endloop
 endfacet
 facet normal  0.000000e+00  0.000000e+00  1.000000e+00
   outer loop
     vertex  9.800000e-01 -9.800000e-01  2.450000e-01
     vertex  3.826834e-02 -9.238795e-02  2.450000e-01
     vertex  1.950903e-02 -9.807853e-02  2.450000e-01
   endloop
 endfacet
 facet normal  0.000000e+00  0.000000e+00  1.000000e+00
   outer loop
     vertex  9.800000e-01 -9.800000e-01  2.450000e-01
     vertex  5.555702e-02 -8.314696e-02  2.450000e-01
     vertex  3.826834e-02 -9.238795e-02  2.450000e-01
   endloop
 endfacet
 facet normal  0.000000e+00  0.000000e+00  1.000000e+00
   outer loop
     vertex  9.800000e-01 -9.800000e-01  2.450000e-01
     vertex  2.480838e-16 -1.000000e-01  2.450000e-01
     vertex -9.800000e-01 -9.800000e-01  2.450000e-01
   endloop
 endfacet
 facet normal  0.000000e+00  0.000000e+00  1.000000e+00
   outer loop
     vertex -9.800000e-01  9.800000e-01  2.450000e-01
     vertex -8.314696e-02  5.555702e-02  2.450000e-01
     vertex -7.071068e-02  7.071068e-02  2.450000e-01
   endloop
 endfacet
 facet normal  0.000000e+00  0.000000e+00  1.000000e+00
   outer loop
     vertex -9.800000e-01  9.800000e-01  2.450000e-01
     vertex -9.238795e-02  3.826834e-02  2.450000e-01
     vertex -8.314696e-02  5.555702e-02  2.450000e-01
   endloop
 endfacet
 facet normal  0.000000e+00  0.000000e+00  1.000000e+00
   outer loop
     vertex -9.800000e-01  9.800000e-01  2.450000e-01
     vertex -9.807853e-02  1.950903e-02  2.450000e-01
     vertex -9.238795e-02  3.826834e-02  2.450000e-01
   endloop
 endfacet
 facet normal  0.000000e+00  0.000000e+00  1.000000e+00
   outer loop
     vertex -9.800000e-01  9.800000e-01  2.450000e-01
     vertex -1.000000e-01 -7.657137e-17  2.450000e-01
     vertex -9.807853e-02  1.950903e-02  2.450000e-01
   endloop
 endfacet
 facet normal  0.000000e+00  0.000000e+00  1.000000e+00
   outer loop
     vertex -9.800000e-01  9.800000e-01  2.450000e-01
     vertex -9.800000e-01 -9.800000e-01  2.450000e-01
     vertex -1.000000e-01 -7.657137e-17  2.450000e-01
   endloop
 endfacet
 facet normal  0.000000e+00  0.000000e+00  1.000000e+00
   outer loop
     vertex  7.071068e-02 -7.071068e-02  2.450000e-01
     vertex  5.555702e-02 -8.314696e-02  2.450000e-01
     vertex  9.800000e-01 -9.800000e-01  2.450000e-01
   endloop
 endfacet
 facet normal  0.000000e+00  0.000000e+00  1.000000e+00
   outer loop
     vertex -5.555702e-02  8.314696e-02  2.450000e-01
     vertex -9.800000e-01  9.800000e-01  2.450000e-01
     vertex -7.071068e-02  7.071068e-02  2.450000e-01
   endloop
 endfacet
 facet normal  0.000000e+00  0.000000e+00  1.000000e+00
   outer loop
     vertex  8.314696e-02 -5.555702e-02  2.450000e-01
     vertex  7.071068e-02 -7.071068e-02  2.450000e-01
     vertex  9.800000e-01 -9.800000e-01  2.450000e-01
   endloop
 endfacet
 facet normal  0.000000e+00  0.000000e+00  1.000000e+00
   outer loop
     vertex -3.826834e-02  9.238795e-02  2.450000e-01
     vertex -9.800000e-01  9.800000e-01  2.450000e-01
     vertex -5.555702e-02  8.314696e-02  2.450000e-01
   endloop
 endfacet
 facet normal  0.000000e+00  0.000000e+00  1.000000e+00
   outer loop
     vertex  9.238795e-02 -3.826834e-02  2.450000e-01
     vertex  8.314696e-02 -5.555702e-02  2.450000e-01
     vertex  9.800000e-01 -9.800000e-01  2.450000e-01
   endloop
 endfacet
 facet normal  0.000000e+00  0.000000e+00  1.000000e+00
   outer loop
     vertex  9.807853e-02 -1.950903e-02  2.450000e-01
     vertex  9.238795e-02 -3.826834e-02  2.450000e-01
     vertex  9.800000e-01 -9.800000e-01  2.450000e-01
   endloop
 endfacet
 facet normal  0.000000e+00  0.000000e+00  1.000000e+00
   outer loop
     vertex -1.950903e-02  9.807853e-02  2.450000e-01
     vertex -9.800000e-01  9.800000e-01  2.450000e-01
     vertex -3.826834e-02  9.238795e-02  2.450000e-01
   endloop
 endfacet
 facet normal  0.000000e+00  0.000000e+00  1.000000e+00
   outer loop
     vertex  1.000000e-01  0.000000e+00  2.450000e-01
     vertex  9.807853e-02 -1.950903e-02  2.450000e-01
     vertex  9.800000e-01 -9.800000e-01  2.450000e-01
   endloop
 endfacet
 facet normal  0.000000e+00  0.000000e+00  1.000000e+00
   outer loop
     vertex  6.123234e-18  1.000000e-01  2.450000e-01
     vertex -9.800000e-01  9.800000e-01  2.450000e-01
     vertex -1.950903e-02  9.807853e-02  2.450000e-01
   endloop
 endfacet
 facet normal  0.000000e+00  0.000000e+00  1.000000e+00
   outer loop
     vertex  9.800000e-01  9.800000e-01  2.450000e-01
     vertex  9.807853e-02  1.950903e-02  2.450000e-01
     vertex  1.000000e-01  0.000000e+00  2.450000e-01
   endloop
 endfacet
 facet normal  0.000000e+00  0.000000e+00  1.000000e+00
   outer loop
     vertex  9.800000e-01  9.800000e-01  2.450000e-01
     vertex  9.238795e-02  3.826834e-02  2.450000e-01
     vertex  9.807853e-02  1.950903e-02  2.450000e-01
   endloop
 endfacet
 facet normal  0.000000e+00  0.000000e+00  1.000000e+00
   outer loop
     vertex  9.800000e-01  9.800000e-01  2.450000e-01
     vertex  8.314696e-02  5.555702e-02  2.450000e-01
     vertex  9.238795e-02  3.826834e-02  2.450000e-01
   endloop
 endfacet
 facet normal  0.000000e+00  0.000000e+00  1.000000e+00
   outer loop
     vertex  9.800000e-01  9.800000e-01  2.450000e-01
     vertex  7.071068e-02  7.071068e-02  2.450000e-01
     vertex  8.314696e-02  5.555702e-02  2.450000e-01
   endloop
 endfacet
 facet normal  0.000000e+00  0.000000e+00  1.000000e+00
   outer loop
     vertex  9.800000e-01  9.800000e-01  2.450000e-01
     vertex  5.555702e-02  8.314696e-02  2.450000e-01
     vertex  7.071068e-02  7.071068e-02  2.450000e-01
   endloop
 endfacet
 facet normal  0.000000e+00  0.000000e+00  1.000000e+00
   outer loop
     vertex  9.800000e-01  9.800000e-01  2.450000e-01
     vertex  3.826834e-02  9.238795e-02  2.450000e-01
     vertex  5.555702e-02  8.314696e-02  2.450000e-01
   endloop
 endfacet
 facet normal  0.000000e+00  0.000000e+00  1.000000e+00
   outer loop
     vertex  9.800000e-01  9.800000e-01  2.450000e-01
     vertex  1.950903e-02  9.807853e-02  2.450000e-01
     vertex  3.826834e-02  9.238795e-02  2.450000e-01
   endloop
 endfacet
 facet normal  0.000000e+00  0.000000e+00  1.000000e+00
   outer loop
     vertex  9.800000e-01  9.800000e-01  2.450000e-01
     vertex  6.123234e-18  1.000000e-01  2.450000e-01
     vertex  1.950903e-02  9.807853e-02  2.450000e-01
   endloop
 endfacet
 facet normal  0.000000e+00  0.000000e+00  1.000000e+00
   outer loop
     vertex  9.800000e-01  9.800000e-01  2.450000e-01
     vertex  1.000000e-01  0.000000e+00  2.450000e-01
     vertex  9.800000e-01 -9.800000e-01  2.450000e-01
   endloop
 endfacet
 facet normal  0.000000e+00  0.000000e+00  1.000000e+00
   outer loop
     vertex  9.800000e-01  9.800000e-01  2.450000e-01
     vertex -9.800000e-01  9.800000e-01  2.450000e-01
     vertex  6.123234e-18  1.000000e-01  2.450000e-01
   endloop
 endfacet
endsolid
