solid 
 facet normal -0.000000e+00  0.000000e+00 -1.000000e+00
   outer loop
     vertex  9.800000e-01  0.000000e+00  0.000000e+00
     vertex  0.000000e+00 -4.900000e-01  0.000000e+00
     vertex  0.000000e+00  0.000000e+00  0.000000e+00
   endloop
 endfacet
 facet normal  0.000000e+00 -0.000000e+00 -1.000000e+00
   outer loop
     vertex  9.800000e-01  0.000000e+00  0.000000e+00
     vertex  9.800000e-01 -4.900000e-01  0.000000e+00
     vertex  0.000000e+00 -4.900000e-01  0.000000e+00
   endloop
 endfacet
 facet normal  1.000000e+00  0.000000e+00  0.000000e+00
   outer loop
     vertex  9.800000e-01  0.000000e+00  8.000000e-02
     vertex  9.800000e-01 -4.900000e-01  0.000000e+00
     vertex  9.800000e-01  0.000000e+00  0.000000e+00
   endloop
 endfacet
 facet normal  1.000000e+00  0.000000e+00  0.000000e+00
   outer loop
     vertex  9.800000e-01  0.000000e+00  8.000000e-02
     vertex  9.800000e-01 -4.900000e-01  8.000000e-02
     vertex  9.800000e-01 -4.900000e-01  0.000000e+00
   endloop
 endfacet
 facet normal -0.000000e+00  0.000000e+00  1.000000e+00
   outer loop
     vertex  7.750000e-01  0.000000e+00  8.000000e-02
     vertex  9.800000e-01 -4.900000e-01  8.000000e-02
     vertex  9.800000e-01  0.000000e+00  8.000000e-02
   endloop
 endfacet
 facet normal  0.000000e+00  0.000000e+00  1.000000e+00
   outer loop
     vertex  7.750000e-01  0.000000e+00  8.000000e-02
     vertex  7.750000e-01 -4.900000e-01  8.000000e-02
     vertex  9.800000e-01 -4.900000e-01  8.000000e-02
   endloop
 endfacet
 facet normal  1.000000e+00  0.000000e+00  0.000000e+00
   outer loop
     vertex  7.750000e-01  0.000000e+00  3.250000e-01
     vertex  7.750000e-01 -4.900000e-01  8.000000e-02
     vertex  7.750000e-01  0.000000e+00  8.000000e-02
   endloop
 endfacet
 facet normal  1.000000e+00  0.000000e+00  0.000000e+00
   outer loop
     vertex  7.750000e-01  0.000000e+00  3.250000e-01
     vertex  7.750000e-01 -4.900000e-01  3.250000e-01
     vertex  7.750000e-01 -4.900000e-01  8.000000e-02
   endloop
 endfacet
 facet normal -0.000000e+00  0.000000e+00  1.000000e+00
   outer loop
     vertex  6.950000e-01  0.000000e+00  3.250000e-01
     vertex  7.750000e-01 -4.900000e-01  3.250000e-01
     vertex  7.750000e-01  0.000000e+00  3.250000e-01
   endloop
 endfacet
 facet normal  0.000000e+00  0.000000e+00  1.000000e+00
   outer loop
     vertex  6.950000e-01  0.000000e+00  3.250000e-01
     vertex  6.950000e-01 -4.900000e-01  3.250000e-01
     vertex  7.750000e-01 -4.900000e-01  3.250000e-01
   endloop
 endfacet
 facet normal -6.961458e-01  0.000000e+00  7.179004e-01
   outer loop
     vertex  5.300000e-01  0.000000e+00  1.650000e-01
     vertex  6.950000e-01 -4.900000e-01  3.250000e-01
     vertex  6.950000e-01  0.000000e+00  3.250000e-01
   endloop
 endfacet
 facet normal -6.961458e-01  0.000000e+00  7.179004e-01
   outer loop
     vertex  5.300000e-01  0.000000e+00  1.650000e-01
     vertex  5.300000e-01 -4.900000e-01  1.650000e-01
     vertex  6.950000e-01 -4.900000e-01  3.250000e-01
   endloop
 endfacet
 facet normal -0.000000e+00  0.000000e+00  1.000000e+00
   outer loop
     vertex  1.250000e-01  0.000000e+00  1.650000e-01
     vertex  5.300000e-01 -4.900000e-01  1.650000e-01
     vertex  5.300000e-01  0.000000e+00  1.650000e-01
   endloop
 endfacet
 facet normal  0.000000e+00  0.000000e+00  1.000000e+00
   outer loop
     vertex  1.250000e-01  0.000000e+00  1.650000e-01
     vertex  1.250000e-01 -4.900000e-01  1.650000e-01
     vertex  5.300000e-01 -4.900000e-01  1.650000e-01
   endloop
 endfacet
 facet normal -7.970921e-01  0.000000e+00  6.038577e-01
   outer loop
     vertex  1.250000e-01  0.000000e+00  1.650000e-01
     vertex  0.000000e+00  0.000000e+00  0.000000e+00
     vertex  0.000000e+00 -4.900000e-01  0.000000e+00
   endloop
 endfacet
 facet normal -7.970921e-01  0.000000e+00  6.038577e-01
   outer loop
     vertex  1.250000e-01  0.000000e+00  1.650000e-01
     vertex  0.000000e+00 -4.900000e-01  0.000000e+00
     vertex  1.250000e-01 -4.900000e-01  1.650000e-01
   endloop
 endfacet
 facet normal  0.000000e+00  1.000000e+00  0.000000e+00
   outer loop
     vertex  5.300000e-01  0.000000e+00  1.650000e-01
     vertex  0.000000e+00  0.000000e+00  0.000000e+00
     vertex  1.250000e-01  0.000000e+00  1.650000e-01
   endloop
 endfacet
 facet normal  0.000000e+00  1.000000e+00  0.000000e+00
   outer loop
     vertex  7.750000e-01  0.000000e+00  8.000000e-02
     vertex  0.000000e+00  0.000000e+00  0.000000e+00
     vertex  5.300000e-01  0.000000e+00  1.650000e-01
   endloop
 endfacet
 facet normal  0.000000e+00  1.000000e+00  0.000000e+00
   outer loop
     vertex  9.800000e-01  0.000000e+00  0.000000e+00
     vertex  0.000000e+00  0.000000e+00  0.000000e+00
     vertex  7.750000e-01  0.000000e+00  8.000000e-02
   endloop
 endfacet
 facet normal  0.000000e+00  1.000000e+00  0.000000e+00
   outer loop
     vertex  6.950000e-01  0.000000e+00  3.250000e-01
     vertex  7.750000e-01  0.000000e+00  8.000000e-02
     vertex  5.300000e-01  0.000000e+00  1.650000e-01
   endloop
 endfacet
 facet normal  0.000000e+00  1.000000e+00  0.000000e+00
   outer loop
     vertex  9.800000e-01  0.000000e+00  8.000000e-02
     vertex  9.800000e-01  0.000000e+00  0.000000e+00
     vertex  7.750000e-01  0.000000e+00  8.000000e-02
   endloop
 endfacet
 facet normal  0.000000e+00  1.000000e+00  0.000000e+00
   outer loop
     vertex  7.750000e-01  0.000000e+00  3.250000e-01
     vertex  7.750000e-01  0.000000e+00  8.000000e-02
     vertex  6.950000e-01  0.000000e+00  3.250000e-01
   endloop
 endfacet
 facet normal -0.000000e+00 -1.000000e+00  0.000000e+00
   outer loop
     vertex  5.300000e-01 -4.900000e-01  1.650000e-01
     vertex  1.250000e-01 -4.900000e-01  1.650000e-01
     vertex  0.000000e+00 -4.900000e-01  0.000000e+00
   endloop
 endfacet
 facet normal -0.000000e+00 -1.000000e+00  0.000000e+00
   outer loop
     vertex  7.750000e-01 -4.900000e-01  8.000000e-02
     vertex  5.300000e-01 -4.900000e-01  1.650000e-01
     vertex  0.000000e+00 -4.900000e-01  0.000000e+00
   endloop
 endfacet
 facet normal  0.000000e+00 -1.000000e+00  0.000000e+00
   outer loop
     vertex  9.800000e-01 -4.900000e-01  0.000000e+00
     vertex  7.750000e-01 -4.900000e-01  8.000000e-02
     vertex  0.000000e+00 -4.900000e-01  0.000000e+00
   endloop
 endfacet
 facet normal  0.000000e+00 -1.000000e+00 -0.000000e+00
   outer loop
     vertex  6.950000e-01 -4.900000e-01  3.250000e-01
     vertex  5.300000e-01 -4.900000e-01  1.650000e-01
     vertex  7.750000e-01 -4.900000e-01  8.000000e-02
   endloop
 endfacet
 facet normal -0.000000e+00 -1.000000e+00 -0.000000e+00
   outer loop
     vertex  9.800000e-01 -4.900000e-01  8.000000e-02
     vertex  7.750000e-01 -4.900000e-01  8.000000e-02
     vertex  9.800000e-01 -4.900000e-01  0.000000e+00
   endloop
 endfacet
 facet normal -0.000000e+00 -1.000000e+00 -0.000000e+00
   outer loop
     vertex  7.750000e-01 -4.900000e-01  3.250000e-01
     vertex  6.950000e-01 -4.900000e-01  3.250000e-01
     vertex  7.750000e-01 -4.900000e-01  8.000000e-02
   endloop
 endfacet
endsolid
