solid 
 facet normal -9.862583e-01  1.652108e-01  0.000000e+00
   outer loop
     vertex  6.500000e-02  9.800000e-01  0.000000e+00
     vertex -1.000000e-01 -5.000000e-03  0.000000e+00
     vertex -1.000000e-01 -5.000000e-03  4.500000e-02
   endloop
 endfacet
 facet normal -9.862583e-01  1.652108e-01  0.000000e+00
   outer loop
     vertex  6.500000e-02  9.800000e-01  0.000000e+00
     vertex -1.000000e-01 -5.000000e-03  4.500000e-02
     vertex  6.500000e-02  9.800000e-01  4.500000e-02
   endloop
 endfacet
 facet normal  9.950873e-01  9.900104e-02  0.000000e+00
   outer loop
     vertex  2.600000e-01 -9.800000e-01  0.000000e+00
     vertex  6.500000e-02  9.800000e-01  0.000000e+00
     vertex  6.500000e-02  9.800000e-01  4.500000e-02
   endloop
 endfacet
 facet normal  9.950873e-01  9.900104e-02 -0.000000e+00
   outer loop
     vertex  2.600000e-01 -9.800000e-01  0.000000e+00
     vertex  6.500000e-02  9.800000e-01  4.500000e-02
     vertex  2.600000e-01 -9.800000e-01  4.500000e-02
   endloop
 endfacet
 facet normal  0.000000e+00 -1.000000e+00  0.000000e+00
   outer loop
     vertex  2.600000e-01 -9.800000e-01  0.000000e+00
     vertex  1.700000e-01 -9.800000e-01  4.500000e-02
     vertex  1.700000e-01 -9.800000e-01  0.000000e+00
   endloop
 endfacet
 facet normal  0.000000e+00 -1.000000e+00  0.000000e+00
   outer loop
     vertex  2.600000e-01 -9.800000e-01  0.000000e+00
     vertex  2.600000e-01 -9.800000e-01  4.500000e-02
     vertex  1.700000e-01 -9.800000e-01  4.500000e-02
   endloop
 endfacet
 facet normal -9.637300e-01 -2.668791e-01  0.000000e+00
   outer loop
     vertex  1.700000e-01 -9.800000e-01  0.000000e+00
     vertex -1.000000e-01 -5.000000e-03  4.500000e-02
     vertex -1.000000e-01 -5.000000e-03  0.000000e+00
   endloop
 endfacet
 facet normal -9.637300e-01 -2.668791e-01  0.000000e+00
   outer loop
     vertex  1.700000e-01 -9.800000e-01  0.000000e+00
     vertex  1.700000e-01 -9.800000e-01  4.500000e-02
     vertex -1.000000e-01 -5.000000e-03  4.500000e-02
   endloop
 endfacet
 facet normal  0.000000e+00  0.000000e+00 -1.000000e+00
   outer loop
     vertex -1.000000e-01 -5.000000e-03  0.000000e+00
     vertex  2.600000e-01 -9.800000e-01  0.000000e+00
     vertex  1.700000e-01 -9.800000e-01  0.000000e+00
   endloop
 endfacet
 facet normal  0.000000e+00  0.000000e+00 -1.000000e+00
   outer loop
     vertex  2.600000e-01 -9.800000e-01  0.000000e+00
     vertex -1.000000e-01 -5.000000e-03  0.000000e+00
     vertex  6.500000e-02  9.800000e-01  0.000000e+00
   endloop
 endfacet
 facet normal  0.000000e+00  0.000000e+00  1.000000e+00
   outer loop
     vertex -1.000000e-01 -5.000000e-03  4.500000e-02
     vertex  1.700000e-01 -9.800000e-01  4.500000e-02
     vertex  2.600000e-01 -9.800000e-01  4.500000e-02
   endloop
 endfacet
 facet normal  0.000000e+00  0.000000e+00  1.000000e+00
   outer loop
     vertex  2.600000e-01 -9.800000e-01  4.500000e-02
     vertex  6.500000e-02  9.800000e-01  4.500000e-02
     vertex -1.000000e-01 -5.000000e-03  4.500000e-02
   endloop
 endfacet
endsolid
