solid 
 facet normal  9.941380e-01  1.081190e-01  0.000000e+00
   outer loop
     vertex  5.207813e+01  6.001720e+01  4.800000e+01
     vertex  5.208000e+01  6.000000e+01  4.800000e+01
     vertex  5.208000e+01  6.000000e+01  4.700000e+01
   endloop
 endfacet
 facet normal  9.941380e-01  1.081190e-01  0.000000e+00
   outer loop
     vertex  5.207813e+01  6.001720e+01  4.800000e+01
     vertex  5.208000e+01  6.000000e+01  4.700000e+01
     vertex  5.207813e+01  6.001720e+01  4.700000e+01
   endloop
 endfacet
 facet normal  9.476532e-01  3.193015e-01  0.000000e+00
   outer loop
     vertex  5.207261e+01  6.003359e+01  4.800000e+01
     vertex  5.207813e+01  6.001720e+01  4.700000e+01
     vertex  5.207261e+01  6.003359e+01  4.700000e+01
   endloop
 endfacet
 facet normal  9.476532e-01  3.193015e-01  0.000000e+00
   outer loop
     vertex  5.207261e+01  6.003359e+01  4.800000e+01
     vertex  5.207813e+01  6.001720e+01  4.800000e+01
     vertex  5.207813e+01  6.001720e+01  4.700000e+01
   endloop
 endfacet
 facet normal  8.568572e-01  5.155539e-01  0.000000e+00
   outer loop
     vertex  5.206369e+01  6.004841e+01  4.800000e+01
     vertex  5.207261e+01  6.003359e+01  4.700000e+01
     vertex  5.206369e+01  6.004841e+01  4.700000e+01
   endloop
 endfacet
 facet normal  8.568572e-01  5.155539e-01  0.000000e+00
   outer loop
     vertex  5.206369e+01  6.004841e+01  4.800000e+01
     vertex  5.207261e+01  6.003359e+01  4.800000e+01
     vertex  5.207261e+01  6.003359e+01  4.700000e+01
   endloop
 endfacet
 facet normal  7.259955e-01  6.876995e-01  0.000000e+00
   outer loop
     vertex  5.205179e+01  6.006097e+01  4.800000e+01
     vertex  5.206369e+01  6.004841e+01  4.700000e+01
     vertex  5.205179e+01  6.006097e+01  4.700000e+01
   endloop
 endfacet
 facet normal  7.259955e-01  6.876995e-01  0.000000e+00
   outer loop
     vertex  5.205179e+01  6.006097e+01  4.800000e+01
     vertex  5.206369e+01  6.004841e+01  4.800000e+01
     vertex  5.206369e+01  6.004841e+01  4.700000e+01
   endloop
 endfacet
 facet normal  5.611871e-01  8.276890e-01  0.000000e+00
   outer loop
     vertex  5.203747e+01  6.007068e+01  4.800000e+01
     vertex  5.205179e+01  6.006097e+01  4.700000e+01
     vertex  5.203747e+01  6.007068e+01  4.700000e+01
   endloop
 endfacet
 facet normal  5.611871e-01  8.276890e-01  0.000000e+00
   outer loop
     vertex  5.203747e+01  6.007068e+01  4.800000e+01
     vertex  5.205179e+01  6.006097e+01  4.800000e+01
     vertex  5.205179e+01  6.006097e+01  4.700000e+01
   endloop
 endfacet
 facet normal  3.701382e-01  9.289767e-01  0.000000e+00
   outer loop
     vertex  5.202140e+01  6.007708e+01  4.800000e+01
     vertex  5.203747e+01  6.007068e+01  4.700000e+01
     vertex  5.202140e+01  6.007708e+01  4.700000e+01
   endloop
 endfacet
 facet normal  3.701382e-01  9.289767e-01  0.000000e+00
   outer loop
     vertex  5.202140e+01  6.007708e+01  4.800000e+01
     vertex  5.203747e+01  6.007068e+01  4.800000e+01
     vertex  5.203747e+01  6.007068e+01  4.700000e+01
   endloop
 endfacet
 facet normal  1.617820e-01  9.868265e-01  0.000000e+00
   outer loop
     vertex  5.200433e+01  6.007988e+01  4.800000e+01
     vertex  5.202140e+01  6.007708e+01  4.700000e+01
     vertex  5.200433e+01  6.007988e+01  4.700000e+01
   endloop
 endfacet
 facet normal  1.617820e-01  9.868265e-01  0.000000e+00
   outer loop
     vertex  5.200433e+01  6.007988e+01  4.800000e+01
     vertex  5.202140e+01  6.007708e+01  4.800000e+01
     vertex  5.202140e+01  6.007708e+01  4.700000e+01
   endloop
 endfacet
 facet normal -5.413891e-02  9.985334e-01  0.000000e+00
   outer loop
     vertex  5.198706e+01  6.007895e+01  4.800000e+01
     vertex  5.200433e+01  6.007988e+01  4.700000e+01
     vertex  5.198706e+01  6.007895e+01  4.700000e+01
   endloop
 endfacet
 facet normal -5.413891e-02  9.985334e-01  0.000000e+00
   outer loop
     vertex  5.198706e+01  6.007895e+01  4.800000e+01
     vertex  5.200433e+01  6.007988e+01  4.800000e+01
     vertex  5.200433e+01  6.007988e+01  4.700000e+01
   endloop
 endfacet
 facet normal -2.675283e-01  9.635500e-01  0.000000e+00
   outer loop
     vertex  5.197039e+01  6.007432e+01  4.800000e+01
     vertex  5.198706e+01  6.007895e+01  4.700000e+01
     vertex  5.197039e+01  6.007432e+01  4.700000e+01
   endloop
 endfacet
 facet normal -2.675283e-01  9.635500e-01  0.000000e+00
   outer loop
     vertex  5.197039e+01  6.007432e+01  4.800000e+01
     vertex  5.198706e+01  6.007895e+01  4.800000e+01
     vertex  5.198706e+01  6.007895e+01  4.700000e+01
   endloop
 endfacet
 facet normal -4.684084e-01  8.835120e-01  0.000000e+00
   outer loop
     vertex  5.195511e+01  6.006622e+01  4.800000e+01
     vertex  5.197039e+01  6.007432e+01  4.800000e+01
     vertex  5.197039e+01  6.007432e+01  4.700000e+01
   endloop
 endfacet
 facet normal -4.684084e-01  8.835120e-01  0.000000e+00
   outer loop
     vertex  5.195511e+01  6.006622e+01  4.800000e+01
     vertex  5.197039e+01  6.007432e+01  4.700000e+01
     vertex  5.195511e+01  6.006622e+01  4.700000e+01
   endloop
 endfacet
 facet normal -6.473863e-01  7.621621e-01  0.000000e+00
   outer loop
     vertex  5.194192e+01  6.005502e+01  4.800000e+01
     vertex  5.195511e+01  6.006622e+01  4.800000e+01
     vertex  5.195511e+01  6.006622e+01  4.700000e+01
   endloop
 endfacet
 facet normal -6.473863e-01  7.621621e-01  0.000000e+00
   outer loop
     vertex  5.194192e+01  6.005502e+01  4.800000e+01
     vertex  5.195511e+01  6.006622e+01  4.700000e+01
     vertex  5.194192e+01  6.005502e+01  4.700000e+01
   endloop
 endfacet
 facet normal -7.960931e-01  6.051742e-01  0.000000e+00
   outer loop
     vertex  5.193145e+01  6.004124e+01  4.800000e+01
     vertex  5.194192e+01  6.005502e+01  4.700000e+01
     vertex  5.193145e+01  6.004124e+01  4.700000e+01
   endloop
 endfacet
 facet normal -7.960931e-01  6.051742e-01  0.000000e+00
   outer loop
     vertex  5.193145e+01  6.004124e+01  4.800000e+01
     vertex  5.194192e+01  6.005502e+01  4.800000e+01
     vertex  5.194192e+01  6.005502e+01  4.700000e+01
   endloop
 endfacet
 facet normal -9.075754e-01  4.198891e-01  0.000000e+00
   outer loop
     vertex  5.192419e+01  6.002554e+01  4.800000e+01
     vertex  5.193145e+01  6.004124e+01  4.700000e+01
     vertex  5.192419e+01  6.002554e+01  4.700000e+01
   endloop
 endfacet
 facet normal -9.075754e-01  4.198891e-01  0.000000e+00
   outer loop
     vertex  5.192419e+01  6.002554e+01  4.800000e+01
     vertex  5.193145e+01  6.004124e+01  4.800000e+01
     vertex  5.193145e+01  6.004124e+01  4.700000e+01
   endloop
 endfacet
 facet normal -9.766206e-01  2.149704e-01  0.000000e+00
   outer loop
     vertex  5.192047e+01  6.000865e+01  4.800000e+01
     vertex  5.192419e+01  6.002554e+01  4.700000e+01
     vertex  5.192047e+01  6.000865e+01  4.700000e+01
   endloop
 endfacet
 facet normal -9.766206e-01  2.149704e-01  0.000000e+00
   outer loop
     vertex  5.192047e+01  6.000865e+01  4.800000e+01
     vertex  5.192419e+01  6.002554e+01  4.800000e+01
     vertex  5.192419e+01  6.002554e+01  4.700000e+01
   endloop
 endfacet
 facet normal -1.000000e+00  0.000000e+00  0.000000e+00
   outer loop
     vertex  5.192047e+01  5.999135e+01  4.800000e+01
     vertex  5.192047e+01  6.000865e+01  4.700000e+01
     vertex  5.192047e+01  5.999135e+01  4.700000e+01
   endloop
 endfacet
 facet normal -1.000000e+00  0.000000e+00  0.000000e+00
   outer loop
     vertex  5.192047e+01  5.999135e+01  4.800000e+01
     vertex  5.192047e+01  6.000865e+01  4.800000e+01
     vertex  5.192047e+01  6.000865e+01  4.700000e+01
   endloop
 endfacet
 facet normal -9.766206e-01 -2.149704e-01 -0.000000e+00
   outer loop
     vertex  5.192419e+01  5.997446e+01  4.800000e+01
     vertex  5.192047e+01  5.999135e+01  4.700000e+01
     vertex  5.192419e+01  5.997446e+01  4.700000e+01
   endloop
 endfacet
 facet normal -9.766206e-01 -2.149704e-01  0.000000e+00
   outer loop
     vertex  5.192419e+01  5.997446e+01  4.800000e+01
     vertex  5.192047e+01  5.999135e+01  4.800000e+01
     vertex  5.192047e+01  5.999135e+01  4.700000e+01
   endloop
 endfacet
 facet normal -9.075754e-01 -4.198891e-01 -0.000000e+00
   outer loop
     vertex  5.193145e+01  5.995876e+01  4.800000e+01
     vertex  5.192419e+01  5.997446e+01  4.700000e+01
     vertex  5.193145e+01  5.995876e+01  4.700000e+01
   endloop
 endfacet
 facet normal -9.075754e-01 -4.198891e-01  0.000000e+00
   outer loop
     vertex  5.193145e+01  5.995876e+01  4.800000e+01
     vertex  5.192419e+01  5.997446e+01  4.800000e+01
     vertex  5.192419e+01  5.997446e+01  4.700000e+01
   endloop
 endfacet
 facet normal -7.960931e-01 -6.051742e-01 -0.000000e+00
   outer loop
     vertex  5.194192e+01  5.994498e+01  4.800000e+01
     vertex  5.193145e+01  5.995876e+01  4.700000e+01
     vertex  5.194192e+01  5.994498e+01  4.700000e+01
   endloop
 endfacet
 facet normal -7.960931e-01 -6.051742e-01  0.000000e+00
   outer loop
     vertex  5.194192e+01  5.994498e+01  4.800000e+01
     vertex  5.193145e+01  5.995876e+01  4.800000e+01
     vertex  5.193145e+01  5.995876e+01  4.700000e+01
   endloop
 endfacet
 facet normal -6.473863e-01 -7.621621e-01 -0.000000e+00
   outer loop
     vertex  5.195511e+01  5.993378e+01  4.800000e+01
     vertex  5.194192e+01  5.994498e+01  4.700000e+01
     vertex  5.195511e+01  5.993378e+01  4.700000e+01
   endloop
 endfacet
 facet normal -6.473863e-01 -7.621621e-01  0.000000e+00
   outer loop
     vertex  5.195511e+01  5.993378e+01  4.800000e+01
     vertex  5.194192e+01  5.994498e+01  4.800000e+01
     vertex  5.194192e+01  5.994498e+01  4.700000e+01
   endloop
 endfacet
 facet normal -4.684084e-01 -8.835120e-01 -0.000000e+00
   outer loop
     vertex  5.197039e+01  5.992568e+01  4.800000e+01
     vertex  5.195511e+01  5.993378e+01  4.700000e+01
     vertex  5.197039e+01  5.992568e+01  4.700000e+01
   endloop
 endfacet
 facet normal -4.684084e-01 -8.835120e-01  0.000000e+00
   outer loop
     vertex  5.197039e+01  5.992568e+01  4.800000e+01
     vertex  5.195511e+01  5.993378e+01  4.800000e+01
     vertex  5.195511e+01  5.993378e+01  4.700000e+01
   endloop
 endfacet
 facet normal -2.675283e-01 -9.635500e-01 -0.000000e+00
   outer loop
     vertex  5.198706e+01  5.992105e+01  4.800000e+01
     vertex  5.197039e+01  5.992568e+01  4.700000e+01
     vertex  5.198706e+01  5.992105e+01  4.700000e+01
   endloop
 endfacet
 facet normal -2.675283e-01 -9.635500e-01  0.000000e+00
   outer loop
     vertex  5.198706e+01  5.992105e+01  4.800000e+01
     vertex  5.197039e+01  5.992568e+01  4.800000e+01
     vertex  5.197039e+01  5.992568e+01  4.700000e+01
   endloop
 endfacet
 facet normal -5.413891e-02 -9.985334e-01 -0.000000e+00
   outer loop
     vertex  5.200433e+01  5.992012e+01  4.800000e+01
     vertex  5.198706e+01  5.992105e+01  4.700000e+01
     vertex  5.200433e+01  5.992012e+01  4.700000e+01
   endloop
 endfacet
 facet normal -5.413891e-02 -9.985334e-01  0.000000e+00
   outer loop
     vertex  5.200433e+01  5.992012e+01  4.800000e+01
     vertex  5.198706e+01  5.992105e+01  4.800000e+01
     vertex  5.198706e+01  5.992105e+01  4.700000e+01
   endloop
 endfacet
 facet normal  1.617820e-01 -9.868265e-01  0.000000e+00
   outer loop
     vertex  5.202140e+01  5.992292e+01  4.800000e+01
     vertex  5.200433e+01  5.992012e+01  4.700000e+01
     vertex  5.202140e+01  5.992292e+01  4.700000e+01
   endloop
 endfacet
 facet normal  1.617820e-01 -9.868265e-01  0.000000e+00
   outer loop
     vertex  5.202140e+01  5.992292e+01  4.800000e+01
     vertex  5.200433e+01  5.992012e+01  4.800000e+01
     vertex  5.200433e+01  5.992012e+01  4.700000e+01
   endloop
 endfacet
 facet normal  3.701382e-01 -9.289767e-01  0.000000e+00
   outer loop
     vertex  5.203747e+01  5.992932e+01  4.800000e+01
     vertex  5.202140e+01  5.992292e+01  4.700000e+01
     vertex  5.203747e+01  5.992932e+01  4.700000e+01
   endloop
 endfacet
 facet normal  3.701382e-01 -9.289767e-01  0.000000e+00
   outer loop
     vertex  5.203747e+01  5.992932e+01  4.800000e+01
     vertex  5.202140e+01  5.992292e+01  4.800000e+01
     vertex  5.202140e+01  5.992292e+01  4.700000e+01
   endloop
 endfacet
 facet normal  5.611871e-01 -8.276890e-01  0.000000e+00
   outer loop
     vertex  5.205179e+01  5.993903e+01  4.800000e+01
     vertex  5.203747e+01  5.992932e+01  4.700000e+01
     vertex  5.205179e+01  5.993903e+01  4.700000e+01
   endloop
 endfacet
 facet normal  5.611871e-01 -8.276890e-01  0.000000e+00
   outer loop
     vertex  5.205179e+01  5.993903e+01  4.800000e+01
     vertex  5.203747e+01  5.992932e+01  4.800000e+01
     vertex  5.203747e+01  5.992932e+01  4.700000e+01
   endloop
 endfacet
 facet normal  7.259955e-01 -6.876995e-01  0.000000e+00
   outer loop
     vertex  5.206369e+01  5.995159e+01  4.800000e+01
     vertex  5.205179e+01  5.993903e+01  4.700000e+01
     vertex  5.206369e+01  5.995159e+01  4.700000e+01
   endloop
 endfacet
 facet normal  7.259955e-01 -6.876995e-01  0.000000e+00
   outer loop
     vertex  5.206369e+01  5.995159e+01  4.800000e+01
     vertex  5.205179e+01  5.993903e+01  4.800000e+01
     vertex  5.205179e+01  5.993903e+01  4.700000e+01
   endloop
 endfacet
 facet normal  8.568572e-01 -5.155539e-01  0.000000e+00
   outer loop
     vertex  5.207261e+01  5.996641e+01  4.800000e+01
     vertex  5.206369e+01  5.995159e+01  4.700000e+01
     vertex  5.207261e+01  5.996641e+01  4.700000e+01
   endloop
 endfacet
 facet normal  8.568572e-01 -5.155539e-01  0.000000e+00
   outer loop
     vertex  5.207261e+01  5.996641e+01  4.800000e+01
     vertex  5.206369e+01  5.995159e+01  4.800000e+01
     vertex  5.206369e+01  5.995159e+01  4.700000e+01
   endloop
 endfacet
 facet normal  9.476532e-01 -3.193015e-01  0.000000e+00
   outer loop
     vertex  5.207813e+01  5.998280e+01  4.800000e+01
     vertex  5.207261e+01  5.996641e+01  4.700000e+01
     vertex  5.207813e+01  5.998280e+01  4.700000e+01
   endloop
 endfacet
 facet normal  9.476532e-01 -3.193015e-01  0.000000e+00
   outer loop
     vertex  5.207813e+01  5.998280e+01  4.800000e+01
     vertex  5.207261e+01  5.996641e+01  4.800000e+01
     vertex  5.207261e+01  5.996641e+01  4.700000e+01
   endloop
 endfacet
 facet normal  9.941380e-01 -1.081190e-01  0.000000e+00
   outer loop
     vertex  5.208000e+01  6.000000e+01  4.800000e+01
     vertex  5.207813e+01  5.998280e+01  4.700000e+01
     vertex  5.208000e+01  6.000000e+01  4.700000e+01
   endloop
 endfacet
 facet normal  9.941380e-01 -1.081190e-01  0.000000e+00
   outer loop
     vertex  5.208000e+01  6.000000e+01  4.800000e+01
     vertex  5.207813e+01  5.998280e+01  4.800000e+01
     vertex  5.207813e+01  5.998280e+01  4.700000e+01
   endloop
 endfacet
 facet normal  0.000000e+00  0.000000e+00  1.000000e+00
   outer loop
     vertex  5.205179e+01  6.006097e+01  4.800000e+01
     vertex  5.208000e+01  6.000000e+01  4.800000e+01
     vertex  5.207813e+01  6.001720e+01  4.800000e+01
   endloop
 endfacet
 facet normal  0.000000e+00  0.000000e+00  1.000000e+00
   outer loop
     vertex  5.205179e+01  6.006097e+01  4.800000e+01
     vertex  5.207813e+01  6.001720e+01  4.800000e+01
     vertex  5.207261e+01  6.003359e+01  4.800000e+01
   endloop
 endfacet
 facet normal  0.000000e+00  0.000000e+00  1.000000e+00
   outer loop
     vertex  5.205179e+01  6.006097e+01  4.800000e+01
     vertex  5.207261e+01  6.003359e+01  4.800000e+01
     vertex  5.206369e+01  6.004841e+01  4.800000e+01
   endloop
 endfacet
 facet normal  0.000000e+00  0.000000e+00  1.000000e+00
   outer loop
     vertex  5.205179e+01  6.006097e+01  4.800000e+01
     vertex  5.203747e+01  6.007068e+01  4.800000e+01
     vertex  5.202140e+01  6.007708e+01  4.800000e+01
   endloop
 endfacet
 facet normal  0.000000e+00  0.000000e+00  1.000000e+00
   outer loop
     vertex  5.205179e+01  6.006097e+01  4.800000e+01
     vertex  5.202140e+01  6.007708e+01  4.800000e+01
     vertex  5.200433e+01  6.007988e+01  4.800000e+01
   endloop
 endfacet
 facet normal  0.000000e+00  0.000000e+00  1.000000e+00
   outer loop
     vertex  5.205179e+01  6.006097e+01  4.800000e+01
     vertex  5.200433e+01  6.007988e+01  4.800000e+01
     vertex  5.198706e+01  6.007895e+01  4.800000e+01
   endloop
 endfacet
 facet normal  0.000000e+00  0.000000e+00  1.000000e+00
   outer loop
     vertex  5.205179e+01  6.006097e+01  4.800000e+01
     vertex  5.198706e+01  6.007895e+01  4.800000e+01
     vertex  5.197039e+01  6.007432e+01  4.800000e+01
   endloop
 endfacet
 facet normal  0.000000e+00  0.000000e+00  1.000000e+00
   outer loop
     vertex  5.205179e+01  6.006097e+01  4.800000e+01
     vertex  5.197039e+01  6.007432e+01  4.800000e+01
     vertex  5.195511e+01  6.006622e+01  4.800000e+01
   endloop
 endfacet
 facet normal  0.000000e+00  0.000000e+00  1.000000e+00
   outer loop
     vertex  5.205179e+01  6.006097e+01  4.800000e+01
     vertex  5.195511e+01  6.006622e+01  4.800000e+01
     vertex  5.194192e+01  6.005502e+01  4.800000e+01
   endloop
 endfacet
 facet normal  0.000000e+00  0.000000e+00  1.000000e+00
   outer loop
     vertex  5.205179e+01  6.006097e+01  4.800000e+01
     vertex  5.194192e+01  6.005502e+01  4.800000e+01
     vertex  5.193145e+01  6.004124e+01  4.800000e+01
   endloop
 endfacet
 facet normal  0.000000e+00  0.000000e+00  1.000000e+00
   outer loop
     vertex  5.205179e+01  6.006097e+01  4.800000e+01
     vertex  5.193145e+01  6.004124e+01  4.800000e+01
     vertex  5.192419e+01  6.002554e+01  4.800000e+01
   endloop
 endfacet
 facet normal  0.000000e+00  0.000000e+00  1.000000e+00
   outer loop
     vertex  5.205179e+01  6.006097e+01  4.800000e+01
     vertex  5.192419e+01  6.002554e+01  4.800000e+01
     vertex  5.192047e+01  6.000865e+01  4.800000e+01
   endloop
 endfacet
 facet normal  0.000000e+00  0.000000e+00  1.000000e+00
   outer loop
     vertex  5.205179e+01  6.006097e+01  4.800000e+01
     vertex  5.192047e+01  6.000865e+01  4.800000e+01
     vertex  5.192047e+01  5.999135e+01  4.800000e+01
   endloop
 endfacet
 facet normal  0.000000e+00  0.000000e+00  1.000000e+00
   outer loop
     vertex  5.205179e+01  6.006097e+01  4.800000e+01
     vertex  5.192047e+01  5.999135e+01  4.800000e+01
     vertex  5.192419e+01  5.997446e+01  4.800000e+01
   endloop
 endfacet
 facet normal  0.000000e+00  0.000000e+00  1.000000e+00
   outer loop
     vertex  5.205179e+01  6.006097e+01  4.800000e+01
     vertex  5.192419e+01  5.997446e+01  4.800000e+01
     vertex  5.193145e+01  5.995876e+01  4.800000e+01
   endloop
 endfacet
 facet normal  0.000000e+00  0.000000e+00  1.000000e+00
   outer loop
     vertex  5.205179e+01  6.006097e+01  4.800000e+01
     vertex  5.193145e+01  5.995876e+01  4.800000e+01
     vertex  5.194192e+01  5.994498e+01  4.800000e+01
   endloop
 endfacet
 facet normal  0.000000e+00  0.000000e+00  1.000000e+00
   outer loop
     vertex  5.205179e+01  6.006097e+01  4.800000e+01
     vertex  5.194192e+01  5.994498e+01  4.800000e+01
     vertex  5.195511e+01  5.993378e+01  4.800000e+01
   endloop
 endfacet
 facet normal  0.000000e+00  0.000000e+00  1.000000e+00
   outer loop
     vertex  5.205179e+01  6.006097e+01  4.800000e+01
     vertex  5.195511e+01  5.993378e+01  4.800000e+01
     vertex  5.197039e+01  5.992568e+01  4.800000e+01
   endloop
 endfacet
 facet normal  0.000000e+00  0.000000e+00  1.000000e+00
   outer loop
     vertex  5.205179e+01  6.006097e+01  4.800000e+01
     vertex  5.197039e+01  5.992568e+01  4.800000e+01
     vertex  5.198706e+01  5.992105e+01  4.800000e+01
   endloop
 endfacet
 facet normal  0.000000e+00  0.000000e+00  1.000000e+00
   outer loop
     vertex  5.205179e+01  6.006097e+01  4.800000e+01
     vertex  5.198706e+01  5.992105e+01  4.800000e+01
     vertex  5.200433e+01  5.992012e+01  4.800000e+01
   endloop
 endfacet
 facet normal  0.000000e+00  0.000000e+00  1.000000e+00
   outer loop
     vertex  5.205179e+01  6.006097e+01  4.800000e+01
     vertex  5.200433e+01  5.992012e+01  4.800000e+01
     vertex  5.202140e+01  5.992292e+01  4.800000e+01
   endloop
 endfacet
 facet normal  0.000000e+00  0.000000e+00  1.000000e+00
   outer loop
     vertex  5.205179e+01  6.006097e+01  4.800000e+01
     vertex  5.202140e+01  5.992292e+01  4.800000e+01
     vertex  5.203747e+01  5.992932e+01  4.800000e+01
   endloop
 endfacet
 facet normal  0.000000e+00  0.000000e+00  1.000000e+00
   outer loop
     vertex  5.205179e+01  6.006097e+01  4.800000e+01
     vertex  5.203747e+01  5.992932e+01  4.800000e+01
     vertex  5.205179e+01  5.993903e+01  4.800000e+01
   endloop
 endfacet
 facet normal  0.000000e+00  0.000000e+00  1.000000e+00
   outer loop
     vertex  5.205179e+01  6.006097e+01  4.800000e+01
     vertex  5.205179e+01  5.993903e+01  4.800000e+01
     vertex  5.206369e+01  5.995159e+01  4.800000e+01
   endloop
 endfacet
 facet normal  0.000000e+00  0.000000e+00  1.000000e+00
   outer loop
     vertex  5.205179e+01  6.006097e+01  4.800000e+01
     vertex  5.206369e+01  5.995159e+01  4.800000e+01
     vertex  5.207261e+01  5.996641e+01  4.800000e+01
   endloop
 endfacet
 facet normal  0.000000e+00  0.000000e+00  1.000000e+00
   outer loop
     vertex  5.205179e+01  6.006097e+01  4.800000e+01
     vertex  5.207261e+01  5.996641e+01  4.800000e+01
     vertex  5.207813e+01  5.998280e+01  4.800000e+01
   endloop
 endfacet
 facet normal  0.000000e+00  0.000000e+00  1.000000e+00
   outer loop
     vertex  5.205179e+01  6.006097e+01  4.800000e+01
     vertex  5.207813e+01  5.998280e+01  4.800000e+01
     vertex  5.208000e+01  6.000000e+01  4.800000e+01
   endloop
 endfacet
 facet normal  0.000000e+00  0.000000e+00 -1.000000e+00
   outer loop
     vertex  5.205179e+01  6.006097e+01  4.700000e+01
     vertex  5.207813e+01  6.001720e+01  4.700000e+01
     vertex  5.208000e+01  6.000000e+01  4.700000e+01
   endloop
 endfacet
 facet normal  0.000000e+00  0.000000e+00 -1.000000e+00
   outer loop
     vertex  5.205179e+01  6.006097e+01  4.700000e+01
     vertex  5.207261e+01  6.003359e+01  4.700000e+01
     vertex  5.207813e+01  6.001720e+01  4.700000e+01
   endloop
 endfacet
 facet normal  0.000000e+00  0.000000e+00 -1.000000e+00
   outer loop
     vertex  5.205179e+01  6.006097e+01  4.700000e+01
     vertex  5.206369e+01  6.004841e+01  4.700000e+01
     vertex  5.207261e+01  6.003359e+01  4.700000e+01
   endloop
 endfacet
 facet normal  0.000000e+00  0.000000e+00 -1.000000e+00
   outer loop
     vertex  5.205179e+01  6.006097e+01  4.700000e+01
     vertex  5.202140e+01  6.007708e+01  4.700000e+01
     vertex  5.203747e+01  6.007068e+01  4.700000e+01
   endloop
 endfacet
 facet normal  0.000000e+00  0.000000e+00 -1.000000e+00
   outer loop
     vertex  5.205179e+01  6.006097e+01  4.700000e+01
     vertex  5.200433e+01  6.007988e+01  4.700000e+01
     vertex  5.202140e+01  6.007708e+01  4.700000e+01
   endloop
 endfacet
 facet normal  0.000000e+00  0.000000e+00 -1.000000e+00
   outer loop
     vertex  5.205179e+01  6.006097e+01  4.700000e+01
     vertex  5.198706e+01  6.007895e+01  4.700000e+01
     vertex  5.200433e+01  6.007988e+01  4.700000e+01
   endloop
 endfacet
 facet normal  0.000000e+00  0.000000e+00 -1.000000e+00
   outer loop
     vertex  5.205179e+01  6.006097e+01  4.700000e+01
     vertex  5.197039e+01  6.007432e+01  4.700000e+01
     vertex  5.198706e+01  6.007895e+01  4.700000e+01
   endloop
 endfacet
 facet normal  0.000000e+00  0.000000e+00 -1.000000e+00
   outer loop
     vertex  5.205179e+01  6.006097e+01  4.700000e+01
     vertex  5.195511e+01  6.006622e+01  4.700000e+01
     vertex  5.197039e+01  6.007432e+01  4.700000e+01
   endloop
 endfacet
 facet normal -0.000000e+00  0.000000e+00 -1.000000e+00
   outer loop
     vertex  5.205179e+01  6.006097e+01  4.700000e+01
     vertex  5.194192e+01  6.005502e+01  4.700000e+01
     vertex  5.195511e+01  6.006622e+01  4.700000e+01
   endloop
 endfacet
 facet normal  0.000000e+00  0.000000e+00 -1.000000e+00
   outer loop
     vertex  5.205179e+01  6.006097e+01  4.700000e+01
     vertex  5.193145e+01  6.004124e+01  4.700000e+01
     vertex  5.194192e+01  6.005502e+01  4.700000e+01
   endloop
 endfacet
 facet normal  0.000000e+00  0.000000e+00 -1.000000e+00
   outer loop
     vertex  5.205179e+01  6.006097e+01  4.700000e+01
     vertex  5.192419e+01  6.002554e+01  4.700000e+01
     vertex  5.193145e+01  6.004124e+01  4.700000e+01
   endloop
 endfacet
 facet normal  0.000000e+00  0.000000e+00 -1.000000e+00
   outer loop
     vertex  5.205179e+01  6.006097e+01  4.700000e+01
     vertex  5.192047e+01  6.000865e+01  4.700000e+01
     vertex  5.192419e+01  6.002554e+01  4.700000e+01
   endloop
 endfacet
 facet normal  0.000000e+00  0.000000e+00 -1.000000e+00
   outer loop
     vertex  5.205179e+01  6.006097e+01  4.700000e+01
     vertex  5.192047e+01  5.999135e+01  4.700000e+01
     vertex  5.192047e+01  6.000865e+01  4.700000e+01
   endloop
 endfacet
 facet normal  0.000000e+00  0.000000e+00 -1.000000e+00
   outer loop
     vertex  5.205179e+01  6.006097e+01  4.700000e+01
     vertex  5.192419e+01  5.997446e+01  4.700000e+01
     vertex  5.192047e+01  5.999135e+01  4.700000e+01
   endloop
 endfacet
 facet normal  0.000000e+00  0.000000e+00 -1.000000e+00
   outer loop
     vertex  5.205179e+01  6.006097e+01  4.700000e+01
     vertex  5.193145e+01  5.995876e+01  4.700000e+01
     vertex  5.192419e+01  5.997446e+01  4.700000e+01
   endloop
 endfacet
 facet normal  0.000000e+00  0.000000e+00 -1.000000e+00
   outer loop
     vertex  5.205179e+01  6.006097e+01  4.700000e+01
     vertex  5.194192e+01  5.994498e+01  4.700000e+01
     vertex  5.193145e+01  5.995876e+01  4.700000e+01
   endloop
 endfacet
 facet normal  0.000000e+00  0.000000e+00 -1.000000e+00
   outer loop
     vertex  5.205179e+01  6.006097e+01  4.700000e+01
     vertex  5.195511e+01  5.993378e+01  4.700000e+01
     vertex  5.194192e+01  5.994498e+01  4.700000e+01
   endloop
 endfacet
 facet normal  0.000000e+00  0.000000e+00 -1.000000e+00
   outer loop
     vertex  5.205179e+01  6.006097e+01  4.700000e+01
     vertex  5.197039e+01  5.992568e+01  4.700000e+01
     vertex  5.195511e+01  5.993378e+01  4.700000e+01
   endloop
 endfacet
 facet normal  0.000000e+00  0.000000e+00 -1.000000e+00
   outer loop
     vertex  5.205179e+01  6.006097e+01  4.700000e+01
     vertex  5.198706e+01  5.992105e+01  4.700000e+01
     vertex  5.197039e+01  5.992568e+01  4.700000e+01
   endloop
 endfacet
 facet normal  0.000000e+00  0.000000e+00 -1.000000e+00
   outer loop
     vertex  5.205179e+01  6.006097e+01  4.700000e+01
     vertex  5.200433e+01  5.992012e+01  4.700000e+01
     vertex  5.198706e+01  5.992105e+01  4.700000e+01
   endloop
 endfacet
 facet normal  0.000000e+00  0.000000e+00 -1.000000e+00
   outer loop
     vertex  5.205179e+01  6.006097e+01  4.700000e+01
     vertex  5.202140e+01  5.992292e+01  4.700000e+01
     vertex  5.200433e+01  5.992012e+01  4.700000e+01
   endloop
 endfacet
 facet normal  0.000000e+00  0.000000e+00 -1.000000e+00
   outer loop
     vertex  5.205179e+01  6.006097e+01  4.700000e+01
     vertex  5.203747e+01  5.992932e+01  4.700000e+01
     vertex  5.202140e+01  5.992292e+01  4.700000e+01
   endloop
 endfacet
 facet normal  0.000000e+00 -0.000000e+00 -1.000000e+00
   outer loop
     vertex  5.205179e+01  6.006097e+01  4.700000e+01
     vertex  5.205179e+01  5.993903e+01  4.700000e+01
     vertex  5.203747e+01  5.992932e+01  4.700000e+01
   endloop
 endfacet
 facet normal  0.000000e+00  0.000000e+00 -1.000000e+00
   outer loop
     vertex  5.205179e+01  6.006097e+01  4.700000e+01
     vertex  5.206369e+01  5.995159e+01  4.700000e+01
     vertex  5.205179e+01  5.993903e+01  4.700000e+01
   endloop
 endfacet
 facet normal  0.000000e+00  0.000000e+00 -1.000000e+00
   outer loop
     vertex  5.205179e+01  6.006097e+01  4.700000e+01
     vertex  5.207261e+01  5.996641e+01  4.700000e+01
     vertex  5.206369e+01  5.995159e+01  4.700000e+01
   endloop
 endfacet
 facet normal  0.000000e+00  0.000000e+00 -1.000000e+00
   outer loop
     vertex  5.205179e+01  6.006097e+01  4.700000e+01
     vertex  5.207813e+01  5.998280e+01  4.700000e+01
     vertex  5.207261e+01  5.996641e+01  4.700000e+01
   endloop
 endfacet
 facet normal  0.000000e+00  0.000000e+00 -1.000000e+00
   outer loop
     vertex  5.205179e+01  6.006097e+01  4.700000e+01
     vertex  5.208000e+01  6.000000e+01  4.700000e+01
     vertex  5.207813e+01  5.998280e+01  4.700000e+01
   endloop
 endfacet
 facet normal  0.000000e+00 -1.000000e+00  0.000000e+00
   outer loop
     vertex  4.000000e-01  0.000000e+00  0.000000e+00
     vertex  0.000000e+00  0.000000e+00  2.400000e-01
     vertex  0.000000e+00  0.000000e+00  0.000000e+00
   endloop
 endfacet
 facet normal  0.000000e+00 -1.000000e+00  0.000000e+00
   outer loop
     vertex  4.000000e-01  0.000000e+00  0.000000e+00
     vertex  4.000000e-01  0.000000e+00  2.400000e-01
     vertex  0.000000e+00  0.000000e+00  2.400000e-01
   endloop
 endfacet
 facet normal  1.000000e+00  0.000000e+00  0.000000e+00
   outer loop
     vertex  4.000000e-01  6.000000e-01  0.000000e+00
     vertex  4.000000e-01  0.000000e+00  2.400000e-01
     vertex  4.000000e-01  0.000000e+00  0.000000e+00
   endloop
 endfacet
 facet normal  1.000000e+00  0.000000e+00 -0.000000e+00
   outer loop
     vertex  4.000000e-01  6.000000e-01  0.000000e+00
     vertex  4.000000e-01  6.000000e-01  2.400000e-01
     vertex  4.000000e-01  0.000000e+00  2.400000e-01
   endloop
 endfacet
 facet normal  0.000000e+00  1.000000e+00  0.000000e+00
   outer loop
     vertex  4.000000e-01  6.000000e-01  0.000000e+00
     vertex  0.000000e+00  6.000000e-01  0.000000e+00
     vertex  0.000000e+00  6.000000e-01  2.400000e-01
   endloop
 endfacet
 facet normal  0.000000e+00  1.000000e+00 -0.000000e+00
   outer loop
     vertex  4.000000e-01  6.000000e-01  0.000000e+00
     vertex  0.000000e+00  6.000000e-01  2.400000e-01
     vertex  4.000000e-01  6.000000e-01  2.400000e-01
   endloop
 endfacet
 facet normal -1.000000e+00  0.000000e+00  0.000000e+00
   outer loop
     vertex  0.000000e+00  6.000000e-01  0.000000e+00
     vertex  0.000000e+00  0.000000e+00  0.000000e+00
     vertex  0.000000e+00  0.000000e+00  2.400000e-01
   endloop
 endfacet
 facet normal -1.000000e+00  0.000000e+00  0.000000e+00
   outer loop
     vertex  0.000000e+00  6.000000e-01  0.000000e+00
     vertex  0.000000e+00  0.000000e+00  2.400000e-01
     vertex  0.000000e+00  6.000000e-01  2.400000e-01
   endloop
 endfacet
 facet normal  0.000000e+00 -0.000000e+00 -1.000000e+00
   outer loop
     vertex  4.000000e-01  6.000000e-01  0.000000e+00
     vertex  4.000000e-01  0.000000e+00  0.000000e+00
     vertex  0.000000e+00  0.000000e+00  0.000000e+00
   endloop
 endfacet
 facet normal -0.000000e+00  0.000000e+00 -1.000000e+00
   outer loop
     vertex  4.000000e-01  6.000000e-01  0.000000e+00
     vertex  0.000000e+00  0.000000e+00  0.000000e+00
     vertex  0.000000e+00  6.000000e-01  0.000000e+00
   endloop
 endfacet
 facet normal  0.000000e+00  0.000000e+00  1.000000e+00
   outer loop
     vertex  4.000000e-01  6.000000e-01  2.400000e-01
     vertex  0.000000e+00  0.000000e+00  2.400000e-01
     vertex  4.000000e-01  0.000000e+00  2.400000e-01
   endloop
 endfacet
 facet normal  0.000000e+00  0.000000e+00  1.000000e+00
   outer loop
     vertex  4.000000e-01  6.000000e-01  2.400000e-01
     vertex  0.000000e+00  6.000000e-01  2.400000e-01
     vertex  0.000000e+00  0.000000e+00  2.400000e-01
   endloop
 endfacet
 facet normal  0.000000e+00  1.000000e+00  0.000000e+00
   outer loop
     vertex  5.186000e+01  6.030000e+01  4.800000e+01
     vertex  5.174000e+01  6.030000e+01  4.788000e+01
     vertex  5.174000e+01  6.030000e+01  4.800000e+01
   endloop
 endfacet
 facet normal  0.000000e+00  1.000000e+00  0.000000e+00
   outer loop
     vertex  5.186000e+01  6.030000e+01  4.800000e+01
     vertex  5.186000e+01  6.030000e+01  4.788000e+01
     vertex  5.174000e+01  6.030000e+01  4.788000e+01
   endloop
 endfacet
 facet normal  1.000000e+00 -0.000000e+00  0.000000e+00
   outer loop
     vertex  5.186000e+01  5.970000e+01  4.800000e+01
     vertex  5.186000e+01  6.030000e+01  4.788000e+01
     vertex  5.186000e+01  6.030000e+01  4.800000e+01
   endloop
 endfacet
 facet normal  1.000000e+00  0.000000e+00  0.000000e+00
   outer loop
     vertex  5.186000e+01  5.970000e+01  4.800000e+01
     vertex  5.186000e+01  5.970000e+01  4.788000e+01
     vertex  5.186000e+01  6.030000e+01  4.788000e+01
   endloop
 endfacet
 facet normal -0.000000e+00 -1.000000e+00  0.000000e+00
   outer loop
     vertex  5.186000e+01  5.970000e+01  4.800000e+01
     vertex  5.174000e+01  5.970000e+01  4.800000e+01
     vertex  5.174000e+01  5.970000e+01  4.788000e+01
   endloop
 endfacet
 facet normal  0.000000e+00 -1.000000e+00 -0.000000e+00
   outer loop
     vertex  5.186000e+01  5.970000e+01  4.800000e+01
     vertex  5.174000e+01  5.970000e+01  4.788000e+01
     vertex  5.186000e+01  5.970000e+01  4.788000e+01
   endloop
 endfacet
 facet normal -1.000000e+00 -0.000000e+00  0.000000e+00
   outer loop
     vertex  5.174000e+01  6.030000e+01  4.800000e+01
     vertex  5.174000e+01  5.970000e+01  4.788000e+01
     vertex  5.174000e+01  5.970000e+01  4.800000e+01
   endloop
 endfacet
 facet normal -1.000000e+00  0.000000e+00 -0.000000e+00
   outer loop
     vertex  5.174000e+01  6.030000e+01  4.800000e+01
     vertex  5.174000e+01  6.030000e+01  4.788000e+01
     vertex  5.174000e+01  5.970000e+01  4.788000e+01
   endloop
 endfacet
 facet normal  0.000000e+00  0.000000e+00  1.000000e+00
   outer loop
     vertex  5.186000e+01  6.030000e+01  4.800000e+01
     vertex  5.174000e+01  6.030000e+01  4.800000e+01
     vertex  5.174000e+01  5.970000e+01  4.800000e+01
   endloop
 endfacet
 facet normal  0.000000e+00  0.000000e+00  1.000000e+00
   outer loop
     vertex  5.186000e+01  6.030000e+01  4.800000e+01
     vertex  5.174000e+01  5.970000e+01  4.800000e+01
     vertex  5.186000e+01  5.970000e+01  4.800000e+01
   endloop
 endfacet
 facet normal -0.000000e+00  0.000000e+00 -1.000000e+00
   outer loop
     vertex  5.186000e+01  6.030000e+01  4.788000e+01
     vertex  5.174000e+01  5.970000e+01  4.788000e+01
     vertex  5.174000e+01  6.030000e+01  4.788000e+01
   endloop
 endfacet
 facet normal  0.000000e+00 -0.000000e+00 -1.000000e+00
   outer loop
     vertex  5.186000e+01  6.030000e+01  4.788000e+01
     vertex  5.186000e+01  5.970000e+01  4.788000e+01
     vertex  5.174000e+01  5.970000e+01  4.788000e+01
   endloop
 endfacet
endsolid
