solid 
 facet normal  9.969173e-01  7.845910e-02  0.000000e+00
   outer loop
     vertex  1.580301e-01  2.502951e-02  0.000000e+00
     vertex  1.600000e-01  0.000000e+00  1.000000e+00
     vertex  1.600000e-01  0.000000e+00  0.000000e+00
   endloop
 endfacet
 facet normal  9.969173e-01  7.845910e-02 -0.000000e+00
   outer loop
     vertex  1.580301e-01  2.502951e-02  0.000000e+00
     vertex  1.580301e-01  2.502951e-02  1.000000e+00
     vertex  1.600000e-01  0.000000e+00  1.000000e+00
   endloop
 endfacet
 facet normal  9.723699e-01  2.334454e-01 -0.000000e+00
   outer loop
     vertex  1.521690e-01  4.944272e-02  0.000000e+00
     vertex  1.521690e-01  4.944272e-02  1.000000e+00
     vertex  1.580301e-01  2.502951e-02  1.000000e+00
   endloop
 endfacet
 facet normal  9.723699e-01  2.334454e-01  0.000000e+00
   outer loop
     vertex  1.521690e-01  4.944272e-02  0.000000e+00
     vertex  1.580301e-01  2.502951e-02  1.000000e+00
     vertex  1.580301e-01  2.502951e-02  0.000000e+00
   endloop
 endfacet
 facet normal  9.238795e-01  3.826834e-01 -0.000000e+00
   outer loop
     vertex  1.425610e-01  7.263848e-02  0.000000e+00
     vertex  1.425610e-01  7.263848e-02  1.000000e+00
     vertex  1.521690e-01  4.944272e-02  1.000000e+00
   endloop
 endfacet
 facet normal  9.238795e-01  3.826834e-01  0.000000e+00
   outer loop
     vertex  1.425610e-01  7.263848e-02  0.000000e+00
     vertex  1.521690e-01  4.944272e-02  1.000000e+00
     vertex  1.521690e-01  4.944272e-02  0.000000e+00
   endloop
 endfacet
 facet normal  8.526402e-01  5.224986e-01  0.000000e+00
   outer loop
     vertex  1.294427e-01  9.404564e-02  0.000000e+00
     vertex  1.425610e-01  7.263848e-02  1.000000e+00
     vertex  1.425610e-01  7.263848e-02  0.000000e+00
   endloop
 endfacet
 facet normal  8.526402e-01  5.224986e-01 -0.000000e+00
   outer loop
     vertex  1.294427e-01  9.404564e-02  0.000000e+00
     vertex  1.294427e-01  9.404564e-02  1.000000e+00
     vertex  1.425610e-01  7.263848e-02  1.000000e+00
   endloop
 endfacet
 facet normal  7.604060e-01  6.494480e-01  0.000000e+00
   outer loop
     vertex  1.131371e-01  1.131371e-01  0.000000e+00
     vertex  1.294427e-01  9.404564e-02  1.000000e+00
     vertex  1.294427e-01  9.404564e-02  0.000000e+00
   endloop
 endfacet
 facet normal  7.604060e-01  6.494480e-01 -0.000000e+00
   outer loop
     vertex  1.131371e-01  1.131371e-01  0.000000e+00
     vertex  1.131371e-01  1.131371e-01  1.000000e+00
     vertex  1.294427e-01  9.404564e-02  1.000000e+00
   endloop
 endfacet
 facet normal  6.494480e-01  7.604060e-01 -0.000000e+00
   outer loop
     vertex  1.131371e-01  1.131371e-01  0.000000e+00
     vertex  9.404564e-02  1.294427e-01  1.000000e+00
     vertex  1.131371e-01  1.131371e-01  1.000000e+00
   endloop
 endfacet
 facet normal  6.494480e-01  7.604060e-01 -0.000000e+00
   outer loop
     vertex  9.404564e-02  1.294427e-01  0.000000e+00
     vertex  9.404564e-02  1.294427e-01  1.000000e+00
     vertex  1.131371e-01  1.131371e-01  0.000000e+00
   endloop
 endfacet
 facet normal  5.224986e-01  8.526402e-01  0.000000e+00
   outer loop
     vertex  7.263848e-02  1.425610e-01  0.000000e+00
     vertex  9.404564e-02  1.294427e-01  1.000000e+00
     vertex  9.404564e-02  1.294427e-01  0.000000e+00
   endloop
 endfacet
 facet normal  5.224986e-01  8.526402e-01 -0.000000e+00
   outer loop
     vertex  7.263848e-02  1.425610e-01  0.000000e+00
     vertex  7.263848e-02  1.425610e-01  1.000000e+00
     vertex  9.404564e-02  1.294427e-01  1.000000e+00
   endloop
 endfacet
 facet normal  3.826834e-01  9.238795e-01 -0.000000e+00
   outer loop
     vertex  7.263848e-02  1.425610e-01  0.000000e+00
     vertex  4.944272e-02  1.521690e-01  1.000000e+00
     vertex  7.263848e-02  1.425610e-01  1.000000e+00
   endloop
 endfacet
 facet normal  3.826834e-01  9.238795e-01 -0.000000e+00
   outer loop
     vertex  4.944272e-02  1.521690e-01  0.000000e+00
     vertex  4.944272e-02  1.521690e-01  1.000000e+00
     vertex  7.263848e-02  1.425610e-01  0.000000e+00
   endloop
 endfacet
 facet normal  2.334454e-01  9.723699e-01 -0.000000e+00
   outer loop
     vertex  2.502951e-02  1.580301e-01  0.000000e+00
     vertex  2.502951e-02  1.580301e-01  1.000000e+00
     vertex  4.944272e-02  1.521690e-01  1.000000e+00
   endloop
 endfacet
 facet normal  7.845910e-02  9.969173e-01 -0.000000e+00
   outer loop
     vertex  2.502951e-02  1.580301e-01  0.000000e+00
     vertex  9.797174e-18  1.600000e-01  1.000000e+00
     vertex  2.502951e-02  1.580301e-01  1.000000e+00
   endloop
 endfacet
 facet normal  2.334454e-01  9.723699e-01  0.000000e+00
   outer loop
     vertex  2.502951e-02  1.580301e-01  0.000000e+00
     vertex  4.944272e-02  1.521690e-01  1.000000e+00
     vertex  4.944272e-02  1.521690e-01  0.000000e+00
   endloop
 endfacet
 facet normal  7.845910e-02  9.969173e-01 -0.000000e+00
   outer loop
     vertex  9.797174e-18  1.600000e-01  0.000000e+00
     vertex  9.797174e-18  1.600000e-01  1.000000e+00
     vertex  2.502951e-02  1.580301e-01  0.000000e+00
   endloop
 endfacet
 facet normal -7.845910e-02  9.969173e-01  0.000000e+00
   outer loop
     vertex -2.502951e-02  1.580301e-01  0.000000e+00
     vertex -2.502951e-02  1.580301e-01  1.000000e+00
     vertex  9.797174e-18  1.600000e-01  1.000000e+00
   endloop
 endfacet
 facet normal -7.845910e-02  9.969173e-01  0.000000e+00
   outer loop
     vertex -2.502951e-02  1.580301e-01  0.000000e+00
     vertex  9.797174e-18  1.600000e-01  1.000000e+00
     vertex  9.797174e-18  1.600000e-01  0.000000e+00
   endloop
 endfacet
 facet normal -2.334454e-01  9.723699e-01  0.000000e+00
   outer loop
     vertex -4.944272e-02  1.521690e-01  0.000000e+00
     vertex -4.944272e-02  1.521690e-01  1.000000e+00
     vertex -2.502951e-02  1.580301e-01  1.000000e+00
   endloop
 endfacet
 facet normal -2.334454e-01  9.723699e-01  0.000000e+00
   outer loop
     vertex -4.944272e-02  1.521690e-01  0.000000e+00
     vertex -2.502951e-02  1.580301e-01  1.000000e+00
     vertex -2.502951e-02  1.580301e-01  0.000000e+00
   endloop
 endfacet
 facet normal -3.826834e-01  9.238795e-01  0.000000e+00
   outer loop
     vertex -7.263848e-02  1.425610e-01  0.000000e+00
     vertex -7.263848e-02  1.425610e-01  1.000000e+00
     vertex -4.944272e-02  1.521690e-01  1.000000e+00
   endloop
 endfacet
 facet normal -3.826834e-01  9.238795e-01  0.000000e+00
   outer loop
     vertex -7.263848e-02  1.425610e-01  0.000000e+00
     vertex -4.944272e-02  1.521690e-01  1.000000e+00
     vertex -4.944272e-02  1.521690e-01  0.000000e+00
   endloop
 endfacet
 facet normal -5.224986e-01  8.526402e-01  0.000000e+00
   outer loop
     vertex -9.404564e-02  1.294427e-01  0.000000e+00
     vertex -9.404564e-02  1.294427e-01  1.000000e+00
     vertex -7.263848e-02  1.425610e-01  1.000000e+00
   endloop
 endfacet
 facet normal -5.224986e-01  8.526402e-01  0.000000e+00
   outer loop
     vertex -9.404564e-02  1.294427e-01  0.000000e+00
     vertex -7.263848e-02  1.425610e-01  1.000000e+00
     vertex -7.263848e-02  1.425610e-01  0.000000e+00
   endloop
 endfacet
 facet normal -6.494480e-01  7.604060e-01  0.000000e+00
   outer loop
     vertex -1.131371e-01  1.131371e-01  0.000000e+00
     vertex -1.131371e-01  1.131371e-01  1.000000e+00
     vertex -9.404564e-02  1.294427e-01  1.000000e+00
   endloop
 endfacet
 facet normal -7.604060e-01  6.494480e-01  0.000000e+00
   outer loop
     vertex -1.131371e-01  1.131371e-01  0.000000e+00
     vertex -1.294427e-01  9.404564e-02  1.000000e+00
     vertex -1.131371e-01  1.131371e-01  1.000000e+00
   endloop
 endfacet
 facet normal -6.494480e-01  7.604060e-01  0.000000e+00
   outer loop
     vertex -1.131371e-01  1.131371e-01  0.000000e+00
     vertex -9.404564e-02  1.294427e-01  1.000000e+00
     vertex -9.404564e-02  1.294427e-01  0.000000e+00
   endloop
 endfacet
 facet normal -8.526402e-01  5.224986e-01  0.000000e+00
   outer loop
     vertex -1.294427e-01  9.404564e-02  0.000000e+00
     vertex -1.425610e-01  7.263848e-02  1.000000e+00
     vertex -1.294427e-01  9.404564e-02  1.000000e+00
   endloop
 endfacet
 facet normal -7.604060e-01  6.494480e-01  0.000000e+00
   outer loop
     vertex -1.294427e-01  9.404564e-02  0.000000e+00
     vertex -1.294427e-01  9.404564e-02  1.000000e+00
     vertex -1.131371e-01  1.131371e-01  0.000000e+00
   endloop
 endfacet
 facet normal -8.526402e-01  5.224986e-01  0.000000e+00
   outer loop
     vertex -1.425610e-01  7.263848e-02  0.000000e+00
     vertex -1.425610e-01  7.263848e-02  1.000000e+00
     vertex -1.294427e-01  9.404564e-02  0.000000e+00
   endloop
 endfacet
 facet normal -9.238795e-01  3.826834e-01  0.000000e+00
   outer loop
     vertex -1.521690e-01  4.944272e-02  0.000000e+00
     vertex -1.521690e-01  4.944272e-02  1.000000e+00
     vertex -1.425610e-01  7.263848e-02  1.000000e+00
   endloop
 endfacet
 facet normal -9.238795e-01  3.826834e-01  0.000000e+00
   outer loop
     vertex -1.521690e-01  4.944272e-02  0.000000e+00
     vertex -1.425610e-01  7.263848e-02  1.000000e+00
     vertex -1.425610e-01  7.263848e-02  0.000000e+00
   endloop
 endfacet
 facet normal -9.723699e-01  2.334454e-01  0.000000e+00
   outer loop
     vertex -1.580301e-01  2.502951e-02  0.000000e+00
     vertex -1.580301e-01  2.502951e-02  1.000000e+00
     vertex -1.521690e-01  4.944272e-02  1.000000e+00
   endloop
 endfacet
 facet normal -9.969173e-01  7.845910e-02  0.000000e+00
   outer loop
     vertex -1.580301e-01  2.502951e-02  0.000000e+00
     vertex -1.600000e-01  1.959435e-17  1.000000e+00
     vertex -1.580301e-01  2.502951e-02  1.000000e+00
   endloop
 endfacet
 facet normal -9.723699e-01  2.334454e-01  0.000000e+00
   outer loop
     vertex -1.580301e-01  2.502951e-02  0.000000e+00
     vertex -1.521690e-01  4.944272e-02  1.000000e+00
     vertex -1.521690e-01  4.944272e-02  0.000000e+00
   endloop
 endfacet
 facet normal -9.969173e-01  7.845910e-02  0.000000e+00
   outer loop
     vertex -1.600000e-01  1.959435e-17  0.000000e+00
     vertex -1.600000e-01  1.959435e-17  1.000000e+00
     vertex -1.580301e-01  2.502951e-02  0.000000e+00
   endloop
 endfacet
 facet normal -9.969173e-01 -7.845910e-02  0.000000e+00
   outer loop
     vertex -1.580301e-01 -2.502951e-02  0.000000e+00
     vertex -1.580301e-01 -2.502951e-02  1.000000e+00
     vertex -1.600000e-01  1.959435e-17  1.000000e+00
   endloop
 endfacet
 facet normal -9.723699e-01 -2.334454e-01  0.000000e+00
   outer loop
     vertex -1.580301e-01 -2.502951e-02  0.000000e+00
     vertex -1.521690e-01 -4.944272e-02  1.000000e+00
     vertex -1.580301e-01 -2.502951e-02  1.000000e+00
   endloop
 endfacet
 facet normal -9.969173e-01 -7.845910e-02  0.000000e+00
   outer loop
     vertex -1.580301e-01 -2.502951e-02  0.000000e+00
     vertex -1.600000e-01  1.959435e-17  1.000000e+00
     vertex -1.600000e-01  1.959435e-17  0.000000e+00
   endloop
 endfacet
 facet normal -9.723699e-01 -2.334454e-01  0.000000e+00
   outer loop
     vertex -1.521690e-01 -4.944272e-02  0.000000e+00
     vertex -1.521690e-01 -4.944272e-02  1.000000e+00
     vertex -1.580301e-01 -2.502951e-02  0.000000e+00
   endloop
 endfacet
 facet normal -9.238795e-01 -3.826834e-01  0.000000e+00
   outer loop
     vertex -1.425610e-01 -7.263848e-02  0.000000e+00
     vertex -1.425610e-01 -7.263848e-02  1.000000e+00
     vertex -1.521690e-01 -4.944272e-02  1.000000e+00
   endloop
 endfacet
 facet normal -9.238795e-01 -3.826834e-01  0.000000e+00
   outer loop
     vertex -1.425610e-01 -7.263848e-02  0.000000e+00
     vertex -1.521690e-01 -4.944272e-02  1.000000e+00
     vertex -1.521690e-01 -4.944272e-02  0.000000e+00
   endloop
 endfacet
 facet normal -8.526402e-01 -5.224986e-01  0.000000e+00
   outer loop
     vertex -1.294427e-01 -9.404564e-02  0.000000e+00
     vertex -1.294427e-01 -9.404564e-02  1.000000e+00
     vertex -1.425610e-01 -7.263848e-02  1.000000e+00
   endloop
 endfacet
 facet normal -8.526402e-01 -5.224986e-01  0.000000e+00
   outer loop
     vertex -1.294427e-01 -9.404564e-02  0.000000e+00
     vertex -1.425610e-01 -7.263848e-02  1.000000e+00
     vertex -1.425610e-01 -7.263848e-02  0.000000e+00
   endloop
 endfacet
 facet normal -7.604060e-01 -6.494480e-01  0.000000e+00
   outer loop
     vertex -1.131371e-01 -1.131371e-01  0.000000e+00
     vertex -1.131371e-01 -1.131371e-01  1.000000e+00
     vertex -1.294427e-01 -9.404564e-02  1.000000e+00
   endloop
 endfacet
 facet normal -7.604060e-01 -6.494480e-01  0.000000e+00
   outer loop
     vertex -1.131371e-01 -1.131371e-01  0.000000e+00
     vertex -1.294427e-01 -9.404564e-02  1.000000e+00
     vertex -1.294427e-01 -9.404564e-02  0.000000e+00
   endloop
 endfacet
 facet normal -6.494480e-01 -7.604060e-01  0.000000e+00
   outer loop
     vertex -9.404564e-02 -1.294427e-01  0.000000e+00
     vertex -9.404564e-02 -1.294427e-01  1.000000e+00
     vertex -1.131371e-01 -1.131371e-01  1.000000e+00
   endloop
 endfacet
 facet normal -6.494480e-01 -7.604060e-01  0.000000e+00
   outer loop
     vertex -9.404564e-02 -1.294427e-01  0.000000e+00
     vertex -1.131371e-01 -1.131371e-01  1.000000e+00
     vertex -1.131371e-01 -1.131371e-01  0.000000e+00
   endloop
 endfacet
 facet normal -5.224986e-01 -8.526402e-01  0.000000e+00
   outer loop
     vertex -7.263848e-02 -1.425610e-01  0.000000e+00
     vertex -7.263848e-02 -1.425610e-01  1.000000e+00
     vertex -9.404564e-02 -1.294427e-01  1.000000e+00
   endloop
 endfacet
 facet normal -5.224986e-01 -8.526402e-01  0.000000e+00
   outer loop
     vertex -7.263848e-02 -1.425610e-01  0.000000e+00
     vertex -9.404564e-02 -1.294427e-01  1.000000e+00
     vertex -9.404564e-02 -1.294427e-01  0.000000e+00
   endloop
 endfacet
 facet normal -3.826834e-01 -9.238795e-01  0.000000e+00
   outer loop
     vertex -4.944272e-02 -1.521690e-01  0.000000e+00
     vertex -4.944272e-02 -1.521690e-01  1.000000e+00
     vertex -7.263848e-02 -1.425610e-01  1.000000e+00
   endloop
 endfacet
 facet normal -3.826834e-01 -9.238795e-01  0.000000e+00
   outer loop
     vertex -4.944272e-02 -1.521690e-01  0.000000e+00
     vertex -7.263848e-02 -1.425610e-01  1.000000e+00
     vertex -7.263848e-02 -1.425610e-01  0.000000e+00
   endloop
 endfacet
 facet normal -2.334454e-01 -9.723699e-01  0.000000e+00
   outer loop
     vertex -2.502951e-02 -1.580301e-01  0.000000e+00
     vertex -2.502951e-02 -1.580301e-01  1.000000e+00
     vertex -4.944272e-02 -1.521690e-01  1.000000e+00
   endloop
 endfacet
 facet normal -7.845910e-02 -9.969173e-01  0.000000e+00
   outer loop
     vertex -2.502951e-02 -1.580301e-01  0.000000e+00
     vertex -2.939152e-17 -1.600000e-01  1.000000e+00
     vertex -2.502951e-02 -1.580301e-01  1.000000e+00
   endloop
 endfacet
 facet normal -2.334454e-01 -9.723699e-01  0.000000e+00
   outer loop
     vertex -2.502951e-02 -1.580301e-01  0.000000e+00
     vertex -4.944272e-02 -1.521690e-01  1.000000e+00
     vertex -4.944272e-02 -1.521690e-01  0.000000e+00
   endloop
 endfacet
 facet normal -7.845910e-02 -9.969173e-01  0.000000e+00
   outer loop
     vertex -2.939152e-17 -1.600000e-01  0.000000e+00
     vertex -2.939152e-17 -1.600000e-01  1.000000e+00
     vertex -2.502951e-02 -1.580301e-01  0.000000e+00
   endloop
 endfacet
 facet normal  7.845910e-02 -9.969173e-01  0.000000e+00
   outer loop
     vertex  2.502951e-02 -1.580301e-01  0.000000e+00
     vertex -2.939152e-17 -1.600000e-01  1.000000e+00
     vertex -2.939152e-17 -1.600000e-01  0.000000e+00
   endloop
 endfacet
 facet normal  7.845910e-02 -9.969173e-01  0.000000e+00
   outer loop
     vertex  2.502951e-02 -1.580301e-01  0.000000e+00
     vertex  2.502951e-02 -1.580301e-01  1.000000e+00
     vertex -2.939152e-17 -1.600000e-01  1.000000e+00
   endloop
 endfacet
 facet normal  2.334454e-01 -9.723699e-01  0.000000e+00
   outer loop
     vertex  4.944272e-02 -1.521690e-01  0.000000e+00
     vertex  2.502951e-02 -1.580301e-01  1.000000e+00
     vertex  2.502951e-02 -1.580301e-01  0.000000e+00
   endloop
 endfacet
 facet normal  2.334454e-01 -9.723699e-01  0.000000e+00
   outer loop
     vertex  4.944272e-02 -1.521690e-01  0.000000e+00
     vertex  4.944272e-02 -1.521690e-01  1.000000e+00
     vertex  2.502951e-02 -1.580301e-01  1.000000e+00
   endloop
 endfacet
 facet normal  3.826834e-01 -9.238795e-01  0.000000e+00
   outer loop
     vertex  7.263848e-02 -1.425610e-01  0.000000e+00
     vertex  4.944272e-02 -1.521690e-01  1.000000e+00
     vertex  4.944272e-02 -1.521690e-01  0.000000e+00
   endloop
 endfacet
 facet normal  3.826834e-01 -9.238795e-01  0.000000e+00
   outer loop
     vertex  7.263848e-02 -1.425610e-01  0.000000e+00
     vertex  7.263848e-02 -1.425610e-01  1.000000e+00
     vertex  4.944272e-02 -1.521690e-01  1.000000e+00
   endloop
 endfacet
 facet normal  5.224986e-01 -8.526402e-01  0.000000e+00
   outer loop
     vertex  9.404564e-02 -1.294427e-01  0.000000e+00
     vertex  7.263848e-02 -1.425610e-01  1.000000e+00
     vertex  7.263848e-02 -1.425610e-01  0.000000e+00
   endloop
 endfacet
 facet normal  5.224986e-01 -8.526402e-01  0.000000e+00
   outer loop
     vertex  9.404564e-02 -1.294427e-01  0.000000e+00
     vertex  9.404564e-02 -1.294427e-01  1.000000e+00
     vertex  7.263848e-02 -1.425610e-01  1.000000e+00
   endloop
 endfacet
 facet normal  6.494480e-01 -7.604060e-01  0.000000e+00
   outer loop
     vertex  1.131371e-01 -1.131371e-01  0.000000e+00
     vertex  9.404564e-02 -1.294427e-01  1.000000e+00
     vertex  9.404564e-02 -1.294427e-01  0.000000e+00
   endloop
 endfacet
 facet normal  6.494480e-01 -7.604060e-01  0.000000e+00
   outer loop
     vertex  1.131371e-01 -1.131371e-01  0.000000e+00
     vertex  1.131371e-01 -1.131371e-01  1.000000e+00
     vertex  9.404564e-02 -1.294427e-01  1.000000e+00
   endloop
 endfacet
 facet normal  7.604060e-01 -6.494480e-01  0.000000e+00
   outer loop
     vertex  1.294427e-01 -9.404564e-02  0.000000e+00
     vertex  1.131371e-01 -1.131371e-01  1.000000e+00
     vertex  1.131371e-01 -1.131371e-01  0.000000e+00
   endloop
 endfacet
 facet normal  7.604060e-01 -6.494480e-01  0.000000e+00
   outer loop
     vertex  1.294427e-01 -9.404564e-02  0.000000e+00
     vertex  1.294427e-01 -9.404564e-02  1.000000e+00
     vertex  1.131371e-01 -1.131371e-01  1.000000e+00
   endloop
 endfacet
 facet normal  8.526402e-01 -5.224986e-01  0.000000e+00
   outer loop
     vertex  1.425610e-01 -7.263848e-02  0.000000e+00
     vertex  1.294427e-01 -9.404564e-02  1.000000e+00
     vertex  1.294427e-01 -9.404564e-02  0.000000e+00
   endloop
 endfacet
 facet normal  8.526402e-01 -5.224986e-01  0.000000e+00
   outer loop
     vertex  1.425610e-01 -7.263848e-02  0.000000e+00
     vertex  1.425610e-01 -7.263848e-02  1.000000e+00
     vertex  1.294427e-01 -9.404564e-02  1.000000e+00
   endloop
 endfacet
 facet normal  9.238795e-01 -3.826834e-01  0.000000e+00
   outer loop
     vertex  1.521690e-01 -4.944272e-02  0.000000e+00
     vertex  1.425610e-01 -7.263848e-02  1.000000e+00
     vertex  1.425610e-01 -7.263848e-02  0.000000e+00
   endloop
 endfacet
 facet normal  9.238795e-01 -3.826834e-01  0.000000e+00
   outer loop
     vertex  1.521690e-01 -4.944272e-02  0.000000e+00
     vertex  1.521690e-01 -4.944272e-02  1.000000e+00
     vertex  1.425610e-01 -7.263848e-02  1.000000e+00
   endloop
 endfacet
 facet normal  9.723699e-01 -2.334454e-01  0.000000e+00
   outer loop
     vertex  1.580301e-01 -2.502951e-02  0.000000e+00
     vertex  1.521690e-01 -4.944272e-02  1.000000e+00
     vertex  1.521690e-01 -4.944272e-02  0.000000e+00
   endloop
 endfacet
 facet normal  9.723699e-01 -2.334454e-01  0.000000e+00
   outer loop
     vertex  1.580301e-01 -2.502951e-02  0.000000e+00
     vertex  1.580301e-01 -2.502951e-02  1.000000e+00
     vertex  1.521690e-01 -4.944272e-02  1.000000e+00
   endloop
 endfacet
 facet normal  9.969173e-01 -7.845910e-02  0.000000e+00
   outer loop
     vertex  1.600000e-01  0.000000e+00  0.000000e+00
     vertex  1.600000e-01  0.000000e+00  1.000000e+00
     vertex  1.580301e-01 -2.502951e-02  1.000000e+00
   endloop
 endfacet
 facet normal  9.969173e-01 -7.845910e-02  0.000000e+00
   outer loop
     vertex  1.600000e-01  0.000000e+00  0.000000e+00
     vertex  1.580301e-01 -2.502951e-02  1.000000e+00
     vertex  1.580301e-01 -2.502951e-02  0.000000e+00
   endloop
 endfacet
 facet normal  0.000000e+00  0.000000e+00 -1.000000e+00
   outer loop
     vertex  1.131371e-01  1.131371e-01  0.000000e+00
     vertex  1.580301e-01  2.502951e-02  0.000000e+00
     vertex  1.600000e-01  0.000000e+00  0.000000e+00
   endloop
 endfacet
 facet normal  0.000000e+00  0.000000e+00 -1.000000e+00
   outer loop
     vertex  1.131371e-01  1.131371e-01  0.000000e+00
     vertex  1.521690e-01  4.944272e-02  0.000000e+00
     vertex  1.580301e-01  2.502951e-02  0.000000e+00
   endloop
 endfacet
 facet normal  0.000000e+00  0.000000e+00 -1.000000e+00
   outer loop
     vertex  1.131371e-01  1.131371e-01  0.000000e+00
     vertex  1.425610e-01  7.263848e-02  0.000000e+00
     vertex  1.521690e-01  4.944272e-02  0.000000e+00
   endloop
 endfacet
 facet normal  0.000000e+00  0.000000e+00 -1.000000e+00
   outer loop
     vertex  1.131371e-01  1.131371e-01  0.000000e+00
     vertex  1.294427e-01  9.404564e-02  0.000000e+00
     vertex  1.425610e-01  7.263848e-02  0.000000e+00
   endloop
 endfacet
 facet normal  0.000000e+00  0.000000e+00 -1.000000e+00
   outer loop
     vertex  1.131371e-01  1.131371e-01  0.000000e+00
     vertex  7.263848e-02  1.425610e-01  0.000000e+00
     vertex  9.404564e-02  1.294427e-01  0.000000e+00
   endloop
 endfacet
 facet normal  0.000000e+00  0.000000e+00 -1.000000e+00
   outer loop
     vertex  1.131371e-01  1.131371e-01  0.000000e+00
     vertex  4.944272e-02  1.521690e-01  0.000000e+00
     vertex  7.263848e-02  1.425610e-01  0.000000e+00
   endloop
 endfacet
 facet normal  0.000000e+00  0.000000e+00 -1.000000e+00
   outer loop
     vertex  1.131371e-01  1.131371e-01  0.000000e+00
     vertex  2.502951e-02  1.580301e-01  0.000000e+00
     vertex  4.944272e-02  1.521690e-01  0.000000e+00
   endloop
 endfacet
 facet normal  0.000000e+00  0.000000e+00 -1.000000e+00
   outer loop
     vertex  1.131371e-01  1.131371e-01  0.000000e+00
     vertex  9.797174e-18  1.600000e-01  0.000000e+00
     vertex  2.502951e-02  1.580301e-01  0.000000e+00
   endloop
 endfacet
 facet normal  0.000000e+00  0.000000e+00 -1.000000e+00
   outer loop
     vertex  1.131371e-01  1.131371e-01  0.000000e+00
     vertex -2.502951e-02  1.580301e-01  0.000000e+00
     vertex  9.797174e-18  1.600000e-01  0.000000e+00
   endloop
 endfacet
 facet normal  0.000000e+00  0.000000e+00 -1.000000e+00
   outer loop
     vertex  1.131371e-01  1.131371e-01  0.000000e+00
     vertex -4.944272e-02  1.521690e-01  0.000000e+00
     vertex -2.502951e-02  1.580301e-01  0.000000e+00
   endloop
 endfacet
 facet normal  0.000000e+00  0.000000e+00 -1.000000e+00
   outer loop
     vertex  1.131371e-01  1.131371e-01  0.000000e+00
     vertex -7.263848e-02  1.425610e-01  0.000000e+00
     vertex -4.944272e-02  1.521690e-01  0.000000e+00
   endloop
 endfacet
 facet normal  0.000000e+00  0.000000e+00 -1.000000e+00
   outer loop
     vertex  1.131371e-01  1.131371e-01  0.000000e+00
     vertex -9.404564e-02  1.294427e-01  0.000000e+00
     vertex -7.263848e-02  1.425610e-01  0.000000e+00
   endloop
 endfacet
 facet normal  0.000000e+00  0.000000e+00 -1.000000e+00
   outer loop
     vertex  1.131371e-01  1.131371e-01  0.000000e+00
     vertex -1.131371e-01  1.131371e-01  0.000000e+00
     vertex -9.404564e-02  1.294427e-01  0.000000e+00
   endloop
 endfacet
 facet normal -0.000000e+00  0.000000e+00 -1.000000e+00
   outer loop
     vertex  1.131371e-01  1.131371e-01  0.000000e+00
     vertex -1.294427e-01  9.404564e-02  0.000000e+00
     vertex -1.131371e-01  1.131371e-01  0.000000e+00
   endloop
 endfacet
 facet normal  0.000000e+00  0.000000e+00 -1.000000e+00
   outer loop
     vertex  1.131371e-01  1.131371e-01  0.000000e+00
     vertex -1.425610e-01  7.263848e-02  0.000000e+00
     vertex -1.294427e-01  9.404564e-02  0.000000e+00
   endloop
 endfacet
 facet normal  0.000000e+00  0.000000e+00 -1.000000e+00
   outer loop
     vertex  1.131371e-01  1.131371e-01  0.000000e+00
     vertex -1.521690e-01  4.944272e-02  0.000000e+00
     vertex -1.425610e-01  7.263848e-02  0.000000e+00
   endloop
 endfacet
 facet normal  0.000000e+00  0.000000e+00 -1.000000e+00
   outer loop
     vertex  1.131371e-01  1.131371e-01  0.000000e+00
     vertex -1.580301e-01  2.502951e-02  0.000000e+00
     vertex -1.521690e-01  4.944272e-02  0.000000e+00
   endloop
 endfacet
 facet normal  0.000000e+00  0.000000e+00 -1.000000e+00
   outer loop
     vertex  1.131371e-01  1.131371e-01  0.000000e+00
     vertex -1.600000e-01  1.959435e-17  0.000000e+00
     vertex -1.580301e-01  2.502951e-02  0.000000e+00
   endloop
 endfacet
 facet normal  0.000000e+00  0.000000e+00 -1.000000e+00
   outer loop
     vertex  1.131371e-01  1.131371e-01  0.000000e+00
     vertex -1.580301e-01 -2.502951e-02  0.000000e+00
     vertex -1.600000e-01  1.959435e-17  0.000000e+00
   endloop
 endfacet
 facet normal  0.000000e+00  0.000000e+00 -1.000000e+00
   outer loop
     vertex  1.131371e-01  1.131371e-01  0.000000e+00
     vertex -1.521690e-01 -4.944272e-02  0.000000e+00
     vertex -1.580301e-01 -2.502951e-02  0.000000e+00
   endloop
 endfacet
 facet normal  0.000000e+00  0.000000e+00 -1.000000e+00
   outer loop
     vertex  1.131371e-01  1.131371e-01  0.000000e+00
     vertex -1.425610e-01 -7.263848e-02  0.000000e+00
     vertex -1.521690e-01 -4.944272e-02  0.000000e+00
   endloop
 endfacet
 facet normal  0.000000e+00  0.000000e+00 -1.000000e+00
   outer loop
     vertex  1.131371e-01  1.131371e-01  0.000000e+00
     vertex -1.294427e-01 -9.404564e-02  0.000000e+00
     vertex -1.425610e-01 -7.263848e-02  0.000000e+00
   endloop
 endfacet
 facet normal  0.000000e+00  0.000000e+00 -1.000000e+00
   outer loop
     vertex  1.131371e-01  1.131371e-01  0.000000e+00
     vertex -1.131371e-01 -1.131371e-01  0.000000e+00
     vertex -1.294427e-01 -9.404564e-02  0.000000e+00
   endloop
 endfacet
 facet normal  0.000000e+00  0.000000e+00 -1.000000e+00
   outer loop
     vertex  1.131371e-01  1.131371e-01  0.000000e+00
     vertex -9.404564e-02 -1.294427e-01  0.000000e+00
     vertex -1.131371e-01 -1.131371e-01  0.000000e+00
   endloop
 endfacet
 facet normal  0.000000e+00  0.000000e+00 -1.000000e+00
   outer loop
     vertex  1.131371e-01  1.131371e-01  0.000000e+00
     vertex -7.263848e-02 -1.425610e-01  0.000000e+00
     vertex -9.404564e-02 -1.294427e-01  0.000000e+00
   endloop
 endfacet
 facet normal  0.000000e+00  0.000000e+00 -1.000000e+00
   outer loop
     vertex  1.131371e-01  1.131371e-01  0.000000e+00
     vertex -4.944272e-02 -1.521690e-01  0.000000e+00
     vertex -7.263848e-02 -1.425610e-01  0.000000e+00
   endloop
 endfacet
 facet normal  0.000000e+00  0.000000e+00 -1.000000e+00
   outer loop
     vertex  1.131371e-01  1.131371e-01  0.000000e+00
     vertex -2.502951e-02 -1.580301e-01  0.000000e+00
     vertex -4.944272e-02 -1.521690e-01  0.000000e+00
   endloop
 endfacet
 facet normal  0.000000e+00  0.000000e+00 -1.000000e+00
   outer loop
     vertex  1.131371e-01  1.131371e-01  0.000000e+00
     vertex -2.939152e-17 -1.600000e-01  0.000000e+00
     vertex -2.502951e-02 -1.580301e-01  0.000000e+00
   endloop
 endfacet
 facet normal  0.000000e+00  0.000000e+00 -1.000000e+00
   outer loop
     vertex  1.131371e-01  1.131371e-01  0.000000e+00
     vertex  2.502951e-02 -1.580301e-01  0.000000e+00
     vertex -2.939152e-17 -1.600000e-01  0.000000e+00
   endloop
 endfacet
 facet normal  0.000000e+00  0.000000e+00 -1.000000e+00
   outer loop
     vertex  1.131371e-01  1.131371e-01  0.000000e+00
     vertex  4.944272e-02 -1.521690e-01  0.000000e+00
     vertex  2.502951e-02 -1.580301e-01  0.000000e+00
   endloop
 endfacet
 facet normal  0.000000e+00  0.000000e+00 -1.000000e+00
   outer loop
     vertex  1.131371e-01  1.131371e-01  0.000000e+00
     vertex  7.263848e-02 -1.425610e-01  0.000000e+00
     vertex  4.944272e-02 -1.521690e-01  0.000000e+00
   endloop
 endfacet
 facet normal  0.000000e+00  0.000000e+00 -1.000000e+00
   outer loop
     vertex  1.131371e-01  1.131371e-01  0.000000e+00
     vertex  9.404564e-02 -1.294427e-01  0.000000e+00
     vertex  7.263848e-02 -1.425610e-01  0.000000e+00
   endloop
 endfacet
 facet normal  0.000000e+00  0.000000e+00 -1.000000e+00
   outer loop
     vertex  1.131371e-01  1.131371e-01  0.000000e+00
     vertex  1.131371e-01 -1.131371e-01  0.000000e+00
     vertex  9.404564e-02 -1.294427e-01  0.000000e+00
   endloop
 endfacet
 facet normal  0.000000e+00 -0.000000e+00 -1.000000e+00
   outer loop
     vertex  1.131371e-01  1.131371e-01  0.000000e+00
     vertex  1.294427e-01 -9.404564e-02  0.000000e+00
     vertex  1.131371e-01 -1.131371e-01  0.000000e+00
   endloop
 endfacet
 facet normal  0.000000e+00  0.000000e+00 -1.000000e+00
   outer loop
     vertex  1.131371e-01  1.131371e-01  0.000000e+00
     vertex  1.425610e-01 -7.263848e-02  0.000000e+00
     vertex  1.294427e-01 -9.404564e-02  0.000000e+00
   endloop
 endfacet
 facet normal  0.000000e+00  0.000000e+00 -1.000000e+00
   outer loop
     vertex  1.131371e-01  1.131371e-01  0.000000e+00
     vertex  1.521690e-01 -4.944272e-02  0.000000e+00
     vertex  1.425610e-01 -7.263848e-02  0.000000e+00
   endloop
 endfacet
 facet normal  0.000000e+00  0.000000e+00 -1.000000e+00
   outer loop
     vertex  1.131371e-01  1.131371e-01  0.000000e+00
     vertex  1.580301e-01 -2.502951e-02  0.000000e+00
     vertex  1.521690e-01 -4.944272e-02  0.000000e+00
   endloop
 endfacet
 facet normal  0.000000e+00  0.000000e+00 -1.000000e+00
   outer loop
     vertex  1.131371e-01  1.131371e-01  0.000000e+00
     vertex  1.600000e-01  0.000000e+00  0.000000e+00
     vertex  1.580301e-01 -2.502951e-02  0.000000e+00
   endloop
 endfacet
 facet normal  0.000000e+00  0.000000e+00  1.000000e+00
   outer loop
     vertex  1.131371e-01  1.131371e-01  1.000000e+00
     vertex  1.600000e-01  0.000000e+00  1.000000e+00
     vertex  1.580301e-01  2.502951e-02  1.000000e+00
   endloop
 endfacet
 facet normal  0.000000e+00  0.000000e+00  1.000000e+00
   outer loop
     vertex  1.131371e-01  1.131371e-01  1.000000e+00
     vertex  1.580301e-01  2.502951e-02  1.000000e+00
     vertex  1.521690e-01  4.944272e-02  1.000000e+00
   endloop
 endfacet
 facet normal  0.000000e+00  0.000000e+00  1.000000e+00
   outer loop
     vertex  1.131371e-01  1.131371e-01  1.000000e+00
     vertex  1.521690e-01  4.944272e-02  1.000000e+00
     vertex  1.425610e-01  7.263848e-02  1.000000e+00
   endloop
 endfacet
 facet normal  0.000000e+00  0.000000e+00  1.000000e+00
   outer loop
     vertex  1.131371e-01  1.131371e-01  1.000000e+00
     vertex  1.425610e-01  7.263848e-02  1.000000e+00
     vertex  1.294427e-01  9.404564e-02  1.000000e+00
   endloop
 endfacet
 facet normal  0.000000e+00  0.000000e+00  1.000000e+00
   outer loop
     vertex  1.131371e-01  1.131371e-01  1.000000e+00
     vertex  9.404564e-02  1.294427e-01  1.000000e+00
     vertex  7.263848e-02  1.425610e-01  1.000000e+00
   endloop
 endfacet
 facet normal  0.000000e+00  0.000000e+00  1.000000e+00
   outer loop
     vertex  1.131371e-01  1.131371e-01  1.000000e+00
     vertex  7.263848e-02  1.425610e-01  1.000000e+00
     vertex  4.944272e-02  1.521690e-01  1.000000e+00
   endloop
 endfacet
 facet normal  0.000000e+00  0.000000e+00  1.000000e+00
   outer loop
     vertex  1.131371e-01  1.131371e-01  1.000000e+00
     vertex  4.944272e-02  1.521690e-01  1.000000e+00
     vertex  2.502951e-02  1.580301e-01  1.000000e+00
   endloop
 endfacet
 facet normal  0.000000e+00  0.000000e+00  1.000000e+00
   outer loop
     vertex  1.131371e-01  1.131371e-01  1.000000e+00
     vertex  2.502951e-02  1.580301e-01  1.000000e+00
     vertex  9.797174e-18  1.600000e-01  1.000000e+00
   endloop
 endfacet
 facet normal  0.000000e+00  0.000000e+00  1.000000e+00
   outer loop
     vertex  1.131371e-01  1.131371e-01  1.000000e+00
     vertex  9.797174e-18  1.600000e-01  1.000000e+00
     vertex -2.502951e-02  1.580301e-01  1.000000e+00
   endloop
 endfacet
 facet normal  0.000000e+00  0.000000e+00  1.000000e+00
   outer loop
     vertex  1.131371e-01  1.131371e-01  1.000000e+00
     vertex -2.502951e-02  1.580301e-01  1.000000e+00
     vertex -4.944272e-02  1.521690e-01  1.000000e+00
   endloop
 endfacet
 facet normal  0.000000e+00  0.000000e+00  1.000000e+00
   outer loop
     vertex  1.131371e-01  1.131371e-01  1.000000e+00
     vertex -4.944272e-02  1.521690e-01  1.000000e+00
     vertex -7.263848e-02  1.425610e-01  1.000000e+00
   endloop
 endfacet
 facet normal  0.000000e+00  0.000000e+00  1.000000e+00
   outer loop
     vertex  1.131371e-01  1.131371e-01  1.000000e+00
     vertex -7.263848e-02  1.425610e-01  1.000000e+00
     vertex -9.404564e-02  1.294427e-01  1.000000e+00
   endloop
 endfacet
 facet normal  0.000000e+00  0.000000e+00  1.000000e+00
   outer loop
     vertex  1.131371e-01  1.131371e-01  1.000000e+00
     vertex -9.404564e-02  1.294427e-01  1.000000e+00
     vertex -1.131371e-01  1.131371e-01  1.000000e+00
   endloop
 endfacet
 facet normal  0.000000e+00  0.000000e+00  1.000000e+00
   outer loop
     vertex  1.131371e-01  1.131371e-01  1.000000e+00
     vertex -1.131371e-01  1.131371e-01  1.000000e+00
     vertex -1.294427e-01  9.404564e-02  1.000000e+00
   endloop
 endfacet
 facet normal  0.000000e+00  0.000000e+00  1.000000e+00
   outer loop
     vertex  1.131371e-01  1.131371e-01  1.000000e+00
     vertex -1.294427e-01  9.404564e-02  1.000000e+00
     vertex -1.425610e-01  7.263848e-02  1.000000e+00
   endloop
 endfacet
 facet normal  0.000000e+00  0.000000e+00  1.000000e+00
   outer loop
     vertex  1.131371e-01  1.131371e-01  1.000000e+00
     vertex -1.425610e-01  7.263848e-02  1.000000e+00
     vertex -1.521690e-01  4.944272e-02  1.000000e+00
   endloop
 endfacet
 facet normal  0.000000e+00  0.000000e+00  1.000000e+00
   outer loop
     vertex  1.131371e-01  1.131371e-01  1.000000e+00
     vertex -1.521690e-01  4.944272e-02  1.000000e+00
     vertex -1.580301e-01  2.502951e-02  1.000000e+00
   endloop
 endfacet
 facet normal  0.000000e+00  0.000000e+00  1.000000e+00
   outer loop
     vertex  1.131371e-01  1.131371e-01  1.000000e+00
     vertex -1.580301e-01  2.502951e-02  1.000000e+00
     vertex -1.600000e-01  1.959435e-17  1.000000e+00
   endloop
 endfacet
 facet normal  0.000000e+00  0.000000e+00  1.000000e+00
   outer loop
     vertex  1.131371e-01  1.131371e-01  1.000000e+00
     vertex -1.600000e-01  1.959435e-17  1.000000e+00
     vertex -1.580301e-01 -2.502951e-02  1.000000e+00
   endloop
 endfacet
 facet normal  0.000000e+00  0.000000e+00  1.000000e+00
   outer loop
     vertex  1.131371e-01  1.131371e-01  1.000000e+00
     vertex -1.580301e-01 -2.502951e-02  1.000000e+00
     vertex -1.521690e-01 -4.944272e-02  1.000000e+00
   endloop
 endfacet
 facet normal  0.000000e+00  0.000000e+00  1.000000e+00
   outer loop
     vertex  1.131371e-01  1.131371e-01  1.000000e+00
     vertex -1.521690e-01 -4.944272e-02  1.000000e+00
     vertex -1.425610e-01 -7.263848e-02  1.000000e+00
   endloop
 endfacet
 facet normal  0.000000e+00  0.000000e+00  1.000000e+00
   outer loop
     vertex  1.131371e-01  1.131371e-01  1.000000e+00
     vertex -1.425610e-01 -7.263848e-02  1.000000e+00
     vertex -1.294427e-01 -9.404564e-02  1.000000e+00
   endloop
 endfacet
 facet normal  0.000000e+00  0.000000e+00  1.000000e+00
   outer loop
     vertex  1.131371e-01  1.131371e-01  1.000000e+00
     vertex -1.294427e-01 -9.404564e-02  1.000000e+00
     vertex -1.131371e-01 -1.131371e-01  1.000000e+00
   endloop
 endfacet
 facet normal  0.000000e+00  0.000000e+00  1.000000e+00
   outer loop
     vertex  1.131371e-01  1.131371e-01  1.000000e+00
     vertex -1.131371e-01 -1.131371e-01  1.000000e+00
     vertex -9.404564e-02 -1.294427e-01  1.000000e+00
   endloop
 endfacet
 facet normal  0.000000e+00  0.000000e+00  1.000000e+00
   outer loop
     vertex  1.131371e-01  1.131371e-01  1.000000e+00
     vertex -9.404564e-02 -1.294427e-01  1.000000e+00
     vertex -7.263848e-02 -1.425610e-01  1.000000e+00
   endloop
 endfacet
 facet normal  0.000000e+00  0.000000e+00  1.000000e+00
   outer loop
     vertex  1.131371e-01  1.131371e-01  1.000000e+00
     vertex -7.263848e-02 -1.425610e-01  1.000000e+00
     vertex -4.944272e-02 -1.521690e-01  1.000000e+00
   endloop
 endfacet
 facet normal  0.000000e+00  0.000000e+00  1.000000e+00
   outer loop
     vertex  1.131371e-01  1.131371e-01  1.000000e+00
     vertex -4.944272e-02 -1.521690e-01  1.000000e+00
     vertex -2.502951e-02 -1.580301e-01  1.000000e+00
   endloop
 endfacet
 facet normal  0.000000e+00  0.000000e+00  1.000000e+00
   outer loop
     vertex  1.131371e-01  1.131371e-01  1.000000e+00
     vertex -2.502951e-02 -1.580301e-01  1.000000e+00
     vertex -2.939152e-17 -1.600000e-01  1.000000e+00
   endloop
 endfacet
 facet normal  0.000000e+00  0.000000e+00  1.000000e+00
   outer loop
     vertex  1.131371e-01  1.131371e-01  1.000000e+00
     vertex -2.939152e-17 -1.600000e-01  1.000000e+00
     vertex  2.502951e-02 -1.580301e-01  1.000000e+00
   endloop
 endfacet
 facet normal  0.000000e+00  0.000000e+00  1.000000e+00
   outer loop
     vertex  1.131371e-01  1.131371e-01  1.000000e+00
     vertex  2.502951e-02 -1.580301e-01  1.000000e+00
     vertex  4.944272e-02 -1.521690e-01  1.000000e+00
   endloop
 endfacet
 facet normal  0.000000e+00  0.000000e+00  1.000000e+00
   outer loop
     vertex  1.131371e-01  1.131371e-01  1.000000e+00
     vertex  4.944272e-02 -1.521690e-01  1.000000e+00
     vertex  7.263848e-02 -1.425610e-01  1.000000e+00
   endloop
 endfacet
 facet normal  0.000000e+00  0.000000e+00  1.000000e+00
   outer loop
     vertex  1.131371e-01  1.131371e-01  1.000000e+00
     vertex  7.263848e-02 -1.425610e-01  1.000000e+00
     vertex  9.404564e-02 -1.294427e-01  1.000000e+00
   endloop
 endfacet
 facet normal  0.000000e+00  0.000000e+00  1.000000e+00
   outer loop
     vertex  1.131371e-01  1.131371e-01  1.000000e+00
     vertex  9.404564e-02 -1.294427e-01  1.000000e+00
     vertex  1.131371e-01 -1.131371e-01  1.000000e+00
   endloop
 endfacet
 facet normal  0.000000e+00  0.000000e+00  1.000000e+00
   outer loop
     vertex  1.131371e-01  1.131371e-01  1.000000e+00
     vertex  1.131371e-01 -1.131371e-01  1.000000e+00
     vertex  1.294427e-01 -9.404564e-02  1.000000e+00
   endloop
 endfacet
 facet normal  0.000000e+00  0.000000e+00  1.000000e+00
   outer loop
     vertex  1.131371e-01  1.131371e-01  1.000000e+00
     vertex  1.294427e-01 -9.404564e-02  1.000000e+00
     vertex  1.425610e-01 -7.263848e-02  1.000000e+00
   endloop
 endfacet
 facet normal  0.000000e+00  0.000000e+00  1.000000e+00
   outer loop
     vertex  1.131371e-01  1.131371e-01  1.000000e+00
     vertex  1.425610e-01 -7.263848e-02  1.000000e+00
     vertex  1.521690e-01 -4.944272e-02  1.000000e+00
   endloop
 endfacet
 facet normal  0.000000e+00  0.000000e+00  1.000000e+00
   outer loop
     vertex  1.131371e-01  1.131371e-01  1.000000e+00
     vertex  1.521690e-01 -4.944272e-02  1.000000e+00
     vertex  1.580301e-01 -2.502951e-02  1.000000e+00
   endloop
 endfacet
 facet normal  0.000000e+00  0.000000e+00  1.000000e+00
   outer loop
     vertex  1.131371e-01  1.131371e-01  1.000000e+00
     vertex  1.580301e-01 -2.502951e-02  1.000000e+00
     vertex  1.600000e-01  0.000000e+00  1.000000e+00
   endloop
 endfacet
endsolid
