solid 
 facet normal -1.000000e+00 -2.428613e-16  0.000000e+00
   outer loop
     vertex -6.873016e-01 -6.873016e-01 -1.587302e-02
     vertex -6.873016e-01 -2.301587e-01  9.841270e-01
     vertex -6.873016e-01 -2.301587e-01 -1.587302e-02
   endloop
 endfacet
 facet normal -1.000000e+00 -2.428613e-16  0.000000e+00
   outer loop
     vertex -6.873016e-01 -6.873016e-01 -1.587302e-02
     vertex -6.873016e-01 -6.873016e-01  9.841270e-01
     vertex -6.873016e-01 -2.301587e-01  9.841270e-01
   endloop
 endfacet
 facet normal  9.400423e-01 -3.410578e-01  0.000000e+00
   outer loop
     vertex  4.467393e-01 -6.416013e-01 -1.587302e-02
     vertex  4.301587e-01 -6.873016e-01  9.841270e-01
     vertex  4.301587e-01 -6.873016e-01 -1.587302e-02
   endloop
 endfacet
 facet normal  9.400423e-01 -3.410578e-01  0.000000e+00
   outer loop
     vertex  4.467393e-01 -6.416013e-01 -1.587302e-02
     vertex  4.467393e-01 -6.416013e-01  9.841270e-01
     vertex  4.301587e-01 -6.873016e-01  9.841270e-01
   endloop
 endfacet
 facet normal  9.644378e-01 -2.643099e-01  0.000000e+00
   outer loop
     vertex  4.595888e-01 -5.947151e-01 -1.587302e-02
     vertex  4.595888e-01 -5.947151e-01  9.841270e-01
     vertex  4.467393e-01 -6.416013e-01  9.841270e-01
   endloop
 endfacet
 facet normal  9.644378e-01 -2.643099e-01  0.000000e+00
   outer loop
     vertex  4.595888e-01 -5.947151e-01 -1.587302e-02
     vertex  4.467393e-01 -6.416013e-01  9.841270e-01
     vertex  4.467393e-01 -6.416013e-01 -1.587302e-02
   endloop
 endfacet
 facet normal  9.825785e-01 -1.858478e-01  0.000000e+00
   outer loop
     vertex  4.686238e-01 -5.469469e-01 -1.587302e-02
     vertex  4.686238e-01 -5.469469e-01  9.841270e-01
     vertex  4.595888e-01 -5.947151e-01  9.841270e-01
   endloop
 endfacet
 facet normal  9.825785e-01 -1.858478e-01  0.000000e+00
   outer loop
     vertex  4.686238e-01 -5.469469e-01 -1.587302e-02
     vertex  4.595888e-01 -5.947151e-01  9.841270e-01
     vertex  4.595888e-01 -5.947151e-01 -1.587302e-02
   endloop
 endfacet
 facet normal  9.943469e-01 -1.061804e-01  0.000000e+00
   outer loop
     vertex  4.737858e-01 -4.986066e-01 -1.587302e-02
     vertex  4.737858e-01 -4.986066e-01  9.841270e-01
     vertex  4.686238e-01 -5.469469e-01  9.841270e-01
   endloop
 endfacet
 facet normal  9.943469e-01 -1.061804e-01  0.000000e+00
   outer loop
     vertex  4.737858e-01 -4.986066e-01 -1.587302e-02
     vertex  4.686238e-01 -5.469469e-01  9.841270e-01
     vertex  4.686238e-01 -5.469469e-01 -1.587302e-02
   endloop
 endfacet
 facet normal  9.996665e-01 -2.582442e-02  0.000000e+00
   outer loop
     vertex  4.750412e-01 -4.500076e-01 -1.587302e-02
     vertex  4.737858e-01 -4.986066e-01  9.841270e-01
     vertex  4.737858e-01 -4.986066e-01 -1.587302e-02
   endloop
 endfacet
 facet normal  9.996665e-01 -2.582442e-02  0.000000e+00
   outer loop
     vertex  4.750412e-01 -4.500076e-01 -1.587302e-02
     vertex  4.750412e-01 -4.500076e-01  9.841270e-01
     vertex  4.737858e-01 -4.986066e-01  9.841270e-01
   endloop
 endfacet
 facet normal  9.985029e-01  5.469905e-02  0.000000e+00
   outer loop
     vertex  4.723820e-01 -4.014653e-01 -1.587302e-02
     vertex  4.750412e-01 -4.500076e-01  9.841270e-01
     vertex  4.750412e-01 -4.500076e-01 -1.587302e-02
   endloop
 endfacet
 facet normal  9.985029e-01  5.469905e-02 -0.000000e+00
   outer loop
     vertex  4.723820e-01 -4.014653e-01 -1.587302e-02
     vertex  4.723820e-01 -4.014653e-01  9.841270e-01
     vertex  4.750412e-01 -4.500076e-01  9.841270e-01
   endloop
 endfacet
 facet normal  9.908636e-01  1.348678e-01 -0.000000e+00
   outer loop
     vertex  4.658254e-01 -3.532943e-01 -1.587302e-02
     vertex  4.658254e-01 -3.532943e-01  9.841270e-01
     vertex  4.723820e-01 -4.014653e-01  9.841270e-01
   endloop
 endfacet
 facet normal  9.908636e-01  1.348678e-01  0.000000e+00
   outer loop
     vertex  4.658254e-01 -3.532943e-01 -1.587302e-02
     vertex  4.723820e-01 -4.014653e-01  9.841270e-01
     vertex  4.723820e-01 -4.014653e-01 -1.587302e-02
   endloop
 endfacet
 facet normal  9.767982e-01  2.141618e-01  0.000000e+00
   outer loop
     vertex  4.554139e-01 -3.058071e-01 -1.587302e-02
     vertex  4.658254e-01 -3.532943e-01  9.841270e-01
     vertex  4.658254e-01 -3.532943e-01 -1.587302e-02
   endloop
 endfacet
 facet normal  9.767982e-01  2.141618e-01 -0.000000e+00
   outer loop
     vertex  4.554139e-01 -3.058071e-01 -1.587302e-02
     vertex  4.554139e-01 -3.058071e-01  9.841270e-01
     vertex  4.658254e-01 -3.532943e-01  9.841270e-01
   endloop
 endfacet
 facet normal  9.563979e-01  2.920670e-01 -0.000000e+00
   outer loop
     vertex  4.412150e-01 -2.593117e-01 -1.587302e-02
     vertex  4.412150e-01 -2.593117e-01  9.841270e-01
     vertex  4.554139e-01 -3.058071e-01  9.841270e-01
   endloop
 endfacet
 facet normal  9.563979e-01  2.920670e-01  0.000000e+00
   outer loop
     vertex  4.412150e-01 -2.593117e-01 -1.587302e-02
     vertex  4.554139e-01 -3.058071e-01  9.841270e-01
     vertex  4.554139e-01 -3.058071e-01 -1.587302e-02
   endloop
 endfacet
 facet normal  9.297949e-01  3.680780e-01 -0.000000e+00
   outer loop
     vertex  4.233209e-01 -2.141096e-01 -1.587302e-02
     vertex  4.233209e-01 -2.141096e-01  9.841270e-01
     vertex  4.412150e-01 -2.593117e-01  9.841270e-01
   endloop
 endfacet
 facet normal  9.297949e-01  3.680780e-01  0.000000e+00
   outer loop
     vertex  4.233209e-01 -2.141096e-01 -1.587302e-02
     vertex  4.412150e-01 -2.593117e-01  9.841270e-01
     vertex  4.412150e-01 -2.593117e-01 -1.587302e-02
   endloop
 endfacet
 facet normal  8.971619e-01  4.417018e-01 -0.000000e+00
   outer loop
     vertex  4.018475e-01 -1.704940e-01 -1.587302e-02
     vertex  4.018475e-01 -1.704940e-01  9.841270e-01
     vertex  4.233209e-01 -2.141096e-01  9.841270e-01
   endloop
 endfacet
 facet normal  8.971619e-01  4.417018e-01  0.000000e+00
   outer loop
     vertex  4.018475e-01 -1.704940e-01 -1.587302e-02
     vertex  4.233209e-01 -2.141096e-01  9.841270e-01
     vertex  4.233209e-01 -2.141096e-01 -1.587302e-02
   endloop
 endfacet
 facet normal  8.587105e-01  5.124610e-01 -0.000000e+00
   outer loop
     vertex  3.769341e-01 -1.287476e-01 -1.587302e-02
     vertex  3.769341e-01 -1.287476e-01  9.841270e-01
     vertex  4.018475e-01 -1.704940e-01  9.841270e-01
   endloop
 endfacet
 facet normal  8.587105e-01  5.124610e-01  0.000000e+00
   outer loop
     vertex  3.769341e-01 -1.287476e-01 -1.587302e-02
     vertex  4.018475e-01 -1.704940e-01  9.841270e-01
     vertex  4.018475e-01 -1.704940e-01 -1.587302e-02
   endloop
 endfacet
 facet normal  8.146900e-01  5.798968e-01 -0.000000e+00
   outer loop
     vertex  3.487423e-01 -8.914137e-02 -1.587302e-02
     vertex  3.487423e-01 -8.914137e-02  9.841270e-01
     vertex  3.769341e-01 -1.287476e-01  9.841270e-01
   endloop
 endfacet
 facet normal  8.146900e-01  5.798968e-01  0.000000e+00
   outer loop
     vertex  3.487423e-01 -8.914137e-02 -1.587302e-02
     vertex  3.769341e-01 -1.287476e-01  9.841270e-01
     vertex  3.769341e-01 -1.287476e-01 -1.587302e-02
   endloop
 endfacet
 facet normal  7.653859e-01  6.435717e-01 -0.000000e+00
   outer loop
     vertex  3.174550e-01 -5.193203e-02 -1.587302e-02
     vertex  3.174550e-01 -5.193203e-02  9.841270e-01
     vertex  3.487423e-01 -8.914137e-02  9.841270e-01
   endloop
 endfacet
 facet normal  7.653859e-01  6.435717e-01  0.000000e+00
   outer loop
     vertex  3.174550e-01 -5.193203e-02 -1.587302e-02
     vertex  3.487423e-01 -8.914137e-02  9.841270e-01
     vertex  3.487423e-01 -8.914137e-02 -1.587302e-02
   endloop
 endfacet
 facet normal  7.111179e-01  7.030727e-01 -0.000000e+00
   outer loop
     vertex  2.832750e-01 -1.736093e-02 -1.587302e-02
     vertex  2.832750e-01 -1.736093e-02  9.841270e-01
     vertex  3.174550e-01 -5.193203e-02  9.841270e-01
   endloop
 endfacet
 facet normal  7.111179e-01  7.030727e-01  0.000000e+00
   outer loop
     vertex  2.832750e-01 -1.736093e-02 -1.587302e-02
     vertex  3.174550e-01 -5.193203e-02  9.841270e-01
     vertex  3.174550e-01 -5.193203e-02 -1.587302e-02
   endloop
 endfacet
 facet normal  6.522382e-01  7.580141e-01 -0.000000e+00
   outer loop
     vertex  2.464241e-01  1.434772e-02 -1.587302e-02
     vertex  2.464241e-01  1.434772e-02  9.841270e-01
     vertex  2.832750e-01 -1.736093e-02  9.841270e-01
   endloop
 endfacet
 facet normal  6.522382e-01  7.580141e-01  0.000000e+00
   outer loop
     vertex  2.464241e-01  1.434772e-02 -1.587302e-02
     vertex  2.832750e-01 -1.736093e-02  9.841270e-01
     vertex  2.832750e-01 -1.736093e-02 -1.587302e-02
   endloop
 endfacet
 facet normal  5.891284e-01  8.080395e-01 -0.000000e+00
   outer loop
     vertex  2.071411e-01  4.298828e-02 -1.587302e-02
     vertex  2.071411e-01  4.298828e-02  9.841270e-01
     vertex  2.464241e-01  1.434772e-02  9.841270e-01
   endloop
 endfacet
 facet normal  5.891284e-01  8.080395e-01  0.000000e+00
   outer loop
     vertex  2.071411e-01  4.298828e-02 -1.587302e-02
     vertex  2.464241e-01  1.434772e-02  9.841270e-01
     vertex  2.464241e-01  1.434772e-02 -1.587302e-02
   endloop
 endfacet
 facet normal  5.221978e-01  8.528244e-01 -0.000000e+00
   outer loop
     vertex  1.656809e-01  6.837500e-02 -1.587302e-02
     vertex  1.656809e-01  6.837500e-02  9.841270e-01
     vertex  2.071411e-01  4.298828e-02  9.841270e-01
   endloop
 endfacet
 facet normal  4.518807e-01  8.920784e-01 -0.000000e+00
   outer loop
     vertex  1.656809e-01  6.837500e-02 -1.587302e-02
     vertex  1.223124e-01  9.034324e-02  9.841270e-01
     vertex  1.656809e-01  6.837500e-02  9.841270e-01
   endloop
 endfacet
 facet normal  5.221978e-01  8.528244e-01  0.000000e+00
   outer loop
     vertex  1.656809e-01  6.837500e-02 -1.587302e-02
     vertex  2.071411e-01  4.298828e-02  9.841270e-01
     vertex  2.071411e-01  4.298828e-02 -1.587302e-02
   endloop
 endfacet
 facet normal  4.518807e-01  8.920784e-01 -0.000000e+00
   outer loop
     vertex  1.223124e-01  9.034324e-02 -1.587302e-02
     vertex  1.223124e-01  9.034324e-02  9.841270e-01
     vertex  1.656809e-01  6.837500e-02 -1.587302e-02
   endloop
 endfacet
 facet normal  3.786329e-01  9.255470e-01 -0.000000e+00
   outer loop
     vertex  7.731683e-02  1.087505e-01 -1.587302e-02
     vertex  7.731683e-02  1.087505e-01  9.841270e-01
     vertex  1.223124e-01  9.034324e-02  9.841270e-01
   endloop
 endfacet
 facet normal  3.029295e-01  9.530130e-01 -0.000000e+00
   outer loop
     vertex  7.731683e-02  1.087505e-01 -1.587302e-02
     vertex  3.098598e-02  1.234775e-01  9.841270e-01
     vertex  7.731683e-02  1.087505e-01  9.841270e-01
   endloop
 endfacet
 facet normal  3.786329e-01  9.255470e-01  0.000000e+00
   outer loop
     vertex  7.731683e-02  1.087505e-01 -1.587302e-02
     vertex  1.223124e-01  9.034324e-02  9.841270e-01
     vertex  1.223124e-01  9.034324e-02 -1.587302e-02
   endloop
 endfacet
 facet normal  3.029295e-01  9.530130e-01 -0.000000e+00
   outer loop
     vertex  3.098598e-02  1.234775e-01 -1.587302e-02
     vertex  3.098598e-02  1.234775e-01  9.841270e-01
     vertex  7.731683e-02  1.087505e-01 -1.587302e-02
   endloop
 endfacet
 facet normal  2.252615e-01  9.742983e-01 -0.000000e+00
   outer loop
     vertex -1.637967e-02  1.344286e-01 -1.587302e-02
     vertex -1.637967e-02  1.344286e-01  9.841270e-01
     vertex  3.098598e-02  1.234775e-01  9.841270e-01
   endloop
 endfacet
 facet normal  1.461326e-01  9.892650e-01 -0.000000e+00
   outer loop
     vertex -1.637967e-02  1.344286e-01 -1.587302e-02
     vertex -6.447293e-02  1.415329e-01  9.841270e-01
     vertex -1.637967e-02  1.344286e-01  9.841270e-01
   endloop
 endfacet
 facet normal  2.252615e-01  9.742983e-01  0.000000e+00
   outer loop
     vertex -1.637967e-02  1.344286e-01 -1.587302e-02
     vertex  3.098598e-02  1.234775e-01  9.841270e-01
     vertex  3.098598e-02  1.234775e-01 -1.587302e-02
   endloop
 endfacet
 facet normal  1.461326e-01  9.892650e-01 -0.000000e+00
   outer loop
     vertex -6.447293e-02  1.415329e-01 -1.587302e-02
     vertex -6.447293e-02  1.415329e-01  9.841270e-01
     vertex -1.637967e-02  1.344286e-01 -1.587302e-02
   endloop
 endfacet
 facet normal  6.605596e-02  9.978159e-01 -0.000000e+00
   outer loop
     vertex -1.129819e-01  1.447442e-01 -1.587302e-02
     vertex -1.129819e-01  1.447442e-01  9.841270e-01
     vertex -6.447293e-02  1.415329e-01  9.841270e-01
   endloop
 endfacet
 facet normal  6.605596e-02  9.978159e-01  0.000000e+00
   outer loop
     vertex -1.129819e-01  1.447442e-01 -1.587302e-02
     vertex -6.447293e-02  1.415329e-01  9.841270e-01
     vertex -6.447293e-02  1.415329e-01 -1.587302e-02
   endloop
 endfacet
 facet normal -1.444907e-02  9.998956e-01  0.000000e+00
   outer loop
     vertex -1.615920e-01  1.440417e-01 -1.587302e-02
     vertex -1.615920e-01  1.440417e-01  9.841270e-01
     vertex -1.129819e-01  1.447442e-01  9.841270e-01
   endloop
 endfacet
 facet normal -1.444907e-02  9.998956e-01  0.000000e+00
   outer loop
     vertex -1.615920e-01  1.440417e-01 -1.587302e-02
     vertex -1.129819e-01  1.447442e-01  9.841270e-01
     vertex -1.129819e-01  1.447442e-01 -1.587302e-02
   endloop
 endfacet
 facet normal -9.486038e-02  9.954906e-01  0.000000e+00
   outer loop
     vertex -2.099879e-01  1.394301e-01 -1.587302e-02
     vertex -2.099879e-01  1.394301e-01  9.841270e-01
     vertex -1.615920e-01  1.440417e-01  9.841270e-01
   endloop
 endfacet
 facet normal -9.486038e-02  9.954906e-01  0.000000e+00
   outer loop
     vertex -2.099879e-01  1.394301e-01 -1.587302e-02
     vertex -1.615920e-01  1.440417e-01  9.841270e-01
     vertex -1.615920e-01  1.440417e-01 -1.587302e-02
   endloop
 endfacet
 facet normal -1.746565e-01  9.846294e-01  0.000000e+00
   outer loop
     vertex -2.578558e-01  1.309391e-01 -1.587302e-02
     vertex -2.578558e-01  1.309391e-01  9.841270e-01
     vertex -2.099879e-01  1.394301e-01  9.841270e-01
   endloop
 endfacet
 facet normal -2.533199e-01  9.673826e-01  0.000000e+00
   outer loop
     vertex -2.578558e-01  1.309391e-01 -1.587302e-02
     vertex -3.048852e-01  1.186240e-01  9.841270e-01
     vertex -2.578558e-01  1.309391e-01  9.841270e-01
   endloop
 endfacet
 facet normal -1.746565e-01  9.846294e-01  0.000000e+00
   outer loop
     vertex -2.578558e-01  1.309391e-01 -1.587302e-02
     vertex -2.099879e-01  1.394301e-01  9.841270e-01
     vertex -2.099879e-01  1.394301e-01 -1.587302e-02
   endloop
 endfacet
 facet normal -2.533199e-01  9.673826e-01  0.000000e+00
   outer loop
     vertex -3.048852e-01  1.186240e-01 -1.587302e-02
     vertex -3.048852e-01  1.186240e-01  9.841270e-01
     vertex -2.578558e-01  1.309391e-01 -1.587302e-02
   endloop
 endfacet
 facet normal -3.303404e-01  9.438619e-01  0.000000e+00
   outer loop
     vertex -3.507712e-01  1.025644e-01 -1.587302e-02
     vertex -3.507712e-01  1.025644e-01  9.841270e-01
     vertex -3.048852e-01  1.186240e-01  9.841270e-01
   endloop
 endfacet
 facet normal -3.303404e-01  9.438619e-01  0.000000e+00
   outer loop
     vertex -3.507712e-01  1.025644e-01 -1.587302e-02
     vertex -3.048852e-01  1.186240e-01  9.841270e-01
     vertex -3.048852e-01  1.186240e-01 -1.587302e-02
   endloop
 endfacet
 facet normal -4.052185e-01  9.142198e-01  0.000000e+00
   outer loop
     vertex -3.952161e-01  8.286465e-02 -1.587302e-02
     vertex -3.507712e-01  1.025644e-01  9.841270e-01
     vertex -3.507712e-01  1.025644e-01 -1.587302e-02
   endloop
 endfacet
 facet normal -4.052185e-01  9.142198e-01  0.000000e+00
   outer loop
     vertex -3.952161e-01  8.286465e-02 -1.587302e-02
     vertex -3.952161e-01  8.286465e-02  9.841270e-01
     vertex -3.507712e-01  1.025644e-01  9.841270e-01
   endloop
 endfacet
 facet normal -4.774687e-01  8.786488e-01  0.000000e+00
   outer loop
     vertex -4.379317e-01  5.965244e-02 -1.587302e-02
     vertex -3.952161e-01  8.286465e-02  9.841270e-01
     vertex -3.952161e-01  8.286465e-02 -1.587302e-02
   endloop
 endfacet
 facet normal -4.774687e-01  8.786488e-01  0.000000e+00
   outer loop
     vertex -4.379317e-01  5.965244e-02 -1.587302e-02
     vertex -4.379317e-01  5.965244e-02  9.841270e-01
     vertex -3.952161e-01  8.286465e-02  9.841270e-01
   endloop
 endfacet
 facet normal -5.466223e-01  8.373793e-01  0.000000e+00
   outer loop
     vertex -4.786410e-01  3.307833e-02 -1.587302e-02
     vertex -4.379317e-01  5.965244e-02  9.841270e-01
     vertex -4.379317e-01  5.965244e-02 -1.587302e-02
   endloop
 endfacet
 facet normal -5.466223e-01  8.373793e-01  0.000000e+00
   outer loop
     vertex -4.786410e-01  3.307833e-02 -1.587302e-02
     vertex -4.786410e-01  3.307833e-02  9.841270e-01
     vertex -4.379317e-01  5.965244e-02  9.841270e-01
   endloop
 endfacet
 facet normal -6.122308e-01  7.906791e-01  0.000000e+00
   outer loop
     vertex -5.170800e-01  3.314645e-03 -1.587302e-02
     vertex -4.786410e-01  3.307833e-02  9.841270e-01
     vertex -4.786410e-01  3.307833e-02 -1.587302e-02
   endloop
 endfacet
 facet normal -6.122308e-01  7.906791e-01  0.000000e+00
   outer loop
     vertex -5.170800e-01  3.314645e-03 -1.587302e-02
     vertex -5.170800e-01  3.314645e-03  9.841270e-01
     vertex -4.786410e-01  3.307833e-02  9.841270e-01
   endloop
 endfacet
 facet normal -6.738687e-01  7.388511e-01  0.000000e+00
   outer loop
     vertex -5.529994e-01 -2.944558e-02 -1.587302e-02
     vertex -5.170800e-01  3.314645e-03  9.841270e-01
     vertex -5.170800e-01  3.314645e-03 -1.587302e-02
   endloop
 endfacet
 facet normal -6.738687e-01  7.388511e-01  0.000000e+00
   outer loop
     vertex -5.529994e-01 -2.944558e-02 -1.587302e-02
     vertex -5.529994e-01 -2.944558e-02  9.841270e-01
     vertex -5.170800e-01  3.314645e-03  9.841270e-01
   endloop
 endfacet
 facet normal -7.311364e-01  6.822313e-01  0.000000e+00
   outer loop
     vertex -5.861661e-01 -6.498987e-02 -1.587302e-02
     vertex -5.529994e-01 -2.944558e-02  9.841270e-01
     vertex -5.529994e-01 -2.944558e-02 -1.587302e-02
   endloop
 endfacet
 facet normal -7.311364e-01  6.822313e-01  0.000000e+00
   outer loop
     vertex -5.861661e-01 -6.498987e-02 -1.587302e-02
     vertex -5.861661e-01 -6.498987e-02  9.841270e-01
     vertex -5.529994e-01 -2.944558e-02  9.841270e-01
   endloop
 endfacet
 facet normal -7.836624e-01  6.211870e-01  0.000000e+00
   outer loop
     vertex -6.163652e-01 -1.030877e-01 -1.587302e-02
     vertex -5.861661e-01 -6.498987e-02  9.841270e-01
     vertex -5.861661e-01 -6.498987e-02 -1.587302e-02
   endloop
 endfacet
 facet normal -7.836624e-01  6.211870e-01  0.000000e+00
   outer loop
     vertex -6.163652e-01 -1.030877e-01 -1.587302e-02
     vertex -6.163652e-01 -1.030877e-01  9.841270e-01
     vertex -5.861661e-01 -6.498987e-02  9.841270e-01
   endloop
 endfacet
 facet normal -8.311060e-01  5.561141e-01  0.000000e+00
   outer loop
     vertex -6.434008e-01 -1.434921e-01 -1.587302e-02
     vertex -6.163652e-01 -1.030877e-01  9.841270e-01
     vertex -6.163652e-01 -1.030877e-01 -1.587302e-02
   endloop
 endfacet
 facet normal -8.311060e-01  5.561141e-01  0.000000e+00
   outer loop
     vertex -6.434008e-01 -1.434921e-01 -1.587302e-02
     vertex -6.434008e-01 -1.434921e-01  9.841270e-01
     vertex -6.163652e-01 -1.030877e-01  9.841270e-01
   endloop
 endfacet
 facet normal -8.731595e-01  4.874345e-01  0.000000e+00
   outer loop
     vertex -6.670975e-01 -1.859408e-01 -1.587302e-02
     vertex -6.434008e-01 -1.434921e-01  9.841270e-01
     vertex -6.434008e-01 -1.434921e-01 -1.587302e-02
   endloop
 endfacet
 facet normal -8.731595e-01  4.874345e-01  0.000000e+00
   outer loop
     vertex -6.670975e-01 -1.859408e-01 -1.587302e-02
     vertex -6.670975e-01 -1.859408e-01  9.841270e-01
     vertex -6.434008e-01 -1.434921e-01  9.841270e-01
   endloop
 endfacet
 facet normal -9.095503e-01  4.155938e-01  0.000000e+00
   outer loop
     vertex -6.670975e-01 -1.859408e-01 -1.587302e-02
     vertex -6.873016e-01 -2.301587e-01  9.841270e-01
     vertex -6.670975e-01 -1.859408e-01  9.841270e-01
   endloop
 endfacet
 facet normal -9.095503e-01  4.155938e-01  0.000000e+00
   outer loop
     vertex -6.873016e-01 -2.301587e-01 -1.587302e-02
     vertex -6.873016e-01 -2.301587e-01  9.841270e-01
     vertex -6.670975e-01 -1.859408e-01 -1.587302e-02
   endloop
 endfacet
 facet normal  0.000000e+00 -1.000000e+00  0.000000e+00
   outer loop
     vertex  4.301587e-01 -6.873016e-01 -1.587302e-02
     vertex -6.873016e-01 -6.873016e-01  9.841270e-01
     vertex -6.873016e-01 -6.873016e-01 -1.587302e-02
   endloop
 endfacet
 facet normal  0.000000e+00 -1.000000e+00  0.000000e+00
   outer loop
     vertex  4.301587e-01 -6.873016e-01 -1.587302e-02
     vertex  4.301587e-01 -6.873016e-01  9.841270e-01
     vertex -6.873016e-01 -6.873016e-01  9.841270e-01
   endloop
 endfacet
 facet normal -1.000000e+00 -2.428613e-16  0.000000e+00
   outer loop
     vertex -6.873016e-01 -6.873016e-01 -1.587302e-02
     vertex -6.873016e-01 -2.301587e-01 -1.587302e-02
     vertex -6.873016e-01 -2.301587e-01 -3.174603e-02
   endloop
 endfacet
 facet normal -1.000000e+00 -2.428613e-16 -0.000000e+00
   outer loop
     vertex -6.873016e-01 -6.873016e-01 -1.587302e-02
     vertex -6.873016e-01 -2.301587e-01 -3.174603e-02
     vertex -6.873016e-01 -6.873016e-01 -3.174603e-02
   endloop
 endfacet
 facet normal  0.000000e+00  0.000000e+00  1.000000e+00
   outer loop
     vertex -4.786410e-01  3.307833e-02  9.841270e-01
     vertex -5.170800e-01  3.314645e-03  9.841270e-01
     vertex -5.529994e-01 -2.944558e-02  9.841270e-01
   endloop
 endfacet
 facet normal  0.000000e+00  0.000000e+00  1.000000e+00
   outer loop
     vertex  4.301587e-01 -6.873016e-01  9.841270e-01
     vertex -6.873016e-01 -2.301587e-01  9.841270e-01
     vertex -6.873016e-01 -6.873016e-01  9.841270e-01
   endloop
 endfacet
 facet normal  0.000000e+00  0.000000e+00  1.000000e+00
   outer loop
     vertex -3.048852e-01  1.186240e-01  9.841270e-01
     vertex -3.507712e-01  1.025644e-01  9.841270e-01
     vertex -3.952161e-01  8.286465e-02  9.841270e-01
   endloop
 endfacet
 facet normal  0.000000e+00  0.000000e+00  1.000000e+00
   outer loop
     vertex -3.048852e-01  1.186240e-01  9.841270e-01
     vertex -3.952161e-01  8.286465e-02  9.841270e-01
     vertex -4.379317e-01  5.965244e-02  9.841270e-01
   endloop
 endfacet
 facet normal  0.000000e+00  0.000000e+00  1.000000e+00
   outer loop
     vertex  4.686238e-01 -5.469469e-01  9.841270e-01
     vertex  4.301587e-01 -6.873016e-01  9.841270e-01
     vertex  4.467393e-01 -6.416013e-01  9.841270e-01
   endloop
 endfacet
 facet normal  0.000000e+00  0.000000e+00  1.000000e+00
   outer loop
     vertex  4.686238e-01 -5.469469e-01  9.841270e-01
     vertex  4.467393e-01 -6.416013e-01  9.841270e-01
     vertex  4.595888e-01 -5.947151e-01  9.841270e-01
   endloop
 endfacet
 facet normal  0.000000e+00  0.000000e+00  1.000000e+00
   outer loop
     vertex  4.750412e-01 -4.500076e-01  9.841270e-01
     vertex  4.686238e-01 -5.469469e-01  9.841270e-01
     vertex  4.737858e-01 -4.986066e-01  9.841270e-01
   endloop
 endfacet
 facet normal  0.000000e+00  0.000000e+00  1.000000e+00
   outer loop
     vertex  4.723820e-01 -4.014653e-01  9.841270e-01
     vertex  4.686238e-01 -5.469469e-01  9.841270e-01
     vertex  4.750412e-01 -4.500076e-01  9.841270e-01
   endloop
 endfacet
 facet normal  0.000000e+00  0.000000e+00  1.000000e+00
   outer loop
     vertex -6.447293e-02  1.415329e-01  9.841270e-01
     vertex -1.129819e-01  1.447442e-01  9.841270e-01
     vertex -1.615920e-01  1.440417e-01  9.841270e-01
   endloop
 endfacet
 facet normal  0.000000e+00  0.000000e+00  1.000000e+00
   outer loop
     vertex  4.554139e-01 -3.058071e-01  9.841270e-01
     vertex  4.723820e-01 -4.014653e-01  9.841270e-01
     vertex  4.658254e-01 -3.532943e-01  9.841270e-01
   endloop
 endfacet
 facet normal  0.000000e+00  0.000000e+00  1.000000e+00
   outer loop
     vertex  7.731683e-02  1.087505e-01  9.841270e-01
     vertex  3.098598e-02  1.234775e-01  9.841270e-01
     vertex -1.637967e-02  1.344286e-01  9.841270e-01
   endloop
 endfacet
 facet normal  0.000000e+00  0.000000e+00  1.000000e+00
   outer loop
     vertex  4.233209e-01 -2.141096e-01  9.841270e-01
     vertex  4.554139e-01 -3.058071e-01  9.841270e-01
     vertex  4.412150e-01 -2.593117e-01  9.841270e-01
   endloop
 endfacet
 facet normal  0.000000e+00  0.000000e+00  1.000000e+00
   outer loop
     vertex  3.769341e-01 -1.287476e-01  9.841270e-01
     vertex  4.233209e-01 -2.141096e-01  9.841270e-01
     vertex  4.018475e-01 -1.704940e-01  9.841270e-01
   endloop
 endfacet
 facet normal  0.000000e+00  0.000000e+00  1.000000e+00
   outer loop
     vertex  2.071411e-01  4.298828e-02  9.841270e-01
     vertex  1.656809e-01  6.837500e-02  9.841270e-01
     vertex  1.223124e-01  9.034324e-02  9.841270e-01
   endloop
 endfacet
 facet normal  0.000000e+00  0.000000e+00  1.000000e+00
   outer loop
     vertex  2.832750e-01 -1.736093e-02  9.841270e-01
     vertex  3.769341e-01 -1.287476e-01  9.841270e-01
     vertex  3.487423e-01 -8.914137e-02  9.841270e-01
   endloop
 endfacet
 facet normal  0.000000e+00  0.000000e+00  1.000000e+00
   outer loop
     vertex  2.832750e-01 -1.736093e-02  9.841270e-01
     vertex  3.487423e-01 -8.914137e-02  9.841270e-01
     vertex  3.174550e-01 -5.193203e-02  9.841270e-01
   endloop
 endfacet
 facet normal  0.000000e+00  0.000000e+00  1.000000e+00
   outer loop
     vertex  2.832750e-01 -1.736093e-02  9.841270e-01
     vertex  2.464241e-01  1.434772e-02  9.841270e-01
     vertex  2.071411e-01  4.298828e-02  9.841270e-01
   endloop
 endfacet
 facet normal  0.000000e+00  0.000000e+00  1.000000e+00
   outer loop
     vertex  2.832750e-01 -1.736093e-02  9.841270e-01
     vertex  1.223124e-01  9.034324e-02  9.841270e-01
     vertex  7.731683e-02  1.087505e-01  9.841270e-01
   endloop
 endfacet
 facet normal  0.000000e+00  0.000000e+00  1.000000e+00
   outer loop
     vertex  2.832750e-01 -1.736093e-02  9.841270e-01
     vertex -1.637967e-02  1.344286e-01  9.841270e-01
     vertex -6.447293e-02  1.415329e-01  9.841270e-01
   endloop
 endfacet
 facet normal  0.000000e+00  0.000000e+00  1.000000e+00
   outer loop
     vertex  2.832750e-01 -1.736093e-02  9.841270e-01
     vertex -1.615920e-01  1.440417e-01  9.841270e-01
     vertex -2.099879e-01  1.394301e-01  9.841270e-01
   endloop
 endfacet
 facet normal  0.000000e+00  0.000000e+00  1.000000e+00
   outer loop
     vertex  2.832750e-01 -1.736093e-02  9.841270e-01
     vertex -2.099879e-01  1.394301e-01  9.841270e-01
     vertex -2.578558e-01  1.309391e-01  9.841270e-01
   endloop
 endfacet
 facet normal  0.000000e+00  0.000000e+00  1.000000e+00
   outer loop
     vertex  2.832750e-01 -1.736093e-02  9.841270e-01
     vertex -2.578558e-01  1.309391e-01  9.841270e-01
     vertex -3.048852e-01  1.186240e-01  9.841270e-01
   endloop
 endfacet
 facet normal  0.000000e+00  0.000000e+00  1.000000e+00
   outer loop
     vertex  2.832750e-01 -1.736093e-02  9.841270e-01
     vertex -4.379317e-01  5.965244e-02  9.841270e-01
     vertex -4.786410e-01  3.307833e-02  9.841270e-01
   endloop
 endfacet
 facet normal  0.000000e+00  0.000000e+00  1.000000e+00
   outer loop
     vertex  2.832750e-01 -1.736093e-02  9.841270e-01
     vertex -5.529994e-01 -2.944558e-02  9.841270e-01
     vertex -5.861661e-01 -6.498987e-02  9.841270e-01
   endloop
 endfacet
 facet normal  0.000000e+00  0.000000e+00  1.000000e+00
   outer loop
     vertex  2.832750e-01 -1.736093e-02  9.841270e-01
     vertex -5.861661e-01 -6.498987e-02  9.841270e-01
     vertex -6.163652e-01 -1.030877e-01  9.841270e-01
   endloop
 endfacet
 facet normal  0.000000e+00  0.000000e+00  1.000000e+00
   outer loop
     vertex  2.832750e-01 -1.736093e-02  9.841270e-01
     vertex -6.163652e-01 -1.030877e-01  9.841270e-01
     vertex -6.434008e-01 -1.434921e-01  9.841270e-01
   endloop
 endfacet
 facet normal  0.000000e+00  0.000000e+00  1.000000e+00
   outer loop
     vertex  2.832750e-01 -1.736093e-02  9.841270e-01
     vertex -6.434008e-01 -1.434921e-01  9.841270e-01
     vertex -6.670975e-01 -1.859408e-01  9.841270e-01
   endloop
 endfacet
 facet normal  0.000000e+00  0.000000e+00  1.000000e+00
   outer loop
     vertex  2.832750e-01 -1.736093e-02  9.841270e-01
     vertex -6.670975e-01 -1.859408e-01  9.841270e-01
     vertex -6.873016e-01 -2.301587e-01  9.841270e-01
   endloop
 endfacet
 facet normal  0.000000e+00  0.000000e+00  1.000000e+00
   outer loop
     vertex  2.832750e-01 -1.736093e-02  9.841270e-01
     vertex -4.786410e-01  3.307833e-02  9.841270e-01
     vertex -5.529994e-01 -2.944558e-02  9.841270e-01
   endloop
 endfacet
 facet normal  0.000000e+00  0.000000e+00  1.000000e+00
   outer loop
     vertex  2.832750e-01 -1.736093e-02  9.841270e-01
     vertex -3.048852e-01  1.186240e-01  9.841270e-01
     vertex -4.379317e-01  5.965244e-02  9.841270e-01
   endloop
 endfacet
 facet normal  0.000000e+00  0.000000e+00  1.000000e+00
   outer loop
     vertex  2.832750e-01 -1.736093e-02  9.841270e-01
     vertex -6.873016e-01 -2.301587e-01  9.841270e-01
     vertex  4.301587e-01 -6.873016e-01  9.841270e-01
   endloop
 endfacet
 facet normal  0.000000e+00  0.000000e+00  1.000000e+00
   outer loop
     vertex  2.832750e-01 -1.736093e-02  9.841270e-01
     vertex  4.301587e-01 -6.873016e-01  9.841270e-01
     vertex  4.686238e-01 -5.469469e-01  9.841270e-01
   endloop
 endfacet
 facet normal  0.000000e+00  0.000000e+00  1.000000e+00
   outer loop
     vertex  2.832750e-01 -1.736093e-02  9.841270e-01
     vertex  4.554139e-01 -3.058071e-01  9.841270e-01
     vertex  4.233209e-01 -2.141096e-01  9.841270e-01
   endloop
 endfacet
 facet normal  0.000000e+00  0.000000e+00  1.000000e+00
   outer loop
     vertex  2.832750e-01 -1.736093e-02  9.841270e-01
     vertex  4.723820e-01 -4.014653e-01  9.841270e-01
     vertex  4.554139e-01 -3.058071e-01  9.841270e-01
   endloop
 endfacet
 facet normal  0.000000e+00  0.000000e+00  1.000000e+00
   outer loop
     vertex  2.832750e-01 -1.736093e-02  9.841270e-01
     vertex  4.686238e-01 -5.469469e-01  9.841270e-01
     vertex  4.723820e-01 -4.014653e-01  9.841270e-01
   endloop
 endfacet
 facet normal  0.000000e+00  0.000000e+00  1.000000e+00
   outer loop
     vertex  2.832750e-01 -1.736093e-02  9.841270e-01
     vertex -6.447293e-02  1.415329e-01  9.841270e-01
     vertex -1.615920e-01  1.440417e-01  9.841270e-01
   endloop
 endfacet
 facet normal  0.000000e+00  0.000000e+00  1.000000e+00
   outer loop
     vertex  2.832750e-01 -1.736093e-02  9.841270e-01
     vertex  7.731683e-02  1.087505e-01  9.841270e-01
     vertex -1.637967e-02  1.344286e-01  9.841270e-01
   endloop
 endfacet
 facet normal  0.000000e+00  0.000000e+00  1.000000e+00
   outer loop
     vertex  2.832750e-01 -1.736093e-02  9.841270e-01
     vertex  4.233209e-01 -2.141096e-01  9.841270e-01
     vertex  3.769341e-01 -1.287476e-01  9.841270e-01
   endloop
 endfacet
 facet normal  0.000000e+00  0.000000e+00  1.000000e+00
   outer loop
     vertex  2.832750e-01 -1.736093e-02  9.841270e-01
     vertex  2.071411e-01  4.298828e-02  9.841270e-01
     vertex  1.223124e-01  9.034324e-02  9.841270e-01
   endloop
 endfacet
 facet normal  9.400423e-01 -3.410578e-01  0.000000e+00
   outer loop
     vertex  4.467393e-01 -6.416013e-01 -1.587302e-02
     vertex  4.301587e-01 -6.873016e-01 -1.587302e-02
     vertex  4.301587e-01 -6.873016e-01 -3.174603e-02
   endloop
 endfacet
 facet normal  9.400423e-01 -3.410578e-01  0.000000e+00
   outer loop
     vertex  4.467393e-01 -6.416013e-01 -1.587302e-02
     vertex  4.301587e-01 -6.873016e-01 -3.174603e-02
     vertex  4.467393e-01 -6.416013e-01 -3.174603e-02
   endloop
 endfacet
 facet normal  9.644378e-01 -2.643099e-01  0.000000e+00
   outer loop
     vertex  4.595888e-01 -5.947151e-01 -1.587302e-02
     vertex  4.467393e-01 -6.416013e-01 -3.174603e-02
     vertex  4.595888e-01 -5.947151e-01 -3.174603e-02
   endloop
 endfacet
 facet normal  9.644378e-01 -2.643099e-01  0.000000e+00
   outer loop
     vertex  4.595888e-01 -5.947151e-01 -1.587302e-02
     vertex  4.467393e-01 -6.416013e-01 -1.587302e-02
     vertex  4.467393e-01 -6.416013e-01 -3.174603e-02
   endloop
 endfacet
 facet normal  9.825785e-01 -1.858478e-01  0.000000e+00
   outer loop
     vertex  4.686238e-01 -5.469469e-01 -1.587302e-02
     vertex  4.595888e-01 -5.947151e-01 -3.174603e-02
     vertex  4.686238e-01 -5.469469e-01 -3.174603e-02
   endloop
 endfacet
 facet normal  9.825785e-01 -1.858478e-01  0.000000e+00
   outer loop
     vertex  4.686238e-01 -5.469469e-01 -1.587302e-02
     vertex  4.595888e-01 -5.947151e-01 -1.587302e-02
     vertex  4.595888e-01 -5.947151e-01 -3.174603e-02
   endloop
 endfacet
 facet normal  9.943469e-01 -1.061804e-01  0.000000e+00
   outer loop
     vertex  4.737858e-01 -4.986066e-01 -1.587302e-02
     vertex  4.686238e-01 -5.469469e-01 -3.174603e-02
     vertex  4.737858e-01 -4.986066e-01 -3.174603e-02
   endloop
 endfacet
 facet normal  9.943469e-01 -1.061804e-01  0.000000e+00
   outer loop
     vertex  4.737858e-01 -4.986066e-01 -1.587302e-02
     vertex  4.686238e-01 -5.469469e-01 -1.587302e-02
     vertex  4.686238e-01 -5.469469e-01 -3.174603e-02
   endloop
 endfacet
 facet normal  9.996665e-01 -2.582442e-02  0.000000e+00
   outer loop
     vertex  4.750412e-01 -4.500076e-01 -1.587302e-02
     vertex  4.737858e-01 -4.986066e-01 -1.587302e-02
     vertex  4.737858e-01 -4.986066e-01 -3.174603e-02
   endloop
 endfacet
 facet normal  9.996665e-01 -2.582442e-02  0.000000e+00
   outer loop
     vertex  4.750412e-01 -4.500076e-01 -1.587302e-02
     vertex  4.737858e-01 -4.986066e-01 -3.174603e-02
     vertex  4.750412e-01 -4.500076e-01 -3.174603e-02
   endloop
 endfacet
 facet normal  9.985029e-01  5.469905e-02  0.000000e+00
   outer loop
     vertex  4.723820e-01 -4.014653e-01 -1.587302e-02
     vertex  4.750412e-01 -4.500076e-01 -1.587302e-02
     vertex  4.750412e-01 -4.500076e-01 -3.174603e-02
   endloop
 endfacet
 facet normal  9.985029e-01  5.469905e-02  0.000000e+00
   outer loop
     vertex  4.723820e-01 -4.014653e-01 -1.587302e-02
     vertex  4.750412e-01 -4.500076e-01 -3.174603e-02
     vertex  4.723820e-01 -4.014653e-01 -3.174603e-02
   endloop
 endfacet
 facet normal  9.908636e-01  1.348678e-01  0.000000e+00
   outer loop
     vertex  4.658254e-01 -3.532943e-01 -1.587302e-02
     vertex  4.723820e-01 -4.014653e-01 -3.174603e-02
     vertex  4.658254e-01 -3.532943e-01 -3.174603e-02
   endloop
 endfacet
 facet normal  9.908636e-01  1.348678e-01  0.000000e+00
   outer loop
     vertex  4.658254e-01 -3.532943e-01 -1.587302e-02
     vertex  4.723820e-01 -4.014653e-01 -1.587302e-02
     vertex  4.723820e-01 -4.014653e-01 -3.174603e-02
   endloop
 endfacet
 facet normal  9.767982e-01  2.141618e-01  0.000000e+00
   outer loop
     vertex  4.554139e-01 -3.058071e-01 -1.587302e-02
     vertex  4.658254e-01 -3.532943e-01 -1.587302e-02
     vertex  4.658254e-01 -3.532943e-01 -3.174603e-02
   endloop
 endfacet
 facet normal  9.767982e-01  2.141618e-01  0.000000e+00
   outer loop
     vertex  4.554139e-01 -3.058071e-01 -1.587302e-02
     vertex  4.658254e-01 -3.532943e-01 -3.174603e-02
     vertex  4.554139e-01 -3.058071e-01 -3.174603e-02
   endloop
 endfacet
 facet normal  9.563979e-01  2.920670e-01  0.000000e+00
   outer loop
     vertex  4.412150e-01 -2.593117e-01 -1.587302e-02
     vertex  4.554139e-01 -3.058071e-01 -3.174603e-02
     vertex  4.412150e-01 -2.593117e-01 -3.174603e-02
   endloop
 endfacet
 facet normal  9.563979e-01  2.920670e-01  0.000000e+00
   outer loop
     vertex  4.412150e-01 -2.593117e-01 -1.587302e-02
     vertex  4.554139e-01 -3.058071e-01 -1.587302e-02
     vertex  4.554139e-01 -3.058071e-01 -3.174603e-02
   endloop
 endfacet
 facet normal  9.297949e-01  3.680780e-01  0.000000e+00
   outer loop
     vertex  4.233209e-01 -2.141096e-01 -1.587302e-02
     vertex  4.412150e-01 -2.593117e-01 -3.174603e-02
     vertex  4.233209e-01 -2.141096e-01 -3.174603e-02
   endloop
 endfacet
 facet normal  9.297949e-01  3.680780e-01  0.000000e+00
   outer loop
     vertex  4.233209e-01 -2.141096e-01 -1.587302e-02
     vertex  4.412150e-01 -2.593117e-01 -1.587302e-02
     vertex  4.412150e-01 -2.593117e-01 -3.174603e-02
   endloop
 endfacet
 facet normal  8.971619e-01  4.417018e-01  0.000000e+00
   outer loop
     vertex  4.018475e-01 -1.704940e-01 -1.587302e-02
     vertex  4.233209e-01 -2.141096e-01 -3.174603e-02
     vertex  4.018475e-01 -1.704940e-01 -3.174603e-02
   endloop
 endfacet
 facet normal  8.971619e-01  4.417018e-01  0.000000e+00
   outer loop
     vertex  4.018475e-01 -1.704940e-01 -1.587302e-02
     vertex  4.233209e-01 -2.141096e-01 -1.587302e-02
     vertex  4.233209e-01 -2.141096e-01 -3.174603e-02
   endloop
 endfacet
 facet normal  8.587105e-01  5.124610e-01  0.000000e+00
   outer loop
     vertex  3.769341e-01 -1.287476e-01 -1.587302e-02
     vertex  4.018475e-01 -1.704940e-01 -3.174603e-02
     vertex  3.769341e-01 -1.287476e-01 -3.174603e-02
   endloop
 endfacet
 facet normal  8.587105e-01  5.124610e-01  0.000000e+00
   outer loop
     vertex  3.769341e-01 -1.287476e-01 -1.587302e-02
     vertex  4.018475e-01 -1.704940e-01 -1.587302e-02
     vertex  4.018475e-01 -1.704940e-01 -3.174603e-02
   endloop
 endfacet
 facet normal  8.146900e-01  5.798968e-01  0.000000e+00
   outer loop
     vertex  3.487423e-01 -8.914137e-02 -1.587302e-02
     vertex  3.769341e-01 -1.287476e-01 -3.174603e-02
     vertex  3.487423e-01 -8.914137e-02 -3.174603e-02
   endloop
 endfacet
 facet normal  8.146900e-01  5.798968e-01  0.000000e+00
   outer loop
     vertex  3.487423e-01 -8.914137e-02 -1.587302e-02
     vertex  3.769341e-01 -1.287476e-01 -1.587302e-02
     vertex  3.769341e-01 -1.287476e-01 -3.174603e-02
   endloop
 endfacet
 facet normal  7.653859e-01  6.435717e-01  0.000000e+00
   outer loop
     vertex  3.174550e-01 -5.193203e-02 -1.587302e-02
     vertex  3.487423e-01 -8.914137e-02 -3.174603e-02
     vertex  3.174550e-01 -5.193203e-02 -3.174603e-02
   endloop
 endfacet
 facet normal  7.653859e-01  6.435717e-01  0.000000e+00
   outer loop
     vertex  3.174550e-01 -5.193203e-02 -1.587302e-02
     vertex  3.487423e-01 -8.914137e-02 -1.587302e-02
     vertex  3.487423e-01 -8.914137e-02 -3.174603e-02
   endloop
 endfacet
 facet normal  7.111179e-01  7.030727e-01  0.000000e+00
   outer loop
     vertex  2.832750e-01 -1.736093e-02 -1.587302e-02
     vertex  3.174550e-01 -5.193203e-02 -3.174603e-02
     vertex  2.832750e-01 -1.736093e-02 -3.174603e-02
   endloop
 endfacet
 facet normal  7.111179e-01  7.030727e-01  0.000000e+00
   outer loop
     vertex  2.832750e-01 -1.736093e-02 -1.587302e-02
     vertex  3.174550e-01 -5.193203e-02 -1.587302e-02
     vertex  3.174550e-01 -5.193203e-02 -3.174603e-02
   endloop
 endfacet
 facet normal  6.522382e-01  7.580141e-01  0.000000e+00
   outer loop
     vertex  2.464241e-01  1.434772e-02 -1.587302e-02
     vertex  2.832750e-01 -1.736093e-02 -3.174603e-02
     vertex  2.464241e-01  1.434772e-02 -3.174603e-02
   endloop
 endfacet
 facet normal  6.522382e-01  7.580141e-01  0.000000e+00
   outer loop
     vertex  2.464241e-01  1.434772e-02 -1.587302e-02
     vertex  2.832750e-01 -1.736093e-02 -1.587302e-02
     vertex  2.832750e-01 -1.736093e-02 -3.174603e-02
   endloop
 endfacet
 facet normal  5.891284e-01  8.080395e-01  0.000000e+00
   outer loop
     vertex  2.071411e-01  4.298828e-02 -1.587302e-02
     vertex  2.464241e-01  1.434772e-02 -3.174603e-02
     vertex  2.071411e-01  4.298828e-02 -3.174603e-02
   endloop
 endfacet
 facet normal  5.891284e-01  8.080395e-01  0.000000e+00
   outer loop
     vertex  2.071411e-01  4.298828e-02 -1.587302e-02
     vertex  2.464241e-01  1.434772e-02 -1.587302e-02
     vertex  2.464241e-01  1.434772e-02 -3.174603e-02
   endloop
 endfacet
 facet normal  5.221978e-01  8.528244e-01  0.000000e+00
   outer loop
     vertex  1.656809e-01  6.837500e-02 -1.587302e-02
     vertex  2.071411e-01  4.298828e-02 -3.174603e-02
     vertex  1.656809e-01  6.837500e-02 -3.174603e-02
   endloop
 endfacet
 facet normal  5.221978e-01  8.528244e-01  0.000000e+00
   outer loop
     vertex  1.656809e-01  6.837500e-02 -1.587302e-02
     vertex  2.071411e-01  4.298828e-02 -1.587302e-02
     vertex  2.071411e-01  4.298828e-02 -3.174603e-02
   endloop
 endfacet
 facet normal  4.518807e-01  8.920784e-01  0.000000e+00
   outer loop
     vertex  1.223124e-01  9.034324e-02 -1.587302e-02
     vertex  1.656809e-01  6.837500e-02 -3.174603e-02
     vertex  1.223124e-01  9.034324e-02 -3.174603e-02
   endloop
 endfacet
 facet normal  4.518807e-01  8.920784e-01  0.000000e+00
   outer loop
     vertex  1.223124e-01  9.034324e-02 -1.587302e-02
     vertex  1.656809e-01  6.837500e-02 -1.587302e-02
     vertex  1.656809e-01  6.837500e-02 -3.174603e-02
   endloop
 endfacet
 facet normal  3.786329e-01  9.255470e-01  0.000000e+00
   outer loop
     vertex  7.731683e-02  1.087505e-01 -1.587302e-02
     vertex  1.223124e-01  9.034324e-02 -3.174603e-02
     vertex  7.731683e-02  1.087505e-01 -3.174603e-02
   endloop
 endfacet
 facet normal  3.786329e-01  9.255470e-01  0.000000e+00
   outer loop
     vertex  7.731683e-02  1.087505e-01 -1.587302e-02
     vertex  1.223124e-01  9.034324e-02 -1.587302e-02
     vertex  1.223124e-01  9.034324e-02 -3.174603e-02
   endloop
 endfacet
 facet normal  3.029295e-01  9.530130e-01  0.000000e+00
   outer loop
     vertex  3.098598e-02  1.234775e-01 -1.587302e-02
     vertex  7.731683e-02  1.087505e-01 -3.174603e-02
     vertex  3.098598e-02  1.234775e-01 -3.174603e-02
   endloop
 endfacet
 facet normal  3.029295e-01  9.530130e-01  0.000000e+00
   outer loop
     vertex  3.098598e-02  1.234775e-01 -1.587302e-02
     vertex  7.731683e-02  1.087505e-01 -1.587302e-02
     vertex  7.731683e-02  1.087505e-01 -3.174603e-02
   endloop
 endfacet
 facet normal  2.252615e-01  9.742983e-01  0.000000e+00
   outer loop
     vertex -1.637967e-02  1.344286e-01 -1.587302e-02
     vertex  3.098598e-02  1.234775e-01 -3.174603e-02
     vertex -1.637967e-02  1.344286e-01 -3.174603e-02
   endloop
 endfacet
 facet normal  2.252615e-01  9.742983e-01  0.000000e+00
   outer loop
     vertex -1.637967e-02  1.344286e-01 -1.587302e-02
     vertex  3.098598e-02  1.234775e-01 -1.587302e-02
     vertex  3.098598e-02  1.234775e-01 -3.174603e-02
   endloop
 endfacet
 facet normal  1.461326e-01  9.892650e-01  0.000000e+00
   outer loop
     vertex -6.447293e-02  1.415329e-01 -1.587302e-02
     vertex -1.637967e-02  1.344286e-01 -3.174603e-02
     vertex -6.447293e-02  1.415329e-01 -3.174603e-02
   endloop
 endfacet
 facet normal  1.461326e-01  9.892650e-01  0.000000e+00
   outer loop
     vertex -6.447293e-02  1.415329e-01 -1.587302e-02
     vertex -1.637967e-02  1.344286e-01 -1.587302e-02
     vertex -1.637967e-02  1.344286e-01 -3.174603e-02
   endloop
 endfacet
 facet normal  6.605596e-02  9.978159e-01  0.000000e+00
   outer loop
     vertex -1.129819e-01  1.447442e-01 -1.587302e-02
     vertex -6.447293e-02  1.415329e-01 -3.174603e-02
     vertex -1.129819e-01  1.447442e-01 -3.174603e-02
   endloop
 endfacet
 facet normal  6.605596e-02  9.978159e-01  0.000000e+00
   outer loop
     vertex -1.129819e-01  1.447442e-01 -1.587302e-02
     vertex -6.447293e-02  1.415329e-01 -1.587302e-02
     vertex -6.447293e-02  1.415329e-01 -3.174603e-02
   endloop
 endfacet
 facet normal -1.444907e-02  9.998956e-01  0.000000e+00
   outer loop
     vertex -1.615920e-01  1.440417e-01 -1.587302e-02
     vertex -1.129819e-01  1.447442e-01 -3.174603e-02
     vertex -1.615920e-01  1.440417e-01 -3.174603e-02
   endloop
 endfacet
 facet normal -1.444907e-02  9.998956e-01  0.000000e+00
   outer loop
     vertex -1.615920e-01  1.440417e-01 -1.587302e-02
     vertex -1.129819e-01  1.447442e-01 -1.587302e-02
     vertex -1.129819e-01  1.447442e-01 -3.174603e-02
   endloop
 endfacet
 facet normal -9.486038e-02  9.954906e-01  0.000000e+00
   outer loop
     vertex -2.099879e-01  1.394301e-01 -1.587302e-02
     vertex -1.615920e-01  1.440417e-01 -3.174603e-02
     vertex -2.099879e-01  1.394301e-01 -3.174603e-02
   endloop
 endfacet
 facet normal -9.486038e-02  9.954906e-01  0.000000e+00
   outer loop
     vertex -2.099879e-01  1.394301e-01 -1.587302e-02
     vertex -1.615920e-01  1.440417e-01 -1.587302e-02
     vertex -1.615920e-01  1.440417e-01 -3.174603e-02
   endloop
 endfacet
 facet normal -1.746565e-01  9.846294e-01  0.000000e+00
   outer loop
     vertex -2.578558e-01  1.309391e-01 -1.587302e-02
     vertex -2.099879e-01  1.394301e-01 -3.174603e-02
     vertex -2.578558e-01  1.309391e-01 -3.174603e-02
   endloop
 endfacet
 facet normal -1.746565e-01  9.846294e-01  0.000000e+00
   outer loop
     vertex -2.578558e-01  1.309391e-01 -1.587302e-02
     vertex -2.099879e-01  1.394301e-01 -1.587302e-02
     vertex -2.099879e-01  1.394301e-01 -3.174603e-02
   endloop
 endfacet
 facet normal -2.533199e-01  9.673826e-01  0.000000e+00
   outer loop
     vertex -3.048852e-01  1.186240e-01 -1.587302e-02
     vertex -2.578558e-01  1.309391e-01 -3.174603e-02
     vertex -3.048852e-01  1.186240e-01 -3.174603e-02
   endloop
 endfacet
 facet normal -2.533199e-01  9.673826e-01  0.000000e+00
   outer loop
     vertex -3.048852e-01  1.186240e-01 -1.587302e-02
     vertex -2.578558e-01  1.309391e-01 -1.587302e-02
     vertex -2.578558e-01  1.309391e-01 -3.174603e-02
   endloop
 endfacet
 facet normal -3.303404e-01  9.438619e-01  0.000000e+00
   outer loop
     vertex -3.507712e-01  1.025644e-01 -1.587302e-02
     vertex -3.048852e-01  1.186240e-01 -3.174603e-02
     vertex -3.507712e-01  1.025644e-01 -3.174603e-02
   endloop
 endfacet
 facet normal -3.303404e-01  9.438619e-01  0.000000e+00
   outer loop
     vertex -3.507712e-01  1.025644e-01 -1.587302e-02
     vertex -3.048852e-01  1.186240e-01 -1.587302e-02
     vertex -3.048852e-01  1.186240e-01 -3.174603e-02
   endloop
 endfacet
 facet normal -4.052185e-01  9.142198e-01  0.000000e+00
   outer loop
     vertex -3.952161e-01  8.286465e-02 -1.587302e-02
     vertex -3.507712e-01  1.025644e-01 -1.587302e-02
     vertex -3.507712e-01  1.025644e-01 -3.174603e-02
   endloop
 endfacet
 facet normal -4.052185e-01  9.142198e-01  0.000000e+00
   outer loop
     vertex -3.952161e-01  8.286465e-02 -1.587302e-02
     vertex -3.507712e-01  1.025644e-01 -3.174603e-02
     vertex -3.952161e-01  8.286465e-02 -3.174603e-02
   endloop
 endfacet
 facet normal -4.774687e-01  8.786488e-01  0.000000e+00
   outer loop
     vertex -4.379317e-01  5.965244e-02 -1.587302e-02
     vertex -3.952161e-01  8.286465e-02 -1.587302e-02
     vertex -3.952161e-01  8.286465e-02 -3.174603e-02
   endloop
 endfacet
 facet normal -4.774687e-01  8.786488e-01  0.000000e+00
   outer loop
     vertex -4.379317e-01  5.965244e-02 -1.587302e-02
     vertex -3.952161e-01  8.286465e-02 -3.174603e-02
     vertex -4.379317e-01  5.965244e-02 -3.174603e-02
   endloop
 endfacet
 facet normal -5.466223e-01  8.373793e-01  0.000000e+00
   outer loop
     vertex -4.786410e-01  3.307833e-02 -1.587302e-02
     vertex -4.379317e-01  5.965244e-02 -1.587302e-02
     vertex -4.379317e-01  5.965244e-02 -3.174603e-02
   endloop
 endfacet
 facet normal -5.466223e-01  8.373793e-01  0.000000e+00
   outer loop
     vertex -4.786410e-01  3.307833e-02 -1.587302e-02
     vertex -4.379317e-01  5.965244e-02 -3.174603e-02
     vertex -4.786410e-01  3.307833e-02 -3.174603e-02
   endloop
 endfacet
 facet normal -6.122308e-01  7.906791e-01  0.000000e+00
   outer loop
     vertex -5.170800e-01  3.314645e-03 -1.587302e-02
     vertex -4.786410e-01  3.307833e-02 -1.587302e-02
     vertex -4.786410e-01  3.307833e-02 -3.174603e-02
   endloop
 endfacet
 facet normal -6.122308e-01  7.906791e-01  0.000000e+00
   outer loop
     vertex -5.170800e-01  3.314645e-03 -1.587302e-02
     vertex -4.786410e-01  3.307833e-02 -3.174603e-02
     vertex -5.170800e-01  3.314645e-03 -3.174603e-02
   endloop
 endfacet
 facet normal -6.738687e-01  7.388511e-01  0.000000e+00
   outer loop
     vertex -5.529994e-01 -2.944558e-02 -1.587302e-02
     vertex -5.170800e-01  3.314645e-03 -1.587302e-02
     vertex -5.170800e-01  3.314645e-03 -3.174603e-02
   endloop
 endfacet
 facet normal -6.738687e-01  7.388511e-01  0.000000e+00
   outer loop
     vertex -5.529994e-01 -2.944558e-02 -1.587302e-02
     vertex -5.170800e-01  3.314645e-03 -3.174603e-02
     vertex -5.529994e-01 -2.944558e-02 -3.174603e-02
   endloop
 endfacet
 facet normal -7.311364e-01  6.822313e-01  0.000000e+00
   outer loop
     vertex -5.861661e-01 -6.498987e-02 -1.587302e-02
     vertex -5.529994e-01 -2.944558e-02 -1.587302e-02
     vertex -5.529994e-01 -2.944558e-02 -3.174603e-02
   endloop
 endfacet
 facet normal -7.311364e-01  6.822313e-01  0.000000e+00
   outer loop
     vertex -5.861661e-01 -6.498987e-02 -1.587302e-02
     vertex -5.529994e-01 -2.944558e-02 -3.174603e-02
     vertex -5.861661e-01 -6.498987e-02 -3.174603e-02
   endloop
 endfacet
 facet normal -7.836624e-01  6.211870e-01  0.000000e+00
   outer loop
     vertex -6.163652e-01 -1.030877e-01 -1.587302e-02
     vertex -5.861661e-01 -6.498987e-02 -1.587302e-02
     vertex -5.861661e-01 -6.498987e-02 -3.174603e-02
   endloop
 endfacet
 facet normal -7.836624e-01  6.211870e-01  0.000000e+00
   outer loop
     vertex -6.163652e-01 -1.030877e-01 -1.587302e-02
     vertex -5.861661e-01 -6.498987e-02 -3.174603e-02
     vertex -6.163652e-01 -1.030877e-01 -3.174603e-02
   endloop
 endfacet
 facet normal -8.311060e-01  5.561141e-01  0.000000e+00
   outer loop
     vertex -6.434008e-01 -1.434921e-01 -1.587302e-02
     vertex -6.163652e-01 -1.030877e-01 -1.587302e-02
     vertex -6.163652e-01 -1.030877e-01 -3.174603e-02
   endloop
 endfacet
 facet normal -8.311060e-01  5.561141e-01  0.000000e+00
   outer loop
     vertex -6.434008e-01 -1.434921e-01 -1.587302e-02
     vertex -6.163652e-01 -1.030877e-01 -3.174603e-02
     vertex -6.434008e-01 -1.434921e-01 -3.174603e-02
   endloop
 endfacet
 facet normal -8.731595e-01  4.874345e-01  0.000000e+00
   outer loop
     vertex -6.670975e-01 -1.859408e-01 -1.587302e-02
     vertex -6.434008e-01 -1.434921e-01 -1.587302e-02
     vertex -6.434008e-01 -1.434921e-01 -3.174603e-02
   endloop
 endfacet
 facet normal -8.731595e-01  4.874345e-01  0.000000e+00
   outer loop
     vertex -6.670975e-01 -1.859408e-01 -1.587302e-02
     vertex -6.434008e-01 -1.434921e-01 -3.174603e-02
     vertex -6.670975e-01 -1.859408e-01 -3.174603e-02
   endloop
 endfacet
 facet normal -9.095503e-01  4.155938e-01  0.000000e+00
   outer loop
     vertex -6.873016e-01 -2.301587e-01 -1.587302e-02
     vertex -6.670975e-01 -1.859408e-01 -3.174603e-02
     vertex -6.873016e-01 -2.301587e-01 -3.174603e-02
   endloop
 endfacet
 facet normal -9.095503e-01  4.155938e-01  0.000000e+00
   outer loop
     vertex -6.873016e-01 -2.301587e-01 -1.587302e-02
     vertex -6.670975e-01 -1.859408e-01 -1.587302e-02
     vertex -6.670975e-01 -1.859408e-01 -3.174603e-02
   endloop
 endfacet
 facet normal -0.000000e+00 -1.000000e+00  0.000000e+00
   outer loop
     vertex  4.301587e-01 -6.873016e-01 -1.587302e-02
     vertex -6.873016e-01 -6.873016e-01 -1.587302e-02
     vertex -6.873016e-01 -6.873016e-01 -3.174603e-02
   endloop
 endfacet
 facet normal  0.000000e+00 -1.000000e+00 -0.000000e+00
   outer loop
     vertex  4.301587e-01 -6.873016e-01 -1.587302e-02
     vertex -6.873016e-01 -6.873016e-01 -3.174603e-02
     vertex  4.301587e-01 -6.873016e-01 -3.174603e-02
   endloop
 endfacet
 facet normal  0.000000e+00  0.000000e+00 -1.000000e+00
   outer loop
     vertex -4.786410e-01  3.307833e-02 -3.174603e-02
     vertex -5.529994e-01 -2.944558e-02 -3.174603e-02
     vertex -5.170800e-01  3.314645e-03 -3.174603e-02
   endloop
 endfacet
 facet normal  0.000000e+00  0.000000e+00 -1.000000e+00
   outer loop
     vertex  4.301587e-01 -6.873016e-01 -3.174603e-02
     vertex -6.873016e-01 -6.873016e-01 -3.174603e-02
     vertex -6.873016e-01 -2.301587e-01 -3.174603e-02
   endloop
 endfacet
 facet normal  0.000000e+00  0.000000e+00 -1.000000e+00
   outer loop
     vertex -3.048852e-01  1.186240e-01 -3.174603e-02
     vertex -3.952161e-01  8.286465e-02 -3.174603e-02
     vertex -3.507712e-01  1.025644e-01 -3.174603e-02
   endloop
 endfacet
 facet normal  0.000000e+00  0.000000e+00 -1.000000e+00
   outer loop
     vertex -3.048852e-01  1.186240e-01 -3.174603e-02
     vertex -4.379317e-01  5.965244e-02 -3.174603e-02
     vertex -3.952161e-01  8.286465e-02 -3.174603e-02
   endloop
 endfacet
 facet normal  0.000000e+00  0.000000e+00 -1.000000e+00
   outer loop
     vertex  4.686238e-01 -5.469469e-01 -3.174603e-02
     vertex  4.467393e-01 -6.416013e-01 -3.174603e-02
     vertex  4.301587e-01 -6.873016e-01 -3.174603e-02
   endloop
 endfacet
 facet normal  0.000000e+00  0.000000e+00 -1.000000e+00
   outer loop
     vertex  4.686238e-01 -5.469469e-01 -3.174603e-02
     vertex  4.595888e-01 -5.947151e-01 -3.174603e-02
     vertex  4.467393e-01 -6.416013e-01 -3.174603e-02
   endloop
 endfacet
 facet normal  0.000000e+00  0.000000e+00 -1.000000e+00
   outer loop
     vertex  4.750412e-01 -4.500076e-01 -3.174603e-02
     vertex  4.737858e-01 -4.986066e-01 -3.174603e-02
     vertex  4.686238e-01 -5.469469e-01 -3.174603e-02
   endloop
 endfacet
 facet normal  0.000000e+00 -0.000000e+00 -1.000000e+00
   outer loop
     vertex  4.723820e-01 -4.014653e-01 -3.174603e-02
     vertex  4.750412e-01 -4.500076e-01 -3.174603e-02
     vertex  4.686238e-01 -5.469469e-01 -3.174603e-02
   endloop
 endfacet
 facet normal  0.000000e+00  0.000000e+00 -1.000000e+00
   outer loop
     vertex -6.447293e-02  1.415329e-01 -3.174603e-02
     vertex -1.615920e-01  1.440417e-01 -3.174603e-02
     vertex -1.129819e-01  1.447442e-01 -3.174603e-02
   endloop
 endfacet
 facet normal  0.000000e+00  0.000000e+00 -1.000000e+00
   outer loop
     vertex  4.554139e-01 -3.058071e-01 -3.174603e-02
     vertex  4.658254e-01 -3.532943e-01 -3.174603e-02
     vertex  4.723820e-01 -4.014653e-01 -3.174603e-02
   endloop
 endfacet
 facet normal  0.000000e+00  0.000000e+00 -1.000000e+00
   outer loop
     vertex  7.731683e-02  1.087505e-01 -3.174603e-02
     vertex -1.637967e-02  1.344286e-01 -3.174603e-02
     vertex  3.098598e-02  1.234775e-01 -3.174603e-02
   endloop
 endfacet
 facet normal  0.000000e+00  0.000000e+00 -1.000000e+00
   outer loop
     vertex  4.233209e-01 -2.141096e-01 -3.174603e-02
     vertex  4.412150e-01 -2.593117e-01 -3.174603e-02
     vertex  4.554139e-01 -3.058071e-01 -3.174603e-02
   endloop
 endfacet
 facet normal  0.000000e+00  0.000000e+00 -1.000000e+00
   outer loop
     vertex  3.769341e-01 -1.287476e-01 -3.174603e-02
     vertex  4.018475e-01 -1.704940e-01 -3.174603e-02
     vertex  4.233209e-01 -2.141096e-01 -3.174603e-02
   endloop
 endfacet
 facet normal  0.000000e+00  0.000000e+00 -1.000000e+00
   outer loop
     vertex  2.071411e-01  4.298828e-02 -3.174603e-02
     vertex  1.223124e-01  9.034324e-02 -3.174603e-02
     vertex  1.656809e-01  6.837500e-02 -3.174603e-02
   endloop
 endfacet
 facet normal  0.000000e+00  0.000000e+00 -1.000000e+00
   outer loop
     vertex  2.832750e-01 -1.736093e-02 -3.174603e-02
     vertex  3.487423e-01 -8.914137e-02 -3.174603e-02
     vertex  3.769341e-01 -1.287476e-01 -3.174603e-02
   endloop
 endfacet
 facet normal  0.000000e+00  0.000000e+00 -1.000000e+00
   outer loop
     vertex  2.832750e-01 -1.736093e-02 -3.174603e-02
     vertex  3.174550e-01 -5.193203e-02 -3.174603e-02
     vertex  3.487423e-01 -8.914137e-02 -3.174603e-02
   endloop
 endfacet
 facet normal  0.000000e+00  0.000000e+00 -1.000000e+00
   outer loop
     vertex  2.832750e-01 -1.736093e-02 -3.174603e-02
     vertex  2.071411e-01  4.298828e-02 -3.174603e-02
     vertex  2.464241e-01  1.434772e-02 -3.174603e-02
   endloop
 endfacet
 facet normal  0.000000e+00  0.000000e+00 -1.000000e+00
   outer loop
     vertex  2.832750e-01 -1.736093e-02 -3.174603e-02
     vertex  7.731683e-02  1.087505e-01 -3.174603e-02
     vertex  1.223124e-01  9.034324e-02 -3.174603e-02
   endloop
 endfacet
 facet normal  0.000000e+00  0.000000e+00 -1.000000e+00
   outer loop
     vertex  2.832750e-01 -1.736093e-02 -3.174603e-02
     vertex -6.447293e-02  1.415329e-01 -3.174603e-02
     vertex -1.637967e-02  1.344286e-01 -3.174603e-02
   endloop
 endfacet
 facet normal  0.000000e+00  0.000000e+00 -1.000000e+00
   outer loop
     vertex  2.832750e-01 -1.736093e-02 -3.174603e-02
     vertex -2.099879e-01  1.394301e-01 -3.174603e-02
     vertex -1.615920e-01  1.440417e-01 -3.174603e-02
   endloop
 endfacet
 facet normal  0.000000e+00  0.000000e+00 -1.000000e+00
   outer loop
     vertex  2.832750e-01 -1.736093e-02 -3.174603e-02
     vertex -2.578558e-01  1.309391e-01 -3.174603e-02
     vertex -2.099879e-01  1.394301e-01 -3.174603e-02
   endloop
 endfacet
 facet normal  0.000000e+00  0.000000e+00 -1.000000e+00
   outer loop
     vertex  2.832750e-01 -1.736093e-02 -3.174603e-02
     vertex -3.048852e-01  1.186240e-01 -3.174603e-02
     vertex -2.578558e-01  1.309391e-01 -3.174603e-02
   endloop
 endfacet
 facet normal  0.000000e+00  0.000000e+00 -1.000000e+00
   outer loop
     vertex  2.832750e-01 -1.736093e-02 -3.174603e-02
     vertex -4.786410e-01  3.307833e-02 -3.174603e-02
     vertex -4.379317e-01  5.965244e-02 -3.174603e-02
   endloop
 endfacet
 facet normal  0.000000e+00  0.000000e+00 -1.000000e+00
   outer loop
     vertex  2.832750e-01 -1.736093e-02 -3.174603e-02
     vertex -5.861661e-01 -6.498987e-02 -3.174603e-02
     vertex -5.529994e-01 -2.944558e-02 -3.174603e-02
   endloop
 endfacet
 facet normal  0.000000e+00  0.000000e+00 -1.000000e+00
   outer loop
     vertex  2.832750e-01 -1.736093e-02 -3.174603e-02
     vertex -6.163652e-01 -1.030877e-01 -3.174603e-02
     vertex -5.861661e-01 -6.498987e-02 -3.174603e-02
   endloop
 endfacet
 facet normal  0.000000e+00  0.000000e+00 -1.000000e+00
   outer loop
     vertex  2.832750e-01 -1.736093e-02 -3.174603e-02
     vertex -6.434008e-01 -1.434921e-01 -3.174603e-02
     vertex -6.163652e-01 -1.030877e-01 -3.174603e-02
   endloop
 endfacet
 facet normal  0.000000e+00  0.000000e+00 -1.000000e+00
   outer loop
     vertex  2.832750e-01 -1.736093e-02 -3.174603e-02
     vertex -6.670975e-01 -1.859408e-01 -3.174603e-02
     vertex -6.434008e-01 -1.434921e-01 -3.174603e-02
   endloop
 endfacet
 facet normal  0.000000e+00  0.000000e+00 -1.000000e+00
   outer loop
     vertex  2.832750e-01 -1.736093e-02 -3.174603e-02
     vertex -6.873016e-01 -2.301587e-01 -3.174603e-02
     vertex -6.670975e-01 -1.859408e-01 -3.174603e-02
   endloop
 endfacet
 facet normal -0.000000e+00  0.000000e+00 -1.000000e+00
   outer loop
     vertex  2.832750e-01 -1.736093e-02 -3.174603e-02
     vertex -5.529994e-01 -2.944558e-02 -3.174603e-02
     vertex -4.786410e-01  3.307833e-02 -3.174603e-02
   endloop
 endfacet
 facet normal  0.000000e+00  0.000000e+00 -1.000000e+00
   outer loop
     vertex  2.832750e-01 -1.736093e-02 -3.174603e-02
     vertex -4.379317e-01  5.965244e-02 -3.174603e-02
     vertex -3.048852e-01  1.186240e-01 -3.174603e-02
   endloop
 endfacet
 facet normal  0.000000e+00 -0.000000e+00 -1.000000e+00
   outer loop
     vertex  2.832750e-01 -1.736093e-02 -3.174603e-02
     vertex  4.301587e-01 -6.873016e-01 -3.174603e-02
     vertex -6.873016e-01 -2.301587e-01 -3.174603e-02
   endloop
 endfacet
 facet normal  0.000000e+00  0.000000e+00 -1.000000e+00
   outer loop
     vertex  2.832750e-01 -1.736093e-02 -3.174603e-02
     vertex  4.686238e-01 -5.469469e-01 -3.174603e-02
     vertex  4.301587e-01 -6.873016e-01 -3.174603e-02
   endloop
 endfacet
 facet normal  0.000000e+00  0.000000e+00 -1.000000e+00
   outer loop
     vertex  2.832750e-01 -1.736093e-02 -3.174603e-02
     vertex  4.233209e-01 -2.141096e-01 -3.174603e-02
     vertex  4.554139e-01 -3.058071e-01 -3.174603e-02
   endloop
 endfacet
 facet normal  0.000000e+00  0.000000e+00 -1.000000e+00
   outer loop
     vertex  2.832750e-01 -1.736093e-02 -3.174603e-02
     vertex  4.554139e-01 -3.058071e-01 -3.174603e-02
     vertex  4.723820e-01 -4.014653e-01 -3.174603e-02
   endloop
 endfacet
 facet normal  0.000000e+00  0.000000e+00 -1.000000e+00
   outer loop
     vertex  2.832750e-01 -1.736093e-02 -3.174603e-02
     vertex  4.723820e-01 -4.014653e-01 -3.174603e-02
     vertex  4.686238e-01 -5.469469e-01 -3.174603e-02
   endloop
 endfacet
 facet normal  0.000000e+00  0.000000e+00 -1.000000e+00
   outer loop
     vertex  2.832750e-01 -1.736093e-02 -3.174603e-02
     vertex -1.615920e-01  1.440417e-01 -3.174603e-02
     vertex -6.447293e-02  1.415329e-01 -3.174603e-02
   endloop
 endfacet
 facet normal  0.000000e+00  0.000000e+00 -1.000000e+00
   outer loop
     vertex  2.832750e-01 -1.736093e-02 -3.174603e-02
     vertex -1.637967e-02  1.344286e-01 -3.174603e-02
     vertex  7.731683e-02  1.087505e-01 -3.174603e-02
   endloop
 endfacet
 facet normal  0.000000e+00  0.000000e+00 -1.000000e+00
   outer loop
     vertex  2.832750e-01 -1.736093e-02 -3.174603e-02
     vertex  3.769341e-01 -1.287476e-01 -3.174603e-02
     vertex  4.233209e-01 -2.141096e-01 -3.174603e-02
   endloop
 endfacet
 facet normal  0.000000e+00  0.000000e+00 -1.000000e+00
   outer loop
     vertex  2.832750e-01 -1.736093e-02 -3.174603e-02
     vertex  1.223124e-01  9.034324e-02 -3.174603e-02
     vertex  2.071411e-01  4.298828e-02 -3.174603e-02
   endloop
 endfacet
endsolid
