solid 
 facet normal  0.000000e+00 -1.000000e+00  0.000000e+00
   outer loop
     vertex  6.650000e-01  0.000000e+00  0.000000e+00
     vertex  0.000000e+00  0.000000e+00  1.000000e+00
     vertex  0.000000e+00  0.000000e+00  0.000000e+00
   endloop
 endfacet
 facet normal  0.000000e+00 -1.000000e+00  0.000000e+00
   outer loop
     vertex  6.650000e-01  0.000000e+00  0.000000e+00
     vertex  6.650000e-01  0.000000e+00  1.000000e+00
     vertex  0.000000e+00  0.000000e+00  1.000000e+00
   endloop
 endfacet
 facet normal  5.339930e-01  8.454889e-01  0.000000e+00
   outer loop
     vertex  0.000000e+00  4.200000e-01  0.000000e+00
     vertex  6.650000e-01  0.000000e+00  1.000000e+00
     vertex  6.650000e-01  0.000000e+00  0.000000e+00
   endloop
 endfacet
 facet normal  5.339930e-01  8.454889e-01 -0.000000e+00
   outer loop
     vertex  0.000000e+00  4.200000e-01  0.000000e+00
     vertex  0.000000e+00  4.200000e-01  1.000000e+00
     vertex  6.650000e-01  0.000000e+00  1.000000e+00
   endloop
 endfacet
 facet normal -1.000000e+00  0.000000e+00  0.000000e+00
   outer loop
     vertex  0.000000e+00  4.200000e-01  0.000000e+00
     vertex  0.000000e+00  6.000000e-02  0.000000e+00
     vertex  0.000000e+00  6.000000e-02  1.000000e+00
   endloop
 endfacet
 facet normal -1.000000e+00  0.000000e+00  0.000000e+00
   outer loop
     vertex  0.000000e+00  4.200000e-01  0.000000e+00
     vertex  0.000000e+00  6.000000e-02  1.000000e+00
     vertex  0.000000e+00  4.200000e-01  1.000000e+00
   endloop
 endfacet
 facet normal -1.000000e+00  0.000000e+00  0.000000e+00
   outer loop
     vertex  0.000000e+00  6.000000e-02  0.000000e+00
     vertex  0.000000e+00  0.000000e+00  0.000000e+00
     vertex  0.000000e+00  0.000000e+00  1.000000e+00
   endloop
 endfacet
 facet normal -1.000000e+00  0.000000e+00  0.000000e+00
   outer loop
     vertex  0.000000e+00  6.000000e-02  0.000000e+00
     vertex  0.000000e+00  0.000000e+00  1.000000e+00
     vertex  0.000000e+00  6.000000e-02  1.000000e+00
   endloop
 endfacet
 facet normal  0.000000e+00  0.000000e+00 -1.000000e+00
   outer loop
     vertex  6.650000e-01  0.000000e+00  0.000000e+00
     vertex  0.000000e+00  6.000000e-02  0.000000e+00
     vertex  0.000000e+00  4.200000e-01  0.000000e+00
   endloop
 endfacet
 facet normal  0.000000e+00  0.000000e+00 -1.000000e+00
   outer loop
     vertex  6.650000e-01  0.000000e+00  0.000000e+00
     vertex  0.000000e+00  0.000000e+00  0.000000e+00
     vertex  0.000000e+00  6.000000e-02  0.000000e+00
   endloop
 endfacet
 facet normal  0.000000e+00  0.000000e+00  1.000000e+00
   outer loop
     vertex  6.650000e-01  0.000000e+00  1.000000e+00
     vertex  0.000000e+00  4.200000e-01  1.000000e+00
     vertex  0.000000e+00  6.000000e-02  1.000000e+00
   endloop
 endfacet
 facet normal  0.000000e+00  0.000000e+00  1.000000e+00
   outer loop
     vertex  6.650000e-01  0.000000e+00  1.000000e+00
     vertex  0.000000e+00  6.000000e-02  1.000000e+00
     vertex  0.000000e+00  0.000000e+00  1.000000e+00
   endloop
 endfacet
endsolid
