solid 
 facet normal  9.979454e-01  6.407022e-02  0.000000e+00
   outer loop
     vertex  2.380296e-01  3.069052e-02  0.000000e+00
     vertex  2.400000e-01  0.000000e+00  1.000000e+00
     vertex  2.400000e-01  0.000000e+00  0.000000e+00
   endloop
 endfacet
 facet normal  9.979454e-01  6.407022e-02 -0.000000e+00
   outer loop
     vertex  2.380296e-01  3.069052e-02  0.000000e+00
     vertex  2.380296e-01  3.069052e-02  1.000000e+00
     vertex  2.400000e-01  0.000000e+00  1.000000e+00
   endloop
 endfacet
 facet normal  9.815592e-01  1.911586e-01 -0.000000e+00
   outer loop
     vertex  2.321508e-01  6.087710e-02  0.000000e+00
     vertex  2.321508e-01  6.087710e-02  1.000000e+00
     vertex  2.380296e-01  3.069052e-02  1.000000e+00
   endloop
 endfacet
 facet normal  9.815592e-01  1.911586e-01  0.000000e+00
   outer loop
     vertex  2.321508e-01  6.087710e-02  0.000000e+00
     vertex  2.380296e-01  3.069052e-02  1.000000e+00
     vertex  2.380296e-01  3.069052e-02  0.000000e+00
   endloop
 endfacet
 facet normal  9.490557e-01  3.151082e-01 -0.000000e+00
   outer loop
     vertex  2.224600e-01  9.006408e-02  0.000000e+00
     vertex  2.224600e-01  9.006408e-02  1.000000e+00
     vertex  2.321508e-01  6.087710e-02  1.000000e+00
   endloop
 endfacet
 facet normal  9.490557e-01  3.151082e-01  0.000000e+00
   outer loop
     vertex  2.224600e-01  9.006408e-02  0.000000e+00
     vertex  2.321508e-01  6.087710e-02  1.000000e+00
     vertex  2.321508e-01  6.087710e-02  0.000000e+00
   endloop
 endfacet
 facet normal  9.009689e-01  4.338837e-01 -0.000000e+00
   outer loop
     vertex  2.091165e-01  1.177722e-01  0.000000e+00
     vertex  2.091165e-01  1.177722e-01  1.000000e+00
     vertex  2.224600e-01  9.006408e-02  1.000000e+00
   endloop
 endfacet
 facet normal  9.009689e-01  4.338837e-01  0.000000e+00
   outer loop
     vertex  2.091165e-01  1.177722e-01  0.000000e+00
     vertex  2.224600e-01  9.006408e-02  1.000000e+00
     vertex  2.224600e-01  9.006408e-02  0.000000e+00
   endloop
 endfacet
 facet normal  8.380881e-01  5.455349e-01 -0.000000e+00
   outer loop
     vertex  1.923393e-01  1.435465e-01  0.000000e+00
     vertex  1.923393e-01  1.435465e-01  1.000000e+00
     vertex  2.091165e-01  1.177722e-01  1.000000e+00
   endloop
 endfacet
 facet normal  8.380881e-01  5.455349e-01  0.000000e+00
   outer loop
     vertex  1.923393e-01  1.435465e-01  0.000000e+00
     vertex  2.091165e-01  1.177722e-01  1.000000e+00
     vertex  2.091165e-01  1.177722e-01  0.000000e+00
   endloop
 endfacet
 facet normal  7.614460e-01  6.482284e-01 -0.000000e+00
   outer loop
     vertex  1.724038e-01  1.669638e-01  0.000000e+00
     vertex  1.724038e-01  1.669638e-01  1.000000e+00
     vertex  1.923393e-01  1.435465e-01  1.000000e+00
   endloop
 endfacet
 facet normal  7.614460e-01  6.482284e-01  0.000000e+00
   outer loop
     vertex  1.724038e-01  1.669638e-01  0.000000e+00
     vertex  1.923393e-01  1.435465e-01  1.000000e+00
     vertex  1.923393e-01  1.435465e-01  0.000000e+00
   endloop
 endfacet
 facet normal  6.723009e-01  7.402780e-01 -0.000000e+00
   outer loop
     vertex  1.496376e-01  1.876396e-01  0.000000e+00
     vertex  1.496376e-01  1.876396e-01  1.000000e+00
     vertex  1.724038e-01  1.669638e-01  1.000000e+00
   endloop
 endfacet
 facet normal  6.723009e-01  7.402780e-01  0.000000e+00
   outer loop
     vertex  1.496376e-01  1.876396e-01  0.000000e+00
     vertex  1.724038e-01  1.669638e-01  1.000000e+00
     vertex  1.724038e-01  1.669638e-01  0.000000e+00
   endloop
 endfacet
 facet normal  5.721167e-01  8.201723e-01 -0.000000e+00
   outer loop
     vertex  1.244142e-01  2.052343e-01  0.000000e+00
     vertex  1.244142e-01  2.052343e-01  1.000000e+00
     vertex  1.496376e-01  1.876396e-01  1.000000e+00
   endloop
 endfacet
 facet normal  5.721167e-01  8.201723e-01  0.000000e+00
   outer loop
     vertex  1.244142e-01  2.052343e-01  0.000000e+00
     vertex  1.496376e-01  1.876396e-01  1.000000e+00
     vertex  1.496376e-01  1.876396e-01  0.000000e+00
   endloop
 endfacet
 facet normal  4.625383e-01  8.865993e-01 -0.000000e+00
   outer loop
     vertex  9.714800e-02  2.194590e-01  0.000000e+00
     vertex  9.714800e-02  2.194590e-01  1.000000e+00
     vertex  1.244142e-01  2.052343e-01  1.000000e+00
   endloop
 endfacet
 facet normal  4.625383e-01  8.865993e-01  0.000000e+00
   outer loop
     vertex  9.714800e-02  2.194590e-01  0.000000e+00
     vertex  1.244142e-01  2.052343e-01  1.000000e+00
     vertex  1.244142e-01  2.052343e-01  0.000000e+00
   endloop
 endfacet
 facet normal  3.453651e-01  9.384684e-01 -0.000000e+00
   outer loop
     vertex  6.828662e-02  2.300803e-01  0.000000e+00
     vertex  6.828662e-02  2.300803e-01  1.000000e+00
     vertex  9.714800e-02  2.194590e-01  1.000000e+00
   endloop
 endfacet
 facet normal  3.453651e-01  9.384684e-01  0.000000e+00
   outer loop
     vertex  6.828662e-02  2.300803e-01  0.000000e+00
     vertex  9.714800e-02  2.194590e-01  1.000000e+00
     vertex  9.714800e-02  2.194590e-01  0.000000e+00
   endloop
 endfacet
 facet normal  2.225209e-01  9.749279e-01 -0.000000e+00
   outer loop
     vertex  3.830397e-02  2.369236e-01  0.000000e+00
     vertex  3.830397e-02  2.369236e-01  1.000000e+00
     vertex  6.828662e-02  2.300803e-01  1.000000e+00
   endloop
 endfacet
 facet normal  2.225209e-01  9.749279e-01  0.000000e+00
   outer loop
     vertex  3.830397e-02  2.369236e-01  0.000000e+00
     vertex  6.828662e-02  2.300803e-01  1.000000e+00
     vertex  6.828662e-02  2.300803e-01  0.000000e+00
   endloop
 endfacet
 facet normal  9.602303e-02  9.953791e-01 -0.000000e+00
   outer loop
     vertex  7.692379e-03  2.398767e-01  0.000000e+00
     vertex  7.692379e-03  2.398767e-01  1.000000e+00
     vertex  3.830397e-02  2.369236e-01  1.000000e+00
   endloop
 endfacet
 facet normal  9.602303e-02  9.953791e-01  0.000000e+00
   outer loop
     vertex  7.692379e-03  2.398767e-01  0.000000e+00
     vertex  3.830397e-02  2.369236e-01  1.000000e+00
     vertex  3.830397e-02  2.369236e-01  0.000000e+00
   endloop
 endfacet
 facet normal -3.205158e-02  9.994862e-01  0.000000e+00
   outer loop
     vertex -2.304553e-02  2.388910e-01  0.000000e+00
     vertex -2.304553e-02  2.388910e-01  1.000000e+00
     vertex  7.692379e-03  2.398767e-01  1.000000e+00
   endloop
 endfacet
 facet normal -3.205158e-02  9.994862e-01  0.000000e+00
   outer loop
     vertex -2.304553e-02  2.388910e-01  0.000000e+00
     vertex  7.692379e-03  2.398767e-01  1.000000e+00
     vertex  7.692379e-03  2.398767e-01  0.000000e+00
   endloop
 endfacet
 facet normal -1.595999e-01  9.871818e-01  0.000000e+00
   outer loop
     vertex -5.340502e-02  2.339827e-01  0.000000e+00
     vertex -5.340502e-02  2.339827e-01  1.000000e+00
     vertex -2.304553e-02  2.388910e-01  1.000000e+00
   endloop
 endfacet
 facet normal -1.595999e-01  9.871818e-01  0.000000e+00
   outer loop
     vertex -5.340502e-02  2.339827e-01  0.000000e+00
     vertex -2.304553e-02  2.388910e-01  1.000000e+00
     vertex -2.304553e-02  2.388910e-01  0.000000e+00
   endloop
 endfacet
 facet normal -2.845276e-01  9.586679e-01  0.000000e+00
   outer loop
     vertex -8.288761e-02  2.252324e-01  0.000000e+00
     vertex -8.288761e-02  2.252324e-01  1.000000e+00
     vertex -5.340502e-02  2.339827e-01  1.000000e+00
   endloop
 endfacet
 facet normal -2.845276e-01  9.586679e-01  0.000000e+00
   outer loop
     vertex -8.288761e-02  2.252324e-01  0.000000e+00
     vertex -5.340502e-02  2.339827e-01  1.000000e+00
     vertex -5.340502e-02  2.339827e-01  0.000000e+00
   endloop
 endfacet
 facet normal -4.047833e-01  9.144126e-01  0.000000e+00
   outer loop
     vertex -1.110092e-01  2.127838e-01  0.000000e+00
     vertex -1.110092e-01  2.127838e-01  1.000000e+00
     vertex -8.288761e-02  2.252324e-01  1.000000e+00
   endloop
 endfacet
 facet normal -4.047833e-01  9.144126e-01  0.000000e+00
   outer loop
     vertex -1.110092e-01  2.127838e-01  0.000000e+00
     vertex -8.288761e-02  2.252324e-01  1.000000e+00
     vertex -8.288761e-02  2.252324e-01  0.000000e+00
   endloop
 endfacet
 facet normal -5.183926e-01  8.551428e-01  0.000000e+00
   outer loop
     vertex -1.373080e-01  1.968413e-01  0.000000e+00
     vertex -1.373080e-01  1.968413e-01  1.000000e+00
     vertex -1.110092e-01  2.127838e-01  1.000000e+00
   endloop
 endfacet
 facet normal -5.183926e-01  8.551428e-01  0.000000e+00
   outer loop
     vertex -1.373080e-01  1.968413e-01  0.000000e+00
     vertex -1.110092e-01  2.127838e-01  1.000000e+00
     vertex -1.110092e-01  2.127838e-01  0.000000e+00
   endloop
 endfacet
 facet normal -6.234898e-01  7.818315e-01  0.000000e+00
   outer loop
     vertex -1.613522e-01  1.776667e-01  0.000000e+00
     vertex -1.613522e-01  1.776667e-01  1.000000e+00
     vertex -1.373080e-01  1.968413e-01  1.000000e+00
   endloop
 endfacet
 facet normal -6.234898e-01  7.818315e-01  0.000000e+00
   outer loop
     vertex -1.613522e-01  1.776667e-01  0.000000e+00
     vertex -1.373080e-01  1.968413e-01  1.000000e+00
     vertex -1.373080e-01  1.968413e-01  0.000000e+00
   endloop
 endfacet
 facet normal -7.183494e-01  6.956826e-01  0.000000e+00
   outer loop
     vertex -1.827470e-01  1.555748e-01  0.000000e+00
     vertex -1.827470e-01  1.555748e-01  1.000000e+00
     vertex -1.613522e-01  1.776667e-01  1.000000e+00
   endloop
 endfacet
 facet normal -7.183494e-01  6.956826e-01  0.000000e+00
   outer loop
     vertex -1.827470e-01  1.555748e-01  0.000000e+00
     vertex -1.613522e-01  1.776667e-01  1.000000e+00
     vertex -1.613522e-01  1.776667e-01  0.000000e+00
   endloop
 endfacet
 facet normal -8.014136e-01  5.981105e-01  0.000000e+00
   outer loop
     vertex -2.011411e-01  1.309284e-01  0.000000e+00
     vertex -2.011411e-01  1.309284e-01  1.000000e+00
     vertex -1.827470e-01  1.555748e-01  1.000000e+00
   endloop
 endfacet
 facet normal -8.014136e-01  5.981105e-01  0.000000e+00
   outer loop
     vertex -2.011411e-01  1.309284e-01  0.000000e+00
     vertex -1.827470e-01  1.555748e-01  1.000000e+00
     vertex -1.827470e-01  1.555748e-01  0.000000e+00
   endloop
 endfacet
 facet normal -8.713187e-01  4.907176e-01  0.000000e+00
   outer loop
     vertex -2.162325e-01  1.041321e-01  0.000000e+00
     vertex -2.162325e-01  1.041321e-01  1.000000e+00
     vertex -2.011411e-01  1.309284e-01  1.000000e+00
   endloop
 endfacet
 facet normal -8.713187e-01  4.907176e-01  0.000000e+00
   outer loop
     vertex -2.162325e-01  1.041321e-01  0.000000e+00
     vertex -2.011411e-01  1.309284e-01  1.000000e+00
     vertex -2.011411e-01  1.309284e-01  0.000000e+00
   endloop
 endfacet
 facet normal -9.269168e-01  3.752670e-01  0.000000e+00
   outer loop
     vertex -2.277734e-01  7.562597e-02  0.000000e+00
     vertex -2.277734e-01  7.562597e-02  1.000000e+00
     vertex -2.162325e-01  1.041321e-01  1.000000e+00
   endloop
 endfacet
 facet normal -9.269168e-01  3.752670e-01  0.000000e+00
   outer loop
     vertex -2.277734e-01  7.562597e-02  0.000000e+00
     vertex -2.162325e-01  1.041321e-01  1.000000e+00
     vertex -2.162325e-01  1.041321e-01  0.000000e+00
   endloop
 endfacet
 facet normal -9.672949e-01  2.536546e-01  0.000000e+00
   outer loop
     vertex -2.355742e-01  4.587807e-02  0.000000e+00
     vertex -2.355742e-01  4.587807e-02  1.000000e+00
     vertex -2.277734e-01  7.562597e-02  1.000000e+00
   endloop
 endfacet
 facet normal -9.672949e-01  2.536546e-01  0.000000e+00
   outer loop
     vertex -2.355742e-01  4.587807e-02  0.000000e+00
     vertex -2.277734e-01  7.562597e-02  1.000000e+00
     vertex -2.277734e-01  7.562597e-02  0.000000e+00
   endloop
 endfacet
 facet normal -9.917900e-01  1.278772e-01  0.000000e+00
   outer loop
     vertex -2.395069e-01  1.537685e-02  0.000000e+00
     vertex -2.395069e-01  1.537685e-02  1.000000e+00
     vertex -2.355742e-01  4.587807e-02  1.000000e+00
   endloop
 endfacet
 facet normal -9.917900e-01  1.278772e-01  0.000000e+00
   outer loop
     vertex -2.395069e-01  1.537685e-02  0.000000e+00
     vertex -2.355742e-01  4.587807e-02  1.000000e+00
     vertex -2.355742e-01  4.587807e-02  0.000000e+00
   endloop
 endfacet
 facet normal -1.000000e+00  1.805023e-15  0.000000e+00
   outer loop
     vertex -2.395069e-01 -1.537685e-02  0.000000e+00
     vertex -2.395069e-01  1.537685e-02  1.000000e+00
     vertex -2.395069e-01  1.537685e-02  0.000000e+00
   endloop
 endfacet
 facet normal -1.000000e+00  1.805023e-15  0.000000e+00
   outer loop
     vertex -2.395069e-01 -1.537685e-02  0.000000e+00
     vertex -2.395069e-01 -1.537685e-02  1.000000e+00
     vertex -2.395069e-01  1.537685e-02  1.000000e+00
   endloop
 endfacet
 facet normal -9.917900e-01 -1.278772e-01  0.000000e+00
   outer loop
     vertex -2.355742e-01 -4.587807e-02  0.000000e+00
     vertex -2.395069e-01 -1.537685e-02  1.000000e+00
     vertex -2.395069e-01 -1.537685e-02  0.000000e+00
   endloop
 endfacet
 facet normal -9.917900e-01 -1.278772e-01  0.000000e+00
   outer loop
     vertex -2.355742e-01 -4.587807e-02  0.000000e+00
     vertex -2.355742e-01 -4.587807e-02  1.000000e+00
     vertex -2.395069e-01 -1.537685e-02  1.000000e+00
   endloop
 endfacet
 facet normal -9.672949e-01 -2.536546e-01  0.000000e+00
   outer loop
     vertex -2.277734e-01 -7.562597e-02  0.000000e+00
     vertex -2.355742e-01 -4.587807e-02  1.000000e+00
     vertex -2.355742e-01 -4.587807e-02  0.000000e+00
   endloop
 endfacet
 facet normal -9.672949e-01 -2.536546e-01  0.000000e+00
   outer loop
     vertex -2.277734e-01 -7.562597e-02  0.000000e+00
     vertex -2.277734e-01 -7.562597e-02  1.000000e+00
     vertex -2.355742e-01 -4.587807e-02  1.000000e+00
   endloop
 endfacet
 facet normal -9.269168e-01 -3.752670e-01  0.000000e+00
   outer loop
     vertex -2.277734e-01 -7.562597e-02  0.000000e+00
     vertex -2.162325e-01 -1.041321e-01  1.000000e+00
     vertex -2.277734e-01 -7.562597e-02  1.000000e+00
   endloop
 endfacet
 facet normal -9.269168e-01 -3.752670e-01  0.000000e+00
   outer loop
     vertex -2.162325e-01 -1.041321e-01  0.000000e+00
     vertex -2.162325e-01 -1.041321e-01  1.000000e+00
     vertex -2.277734e-01 -7.562597e-02  0.000000e+00
   endloop
 endfacet
 facet normal -8.713187e-01 -4.907176e-01  0.000000e+00
   outer loop
     vertex -2.011411e-01 -1.309284e-01  0.000000e+00
     vertex -2.162325e-01 -1.041321e-01  1.000000e+00
     vertex -2.162325e-01 -1.041321e-01  0.000000e+00
   endloop
 endfacet
 facet normal -8.713187e-01 -4.907176e-01  0.000000e+00
   outer loop
     vertex -2.011411e-01 -1.309284e-01  0.000000e+00
     vertex -2.011411e-01 -1.309284e-01  1.000000e+00
     vertex -2.162325e-01 -1.041321e-01  1.000000e+00
   endloop
 endfacet
 facet normal -8.014136e-01 -5.981105e-01  0.000000e+00
   outer loop
     vertex -1.827470e-01 -1.555748e-01  0.000000e+00
     vertex -2.011411e-01 -1.309284e-01  1.000000e+00
     vertex -2.011411e-01 -1.309284e-01  0.000000e+00
   endloop
 endfacet
 facet normal -8.014136e-01 -5.981105e-01  0.000000e+00
   outer loop
     vertex -1.827470e-01 -1.555748e-01  0.000000e+00
     vertex -1.827470e-01 -1.555748e-01  1.000000e+00
     vertex -2.011411e-01 -1.309284e-01  1.000000e+00
   endloop
 endfacet
 facet normal -7.183494e-01 -6.956826e-01  0.000000e+00
   outer loop
     vertex -1.613522e-01 -1.776667e-01  0.000000e+00
     vertex -1.827470e-01 -1.555748e-01  1.000000e+00
     vertex -1.827470e-01 -1.555748e-01  0.000000e+00
   endloop
 endfacet
 facet normal -7.183494e-01 -6.956826e-01  0.000000e+00
   outer loop
     vertex -1.613522e-01 -1.776667e-01  0.000000e+00
     vertex -1.613522e-01 -1.776667e-01  1.000000e+00
     vertex -1.827470e-01 -1.555748e-01  1.000000e+00
   endloop
 endfacet
 facet normal -6.234898e-01 -7.818315e-01  0.000000e+00
   outer loop
     vertex -1.373080e-01 -1.968413e-01  0.000000e+00
     vertex -1.613522e-01 -1.776667e-01  1.000000e+00
     vertex -1.613522e-01 -1.776667e-01  0.000000e+00
   endloop
 endfacet
 facet normal -6.234898e-01 -7.818315e-01  0.000000e+00
   outer loop
     vertex -1.373080e-01 -1.968413e-01  0.000000e+00
     vertex -1.373080e-01 -1.968413e-01  1.000000e+00
     vertex -1.613522e-01 -1.776667e-01  1.000000e+00
   endloop
 endfacet
 facet normal -5.183926e-01 -8.551428e-01  0.000000e+00
   outer loop
     vertex -1.373080e-01 -1.968413e-01  0.000000e+00
     vertex -1.110092e-01 -2.127838e-01  1.000000e+00
     vertex -1.373080e-01 -1.968413e-01  1.000000e+00
   endloop
 endfacet
 facet normal -5.183926e-01 -8.551428e-01  0.000000e+00
   outer loop
     vertex -1.110092e-01 -2.127838e-01  0.000000e+00
     vertex -1.110092e-01 -2.127838e-01  1.000000e+00
     vertex -1.373080e-01 -1.968413e-01  0.000000e+00
   endloop
 endfacet
 facet normal -4.047833e-01 -9.144126e-01  0.000000e+00
   outer loop
     vertex -8.288761e-02 -2.252324e-01  0.000000e+00
     vertex -8.288761e-02 -2.252324e-01  1.000000e+00
     vertex -1.110092e-01 -2.127838e-01  1.000000e+00
   endloop
 endfacet
 facet normal -2.845276e-01 -9.586679e-01  0.000000e+00
   outer loop
     vertex -8.288761e-02 -2.252324e-01  0.000000e+00
     vertex -5.340502e-02 -2.339827e-01  1.000000e+00
     vertex -8.288761e-02 -2.252324e-01  1.000000e+00
   endloop
 endfacet
 facet normal -4.047833e-01 -9.144126e-01  0.000000e+00
   outer loop
     vertex -8.288761e-02 -2.252324e-01  0.000000e+00
     vertex -1.110092e-01 -2.127838e-01  1.000000e+00
     vertex -1.110092e-01 -2.127838e-01  0.000000e+00
   endloop
 endfacet
 facet normal -2.845276e-01 -9.586679e-01  0.000000e+00
   outer loop
     vertex -5.340502e-02 -2.339827e-01  0.000000e+00
     vertex -5.340502e-02 -2.339827e-01  1.000000e+00
     vertex -8.288761e-02 -2.252324e-01  0.000000e+00
   endloop
 endfacet
 facet normal -1.595999e-01 -9.871818e-01  0.000000e+00
   outer loop
     vertex -2.304553e-02 -2.388910e-01  0.000000e+00
     vertex -2.304553e-02 -2.388910e-01  1.000000e+00
     vertex -5.340502e-02 -2.339827e-01  1.000000e+00
   endloop
 endfacet
 facet normal -1.595999e-01 -9.871818e-01  0.000000e+00
   outer loop
     vertex -2.304553e-02 -2.388910e-01  0.000000e+00
     vertex -5.340502e-02 -2.339827e-01  1.000000e+00
     vertex -5.340502e-02 -2.339827e-01  0.000000e+00
   endloop
 endfacet
 facet normal -3.205158e-02 -9.994862e-01  0.000000e+00
   outer loop
     vertex  7.692379e-03 -2.398767e-01  0.000000e+00
     vertex  7.692379e-03 -2.398767e-01  1.000000e+00
     vertex -2.304553e-02 -2.388910e-01  1.000000e+00
   endloop
 endfacet
 facet normal -3.205158e-02 -9.994862e-01  0.000000e+00
   outer loop
     vertex  7.692379e-03 -2.398767e-01  0.000000e+00
     vertex -2.304553e-02 -2.388910e-01  1.000000e+00
     vertex -2.304553e-02 -2.388910e-01  0.000000e+00
   endloop
 endfacet
 facet normal  9.602303e-02 -9.953791e-01  0.000000e+00
   outer loop
     vertex  3.830397e-02 -2.369236e-01  0.000000e+00
     vertex  3.830397e-02 -2.369236e-01  1.000000e+00
     vertex  7.692379e-03 -2.398767e-01  1.000000e+00
   endloop
 endfacet
 facet normal  9.602303e-02 -9.953791e-01  0.000000e+00
   outer loop
     vertex  3.830397e-02 -2.369236e-01  0.000000e+00
     vertex  7.692379e-03 -2.398767e-01  1.000000e+00
     vertex  7.692379e-03 -2.398767e-01  0.000000e+00
   endloop
 endfacet
 facet normal  2.225209e-01 -9.749279e-01  0.000000e+00
   outer loop
     vertex  6.828662e-02 -2.300803e-01  0.000000e+00
     vertex  6.828662e-02 -2.300803e-01  1.000000e+00
     vertex  3.830397e-02 -2.369236e-01  1.000000e+00
   endloop
 endfacet
 facet normal  3.453651e-01 -9.384684e-01  0.000000e+00
   outer loop
     vertex  6.828662e-02 -2.300803e-01  0.000000e+00
     vertex  9.714800e-02 -2.194590e-01  1.000000e+00
     vertex  6.828662e-02 -2.300803e-01  1.000000e+00
   endloop
 endfacet
 facet normal  2.225209e-01 -9.749279e-01  0.000000e+00
   outer loop
     vertex  6.828662e-02 -2.300803e-01  0.000000e+00
     vertex  3.830397e-02 -2.369236e-01  1.000000e+00
     vertex  3.830397e-02 -2.369236e-01  0.000000e+00
   endloop
 endfacet
 facet normal  3.453651e-01 -9.384684e-01  0.000000e+00
   outer loop
     vertex  9.714800e-02 -2.194590e-01  0.000000e+00
     vertex  9.714800e-02 -2.194590e-01  1.000000e+00
     vertex  6.828662e-02 -2.300803e-01  0.000000e+00
   endloop
 endfacet
 facet normal  4.625383e-01 -8.865993e-01  0.000000e+00
   outer loop
     vertex  1.244142e-01 -2.052343e-01  0.000000e+00
     vertex  1.244142e-01 -2.052343e-01  1.000000e+00
     vertex  9.714800e-02 -2.194590e-01  1.000000e+00
   endloop
 endfacet
 facet normal  4.625383e-01 -8.865993e-01  0.000000e+00
   outer loop
     vertex  1.244142e-01 -2.052343e-01  0.000000e+00
     vertex  9.714800e-02 -2.194590e-01  1.000000e+00
     vertex  9.714800e-02 -2.194590e-01  0.000000e+00
   endloop
 endfacet
 facet normal  5.721167e-01 -8.201723e-01  0.000000e+00
   outer loop
     vertex  1.496376e-01 -1.876396e-01  0.000000e+00
     vertex  1.496376e-01 -1.876396e-01  1.000000e+00
     vertex  1.244142e-01 -2.052343e-01  1.000000e+00
   endloop
 endfacet
 facet normal  5.721167e-01 -8.201723e-01  0.000000e+00
   outer loop
     vertex  1.496376e-01 -1.876396e-01  0.000000e+00
     vertex  1.244142e-01 -2.052343e-01  1.000000e+00
     vertex  1.244142e-01 -2.052343e-01  0.000000e+00
   endloop
 endfacet
 facet normal  6.723009e-01 -7.402780e-01  0.000000e+00
   outer loop
     vertex  1.724038e-01 -1.669638e-01  0.000000e+00
     vertex  1.724038e-01 -1.669638e-01  1.000000e+00
     vertex  1.496376e-01 -1.876396e-01  1.000000e+00
   endloop
 endfacet
 facet normal  6.723009e-01 -7.402780e-01  0.000000e+00
   outer loop
     vertex  1.724038e-01 -1.669638e-01  0.000000e+00
     vertex  1.496376e-01 -1.876396e-01  1.000000e+00
     vertex  1.496376e-01 -1.876396e-01  0.000000e+00
   endloop
 endfacet
 facet normal  7.614460e-01 -6.482284e-01  0.000000e+00
   outer loop
     vertex  1.923393e-01 -1.435465e-01  0.000000e+00
     vertex  1.923393e-01 -1.435465e-01  1.000000e+00
     vertex  1.724038e-01 -1.669638e-01  1.000000e+00
   endloop
 endfacet
 facet normal  7.614460e-01 -6.482284e-01  0.000000e+00
   outer loop
     vertex  1.923393e-01 -1.435465e-01  0.000000e+00
     vertex  1.724038e-01 -1.669638e-01  1.000000e+00
     vertex  1.724038e-01 -1.669638e-01  0.000000e+00
   endloop
 endfacet
 facet normal  8.380881e-01 -5.455349e-01  0.000000e+00
   outer loop
     vertex  2.091165e-01 -1.177722e-01  0.000000e+00
     vertex  2.091165e-01 -1.177722e-01  1.000000e+00
     vertex  1.923393e-01 -1.435465e-01  1.000000e+00
   endloop
 endfacet
 facet normal  8.380881e-01 -5.455349e-01  0.000000e+00
   outer loop
     vertex  2.091165e-01 -1.177722e-01  0.000000e+00
     vertex  1.923393e-01 -1.435465e-01  1.000000e+00
     vertex  1.923393e-01 -1.435465e-01  0.000000e+00
   endloop
 endfacet
 facet normal  9.009689e-01 -4.338837e-01  0.000000e+00
   outer loop
     vertex  2.224600e-01 -9.006408e-02  0.000000e+00
     vertex  2.224600e-01 -9.006408e-02  1.000000e+00
     vertex  2.091165e-01 -1.177722e-01  1.000000e+00
   endloop
 endfacet
 facet normal  9.009689e-01 -4.338837e-01  0.000000e+00
   outer loop
     vertex  2.224600e-01 -9.006408e-02  0.000000e+00
     vertex  2.091165e-01 -1.177722e-01  1.000000e+00
     vertex  2.091165e-01 -1.177722e-01  0.000000e+00
   endloop
 endfacet
 facet normal  9.490557e-01 -3.151082e-01  0.000000e+00
   outer loop
     vertex  2.321508e-01 -6.087710e-02  0.000000e+00
     vertex  2.321508e-01 -6.087710e-02  1.000000e+00
     vertex  2.224600e-01 -9.006408e-02  1.000000e+00
   endloop
 endfacet
 facet normal  9.490557e-01 -3.151082e-01  0.000000e+00
   outer loop
     vertex  2.321508e-01 -6.087710e-02  0.000000e+00
     vertex  2.224600e-01 -9.006408e-02  1.000000e+00
     vertex  2.224600e-01 -9.006408e-02  0.000000e+00
   endloop
 endfacet
 facet normal  9.815592e-01 -1.911586e-01  0.000000e+00
   outer loop
     vertex  2.380296e-01 -3.069052e-02  0.000000e+00
     vertex  2.380296e-01 -3.069052e-02  1.000000e+00
     vertex  2.321508e-01 -6.087710e-02  1.000000e+00
   endloop
 endfacet
 facet normal  9.815592e-01 -1.911586e-01  0.000000e+00
   outer loop
     vertex  2.380296e-01 -3.069052e-02  0.000000e+00
     vertex  2.321508e-01 -6.087710e-02  1.000000e+00
     vertex  2.321508e-01 -6.087710e-02  0.000000e+00
   endloop
 endfacet
 facet normal  9.979454e-01 -6.407022e-02  0.000000e+00
   outer loop
     vertex  2.400000e-01  0.000000e+00  0.000000e+00
     vertex  2.400000e-01  0.000000e+00  1.000000e+00
     vertex  2.380296e-01 -3.069052e-02  1.000000e+00
   endloop
 endfacet
 facet normal  9.979454e-01 -6.407022e-02  0.000000e+00
   outer loop
     vertex  2.400000e-01  0.000000e+00  0.000000e+00
     vertex  2.380296e-01 -3.069052e-02  1.000000e+00
     vertex  2.380296e-01 -3.069052e-02  0.000000e+00
   endloop
 endfacet
 facet normal -9.975641e-01 -6.975647e-02  0.000000e+00
   outer loop
     vertex  2.030050e-01  2.853049e-02  0.000000e+00
     vertex  2.050000e-01  0.000000e+00  0.000000e+00
     vertex  2.050000e-01  0.000000e+00  1.000000e+00
   endloop
 endfacet
 facet normal -9.975641e-01 -6.975647e-02  0.000000e+00
   outer loop
     vertex  2.030050e-01  2.853049e-02  0.000000e+00
     vertex  2.050000e-01  0.000000e+00  1.000000e+00
     vertex  2.030050e-01  2.853049e-02  1.000000e+00
   endloop
 endfacet
 facet normal -9.781476e-01 -2.079117e-01  0.000000e+00
   outer loop
     vertex  1.970586e-01  5.650566e-02  0.000000e+00
     vertex  2.030050e-01  2.853049e-02  1.000000e+00
     vertex  1.970586e-01  5.650566e-02  1.000000e+00
   endloop
 endfacet
 facet normal -9.781476e-01 -2.079117e-01  0.000000e+00
   outer loop
     vertex  1.970586e-01  5.650566e-02  0.000000e+00
     vertex  2.030050e-01  2.853049e-02  0.000000e+00
     vertex  2.030050e-01  2.853049e-02  1.000000e+00
   endloop
 endfacet
 facet normal -9.396926e-01 -3.420201e-01  0.000000e+00
   outer loop
     vertex  1.872768e-01  8.338101e-02  0.000000e+00
     vertex  1.970586e-01  5.650566e-02  1.000000e+00
     vertex  1.872768e-01  8.338101e-02  1.000000e+00
   endloop
 endfacet
 facet normal -9.396926e-01 -3.420201e-01  0.000000e+00
   outer loop
     vertex  1.872768e-01  8.338101e-02  0.000000e+00
     vertex  1.970586e-01  5.650566e-02  0.000000e+00
     vertex  1.970586e-01  5.650566e-02  1.000000e+00
   endloop
 endfacet
 facet normal -8.829476e-01 -4.694716e-01  0.000000e+00
   outer loop
     vertex  1.738499e-01  1.086334e-01  0.000000e+00
     vertex  1.872768e-01  8.338101e-02  1.000000e+00
     vertex  1.738499e-01  1.086334e-01  1.000000e+00
   endloop
 endfacet
 facet normal -8.829476e-01 -4.694716e-01  0.000000e+00
   outer loop
     vertex  1.738499e-01  1.086334e-01  0.000000e+00
     vertex  1.872768e-01  8.338101e-02  0.000000e+00
     vertex  1.872768e-01  8.338101e-02  1.000000e+00
   endloop
 endfacet
 facet normal -8.090170e-01 -5.877853e-01  0.000000e+00
   outer loop
     vertex  1.570391e-01  1.317715e-01  0.000000e+00
     vertex  1.738499e-01  1.086334e-01  1.000000e+00
     vertex  1.570391e-01  1.317715e-01  1.000000e+00
   endloop
 endfacet
 facet normal -8.090170e-01 -5.877853e-01  0.000000e+00
   outer loop
     vertex  1.570391e-01  1.317715e-01  0.000000e+00
     vertex  1.738499e-01  1.086334e-01  0.000000e+00
     vertex  1.738499e-01  1.086334e-01  1.000000e+00
   endloop
 endfacet
 facet normal -7.193398e-01 -6.946584e-01  0.000000e+00
   outer loop
     vertex  1.371718e-01  1.523447e-01  0.000000e+00
     vertex  1.570391e-01  1.317715e-01  1.000000e+00
     vertex  1.371718e-01  1.523447e-01  1.000000e+00
   endloop
 endfacet
 facet normal -7.193398e-01 -6.946584e-01  0.000000e+00
   outer loop
     vertex  1.371718e-01  1.523447e-01  0.000000e+00
     vertex  1.570391e-01  1.317715e-01  0.000000e+00
     vertex  1.570391e-01  1.317715e-01  1.000000e+00
   endloop
 endfacet
 facet normal -6.156615e-01 -7.880108e-01  0.000000e+00
   outer loop
     vertex  1.146345e-01  1.699527e-01  0.000000e+00
     vertex  1.371718e-01  1.523447e-01  1.000000e+00
     vertex  1.146345e-01  1.699527e-01  1.000000e+00
   endloop
 endfacet
 facet normal -6.156615e-01 -7.880108e-01  0.000000e+00
   outer loop
     vertex  1.146345e-01  1.699527e-01  0.000000e+00
     vertex  1.371718e-01  1.523447e-01  0.000000e+00
     vertex  1.371718e-01  1.523447e-01  1.000000e+00
   endloop
 endfacet
 facet normal -5.000000e-01 -8.660254e-01  0.000000e+00
   outer loop
     vertex  8.986609e-02  1.842528e-01  0.000000e+00
     vertex  1.146345e-01  1.699527e-01  1.000000e+00
     vertex  8.986609e-02  1.842528e-01  1.000000e+00
   endloop
 endfacet
 facet normal -3.746066e-01 -9.271839e-01  0.000000e+00
   outer loop
     vertex  8.986609e-02  1.842528e-01  0.000000e+00
     vertex  8.986609e-02  1.842528e-01  1.000000e+00
     vertex  6.334848e-02  1.949666e-01  1.000000e+00
   endloop
 endfacet
 facet normal -5.000000e-01 -8.660254e-01  0.000000e+00
   outer loop
     vertex  8.986609e-02  1.842528e-01  0.000000e+00
     vertex  1.146345e-01  1.699527e-01  0.000000e+00
     vertex  1.146345e-01  1.699527e-01  1.000000e+00
   endloop
 endfacet
 facet normal -3.746066e-01 -9.271839e-01  0.000000e+00
   outer loop
     vertex  6.334848e-02  1.949666e-01  0.000000e+00
     vertex  8.986609e-02  1.842528e-01  0.000000e+00
     vertex  6.334848e-02  1.949666e-01  1.000000e+00
   endloop
 endfacet
 facet normal -2.419219e-01 -9.702957e-01  0.000000e+00
   outer loop
     vertex  3.559788e-02  2.018856e-01  0.000000e+00
     vertex  6.334848e-02  1.949666e-01  1.000000e+00
     vertex  3.559788e-02  2.018856e-01  1.000000e+00
   endloop
 endfacet
 facet normal -2.419219e-01 -9.702957e-01  0.000000e+00
   outer loop
     vertex  3.559788e-02  2.018856e-01  0.000000e+00
     vertex  6.334848e-02  1.949666e-01  0.000000e+00
     vertex  6.334848e-02  1.949666e-01  1.000000e+00
   endloop
 endfacet
 facet normal -1.045285e-01 -9.945219e-01  0.000000e+00
   outer loop
     vertex  7.154397e-03  2.048751e-01  0.000000e+00
     vertex  3.559788e-02  2.018856e-01  1.000000e+00
     vertex  7.154397e-03  2.048751e-01  1.000000e+00
   endloop
 endfacet
 facet normal -1.045285e-01 -9.945219e-01  0.000000e+00
   outer loop
     vertex  7.154397e-03  2.048751e-01  0.000000e+00
     vertex  3.559788e-02  2.018856e-01  0.000000e+00
     vertex  3.559788e-02  2.018856e-01  1.000000e+00
   endloop
 endfacet
 facet normal  3.489950e-02 -9.993908e-01  0.000000e+00
   outer loop
     vertex -2.142833e-02  2.038770e-01  0.000000e+00
     vertex  7.154397e-03  2.048751e-01  1.000000e+00
     vertex -2.142833e-02  2.038770e-01  1.000000e+00
   endloop
 endfacet
 facet normal  3.489950e-02 -9.993908e-01  0.000000e+00
   outer loop
     vertex -2.142833e-02  2.038770e-01  0.000000e+00
     vertex  7.154397e-03  2.048751e-01  0.000000e+00
     vertex  7.154397e-03  2.048751e-01  1.000000e+00
   endloop
 endfacet
 facet normal  1.736482e-01 -9.848078e-01  0.000000e+00
   outer loop
     vertex -4.959399e-02  1.989106e-01  0.000000e+00
     vertex -2.142833e-02  2.038770e-01  1.000000e+00
     vertex -4.959399e-02  1.989106e-01  1.000000e+00
   endloop
 endfacet
 facet normal  1.736482e-01 -9.848078e-01  0.000000e+00
   outer loop
     vertex -4.959399e-02  1.989106e-01  0.000000e+00
     vertex -2.142833e-02  2.038770e-01  0.000000e+00
     vertex -2.142833e-02  2.038770e-01  1.000000e+00
   endloop
 endfacet
 facet normal  3.090170e-01 -9.510565e-01  0.000000e+00
   outer loop
     vertex -7.679435e-02  1.900727e-01  0.000000e+00
     vertex -4.959399e-02  1.989106e-01  1.000000e+00
     vertex -7.679435e-02  1.900727e-01  1.000000e+00
   endloop
 endfacet
 facet normal  3.090170e-01 -9.510565e-01  0.000000e+00
   outer loop
     vertex -7.679435e-02  1.900727e-01  0.000000e+00
     vertex -4.959399e-02  1.989106e-01  0.000000e+00
     vertex -4.959399e-02  1.989106e-01  1.000000e+00
   endloop
 endfacet
 facet normal  4.383711e-01 -8.987940e-01  0.000000e+00
   outer loop
     vertex -1.025000e-01  1.775352e-01  0.000000e+00
     vertex -7.679435e-02  1.900727e-01  1.000000e+00
     vertex -1.025000e-01  1.775352e-01  1.000000e+00
   endloop
 endfacet
 facet normal  4.383711e-01 -8.987940e-01  0.000000e+00
   outer loop
     vertex -1.025000e-01  1.775352e-01  0.000000e+00
     vertex -7.679435e-02  1.900727e-01  0.000000e+00
     vertex -7.679435e-02  1.900727e-01  1.000000e+00
   endloop
 endfacet
 facet normal  5.591929e-01 -8.290376e-01  0.000000e+00
   outer loop
     vertex -1.262106e-01  1.615422e-01  0.000000e+00
     vertex -1.025000e-01  1.775352e-01  1.000000e+00
     vertex -1.262106e-01  1.615422e-01  1.000000e+00
   endloop
 endfacet
 facet normal  5.591929e-01 -8.290376e-01  0.000000e+00
   outer loop
     vertex -1.262106e-01  1.615422e-01  0.000000e+00
     vertex -1.025000e-01  1.775352e-01  0.000000e+00
     vertex -1.025000e-01  1.775352e-01  1.000000e+00
   endloop
 endfacet
 facet normal  6.691306e-01 -7.431448e-01  0.000000e+00
   outer loop
     vertex -1.474647e-01  1.424050e-01  0.000000e+00
     vertex -1.262106e-01  1.615422e-01  1.000000e+00
     vertex -1.474647e-01  1.424050e-01  1.000000e+00
   endloop
 endfacet
 facet normal  6.691306e-01 -7.431448e-01  0.000000e+00
   outer loop
     vertex -1.474647e-01  1.424050e-01  0.000000e+00
     vertex -1.262106e-01  1.615422e-01  0.000000e+00
     vertex -1.262106e-01  1.615422e-01  1.000000e+00
   endloop
 endfacet
 facet normal  7.660444e-01 -6.427876e-01  0.000000e+00
   outer loop
     vertex -1.658485e-01  1.204960e-01  0.000000e+00
     vertex -1.474647e-01  1.424050e-01  1.000000e+00
     vertex -1.658485e-01  1.204960e-01  1.000000e+00
   endloop
 endfacet
 facet normal  7.660444e-01 -6.427876e-01  0.000000e+00
   outer loop
     vertex -1.658485e-01  1.204960e-01  0.000000e+00
     vertex -1.474647e-01  1.424050e-01  0.000000e+00
     vertex -1.474647e-01  1.424050e-01  1.000000e+00
   endloop
 endfacet
 facet normal  8.480481e-01 -5.299193e-01  0.000000e+00
   outer loop
     vertex -1.810043e-01  9.624167e-02  0.000000e+00
     vertex -1.658485e-01  1.204960e-01  1.000000e+00
     vertex -1.810043e-01  9.624167e-02  1.000000e+00
   endloop
 endfacet
 facet normal  8.480481e-01 -5.299193e-01  0.000000e+00
   outer loop
     vertex -1.810043e-01  9.624167e-02  0.000000e+00
     vertex -1.658485e-01  1.204960e-01  0.000000e+00
     vertex -1.658485e-01  1.204960e-01  1.000000e+00
   endloop
 endfacet
 facet normal  9.135455e-01 -4.067366e-01  0.000000e+00
   outer loop
     vertex -1.926370e-01  7.011413e-02  0.000000e+00
     vertex -1.810043e-01  9.624167e-02  1.000000e+00
     vertex -1.926370e-01  7.011413e-02  1.000000e+00
   endloop
 endfacet
 facet normal  9.135455e-01 -4.067366e-01  0.000000e+00
   outer loop
     vertex -1.926370e-01  7.011413e-02  0.000000e+00
     vertex -1.810043e-01  9.624167e-02  0.000000e+00
     vertex -1.810043e-01  9.624167e-02  1.000000e+00
   endloop
 endfacet
 facet normal  9.612617e-01 -2.756374e-01  0.000000e+00
   outer loop
     vertex -2.005203e-01  4.262190e-02  0.000000e+00
     vertex -1.926370e-01  7.011413e-02  1.000000e+00
     vertex -2.005203e-01  4.262190e-02  1.000000e+00
   endloop
 endfacet
 facet normal  9.612617e-01 -2.756374e-01  0.000000e+00
   outer loop
     vertex -2.005203e-01  4.262190e-02  0.000000e+00
     vertex -1.926370e-01  7.011413e-02  0.000000e+00
     vertex -1.926370e-01  7.011413e-02  1.000000e+00
   endloop
 endfacet
 facet normal  9.902681e-01 -1.391731e-01  0.000000e+00
   outer loop
     vertex -2.045006e-01  1.430008e-02  0.000000e+00
     vertex -2.005203e-01  4.262190e-02  1.000000e+00
     vertex -2.045006e-01  1.430008e-02  1.000000e+00
   endloop
 endfacet
 facet normal  9.902681e-01 -1.391731e-01  0.000000e+00
   outer loop
     vertex -2.045006e-01  1.430008e-02  0.000000e+00
     vertex -2.005203e-01  4.262190e-02  0.000000e+00
     vertex -2.005203e-01  4.262190e-02  1.000000e+00
   endloop
 endfacet
 facet normal  1.000000e+00  0.000000e+00  0.000000e+00
   outer loop
     vertex -2.045006e-01 -1.430008e-02  0.000000e+00
     vertex -2.045006e-01  1.430008e-02  1.000000e+00
     vertex -2.045006e-01 -1.430008e-02  1.000000e+00
   endloop
 endfacet
 facet normal  9.902681e-01  1.391731e-01 -0.000000e+00
   outer loop
     vertex -2.045006e-01 -1.430008e-02  0.000000e+00
     vertex -2.045006e-01 -1.430008e-02  1.000000e+00
     vertex -2.005203e-01 -4.262190e-02  1.000000e+00
   endloop
 endfacet
 facet normal  1.000000e+00  0.000000e+00  0.000000e+00
   outer loop
     vertex -2.045006e-01 -1.430008e-02  0.000000e+00
     vertex -2.045006e-01  1.430008e-02  0.000000e+00
     vertex -2.045006e-01  1.430008e-02  1.000000e+00
   endloop
 endfacet
 facet normal  9.902681e-01  1.391731e-01 -0.000000e+00
   outer loop
     vertex -2.005203e-01 -4.262190e-02  0.000000e+00
     vertex -2.045006e-01 -1.430008e-02  0.000000e+00
     vertex -2.005203e-01 -4.262190e-02  1.000000e+00
   endloop
 endfacet
 facet normal  9.612617e-01  2.756374e-01 -0.000000e+00
   outer loop
     vertex -1.926370e-01 -7.011413e-02  0.000000e+00
     vertex -2.005203e-01 -4.262190e-02  1.000000e+00
     vertex -1.926370e-01 -7.011413e-02  1.000000e+00
   endloop
 endfacet
 facet normal  9.135455e-01  4.067366e-01 -0.000000e+00
   outer loop
     vertex -1.926370e-01 -7.011413e-02  0.000000e+00
     vertex -1.926370e-01 -7.011413e-02  1.000000e+00
     vertex -1.810043e-01 -9.624167e-02  1.000000e+00
   endloop
 endfacet
 facet normal  9.612617e-01  2.756374e-01  0.000000e+00
   outer loop
     vertex -1.926370e-01 -7.011413e-02  0.000000e+00
     vertex -2.005203e-01 -4.262190e-02  0.000000e+00
     vertex -2.005203e-01 -4.262190e-02  1.000000e+00
   endloop
 endfacet
 facet normal  9.135455e-01  4.067366e-01 -0.000000e+00
   outer loop
     vertex -1.810043e-01 -9.624167e-02  0.000000e+00
     vertex -1.926370e-01 -7.011413e-02  0.000000e+00
     vertex -1.810043e-01 -9.624167e-02  1.000000e+00
   endloop
 endfacet
 facet normal  8.480481e-01  5.299193e-01  0.000000e+00
   outer loop
     vertex -1.658485e-01 -1.204960e-01  0.000000e+00
     vertex -1.810043e-01 -9.624167e-02  0.000000e+00
     vertex -1.810043e-01 -9.624167e-02  1.000000e+00
   endloop
 endfacet
 facet normal  8.480481e-01  5.299193e-01 -0.000000e+00
   outer loop
     vertex -1.658485e-01 -1.204960e-01  0.000000e+00
     vertex -1.810043e-01 -9.624167e-02  1.000000e+00
     vertex -1.658485e-01 -1.204960e-01  1.000000e+00
   endloop
 endfacet
 facet normal  7.660444e-01  6.427876e-01 -0.000000e+00
   outer loop
     vertex -1.658485e-01 -1.204960e-01  0.000000e+00
     vertex -1.658485e-01 -1.204960e-01  1.000000e+00
     vertex -1.474647e-01 -1.424050e-01  1.000000e+00
   endloop
 endfacet
 facet normal  7.660444e-01  6.427876e-01 -0.000000e+00
   outer loop
     vertex -1.474647e-01 -1.424050e-01  0.000000e+00
     vertex -1.658485e-01 -1.204960e-01  0.000000e+00
     vertex -1.474647e-01 -1.424050e-01  1.000000e+00
   endloop
 endfacet
 facet normal  6.691306e-01  7.431448e-01  0.000000e+00
   outer loop
     vertex -1.262106e-01 -1.615422e-01  0.000000e+00
     vertex -1.474647e-01 -1.424050e-01  0.000000e+00
     vertex -1.474647e-01 -1.424050e-01  1.000000e+00
   endloop
 endfacet
 facet normal  6.691306e-01  7.431448e-01 -0.000000e+00
   outer loop
     vertex -1.262106e-01 -1.615422e-01  0.000000e+00
     vertex -1.474647e-01 -1.424050e-01  1.000000e+00
     vertex -1.262106e-01 -1.615422e-01  1.000000e+00
   endloop
 endfacet
 facet normal  5.591929e-01  8.290376e-01  0.000000e+00
   outer loop
     vertex -1.025000e-01 -1.775352e-01  0.000000e+00
     vertex -1.262106e-01 -1.615422e-01  0.000000e+00
     vertex -1.262106e-01 -1.615422e-01  1.000000e+00
   endloop
 endfacet
 facet normal  5.591929e-01  8.290376e-01 -0.000000e+00
   outer loop
     vertex -1.025000e-01 -1.775352e-01  0.000000e+00
     vertex -1.262106e-01 -1.615422e-01  1.000000e+00
     vertex -1.025000e-01 -1.775352e-01  1.000000e+00
   endloop
 endfacet
 facet normal  4.383711e-01  8.987940e-01  0.000000e+00
   outer loop
     vertex -7.679435e-02 -1.900727e-01  0.000000e+00
     vertex -1.025000e-01 -1.775352e-01  0.000000e+00
     vertex -1.025000e-01 -1.775352e-01  1.000000e+00
   endloop
 endfacet
 facet normal  4.383711e-01  8.987940e-01 -0.000000e+00
   outer loop
     vertex -7.679435e-02 -1.900727e-01  0.000000e+00
     vertex -1.025000e-01 -1.775352e-01  1.000000e+00
     vertex -7.679435e-02 -1.900727e-01  1.000000e+00
   endloop
 endfacet
 facet normal  3.090170e-01  9.510565e-01  0.000000e+00
   outer loop
     vertex -4.959399e-02 -1.989106e-01  0.000000e+00
     vertex -7.679435e-02 -1.900727e-01  0.000000e+00
     vertex -7.679435e-02 -1.900727e-01  1.000000e+00
   endloop
 endfacet
 facet normal  3.090170e-01  9.510565e-01 -0.000000e+00
   outer loop
     vertex -4.959399e-02 -1.989106e-01  0.000000e+00
     vertex -7.679435e-02 -1.900727e-01  1.000000e+00
     vertex -4.959399e-02 -1.989106e-01  1.000000e+00
   endloop
 endfacet
 facet normal  1.736482e-01  9.848078e-01  0.000000e+00
   outer loop
     vertex -2.142833e-02 -2.038770e-01  0.000000e+00
     vertex -4.959399e-02 -1.989106e-01  0.000000e+00
     vertex -4.959399e-02 -1.989106e-01  1.000000e+00
   endloop
 endfacet
 facet normal  1.736482e-01  9.848078e-01 -0.000000e+00
   outer loop
     vertex -2.142833e-02 -2.038770e-01  0.000000e+00
     vertex -4.959399e-02 -1.989106e-01  1.000000e+00
     vertex -2.142833e-02 -2.038770e-01  1.000000e+00
   endloop
 endfacet
 facet normal  3.489950e-02  9.993908e-01  0.000000e+00
   outer loop
     vertex  7.154397e-03 -2.048751e-01  0.000000e+00
     vertex -2.142833e-02 -2.038770e-01  0.000000e+00
     vertex -2.142833e-02 -2.038770e-01  1.000000e+00
   endloop
 endfacet
 facet normal  3.489950e-02  9.993908e-01 -0.000000e+00
   outer loop
     vertex  7.154397e-03 -2.048751e-01  0.000000e+00
     vertex -2.142833e-02 -2.038770e-01  1.000000e+00
     vertex  7.154397e-03 -2.048751e-01  1.000000e+00
   endloop
 endfacet
 facet normal -1.045285e-01  9.945219e-01  0.000000e+00
   outer loop
     vertex  3.559788e-02 -2.018856e-01  0.000000e+00
     vertex  7.154397e-03 -2.048751e-01  1.000000e+00
     vertex  3.559788e-02 -2.018856e-01  1.000000e+00
   endloop
 endfacet
 facet normal -1.045285e-01  9.945219e-01  0.000000e+00
   outer loop
     vertex  3.559788e-02 -2.018856e-01  0.000000e+00
     vertex  7.154397e-03 -2.048751e-01  0.000000e+00
     vertex  7.154397e-03 -2.048751e-01  1.000000e+00
   endloop
 endfacet
 facet normal -2.419219e-01  9.702957e-01  0.000000e+00
   outer loop
     vertex  6.334848e-02 -1.949666e-01  0.000000e+00
     vertex  3.559788e-02 -2.018856e-01  0.000000e+00
     vertex  3.559788e-02 -2.018856e-01  1.000000e+00
   endloop
 endfacet
 facet normal -2.419219e-01  9.702957e-01  0.000000e+00
   outer loop
     vertex  6.334848e-02 -1.949666e-01  0.000000e+00
     vertex  3.559788e-02 -2.018856e-01  1.000000e+00
     vertex  6.334848e-02 -1.949666e-01  1.000000e+00
   endloop
 endfacet
 facet normal -3.746066e-01  9.271839e-01  0.000000e+00
   outer loop
     vertex  6.334848e-02 -1.949666e-01  0.000000e+00
     vertex  6.334848e-02 -1.949666e-01  1.000000e+00
     vertex  8.986609e-02 -1.842528e-01  1.000000e+00
   endloop
 endfacet
 facet normal -3.746066e-01  9.271839e-01  0.000000e+00
   outer loop
     vertex  8.986609e-02 -1.842528e-01  0.000000e+00
     vertex  6.334848e-02 -1.949666e-01  0.000000e+00
     vertex  8.986609e-02 -1.842528e-01  1.000000e+00
   endloop
 endfacet
 facet normal -5.000000e-01  8.660254e-01  0.000000e+00
   outer loop
     vertex  1.146345e-01 -1.699527e-01  0.000000e+00
     vertex  8.986609e-02 -1.842528e-01  1.000000e+00
     vertex  1.146345e-01 -1.699527e-01  1.000000e+00
   endloop
 endfacet
 facet normal -5.000000e-01  8.660254e-01  0.000000e+00
   outer loop
     vertex  1.146345e-01 -1.699527e-01  0.000000e+00
     vertex  8.986609e-02 -1.842528e-01  0.000000e+00
     vertex  8.986609e-02 -1.842528e-01  1.000000e+00
   endloop
 endfacet
 facet normal -6.156615e-01  7.880108e-01  0.000000e+00
   outer loop
     vertex  1.371718e-01 -1.523447e-01  0.000000e+00
     vertex  1.146345e-01 -1.699527e-01  1.000000e+00
     vertex  1.371718e-01 -1.523447e-01  1.000000e+00
   endloop
 endfacet
 facet normal -7.193398e-01  6.946584e-01  0.000000e+00
   outer loop
     vertex  1.371718e-01 -1.523447e-01  0.000000e+00
     vertex  1.371718e-01 -1.523447e-01  1.000000e+00
     vertex  1.570391e-01 -1.317715e-01  1.000000e+00
   endloop
 endfacet
 facet normal -6.156615e-01  7.880108e-01  0.000000e+00
   outer loop
     vertex  1.371718e-01 -1.523447e-01  0.000000e+00
     vertex  1.146345e-01 -1.699527e-01  0.000000e+00
     vertex  1.146345e-01 -1.699527e-01  1.000000e+00
   endloop
 endfacet
 facet normal -7.193398e-01  6.946584e-01  0.000000e+00
   outer loop
     vertex  1.570391e-01 -1.317715e-01  0.000000e+00
     vertex  1.371718e-01 -1.523447e-01  0.000000e+00
     vertex  1.570391e-01 -1.317715e-01  1.000000e+00
   endloop
 endfacet
 facet normal -8.090170e-01  5.877853e-01  0.000000e+00
   outer loop
     vertex  1.738499e-01 -1.086334e-01  0.000000e+00
     vertex  1.570391e-01 -1.317715e-01  1.000000e+00
     vertex  1.738499e-01 -1.086334e-01  1.000000e+00
   endloop
 endfacet
 facet normal -8.090170e-01  5.877853e-01  0.000000e+00
   outer loop
     vertex  1.738499e-01 -1.086334e-01  0.000000e+00
     vertex  1.570391e-01 -1.317715e-01  0.000000e+00
     vertex  1.570391e-01 -1.317715e-01  1.000000e+00
   endloop
 endfacet
 facet normal -8.829476e-01  4.694716e-01  0.000000e+00
   outer loop
     vertex  1.872768e-01 -8.338101e-02  0.000000e+00
     vertex  1.738499e-01 -1.086334e-01  1.000000e+00
     vertex  1.872768e-01 -8.338101e-02  1.000000e+00
   endloop
 endfacet
 facet normal -8.829476e-01  4.694716e-01  0.000000e+00
   outer loop
     vertex  1.872768e-01 -8.338101e-02  0.000000e+00
     vertex  1.738499e-01 -1.086334e-01  0.000000e+00
     vertex  1.738499e-01 -1.086334e-01  1.000000e+00
   endloop
 endfacet
 facet normal -9.396926e-01  3.420201e-01  0.000000e+00
   outer loop
     vertex  1.970586e-01 -5.650566e-02  0.000000e+00
     vertex  1.872768e-01 -8.338101e-02  1.000000e+00
     vertex  1.970586e-01 -5.650566e-02  1.000000e+00
   endloop
 endfacet
 facet normal -9.396926e-01  3.420201e-01  0.000000e+00
   outer loop
     vertex  1.970586e-01 -5.650566e-02  0.000000e+00
     vertex  1.872768e-01 -8.338101e-02  0.000000e+00
     vertex  1.872768e-01 -8.338101e-02  1.000000e+00
   endloop
 endfacet
 facet normal -9.781476e-01  2.079117e-01  0.000000e+00
   outer loop
     vertex  2.030050e-01 -2.853049e-02  0.000000e+00
     vertex  1.970586e-01 -5.650566e-02  1.000000e+00
     vertex  2.030050e-01 -2.853049e-02  1.000000e+00
   endloop
 endfacet
 facet normal -9.781476e-01  2.079117e-01  0.000000e+00
   outer loop
     vertex  2.030050e-01 -2.853049e-02  0.000000e+00
     vertex  1.970586e-01 -5.650566e-02  0.000000e+00
     vertex  1.970586e-01 -5.650566e-02  1.000000e+00
   endloop
 endfacet
 facet normal -9.975641e-01  6.975647e-02  0.000000e+00
   outer loop
     vertex  2.050000e-01  0.000000e+00  0.000000e+00
     vertex  2.030050e-01 -2.853049e-02  1.000000e+00
     vertex  2.050000e-01  0.000000e+00  1.000000e+00
   endloop
 endfacet
 facet normal -9.975641e-01  6.975647e-02  0.000000e+00
   outer loop
     vertex  2.050000e-01  0.000000e+00  0.000000e+00
     vertex  2.030050e-01 -2.853049e-02  0.000000e+00
     vertex  2.030050e-01 -2.853049e-02  1.000000e+00
   endloop
 endfacet
 facet normal  0.000000e+00  0.000000e+00 -1.000000e+00
   outer loop
     vertex -1.474647e-01 -1.424050e-01  0.000000e+00
     vertex -1.613522e-01 -1.776667e-01  0.000000e+00
     vertex -1.827470e-01 -1.555748e-01  0.000000e+00
   endloop
 endfacet
 facet normal -0.000000e+00  0.000000e+00 -1.000000e+00
   outer loop
     vertex -1.262106e-01 -1.615422e-01  0.000000e+00
     vertex -1.613522e-01 -1.776667e-01  0.000000e+00
     vertex -1.474647e-01 -1.424050e-01  0.000000e+00
   endloop
 endfacet
 facet normal  0.000000e+00  0.000000e+00 -1.000000e+00
   outer loop
     vertex -1.262106e-01 -1.615422e-01  0.000000e+00
     vertex -1.373080e-01 -1.968413e-01  0.000000e+00
     vertex -1.613522e-01 -1.776667e-01  0.000000e+00
   endloop
 endfacet
 facet normal  0.000000e+00 -0.000000e+00 -1.000000e+00
   outer loop
     vertex -1.658485e-01 -1.204960e-01  0.000000e+00
     vertex -1.474647e-01 -1.424050e-01  0.000000e+00
     vertex -1.827470e-01 -1.555748e-01  0.000000e+00
   endloop
 endfacet
 facet normal  0.000000e+00  0.000000e+00 -1.000000e+00
   outer loop
     vertex -1.658485e-01 -1.204960e-01  0.000000e+00
     vertex -1.827470e-01 -1.555748e-01  0.000000e+00
     vertex -2.011411e-01 -1.309284e-01  0.000000e+00
   endloop
 endfacet
 facet normal -0.000000e+00  0.000000e+00 -1.000000e+00
   outer loop
     vertex -1.025000e-01 -1.775352e-01  0.000000e+00
     vertex -1.373080e-01 -1.968413e-01  0.000000e+00
     vertex -1.262106e-01 -1.615422e-01  0.000000e+00
   endloop
 endfacet
 facet normal  0.000000e+00  0.000000e+00 -1.000000e+00
   outer loop
     vertex -1.025000e-01 -1.775352e-01  0.000000e+00
     vertex -1.110092e-01 -2.127838e-01  0.000000e+00
     vertex -1.373080e-01 -1.968413e-01  0.000000e+00
   endloop
 endfacet
 facet normal  0.000000e+00 -0.000000e+00 -1.000000e+00
   outer loop
     vertex -1.810043e-01 -9.624167e-02  0.000000e+00
     vertex -1.658485e-01 -1.204960e-01  0.000000e+00
     vertex -2.011411e-01 -1.309284e-01  0.000000e+00
   endloop
 endfacet
 facet normal  0.000000e+00  0.000000e+00 -1.000000e+00
   outer loop
     vertex -1.810043e-01 -9.624167e-02  0.000000e+00
     vertex -2.011411e-01 -1.309284e-01  0.000000e+00
     vertex -2.162325e-01 -1.041321e-01  0.000000e+00
   endloop
 endfacet
 facet normal -0.000000e+00  0.000000e+00 -1.000000e+00
   outer loop
     vertex -7.679435e-02 -1.900727e-01  0.000000e+00
     vertex -1.110092e-01 -2.127838e-01  0.000000e+00
     vertex -1.025000e-01 -1.775352e-01  0.000000e+00
   endloop
 endfacet
 facet normal  0.000000e+00  0.000000e+00 -1.000000e+00
   outer loop
     vertex -7.679435e-02 -1.900727e-01  0.000000e+00
     vertex -8.288761e-02 -2.252324e-01  0.000000e+00
     vertex -1.110092e-01 -2.127838e-01  0.000000e+00
   endloop
 endfacet
 facet normal  0.000000e+00 -0.000000e+00 -1.000000e+00
   outer loop
     vertex -1.926370e-01 -7.011413e-02  0.000000e+00
     vertex -1.810043e-01 -9.624167e-02  0.000000e+00
     vertex -2.162325e-01 -1.041321e-01  0.000000e+00
   endloop
 endfacet
 facet normal  0.000000e+00  0.000000e+00 -1.000000e+00
   outer loop
     vertex -1.926370e-01 -7.011413e-02  0.000000e+00
     vertex -2.162325e-01 -1.041321e-01  0.000000e+00
     vertex -2.277734e-01 -7.562597e-02  0.000000e+00
   endloop
 endfacet
 facet normal -0.000000e+00  0.000000e+00 -1.000000e+00
   outer loop
     vertex -4.959399e-02 -1.989106e-01  0.000000e+00
     vertex -8.288761e-02 -2.252324e-01  0.000000e+00
     vertex -7.679435e-02 -1.900727e-01  0.000000e+00
   endloop
 endfacet
 facet normal  0.000000e+00  0.000000e+00 -1.000000e+00
   outer loop
     vertex -4.959399e-02 -1.989106e-01  0.000000e+00
     vertex -5.340502e-02 -2.339827e-01  0.000000e+00
     vertex -8.288761e-02 -2.252324e-01  0.000000e+00
   endloop
 endfacet
 facet normal  0.000000e+00  0.000000e+00 -1.000000e+00
   outer loop
     vertex -2.005203e-01 -4.262190e-02  0.000000e+00
     vertex -2.277734e-01 -7.562597e-02  0.000000e+00
     vertex -2.355742e-01 -4.587807e-02  0.000000e+00
   endloop
 endfacet
 facet normal  0.000000e+00 -0.000000e+00 -1.000000e+00
   outer loop
     vertex -2.005203e-01 -4.262190e-02  0.000000e+00
     vertex -1.926370e-01 -7.011413e-02  0.000000e+00
     vertex -2.277734e-01 -7.562597e-02  0.000000e+00
   endloop
 endfacet
 facet normal -0.000000e+00  0.000000e+00 -1.000000e+00
   outer loop
     vertex -2.142833e-02 -2.038770e-01  0.000000e+00
     vertex -5.340502e-02 -2.339827e-01  0.000000e+00
     vertex -4.959399e-02 -1.989106e-01  0.000000e+00
   endloop
 endfacet
 facet normal  0.000000e+00  0.000000e+00 -1.000000e+00
   outer loop
     vertex -2.142833e-02 -2.038770e-01  0.000000e+00
     vertex -2.304553e-02 -2.388910e-01  0.000000e+00
     vertex -5.340502e-02 -2.339827e-01  0.000000e+00
   endloop
 endfacet
 facet normal  0.000000e+00 -0.000000e+00 -1.000000e+00
   outer loop
     vertex -2.045006e-01 -1.430008e-02  0.000000e+00
     vertex -2.005203e-01 -4.262190e-02  0.000000e+00
     vertex -2.355742e-01 -4.587807e-02  0.000000e+00
   endloop
 endfacet
 facet normal  0.000000e+00  0.000000e+00 -1.000000e+00
   outer loop
     vertex -2.045006e-01 -1.430008e-02  0.000000e+00
     vertex -2.355742e-01 -4.587807e-02  0.000000e+00
     vertex -2.395069e-01 -1.537685e-02  0.000000e+00
   endloop
 endfacet
 facet normal  0.000000e+00 -0.000000e+00 -1.000000e+00
   outer loop
     vertex  7.154397e-03 -2.048751e-01  0.000000e+00
     vertex  7.692379e-03 -2.398767e-01  0.000000e+00
     vertex -2.304553e-02 -2.388910e-01  0.000000e+00
   endloop
 endfacet
 facet normal -0.000000e+00  0.000000e+00 -1.000000e+00
   outer loop
     vertex  7.154397e-03 -2.048751e-01  0.000000e+00
     vertex -2.304553e-02 -2.388910e-01  0.000000e+00
     vertex -2.142833e-02 -2.038770e-01  0.000000e+00
   endloop
 endfacet
 facet normal  0.000000e+00  0.000000e+00 -1.000000e+00
   outer loop
     vertex  7.154397e-03 -2.048751e-01  0.000000e+00
     vertex  3.830397e-02 -2.369236e-01  0.000000e+00
     vertex  7.692379e-03 -2.398767e-01  0.000000e+00
   endloop
 endfacet
 facet normal -0.000000e+00  0.000000e+00 -1.000000e+00
   outer loop
     vertex -2.045006e-01  1.430008e-02  0.000000e+00
     vertex -2.395069e-01 -1.537685e-02  0.000000e+00
     vertex -2.395069e-01  1.537685e-02  0.000000e+00
   endloop
 endfacet
 facet normal  0.000000e+00 -0.000000e+00 -1.000000e+00
   outer loop
     vertex -2.045006e-01  1.430008e-02  0.000000e+00
     vertex -2.045006e-01 -1.430008e-02  0.000000e+00
     vertex -2.395069e-01 -1.537685e-02  0.000000e+00
   endloop
 endfacet
 facet normal  0.000000e+00 -0.000000e+00 -1.000000e+00
   outer loop
     vertex -2.355742e-01  4.587807e-02  0.000000e+00
     vertex -2.045006e-01  1.430008e-02  0.000000e+00
     vertex -2.395069e-01  1.537685e-02  0.000000e+00
   endloop
 endfacet
 facet normal  0.000000e+00 -0.000000e+00 -1.000000e+00
   outer loop
     vertex  3.559788e-02 -2.018856e-01  0.000000e+00
     vertex  3.830397e-02 -2.369236e-01  0.000000e+00
     vertex  7.154397e-03 -2.048751e-01  0.000000e+00
   endloop
 endfacet
 facet normal -0.000000e+00  0.000000e+00 -1.000000e+00
   outer loop
     vertex  6.828662e-02 -2.300803e-01  0.000000e+00
     vertex  3.830397e-02 -2.369236e-01  0.000000e+00
     vertex  3.559788e-02 -2.018856e-01  0.000000e+00
   endloop
 endfacet
 facet normal -0.000000e+00  0.000000e+00 -1.000000e+00
   outer loop
     vertex -2.005203e-01  4.262190e-02  0.000000e+00
     vertex -2.045006e-01  1.430008e-02  0.000000e+00
     vertex -2.355742e-01  4.587807e-02  0.000000e+00
   endloop
 endfacet
 facet normal  0.000000e+00 -0.000000e+00 -1.000000e+00
   outer loop
     vertex -2.277734e-01  7.562597e-02  0.000000e+00
     vertex -2.005203e-01  4.262190e-02  0.000000e+00
     vertex -2.355742e-01  4.587807e-02  0.000000e+00
   endloop
 endfacet
 facet normal  0.000000e+00 -0.000000e+00 -1.000000e+00
   outer loop
     vertex  6.334848e-02 -1.949666e-01  0.000000e+00
     vertex  6.828662e-02 -2.300803e-01  0.000000e+00
     vertex  3.559788e-02 -2.018856e-01  0.000000e+00
   endloop
 endfacet
 facet normal -0.000000e+00  0.000000e+00 -1.000000e+00
   outer loop
     vertex -1.926370e-01  7.011413e-02  0.000000e+00
     vertex -2.005203e-01  4.262190e-02  0.000000e+00
     vertex -2.277734e-01  7.562597e-02  0.000000e+00
   endloop
 endfacet
 facet normal -0.000000e+00  0.000000e+00 -1.000000e+00
   outer loop
     vertex  9.714800e-02 -2.194590e-01  0.000000e+00
     vertex  6.828662e-02 -2.300803e-01  0.000000e+00
     vertex  6.334848e-02 -1.949666e-01  0.000000e+00
   endloop
 endfacet
 facet normal  0.000000e+00 -0.000000e+00 -1.000000e+00
   outer loop
     vertex -2.162325e-01  1.041321e-01  0.000000e+00
     vertex -1.926370e-01  7.011413e-02  0.000000e+00
     vertex -2.277734e-01  7.562597e-02  0.000000e+00
   endloop
 endfacet
 facet normal  0.000000e+00 -0.000000e+00 -1.000000e+00
   outer loop
     vertex  8.986609e-02 -1.842528e-01  0.000000e+00
     vertex  9.714800e-02 -2.194590e-01  0.000000e+00
     vertex  6.334848e-02 -1.949666e-01  0.000000e+00
   endloop
 endfacet
 facet normal -0.000000e+00  0.000000e+00 -1.000000e+00
   outer loop
     vertex -1.810043e-01  9.624167e-02  0.000000e+00
     vertex -1.926370e-01  7.011413e-02  0.000000e+00
     vertex -2.162325e-01  1.041321e-01  0.000000e+00
   endloop
 endfacet
 facet normal -0.000000e+00  0.000000e+00 -1.000000e+00
   outer loop
     vertex  1.244142e-01 -2.052343e-01  0.000000e+00
     vertex  9.714800e-02 -2.194590e-01  0.000000e+00
     vertex  8.986609e-02 -1.842528e-01  0.000000e+00
   endloop
 endfacet
 facet normal  0.000000e+00 -0.000000e+00 -1.000000e+00
   outer loop
     vertex -2.011411e-01  1.309284e-01  0.000000e+00
     vertex -1.810043e-01  9.624167e-02  0.000000e+00
     vertex -2.162325e-01  1.041321e-01  0.000000e+00
   endloop
 endfacet
 facet normal  0.000000e+00 -0.000000e+00 -1.000000e+00
   outer loop
     vertex  1.146345e-01 -1.699527e-01  0.000000e+00
     vertex  1.244142e-01 -2.052343e-01  0.000000e+00
     vertex  8.986609e-02 -1.842528e-01  0.000000e+00
   endloop
 endfacet
 facet normal -0.000000e+00  0.000000e+00 -1.000000e+00
   outer loop
     vertex -1.658485e-01  1.204960e-01  0.000000e+00
     vertex -1.810043e-01  9.624167e-02  0.000000e+00
     vertex -2.011411e-01  1.309284e-01  0.000000e+00
   endloop
 endfacet
 facet normal -0.000000e+00  0.000000e+00 -1.000000e+00
   outer loop
     vertex  1.496376e-01 -1.876396e-01  0.000000e+00
     vertex  1.244142e-01 -2.052343e-01  0.000000e+00
     vertex  1.146345e-01 -1.699527e-01  0.000000e+00
   endloop
 endfacet
 facet normal  0.000000e+00 -0.000000e+00 -1.000000e+00
   outer loop
     vertex -1.827470e-01  1.555748e-01  0.000000e+00
     vertex -1.658485e-01  1.204960e-01  0.000000e+00
     vertex -2.011411e-01  1.309284e-01  0.000000e+00
   endloop
 endfacet
 facet normal  0.000000e+00 -0.000000e+00 -1.000000e+00
   outer loop
     vertex  1.371718e-01 -1.523447e-01  0.000000e+00
     vertex  1.496376e-01 -1.876396e-01  0.000000e+00
     vertex  1.146345e-01 -1.699527e-01  0.000000e+00
   endloop
 endfacet
 facet normal -0.000000e+00  0.000000e+00 -1.000000e+00
   outer loop
     vertex -1.474647e-01  1.424050e-01  0.000000e+00
     vertex -1.658485e-01  1.204960e-01  0.000000e+00
     vertex -1.827470e-01  1.555748e-01  0.000000e+00
   endloop
 endfacet
 facet normal -0.000000e+00  0.000000e+00 -1.000000e+00
   outer loop
     vertex  1.724038e-01 -1.669638e-01  0.000000e+00
     vertex  1.496376e-01 -1.876396e-01  0.000000e+00
     vertex  1.371718e-01 -1.523447e-01  0.000000e+00
   endloop
 endfacet
 facet normal  0.000000e+00 -0.000000e+00 -1.000000e+00
   outer loop
     vertex -1.613522e-01  1.776667e-01  0.000000e+00
     vertex -1.474647e-01  1.424050e-01  0.000000e+00
     vertex -1.827470e-01  1.555748e-01  0.000000e+00
   endloop
 endfacet
 facet normal  0.000000e+00 -0.000000e+00 -1.000000e+00
   outer loop
     vertex  1.570391e-01 -1.317715e-01  0.000000e+00
     vertex  1.724038e-01 -1.669638e-01  0.000000e+00
     vertex  1.371718e-01 -1.523447e-01  0.000000e+00
   endloop
 endfacet
 facet normal -0.000000e+00  0.000000e+00 -1.000000e+00
   outer loop
     vertex -1.262106e-01  1.615422e-01  0.000000e+00
     vertex -1.474647e-01  1.424050e-01  0.000000e+00
     vertex -1.613522e-01  1.776667e-01  0.000000e+00
   endloop
 endfacet
 facet normal -0.000000e+00  0.000000e+00 -1.000000e+00
   outer loop
     vertex  1.923393e-01 -1.435465e-01  0.000000e+00
     vertex  1.724038e-01 -1.669638e-01  0.000000e+00
     vertex  1.570391e-01 -1.317715e-01  0.000000e+00
   endloop
 endfacet
 facet normal  0.000000e+00 -0.000000e+00 -1.000000e+00
   outer loop
     vertex -1.373080e-01  1.968413e-01  0.000000e+00
     vertex -1.262106e-01  1.615422e-01  0.000000e+00
     vertex -1.613522e-01  1.776667e-01  0.000000e+00
   endloop
 endfacet
 facet normal  0.000000e+00 -0.000000e+00 -1.000000e+00
   outer loop
     vertex  1.738499e-01 -1.086334e-01  0.000000e+00
     vertex  1.923393e-01 -1.435465e-01  0.000000e+00
     vertex  1.570391e-01 -1.317715e-01  0.000000e+00
   endloop
 endfacet
 facet normal -0.000000e+00  0.000000e+00 -1.000000e+00
   outer loop
     vertex -1.025000e-01  1.775352e-01  0.000000e+00
     vertex -1.262106e-01  1.615422e-01  0.000000e+00
     vertex -1.373080e-01  1.968413e-01  0.000000e+00
   endloop
 endfacet
 facet normal -0.000000e+00  0.000000e+00 -1.000000e+00
   outer loop
     vertex  2.091165e-01 -1.177722e-01  0.000000e+00
     vertex  1.923393e-01 -1.435465e-01  0.000000e+00
     vertex  1.738499e-01 -1.086334e-01  0.000000e+00
   endloop
 endfacet
 facet normal  0.000000e+00 -0.000000e+00 -1.000000e+00
   outer loop
     vertex -1.110092e-01  2.127838e-01  0.000000e+00
     vertex -1.025000e-01  1.775352e-01  0.000000e+00
     vertex -1.373080e-01  1.968413e-01  0.000000e+00
   endloop
 endfacet
 facet normal  0.000000e+00 -0.000000e+00 -1.000000e+00
   outer loop
     vertex  1.872768e-01 -8.338101e-02  0.000000e+00
     vertex  2.091165e-01 -1.177722e-01  0.000000e+00
     vertex  1.738499e-01 -1.086334e-01  0.000000e+00
   endloop
 endfacet
 facet normal -0.000000e+00  0.000000e+00 -1.000000e+00
   outer loop
     vertex -7.679435e-02  1.900727e-01  0.000000e+00
     vertex -1.025000e-01  1.775352e-01  0.000000e+00
     vertex -1.110092e-01  2.127838e-01  0.000000e+00
   endloop
 endfacet
 facet normal -0.000000e+00  0.000000e+00 -1.000000e+00
   outer loop
     vertex  2.224600e-01 -9.006408e-02  0.000000e+00
     vertex  2.091165e-01 -1.177722e-01  0.000000e+00
     vertex  1.872768e-01 -8.338101e-02  0.000000e+00
   endloop
 endfacet
 facet normal  0.000000e+00 -0.000000e+00 -1.000000e+00
   outer loop
     vertex  1.970586e-01 -5.650566e-02  0.000000e+00
     vertex  2.224600e-01 -9.006408e-02  0.000000e+00
     vertex  1.872768e-01 -8.338101e-02  0.000000e+00
   endloop
 endfacet
 facet normal  0.000000e+00 -0.000000e+00 -1.000000e+00
   outer loop
     vertex -8.288761e-02  2.252324e-01  0.000000e+00
     vertex -7.679435e-02  1.900727e-01  0.000000e+00
     vertex -1.110092e-01  2.127838e-01  0.000000e+00
   endloop
 endfacet
 facet normal -0.000000e+00  0.000000e+00 -1.000000e+00
   outer loop
     vertex -4.959399e-02  1.989106e-01  0.000000e+00
     vertex -7.679435e-02  1.900727e-01  0.000000e+00
     vertex -8.288761e-02  2.252324e-01  0.000000e+00
   endloop
 endfacet
 facet normal -0.000000e+00  0.000000e+00 -1.000000e+00
   outer loop
     vertex  2.321508e-01 -6.087710e-02  0.000000e+00
     vertex  2.224600e-01 -9.006408e-02  0.000000e+00
     vertex  1.970586e-01 -5.650566e-02  0.000000e+00
   endloop
 endfacet
 facet normal  0.000000e+00 -0.000000e+00 -1.000000e+00
   outer loop
     vertex  2.030050e-01 -2.853049e-02  0.000000e+00
     vertex  2.321508e-01 -6.087710e-02  0.000000e+00
     vertex  1.970586e-01 -5.650566e-02  0.000000e+00
   endloop
 endfacet
 facet normal  0.000000e+00 -0.000000e+00 -1.000000e+00
   outer loop
     vertex -5.340502e-02  2.339827e-01  0.000000e+00
     vertex -4.959399e-02  1.989106e-01  0.000000e+00
     vertex -8.288761e-02  2.252324e-01  0.000000e+00
   endloop
 endfacet
 facet normal -0.000000e+00  0.000000e+00 -1.000000e+00
   outer loop
     vertex -2.142833e-02  2.038770e-01  0.000000e+00
     vertex -4.959399e-02  1.989106e-01  0.000000e+00
     vertex -5.340502e-02  2.339827e-01  0.000000e+00
   endloop
 endfacet
 facet normal -0.000000e+00  0.000000e+00 -1.000000e+00
   outer loop
     vertex  2.380296e-01 -3.069052e-02  0.000000e+00
     vertex  2.321508e-01 -6.087710e-02  0.000000e+00
     vertex  2.030050e-01 -2.853049e-02  0.000000e+00
   endloop
 endfacet
 facet normal  0.000000e+00  0.000000e+00 -1.000000e+00
   outer loop
     vertex  2.380296e-01 -3.069052e-02  0.000000e+00
     vertex  2.030050e-01 -2.853049e-02  0.000000e+00
     vertex  2.050000e-01  0.000000e+00  0.000000e+00
   endloop
 endfacet
 facet normal  0.000000e+00 -0.000000e+00 -1.000000e+00
   outer loop
     vertex -2.304553e-02  2.388910e-01  0.000000e+00
     vertex -2.142833e-02  2.038770e-01  0.000000e+00
     vertex -5.340502e-02  2.339827e-01  0.000000e+00
   endloop
 endfacet
 facet normal  0.000000e+00  0.000000e+00 -1.000000e+00
   outer loop
     vertex -2.304553e-02  2.388910e-01  0.000000e+00
     vertex  7.154397e-03  2.048751e-01  0.000000e+00
     vertex -2.142833e-02  2.038770e-01  0.000000e+00
   endloop
 endfacet
 facet normal -0.000000e+00  0.000000e+00 -1.000000e+00
   outer loop
     vertex  2.400000e-01  0.000000e+00  0.000000e+00
     vertex  2.380296e-01 -3.069052e-02  0.000000e+00
     vertex  2.050000e-01  0.000000e+00  0.000000e+00
   endloop
 endfacet
 facet normal  0.000000e+00  0.000000e+00 -1.000000e+00
   outer loop
     vertex  7.692379e-03  2.398767e-01  0.000000e+00
     vertex  7.154397e-03  2.048751e-01  0.000000e+00
     vertex -2.304553e-02  2.388910e-01  0.000000e+00
   endloop
 endfacet
 facet normal  0.000000e+00 -0.000000e+00 -1.000000e+00
   outer loop
     vertex  2.380296e-01  3.069052e-02  0.000000e+00
     vertex  2.400000e-01  0.000000e+00  0.000000e+00
     vertex  2.050000e-01  0.000000e+00  0.000000e+00
   endloop
 endfacet
 facet normal  0.000000e+00  0.000000e+00 -1.000000e+00
   outer loop
     vertex  2.380296e-01  3.069052e-02  0.000000e+00
     vertex  2.050000e-01  0.000000e+00  0.000000e+00
     vertex  2.030050e-01  2.853049e-02  0.000000e+00
   endloop
 endfacet
 facet normal -0.000000e+00  0.000000e+00 -1.000000e+00
   outer loop
     vertex  3.830397e-02  2.369236e-01  0.000000e+00
     vertex  7.154397e-03  2.048751e-01  0.000000e+00
     vertex  7.692379e-03  2.398767e-01  0.000000e+00
   endloop
 endfacet
 facet normal  0.000000e+00  0.000000e+00 -1.000000e+00
   outer loop
     vertex  3.830397e-02  2.369236e-01  0.000000e+00
     vertex  3.559788e-02  2.018856e-01  0.000000e+00
     vertex  7.154397e-03  2.048751e-01  0.000000e+00
   endloop
 endfacet
 facet normal  0.000000e+00  0.000000e+00 -1.000000e+00
   outer loop
     vertex  2.321508e-01  6.087710e-02  0.000000e+00
     vertex  2.030050e-01  2.853049e-02  0.000000e+00
     vertex  1.970586e-01  5.650566e-02  0.000000e+00
   endloop
 endfacet
 facet normal  0.000000e+00 -0.000000e+00 -1.000000e+00
   outer loop
     vertex  2.321508e-01  6.087710e-02  0.000000e+00
     vertex  2.380296e-01  3.069052e-02  0.000000e+00
     vertex  2.030050e-01  2.853049e-02  0.000000e+00
   endloop
 endfacet
 facet normal  0.000000e+00  0.000000e+00 -1.000000e+00
   outer loop
     vertex  6.828662e-02  2.300803e-01  0.000000e+00
     vertex  6.334848e-02  1.949666e-01  0.000000e+00
     vertex  3.559788e-02  2.018856e-01  0.000000e+00
   endloop
 endfacet
 facet normal -0.000000e+00  0.000000e+00 -1.000000e+00
   outer loop
     vertex  6.828662e-02  2.300803e-01  0.000000e+00
     vertex  3.559788e-02  2.018856e-01  0.000000e+00
     vertex  3.830397e-02  2.369236e-01  0.000000e+00
   endloop
 endfacet
 facet normal  0.000000e+00 -0.000000e+00 -1.000000e+00
   outer loop
     vertex  2.224600e-01  9.006408e-02  0.000000e+00
     vertex  2.321508e-01  6.087710e-02  0.000000e+00
     vertex  1.970586e-01  5.650566e-02  0.000000e+00
   endloop
 endfacet
 facet normal  0.000000e+00  0.000000e+00 -1.000000e+00
   outer loop
     vertex  2.224600e-01  9.006408e-02  0.000000e+00
     vertex  1.970586e-01  5.650566e-02  0.000000e+00
     vertex  1.872768e-01  8.338101e-02  0.000000e+00
   endloop
 endfacet
 facet normal  0.000000e+00  0.000000e+00 -1.000000e+00
   outer loop
     vertex  9.714800e-02  2.194590e-01  0.000000e+00
     vertex  8.986609e-02  1.842528e-01  0.000000e+00
     vertex  6.334848e-02  1.949666e-01  0.000000e+00
   endloop
 endfacet
 facet normal -0.000000e+00  0.000000e+00 -1.000000e+00
   outer loop
     vertex  9.714800e-02  2.194590e-01  0.000000e+00
     vertex  6.334848e-02  1.949666e-01  0.000000e+00
     vertex  6.828662e-02  2.300803e-01  0.000000e+00
   endloop
 endfacet
 facet normal  0.000000e+00  0.000000e+00 -1.000000e+00
   outer loop
     vertex  2.091165e-01  1.177722e-01  0.000000e+00
     vertex  1.872768e-01  8.338101e-02  0.000000e+00
     vertex  1.738499e-01  1.086334e-01  0.000000e+00
   endloop
 endfacet
 facet normal  0.000000e+00 -0.000000e+00 -1.000000e+00
   outer loop
     vertex  2.091165e-01  1.177722e-01  0.000000e+00
     vertex  2.224600e-01  9.006408e-02  0.000000e+00
     vertex  1.872768e-01  8.338101e-02  0.000000e+00
   endloop
 endfacet
 facet normal -0.000000e+00  0.000000e+00 -1.000000e+00
   outer loop
     vertex  1.244142e-01  2.052343e-01  0.000000e+00
     vertex  8.986609e-02  1.842528e-01  0.000000e+00
     vertex  9.714800e-02  2.194590e-01  0.000000e+00
   endloop
 endfacet
 facet normal  0.000000e+00  0.000000e+00 -1.000000e+00
   outer loop
     vertex  1.244142e-01  2.052343e-01  0.000000e+00
     vertex  1.146345e-01  1.699527e-01  0.000000e+00
     vertex  8.986609e-02  1.842528e-01  0.000000e+00
   endloop
 endfacet
 facet normal  0.000000e+00  0.000000e+00 -1.000000e+00
   outer loop
     vertex  1.923393e-01  1.435465e-01  0.000000e+00
     vertex  1.738499e-01  1.086334e-01  0.000000e+00
     vertex  1.570391e-01  1.317715e-01  0.000000e+00
   endloop
 endfacet
 facet normal  0.000000e+00 -0.000000e+00 -1.000000e+00
   outer loop
     vertex  1.923393e-01  1.435465e-01  0.000000e+00
     vertex  2.091165e-01  1.177722e-01  0.000000e+00
     vertex  1.738499e-01  1.086334e-01  0.000000e+00
   endloop
 endfacet
 facet normal  0.000000e+00  0.000000e+00 -1.000000e+00
   outer loop
     vertex  1.496376e-01  1.876396e-01  0.000000e+00
     vertex  1.371718e-01  1.523447e-01  0.000000e+00
     vertex  1.146345e-01  1.699527e-01  0.000000e+00
   endloop
 endfacet
 facet normal -0.000000e+00  0.000000e+00 -1.000000e+00
   outer loop
     vertex  1.496376e-01  1.876396e-01  0.000000e+00
     vertex  1.146345e-01  1.699527e-01  0.000000e+00
     vertex  1.244142e-01  2.052343e-01  0.000000e+00
   endloop
 endfacet
 facet normal  0.000000e+00  0.000000e+00 -1.000000e+00
   outer loop
     vertex  1.724038e-01  1.669638e-01  0.000000e+00
     vertex  1.570391e-01  1.317715e-01  0.000000e+00
     vertex  1.371718e-01  1.523447e-01  0.000000e+00
   endloop
 endfacet
 facet normal -0.000000e+00  0.000000e+00 -1.000000e+00
   outer loop
     vertex  1.724038e-01  1.669638e-01  0.000000e+00
     vertex  1.371718e-01  1.523447e-01  0.000000e+00
     vertex  1.496376e-01  1.876396e-01  0.000000e+00
   endloop
 endfacet
 facet normal  0.000000e+00 -0.000000e+00 -1.000000e+00
   outer loop
     vertex  1.724038e-01  1.669638e-01  0.000000e+00
     vertex  1.923393e-01  1.435465e-01  0.000000e+00
     vertex  1.570391e-01  1.317715e-01  0.000000e+00
   endloop
 endfacet
 facet normal  0.000000e+00  0.000000e+00  1.000000e+00
   outer loop
     vertex -1.474647e-01 -1.424050e-01  1.000000e+00
     vertex -1.827470e-01 -1.555748e-01  1.000000e+00
     vertex -1.613522e-01 -1.776667e-01  1.000000e+00
   endloop
 endfacet
 facet normal  0.000000e+00  0.000000e+00  1.000000e+00
   outer loop
     vertex -1.262106e-01 -1.615422e-01  1.000000e+00
     vertex -1.474647e-01 -1.424050e-01  1.000000e+00
     vertex -1.613522e-01 -1.776667e-01  1.000000e+00
   endloop
 endfacet
 facet normal  0.000000e+00  0.000000e+00  1.000000e+00
   outer loop
     vertex -1.262106e-01 -1.615422e-01  1.000000e+00
     vertex -1.613522e-01 -1.776667e-01  1.000000e+00
     vertex -1.373080e-01 -1.968413e-01  1.000000e+00
   endloop
 endfacet
 facet normal  0.000000e+00  0.000000e+00  1.000000e+00
   outer loop
     vertex -1.658485e-01 -1.204960e-01  1.000000e+00
     vertex -1.827470e-01 -1.555748e-01  1.000000e+00
     vertex -1.474647e-01 -1.424050e-01  1.000000e+00
   endloop
 endfacet
 facet normal  0.000000e+00  0.000000e+00  1.000000e+00
   outer loop
     vertex -1.658485e-01 -1.204960e-01  1.000000e+00
     vertex -2.011411e-01 -1.309284e-01  1.000000e+00
     vertex -1.827470e-01 -1.555748e-01  1.000000e+00
   endloop
 endfacet
 facet normal  0.000000e+00  0.000000e+00  1.000000e+00
   outer loop
     vertex -1.025000e-01 -1.775352e-01  1.000000e+00
     vertex -1.262106e-01 -1.615422e-01  1.000000e+00
     vertex -1.373080e-01 -1.968413e-01  1.000000e+00
   endloop
 endfacet
 facet normal  0.000000e+00  0.000000e+00  1.000000e+00
   outer loop
     vertex -1.025000e-01 -1.775352e-01  1.000000e+00
     vertex -1.373080e-01 -1.968413e-01  1.000000e+00
     vertex -1.110092e-01 -2.127838e-01  1.000000e+00
   endloop
 endfacet
 facet normal  0.000000e+00  0.000000e+00  1.000000e+00
   outer loop
     vertex -1.810043e-01 -9.624167e-02  1.000000e+00
     vertex -2.011411e-01 -1.309284e-01  1.000000e+00
     vertex -1.658485e-01 -1.204960e-01  1.000000e+00
   endloop
 endfacet
 facet normal  0.000000e+00  0.000000e+00  1.000000e+00
   outer loop
     vertex -1.810043e-01 -9.624167e-02  1.000000e+00
     vertex -2.162325e-01 -1.041321e-01  1.000000e+00
     vertex -2.011411e-01 -1.309284e-01  1.000000e+00
   endloop
 endfacet
 facet normal  0.000000e+00  0.000000e+00  1.000000e+00
   outer loop
     vertex -7.679435e-02 -1.900727e-01  1.000000e+00
     vertex -1.025000e-01 -1.775352e-01  1.000000e+00
     vertex -1.110092e-01 -2.127838e-01  1.000000e+00
   endloop
 endfacet
 facet normal  0.000000e+00  0.000000e+00  1.000000e+00
   outer loop
     vertex -7.679435e-02 -1.900727e-01  1.000000e+00
     vertex -1.110092e-01 -2.127838e-01  1.000000e+00
     vertex -8.288761e-02 -2.252324e-01  1.000000e+00
   endloop
 endfacet
 facet normal  0.000000e+00  0.000000e+00  1.000000e+00
   outer loop
     vertex -1.926370e-01 -7.011413e-02  1.000000e+00
     vertex -2.162325e-01 -1.041321e-01  1.000000e+00
     vertex -1.810043e-01 -9.624167e-02  1.000000e+00
   endloop
 endfacet
 facet normal  0.000000e+00  0.000000e+00  1.000000e+00
   outer loop
     vertex -1.926370e-01 -7.011413e-02  1.000000e+00
     vertex -2.277734e-01 -7.562597e-02  1.000000e+00
     vertex -2.162325e-01 -1.041321e-01  1.000000e+00
   endloop
 endfacet
 facet normal  0.000000e+00  0.000000e+00  1.000000e+00
   outer loop
     vertex -4.959399e-02 -1.989106e-01  1.000000e+00
     vertex -7.679435e-02 -1.900727e-01  1.000000e+00
     vertex -8.288761e-02 -2.252324e-01  1.000000e+00
   endloop
 endfacet
 facet normal  0.000000e+00  0.000000e+00  1.000000e+00
   outer loop
     vertex -4.959399e-02 -1.989106e-01  1.000000e+00
     vertex -8.288761e-02 -2.252324e-01  1.000000e+00
     vertex -5.340502e-02 -2.339827e-01  1.000000e+00
   endloop
 endfacet
 facet normal  0.000000e+00  0.000000e+00  1.000000e+00
   outer loop
     vertex -2.005203e-01 -4.262190e-02  1.000000e+00
     vertex -2.355742e-01 -4.587807e-02  1.000000e+00
     vertex -2.277734e-01 -7.562597e-02  1.000000e+00
   endloop
 endfacet
 facet normal  0.000000e+00  0.000000e+00  1.000000e+00
   outer loop
     vertex -2.005203e-01 -4.262190e-02  1.000000e+00
     vertex -2.277734e-01 -7.562597e-02  1.000000e+00
     vertex -1.926370e-01 -7.011413e-02  1.000000e+00
   endloop
 endfacet
 facet normal  0.000000e+00  0.000000e+00  1.000000e+00
   outer loop
     vertex -2.142833e-02 -2.038770e-01  1.000000e+00
     vertex -4.959399e-02 -1.989106e-01  1.000000e+00
     vertex -5.340502e-02 -2.339827e-01  1.000000e+00
   endloop
 endfacet
 facet normal  0.000000e+00  0.000000e+00  1.000000e+00
   outer loop
     vertex -2.142833e-02 -2.038770e-01  1.000000e+00
     vertex -5.340502e-02 -2.339827e-01  1.000000e+00
     vertex -2.304553e-02 -2.388910e-01  1.000000e+00
   endloop
 endfacet
 facet normal  0.000000e+00  0.000000e+00  1.000000e+00
   outer loop
     vertex -2.045006e-01 -1.430008e-02  1.000000e+00
     vertex -2.355742e-01 -4.587807e-02  1.000000e+00
     vertex -2.005203e-01 -4.262190e-02  1.000000e+00
   endloop
 endfacet
 facet normal  0.000000e+00  0.000000e+00  1.000000e+00
   outer loop
     vertex -2.045006e-01 -1.430008e-02  1.000000e+00
     vertex -2.395069e-01 -1.537685e-02  1.000000e+00
     vertex -2.355742e-01 -4.587807e-02  1.000000e+00
   endloop
 endfacet
 facet normal  0.000000e+00  0.000000e+00  1.000000e+00
   outer loop
     vertex  7.154397e-03 -2.048751e-01  1.000000e+00
     vertex -2.304553e-02 -2.388910e-01  1.000000e+00
     vertex  7.692379e-03 -2.398767e-01  1.000000e+00
   endloop
 endfacet
 facet normal  0.000000e+00  0.000000e+00  1.000000e+00
   outer loop
     vertex  7.154397e-03 -2.048751e-01  1.000000e+00
     vertex -2.142833e-02 -2.038770e-01  1.000000e+00
     vertex -2.304553e-02 -2.388910e-01  1.000000e+00
   endloop
 endfacet
 facet normal  0.000000e+00  0.000000e+00  1.000000e+00
   outer loop
     vertex  7.154397e-03 -2.048751e-01  1.000000e+00
     vertex  7.692379e-03 -2.398767e-01  1.000000e+00
     vertex  3.830397e-02 -2.369236e-01  1.000000e+00
   endloop
 endfacet
 facet normal  0.000000e+00  0.000000e+00  1.000000e+00
   outer loop
     vertex -2.045006e-01  1.430008e-02  1.000000e+00
     vertex -2.395069e-01  1.537685e-02  1.000000e+00
     vertex -2.395069e-01 -1.537685e-02  1.000000e+00
   endloop
 endfacet
 facet normal  0.000000e+00  0.000000e+00  1.000000e+00
   outer loop
     vertex -2.045006e-01  1.430008e-02  1.000000e+00
     vertex -2.395069e-01 -1.537685e-02  1.000000e+00
     vertex -2.045006e-01 -1.430008e-02  1.000000e+00
   endloop
 endfacet
 facet normal  0.000000e+00  0.000000e+00  1.000000e+00
   outer loop
     vertex -2.355742e-01  4.587807e-02  1.000000e+00
     vertex -2.395069e-01  1.537685e-02  1.000000e+00
     vertex -2.045006e-01  1.430008e-02  1.000000e+00
   endloop
 endfacet
 facet normal  0.000000e+00  0.000000e+00  1.000000e+00
   outer loop
     vertex  3.559788e-02 -2.018856e-01  1.000000e+00
     vertex  7.154397e-03 -2.048751e-01  1.000000e+00
     vertex  3.830397e-02 -2.369236e-01  1.000000e+00
   endloop
 endfacet
 facet normal  0.000000e+00  0.000000e+00  1.000000e+00
   outer loop
     vertex  6.828662e-02 -2.300803e-01  1.000000e+00
     vertex  3.559788e-02 -2.018856e-01  1.000000e+00
     vertex  3.830397e-02 -2.369236e-01  1.000000e+00
   endloop
 endfacet
 facet normal  0.000000e+00  0.000000e+00  1.000000e+00
   outer loop
     vertex -2.005203e-01  4.262190e-02  1.000000e+00
     vertex -2.355742e-01  4.587807e-02  1.000000e+00
     vertex -2.045006e-01  1.430008e-02  1.000000e+00
   endloop
 endfacet
 facet normal  0.000000e+00  0.000000e+00  1.000000e+00
   outer loop
     vertex -2.277734e-01  7.562597e-02  1.000000e+00
     vertex -2.355742e-01  4.587807e-02  1.000000e+00
     vertex -2.005203e-01  4.262190e-02  1.000000e+00
   endloop
 endfacet
 facet normal  0.000000e+00  0.000000e+00  1.000000e+00
   outer loop
     vertex  6.334848e-02 -1.949666e-01  1.000000e+00
     vertex  3.559788e-02 -2.018856e-01  1.000000e+00
     vertex  6.828662e-02 -2.300803e-01  1.000000e+00
   endloop
 endfacet
 facet normal  0.000000e+00  0.000000e+00  1.000000e+00
   outer loop
     vertex -1.926370e-01  7.011413e-02  1.000000e+00
     vertex -2.277734e-01  7.562597e-02  1.000000e+00
     vertex -2.005203e-01  4.262190e-02  1.000000e+00
   endloop
 endfacet
 facet normal  0.000000e+00  0.000000e+00  1.000000e+00
   outer loop
     vertex  9.714800e-02 -2.194590e-01  1.000000e+00
     vertex  6.334848e-02 -1.949666e-01  1.000000e+00
     vertex  6.828662e-02 -2.300803e-01  1.000000e+00
   endloop
 endfacet
 facet normal  0.000000e+00  0.000000e+00  1.000000e+00
   outer loop
     vertex -2.162325e-01  1.041321e-01  1.000000e+00
     vertex -2.277734e-01  7.562597e-02  1.000000e+00
     vertex -1.926370e-01  7.011413e-02  1.000000e+00
   endloop
 endfacet
 facet normal  0.000000e+00  0.000000e+00  1.000000e+00
   outer loop
     vertex  8.986609e-02 -1.842528e-01  1.000000e+00
     vertex  6.334848e-02 -1.949666e-01  1.000000e+00
     vertex  9.714800e-02 -2.194590e-01  1.000000e+00
   endloop
 endfacet
 facet normal  0.000000e+00  0.000000e+00  1.000000e+00
   outer loop
     vertex -1.810043e-01  9.624167e-02  1.000000e+00
     vertex -2.162325e-01  1.041321e-01  1.000000e+00
     vertex -1.926370e-01  7.011413e-02  1.000000e+00
   endloop
 endfacet
 facet normal  0.000000e+00  0.000000e+00  1.000000e+00
   outer loop
     vertex  1.244142e-01 -2.052343e-01  1.000000e+00
     vertex  8.986609e-02 -1.842528e-01  1.000000e+00
     vertex  9.714800e-02 -2.194590e-01  1.000000e+00
   endloop
 endfacet
 facet normal  0.000000e+00  0.000000e+00  1.000000e+00
   outer loop
     vertex -2.011411e-01  1.309284e-01  1.000000e+00
     vertex -2.162325e-01  1.041321e-01  1.000000e+00
     vertex -1.810043e-01  9.624167e-02  1.000000e+00
   endloop
 endfacet
 facet normal  0.000000e+00  0.000000e+00  1.000000e+00
   outer loop
     vertex  1.146345e-01 -1.699527e-01  1.000000e+00
     vertex  8.986609e-02 -1.842528e-01  1.000000e+00
     vertex  1.244142e-01 -2.052343e-01  1.000000e+00
   endloop
 endfacet
 facet normal  0.000000e+00  0.000000e+00  1.000000e+00
   outer loop
     vertex -1.658485e-01  1.204960e-01  1.000000e+00
     vertex -2.011411e-01  1.309284e-01  1.000000e+00
     vertex -1.810043e-01  9.624167e-02  1.000000e+00
   endloop
 endfacet
 facet normal  0.000000e+00  0.000000e+00  1.000000e+00
   outer loop
     vertex  1.496376e-01 -1.876396e-01  1.000000e+00
     vertex  1.146345e-01 -1.699527e-01  1.000000e+00
     vertex  1.244142e-01 -2.052343e-01  1.000000e+00
   endloop
 endfacet
 facet normal  0.000000e+00  0.000000e+00  1.000000e+00
   outer loop
     vertex -1.827470e-01  1.555748e-01  1.000000e+00
     vertex -2.011411e-01  1.309284e-01  1.000000e+00
     vertex -1.658485e-01  1.204960e-01  1.000000e+00
   endloop
 endfacet
 facet normal  0.000000e+00  0.000000e+00  1.000000e+00
   outer loop
     vertex  1.371718e-01 -1.523447e-01  1.000000e+00
     vertex  1.146345e-01 -1.699527e-01  1.000000e+00
     vertex  1.496376e-01 -1.876396e-01  1.000000e+00
   endloop
 endfacet
 facet normal  0.000000e+00  0.000000e+00  1.000000e+00
   outer loop
     vertex -1.474647e-01  1.424050e-01  1.000000e+00
     vertex -1.827470e-01  1.555748e-01  1.000000e+00
     vertex -1.658485e-01  1.204960e-01  1.000000e+00
   endloop
 endfacet
 facet normal  0.000000e+00  0.000000e+00  1.000000e+00
   outer loop
     vertex  1.724038e-01 -1.669638e-01  1.000000e+00
     vertex  1.371718e-01 -1.523447e-01  1.000000e+00
     vertex  1.496376e-01 -1.876396e-01  1.000000e+00
   endloop
 endfacet
 facet normal  0.000000e+00  0.000000e+00  1.000000e+00
   outer loop
     vertex -1.613522e-01  1.776667e-01  1.000000e+00
     vertex -1.827470e-01  1.555748e-01  1.000000e+00
     vertex -1.474647e-01  1.424050e-01  1.000000e+00
   endloop
 endfacet
 facet normal  0.000000e+00  0.000000e+00  1.000000e+00
   outer loop
     vertex  1.570391e-01 -1.317715e-01  1.000000e+00
     vertex  1.371718e-01 -1.523447e-01  1.000000e+00
     vertex  1.724038e-01 -1.669638e-01  1.000000e+00
   endloop
 endfacet
 facet normal  0.000000e+00  0.000000e+00  1.000000e+00
   outer loop
     vertex -1.262106e-01  1.615422e-01  1.000000e+00
     vertex -1.613522e-01  1.776667e-01  1.000000e+00
     vertex -1.474647e-01  1.424050e-01  1.000000e+00
   endloop
 endfacet
 facet normal  0.000000e+00  0.000000e+00  1.000000e+00
   outer loop
     vertex  1.923393e-01 -1.435465e-01  1.000000e+00
     vertex  1.570391e-01 -1.317715e-01  1.000000e+00
     vertex  1.724038e-01 -1.669638e-01  1.000000e+00
   endloop
 endfacet
 facet normal  0.000000e+00  0.000000e+00  1.000000e+00
   outer loop
     vertex -1.373080e-01  1.968413e-01  1.000000e+00
     vertex -1.613522e-01  1.776667e-01  1.000000e+00
     vertex -1.262106e-01  1.615422e-01  1.000000e+00
   endloop
 endfacet
 facet normal  0.000000e+00  0.000000e+00  1.000000e+00
   outer loop
     vertex  1.738499e-01 -1.086334e-01  1.000000e+00
     vertex  1.570391e-01 -1.317715e-01  1.000000e+00
     vertex  1.923393e-01 -1.435465e-01  1.000000e+00
   endloop
 endfacet
 facet normal  0.000000e+00  0.000000e+00  1.000000e+00
   outer loop
     vertex -1.025000e-01  1.775352e-01  1.000000e+00
     vertex -1.373080e-01  1.968413e-01  1.000000e+00
     vertex -1.262106e-01  1.615422e-01  1.000000e+00
   endloop
 endfacet
 facet normal  0.000000e+00  0.000000e+00  1.000000e+00
   outer loop
     vertex  2.091165e-01 -1.177722e-01  1.000000e+00
     vertex  1.738499e-01 -1.086334e-01  1.000000e+00
     vertex  1.923393e-01 -1.435465e-01  1.000000e+00
   endloop
 endfacet
 facet normal  0.000000e+00  0.000000e+00  1.000000e+00
   outer loop
     vertex -1.110092e-01  2.127838e-01  1.000000e+00
     vertex -1.373080e-01  1.968413e-01  1.000000e+00
     vertex -1.025000e-01  1.775352e-01  1.000000e+00
   endloop
 endfacet
 facet normal  0.000000e+00  0.000000e+00  1.000000e+00
   outer loop
     vertex  1.872768e-01 -8.338101e-02  1.000000e+00
     vertex  1.738499e-01 -1.086334e-01  1.000000e+00
     vertex  2.091165e-01 -1.177722e-01  1.000000e+00
   endloop
 endfacet
 facet normal  0.000000e+00  0.000000e+00  1.000000e+00
   outer loop
     vertex -7.679435e-02  1.900727e-01  1.000000e+00
     vertex -1.110092e-01  2.127838e-01  1.000000e+00
     vertex -1.025000e-01  1.775352e-01  1.000000e+00
   endloop
 endfacet
 facet normal  0.000000e+00  0.000000e+00  1.000000e+00
   outer loop
     vertex  2.224600e-01 -9.006408e-02  1.000000e+00
     vertex  1.872768e-01 -8.338101e-02  1.000000e+00
     vertex  2.091165e-01 -1.177722e-01  1.000000e+00
   endloop
 endfacet
 facet normal  0.000000e+00  0.000000e+00  1.000000e+00
   outer loop
     vertex  1.970586e-01 -5.650566e-02  1.000000e+00
     vertex  1.872768e-01 -8.338101e-02  1.000000e+00
     vertex  2.224600e-01 -9.006408e-02  1.000000e+00
   endloop
 endfacet
 facet normal  0.000000e+00  0.000000e+00  1.000000e+00
   outer loop
     vertex -8.288761e-02  2.252324e-01  1.000000e+00
     vertex -1.110092e-01  2.127838e-01  1.000000e+00
     vertex -7.679435e-02  1.900727e-01  1.000000e+00
   endloop
 endfacet
 facet normal  0.000000e+00  0.000000e+00  1.000000e+00
   outer loop
     vertex -4.959399e-02  1.989106e-01  1.000000e+00
     vertex -8.288761e-02  2.252324e-01  1.000000e+00
     vertex -7.679435e-02  1.900727e-01  1.000000e+00
   endloop
 endfacet
 facet normal  0.000000e+00  0.000000e+00  1.000000e+00
   outer loop
     vertex  2.321508e-01 -6.087710e-02  1.000000e+00
     vertex  1.970586e-01 -5.650566e-02  1.000000e+00
     vertex  2.224600e-01 -9.006408e-02  1.000000e+00
   endloop
 endfacet
 facet normal  0.000000e+00  0.000000e+00  1.000000e+00
   outer loop
     vertex  2.030050e-01 -2.853049e-02  1.000000e+00
     vertex  1.970586e-01 -5.650566e-02  1.000000e+00
     vertex  2.321508e-01 -6.087710e-02  1.000000e+00
   endloop
 endfacet
 facet normal  0.000000e+00  0.000000e+00  1.000000e+00
   outer loop
     vertex -5.340502e-02  2.339827e-01  1.000000e+00
     vertex -8.288761e-02  2.252324e-01  1.000000e+00
     vertex -4.959399e-02  1.989106e-01  1.000000e+00
   endloop
 endfacet
 facet normal  0.000000e+00  0.000000e+00  1.000000e+00
   outer loop
     vertex -2.142833e-02  2.038770e-01  1.000000e+00
     vertex -5.340502e-02  2.339827e-01  1.000000e+00
     vertex -4.959399e-02  1.989106e-01  1.000000e+00
   endloop
 endfacet
 facet normal  0.000000e+00  0.000000e+00  1.000000e+00
   outer loop
     vertex  2.380296e-01 -3.069052e-02  1.000000e+00
     vertex  2.030050e-01 -2.853049e-02  1.000000e+00
     vertex  2.321508e-01 -6.087710e-02  1.000000e+00
   endloop
 endfacet
 facet normal  0.000000e+00  0.000000e+00  1.000000e+00
   outer loop
     vertex  2.380296e-01 -3.069052e-02  1.000000e+00
     vertex  2.050000e-01  0.000000e+00  1.000000e+00
     vertex  2.030050e-01 -2.853049e-02  1.000000e+00
   endloop
 endfacet
 facet normal  0.000000e+00  0.000000e+00  1.000000e+00
   outer loop
     vertex -2.304553e-02  2.388910e-01  1.000000e+00
     vertex -5.340502e-02  2.339827e-01  1.000000e+00
     vertex -2.142833e-02  2.038770e-01  1.000000e+00
   endloop
 endfacet
 facet normal  0.000000e+00  0.000000e+00  1.000000e+00
   outer loop
     vertex -2.304553e-02  2.388910e-01  1.000000e+00
     vertex -2.142833e-02  2.038770e-01  1.000000e+00
     vertex  7.154397e-03  2.048751e-01  1.000000e+00
   endloop
 endfacet
 facet normal  0.000000e+00  0.000000e+00  1.000000e+00
   outer loop
     vertex  2.400000e-01  0.000000e+00  1.000000e+00
     vertex  2.050000e-01  0.000000e+00  1.000000e+00
     vertex  2.380296e-01 -3.069052e-02  1.000000e+00
   endloop
 endfacet
 facet normal  0.000000e+00  0.000000e+00  1.000000e+00
   outer loop
     vertex  7.692379e-03  2.398767e-01  1.000000e+00
     vertex -2.304553e-02  2.388910e-01  1.000000e+00
     vertex  7.154397e-03  2.048751e-01  1.000000e+00
   endloop
 endfacet
 facet normal  0.000000e+00  0.000000e+00  1.000000e+00
   outer loop
     vertex  2.380296e-01  3.069052e-02  1.000000e+00
     vertex  2.050000e-01  0.000000e+00  1.000000e+00
     vertex  2.400000e-01  0.000000e+00  1.000000e+00
   endloop
 endfacet
 facet normal  0.000000e+00  0.000000e+00  1.000000e+00
   outer loop
     vertex  2.380296e-01  3.069052e-02  1.000000e+00
     vertex  2.030050e-01  2.853049e-02  1.000000e+00
     vertex  2.050000e-01  0.000000e+00  1.000000e+00
   endloop
 endfacet
 facet normal  0.000000e+00  0.000000e+00  1.000000e+00
   outer loop
     vertex  3.830397e-02  2.369236e-01  1.000000e+00
     vertex  7.692379e-03  2.398767e-01  1.000000e+00
     vertex  7.154397e-03  2.048751e-01  1.000000e+00
   endloop
 endfacet
 facet normal  0.000000e+00  0.000000e+00  1.000000e+00
   outer loop
     vertex  3.830397e-02  2.369236e-01  1.000000e+00
     vertex  7.154397e-03  2.048751e-01  1.000000e+00
     vertex  3.559788e-02  2.018856e-01  1.000000e+00
   endloop
 endfacet
 facet normal  0.000000e+00  0.000000e+00  1.000000e+00
   outer loop
     vertex  2.321508e-01  6.087710e-02  1.000000e+00
     vertex  1.970586e-01  5.650566e-02  1.000000e+00
     vertex  2.030050e-01  2.853049e-02  1.000000e+00
   endloop
 endfacet
 facet normal  0.000000e+00  0.000000e+00  1.000000e+00
   outer loop
     vertex  2.321508e-01  6.087710e-02  1.000000e+00
     vertex  2.030050e-01  2.853049e-02  1.000000e+00
     vertex  2.380296e-01  3.069052e-02  1.000000e+00
   endloop
 endfacet
 facet normal  0.000000e+00  0.000000e+00  1.000000e+00
   outer loop
     vertex  6.828662e-02  2.300803e-01  1.000000e+00
     vertex  3.559788e-02  2.018856e-01  1.000000e+00
     vertex  6.334848e-02  1.949666e-01  1.000000e+00
   endloop
 endfacet
 facet normal  0.000000e+00  0.000000e+00  1.000000e+00
   outer loop
     vertex  6.828662e-02  2.300803e-01  1.000000e+00
     vertex  3.830397e-02  2.369236e-01  1.000000e+00
     vertex  3.559788e-02  2.018856e-01  1.000000e+00
   endloop
 endfacet
 facet normal  0.000000e+00  0.000000e+00  1.000000e+00
   outer loop
     vertex  2.224600e-01  9.006408e-02  1.000000e+00
     vertex  1.970586e-01  5.650566e-02  1.000000e+00
     vertex  2.321508e-01  6.087710e-02  1.000000e+00
   endloop
 endfacet
 facet normal  0.000000e+00  0.000000e+00  1.000000e+00
   outer loop
     vertex  2.224600e-01  9.006408e-02  1.000000e+00
     vertex  1.872768e-01  8.338101e-02  1.000000e+00
     vertex  1.970586e-01  5.650566e-02  1.000000e+00
   endloop
 endfacet
 facet normal  0.000000e+00  0.000000e+00  1.000000e+00
   outer loop
     vertex  9.714800e-02  2.194590e-01  1.000000e+00
     vertex  6.334848e-02  1.949666e-01  1.000000e+00
     vertex  8.986609e-02  1.842528e-01  1.000000e+00
   endloop
 endfacet
 facet normal  0.000000e+00  0.000000e+00  1.000000e+00
   outer loop
     vertex  9.714800e-02  2.194590e-01  1.000000e+00
     vertex  6.828662e-02  2.300803e-01  1.000000e+00
     vertex  6.334848e-02  1.949666e-01  1.000000e+00
   endloop
 endfacet
 facet normal  0.000000e+00  0.000000e+00  1.000000e+00
   outer loop
     vertex  2.091165e-01  1.177722e-01  1.000000e+00
     vertex  1.738499e-01  1.086334e-01  1.000000e+00
     vertex  1.872768e-01  8.338101e-02  1.000000e+00
   endloop
 endfacet
 facet normal  0.000000e+00  0.000000e+00  1.000000e+00
   outer loop
     vertex  2.091165e-01  1.177722e-01  1.000000e+00
     vertex  1.872768e-01  8.338101e-02  1.000000e+00
     vertex  2.224600e-01  9.006408e-02  1.000000e+00
   endloop
 endfacet
 facet normal  0.000000e+00  0.000000e+00  1.000000e+00
   outer loop
     vertex  1.244142e-01  2.052343e-01  1.000000e+00
     vertex  9.714800e-02  2.194590e-01  1.000000e+00
     vertex  8.986609e-02  1.842528e-01  1.000000e+00
   endloop
 endfacet
 facet normal  0.000000e+00  0.000000e+00  1.000000e+00
   outer loop
     vertex  1.244142e-01  2.052343e-01  1.000000e+00
     vertex  8.986609e-02  1.842528e-01  1.000000e+00
     vertex  1.146345e-01  1.699527e-01  1.000000e+00
   endloop
 endfacet
 facet normal  0.000000e+00  0.000000e+00  1.000000e+00
   outer loop
     vertex  1.923393e-01  1.435465e-01  1.000000e+00
     vertex  1.570391e-01  1.317715e-01  1.000000e+00
     vertex  1.738499e-01  1.086334e-01  1.000000e+00
   endloop
 endfacet
 facet normal  0.000000e+00  0.000000e+00  1.000000e+00
   outer loop
     vertex  1.923393e-01  1.435465e-01  1.000000e+00
     vertex  1.738499e-01  1.086334e-01  1.000000e+00
     vertex  2.091165e-01  1.177722e-01  1.000000e+00
   endloop
 endfacet
 facet normal  0.000000e+00  0.000000e+00  1.000000e+00
   outer loop
     vertex  1.496376e-01  1.876396e-01  1.000000e+00
     vertex  1.146345e-01  1.699527e-01  1.000000e+00
     vertex  1.371718e-01  1.523447e-01  1.000000e+00
   endloop
 endfacet
 facet normal  0.000000e+00  0.000000e+00  1.000000e+00
   outer loop
     vertex  1.496376e-01  1.876396e-01  1.000000e+00
     vertex  1.244142e-01  2.052343e-01  1.000000e+00
     vertex  1.146345e-01  1.699527e-01  1.000000e+00
   endloop
 endfacet
 facet normal  0.000000e+00  0.000000e+00  1.000000e+00
   outer loop
     vertex  1.724038e-01  1.669638e-01  1.000000e+00
     vertex  1.371718e-01  1.523447e-01  1.000000e+00
     vertex  1.570391e-01  1.317715e-01  1.000000e+00
   endloop
 endfacet
 facet normal  0.000000e+00  0.000000e+00  1.000000e+00
   outer loop
     vertex  1.724038e-01  1.669638e-01  1.000000e+00
     vertex  1.496376e-01  1.876396e-01  1.000000e+00
     vertex  1.371718e-01  1.523447e-01  1.000000e+00
   endloop
 endfacet
 facet normal  0.000000e+00  0.000000e+00  1.000000e+00
   outer loop
     vertex  1.724038e-01  1.669638e-01  1.000000e+00
     vertex  1.570391e-01  1.317715e-01  1.000000e+00
     vertex  1.923393e-01  1.435465e-01  1.000000e+00
   endloop
 endfacet
endsolid
