solid 
 facet normal  9.927089e-01  0.000000e+00  1.205367e-01
   outer loop
     vertex  2.912825e-02  0.000000e+00  7.179470e-03
     vertex  3.000000e-02 -1.000000e+00  0.000000e+00
     vertex  3.000000e-02  0.000000e+00  0.000000e+00
   endloop
 endfacet
 facet normal  9.927089e-01  0.000000e+00  1.205367e-01
   outer loop
     vertex  2.912825e-02  0.000000e+00  7.179470e-03
     vertex  2.912825e-02 -1.000000e+00  7.179470e-03
     vertex  3.000000e-02 -1.000000e+00  0.000000e+00
   endloop
 endfacet
 facet normal  9.350162e-01  0.000000e+00  3.546049e-01
   outer loop
     vertex  2.656368e-02  0.000000e+00  1.394170e-02
     vertex  2.656368e-02 -1.000000e+00  1.394170e-02
     vertex  2.912825e-02 -1.000000e+00  7.179470e-03
   endloop
 endfacet
 facet normal  9.350162e-01  0.000000e+00  3.546049e-01
   outer loop
     vertex  2.656368e-02  0.000000e+00  1.394170e-02
     vertex  2.912825e-02 -1.000000e+00  7.179470e-03
     vertex  2.912825e-02  0.000000e+00  7.179470e-03
   endloop
 endfacet
 facet normal  8.229839e-01  0.000000e+00  5.680647e-01
   outer loop
     vertex  2.245532e-02  0.000000e+00  1.989368e-02
     vertex  2.245532e-02 -1.000000e+00  1.989368e-02
     vertex  2.656368e-02 -1.000000e+00  1.394170e-02
   endloop
 endfacet
 facet normal  8.229839e-01  0.000000e+00  5.680647e-01
   outer loop
     vertex  2.245532e-02  0.000000e+00  1.989368e-02
     vertex  2.656368e-02 -1.000000e+00  1.394170e-02
     vertex  2.656368e-02  0.000000e+00  1.394170e-02
   endloop
 endfacet
 facet normal  6.631227e-01  0.000000e+00  7.485107e-01
   outer loop
     vertex  1.704194e-02  0.000000e+00  2.468952e-02
     vertex  1.704194e-02 -1.000000e+00  2.468952e-02
     vertex  2.245532e-02 -1.000000e+00  1.989368e-02
   endloop
 endfacet
 facet normal  6.631227e-01  0.000000e+00  7.485107e-01
   outer loop
     vertex  1.704194e-02  0.000000e+00  2.468952e-02
     vertex  2.245532e-02 -1.000000e+00  1.989368e-02
     vertex  2.245532e-02  0.000000e+00  1.989368e-02
   endloop
 endfacet
 facet normal  4.647232e-01  0.000000e+00  8.854560e-01
   outer loop
     vertex  1.063815e-02  0.000000e+00  2.805049e-02
     vertex  1.063815e-02 -1.000000e+00  2.805049e-02
     vertex  1.704194e-02 -1.000000e+00  2.468952e-02
   endloop
 endfacet
 facet normal  4.647232e-01  0.000000e+00  8.854560e-01
   outer loop
     vertex  1.063815e-02  0.000000e+00  2.805049e-02
     vertex  1.704194e-02 -1.000000e+00  2.468952e-02
     vertex  1.704194e-02  0.000000e+00  2.468952e-02
   endloop
 endfacet
 facet normal  2.393157e-01  0.000000e+00  9.709418e-01
   outer loop
     vertex  3.616100e-03  0.000000e+00  2.978127e-02
     vertex  3.616100e-03 -1.000000e+00  2.978127e-02
     vertex  1.063815e-02 -1.000000e+00  2.805049e-02
   endloop
 endfacet
 facet normal  2.393157e-01  0.000000e+00  9.709418e-01
   outer loop
     vertex  3.616100e-03  0.000000e+00  2.978127e-02
     vertex  1.063815e-02 -1.000000e+00  2.805049e-02
     vertex  1.063815e-02  0.000000e+00  2.805049e-02
   endloop
 endfacet
 facet normal  0.000000e+00  0.000000e+00  1.000000e+00
   outer loop
     vertex -3.616100e-03  0.000000e+00  2.978127e-02
     vertex -3.616100e-03 -1.000000e+00  2.978127e-02
     vertex  3.616100e-03 -1.000000e+00  2.978127e-02
   endloop
 endfacet
 facet normal -0.000000e+00  0.000000e+00  1.000000e+00
   outer loop
     vertex -3.616100e-03  0.000000e+00  2.978127e-02
     vertex  3.616100e-03 -1.000000e+00  2.978127e-02
     vertex  3.616100e-03  0.000000e+00  2.978127e-02
   endloop
 endfacet
 facet normal -2.393157e-01  0.000000e+00  9.709418e-01
   outer loop
     vertex -1.063815e-02  0.000000e+00  2.805049e-02
     vertex -1.063815e-02 -1.000000e+00  2.805049e-02
     vertex -3.616100e-03 -1.000000e+00  2.978127e-02
   endloop
 endfacet
 facet normal -2.393157e-01  0.000000e+00  9.709418e-01
   outer loop
     vertex -1.063815e-02  0.000000e+00  2.805049e-02
     vertex -3.616100e-03 -1.000000e+00  2.978127e-02
     vertex -3.616100e-03  0.000000e+00  2.978127e-02
   endloop
 endfacet
 facet normal -4.647232e-01  0.000000e+00  8.854560e-01
   outer loop
     vertex -1.704194e-02  0.000000e+00  2.468952e-02
     vertex -1.704194e-02 -1.000000e+00  2.468952e-02
     vertex -1.063815e-02 -1.000000e+00  2.805049e-02
   endloop
 endfacet
 facet normal -4.647232e-01  0.000000e+00  8.854560e-01
   outer loop
     vertex -1.704194e-02  0.000000e+00  2.468952e-02
     vertex -1.063815e-02 -1.000000e+00  2.805049e-02
     vertex -1.063815e-02  0.000000e+00  2.805049e-02
   endloop
 endfacet
 facet normal -6.631227e-01  0.000000e+00  7.485107e-01
   outer loop
     vertex -2.245532e-02  0.000000e+00  1.989368e-02
     vertex -2.245532e-02 -1.000000e+00  1.989368e-02
     vertex -1.704194e-02 -1.000000e+00  2.468952e-02
   endloop
 endfacet
 facet normal -6.631227e-01  0.000000e+00  7.485107e-01
   outer loop
     vertex -2.245532e-02  0.000000e+00  1.989368e-02
     vertex -1.704194e-02 -1.000000e+00  2.468952e-02
     vertex -1.704194e-02  0.000000e+00  2.468952e-02
   endloop
 endfacet
 facet normal -8.229839e-01  0.000000e+00  5.680647e-01
   outer loop
     vertex -2.656368e-02  0.000000e+00  1.394170e-02
     vertex -2.656368e-02 -1.000000e+00  1.394170e-02
     vertex -2.245532e-02 -1.000000e+00  1.989368e-02
   endloop
 endfacet
 facet normal -8.229839e-01  0.000000e+00  5.680647e-01
   outer loop
     vertex -2.656368e-02  0.000000e+00  1.394170e-02
     vertex -2.245532e-02 -1.000000e+00  1.989368e-02
     vertex -2.245532e-02  0.000000e+00  1.989368e-02
   endloop
 endfacet
 facet normal -9.350162e-01  0.000000e+00  3.546049e-01
   outer loop
     vertex -2.912825e-02  0.000000e+00  7.179470e-03
     vertex -2.656368e-02 -1.000000e+00  1.394170e-02
     vertex -2.656368e-02  0.000000e+00  1.394170e-02
   endloop
 endfacet
 facet normal -9.350162e-01  0.000000e+00  3.546049e-01
   outer loop
     vertex -2.912825e-02  0.000000e+00  7.179470e-03
     vertex -2.912825e-02 -1.000000e+00  7.179470e-03
     vertex -2.656368e-02 -1.000000e+00  1.394170e-02
   endloop
 endfacet
 facet normal -9.927089e-01  0.000000e+00  1.205367e-01
   outer loop
     vertex -3.000000e-02  0.000000e+00  3.031929e-17
     vertex -2.912825e-02 -1.000000e+00  7.179470e-03
     vertex -2.912825e-02  0.000000e+00  7.179470e-03
   endloop
 endfacet
 facet normal -9.927089e-01  0.000000e+00  1.205367e-01
   outer loop
     vertex -3.000000e-02  0.000000e+00  3.031929e-17
     vertex -3.000000e-02 -1.000000e+00  3.031929e-17
     vertex -2.912825e-02 -1.000000e+00  7.179470e-03
   endloop
 endfacet
 facet normal -9.927089e-01 -0.000000e+00 -1.205367e-01
   outer loop
     vertex -2.912825e-02  0.000000e+00 -7.179470e-03
     vertex -2.912825e-02 -1.000000e+00 -7.179470e-03
     vertex -3.000000e-02 -1.000000e+00  3.031929e-17
   endloop
 endfacet
 facet normal -9.927089e-01  0.000000e+00 -1.205367e-01
   outer loop
     vertex -2.912825e-02  0.000000e+00 -7.179470e-03
     vertex -3.000000e-02 -1.000000e+00  3.031929e-17
     vertex -3.000000e-02  0.000000e+00  3.031929e-17
   endloop
 endfacet
 facet normal -9.350162e-01 -0.000000e+00 -3.546049e-01
   outer loop
     vertex -2.912825e-02  0.000000e+00 -7.179470e-03
     vertex -2.656368e-02 -1.000000e+00 -1.394170e-02
     vertex -2.912825e-02 -1.000000e+00 -7.179470e-03
   endloop
 endfacet
 facet normal -9.350162e-01 -0.000000e+00 -3.546049e-01
   outer loop
     vertex -2.656368e-02  0.000000e+00 -1.394170e-02
     vertex -2.656368e-02 -1.000000e+00 -1.394170e-02
     vertex -2.912825e-02  0.000000e+00 -7.179470e-03
   endloop
 endfacet
 facet normal -8.229839e-01 -0.000000e+00 -5.680647e-01
   outer loop
     vertex -2.245532e-02  0.000000e+00 -1.989368e-02
     vertex -2.245532e-02 -1.000000e+00 -1.989368e-02
     vertex -2.656368e-02 -1.000000e+00 -1.394170e-02
   endloop
 endfacet
 facet normal -6.631227e-01 -0.000000e+00 -7.485107e-01
   outer loop
     vertex -2.245532e-02  0.000000e+00 -1.989368e-02
     vertex -1.704194e-02 -1.000000e+00 -2.468952e-02
     vertex -2.245532e-02 -1.000000e+00 -1.989368e-02
   endloop
 endfacet
 facet normal -8.229839e-01  0.000000e+00 -5.680647e-01
   outer loop
     vertex -2.245532e-02  0.000000e+00 -1.989368e-02
     vertex -2.656368e-02 -1.000000e+00 -1.394170e-02
     vertex -2.656368e-02  0.000000e+00 -1.394170e-02
   endloop
 endfacet
 facet normal -6.631227e-01 -0.000000e+00 -7.485107e-01
   outer loop
     vertex -1.704194e-02  0.000000e+00 -2.468952e-02
     vertex -1.704194e-02 -1.000000e+00 -2.468952e-02
     vertex -2.245532e-02  0.000000e+00 -1.989368e-02
   endloop
 endfacet
 facet normal -4.647232e-01 -0.000000e+00 -8.854560e-01
   outer loop
     vertex -1.063815e-02  0.000000e+00 -2.805049e-02
     vertex -1.063815e-02 -1.000000e+00 -2.805049e-02
     vertex -1.704194e-02 -1.000000e+00 -2.468952e-02
   endloop
 endfacet
 facet normal -4.647232e-01  0.000000e+00 -8.854560e-01
   outer loop
     vertex -1.063815e-02  0.000000e+00 -2.805049e-02
     vertex -1.704194e-02 -1.000000e+00 -2.468952e-02
     vertex -1.704194e-02  0.000000e+00 -2.468952e-02
   endloop
 endfacet
 facet normal -2.393157e-01 -0.000000e+00 -9.709418e-01
   outer loop
     vertex -3.616100e-03  0.000000e+00 -2.978127e-02
     vertex -3.616100e-03 -1.000000e+00 -2.978127e-02
     vertex -1.063815e-02 -1.000000e+00 -2.805049e-02
   endloop
 endfacet
 facet normal -2.398611e-15 -0.000000e+00 -1.000000e+00
   outer loop
     vertex -3.616100e-03  0.000000e+00 -2.978127e-02
     vertex  3.616100e-03 -1.000000e+00 -2.978127e-02
     vertex -3.616100e-03 -1.000000e+00 -2.978127e-02
   endloop
 endfacet
 facet normal -2.393157e-01  0.000000e+00 -9.709418e-01
   outer loop
     vertex -3.616100e-03  0.000000e+00 -2.978127e-02
     vertex -1.063815e-02 -1.000000e+00 -2.805049e-02
     vertex -1.063815e-02  0.000000e+00 -2.805049e-02
   endloop
 endfacet
 facet normal -2.398611e-15 -0.000000e+00 -1.000000e+00
   outer loop
     vertex  3.616100e-03  0.000000e+00 -2.978127e-02
     vertex  3.616100e-03 -1.000000e+00 -2.978127e-02
     vertex -3.616100e-03  0.000000e+00 -2.978127e-02
   endloop
 endfacet
 facet normal  2.393157e-01  0.000000e+00 -9.709418e-01
   outer loop
     vertex  1.063815e-02  0.000000e+00 -2.805049e-02
     vertex  1.063815e-02 -1.000000e+00 -2.805049e-02
     vertex  3.616100e-03 -1.000000e+00 -2.978127e-02
   endloop
 endfacet
 facet normal  4.647232e-01  0.000000e+00 -8.854560e-01
   outer loop
     vertex  1.063815e-02  0.000000e+00 -2.805049e-02
     vertex  1.704194e-02 -1.000000e+00 -2.468952e-02
     vertex  1.063815e-02 -1.000000e+00 -2.805049e-02
   endloop
 endfacet
 facet normal  2.393157e-01  0.000000e+00 -9.709418e-01
   outer loop
     vertex  1.063815e-02  0.000000e+00 -2.805049e-02
     vertex  3.616100e-03 -1.000000e+00 -2.978127e-02
     vertex  3.616100e-03  0.000000e+00 -2.978127e-02
   endloop
 endfacet
 facet normal  4.647232e-01  0.000000e+00 -8.854560e-01
   outer loop
     vertex  1.704194e-02  0.000000e+00 -2.468952e-02
     vertex  1.704194e-02 -1.000000e+00 -2.468952e-02
     vertex  1.063815e-02  0.000000e+00 -2.805049e-02
   endloop
 endfacet
 facet normal  6.631227e-01  0.000000e+00 -7.485107e-01
   outer loop
     vertex  2.245532e-02  0.000000e+00 -1.989368e-02
     vertex  2.245532e-02 -1.000000e+00 -1.989368e-02
     vertex  1.704194e-02 -1.000000e+00 -2.468952e-02
   endloop
 endfacet
 facet normal  8.229839e-01  0.000000e+00 -5.680647e-01
   outer loop
     vertex  2.245532e-02  0.000000e+00 -1.989368e-02
     vertex  2.656368e-02 -1.000000e+00 -1.394170e-02
     vertex  2.245532e-02 -1.000000e+00 -1.989368e-02
   endloop
 endfacet
 facet normal  6.631227e-01  0.000000e+00 -7.485107e-01
   outer loop
     vertex  2.245532e-02  0.000000e+00 -1.989368e-02
     vertex  1.704194e-02 -1.000000e+00 -2.468952e-02
     vertex  1.704194e-02  0.000000e+00 -2.468952e-02
   endloop
 endfacet
 facet normal  8.229839e-01  0.000000e+00 -5.680647e-01
   outer loop
     vertex  2.656368e-02  0.000000e+00 -1.394170e-02
     vertex  2.656368e-02 -1.000000e+00 -1.394170e-02
     vertex  2.245532e-02  0.000000e+00 -1.989368e-02
   endloop
 endfacet
 facet normal  9.350162e-01  0.000000e+00 -3.546049e-01
   outer loop
     vertex  2.912825e-02  0.000000e+00 -7.179470e-03
     vertex  2.912825e-02 -1.000000e+00 -7.179470e-03
     vertex  2.656368e-02 -1.000000e+00 -1.394170e-02
   endloop
 endfacet
 facet normal  9.350162e-01  0.000000e+00 -3.546049e-01
   outer loop
     vertex  2.912825e-02  0.000000e+00 -7.179470e-03
     vertex  2.656368e-02 -1.000000e+00 -1.394170e-02
     vertex  2.656368e-02  0.000000e+00 -1.394170e-02
   endloop
 endfacet
 facet normal  9.927089e-01  0.000000e+00 -1.205367e-01
   outer loop
     vertex  3.000000e-02  0.000000e+00  0.000000e+00
     vertex  3.000000e-02 -1.000000e+00  0.000000e+00
     vertex  2.912825e-02 -1.000000e+00 -7.179470e-03
   endloop
 endfacet
 facet normal  9.927089e-01  0.000000e+00 -1.205367e-01
   outer loop
     vertex  3.000000e-02  0.000000e+00  0.000000e+00
     vertex  2.912825e-02 -1.000000e+00 -7.179470e-03
     vertex  2.912825e-02  0.000000e+00 -7.179470e-03
   endloop
 endfacet
 facet normal  0.000000e+00  1.000000e+00  0.000000e+00
   outer loop
     vertex  2.245532e-02  0.000000e+00  1.989368e-02
     vertex  2.912825e-02  0.000000e+00  7.179470e-03
     vertex  3.000000e-02  0.000000e+00  0.000000e+00
   endloop
 endfacet
 facet normal  0.000000e+00  1.000000e+00  0.000000e+00
   outer loop
     vertex  2.245532e-02  0.000000e+00  1.989368e-02
     vertex  2.656368e-02  0.000000e+00  1.394170e-02
     vertex  2.912825e-02  0.000000e+00  7.179470e-03
   endloop
 endfacet
 facet normal  0.000000e+00  1.000000e+00  0.000000e+00
   outer loop
     vertex  2.245532e-02  0.000000e+00  1.989368e-02
     vertex  1.063815e-02  0.000000e+00  2.805049e-02
     vertex  1.704194e-02  0.000000e+00  2.468952e-02
   endloop
 endfacet
 facet normal  0.000000e+00  1.000000e+00  0.000000e+00
   outer loop
     vertex  2.245532e-02  0.000000e+00  1.989368e-02
     vertex  3.616100e-03  0.000000e+00  2.978127e-02
     vertex  1.063815e-02  0.000000e+00  2.805049e-02
   endloop
 endfacet
 facet normal  0.000000e+00  1.000000e+00  0.000000e+00
   outer loop
     vertex  2.245532e-02  0.000000e+00  1.989368e-02
     vertex -3.616100e-03  0.000000e+00  2.978127e-02
     vertex  3.616100e-03  0.000000e+00  2.978127e-02
   endloop
 endfacet
 facet normal  0.000000e+00  1.000000e+00  0.000000e+00
   outer loop
     vertex  2.245532e-02  0.000000e+00  1.989368e-02
     vertex -1.063815e-02  0.000000e+00  2.805049e-02
     vertex -3.616100e-03  0.000000e+00  2.978127e-02
   endloop
 endfacet
 facet normal  0.000000e+00  1.000000e+00  0.000000e+00
   outer loop
     vertex  2.245532e-02  0.000000e+00  1.989368e-02
     vertex -1.704194e-02  0.000000e+00  2.468952e-02
     vertex -1.063815e-02  0.000000e+00  2.805049e-02
   endloop
 endfacet
 facet normal  0.000000e+00  1.000000e+00  0.000000e+00
   outer loop
     vertex  2.245532e-02  0.000000e+00  1.989368e-02
     vertex -2.245532e-02  0.000000e+00  1.989368e-02
     vertex -1.704194e-02  0.000000e+00  2.468952e-02
   endloop
 endfacet
 facet normal  0.000000e+00  1.000000e+00  0.000000e+00
   outer loop
     vertex  2.245532e-02  0.000000e+00  1.989368e-02
     vertex -2.656368e-02  0.000000e+00  1.394170e-02
     vertex -2.245532e-02  0.000000e+00  1.989368e-02
   endloop
 endfacet
 facet normal  0.000000e+00  1.000000e+00  0.000000e+00
   outer loop
     vertex  2.245532e-02  0.000000e+00  1.989368e-02
     vertex -2.912825e-02  0.000000e+00  7.179470e-03
     vertex -2.656368e-02  0.000000e+00  1.394170e-02
   endloop
 endfacet
 facet normal  0.000000e+00  1.000000e+00  0.000000e+00
   outer loop
     vertex  2.245532e-02  0.000000e+00  1.989368e-02
     vertex -3.000000e-02  0.000000e+00  3.031929e-17
     vertex -2.912825e-02  0.000000e+00  7.179470e-03
   endloop
 endfacet
 facet normal  0.000000e+00  1.000000e+00  0.000000e+00
   outer loop
     vertex  2.245532e-02  0.000000e+00  1.989368e-02
     vertex -2.912825e-02  0.000000e+00 -7.179470e-03
     vertex -3.000000e-02  0.000000e+00  3.031929e-17
   endloop
 endfacet
 facet normal  0.000000e+00  1.000000e+00  0.000000e+00
   outer loop
     vertex  2.245532e-02  0.000000e+00  1.989368e-02
     vertex -2.656368e-02  0.000000e+00 -1.394170e-02
     vertex -2.912825e-02  0.000000e+00 -7.179470e-03
   endloop
 endfacet
 facet normal  0.000000e+00  1.000000e+00  0.000000e+00
   outer loop
     vertex  2.245532e-02  0.000000e+00  1.989368e-02
     vertex -2.245532e-02  0.000000e+00 -1.989368e-02
     vertex -2.656368e-02  0.000000e+00 -1.394170e-02
   endloop
 endfacet
 facet normal  0.000000e+00  1.000000e+00  0.000000e+00
   outer loop
     vertex  2.245532e-02  0.000000e+00  1.989368e-02
     vertex -1.704194e-02  0.000000e+00 -2.468952e-02
     vertex -2.245532e-02  0.000000e+00 -1.989368e-02
   endloop
 endfacet
 facet normal  0.000000e+00  1.000000e+00  0.000000e+00
   outer loop
     vertex  2.245532e-02  0.000000e+00  1.989368e-02
     vertex -1.063815e-02  0.000000e+00 -2.805049e-02
     vertex -1.704194e-02  0.000000e+00 -2.468952e-02
   endloop
 endfacet
 facet normal  0.000000e+00  1.000000e+00  0.000000e+00
   outer loop
     vertex  2.245532e-02  0.000000e+00  1.989368e-02
     vertex -3.616100e-03  0.000000e+00 -2.978127e-02
     vertex -1.063815e-02  0.000000e+00 -2.805049e-02
   endloop
 endfacet
 facet normal  0.000000e+00  1.000000e+00  0.000000e+00
   outer loop
     vertex  2.245532e-02  0.000000e+00  1.989368e-02
     vertex  3.616100e-03  0.000000e+00 -2.978127e-02
     vertex -3.616100e-03  0.000000e+00 -2.978127e-02
   endloop
 endfacet
 facet normal  0.000000e+00  1.000000e+00  0.000000e+00
   outer loop
     vertex  2.245532e-02  0.000000e+00  1.989368e-02
     vertex  1.063815e-02  0.000000e+00 -2.805049e-02
     vertex  3.616100e-03  0.000000e+00 -2.978127e-02
   endloop
 endfacet
 facet normal  0.000000e+00  1.000000e+00  0.000000e+00
   outer loop
     vertex  2.245532e-02  0.000000e+00  1.989368e-02
     vertex  1.704194e-02  0.000000e+00 -2.468952e-02
     vertex  1.063815e-02  0.000000e+00 -2.805049e-02
   endloop
 endfacet
 facet normal  0.000000e+00  1.000000e+00  0.000000e+00
   outer loop
     vertex  2.245532e-02  0.000000e+00  1.989368e-02
     vertex  2.245532e-02  0.000000e+00 -1.989368e-02
     vertex  1.704194e-02  0.000000e+00 -2.468952e-02
   endloop
 endfacet
 facet normal  0.000000e+00  1.000000e+00  0.000000e+00
   outer loop
     vertex  2.245532e-02  0.000000e+00  1.989368e-02
     vertex  2.656368e-02  0.000000e+00 -1.394170e-02
     vertex  2.245532e-02  0.000000e+00 -1.989368e-02
   endloop
 endfacet
 facet normal  0.000000e+00  1.000000e+00  0.000000e+00
   outer loop
     vertex  2.245532e-02  0.000000e+00  1.989368e-02
     vertex  2.912825e-02  0.000000e+00 -7.179470e-03
     vertex  2.656368e-02  0.000000e+00 -1.394170e-02
   endloop
 endfacet
 facet normal  0.000000e+00  1.000000e+00  0.000000e+00
   outer loop
     vertex  2.245532e-02  0.000000e+00  1.989368e-02
     vertex  3.000000e-02  0.000000e+00  0.000000e+00
     vertex  2.912825e-02  0.000000e+00 -7.179470e-03
   endloop
 endfacet
 facet normal  0.000000e+00 -1.000000e+00  0.000000e+00
   outer loop
     vertex  2.245532e-02 -1.000000e+00  1.989368e-02
     vertex  3.000000e-02 -1.000000e+00  0.000000e+00
     vertex  2.912825e-02 -1.000000e+00  7.179470e-03
   endloop
 endfacet
 facet normal  0.000000e+00 -1.000000e+00  0.000000e+00
   outer loop
     vertex  2.245532e-02 -1.000000e+00  1.989368e-02
     vertex  2.912825e-02 -1.000000e+00  7.179470e-03
     vertex  2.656368e-02 -1.000000e+00  1.394170e-02
   endloop
 endfacet
 facet normal  0.000000e+00 -1.000000e+00  0.000000e+00
   outer loop
     vertex  2.245532e-02 -1.000000e+00  1.989368e-02
     vertex  1.704194e-02 -1.000000e+00  2.468952e-02
     vertex  1.063815e-02 -1.000000e+00  2.805049e-02
   endloop
 endfacet
 facet normal  0.000000e+00 -1.000000e+00  0.000000e+00
   outer loop
     vertex  2.245532e-02 -1.000000e+00  1.989368e-02
     vertex  1.063815e-02 -1.000000e+00  2.805049e-02
     vertex  3.616100e-03 -1.000000e+00  2.978127e-02
   endloop
 endfacet
 facet normal  0.000000e+00 -1.000000e+00  0.000000e+00
   outer loop
     vertex  2.245532e-02 -1.000000e+00  1.989368e-02
     vertex  3.616100e-03 -1.000000e+00  2.978127e-02
     vertex -3.616100e-03 -1.000000e+00  2.978127e-02
   endloop
 endfacet
 facet normal  0.000000e+00 -1.000000e+00  0.000000e+00
   outer loop
     vertex  2.245532e-02 -1.000000e+00  1.989368e-02
     vertex -3.616100e-03 -1.000000e+00  2.978127e-02
     vertex -1.063815e-02 -1.000000e+00  2.805049e-02
   endloop
 endfacet
 facet normal  0.000000e+00 -1.000000e+00  0.000000e+00
   outer loop
     vertex  2.245532e-02 -1.000000e+00  1.989368e-02
     vertex -1.063815e-02 -1.000000e+00  2.805049e-02
     vertex -1.704194e-02 -1.000000e+00  2.468952e-02
   endloop
 endfacet
 facet normal  0.000000e+00 -1.000000e+00  0.000000e+00
   outer loop
     vertex  2.245532e-02 -1.000000e+00  1.989368e-02
     vertex -1.704194e-02 -1.000000e+00  2.468952e-02
     vertex -2.245532e-02 -1.000000e+00  1.989368e-02
   endloop
 endfacet
 facet normal -0.000000e+00 -1.000000e+00  0.000000e+00
   outer loop
     vertex  2.245532e-02 -1.000000e+00  1.989368e-02
     vertex -2.245532e-02 -1.000000e+00  1.989368e-02
     vertex -2.656368e-02 -1.000000e+00  1.394170e-02
   endloop
 endfacet
 facet normal  0.000000e+00 -1.000000e+00  0.000000e+00
   outer loop
     vertex  2.245532e-02 -1.000000e+00  1.989368e-02
     vertex -2.656368e-02 -1.000000e+00  1.394170e-02
     vertex -2.912825e-02 -1.000000e+00  7.179470e-03
   endloop
 endfacet
 facet normal  0.000000e+00 -1.000000e+00  0.000000e+00
   outer loop
     vertex  2.245532e-02 -1.000000e+00  1.989368e-02
     vertex -2.912825e-02 -1.000000e+00  7.179470e-03
     vertex -3.000000e-02 -1.000000e+00  3.031929e-17
   endloop
 endfacet
 facet normal  0.000000e+00 -1.000000e+00  0.000000e+00
   outer loop
     vertex  2.245532e-02 -1.000000e+00  1.989368e-02
     vertex -3.000000e-02 -1.000000e+00  3.031929e-17
     vertex -2.912825e-02 -1.000000e+00 -7.179470e-03
   endloop
 endfacet
 facet normal  0.000000e+00 -1.000000e+00  0.000000e+00
   outer loop
     vertex  2.245532e-02 -1.000000e+00  1.989368e-02
     vertex -2.912825e-02 -1.000000e+00 -7.179470e-03
     vertex -2.656368e-02 -1.000000e+00 -1.394170e-02
   endloop
 endfacet
 facet normal  0.000000e+00 -1.000000e+00  0.000000e+00
   outer loop
     vertex  2.245532e-02 -1.000000e+00  1.989368e-02
     vertex -2.656368e-02 -1.000000e+00 -1.394170e-02
     vertex -2.245532e-02 -1.000000e+00 -1.989368e-02
   endloop
 endfacet
 facet normal  0.000000e+00 -1.000000e+00  0.000000e+00
   outer loop
     vertex  2.245532e-02 -1.000000e+00  1.989368e-02
     vertex -2.245532e-02 -1.000000e+00 -1.989368e-02
     vertex -1.704194e-02 -1.000000e+00 -2.468952e-02
   endloop
 endfacet
 facet normal  0.000000e+00 -1.000000e+00  0.000000e+00
   outer loop
     vertex  2.245532e-02 -1.000000e+00  1.989368e-02
     vertex -1.704194e-02 -1.000000e+00 -2.468952e-02
     vertex -1.063815e-02 -1.000000e+00 -2.805049e-02
   endloop
 endfacet
 facet normal  0.000000e+00 -1.000000e+00  0.000000e+00
   outer loop
     vertex  2.245532e-02 -1.000000e+00  1.989368e-02
     vertex -1.063815e-02 -1.000000e+00 -2.805049e-02
     vertex -3.616100e-03 -1.000000e+00 -2.978127e-02
   endloop
 endfacet
 facet normal  0.000000e+00 -1.000000e+00  0.000000e+00
   outer loop
     vertex  2.245532e-02 -1.000000e+00  1.989368e-02
     vertex -3.616100e-03 -1.000000e+00 -2.978127e-02
     vertex  3.616100e-03 -1.000000e+00 -2.978127e-02
   endloop
 endfacet
 facet normal  0.000000e+00 -1.000000e+00  0.000000e+00
   outer loop
     vertex  2.245532e-02 -1.000000e+00  1.989368e-02
     vertex  3.616100e-03 -1.000000e+00 -2.978127e-02
     vertex  1.063815e-02 -1.000000e+00 -2.805049e-02
   endloop
 endfacet
 facet normal  0.000000e+00 -1.000000e+00  0.000000e+00
   outer loop
     vertex  2.245532e-02 -1.000000e+00  1.989368e-02
     vertex  1.063815e-02 -1.000000e+00 -2.805049e-02
     vertex  1.704194e-02 -1.000000e+00 -2.468952e-02
   endloop
 endfacet
 facet normal  0.000000e+00 -1.000000e+00  0.000000e+00
   outer loop
     vertex  2.245532e-02 -1.000000e+00  1.989368e-02
     vertex  1.704194e-02 -1.000000e+00 -2.468952e-02
     vertex  2.245532e-02 -1.000000e+00 -1.989368e-02
   endloop
 endfacet
 facet normal  0.000000e+00 -1.000000e+00 -0.000000e+00
   outer loop
     vertex  2.245532e-02 -1.000000e+00  1.989368e-02
     vertex  2.245532e-02 -1.000000e+00 -1.989368e-02
     vertex  2.656368e-02 -1.000000e+00 -1.394170e-02
   endloop
 endfacet
 facet normal  0.000000e+00 -1.000000e+00  0.000000e+00
   outer loop
     vertex  2.245532e-02 -1.000000e+00  1.989368e-02
     vertex  2.656368e-02 -1.000000e+00 -1.394170e-02
     vertex  2.912825e-02 -1.000000e+00 -7.179470e-03
   endloop
 endfacet
 facet normal  0.000000e+00 -1.000000e+00  0.000000e+00
   outer loop
     vertex  2.245532e-02 -1.000000e+00  1.989368e-02
     vertex  2.912825e-02 -1.000000e+00 -7.179470e-03
     vertex  3.000000e-02 -1.000000e+00  0.000000e+00
   endloop
 endfacet
 facet normal  9.927089e-01  0.000000e+00  1.205367e-01
   outer loop
     vertex  4.854709e-02 -2.000000e+02  1.196578e-02
     vertex  5.000000e-02 -2.001350e+02  0.000000e+00
     vertex  5.000000e-02 -2.000000e+02  0.000000e+00
   endloop
 endfacet
 facet normal  9.927089e-01  0.000000e+00  1.205367e-01
   outer loop
     vertex  4.854709e-02 -2.000000e+02  1.196578e-02
     vertex  4.854709e-02 -2.001350e+02  1.196578e-02
     vertex  5.000000e-02 -2.001350e+02  0.000000e+00
   endloop
 endfacet
 facet normal  9.350162e-01  0.000000e+00  3.546049e-01
   outer loop
     vertex  4.427280e-02 -2.000000e+02  2.323616e-02
     vertex  4.427280e-02 -2.001350e+02  2.323616e-02
     vertex  4.854709e-02 -2.001350e+02  1.196578e-02
   endloop
 endfacet
 facet normal  9.350162e-01  0.000000e+00  3.546049e-01
   outer loop
     vertex  4.427280e-02 -2.000000e+02  2.323616e-02
     vertex  4.854709e-02 -2.001350e+02  1.196578e-02
     vertex  4.854709e-02 -2.000000e+02  1.196578e-02
   endloop
 endfacet
 facet normal  8.229839e-01  0.000000e+00  5.680647e-01
   outer loop
     vertex  3.742554e-02 -2.000000e+02  3.315613e-02
     vertex  3.742554e-02 -2.001350e+02  3.315613e-02
     vertex  4.427280e-02 -2.001350e+02  2.323616e-02
   endloop
 endfacet
 facet normal  8.229839e-01  0.000000e+00  5.680647e-01
   outer loop
     vertex  3.742554e-02 -2.000000e+02  3.315613e-02
     vertex  4.427280e-02 -2.001350e+02  2.323616e-02
     vertex  4.427280e-02 -2.000000e+02  2.323616e-02
   endloop
 endfacet
 facet normal  6.631227e-01  0.000000e+00  7.485107e-01
   outer loop
     vertex  2.840324e-02 -2.000000e+02  4.114919e-02
     vertex  2.840324e-02 -2.001350e+02  4.114919e-02
     vertex  3.742554e-02 -2.001350e+02  3.315613e-02
   endloop
 endfacet
 facet normal  6.631227e-01  0.000000e+00  7.485107e-01
   outer loop
     vertex  2.840324e-02 -2.000000e+02  4.114919e-02
     vertex  3.742554e-02 -2.001350e+02  3.315613e-02
     vertex  3.742554e-02 -2.000000e+02  3.315613e-02
   endloop
 endfacet
 facet normal  4.647232e-01  0.000000e+00  8.854560e-01
   outer loop
     vertex  1.773024e-02 -2.000000e+02  4.675081e-02
     vertex  1.773024e-02 -2.001350e+02  4.675081e-02
     vertex  2.840324e-02 -2.001350e+02  4.114919e-02
   endloop
 endfacet
 facet normal  4.647232e-01  0.000000e+00  8.854560e-01
   outer loop
     vertex  1.773024e-02 -2.000000e+02  4.675081e-02
     vertex  2.840324e-02 -2.001350e+02  4.114919e-02
     vertex  2.840324e-02 -2.000000e+02  4.114919e-02
   endloop
 endfacet
 facet normal  2.393157e-01  0.000000e+00  9.709418e-01
   outer loop
     vertex  6.026834e-03 -2.000000e+02  4.963544e-02
     vertex  6.026834e-03 -2.001350e+02  4.963544e-02
     vertex  1.773024e-02 -2.001350e+02  4.675081e-02
   endloop
 endfacet
 facet normal  2.393157e-01  0.000000e+00  9.709418e-01
   outer loop
     vertex  6.026834e-03 -2.000000e+02  4.963544e-02
     vertex  1.773024e-02 -2.001350e+02  4.675081e-02
     vertex  1.773024e-02 -2.000000e+02  4.675081e-02
   endloop
 endfacet
 facet normal  0.000000e+00  0.000000e+00  1.000000e+00
   outer loop
     vertex -6.026834e-03 -2.000000e+02  4.963544e-02
     vertex -6.026834e-03 -2.001350e+02  4.963544e-02
     vertex  6.026834e-03 -2.001350e+02  4.963544e-02
   endloop
 endfacet
 facet normal -0.000000e+00  0.000000e+00  1.000000e+00
   outer loop
     vertex -6.026834e-03 -2.000000e+02  4.963544e-02
     vertex  6.026834e-03 -2.001350e+02  4.963544e-02
     vertex  6.026834e-03 -2.000000e+02  4.963544e-02
   endloop
 endfacet
 facet normal -2.393157e-01  0.000000e+00  9.709418e-01
   outer loop
     vertex -1.773024e-02 -2.000000e+02  4.675081e-02
     vertex -1.773024e-02 -2.001350e+02  4.675081e-02
     vertex -6.026834e-03 -2.001350e+02  4.963544e-02
   endloop
 endfacet
 facet normal -2.393157e-01  0.000000e+00  9.709418e-01
   outer loop
     vertex -1.773024e-02 -2.000000e+02  4.675081e-02
     vertex -6.026834e-03 -2.001350e+02  4.963544e-02
     vertex -6.026834e-03 -2.000000e+02  4.963544e-02
   endloop
 endfacet
 facet normal -4.647232e-01  0.000000e+00  8.854560e-01
   outer loop
     vertex -2.840324e-02 -2.000000e+02  4.114919e-02
     vertex -2.840324e-02 -2.001350e+02  4.114919e-02
     vertex -1.773024e-02 -2.001350e+02  4.675081e-02
   endloop
 endfacet
 facet normal -4.647232e-01  0.000000e+00  8.854560e-01
   outer loop
     vertex -2.840324e-02 -2.000000e+02  4.114919e-02
     vertex -1.773024e-02 -2.001350e+02  4.675081e-02
     vertex -1.773024e-02 -2.000000e+02  4.675081e-02
   endloop
 endfacet
 facet normal -6.631227e-01  0.000000e+00  7.485107e-01
   outer loop
     vertex -3.742554e-02 -2.000000e+02  3.315613e-02
     vertex -3.742554e-02 -2.001350e+02  3.315613e-02
     vertex -2.840324e-02 -2.001350e+02  4.114919e-02
   endloop
 endfacet
 facet normal -6.631227e-01  0.000000e+00  7.485107e-01
   outer loop
     vertex -3.742554e-02 -2.000000e+02  3.315613e-02
     vertex -2.840324e-02 -2.001350e+02  4.114919e-02
     vertex -2.840324e-02 -2.000000e+02  4.114919e-02
   endloop
 endfacet
 facet normal -8.229839e-01  0.000000e+00  5.680647e-01
   outer loop
     vertex -4.427280e-02 -2.000000e+02  2.323616e-02
     vertex -3.742554e-02 -2.001350e+02  3.315613e-02
     vertex -3.742554e-02 -2.000000e+02  3.315613e-02
   endloop
 endfacet
 facet normal -8.229839e-01  0.000000e+00  5.680647e-01
   outer loop
     vertex -4.427280e-02 -2.000000e+02  2.323616e-02
     vertex -4.427280e-02 -2.001350e+02  2.323616e-02
     vertex -3.742554e-02 -2.001350e+02  3.315613e-02
   endloop
 endfacet
 facet normal -9.350162e-01  0.000000e+00  3.546049e-01
   outer loop
     vertex -4.854709e-02 -2.000000e+02  1.196578e-02
     vertex -4.427280e-02 -2.001350e+02  2.323616e-02
     vertex -4.427280e-02 -2.000000e+02  2.323616e-02
   endloop
 endfacet
 facet normal -9.350162e-01  0.000000e+00  3.546049e-01
   outer loop
     vertex -4.854709e-02 -2.000000e+02  1.196578e-02
     vertex -4.854709e-02 -2.001350e+02  1.196578e-02
     vertex -4.427280e-02 -2.001350e+02  2.323616e-02
   endloop
 endfacet
 facet normal -9.927089e-01  0.000000e+00  1.205367e-01
   outer loop
     vertex -5.000000e-02 -2.000000e+02  5.053215e-17
     vertex -4.854709e-02 -2.001350e+02  1.196578e-02
     vertex -4.854709e-02 -2.000000e+02  1.196578e-02
   endloop
 endfacet
 facet normal -9.927089e-01  0.000000e+00  1.205367e-01
   outer loop
     vertex -5.000000e-02 -2.000000e+02  5.053215e-17
     vertex -5.000000e-02 -2.001350e+02  5.053215e-17
     vertex -4.854709e-02 -2.001350e+02  1.196578e-02
   endloop
 endfacet
 facet normal -9.927089e-01 -0.000000e+00 -1.205367e-01
   outer loop
     vertex -4.854709e-02 -2.000000e+02 -1.196578e-02
     vertex -4.854709e-02 -2.001350e+02 -1.196578e-02
     vertex -5.000000e-02 -2.001350e+02  5.053215e-17
   endloop
 endfacet
 facet normal -9.927089e-01  0.000000e+00 -1.205367e-01
   outer loop
     vertex -4.854709e-02 -2.000000e+02 -1.196578e-02
     vertex -5.000000e-02 -2.001350e+02  5.053215e-17
     vertex -5.000000e-02 -2.000000e+02  5.053215e-17
   endloop
 endfacet
 facet normal -9.350162e-01  0.000000e+00 -3.546049e-01
   outer loop
     vertex -4.427280e-02 -2.000000e+02 -2.323616e-02
     vertex -4.854709e-02 -2.001350e+02 -1.196578e-02
     vertex -4.854709e-02 -2.000000e+02 -1.196578e-02
   endloop
 endfacet
 facet normal -9.350162e-01 -0.000000e+00 -3.546049e-01
   outer loop
     vertex -4.427280e-02 -2.000000e+02 -2.323616e-02
     vertex -4.427280e-02 -2.001350e+02 -2.323616e-02
     vertex -4.854709e-02 -2.001350e+02 -1.196578e-02
   endloop
 endfacet
 facet normal -8.229839e-01 -0.000000e+00 -5.680647e-01
   outer loop
     vertex -3.742554e-02 -2.000000e+02 -3.315613e-02
     vertex -3.742554e-02 -2.001350e+02 -3.315613e-02
     vertex -4.427280e-02 -2.001350e+02 -2.323616e-02
   endloop
 endfacet
 facet normal -8.229839e-01  0.000000e+00 -5.680647e-01
   outer loop
     vertex -3.742554e-02 -2.000000e+02 -3.315613e-02
     vertex -4.427280e-02 -2.001350e+02 -2.323616e-02
     vertex -4.427280e-02 -2.000000e+02 -2.323616e-02
   endloop
 endfacet
 facet normal -6.631227e-01 -0.000000e+00 -7.485107e-01
   outer loop
     vertex -2.840324e-02 -2.000000e+02 -4.114919e-02
     vertex -2.840324e-02 -2.001350e+02 -4.114919e-02
     vertex -3.742554e-02 -2.001350e+02 -3.315613e-02
   endloop
 endfacet
 facet normal -6.631227e-01  0.000000e+00 -7.485107e-01
   outer loop
     vertex -2.840324e-02 -2.000000e+02 -4.114919e-02
     vertex -3.742554e-02 -2.001350e+02 -3.315613e-02
     vertex -3.742554e-02 -2.000000e+02 -3.315613e-02
   endloop
 endfacet
 facet normal -4.647232e-01 -0.000000e+00 -8.854560e-01
   outer loop
     vertex -1.773024e-02 -2.000000e+02 -4.675081e-02
     vertex -1.773024e-02 -2.001350e+02 -4.675081e-02
     vertex -2.840324e-02 -2.001350e+02 -4.114919e-02
   endloop
 endfacet
 facet normal -4.647232e-01  0.000000e+00 -8.854560e-01
   outer loop
     vertex -1.773024e-02 -2.000000e+02 -4.675081e-02
     vertex -2.840324e-02 -2.001350e+02 -4.114919e-02
     vertex -2.840324e-02 -2.000000e+02 -4.114919e-02
   endloop
 endfacet
 facet normal -2.393157e-01 -0.000000e+00 -9.709418e-01
   outer loop
     vertex -6.026834e-03 -2.000000e+02 -4.963544e-02
     vertex -6.026834e-03 -2.001350e+02 -4.963544e-02
     vertex -1.773024e-02 -2.001350e+02 -4.675081e-02
   endloop
 endfacet
 facet normal -2.393157e-01  0.000000e+00 -9.709418e-01
   outer loop
     vertex -6.026834e-03 -2.000000e+02 -4.963544e-02
     vertex -1.773024e-02 -2.001350e+02 -4.675081e-02
     vertex -1.773024e-02 -2.000000e+02 -4.675081e-02
   endloop
 endfacet
 facet normal -2.302666e-15 -0.000000e+00 -1.000000e+00
   outer loop
     vertex  6.026834e-03 -2.000000e+02 -4.963544e-02
     vertex  6.026834e-03 -2.001350e+02 -4.963544e-02
     vertex -6.026834e-03 -2.001350e+02 -4.963544e-02
   endloop
 endfacet
 facet normal -2.302666e-15  0.000000e+00 -1.000000e+00
   outer loop
     vertex  6.026834e-03 -2.000000e+02 -4.963544e-02
     vertex -6.026834e-03 -2.001350e+02 -4.963544e-02
     vertex -6.026834e-03 -2.000000e+02 -4.963544e-02
   endloop
 endfacet
 facet normal  2.393157e-01  0.000000e+00 -9.709418e-01
   outer loop
     vertex  1.773024e-02 -2.000000e+02 -4.675081e-02
     vertex  1.773024e-02 -2.001350e+02 -4.675081e-02
     vertex  6.026834e-03 -2.001350e+02 -4.963544e-02
   endloop
 endfacet
 facet normal  2.393157e-01  0.000000e+00 -9.709418e-01
   outer loop
     vertex  1.773024e-02 -2.000000e+02 -4.675081e-02
     vertex  6.026834e-03 -2.001350e+02 -4.963544e-02
     vertex  6.026834e-03 -2.000000e+02 -4.963544e-02
   endloop
 endfacet
 facet normal  4.647232e-01  0.000000e+00 -8.854560e-01
   outer loop
     vertex  2.840324e-02 -2.000000e+02 -4.114919e-02
     vertex  2.840324e-02 -2.001350e+02 -4.114919e-02
     vertex  1.773024e-02 -2.001350e+02 -4.675081e-02
   endloop
 endfacet
 facet normal  4.647232e-01  0.000000e+00 -8.854560e-01
   outer loop
     vertex  2.840324e-02 -2.000000e+02 -4.114919e-02
     vertex  1.773024e-02 -2.001350e+02 -4.675081e-02
     vertex  1.773024e-02 -2.000000e+02 -4.675081e-02
   endloop
 endfacet
 facet normal  6.631227e-01  0.000000e+00 -7.485107e-01
   outer loop
     vertex  3.742554e-02 -2.000000e+02 -3.315613e-02
     vertex  3.742554e-02 -2.001350e+02 -3.315613e-02
     vertex  2.840324e-02 -2.001350e+02 -4.114919e-02
   endloop
 endfacet
 facet normal  8.229839e-01  0.000000e+00 -5.680647e-01
   outer loop
     vertex  3.742554e-02 -2.000000e+02 -3.315613e-02
     vertex  4.427280e-02 -2.001350e+02 -2.323616e-02
     vertex  3.742554e-02 -2.001350e+02 -3.315613e-02
   endloop
 endfacet
 facet normal  6.631227e-01  0.000000e+00 -7.485107e-01
   outer loop
     vertex  3.742554e-02 -2.000000e+02 -3.315613e-02
     vertex  2.840324e-02 -2.001350e+02 -4.114919e-02
     vertex  2.840324e-02 -2.000000e+02 -4.114919e-02
   endloop
 endfacet
 facet normal  8.229839e-01  0.000000e+00 -5.680647e-01
   outer loop
     vertex  4.427280e-02 -2.000000e+02 -2.323616e-02
     vertex  4.427280e-02 -2.001350e+02 -2.323616e-02
     vertex  3.742554e-02 -2.000000e+02 -3.315613e-02
   endloop
 endfacet
 facet normal  9.350162e-01  0.000000e+00 -3.546049e-01
   outer loop
     vertex  4.854709e-02 -2.000000e+02 -1.196578e-02
     vertex  4.854709e-02 -2.001350e+02 -1.196578e-02
     vertex  4.427280e-02 -2.001350e+02 -2.323616e-02
   endloop
 endfacet
 facet normal  9.350162e-01  0.000000e+00 -3.546049e-01
   outer loop
     vertex  4.854709e-02 -2.000000e+02 -1.196578e-02
     vertex  4.427280e-02 -2.001350e+02 -2.323616e-02
     vertex  4.427280e-02 -2.000000e+02 -2.323616e-02
   endloop
 endfacet
 facet normal  9.927089e-01  0.000000e+00 -1.205367e-01
   outer loop
     vertex  5.000000e-02 -2.000000e+02  0.000000e+00
     vertex  5.000000e-02 -2.001350e+02  0.000000e+00
     vertex  4.854709e-02 -2.001350e+02 -1.196578e-02
   endloop
 endfacet
 facet normal  9.927089e-01  0.000000e+00 -1.205367e-01
   outer loop
     vertex  5.000000e-02 -2.000000e+02  0.000000e+00
     vertex  4.854709e-02 -2.001350e+02 -1.196578e-02
     vertex  4.854709e-02 -2.000000e+02 -1.196578e-02
   endloop
 endfacet
 facet normal  0.000000e+00  1.000000e+00  0.000000e+00
   outer loop
     vertex  3.742554e-02 -2.000000e+02  3.315613e-02
     vertex  4.854709e-02 -2.000000e+02  1.196578e-02
     vertex  5.000000e-02 -2.000000e+02  0.000000e+00
   endloop
 endfacet
 facet normal  0.000000e+00  1.000000e+00  0.000000e+00
   outer loop
     vertex  3.742554e-02 -2.000000e+02  3.315613e-02
     vertex  4.427280e-02 -2.000000e+02  2.323616e-02
     vertex  4.854709e-02 -2.000000e+02  1.196578e-02
   endloop
 endfacet
 facet normal  0.000000e+00  1.000000e+00  0.000000e+00
   outer loop
     vertex  3.742554e-02 -2.000000e+02  3.315613e-02
     vertex  1.773024e-02 -2.000000e+02  4.675081e-02
     vertex  2.840324e-02 -2.000000e+02  4.114919e-02
   endloop
 endfacet
 facet normal  0.000000e+00  1.000000e+00  0.000000e+00
   outer loop
     vertex  3.742554e-02 -2.000000e+02  3.315613e-02
     vertex  6.026834e-03 -2.000000e+02  4.963544e-02
     vertex  1.773024e-02 -2.000000e+02  4.675081e-02
   endloop
 endfacet
 facet normal  0.000000e+00  1.000000e+00  0.000000e+00
   outer loop
     vertex  3.742554e-02 -2.000000e+02  3.315613e-02
     vertex -6.026834e-03 -2.000000e+02  4.963544e-02
     vertex  6.026834e-03 -2.000000e+02  4.963544e-02
   endloop
 endfacet
 facet normal  0.000000e+00  1.000000e+00  0.000000e+00
   outer loop
     vertex  3.742554e-02 -2.000000e+02  3.315613e-02
     vertex -1.773024e-02 -2.000000e+02  4.675081e-02
     vertex -6.026834e-03 -2.000000e+02  4.963544e-02
   endloop
 endfacet
 facet normal  0.000000e+00  1.000000e+00  0.000000e+00
   outer loop
     vertex  3.742554e-02 -2.000000e+02  3.315613e-02
     vertex -2.840324e-02 -2.000000e+02  4.114919e-02
     vertex -1.773024e-02 -2.000000e+02  4.675081e-02
   endloop
 endfacet
 facet normal  0.000000e+00  1.000000e+00  0.000000e+00
   outer loop
     vertex  3.742554e-02 -2.000000e+02  3.315613e-02
     vertex -3.742554e-02 -2.000000e+02  3.315613e-02
     vertex -2.840324e-02 -2.000000e+02  4.114919e-02
   endloop
 endfacet
 facet normal  0.000000e+00  1.000000e+00  0.000000e+00
   outer loop
     vertex  3.742554e-02 -2.000000e+02  3.315613e-02
     vertex -4.427280e-02 -2.000000e+02  2.323616e-02
     vertex -3.742554e-02 -2.000000e+02  3.315613e-02
   endloop
 endfacet
 facet normal  0.000000e+00  1.000000e+00  0.000000e+00
   outer loop
     vertex  3.742554e-02 -2.000000e+02  3.315613e-02
     vertex -4.854709e-02 -2.000000e+02  1.196578e-02
     vertex -4.427280e-02 -2.000000e+02  2.323616e-02
   endloop
 endfacet
 facet normal  0.000000e+00  1.000000e+00  0.000000e+00
   outer loop
     vertex  3.742554e-02 -2.000000e+02  3.315613e-02
     vertex -5.000000e-02 -2.000000e+02  5.053215e-17
     vertex -4.854709e-02 -2.000000e+02  1.196578e-02
   endloop
 endfacet
 facet normal  0.000000e+00  1.000000e+00  0.000000e+00
   outer loop
     vertex  3.742554e-02 -2.000000e+02  3.315613e-02
     vertex -4.854709e-02 -2.000000e+02 -1.196578e-02
     vertex -5.000000e-02 -2.000000e+02  5.053215e-17
   endloop
 endfacet
 facet normal  0.000000e+00  1.000000e+00  0.000000e+00
   outer loop
     vertex  3.742554e-02 -2.000000e+02  3.315613e-02
     vertex -4.427280e-02 -2.000000e+02 -2.323616e-02
     vertex -4.854709e-02 -2.000000e+02 -1.196578e-02
   endloop
 endfacet
 facet normal  0.000000e+00  1.000000e+00  0.000000e+00
   outer loop
     vertex  3.742554e-02 -2.000000e+02  3.315613e-02
     vertex -3.742554e-02 -2.000000e+02 -3.315613e-02
     vertex -4.427280e-02 -2.000000e+02 -2.323616e-02
   endloop
 endfacet
 facet normal  0.000000e+00  1.000000e+00  0.000000e+00
   outer loop
     vertex  3.742554e-02 -2.000000e+02  3.315613e-02
     vertex -2.840324e-02 -2.000000e+02 -4.114919e-02
     vertex -3.742554e-02 -2.000000e+02 -3.315613e-02
   endloop
 endfacet
 facet normal  0.000000e+00  1.000000e+00  0.000000e+00
   outer loop
     vertex  3.742554e-02 -2.000000e+02  3.315613e-02
     vertex -1.773024e-02 -2.000000e+02 -4.675081e-02
     vertex -2.840324e-02 -2.000000e+02 -4.114919e-02
   endloop
 endfacet
 facet normal  0.000000e+00  1.000000e+00  0.000000e+00
   outer loop
     vertex  3.742554e-02 -2.000000e+02  3.315613e-02
     vertex -6.026834e-03 -2.000000e+02 -4.963544e-02
     vertex -1.773024e-02 -2.000000e+02 -4.675081e-02
   endloop
 endfacet
 facet normal  0.000000e+00  1.000000e+00  0.000000e+00
   outer loop
     vertex  3.742554e-02 -2.000000e+02  3.315613e-02
     vertex  6.026834e-03 -2.000000e+02 -4.963544e-02
     vertex -6.026834e-03 -2.000000e+02 -4.963544e-02
   endloop
 endfacet
 facet normal  0.000000e+00  1.000000e+00  0.000000e+00
   outer loop
     vertex  3.742554e-02 -2.000000e+02  3.315613e-02
     vertex  1.773024e-02 -2.000000e+02 -4.675081e-02
     vertex  6.026834e-03 -2.000000e+02 -4.963544e-02
   endloop
 endfacet
 facet normal  0.000000e+00  1.000000e+00  0.000000e+00
   outer loop
     vertex  3.742554e-02 -2.000000e+02  3.315613e-02
     vertex  2.840324e-02 -2.000000e+02 -4.114919e-02
     vertex  1.773024e-02 -2.000000e+02 -4.675081e-02
   endloop
 endfacet
 facet normal  0.000000e+00  1.000000e+00  0.000000e+00
   outer loop
     vertex  3.742554e-02 -2.000000e+02  3.315613e-02
     vertex  3.742554e-02 -2.000000e+02 -3.315613e-02
     vertex  2.840324e-02 -2.000000e+02 -4.114919e-02
   endloop
 endfacet
 facet normal  0.000000e+00  1.000000e+00  0.000000e+00
   outer loop
     vertex  3.742554e-02 -2.000000e+02  3.315613e-02
     vertex  4.427280e-02 -2.000000e+02 -2.323616e-02
     vertex  3.742554e-02 -2.000000e+02 -3.315613e-02
   endloop
 endfacet
 facet normal  0.000000e+00  1.000000e+00  0.000000e+00
   outer loop
     vertex  3.742554e-02 -2.000000e+02  3.315613e-02
     vertex  4.854709e-02 -2.000000e+02 -1.196578e-02
     vertex  4.427280e-02 -2.000000e+02 -2.323616e-02
   endloop
 endfacet
 facet normal  0.000000e+00  1.000000e+00  0.000000e+00
   outer loop
     vertex  3.742554e-02 -2.000000e+02  3.315613e-02
     vertex  5.000000e-02 -2.000000e+02  0.000000e+00
     vertex  4.854709e-02 -2.000000e+02 -1.196578e-02
   endloop
 endfacet
 facet normal  0.000000e+00 -1.000000e+00  0.000000e+00
   outer loop
     vertex  3.742554e-02 -2.001350e+02  3.315613e-02
     vertex  5.000000e-02 -2.001350e+02  0.000000e+00
     vertex  4.854709e-02 -2.001350e+02  1.196578e-02
   endloop
 endfacet
 facet normal  0.000000e+00 -1.000000e+00  0.000000e+00
   outer loop
     vertex  3.742554e-02 -2.001350e+02  3.315613e-02
     vertex  4.854709e-02 -2.001350e+02  1.196578e-02
     vertex  4.427280e-02 -2.001350e+02  2.323616e-02
   endloop
 endfacet
 facet normal  0.000000e+00 -1.000000e+00  0.000000e+00
   outer loop
     vertex  3.742554e-02 -2.001350e+02  3.315613e-02
     vertex  2.840324e-02 -2.001350e+02  4.114919e-02
     vertex  1.773024e-02 -2.001350e+02  4.675081e-02
   endloop
 endfacet
 facet normal  0.000000e+00 -1.000000e+00  0.000000e+00
   outer loop
     vertex  3.742554e-02 -2.001350e+02  3.315613e-02
     vertex  1.773024e-02 -2.001350e+02  4.675081e-02
     vertex  6.026834e-03 -2.001350e+02  4.963544e-02
   endloop
 endfacet
 facet normal  0.000000e+00 -1.000000e+00  0.000000e+00
   outer loop
     vertex  3.742554e-02 -2.001350e+02  3.315613e-02
     vertex  6.026834e-03 -2.001350e+02  4.963544e-02
     vertex -6.026834e-03 -2.001350e+02  4.963544e-02
   endloop
 endfacet
 facet normal  0.000000e+00 -1.000000e+00  0.000000e+00
   outer loop
     vertex  3.742554e-02 -2.001350e+02  3.315613e-02
     vertex -6.026834e-03 -2.001350e+02  4.963544e-02
     vertex -1.773024e-02 -2.001350e+02  4.675081e-02
   endloop
 endfacet
 facet normal  0.000000e+00 -1.000000e+00  0.000000e+00
   outer loop
     vertex  3.742554e-02 -2.001350e+02  3.315613e-02
     vertex -1.773024e-02 -2.001350e+02  4.675081e-02
     vertex -2.840324e-02 -2.001350e+02  4.114919e-02
   endloop
 endfacet
 facet normal  0.000000e+00 -1.000000e+00  0.000000e+00
   outer loop
     vertex  3.742554e-02 -2.001350e+02  3.315613e-02
     vertex -2.840324e-02 -2.001350e+02  4.114919e-02
     vertex -3.742554e-02 -2.001350e+02  3.315613e-02
   endloop
 endfacet
 facet normal -0.000000e+00 -1.000000e+00  0.000000e+00
   outer loop
     vertex  3.742554e-02 -2.001350e+02  3.315613e-02
     vertex -3.742554e-02 -2.001350e+02  3.315613e-02
     vertex -4.427280e-02 -2.001350e+02  2.323616e-02
   endloop
 endfacet
 facet normal  0.000000e+00 -1.000000e+00  0.000000e+00
   outer loop
     vertex  3.742554e-02 -2.001350e+02  3.315613e-02
     vertex -4.427280e-02 -2.001350e+02  2.323616e-02
     vertex -4.854709e-02 -2.001350e+02  1.196578e-02
   endloop
 endfacet
 facet normal  0.000000e+00 -1.000000e+00  0.000000e+00
   outer loop
     vertex  3.742554e-02 -2.001350e+02  3.315613e-02
     vertex -4.854709e-02 -2.001350e+02  1.196578e-02
     vertex -5.000000e-02 -2.001350e+02  5.053215e-17
   endloop
 endfacet
 facet normal  0.000000e+00 -1.000000e+00  0.000000e+00
   outer loop
     vertex  3.742554e-02 -2.001350e+02  3.315613e-02
     vertex -5.000000e-02 -2.001350e+02  5.053215e-17
     vertex -4.854709e-02 -2.001350e+02 -1.196578e-02
   endloop
 endfacet
 facet normal  0.000000e+00 -1.000000e+00  0.000000e+00
   outer loop
     vertex  3.742554e-02 -2.001350e+02  3.315613e-02
     vertex -4.854709e-02 -2.001350e+02 -1.196578e-02
     vertex -4.427280e-02 -2.001350e+02 -2.323616e-02
   endloop
 endfacet
 facet normal  0.000000e+00 -1.000000e+00  0.000000e+00
   outer loop
     vertex  3.742554e-02 -2.001350e+02  3.315613e-02
     vertex -4.427280e-02 -2.001350e+02 -2.323616e-02
     vertex -3.742554e-02 -2.001350e+02 -3.315613e-02
   endloop
 endfacet
 facet normal  0.000000e+00 -1.000000e+00  0.000000e+00
   outer loop
     vertex  3.742554e-02 -2.001350e+02  3.315613e-02
     vertex -3.742554e-02 -2.001350e+02 -3.315613e-02
     vertex -2.840324e-02 -2.001350e+02 -4.114919e-02
   endloop
 endfacet
 facet normal  0.000000e+00 -1.000000e+00  0.000000e+00
   outer loop
     vertex  3.742554e-02 -2.001350e+02  3.315613e-02
     vertex -2.840324e-02 -2.001350e+02 -4.114919e-02
     vertex -1.773024e-02 -2.001350e+02 -4.675081e-02
   endloop
 endfacet
 facet normal  0.000000e+00 -1.000000e+00  0.000000e+00
   outer loop
     vertex  3.742554e-02 -2.001350e+02  3.315613e-02
     vertex -1.773024e-02 -2.001350e+02 -4.675081e-02
     vertex -6.026834e-03 -2.001350e+02 -4.963544e-02
   endloop
 endfacet
 facet normal  0.000000e+00 -1.000000e+00  0.000000e+00
   outer loop
     vertex  3.742554e-02 -2.001350e+02  3.315613e-02
     vertex -6.026834e-03 -2.001350e+02 -4.963544e-02
     vertex  6.026834e-03 -2.001350e+02 -4.963544e-02
   endloop
 endfacet
 facet normal  0.000000e+00 -1.000000e+00  0.000000e+00
   outer loop
     vertex  3.742554e-02 -2.001350e+02  3.315613e-02
     vertex  6.026834e-03 -2.001350e+02 -4.963544e-02
     vertex  1.773024e-02 -2.001350e+02 -4.675081e-02
   endloop
 endfacet
 facet normal  0.000000e+00 -1.000000e+00  0.000000e+00
   outer loop
     vertex  3.742554e-02 -2.001350e+02  3.315613e-02
     vertex  1.773024e-02 -2.001350e+02 -4.675081e-02
     vertex  2.840324e-02 -2.001350e+02 -4.114919e-02
   endloop
 endfacet
 facet normal  0.000000e+00 -1.000000e+00  0.000000e+00
   outer loop
     vertex  3.742554e-02 -2.001350e+02  3.315613e-02
     vertex  2.840324e-02 -2.001350e+02 -4.114919e-02
     vertex  3.742554e-02 -2.001350e+02 -3.315613e-02
   endloop
 endfacet
 facet normal  0.000000e+00 -1.000000e+00 -0.000000e+00
   outer loop
     vertex  3.742554e-02 -2.001350e+02  3.315613e-02
     vertex  3.742554e-02 -2.001350e+02 -3.315613e-02
     vertex  4.427280e-02 -2.001350e+02 -2.323616e-02
   endloop
 endfacet
 facet normal  0.000000e+00 -1.000000e+00  0.000000e+00
   outer loop
     vertex  3.742554e-02 -2.001350e+02  3.315613e-02
     vertex  4.427280e-02 -2.001350e+02 -2.323616e-02
     vertex  4.854709e-02 -2.001350e+02 -1.196578e-02
   endloop
 endfacet
 facet normal  0.000000e+00 -1.000000e+00  0.000000e+00
   outer loop
     vertex  3.742554e-02 -2.001350e+02  3.315613e-02
     vertex  4.854709e-02 -2.001350e+02 -1.196578e-02
     vertex  5.000000e-02 -2.001350e+02  0.000000e+00
   endloop
 endfacet
endsolid
