solid 
 facet normal  9.927089e-01  0.000000e+00  1.205367e-01
   outer loop
     vertex  4.854709e-02  0.000000e+00  1.196578e-02
     vertex  5.000000e-02 -1.000000e+00  0.000000e+00
     vertex  5.000000e-02  0.000000e+00  0.000000e+00
   endloop
 endfacet
 facet normal  9.927089e-01  0.000000e+00  1.205367e-01
   outer loop
     vertex  4.854709e-02  0.000000e+00  1.196578e-02
     vertex  4.854709e-02 -1.000000e+00  1.196578e-02
     vertex  5.000000e-02 -1.000000e+00  0.000000e+00
   endloop
 endfacet
 facet normal  9.350162e-01  0.000000e+00  3.546049e-01
   outer loop
     vertex  4.427280e-02  0.000000e+00  2.323616e-02
     vertex  4.427280e-02 -1.000000e+00  2.323616e-02
     vertex  4.854709e-02 -1.000000e+00  1.196578e-02
   endloop
 endfacet
 facet normal  9.350162e-01  0.000000e+00  3.546049e-01
   outer loop
     vertex  4.427280e-02  0.000000e+00  2.323616e-02
     vertex  4.854709e-02 -1.000000e+00  1.196578e-02
     vertex  4.854709e-02  0.000000e+00  1.196578e-02
   endloop
 endfacet
 facet normal  8.229839e-01  0.000000e+00  5.680647e-01
   outer loop
     vertex  3.742554e-02  0.000000e+00  3.315613e-02
     vertex  3.742554e-02 -1.000000e+00  3.315613e-02
     vertex  4.427280e-02 -1.000000e+00  2.323616e-02
   endloop
 endfacet
 facet normal  8.229839e-01  0.000000e+00  5.680647e-01
   outer loop
     vertex  3.742554e-02  0.000000e+00  3.315613e-02
     vertex  4.427280e-02 -1.000000e+00  2.323616e-02
     vertex  4.427280e-02  0.000000e+00  2.323616e-02
   endloop
 endfacet
 facet normal  6.631227e-01  0.000000e+00  7.485107e-01
   outer loop
     vertex  2.840324e-02  0.000000e+00  4.114919e-02
     vertex  2.840324e-02 -1.000000e+00  4.114919e-02
     vertex  3.742554e-02 -1.000000e+00  3.315613e-02
   endloop
 endfacet
 facet normal  6.631227e-01  0.000000e+00  7.485107e-01
   outer loop
     vertex  2.840324e-02  0.000000e+00  4.114919e-02
     vertex  3.742554e-02 -1.000000e+00  3.315613e-02
     vertex  3.742554e-02  0.000000e+00  3.315613e-02
   endloop
 endfacet
 facet normal  4.647232e-01  0.000000e+00  8.854560e-01
   outer loop
     vertex  1.773024e-02  0.000000e+00  4.675081e-02
     vertex  1.773024e-02 -1.000000e+00  4.675081e-02
     vertex  2.840324e-02 -1.000000e+00  4.114919e-02
   endloop
 endfacet
 facet normal  4.647232e-01  0.000000e+00  8.854560e-01
   outer loop
     vertex  1.773024e-02  0.000000e+00  4.675081e-02
     vertex  2.840324e-02 -1.000000e+00  4.114919e-02
     vertex  2.840324e-02  0.000000e+00  4.114919e-02
   endloop
 endfacet
 facet normal  2.393157e-01  0.000000e+00  9.709418e-01
   outer loop
     vertex  6.026834e-03  0.000000e+00  4.963544e-02
     vertex  6.026834e-03 -1.000000e+00  4.963544e-02
     vertex  1.773024e-02 -1.000000e+00  4.675081e-02
   endloop
 endfacet
 facet normal  2.393157e-01  0.000000e+00  9.709418e-01
   outer loop
     vertex  6.026834e-03  0.000000e+00  4.963544e-02
     vertex  1.773024e-02 -1.000000e+00  4.675081e-02
     vertex  1.773024e-02  0.000000e+00  4.675081e-02
   endloop
 endfacet
 facet normal  0.000000e+00  0.000000e+00  1.000000e+00
   outer loop
     vertex -6.026834e-03  0.000000e+00  4.963544e-02
     vertex -6.026834e-03 -1.000000e+00  4.963544e-02
     vertex  6.026834e-03 -1.000000e+00  4.963544e-02
   endloop
 endfacet
 facet normal -0.000000e+00  0.000000e+00  1.000000e+00
   outer loop
     vertex -6.026834e-03  0.000000e+00  4.963544e-02
     vertex  6.026834e-03 -1.000000e+00  4.963544e-02
     vertex  6.026834e-03  0.000000e+00  4.963544e-02
   endloop
 endfacet
 facet normal -2.393157e-01  0.000000e+00  9.709418e-01
   outer loop
     vertex -1.773024e-02  0.000000e+00  4.675081e-02
     vertex -1.773024e-02 -1.000000e+00  4.675081e-02
     vertex -6.026834e-03 -1.000000e+00  4.963544e-02
   endloop
 endfacet
 facet normal -2.393157e-01  0.000000e+00  9.709418e-01
   outer loop
     vertex -1.773024e-02  0.000000e+00  4.675081e-02
     vertex -6.026834e-03 -1.000000e+00  4.963544e-02
     vertex -6.026834e-03  0.000000e+00  4.963544e-02
   endloop
 endfacet
 facet normal -4.647232e-01  0.000000e+00  8.854560e-01
   outer loop
     vertex -2.840324e-02  0.000000e+00  4.114919e-02
     vertex -2.840324e-02 -1.000000e+00  4.114919e-02
     vertex -1.773024e-02 -1.000000e+00  4.675081e-02
   endloop
 endfacet
 facet normal -4.647232e-01  0.000000e+00  8.854560e-01
   outer loop
     vertex -2.840324e-02  0.000000e+00  4.114919e-02
     vertex -1.773024e-02 -1.000000e+00  4.675081e-02
     vertex -1.773024e-02  0.000000e+00  4.675081e-02
   endloop
 endfacet
 facet normal -6.631227e-01  0.000000e+00  7.485107e-01
   outer loop
     vertex -3.742554e-02  0.000000e+00  3.315613e-02
     vertex -3.742554e-02 -1.000000e+00  3.315613e-02
     vertex -2.840324e-02 -1.000000e+00  4.114919e-02
   endloop
 endfacet
 facet normal -6.631227e-01  0.000000e+00  7.485107e-01
   outer loop
     vertex -3.742554e-02  0.000000e+00  3.315613e-02
     vertex -2.840324e-02 -1.000000e+00  4.114919e-02
     vertex -2.840324e-02  0.000000e+00  4.114919e-02
   endloop
 endfacet
 facet normal -8.229839e-01  0.000000e+00  5.680647e-01
   outer loop
     vertex -4.427280e-02  0.000000e+00  2.323616e-02
     vertex -3.742554e-02 -1.000000e+00  3.315613e-02
     vertex -3.742554e-02  0.000000e+00  3.315613e-02
   endloop
 endfacet
 facet normal -8.229839e-01  0.000000e+00  5.680647e-01
   outer loop
     vertex -4.427280e-02  0.000000e+00  2.323616e-02
     vertex -4.427280e-02 -1.000000e+00  2.323616e-02
     vertex -3.742554e-02 -1.000000e+00  3.315613e-02
   endloop
 endfacet
 facet normal -9.350162e-01  0.000000e+00  3.546049e-01
   outer loop
     vertex -4.854709e-02  0.000000e+00  1.196578e-02
     vertex -4.427280e-02 -1.000000e+00  2.323616e-02
     vertex -4.427280e-02  0.000000e+00  2.323616e-02
   endloop
 endfacet
 facet normal -9.350162e-01  0.000000e+00  3.546049e-01
   outer loop
     vertex -4.854709e-02  0.000000e+00  1.196578e-02
     vertex -4.854709e-02 -1.000000e+00  1.196578e-02
     vertex -4.427280e-02 -1.000000e+00  2.323616e-02
   endloop
 endfacet
 facet normal -9.927089e-01  0.000000e+00  1.205367e-01
   outer loop
     vertex -4.854709e-02  0.000000e+00  1.196578e-02
     vertex -5.000000e-02 -1.000000e+00  5.053215e-17
     vertex -4.854709e-02 -1.000000e+00  1.196578e-02
   endloop
 endfacet
 facet normal -9.927089e-01  0.000000e+00  1.205367e-01
   outer loop
     vertex -5.000000e-02  0.000000e+00  5.053215e-17
     vertex -5.000000e-02 -1.000000e+00  5.053215e-17
     vertex -4.854709e-02  0.000000e+00  1.196578e-02
   endloop
 endfacet
 facet normal -9.927089e-01  0.000000e+00 -1.205367e-01
   outer loop
     vertex -4.854709e-02  0.000000e+00 -1.196578e-02
     vertex -5.000000e-02 -1.000000e+00  5.053215e-17
     vertex -5.000000e-02  0.000000e+00  5.053215e-17
   endloop
 endfacet
 facet normal -9.927089e-01 -0.000000e+00 -1.205367e-01
   outer loop
     vertex -4.854709e-02  0.000000e+00 -1.196578e-02
     vertex -4.854709e-02 -1.000000e+00 -1.196578e-02
     vertex -5.000000e-02 -1.000000e+00  5.053215e-17
   endloop
 endfacet
 facet normal -9.350162e-01  0.000000e+00 -3.546049e-01
   outer loop
     vertex -4.427280e-02  0.000000e+00 -2.323616e-02
     vertex -4.854709e-02 -1.000000e+00 -1.196578e-02
     vertex -4.854709e-02  0.000000e+00 -1.196578e-02
   endloop
 endfacet
 facet normal -9.350162e-01 -0.000000e+00 -3.546049e-01
   outer loop
     vertex -4.427280e-02  0.000000e+00 -2.323616e-02
     vertex -4.427280e-02 -1.000000e+00 -2.323616e-02
     vertex -4.854709e-02 -1.000000e+00 -1.196578e-02
   endloop
 endfacet
 facet normal -8.229839e-01 -0.000000e+00 -5.680647e-01
   outer loop
     vertex -3.742554e-02  0.000000e+00 -3.315613e-02
     vertex -3.742554e-02 -1.000000e+00 -3.315613e-02
     vertex -4.427280e-02 -1.000000e+00 -2.323616e-02
   endloop
 endfacet
 facet normal -8.229839e-01  0.000000e+00 -5.680647e-01
   outer loop
     vertex -3.742554e-02  0.000000e+00 -3.315613e-02
     vertex -4.427280e-02 -1.000000e+00 -2.323616e-02
     vertex -4.427280e-02  0.000000e+00 -2.323616e-02
   endloop
 endfacet
 facet normal -6.631227e-01 -0.000000e+00 -7.485107e-01
   outer loop
     vertex -2.840324e-02  0.000000e+00 -4.114919e-02
     vertex -2.840324e-02 -1.000000e+00 -4.114919e-02
     vertex -3.742554e-02 -1.000000e+00 -3.315613e-02
   endloop
 endfacet
 facet normal -4.647232e-01 -0.000000e+00 -8.854560e-01
   outer loop
     vertex -2.840324e-02  0.000000e+00 -4.114919e-02
     vertex -1.773024e-02 -1.000000e+00 -4.675081e-02
     vertex -2.840324e-02 -1.000000e+00 -4.114919e-02
   endloop
 endfacet
 facet normal -6.631227e-01  0.000000e+00 -7.485107e-01
   outer loop
     vertex -2.840324e-02  0.000000e+00 -4.114919e-02
     vertex -3.742554e-02 -1.000000e+00 -3.315613e-02
     vertex -3.742554e-02  0.000000e+00 -3.315613e-02
   endloop
 endfacet
 facet normal -4.647232e-01 -0.000000e+00 -8.854560e-01
   outer loop
     vertex -1.773024e-02  0.000000e+00 -4.675081e-02
     vertex -1.773024e-02 -1.000000e+00 -4.675081e-02
     vertex -2.840324e-02  0.000000e+00 -4.114919e-02
   endloop
 endfacet
 facet normal -2.393157e-01 -0.000000e+00 -9.709418e-01
   outer loop
     vertex -6.026834e-03  0.000000e+00 -4.963544e-02
     vertex -6.026834e-03 -1.000000e+00 -4.963544e-02
     vertex -1.773024e-02 -1.000000e+00 -4.675081e-02
   endloop
 endfacet
 facet normal -2.393157e-01  0.000000e+00 -9.709418e-01
   outer loop
     vertex -6.026834e-03  0.000000e+00 -4.963544e-02
     vertex -1.773024e-02 -1.000000e+00 -4.675081e-02
     vertex -1.773024e-02  0.000000e+00 -4.675081e-02
   endloop
 endfacet
 facet normal -2.302666e-15 -0.000000e+00 -1.000000e+00
   outer loop
     vertex  6.026834e-03  0.000000e+00 -4.963544e-02
     vertex  6.026834e-03 -1.000000e+00 -4.963544e-02
     vertex -6.026834e-03 -1.000000e+00 -4.963544e-02
   endloop
 endfacet
 facet normal -2.302666e-15  0.000000e+00 -1.000000e+00
   outer loop
     vertex  6.026834e-03  0.000000e+00 -4.963544e-02
     vertex -6.026834e-03 -1.000000e+00 -4.963544e-02
     vertex -6.026834e-03  0.000000e+00 -4.963544e-02
   endloop
 endfacet
 facet normal  2.393157e-01  0.000000e+00 -9.709418e-01
   outer loop
     vertex  1.773024e-02  0.000000e+00 -4.675081e-02
     vertex  1.773024e-02 -1.000000e+00 -4.675081e-02
     vertex  6.026834e-03 -1.000000e+00 -4.963544e-02
   endloop
 endfacet
 facet normal  2.393157e-01  0.000000e+00 -9.709418e-01
   outer loop
     vertex  1.773024e-02  0.000000e+00 -4.675081e-02
     vertex  6.026834e-03 -1.000000e+00 -4.963544e-02
     vertex  6.026834e-03  0.000000e+00 -4.963544e-02
   endloop
 endfacet
 facet normal  4.647232e-01  0.000000e+00 -8.854560e-01
   outer loop
     vertex  2.840324e-02  0.000000e+00 -4.114919e-02
     vertex  2.840324e-02 -1.000000e+00 -4.114919e-02
     vertex  1.773024e-02 -1.000000e+00 -4.675081e-02
   endloop
 endfacet
 facet normal  4.647232e-01  0.000000e+00 -8.854560e-01
   outer loop
     vertex  2.840324e-02  0.000000e+00 -4.114919e-02
     vertex  1.773024e-02 -1.000000e+00 -4.675081e-02
     vertex  1.773024e-02  0.000000e+00 -4.675081e-02
   endloop
 endfacet
 facet normal  6.631227e-01  0.000000e+00 -7.485107e-01
   outer loop
     vertex  3.742554e-02  0.000000e+00 -3.315613e-02
     vertex  3.742554e-02 -1.000000e+00 -3.315613e-02
     vertex  2.840324e-02 -1.000000e+00 -4.114919e-02
   endloop
 endfacet
 facet normal  6.631227e-01  0.000000e+00 -7.485107e-01
   outer loop
     vertex  3.742554e-02  0.000000e+00 -3.315613e-02
     vertex  2.840324e-02 -1.000000e+00 -4.114919e-02
     vertex  2.840324e-02  0.000000e+00 -4.114919e-02
   endloop
 endfacet
 facet normal  8.229839e-01  0.000000e+00 -5.680647e-01
   outer loop
     vertex  4.427280e-02  0.000000e+00 -2.323616e-02
     vertex  4.427280e-02 -1.000000e+00 -2.323616e-02
     vertex  3.742554e-02 -1.000000e+00 -3.315613e-02
   endloop
 endfacet
 facet normal  8.229839e-01  0.000000e+00 -5.680647e-01
   outer loop
     vertex  4.427280e-02  0.000000e+00 -2.323616e-02
     vertex  3.742554e-02 -1.000000e+00 -3.315613e-02
     vertex  3.742554e-02  0.000000e+00 -3.315613e-02
   endloop
 endfacet
 facet normal  9.350162e-01  0.000000e+00 -3.546049e-01
   outer loop
     vertex  4.854709e-02  0.000000e+00 -1.196578e-02
     vertex  4.854709e-02 -1.000000e+00 -1.196578e-02
     vertex  4.427280e-02 -1.000000e+00 -2.323616e-02
   endloop
 endfacet
 facet normal  9.350162e-01  0.000000e+00 -3.546049e-01
   outer loop
     vertex  4.854709e-02  0.000000e+00 -1.196578e-02
     vertex  4.427280e-02 -1.000000e+00 -2.323616e-02
     vertex  4.427280e-02  0.000000e+00 -2.323616e-02
   endloop
 endfacet
 facet normal  9.927089e-01  0.000000e+00 -1.205367e-01
   outer loop
     vertex  5.000000e-02  0.000000e+00  0.000000e+00
     vertex  5.000000e-02 -1.000000e+00  0.000000e+00
     vertex  4.854709e-02 -1.000000e+00 -1.196578e-02
   endloop
 endfacet
 facet normal  9.927089e-01  0.000000e+00 -1.205367e-01
   outer loop
     vertex  5.000000e-02  0.000000e+00  0.000000e+00
     vertex  4.854709e-02 -1.000000e+00 -1.196578e-02
     vertex  4.854709e-02  0.000000e+00 -1.196578e-02
   endloop
 endfacet
 facet normal  0.000000e+00  1.000000e+00  0.000000e+00
   outer loop
     vertex  3.742554e-02  0.000000e+00  3.315613e-02
     vertex  4.854709e-02  0.000000e+00  1.196578e-02
     vertex  5.000000e-02  0.000000e+00  0.000000e+00
   endloop
 endfacet
 facet normal  0.000000e+00  1.000000e+00  0.000000e+00
   outer loop
     vertex  3.742554e-02  0.000000e+00  3.315613e-02
     vertex  4.427280e-02  0.000000e+00  2.323616e-02
     vertex  4.854709e-02  0.000000e+00  1.196578e-02
   endloop
 endfacet
 facet normal  0.000000e+00  1.000000e+00  0.000000e+00
   outer loop
     vertex  3.742554e-02  0.000000e+00  3.315613e-02
     vertex  1.773024e-02  0.000000e+00  4.675081e-02
     vertex  2.840324e-02  0.000000e+00  4.114919e-02
   endloop
 endfacet
 facet normal  0.000000e+00  1.000000e+00  0.000000e+00
   outer loop
     vertex  3.742554e-02  0.000000e+00  3.315613e-02
     vertex  6.026834e-03  0.000000e+00  4.963544e-02
     vertex  1.773024e-02  0.000000e+00  4.675081e-02
   endloop
 endfacet
 facet normal  0.000000e+00  1.000000e+00  0.000000e+00
   outer loop
     vertex  3.742554e-02  0.000000e+00  3.315613e-02
     vertex -6.026834e-03  0.000000e+00  4.963544e-02
     vertex  6.026834e-03  0.000000e+00  4.963544e-02
   endloop
 endfacet
 facet normal  0.000000e+00  1.000000e+00  0.000000e+00
   outer loop
     vertex  3.742554e-02  0.000000e+00  3.315613e-02
     vertex -1.773024e-02  0.000000e+00  4.675081e-02
     vertex -6.026834e-03  0.000000e+00  4.963544e-02
   endloop
 endfacet
 facet normal  0.000000e+00  1.000000e+00  0.000000e+00
   outer loop
     vertex  3.742554e-02  0.000000e+00  3.315613e-02
     vertex -2.840324e-02  0.000000e+00  4.114919e-02
     vertex -1.773024e-02  0.000000e+00  4.675081e-02
   endloop
 endfacet
 facet normal  0.000000e+00  1.000000e+00  0.000000e+00
   outer loop
     vertex  3.742554e-02  0.000000e+00  3.315613e-02
     vertex -3.742554e-02  0.000000e+00  3.315613e-02
     vertex -2.840324e-02  0.000000e+00  4.114919e-02
   endloop
 endfacet
 facet normal  0.000000e+00  1.000000e+00  0.000000e+00
   outer loop
     vertex  3.742554e-02  0.000000e+00  3.315613e-02
     vertex -4.427280e-02  0.000000e+00  2.323616e-02
     vertex -3.742554e-02  0.000000e+00  3.315613e-02
   endloop
 endfacet
 facet normal  0.000000e+00  1.000000e+00  0.000000e+00
   outer loop
     vertex  3.742554e-02  0.000000e+00  3.315613e-02
     vertex -4.854709e-02  0.000000e+00  1.196578e-02
     vertex -4.427280e-02  0.000000e+00  2.323616e-02
   endloop
 endfacet
 facet normal  0.000000e+00  1.000000e+00  0.000000e+00
   outer loop
     vertex  3.742554e-02  0.000000e+00  3.315613e-02
     vertex -5.000000e-02  0.000000e+00  5.053215e-17
     vertex -4.854709e-02  0.000000e+00  1.196578e-02
   endloop
 endfacet
 facet normal  0.000000e+00  1.000000e+00  0.000000e+00
   outer loop
     vertex  3.742554e-02  0.000000e+00  3.315613e-02
     vertex -4.854709e-02  0.000000e+00 -1.196578e-02
     vertex -5.000000e-02  0.000000e+00  5.053215e-17
   endloop
 endfacet
 facet normal  0.000000e+00  1.000000e+00  0.000000e+00
   outer loop
     vertex  3.742554e-02  0.000000e+00  3.315613e-02
     vertex -4.427280e-02  0.000000e+00 -2.323616e-02
     vertex -4.854709e-02  0.000000e+00 -1.196578e-02
   endloop
 endfacet
 facet normal  0.000000e+00  1.000000e+00  0.000000e+00
   outer loop
     vertex  3.742554e-02  0.000000e+00  3.315613e-02
     vertex -3.742554e-02  0.000000e+00 -3.315613e-02
     vertex -4.427280e-02  0.000000e+00 -2.323616e-02
   endloop
 endfacet
 facet normal  0.000000e+00  1.000000e+00  0.000000e+00
   outer loop
     vertex  3.742554e-02  0.000000e+00  3.315613e-02
     vertex -2.840324e-02  0.000000e+00 -4.114919e-02
     vertex -3.742554e-02  0.000000e+00 -3.315613e-02
   endloop
 endfacet
 facet normal  0.000000e+00  1.000000e+00  0.000000e+00
   outer loop
     vertex  3.742554e-02  0.000000e+00  3.315613e-02
     vertex -1.773024e-02  0.000000e+00 -4.675081e-02
     vertex -2.840324e-02  0.000000e+00 -4.114919e-02
   endloop
 endfacet
 facet normal  0.000000e+00  1.000000e+00  0.000000e+00
   outer loop
     vertex  3.742554e-02  0.000000e+00  3.315613e-02
     vertex -6.026834e-03  0.000000e+00 -4.963544e-02
     vertex -1.773024e-02  0.000000e+00 -4.675081e-02
   endloop
 endfacet
 facet normal  0.000000e+00  1.000000e+00  0.000000e+00
   outer loop
     vertex  3.742554e-02  0.000000e+00  3.315613e-02
     vertex  6.026834e-03  0.000000e+00 -4.963544e-02
     vertex -6.026834e-03  0.000000e+00 -4.963544e-02
   endloop
 endfacet
 facet normal  0.000000e+00  1.000000e+00  0.000000e+00
   outer loop
     vertex  3.742554e-02  0.000000e+00  3.315613e-02
     vertex  1.773024e-02  0.000000e+00 -4.675081e-02
     vertex  6.026834e-03  0.000000e+00 -4.963544e-02
   endloop
 endfacet
 facet normal  0.000000e+00  1.000000e+00  0.000000e+00
   outer loop
     vertex  3.742554e-02  0.000000e+00  3.315613e-02
     vertex  2.840324e-02  0.000000e+00 -4.114919e-02
     vertex  1.773024e-02  0.000000e+00 -4.675081e-02
   endloop
 endfacet
 facet normal  0.000000e+00  1.000000e+00  0.000000e+00
   outer loop
     vertex  3.742554e-02  0.000000e+00  3.315613e-02
     vertex  3.742554e-02  0.000000e+00 -3.315613e-02
     vertex  2.840324e-02  0.000000e+00 -4.114919e-02
   endloop
 endfacet
 facet normal  0.000000e+00  1.000000e+00  0.000000e+00
   outer loop
     vertex  3.742554e-02  0.000000e+00  3.315613e-02
     vertex  4.427280e-02  0.000000e+00 -2.323616e-02
     vertex  3.742554e-02  0.000000e+00 -3.315613e-02
   endloop
 endfacet
 facet normal  0.000000e+00  1.000000e+00  0.000000e+00
   outer loop
     vertex  3.742554e-02  0.000000e+00  3.315613e-02
     vertex  4.854709e-02  0.000000e+00 -1.196578e-02
     vertex  4.427280e-02  0.000000e+00 -2.323616e-02
   endloop
 endfacet
 facet normal  0.000000e+00  1.000000e+00  0.000000e+00
   outer loop
     vertex  3.742554e-02  0.000000e+00  3.315613e-02
     vertex  5.000000e-02  0.000000e+00  0.000000e+00
     vertex  4.854709e-02  0.000000e+00 -1.196578e-02
   endloop
 endfacet
 facet normal  0.000000e+00 -1.000000e+00  0.000000e+00
   outer loop
     vertex  3.742554e-02 -1.000000e+00  3.315613e-02
     vertex  5.000000e-02 -1.000000e+00  0.000000e+00
     vertex  4.854709e-02 -1.000000e+00  1.196578e-02
   endloop
 endfacet
 facet normal  0.000000e+00 -1.000000e+00  0.000000e+00
   outer loop
     vertex  3.742554e-02 -1.000000e+00  3.315613e-02
     vertex  4.854709e-02 -1.000000e+00  1.196578e-02
     vertex  4.427280e-02 -1.000000e+00  2.323616e-02
   endloop
 endfacet
 facet normal  0.000000e+00 -1.000000e+00  0.000000e+00
   outer loop
     vertex  3.742554e-02 -1.000000e+00  3.315613e-02
     vertex  2.840324e-02 -1.000000e+00  4.114919e-02
     vertex  1.773024e-02 -1.000000e+00  4.675081e-02
   endloop
 endfacet
 facet normal  0.000000e+00 -1.000000e+00  0.000000e+00
   outer loop
     vertex  3.742554e-02 -1.000000e+00  3.315613e-02
     vertex  1.773024e-02 -1.000000e+00  4.675081e-02
     vertex  6.026834e-03 -1.000000e+00  4.963544e-02
   endloop
 endfacet
 facet normal  0.000000e+00 -1.000000e+00  0.000000e+00
   outer loop
     vertex  3.742554e-02 -1.000000e+00  3.315613e-02
     vertex  6.026834e-03 -1.000000e+00  4.963544e-02
     vertex -6.026834e-03 -1.000000e+00  4.963544e-02
   endloop
 endfacet
 facet normal  0.000000e+00 -1.000000e+00  0.000000e+00
   outer loop
     vertex  3.742554e-02 -1.000000e+00  3.315613e-02
     vertex -6.026834e-03 -1.000000e+00  4.963544e-02
     vertex -1.773024e-02 -1.000000e+00  4.675081e-02
   endloop
 endfacet
 facet normal  0.000000e+00 -1.000000e+00  0.000000e+00
   outer loop
     vertex  3.742554e-02 -1.000000e+00  3.315613e-02
     vertex -1.773024e-02 -1.000000e+00  4.675081e-02
     vertex -2.840324e-02 -1.000000e+00  4.114919e-02
   endloop
 endfacet
 facet normal  0.000000e+00 -1.000000e+00  0.000000e+00
   outer loop
     vertex  3.742554e-02 -1.000000e+00  3.315613e-02
     vertex -2.840324e-02 -1.000000e+00  4.114919e-02
     vertex -3.742554e-02 -1.000000e+00  3.315613e-02
   endloop
 endfacet
 facet normal -0.000000e+00 -1.000000e+00  0.000000e+00
   outer loop
     vertex  3.742554e-02 -1.000000e+00  3.315613e-02
     vertex -3.742554e-02 -1.000000e+00  3.315613e-02
     vertex -4.427280e-02 -1.000000e+00  2.323616e-02
   endloop
 endfacet
 facet normal  0.000000e+00 -1.000000e+00  0.000000e+00
   outer loop
     vertex  3.742554e-02 -1.000000e+00  3.315613e-02
     vertex -4.427280e-02 -1.000000e+00  2.323616e-02
     vertex -4.854709e-02 -1.000000e+00  1.196578e-02
   endloop
 endfacet
 facet normal  0.000000e+00 -1.000000e+00  0.000000e+00
   outer loop
     vertex  3.742554e-02 -1.000000e+00  3.315613e-02
     vertex -4.854709e-02 -1.000000e+00  1.196578e-02
     vertex -5.000000e-02 -1.000000e+00  5.053215e-17
   endloop
 endfacet
 facet normal  0.000000e+00 -1.000000e+00  0.000000e+00
   outer loop
     vertex  3.742554e-02 -1.000000e+00  3.315613e-02
     vertex -5.000000e-02 -1.000000e+00  5.053215e-17
     vertex -4.854709e-02 -1.000000e+00 -1.196578e-02
   endloop
 endfacet
 facet normal  0.000000e+00 -1.000000e+00  0.000000e+00
   outer loop
     vertex  3.742554e-02 -1.000000e+00  3.315613e-02
     vertex -4.854709e-02 -1.000000e+00 -1.196578e-02
     vertex -4.427280e-02 -1.000000e+00 -2.323616e-02
   endloop
 endfacet
 facet normal  0.000000e+00 -1.000000e+00  0.000000e+00
   outer loop
     vertex  3.742554e-02 -1.000000e+00  3.315613e-02
     vertex -4.427280e-02 -1.000000e+00 -2.323616e-02
     vertex -3.742554e-02 -1.000000e+00 -3.315613e-02
   endloop
 endfacet
 facet normal  0.000000e+00 -1.000000e+00  0.000000e+00
   outer loop
     vertex  3.742554e-02 -1.000000e+00  3.315613e-02
     vertex -3.742554e-02 -1.000000e+00 -3.315613e-02
     vertex -2.840324e-02 -1.000000e+00 -4.114919e-02
   endloop
 endfacet
 facet normal  0.000000e+00 -1.000000e+00  0.000000e+00
   outer loop
     vertex  3.742554e-02 -1.000000e+00  3.315613e-02
     vertex -2.840324e-02 -1.000000e+00 -4.114919e-02
     vertex -1.773024e-02 -1.000000e+00 -4.675081e-02
   endloop
 endfacet
 facet normal  0.000000e+00 -1.000000e+00  0.000000e+00
   outer loop
     vertex  3.742554e-02 -1.000000e+00  3.315613e-02
     vertex -1.773024e-02 -1.000000e+00 -4.675081e-02
     vertex -6.026834e-03 -1.000000e+00 -4.963544e-02
   endloop
 endfacet
 facet normal  0.000000e+00 -1.000000e+00  0.000000e+00
   outer loop
     vertex  3.742554e-02 -1.000000e+00  3.315613e-02
     vertex -6.026834e-03 -1.000000e+00 -4.963544e-02
     vertex  6.026834e-03 -1.000000e+00 -4.963544e-02
   endloop
 endfacet
 facet normal  0.000000e+00 -1.000000e+00  0.000000e+00
   outer loop
     vertex  3.742554e-02 -1.000000e+00  3.315613e-02
     vertex  6.026834e-03 -1.000000e+00 -4.963544e-02
     vertex  1.773024e-02 -1.000000e+00 -4.675081e-02
   endloop
 endfacet
 facet normal  0.000000e+00 -1.000000e+00  0.000000e+00
   outer loop
     vertex  3.742554e-02 -1.000000e+00  3.315613e-02
     vertex  1.773024e-02 -1.000000e+00 -4.675081e-02
     vertex  2.840324e-02 -1.000000e+00 -4.114919e-02
   endloop
 endfacet
 facet normal  0.000000e+00 -1.000000e+00  0.000000e+00
   outer loop
     vertex  3.742554e-02 -1.000000e+00  3.315613e-02
     vertex  2.840324e-02 -1.000000e+00 -4.114919e-02
     vertex  3.742554e-02 -1.000000e+00 -3.315613e-02
   endloop
 endfacet
 facet normal  0.000000e+00 -1.000000e+00 -0.000000e+00
   outer loop
     vertex  3.742554e-02 -1.000000e+00  3.315613e-02
     vertex  3.742554e-02 -1.000000e+00 -3.315613e-02
     vertex  4.427280e-02 -1.000000e+00 -2.323616e-02
   endloop
 endfacet
 facet normal  0.000000e+00 -1.000000e+00  0.000000e+00
   outer loop
     vertex  3.742554e-02 -1.000000e+00  3.315613e-02
     vertex  4.427280e-02 -1.000000e+00 -2.323616e-02
     vertex  4.854709e-02 -1.000000e+00 -1.196578e-02
   endloop
 endfacet
 facet normal  0.000000e+00 -1.000000e+00  0.000000e+00
   outer loop
     vertex  3.742554e-02 -1.000000e+00  3.315613e-02
     vertex  4.854709e-02 -1.000000e+00 -1.196578e-02
     vertex  5.000000e-02 -1.000000e+00  0.000000e+00
   endloop
 endfacet
endsolid
