solid 
 facet normal -0.000000e+00  0.000000e+00 -1.000000e+00
   outer loop
     vertex  6.500000e-02  0.000000e+00  0.000000e+00
     vertex  0.000000e+00 -6.500000e-02  0.000000e+00
     vertex  0.000000e+00  0.000000e+00  0.000000e+00
   endloop
 endfacet
 facet normal  0.000000e+00 -0.000000e+00 -1.000000e+00
   outer loop
     vertex  6.500000e-02  0.000000e+00  0.000000e+00
     vertex  6.500000e-02 -6.500000e-02  0.000000e+00
     vertex  0.000000e+00 -6.500000e-02  0.000000e+00
   endloop
 endfacet
 facet normal  0.000000e+00  1.000000e+00  0.000000e+00
   outer loop
     vertex  6.500000e-02  0.000000e+00  0.000000e+00
     vertex  0.000000e+00  0.000000e+00  0.000000e+00
     vertex  0.000000e+00  0.000000e+00  9.000000e-02
   endloop
 endfacet
 facet normal  0.000000e+00  1.000000e+00 -0.000000e+00
   outer loop
     vertex  6.500000e-02  0.000000e+00  0.000000e+00
     vertex  0.000000e+00  0.000000e+00  9.000000e-02
     vertex  6.500000e-02  0.000000e+00  9.000000e-02
   endloop
 endfacet
 facet normal -0.000000e+00  0.000000e+00 -1.000000e+00
   outer loop
     vertex  6.500000e-02 -6.500000e-02  0.000000e+00
     vertex  0.000000e+00 -3.350000e-01  0.000000e+00
     vertex  0.000000e+00 -6.500000e-02  0.000000e+00
   endloop
 endfacet
 facet normal  0.000000e+00 -0.000000e+00 -1.000000e+00
   outer loop
     vertex  6.500000e-02 -6.500000e-02  0.000000e+00
     vertex  8.000000e-02 -3.350000e-01  0.000000e+00
     vertex  0.000000e+00 -3.350000e-01  0.000000e+00
   endloop
 endfacet
 facet normal -0.000000e+00  0.000000e+00 -1.000000e+00
   outer loop
     vertex  8.000000e-02  0.000000e+00  0.000000e+00
     vertex  6.500000e-02 -6.500000e-02  0.000000e+00
     vertex  6.500000e-02  0.000000e+00  0.000000e+00
   endloop
 endfacet
 facet normal  0.000000e+00  0.000000e+00 -1.000000e+00
   outer loop
     vertex  8.000000e-02 -3.350000e-01  0.000000e+00
     vertex  6.500000e-02 -6.500000e-02  0.000000e+00
     vertex  8.000000e-02  0.000000e+00  0.000000e+00
   endloop
 endfacet
 facet normal -1.000000e+00  0.000000e+00  0.000000e+00
   outer loop
     vertex  0.000000e+00 -6.500000e-02  0.000000e+00
     vertex  0.000000e+00  0.000000e+00  9.000000e-02
     vertex  0.000000e+00  0.000000e+00  0.000000e+00
   endloop
 endfacet
 facet normal -1.000000e+00  0.000000e+00  0.000000e+00
   outer loop
     vertex  0.000000e+00 -6.500000e-02  0.000000e+00
     vertex  0.000000e+00 -6.500000e-02  9.000000e-02
     vertex  0.000000e+00  0.000000e+00  9.000000e-02
   endloop
 endfacet
 facet normal  0.000000e+00  1.000000e+00  0.000000e+00
   outer loop
     vertex  8.000000e-02  0.000000e+00  9.000000e-02
     vertex  6.500000e-02  0.000000e+00  0.000000e+00
     vertex  6.500000e-02  0.000000e+00  9.000000e-02
   endloop
 endfacet
 facet normal  0.000000e+00  1.000000e+00  0.000000e+00
   outer loop
     vertex  8.000000e-02  0.000000e+00  9.000000e-02
     vertex  8.000000e-02  0.000000e+00  0.000000e+00
     vertex  6.500000e-02  0.000000e+00  0.000000e+00
   endloop
 endfacet
 facet normal  0.000000e+00  1.000000e+00  0.000000e+00
   outer loop
     vertex  6.500000e-02  0.000000e+00  9.000000e-02
     vertex  0.000000e+00  0.000000e+00  9.000000e-02
     vertex  0.000000e+00  0.000000e+00  1.050000e-01
   endloop
 endfacet
 facet normal  0.000000e+00  1.000000e+00 -0.000000e+00
   outer loop
     vertex  6.500000e-02  0.000000e+00  9.000000e-02
     vertex  0.000000e+00  0.000000e+00  1.050000e-01
     vertex  6.500000e-02  0.000000e+00  1.050000e-01
   endloop
 endfacet
 facet normal  1.000000e+00  0.000000e+00  0.000000e+00
   outer loop
     vertex  8.000000e-02  0.000000e+00  9.000000e-02
     vertex  8.000000e-02 -3.350000e-01  0.000000e+00
     vertex  8.000000e-02  0.000000e+00  0.000000e+00
   endloop
 endfacet
 facet normal  1.000000e+00  0.000000e+00  0.000000e+00
   outer loop
     vertex  8.000000e-02  0.000000e+00  9.000000e-02
     vertex  8.000000e-02 -3.350000e-01  9.000000e-02
     vertex  8.000000e-02 -3.350000e-01  0.000000e+00
   endloop
 endfacet
 facet normal -0.000000e+00  0.000000e+00 -1.000000e+00
   outer loop
     vertex  8.000000e-02 -3.350000e-01  0.000000e+00
     vertex  0.000000e+00 -9.000000e-01  0.000000e+00
     vertex  0.000000e+00 -3.350000e-01  0.000000e+00
   endloop
 endfacet
 facet normal  0.000000e+00 -0.000000e+00 -1.000000e+00
   outer loop
     vertex  8.000000e-02 -3.350000e-01  0.000000e+00
     vertex  8.000000e-02 -9.000000e-01  0.000000e+00
     vertex  0.000000e+00 -9.000000e-01  0.000000e+00
   endloop
 endfacet
 facet normal -1.000000e+00  0.000000e+00 -0.000000e+00
   outer loop
     vertex  0.000000e+00 -6.500000e-02  9.000000e-02
     vertex  0.000000e+00 -6.500000e-02  0.000000e+00
     vertex  0.000000e+00 -3.350000e-01  0.000000e+00
   endloop
 endfacet
 facet normal -1.000000e+00 -0.000000e+00  0.000000e+00
   outer loop
     vertex  0.000000e+00 -6.500000e-02  9.000000e-02
     vertex  0.000000e+00 -3.350000e-01  0.000000e+00
     vertex  0.000000e+00 -3.350000e-01  9.000000e-02
   endloop
 endfacet
 facet normal -1.000000e+00  0.000000e+00  0.000000e+00
   outer loop
     vertex  0.000000e+00 -6.500000e-02  9.000000e-02
     vertex  0.000000e+00  0.000000e+00  1.050000e-01
     vertex  0.000000e+00  0.000000e+00  9.000000e-02
   endloop
 endfacet
 facet normal -1.000000e+00  0.000000e+00  0.000000e+00
   outer loop
     vertex  0.000000e+00 -6.500000e-02  9.000000e-02
     vertex  0.000000e+00 -6.500000e-02  1.050000e-01
     vertex  0.000000e+00  0.000000e+00  1.050000e-01
   endloop
 endfacet
 facet normal  0.000000e+00  1.000000e+00  0.000000e+00
   outer loop
     vertex  8.000000e-02  0.000000e+00  1.050000e-01
     vertex  6.500000e-02  0.000000e+00  9.000000e-02
     vertex  6.500000e-02  0.000000e+00  1.050000e-01
   endloop
 endfacet
 facet normal  0.000000e+00  1.000000e+00  0.000000e+00
   outer loop
     vertex  8.000000e-02  0.000000e+00  1.050000e-01
     vertex  8.000000e-02  0.000000e+00  9.000000e-02
     vertex  6.500000e-02  0.000000e+00  9.000000e-02
   endloop
 endfacet
 facet normal  0.000000e+00  1.000000e+00  0.000000e+00
   outer loop
     vertex  6.500000e-02  0.000000e+00  1.050000e-01
     vertex  0.000000e+00  0.000000e+00  1.050000e-01
     vertex  0.000000e+00  0.000000e+00  1.000000e+00
   endloop
 endfacet
 facet normal  0.000000e+00  1.000000e+00 -0.000000e+00
   outer loop
     vertex  6.500000e-02  0.000000e+00  1.050000e-01
     vertex  0.000000e+00  0.000000e+00  1.000000e+00
     vertex  6.500000e-02  0.000000e+00  1.000000e+00
   endloop
 endfacet
 facet normal  1.000000e+00  0.000000e+00  0.000000e+00
   outer loop
     vertex  8.000000e-02 -3.350000e-01  9.000000e-02
     vertex  8.000000e-02 -9.000000e-01  0.000000e+00
     vertex  8.000000e-02 -3.350000e-01  0.000000e+00
   endloop
 endfacet
 facet normal  1.000000e+00  0.000000e+00  0.000000e+00
   outer loop
     vertex  8.000000e-02 -3.350000e-01  9.000000e-02
     vertex  8.000000e-02 -9.000000e-01  1.050000e-01
     vertex  8.000000e-02 -9.000000e-01  0.000000e+00
   endloop
 endfacet
 facet normal  1.000000e+00  0.000000e+00  0.000000e+00
   outer loop
     vertex  8.000000e-02  0.000000e+00  1.050000e-01
     vertex  8.000000e-02 -3.350000e-01  9.000000e-02
     vertex  8.000000e-02  0.000000e+00  9.000000e-02
   endloop
 endfacet
 facet normal  1.000000e+00 -0.000000e+00  0.000000e+00
   outer loop
     vertex  8.000000e-02 -9.000000e-01  1.050000e-01
     vertex  8.000000e-02 -3.350000e-01  9.000000e-02
     vertex  8.000000e-02  0.000000e+00  1.050000e-01
   endloop
 endfacet
 facet normal  0.000000e+00 -1.000000e+00 -0.000000e+00
   outer loop
     vertex  8.000000e-02 -9.000000e-01  1.050000e-01
     vertex  0.000000e+00 -9.000000e-01  0.000000e+00
     vertex  8.000000e-02 -9.000000e-01  0.000000e+00
   endloop
 endfacet
 facet normal -0.000000e+00 -1.000000e+00  0.000000e+00
   outer loop
     vertex  8.000000e-02 -9.000000e-01  1.050000e-01
     vertex  0.000000e+00 -9.000000e-01  1.050000e-01
     vertex  0.000000e+00 -9.000000e-01  0.000000e+00
   endloop
 endfacet
 facet normal -1.000000e+00  0.000000e+00 -0.000000e+00
   outer loop
     vertex  0.000000e+00 -3.350000e-01  9.000000e-02
     vertex  0.000000e+00 -3.350000e-01  0.000000e+00
     vertex  0.000000e+00 -9.000000e-01  0.000000e+00
   endloop
 endfacet
 facet normal -1.000000e+00 -0.000000e+00  0.000000e+00
   outer loop
     vertex  0.000000e+00 -3.350000e-01  9.000000e-02
     vertex  0.000000e+00 -9.000000e-01  0.000000e+00
     vertex  0.000000e+00 -9.000000e-01  1.050000e-01
   endloop
 endfacet
 facet normal -1.000000e+00  0.000000e+00 -0.000000e+00
   outer loop
     vertex  0.000000e+00 -6.500000e-02  1.050000e-01
     vertex  0.000000e+00 -6.500000e-02  9.000000e-02
     vertex  0.000000e+00 -3.350000e-01  9.000000e-02
   endloop
 endfacet
 facet normal -1.000000e+00  0.000000e+00  0.000000e+00
   outer loop
     vertex  0.000000e+00 -9.000000e-01  1.050000e-01
     vertex  0.000000e+00 -6.500000e-02  1.050000e-01
     vertex  0.000000e+00 -3.350000e-01  9.000000e-02
   endloop
 endfacet
 facet normal -1.000000e+00  0.000000e+00  0.000000e+00
   outer loop
     vertex  0.000000e+00 -6.500000e-02  1.050000e-01
     vertex  0.000000e+00  0.000000e+00  1.000000e+00
     vertex  0.000000e+00  0.000000e+00  1.050000e-01
   endloop
 endfacet
 facet normal -1.000000e+00  0.000000e+00  0.000000e+00
   outer loop
     vertex  0.000000e+00 -6.500000e-02  1.050000e-01
     vertex  0.000000e+00 -6.500000e-02  1.000000e+00
     vertex  0.000000e+00  0.000000e+00  1.000000e+00
   endloop
 endfacet
 facet normal  0.000000e+00  0.000000e+00  1.000000e+00
   outer loop
     vertex  6.500000e-02 -6.500000e-02  1.050000e-01
     vertex  0.000000e+00 -6.500000e-02  1.050000e-01
     vertex  0.000000e+00 -9.000000e-01  1.050000e-01
   endloop
 endfacet
 facet normal  0.000000e+00  0.000000e+00  1.000000e+00
   outer loop
     vertex  6.500000e-02 -6.500000e-02  1.050000e-01
     vertex  0.000000e+00 -9.000000e-01  1.050000e-01
     vertex  8.000000e-02 -9.000000e-01  1.050000e-01
   endloop
 endfacet
 facet normal  0.000000e+00  0.000000e+00  1.000000e+00
   outer loop
     vertex  8.000000e-02  0.000000e+00  1.050000e-01
     vertex  6.500000e-02  0.000000e+00  1.050000e-01
     vertex  6.500000e-02 -6.500000e-02  1.050000e-01
   endloop
 endfacet
 facet normal  0.000000e+00 -0.000000e+00  1.000000e+00
   outer loop
     vertex  8.000000e-02 -9.000000e-01  1.050000e-01
     vertex  8.000000e-02  0.000000e+00  1.050000e-01
     vertex  6.500000e-02 -6.500000e-02  1.050000e-01
   endloop
 endfacet
 facet normal  1.000000e+00  0.000000e+00  0.000000e+00
   outer loop
     vertex  6.500000e-02 -6.500000e-02  1.050000e-01
     vertex  6.500000e-02  0.000000e+00  1.050000e-01
     vertex  6.500000e-02  0.000000e+00  1.000000e+00
   endloop
 endfacet
 facet normal  1.000000e+00  0.000000e+00  0.000000e+00
   outer loop
     vertex  6.500000e-02 -6.500000e-02  1.050000e-01
     vertex  6.500000e-02  0.000000e+00  1.000000e+00
     vertex  6.500000e-02 -6.500000e-02  1.000000e+00
   endloop
 endfacet
 facet normal  0.000000e+00  0.000000e+00  1.000000e+00
   outer loop
     vertex  6.500000e-02  0.000000e+00  1.000000e+00
     vertex  0.000000e+00  0.000000e+00  1.000000e+00
     vertex  0.000000e+00 -6.500000e-02  1.000000e+00
   endloop
 endfacet
 facet normal  0.000000e+00  0.000000e+00  1.000000e+00
   outer loop
     vertex  6.500000e-02  0.000000e+00  1.000000e+00
     vertex  0.000000e+00 -6.500000e-02  1.000000e+00
     vertex  6.500000e-02 -6.500000e-02  1.000000e+00
   endloop
 endfacet
 facet normal  0.000000e+00 -1.000000e+00  0.000000e+00
   outer loop
     vertex  6.500000e-02 -6.500000e-02  1.050000e-01
     vertex  0.000000e+00 -6.500000e-02  1.000000e+00
     vertex  0.000000e+00 -6.500000e-02  1.050000e-01
   endloop
 endfacet
 facet normal  0.000000e+00 -1.000000e+00  0.000000e+00
   outer loop
     vertex  6.500000e-02 -6.500000e-02  1.050000e-01
     vertex  6.500000e-02 -6.500000e-02  1.000000e+00
     vertex  0.000000e+00 -6.500000e-02  1.000000e+00
   endloop
 endfacet
endsolid
