solid 
 facet normal  9.927089e-01  1.205367e-01  0.000000e+00
   outer loop
     vertex  2.912825e-02  7.179470e-03  0.000000e+00
     vertex  3.000000e-02  0.000000e+00  1.000000e+00
     vertex  3.000000e-02  0.000000e+00  0.000000e+00
   endloop
 endfacet
 facet normal  9.927089e-01  1.205367e-01 -0.000000e+00
   outer loop
     vertex  2.912825e-02  7.179470e-03  0.000000e+00
     vertex  2.912825e-02  7.179470e-03  1.000000e+00
     vertex  3.000000e-02  0.000000e+00  1.000000e+00
   endloop
 endfacet
 facet normal  9.350162e-01  3.546049e-01 -0.000000e+00
   outer loop
     vertex  2.656368e-02  1.394170e-02  0.000000e+00
     vertex  2.656368e-02  1.394170e-02  1.000000e+00
     vertex  2.912825e-02  7.179470e-03  1.000000e+00
   endloop
 endfacet
 facet normal  9.350162e-01  3.546049e-01  0.000000e+00
   outer loop
     vertex  2.656368e-02  1.394170e-02  0.000000e+00
     vertex  2.912825e-02  7.179470e-03  1.000000e+00
     vertex  2.912825e-02  7.179470e-03  0.000000e+00
   endloop
 endfacet
 facet normal  8.229839e-01  5.680647e-01 -0.000000e+00
   outer loop
     vertex  2.245532e-02  1.989368e-02  0.000000e+00
     vertex  2.245532e-02  1.989368e-02  1.000000e+00
     vertex  2.656368e-02  1.394170e-02  1.000000e+00
   endloop
 endfacet
 facet normal  8.229839e-01  5.680647e-01  0.000000e+00
   outer loop
     vertex  2.245532e-02  1.989368e-02  0.000000e+00
     vertex  2.656368e-02  1.394170e-02  1.000000e+00
     vertex  2.656368e-02  1.394170e-02  0.000000e+00
   endloop
 endfacet
 facet normal  6.631227e-01  7.485107e-01 -0.000000e+00
   outer loop
     vertex  1.704194e-02  2.468952e-02  0.000000e+00
     vertex  1.704194e-02  2.468952e-02  1.000000e+00
     vertex  2.245532e-02  1.989368e-02  1.000000e+00
   endloop
 endfacet
 facet normal  6.631227e-01  7.485107e-01  0.000000e+00
   outer loop
     vertex  1.704194e-02  2.468952e-02  0.000000e+00
     vertex  2.245532e-02  1.989368e-02  1.000000e+00
     vertex  2.245532e-02  1.989368e-02  0.000000e+00
   endloop
 endfacet
 facet normal  4.647232e-01  8.854560e-01 -0.000000e+00
   outer loop
     vertex  1.063815e-02  2.805049e-02  0.000000e+00
     vertex  1.063815e-02  2.805049e-02  1.000000e+00
     vertex  1.704194e-02  2.468952e-02  1.000000e+00
   endloop
 endfacet
 facet normal  4.647232e-01  8.854560e-01  0.000000e+00
   outer loop
     vertex  1.063815e-02  2.805049e-02  0.000000e+00
     vertex  1.704194e-02  2.468952e-02  1.000000e+00
     vertex  1.704194e-02  2.468952e-02  0.000000e+00
   endloop
 endfacet
 facet normal  2.393157e-01  9.709418e-01 -0.000000e+00
   outer loop
     vertex  3.616100e-03  2.978127e-02  0.000000e+00
     vertex  3.616100e-03  2.978127e-02  1.000000e+00
     vertex  1.063815e-02  2.805049e-02  1.000000e+00
   endloop
 endfacet
 facet normal  2.393157e-01  9.709418e-01  0.000000e+00
   outer loop
     vertex  3.616100e-03  2.978127e-02  0.000000e+00
     vertex  1.063815e-02  2.805049e-02  1.000000e+00
     vertex  1.063815e-02  2.805049e-02  0.000000e+00
   endloop
 endfacet
 facet normal  0.000000e+00  1.000000e+00  0.000000e+00
   outer loop
     vertex -3.616100e-03  2.978127e-02  0.000000e+00
     vertex -3.616100e-03  2.978127e-02  1.000000e+00
     vertex  3.616100e-03  2.978127e-02  1.000000e+00
   endloop
 endfacet
 facet normal  0.000000e+00  1.000000e+00  0.000000e+00
   outer loop
     vertex -3.616100e-03  2.978127e-02  0.000000e+00
     vertex  3.616100e-03  2.978127e-02  1.000000e+00
     vertex  3.616100e-03  2.978127e-02  0.000000e+00
   endloop
 endfacet
 facet normal -2.393157e-01  9.709418e-01  0.000000e+00
   outer loop
     vertex -1.063815e-02  2.805049e-02  0.000000e+00
     vertex -1.063815e-02  2.805049e-02  1.000000e+00
     vertex -3.616100e-03  2.978127e-02  1.000000e+00
   endloop
 endfacet
 facet normal -2.393157e-01  9.709418e-01  0.000000e+00
   outer loop
     vertex -1.063815e-02  2.805049e-02  0.000000e+00
     vertex -3.616100e-03  2.978127e-02  1.000000e+00
     vertex -3.616100e-03  2.978127e-02  0.000000e+00
   endloop
 endfacet
 facet normal -4.647232e-01  8.854560e-01  0.000000e+00
   outer loop
     vertex -1.704194e-02  2.468952e-02  0.000000e+00
     vertex -1.704194e-02  2.468952e-02  1.000000e+00
     vertex -1.063815e-02  2.805049e-02  1.000000e+00
   endloop
 endfacet
 facet normal -4.647232e-01  8.854560e-01  0.000000e+00
   outer loop
     vertex -1.704194e-02  2.468952e-02  0.000000e+00
     vertex -1.063815e-02  2.805049e-02  1.000000e+00
     vertex -1.063815e-02  2.805049e-02  0.000000e+00
   endloop
 endfacet
 facet normal -6.631227e-01  7.485107e-01  0.000000e+00
   outer loop
     vertex -2.245532e-02  1.989368e-02  0.000000e+00
     vertex -2.245532e-02  1.989368e-02  1.000000e+00
     vertex -1.704194e-02  2.468952e-02  1.000000e+00
   endloop
 endfacet
 facet normal -6.631227e-01  7.485107e-01  0.000000e+00
   outer loop
     vertex -2.245532e-02  1.989368e-02  0.000000e+00
     vertex -1.704194e-02  2.468952e-02  1.000000e+00
     vertex -1.704194e-02  2.468952e-02  0.000000e+00
   endloop
 endfacet
 facet normal -8.229839e-01  5.680647e-01  0.000000e+00
   outer loop
     vertex -2.656368e-02  1.394170e-02  0.000000e+00
     vertex -2.656368e-02  1.394170e-02  1.000000e+00
     vertex -2.245532e-02  1.989368e-02  1.000000e+00
   endloop
 endfacet
 facet normal -8.229839e-01  5.680647e-01  0.000000e+00
   outer loop
     vertex -2.656368e-02  1.394170e-02  0.000000e+00
     vertex -2.245532e-02  1.989368e-02  1.000000e+00
     vertex -2.245532e-02  1.989368e-02  0.000000e+00
   endloop
 endfacet
 facet normal -9.350162e-01  3.546049e-01  0.000000e+00
   outer loop
     vertex -2.912825e-02  7.179470e-03  0.000000e+00
     vertex -2.656368e-02  1.394170e-02  1.000000e+00
     vertex -2.656368e-02  1.394170e-02  0.000000e+00
   endloop
 endfacet
 facet normal -9.350162e-01  3.546049e-01  0.000000e+00
   outer loop
     vertex -2.912825e-02  7.179470e-03  0.000000e+00
     vertex -2.912825e-02  7.179470e-03  1.000000e+00
     vertex -2.656368e-02  1.394170e-02  1.000000e+00
   endloop
 endfacet
 facet normal -9.927089e-01  1.205367e-01  0.000000e+00
   outer loop
     vertex -3.000000e-02  3.031929e-17  0.000000e+00
     vertex -2.912825e-02  7.179470e-03  1.000000e+00
     vertex -2.912825e-02  7.179470e-03  0.000000e+00
   endloop
 endfacet
 facet normal -9.927089e-01  1.205367e-01  0.000000e+00
   outer loop
     vertex -3.000000e-02  3.031929e-17  0.000000e+00
     vertex -3.000000e-02  3.031929e-17  1.000000e+00
     vertex -2.912825e-02  7.179470e-03  1.000000e+00
   endloop
 endfacet
 facet normal -9.927089e-01 -1.205367e-01  0.000000e+00
   outer loop
     vertex -2.912825e-02 -7.179470e-03  0.000000e+00
     vertex -2.912825e-02 -7.179470e-03  1.000000e+00
     vertex -3.000000e-02  3.031929e-17  1.000000e+00
   endloop
 endfacet
 facet normal -9.927089e-01 -1.205367e-01  0.000000e+00
   outer loop
     vertex -2.912825e-02 -7.179470e-03  0.000000e+00
     vertex -3.000000e-02  3.031929e-17  1.000000e+00
     vertex -3.000000e-02  3.031929e-17  0.000000e+00
   endloop
 endfacet
 facet normal -9.350162e-01 -3.546049e-01  0.000000e+00
   outer loop
     vertex -2.912825e-02 -7.179470e-03  0.000000e+00
     vertex -2.656368e-02 -1.394170e-02  1.000000e+00
     vertex -2.912825e-02 -7.179470e-03  1.000000e+00
   endloop
 endfacet
 facet normal -9.350162e-01 -3.546049e-01  0.000000e+00
   outer loop
     vertex -2.656368e-02 -1.394170e-02  0.000000e+00
     vertex -2.656368e-02 -1.394170e-02  1.000000e+00
     vertex -2.912825e-02 -7.179470e-03  0.000000e+00
   endloop
 endfacet
 facet normal -8.229839e-01 -5.680647e-01  0.000000e+00
   outer loop
     vertex -2.245532e-02 -1.989368e-02  0.000000e+00
     vertex -2.245532e-02 -1.989368e-02  1.000000e+00
     vertex -2.656368e-02 -1.394170e-02  1.000000e+00
   endloop
 endfacet
 facet normal -6.631227e-01 -7.485107e-01  0.000000e+00
   outer loop
     vertex -2.245532e-02 -1.989368e-02  0.000000e+00
     vertex -1.704194e-02 -2.468952e-02  1.000000e+00
     vertex -2.245532e-02 -1.989368e-02  1.000000e+00
   endloop
 endfacet
 facet normal -8.229839e-01 -5.680647e-01  0.000000e+00
   outer loop
     vertex -2.245532e-02 -1.989368e-02  0.000000e+00
     vertex -2.656368e-02 -1.394170e-02  1.000000e+00
     vertex -2.656368e-02 -1.394170e-02  0.000000e+00
   endloop
 endfacet
 facet normal -6.631227e-01 -7.485107e-01  0.000000e+00
   outer loop
     vertex -1.704194e-02 -2.468952e-02  0.000000e+00
     vertex -1.704194e-02 -2.468952e-02  1.000000e+00
     vertex -2.245532e-02 -1.989368e-02  0.000000e+00
   endloop
 endfacet
 facet normal -4.647232e-01 -8.854560e-01  0.000000e+00
   outer loop
     vertex -1.063815e-02 -2.805049e-02  0.000000e+00
     vertex -1.063815e-02 -2.805049e-02  1.000000e+00
     vertex -1.704194e-02 -2.468952e-02  1.000000e+00
   endloop
 endfacet
 facet normal -4.647232e-01 -8.854560e-01  0.000000e+00
   outer loop
     vertex -1.063815e-02 -2.805049e-02  0.000000e+00
     vertex -1.704194e-02 -2.468952e-02  1.000000e+00
     vertex -1.704194e-02 -2.468952e-02  0.000000e+00
   endloop
 endfacet
 facet normal -2.393157e-01 -9.709418e-01  0.000000e+00
   outer loop
     vertex -3.616100e-03 -2.978127e-02  0.000000e+00
     vertex -3.616100e-03 -2.978127e-02  1.000000e+00
     vertex -1.063815e-02 -2.805049e-02  1.000000e+00
   endloop
 endfacet
 facet normal -2.398611e-15 -1.000000e+00  0.000000e+00
   outer loop
     vertex -3.616100e-03 -2.978127e-02  0.000000e+00
     vertex  3.616100e-03 -2.978127e-02  1.000000e+00
     vertex -3.616100e-03 -2.978127e-02  1.000000e+00
   endloop
 endfacet
 facet normal -2.393157e-01 -9.709418e-01  0.000000e+00
   outer loop
     vertex -3.616100e-03 -2.978127e-02  0.000000e+00
     vertex -1.063815e-02 -2.805049e-02  1.000000e+00
     vertex -1.063815e-02 -2.805049e-02  0.000000e+00
   endloop
 endfacet
 facet normal -2.398611e-15 -1.000000e+00  0.000000e+00
   outer loop
     vertex  3.616100e-03 -2.978127e-02  0.000000e+00
     vertex  3.616100e-03 -2.978127e-02  1.000000e+00
     vertex -3.616100e-03 -2.978127e-02  0.000000e+00
   endloop
 endfacet
 facet normal  2.393157e-01 -9.709418e-01  0.000000e+00
   outer loop
     vertex  1.063815e-02 -2.805049e-02  0.000000e+00
     vertex  1.063815e-02 -2.805049e-02  1.000000e+00
     vertex  3.616100e-03 -2.978127e-02  1.000000e+00
   endloop
 endfacet
 facet normal  4.647232e-01 -8.854560e-01  0.000000e+00
   outer loop
     vertex  1.063815e-02 -2.805049e-02  0.000000e+00
     vertex  1.704194e-02 -2.468952e-02  1.000000e+00
     vertex  1.063815e-02 -2.805049e-02  1.000000e+00
   endloop
 endfacet
 facet normal  2.393157e-01 -9.709418e-01  0.000000e+00
   outer loop
     vertex  1.063815e-02 -2.805049e-02  0.000000e+00
     vertex  3.616100e-03 -2.978127e-02  1.000000e+00
     vertex  3.616100e-03 -2.978127e-02  0.000000e+00
   endloop
 endfacet
 facet normal  4.647232e-01 -8.854560e-01  0.000000e+00
   outer loop
     vertex  1.704194e-02 -2.468952e-02  0.000000e+00
     vertex  1.704194e-02 -2.468952e-02  1.000000e+00
     vertex  1.063815e-02 -2.805049e-02  0.000000e+00
   endloop
 endfacet
 facet normal  6.631227e-01 -7.485107e-01  0.000000e+00
   outer loop
     vertex  2.245532e-02 -1.989368e-02  0.000000e+00
     vertex  2.245532e-02 -1.989368e-02  1.000000e+00
     vertex  1.704194e-02 -2.468952e-02  1.000000e+00
   endloop
 endfacet
 facet normal  8.229839e-01 -5.680647e-01  0.000000e+00
   outer loop
     vertex  2.245532e-02 -1.989368e-02  0.000000e+00
     vertex  2.656368e-02 -1.394170e-02  1.000000e+00
     vertex  2.245532e-02 -1.989368e-02  1.000000e+00
   endloop
 endfacet
 facet normal  6.631227e-01 -7.485107e-01  0.000000e+00
   outer loop
     vertex  2.245532e-02 -1.989368e-02  0.000000e+00
     vertex  1.704194e-02 -2.468952e-02  1.000000e+00
     vertex  1.704194e-02 -2.468952e-02  0.000000e+00
   endloop
 endfacet
 facet normal  8.229839e-01 -5.680647e-01  0.000000e+00
   outer loop
     vertex  2.656368e-02 -1.394170e-02  0.000000e+00
     vertex  2.656368e-02 -1.394170e-02  1.000000e+00
     vertex  2.245532e-02 -1.989368e-02  0.000000e+00
   endloop
 endfacet
 facet normal  9.350162e-01 -3.546049e-01  0.000000e+00
   outer loop
     vertex  2.912825e-02 -7.179470e-03  0.000000e+00
     vertex  2.912825e-02 -7.179470e-03  1.000000e+00
     vertex  2.656368e-02 -1.394170e-02  1.000000e+00
   endloop
 endfacet
 facet normal  9.350162e-01 -3.546049e-01  0.000000e+00
   outer loop
     vertex  2.912825e-02 -7.179470e-03  0.000000e+00
     vertex  2.656368e-02 -1.394170e-02  1.000000e+00
     vertex  2.656368e-02 -1.394170e-02  0.000000e+00
   endloop
 endfacet
 facet normal  9.927089e-01 -1.205367e-01  0.000000e+00
   outer loop
     vertex  3.000000e-02  0.000000e+00  0.000000e+00
     vertex  3.000000e-02  0.000000e+00  1.000000e+00
     vertex  2.912825e-02 -7.179470e-03  1.000000e+00
   endloop
 endfacet
 facet normal  9.927089e-01 -1.205367e-01  0.000000e+00
   outer loop
     vertex  3.000000e-02  0.000000e+00  0.000000e+00
     vertex  2.912825e-02 -7.179470e-03  1.000000e+00
     vertex  2.912825e-02 -7.179470e-03  0.000000e+00
   endloop
 endfacet
 facet normal  0.000000e+00  0.000000e+00 -1.000000e+00
   outer loop
     vertex  2.245532e-02  1.989368e-02  0.000000e+00
     vertex  2.912825e-02  7.179470e-03  0.000000e+00
     vertex  3.000000e-02  0.000000e+00  0.000000e+00
   endloop
 endfacet
 facet normal  0.000000e+00  0.000000e+00 -1.000000e+00
   outer loop
     vertex  2.245532e-02  1.989368e-02  0.000000e+00
     vertex  2.656368e-02  1.394170e-02  0.000000e+00
     vertex  2.912825e-02  7.179470e-03  0.000000e+00
   endloop
 endfacet
 facet normal  0.000000e+00  0.000000e+00 -1.000000e+00
   outer loop
     vertex  2.245532e-02  1.989368e-02  0.000000e+00
     vertex  1.063815e-02  2.805049e-02  0.000000e+00
     vertex  1.704194e-02  2.468952e-02  0.000000e+00
   endloop
 endfacet
 facet normal  0.000000e+00  0.000000e+00 -1.000000e+00
   outer loop
     vertex  2.245532e-02  1.989368e-02  0.000000e+00
     vertex  3.616100e-03  2.978127e-02  0.000000e+00
     vertex  1.063815e-02  2.805049e-02  0.000000e+00
   endloop
 endfacet
 facet normal  0.000000e+00  0.000000e+00 -1.000000e+00
   outer loop
     vertex  2.245532e-02  1.989368e-02  0.000000e+00
     vertex -3.616100e-03  2.978127e-02  0.000000e+00
     vertex  3.616100e-03  2.978127e-02  0.000000e+00
   endloop
 endfacet
 facet normal  0.000000e+00  0.000000e+00 -1.000000e+00
   outer loop
     vertex  2.245532e-02  1.989368e-02  0.000000e+00
     vertex -1.063815e-02  2.805049e-02  0.000000e+00
     vertex -3.616100e-03  2.978127e-02  0.000000e+00
   endloop
 endfacet
 facet normal  0.000000e+00  0.000000e+00 -1.000000e+00
   outer loop
     vertex  2.245532e-02  1.989368e-02  0.000000e+00
     vertex -1.704194e-02  2.468952e-02  0.000000e+00
     vertex -1.063815e-02  2.805049e-02  0.000000e+00
   endloop
 endfacet
 facet normal  0.000000e+00  0.000000e+00 -1.000000e+00
   outer loop
     vertex  2.245532e-02  1.989368e-02  0.000000e+00
     vertex -2.245532e-02  1.989368e-02  0.000000e+00
     vertex -1.704194e-02  2.468952e-02  0.000000e+00
   endloop
 endfacet
 facet normal -0.000000e+00  0.000000e+00 -1.000000e+00
   outer loop
     vertex  2.245532e-02  1.989368e-02  0.000000e+00
     vertex -2.656368e-02  1.394170e-02  0.000000e+00
     vertex -2.245532e-02  1.989368e-02  0.000000e+00
   endloop
 endfacet
 facet normal  0.000000e+00  0.000000e+00 -1.000000e+00
   outer loop
     vertex  2.245532e-02  1.989368e-02  0.000000e+00
     vertex -2.912825e-02  7.179470e-03  0.000000e+00
     vertex -2.656368e-02  1.394170e-02  0.000000e+00
   endloop
 endfacet
 facet normal  0.000000e+00  0.000000e+00 -1.000000e+00
   outer loop
     vertex  2.245532e-02  1.989368e-02  0.000000e+00
     vertex -3.000000e-02  3.031929e-17  0.000000e+00
     vertex -2.912825e-02  7.179470e-03  0.000000e+00
   endloop
 endfacet
 facet normal  0.000000e+00  0.000000e+00 -1.000000e+00
   outer loop
     vertex  2.245532e-02  1.989368e-02  0.000000e+00
     vertex -2.912825e-02 -7.179470e-03  0.000000e+00
     vertex -3.000000e-02  3.031929e-17  0.000000e+00
   endloop
 endfacet
 facet normal  0.000000e+00  0.000000e+00 -1.000000e+00
   outer loop
     vertex  2.245532e-02  1.989368e-02  0.000000e+00
     vertex -2.656368e-02 -1.394170e-02  0.000000e+00
     vertex -2.912825e-02 -7.179470e-03  0.000000e+00
   endloop
 endfacet
 facet normal  0.000000e+00  0.000000e+00 -1.000000e+00
   outer loop
     vertex  2.245532e-02  1.989368e-02  0.000000e+00
     vertex -2.245532e-02 -1.989368e-02  0.000000e+00
     vertex -2.656368e-02 -1.394170e-02  0.000000e+00
   endloop
 endfacet
 facet normal  0.000000e+00  0.000000e+00 -1.000000e+00
   outer loop
     vertex  2.245532e-02  1.989368e-02  0.000000e+00
     vertex -1.704194e-02 -2.468952e-02  0.000000e+00
     vertex -2.245532e-02 -1.989368e-02  0.000000e+00
   endloop
 endfacet
 facet normal  0.000000e+00  0.000000e+00 -1.000000e+00
   outer loop
     vertex  2.245532e-02  1.989368e-02  0.000000e+00
     vertex -1.063815e-02 -2.805049e-02  0.000000e+00
     vertex -1.704194e-02 -2.468952e-02  0.000000e+00
   endloop
 endfacet
 facet normal  0.000000e+00  0.000000e+00 -1.000000e+00
   outer loop
     vertex  2.245532e-02  1.989368e-02  0.000000e+00
     vertex -3.616100e-03 -2.978127e-02  0.000000e+00
     vertex -1.063815e-02 -2.805049e-02  0.000000e+00
   endloop
 endfacet
 facet normal  0.000000e+00  0.000000e+00 -1.000000e+00
   outer loop
     vertex  2.245532e-02  1.989368e-02  0.000000e+00
     vertex  3.616100e-03 -2.978127e-02  0.000000e+00
     vertex -3.616100e-03 -2.978127e-02  0.000000e+00
   endloop
 endfacet
 facet normal  0.000000e+00  0.000000e+00 -1.000000e+00
   outer loop
     vertex  2.245532e-02  1.989368e-02  0.000000e+00
     vertex  1.063815e-02 -2.805049e-02  0.000000e+00
     vertex  3.616100e-03 -2.978127e-02  0.000000e+00
   endloop
 endfacet
 facet normal  0.000000e+00  0.000000e+00 -1.000000e+00
   outer loop
     vertex  2.245532e-02  1.989368e-02  0.000000e+00
     vertex  1.704194e-02 -2.468952e-02  0.000000e+00
     vertex  1.063815e-02 -2.805049e-02  0.000000e+00
   endloop
 endfacet
 facet normal  0.000000e+00  0.000000e+00 -1.000000e+00
   outer loop
     vertex  2.245532e-02  1.989368e-02  0.000000e+00
     vertex  2.245532e-02 -1.989368e-02  0.000000e+00
     vertex  1.704194e-02 -2.468952e-02  0.000000e+00
   endloop
 endfacet
 facet normal  0.000000e+00 -0.000000e+00 -1.000000e+00
   outer loop
     vertex  2.245532e-02  1.989368e-02  0.000000e+00
     vertex  2.656368e-02 -1.394170e-02  0.000000e+00
     vertex  2.245532e-02 -1.989368e-02  0.000000e+00
   endloop
 endfacet
 facet normal  0.000000e+00  0.000000e+00 -1.000000e+00
   outer loop
     vertex  2.245532e-02  1.989368e-02  0.000000e+00
     vertex  2.912825e-02 -7.179470e-03  0.000000e+00
     vertex  2.656368e-02 -1.394170e-02  0.000000e+00
   endloop
 endfacet
 facet normal  0.000000e+00  0.000000e+00 -1.000000e+00
   outer loop
     vertex  2.245532e-02  1.989368e-02  0.000000e+00
     vertex  3.000000e-02  0.000000e+00  0.000000e+00
     vertex  2.912825e-02 -7.179470e-03  0.000000e+00
   endloop
 endfacet
 facet normal  0.000000e+00  0.000000e+00  1.000000e+00
   outer loop
     vertex  2.245532e-02  1.989368e-02  1.000000e+00
     vertex  3.000000e-02  0.000000e+00  1.000000e+00
     vertex  2.912825e-02  7.179470e-03  1.000000e+00
   endloop
 endfacet
 facet normal  0.000000e+00  0.000000e+00  1.000000e+00
   outer loop
     vertex  2.245532e-02  1.989368e-02  1.000000e+00
     vertex  2.912825e-02  7.179470e-03  1.000000e+00
     vertex  2.656368e-02  1.394170e-02  1.000000e+00
   endloop
 endfacet
 facet normal  0.000000e+00  0.000000e+00  1.000000e+00
   outer loop
     vertex  2.245532e-02  1.989368e-02  1.000000e+00
     vertex  1.704194e-02  2.468952e-02  1.000000e+00
     vertex  1.063815e-02  2.805049e-02  1.000000e+00
   endloop
 endfacet
 facet normal  0.000000e+00  0.000000e+00  1.000000e+00
   outer loop
     vertex  2.245532e-02  1.989368e-02  1.000000e+00
     vertex  1.063815e-02  2.805049e-02  1.000000e+00
     vertex  3.616100e-03  2.978127e-02  1.000000e+00
   endloop
 endfacet
 facet normal  0.000000e+00  0.000000e+00  1.000000e+00
   outer loop
     vertex  2.245532e-02  1.989368e-02  1.000000e+00
     vertex  3.616100e-03  2.978127e-02  1.000000e+00
     vertex -3.616100e-03  2.978127e-02  1.000000e+00
   endloop
 endfacet
 facet normal  0.000000e+00  0.000000e+00  1.000000e+00
   outer loop
     vertex  2.245532e-02  1.989368e-02  1.000000e+00
     vertex -3.616100e-03  2.978127e-02  1.000000e+00
     vertex -1.063815e-02  2.805049e-02  1.000000e+00
   endloop
 endfacet
 facet normal  0.000000e+00  0.000000e+00  1.000000e+00
   outer loop
     vertex  2.245532e-02  1.989368e-02  1.000000e+00
     vertex -1.063815e-02  2.805049e-02  1.000000e+00
     vertex -1.704194e-02  2.468952e-02  1.000000e+00
   endloop
 endfacet
 facet normal  0.000000e+00  0.000000e+00  1.000000e+00
   outer loop
     vertex  2.245532e-02  1.989368e-02  1.000000e+00
     vertex -1.704194e-02  2.468952e-02  1.000000e+00
     vertex -2.245532e-02  1.989368e-02  1.000000e+00
   endloop
 endfacet
 facet normal  0.000000e+00  0.000000e+00  1.000000e+00
   outer loop
     vertex  2.245532e-02  1.989368e-02  1.000000e+00
     vertex -2.245532e-02  1.989368e-02  1.000000e+00
     vertex -2.656368e-02  1.394170e-02  1.000000e+00
   endloop
 endfacet
 facet normal  0.000000e+00  0.000000e+00  1.000000e+00
   outer loop
     vertex  2.245532e-02  1.989368e-02  1.000000e+00
     vertex -2.656368e-02  1.394170e-02  1.000000e+00
     vertex -2.912825e-02  7.179470e-03  1.000000e+00
   endloop
 endfacet
 facet normal  0.000000e+00  0.000000e+00  1.000000e+00
   outer loop
     vertex  2.245532e-02  1.989368e-02  1.000000e+00
     vertex -2.912825e-02  7.179470e-03  1.000000e+00
     vertex -3.000000e-02  3.031929e-17  1.000000e+00
   endloop
 endfacet
 facet normal  0.000000e+00  0.000000e+00  1.000000e+00
   outer loop
     vertex  2.245532e-02  1.989368e-02  1.000000e+00
     vertex -3.000000e-02  3.031929e-17  1.000000e+00
     vertex -2.912825e-02 -7.179470e-03  1.000000e+00
   endloop
 endfacet
 facet normal  0.000000e+00  0.000000e+00  1.000000e+00
   outer loop
     vertex  2.245532e-02  1.989368e-02  1.000000e+00
     vertex -2.912825e-02 -7.179470e-03  1.000000e+00
     vertex -2.656368e-02 -1.394170e-02  1.000000e+00
   endloop
 endfacet
 facet normal  0.000000e+00  0.000000e+00  1.000000e+00
   outer loop
     vertex  2.245532e-02  1.989368e-02  1.000000e+00
     vertex -2.656368e-02 -1.394170e-02  1.000000e+00
     vertex -2.245532e-02 -1.989368e-02  1.000000e+00
   endloop
 endfacet
 facet normal  0.000000e+00  0.000000e+00  1.000000e+00
   outer loop
     vertex  2.245532e-02  1.989368e-02  1.000000e+00
     vertex -2.245532e-02 -1.989368e-02  1.000000e+00
     vertex -1.704194e-02 -2.468952e-02  1.000000e+00
   endloop
 endfacet
 facet normal  0.000000e+00  0.000000e+00  1.000000e+00
   outer loop
     vertex  2.245532e-02  1.989368e-02  1.000000e+00
     vertex -1.704194e-02 -2.468952e-02  1.000000e+00
     vertex -1.063815e-02 -2.805049e-02  1.000000e+00
   endloop
 endfacet
 facet normal  0.000000e+00  0.000000e+00  1.000000e+00
   outer loop
     vertex  2.245532e-02  1.989368e-02  1.000000e+00
     vertex -1.063815e-02 -2.805049e-02  1.000000e+00
     vertex -3.616100e-03 -2.978127e-02  1.000000e+00
   endloop
 endfacet
 facet normal  0.000000e+00  0.000000e+00  1.000000e+00
   outer loop
     vertex  2.245532e-02  1.989368e-02  1.000000e+00
     vertex -3.616100e-03 -2.978127e-02  1.000000e+00
     vertex  3.616100e-03 -2.978127e-02  1.000000e+00
   endloop
 endfacet
 facet normal  0.000000e+00  0.000000e+00  1.000000e+00
   outer loop
     vertex  2.245532e-02  1.989368e-02  1.000000e+00
     vertex  3.616100e-03 -2.978127e-02  1.000000e+00
     vertex  1.063815e-02 -2.805049e-02  1.000000e+00
   endloop
 endfacet
 facet normal  0.000000e+00  0.000000e+00  1.000000e+00
   outer loop
     vertex  2.245532e-02  1.989368e-02  1.000000e+00
     vertex  1.063815e-02 -2.805049e-02  1.000000e+00
     vertex  1.704194e-02 -2.468952e-02  1.000000e+00
   endloop
 endfacet
 facet normal  0.000000e+00  0.000000e+00  1.000000e+00
   outer loop
     vertex  2.245532e-02  1.989368e-02  1.000000e+00
     vertex  1.704194e-02 -2.468952e-02  1.000000e+00
     vertex  2.245532e-02 -1.989368e-02  1.000000e+00
   endloop
 endfacet
 facet normal  0.000000e+00  0.000000e+00  1.000000e+00
   outer loop
     vertex  2.245532e-02  1.989368e-02  1.000000e+00
     vertex  2.245532e-02 -1.989368e-02  1.000000e+00
     vertex  2.656368e-02 -1.394170e-02  1.000000e+00
   endloop
 endfacet
 facet normal  0.000000e+00  0.000000e+00  1.000000e+00
   outer loop
     vertex  2.245532e-02  1.989368e-02  1.000000e+00
     vertex  2.656368e-02 -1.394170e-02  1.000000e+00
     vertex  2.912825e-02 -7.179470e-03  1.000000e+00
   endloop
 endfacet
 facet normal  0.000000e+00  0.000000e+00  1.000000e+00
   outer loop
     vertex  2.245532e-02  1.989368e-02  1.000000e+00
     vertex  2.912825e-02 -7.179470e-03  1.000000e+00
     vertex  3.000000e-02  0.000000e+00  1.000000e+00
   endloop
 endfacet
endsolid
