solid 
 facet normal -9.995066e-01  3.141076e-02  0.000000e+00
   outer loop
     vertex -9.780662e-01  6.153471e-02  0.000000e+00
     vertex -9.800000e-01  0.000000e+00  0.000000e+00
     vertex -9.800000e-01  0.000000e+00  4.000000e-02
   endloop
 endfacet
 facet normal -9.995066e-01  3.141076e-02  0.000000e+00
   outer loop
     vertex -9.780662e-01  6.153471e-02  0.000000e+00
     vertex -9.800000e-01  0.000000e+00  4.000000e-02
     vertex -9.780662e-01  6.153471e-02  4.000000e-02
   endloop
 endfacet
 facet normal -9.955620e-01  9.410831e-02  0.000000e+00
   outer loop
     vertex -9.722724e-01  1.228266e-01  0.000000e+00
     vertex -9.780662e-01  6.153471e-02  4.000000e-02
     vertex -9.722724e-01  1.228266e-01  4.000000e-02
   endloop
 endfacet
 facet normal -9.955620e-01  9.410831e-02  0.000000e+00
   outer loop
     vertex -9.722724e-01  1.228266e-01  0.000000e+00
     vertex -9.780662e-01  6.153471e-02  0.000000e+00
     vertex -9.780662e-01  6.153471e-02  4.000000e-02
   endloop
 endfacet
 facet normal -9.876883e-01  1.564345e-01  0.000000e+00
   outer loop
     vertex -9.626415e-01  1.836337e-01  0.000000e+00
     vertex -9.722724e-01  1.228266e-01  4.000000e-02
     vertex -9.626415e-01  1.836337e-01  4.000000e-02
   endloop
 endfacet
 facet normal -9.876883e-01  1.564345e-01  0.000000e+00
   outer loop
     vertex -9.626415e-01  1.836337e-01  0.000000e+00
     vertex -9.722724e-01  1.228266e-01  0.000000e+00
     vertex -9.722724e-01  1.228266e-01  4.000000e-02
   endloop
 endfacet
 facet normal -9.759168e-01  2.181432e-01  0.000000e+00
   outer loop
     vertex -9.492115e-01  2.437161e-01  0.000000e+00
     vertex -9.626415e-01  1.836337e-01  4.000000e-02
     vertex -9.492115e-01  2.437161e-01  4.000000e-02
   endloop
 endfacet
 facet normal -9.759168e-01  2.181432e-01  0.000000e+00
   outer loop
     vertex -9.492115e-01  2.437161e-01  0.000000e+00
     vertex -9.626415e-01  1.836337e-01  0.000000e+00
     vertex -9.626415e-01  1.836337e-01  4.000000e-02
   endloop
 endfacet
 facet normal -9.602937e-01  2.789911e-01  0.000000e+00
   outer loop
     vertex -9.320354e-01  3.028367e-01  0.000000e+00
     vertex -9.492115e-01  2.437161e-01  4.000000e-02
     vertex -9.320354e-01  3.028367e-01  4.000000e-02
   endloop
 endfacet
 facet normal -9.602937e-01  2.789911e-01  0.000000e+00
   outer loop
     vertex -9.320354e-01  3.028367e-01  0.000000e+00
     vertex -9.492115e-01  2.437161e-01  0.000000e+00
     vertex -9.492115e-01  2.437161e-01  4.000000e-02
   endloop
 endfacet
 facet normal -9.408808e-01  3.387379e-01  0.000000e+00
   outer loop
     vertex -9.111810e-01  3.607621e-01  0.000000e+00
     vertex -9.320354e-01  3.028367e-01  4.000000e-02
     vertex -9.111810e-01  3.607621e-01  4.000000e-02
   endloop
 endfacet
 facet normal -9.408808e-01  3.387379e-01  0.000000e+00
   outer loop
     vertex -9.111810e-01  3.607621e-01  0.000000e+00
     vertex -9.320354e-01  3.028367e-01  0.000000e+00
     vertex -9.320354e-01  3.028367e-01  4.000000e-02
   endloop
 endfacet
 facet normal -9.177546e-01  3.971479e-01  0.000000e+00
   outer loop
     vertex -8.867305e-01  4.172637e-01  0.000000e+00
     vertex -9.111810e-01  3.607621e-01  4.000000e-02
     vertex -8.867305e-01  4.172637e-01  4.000000e-02
   endloop
 endfacet
 facet normal -9.177546e-01  3.971479e-01  0.000000e+00
   outer loop
     vertex -8.867305e-01  4.172637e-01  0.000000e+00
     vertex -9.111810e-01  3.607621e-01  0.000000e+00
     vertex -9.111810e-01  3.607621e-01  4.000000e-02
   endloop
 endfacet
 facet normal -8.910065e-01  4.539905e-01  0.000000e+00
   outer loop
     vertex -8.587805e-01  4.721186e-01  0.000000e+00
     vertex -8.867305e-01  4.172637e-01  4.000000e-02
     vertex -8.587805e-01  4.721186e-01  4.000000e-02
   endloop
 endfacet
 facet normal -8.910065e-01  4.539905e-01  0.000000e+00
   outer loop
     vertex -8.587805e-01  4.721186e-01  0.000000e+00
     vertex -8.867305e-01  4.172637e-01  0.000000e+00
     vertex -8.867305e-01  4.172637e-01  4.000000e-02
   endloop
 endfacet
 facet normal -8.607420e-01  5.090414e-01  0.000000e+00
   outer loop
     vertex -8.274414e-01  5.251103e-01  0.000000e+00
     vertex -8.587805e-01  4.721186e-01  4.000000e-02
     vertex -8.274414e-01  5.251103e-01  4.000000e-02
   endloop
 endfacet
 facet normal -8.607420e-01  5.090414e-01  0.000000e+00
   outer loop
     vertex -8.274414e-01  5.251103e-01  0.000000e+00
     vertex -8.587805e-01  4.721186e-01  0.000000e+00
     vertex -8.587805e-01  4.721186e-01  4.000000e-02
   endloop
 endfacet
 facet normal -8.270806e-01  5.620834e-01  0.000000e+00
   outer loop
     vertex -7.928367e-01  5.760295e-01  0.000000e+00
     vertex -8.274414e-01  5.251103e-01  4.000000e-02
     vertex -7.928367e-01  5.760295e-01  4.000000e-02
   endloop
 endfacet
 facet normal -8.270806e-01  5.620834e-01  0.000000e+00
   outer loop
     vertex -7.928367e-01  5.760295e-01  0.000000e+00
     vertex -8.274414e-01  5.251103e-01  0.000000e+00
     vertex -8.274414e-01  5.251103e-01  4.000000e-02
   endloop
 endfacet
 facet normal -7.901550e-01  6.129071e-01  0.000000e+00
   outer loop
     vertex -7.551030e-01  6.246755e-01  0.000000e+00
     vertex -7.928367e-01  5.760295e-01  4.000000e-02
     vertex -7.551030e-01  6.246755e-01  4.000000e-02
   endloop
 endfacet
 facet normal -7.901550e-01  6.129071e-01  0.000000e+00
   outer loop
     vertex -7.551030e-01  6.246755e-01  0.000000e+00
     vertex -7.928367e-01  5.760295e-01  0.000000e+00
     vertex -7.928367e-01  5.760295e-01  4.000000e-02
   endloop
 endfacet
 facet normal -7.501111e-01  6.613119e-01  0.000000e+00
   outer loop
     vertex -7.143893e-01  6.708562e-01  0.000000e+00
     vertex -7.551030e-01  6.246755e-01  4.000000e-02
     vertex -7.143893e-01  6.708562e-01  4.000000e-02
   endloop
 endfacet
 facet normal -7.501111e-01  6.613119e-01  0.000000e+00
   outer loop
     vertex -7.143893e-01  6.708562e-01  0.000000e+00
     vertex -7.551030e-01  6.246755e-01  0.000000e+00
     vertex -7.551030e-01  6.246755e-01  4.000000e-02
   endloop
 endfacet
 facet normal -7.071068e-01  7.071068e-01  0.000000e+00
   outer loop
     vertex -6.708562e-01  7.143893e-01  0.000000e+00
     vertex -7.143893e-01  6.708562e-01  4.000000e-02
     vertex -6.708562e-01  7.143893e-01  4.000000e-02
   endloop
 endfacet
 facet normal -7.071068e-01  7.071068e-01  0.000000e+00
   outer loop
     vertex -6.708562e-01  7.143893e-01  0.000000e+00
     vertex -7.143893e-01  6.708562e-01  0.000000e+00
     vertex -7.143893e-01  6.708562e-01  4.000000e-02
   endloop
 endfacet
 facet normal -6.613119e-01  7.501111e-01  0.000000e+00
   outer loop
     vertex -6.246755e-01  7.551030e-01  0.000000e+00
     vertex -6.708562e-01  7.143893e-01  4.000000e-02
     vertex -6.246755e-01  7.551030e-01  4.000000e-02
   endloop
 endfacet
 facet normal -6.613119e-01  7.501111e-01  0.000000e+00
   outer loop
     vertex -6.246755e-01  7.551030e-01  0.000000e+00
     vertex -6.708562e-01  7.143893e-01  0.000000e+00
     vertex -6.708562e-01  7.143893e-01  4.000000e-02
   endloop
 endfacet
 facet normal -6.129071e-01  7.901550e-01  0.000000e+00
   outer loop
     vertex -5.760295e-01  7.928367e-01  0.000000e+00
     vertex -6.246755e-01  7.551030e-01  4.000000e-02
     vertex -5.760295e-01  7.928367e-01  4.000000e-02
   endloop
 endfacet
 facet normal -6.129071e-01  7.901550e-01  0.000000e+00
   outer loop
     vertex -5.760295e-01  7.928367e-01  0.000000e+00
     vertex -6.246755e-01  7.551030e-01  0.000000e+00
     vertex -6.246755e-01  7.551030e-01  4.000000e-02
   endloop
 endfacet
 facet normal -5.620834e-01  8.270806e-01  0.000000e+00
   outer loop
     vertex -5.251103e-01  8.274414e-01  0.000000e+00
     vertex -5.760295e-01  7.928367e-01  4.000000e-02
     vertex -5.251103e-01  8.274414e-01  4.000000e-02
   endloop
 endfacet
 facet normal -5.620834e-01  8.270806e-01  0.000000e+00
   outer loop
     vertex -5.251103e-01  8.274414e-01  0.000000e+00
     vertex -5.760295e-01  7.928367e-01  0.000000e+00
     vertex -5.760295e-01  7.928367e-01  4.000000e-02
   endloop
 endfacet
 facet normal -5.090414e-01  8.607420e-01  0.000000e+00
   outer loop
     vertex -4.721186e-01  8.587805e-01  0.000000e+00
     vertex -5.251103e-01  8.274414e-01  4.000000e-02
     vertex -4.721186e-01  8.587805e-01  4.000000e-02
   endloop
 endfacet
 facet normal -5.090414e-01  8.607420e-01  0.000000e+00
   outer loop
     vertex -4.721186e-01  8.587805e-01  0.000000e+00
     vertex -5.251103e-01  8.274414e-01  0.000000e+00
     vertex -5.251103e-01  8.274414e-01  4.000000e-02
   endloop
 endfacet
 facet normal -4.539905e-01  8.910065e-01  0.000000e+00
   outer loop
     vertex -4.172637e-01  8.867305e-01  0.000000e+00
     vertex -4.721186e-01  8.587805e-01  4.000000e-02
     vertex -4.172637e-01  8.867305e-01  4.000000e-02
   endloop
 endfacet
 facet normal -4.539905e-01  8.910065e-01  0.000000e+00
   outer loop
     vertex -4.172637e-01  8.867305e-01  0.000000e+00
     vertex -4.721186e-01  8.587805e-01  0.000000e+00
     vertex -4.721186e-01  8.587805e-01  4.000000e-02
   endloop
 endfacet
 facet normal -3.971479e-01  9.177546e-01  0.000000e+00
   outer loop
     vertex -3.607621e-01  9.111810e-01  0.000000e+00
     vertex -4.172637e-01  8.867305e-01  4.000000e-02
     vertex -3.607621e-01  9.111810e-01  4.000000e-02
   endloop
 endfacet
 facet normal -3.971479e-01  9.177546e-01  0.000000e+00
   outer loop
     vertex -3.607621e-01  9.111810e-01  0.000000e+00
     vertex -4.172637e-01  8.867305e-01  0.000000e+00
     vertex -4.172637e-01  8.867305e-01  4.000000e-02
   endloop
 endfacet
 facet normal -3.387379e-01  9.408808e-01  0.000000e+00
   outer loop
     vertex -3.028367e-01  9.320354e-01  0.000000e+00
     vertex -3.607621e-01  9.111810e-01  4.000000e-02
     vertex -3.028367e-01  9.320354e-01  4.000000e-02
   endloop
 endfacet
 facet normal -3.387379e-01  9.408808e-01  0.000000e+00
   outer loop
     vertex -3.028367e-01  9.320354e-01  0.000000e+00
     vertex -3.607621e-01  9.111810e-01  0.000000e+00
     vertex -3.607621e-01  9.111810e-01  4.000000e-02
   endloop
 endfacet
 facet normal -2.789911e-01  9.602937e-01  0.000000e+00
   outer loop
     vertex -2.437161e-01  9.492115e-01  0.000000e+00
     vertex -3.028367e-01  9.320354e-01  4.000000e-02
     vertex -2.437161e-01  9.492115e-01  4.000000e-02
   endloop
 endfacet
 facet normal -2.789911e-01  9.602937e-01  0.000000e+00
   outer loop
     vertex -2.437161e-01  9.492115e-01  0.000000e+00
     vertex -3.028367e-01  9.320354e-01  0.000000e+00
     vertex -3.028367e-01  9.320354e-01  4.000000e-02
   endloop
 endfacet
 facet normal -2.181432e-01  9.759168e-01  0.000000e+00
   outer loop
     vertex -1.836337e-01  9.626415e-01  0.000000e+00
     vertex -2.437161e-01  9.492115e-01  4.000000e-02
     vertex -1.836337e-01  9.626415e-01  4.000000e-02
   endloop
 endfacet
 facet normal -2.181432e-01  9.759168e-01  0.000000e+00
   outer loop
     vertex -1.836337e-01  9.626415e-01  0.000000e+00
     vertex -2.437161e-01  9.492115e-01  0.000000e+00
     vertex -2.437161e-01  9.492115e-01  4.000000e-02
   endloop
 endfacet
 facet normal -1.564345e-01  9.876883e-01  0.000000e+00
   outer loop
     vertex -1.228266e-01  9.722724e-01  0.000000e+00
     vertex -1.836337e-01  9.626415e-01  4.000000e-02
     vertex -1.228266e-01  9.722724e-01  4.000000e-02
   endloop
 endfacet
 facet normal -1.564345e-01  9.876883e-01  0.000000e+00
   outer loop
     vertex -1.228266e-01  9.722724e-01  0.000000e+00
     vertex -1.836337e-01  9.626415e-01  0.000000e+00
     vertex -1.836337e-01  9.626415e-01  4.000000e-02
   endloop
 endfacet
 facet normal -9.410831e-02  9.955620e-01  0.000000e+00
   outer loop
     vertex -6.153471e-02  9.780662e-01  0.000000e+00
     vertex -1.228266e-01  9.722724e-01  4.000000e-02
     vertex -6.153471e-02  9.780662e-01  4.000000e-02
   endloop
 endfacet
 facet normal -3.141076e-02  9.995066e-01  0.000000e+00
   outer loop
     vertex -6.153471e-02  9.780662e-01  0.000000e+00
     vertex -6.153471e-02  9.780662e-01  4.000000e-02
     vertex  6.483146e-16  9.800000e-01  4.000000e-02
   endloop
 endfacet
 facet normal -9.410831e-02  9.955620e-01  0.000000e+00
   outer loop
     vertex -6.153471e-02  9.780662e-01  0.000000e+00
     vertex -1.228266e-01  9.722724e-01  0.000000e+00
     vertex -1.228266e-01  9.722724e-01  4.000000e-02
   endloop
 endfacet
 facet normal -3.141076e-02  9.995066e-01  0.000000e+00
   outer loop
     vertex  6.483146e-16  9.800000e-01  0.000000e+00
     vertex -6.153471e-02  9.780662e-01  0.000000e+00
     vertex  6.483146e-16  9.800000e-01  4.000000e-02
   endloop
 endfacet
 facet normal  3.141076e-02  9.995066e-01  0.000000e+00
   outer loop
     vertex  6.153471e-02  9.780662e-01  0.000000e+00
     vertex  6.483146e-16  9.800000e-01  0.000000e+00
     vertex  6.483146e-16  9.800000e-01  4.000000e-02
   endloop
 endfacet
 facet normal  3.141076e-02  9.995066e-01 -0.000000e+00
   outer loop
     vertex  6.153471e-02  9.780662e-01  0.000000e+00
     vertex  6.483146e-16  9.800000e-01  4.000000e-02
     vertex  6.153471e-02  9.780662e-01  4.000000e-02
   endloop
 endfacet
 facet normal  9.410831e-02  9.955620e-01  0.000000e+00
   outer loop
     vertex  1.228266e-01  9.722724e-01  0.000000e+00
     vertex  6.153471e-02  9.780662e-01  0.000000e+00
     vertex  6.153471e-02  9.780662e-01  4.000000e-02
   endloop
 endfacet
 facet normal  9.410831e-02  9.955620e-01 -0.000000e+00
   outer loop
     vertex  1.228266e-01  9.722724e-01  0.000000e+00
     vertex  6.153471e-02  9.780662e-01  4.000000e-02
     vertex  1.228266e-01  9.722724e-01  4.000000e-02
   endloop
 endfacet
 facet normal  1.564345e-01  9.876883e-01  0.000000e+00
   outer loop
     vertex  1.836337e-01  9.626415e-01  0.000000e+00
     vertex  1.228266e-01  9.722724e-01  0.000000e+00
     vertex  1.228266e-01  9.722724e-01  4.000000e-02
   endloop
 endfacet
 facet normal  1.564345e-01  9.876883e-01 -0.000000e+00
   outer loop
     vertex  1.836337e-01  9.626415e-01  0.000000e+00
     vertex  1.228266e-01  9.722724e-01  4.000000e-02
     vertex  1.836337e-01  9.626415e-01  4.000000e-02
   endloop
 endfacet
 facet normal  2.181432e-01  9.759168e-01  0.000000e+00
   outer loop
     vertex  2.437161e-01  9.492115e-01  0.000000e+00
     vertex  1.836337e-01  9.626415e-01  0.000000e+00
     vertex  1.836337e-01  9.626415e-01  4.000000e-02
   endloop
 endfacet
 facet normal  2.181432e-01  9.759168e-01 -0.000000e+00
   outer loop
     vertex  2.437161e-01  9.492115e-01  0.000000e+00
     vertex  1.836337e-01  9.626415e-01  4.000000e-02
     vertex  2.437161e-01  9.492115e-01  4.000000e-02
   endloop
 endfacet
 facet normal  2.789911e-01  9.602937e-01  0.000000e+00
   outer loop
     vertex  3.028367e-01  9.320354e-01  0.000000e+00
     vertex  2.437161e-01  9.492115e-01  0.000000e+00
     vertex  2.437161e-01  9.492115e-01  4.000000e-02
   endloop
 endfacet
 facet normal  2.789911e-01  9.602937e-01 -0.000000e+00
   outer loop
     vertex  3.028367e-01  9.320354e-01  0.000000e+00
     vertex  2.437161e-01  9.492115e-01  4.000000e-02
     vertex  3.028367e-01  9.320354e-01  4.000000e-02
   endloop
 endfacet
 facet normal  3.387379e-01  9.408808e-01  0.000000e+00
   outer loop
     vertex  3.607621e-01  9.111810e-01  0.000000e+00
     vertex  3.028367e-01  9.320354e-01  0.000000e+00
     vertex  3.028367e-01  9.320354e-01  4.000000e-02
   endloop
 endfacet
 facet normal  3.387379e-01  9.408808e-01 -0.000000e+00
   outer loop
     vertex  3.607621e-01  9.111810e-01  0.000000e+00
     vertex  3.028367e-01  9.320354e-01  4.000000e-02
     vertex  3.607621e-01  9.111810e-01  4.000000e-02
   endloop
 endfacet
 facet normal  3.971479e-01  9.177546e-01 -0.000000e+00
   outer loop
     vertex  4.172637e-01  8.867305e-01  0.000000e+00
     vertex  3.607621e-01  9.111810e-01  4.000000e-02
     vertex  4.172637e-01  8.867305e-01  4.000000e-02
   endloop
 endfacet
 facet normal  3.971479e-01  9.177546e-01  0.000000e+00
   outer loop
     vertex  4.172637e-01  8.867305e-01  0.000000e+00
     vertex  3.607621e-01  9.111810e-01  0.000000e+00
     vertex  3.607621e-01  9.111810e-01  4.000000e-02
   endloop
 endfacet
 facet normal  4.539905e-01  8.910065e-01 -0.000000e+00
   outer loop
     vertex  4.721186e-01  8.587805e-01  0.000000e+00
     vertex  4.172637e-01  8.867305e-01  4.000000e-02
     vertex  4.721186e-01  8.587805e-01  4.000000e-02
   endloop
 endfacet
 facet normal  4.539905e-01  8.910065e-01  0.000000e+00
   outer loop
     vertex  4.721186e-01  8.587805e-01  0.000000e+00
     vertex  4.172637e-01  8.867305e-01  0.000000e+00
     vertex  4.172637e-01  8.867305e-01  4.000000e-02
   endloop
 endfacet
 facet normal  5.090414e-01  8.607420e-01 -0.000000e+00
   outer loop
     vertex  5.251103e-01  8.274414e-01  0.000000e+00
     vertex  4.721186e-01  8.587805e-01  4.000000e-02
     vertex  5.251103e-01  8.274414e-01  4.000000e-02
   endloop
 endfacet
 facet normal  5.090414e-01  8.607420e-01  0.000000e+00
   outer loop
     vertex  5.251103e-01  8.274414e-01  0.000000e+00
     vertex  4.721186e-01  8.587805e-01  0.000000e+00
     vertex  4.721186e-01  8.587805e-01  4.000000e-02
   endloop
 endfacet
 facet normal  5.620834e-01  8.270806e-01 -0.000000e+00
   outer loop
     vertex  5.760295e-01  7.928367e-01  0.000000e+00
     vertex  5.251103e-01  8.274414e-01  4.000000e-02
     vertex  5.760295e-01  7.928367e-01  4.000000e-02
   endloop
 endfacet
 facet normal  5.620834e-01  8.270806e-01  0.000000e+00
   outer loop
     vertex  5.760295e-01  7.928367e-01  0.000000e+00
     vertex  5.251103e-01  8.274414e-01  0.000000e+00
     vertex  5.251103e-01  8.274414e-01  4.000000e-02
   endloop
 endfacet
 facet normal  6.129071e-01  7.901550e-01 -0.000000e+00
   outer loop
     vertex  6.246755e-01  7.551030e-01  0.000000e+00
     vertex  5.760295e-01  7.928367e-01  4.000000e-02
     vertex  6.246755e-01  7.551030e-01  4.000000e-02
   endloop
 endfacet
 facet normal  6.129071e-01  7.901550e-01  0.000000e+00
   outer loop
     vertex  6.246755e-01  7.551030e-01  0.000000e+00
     vertex  5.760295e-01  7.928367e-01  0.000000e+00
     vertex  5.760295e-01  7.928367e-01  4.000000e-02
   endloop
 endfacet
 facet normal  6.613119e-01  7.501111e-01 -0.000000e+00
   outer loop
     vertex  6.708562e-01  7.143893e-01  0.000000e+00
     vertex  6.246755e-01  7.551030e-01  4.000000e-02
     vertex  6.708562e-01  7.143893e-01  4.000000e-02
   endloop
 endfacet
 facet normal  6.613119e-01  7.501111e-01  0.000000e+00
   outer loop
     vertex  6.708562e-01  7.143893e-01  0.000000e+00
     vertex  6.246755e-01  7.551030e-01  0.000000e+00
     vertex  6.246755e-01  7.551030e-01  4.000000e-02
   endloop
 endfacet
 facet normal  7.071068e-01  7.071068e-01 -0.000000e+00
   outer loop
     vertex  7.143893e-01  6.708562e-01  0.000000e+00
     vertex  6.708562e-01  7.143893e-01  4.000000e-02
     vertex  7.143893e-01  6.708562e-01  4.000000e-02
   endloop
 endfacet
 facet normal  7.071068e-01  7.071068e-01  0.000000e+00
   outer loop
     vertex  7.143893e-01  6.708562e-01  0.000000e+00
     vertex  6.708562e-01  7.143893e-01  0.000000e+00
     vertex  6.708562e-01  7.143893e-01  4.000000e-02
   endloop
 endfacet
 facet normal  7.501111e-01  6.613119e-01 -0.000000e+00
   outer loop
     vertex  7.551030e-01  6.246755e-01  0.000000e+00
     vertex  7.143893e-01  6.708562e-01  4.000000e-02
     vertex  7.551030e-01  6.246755e-01  4.000000e-02
   endloop
 endfacet
 facet normal  7.501111e-01  6.613119e-01  0.000000e+00
   outer loop
     vertex  7.551030e-01  6.246755e-01  0.000000e+00
     vertex  7.143893e-01  6.708562e-01  0.000000e+00
     vertex  7.143893e-01  6.708562e-01  4.000000e-02
   endloop
 endfacet
 facet normal  7.901550e-01  6.129071e-01 -0.000000e+00
   outer loop
     vertex  7.928367e-01  5.760295e-01  0.000000e+00
     vertex  7.551030e-01  6.246755e-01  4.000000e-02
     vertex  7.928367e-01  5.760295e-01  4.000000e-02
   endloop
 endfacet
 facet normal  7.901550e-01  6.129071e-01  0.000000e+00
   outer loop
     vertex  7.928367e-01  5.760295e-01  0.000000e+00
     vertex  7.551030e-01  6.246755e-01  0.000000e+00
     vertex  7.551030e-01  6.246755e-01  4.000000e-02
   endloop
 endfacet
 facet normal  8.270806e-01  5.620834e-01 -0.000000e+00
   outer loop
     vertex  8.274414e-01  5.251103e-01  0.000000e+00
     vertex  7.928367e-01  5.760295e-01  4.000000e-02
     vertex  8.274414e-01  5.251103e-01  4.000000e-02
   endloop
 endfacet
 facet normal  8.607420e-01  5.090414e-01 -0.000000e+00
   outer loop
     vertex  8.274414e-01  5.251103e-01  0.000000e+00
     vertex  8.274414e-01  5.251103e-01  4.000000e-02
     vertex  8.587805e-01  4.721186e-01  4.000000e-02
   endloop
 endfacet
 facet normal  8.270806e-01  5.620834e-01  0.000000e+00
   outer loop
     vertex  8.274414e-01  5.251103e-01  0.000000e+00
     vertex  7.928367e-01  5.760295e-01  0.000000e+00
     vertex  7.928367e-01  5.760295e-01  4.000000e-02
   endloop
 endfacet
 facet normal  8.607420e-01  5.090414e-01 -0.000000e+00
   outer loop
     vertex  8.587805e-01  4.721186e-01  0.000000e+00
     vertex  8.274414e-01  5.251103e-01  0.000000e+00
     vertex  8.587805e-01  4.721186e-01  4.000000e-02
   endloop
 endfacet
 facet normal  8.910065e-01  4.539905e-01 -0.000000e+00
   outer loop
     vertex  8.867305e-01  4.172637e-01  0.000000e+00
     vertex  8.587805e-01  4.721186e-01  4.000000e-02
     vertex  8.867305e-01  4.172637e-01  4.000000e-02
   endloop
 endfacet
 facet normal  8.910065e-01  4.539905e-01  0.000000e+00
   outer loop
     vertex  8.867305e-01  4.172637e-01  0.000000e+00
     vertex  8.587805e-01  4.721186e-01  0.000000e+00
     vertex  8.587805e-01  4.721186e-01  4.000000e-02
   endloop
 endfacet
 facet normal  9.177546e-01  3.971479e-01 -0.000000e+00
   outer loop
     vertex  9.111810e-01  3.607621e-01  0.000000e+00
     vertex  8.867305e-01  4.172637e-01  4.000000e-02
     vertex  9.111810e-01  3.607621e-01  4.000000e-02
   endloop
 endfacet
 facet normal  9.177546e-01  3.971479e-01  0.000000e+00
   outer loop
     vertex  9.111810e-01  3.607621e-01  0.000000e+00
     vertex  8.867305e-01  4.172637e-01  0.000000e+00
     vertex  8.867305e-01  4.172637e-01  4.000000e-02
   endloop
 endfacet
 facet normal  9.408808e-01  3.387379e-01 -0.000000e+00
   outer loop
     vertex  9.320354e-01  3.028367e-01  0.000000e+00
     vertex  9.111810e-01  3.607621e-01  4.000000e-02
     vertex  9.320354e-01  3.028367e-01  4.000000e-02
   endloop
 endfacet
 facet normal  9.408808e-01  3.387379e-01  0.000000e+00
   outer loop
     vertex  9.320354e-01  3.028367e-01  0.000000e+00
     vertex  9.111810e-01  3.607621e-01  0.000000e+00
     vertex  9.111810e-01  3.607621e-01  4.000000e-02
   endloop
 endfacet
 facet normal  9.602937e-01  2.789911e-01 -0.000000e+00
   outer loop
     vertex  9.492115e-01  2.437161e-01  0.000000e+00
     vertex  9.320354e-01  3.028367e-01  4.000000e-02
     vertex  9.492115e-01  2.437161e-01  4.000000e-02
   endloop
 endfacet
 facet normal  9.602937e-01  2.789911e-01  0.000000e+00
   outer loop
     vertex  9.492115e-01  2.437161e-01  0.000000e+00
     vertex  9.320354e-01  3.028367e-01  0.000000e+00
     vertex  9.320354e-01  3.028367e-01  4.000000e-02
   endloop
 endfacet
 facet normal  9.759168e-01  2.181432e-01 -0.000000e+00
   outer loop
     vertex  9.626415e-01  1.836337e-01  0.000000e+00
     vertex  9.492115e-01  2.437161e-01  4.000000e-02
     vertex  9.626415e-01  1.836337e-01  4.000000e-02
   endloop
 endfacet
 facet normal  9.759168e-01  2.181432e-01  0.000000e+00
   outer loop
     vertex  9.626415e-01  1.836337e-01  0.000000e+00
     vertex  9.492115e-01  2.437161e-01  0.000000e+00
     vertex  9.492115e-01  2.437161e-01  4.000000e-02
   endloop
 endfacet
 facet normal  9.876883e-01  1.564345e-01 -0.000000e+00
   outer loop
     vertex  9.722724e-01  1.228266e-01  0.000000e+00
     vertex  9.626415e-01  1.836337e-01  4.000000e-02
     vertex  9.722724e-01  1.228266e-01  4.000000e-02
   endloop
 endfacet
 facet normal  9.955620e-01  9.410831e-02 -0.000000e+00
   outer loop
     vertex  9.722724e-01  1.228266e-01  0.000000e+00
     vertex  9.722724e-01  1.228266e-01  4.000000e-02
     vertex  9.780662e-01  6.153471e-02  4.000000e-02
   endloop
 endfacet
 facet normal  9.876883e-01  1.564345e-01  0.000000e+00
   outer loop
     vertex  9.722724e-01  1.228266e-01  0.000000e+00
     vertex  9.626415e-01  1.836337e-01  0.000000e+00
     vertex  9.626415e-01  1.836337e-01  4.000000e-02
   endloop
 endfacet
 facet normal  9.955620e-01  9.410831e-02 -0.000000e+00
   outer loop
     vertex  9.780662e-01  6.153471e-02  0.000000e+00
     vertex  9.722724e-01  1.228266e-01  0.000000e+00
     vertex  9.780662e-01  6.153471e-02  4.000000e-02
   endloop
 endfacet
 facet normal  9.995066e-01  3.141076e-02 -0.000000e+00
   outer loop
     vertex  9.800000e-01  4.496541e-18  0.000000e+00
     vertex  9.780662e-01  6.153471e-02  4.000000e-02
     vertex  9.800000e-01  4.496541e-18  4.000000e-02
   endloop
 endfacet
 facet normal  9.995066e-01  3.141076e-02  0.000000e+00
   outer loop
     vertex  9.800000e-01  4.496541e-18  0.000000e+00
     vertex  9.780662e-01  6.153471e-02  0.000000e+00
     vertex  9.780662e-01  6.153471e-02  4.000000e-02
   endloop
 endfacet
 facet normal  9.176613e-18 -1.000000e+00  0.000000e+00
   outer loop
     vertex  4.900000e-01  0.000000e+00  0.000000e+00
     vertex  9.800000e-01  4.496541e-18  0.000000e+00
     vertex  9.800000e-01  4.496541e-18  4.000000e-02
   endloop
 endfacet
 facet normal  9.176613e-18 -1.000000e+00  0.000000e+00
   outer loop
     vertex  4.900000e-01  0.000000e+00  0.000000e+00
     vertex  9.800000e-01  4.496541e-18  4.000000e-02
     vertex  4.900000e-01  0.000000e+00  4.000000e-02
   endloop
 endfacet
 facet normal -1.000000e+00  0.000000e+00  0.000000e+00
   outer loop
     vertex  4.900000e-01  3.900000e-01  0.000000e+00
     vertex  4.900000e-01  0.000000e+00  0.000000e+00
     vertex  4.900000e-01  0.000000e+00  4.000000e-02
   endloop
 endfacet
 facet normal -1.000000e+00  0.000000e+00  0.000000e+00
   outer loop
     vertex  4.900000e-01  3.900000e-01  0.000000e+00
     vertex  4.900000e-01  0.000000e+00  4.000000e-02
     vertex  4.900000e-01  3.900000e-01  4.000000e-02
   endloop
 endfacet
 facet normal  0.000000e+00 -1.000000e+00  0.000000e+00
   outer loop
     vertex  4.500000e-01  3.900000e-01  0.000000e+00
     vertex  4.900000e-01  3.900000e-01  0.000000e+00
     vertex  4.900000e-01  3.900000e-01  4.000000e-02
   endloop
 endfacet
 facet normal  0.000000e+00 -1.000000e+00  0.000000e+00
   outer loop
     vertex  4.500000e-01  3.900000e-01  0.000000e+00
     vertex  4.900000e-01  3.900000e-01  4.000000e-02
     vertex  4.500000e-01  3.900000e-01  4.000000e-02
   endloop
 endfacet
 facet normal  1.000000e+00  0.000000e+00  0.000000e+00
   outer loop
     vertex  4.500000e-01  3.900000e-01  0.000000e+00
     vertex  4.500000e-01  0.000000e+00  4.000000e-02
     vertex  4.500000e-01  0.000000e+00  0.000000e+00
   endloop
 endfacet
 facet normal  1.000000e+00  0.000000e+00 -0.000000e+00
   outer loop
     vertex  4.500000e-01  3.900000e-01  0.000000e+00
     vertex  4.500000e-01  3.900000e-01  4.000000e-02
     vertex  4.500000e-01  0.000000e+00  4.000000e-02
   endloop
 endfacet
 facet normal -6.549305e-01 -7.556891e-01  0.000000e+00
   outer loop
     vertex  4.500000e-01  0.000000e+00  0.000000e+00
     vertex  0.000000e+00  3.900000e-01  4.000000e-02
     vertex  0.000000e+00  3.900000e-01  0.000000e+00
   endloop
 endfacet
 facet normal -6.549305e-01 -7.556891e-01  0.000000e+00
   outer loop
     vertex  4.500000e-01  0.000000e+00  0.000000e+00
     vertex  4.500000e-01  0.000000e+00  4.000000e-02
     vertex  0.000000e+00  3.900000e-01  4.000000e-02
   endloop
 endfacet
 facet normal  0.000000e+00 -1.000000e+00  0.000000e+00
   outer loop
     vertex  0.000000e+00  3.900000e-01  0.000000e+00
     vertex -4.000000e-02  3.900000e-01  4.000000e-02
     vertex -4.000000e-02  3.900000e-01  0.000000e+00
   endloop
 endfacet
 facet normal  0.000000e+00 -1.000000e+00  0.000000e+00
   outer loop
     vertex  0.000000e+00  3.900000e-01  0.000000e+00
     vertex  0.000000e+00  3.900000e-01  4.000000e-02
     vertex -4.000000e-02  3.900000e-01  4.000000e-02
   endloop
 endfacet
 facet normal  1.000000e+00  0.000000e+00  0.000000e+00
   outer loop
     vertex -4.000000e-02  3.900000e-01  0.000000e+00
     vertex -4.000000e-02  0.000000e+00  4.000000e-02
     vertex -4.000000e-02  0.000000e+00  0.000000e+00
   endloop
 endfacet
 facet normal  1.000000e+00  0.000000e+00 -0.000000e+00
   outer loop
     vertex -4.000000e-02  3.900000e-01  0.000000e+00
     vertex -4.000000e-02  3.900000e-01  4.000000e-02
     vertex -4.000000e-02  0.000000e+00  4.000000e-02
   endloop
 endfacet
 facet normal  0.000000e+00 -1.000000e+00  0.000000e+00
   outer loop
     vertex -4.000000e-02  0.000000e+00  0.000000e+00
     vertex -4.900000e-01  0.000000e+00  4.000000e-02
     vertex -4.900000e-01  0.000000e+00  0.000000e+00
   endloop
 endfacet
 facet normal  0.000000e+00 -1.000000e+00  0.000000e+00
   outer loop
     vertex -4.000000e-02  0.000000e+00  0.000000e+00
     vertex -4.000000e-02  0.000000e+00  4.000000e-02
     vertex -4.900000e-01  0.000000e+00  4.000000e-02
   endloop
 endfacet
 facet normal -1.000000e+00  0.000000e+00  0.000000e+00
   outer loop
     vertex -4.900000e-01  0.000000e+00  0.000000e+00
     vertex -4.900000e-01  3.900000e-01  4.000000e-02
     vertex -4.900000e-01  3.900000e-01  0.000000e+00
   endloop
 endfacet
 facet normal -1.000000e+00  0.000000e+00  0.000000e+00
   outer loop
     vertex -4.900000e-01  0.000000e+00  0.000000e+00
     vertex -4.900000e-01  0.000000e+00  4.000000e-02
     vertex -4.900000e-01  3.900000e-01  4.000000e-02
   endloop
 endfacet
 facet normal  0.000000e+00 -1.000000e+00  0.000000e+00
   outer loop
     vertex -4.900000e-01  3.900000e-01  0.000000e+00
     vertex -5.300000e-01  3.900000e-01  4.000000e-02
     vertex -5.300000e-01  3.900000e-01  0.000000e+00
   endloop
 endfacet
 facet normal  0.000000e+00 -1.000000e+00  0.000000e+00
   outer loop
     vertex -4.900000e-01  3.900000e-01  0.000000e+00
     vertex -4.900000e-01  3.900000e-01  4.000000e-02
     vertex -5.300000e-01  3.900000e-01  4.000000e-02
   endloop
 endfacet
 facet normal  1.000000e+00  0.000000e+00  0.000000e+00
   outer loop
     vertex -5.300000e-01  3.900000e-01  0.000000e+00
     vertex -5.300000e-01  0.000000e+00  4.000000e-02
     vertex -5.300000e-01  0.000000e+00  0.000000e+00
   endloop
 endfacet
 facet normal  1.000000e+00  0.000000e+00 -0.000000e+00
   outer loop
     vertex -5.300000e-01  3.900000e-01  0.000000e+00
     vertex -5.300000e-01  3.900000e-01  4.000000e-02
     vertex -5.300000e-01  0.000000e+00  4.000000e-02
   endloop
 endfacet
 facet normal  0.000000e+00 -1.000000e+00  0.000000e+00
   outer loop
     vertex -5.300000e-01  0.000000e+00  0.000000e+00
     vertex -9.800000e-01  0.000000e+00  4.000000e-02
     vertex -9.800000e-01  0.000000e+00  0.000000e+00
   endloop
 endfacet
 facet normal  0.000000e+00 -1.000000e+00  0.000000e+00
   outer loop
     vertex -5.300000e-01  0.000000e+00  0.000000e+00
     vertex -5.300000e-01  0.000000e+00  4.000000e-02
     vertex -9.800000e-01  0.000000e+00  4.000000e-02
   endloop
 endfacet
 facet normal  0.000000e+00  0.000000e+00 -1.000000e+00
   outer loop
     vertex -5.300000e-01  0.000000e+00  0.000000e+00
     vertex -9.800000e-01  0.000000e+00  0.000000e+00
     vertex -9.780662e-01  6.153471e-02  0.000000e+00
   endloop
 endfacet
 facet normal  0.000000e+00  0.000000e+00 -1.000000e+00
   outer loop
     vertex -5.300000e-01  0.000000e+00  0.000000e+00
     vertex -9.780662e-01  6.153471e-02  0.000000e+00
     vertex -9.722724e-01  1.228266e-01  0.000000e+00
   endloop
 endfacet
 facet normal  0.000000e+00  0.000000e+00 -1.000000e+00
   outer loop
     vertex -5.300000e-01  0.000000e+00  0.000000e+00
     vertex -9.722724e-01  1.228266e-01  0.000000e+00
     vertex -9.626415e-01  1.836337e-01  0.000000e+00
   endloop
 endfacet
 facet normal  0.000000e+00  0.000000e+00 -1.000000e+00
   outer loop
     vertex -5.300000e-01  0.000000e+00  0.000000e+00
     vertex -9.626415e-01  1.836337e-01  0.000000e+00
     vertex -9.492115e-01  2.437161e-01  0.000000e+00
   endloop
 endfacet
 facet normal  0.000000e+00  0.000000e+00 -1.000000e+00
   outer loop
     vertex -5.300000e-01  3.900000e-01  0.000000e+00
     vertex -9.492115e-01  2.437161e-01  0.000000e+00
     vertex -9.320354e-01  3.028367e-01  0.000000e+00
   endloop
 endfacet
 facet normal  0.000000e+00  0.000000e+00 -1.000000e+00
   outer loop
     vertex -5.300000e-01  3.900000e-01  0.000000e+00
     vertex -9.320354e-01  3.028367e-01  0.000000e+00
     vertex -9.111810e-01  3.607621e-01  0.000000e+00
   endloop
 endfacet
 facet normal -0.000000e+00  0.000000e+00 -1.000000e+00
   outer loop
     vertex -5.300000e-01  3.900000e-01  0.000000e+00
     vertex -9.111810e-01  3.607621e-01  0.000000e+00
     vertex -8.867305e-01  4.172637e-01  0.000000e+00
   endloop
 endfacet
 facet normal  0.000000e+00  0.000000e+00 -1.000000e+00
   outer loop
     vertex -5.300000e-01  3.900000e-01  0.000000e+00
     vertex -8.867305e-01  4.172637e-01  0.000000e+00
     vertex -8.587805e-01  4.721186e-01  0.000000e+00
   endloop
 endfacet
 facet normal  0.000000e+00  0.000000e+00 -1.000000e+00
   outer loop
     vertex -5.300000e-01  3.900000e-01  0.000000e+00
     vertex -8.587805e-01  4.721186e-01  0.000000e+00
     vertex -8.274414e-01  5.251103e-01  0.000000e+00
   endloop
 endfacet
 facet normal  0.000000e+00  0.000000e+00 -1.000000e+00
   outer loop
     vertex -5.300000e-01  3.900000e-01  0.000000e+00
     vertex -8.274414e-01  5.251103e-01  0.000000e+00
     vertex -7.928367e-01  5.760295e-01  0.000000e+00
   endloop
 endfacet
 facet normal  0.000000e+00 -0.000000e+00 -1.000000e+00
   outer loop
     vertex -5.300000e-01  3.900000e-01  0.000000e+00
     vertex -5.300000e-01  0.000000e+00  0.000000e+00
     vertex -9.492115e-01  2.437161e-01  0.000000e+00
   endloop
 endfacet
 facet normal  0.000000e+00 -0.000000e+00 -1.000000e+00
   outer loop
     vertex -7.551030e-01  6.246755e-01  0.000000e+00
     vertex -5.300000e-01  3.900000e-01  0.000000e+00
     vertex -7.928367e-01  5.760295e-01  0.000000e+00
   endloop
 endfacet
 facet normal  0.000000e+00 -0.000000e+00 -1.000000e+00
   outer loop
     vertex -7.143893e-01  6.708562e-01  0.000000e+00
     vertex -5.300000e-01  3.900000e-01  0.000000e+00
     vertex -7.551030e-01  6.246755e-01  0.000000e+00
   endloop
 endfacet
 facet normal  0.000000e+00 -0.000000e+00 -1.000000e+00
   outer loop
     vertex -6.708562e-01  7.143893e-01  0.000000e+00
     vertex -5.300000e-01  3.900000e-01  0.000000e+00
     vertex -7.143893e-01  6.708562e-01  0.000000e+00
   endloop
 endfacet
 facet normal  0.000000e+00 -0.000000e+00 -1.000000e+00
   outer loop
     vertex -6.246755e-01  7.551030e-01  0.000000e+00
     vertex -5.300000e-01  3.900000e-01  0.000000e+00
     vertex -6.708562e-01  7.143893e-01  0.000000e+00
   endloop
 endfacet
 facet normal  0.000000e+00  0.000000e+00 -1.000000e+00
   outer loop
     vertex -6.246755e-01  7.551030e-01  0.000000e+00
     vertex -4.900000e-01  3.900000e-01  0.000000e+00
     vertex -5.300000e-01  3.900000e-01  0.000000e+00
   endloop
 endfacet
 facet normal  0.000000e+00 -0.000000e+00 -1.000000e+00
   outer loop
     vertex -5.760295e-01  7.928367e-01  0.000000e+00
     vertex -4.900000e-01  3.900000e-01  0.000000e+00
     vertex -6.246755e-01  7.551030e-01  0.000000e+00
   endloop
 endfacet
 facet normal  0.000000e+00 -0.000000e+00 -1.000000e+00
   outer loop
     vertex -5.251103e-01  8.274414e-01  0.000000e+00
     vertex -4.900000e-01  3.900000e-01  0.000000e+00
     vertex -5.760295e-01  7.928367e-01  0.000000e+00
   endloop
 endfacet
 facet normal -0.000000e+00  0.000000e+00 -1.000000e+00
   outer loop
     vertex -4.000000e-02  3.900000e-01  0.000000e+00
     vertex -4.900000e-01  0.000000e+00  0.000000e+00
     vertex -4.900000e-01  3.900000e-01  0.000000e+00
   endloop
 endfacet
 facet normal  0.000000e+00 -0.000000e+00 -1.000000e+00
   outer loop
     vertex -4.000000e-02  3.900000e-01  0.000000e+00
     vertex -4.000000e-02  0.000000e+00  0.000000e+00
     vertex -4.900000e-01  0.000000e+00  0.000000e+00
   endloop
 endfacet
 facet normal  0.000000e+00  0.000000e+00 -1.000000e+00
   outer loop
     vertex -4.721186e-01  8.587805e-01  0.000000e+00
     vertex -4.900000e-01  3.900000e-01  0.000000e+00
     vertex -5.251103e-01  8.274414e-01  0.000000e+00
   endloop
 endfacet
 facet normal  0.000000e+00 -0.000000e+00 -1.000000e+00
   outer loop
     vertex -4.172637e-01  8.867305e-01  0.000000e+00
     vertex -4.000000e-02  3.900000e-01  0.000000e+00
     vertex -4.900000e-01  3.900000e-01  0.000000e+00
   endloop
 endfacet
 facet normal  0.000000e+00  0.000000e+00 -1.000000e+00
   outer loop
     vertex -4.172637e-01  8.867305e-01  0.000000e+00
     vertex -4.900000e-01  3.900000e-01  0.000000e+00
     vertex -4.721186e-01  8.587805e-01  0.000000e+00
   endloop
 endfacet
 facet normal  0.000000e+00 -0.000000e+00 -1.000000e+00
   outer loop
     vertex -3.607621e-01  9.111810e-01  0.000000e+00
     vertex -4.000000e-02  3.900000e-01  0.000000e+00
     vertex -4.172637e-01  8.867305e-01  0.000000e+00
   endloop
 endfacet
 facet normal  0.000000e+00 -0.000000e+00 -1.000000e+00
   outer loop
     vertex -3.028367e-01  9.320354e-01  0.000000e+00
     vertex -4.000000e-02  3.900000e-01  0.000000e+00
     vertex -3.607621e-01  9.111810e-01  0.000000e+00
   endloop
 endfacet
 facet normal  0.000000e+00 -0.000000e+00 -1.000000e+00
   outer loop
     vertex -2.437161e-01  9.492115e-01  0.000000e+00
     vertex -4.000000e-02  3.900000e-01  0.000000e+00
     vertex -3.028367e-01  9.320354e-01  0.000000e+00
   endloop
 endfacet
 facet normal  0.000000e+00 -0.000000e+00 -1.000000e+00
   outer loop
     vertex -1.836337e-01  9.626415e-01  0.000000e+00
     vertex -4.000000e-02  3.900000e-01  0.000000e+00
     vertex -2.437161e-01  9.492115e-01  0.000000e+00
   endloop
 endfacet
 facet normal -0.000000e+00 -0.000000e+00 -1.000000e+00
   outer loop
     vertex  4.500000e-01  3.900000e-01  0.000000e+00
     vertex  4.500000e-01  0.000000e+00  0.000000e+00
     vertex  0.000000e+00  3.900000e-01  0.000000e+00
   endloop
 endfacet
 facet normal  0.000000e+00 -0.000000e+00 -1.000000e+00
   outer loop
     vertex -1.228266e-01  9.722724e-01  0.000000e+00
     vertex -4.000000e-02  3.900000e-01  0.000000e+00
     vertex -1.836337e-01  9.626415e-01  0.000000e+00
   endloop
 endfacet
 facet normal  0.000000e+00 -0.000000e+00 -1.000000e+00
   outer loop
     vertex -6.153471e-02  9.780662e-01  0.000000e+00
     vertex -4.000000e-02  3.900000e-01  0.000000e+00
     vertex -1.228266e-01  9.722724e-01  0.000000e+00
   endloop
 endfacet
 facet normal  0.000000e+00  0.000000e+00 -1.000000e+00
   outer loop
     vertex  6.483146e-16  9.800000e-01  0.000000e+00
     vertex  0.000000e+00  3.900000e-01  0.000000e+00
     vertex -4.000000e-02  3.900000e-01  0.000000e+00
   endloop
 endfacet
 facet normal  0.000000e+00  0.000000e+00 -1.000000e+00
   outer loop
     vertex  6.483146e-16  9.800000e-01  0.000000e+00
     vertex -4.000000e-02  3.900000e-01  0.000000e+00
     vertex -6.153471e-02  9.780662e-01  0.000000e+00
   endloop
 endfacet
 facet normal  0.000000e+00 -0.000000e+00 -1.000000e+00
   outer loop
     vertex  9.780662e-01  6.153471e-02  0.000000e+00
     vertex  9.800000e-01  4.496541e-18  0.000000e+00
     vertex  4.900000e-01  0.000000e+00  0.000000e+00
   endloop
 endfacet
 facet normal -0.000000e+00  0.000000e+00 -1.000000e+00
   outer loop
     vertex  6.153471e-02  9.780662e-01  0.000000e+00
     vertex  0.000000e+00  3.900000e-01  0.000000e+00
     vertex  6.483146e-16  9.800000e-01  0.000000e+00
   endloop
 endfacet
 facet normal  0.000000e+00 -0.000000e+00 -1.000000e+00
   outer loop
     vertex  9.722724e-01  1.228266e-01  0.000000e+00
     vertex  9.780662e-01  6.153471e-02  0.000000e+00
     vertex  4.900000e-01  0.000000e+00  0.000000e+00
   endloop
 endfacet
 facet normal -0.000000e+00  0.000000e+00 -1.000000e+00
   outer loop
     vertex  1.228266e-01  9.722724e-01  0.000000e+00
     vertex  0.000000e+00  3.900000e-01  0.000000e+00
     vertex  6.153471e-02  9.780662e-01  0.000000e+00
   endloop
 endfacet
 facet normal  0.000000e+00 -0.000000e+00 -1.000000e+00
   outer loop
     vertex  9.626415e-01  1.836337e-01  0.000000e+00
     vertex  9.722724e-01  1.228266e-01  0.000000e+00
     vertex  4.900000e-01  0.000000e+00  0.000000e+00
   endloop
 endfacet
 facet normal -0.000000e+00  0.000000e+00 -1.000000e+00
   outer loop
     vertex  1.836337e-01  9.626415e-01  0.000000e+00
     vertex  0.000000e+00  3.900000e-01  0.000000e+00
     vertex  1.228266e-01  9.722724e-01  0.000000e+00
   endloop
 endfacet
 facet normal -0.000000e+00  0.000000e+00 -1.000000e+00
   outer loop
     vertex  9.492115e-01  2.437161e-01  0.000000e+00
     vertex  4.900000e-01  0.000000e+00  0.000000e+00
     vertex  4.900000e-01  3.900000e-01  0.000000e+00
   endloop
 endfacet
 facet normal  0.000000e+00 -0.000000e+00 -1.000000e+00
   outer loop
     vertex  9.492115e-01  2.437161e-01  0.000000e+00
     vertex  9.626415e-01  1.836337e-01  0.000000e+00
     vertex  4.900000e-01  0.000000e+00  0.000000e+00
   endloop
 endfacet
 facet normal -0.000000e+00  0.000000e+00 -1.000000e+00
   outer loop
     vertex  2.437161e-01  9.492115e-01  0.000000e+00
     vertex  0.000000e+00  3.900000e-01  0.000000e+00
     vertex  1.836337e-01  9.626415e-01  0.000000e+00
   endloop
 endfacet
 facet normal -0.000000e+00 -0.000000e+00 -1.000000e+00
   outer loop
     vertex  9.320354e-01  3.028367e-01  0.000000e+00
     vertex  9.492115e-01  2.437161e-01  0.000000e+00
     vertex  4.900000e-01  3.900000e-01  0.000000e+00
   endloop
 endfacet
 facet normal -0.000000e+00  0.000000e+00 -1.000000e+00
   outer loop
     vertex  3.028367e-01  9.320354e-01  0.000000e+00
     vertex  0.000000e+00  3.900000e-01  0.000000e+00
     vertex  2.437161e-01  9.492115e-01  0.000000e+00
   endloop
 endfacet
 facet normal -0.000000e+00 -0.000000e+00 -1.000000e+00
   outer loop
     vertex  9.111810e-01  3.607621e-01  0.000000e+00
     vertex  9.320354e-01  3.028367e-01  0.000000e+00
     vertex  4.900000e-01  3.900000e-01  0.000000e+00
   endloop
 endfacet
 facet normal  0.000000e+00 -0.000000e+00 -1.000000e+00
   outer loop
     vertex  3.607621e-01  9.111810e-01  0.000000e+00
     vertex  4.500000e-01  3.900000e-01  0.000000e+00
     vertex  0.000000e+00  3.900000e-01  0.000000e+00
   endloop
 endfacet
 facet normal -0.000000e+00  0.000000e+00 -1.000000e+00
   outer loop
     vertex  3.607621e-01  9.111810e-01  0.000000e+00
     vertex  0.000000e+00  3.900000e-01  0.000000e+00
     vertex  3.028367e-01  9.320354e-01  0.000000e+00
   endloop
 endfacet
 facet normal  0.000000e+00 -0.000000e+00 -1.000000e+00
   outer loop
     vertex  8.867305e-01  4.172637e-01  0.000000e+00
     vertex  9.111810e-01  3.607621e-01  0.000000e+00
     vertex  4.900000e-01  3.900000e-01  0.000000e+00
   endloop
 endfacet
 facet normal -0.000000e+00 -0.000000e+00 -1.000000e+00
   outer loop
     vertex  4.172637e-01  8.867305e-01  0.000000e+00
     vertex  4.500000e-01  3.900000e-01  0.000000e+00
     vertex  3.607621e-01  9.111810e-01  0.000000e+00
   endloop
 endfacet
 facet normal  0.000000e+00 -0.000000e+00 -1.000000e+00
   outer loop
     vertex  8.587805e-01  4.721186e-01  0.000000e+00
     vertex  8.867305e-01  4.172637e-01  0.000000e+00
     vertex  4.900000e-01  3.900000e-01  0.000000e+00
   endloop
 endfacet
 facet normal -0.000000e+00  0.000000e+00 -1.000000e+00
   outer loop
     vertex  4.721186e-01  8.587805e-01  0.000000e+00
     vertex  4.500000e-01  3.900000e-01  0.000000e+00
     vertex  4.172637e-01  8.867305e-01  0.000000e+00
   endloop
 endfacet
 facet normal  0.000000e+00 -0.000000e+00 -1.000000e+00
   outer loop
     vertex  8.274414e-01  5.251103e-01  0.000000e+00
     vertex  8.587805e-01  4.721186e-01  0.000000e+00
     vertex  4.900000e-01  3.900000e-01  0.000000e+00
   endloop
 endfacet
 facet normal -0.000000e+00  0.000000e+00 -1.000000e+00
   outer loop
     vertex  5.251103e-01  8.274414e-01  0.000000e+00
     vertex  4.500000e-01  3.900000e-01  0.000000e+00
     vertex  4.721186e-01  8.587805e-01  0.000000e+00
   endloop
 endfacet
 facet normal  0.000000e+00 -0.000000e+00 -1.000000e+00
   outer loop
     vertex  7.928367e-01  5.760295e-01  0.000000e+00
     vertex  8.274414e-01  5.251103e-01  0.000000e+00
     vertex  4.900000e-01  3.900000e-01  0.000000e+00
   endloop
 endfacet
 facet normal -0.000000e+00  0.000000e+00 -1.000000e+00
   outer loop
     vertex  5.760295e-01  7.928367e-01  0.000000e+00
     vertex  4.500000e-01  3.900000e-01  0.000000e+00
     vertex  5.251103e-01  8.274414e-01  0.000000e+00
   endloop
 endfacet
 facet normal  0.000000e+00 -0.000000e+00 -1.000000e+00
   outer loop
     vertex  7.551030e-01  6.246755e-01  0.000000e+00
     vertex  7.928367e-01  5.760295e-01  0.000000e+00
     vertex  4.900000e-01  3.900000e-01  0.000000e+00
   endloop
 endfacet
 facet normal  0.000000e+00  0.000000e+00 -1.000000e+00
   outer loop
     vertex  6.246755e-01  7.551030e-01  0.000000e+00
     vertex  4.900000e-01  3.900000e-01  0.000000e+00
     vertex  4.500000e-01  3.900000e-01  0.000000e+00
   endloop
 endfacet
 facet normal -0.000000e+00  0.000000e+00 -1.000000e+00
   outer loop
     vertex  6.246755e-01  7.551030e-01  0.000000e+00
     vertex  4.500000e-01  3.900000e-01  0.000000e+00
     vertex  5.760295e-01  7.928367e-01  0.000000e+00
   endloop
 endfacet
 facet normal -0.000000e+00  0.000000e+00 -1.000000e+00
   outer loop
     vertex  6.708562e-01  7.143893e-01  0.000000e+00
     vertex  4.900000e-01  3.900000e-01  0.000000e+00
     vertex  6.246755e-01  7.551030e-01  0.000000e+00
   endloop
 endfacet
 facet normal  0.000000e+00 -0.000000e+00 -1.000000e+00
   outer loop
     vertex  7.143893e-01  6.708562e-01  0.000000e+00
     vertex  7.551030e-01  6.246755e-01  0.000000e+00
     vertex  4.900000e-01  3.900000e-01  0.000000e+00
   endloop
 endfacet
 facet normal -0.000000e+00  0.000000e+00 -1.000000e+00
   outer loop
     vertex  7.143893e-01  6.708562e-01  0.000000e+00
     vertex  4.900000e-01  3.900000e-01  0.000000e+00
     vertex  6.708562e-01  7.143893e-01  0.000000e+00
   endloop
 endfacet
 facet normal  0.000000e+00  0.000000e+00  1.000000e+00
   outer loop
     vertex -5.300000e-01  0.000000e+00  4.000000e-02
     vertex -9.780662e-01  6.153471e-02  4.000000e-02
     vertex -9.800000e-01  0.000000e+00  4.000000e-02
   endloop
 endfacet
 facet normal  0.000000e+00  0.000000e+00  1.000000e+00
   outer loop
     vertex -5.300000e-01  0.000000e+00  4.000000e-02
     vertex -9.722724e-01  1.228266e-01  4.000000e-02
     vertex -9.780662e-01  6.153471e-02  4.000000e-02
   endloop
 endfacet
 facet normal  0.000000e+00  0.000000e+00  1.000000e+00
   outer loop
     vertex -5.300000e-01  0.000000e+00  4.000000e-02
     vertex -9.626415e-01  1.836337e-01  4.000000e-02
     vertex -9.722724e-01  1.228266e-01  4.000000e-02
   endloop
 endfacet
 facet normal  0.000000e+00  0.000000e+00  1.000000e+00
   outer loop
     vertex -5.300000e-01  0.000000e+00  4.000000e-02
     vertex -9.492115e-01  2.437161e-01  4.000000e-02
     vertex -9.626415e-01  1.836337e-01  4.000000e-02
   endloop
 endfacet
 facet normal  0.000000e+00  0.000000e+00  1.000000e+00
   outer loop
     vertex -5.300000e-01  3.900000e-01  4.000000e-02
     vertex -9.320354e-01  3.028367e-01  4.000000e-02
     vertex -9.492115e-01  2.437161e-01  4.000000e-02
   endloop
 endfacet
 facet normal  0.000000e+00  0.000000e+00  1.000000e+00
   outer loop
     vertex -5.300000e-01  3.900000e-01  4.000000e-02
     vertex -9.111810e-01  3.607621e-01  4.000000e-02
     vertex -9.320354e-01  3.028367e-01  4.000000e-02
   endloop
 endfacet
 facet normal  0.000000e+00  0.000000e+00  1.000000e+00
   outer loop
     vertex -5.300000e-01  3.900000e-01  4.000000e-02
     vertex -8.867305e-01  4.172637e-01  4.000000e-02
     vertex -9.111810e-01  3.607621e-01  4.000000e-02
   endloop
 endfacet
 facet normal  0.000000e+00  0.000000e+00  1.000000e+00
   outer loop
     vertex -5.300000e-01  3.900000e-01  4.000000e-02
     vertex -8.587805e-01  4.721186e-01  4.000000e-02
     vertex -8.867305e-01  4.172637e-01  4.000000e-02
   endloop
 endfacet
 facet normal  0.000000e+00  0.000000e+00  1.000000e+00
   outer loop
     vertex -5.300000e-01  3.900000e-01  4.000000e-02
     vertex -8.274414e-01  5.251103e-01  4.000000e-02
     vertex -8.587805e-01  4.721186e-01  4.000000e-02
   endloop
 endfacet
 facet normal  0.000000e+00  0.000000e+00  1.000000e+00
   outer loop
     vertex -5.300000e-01  3.900000e-01  4.000000e-02
     vertex -7.928367e-01  5.760295e-01  4.000000e-02
     vertex -8.274414e-01  5.251103e-01  4.000000e-02
   endloop
 endfacet
 facet normal  0.000000e+00  0.000000e+00  1.000000e+00
   outer loop
     vertex -5.300000e-01  3.900000e-01  4.000000e-02
     vertex -9.492115e-01  2.437161e-01  4.000000e-02
     vertex -5.300000e-01  0.000000e+00  4.000000e-02
   endloop
 endfacet
 facet normal  0.000000e+00  0.000000e+00  1.000000e+00
   outer loop
     vertex -7.551030e-01  6.246755e-01  4.000000e-02
     vertex -7.928367e-01  5.760295e-01  4.000000e-02
     vertex -5.300000e-01  3.900000e-01  4.000000e-02
   endloop
 endfacet
 facet normal  0.000000e+00  0.000000e+00  1.000000e+00
   outer loop
     vertex -7.143893e-01  6.708562e-01  4.000000e-02
     vertex -7.551030e-01  6.246755e-01  4.000000e-02
     vertex -5.300000e-01  3.900000e-01  4.000000e-02
   endloop
 endfacet
 facet normal  0.000000e+00  0.000000e+00  1.000000e+00
   outer loop
     vertex -6.708562e-01  7.143893e-01  4.000000e-02
     vertex -7.143893e-01  6.708562e-01  4.000000e-02
     vertex -5.300000e-01  3.900000e-01  4.000000e-02
   endloop
 endfacet
 facet normal  0.000000e+00  0.000000e+00  1.000000e+00
   outer loop
     vertex -6.246755e-01  7.551030e-01  4.000000e-02
     vertex -6.708562e-01  7.143893e-01  4.000000e-02
     vertex -5.300000e-01  3.900000e-01  4.000000e-02
   endloop
 endfacet
 facet normal  0.000000e+00  0.000000e+00  1.000000e+00
   outer loop
     vertex -6.246755e-01  7.551030e-01  4.000000e-02
     vertex -5.300000e-01  3.900000e-01  4.000000e-02
     vertex -4.900000e-01  3.900000e-01  4.000000e-02
   endloop
 endfacet
 facet normal  0.000000e+00  0.000000e+00  1.000000e+00
   outer loop
     vertex -5.760295e-01  7.928367e-01  4.000000e-02
     vertex -6.246755e-01  7.551030e-01  4.000000e-02
     vertex -4.900000e-01  3.900000e-01  4.000000e-02
   endloop
 endfacet
 facet normal  0.000000e+00  0.000000e+00  1.000000e+00
   outer loop
     vertex -5.251103e-01  8.274414e-01  4.000000e-02
     vertex -5.760295e-01  7.928367e-01  4.000000e-02
     vertex -4.900000e-01  3.900000e-01  4.000000e-02
   endloop
 endfacet
 facet normal  0.000000e+00  0.000000e+00  1.000000e+00
   outer loop
     vertex -4.000000e-02  3.900000e-01  4.000000e-02
     vertex -4.900000e-01  3.900000e-01  4.000000e-02
     vertex -4.900000e-01  0.000000e+00  4.000000e-02
   endloop
 endfacet
 facet normal  0.000000e+00  0.000000e+00  1.000000e+00
   outer loop
     vertex -4.000000e-02  3.900000e-01  4.000000e-02
     vertex -4.900000e-01  0.000000e+00  4.000000e-02
     vertex -4.000000e-02  0.000000e+00  4.000000e-02
   endloop
 endfacet
 facet normal  0.000000e+00  0.000000e+00  1.000000e+00
   outer loop
     vertex -4.721186e-01  8.587805e-01  4.000000e-02
     vertex -5.251103e-01  8.274414e-01  4.000000e-02
     vertex -4.900000e-01  3.900000e-01  4.000000e-02
   endloop
 endfacet
 facet normal  0.000000e+00  0.000000e+00  1.000000e+00
   outer loop
     vertex -4.172637e-01  8.867305e-01  4.000000e-02
     vertex -4.900000e-01  3.900000e-01  4.000000e-02
     vertex -4.000000e-02  3.900000e-01  4.000000e-02
   endloop
 endfacet
 facet normal  0.000000e+00  0.000000e+00  1.000000e+00
   outer loop
     vertex -4.172637e-01  8.867305e-01  4.000000e-02
     vertex -4.721186e-01  8.587805e-01  4.000000e-02
     vertex -4.900000e-01  3.900000e-01  4.000000e-02
   endloop
 endfacet
 facet normal  0.000000e+00  0.000000e+00  1.000000e+00
   outer loop
     vertex -3.607621e-01  9.111810e-01  4.000000e-02
     vertex -4.172637e-01  8.867305e-01  4.000000e-02
     vertex -4.000000e-02  3.900000e-01  4.000000e-02
   endloop
 endfacet
 facet normal  0.000000e+00  0.000000e+00  1.000000e+00
   outer loop
     vertex -3.028367e-01  9.320354e-01  4.000000e-02
     vertex -3.607621e-01  9.111810e-01  4.000000e-02
     vertex -4.000000e-02  3.900000e-01  4.000000e-02
   endloop
 endfacet
 facet normal  0.000000e+00  0.000000e+00  1.000000e+00
   outer loop
     vertex -2.437161e-01  9.492115e-01  4.000000e-02
     vertex -3.028367e-01  9.320354e-01  4.000000e-02
     vertex -4.000000e-02  3.900000e-01  4.000000e-02
   endloop
 endfacet
 facet normal  0.000000e+00  0.000000e+00  1.000000e+00
   outer loop
     vertex -1.836337e-01  9.626415e-01  4.000000e-02
     vertex -2.437161e-01  9.492115e-01  4.000000e-02
     vertex -4.000000e-02  3.900000e-01  4.000000e-02
   endloop
 endfacet
 facet normal  0.000000e+00  0.000000e+00  1.000000e+00
   outer loop
     vertex  4.500000e-01  3.900000e-01  4.000000e-02
     vertex  0.000000e+00  3.900000e-01  4.000000e-02
     vertex  4.500000e-01  0.000000e+00  4.000000e-02
   endloop
 endfacet
 facet normal  0.000000e+00  0.000000e+00  1.000000e+00
   outer loop
     vertex -1.228266e-01  9.722724e-01  4.000000e-02
     vertex -1.836337e-01  9.626415e-01  4.000000e-02
     vertex -4.000000e-02  3.900000e-01  4.000000e-02
   endloop
 endfacet
 facet normal  0.000000e+00  0.000000e+00  1.000000e+00
   outer loop
     vertex -6.153471e-02  9.780662e-01  4.000000e-02
     vertex -1.228266e-01  9.722724e-01  4.000000e-02
     vertex -4.000000e-02  3.900000e-01  4.000000e-02
   endloop
 endfacet
 facet normal  0.000000e+00  0.000000e+00  1.000000e+00
   outer loop
     vertex  6.483146e-16  9.800000e-01  4.000000e-02
     vertex -4.000000e-02  3.900000e-01  4.000000e-02
     vertex  0.000000e+00  3.900000e-01  4.000000e-02
   endloop
 endfacet
 facet normal  0.000000e+00  0.000000e+00  1.000000e+00
   outer loop
     vertex  6.483146e-16  9.800000e-01  4.000000e-02
     vertex -6.153471e-02  9.780662e-01  4.000000e-02
     vertex -4.000000e-02  3.900000e-01  4.000000e-02
   endloop
 endfacet
 facet normal  0.000000e+00  0.000000e+00  1.000000e+00
   outer loop
     vertex  9.780662e-01  6.153471e-02  4.000000e-02
     vertex  4.900000e-01  0.000000e+00  4.000000e-02
     vertex  9.800000e-01  4.496541e-18  4.000000e-02
   endloop
 endfacet
 facet normal  0.000000e+00  0.000000e+00  1.000000e+00
   outer loop
     vertex  6.153471e-02  9.780662e-01  4.000000e-02
     vertex  6.483146e-16  9.800000e-01  4.000000e-02
     vertex  0.000000e+00  3.900000e-01  4.000000e-02
   endloop
 endfacet
 facet normal  0.000000e+00  0.000000e+00  1.000000e+00
   outer loop
     vertex  9.722724e-01  1.228266e-01  4.000000e-02
     vertex  4.900000e-01  0.000000e+00  4.000000e-02
     vertex  9.780662e-01  6.153471e-02  4.000000e-02
   endloop
 endfacet
 facet normal  0.000000e+00  0.000000e+00  1.000000e+00
   outer loop
     vertex  1.228266e-01  9.722724e-01  4.000000e-02
     vertex  6.153471e-02  9.780662e-01  4.000000e-02
     vertex  0.000000e+00  3.900000e-01  4.000000e-02
   endloop
 endfacet
 facet normal  0.000000e+00  0.000000e+00  1.000000e+00
   outer loop
     vertex  9.626415e-01  1.836337e-01  4.000000e-02
     vertex  4.900000e-01  0.000000e+00  4.000000e-02
     vertex  9.722724e-01  1.228266e-01  4.000000e-02
   endloop
 endfacet
 facet normal  0.000000e+00  0.000000e+00  1.000000e+00
   outer loop
     vertex  1.836337e-01  9.626415e-01  4.000000e-02
     vertex  1.228266e-01  9.722724e-01  4.000000e-02
     vertex  0.000000e+00  3.900000e-01  4.000000e-02
   endloop
 endfacet
 facet normal  0.000000e+00  0.000000e+00  1.000000e+00
   outer loop
     vertex  9.492115e-01  2.437161e-01  4.000000e-02
     vertex  4.900000e-01  3.900000e-01  4.000000e-02
     vertex  4.900000e-01  0.000000e+00  4.000000e-02
   endloop
 endfacet
 facet normal  0.000000e+00  0.000000e+00  1.000000e+00
   outer loop
     vertex  9.492115e-01  2.437161e-01  4.000000e-02
     vertex  4.900000e-01  0.000000e+00  4.000000e-02
     vertex  9.626415e-01  1.836337e-01  4.000000e-02
   endloop
 endfacet
 facet normal  0.000000e+00  0.000000e+00  1.000000e+00
   outer loop
     vertex  2.437161e-01  9.492115e-01  4.000000e-02
     vertex  1.836337e-01  9.626415e-01  4.000000e-02
     vertex  0.000000e+00  3.900000e-01  4.000000e-02
   endloop
 endfacet
 facet normal  0.000000e+00  0.000000e+00  1.000000e+00
   outer loop
     vertex  9.320354e-01  3.028367e-01  4.000000e-02
     vertex  4.900000e-01  3.900000e-01  4.000000e-02
     vertex  9.492115e-01  2.437161e-01  4.000000e-02
   endloop
 endfacet
 facet normal  0.000000e+00  0.000000e+00  1.000000e+00
   outer loop
     vertex  3.028367e-01  9.320354e-01  4.000000e-02
     vertex  2.437161e-01  9.492115e-01  4.000000e-02
     vertex  0.000000e+00  3.900000e-01  4.000000e-02
   endloop
 endfacet
 facet normal  0.000000e+00  0.000000e+00  1.000000e+00
   outer loop
     vertex  9.111810e-01  3.607621e-01  4.000000e-02
     vertex  4.900000e-01  3.900000e-01  4.000000e-02
     vertex  9.320354e-01  3.028367e-01  4.000000e-02
   endloop
 endfacet
 facet normal  0.000000e+00  0.000000e+00  1.000000e+00
   outer loop
     vertex  3.607621e-01  9.111810e-01  4.000000e-02
     vertex  0.000000e+00  3.900000e-01  4.000000e-02
     vertex  4.500000e-01  3.900000e-01  4.000000e-02
   endloop
 endfacet
 facet normal  0.000000e+00  0.000000e+00  1.000000e+00
   outer loop
     vertex  3.607621e-01  9.111810e-01  4.000000e-02
     vertex  3.028367e-01  9.320354e-01  4.000000e-02
     vertex  0.000000e+00  3.900000e-01  4.000000e-02
   endloop
 endfacet
 facet normal  0.000000e+00  0.000000e+00  1.000000e+00
   outer loop
     vertex  8.867305e-01  4.172637e-01  4.000000e-02
     vertex  4.900000e-01  3.900000e-01  4.000000e-02
     vertex  9.111810e-01  3.607621e-01  4.000000e-02
   endloop
 endfacet
 facet normal  0.000000e+00  0.000000e+00  1.000000e+00
   outer loop
     vertex  4.172637e-01  8.867305e-01  4.000000e-02
     vertex  3.607621e-01  9.111810e-01  4.000000e-02
     vertex  4.500000e-01  3.900000e-01  4.000000e-02
   endloop
 endfacet
 facet normal  0.000000e+00  0.000000e+00  1.000000e+00
   outer loop
     vertex  8.587805e-01  4.721186e-01  4.000000e-02
     vertex  4.900000e-01  3.900000e-01  4.000000e-02
     vertex  8.867305e-01  4.172637e-01  4.000000e-02
   endloop
 endfacet
 facet normal  0.000000e+00  0.000000e+00  1.000000e+00
   outer loop
     vertex  4.721186e-01  8.587805e-01  4.000000e-02
     vertex  4.172637e-01  8.867305e-01  4.000000e-02
     vertex  4.500000e-01  3.900000e-01  4.000000e-02
   endloop
 endfacet
 facet normal  0.000000e+00  0.000000e+00  1.000000e+00
   outer loop
     vertex  8.274414e-01  5.251103e-01  4.000000e-02
     vertex  4.900000e-01  3.900000e-01  4.000000e-02
     vertex  8.587805e-01  4.721186e-01  4.000000e-02
   endloop
 endfacet
 facet normal  0.000000e+00  0.000000e+00  1.000000e+00
   outer loop
     vertex  5.251103e-01  8.274414e-01  4.000000e-02
     vertex  4.721186e-01  8.587805e-01  4.000000e-02
     vertex  4.500000e-01  3.900000e-01  4.000000e-02
   endloop
 endfacet
 facet normal  0.000000e+00  0.000000e+00  1.000000e+00
   outer loop
     vertex  7.928367e-01  5.760295e-01  4.000000e-02
     vertex  4.900000e-01  3.900000e-01  4.000000e-02
     vertex  8.274414e-01  5.251103e-01  4.000000e-02
   endloop
 endfacet
 facet normal  0.000000e+00  0.000000e+00  1.000000e+00
   outer loop
     vertex  5.760295e-01  7.928367e-01  4.000000e-02
     vertex  5.251103e-01  8.274414e-01  4.000000e-02
     vertex  4.500000e-01  3.900000e-01  4.000000e-02
   endloop
 endfacet
 facet normal  0.000000e+00  0.000000e+00  1.000000e+00
   outer loop
     vertex  7.551030e-01  6.246755e-01  4.000000e-02
     vertex  4.900000e-01  3.900000e-01  4.000000e-02
     vertex  7.928367e-01  5.760295e-01  4.000000e-02
   endloop
 endfacet
 facet normal  0.000000e+00  0.000000e+00  1.000000e+00
   outer loop
     vertex  6.246755e-01  7.551030e-01  4.000000e-02
     vertex  4.500000e-01  3.900000e-01  4.000000e-02
     vertex  4.900000e-01  3.900000e-01  4.000000e-02
   endloop
 endfacet
 facet normal  0.000000e+00  0.000000e+00  1.000000e+00
   outer loop
     vertex  6.246755e-01  7.551030e-01  4.000000e-02
     vertex  5.760295e-01  7.928367e-01  4.000000e-02
     vertex  4.500000e-01  3.900000e-01  4.000000e-02
   endloop
 endfacet
 facet normal  0.000000e+00  0.000000e+00  1.000000e+00
   outer loop
     vertex  6.708562e-01  7.143893e-01  4.000000e-02
     vertex  6.246755e-01  7.551030e-01  4.000000e-02
     vertex  4.900000e-01  3.900000e-01  4.000000e-02
   endloop
 endfacet
 facet normal  0.000000e+00  0.000000e+00  1.000000e+00
   outer loop
     vertex  7.143893e-01  6.708562e-01  4.000000e-02
     vertex  4.900000e-01  3.900000e-01  4.000000e-02
     vertex  7.551030e-01  6.246755e-01  4.000000e-02
   endloop
 endfacet
 facet normal  0.000000e+00  0.000000e+00  1.000000e+00
   outer loop
     vertex  7.143893e-01  6.708562e-01  4.000000e-02
     vertex  6.708562e-01  7.143893e-01  4.000000e-02
     vertex  4.900000e-01  3.900000e-01  4.000000e-02
   endloop
 endfacet
endsolid
