solid 
 facet normal  0.000000e+00  0.000000e+00 -1.000000e+00
   outer loop
     vertex -9.800000e-01  0.000000e+00  0.000000e+00
     vertex  0.000000e+00  0.000000e+00  0.000000e+00
     vertex  0.000000e+00 -1.300000e-01  0.000000e+00
   endloop
 endfacet
 facet normal  0.000000e+00  0.000000e+00 -1.000000e+00
   outer loop
     vertex -9.800000e-01  0.000000e+00  0.000000e+00
     vertex  0.000000e+00 -1.300000e-01  0.000000e+00
     vertex -9.800000e-01 -1.300000e-01  0.000000e+00
   endloop
 endfacet
 facet normal  1.000000e+00  0.000000e+00  0.000000e+00
   outer loop
     vertex  0.000000e+00  0.000000e+00  5.100000e-01
     vertex  0.000000e+00 -1.300000e-01  0.000000e+00
     vertex  0.000000e+00  0.000000e+00  0.000000e+00
   endloop
 endfacet
 facet normal  1.000000e+00  0.000000e+00  0.000000e+00
   outer loop
     vertex  0.000000e+00  0.000000e+00  5.100000e-01
     vertex  0.000000e+00 -1.300000e-01  5.100000e-01
     vertex  0.000000e+00 -1.300000e-01  0.000000e+00
   endloop
 endfacet
 facet normal -1.000000e+00  0.000000e+00 -0.000000e+00
   outer loop
     vertex -9.800000e-01  0.000000e+00  5.100000e-01
     vertex -9.800000e-01  0.000000e+00  0.000000e+00
     vertex -9.800000e-01 -1.300000e-01  0.000000e+00
   endloop
 endfacet
 facet normal -1.000000e+00 -0.000000e+00  0.000000e+00
   outer loop
     vertex -9.800000e-01  0.000000e+00  5.100000e-01
     vertex -9.800000e-01 -1.300000e-01  0.000000e+00
     vertex -9.800000e-01 -1.300000e-01  5.100000e-01
   endloop
 endfacet
 facet normal  0.000000e+00  0.000000e+00  1.000000e+00
   outer loop
     vertex  0.000000e+00  0.000000e+00  5.100000e-01
     vertex -9.800000e-01  0.000000e+00  5.100000e-01
     vertex -9.800000e-01 -1.300000e-01  5.100000e-01
   endloop
 endfacet
 facet normal  0.000000e+00  0.000000e+00  1.000000e+00
   outer loop
     vertex  0.000000e+00  0.000000e+00  5.100000e-01
     vertex -9.800000e-01 -1.300000e-01  5.100000e-01
     vertex  0.000000e+00 -1.300000e-01  5.100000e-01
   endloop
 endfacet
 facet normal -9.941380e-01  0.000000e+00 -1.081190e-01
   outer loop
     vertex -1.619873e-01  0.000000e+00  2.732725e-01
     vertex -1.600000e-01  0.000000e+00  2.550000e-01
     vertex -1.600000e-01 -1.300000e-01  2.550000e-01
   endloop
 endfacet
 facet normal -9.941380e-01 -0.000000e+00 -1.081190e-01
   outer loop
     vertex -1.619873e-01  0.000000e+00  2.732725e-01
     vertex -1.600000e-01 -1.300000e-01  2.550000e-01
     vertex -1.619873e-01 -1.300000e-01  2.732725e-01
   endloop
 endfacet
 facet normal -9.476532e-01 -0.000000e+00 -3.193015e-01
   outer loop
     vertex -1.678561e-01  0.000000e+00  2.906906e-01
     vertex -1.619873e-01 -1.300000e-01  2.732725e-01
     vertex -1.678561e-01 -1.300000e-01  2.906906e-01
   endloop
 endfacet
 facet normal -9.476532e-01  0.000000e+00 -3.193015e-01
   outer loop
     vertex -1.678561e-01  0.000000e+00  2.906906e-01
     vertex -1.619873e-01  0.000000e+00  2.732725e-01
     vertex -1.619873e-01 -1.300000e-01  2.732725e-01
   endloop
 endfacet
 facet normal -8.568572e-01 -0.000000e+00 -5.155539e-01
   outer loop
     vertex -1.773321e-01  0.000000e+00  3.064398e-01
     vertex -1.678561e-01 -1.300000e-01  2.906906e-01
     vertex -1.773321e-01 -1.300000e-01  3.064398e-01
   endloop
 endfacet
 facet normal -8.568572e-01  0.000000e+00 -5.155539e-01
   outer loop
     vertex -1.773321e-01  0.000000e+00  3.064398e-01
     vertex -1.678561e-01  0.000000e+00  2.906906e-01
     vertex -1.678561e-01 -1.300000e-01  2.906906e-01
   endloop
 endfacet
 facet normal -7.259955e-01 -0.000000e+00 -6.876995e-01
   outer loop
     vertex -1.899722e-01  0.000000e+00  3.197838e-01
     vertex -1.773321e-01 -1.300000e-01  3.064398e-01
     vertex -1.899722e-01 -1.300000e-01  3.197838e-01
   endloop
 endfacet
 facet normal -7.259955e-01  0.000000e+00 -6.876995e-01
   outer loop
     vertex -1.899722e-01  0.000000e+00  3.197838e-01
     vertex -1.773321e-01  0.000000e+00  3.064398e-01
     vertex -1.773321e-01 -1.300000e-01  3.064398e-01
   endloop
 endfacet
 facet normal -5.611871e-01 -0.000000e+00 -8.276890e-01
   outer loop
     vertex -2.051853e-01  0.000000e+00  3.300985e-01
     vertex -1.899722e-01 -1.300000e-01  3.197838e-01
     vertex -2.051853e-01 -1.300000e-01  3.300985e-01
   endloop
 endfacet
 facet normal -5.611871e-01  0.000000e+00 -8.276890e-01
   outer loop
     vertex -2.051853e-01  0.000000e+00  3.300985e-01
     vertex -1.899722e-01  0.000000e+00  3.197838e-01
     vertex -1.899722e-01 -1.300000e-01  3.197838e-01
   endloop
 endfacet
 facet normal -3.701382e-01 -0.000000e+00 -9.289767e-01
   outer loop
     vertex -2.222601e-01  0.000000e+00  3.369017e-01
     vertex -2.051853e-01 -1.300000e-01  3.300985e-01
     vertex -2.222601e-01 -1.300000e-01  3.369017e-01
   endloop
 endfacet
 facet normal -3.701382e-01  0.000000e+00 -9.289767e-01
   outer loop
     vertex -2.222601e-01  0.000000e+00  3.369017e-01
     vertex -2.051853e-01  0.000000e+00  3.300985e-01
     vertex -2.051853e-01 -1.300000e-01  3.300985e-01
   endloop
 endfacet
 facet normal -1.617820e-01 -0.000000e+00 -9.868265e-01
   outer loop
     vertex -2.403982e-01  0.000000e+00  3.398753e-01
     vertex -2.222601e-01 -1.300000e-01  3.369017e-01
     vertex -2.403982e-01 -1.300000e-01  3.398753e-01
   endloop
 endfacet
 facet normal -1.617820e-01  0.000000e+00 -9.868265e-01
   outer loop
     vertex -2.403982e-01  0.000000e+00  3.398753e-01
     vertex -2.222601e-01  0.000000e+00  3.369017e-01
     vertex -2.222601e-01 -1.300000e-01  3.369017e-01
   endloop
 endfacet
 facet normal  5.413891e-02  0.000000e+00 -9.985334e-01
   outer loop
     vertex -2.587515e-01  0.000000e+00  3.388803e-01
     vertex -2.403982e-01 -1.300000e-01  3.398753e-01
     vertex -2.587515e-01 -1.300000e-01  3.388803e-01
   endloop
 endfacet
 facet normal  5.413891e-02  0.000000e+00 -9.985334e-01
   outer loop
     vertex -2.587515e-01  0.000000e+00  3.388803e-01
     vertex -2.403982e-01  0.000000e+00  3.398753e-01
     vertex -2.403982e-01 -1.300000e-01  3.398753e-01
   endloop
 endfacet
 facet normal  2.675283e-01  0.000000e+00 -9.635500e-01
   outer loop
     vertex -2.764617e-01  0.000000e+00  3.339630e-01
     vertex -2.587515e-01 -1.300000e-01  3.388803e-01
     vertex -2.764617e-01 -1.300000e-01  3.339630e-01
   endloop
 endfacet
 facet normal  2.675283e-01  0.000000e+00 -9.635500e-01
   outer loop
     vertex -2.764617e-01  0.000000e+00  3.339630e-01
     vertex -2.587515e-01  0.000000e+00  3.388803e-01
     vertex -2.587515e-01 -1.300000e-01  3.388803e-01
   endloop
 endfacet
 facet normal  4.684084e-01  0.000000e+00 -8.835120e-01
   outer loop
     vertex -2.927009e-01  0.000000e+00  3.253536e-01
     vertex -2.764617e-01  0.000000e+00  3.339630e-01
     vertex -2.764617e-01 -1.300000e-01  3.339630e-01
   endloop
 endfacet
 facet normal  4.684084e-01  0.000000e+00 -8.835120e-01
   outer loop
     vertex -2.927009e-01  0.000000e+00  3.253536e-01
     vertex -2.764617e-01 -1.300000e-01  3.339630e-01
     vertex -2.927009e-01 -1.300000e-01  3.253536e-01
   endloop
 endfacet
 facet normal  6.473863e-01  0.000000e+00 -7.621621e-01
   outer loop
     vertex -3.067096e-01  0.000000e+00  3.134545e-01
     vertex -2.927009e-01  0.000000e+00  3.253536e-01
     vertex -2.927009e-01 -1.300000e-01  3.253536e-01
   endloop
 endfacet
 facet normal  6.473863e-01  0.000000e+00 -7.621621e-01
   outer loop
     vertex -3.067096e-01  0.000000e+00  3.134545e-01
     vertex -2.927009e-01 -1.300000e-01  3.253536e-01
     vertex -3.067096e-01 -1.300000e-01  3.134545e-01
   endloop
 endfacet
 facet normal  7.960931e-01  0.000000e+00 -6.051742e-01
   outer loop
     vertex -3.178329e-01  0.000000e+00  2.988221e-01
     vertex -3.067096e-01 -1.300000e-01  3.134545e-01
     vertex -3.178329e-01 -1.300000e-01  2.988221e-01
   endloop
 endfacet
 facet normal  7.960931e-01  0.000000e+00 -6.051742e-01
   outer loop
     vertex -3.178329e-01  0.000000e+00  2.988221e-01
     vertex -3.067096e-01  0.000000e+00  3.134545e-01
     vertex -3.067096e-01 -1.300000e-01  3.134545e-01
   endloop
 endfacet
 facet normal  9.075754e-01  0.000000e+00 -4.198891e-01
   outer loop
     vertex -3.178329e-01  0.000000e+00  2.988221e-01
     vertex -3.178329e-01 -1.300000e-01  2.988221e-01
     vertex -3.255505e-01 -1.300000e-01  2.821406e-01
   endloop
 endfacet
 facet normal  9.075754e-01  0.000000e+00 -4.198891e-01
   outer loop
     vertex -3.255505e-01  0.000000e+00  2.821406e-01
     vertex -3.178329e-01  0.000000e+00  2.988221e-01
     vertex -3.255505e-01 -1.300000e-01  2.821406e-01
   endloop
 endfacet
 facet normal  9.766206e-01  0.000000e+00 -2.149704e-01
   outer loop
     vertex -3.295017e-01  0.000000e+00  2.641901e-01
     vertex -3.255505e-01  0.000000e+00  2.821406e-01
     vertex -3.255505e-01 -1.300000e-01  2.821406e-01
   endloop
 endfacet
 facet normal  9.766206e-01  0.000000e+00 -2.149704e-01
   outer loop
     vertex -3.295017e-01  0.000000e+00  2.641901e-01
     vertex -3.255505e-01 -1.300000e-01  2.821406e-01
     vertex -3.295017e-01 -1.300000e-01  2.641901e-01
   endloop
 endfacet
 facet normal  1.000000e+00  0.000000e+00  0.000000e+00
   outer loop
     vertex -3.295017e-01  0.000000e+00  2.458099e-01
     vertex -3.295017e-01 -1.300000e-01  2.641901e-01
     vertex -3.295017e-01 -1.300000e-01  2.458099e-01
   endloop
 endfacet
 facet normal  9.766206e-01  0.000000e+00  2.149704e-01
   outer loop
     vertex -3.295017e-01  0.000000e+00  2.458099e-01
     vertex -3.295017e-01 -1.300000e-01  2.458099e-01
     vertex -3.255505e-01 -1.300000e-01  2.278594e-01
   endloop
 endfacet
 facet normal  1.000000e+00  0.000000e+00 -0.000000e+00
   outer loop
     vertex -3.295017e-01  0.000000e+00  2.458099e-01
     vertex -3.295017e-01  0.000000e+00  2.641901e-01
     vertex -3.295017e-01 -1.300000e-01  2.641901e-01
   endloop
 endfacet
 facet normal  9.766206e-01  0.000000e+00  2.149704e-01
   outer loop
     vertex -3.255505e-01  0.000000e+00  2.278594e-01
     vertex -3.295017e-01  0.000000e+00  2.458099e-01
     vertex -3.255505e-01 -1.300000e-01  2.278594e-01
   endloop
 endfacet
 facet normal  9.075754e-01  0.000000e+00  4.198891e-01
   outer loop
     vertex -3.178329e-01  0.000000e+00  2.111779e-01
     vertex -3.255505e-01 -1.300000e-01  2.278594e-01
     vertex -3.178329e-01 -1.300000e-01  2.111779e-01
   endloop
 endfacet
 facet normal  9.075754e-01  0.000000e+00  4.198891e-01
   outer loop
     vertex -3.178329e-01  0.000000e+00  2.111779e-01
     vertex -3.255505e-01  0.000000e+00  2.278594e-01
     vertex -3.255505e-01 -1.300000e-01  2.278594e-01
   endloop
 endfacet
 facet normal  7.960931e-01  0.000000e+00  6.051742e-01
   outer loop
     vertex -3.067096e-01  0.000000e+00  1.965455e-01
     vertex -3.178329e-01 -1.300000e-01  2.111779e-01
     vertex -3.067096e-01 -1.300000e-01  1.965455e-01
   endloop
 endfacet
 facet normal  7.960931e-01  0.000000e+00  6.051742e-01
   outer loop
     vertex -3.067096e-01  0.000000e+00  1.965455e-01
     vertex -3.178329e-01  0.000000e+00  2.111779e-01
     vertex -3.178329e-01 -1.300000e-01  2.111779e-01
   endloop
 endfacet
 facet normal  6.473863e-01  0.000000e+00  7.621621e-01
   outer loop
     vertex -2.927009e-01  0.000000e+00  1.846464e-01
     vertex -3.067096e-01 -1.300000e-01  1.965455e-01
     vertex -2.927009e-01 -1.300000e-01  1.846464e-01
   endloop
 endfacet
 facet normal  6.473863e-01  0.000000e+00  7.621621e-01
   outer loop
     vertex -2.927009e-01  0.000000e+00  1.846464e-01
     vertex -3.067096e-01  0.000000e+00  1.965455e-01
     vertex -3.067096e-01 -1.300000e-01  1.965455e-01
   endloop
 endfacet
 facet normal  4.684084e-01  0.000000e+00  8.835120e-01
   outer loop
     vertex -2.764617e-01  0.000000e+00  1.760370e-01
     vertex -2.927009e-01 -1.300000e-01  1.846464e-01
     vertex -2.764617e-01 -1.300000e-01  1.760370e-01
   endloop
 endfacet
 facet normal  2.675283e-01  0.000000e+00  9.635500e-01
   outer loop
     vertex -2.764617e-01  0.000000e+00  1.760370e-01
     vertex -2.764617e-01 -1.300000e-01  1.760370e-01
     vertex -2.587515e-01 -1.300000e-01  1.711197e-01
   endloop
 endfacet
 facet normal  4.684084e-01  0.000000e+00  8.835120e-01
   outer loop
     vertex -2.764617e-01  0.000000e+00  1.760370e-01
     vertex -2.927009e-01  0.000000e+00  1.846464e-01
     vertex -2.927009e-01 -1.300000e-01  1.846464e-01
   endloop
 endfacet
 facet normal  2.675283e-01  0.000000e+00  9.635500e-01
   outer loop
     vertex -2.587515e-01  0.000000e+00  1.711197e-01
     vertex -2.764617e-01  0.000000e+00  1.760370e-01
     vertex -2.587515e-01 -1.300000e-01  1.711197e-01
   endloop
 endfacet
 facet normal  5.413891e-02  0.000000e+00  9.985334e-01
   outer loop
     vertex -2.403982e-01  0.000000e+00  1.701247e-01
     vertex -2.587515e-01 -1.300000e-01  1.711197e-01
     vertex -2.403982e-01 -1.300000e-01  1.701247e-01
   endloop
 endfacet
 facet normal  5.413891e-02  0.000000e+00  9.985334e-01
   outer loop
     vertex -2.403982e-01  0.000000e+00  1.701247e-01
     vertex -2.587515e-01  0.000000e+00  1.711197e-01
     vertex -2.587515e-01 -1.300000e-01  1.711197e-01
   endloop
 endfacet
 facet normal -1.617820e-01  0.000000e+00  9.868265e-01
   outer loop
     vertex -2.222601e-01  0.000000e+00  1.730983e-01
     vertex -2.403982e-01 -1.300000e-01  1.701247e-01
     vertex -2.222601e-01 -1.300000e-01  1.730983e-01
   endloop
 endfacet
 facet normal -3.701382e-01  0.000000e+00  9.289767e-01
   outer loop
     vertex -2.222601e-01  0.000000e+00  1.730983e-01
     vertex -2.222601e-01 -1.300000e-01  1.730983e-01
     vertex -2.051853e-01 -1.300000e-01  1.799015e-01
   endloop
 endfacet
 facet normal -1.617820e-01  0.000000e+00  9.868265e-01
   outer loop
     vertex -2.222601e-01  0.000000e+00  1.730983e-01
     vertex -2.403982e-01  0.000000e+00  1.701247e-01
     vertex -2.403982e-01 -1.300000e-01  1.701247e-01
   endloop
 endfacet
 facet normal -5.611871e-01  0.000000e+00  8.276890e-01
   outer loop
     vertex -2.051853e-01  0.000000e+00  1.799015e-01
     vertex -2.051853e-01 -1.300000e-01  1.799015e-01
     vertex -1.899722e-01 -1.300000e-01  1.902162e-01
   endloop
 endfacet
 facet normal -3.701382e-01  0.000000e+00  9.289767e-01
   outer loop
     vertex -2.051853e-01  0.000000e+00  1.799015e-01
     vertex -2.222601e-01  0.000000e+00  1.730983e-01
     vertex -2.051853e-01 -1.300000e-01  1.799015e-01
   endloop
 endfacet
 facet normal -7.259955e-01  0.000000e+00  6.876995e-01
   outer loop
     vertex -1.899722e-01  0.000000e+00  1.902162e-01
     vertex -1.899722e-01 -1.300000e-01  1.902162e-01
     vertex -1.773321e-01 -1.300000e-01  2.035602e-01
   endloop
 endfacet
 facet normal -5.611871e-01  0.000000e+00  8.276890e-01
   outer loop
     vertex -1.899722e-01  0.000000e+00  1.902162e-01
     vertex -2.051853e-01  0.000000e+00  1.799015e-01
     vertex -1.899722e-01 -1.300000e-01  1.902162e-01
   endloop
 endfacet
 facet normal -8.568572e-01  0.000000e+00  5.155539e-01
   outer loop
     vertex -1.773321e-01  0.000000e+00  2.035602e-01
     vertex -1.773321e-01 -1.300000e-01  2.035602e-01
     vertex -1.678561e-01 -1.300000e-01  2.193094e-01
   endloop
 endfacet
 facet normal -7.259955e-01  0.000000e+00  6.876995e-01
   outer loop
     vertex -1.773321e-01  0.000000e+00  2.035602e-01
     vertex -1.899722e-01  0.000000e+00  1.902162e-01
     vertex -1.773321e-01 -1.300000e-01  2.035602e-01
   endloop
 endfacet
 facet normal -8.568572e-01  0.000000e+00  5.155539e-01
   outer loop
     vertex -1.678561e-01  0.000000e+00  2.193094e-01
     vertex -1.773321e-01  0.000000e+00  2.035602e-01
     vertex -1.678561e-01 -1.300000e-01  2.193094e-01
   endloop
 endfacet
 facet normal -9.476532e-01  0.000000e+00  3.193015e-01
   outer loop
     vertex -1.619873e-01  0.000000e+00  2.367275e-01
     vertex -1.678561e-01 -1.300000e-01  2.193094e-01
     vertex -1.619873e-01 -1.300000e-01  2.367275e-01
   endloop
 endfacet
 facet normal -9.941380e-01  0.000000e+00  1.081190e-01
   outer loop
     vertex -1.619873e-01  0.000000e+00  2.367275e-01
     vertex -1.619873e-01 -1.300000e-01  2.367275e-01
     vertex -1.600000e-01 -1.300000e-01  2.550000e-01
   endloop
 endfacet
 facet normal -9.476532e-01  0.000000e+00  3.193015e-01
   outer loop
     vertex -1.619873e-01  0.000000e+00  2.367275e-01
     vertex -1.678561e-01  0.000000e+00  2.193094e-01
     vertex -1.678561e-01 -1.300000e-01  2.193094e-01
   endloop
 endfacet
 facet normal -9.941380e-01  0.000000e+00  1.081190e-01
   outer loop
     vertex -1.600000e-01  0.000000e+00  2.550000e-01
     vertex -1.619873e-01  0.000000e+00  2.367275e-01
     vertex -1.600000e-01 -1.300000e-01  2.550000e-01
   endloop
 endfacet
 facet normal  0.000000e+00  1.000000e+00  0.000000e+00
   outer loop
     vertex -2.927009e-01  0.000000e+00  1.846464e-01
     vertex -9.800000e-01  0.000000e+00  0.000000e+00
     vertex -3.067096e-01  0.000000e+00  1.965455e-01
   endloop
 endfacet
 facet normal  0.000000e+00  1.000000e+00  0.000000e+00
   outer loop
     vertex -3.178329e-01  0.000000e+00  2.111779e-01
     vertex -3.067096e-01  0.000000e+00  1.965455e-01
     vertex -9.800000e-01  0.000000e+00  0.000000e+00
   endloop
 endfacet
 facet normal  0.000000e+00  1.000000e+00  0.000000e+00
   outer loop
     vertex -2.764617e-01  0.000000e+00  1.760370e-01
     vertex -9.800000e-01  0.000000e+00  0.000000e+00
     vertex -2.927009e-01  0.000000e+00  1.846464e-01
   endloop
 endfacet
 facet normal  0.000000e+00  1.000000e+00  0.000000e+00
   outer loop
     vertex -3.255505e-01  0.000000e+00  2.278594e-01
     vertex -3.178329e-01  0.000000e+00  2.111779e-01
     vertex -9.800000e-01  0.000000e+00  0.000000e+00
   endloop
 endfacet
 facet normal  0.000000e+00  1.000000e+00  0.000000e+00
   outer loop
     vertex -3.295017e-01  0.000000e+00  2.458099e-01
     vertex -3.255505e-01  0.000000e+00  2.278594e-01
     vertex -9.800000e-01  0.000000e+00  0.000000e+00
   endloop
 endfacet
 facet normal  0.000000e+00  1.000000e+00  0.000000e+00
   outer loop
     vertex -3.295017e-01  0.000000e+00  2.641901e-01
     vertex -9.800000e-01  0.000000e+00  0.000000e+00
     vertex -9.800000e-01  0.000000e+00  5.100000e-01
   endloop
 endfacet
 facet normal  0.000000e+00  1.000000e+00  0.000000e+00
   outer loop
     vertex -3.295017e-01  0.000000e+00  2.641901e-01
     vertex -3.295017e-01  0.000000e+00  2.458099e-01
     vertex -9.800000e-01  0.000000e+00  0.000000e+00
   endloop
 endfacet
 facet normal  0.000000e+00  1.000000e+00  0.000000e+00
   outer loop
     vertex -3.255505e-01  0.000000e+00  2.821406e-01
     vertex -3.295017e-01  0.000000e+00  2.641901e-01
     vertex -9.800000e-01  0.000000e+00  5.100000e-01
   endloop
 endfacet
 facet normal  0.000000e+00  1.000000e+00  0.000000e+00
   outer loop
     vertex -3.178329e-01  0.000000e+00  2.988221e-01
     vertex -3.255505e-01  0.000000e+00  2.821406e-01
     vertex -9.800000e-01  0.000000e+00  5.100000e-01
   endloop
 endfacet
 facet normal  0.000000e+00  1.000000e+00  0.000000e+00
   outer loop
     vertex  0.000000e+00  0.000000e+00  0.000000e+00
     vertex -2.764617e-01  0.000000e+00  1.760370e-01
     vertex -2.587515e-01  0.000000e+00  1.711197e-01
   endloop
 endfacet
 facet normal  0.000000e+00  1.000000e+00  0.000000e+00
   outer loop
     vertex  0.000000e+00  0.000000e+00  0.000000e+00
     vertex -2.587515e-01  0.000000e+00  1.711197e-01
     vertex -2.403982e-01  0.000000e+00  1.701247e-01
   endloop
 endfacet
 facet normal  0.000000e+00  1.000000e+00  0.000000e+00
   outer loop
     vertex  0.000000e+00  0.000000e+00  0.000000e+00
     vertex -2.403982e-01  0.000000e+00  1.701247e-01
     vertex -2.222601e-01  0.000000e+00  1.730983e-01
   endloop
 endfacet
 facet normal  0.000000e+00  1.000000e+00  0.000000e+00
   outer loop
     vertex  0.000000e+00  0.000000e+00  0.000000e+00
     vertex -2.222601e-01  0.000000e+00  1.730983e-01
     vertex -2.051853e-01  0.000000e+00  1.799015e-01
   endloop
 endfacet
 facet normal  0.000000e+00  1.000000e+00  0.000000e+00
   outer loop
     vertex  0.000000e+00  0.000000e+00  0.000000e+00
     vertex -9.800000e-01  0.000000e+00  0.000000e+00
     vertex -2.764617e-01  0.000000e+00  1.760370e-01
   endloop
 endfacet
 facet normal  0.000000e+00  1.000000e+00  0.000000e+00
   outer loop
     vertex -1.899722e-01  0.000000e+00  1.902162e-01
     vertex  0.000000e+00  0.000000e+00  0.000000e+00
     vertex -2.051853e-01  0.000000e+00  1.799015e-01
   endloop
 endfacet
 facet normal  0.000000e+00  1.000000e+00  0.000000e+00
   outer loop
     vertex -3.067096e-01  0.000000e+00  3.134545e-01
     vertex -3.178329e-01  0.000000e+00  2.988221e-01
     vertex -9.800000e-01  0.000000e+00  5.100000e-01
   endloop
 endfacet
 facet normal  0.000000e+00  1.000000e+00  0.000000e+00
   outer loop
     vertex -1.773321e-01  0.000000e+00  2.035602e-01
     vertex  0.000000e+00  0.000000e+00  0.000000e+00
     vertex -1.899722e-01  0.000000e+00  1.902162e-01
   endloop
 endfacet
 facet normal  0.000000e+00  1.000000e+00  0.000000e+00
   outer loop
     vertex -2.927009e-01  0.000000e+00  3.253536e-01
     vertex -3.067096e-01  0.000000e+00  3.134545e-01
     vertex -9.800000e-01  0.000000e+00  5.100000e-01
   endloop
 endfacet
 facet normal  0.000000e+00  1.000000e+00  0.000000e+00
   outer loop
     vertex -1.678561e-01  0.000000e+00  2.193094e-01
     vertex  0.000000e+00  0.000000e+00  0.000000e+00
     vertex -1.773321e-01  0.000000e+00  2.035602e-01
   endloop
 endfacet
 facet normal  0.000000e+00  1.000000e+00  0.000000e+00
   outer loop
     vertex -2.764617e-01  0.000000e+00  3.339630e-01
     vertex -2.927009e-01  0.000000e+00  3.253536e-01
     vertex -9.800000e-01  0.000000e+00  5.100000e-01
   endloop
 endfacet
 facet normal  0.000000e+00  1.000000e+00  0.000000e+00
   outer loop
     vertex -1.619873e-01  0.000000e+00  2.367275e-01
     vertex  0.000000e+00  0.000000e+00  0.000000e+00
     vertex -1.678561e-01  0.000000e+00  2.193094e-01
   endloop
 endfacet
 facet normal  0.000000e+00  1.000000e+00  0.000000e+00
   outer loop
     vertex -1.600000e-01  0.000000e+00  2.550000e-01
     vertex  0.000000e+00  0.000000e+00  0.000000e+00
     vertex -1.619873e-01  0.000000e+00  2.367275e-01
   endloop
 endfacet
 facet normal  0.000000e+00  1.000000e+00  0.000000e+00
   outer loop
     vertex  0.000000e+00  0.000000e+00  5.100000e-01
     vertex -1.600000e-01  0.000000e+00  2.550000e-01
     vertex -1.619873e-01  0.000000e+00  2.732725e-01
   endloop
 endfacet
 facet normal  0.000000e+00  1.000000e+00  0.000000e+00
   outer loop
     vertex  0.000000e+00  0.000000e+00  5.100000e-01
     vertex -1.619873e-01  0.000000e+00  2.732725e-01
     vertex -1.678561e-01  0.000000e+00  2.906906e-01
   endloop
 endfacet
 facet normal  0.000000e+00  1.000000e+00  0.000000e+00
   outer loop
     vertex  0.000000e+00  0.000000e+00  5.100000e-01
     vertex -1.678561e-01  0.000000e+00  2.906906e-01
     vertex -1.773321e-01  0.000000e+00  3.064398e-01
   endloop
 endfacet
 facet normal  0.000000e+00  1.000000e+00  0.000000e+00
   outer loop
     vertex  0.000000e+00  0.000000e+00  5.100000e-01
     vertex -1.773321e-01  0.000000e+00  3.064398e-01
     vertex -1.899722e-01  0.000000e+00  3.197838e-01
   endloop
 endfacet
 facet normal  0.000000e+00  1.000000e+00  0.000000e+00
   outer loop
     vertex  0.000000e+00  0.000000e+00  5.100000e-01
     vertex -1.899722e-01  0.000000e+00  3.197838e-01
     vertex -2.051853e-01  0.000000e+00  3.300985e-01
   endloop
 endfacet
 facet normal  0.000000e+00  1.000000e+00  0.000000e+00
   outer loop
     vertex  0.000000e+00  0.000000e+00  5.100000e-01
     vertex -2.051853e-01  0.000000e+00  3.300985e-01
     vertex -2.222601e-01  0.000000e+00  3.369017e-01
   endloop
 endfacet
 facet normal  0.000000e+00  1.000000e+00  0.000000e+00
   outer loop
     vertex  0.000000e+00  0.000000e+00  5.100000e-01
     vertex -2.222601e-01  0.000000e+00  3.369017e-01
     vertex -2.403982e-01  0.000000e+00  3.398753e-01
   endloop
 endfacet
 facet normal  0.000000e+00  1.000000e+00  0.000000e+00
   outer loop
     vertex  0.000000e+00  0.000000e+00  5.100000e-01
     vertex -2.403982e-01  0.000000e+00  3.398753e-01
     vertex -2.587515e-01  0.000000e+00  3.388803e-01
   endloop
 endfacet
 facet normal  0.000000e+00  1.000000e+00  0.000000e+00
   outer loop
     vertex  0.000000e+00  0.000000e+00  5.100000e-01
     vertex -2.587515e-01  0.000000e+00  3.388803e-01
     vertex -2.764617e-01  0.000000e+00  3.339630e-01
   endloop
 endfacet
 facet normal  0.000000e+00  1.000000e+00  0.000000e+00
   outer loop
     vertex  0.000000e+00  0.000000e+00  5.100000e-01
     vertex  0.000000e+00  0.000000e+00  0.000000e+00
     vertex -1.600000e-01  0.000000e+00  2.550000e-01
   endloop
 endfacet
 facet normal  0.000000e+00  1.000000e+00  0.000000e+00
   outer loop
     vertex  0.000000e+00  0.000000e+00  5.100000e-01
     vertex -2.764617e-01  0.000000e+00  3.339630e-01
     vertex -9.800000e-01  0.000000e+00  5.100000e-01
   endloop
 endfacet
 facet normal -0.000000e+00 -1.000000e+00  0.000000e+00
   outer loop
     vertex -2.927009e-01 -1.300000e-01  1.846464e-01
     vertex -3.067096e-01 -1.300000e-01  1.965455e-01
     vertex -9.800000e-01 -1.300000e-01  0.000000e+00
   endloop
 endfacet
 facet normal  0.000000e+00 -1.000000e+00 -0.000000e+00
   outer loop
     vertex -3.178329e-01 -1.300000e-01  2.111779e-01
     vertex -9.800000e-01 -1.300000e-01  0.000000e+00
     vertex -3.067096e-01 -1.300000e-01  1.965455e-01
   endloop
 endfacet
 facet normal -0.000000e+00 -1.000000e+00  0.000000e+00
   outer loop
     vertex -2.764617e-01 -1.300000e-01  1.760370e-01
     vertex -2.927009e-01 -1.300000e-01  1.846464e-01
     vertex -9.800000e-01 -1.300000e-01  0.000000e+00
   endloop
 endfacet
 facet normal  0.000000e+00 -1.000000e+00 -0.000000e+00
   outer loop
     vertex -3.255505e-01 -1.300000e-01  2.278594e-01
     vertex -9.800000e-01 -1.300000e-01  0.000000e+00
     vertex -3.178329e-01 -1.300000e-01  2.111779e-01
   endloop
 endfacet
 facet normal  0.000000e+00 -1.000000e+00 -0.000000e+00
   outer loop
     vertex -3.295017e-01 -1.300000e-01  2.458099e-01
     vertex -9.800000e-01 -1.300000e-01  0.000000e+00
     vertex -3.255505e-01 -1.300000e-01  2.278594e-01
   endloop
 endfacet
 facet normal -0.000000e+00 -1.000000e+00  0.000000e+00
   outer loop
     vertex -3.295017e-01 -1.300000e-01  2.641901e-01
     vertex -9.800000e-01 -1.300000e-01  5.100000e-01
     vertex -9.800000e-01 -1.300000e-01  0.000000e+00
   endloop
 endfacet
 facet normal  0.000000e+00 -1.000000e+00 -0.000000e+00
   outer loop
     vertex -3.295017e-01 -1.300000e-01  2.641901e-01
     vertex -9.800000e-01 -1.300000e-01  0.000000e+00
     vertex -3.295017e-01 -1.300000e-01  2.458099e-01
   endloop
 endfacet
 facet normal -0.000000e+00 -1.000000e+00  0.000000e+00
   outer loop
     vertex -3.255505e-01 -1.300000e-01  2.821406e-01
     vertex -9.800000e-01 -1.300000e-01  5.100000e-01
     vertex -3.295017e-01 -1.300000e-01  2.641901e-01
   endloop
 endfacet
 facet normal -0.000000e+00 -1.000000e+00  0.000000e+00
   outer loop
     vertex -3.178329e-01 -1.300000e-01  2.988221e-01
     vertex -9.800000e-01 -1.300000e-01  5.100000e-01
     vertex -3.255505e-01 -1.300000e-01  2.821406e-01
   endloop
 endfacet
 facet normal  0.000000e+00 -1.000000e+00  0.000000e+00
   outer loop
     vertex  0.000000e+00 -1.300000e-01  0.000000e+00
     vertex -2.587515e-01 -1.300000e-01  1.711197e-01
     vertex -2.764617e-01 -1.300000e-01  1.760370e-01
   endloop
 endfacet
 facet normal  0.000000e+00 -1.000000e+00  0.000000e+00
   outer loop
     vertex  0.000000e+00 -1.300000e-01  0.000000e+00
     vertex -2.403982e-01 -1.300000e-01  1.701247e-01
     vertex -2.587515e-01 -1.300000e-01  1.711197e-01
   endloop
 endfacet
 facet normal  0.000000e+00 -1.000000e+00  0.000000e+00
   outer loop
     vertex  0.000000e+00 -1.300000e-01  0.000000e+00
     vertex -2.222601e-01 -1.300000e-01  1.730983e-01
     vertex -2.403982e-01 -1.300000e-01  1.701247e-01
   endloop
 endfacet
 facet normal  0.000000e+00 -1.000000e+00  0.000000e+00
   outer loop
     vertex  0.000000e+00 -1.300000e-01  0.000000e+00
     vertex -2.051853e-01 -1.300000e-01  1.799015e-01
     vertex -2.222601e-01 -1.300000e-01  1.730983e-01
   endloop
 endfacet
 facet normal  0.000000e+00 -1.000000e+00  0.000000e+00
   outer loop
     vertex  0.000000e+00 -1.300000e-01  0.000000e+00
     vertex -2.764617e-01 -1.300000e-01  1.760370e-01
     vertex -9.800000e-01 -1.300000e-01  0.000000e+00
   endloop
 endfacet
 facet normal  0.000000e+00 -1.000000e+00 -0.000000e+00
   outer loop
     vertex -1.899722e-01 -1.300000e-01  1.902162e-01
     vertex -2.051853e-01 -1.300000e-01  1.799015e-01
     vertex  0.000000e+00 -1.300000e-01  0.000000e+00
   endloop
 endfacet
 facet normal -0.000000e+00 -1.000000e+00  0.000000e+00
   outer loop
     vertex -3.067096e-01 -1.300000e-01  3.134545e-01
     vertex -9.800000e-01 -1.300000e-01  5.100000e-01
     vertex -3.178329e-01 -1.300000e-01  2.988221e-01
   endloop
 endfacet
 facet normal  0.000000e+00 -1.000000e+00 -0.000000e+00
   outer loop
     vertex -1.773321e-01 -1.300000e-01  2.035602e-01
     vertex -1.899722e-01 -1.300000e-01  1.902162e-01
     vertex  0.000000e+00 -1.300000e-01  0.000000e+00
   endloop
 endfacet
 facet normal -0.000000e+00 -1.000000e+00  0.000000e+00
   outer loop
     vertex -2.927009e-01 -1.300000e-01  3.253536e-01
     vertex -9.800000e-01 -1.300000e-01  5.100000e-01
     vertex -3.067096e-01 -1.300000e-01  3.134545e-01
   endloop
 endfacet
 facet normal  0.000000e+00 -1.000000e+00 -0.000000e+00
   outer loop
     vertex -1.678561e-01 -1.300000e-01  2.193094e-01
     vertex -1.773321e-01 -1.300000e-01  2.035602e-01
     vertex  0.000000e+00 -1.300000e-01  0.000000e+00
   endloop
 endfacet
 facet normal -0.000000e+00 -1.000000e+00  0.000000e+00
   outer loop
     vertex -2.764617e-01 -1.300000e-01  3.339630e-01
     vertex -9.800000e-01 -1.300000e-01  5.100000e-01
     vertex -2.927009e-01 -1.300000e-01  3.253536e-01
   endloop
 endfacet
 facet normal  0.000000e+00 -1.000000e+00 -0.000000e+00
   outer loop
     vertex -1.619873e-01 -1.300000e-01  2.367275e-01
     vertex -1.678561e-01 -1.300000e-01  2.193094e-01
     vertex  0.000000e+00 -1.300000e-01  0.000000e+00
   endloop
 endfacet
 facet normal  0.000000e+00 -1.000000e+00 -0.000000e+00
   outer loop
     vertex -1.600000e-01 -1.300000e-01  2.550000e-01
     vertex -1.619873e-01 -1.300000e-01  2.367275e-01
     vertex  0.000000e+00 -1.300000e-01  0.000000e+00
   endloop
 endfacet
 facet normal  0.000000e+00 -1.000000e+00  0.000000e+00
   outer loop
     vertex  0.000000e+00 -1.300000e-01  5.100000e-01
     vertex -1.619873e-01 -1.300000e-01  2.732725e-01
     vertex -1.600000e-01 -1.300000e-01  2.550000e-01
   endloop
 endfacet
 facet normal  0.000000e+00 -1.000000e+00  0.000000e+00
   outer loop
     vertex  0.000000e+00 -1.300000e-01  5.100000e-01
     vertex -1.678561e-01 -1.300000e-01  2.906906e-01
     vertex -1.619873e-01 -1.300000e-01  2.732725e-01
   endloop
 endfacet
 facet normal  0.000000e+00 -1.000000e+00  0.000000e+00
   outer loop
     vertex  0.000000e+00 -1.300000e-01  5.100000e-01
     vertex -1.773321e-01 -1.300000e-01  3.064398e-01
     vertex -1.678561e-01 -1.300000e-01  2.906906e-01
   endloop
 endfacet
 facet normal  0.000000e+00 -1.000000e+00  0.000000e+00
   outer loop
     vertex  0.000000e+00 -1.300000e-01  5.100000e-01
     vertex -1.899722e-01 -1.300000e-01  3.197838e-01
     vertex -1.773321e-01 -1.300000e-01  3.064398e-01
   endloop
 endfacet
 facet normal  0.000000e+00 -1.000000e+00  0.000000e+00
   outer loop
     vertex  0.000000e+00 -1.300000e-01  5.100000e-01
     vertex -2.051853e-01 -1.300000e-01  3.300985e-01
     vertex -1.899722e-01 -1.300000e-01  3.197838e-01
   endloop
 endfacet
 facet normal  0.000000e+00 -1.000000e+00  0.000000e+00
   outer loop
     vertex  0.000000e+00 -1.300000e-01  5.100000e-01
     vertex -2.222601e-01 -1.300000e-01  3.369017e-01
     vertex -2.051853e-01 -1.300000e-01  3.300985e-01
   endloop
 endfacet
 facet normal  0.000000e+00 -1.000000e+00  0.000000e+00
   outer loop
     vertex  0.000000e+00 -1.300000e-01  5.100000e-01
     vertex -2.403982e-01 -1.300000e-01  3.398753e-01
     vertex -2.222601e-01 -1.300000e-01  3.369017e-01
   endloop
 endfacet
 facet normal  0.000000e+00 -1.000000e+00  0.000000e+00
   outer loop
     vertex  0.000000e+00 -1.300000e-01  5.100000e-01
     vertex -2.587515e-01 -1.300000e-01  3.388803e-01
     vertex -2.403982e-01 -1.300000e-01  3.398753e-01
   endloop
 endfacet
 facet normal  0.000000e+00 -1.000000e+00  0.000000e+00
   outer loop
     vertex  0.000000e+00 -1.300000e-01  5.100000e-01
     vertex -2.764617e-01 -1.300000e-01  3.339630e-01
     vertex -2.587515e-01 -1.300000e-01  3.388803e-01
   endloop
 endfacet
 facet normal  0.000000e+00 -1.000000e+00 -0.000000e+00
   outer loop
     vertex  0.000000e+00 -1.300000e-01  5.100000e-01
     vertex -1.600000e-01 -1.300000e-01  2.550000e-01
     vertex  0.000000e+00 -1.300000e-01  0.000000e+00
   endloop
 endfacet
 facet normal -0.000000e+00 -1.000000e+00  0.000000e+00
   outer loop
     vertex  0.000000e+00 -1.300000e-01  5.100000e-01
     vertex -9.800000e-01 -1.300000e-01  5.100000e-01
     vertex -2.764617e-01 -1.300000e-01  3.339630e-01
   endloop
 endfacet
endsolid
