solid 
 facet normal  0.000000e+00  0.000000e+00  1.000000e+00
   outer loop
     vertex  7.010000e+00 -1.300000e+01  1.004800e+02
     vertex  7.000000e+00 -1.298000e+01  1.004800e+02
     vertex  7.000000e+00 -1.300000e+01  1.004800e+02
   endloop
 endfacet
 facet normal  0.000000e+00 -0.000000e+00  1.000000e+00
   outer loop
     vertex  7.010000e+00 -1.300000e+01  1.004800e+02
     vertex  7.010000e+00 -1.298000e+01  1.004800e+02
     vertex  7.000000e+00 -1.298000e+01  1.004800e+02
   endloop
 endfacet
 facet normal  1.000000e+00  0.000000e+00  0.000000e+00
   outer loop
     vertex  7.010000e+00 -1.300000e+01  1.004100e+02
     vertex  7.010000e+00 -1.298000e+01  1.004800e+02
     vertex  7.010000e+00 -1.300000e+01  1.004800e+02
   endloop
 endfacet
 facet normal  1.000000e+00  0.000000e+00  0.000000e+00
   outer loop
     vertex  7.010000e+00 -1.300000e+01  1.004100e+02
     vertex  7.010000e+00 -1.298000e+01  1.004100e+02
     vertex  7.010000e+00 -1.298000e+01  1.004800e+02
   endloop
 endfacet
 facet normal  0.000000e+00  0.000000e+00 -1.000000e+00
   outer loop
     vertex  7.010000e+00 -1.300000e+01  1.004100e+02
     vertex  7.000000e+00 -1.300000e+01  1.004100e+02
     vertex  7.000000e+00 -1.298000e+01  1.004100e+02
   endloop
 endfacet
 facet normal  0.000000e+00  0.000000e+00 -1.000000e+00
   outer loop
     vertex  7.010000e+00 -1.300000e+01  1.004100e+02
     vertex  7.000000e+00 -1.298000e+01  1.004100e+02
     vertex  7.010000e+00 -1.298000e+01  1.004100e+02
   endloop
 endfacet
 facet normal -1.000000e+00  0.000000e+00  0.000000e+00
   outer loop
     vertex  7.000000e+00 -1.300000e+01  1.004100e+02
     vertex  7.000000e+00 -1.300000e+01  1.004800e+02
     vertex  7.000000e+00 -1.298000e+01  1.004800e+02
   endloop
 endfacet
 facet normal -1.000000e+00  0.000000e+00  0.000000e+00
   outer loop
     vertex  7.000000e+00 -1.300000e+01  1.004100e+02
     vertex  7.000000e+00 -1.298000e+01  1.004800e+02
     vertex  7.000000e+00 -1.298000e+01  1.004100e+02
   endloop
 endfacet
 facet normal -0.000000e+00 -1.000000e+00  0.000000e+00
   outer loop
     vertex  7.010000e+00 -1.300000e+01  1.004800e+02
     vertex  7.000000e+00 -1.300000e+01  1.004800e+02
     vertex  7.000000e+00 -1.300000e+01  1.004100e+02
   endloop
 endfacet
 facet normal  0.000000e+00 -1.000000e+00 -0.000000e+00
   outer loop
     vertex  7.010000e+00 -1.300000e+01  1.004800e+02
     vertex  7.000000e+00 -1.300000e+01  1.004100e+02
     vertex  7.010000e+00 -1.300000e+01  1.004100e+02
   endloop
 endfacet
 facet normal  0.000000e+00  1.000000e+00  0.000000e+00
   outer loop
     vertex  7.010000e+00 -1.298000e+01  1.004800e+02
     vertex  7.000000e+00 -1.298000e+01  1.004100e+02
     vertex  7.000000e+00 -1.298000e+01  1.004800e+02
   endloop
 endfacet
 facet normal  0.000000e+00  1.000000e+00  0.000000e+00
   outer loop
     vertex  7.010000e+00 -1.298000e+01  1.004800e+02
     vertex  7.010000e+00 -1.298000e+01  1.004100e+02
     vertex  7.000000e+00 -1.298000e+01  1.004100e+02
   endloop
 endfacet
 facet normal  0.000000e+00  1.000000e+00  0.000000e+00
   outer loop
     vertex  6.500000e-02  0.000000e+00  0.000000e+00
     vertex  0.000000e+00  0.000000e+00  0.000000e+00
     vertex  0.000000e+00  0.000000e+00  1.000000e+00
   endloop
 endfacet
 facet normal  0.000000e+00  1.000000e+00 -0.000000e+00
   outer loop
     vertex  6.500000e-02  0.000000e+00  0.000000e+00
     vertex  0.000000e+00  0.000000e+00  1.000000e+00
     vertex  6.500000e-02  0.000000e+00  1.000000e+00
   endloop
 endfacet
 facet normal  1.000000e+00  0.000000e+00  0.000000e+00
   outer loop
     vertex  6.500000e-02 -6.500000e-02  0.000000e+00
     vertex  6.500000e-02  0.000000e+00  0.000000e+00
     vertex  6.500000e-02  0.000000e+00  1.000000e+00
   endloop
 endfacet
 facet normal  1.000000e+00  0.000000e+00  0.000000e+00
   outer loop
     vertex  6.500000e-02 -6.500000e-02  0.000000e+00
     vertex  6.500000e-02  0.000000e+00  1.000000e+00
     vertex  6.500000e-02 -6.500000e-02  1.000000e+00
   endloop
 endfacet
 facet normal  0.000000e+00 -1.000000e+00  0.000000e+00
   outer loop
     vertex  6.500000e-02 -6.500000e-02  0.000000e+00
     vertex  0.000000e+00 -6.500000e-02  1.000000e+00
     vertex  0.000000e+00 -6.500000e-02  0.000000e+00
   endloop
 endfacet
 facet normal  0.000000e+00 -1.000000e+00  0.000000e+00
   outer loop
     vertex  6.500000e-02 -6.500000e-02  0.000000e+00
     vertex  6.500000e-02 -6.500000e-02  1.000000e+00
     vertex  0.000000e+00 -6.500000e-02  1.000000e+00
   endloop
 endfacet
 facet normal -1.000000e+00  0.000000e+00  0.000000e+00
   outer loop
     vertex  0.000000e+00 -6.500000e-02  0.000000e+00
     vertex  0.000000e+00  0.000000e+00  1.000000e+00
     vertex  0.000000e+00  0.000000e+00  0.000000e+00
   endloop
 endfacet
 facet normal -1.000000e+00  0.000000e+00  0.000000e+00
   outer loop
     vertex  0.000000e+00 -6.500000e-02  0.000000e+00
     vertex  0.000000e+00 -6.500000e-02  1.000000e+00
     vertex  0.000000e+00  0.000000e+00  1.000000e+00
   endloop
 endfacet
 facet normal -0.000000e+00  0.000000e+00 -1.000000e+00
   outer loop
     vertex  6.500000e-02  0.000000e+00  0.000000e+00
     vertex  0.000000e+00 -6.500000e-02  0.000000e+00
     vertex  0.000000e+00  0.000000e+00  0.000000e+00
   endloop
 endfacet
 facet normal  0.000000e+00 -0.000000e+00 -1.000000e+00
   outer loop
     vertex  6.500000e-02  0.000000e+00  0.000000e+00
     vertex  6.500000e-02 -6.500000e-02  0.000000e+00
     vertex  0.000000e+00 -6.500000e-02  0.000000e+00
   endloop
 endfacet
 facet normal  0.000000e+00  0.000000e+00  1.000000e+00
   outer loop
     vertex  6.500000e-02  0.000000e+00  1.000000e+00
     vertex  0.000000e+00  0.000000e+00  1.000000e+00
     vertex  0.000000e+00 -6.500000e-02  1.000000e+00
   endloop
 endfacet
 facet normal  0.000000e+00  0.000000e+00  1.000000e+00
   outer loop
     vertex  6.500000e-02  0.000000e+00  1.000000e+00
     vertex  0.000000e+00 -6.500000e-02  1.000000e+00
     vertex  6.500000e-02 -6.500000e-02  1.000000e+00
   endloop
 endfacet
 facet normal  0.000000e+00 -0.000000e+00  1.000000e+00
   outer loop
     vertex  1.300000e+01 -7.010000e+00  1.004800e+02
     vertex  1.300000e+01 -6.990000e+00  1.004800e+02
     vertex  1.298000e+01 -6.990000e+00  1.004800e+02
   endloop
 endfacet
 facet normal  0.000000e+00  0.000000e+00  1.000000e+00
   outer loop
     vertex  1.300000e+01 -7.010000e+00  1.004800e+02
     vertex  1.298000e+01 -6.990000e+00  1.004800e+02
     vertex  1.298000e+01 -7.010000e+00  1.004800e+02
   endloop
 endfacet
 facet normal  0.000000e+00 -1.000000e+00  0.000000e+00
   outer loop
     vertex  1.300000e+01 -7.010000e+00  1.004100e+02
     vertex  1.300000e+01 -7.010000e+00  1.004800e+02
     vertex  1.298000e+01 -7.010000e+00  1.004800e+02
   endloop
 endfacet
 facet normal  0.000000e+00 -1.000000e+00  0.000000e+00
   outer loop
     vertex  1.300000e+01 -7.010000e+00  1.004100e+02
     vertex  1.298000e+01 -7.010000e+00  1.004800e+02
     vertex  1.298000e+01 -7.010000e+00  1.004100e+02
   endloop
 endfacet
 facet normal  0.000000e+00  0.000000e+00 -1.000000e+00
   outer loop
     vertex  1.300000e+01 -7.010000e+00  1.004100e+02
     vertex  1.298000e+01 -6.990000e+00  1.004100e+02
     vertex  1.300000e+01 -6.990000e+00  1.004100e+02
   endloop
 endfacet
 facet normal  0.000000e+00  0.000000e+00 -1.000000e+00
   outer loop
     vertex  1.300000e+01 -7.010000e+00  1.004100e+02
     vertex  1.298000e+01 -7.010000e+00  1.004100e+02
     vertex  1.298000e+01 -6.990000e+00  1.004100e+02
   endloop
 endfacet
 facet normal  0.000000e+00  1.000000e+00 -0.000000e+00
   outer loop
     vertex  1.300000e+01 -6.990000e+00  1.004100e+02
     vertex  1.298000e+01 -6.990000e+00  1.004800e+02
     vertex  1.300000e+01 -6.990000e+00  1.004800e+02
   endloop
 endfacet
 facet normal  0.000000e+00  1.000000e+00  0.000000e+00
   outer loop
     vertex  1.300000e+01 -6.990000e+00  1.004100e+02
     vertex  1.298000e+01 -6.990000e+00  1.004100e+02
     vertex  1.298000e+01 -6.990000e+00  1.004800e+02
   endloop
 endfacet
 facet normal  1.000000e+00  0.000000e+00  0.000000e+00
   outer loop
     vertex  1.300000e+01 -6.990000e+00  1.004800e+02
     vertex  1.300000e+01 -7.010000e+00  1.004800e+02
     vertex  1.300000e+01 -7.010000e+00  1.004100e+02
   endloop
 endfacet
 facet normal  1.000000e+00  0.000000e+00  0.000000e+00
   outer loop
     vertex  1.300000e+01 -6.990000e+00  1.004800e+02
     vertex  1.300000e+01 -7.010000e+00  1.004100e+02
     vertex  1.300000e+01 -6.990000e+00  1.004100e+02
   endloop
 endfacet
 facet normal -1.000000e+00 -0.000000e+00  0.000000e+00
   outer loop
     vertex  1.298000e+01 -6.990000e+00  1.004800e+02
     vertex  1.298000e+01 -7.010000e+00  1.004100e+02
     vertex  1.298000e+01 -7.010000e+00  1.004800e+02
   endloop
 endfacet
 facet normal -1.000000e+00  0.000000e+00 -0.000000e+00
   outer loop
     vertex  1.298000e+01 -6.990000e+00  1.004800e+02
     vertex  1.298000e+01 -6.990000e+00  1.004100e+02
     vertex  1.298000e+01 -7.010000e+00  1.004100e+02
   endloop
 endfacet
endsolid
