solid 
 facet normal  9.927089e-01 -1.205367e-01  0.000000e+00
   outer loop
     vertex -1.429369e+02  7.098444e+01  0.000000e+00
     vertex -1.429350e+02  7.100000e+01  0.000000e+00
     vertex -1.429350e+02  7.100000e+01  4.450000e-01
   endloop
 endfacet
 facet normal  9.927089e-01 -1.205367e-01  0.000000e+00
   outer loop
     vertex -1.429369e+02  7.098444e+01  0.000000e+00
     vertex -1.429350e+02  7.100000e+01  4.450000e-01
     vertex -1.429369e+02  7.098444e+01  4.450000e-01
   endloop
 endfacet
 facet normal  9.350162e-01 -3.546049e-01  0.000000e+00
   outer loop
     vertex -1.429424e+02  7.096979e+01  0.000000e+00
     vertex -1.429369e+02  7.098444e+01  4.450000e-01
     vertex -1.429424e+02  7.096979e+01  4.450000e-01
   endloop
 endfacet
 facet normal  9.350162e-01 -3.546049e-01  0.000000e+00
   outer loop
     vertex -1.429424e+02  7.096979e+01  0.000000e+00
     vertex -1.429369e+02  7.098444e+01  0.000000e+00
     vertex -1.429369e+02  7.098444e+01  4.450000e-01
   endloop
 endfacet
 facet normal  8.229839e-01 -5.680647e-01  0.000000e+00
   outer loop
     vertex -1.429513e+02  7.095690e+01  0.000000e+00
     vertex -1.429424e+02  7.096979e+01  4.450000e-01
     vertex -1.429513e+02  7.095690e+01  4.450000e-01
   endloop
 endfacet
 facet normal  8.229839e-01 -5.680647e-01  0.000000e+00
   outer loop
     vertex -1.429513e+02  7.095690e+01  0.000000e+00
     vertex -1.429424e+02  7.096979e+01  0.000000e+00
     vertex -1.429424e+02  7.096979e+01  4.450000e-01
   endloop
 endfacet
 facet normal  6.631227e-01 -7.485107e-01  0.000000e+00
   outer loop
     vertex -1.429631e+02  7.094651e+01  0.000000e+00
     vertex -1.429513e+02  7.095690e+01  4.450000e-01
     vertex -1.429631e+02  7.094651e+01  4.450000e-01
   endloop
 endfacet
 facet normal  6.631227e-01 -7.485107e-01  0.000000e+00
   outer loop
     vertex -1.429631e+02  7.094651e+01  0.000000e+00
     vertex -1.429513e+02  7.095690e+01  0.000000e+00
     vertex -1.429513e+02  7.095690e+01  4.450000e-01
   endloop
 endfacet
 facet normal  4.647232e-01 -8.854560e-01  0.000000e+00
   outer loop
     vertex -1.429770e+02  7.093922e+01  0.000000e+00
     vertex -1.429631e+02  7.094651e+01  4.450000e-01
     vertex -1.429770e+02  7.093922e+01  4.450000e-01
   endloop
 endfacet
 facet normal  4.647232e-01 -8.854560e-01  0.000000e+00
   outer loop
     vertex -1.429770e+02  7.093922e+01  0.000000e+00
     vertex -1.429631e+02  7.094651e+01  0.000000e+00
     vertex -1.429631e+02  7.094651e+01  4.450000e-01
   endloop
 endfacet
 facet normal  2.393157e-01 -9.709418e-01  0.000000e+00
   outer loop
     vertex -1.429922e+02  7.093547e+01  0.000000e+00
     vertex -1.429770e+02  7.093922e+01  4.450000e-01
     vertex -1.429922e+02  7.093547e+01  4.450000e-01
   endloop
 endfacet
 facet normal  2.393157e-01 -9.709418e-01  0.000000e+00
   outer loop
     vertex -1.429922e+02  7.093547e+01  0.000000e+00
     vertex -1.429770e+02  7.093922e+01  0.000000e+00
     vertex -1.429770e+02  7.093922e+01  4.450000e-01
   endloop
 endfacet
 facet normal  0.000000e+00 -1.000000e+00  0.000000e+00
   outer loop
     vertex -1.430078e+02  7.093547e+01  0.000000e+00
     vertex -1.429922e+02  7.093547e+01  4.450000e-01
     vertex -1.430078e+02  7.093547e+01  4.450000e-01
   endloop
 endfacet
 facet normal  0.000000e+00 -1.000000e+00  0.000000e+00
   outer loop
     vertex -1.430078e+02  7.093547e+01  0.000000e+00
     vertex -1.429922e+02  7.093547e+01  0.000000e+00
     vertex -1.429922e+02  7.093547e+01  4.450000e-01
   endloop
 endfacet
 facet normal -2.393157e-01 -9.709418e-01  0.000000e+00
   outer loop
     vertex -1.430230e+02  7.093922e+01  0.000000e+00
     vertex -1.430078e+02  7.093547e+01  4.450000e-01
     vertex -1.430230e+02  7.093922e+01  4.450000e-01
   endloop
 endfacet
 facet normal -2.393157e-01 -9.709418e-01  0.000000e+00
   outer loop
     vertex -1.430230e+02  7.093922e+01  0.000000e+00
     vertex -1.430078e+02  7.093547e+01  0.000000e+00
     vertex -1.430078e+02  7.093547e+01  4.450000e-01
   endloop
 endfacet
 facet normal -4.647232e-01 -8.854560e-01  0.000000e+00
   outer loop
     vertex -1.430369e+02  7.094651e+01  0.000000e+00
     vertex -1.430230e+02  7.093922e+01  4.450000e-01
     vertex -1.430369e+02  7.094651e+01  4.450000e-01
   endloop
 endfacet
 facet normal -4.647232e-01 -8.854560e-01  0.000000e+00
   outer loop
     vertex -1.430369e+02  7.094651e+01  0.000000e+00
     vertex -1.430230e+02  7.093922e+01  0.000000e+00
     vertex -1.430230e+02  7.093922e+01  4.450000e-01
   endloop
 endfacet
 facet normal -6.631227e-01 -7.485107e-01  0.000000e+00
   outer loop
     vertex -1.430487e+02  7.095690e+01  0.000000e+00
     vertex -1.430369e+02  7.094651e+01  4.450000e-01
     vertex -1.430487e+02  7.095690e+01  4.450000e-01
   endloop
 endfacet
 facet normal -8.229839e-01 -5.680647e-01  0.000000e+00
   outer loop
     vertex -1.430487e+02  7.095690e+01  0.000000e+00
     vertex -1.430487e+02  7.095690e+01  4.450000e-01
     vertex -1.430576e+02  7.096979e+01  4.450000e-01
   endloop
 endfacet
 facet normal -6.631227e-01 -7.485107e-01  0.000000e+00
   outer loop
     vertex -1.430487e+02  7.095690e+01  0.000000e+00
     vertex -1.430369e+02  7.094651e+01  0.000000e+00
     vertex -1.430369e+02  7.094651e+01  4.450000e-01
   endloop
 endfacet
 facet normal -8.229839e-01 -5.680647e-01  0.000000e+00
   outer loop
     vertex -1.430576e+02  7.096979e+01  0.000000e+00
     vertex -1.430487e+02  7.095690e+01  0.000000e+00
     vertex -1.430576e+02  7.096979e+01  4.450000e-01
   endloop
 endfacet
 facet normal -9.350162e-01 -3.546049e-01  0.000000e+00
   outer loop
     vertex -1.430631e+02  7.098444e+01  0.000000e+00
     vertex -1.430576e+02  7.096979e+01  0.000000e+00
     vertex -1.430576e+02  7.096979e+01  4.450000e-01
   endloop
 endfacet
 facet normal -9.350162e-01 -3.546049e-01  0.000000e+00
   outer loop
     vertex -1.430631e+02  7.098444e+01  0.000000e+00
     vertex -1.430576e+02  7.096979e+01  4.450000e-01
     vertex -1.430631e+02  7.098444e+01  4.450000e-01
   endloop
 endfacet
 facet normal -9.927089e-01 -1.205367e-01  0.000000e+00
   outer loop
     vertex -1.430650e+02  7.100000e+01  0.000000e+00
     vertex -1.430631e+02  7.098444e+01  0.000000e+00
     vertex -1.430631e+02  7.098444e+01  4.450000e-01
   endloop
 endfacet
 facet normal -9.927089e-01 -1.205367e-01  0.000000e+00
   outer loop
     vertex -1.430650e+02  7.100000e+01  0.000000e+00
     vertex -1.430631e+02  7.098444e+01  4.450000e-01
     vertex -1.430650e+02  7.100000e+01  4.450000e-01
   endloop
 endfacet
 facet normal -9.927089e-01  1.205367e-01  0.000000e+00
   outer loop
     vertex -1.430650e+02  7.100000e+01  0.000000e+00
     vertex -1.430650e+02  7.100000e+01  4.450000e-01
     vertex -1.430631e+02  7.101556e+01  4.450000e-01
   endloop
 endfacet
 facet normal -9.927089e-01  1.205367e-01  0.000000e+00
   outer loop
     vertex -1.430631e+02  7.101556e+01  0.000000e+00
     vertex -1.430650e+02  7.100000e+01  0.000000e+00
     vertex -1.430631e+02  7.101556e+01  4.450000e-01
   endloop
 endfacet
 facet normal -9.350162e-01  3.546049e-01  0.000000e+00
   outer loop
     vertex -1.430576e+02  7.103021e+01  0.000000e+00
     vertex -1.430631e+02  7.101556e+01  4.450000e-01
     vertex -1.430576e+02  7.103021e+01  4.450000e-01
   endloop
 endfacet
 facet normal -9.350162e-01  3.546049e-01  0.000000e+00
   outer loop
     vertex -1.430576e+02  7.103021e+01  0.000000e+00
     vertex -1.430631e+02  7.101556e+01  0.000000e+00
     vertex -1.430631e+02  7.101556e+01  4.450000e-01
   endloop
 endfacet
 facet normal -8.229839e-01  5.680647e-01  0.000000e+00
   outer loop
     vertex -1.430487e+02  7.104310e+01  0.000000e+00
     vertex -1.430576e+02  7.103021e+01  4.450000e-01
     vertex -1.430487e+02  7.104310e+01  4.450000e-01
   endloop
 endfacet
 facet normal -8.229839e-01  5.680647e-01  0.000000e+00
   outer loop
     vertex -1.430487e+02  7.104310e+01  0.000000e+00
     vertex -1.430576e+02  7.103021e+01  0.000000e+00
     vertex -1.430576e+02  7.103021e+01  4.450000e-01
   endloop
 endfacet
 facet normal -6.631227e-01  7.485107e-01  0.000000e+00
   outer loop
     vertex -1.430369e+02  7.105349e+01  0.000000e+00
     vertex -1.430487e+02  7.104310e+01  4.450000e-01
     vertex -1.430369e+02  7.105349e+01  4.450000e-01
   endloop
 endfacet
 facet normal -6.631227e-01  7.485107e-01  0.000000e+00
   outer loop
     vertex -1.430369e+02  7.105349e+01  0.000000e+00
     vertex -1.430487e+02  7.104310e+01  0.000000e+00
     vertex -1.430487e+02  7.104310e+01  4.450000e-01
   endloop
 endfacet
 facet normal -4.647232e-01  8.854560e-01  0.000000e+00
   outer loop
     vertex -1.430230e+02  7.106078e+01  0.000000e+00
     vertex -1.430369e+02  7.105349e+01  4.450000e-01
     vertex -1.430230e+02  7.106078e+01  4.450000e-01
   endloop
 endfacet
 facet normal -2.393157e-01  9.709418e-01  0.000000e+00
   outer loop
     vertex -1.430230e+02  7.106078e+01  0.000000e+00
     vertex -1.430230e+02  7.106078e+01  4.450000e-01
     vertex -1.430078e+02  7.106453e+01  4.450000e-01
   endloop
 endfacet
 facet normal -4.647232e-01  8.854560e-01  0.000000e+00
   outer loop
     vertex -1.430230e+02  7.106078e+01  0.000000e+00
     vertex -1.430369e+02  7.105349e+01  0.000000e+00
     vertex -1.430369e+02  7.105349e+01  4.450000e-01
   endloop
 endfacet
 facet normal -2.393157e-01  9.709418e-01  0.000000e+00
   outer loop
     vertex -1.430078e+02  7.106453e+01  0.000000e+00
     vertex -1.430230e+02  7.106078e+01  0.000000e+00
     vertex -1.430078e+02  7.106453e+01  4.450000e-01
   endloop
 endfacet
 facet normal  0.000000e+00  1.000000e+00 -0.000000e+00
   outer loop
     vertex -1.429922e+02  7.106453e+01  0.000000e+00
     vertex -1.430078e+02  7.106453e+01  4.450000e-01
     vertex -1.429922e+02  7.106453e+01  4.450000e-01
   endloop
 endfacet
 facet normal  0.000000e+00  1.000000e+00  0.000000e+00
   outer loop
     vertex -1.429922e+02  7.106453e+01  0.000000e+00
     vertex -1.430078e+02  7.106453e+01  0.000000e+00
     vertex -1.430078e+02  7.106453e+01  4.450000e-01
   endloop
 endfacet
 facet normal  2.393157e-01  9.709418e-01 -0.000000e+00
   outer loop
     vertex -1.429770e+02  7.106078e+01  0.000000e+00
     vertex -1.429922e+02  7.106453e+01  4.450000e-01
     vertex -1.429770e+02  7.106078e+01  4.450000e-01
   endloop
 endfacet
 facet normal  2.393157e-01  9.709418e-01  0.000000e+00
   outer loop
     vertex -1.429770e+02  7.106078e+01  0.000000e+00
     vertex -1.429922e+02  7.106453e+01  0.000000e+00
     vertex -1.429922e+02  7.106453e+01  4.450000e-01
   endloop
 endfacet
 facet normal  4.647232e-01  8.854560e-01 -0.000000e+00
   outer loop
     vertex -1.429631e+02  7.105349e+01  0.000000e+00
     vertex -1.429770e+02  7.106078e+01  4.450000e-01
     vertex -1.429631e+02  7.105349e+01  4.450000e-01
   endloop
 endfacet
 facet normal  4.647232e-01  8.854560e-01  0.000000e+00
   outer loop
     vertex -1.429631e+02  7.105349e+01  0.000000e+00
     vertex -1.429770e+02  7.106078e+01  0.000000e+00
     vertex -1.429770e+02  7.106078e+01  4.450000e-01
   endloop
 endfacet
 facet normal  6.631227e-01  7.485107e-01 -0.000000e+00
   outer loop
     vertex -1.429513e+02  7.104310e+01  0.000000e+00
     vertex -1.429631e+02  7.105349e+01  4.450000e-01
     vertex -1.429513e+02  7.104310e+01  4.450000e-01
   endloop
 endfacet
 facet normal  8.229839e-01  5.680647e-01 -0.000000e+00
   outer loop
     vertex -1.429513e+02  7.104310e+01  0.000000e+00
     vertex -1.429513e+02  7.104310e+01  4.450000e-01
     vertex -1.429424e+02  7.103021e+01  4.450000e-01
   endloop
 endfacet
 facet normal  6.631227e-01  7.485107e-01  0.000000e+00
   outer loop
     vertex -1.429513e+02  7.104310e+01  0.000000e+00
     vertex -1.429631e+02  7.105349e+01  0.000000e+00
     vertex -1.429631e+02  7.105349e+01  4.450000e-01
   endloop
 endfacet
 facet normal  8.229839e-01  5.680647e-01 -0.000000e+00
   outer loop
     vertex -1.429424e+02  7.103021e+01  0.000000e+00
     vertex -1.429513e+02  7.104310e+01  0.000000e+00
     vertex -1.429424e+02  7.103021e+01  4.450000e-01
   endloop
 endfacet
 facet normal  9.350162e-01  3.546049e-01 -0.000000e+00
   outer loop
     vertex -1.429369e+02  7.101556e+01  0.000000e+00
     vertex -1.429424e+02  7.103021e+01  4.450000e-01
     vertex -1.429369e+02  7.101556e+01  4.450000e-01
   endloop
 endfacet
 facet normal  9.927089e-01  1.205367e-01 -0.000000e+00
   outer loop
     vertex -1.429369e+02  7.101556e+01  0.000000e+00
     vertex -1.429369e+02  7.101556e+01  4.450000e-01
     vertex -1.429350e+02  7.100000e+01  4.450000e-01
   endloop
 endfacet
 facet normal  9.350162e-01  3.546049e-01  0.000000e+00
   outer loop
     vertex -1.429369e+02  7.101556e+01  0.000000e+00
     vertex -1.429424e+02  7.103021e+01  0.000000e+00
     vertex -1.429424e+02  7.103021e+01  4.450000e-01
   endloop
 endfacet
 facet normal  9.927089e-01  1.205367e-01 -0.000000e+00
   outer loop
     vertex -1.429350e+02  7.100000e+01  0.000000e+00
     vertex -1.429369e+02  7.101556e+01  0.000000e+00
     vertex -1.429350e+02  7.100000e+01  4.450000e-01
   endloop
 endfacet
 facet normal  0.000000e+00  0.000000e+00 -1.000000e+00
   outer loop
     vertex -1.429513e+02  7.104310e+01  0.000000e+00
     vertex -1.430487e+02  7.104310e+01  0.000000e+00
     vertex -1.430369e+02  7.105349e+01  0.000000e+00
   endloop
 endfacet
 facet normal  0.000000e+00  0.000000e+00 -1.000000e+00
   outer loop
     vertex -1.429513e+02  7.104310e+01  0.000000e+00
     vertex -1.430369e+02  7.105349e+01  0.000000e+00
     vertex -1.430230e+02  7.106078e+01  0.000000e+00
   endloop
 endfacet
 facet normal  0.000000e+00  0.000000e+00 -1.000000e+00
   outer loop
     vertex -1.429513e+02  7.104310e+01  0.000000e+00
     vertex -1.430230e+02  7.106078e+01  0.000000e+00
     vertex -1.430078e+02  7.106453e+01  0.000000e+00
   endloop
 endfacet
 facet normal  0.000000e+00  0.000000e+00 -1.000000e+00
   outer loop
     vertex -1.429513e+02  7.104310e+01  0.000000e+00
     vertex -1.430078e+02  7.106453e+01  0.000000e+00
     vertex -1.429922e+02  7.106453e+01  0.000000e+00
   endloop
 endfacet
 facet normal  0.000000e+00  0.000000e+00 -1.000000e+00
   outer loop
     vertex -1.429513e+02  7.104310e+01  0.000000e+00
     vertex -1.429922e+02  7.106453e+01  0.000000e+00
     vertex -1.429770e+02  7.106078e+01  0.000000e+00
   endloop
 endfacet
 facet normal  0.000000e+00  0.000000e+00 -1.000000e+00
   outer loop
     vertex -1.429513e+02  7.104310e+01  0.000000e+00
     vertex -1.429770e+02  7.106078e+01  0.000000e+00
     vertex -1.429631e+02  7.105349e+01  0.000000e+00
   endloop
 endfacet
 facet normal  0.000000e+00  0.000000e+00 -1.000000e+00
   outer loop
     vertex -1.429424e+02  7.103021e+01  0.000000e+00
     vertex -1.430576e+02  7.103021e+01  0.000000e+00
     vertex -1.430487e+02  7.104310e+01  0.000000e+00
   endloop
 endfacet
 facet normal  0.000000e+00  0.000000e+00 -1.000000e+00
   outer loop
     vertex -1.429424e+02  7.103021e+01  0.000000e+00
     vertex -1.430487e+02  7.104310e+01  0.000000e+00
     vertex -1.429513e+02  7.104310e+01  0.000000e+00
   endloop
 endfacet
 facet normal  0.000000e+00  0.000000e+00 -1.000000e+00
   outer loop
     vertex -1.429369e+02  7.101556e+01  0.000000e+00
     vertex -1.430631e+02  7.101556e+01  0.000000e+00
     vertex -1.430576e+02  7.103021e+01  0.000000e+00
   endloop
 endfacet
 facet normal  0.000000e+00  0.000000e+00 -1.000000e+00
   outer loop
     vertex -1.429369e+02  7.101556e+01  0.000000e+00
     vertex -1.430576e+02  7.103021e+01  0.000000e+00
     vertex -1.429424e+02  7.103021e+01  0.000000e+00
   endloop
 endfacet
 facet normal  0.000000e+00  0.000000e+00 -1.000000e+00
   outer loop
     vertex -1.429350e+02  7.100000e+01  0.000000e+00
     vertex -1.430650e+02  7.100000e+01  0.000000e+00
     vertex -1.430631e+02  7.101556e+01  0.000000e+00
   endloop
 endfacet
 facet normal  0.000000e+00  0.000000e+00 -1.000000e+00
   outer loop
     vertex -1.429350e+02  7.100000e+01  0.000000e+00
     vertex -1.430631e+02  7.101556e+01  0.000000e+00
     vertex -1.429369e+02  7.101556e+01  0.000000e+00
   endloop
 endfacet
 facet normal  0.000000e+00  0.000000e+00 -1.000000e+00
   outer loop
     vertex -1.429369e+02  7.098444e+01  0.000000e+00
     vertex -1.430631e+02  7.098444e+01  0.000000e+00
     vertex -1.430650e+02  7.100000e+01  0.000000e+00
   endloop
 endfacet
 facet normal  0.000000e+00  0.000000e+00 -1.000000e+00
   outer loop
     vertex -1.429369e+02  7.098444e+01  0.000000e+00
     vertex -1.430650e+02  7.100000e+01  0.000000e+00
     vertex -1.429350e+02  7.100000e+01  0.000000e+00
   endloop
 endfacet
 facet normal  0.000000e+00  0.000000e+00 -1.000000e+00
   outer loop
     vertex -1.429424e+02  7.096979e+01  0.000000e+00
     vertex -1.430576e+02  7.096979e+01  0.000000e+00
     vertex -1.430631e+02  7.098444e+01  0.000000e+00
   endloop
 endfacet
 facet normal  0.000000e+00  0.000000e+00 -1.000000e+00
   outer loop
     vertex -1.429424e+02  7.096979e+01  0.000000e+00
     vertex -1.430631e+02  7.098444e+01  0.000000e+00
     vertex -1.429369e+02  7.098444e+01  0.000000e+00
   endloop
 endfacet
 facet normal  0.000000e+00  0.000000e+00 -1.000000e+00
   outer loop
     vertex -1.429513e+02  7.095690e+01  0.000000e+00
     vertex -1.429631e+02  7.094651e+01  0.000000e+00
     vertex -1.429770e+02  7.093922e+01  0.000000e+00
   endloop
 endfacet
 facet normal  0.000000e+00  0.000000e+00 -1.000000e+00
   outer loop
     vertex -1.429513e+02  7.095690e+01  0.000000e+00
     vertex -1.429770e+02  7.093922e+01  0.000000e+00
     vertex -1.429922e+02  7.093547e+01  0.000000e+00
   endloop
 endfacet
 facet normal  0.000000e+00  0.000000e+00 -1.000000e+00
   outer loop
     vertex -1.429513e+02  7.095690e+01  0.000000e+00
     vertex -1.429922e+02  7.093547e+01  0.000000e+00
     vertex -1.430078e+02  7.093547e+01  0.000000e+00
   endloop
 endfacet
 facet normal  0.000000e+00  0.000000e+00 -1.000000e+00
   outer loop
     vertex -1.429513e+02  7.095690e+01  0.000000e+00
     vertex -1.430078e+02  7.093547e+01  0.000000e+00
     vertex -1.430230e+02  7.093922e+01  0.000000e+00
   endloop
 endfacet
 facet normal  0.000000e+00  0.000000e+00 -1.000000e+00
   outer loop
     vertex -1.429513e+02  7.095690e+01  0.000000e+00
     vertex -1.430230e+02  7.093922e+01  0.000000e+00
     vertex -1.430369e+02  7.094651e+01  0.000000e+00
   endloop
 endfacet
 facet normal -0.000000e+00  0.000000e+00 -1.000000e+00
   outer loop
     vertex -1.429513e+02  7.095690e+01  0.000000e+00
     vertex -1.430369e+02  7.094651e+01  0.000000e+00
     vertex -1.430487e+02  7.095690e+01  0.000000e+00
   endloop
 endfacet
 facet normal  0.000000e+00  0.000000e+00 -1.000000e+00
   outer loop
     vertex -1.429513e+02  7.095690e+01  0.000000e+00
     vertex -1.430487e+02  7.095690e+01  0.000000e+00
     vertex -1.430576e+02  7.096979e+01  0.000000e+00
   endloop
 endfacet
 facet normal  0.000000e+00  0.000000e+00 -1.000000e+00
   outer loop
     vertex -1.429513e+02  7.095690e+01  0.000000e+00
     vertex -1.430576e+02  7.096979e+01  0.000000e+00
     vertex -1.429424e+02  7.096979e+01  0.000000e+00
   endloop
 endfacet
 facet normal  0.000000e+00  0.000000e+00  1.000000e+00
   outer loop
     vertex -1.429513e+02  7.104310e+01  4.450000e-01
     vertex -1.430369e+02  7.105349e+01  4.450000e-01
     vertex -1.430487e+02  7.104310e+01  4.450000e-01
   endloop
 endfacet
 facet normal  0.000000e+00  0.000000e+00  1.000000e+00
   outer loop
     vertex -1.429513e+02  7.104310e+01  4.450000e-01
     vertex -1.430230e+02  7.106078e+01  4.450000e-01
     vertex -1.430369e+02  7.105349e+01  4.450000e-01
   endloop
 endfacet
 facet normal  0.000000e+00  0.000000e+00  1.000000e+00
   outer loop
     vertex -1.429513e+02  7.104310e+01  4.450000e-01
     vertex -1.430078e+02  7.106453e+01  4.450000e-01
     vertex -1.430230e+02  7.106078e+01  4.450000e-01
   endloop
 endfacet
 facet normal  0.000000e+00  0.000000e+00  1.000000e+00
   outer loop
     vertex -1.429513e+02  7.104310e+01  4.450000e-01
     vertex -1.429922e+02  7.106453e+01  4.450000e-01
     vertex -1.430078e+02  7.106453e+01  4.450000e-01
   endloop
 endfacet
 facet normal  0.000000e+00  0.000000e+00  1.000000e+00
   outer loop
     vertex -1.429513e+02  7.104310e+01  4.450000e-01
     vertex -1.429770e+02  7.106078e+01  4.450000e-01
     vertex -1.429922e+02  7.106453e+01  4.450000e-01
   endloop
 endfacet
 facet normal  0.000000e+00  0.000000e+00  1.000000e+00
   outer loop
     vertex -1.429513e+02  7.104310e+01  4.450000e-01
     vertex -1.429631e+02  7.105349e+01  4.450000e-01
     vertex -1.429770e+02  7.106078e+01  4.450000e-01
   endloop
 endfacet
 facet normal  0.000000e+00  0.000000e+00  1.000000e+00
   outer loop
     vertex -1.429424e+02  7.103021e+01  4.450000e-01
     vertex -1.430487e+02  7.104310e+01  4.450000e-01
     vertex -1.430576e+02  7.103021e+01  4.450000e-01
   endloop
 endfacet
 facet normal  0.000000e+00  0.000000e+00  1.000000e+00
   outer loop
     vertex -1.429424e+02  7.103021e+01  4.450000e-01
     vertex -1.429513e+02  7.104310e+01  4.450000e-01
     vertex -1.430487e+02  7.104310e+01  4.450000e-01
   endloop
 endfacet
 facet normal  0.000000e+00  0.000000e+00  1.000000e+00
   outer loop
     vertex -1.429369e+02  7.101556e+01  4.450000e-01
     vertex -1.430576e+02  7.103021e+01  4.450000e-01
     vertex -1.430631e+02  7.101556e+01  4.450000e-01
   endloop
 endfacet
 facet normal  0.000000e+00  0.000000e+00  1.000000e+00
   outer loop
     vertex -1.429369e+02  7.101556e+01  4.450000e-01
     vertex -1.429424e+02  7.103021e+01  4.450000e-01
     vertex -1.430576e+02  7.103021e+01  4.450000e-01
   endloop
 endfacet
 facet normal  0.000000e+00  0.000000e+00  1.000000e+00
   outer loop
     vertex -1.429350e+02  7.100000e+01  4.450000e-01
     vertex -1.430631e+02  7.101556e+01  4.450000e-01
     vertex -1.430650e+02  7.100000e+01  4.450000e-01
   endloop
 endfacet
 facet normal  0.000000e+00  0.000000e+00  1.000000e+00
   outer loop
     vertex -1.429350e+02  7.100000e+01  4.450000e-01
     vertex -1.429369e+02  7.101556e+01  4.450000e-01
     vertex -1.430631e+02  7.101556e+01  4.450000e-01
   endloop
 endfacet
 facet normal  0.000000e+00  0.000000e+00  1.000000e+00
   outer loop
     vertex -1.429369e+02  7.098444e+01  4.450000e-01
     vertex -1.430650e+02  7.100000e+01  4.450000e-01
     vertex -1.430631e+02  7.098444e+01  4.450000e-01
   endloop
 endfacet
 facet normal  0.000000e+00 -0.000000e+00  1.000000e+00
   outer loop
     vertex -1.429369e+02  7.098444e+01  4.450000e-01
     vertex -1.429350e+02  7.100000e+01  4.450000e-01
     vertex -1.430650e+02  7.100000e+01  4.450000e-01
   endloop
 endfacet
 facet normal  0.000000e+00  0.000000e+00  1.000000e+00
   outer loop
     vertex -1.429424e+02  7.096979e+01  4.450000e-01
     vertex -1.430631e+02  7.098444e+01  4.450000e-01
     vertex -1.430576e+02  7.096979e+01  4.450000e-01
   endloop
 endfacet
 facet normal  0.000000e+00 -0.000000e+00  1.000000e+00
   outer loop
     vertex -1.429424e+02  7.096979e+01  4.450000e-01
     vertex -1.429369e+02  7.098444e+01  4.450000e-01
     vertex -1.430631e+02  7.098444e+01  4.450000e-01
   endloop
 endfacet
 facet normal  0.000000e+00  0.000000e+00  1.000000e+00
   outer loop
     vertex -1.429513e+02  7.095690e+01  4.450000e-01
     vertex -1.429770e+02  7.093922e+01  4.450000e-01
     vertex -1.429631e+02  7.094651e+01  4.450000e-01
   endloop
 endfacet
 facet normal  0.000000e+00  0.000000e+00  1.000000e+00
   outer loop
     vertex -1.429513e+02  7.095690e+01  4.450000e-01
     vertex -1.429922e+02  7.093547e+01  4.450000e-01
     vertex -1.429770e+02  7.093922e+01  4.450000e-01
   endloop
 endfacet
 facet normal  0.000000e+00  0.000000e+00  1.000000e+00
   outer loop
     vertex -1.429513e+02  7.095690e+01  4.450000e-01
     vertex -1.430078e+02  7.093547e+01  4.450000e-01
     vertex -1.429922e+02  7.093547e+01  4.450000e-01
   endloop
 endfacet
 facet normal  0.000000e+00  0.000000e+00  1.000000e+00
   outer loop
     vertex -1.429513e+02  7.095690e+01  4.450000e-01
     vertex -1.430230e+02  7.093922e+01  4.450000e-01
     vertex -1.430078e+02  7.093547e+01  4.450000e-01
   endloop
 endfacet
 facet normal  0.000000e+00  0.000000e+00  1.000000e+00
   outer loop
     vertex -1.429513e+02  7.095690e+01  4.450000e-01
     vertex -1.430369e+02  7.094651e+01  4.450000e-01
     vertex -1.430230e+02  7.093922e+01  4.450000e-01
   endloop
 endfacet
 facet normal  0.000000e+00  0.000000e+00  1.000000e+00
   outer loop
     vertex -1.429513e+02  7.095690e+01  4.450000e-01
     vertex -1.430487e+02  7.095690e+01  4.450000e-01
     vertex -1.430369e+02  7.094651e+01  4.450000e-01
   endloop
 endfacet
 facet normal  0.000000e+00  0.000000e+00  1.000000e+00
   outer loop
     vertex -1.429513e+02  7.095690e+01  4.450000e-01
     vertex -1.430576e+02  7.096979e+01  4.450000e-01
     vertex -1.430487e+02  7.095690e+01  4.450000e-01
   endloop
 endfacet
 facet normal  0.000000e+00 -0.000000e+00  1.000000e+00
   outer loop
     vertex -1.429513e+02  7.095690e+01  4.450000e-01
     vertex -1.429424e+02  7.096979e+01  4.450000e-01
     vertex -1.430576e+02  7.096979e+01  4.450000e-01
   endloop
 endfacet
 facet normal  0.000000e+00  0.000000e+00  1.000000e+00
   outer loop
     vertex  0.000000e+00  7.150000e-01  4.450000e-01
     vertex  0.000000e+00 -9.800000e-01  4.450000e-01
     vertex  4.450000e-01 -9.800000e-01  4.450000e-01
   endloop
 endfacet
 facet normal -0.000000e+00  0.000000e+00  1.000000e+00
   outer loop
     vertex  0.000000e+00  7.150000e-01  4.450000e-01
     vertex  4.450000e-01 -9.800000e-01  4.450000e-01
     vertex  4.450000e-01  7.150000e-01  4.450000e-01
   endloop
 endfacet
 facet normal  0.000000e+00  1.000000e+00  0.000000e+00
   outer loop
     vertex  0.000000e+00  7.150000e-01 -3.550000e-01
     vertex  0.000000e+00  7.150000e-01  4.450000e-01
     vertex  4.450000e-01  7.150000e-01  4.450000e-01
   endloop
 endfacet
 facet normal  0.000000e+00  1.000000e+00  0.000000e+00
   outer loop
     vertex  0.000000e+00  7.150000e-01 -3.550000e-01
     vertex  4.450000e-01  7.150000e-01  4.450000e-01
     vertex  4.450000e-01  7.150000e-01 -3.550000e-01
   endloop
 endfacet
 facet normal  0.000000e+00  0.000000e+00 -1.000000e+00
   outer loop
     vertex  0.000000e+00  7.150000e-01 -3.550000e-01
     vertex  4.450000e-01 -9.800000e-01 -3.550000e-01
     vertex  0.000000e+00 -9.800000e-01 -3.550000e-01
   endloop
 endfacet
 facet normal  0.000000e+00  0.000000e+00 -1.000000e+00
   outer loop
     vertex  0.000000e+00  7.150000e-01 -3.550000e-01
     vertex  4.450000e-01  7.150000e-01 -3.550000e-01
     vertex  4.450000e-01 -9.800000e-01 -3.550000e-01
   endloop
 endfacet
 facet normal  0.000000e+00 -1.000000e+00  0.000000e+00
   outer loop
     vertex  0.000000e+00 -9.800000e-01 -3.550000e-01
     vertex  4.450000e-01 -9.800000e-01  4.450000e-01
     vertex  0.000000e+00 -9.800000e-01  4.450000e-01
   endloop
 endfacet
 facet normal  0.000000e+00 -1.000000e+00  0.000000e+00
   outer loop
     vertex  0.000000e+00 -9.800000e-01 -3.550000e-01
     vertex  4.450000e-01 -9.800000e-01 -3.550000e-01
     vertex  4.450000e-01 -9.800000e-01  4.450000e-01
   endloop
 endfacet
 facet normal -1.000000e+00 -0.000000e+00  0.000000e+00
   outer loop
     vertex  0.000000e+00  7.150000e-01  4.450000e-01
     vertex  0.000000e+00 -9.800000e-01 -3.550000e-01
     vertex  0.000000e+00 -9.800000e-01  4.450000e-01
   endloop
 endfacet
 facet normal -1.000000e+00  0.000000e+00 -0.000000e+00
   outer loop
     vertex  0.000000e+00  7.150000e-01  4.450000e-01
     vertex  0.000000e+00  7.150000e-01 -3.550000e-01
     vertex  0.000000e+00 -9.800000e-01 -3.550000e-01
   endloop
 endfacet
 facet normal  1.000000e+00  0.000000e+00  0.000000e+00
   outer loop
     vertex  4.450000e-01  7.150000e-01  4.450000e-01
     vertex  4.450000e-01 -9.800000e-01  4.450000e-01
     vertex  4.450000e-01 -9.800000e-01 -3.550000e-01
   endloop
 endfacet
 facet normal  1.000000e+00  0.000000e+00  0.000000e+00
   outer loop
     vertex  4.450000e-01  7.150000e-01  4.450000e-01
     vertex  4.450000e-01 -9.800000e-01 -3.550000e-01
     vertex  4.450000e-01  7.150000e-01 -3.550000e-01
   endloop
 endfacet
 facet normal  9.970658e-01  7.654925e-02  0.000000e+00
   outer loop
     vertex -1.427070e+02  3.802595e+01  8.900000e+01
     vertex -1.427050e+02  3.800000e+01  8.900000e+01
     vertex -1.427050e+02  3.800000e+01  8.855500e+01
   endloop
 endfacet
 facet normal  9.970658e-01  7.654925e-02  0.000000e+00
   outer loop
     vertex -1.427070e+02  3.802595e+01  8.900000e+01
     vertex -1.427050e+02  3.800000e+01  8.855500e+01
     vertex -1.427070e+02  3.802595e+01  8.855500e+01
   endloop
 endfacet
 facet normal  9.736954e-01  2.278535e-01  0.000000e+00
   outer loop
     vertex -1.427129e+02  3.805129e+01  8.900000e+01
     vertex -1.427070e+02  3.802595e+01  8.855500e+01
     vertex -1.427129e+02  3.805129e+01  8.855500e+01
   endloop
 endfacet
 facet normal  9.736954e-01  2.278535e-01  0.000000e+00
   outer loop
     vertex -1.427129e+02  3.805129e+01  8.900000e+01
     vertex -1.427070e+02  3.802595e+01  8.900000e+01
     vertex -1.427070e+02  3.802595e+01  8.855500e+01
   endloop
 endfacet
 facet normal  9.275025e-01  3.738171e-01  0.000000e+00
   outer loop
     vertex -1.427227e+02  3.807543e+01  8.900000e+01
     vertex -1.427129e+02  3.805129e+01  8.855500e+01
     vertex -1.427227e+02  3.807543e+01  8.855500e+01
   endloop
 endfacet
 facet normal  9.275025e-01  3.738171e-01  0.000000e+00
   outer loop
     vertex -1.427227e+02  3.807543e+01  8.900000e+01
     vertex -1.427129e+02  3.805129e+01  8.900000e+01
     vertex -1.427129e+02  3.805129e+01  8.855500e+01
   endloop
 endfacet
 facet normal  8.595696e-01  5.110187e-01  0.000000e+00
   outer loop
     vertex -1.427360e+02  3.809780e+01  8.900000e+01
     vertex -1.427227e+02  3.807543e+01  8.900000e+01
     vertex -1.427227e+02  3.807543e+01  8.855500e+01
   endloop
 endfacet
 facet normal  8.595696e-01  5.110187e-01  0.000000e+00
   outer loop
     vertex -1.427360e+02  3.809780e+01  8.900000e+01
     vertex -1.427227e+02  3.807543e+01  8.855500e+01
     vertex -1.427360e+02  3.809780e+01  8.855500e+01
   endloop
 endfacet
 facet normal  7.714892e-01  6.362424e-01  0.000000e+00
   outer loop
     vertex -1.427525e+02  3.811788e+01  8.900000e+01
     vertex -1.427360e+02  3.809780e+01  8.900000e+01
     vertex -1.427360e+02  3.809780e+01  8.855500e+01
   endloop
 endfacet
 facet normal  7.714892e-01  6.362424e-01  0.000000e+00
   outer loop
     vertex -1.427525e+02  3.811788e+01  8.900000e+01
     vertex -1.427360e+02  3.809780e+01  8.855500e+01
     vertex -1.427525e+02  3.811788e+01  8.855500e+01
   endloop
 endfacet
 facet normal  6.653257e-01  7.465532e-01  0.000000e+00
   outer loop
     vertex -1.427525e+02  3.811788e+01  8.900000e+01
     vertex -1.427525e+02  3.811788e+01  8.855500e+01
     vertex -1.427719e+02  3.813520e+01  8.855500e+01
   endloop
 endfacet
 facet normal  6.653257e-01  7.465532e-01  0.000000e+00
   outer loop
     vertex -1.427719e+02  3.813520e+01  8.900000e+01
     vertex -1.427525e+02  3.811788e+01  8.900000e+01
     vertex -1.427719e+02  3.813520e+01  8.855500e+01
   endloop
 endfacet
 facet normal  5.435676e-01  8.393654e-01  0.000000e+00
   outer loop
     vertex -1.427938e+02  3.814935e+01  8.900000e+01
     vertex -1.427719e+02  3.813520e+01  8.855500e+01
     vertex -1.427938e+02  3.814935e+01  8.855500e+01
   endloop
 endfacet
 facet normal  5.435676e-01  8.393654e-01  0.000000e+00
   outer loop
     vertex -1.427938e+02  3.814935e+01  8.900000e+01
     vertex -1.427719e+02  3.813520e+01  8.900000e+01
     vertex -1.427719e+02  3.813520e+01  8.855500e+01
   endloop
 endfacet
 facet normal  4.090686e-01  9.125036e-01  0.000000e+00
   outer loop
     vertex -1.428175e+02  3.815999e+01  8.900000e+01
     vertex -1.427938e+02  3.814935e+01  8.855500e+01
     vertex -1.428175e+02  3.815999e+01  8.855500e+01
   endloop
 endfacet
 facet normal  4.090686e-01  9.125036e-01  0.000000e+00
   outer loop
     vertex -1.428175e+02  3.815999e+01  8.900000e+01
     vertex -1.427938e+02  3.814935e+01  8.900000e+01
     vertex -1.427938e+02  3.814935e+01  8.855500e+01
   endloop
 endfacet
 facet normal  2.649815e-01  9.642535e-01  0.000000e+00
   outer loop
     vertex -1.428426e+02  3.816689e+01  8.900000e+01
     vertex -1.428175e+02  3.815999e+01  8.855500e+01
     vertex -1.428426e+02  3.816689e+01  8.855500e+01
   endloop
 endfacet
 facet normal  1.146834e-01  9.934021e-01  0.000000e+00
   outer loop
     vertex -1.428426e+02  3.816689e+01  8.900000e+01
     vertex -1.428426e+02  3.816689e+01  8.855500e+01
     vertex -1.428685e+02  3.816988e+01  8.855500e+01
   endloop
 endfacet
 facet normal  2.649815e-01  9.642535e-01  0.000000e+00
   outer loop
     vertex -1.428426e+02  3.816689e+01  8.900000e+01
     vertex -1.428175e+02  3.815999e+01  8.900000e+01
     vertex -1.428175e+02  3.815999e+01  8.855500e+01
   endloop
 endfacet
 facet normal  1.146834e-01  9.934021e-01  0.000000e+00
   outer loop
     vertex -1.428685e+02  3.816988e+01  8.900000e+01
     vertex -1.428426e+02  3.816689e+01  8.900000e+01
     vertex -1.428685e+02  3.816988e+01  8.855500e+01
   endloop
 endfacet
 facet normal -3.830273e-02  9.992662e-01  0.000000e+00
   outer loop
     vertex -1.428945e+02  3.816888e+01  8.900000e+01
     vertex -1.428685e+02  3.816988e+01  8.855500e+01
     vertex -1.428945e+02  3.816888e+01  8.855500e+01
   endloop
 endfacet
 facet normal -1.903911e-01  9.817083e-01  0.000000e+00
   outer loop
     vertex -1.428945e+02  3.816888e+01  8.900000e+01
     vertex -1.428945e+02  3.816888e+01  8.855500e+01
     vertex -1.429200e+02  3.816392e+01  8.855500e+01
   endloop
 endfacet
 facet normal -3.830273e-02  9.992662e-01  0.000000e+00
   outer loop
     vertex -1.428945e+02  3.816888e+01  8.900000e+01
     vertex -1.428685e+02  3.816988e+01  8.900000e+01
     vertex -1.428685e+02  3.816988e+01  8.855500e+01
   endloop
 endfacet
 facet normal -1.903911e-01  9.817083e-01  0.000000e+00
   outer loop
     vertex -1.429200e+02  3.816392e+01  8.900000e+01
     vertex -1.428945e+02  3.816888e+01  8.900000e+01
     vertex -1.429200e+02  3.816392e+01  8.855500e+01
   endloop
 endfacet
 facet normal -3.380169e-01  9.411400e-01  0.000000e+00
   outer loop
     vertex -1.429445e+02  3.815513e+01  8.900000e+01
     vertex -1.429200e+02  3.816392e+01  8.855500e+01
     vertex -1.429445e+02  3.815513e+01  8.855500e+01
   endloop
 endfacet
 facet normal -4.777198e-01  8.785123e-01  0.000000e+00
   outer loop
     vertex -1.429445e+02  3.815513e+01  8.900000e+01
     vertex -1.429445e+02  3.815513e+01  8.855500e+01
     vertex -1.429674e+02  3.814269e+01  8.855500e+01
   endloop
 endfacet
 facet normal -3.380169e-01  9.411400e-01  0.000000e+00
   outer loop
     vertex -1.429445e+02  3.815513e+01  8.900000e+01
     vertex -1.429200e+02  3.816392e+01  8.900000e+01
     vertex -1.429200e+02  3.816392e+01  8.855500e+01
   endloop
 endfacet
 facet normal -4.777198e-01  8.785123e-01  0.000000e+00
   outer loop
     vertex -1.429674e+02  3.814269e+01  8.900000e+01
     vertex -1.429445e+02  3.815513e+01  8.900000e+01
     vertex -1.429674e+02  3.814269e+01  8.855500e+01
   endloop
 endfacet
 facet normal -6.062254e-01  7.952929e-01  0.000000e+00
   outer loop
     vertex -1.429881e+02  3.812691e+01  8.900000e+01
     vertex -1.429674e+02  3.814269e+01  8.855500e+01
     vertex -1.429881e+02  3.812691e+01  8.855500e+01
   endloop
 endfacet
 facet normal -6.062254e-01  7.952929e-01  0.000000e+00
   outer loop
     vertex -1.429881e+02  3.812691e+01  8.900000e+01
     vertex -1.429674e+02  3.814269e+01  8.900000e+01
     vertex -1.429674e+02  3.814269e+01  8.855500e+01
   endloop
 endfacet
 facet normal -7.205216e-01  6.934325e-01  0.000000e+00
   outer loop
     vertex -1.430062e+02  3.810816e+01  8.900000e+01
     vertex -1.429881e+02  3.812691e+01  8.855500e+01
     vertex -1.430062e+02  3.810816e+01  8.855500e+01
   endloop
 endfacet
 facet normal -7.205216e-01  6.934325e-01  0.000000e+00
   outer loop
     vertex -1.430062e+02  3.810816e+01  8.900000e+01
     vertex -1.429881e+02  3.812691e+01  8.900000e+01
     vertex -1.429881e+02  3.812691e+01  8.855500e+01
   endloop
 endfacet
 facet normal -8.179294e-01  5.753187e-01  0.000000e+00
   outer loop
     vertex -1.430211e+02  3.808687e+01  8.900000e+01
     vertex -1.430062e+02  3.810816e+01  8.855500e+01
     vertex -1.430211e+02  3.808687e+01  8.855500e+01
   endloop
 endfacet
 facet normal -8.179294e-01  5.753187e-01  0.000000e+00
   outer loop
     vertex -1.430211e+02  3.808687e+01  8.900000e+01
     vertex -1.430062e+02  3.810816e+01  8.900000e+01
     vertex -1.430062e+02  3.810816e+01  8.855500e+01
   endloop
 endfacet
 facet normal -8.961656e-01  4.437198e-01  0.000000e+00
   outer loop
     vertex -1.430327e+02  3.806355e+01  8.900000e+01
     vertex -1.430211e+02  3.808687e+01  8.855500e+01
     vertex -1.430327e+02  3.806355e+01  8.855500e+01
   endloop
 endfacet
 facet normal -8.961656e-01  4.437198e-01  0.000000e+00
   outer loop
     vertex -1.430327e+02  3.806355e+01  8.900000e+01
     vertex -1.430211e+02  3.808687e+01  8.900000e+01
     vertex -1.430211e+02  3.808687e+01  8.855500e+01
   endloop
 endfacet
 facet normal -9.533964e-01  3.017206e-01  0.000000e+00
   outer loop
     vertex -1.430405e+02  3.803874e+01  8.900000e+01
     vertex -1.430327e+02  3.806355e+01  8.855500e+01
     vertex -1.430405e+02  3.803874e+01  8.855500e+01
   endloop
 endfacet
 facet normal -9.882804e-01  1.526493e-01  0.000000e+00
   outer loop
     vertex -1.430405e+02  3.803874e+01  8.900000e+01
     vertex -1.430405e+02  3.803874e+01  8.855500e+01
     vertex -1.430445e+02  3.801301e+01  8.855500e+01
   endloop
 endfacet
 facet normal -9.533964e-01  3.017206e-01  0.000000e+00
   outer loop
     vertex -1.430405e+02  3.803874e+01  8.900000e+01
     vertex -1.430327e+02  3.806355e+01  8.900000e+01
     vertex -1.430327e+02  3.806355e+01  8.855500e+01
   endloop
 endfacet
 facet normal -9.882804e-01  1.526493e-01  0.000000e+00
   outer loop
     vertex -1.430445e+02  3.801301e+01  8.900000e+01
     vertex -1.430405e+02  3.803874e+01  8.900000e+01
     vertex -1.430445e+02  3.801301e+01  8.855500e+01
   endloop
 endfacet
 facet normal -1.000000e+00  0.000000e+00  0.000000e+00
   outer loop
     vertex -1.430445e+02  3.798699e+01  8.900000e+01
     vertex -1.430445e+02  3.801301e+01  8.855500e+01
     vertex -1.430445e+02  3.798699e+01  8.855500e+01
   endloop
 endfacet
 facet normal -1.000000e+00  0.000000e+00  0.000000e+00
   outer loop
     vertex -1.430445e+02  3.798699e+01  8.900000e+01
     vertex -1.430445e+02  3.801301e+01  8.900000e+01
     vertex -1.430445e+02  3.801301e+01  8.855500e+01
   endloop
 endfacet
 facet normal -9.882804e-01 -1.526493e-01 -0.000000e+00
   outer loop
     vertex -1.430405e+02  3.796126e+01  8.900000e+01
     vertex -1.430445e+02  3.798699e+01  8.855500e+01
     vertex -1.430405e+02  3.796126e+01  8.855500e+01
   endloop
 endfacet
 facet normal -9.533964e-01 -3.017206e-01 -0.000000e+00
   outer loop
     vertex -1.430405e+02  3.796126e+01  8.900000e+01
     vertex -1.430405e+02  3.796126e+01  8.855500e+01
     vertex -1.430327e+02  3.793645e+01  8.855500e+01
   endloop
 endfacet
 facet normal -9.882804e-01 -1.526493e-01  0.000000e+00
   outer loop
     vertex -1.430405e+02  3.796126e+01  8.900000e+01
     vertex -1.430445e+02  3.798699e+01  8.900000e+01
     vertex -1.430445e+02  3.798699e+01  8.855500e+01
   endloop
 endfacet
 facet normal -9.533964e-01 -3.017206e-01 -0.000000e+00
   outer loop
     vertex -1.430327e+02  3.793645e+01  8.900000e+01
     vertex -1.430405e+02  3.796126e+01  8.900000e+01
     vertex -1.430327e+02  3.793645e+01  8.855500e+01
   endloop
 endfacet
 facet normal -8.961656e-01 -4.437198e-01 -0.000000e+00
   outer loop
     vertex -1.430211e+02  3.791313e+01  8.900000e+01
     vertex -1.430327e+02  3.793645e+01  8.855500e+01
     vertex -1.430211e+02  3.791313e+01  8.855500e+01
   endloop
 endfacet
 facet normal -8.179294e-01 -5.753187e-01 -0.000000e+00
   outer loop
     vertex -1.430211e+02  3.791313e+01  8.900000e+01
     vertex -1.430211e+02  3.791313e+01  8.855500e+01
     vertex -1.430062e+02  3.789184e+01  8.855500e+01
   endloop
 endfacet
 facet normal -8.961656e-01 -4.437198e-01  0.000000e+00
   outer loop
     vertex -1.430211e+02  3.791313e+01  8.900000e+01
     vertex -1.430327e+02  3.793645e+01  8.900000e+01
     vertex -1.430327e+02  3.793645e+01  8.855500e+01
   endloop
 endfacet
 facet normal -7.205216e-01 -6.934325e-01 -0.000000e+00
   outer loop
     vertex -1.430062e+02  3.789184e+01  8.900000e+01
     vertex -1.430062e+02  3.789184e+01  8.855500e+01
     vertex -1.429881e+02  3.787309e+01  8.855500e+01
   endloop
 endfacet
 facet normal -8.179294e-01 -5.753187e-01 -0.000000e+00
   outer loop
     vertex -1.430062e+02  3.789184e+01  8.900000e+01
     vertex -1.430211e+02  3.791313e+01  8.900000e+01
     vertex -1.430062e+02  3.789184e+01  8.855500e+01
   endloop
 endfacet
 facet normal -7.205216e-01 -6.934325e-01 -0.000000e+00
   outer loop
     vertex -1.429881e+02  3.787309e+01  8.900000e+01
     vertex -1.430062e+02  3.789184e+01  8.900000e+01
     vertex -1.429881e+02  3.787309e+01  8.855500e+01
   endloop
 endfacet
 facet normal -6.062254e-01 -7.952929e-01 -0.000000e+00
   outer loop
     vertex -1.429674e+02  3.785731e+01  8.900000e+01
     vertex -1.429881e+02  3.787309e+01  8.855500e+01
     vertex -1.429674e+02  3.785731e+01  8.855500e+01
   endloop
 endfacet
 facet normal -4.777198e-01 -8.785123e-01 -0.000000e+00
   outer loop
     vertex -1.429674e+02  3.785731e+01  8.900000e+01
     vertex -1.429674e+02  3.785731e+01  8.855500e+01
     vertex -1.429445e+02  3.784487e+01  8.855500e+01
   endloop
 endfacet
 facet normal -6.062254e-01 -7.952929e-01  0.000000e+00
   outer loop
     vertex -1.429674e+02  3.785731e+01  8.900000e+01
     vertex -1.429881e+02  3.787309e+01  8.900000e+01
     vertex -1.429881e+02  3.787309e+01  8.855500e+01
   endloop
 endfacet
 facet normal -4.777198e-01 -8.785123e-01 -0.000000e+00
   outer loop
     vertex -1.429445e+02  3.784487e+01  8.900000e+01
     vertex -1.429674e+02  3.785731e+01  8.900000e+01
     vertex -1.429445e+02  3.784487e+01  8.855500e+01
   endloop
 endfacet
 facet normal -3.380169e-01 -9.411400e-01  0.000000e+00
   outer loop
     vertex -1.429200e+02  3.783608e+01  8.900000e+01
     vertex -1.429445e+02  3.784487e+01  8.900000e+01
     vertex -1.429445e+02  3.784487e+01  8.855500e+01
   endloop
 endfacet
 facet normal -3.380169e-01 -9.411400e-01 -0.000000e+00
   outer loop
     vertex -1.429200e+02  3.783608e+01  8.900000e+01
     vertex -1.429445e+02  3.784487e+01  8.855500e+01
     vertex -1.429200e+02  3.783608e+01  8.855500e+01
   endloop
 endfacet
 facet normal -1.903911e-01 -9.817083e-01  0.000000e+00
   outer loop
     vertex -1.428945e+02  3.783112e+01  8.900000e+01
     vertex -1.429200e+02  3.783608e+01  8.900000e+01
     vertex -1.429200e+02  3.783608e+01  8.855500e+01
   endloop
 endfacet
 facet normal -1.903911e-01 -9.817083e-01 -0.000000e+00
   outer loop
     vertex -1.428945e+02  3.783112e+01  8.900000e+01
     vertex -1.429200e+02  3.783608e+01  8.855500e+01
     vertex -1.428945e+02  3.783112e+01  8.855500e+01
   endloop
 endfacet
 facet normal -3.830273e-02 -9.992662e-01 -0.000000e+00
   outer loop
     vertex -1.428945e+02  3.783112e+01  8.900000e+01
     vertex -1.428945e+02  3.783112e+01  8.855500e+01
     vertex -1.428685e+02  3.783012e+01  8.855500e+01
   endloop
 endfacet
 facet normal -3.830273e-02 -9.992662e-01 -0.000000e+00
   outer loop
     vertex -1.428685e+02  3.783012e+01  8.900000e+01
     vertex -1.428945e+02  3.783112e+01  8.900000e+01
     vertex -1.428685e+02  3.783012e+01  8.855500e+01
   endloop
 endfacet
 facet normal  1.146834e-01 -9.934021e-01  0.000000e+00
   outer loop
     vertex -1.428426e+02  3.783311e+01  8.900000e+01
     vertex -1.428685e+02  3.783012e+01  8.900000e+01
     vertex -1.428685e+02  3.783012e+01  8.855500e+01
   endloop
 endfacet
 facet normal  1.146834e-01 -9.934021e-01  0.000000e+00
   outer loop
     vertex -1.428426e+02  3.783311e+01  8.900000e+01
     vertex -1.428685e+02  3.783012e+01  8.855500e+01
     vertex -1.428426e+02  3.783311e+01  8.855500e+01
   endloop
 endfacet
 facet normal  2.649815e-01 -9.642535e-01  0.000000e+00
   outer loop
     vertex -1.428426e+02  3.783311e+01  8.900000e+01
     vertex -1.428426e+02  3.783311e+01  8.855500e+01
     vertex -1.428175e+02  3.784001e+01  8.855500e+01
   endloop
 endfacet
 facet normal  2.649815e-01 -9.642535e-01  0.000000e+00
   outer loop
     vertex -1.428175e+02  3.784001e+01  8.900000e+01
     vertex -1.428426e+02  3.783311e+01  8.900000e+01
     vertex -1.428175e+02  3.784001e+01  8.855500e+01
   endloop
 endfacet
 facet normal  4.090686e-01 -9.125036e-01  0.000000e+00
   outer loop
     vertex -1.427938e+02  3.785065e+01  8.900000e+01
     vertex -1.428175e+02  3.784001e+01  8.900000e+01
     vertex -1.428175e+02  3.784001e+01  8.855500e+01
   endloop
 endfacet
 facet normal  4.090686e-01 -9.125036e-01  0.000000e+00
   outer loop
     vertex -1.427938e+02  3.785065e+01  8.900000e+01
     vertex -1.428175e+02  3.784001e+01  8.855500e+01
     vertex -1.427938e+02  3.785065e+01  8.855500e+01
   endloop
 endfacet
 facet normal  5.435676e-01 -8.393654e-01  0.000000e+00
   outer loop
     vertex -1.427938e+02  3.785065e+01  8.900000e+01
     vertex -1.427938e+02  3.785065e+01  8.855500e+01
     vertex -1.427719e+02  3.786480e+01  8.855500e+01
   endloop
 endfacet
 facet normal  5.435676e-01 -8.393654e-01  0.000000e+00
   outer loop
     vertex -1.427719e+02  3.786480e+01  8.900000e+01
     vertex -1.427938e+02  3.785065e+01  8.900000e+01
     vertex -1.427719e+02  3.786480e+01  8.855500e+01
   endloop
 endfacet
 facet normal  6.653257e-01 -7.465532e-01  0.000000e+00
   outer loop
     vertex -1.427719e+02  3.786480e+01  8.900000e+01
     vertex -1.427719e+02  3.786480e+01  8.855500e+01
     vertex -1.427525e+02  3.788212e+01  8.855500e+01
   endloop
 endfacet
 facet normal  6.653257e-01 -7.465532e-01  0.000000e+00
   outer loop
     vertex -1.427525e+02  3.788212e+01  8.900000e+01
     vertex -1.427719e+02  3.786480e+01  8.900000e+01
     vertex -1.427525e+02  3.788212e+01  8.855500e+01
   endloop
 endfacet
 facet normal  7.714892e-01 -6.362424e-01  0.000000e+00
   outer loop
     vertex -1.427525e+02  3.788212e+01  8.900000e+01
     vertex -1.427525e+02  3.788212e+01  8.855500e+01
     vertex -1.427360e+02  3.790220e+01  8.855500e+01
   endloop
 endfacet
 facet normal  7.714892e-01 -6.362424e-01  0.000000e+00
   outer loop
     vertex -1.427360e+02  3.790220e+01  8.900000e+01
     vertex -1.427525e+02  3.788212e+01  8.900000e+01
     vertex -1.427360e+02  3.790220e+01  8.855500e+01
   endloop
 endfacet
 facet normal  8.595696e-01 -5.110187e-01  0.000000e+00
   outer loop
     vertex -1.427227e+02  3.792457e+01  8.900000e+01
     vertex -1.427360e+02  3.790220e+01  8.900000e+01
     vertex -1.427360e+02  3.790220e+01  8.855500e+01
   endloop
 endfacet
 facet normal  8.595696e-01 -5.110187e-01  0.000000e+00
   outer loop
     vertex -1.427227e+02  3.792457e+01  8.900000e+01
     vertex -1.427360e+02  3.790220e+01  8.855500e+01
     vertex -1.427227e+02  3.792457e+01  8.855500e+01
   endloop
 endfacet
 facet normal  9.275025e-01 -3.738171e-01  0.000000e+00
   outer loop
     vertex -1.427129e+02  3.794871e+01  8.900000e+01
     vertex -1.427227e+02  3.792457e+01  8.900000e+01
     vertex -1.427227e+02  3.792457e+01  8.855500e+01
   endloop
 endfacet
 facet normal  9.275025e-01 -3.738171e-01  0.000000e+00
   outer loop
     vertex -1.427129e+02  3.794871e+01  8.900000e+01
     vertex -1.427227e+02  3.792457e+01  8.855500e+01
     vertex -1.427129e+02  3.794871e+01  8.855500e+01
   endloop
 endfacet
 facet normal  9.736954e-01 -2.278535e-01  0.000000e+00
   outer loop
     vertex -1.427129e+02  3.794871e+01  8.900000e+01
     vertex -1.427129e+02  3.794871e+01  8.855500e+01
     vertex -1.427070e+02  3.797405e+01  8.855500e+01
   endloop
 endfacet
 facet normal  9.736954e-01 -2.278535e-01  0.000000e+00
   outer loop
     vertex -1.427070e+02  3.797405e+01  8.900000e+01
     vertex -1.427129e+02  3.794871e+01  8.900000e+01
     vertex -1.427070e+02  3.797405e+01  8.855500e+01
   endloop
 endfacet
 facet normal  9.970658e-01 -7.654925e-02  0.000000e+00
   outer loop
     vertex -1.427050e+02  3.800000e+01  8.900000e+01
     vertex -1.427070e+02  3.797405e+01  8.855500e+01
     vertex -1.427050e+02  3.800000e+01  8.855500e+01
   endloop
 endfacet
 facet normal  9.970658e-01 -7.654925e-02  0.000000e+00
   outer loop
     vertex -1.427050e+02  3.800000e+01  8.900000e+01
     vertex -1.427070e+02  3.797405e+01  8.900000e+01
     vertex -1.427070e+02  3.797405e+01  8.855500e+01
   endloop
 endfacet
 facet normal  0.000000e+00  0.000000e+00  1.000000e+00
   outer loop
     vertex -1.427050e+02  3.800000e+01  8.900000e+01
     vertex -1.430062e+02  3.789184e+01  8.900000e+01
     vertex -1.429881e+02  3.787309e+01  8.900000e+01
   endloop
 endfacet
 facet normal  0.000000e+00  0.000000e+00  1.000000e+00
   outer loop
     vertex -1.427050e+02  3.800000e+01  8.900000e+01
     vertex -1.429881e+02  3.787309e+01  8.900000e+01
     vertex -1.429674e+02  3.785731e+01  8.900000e+01
   endloop
 endfacet
 facet normal  0.000000e+00  0.000000e+00  1.000000e+00
   outer loop
     vertex -1.427050e+02  3.800000e+01  8.900000e+01
     vertex -1.429674e+02  3.785731e+01  8.900000e+01
     vertex -1.429445e+02  3.784487e+01  8.900000e+01
   endloop
 endfacet
 facet normal  0.000000e+00  0.000000e+00  1.000000e+00
   outer loop
     vertex -1.427050e+02  3.800000e+01  8.900000e+01
     vertex -1.429445e+02  3.784487e+01  8.900000e+01
     vertex -1.429200e+02  3.783608e+01  8.900000e+01
   endloop
 endfacet
 facet normal  0.000000e+00  0.000000e+00  1.000000e+00
   outer loop
     vertex -1.427050e+02  3.800000e+01  8.900000e+01
     vertex -1.429200e+02  3.783608e+01  8.900000e+01
     vertex -1.428945e+02  3.783112e+01  8.900000e+01
   endloop
 endfacet
 facet normal  0.000000e+00  0.000000e+00  1.000000e+00
   outer loop
     vertex -1.427050e+02  3.800000e+01  8.900000e+01
     vertex -1.428945e+02  3.783112e+01  8.900000e+01
     vertex -1.428685e+02  3.783012e+01  8.900000e+01
   endloop
 endfacet
 facet normal  0.000000e+00  0.000000e+00  1.000000e+00
   outer loop
     vertex -1.427050e+02  3.800000e+01  8.900000e+01
     vertex -1.428685e+02  3.783012e+01  8.900000e+01
     vertex -1.428426e+02  3.783311e+01  8.900000e+01
   endloop
 endfacet
 facet normal  0.000000e+00  0.000000e+00  1.000000e+00
   outer loop
     vertex -1.427050e+02  3.800000e+01  8.900000e+01
     vertex -1.428426e+02  3.783311e+01  8.900000e+01
     vertex -1.428175e+02  3.784001e+01  8.900000e+01
   endloop
 endfacet
 facet normal  0.000000e+00  0.000000e+00  1.000000e+00
   outer loop
     vertex -1.427050e+02  3.800000e+01  8.900000e+01
     vertex -1.428175e+02  3.784001e+01  8.900000e+01
     vertex -1.427938e+02  3.785065e+01  8.900000e+01
   endloop
 endfacet
 facet normal  0.000000e+00  0.000000e+00  1.000000e+00
   outer loop
     vertex -1.427050e+02  3.800000e+01  8.900000e+01
     vertex -1.427938e+02  3.785065e+01  8.900000e+01
     vertex -1.427719e+02  3.786480e+01  8.900000e+01
   endloop
 endfacet
 facet normal  0.000000e+00  0.000000e+00  1.000000e+00
   outer loop
     vertex -1.427050e+02  3.800000e+01  8.900000e+01
     vertex -1.427719e+02  3.786480e+01  8.900000e+01
     vertex -1.427525e+02  3.788212e+01  8.900000e+01
   endloop
 endfacet
 facet normal  0.000000e+00  0.000000e+00  1.000000e+00
   outer loop
     vertex -1.427050e+02  3.800000e+01  8.900000e+01
     vertex -1.427525e+02  3.788212e+01  8.900000e+01
     vertex -1.427360e+02  3.790220e+01  8.900000e+01
   endloop
 endfacet
 facet normal  0.000000e+00  0.000000e+00  1.000000e+00
   outer loop
     vertex -1.427050e+02  3.800000e+01  8.900000e+01
     vertex -1.427360e+02  3.790220e+01  8.900000e+01
     vertex -1.427227e+02  3.792457e+01  8.900000e+01
   endloop
 endfacet
 facet normal  0.000000e+00  0.000000e+00  1.000000e+00
   outer loop
     vertex -1.427050e+02  3.800000e+01  8.900000e+01
     vertex -1.427227e+02  3.792457e+01  8.900000e+01
     vertex -1.427129e+02  3.794871e+01  8.900000e+01
   endloop
 endfacet
 facet normal  0.000000e+00  0.000000e+00  1.000000e+00
   outer loop
     vertex -1.427050e+02  3.800000e+01  8.900000e+01
     vertex -1.427129e+02  3.794871e+01  8.900000e+01
     vertex -1.427070e+02  3.797405e+01  8.900000e+01
   endloop
 endfacet
 facet normal  0.000000e+00  0.000000e+00  1.000000e+00
   outer loop
     vertex -1.427129e+02  3.805129e+01  8.900000e+01
     vertex -1.427050e+02  3.800000e+01  8.900000e+01
     vertex -1.427070e+02  3.802595e+01  8.900000e+01
   endloop
 endfacet
 facet normal  0.000000e+00  0.000000e+00  1.000000e+00
   outer loop
     vertex -1.427129e+02  3.805129e+01  8.900000e+01
     vertex -1.430211e+02  3.791313e+01  8.900000e+01
     vertex -1.430062e+02  3.789184e+01  8.900000e+01
   endloop
 endfacet
 facet normal  0.000000e+00  0.000000e+00  1.000000e+00
   outer loop
     vertex -1.427129e+02  3.805129e+01  8.900000e+01
     vertex -1.430062e+02  3.789184e+01  8.900000e+01
     vertex -1.427050e+02  3.800000e+01  8.900000e+01
   endloop
 endfacet
 facet normal  0.000000e+00  0.000000e+00  1.000000e+00
   outer loop
     vertex -1.427227e+02  3.807543e+01  8.900000e+01
     vertex -1.430211e+02  3.791313e+01  8.900000e+01
     vertex -1.427129e+02  3.805129e+01  8.900000e+01
   endloop
 endfacet
 facet normal  0.000000e+00  0.000000e+00  1.000000e+00
   outer loop
     vertex -1.427227e+02  3.807543e+01  8.900000e+01
     vertex -1.430445e+02  3.798699e+01  8.900000e+01
     vertex -1.430405e+02  3.796126e+01  8.900000e+01
   endloop
 endfacet
 facet normal  0.000000e+00  0.000000e+00  1.000000e+00
   outer loop
     vertex -1.427227e+02  3.807543e+01  8.900000e+01
     vertex -1.430405e+02  3.796126e+01  8.900000e+01
     vertex -1.430327e+02  3.793645e+01  8.900000e+01
   endloop
 endfacet
 facet normal  0.000000e+00  0.000000e+00  1.000000e+00
   outer loop
     vertex -1.427227e+02  3.807543e+01  8.900000e+01
     vertex -1.430327e+02  3.793645e+01  8.900000e+01
     vertex -1.430211e+02  3.791313e+01  8.900000e+01
   endloop
 endfacet
 facet normal  0.000000e+00  0.000000e+00  1.000000e+00
   outer loop
     vertex -1.427525e+02  3.811788e+01  8.900000e+01
     vertex -1.427227e+02  3.807543e+01  8.900000e+01
     vertex -1.427360e+02  3.809780e+01  8.900000e+01
   endloop
 endfacet
 facet normal  0.000000e+00  0.000000e+00  1.000000e+00
   outer loop
     vertex -1.427525e+02  3.811788e+01  8.900000e+01
     vertex -1.427719e+02  3.813520e+01  8.900000e+01
     vertex -1.427938e+02  3.814935e+01  8.900000e+01
   endloop
 endfacet
 facet normal  0.000000e+00  0.000000e+00  1.000000e+00
   outer loop
     vertex -1.427525e+02  3.811788e+01  8.900000e+01
     vertex -1.427938e+02  3.814935e+01  8.900000e+01
     vertex -1.428175e+02  3.815999e+01  8.900000e+01
   endloop
 endfacet
 facet normal  0.000000e+00  0.000000e+00  1.000000e+00
   outer loop
     vertex -1.427525e+02  3.811788e+01  8.900000e+01
     vertex -1.430445e+02  3.798699e+01  8.900000e+01
     vertex -1.427227e+02  3.807543e+01  8.900000e+01
   endloop
 endfacet
 facet normal  0.000000e+00  0.000000e+00  1.000000e+00
   outer loop
     vertex -1.427525e+02  3.811788e+01  8.900000e+01
     vertex -1.428175e+02  3.815999e+01  8.900000e+01
     vertex -1.428426e+02  3.816689e+01  8.900000e+01
   endloop
 endfacet
 facet normal  0.000000e+00  0.000000e+00  1.000000e+00
   outer loop
     vertex -1.427525e+02  3.811788e+01  8.900000e+01
     vertex -1.428426e+02  3.816689e+01  8.900000e+01
     vertex -1.428685e+02  3.816988e+01  8.900000e+01
   endloop
 endfacet
 facet normal  0.000000e+00  0.000000e+00  1.000000e+00
   outer loop
     vertex -1.427525e+02  3.811788e+01  8.900000e+01
     vertex -1.428685e+02  3.816988e+01  8.900000e+01
     vertex -1.428945e+02  3.816888e+01  8.900000e+01
   endloop
 endfacet
 facet normal  0.000000e+00  0.000000e+00  1.000000e+00
   outer loop
     vertex -1.427525e+02  3.811788e+01  8.900000e+01
     vertex -1.428945e+02  3.816888e+01  8.900000e+01
     vertex -1.429200e+02  3.816392e+01  8.900000e+01
   endloop
 endfacet
 facet normal  0.000000e+00  0.000000e+00  1.000000e+00
   outer loop
     vertex -1.427525e+02  3.811788e+01  8.900000e+01
     vertex -1.429200e+02  3.816392e+01  8.900000e+01
     vertex -1.429445e+02  3.815513e+01  8.900000e+01
   endloop
 endfacet
 facet normal  0.000000e+00  0.000000e+00  1.000000e+00
   outer loop
     vertex -1.427525e+02  3.811788e+01  8.900000e+01
     vertex -1.429445e+02  3.815513e+01  8.900000e+01
     vertex -1.429674e+02  3.814269e+01  8.900000e+01
   endloop
 endfacet
 facet normal  0.000000e+00  0.000000e+00  1.000000e+00
   outer loop
     vertex -1.427525e+02  3.811788e+01  8.900000e+01
     vertex -1.429674e+02  3.814269e+01  8.900000e+01
     vertex -1.429881e+02  3.812691e+01  8.900000e+01
   endloop
 endfacet
 facet normal  0.000000e+00  0.000000e+00  1.000000e+00
   outer loop
     vertex -1.427525e+02  3.811788e+01  8.900000e+01
     vertex -1.429881e+02  3.812691e+01  8.900000e+01
     vertex -1.430062e+02  3.810816e+01  8.900000e+01
   endloop
 endfacet
 facet normal  0.000000e+00  0.000000e+00  1.000000e+00
   outer loop
     vertex -1.427525e+02  3.811788e+01  8.900000e+01
     vertex -1.430062e+02  3.810816e+01  8.900000e+01
     vertex -1.430211e+02  3.808687e+01  8.900000e+01
   endloop
 endfacet
 facet normal  0.000000e+00  0.000000e+00  1.000000e+00
   outer loop
     vertex -1.427525e+02  3.811788e+01  8.900000e+01
     vertex -1.430211e+02  3.808687e+01  8.900000e+01
     vertex -1.430327e+02  3.806355e+01  8.900000e+01
   endloop
 endfacet
 facet normal  0.000000e+00  0.000000e+00  1.000000e+00
   outer loop
     vertex -1.427525e+02  3.811788e+01  8.900000e+01
     vertex -1.430327e+02  3.806355e+01  8.900000e+01
     vertex -1.430405e+02  3.803874e+01  8.900000e+01
   endloop
 endfacet
 facet normal  0.000000e+00  0.000000e+00  1.000000e+00
   outer loop
     vertex -1.427525e+02  3.811788e+01  8.900000e+01
     vertex -1.430405e+02  3.803874e+01  8.900000e+01
     vertex -1.430445e+02  3.801301e+01  8.900000e+01
   endloop
 endfacet
 facet normal  0.000000e+00  0.000000e+00  1.000000e+00
   outer loop
     vertex -1.427525e+02  3.811788e+01  8.900000e+01
     vertex -1.430445e+02  3.801301e+01  8.900000e+01
     vertex -1.430445e+02  3.798699e+01  8.900000e+01
   endloop
 endfacet
 facet normal  0.000000e+00  0.000000e+00 -1.000000e+00
   outer loop
     vertex -1.427050e+02  3.800000e+01  8.855500e+01
     vertex -1.429881e+02  3.787309e+01  8.855500e+01
     vertex -1.430062e+02  3.789184e+01  8.855500e+01
   endloop
 endfacet
 facet normal  0.000000e+00  0.000000e+00 -1.000000e+00
   outer loop
     vertex -1.427050e+02  3.800000e+01  8.855500e+01
     vertex -1.429674e+02  3.785731e+01  8.855500e+01
     vertex -1.429881e+02  3.787309e+01  8.855500e+01
   endloop
 endfacet
 facet normal  0.000000e+00  0.000000e+00 -1.000000e+00
   outer loop
     vertex -1.427050e+02  3.800000e+01  8.855500e+01
     vertex -1.429445e+02  3.784487e+01  8.855500e+01
     vertex -1.429674e+02  3.785731e+01  8.855500e+01
   endloop
 endfacet
 facet normal  0.000000e+00  0.000000e+00 -1.000000e+00
   outer loop
     vertex -1.427050e+02  3.800000e+01  8.855500e+01
     vertex -1.429200e+02  3.783608e+01  8.855500e+01
     vertex -1.429445e+02  3.784487e+01  8.855500e+01
   endloop
 endfacet
 facet normal  0.000000e+00  0.000000e+00 -1.000000e+00
   outer loop
     vertex -1.427050e+02  3.800000e+01  8.855500e+01
     vertex -1.428945e+02  3.783112e+01  8.855500e+01
     vertex -1.429200e+02  3.783608e+01  8.855500e+01
   endloop
 endfacet
 facet normal  0.000000e+00  0.000000e+00 -1.000000e+00
   outer loop
     vertex -1.427050e+02  3.800000e+01  8.855500e+01
     vertex -1.428685e+02  3.783012e+01  8.855500e+01
     vertex -1.428945e+02  3.783112e+01  8.855500e+01
   endloop
 endfacet
 facet normal  0.000000e+00  0.000000e+00 -1.000000e+00
   outer loop
     vertex -1.427050e+02  3.800000e+01  8.855500e+01
     vertex -1.428426e+02  3.783311e+01  8.855500e+01
     vertex -1.428685e+02  3.783012e+01  8.855500e+01
   endloop
 endfacet
 facet normal  0.000000e+00  0.000000e+00 -1.000000e+00
   outer loop
     vertex -1.427050e+02  3.800000e+01  8.855500e+01
     vertex -1.428175e+02  3.784001e+01  8.855500e+01
     vertex -1.428426e+02  3.783311e+01  8.855500e+01
   endloop
 endfacet
 facet normal  0.000000e+00  0.000000e+00 -1.000000e+00
   outer loop
     vertex -1.427050e+02  3.800000e+01  8.855500e+01
     vertex -1.427938e+02  3.785065e+01  8.855500e+01
     vertex -1.428175e+02  3.784001e+01  8.855500e+01
   endloop
 endfacet
 facet normal  0.000000e+00  0.000000e+00 -1.000000e+00
   outer loop
     vertex -1.427050e+02  3.800000e+01  8.855500e+01
     vertex -1.427719e+02  3.786480e+01  8.855500e+01
     vertex -1.427938e+02  3.785065e+01  8.855500e+01
   endloop
 endfacet
 facet normal  0.000000e+00  0.000000e+00 -1.000000e+00
   outer loop
     vertex -1.427050e+02  3.800000e+01  8.855500e+01
     vertex -1.427525e+02  3.788212e+01  8.855500e+01
     vertex -1.427719e+02  3.786480e+01  8.855500e+01
   endloop
 endfacet
 facet normal  0.000000e+00  0.000000e+00 -1.000000e+00
   outer loop
     vertex -1.427050e+02  3.800000e+01  8.855500e+01
     vertex -1.427360e+02  3.790220e+01  8.855500e+01
     vertex -1.427525e+02  3.788212e+01  8.855500e+01
   endloop
 endfacet
 facet normal  0.000000e+00  0.000000e+00 -1.000000e+00
   outer loop
     vertex -1.427050e+02  3.800000e+01  8.855500e+01
     vertex -1.427227e+02  3.792457e+01  8.855500e+01
     vertex -1.427360e+02  3.790220e+01  8.855500e+01
   endloop
 endfacet
 facet normal  0.000000e+00  0.000000e+00 -1.000000e+00
   outer loop
     vertex -1.427050e+02  3.800000e+01  8.855500e+01
     vertex -1.427129e+02  3.794871e+01  8.855500e+01
     vertex -1.427227e+02  3.792457e+01  8.855500e+01
   endloop
 endfacet
 facet normal  0.000000e+00  0.000000e+00 -1.000000e+00
   outer loop
     vertex -1.427050e+02  3.800000e+01  8.855500e+01
     vertex -1.427070e+02  3.797405e+01  8.855500e+01
     vertex -1.427129e+02  3.794871e+01  8.855500e+01
   endloop
 endfacet
 facet normal  0.000000e+00  0.000000e+00 -1.000000e+00
   outer loop
     vertex -1.427129e+02  3.805129e+01  8.855500e+01
     vertex -1.427070e+02  3.802595e+01  8.855500e+01
     vertex -1.427050e+02  3.800000e+01  8.855500e+01
   endloop
 endfacet
 facet normal  0.000000e+00  0.000000e+00 -1.000000e+00
   outer loop
     vertex -1.427129e+02  3.805129e+01  8.855500e+01
     vertex -1.430062e+02  3.789184e+01  8.855500e+01
     vertex -1.430211e+02  3.791313e+01  8.855500e+01
   endloop
 endfacet
 facet normal  0.000000e+00 -0.000000e+00 -1.000000e+00
   outer loop
     vertex -1.427129e+02  3.805129e+01  8.855500e+01
     vertex -1.427050e+02  3.800000e+01  8.855500e+01
     vertex -1.430062e+02  3.789184e+01  8.855500e+01
   endloop
 endfacet
 facet normal  0.000000e+00 -0.000000e+00 -1.000000e+00
   outer loop
     vertex -1.427227e+02  3.807543e+01  8.855500e+01
     vertex -1.427129e+02  3.805129e+01  8.855500e+01
     vertex -1.430211e+02  3.791313e+01  8.855500e+01
   endloop
 endfacet
 facet normal  0.000000e+00  0.000000e+00 -1.000000e+00
   outer loop
     vertex -1.427227e+02  3.807543e+01  8.855500e+01
     vertex -1.430405e+02  3.796126e+01  8.855500e+01
     vertex -1.430445e+02  3.798699e+01  8.855500e+01
   endloop
 endfacet
 facet normal  0.000000e+00  0.000000e+00 -1.000000e+00
   outer loop
     vertex -1.427227e+02  3.807543e+01  8.855500e+01
     vertex -1.430327e+02  3.793645e+01  8.855500e+01
     vertex -1.430405e+02  3.796126e+01  8.855500e+01
   endloop
 endfacet
 facet normal  0.000000e+00  0.000000e+00 -1.000000e+00
   outer loop
     vertex -1.427227e+02  3.807543e+01  8.855500e+01
     vertex -1.430211e+02  3.791313e+01  8.855500e+01
     vertex -1.430327e+02  3.793645e+01  8.855500e+01
   endloop
 endfacet
 facet normal  0.000000e+00  0.000000e+00 -1.000000e+00
   outer loop
     vertex -1.427525e+02  3.811788e+01  8.855500e+01
     vertex -1.427360e+02  3.809780e+01  8.855500e+01
     vertex -1.427227e+02  3.807543e+01  8.855500e+01
   endloop
 endfacet
 facet normal  0.000000e+00  0.000000e+00 -1.000000e+00
   outer loop
     vertex -1.427525e+02  3.811788e+01  8.855500e+01
     vertex -1.427938e+02  3.814935e+01  8.855500e+01
     vertex -1.427719e+02  3.813520e+01  8.855500e+01
   endloop
 endfacet
 facet normal  0.000000e+00  0.000000e+00 -1.000000e+00
   outer loop
     vertex -1.427525e+02  3.811788e+01  8.855500e+01
     vertex -1.428175e+02  3.815999e+01  8.855500e+01
     vertex -1.427938e+02  3.814935e+01  8.855500e+01
   endloop
 endfacet
 facet normal  0.000000e+00 -0.000000e+00 -1.000000e+00
   outer loop
     vertex -1.427525e+02  3.811788e+01  8.855500e+01
     vertex -1.427227e+02  3.807543e+01  8.855500e+01
     vertex -1.430445e+02  3.798699e+01  8.855500e+01
   endloop
 endfacet
 facet normal  0.000000e+00  0.000000e+00 -1.000000e+00
   outer loop
     vertex -1.427525e+02  3.811788e+01  8.855500e+01
     vertex -1.428426e+02  3.816689e+01  8.855500e+01
     vertex -1.428175e+02  3.815999e+01  8.855500e+01
   endloop
 endfacet
 facet normal  0.000000e+00  0.000000e+00 -1.000000e+00
   outer loop
     vertex -1.427525e+02  3.811788e+01  8.855500e+01
     vertex -1.428685e+02  3.816988e+01  8.855500e+01
     vertex -1.428426e+02  3.816689e+01  8.855500e+01
   endloop
 endfacet
 facet normal  0.000000e+00  0.000000e+00 -1.000000e+00
   outer loop
     vertex -1.427525e+02  3.811788e+01  8.855500e+01
     vertex -1.428945e+02  3.816888e+01  8.855500e+01
     vertex -1.428685e+02  3.816988e+01  8.855500e+01
   endloop
 endfacet
 facet normal  0.000000e+00  0.000000e+00 -1.000000e+00
   outer loop
     vertex -1.427525e+02  3.811788e+01  8.855500e+01
     vertex -1.429200e+02  3.816392e+01  8.855500e+01
     vertex -1.428945e+02  3.816888e+01  8.855500e+01
   endloop
 endfacet
 facet normal  0.000000e+00  0.000000e+00 -1.000000e+00
   outer loop
     vertex -1.427525e+02  3.811788e+01  8.855500e+01
     vertex -1.429445e+02  3.815513e+01  8.855500e+01
     vertex -1.429200e+02  3.816392e+01  8.855500e+01
   endloop
 endfacet
 facet normal  0.000000e+00  0.000000e+00 -1.000000e+00
   outer loop
     vertex -1.427525e+02  3.811788e+01  8.855500e+01
     vertex -1.429674e+02  3.814269e+01  8.855500e+01
     vertex -1.429445e+02  3.815513e+01  8.855500e+01
   endloop
 endfacet
 facet normal  0.000000e+00  0.000000e+00 -1.000000e+00
   outer loop
     vertex -1.427525e+02  3.811788e+01  8.855500e+01
     vertex -1.429881e+02  3.812691e+01  8.855500e+01
     vertex -1.429674e+02  3.814269e+01  8.855500e+01
   endloop
 endfacet
 facet normal -0.000000e+00  0.000000e+00 -1.000000e+00
   outer loop
     vertex -1.427525e+02  3.811788e+01  8.855500e+01
     vertex -1.430062e+02  3.810816e+01  8.855500e+01
     vertex -1.429881e+02  3.812691e+01  8.855500e+01
   endloop
 endfacet
 facet normal  0.000000e+00  0.000000e+00 -1.000000e+00
   outer loop
     vertex -1.427525e+02  3.811788e+01  8.855500e+01
     vertex -1.430211e+02  3.808687e+01  8.855500e+01
     vertex -1.430062e+02  3.810816e+01  8.855500e+01
   endloop
 endfacet
 facet normal  0.000000e+00  0.000000e+00 -1.000000e+00
   outer loop
     vertex -1.427525e+02  3.811788e+01  8.855500e+01
     vertex -1.430327e+02  3.806355e+01  8.855500e+01
     vertex -1.430211e+02  3.808687e+01  8.855500e+01
   endloop
 endfacet
 facet normal  0.000000e+00  0.000000e+00 -1.000000e+00
   outer loop
     vertex -1.427525e+02  3.811788e+01  8.855500e+01
     vertex -1.430405e+02  3.803874e+01  8.855500e+01
     vertex -1.430327e+02  3.806355e+01  8.855500e+01
   endloop
 endfacet
 facet normal  0.000000e+00  0.000000e+00 -1.000000e+00
   outer loop
     vertex -1.427525e+02  3.811788e+01  8.855500e+01
     vertex -1.430445e+02  3.801301e+01  8.855500e+01
     vertex -1.430405e+02  3.803874e+01  8.855500e+01
   endloop
 endfacet
 facet normal  0.000000e+00  0.000000e+00 -1.000000e+00
   outer loop
     vertex -1.427525e+02  3.811788e+01  8.855500e+01
     vertex -1.430445e+02  3.798699e+01  8.855500e+01
     vertex -1.430445e+02  3.801301e+01  8.855500e+01
   endloop
 endfacet
endsolid
