solid 
 facet normal  0.000000e+00  0.000000e+00 -1.000000e+00
   outer loop
     vertex  0.000000e+00  6.650000e-01  0.000000e+00
     vertex  1.000000e+00  0.000000e+00  0.000000e+00
     vertex  0.000000e+00  0.000000e+00  0.000000e+00
   endloop
 endfacet
 facet normal  0.000000e+00  0.000000e+00 -1.000000e+00
   outer loop
     vertex  0.000000e+00  6.650000e-01  0.000000e+00
     vertex  1.000000e+00  6.650000e-01  0.000000e+00
     vertex  1.000000e+00  0.000000e+00  0.000000e+00
   endloop
 endfacet
 facet normal  0.000000e+00  1.000000e+00  0.000000e+00
   outer loop
     vertex  0.000000e+00  6.650000e-01  8.350000e-01
     vertex  1.000000e+00  6.650000e-01  0.000000e+00
     vertex  0.000000e+00  6.650000e-01  0.000000e+00
   endloop
 endfacet
 facet normal -0.000000e+00  1.000000e+00  0.000000e+00
   outer loop
     vertex  0.000000e+00  6.650000e-01  8.350000e-01
     vertex  1.000000e+00  6.650000e-01  8.350000e-01
     vertex  1.000000e+00  6.650000e-01  0.000000e+00
   endloop
 endfacet
 facet normal  0.000000e+00  0.000000e+00  1.000000e+00
   outer loop
     vertex  0.000000e+00  0.000000e+00  8.350000e-01
     vertex  1.000000e+00  6.650000e-01  8.350000e-01
     vertex  0.000000e+00  6.650000e-01  8.350000e-01
   endloop
 endfacet
 facet normal  0.000000e+00  0.000000e+00  1.000000e+00
   outer loop
     vertex  0.000000e+00  0.000000e+00  8.350000e-01
     vertex  1.000000e+00  0.000000e+00  8.350000e-01
     vertex  1.000000e+00  6.650000e-01  8.350000e-01
   endloop
 endfacet
 facet normal  0.000000e+00 -1.000000e+00  0.000000e+00
   outer loop
     vertex  0.000000e+00  0.000000e+00  8.350000e-01
     vertex  0.000000e+00  0.000000e+00  0.000000e+00
     vertex  1.000000e+00  0.000000e+00  0.000000e+00
   endloop
 endfacet
 facet normal  0.000000e+00 -1.000000e+00  0.000000e+00
   outer loop
     vertex  0.000000e+00  0.000000e+00  8.350000e-01
     vertex  1.000000e+00  0.000000e+00  0.000000e+00
     vertex  1.000000e+00  0.000000e+00  8.350000e-01
   endloop
 endfacet
 facet normal -1.000000e+00  0.000000e+00 -0.000000e+00
   outer loop
     vertex  0.000000e+00  6.650000e-01  8.350000e-01
     vertex  0.000000e+00  6.650000e-01  0.000000e+00
     vertex  0.000000e+00  0.000000e+00  0.000000e+00
   endloop
 endfacet
 facet normal -1.000000e+00 -0.000000e+00  0.000000e+00
   outer loop
     vertex  0.000000e+00  6.650000e-01  8.350000e-01
     vertex  0.000000e+00  0.000000e+00  0.000000e+00
     vertex  0.000000e+00  0.000000e+00  8.350000e-01
   endloop
 endfacet
 facet normal  1.000000e+00  0.000000e+00  0.000000e+00
   outer loop
     vertex  1.000000e+00  6.650000e-01  8.350000e-01
     vertex  1.000000e+00  0.000000e+00  0.000000e+00
     vertex  1.000000e+00  6.650000e-01  0.000000e+00
   endloop
 endfacet
 facet normal  1.000000e+00  0.000000e+00  0.000000e+00
   outer loop
     vertex  1.000000e+00  6.650000e-01  8.350000e-01
     vertex  1.000000e+00  0.000000e+00  8.350000e-01
     vertex  1.000000e+00  0.000000e+00  0.000000e+00
   endloop
 endfacet
 facet normal  0.000000e+00  0.000000e+00  1.000000e+00
   outer loop
     vertex  6.733500e+01  6.716500e+01  1.174150e+02
     vertex  6.666500e+01  6.716500e+01  1.174150e+02
     vertex  6.666500e+01  6.700000e+01  1.174150e+02
   endloop
 endfacet
 facet normal  0.000000e+00 -0.000000e+00  1.000000e+00
   outer loop
     vertex  6.733500e+01  6.700000e+01  1.174150e+02
     vertex  6.733500e+01  6.716500e+01  1.174150e+02
     vertex  6.666500e+01  6.700000e+01  1.174150e+02
   endloop
 endfacet
 facet normal  1.000000e+00  0.000000e+00 -0.000000e+00
   outer loop
     vertex  6.733500e+01  6.716500e+01  1.171650e+02
     vertex  6.733500e+01  6.716500e+01  1.174150e+02
     vertex  6.733500e+01  6.700000e+01  1.174150e+02
   endloop
 endfacet
 facet normal  1.000000e+00  0.000000e+00  0.000000e+00
   outer loop
     vertex  6.733500e+01  6.700000e+01  1.171650e+02
     vertex  6.733500e+01  6.716500e+01  1.171650e+02
     vertex  6.733500e+01  6.700000e+01  1.174150e+02
   endloop
 endfacet
 facet normal -0.000000e+00  0.000000e+00 -1.000000e+00
   outer loop
     vertex  6.733500e+01  6.716500e+01  1.171650e+02
     vertex  6.666500e+01  6.700000e+01  1.171650e+02
     vertex  6.666500e+01  6.716500e+01  1.171650e+02
   endloop
 endfacet
 facet normal  0.000000e+00  0.000000e+00 -1.000000e+00
   outer loop
     vertex  6.733500e+01  6.700000e+01  1.171650e+02
     vertex  6.666500e+01  6.700000e+01  1.171650e+02
     vertex  6.733500e+01  6.716500e+01  1.171650e+02
   endloop
 endfacet
 facet normal -1.000000e+00  0.000000e+00  0.000000e+00
   outer loop
     vertex  6.666500e+01  6.716500e+01  1.171650e+02
     vertex  6.666500e+01  6.700000e+01  1.174150e+02
     vertex  6.666500e+01  6.716500e+01  1.174150e+02
   endloop
 endfacet
 facet normal -1.000000e+00  0.000000e+00  0.000000e+00
   outer loop
     vertex  6.666500e+01  6.700000e+01  1.171650e+02
     vertex  6.666500e+01  6.700000e+01  1.174150e+02
     vertex  6.666500e+01  6.716500e+01  1.171650e+02
   endloop
 endfacet
 facet normal -0.000000e+00 -1.000000e+00  0.000000e+00
   outer loop
     vertex  6.733500e+01  6.700000e+01  1.174150e+02
     vertex  6.666500e+01  6.700000e+01  1.174150e+02
     vertex  6.666500e+01  6.700000e+01  1.171650e+02
   endloop
 endfacet
 facet normal  0.000000e+00 -1.000000e+00 -0.000000e+00
   outer loop
     vertex  6.733500e+01  6.700000e+01  1.174150e+02
     vertex  6.666500e+01  6.700000e+01  1.171650e+02
     vertex  6.733500e+01  6.700000e+01  1.171650e+02
   endloop
 endfacet
 facet normal  0.000000e+00  1.000000e+00  0.000000e+00
   outer loop
     vertex  6.733500e+01  6.716500e+01  1.174150e+02
     vertex  6.666500e+01  6.716500e+01  1.171650e+02
     vertex  6.666500e+01  6.716500e+01  1.174150e+02
   endloop
 endfacet
 facet normal  0.000000e+00  1.000000e+00  0.000000e+00
   outer loop
     vertex  6.733500e+01  6.716500e+01  1.174150e+02
     vertex  6.733500e+01  6.716500e+01  1.171650e+02
     vertex  6.666500e+01  6.716500e+01  1.171650e+02
   endloop
 endfacet
endsolid
