solid 
 facet normal  9.945219e-01  1.045285e-01  0.000000e+00
   outer loop
     vertex  8.803328e-02  1.871205e-02  0.000000e+00
     vertex  9.000000e-02  0.000000e+00  1.000000e+00
     vertex  9.000000e-02  0.000000e+00  0.000000e+00
   endloop
 endfacet
 facet normal  9.945219e-01  1.045285e-01 -0.000000e+00
   outer loop
     vertex  8.803328e-02  1.871205e-02  0.000000e+00
     vertex  8.803328e-02  1.871205e-02  1.000000e+00
     vertex  9.000000e-02  0.000000e+00  1.000000e+00
   endloop
 endfacet
 facet normal  9.510565e-01  3.090170e-01 -0.000000e+00
   outer loop
     vertex  8.221909e-02  3.660630e-02  0.000000e+00
     vertex  8.221909e-02  3.660630e-02  1.000000e+00
     vertex  8.803328e-02  1.871205e-02  1.000000e+00
   endloop
 endfacet
 facet normal  9.510565e-01  3.090170e-01  0.000000e+00
   outer loop
     vertex  8.221909e-02  3.660630e-02  0.000000e+00
     vertex  8.803328e-02  1.871205e-02  1.000000e+00
     vertex  8.803328e-02  1.871205e-02  0.000000e+00
   endloop
 endfacet
 facet normal  8.660254e-01  5.000000e-01 -0.000000e+00
   outer loop
     vertex  7.281153e-02  5.290067e-02  0.000000e+00
     vertex  7.281153e-02  5.290067e-02  1.000000e+00
     vertex  8.221909e-02  3.660630e-02  1.000000e+00
   endloop
 endfacet
 facet normal  8.660254e-01  5.000000e-01  0.000000e+00
   outer loop
     vertex  7.281153e-02  5.290067e-02  0.000000e+00
     vertex  8.221909e-02  3.660630e-02  1.000000e+00
     vertex  8.221909e-02  3.660630e-02  0.000000e+00
   endloop
 endfacet
 facet normal  7.431448e-01  6.691306e-01 -0.000000e+00
   outer loop
     vertex  6.022175e-02  6.688303e-02  0.000000e+00
     vertex  6.022175e-02  6.688303e-02  1.000000e+00
     vertex  7.281153e-02  5.290067e-02  1.000000e+00
   endloop
 endfacet
 facet normal  5.877853e-01  8.090170e-01 -0.000000e+00
   outer loop
     vertex  6.022175e-02  6.688303e-02  0.000000e+00
     vertex  4.500000e-02  7.794229e-02  1.000000e+00
     vertex  6.022175e-02  6.688303e-02  1.000000e+00
   endloop
 endfacet
 facet normal  7.431448e-01  6.691306e-01  0.000000e+00
   outer loop
     vertex  6.022175e-02  6.688303e-02  0.000000e+00
     vertex  7.281153e-02  5.290067e-02  1.000000e+00
     vertex  7.281153e-02  5.290067e-02  0.000000e+00
   endloop
 endfacet
 facet normal  5.877853e-01  8.090170e-01 -0.000000e+00
   outer loop
     vertex  4.500000e-02  7.794229e-02  0.000000e+00
     vertex  4.500000e-02  7.794229e-02  1.000000e+00
     vertex  6.022175e-02  6.688303e-02  0.000000e+00
   endloop
 endfacet
 facet normal  4.067366e-01  9.135455e-01 -0.000000e+00
   outer loop
     vertex  2.781153e-02  8.559509e-02  0.000000e+00
     vertex  2.781153e-02  8.559509e-02  1.000000e+00
     vertex  4.500000e-02  7.794229e-02  1.000000e+00
   endloop
 endfacet
 facet normal  4.067366e-01  9.135455e-01  0.000000e+00
   outer loop
     vertex  2.781153e-02  8.559509e-02  0.000000e+00
     vertex  4.500000e-02  7.794229e-02  1.000000e+00
     vertex  4.500000e-02  7.794229e-02  0.000000e+00
   endloop
 endfacet
 facet normal  2.079117e-01  9.781476e-01 -0.000000e+00
   outer loop
     vertex  9.407562e-03  8.950697e-02  0.000000e+00
     vertex  9.407562e-03  8.950697e-02  1.000000e+00
     vertex  2.781153e-02  8.559509e-02  1.000000e+00
   endloop
 endfacet
 facet normal  2.079117e-01  9.781476e-01  0.000000e+00
   outer loop
     vertex  9.407562e-03  8.950697e-02  0.000000e+00
     vertex  2.781153e-02  8.559509e-02  1.000000e+00
     vertex  2.781153e-02  8.559509e-02  0.000000e+00
   endloop
 endfacet
 facet normal  0.000000e+00  1.000000e+00  0.000000e+00
   outer loop
     vertex -9.407562e-03  8.950697e-02  0.000000e+00
     vertex -9.407562e-03  8.950697e-02  1.000000e+00
     vertex  9.407562e-03  8.950697e-02  1.000000e+00
   endloop
 endfacet
 facet normal  0.000000e+00  1.000000e+00  0.000000e+00
   outer loop
     vertex -9.407562e-03  8.950697e-02  0.000000e+00
     vertex  9.407562e-03  8.950697e-02  1.000000e+00
     vertex  9.407562e-03  8.950697e-02  0.000000e+00
   endloop
 endfacet
 facet normal -2.079117e-01  9.781476e-01  0.000000e+00
   outer loop
     vertex -2.781153e-02  8.559509e-02  0.000000e+00
     vertex -9.407562e-03  8.950697e-02  1.000000e+00
     vertex -9.407562e-03  8.950697e-02  0.000000e+00
   endloop
 endfacet
 facet normal -2.079117e-01  9.781476e-01  0.000000e+00
   outer loop
     vertex -2.781153e-02  8.559509e-02  0.000000e+00
     vertex -2.781153e-02  8.559509e-02  1.000000e+00
     vertex -9.407562e-03  8.950697e-02  1.000000e+00
   endloop
 endfacet
 facet normal -4.067366e-01  9.135455e-01  0.000000e+00
   outer loop
     vertex -4.500000e-02  7.794229e-02  0.000000e+00
     vertex -2.781153e-02  8.559509e-02  1.000000e+00
     vertex -2.781153e-02  8.559509e-02  0.000000e+00
   endloop
 endfacet
 facet normal -4.067366e-01  9.135455e-01  0.000000e+00
   outer loop
     vertex -4.500000e-02  7.794229e-02  0.000000e+00
     vertex -4.500000e-02  7.794229e-02  1.000000e+00
     vertex -2.781153e-02  8.559509e-02  1.000000e+00
   endloop
 endfacet
 facet normal -5.877853e-01  8.090170e-01  0.000000e+00
   outer loop
     vertex -6.022175e-02  6.688303e-02  0.000000e+00
     vertex -4.500000e-02  7.794229e-02  1.000000e+00
     vertex -4.500000e-02  7.794229e-02  0.000000e+00
   endloop
 endfacet
 facet normal -5.877853e-01  8.090170e-01  0.000000e+00
   outer loop
     vertex -6.022175e-02  6.688303e-02  0.000000e+00
     vertex -6.022175e-02  6.688303e-02  1.000000e+00
     vertex -4.500000e-02  7.794229e-02  1.000000e+00
   endloop
 endfacet
 facet normal -7.431448e-01  6.691306e-01  0.000000e+00
   outer loop
     vertex -7.281153e-02  5.290067e-02  0.000000e+00
     vertex -7.281153e-02  5.290067e-02  1.000000e+00
     vertex -6.022175e-02  6.688303e-02  1.000000e+00
   endloop
 endfacet
 facet normal -8.660254e-01  5.000000e-01  0.000000e+00
   outer loop
     vertex -7.281153e-02  5.290067e-02  0.000000e+00
     vertex -8.221909e-02  3.660630e-02  1.000000e+00
     vertex -7.281153e-02  5.290067e-02  1.000000e+00
   endloop
 endfacet
 facet normal -7.431448e-01  6.691306e-01  0.000000e+00
   outer loop
     vertex -7.281153e-02  5.290067e-02  0.000000e+00
     vertex -6.022175e-02  6.688303e-02  1.000000e+00
     vertex -6.022175e-02  6.688303e-02  0.000000e+00
   endloop
 endfacet
 facet normal -8.660254e-01  5.000000e-01  0.000000e+00
   outer loop
     vertex -8.221909e-02  3.660630e-02  0.000000e+00
     vertex -8.221909e-02  3.660630e-02  1.000000e+00
     vertex -7.281153e-02  5.290067e-02  0.000000e+00
   endloop
 endfacet
 facet normal -9.510565e-01  3.090170e-01  0.000000e+00
   outer loop
     vertex -8.803328e-02  1.871205e-02  0.000000e+00
     vertex -8.803328e-02  1.871205e-02  1.000000e+00
     vertex -8.221909e-02  3.660630e-02  1.000000e+00
   endloop
 endfacet
 facet normal -9.510565e-01  3.090170e-01  0.000000e+00
   outer loop
     vertex -8.803328e-02  1.871205e-02  0.000000e+00
     vertex -8.221909e-02  3.660630e-02  1.000000e+00
     vertex -8.221909e-02  3.660630e-02  0.000000e+00
   endloop
 endfacet
 facet normal -9.945219e-01  1.045285e-01  0.000000e+00
   outer loop
     vertex -9.000000e-02  5.098985e-17  0.000000e+00
     vertex -9.000000e-02  5.098985e-17  1.000000e+00
     vertex -8.803328e-02  1.871205e-02  1.000000e+00
   endloop
 endfacet
 facet normal -9.945219e-01  1.045285e-01  0.000000e+00
   outer loop
     vertex -9.000000e-02  5.098985e-17  0.000000e+00
     vertex -8.803328e-02  1.871205e-02  1.000000e+00
     vertex -8.803328e-02  1.871205e-02  0.000000e+00
   endloop
 endfacet
 facet normal -9.945219e-01 -1.045285e-01  0.000000e+00
   outer loop
     vertex -8.803328e-02 -1.871205e-02  0.000000e+00
     vertex -8.803328e-02 -1.871205e-02  1.000000e+00
     vertex -9.000000e-02  5.098985e-17  1.000000e+00
   endloop
 endfacet
 facet normal -9.945219e-01 -1.045285e-01  0.000000e+00
   outer loop
     vertex -8.803328e-02 -1.871205e-02  0.000000e+00
     vertex -9.000000e-02  5.098985e-17  1.000000e+00
     vertex -9.000000e-02  5.098985e-17  0.000000e+00
   endloop
 endfacet
 facet normal -9.510565e-01 -3.090170e-01  0.000000e+00
   outer loop
     vertex -8.221909e-02 -3.660630e-02  0.000000e+00
     vertex -8.221909e-02 -3.660630e-02  1.000000e+00
     vertex -8.803328e-02 -1.871205e-02  1.000000e+00
   endloop
 endfacet
 facet normal -9.510565e-01 -3.090170e-01  0.000000e+00
   outer loop
     vertex -8.221909e-02 -3.660630e-02  0.000000e+00
     vertex -8.803328e-02 -1.871205e-02  1.000000e+00
     vertex -8.803328e-02 -1.871205e-02  0.000000e+00
   endloop
 endfacet
 facet normal -8.660254e-01 -5.000000e-01  0.000000e+00
   outer loop
     vertex -7.281153e-02 -5.290067e-02  0.000000e+00
     vertex -7.281153e-02 -5.290067e-02  1.000000e+00
     vertex -8.221909e-02 -3.660630e-02  1.000000e+00
   endloop
 endfacet
 facet normal -7.431448e-01 -6.691306e-01  0.000000e+00
   outer loop
     vertex -7.281153e-02 -5.290067e-02  0.000000e+00
     vertex -6.022175e-02 -6.688303e-02  1.000000e+00
     vertex -7.281153e-02 -5.290067e-02  1.000000e+00
   endloop
 endfacet
 facet normal -8.660254e-01 -5.000000e-01  0.000000e+00
   outer loop
     vertex -7.281153e-02 -5.290067e-02  0.000000e+00
     vertex -8.221909e-02 -3.660630e-02  1.000000e+00
     vertex -8.221909e-02 -3.660630e-02  0.000000e+00
   endloop
 endfacet
 facet normal -7.431448e-01 -6.691306e-01  0.000000e+00
   outer loop
     vertex -6.022175e-02 -6.688303e-02  0.000000e+00
     vertex -6.022175e-02 -6.688303e-02  1.000000e+00
     vertex -7.281153e-02 -5.290067e-02  0.000000e+00
   endloop
 endfacet
 facet normal -5.877853e-01 -8.090170e-01  0.000000e+00
   outer loop
     vertex -4.500000e-02 -7.794229e-02  0.000000e+00
     vertex -4.500000e-02 -7.794229e-02  1.000000e+00
     vertex -6.022175e-02 -6.688303e-02  1.000000e+00
   endloop
 endfacet
 facet normal -5.877853e-01 -8.090170e-01  0.000000e+00
   outer loop
     vertex -4.500000e-02 -7.794229e-02  0.000000e+00
     vertex -6.022175e-02 -6.688303e-02  1.000000e+00
     vertex -6.022175e-02 -6.688303e-02  0.000000e+00
   endloop
 endfacet
 facet normal -4.067366e-01 -9.135455e-01  0.000000e+00
   outer loop
     vertex -2.781153e-02 -8.559509e-02  0.000000e+00
     vertex -2.781153e-02 -8.559509e-02  1.000000e+00
     vertex -4.500000e-02 -7.794229e-02  1.000000e+00
   endloop
 endfacet
 facet normal -2.079117e-01 -9.781476e-01  0.000000e+00
   outer loop
     vertex -2.781153e-02 -8.559509e-02  0.000000e+00
     vertex -9.407562e-03 -8.950697e-02  1.000000e+00
     vertex -2.781153e-02 -8.559509e-02  1.000000e+00
   endloop
 endfacet
 facet normal -4.067366e-01 -9.135455e-01  0.000000e+00
   outer loop
     vertex -2.781153e-02 -8.559509e-02  0.000000e+00
     vertex -4.500000e-02 -7.794229e-02  1.000000e+00
     vertex -4.500000e-02 -7.794229e-02  0.000000e+00
   endloop
 endfacet
 facet normal -2.079117e-01 -9.781476e-01  0.000000e+00
   outer loop
     vertex -9.407562e-03 -8.950697e-02  0.000000e+00
     vertex -9.407562e-03 -8.950697e-02  1.000000e+00
     vertex -2.781153e-02 -8.559509e-02  0.000000e+00
   endloop
 endfacet
 facet normal -7.375869e-16 -1.000000e+00  0.000000e+00
   outer loop
     vertex  9.407562e-03 -8.950697e-02  0.000000e+00
     vertex  9.407562e-03 -8.950697e-02  1.000000e+00
     vertex -9.407562e-03 -8.950697e-02  1.000000e+00
   endloop
 endfacet
 facet normal  2.079117e-01 -9.781476e-01  0.000000e+00
   outer loop
     vertex  9.407562e-03 -8.950697e-02  0.000000e+00
     vertex  2.781153e-02 -8.559509e-02  1.000000e+00
     vertex  9.407562e-03 -8.950697e-02  1.000000e+00
   endloop
 endfacet
 facet normal -7.375869e-16 -1.000000e+00  0.000000e+00
   outer loop
     vertex  9.407562e-03 -8.950697e-02  0.000000e+00
     vertex -9.407562e-03 -8.950697e-02  1.000000e+00
     vertex -9.407562e-03 -8.950697e-02  0.000000e+00
   endloop
 endfacet
 facet normal  2.079117e-01 -9.781476e-01  0.000000e+00
   outer loop
     vertex  2.781153e-02 -8.559509e-02  0.000000e+00
     vertex  2.781153e-02 -8.559509e-02  1.000000e+00
     vertex  9.407562e-03 -8.950697e-02  0.000000e+00
   endloop
 endfacet
 facet normal  4.067366e-01 -9.135455e-01  0.000000e+00
   outer loop
     vertex  4.500000e-02 -7.794229e-02  0.000000e+00
     vertex  4.500000e-02 -7.794229e-02  1.000000e+00
     vertex  2.781153e-02 -8.559509e-02  1.000000e+00
   endloop
 endfacet
 facet normal  4.067366e-01 -9.135455e-01  0.000000e+00
   outer loop
     vertex  4.500000e-02 -7.794229e-02  0.000000e+00
     vertex  2.781153e-02 -8.559509e-02  1.000000e+00
     vertex  2.781153e-02 -8.559509e-02  0.000000e+00
   endloop
 endfacet
 facet normal  5.877853e-01 -8.090170e-01  0.000000e+00
   outer loop
     vertex  6.022175e-02 -6.688303e-02  0.000000e+00
     vertex  6.022175e-02 -6.688303e-02  1.000000e+00
     vertex  4.500000e-02 -7.794229e-02  1.000000e+00
   endloop
 endfacet
 facet normal  5.877853e-01 -8.090170e-01  0.000000e+00
   outer loop
     vertex  6.022175e-02 -6.688303e-02  0.000000e+00
     vertex  4.500000e-02 -7.794229e-02  1.000000e+00
     vertex  4.500000e-02 -7.794229e-02  0.000000e+00
   endloop
 endfacet
 facet normal  7.431448e-01 -6.691306e-01  0.000000e+00
   outer loop
     vertex  7.281153e-02 -5.290067e-02  0.000000e+00
     vertex  7.281153e-02 -5.290067e-02  1.000000e+00
     vertex  6.022175e-02 -6.688303e-02  1.000000e+00
   endloop
 endfacet
 facet normal  7.431448e-01 -6.691306e-01  0.000000e+00
   outer loop
     vertex  7.281153e-02 -5.290067e-02  0.000000e+00
     vertex  6.022175e-02 -6.688303e-02  1.000000e+00
     vertex  6.022175e-02 -6.688303e-02  0.000000e+00
   endloop
 endfacet
 facet normal  8.660254e-01 -5.000000e-01  0.000000e+00
   outer loop
     vertex  8.221909e-02 -3.660630e-02  0.000000e+00
     vertex  8.221909e-02 -3.660630e-02  1.000000e+00
     vertex  7.281153e-02 -5.290067e-02  1.000000e+00
   endloop
 endfacet
 facet normal  9.510565e-01 -3.090170e-01  0.000000e+00
   outer loop
     vertex  8.221909e-02 -3.660630e-02  0.000000e+00
     vertex  8.803328e-02 -1.871205e-02  1.000000e+00
     vertex  8.221909e-02 -3.660630e-02  1.000000e+00
   endloop
 endfacet
 facet normal  8.660254e-01 -5.000000e-01  0.000000e+00
   outer loop
     vertex  8.221909e-02 -3.660630e-02  0.000000e+00
     vertex  7.281153e-02 -5.290067e-02  1.000000e+00
     vertex  7.281153e-02 -5.290067e-02  0.000000e+00
   endloop
 endfacet
 facet normal  9.510565e-01 -3.090170e-01  0.000000e+00
   outer loop
     vertex  8.803328e-02 -1.871205e-02  0.000000e+00
     vertex  8.803328e-02 -1.871205e-02  1.000000e+00
     vertex  8.221909e-02 -3.660630e-02  0.000000e+00
   endloop
 endfacet
 facet normal  9.945219e-01 -1.045285e-01  0.000000e+00
   outer loop
     vertex  9.000000e-02  0.000000e+00  0.000000e+00
     vertex  9.000000e-02  0.000000e+00  1.000000e+00
     vertex  8.803328e-02 -1.871205e-02  1.000000e+00
   endloop
 endfacet
 facet normal  9.945219e-01 -1.045285e-01  0.000000e+00
   outer loop
     vertex  9.000000e-02  0.000000e+00  0.000000e+00
     vertex  8.803328e-02 -1.871205e-02  1.000000e+00
     vertex  8.803328e-02 -1.871205e-02  0.000000e+00
   endloop
 endfacet
 facet normal  0.000000e+00  0.000000e+00 -1.000000e+00
   outer loop
     vertex  6.022175e-02  6.688303e-02  0.000000e+00
     vertex  8.803328e-02  1.871205e-02  0.000000e+00
     vertex  9.000000e-02  0.000000e+00  0.000000e+00
   endloop
 endfacet
 facet normal  0.000000e+00  0.000000e+00 -1.000000e+00
   outer loop
     vertex  6.022175e-02  6.688303e-02  0.000000e+00
     vertex  8.221909e-02  3.660630e-02  0.000000e+00
     vertex  8.803328e-02  1.871205e-02  0.000000e+00
   endloop
 endfacet
 facet normal  0.000000e+00  0.000000e+00 -1.000000e+00
   outer loop
     vertex  6.022175e-02  6.688303e-02  0.000000e+00
     vertex  7.281153e-02  5.290067e-02  0.000000e+00
     vertex  8.221909e-02  3.660630e-02  0.000000e+00
   endloop
 endfacet
 facet normal  0.000000e+00  0.000000e+00 -1.000000e+00
   outer loop
     vertex  6.022175e-02  6.688303e-02  0.000000e+00
     vertex  2.781153e-02  8.559509e-02  0.000000e+00
     vertex  4.500000e-02  7.794229e-02  0.000000e+00
   endloop
 endfacet
 facet normal  0.000000e+00  0.000000e+00 -1.000000e+00
   outer loop
     vertex  6.022175e-02  6.688303e-02  0.000000e+00
     vertex  9.407562e-03  8.950697e-02  0.000000e+00
     vertex  2.781153e-02  8.559509e-02  0.000000e+00
   endloop
 endfacet
 facet normal  0.000000e+00  0.000000e+00 -1.000000e+00
   outer loop
     vertex  6.022175e-02  6.688303e-02  0.000000e+00
     vertex -9.407562e-03  8.950697e-02  0.000000e+00
     vertex  9.407562e-03  8.950697e-02  0.000000e+00
   endloop
 endfacet
 facet normal  0.000000e+00  0.000000e+00 -1.000000e+00
   outer loop
     vertex  6.022175e-02  6.688303e-02  0.000000e+00
     vertex -2.781153e-02  8.559509e-02  0.000000e+00
     vertex -9.407562e-03  8.950697e-02  0.000000e+00
   endloop
 endfacet
 facet normal  0.000000e+00  0.000000e+00 -1.000000e+00
   outer loop
     vertex  6.022175e-02  6.688303e-02  0.000000e+00
     vertex -4.500000e-02  7.794229e-02  0.000000e+00
     vertex -2.781153e-02  8.559509e-02  0.000000e+00
   endloop
 endfacet
 facet normal  0.000000e+00  0.000000e+00 -1.000000e+00
   outer loop
     vertex  6.022175e-02  6.688303e-02  0.000000e+00
     vertex -6.022175e-02  6.688303e-02  0.000000e+00
     vertex -4.500000e-02  7.794229e-02  0.000000e+00
   endloop
 endfacet
 facet normal -0.000000e+00  0.000000e+00 -1.000000e+00
   outer loop
     vertex  6.022175e-02  6.688303e-02  0.000000e+00
     vertex -7.281153e-02  5.290067e-02  0.000000e+00
     vertex -6.022175e-02  6.688303e-02  0.000000e+00
   endloop
 endfacet
 facet normal  0.000000e+00  0.000000e+00 -1.000000e+00
   outer loop
     vertex  6.022175e-02  6.688303e-02  0.000000e+00
     vertex -8.221909e-02  3.660630e-02  0.000000e+00
     vertex -7.281153e-02  5.290067e-02  0.000000e+00
   endloop
 endfacet
 facet normal  0.000000e+00  0.000000e+00 -1.000000e+00
   outer loop
     vertex  6.022175e-02  6.688303e-02  0.000000e+00
     vertex -8.803328e-02  1.871205e-02  0.000000e+00
     vertex -8.221909e-02  3.660630e-02  0.000000e+00
   endloop
 endfacet
 facet normal  0.000000e+00  0.000000e+00 -1.000000e+00
   outer loop
     vertex  6.022175e-02  6.688303e-02  0.000000e+00
     vertex -9.000000e-02  5.098985e-17  0.000000e+00
     vertex -8.803328e-02  1.871205e-02  0.000000e+00
   endloop
 endfacet
 facet normal  0.000000e+00  0.000000e+00 -1.000000e+00
   outer loop
     vertex  6.022175e-02  6.688303e-02  0.000000e+00
     vertex -8.803328e-02 -1.871205e-02  0.000000e+00
     vertex -9.000000e-02  5.098985e-17  0.000000e+00
   endloop
 endfacet
 facet normal  0.000000e+00  0.000000e+00 -1.000000e+00
   outer loop
     vertex  6.022175e-02  6.688303e-02  0.000000e+00
     vertex -8.221909e-02 -3.660630e-02  0.000000e+00
     vertex -8.803328e-02 -1.871205e-02  0.000000e+00
   endloop
 endfacet
 facet normal  0.000000e+00  0.000000e+00 -1.000000e+00
   outer loop
     vertex  6.022175e-02  6.688303e-02  0.000000e+00
     vertex -7.281153e-02 -5.290067e-02  0.000000e+00
     vertex -8.221909e-02 -3.660630e-02  0.000000e+00
   endloop
 endfacet
 facet normal  0.000000e+00  0.000000e+00 -1.000000e+00
   outer loop
     vertex  6.022175e-02  6.688303e-02  0.000000e+00
     vertex -6.022175e-02 -6.688303e-02  0.000000e+00
     vertex -7.281153e-02 -5.290067e-02  0.000000e+00
   endloop
 endfacet
 facet normal  0.000000e+00  0.000000e+00 -1.000000e+00
   outer loop
     vertex  6.022175e-02  6.688303e-02  0.000000e+00
     vertex -4.500000e-02 -7.794229e-02  0.000000e+00
     vertex -6.022175e-02 -6.688303e-02  0.000000e+00
   endloop
 endfacet
 facet normal  0.000000e+00  0.000000e+00 -1.000000e+00
   outer loop
     vertex  6.022175e-02  6.688303e-02  0.000000e+00
     vertex -2.781153e-02 -8.559509e-02  0.000000e+00
     vertex -4.500000e-02 -7.794229e-02  0.000000e+00
   endloop
 endfacet
 facet normal  0.000000e+00  0.000000e+00 -1.000000e+00
   outer loop
     vertex  6.022175e-02  6.688303e-02  0.000000e+00
     vertex -9.407562e-03 -8.950697e-02  0.000000e+00
     vertex -2.781153e-02 -8.559509e-02  0.000000e+00
   endloop
 endfacet
 facet normal  0.000000e+00  0.000000e+00 -1.000000e+00
   outer loop
     vertex  6.022175e-02  6.688303e-02  0.000000e+00
     vertex  9.407562e-03 -8.950697e-02  0.000000e+00
     vertex -9.407562e-03 -8.950697e-02  0.000000e+00
   endloop
 endfacet
 facet normal  0.000000e+00  0.000000e+00 -1.000000e+00
   outer loop
     vertex  6.022175e-02  6.688303e-02  0.000000e+00
     vertex  2.781153e-02 -8.559509e-02  0.000000e+00
     vertex  9.407562e-03 -8.950697e-02  0.000000e+00
   endloop
 endfacet
 facet normal  0.000000e+00  0.000000e+00 -1.000000e+00
   outer loop
     vertex  6.022175e-02  6.688303e-02  0.000000e+00
     vertex  4.500000e-02 -7.794229e-02  0.000000e+00
     vertex  2.781153e-02 -8.559509e-02  0.000000e+00
   endloop
 endfacet
 facet normal  0.000000e+00 -0.000000e+00 -1.000000e+00
   outer loop
     vertex  6.022175e-02  6.688303e-02  0.000000e+00
     vertex  6.022175e-02 -6.688303e-02  0.000000e+00
     vertex  4.500000e-02 -7.794229e-02  0.000000e+00
   endloop
 endfacet
 facet normal  0.000000e+00  0.000000e+00 -1.000000e+00
   outer loop
     vertex  6.022175e-02  6.688303e-02  0.000000e+00
     vertex  7.281153e-02 -5.290067e-02  0.000000e+00
     vertex  6.022175e-02 -6.688303e-02  0.000000e+00
   endloop
 endfacet
 facet normal  0.000000e+00  0.000000e+00 -1.000000e+00
   outer loop
     vertex  6.022175e-02  6.688303e-02  0.000000e+00
     vertex  8.221909e-02 -3.660630e-02  0.000000e+00
     vertex  7.281153e-02 -5.290067e-02  0.000000e+00
   endloop
 endfacet
 facet normal  0.000000e+00  0.000000e+00 -1.000000e+00
   outer loop
     vertex  6.022175e-02  6.688303e-02  0.000000e+00
     vertex  8.803328e-02 -1.871205e-02  0.000000e+00
     vertex  8.221909e-02 -3.660630e-02  0.000000e+00
   endloop
 endfacet
 facet normal  0.000000e+00  0.000000e+00 -1.000000e+00
   outer loop
     vertex  6.022175e-02  6.688303e-02  0.000000e+00
     vertex  9.000000e-02  0.000000e+00  0.000000e+00
     vertex  8.803328e-02 -1.871205e-02  0.000000e+00
   endloop
 endfacet
 facet normal  0.000000e+00  0.000000e+00  1.000000e+00
   outer loop
     vertex  6.022175e-02  6.688303e-02  1.000000e+00
     vertex  9.000000e-02  0.000000e+00  1.000000e+00
     vertex  8.803328e-02  1.871205e-02  1.000000e+00
   endloop
 endfacet
 facet normal  0.000000e+00  0.000000e+00  1.000000e+00
   outer loop
     vertex  6.022175e-02  6.688303e-02  1.000000e+00
     vertex  8.803328e-02  1.871205e-02  1.000000e+00
     vertex  8.221909e-02  3.660630e-02  1.000000e+00
   endloop
 endfacet
 facet normal  0.000000e+00  0.000000e+00  1.000000e+00
   outer loop
     vertex  6.022175e-02  6.688303e-02  1.000000e+00
     vertex  8.221909e-02  3.660630e-02  1.000000e+00
     vertex  7.281153e-02  5.290067e-02  1.000000e+00
   endloop
 endfacet
 facet normal  0.000000e+00  0.000000e+00  1.000000e+00
   outer loop
     vertex  6.022175e-02  6.688303e-02  1.000000e+00
     vertex  4.500000e-02  7.794229e-02  1.000000e+00
     vertex  2.781153e-02  8.559509e-02  1.000000e+00
   endloop
 endfacet
 facet normal  0.000000e+00  0.000000e+00  1.000000e+00
   outer loop
     vertex  6.022175e-02  6.688303e-02  1.000000e+00
     vertex  2.781153e-02  8.559509e-02  1.000000e+00
     vertex  9.407562e-03  8.950697e-02  1.000000e+00
   endloop
 endfacet
 facet normal  0.000000e+00  0.000000e+00  1.000000e+00
   outer loop
     vertex  6.022175e-02  6.688303e-02  1.000000e+00
     vertex  9.407562e-03  8.950697e-02  1.000000e+00
     vertex -9.407562e-03  8.950697e-02  1.000000e+00
   endloop
 endfacet
 facet normal  0.000000e+00  0.000000e+00  1.000000e+00
   outer loop
     vertex  6.022175e-02  6.688303e-02  1.000000e+00
     vertex -9.407562e-03  8.950697e-02  1.000000e+00
     vertex -2.781153e-02  8.559509e-02  1.000000e+00
   endloop
 endfacet
 facet normal  0.000000e+00  0.000000e+00  1.000000e+00
   outer loop
     vertex  6.022175e-02  6.688303e-02  1.000000e+00
     vertex -2.781153e-02  8.559509e-02  1.000000e+00
     vertex -4.500000e-02  7.794229e-02  1.000000e+00
   endloop
 endfacet
 facet normal  0.000000e+00  0.000000e+00  1.000000e+00
   outer loop
     vertex  6.022175e-02  6.688303e-02  1.000000e+00
     vertex -4.500000e-02  7.794229e-02  1.000000e+00
     vertex -6.022175e-02  6.688303e-02  1.000000e+00
   endloop
 endfacet
 facet normal  0.000000e+00  0.000000e+00  1.000000e+00
   outer loop
     vertex  6.022175e-02  6.688303e-02  1.000000e+00
     vertex -6.022175e-02  6.688303e-02  1.000000e+00
     vertex -7.281153e-02  5.290067e-02  1.000000e+00
   endloop
 endfacet
 facet normal  0.000000e+00  0.000000e+00  1.000000e+00
   outer loop
     vertex  6.022175e-02  6.688303e-02  1.000000e+00
     vertex -7.281153e-02  5.290067e-02  1.000000e+00
     vertex -8.221909e-02  3.660630e-02  1.000000e+00
   endloop
 endfacet
 facet normal  0.000000e+00  0.000000e+00  1.000000e+00
   outer loop
     vertex  6.022175e-02  6.688303e-02  1.000000e+00
     vertex -8.221909e-02  3.660630e-02  1.000000e+00
     vertex -8.803328e-02  1.871205e-02  1.000000e+00
   endloop
 endfacet
 facet normal  0.000000e+00  0.000000e+00  1.000000e+00
   outer loop
     vertex  6.022175e-02  6.688303e-02  1.000000e+00
     vertex -8.803328e-02  1.871205e-02  1.000000e+00
     vertex -9.000000e-02  5.098985e-17  1.000000e+00
   endloop
 endfacet
 facet normal  0.000000e+00  0.000000e+00  1.000000e+00
   outer loop
     vertex  6.022175e-02  6.688303e-02  1.000000e+00
     vertex -9.000000e-02  5.098985e-17  1.000000e+00
     vertex -8.803328e-02 -1.871205e-02  1.000000e+00
   endloop
 endfacet
 facet normal  0.000000e+00  0.000000e+00  1.000000e+00
   outer loop
     vertex  6.022175e-02  6.688303e-02  1.000000e+00
     vertex -8.803328e-02 -1.871205e-02  1.000000e+00
     vertex -8.221909e-02 -3.660630e-02  1.000000e+00
   endloop
 endfacet
 facet normal  0.000000e+00  0.000000e+00  1.000000e+00
   outer loop
     vertex  6.022175e-02  6.688303e-02  1.000000e+00
     vertex -8.221909e-02 -3.660630e-02  1.000000e+00
     vertex -7.281153e-02 -5.290067e-02  1.000000e+00
   endloop
 endfacet
 facet normal  0.000000e+00  0.000000e+00  1.000000e+00
   outer loop
     vertex  6.022175e-02  6.688303e-02  1.000000e+00
     vertex -7.281153e-02 -5.290067e-02  1.000000e+00
     vertex -6.022175e-02 -6.688303e-02  1.000000e+00
   endloop
 endfacet
 facet normal  0.000000e+00  0.000000e+00  1.000000e+00
   outer loop
     vertex  6.022175e-02  6.688303e-02  1.000000e+00
     vertex -6.022175e-02 -6.688303e-02  1.000000e+00
     vertex -4.500000e-02 -7.794229e-02  1.000000e+00
   endloop
 endfacet
 facet normal  0.000000e+00  0.000000e+00  1.000000e+00
   outer loop
     vertex  6.022175e-02  6.688303e-02  1.000000e+00
     vertex -4.500000e-02 -7.794229e-02  1.000000e+00
     vertex -2.781153e-02 -8.559509e-02  1.000000e+00
   endloop
 endfacet
 facet normal  0.000000e+00  0.000000e+00  1.000000e+00
   outer loop
     vertex  6.022175e-02  6.688303e-02  1.000000e+00
     vertex -2.781153e-02 -8.559509e-02  1.000000e+00
     vertex -9.407562e-03 -8.950697e-02  1.000000e+00
   endloop
 endfacet
 facet normal  0.000000e+00  0.000000e+00  1.000000e+00
   outer loop
     vertex  6.022175e-02  6.688303e-02  1.000000e+00
     vertex -9.407562e-03 -8.950697e-02  1.000000e+00
     vertex  9.407562e-03 -8.950697e-02  1.000000e+00
   endloop
 endfacet
 facet normal  0.000000e+00  0.000000e+00  1.000000e+00
   outer loop
     vertex  6.022175e-02  6.688303e-02  1.000000e+00
     vertex  9.407562e-03 -8.950697e-02  1.000000e+00
     vertex  2.781153e-02 -8.559509e-02  1.000000e+00
   endloop
 endfacet
 facet normal  0.000000e+00  0.000000e+00  1.000000e+00
   outer loop
     vertex  6.022175e-02  6.688303e-02  1.000000e+00
     vertex  2.781153e-02 -8.559509e-02  1.000000e+00
     vertex  4.500000e-02 -7.794229e-02  1.000000e+00
   endloop
 endfacet
 facet normal  0.000000e+00  0.000000e+00  1.000000e+00
   outer loop
     vertex  6.022175e-02  6.688303e-02  1.000000e+00
     vertex  4.500000e-02 -7.794229e-02  1.000000e+00
     vertex  6.022175e-02 -6.688303e-02  1.000000e+00
   endloop
 endfacet
 facet normal  0.000000e+00  0.000000e+00  1.000000e+00
   outer loop
     vertex  6.022175e-02  6.688303e-02  1.000000e+00
     vertex  6.022175e-02 -6.688303e-02  1.000000e+00
     vertex  7.281153e-02 -5.290067e-02  1.000000e+00
   endloop
 endfacet
 facet normal  0.000000e+00  0.000000e+00  1.000000e+00
   outer loop
     vertex  6.022175e-02  6.688303e-02  1.000000e+00
     vertex  7.281153e-02 -5.290067e-02  1.000000e+00
     vertex  8.221909e-02 -3.660630e-02  1.000000e+00
   endloop
 endfacet
 facet normal  0.000000e+00  0.000000e+00  1.000000e+00
   outer loop
     vertex  6.022175e-02  6.688303e-02  1.000000e+00
     vertex  8.221909e-02 -3.660630e-02  1.000000e+00
     vertex  8.803328e-02 -1.871205e-02  1.000000e+00
   endloop
 endfacet
 facet normal  0.000000e+00  0.000000e+00  1.000000e+00
   outer loop
     vertex  6.022175e-02  6.688303e-02  1.000000e+00
     vertex  8.803328e-02 -1.871205e-02  1.000000e+00
     vertex  9.000000e-02  0.000000e+00  1.000000e+00
   endloop
 endfacet
endsolid
