solid 
 facet normal  0.000000e+00  9.927089e-01  1.205367e-01
   outer loop
     vertex  0.000000e+00  9.709418e-03  2.393157e-03
     vertex  1.000000e+00  1.000000e-02  0.000000e+00
     vertex  0.000000e+00  1.000000e-02  0.000000e+00
   endloop
 endfacet
 facet normal -0.000000e+00  9.927089e-01  1.205367e-01
   outer loop
     vertex  0.000000e+00  9.709418e-03  2.393157e-03
     vertex  1.000000e+00  9.709418e-03  2.393157e-03
     vertex  1.000000e+00  1.000000e-02  0.000000e+00
   endloop
 endfacet
 facet normal -0.000000e+00  9.350162e-01  3.546049e-01
   outer loop
     vertex  0.000000e+00  8.854560e-03  4.647232e-03
     vertex  1.000000e+00  8.854560e-03  4.647232e-03
     vertex  1.000000e+00  9.709418e-03  2.393157e-03
   endloop
 endfacet
 facet normal  0.000000e+00  9.350162e-01  3.546049e-01
   outer loop
     vertex  0.000000e+00  8.854560e-03  4.647232e-03
     vertex  1.000000e+00  9.709418e-03  2.393157e-03
     vertex  0.000000e+00  9.709418e-03  2.393157e-03
   endloop
 endfacet
 facet normal -0.000000e+00  8.229839e-01  5.680647e-01
   outer loop
     vertex  0.000000e+00  7.485107e-03  6.631227e-03
     vertex  1.000000e+00  7.485107e-03  6.631227e-03
     vertex  1.000000e+00  8.854560e-03  4.647232e-03
   endloop
 endfacet
 facet normal  0.000000e+00  8.229839e-01  5.680647e-01
   outer loop
     vertex  0.000000e+00  7.485107e-03  6.631227e-03
     vertex  1.000000e+00  8.854560e-03  4.647232e-03
     vertex  0.000000e+00  8.854560e-03  4.647232e-03
   endloop
 endfacet
 facet normal -0.000000e+00  6.631227e-01  7.485107e-01
   outer loop
     vertex  0.000000e+00  5.680647e-03  8.229839e-03
     vertex  1.000000e+00  5.680647e-03  8.229839e-03
     vertex  1.000000e+00  7.485107e-03  6.631227e-03
   endloop
 endfacet
 facet normal  0.000000e+00  6.631227e-01  7.485107e-01
   outer loop
     vertex  0.000000e+00  5.680647e-03  8.229839e-03
     vertex  1.000000e+00  7.485107e-03  6.631227e-03
     vertex  0.000000e+00  7.485107e-03  6.631227e-03
   endloop
 endfacet
 facet normal -0.000000e+00  4.647232e-01  8.854560e-01
   outer loop
     vertex  0.000000e+00  3.546049e-03  9.350162e-03
     vertex  1.000000e+00  3.546049e-03  9.350162e-03
     vertex  1.000000e+00  5.680647e-03  8.229839e-03
   endloop
 endfacet
 facet normal  0.000000e+00  4.647232e-01  8.854560e-01
   outer loop
     vertex  0.000000e+00  3.546049e-03  9.350162e-03
     vertex  1.000000e+00  5.680647e-03  8.229839e-03
     vertex  0.000000e+00  5.680647e-03  8.229839e-03
   endloop
 endfacet
 facet normal -0.000000e+00  2.393157e-01  9.709418e-01
   outer loop
     vertex  0.000000e+00  1.205367e-03  9.927089e-03
     vertex  1.000000e+00  1.205367e-03  9.927089e-03
     vertex  1.000000e+00  3.546049e-03  9.350162e-03
   endloop
 endfacet
 facet normal  0.000000e+00  2.393157e-01  9.709418e-01
   outer loop
     vertex  0.000000e+00  1.205367e-03  9.927089e-03
     vertex  1.000000e+00  3.546049e-03  9.350162e-03
     vertex  0.000000e+00  3.546049e-03  9.350162e-03
   endloop
 endfacet
 facet normal  0.000000e+00  0.000000e+00  1.000000e+00
   outer loop
     vertex  0.000000e+00 -1.205367e-03  9.927089e-03
     vertex  1.000000e+00 -1.205367e-03  9.927089e-03
     vertex  1.000000e+00  1.205367e-03  9.927089e-03
   endloop
 endfacet
 facet normal  0.000000e+00  0.000000e+00  1.000000e+00
   outer loop
     vertex  0.000000e+00 -1.205367e-03  9.927089e-03
     vertex  1.000000e+00  1.205367e-03  9.927089e-03
     vertex  0.000000e+00  1.205367e-03  9.927089e-03
   endloop
 endfacet
 facet normal  0.000000e+00 -2.393157e-01  9.709418e-01
   outer loop
     vertex  0.000000e+00 -3.546049e-03  9.350162e-03
     vertex  1.000000e+00 -3.546049e-03  9.350162e-03
     vertex  1.000000e+00 -1.205367e-03  9.927089e-03
   endloop
 endfacet
 facet normal  0.000000e+00 -2.393157e-01  9.709418e-01
   outer loop
     vertex  0.000000e+00 -3.546049e-03  9.350162e-03
     vertex  1.000000e+00 -1.205367e-03  9.927089e-03
     vertex  0.000000e+00 -1.205367e-03  9.927089e-03
   endloop
 endfacet
 facet normal  0.000000e+00 -4.647232e-01  8.854560e-01
   outer loop
     vertex  0.000000e+00 -5.680647e-03  8.229839e-03
     vertex  1.000000e+00 -5.680647e-03  8.229839e-03
     vertex  1.000000e+00 -3.546049e-03  9.350162e-03
   endloop
 endfacet
 facet normal  0.000000e+00 -4.647232e-01  8.854560e-01
   outer loop
     vertex  0.000000e+00 -5.680647e-03  8.229839e-03
     vertex  1.000000e+00 -3.546049e-03  9.350162e-03
     vertex  0.000000e+00 -3.546049e-03  9.350162e-03
   endloop
 endfacet
 facet normal  0.000000e+00 -6.631227e-01  7.485107e-01
   outer loop
     vertex  0.000000e+00 -7.485107e-03  6.631227e-03
     vertex  1.000000e+00 -7.485107e-03  6.631227e-03
     vertex  1.000000e+00 -5.680647e-03  8.229839e-03
   endloop
 endfacet
 facet normal  0.000000e+00 -6.631227e-01  7.485107e-01
   outer loop
     vertex  0.000000e+00 -7.485107e-03  6.631227e-03
     vertex  1.000000e+00 -5.680647e-03  8.229839e-03
     vertex  0.000000e+00 -5.680647e-03  8.229839e-03
   endloop
 endfacet
 facet normal  0.000000e+00 -8.229839e-01  5.680647e-01
   outer loop
     vertex  0.000000e+00 -8.854560e-03  4.647232e-03
     vertex  1.000000e+00 -8.854560e-03  4.647232e-03
     vertex  1.000000e+00 -7.485107e-03  6.631227e-03
   endloop
 endfacet
 facet normal  0.000000e+00 -8.229839e-01  5.680647e-01
   outer loop
     vertex  0.000000e+00 -8.854560e-03  4.647232e-03
     vertex  1.000000e+00 -7.485107e-03  6.631227e-03
     vertex  0.000000e+00 -7.485107e-03  6.631227e-03
   endloop
 endfacet
 facet normal  0.000000e+00 -9.350162e-01  3.546049e-01
   outer loop
     vertex  0.000000e+00 -9.709418e-03  2.393157e-03
     vertex  1.000000e+00 -8.854560e-03  4.647232e-03
     vertex  0.000000e+00 -8.854560e-03  4.647232e-03
   endloop
 endfacet
 facet normal  0.000000e+00 -9.350162e-01  3.546049e-01
   outer loop
     vertex  0.000000e+00 -9.709418e-03  2.393157e-03
     vertex  1.000000e+00 -9.709418e-03  2.393157e-03
     vertex  1.000000e+00 -8.854560e-03  4.647232e-03
   endloop
 endfacet
 facet normal  0.000000e+00 -9.927089e-01  1.205367e-01
   outer loop
     vertex  0.000000e+00 -1.000000e-02  1.010643e-17
     vertex  1.000000e+00 -9.709418e-03  2.393157e-03
     vertex  0.000000e+00 -9.709418e-03  2.393157e-03
   endloop
 endfacet
 facet normal  0.000000e+00 -9.927089e-01  1.205367e-01
   outer loop
     vertex  0.000000e+00 -1.000000e-02  1.010643e-17
     vertex  1.000000e+00 -1.000000e-02  1.010643e-17
     vertex  1.000000e+00 -9.709418e-03  2.393157e-03
   endloop
 endfacet
 facet normal  0.000000e+00 -9.927089e-01 -1.205367e-01
   outer loop
     vertex  0.000000e+00 -9.709418e-03 -2.393157e-03
     vertex  1.000000e+00 -9.709418e-03 -2.393157e-03
     vertex  1.000000e+00 -1.000000e-02  1.010643e-17
   endloop
 endfacet
 facet normal  0.000000e+00 -9.927089e-01 -1.205367e-01
   outer loop
     vertex  0.000000e+00 -9.709418e-03 -2.393157e-03
     vertex  1.000000e+00 -1.000000e-02  1.010643e-17
     vertex  0.000000e+00 -1.000000e-02  1.010643e-17
   endloop
 endfacet
 facet normal  0.000000e+00 -9.350162e-01 -3.546049e-01
   outer loop
     vertex  0.000000e+00 -9.709418e-03 -2.393157e-03
     vertex  1.000000e+00 -8.854560e-03 -4.647232e-03
     vertex  1.000000e+00 -9.709418e-03 -2.393157e-03
   endloop
 endfacet
 facet normal  0.000000e+00 -9.350162e-01 -3.546049e-01
   outer loop
     vertex  0.000000e+00 -8.854560e-03 -4.647232e-03
     vertex  1.000000e+00 -8.854560e-03 -4.647232e-03
     vertex  0.000000e+00 -9.709418e-03 -2.393157e-03
   endloop
 endfacet
 facet normal  0.000000e+00 -8.229839e-01 -5.680647e-01
   outer loop
     vertex  0.000000e+00 -7.485107e-03 -6.631227e-03
     vertex  1.000000e+00 -7.485107e-03 -6.631227e-03
     vertex  1.000000e+00 -8.854560e-03 -4.647232e-03
   endloop
 endfacet
 facet normal  0.000000e+00 -6.631227e-01 -7.485107e-01
   outer loop
     vertex  0.000000e+00 -7.485107e-03 -6.631227e-03
     vertex  1.000000e+00 -5.680647e-03 -8.229839e-03
     vertex  1.000000e+00 -7.485107e-03 -6.631227e-03
   endloop
 endfacet
 facet normal  0.000000e+00 -8.229839e-01 -5.680647e-01
   outer loop
     vertex  0.000000e+00 -7.485107e-03 -6.631227e-03
     vertex  1.000000e+00 -8.854560e-03 -4.647232e-03
     vertex  0.000000e+00 -8.854560e-03 -4.647232e-03
   endloop
 endfacet
 facet normal  0.000000e+00 -6.631227e-01 -7.485107e-01
   outer loop
     vertex  0.000000e+00 -5.680647e-03 -8.229839e-03
     vertex  1.000000e+00 -5.680647e-03 -8.229839e-03
     vertex  0.000000e+00 -7.485107e-03 -6.631227e-03
   endloop
 endfacet
 facet normal  0.000000e+00 -4.647232e-01 -8.854560e-01
   outer loop
     vertex  0.000000e+00 -3.546049e-03 -9.350162e-03
     vertex  1.000000e+00 -3.546049e-03 -9.350162e-03
     vertex  1.000000e+00 -5.680647e-03 -8.229839e-03
   endloop
 endfacet
 facet normal  0.000000e+00 -4.647232e-01 -8.854560e-01
   outer loop
     vertex  0.000000e+00 -3.546049e-03 -9.350162e-03
     vertex  1.000000e+00 -5.680647e-03 -8.229839e-03
     vertex  0.000000e+00 -5.680647e-03 -8.229839e-03
   endloop
 endfacet
 facet normal  0.000000e+00 -2.393157e-01 -9.709418e-01
   outer loop
     vertex  0.000000e+00 -1.205367e-03 -9.927089e-03
     vertex  1.000000e+00 -1.205367e-03 -9.927089e-03
     vertex  1.000000e+00 -3.546049e-03 -9.350162e-03
   endloop
 endfacet
 facet normal  0.000000e+00 -2.158750e-15 -1.000000e+00
   outer loop
     vertex  0.000000e+00 -1.205367e-03 -9.927089e-03
     vertex  1.000000e+00  1.205367e-03 -9.927089e-03
     vertex  1.000000e+00 -1.205367e-03 -9.927089e-03
   endloop
 endfacet
 facet normal  0.000000e+00 -2.393157e-01 -9.709418e-01
   outer loop
     vertex  0.000000e+00 -1.205367e-03 -9.927089e-03
     vertex  1.000000e+00 -3.546049e-03 -9.350162e-03
     vertex  0.000000e+00 -3.546049e-03 -9.350162e-03
   endloop
 endfacet
 facet normal  0.000000e+00 -2.158750e-15 -1.000000e+00
   outer loop
     vertex  0.000000e+00  1.205367e-03 -9.927089e-03
     vertex  1.000000e+00  1.205367e-03 -9.927089e-03
     vertex  0.000000e+00 -1.205367e-03 -9.927089e-03
   endloop
 endfacet
 facet normal  0.000000e+00  2.393157e-01 -9.709418e-01
   outer loop
     vertex  0.000000e+00  3.546049e-03 -9.350162e-03
     vertex  1.000000e+00  3.546049e-03 -9.350162e-03
     vertex  1.000000e+00  1.205367e-03 -9.927089e-03
   endloop
 endfacet
 facet normal  0.000000e+00  4.647232e-01 -8.854560e-01
   outer loop
     vertex  0.000000e+00  3.546049e-03 -9.350162e-03
     vertex  1.000000e+00  5.680647e-03 -8.229839e-03
     vertex  1.000000e+00  3.546049e-03 -9.350162e-03
   endloop
 endfacet
 facet normal  0.000000e+00  2.393157e-01 -9.709418e-01
   outer loop
     vertex  0.000000e+00  3.546049e-03 -9.350162e-03
     vertex  1.000000e+00  1.205367e-03 -9.927089e-03
     vertex  0.000000e+00  1.205367e-03 -9.927089e-03
   endloop
 endfacet
 facet normal  0.000000e+00  4.647232e-01 -8.854560e-01
   outer loop
     vertex  0.000000e+00  5.680647e-03 -8.229839e-03
     vertex  1.000000e+00  5.680647e-03 -8.229839e-03
     vertex  0.000000e+00  3.546049e-03 -9.350162e-03
   endloop
 endfacet
 facet normal  0.000000e+00  6.631227e-01 -7.485107e-01
   outer loop
     vertex  0.000000e+00  7.485107e-03 -6.631227e-03
     vertex  1.000000e+00  7.485107e-03 -6.631227e-03
     vertex  1.000000e+00  5.680647e-03 -8.229839e-03
   endloop
 endfacet
 facet normal  0.000000e+00  8.229839e-01 -5.680647e-01
   outer loop
     vertex  0.000000e+00  7.485107e-03 -6.631227e-03
     vertex  1.000000e+00  8.854560e-03 -4.647232e-03
     vertex  1.000000e+00  7.485107e-03 -6.631227e-03
   endloop
 endfacet
 facet normal  0.000000e+00  6.631227e-01 -7.485107e-01
   outer loop
     vertex  0.000000e+00  7.485107e-03 -6.631227e-03
     vertex  1.000000e+00  5.680647e-03 -8.229839e-03
     vertex  0.000000e+00  5.680647e-03 -8.229839e-03
   endloop
 endfacet
 facet normal  0.000000e+00  8.229839e-01 -5.680647e-01
   outer loop
     vertex  0.000000e+00  8.854560e-03 -4.647232e-03
     vertex  1.000000e+00  8.854560e-03 -4.647232e-03
     vertex  0.000000e+00  7.485107e-03 -6.631227e-03
   endloop
 endfacet
 facet normal  0.000000e+00  9.350162e-01 -3.546049e-01
   outer loop
     vertex  0.000000e+00  9.709418e-03 -2.393157e-03
     vertex  1.000000e+00  9.709418e-03 -2.393157e-03
     vertex  1.000000e+00  8.854560e-03 -4.647232e-03
   endloop
 endfacet
 facet normal  0.000000e+00  9.350162e-01 -3.546049e-01
   outer loop
     vertex  0.000000e+00  9.709418e-03 -2.393157e-03
     vertex  1.000000e+00  8.854560e-03 -4.647232e-03
     vertex  0.000000e+00  8.854560e-03 -4.647232e-03
   endloop
 endfacet
 facet normal  0.000000e+00  9.927089e-01 -1.205367e-01
   outer loop
     vertex  0.000000e+00  1.000000e-02  0.000000e+00
     vertex  1.000000e+00  1.000000e-02  0.000000e+00
     vertex  1.000000e+00  9.709418e-03 -2.393157e-03
   endloop
 endfacet
 facet normal  0.000000e+00  9.927089e-01 -1.205367e-01
   outer loop
     vertex  0.000000e+00  1.000000e-02  0.000000e+00
     vertex  1.000000e+00  9.709418e-03 -2.393157e-03
     vertex  0.000000e+00  9.709418e-03 -2.393157e-03
   endloop
 endfacet
 facet normal -1.000000e+00  0.000000e+00  0.000000e+00
   outer loop
     vertex  0.000000e+00  7.485107e-03  6.631227e-03
     vertex  0.000000e+00  9.709418e-03  2.393157e-03
     vertex  0.000000e+00  1.000000e-02  0.000000e+00
   endloop
 endfacet
 facet normal -1.000000e+00  0.000000e+00  0.000000e+00
   outer loop
     vertex  0.000000e+00  7.485107e-03  6.631227e-03
     vertex  0.000000e+00  8.854560e-03  4.647232e-03
     vertex  0.000000e+00  9.709418e-03  2.393157e-03
   endloop
 endfacet
 facet normal -1.000000e+00  0.000000e+00  0.000000e+00
   outer loop
     vertex  0.000000e+00  7.485107e-03  6.631227e-03
     vertex  0.000000e+00  3.546049e-03  9.350162e-03
     vertex  0.000000e+00  5.680647e-03  8.229839e-03
   endloop
 endfacet
 facet normal -1.000000e+00  0.000000e+00  0.000000e+00
   outer loop
     vertex  0.000000e+00  7.485107e-03  6.631227e-03
     vertex  0.000000e+00  1.205367e-03  9.927089e-03
     vertex  0.000000e+00  3.546049e-03  9.350162e-03
   endloop
 endfacet
 facet normal -1.000000e+00  0.000000e+00  0.000000e+00
   outer loop
     vertex  0.000000e+00  7.485107e-03  6.631227e-03
     vertex  0.000000e+00 -1.205367e-03  9.927089e-03
     vertex  0.000000e+00  1.205367e-03  9.927089e-03
   endloop
 endfacet
 facet normal -1.000000e+00  0.000000e+00  0.000000e+00
   outer loop
     vertex  0.000000e+00  7.485107e-03  6.631227e-03
     vertex  0.000000e+00 -3.546049e-03  9.350162e-03
     vertex  0.000000e+00 -1.205367e-03  9.927089e-03
   endloop
 endfacet
 facet normal -1.000000e+00  0.000000e+00  0.000000e+00
   outer loop
     vertex  0.000000e+00  7.485107e-03  6.631227e-03
     vertex  0.000000e+00 -5.680647e-03  8.229839e-03
     vertex  0.000000e+00 -3.546049e-03  9.350162e-03
   endloop
 endfacet
 facet normal -1.000000e+00  0.000000e+00  0.000000e+00
   outer loop
     vertex  0.000000e+00  7.485107e-03  6.631227e-03
     vertex  0.000000e+00 -7.485107e-03  6.631227e-03
     vertex  0.000000e+00 -5.680647e-03  8.229839e-03
   endloop
 endfacet
 facet normal -1.000000e+00 -0.000000e+00  0.000000e+00
   outer loop
     vertex  0.000000e+00  7.485107e-03  6.631227e-03
     vertex  0.000000e+00 -8.854560e-03  4.647232e-03
     vertex  0.000000e+00 -7.485107e-03  6.631227e-03
   endloop
 endfacet
 facet normal -1.000000e+00  0.000000e+00  0.000000e+00
   outer loop
     vertex  0.000000e+00  7.485107e-03  6.631227e-03
     vertex  0.000000e+00 -9.709418e-03  2.393157e-03
     vertex  0.000000e+00 -8.854560e-03  4.647232e-03
   endloop
 endfacet
 facet normal -1.000000e+00  0.000000e+00  0.000000e+00
   outer loop
     vertex  0.000000e+00  7.485107e-03  6.631227e-03
     vertex  0.000000e+00 -1.000000e-02  1.010643e-17
     vertex  0.000000e+00 -9.709418e-03  2.393157e-03
   endloop
 endfacet
 facet normal -1.000000e+00  0.000000e+00  0.000000e+00
   outer loop
     vertex  0.000000e+00  7.485107e-03  6.631227e-03
     vertex  0.000000e+00 -9.709418e-03 -2.393157e-03
     vertex  0.000000e+00 -1.000000e-02  1.010643e-17
   endloop
 endfacet
 facet normal -1.000000e+00  0.000000e+00  0.000000e+00
   outer loop
     vertex  0.000000e+00  7.485107e-03  6.631227e-03
     vertex  0.000000e+00 -8.854560e-03 -4.647232e-03
     vertex  0.000000e+00 -9.709418e-03 -2.393157e-03
   endloop
 endfacet
 facet normal -1.000000e+00  0.000000e+00  0.000000e+00
   outer loop
     vertex  0.000000e+00  7.485107e-03  6.631227e-03
     vertex  0.000000e+00 -7.485107e-03 -6.631227e-03
     vertex  0.000000e+00 -8.854560e-03 -4.647232e-03
   endloop
 endfacet
 facet normal -1.000000e+00  0.000000e+00  0.000000e+00
   outer loop
     vertex  0.000000e+00  7.485107e-03  6.631227e-03
     vertex  0.000000e+00 -5.680647e-03 -8.229839e-03
     vertex  0.000000e+00 -7.485107e-03 -6.631227e-03
   endloop
 endfacet
 facet normal -1.000000e+00  0.000000e+00  0.000000e+00
   outer loop
     vertex  0.000000e+00  7.485107e-03  6.631227e-03
     vertex  0.000000e+00 -3.546049e-03 -9.350162e-03
     vertex  0.000000e+00 -5.680647e-03 -8.229839e-03
   endloop
 endfacet
 facet normal -1.000000e+00  0.000000e+00  0.000000e+00
   outer loop
     vertex  0.000000e+00  7.485107e-03  6.631227e-03
     vertex  0.000000e+00 -1.205367e-03 -9.927089e-03
     vertex  0.000000e+00 -3.546049e-03 -9.350162e-03
   endloop
 endfacet
 facet normal -1.000000e+00  0.000000e+00  0.000000e+00
   outer loop
     vertex  0.000000e+00  7.485107e-03  6.631227e-03
     vertex  0.000000e+00  1.205367e-03 -9.927089e-03
     vertex  0.000000e+00 -1.205367e-03 -9.927089e-03
   endloop
 endfacet
 facet normal -1.000000e+00  0.000000e+00  0.000000e+00
   outer loop
     vertex  0.000000e+00  7.485107e-03  6.631227e-03
     vertex  0.000000e+00  3.546049e-03 -9.350162e-03
     vertex  0.000000e+00  1.205367e-03 -9.927089e-03
   endloop
 endfacet
 facet normal -1.000000e+00  0.000000e+00  0.000000e+00
   outer loop
     vertex  0.000000e+00  7.485107e-03  6.631227e-03
     vertex  0.000000e+00  5.680647e-03 -8.229839e-03
     vertex  0.000000e+00  3.546049e-03 -9.350162e-03
   endloop
 endfacet
 facet normal -1.000000e+00  0.000000e+00  0.000000e+00
   outer loop
     vertex  0.000000e+00  7.485107e-03  6.631227e-03
     vertex  0.000000e+00  7.485107e-03 -6.631227e-03
     vertex  0.000000e+00  5.680647e-03 -8.229839e-03
   endloop
 endfacet
 facet normal -1.000000e+00  0.000000e+00 -0.000000e+00
   outer loop
     vertex  0.000000e+00  7.485107e-03  6.631227e-03
     vertex  0.000000e+00  8.854560e-03 -4.647232e-03
     vertex  0.000000e+00  7.485107e-03 -6.631227e-03
   endloop
 endfacet
 facet normal -1.000000e+00  0.000000e+00  0.000000e+00
   outer loop
     vertex  0.000000e+00  7.485107e-03  6.631227e-03
     vertex  0.000000e+00  9.709418e-03 -2.393157e-03
     vertex  0.000000e+00  8.854560e-03 -4.647232e-03
   endloop
 endfacet
 facet normal -1.000000e+00  0.000000e+00  0.000000e+00
   outer loop
     vertex  0.000000e+00  7.485107e-03  6.631227e-03
     vertex  0.000000e+00  1.000000e-02  0.000000e+00
     vertex  0.000000e+00  9.709418e-03 -2.393157e-03
   endloop
 endfacet
 facet normal  1.000000e+00  0.000000e+00  0.000000e+00
   outer loop
     vertex  1.000000e+00  7.485107e-03  6.631227e-03
     vertex  1.000000e+00  1.000000e-02  0.000000e+00
     vertex  1.000000e+00  9.709418e-03  2.393157e-03
   endloop
 endfacet
 facet normal  1.000000e+00  0.000000e+00  0.000000e+00
   outer loop
     vertex  1.000000e+00  7.485107e-03  6.631227e-03
     vertex  1.000000e+00  9.709418e-03  2.393157e-03
     vertex  1.000000e+00  8.854560e-03  4.647232e-03
   endloop
 endfacet
 facet normal  1.000000e+00  0.000000e+00  0.000000e+00
   outer loop
     vertex  1.000000e+00  7.485107e-03  6.631227e-03
     vertex  1.000000e+00  5.680647e-03  8.229839e-03
     vertex  1.000000e+00  3.546049e-03  9.350162e-03
   endloop
 endfacet
 facet normal  1.000000e+00  0.000000e+00  0.000000e+00
   outer loop
     vertex  1.000000e+00  7.485107e-03  6.631227e-03
     vertex  1.000000e+00  3.546049e-03  9.350162e-03
     vertex  1.000000e+00  1.205367e-03  9.927089e-03
   endloop
 endfacet
 facet normal  1.000000e+00  0.000000e+00  0.000000e+00
   outer loop
     vertex  1.000000e+00  7.485107e-03  6.631227e-03
     vertex  1.000000e+00  1.205367e-03  9.927089e-03
     vertex  1.000000e+00 -1.205367e-03  9.927089e-03
   endloop
 endfacet
 facet normal  1.000000e+00  0.000000e+00  0.000000e+00
   outer loop
     vertex  1.000000e+00  7.485107e-03  6.631227e-03
     vertex  1.000000e+00 -1.205367e-03  9.927089e-03
     vertex  1.000000e+00 -3.546049e-03  9.350162e-03
   endloop
 endfacet
 facet normal  1.000000e+00  0.000000e+00  0.000000e+00
   outer loop
     vertex  1.000000e+00  7.485107e-03  6.631227e-03
     vertex  1.000000e+00 -3.546049e-03  9.350162e-03
     vertex  1.000000e+00 -5.680647e-03  8.229839e-03
   endloop
 endfacet
 facet normal  1.000000e+00  0.000000e+00  0.000000e+00
   outer loop
     vertex  1.000000e+00  7.485107e-03  6.631227e-03
     vertex  1.000000e+00 -5.680647e-03  8.229839e-03
     vertex  1.000000e+00 -7.485107e-03  6.631227e-03
   endloop
 endfacet
 facet normal  1.000000e+00  0.000000e+00  0.000000e+00
   outer loop
     vertex  1.000000e+00  7.485107e-03  6.631227e-03
     vertex  1.000000e+00 -7.485107e-03  6.631227e-03
     vertex  1.000000e+00 -8.854560e-03  4.647232e-03
   endloop
 endfacet
 facet normal  1.000000e+00  0.000000e+00  0.000000e+00
   outer loop
     vertex  1.000000e+00  7.485107e-03  6.631227e-03
     vertex  1.000000e+00 -8.854560e-03  4.647232e-03
     vertex  1.000000e+00 -9.709418e-03  2.393157e-03
   endloop
 endfacet
 facet normal  1.000000e+00  0.000000e+00  0.000000e+00
   outer loop
     vertex  1.000000e+00  7.485107e-03  6.631227e-03
     vertex  1.000000e+00 -9.709418e-03  2.393157e-03
     vertex  1.000000e+00 -1.000000e-02  1.010643e-17
   endloop
 endfacet
 facet normal  1.000000e+00  0.000000e+00  0.000000e+00
   outer loop
     vertex  1.000000e+00  7.485107e-03  6.631227e-03
     vertex  1.000000e+00 -1.000000e-02  1.010643e-17
     vertex  1.000000e+00 -9.709418e-03 -2.393157e-03
   endloop
 endfacet
 facet normal  1.000000e+00  0.000000e+00  0.000000e+00
   outer loop
     vertex  1.000000e+00  7.485107e-03  6.631227e-03
     vertex  1.000000e+00 -9.709418e-03 -2.393157e-03
     vertex  1.000000e+00 -8.854560e-03 -4.647232e-03
   endloop
 endfacet
 facet normal  1.000000e+00  0.000000e+00  0.000000e+00
   outer loop
     vertex  1.000000e+00  7.485107e-03  6.631227e-03
     vertex  1.000000e+00 -8.854560e-03 -4.647232e-03
     vertex  1.000000e+00 -7.485107e-03 -6.631227e-03
   endloop
 endfacet
 facet normal  1.000000e+00  0.000000e+00  0.000000e+00
   outer loop
     vertex  1.000000e+00  7.485107e-03  6.631227e-03
     vertex  1.000000e+00 -7.485107e-03 -6.631227e-03
     vertex  1.000000e+00 -5.680647e-03 -8.229839e-03
   endloop
 endfacet
 facet normal  1.000000e+00  0.000000e+00  0.000000e+00
   outer loop
     vertex  1.000000e+00  7.485107e-03  6.631227e-03
     vertex  1.000000e+00 -5.680647e-03 -8.229839e-03
     vertex  1.000000e+00 -3.546049e-03 -9.350162e-03
   endloop
 endfacet
 facet normal  1.000000e+00  0.000000e+00  0.000000e+00
   outer loop
     vertex  1.000000e+00  7.485107e-03  6.631227e-03
     vertex  1.000000e+00 -3.546049e-03 -9.350162e-03
     vertex  1.000000e+00 -1.205367e-03 -9.927089e-03
   endloop
 endfacet
 facet normal  1.000000e+00  0.000000e+00  0.000000e+00
   outer loop
     vertex  1.000000e+00  7.485107e-03  6.631227e-03
     vertex  1.000000e+00 -1.205367e-03 -9.927089e-03
     vertex  1.000000e+00  1.205367e-03 -9.927089e-03
   endloop
 endfacet
 facet normal  1.000000e+00  0.000000e+00  0.000000e+00
   outer loop
     vertex  1.000000e+00  7.485107e-03  6.631227e-03
     vertex  1.000000e+00  1.205367e-03 -9.927089e-03
     vertex  1.000000e+00  3.546049e-03 -9.350162e-03
   endloop
 endfacet
 facet normal  1.000000e+00  0.000000e+00  0.000000e+00
   outer loop
     vertex  1.000000e+00  7.485107e-03  6.631227e-03
     vertex  1.000000e+00  3.546049e-03 -9.350162e-03
     vertex  1.000000e+00  5.680647e-03 -8.229839e-03
   endloop
 endfacet
 facet normal  1.000000e+00  0.000000e+00  0.000000e+00
   outer loop
     vertex  1.000000e+00  7.485107e-03  6.631227e-03
     vertex  1.000000e+00  5.680647e-03 -8.229839e-03
     vertex  1.000000e+00  7.485107e-03 -6.631227e-03
   endloop
 endfacet
 facet normal  1.000000e+00  0.000000e+00  0.000000e+00
   outer loop
     vertex  1.000000e+00  7.485107e-03  6.631227e-03
     vertex  1.000000e+00  7.485107e-03 -6.631227e-03
     vertex  1.000000e+00  8.854560e-03 -4.647232e-03
   endloop
 endfacet
 facet normal  1.000000e+00  0.000000e+00  0.000000e+00
   outer loop
     vertex  1.000000e+00  7.485107e-03  6.631227e-03
     vertex  1.000000e+00  8.854560e-03 -4.647232e-03
     vertex  1.000000e+00  9.709418e-03 -2.393157e-03
   endloop
 endfacet
 facet normal  1.000000e+00  0.000000e+00  0.000000e+00
   outer loop
     vertex  1.000000e+00  7.485107e-03  6.631227e-03
     vertex  1.000000e+00  9.709418e-03 -2.393157e-03
     vertex  1.000000e+00  1.000000e-02  0.000000e+00
   endloop
 endfacet
 facet normal  0.000000e+00  9.927089e-01  1.205367e-01
   outer loop
     vertex  0.000000e+00  9.709418e-03  1.273932e-01
     vertex  1.000000e+00  1.000000e-02  1.250000e-01
     vertex  0.000000e+00  1.000000e-02  1.250000e-01
   endloop
 endfacet
 facet normal -0.000000e+00  9.927089e-01  1.205367e-01
   outer loop
     vertex  0.000000e+00  9.709418e-03  1.273932e-01
     vertex  1.000000e+00  9.709418e-03  1.273932e-01
     vertex  1.000000e+00  1.000000e-02  1.250000e-01
   endloop
 endfacet
 facet normal -0.000000e+00  9.350162e-01  3.546049e-01
   outer loop
     vertex  0.000000e+00  8.854560e-03  1.296472e-01
     vertex  1.000000e+00  8.854560e-03  1.296472e-01
     vertex  1.000000e+00  9.709418e-03  1.273932e-01
   endloop
 endfacet
 facet normal  0.000000e+00  9.350162e-01  3.546049e-01
   outer loop
     vertex  0.000000e+00  8.854560e-03  1.296472e-01
     vertex  1.000000e+00  9.709418e-03  1.273932e-01
     vertex  0.000000e+00  9.709418e-03  1.273932e-01
   endloop
 endfacet
 facet normal -0.000000e+00  8.229839e-01  5.680647e-01
   outer loop
     vertex  0.000000e+00  7.485107e-03  1.316312e-01
     vertex  1.000000e+00  7.485107e-03  1.316312e-01
     vertex  1.000000e+00  8.854560e-03  1.296472e-01
   endloop
 endfacet
 facet normal  0.000000e+00  8.229839e-01  5.680647e-01
   outer loop
     vertex  0.000000e+00  7.485107e-03  1.316312e-01
     vertex  1.000000e+00  8.854560e-03  1.296472e-01
     vertex  0.000000e+00  8.854560e-03  1.296472e-01
   endloop
 endfacet
 facet normal -0.000000e+00  6.631227e-01  7.485107e-01
   outer loop
     vertex  0.000000e+00  5.680647e-03  1.332298e-01
     vertex  1.000000e+00  5.680647e-03  1.332298e-01
     vertex  1.000000e+00  7.485107e-03  1.316312e-01
   endloop
 endfacet
 facet normal  0.000000e+00  6.631227e-01  7.485107e-01
   outer loop
     vertex  0.000000e+00  5.680647e-03  1.332298e-01
     vertex  1.000000e+00  7.485107e-03  1.316312e-01
     vertex  0.000000e+00  7.485107e-03  1.316312e-01
   endloop
 endfacet
 facet normal -0.000000e+00  4.647232e-01  8.854560e-01
   outer loop
     vertex  0.000000e+00  3.546049e-03  1.343502e-01
     vertex  1.000000e+00  3.546049e-03  1.343502e-01
     vertex  1.000000e+00  5.680647e-03  1.332298e-01
   endloop
 endfacet
 facet normal  0.000000e+00  4.647232e-01  8.854560e-01
   outer loop
     vertex  0.000000e+00  3.546049e-03  1.343502e-01
     vertex  1.000000e+00  5.680647e-03  1.332298e-01
     vertex  0.000000e+00  5.680647e-03  1.332298e-01
   endloop
 endfacet
 facet normal -0.000000e+00  2.393157e-01  9.709418e-01
   outer loop
     vertex  0.000000e+00  1.205367e-03  1.349271e-01
     vertex  1.000000e+00  1.205367e-03  1.349271e-01
     vertex  1.000000e+00  3.546049e-03  1.343502e-01
   endloop
 endfacet
 facet normal  0.000000e+00  2.393157e-01  9.709418e-01
   outer loop
     vertex  0.000000e+00  1.205367e-03  1.349271e-01
     vertex  1.000000e+00  3.546049e-03  1.343502e-01
     vertex  0.000000e+00  3.546049e-03  1.343502e-01
   endloop
 endfacet
 facet normal  0.000000e+00  0.000000e+00  1.000000e+00
   outer loop
     vertex  0.000000e+00 -1.205367e-03  1.349271e-01
     vertex  1.000000e+00 -1.205367e-03  1.349271e-01
     vertex  1.000000e+00  1.205367e-03  1.349271e-01
   endloop
 endfacet
 facet normal  0.000000e+00  0.000000e+00  1.000000e+00
   outer loop
     vertex  0.000000e+00 -1.205367e-03  1.349271e-01
     vertex  1.000000e+00  1.205367e-03  1.349271e-01
     vertex  0.000000e+00  1.205367e-03  1.349271e-01
   endloop
 endfacet
 facet normal  0.000000e+00 -2.393157e-01  9.709418e-01
   outer loop
     vertex  0.000000e+00 -3.546049e-03  1.343502e-01
     vertex  1.000000e+00 -3.546049e-03  1.343502e-01
     vertex  1.000000e+00 -1.205367e-03  1.349271e-01
   endloop
 endfacet
 facet normal  0.000000e+00 -2.393157e-01  9.709418e-01
   outer loop
     vertex  0.000000e+00 -3.546049e-03  1.343502e-01
     vertex  1.000000e+00 -1.205367e-03  1.349271e-01
     vertex  0.000000e+00 -1.205367e-03  1.349271e-01
   endloop
 endfacet
 facet normal  0.000000e+00 -4.647232e-01  8.854560e-01
   outer loop
     vertex  0.000000e+00 -5.680647e-03  1.332298e-01
     vertex  1.000000e+00 -5.680647e-03  1.332298e-01
     vertex  1.000000e+00 -3.546049e-03  1.343502e-01
   endloop
 endfacet
 facet normal  0.000000e+00 -4.647232e-01  8.854560e-01
   outer loop
     vertex  0.000000e+00 -5.680647e-03  1.332298e-01
     vertex  1.000000e+00 -3.546049e-03  1.343502e-01
     vertex  0.000000e+00 -3.546049e-03  1.343502e-01
   endloop
 endfacet
 facet normal  0.000000e+00 -6.631227e-01  7.485107e-01
   outer loop
     vertex  0.000000e+00 -7.485107e-03  1.316312e-01
     vertex  1.000000e+00 -7.485107e-03  1.316312e-01
     vertex  1.000000e+00 -5.680647e-03  1.332298e-01
   endloop
 endfacet
 facet normal  0.000000e+00 -6.631227e-01  7.485107e-01
   outer loop
     vertex  0.000000e+00 -7.485107e-03  1.316312e-01
     vertex  1.000000e+00 -5.680647e-03  1.332298e-01
     vertex  0.000000e+00 -5.680647e-03  1.332298e-01
   endloop
 endfacet
 facet normal  0.000000e+00 -8.229839e-01  5.680647e-01
   outer loop
     vertex  0.000000e+00 -8.854560e-03  1.296472e-01
     vertex  1.000000e+00 -8.854560e-03  1.296472e-01
     vertex  1.000000e+00 -7.485107e-03  1.316312e-01
   endloop
 endfacet
 facet normal  0.000000e+00 -8.229839e-01  5.680647e-01
   outer loop
     vertex  0.000000e+00 -8.854560e-03  1.296472e-01
     vertex  1.000000e+00 -7.485107e-03  1.316312e-01
     vertex  0.000000e+00 -7.485107e-03  1.316312e-01
   endloop
 endfacet
 facet normal  0.000000e+00 -9.350162e-01  3.546049e-01
   outer loop
     vertex  0.000000e+00 -9.709418e-03  1.273932e-01
     vertex  1.000000e+00 -8.854560e-03  1.296472e-01
     vertex  0.000000e+00 -8.854560e-03  1.296472e-01
   endloop
 endfacet
 facet normal  0.000000e+00 -9.350162e-01  3.546049e-01
   outer loop
     vertex  0.000000e+00 -9.709418e-03  1.273932e-01
     vertex  1.000000e+00 -9.709418e-03  1.273932e-01
     vertex  1.000000e+00 -8.854560e-03  1.296472e-01
   endloop
 endfacet
 facet normal  0.000000e+00 -9.927089e-01  1.205367e-01
   outer loop
     vertex  0.000000e+00 -1.000000e-02  1.250000e-01
     vertex  1.000000e+00 -9.709418e-03  1.273932e-01
     vertex  0.000000e+00 -9.709418e-03  1.273932e-01
   endloop
 endfacet
 facet normal  0.000000e+00 -9.927089e-01  1.205367e-01
   outer loop
     vertex  0.000000e+00 -1.000000e-02  1.250000e-01
     vertex  1.000000e+00 -1.000000e-02  1.250000e-01
     vertex  1.000000e+00 -9.709418e-03  1.273932e-01
   endloop
 endfacet
 facet normal  0.000000e+00 -9.927089e-01 -1.205367e-01
   outer loop
     vertex  0.000000e+00 -9.709418e-03  1.226068e-01
     vertex  1.000000e+00 -9.709418e-03  1.226068e-01
     vertex  1.000000e+00 -1.000000e-02  1.250000e-01
   endloop
 endfacet
 facet normal  0.000000e+00 -9.927089e-01 -1.205367e-01
   outer loop
     vertex  0.000000e+00 -9.709418e-03  1.226068e-01
     vertex  1.000000e+00 -1.000000e-02  1.250000e-01
     vertex  0.000000e+00 -1.000000e-02  1.250000e-01
   endloop
 endfacet
 facet normal  0.000000e+00 -9.350162e-01 -3.546049e-01
   outer loop
     vertex  0.000000e+00 -9.709418e-03  1.226068e-01
     vertex  1.000000e+00 -8.854560e-03  1.203528e-01
     vertex  1.000000e+00 -9.709418e-03  1.226068e-01
   endloop
 endfacet
 facet normal  0.000000e+00 -9.350162e-01 -3.546049e-01
   outer loop
     vertex  0.000000e+00 -8.854560e-03  1.203528e-01
     vertex  1.000000e+00 -8.854560e-03  1.203528e-01
     vertex  0.000000e+00 -9.709418e-03  1.226068e-01
   endloop
 endfacet
 facet normal  0.000000e+00 -8.229839e-01 -5.680647e-01
   outer loop
     vertex  0.000000e+00 -7.485107e-03  1.183688e-01
     vertex  1.000000e+00 -7.485107e-03  1.183688e-01
     vertex  1.000000e+00 -8.854560e-03  1.203528e-01
   endloop
 endfacet
 facet normal  0.000000e+00 -6.631227e-01 -7.485107e-01
   outer loop
     vertex  0.000000e+00 -7.485107e-03  1.183688e-01
     vertex  1.000000e+00 -5.680647e-03  1.167702e-01
     vertex  1.000000e+00 -7.485107e-03  1.183688e-01
   endloop
 endfacet
 facet normal  0.000000e+00 -8.229839e-01 -5.680647e-01
   outer loop
     vertex  0.000000e+00 -7.485107e-03  1.183688e-01
     vertex  1.000000e+00 -8.854560e-03  1.203528e-01
     vertex  0.000000e+00 -8.854560e-03  1.203528e-01
   endloop
 endfacet
 facet normal  0.000000e+00 -6.631227e-01 -7.485107e-01
   outer loop
     vertex  0.000000e+00 -5.680647e-03  1.167702e-01
     vertex  1.000000e+00 -5.680647e-03  1.167702e-01
     vertex  0.000000e+00 -7.485107e-03  1.183688e-01
   endloop
 endfacet
 facet normal  0.000000e+00 -4.647232e-01 -8.854560e-01
   outer loop
     vertex  0.000000e+00 -3.546049e-03  1.156498e-01
     vertex  1.000000e+00 -3.546049e-03  1.156498e-01
     vertex  1.000000e+00 -5.680647e-03  1.167702e-01
   endloop
 endfacet
 facet normal  0.000000e+00 -4.647232e-01 -8.854560e-01
   outer loop
     vertex  0.000000e+00 -3.546049e-03  1.156498e-01
     vertex  1.000000e+00 -5.680647e-03  1.167702e-01
     vertex  0.000000e+00 -5.680647e-03  1.167702e-01
   endloop
 endfacet
 facet normal  0.000000e+00 -2.393157e-01 -9.709418e-01
   outer loop
     vertex  0.000000e+00 -1.205367e-03  1.150729e-01
     vertex  1.000000e+00 -1.205367e-03  1.150729e-01
     vertex  1.000000e+00 -3.546049e-03  1.156498e-01
   endloop
 endfacet
 facet normal  0.000000e+00  0.000000e+00 -1.000000e+00
   outer loop
     vertex  0.000000e+00 -1.205367e-03  1.150729e-01
     vertex  1.000000e+00  1.205367e-03  1.150729e-01
     vertex  1.000000e+00 -1.205367e-03  1.150729e-01
   endloop
 endfacet
 facet normal  0.000000e+00 -2.393157e-01 -9.709418e-01
   outer loop
     vertex  0.000000e+00 -1.205367e-03  1.150729e-01
     vertex  1.000000e+00 -3.546049e-03  1.156498e-01
     vertex  0.000000e+00 -3.546049e-03  1.156498e-01
   endloop
 endfacet
 facet normal  0.000000e+00  0.000000e+00 -1.000000e+00
   outer loop
     vertex  0.000000e+00  1.205367e-03  1.150729e-01
     vertex  1.000000e+00  1.205367e-03  1.150729e-01
     vertex  0.000000e+00 -1.205367e-03  1.150729e-01
   endloop
 endfacet
 facet normal  0.000000e+00  2.393157e-01 -9.709418e-01
   outer loop
     vertex  0.000000e+00  3.546049e-03  1.156498e-01
     vertex  1.000000e+00  3.546049e-03  1.156498e-01
     vertex  1.000000e+00  1.205367e-03  1.150729e-01
   endloop
 endfacet
 facet normal  0.000000e+00  4.647232e-01 -8.854560e-01
   outer loop
     vertex  0.000000e+00  3.546049e-03  1.156498e-01
     vertex  1.000000e+00  5.680647e-03  1.167702e-01
     vertex  1.000000e+00  3.546049e-03  1.156498e-01
   endloop
 endfacet
 facet normal  0.000000e+00  2.393157e-01 -9.709418e-01
   outer loop
     vertex  0.000000e+00  3.546049e-03  1.156498e-01
     vertex  1.000000e+00  1.205367e-03  1.150729e-01
     vertex  0.000000e+00  1.205367e-03  1.150729e-01
   endloop
 endfacet
 facet normal  0.000000e+00  4.647232e-01 -8.854560e-01
   outer loop
     vertex  0.000000e+00  5.680647e-03  1.167702e-01
     vertex  1.000000e+00  5.680647e-03  1.167702e-01
     vertex  0.000000e+00  3.546049e-03  1.156498e-01
   endloop
 endfacet
 facet normal  0.000000e+00  6.631227e-01 -7.485107e-01
   outer loop
     vertex  0.000000e+00  7.485107e-03  1.183688e-01
     vertex  1.000000e+00  7.485107e-03  1.183688e-01
     vertex  1.000000e+00  5.680647e-03  1.167702e-01
   endloop
 endfacet
 facet normal  0.000000e+00  8.229839e-01 -5.680647e-01
   outer loop
     vertex  0.000000e+00  7.485107e-03  1.183688e-01
     vertex  1.000000e+00  8.854560e-03  1.203528e-01
     vertex  1.000000e+00  7.485107e-03  1.183688e-01
   endloop
 endfacet
 facet normal  0.000000e+00  6.631227e-01 -7.485107e-01
   outer loop
     vertex  0.000000e+00  7.485107e-03  1.183688e-01
     vertex  1.000000e+00  5.680647e-03  1.167702e-01
     vertex  0.000000e+00  5.680647e-03  1.167702e-01
   endloop
 endfacet
 facet normal  0.000000e+00  8.229839e-01 -5.680647e-01
   outer loop
     vertex  0.000000e+00  8.854560e-03  1.203528e-01
     vertex  1.000000e+00  8.854560e-03  1.203528e-01
     vertex  0.000000e+00  7.485107e-03  1.183688e-01
   endloop
 endfacet
 facet normal  0.000000e+00  9.350162e-01 -3.546049e-01
   outer loop
     vertex  0.000000e+00  9.709418e-03  1.226068e-01
     vertex  1.000000e+00  9.709418e-03  1.226068e-01
     vertex  1.000000e+00  8.854560e-03  1.203528e-01
   endloop
 endfacet
 facet normal  0.000000e+00  9.350162e-01 -3.546049e-01
   outer loop
     vertex  0.000000e+00  9.709418e-03  1.226068e-01
     vertex  1.000000e+00  8.854560e-03  1.203528e-01
     vertex  0.000000e+00  8.854560e-03  1.203528e-01
   endloop
 endfacet
 facet normal  0.000000e+00  9.927089e-01 -1.205367e-01
   outer loop
     vertex  0.000000e+00  1.000000e-02  1.250000e-01
     vertex  1.000000e+00  1.000000e-02  1.250000e-01
     vertex  1.000000e+00  9.709418e-03  1.226068e-01
   endloop
 endfacet
 facet normal  0.000000e+00  9.927089e-01 -1.205367e-01
   outer loop
     vertex  0.000000e+00  1.000000e-02  1.250000e-01
     vertex  1.000000e+00  9.709418e-03  1.226068e-01
     vertex  0.000000e+00  9.709418e-03  1.226068e-01
   endloop
 endfacet
 facet normal -1.000000e+00  0.000000e+00  0.000000e+00
   outer loop
     vertex  0.000000e+00  7.485107e-03  1.316312e-01
     vertex  0.000000e+00  9.709418e-03  1.273932e-01
     vertex  0.000000e+00  1.000000e-02  1.250000e-01
   endloop
 endfacet
 facet normal -1.000000e+00  0.000000e+00  0.000000e+00
   outer loop
     vertex  0.000000e+00  7.485107e-03  1.316312e-01
     vertex  0.000000e+00  8.854560e-03  1.296472e-01
     vertex  0.000000e+00  9.709418e-03  1.273932e-01
   endloop
 endfacet
 facet normal -1.000000e+00  0.000000e+00  0.000000e+00
   outer loop
     vertex  0.000000e+00  7.485107e-03  1.316312e-01
     vertex  0.000000e+00  3.546049e-03  1.343502e-01
     vertex  0.000000e+00  5.680647e-03  1.332298e-01
   endloop
 endfacet
 facet normal -1.000000e+00  0.000000e+00  0.000000e+00
   outer loop
     vertex  0.000000e+00  7.485107e-03  1.316312e-01
     vertex  0.000000e+00  1.205367e-03  1.349271e-01
     vertex  0.000000e+00  3.546049e-03  1.343502e-01
   endloop
 endfacet
 facet normal -1.000000e+00  0.000000e+00  0.000000e+00
   outer loop
     vertex  0.000000e+00  7.485107e-03  1.316312e-01
     vertex  0.000000e+00 -1.205367e-03  1.349271e-01
     vertex  0.000000e+00  1.205367e-03  1.349271e-01
   endloop
 endfacet
 facet normal -1.000000e+00  0.000000e+00  0.000000e+00
   outer loop
     vertex  0.000000e+00  7.485107e-03  1.316312e-01
     vertex  0.000000e+00 -3.546049e-03  1.343502e-01
     vertex  0.000000e+00 -1.205367e-03  1.349271e-01
   endloop
 endfacet
 facet normal -1.000000e+00  0.000000e+00  0.000000e+00
   outer loop
     vertex  0.000000e+00  7.485107e-03  1.316312e-01
     vertex  0.000000e+00 -5.680647e-03  1.332298e-01
     vertex  0.000000e+00 -3.546049e-03  1.343502e-01
   endloop
 endfacet
 facet normal -1.000000e+00  0.000000e+00  0.000000e+00
   outer loop
     vertex  0.000000e+00  7.485107e-03  1.316312e-01
     vertex  0.000000e+00 -7.485107e-03  1.316312e-01
     vertex  0.000000e+00 -5.680647e-03  1.332298e-01
   endloop
 endfacet
 facet normal -1.000000e+00 -0.000000e+00  0.000000e+00
   outer loop
     vertex  0.000000e+00  7.485107e-03  1.316312e-01
     vertex  0.000000e+00 -8.854560e-03  1.296472e-01
     vertex  0.000000e+00 -7.485107e-03  1.316312e-01
   endloop
 endfacet
 facet normal -1.000000e+00  0.000000e+00  0.000000e+00
   outer loop
     vertex  0.000000e+00  7.485107e-03  1.316312e-01
     vertex  0.000000e+00 -9.709418e-03  1.273932e-01
     vertex  0.000000e+00 -8.854560e-03  1.296472e-01
   endloop
 endfacet
 facet normal -1.000000e+00  0.000000e+00  0.000000e+00
   outer loop
     vertex  0.000000e+00  7.485107e-03  1.316312e-01
     vertex  0.000000e+00 -1.000000e-02  1.250000e-01
     vertex  0.000000e+00 -9.709418e-03  1.273932e-01
   endloop
 endfacet
 facet normal -1.000000e+00  0.000000e+00  0.000000e+00
   outer loop
     vertex  0.000000e+00  7.485107e-03  1.316312e-01
     vertex  0.000000e+00 -9.709418e-03  1.226068e-01
     vertex  0.000000e+00 -1.000000e-02  1.250000e-01
   endloop
 endfacet
 facet normal -1.000000e+00  0.000000e+00  0.000000e+00
   outer loop
     vertex  0.000000e+00  7.485107e-03  1.316312e-01
     vertex  0.000000e+00 -8.854560e-03  1.203528e-01
     vertex  0.000000e+00 -9.709418e-03  1.226068e-01
   endloop
 endfacet
 facet normal -1.000000e+00  0.000000e+00  0.000000e+00
   outer loop
     vertex  0.000000e+00  7.485107e-03  1.316312e-01
     vertex  0.000000e+00 -7.485107e-03  1.183688e-01
     vertex  0.000000e+00 -8.854560e-03  1.203528e-01
   endloop
 endfacet
 facet normal -1.000000e+00  0.000000e+00  0.000000e+00
   outer loop
     vertex  0.000000e+00  7.485107e-03  1.316312e-01
     vertex  0.000000e+00 -5.680647e-03  1.167702e-01
     vertex  0.000000e+00 -7.485107e-03  1.183688e-01
   endloop
 endfacet
 facet normal -1.000000e+00  0.000000e+00  0.000000e+00
   outer loop
     vertex  0.000000e+00  7.485107e-03  1.316312e-01
     vertex  0.000000e+00 -3.546049e-03  1.156498e-01
     vertex  0.000000e+00 -5.680647e-03  1.167702e-01
   endloop
 endfacet
 facet normal -1.000000e+00  0.000000e+00  0.000000e+00
   outer loop
     vertex  0.000000e+00  7.485107e-03  1.316312e-01
     vertex  0.000000e+00 -1.205367e-03  1.150729e-01
     vertex  0.000000e+00 -3.546049e-03  1.156498e-01
   endloop
 endfacet
 facet normal -1.000000e+00  0.000000e+00  0.000000e+00
   outer loop
     vertex  0.000000e+00  7.485107e-03  1.316312e-01
     vertex  0.000000e+00  1.205367e-03  1.150729e-01
     vertex  0.000000e+00 -1.205367e-03  1.150729e-01
   endloop
 endfacet
 facet normal -1.000000e+00  0.000000e+00  0.000000e+00
   outer loop
     vertex  0.000000e+00  7.485107e-03  1.316312e-01
     vertex  0.000000e+00  3.546049e-03  1.156498e-01
     vertex  0.000000e+00  1.205367e-03  1.150729e-01
   endloop
 endfacet
 facet normal -1.000000e+00  0.000000e+00  0.000000e+00
   outer loop
     vertex  0.000000e+00  7.485107e-03  1.316312e-01
     vertex  0.000000e+00  5.680647e-03  1.167702e-01
     vertex  0.000000e+00  3.546049e-03  1.156498e-01
   endloop
 endfacet
 facet normal -1.000000e+00  0.000000e+00  0.000000e+00
   outer loop
     vertex  0.000000e+00  7.485107e-03  1.316312e-01
     vertex  0.000000e+00  7.485107e-03  1.183688e-01
     vertex  0.000000e+00  5.680647e-03  1.167702e-01
   endloop
 endfacet
 facet normal -1.000000e+00  0.000000e+00 -0.000000e+00
   outer loop
     vertex  0.000000e+00  7.485107e-03  1.316312e-01
     vertex  0.000000e+00  8.854560e-03  1.203528e-01
     vertex  0.000000e+00  7.485107e-03  1.183688e-01
   endloop
 endfacet
 facet normal -1.000000e+00  0.000000e+00  0.000000e+00
   outer loop
     vertex  0.000000e+00  7.485107e-03  1.316312e-01
     vertex  0.000000e+00  9.709418e-03  1.226068e-01
     vertex  0.000000e+00  8.854560e-03  1.203528e-01
   endloop
 endfacet
 facet normal -1.000000e+00  0.000000e+00  0.000000e+00
   outer loop
     vertex  0.000000e+00  7.485107e-03  1.316312e-01
     vertex  0.000000e+00  1.000000e-02  1.250000e-01
     vertex  0.000000e+00  9.709418e-03  1.226068e-01
   endloop
 endfacet
 facet normal  1.000000e+00  0.000000e+00  0.000000e+00
   outer loop
     vertex  1.000000e+00  7.485107e-03  1.316312e-01
     vertex  1.000000e+00  1.000000e-02  1.250000e-01
     vertex  1.000000e+00  9.709418e-03  1.273932e-01
   endloop
 endfacet
 facet normal  1.000000e+00  0.000000e+00  0.000000e+00
   outer loop
     vertex  1.000000e+00  7.485107e-03  1.316312e-01
     vertex  1.000000e+00  9.709418e-03  1.273932e-01
     vertex  1.000000e+00  8.854560e-03  1.296472e-01
   endloop
 endfacet
 facet normal  1.000000e+00  0.000000e+00  0.000000e+00
   outer loop
     vertex  1.000000e+00  7.485107e-03  1.316312e-01
     vertex  1.000000e+00  5.680647e-03  1.332298e-01
     vertex  1.000000e+00  3.546049e-03  1.343502e-01
   endloop
 endfacet
 facet normal  1.000000e+00  0.000000e+00  0.000000e+00
   outer loop
     vertex  1.000000e+00  7.485107e-03  1.316312e-01
     vertex  1.000000e+00  3.546049e-03  1.343502e-01
     vertex  1.000000e+00  1.205367e-03  1.349271e-01
   endloop
 endfacet
 facet normal  1.000000e+00  0.000000e+00  0.000000e+00
   outer loop
     vertex  1.000000e+00  7.485107e-03  1.316312e-01
     vertex  1.000000e+00  1.205367e-03  1.349271e-01
     vertex  1.000000e+00 -1.205367e-03  1.349271e-01
   endloop
 endfacet
 facet normal  1.000000e+00  0.000000e+00  0.000000e+00
   outer loop
     vertex  1.000000e+00  7.485107e-03  1.316312e-01
     vertex  1.000000e+00 -1.205367e-03  1.349271e-01
     vertex  1.000000e+00 -3.546049e-03  1.343502e-01
   endloop
 endfacet
 facet normal  1.000000e+00  0.000000e+00  0.000000e+00
   outer loop
     vertex  1.000000e+00  7.485107e-03  1.316312e-01
     vertex  1.000000e+00 -3.546049e-03  1.343502e-01
     vertex  1.000000e+00 -5.680647e-03  1.332298e-01
   endloop
 endfacet
 facet normal  1.000000e+00  0.000000e+00  0.000000e+00
   outer loop
     vertex  1.000000e+00  7.485107e-03  1.316312e-01
     vertex  1.000000e+00 -5.680647e-03  1.332298e-01
     vertex  1.000000e+00 -7.485107e-03  1.316312e-01
   endloop
 endfacet
 facet normal  1.000000e+00  0.000000e+00  0.000000e+00
   outer loop
     vertex  1.000000e+00  7.485107e-03  1.316312e-01
     vertex  1.000000e+00 -7.485107e-03  1.316312e-01
     vertex  1.000000e+00 -8.854560e-03  1.296472e-01
   endloop
 endfacet
 facet normal  1.000000e+00  0.000000e+00  0.000000e+00
   outer loop
     vertex  1.000000e+00  7.485107e-03  1.316312e-01
     vertex  1.000000e+00 -8.854560e-03  1.296472e-01
     vertex  1.000000e+00 -9.709418e-03  1.273932e-01
   endloop
 endfacet
 facet normal  1.000000e+00  0.000000e+00  0.000000e+00
   outer loop
     vertex  1.000000e+00  7.485107e-03  1.316312e-01
     vertex  1.000000e+00 -9.709418e-03  1.273932e-01
     vertex  1.000000e+00 -1.000000e-02  1.250000e-01
   endloop
 endfacet
 facet normal  1.000000e+00  0.000000e+00  0.000000e+00
   outer loop
     vertex  1.000000e+00  7.485107e-03  1.316312e-01
     vertex  1.000000e+00 -1.000000e-02  1.250000e-01
     vertex  1.000000e+00 -9.709418e-03  1.226068e-01
   endloop
 endfacet
 facet normal  1.000000e+00  0.000000e+00  0.000000e+00
   outer loop
     vertex  1.000000e+00  7.485107e-03  1.316312e-01
     vertex  1.000000e+00 -9.709418e-03  1.226068e-01
     vertex  1.000000e+00 -8.854560e-03  1.203528e-01
   endloop
 endfacet
 facet normal  1.000000e+00  0.000000e+00  0.000000e+00
   outer loop
     vertex  1.000000e+00  7.485107e-03  1.316312e-01
     vertex  1.000000e+00 -8.854560e-03  1.203528e-01
     vertex  1.000000e+00 -7.485107e-03  1.183688e-01
   endloop
 endfacet
 facet normal  1.000000e+00  0.000000e+00  0.000000e+00
   outer loop
     vertex  1.000000e+00  7.485107e-03  1.316312e-01
     vertex  1.000000e+00 -7.485107e-03  1.183688e-01
     vertex  1.000000e+00 -5.680647e-03  1.167702e-01
   endloop
 endfacet
 facet normal  1.000000e+00  0.000000e+00  0.000000e+00
   outer loop
     vertex  1.000000e+00  7.485107e-03  1.316312e-01
     vertex  1.000000e+00 -5.680647e-03  1.167702e-01
     vertex  1.000000e+00 -3.546049e-03  1.156498e-01
   endloop
 endfacet
 facet normal  1.000000e+00  0.000000e+00  0.000000e+00
   outer loop
     vertex  1.000000e+00  7.485107e-03  1.316312e-01
     vertex  1.000000e+00 -3.546049e-03  1.156498e-01
     vertex  1.000000e+00 -1.205367e-03  1.150729e-01
   endloop
 endfacet
 facet normal  1.000000e+00  0.000000e+00  0.000000e+00
   outer loop
     vertex  1.000000e+00  7.485107e-03  1.316312e-01
     vertex  1.000000e+00 -1.205367e-03  1.150729e-01
     vertex  1.000000e+00  1.205367e-03  1.150729e-01
   endloop
 endfacet
 facet normal  1.000000e+00  0.000000e+00  0.000000e+00
   outer loop
     vertex  1.000000e+00  7.485107e-03  1.316312e-01
     vertex  1.000000e+00  1.205367e-03  1.150729e-01
     vertex  1.000000e+00  3.546049e-03  1.156498e-01
   endloop
 endfacet
 facet normal  1.000000e+00  0.000000e+00  0.000000e+00
   outer loop
     vertex  1.000000e+00  7.485107e-03  1.316312e-01
     vertex  1.000000e+00  3.546049e-03  1.156498e-01
     vertex  1.000000e+00  5.680647e-03  1.167702e-01
   endloop
 endfacet
 facet normal  1.000000e+00  0.000000e+00  0.000000e+00
   outer loop
     vertex  1.000000e+00  7.485107e-03  1.316312e-01
     vertex  1.000000e+00  5.680647e-03  1.167702e-01
     vertex  1.000000e+00  7.485107e-03  1.183688e-01
   endloop
 endfacet
 facet normal  1.000000e+00  0.000000e+00  0.000000e+00
   outer loop
     vertex  1.000000e+00  7.485107e-03  1.316312e-01
     vertex  1.000000e+00  7.485107e-03  1.183688e-01
     vertex  1.000000e+00  8.854560e-03  1.203528e-01
   endloop
 endfacet
 facet normal  1.000000e+00  0.000000e+00  0.000000e+00
   outer loop
     vertex  1.000000e+00  7.485107e-03  1.316312e-01
     vertex  1.000000e+00  8.854560e-03  1.203528e-01
     vertex  1.000000e+00  9.709418e-03  1.226068e-01
   endloop
 endfacet
 facet normal  1.000000e+00  0.000000e+00  0.000000e+00
   outer loop
     vertex  1.000000e+00  7.485107e-03  1.316312e-01
     vertex  1.000000e+00  9.709418e-03  1.226068e-01
     vertex  1.000000e+00  1.000000e-02  1.250000e-01
   endloop
 endfacet
endsolid
