solid 
 facet normal -4.327425e-02 -9.990632e-01  0.000000e+00
   outer loop
     vertex  1.211766e-03 -1.495097e-02  0.000000e+00
     vertex -2.500000e-03 -1.479020e-02  1.000000e+00
     vertex -2.500000e-03 -1.479020e-02  0.000000e+00
   endloop
 endfacet
 facet normal -4.327425e-02 -9.990632e-01  0.000000e+00
   outer loop
     vertex  1.211766e-03 -1.495097e-02  0.000000e+00
     vertex  1.211766e-03 -1.495097e-02  1.000000e+00
     vertex -2.500000e-03 -1.479020e-02  1.000000e+00
   endloop
 endfacet
 facet normal  2.035993e-01 -9.790543e-01  0.000000e+00
   outer loop
     vertex  4.849195e-03 -1.419455e-02  0.000000e+00
     vertex  4.849195e-03 -1.419455e-02  1.000000e+00
     vertex  1.211766e-03 -1.495097e-02  1.000000e+00
   endloop
 endfacet
 facet normal  2.035993e-01 -9.790543e-01  0.000000e+00
   outer loop
     vertex  4.849195e-03 -1.419455e-02  0.000000e+00
     vertex  1.211766e-03 -1.495097e-02  1.000000e+00
     vertex  1.211766e-03 -1.495097e-02  0.000000e+00
   endloop
 endfacet
 facet normal  4.379827e-01 -8.989834e-01  0.000000e+00
   outer loop
     vertex  8.189140e-03 -1.256734e-02  0.000000e+00
     vertex  8.189140e-03 -1.256734e-02  1.000000e+00
     vertex  4.849195e-03 -1.419455e-02  1.000000e+00
   endloop
 endfacet
 facet normal  4.379827e-01 -8.989834e-01  0.000000e+00
   outer loop
     vertex  8.189140e-03 -1.256734e-02  0.000000e+00
     vertex  4.849195e-03 -1.419455e-02  1.000000e+00
     vertex  4.849195e-03 -1.419455e-02  0.000000e+00
   endloop
 endfacet
 facet normal  6.454972e-01 -7.637626e-01  0.000000e+00
   outer loop
     vertex  1.102671e-02 -1.016916e-02  0.000000e+00
     vertex  1.102671e-02 -1.016916e-02  1.000000e+00
     vertex  8.189140e-03 -1.256734e-02  1.000000e+00
   endloop
 endfacet
 facet normal  6.454972e-01 -7.637626e-01  0.000000e+00
   outer loop
     vertex  1.102671e-02 -1.016916e-02  0.000000e+00
     vertex  8.189140e-03 -1.256734e-02  1.000000e+00
     vertex  8.189140e-03 -1.256734e-02  0.000000e+00
   endloop
 endfacet
 facet normal  8.134125e-01 -5.816874e-01  0.000000e+00
   outer loop
     vertex  1.318782e-02 -7.147129e-03  0.000000e+00
     vertex  1.318782e-02 -7.147129e-03  1.000000e+00
     vertex  1.102671e-02 -1.016916e-02  1.000000e+00
   endloop
 endfacet
 facet normal  8.134125e-01 -5.816874e-01  0.000000e+00
   outer loop
     vertex  1.318782e-02 -7.147129e-03  0.000000e+00
     vertex  1.102671e-02 -1.016916e-02  1.000000e+00
     vertex  1.102671e-02 -1.016916e-02  0.000000e+00
   endloop
 endfacet
 facet normal  9.314273e-01 -3.639274e-01  0.000000e+00
   outer loop
     vertex  1.453990e-02 -3.686647e-03  0.000000e+00
     vertex  1.453990e-02 -3.686647e-03  1.000000e+00
     vertex  1.318782e-02 -7.147129e-03  1.000000e+00
   endloop
 endfacet
 facet normal  9.314273e-01 -3.639274e-01  0.000000e+00
   outer loop
     vertex  1.453990e-02 -3.686647e-03  0.000000e+00
     vertex  1.318782e-02 -7.147129e-03  1.000000e+00
     vertex  1.318782e-02 -7.147129e-03  0.000000e+00
   endloop
 endfacet
 facet normal  9.923020e-01 -1.238416e-01  0.000000e+00
   outer loop
     vertex  1.500000e-02  0.000000e+00  0.000000e+00
     vertex  1.500000e-02  0.000000e+00  1.000000e+00
     vertex  1.453990e-02 -3.686647e-03  1.000000e+00
   endloop
 endfacet
 facet normal  9.923020e-01 -1.238416e-01  0.000000e+00
   outer loop
     vertex  1.500000e-02  0.000000e+00  0.000000e+00
     vertex  1.453990e-02 -3.686647e-03  1.000000e+00
     vertex  1.453990e-02 -3.686647e-03  0.000000e+00
   endloop
 endfacet
 facet normal  4.327425e-02  9.990632e-01  0.000000e+00
   outer loop
     vertex -6.211766e-03  1.495097e-02  0.000000e+00
     vertex -2.500000e-03  1.479020e-02  1.000000e+00
     vertex -2.500000e-03  1.479020e-02  0.000000e+00
   endloop
 endfacet
 facet normal  4.327425e-02  9.990632e-01 -0.000000e+00
   outer loop
     vertex -6.211766e-03  1.495097e-02  0.000000e+00
     vertex -6.211766e-03  1.495097e-02  1.000000e+00
     vertex -2.500000e-03  1.479020e-02  1.000000e+00
   endloop
 endfacet
 facet normal -2.035993e-01  9.790543e-01  0.000000e+00
   outer loop
     vertex -9.849195e-03  1.419455e-02  0.000000e+00
     vertex -9.849195e-03  1.419455e-02  1.000000e+00
     vertex -6.211766e-03  1.495097e-02  1.000000e+00
   endloop
 endfacet
 facet normal -2.035993e-01  9.790543e-01  0.000000e+00
   outer loop
     vertex -9.849195e-03  1.419455e-02  0.000000e+00
     vertex -6.211766e-03  1.495097e-02  1.000000e+00
     vertex -6.211766e-03  1.495097e-02  0.000000e+00
   endloop
 endfacet
 facet normal -4.379827e-01  8.989834e-01  0.000000e+00
   outer loop
     vertex -1.318914e-02  1.256734e-02  0.000000e+00
     vertex -1.318914e-02  1.256734e-02  1.000000e+00
     vertex -9.849195e-03  1.419455e-02  1.000000e+00
   endloop
 endfacet
 facet normal -4.379827e-01  8.989834e-01  0.000000e+00
   outer loop
     vertex -1.318914e-02  1.256734e-02  0.000000e+00
     vertex -9.849195e-03  1.419455e-02  1.000000e+00
     vertex -9.849195e-03  1.419455e-02  0.000000e+00
   endloop
 endfacet
 facet normal -6.454972e-01  7.637626e-01  0.000000e+00
   outer loop
     vertex -1.602671e-02  1.016916e-02  0.000000e+00
     vertex -1.602671e-02  1.016916e-02  1.000000e+00
     vertex -1.318914e-02  1.256734e-02  1.000000e+00
   endloop
 endfacet
 facet normal -6.454972e-01  7.637626e-01  0.000000e+00
   outer loop
     vertex -1.602671e-02  1.016916e-02  0.000000e+00
     vertex -1.318914e-02  1.256734e-02  1.000000e+00
     vertex -1.318914e-02  1.256734e-02  0.000000e+00
   endloop
 endfacet
 facet normal -8.134125e-01  5.816874e-01  0.000000e+00
   outer loop
     vertex -1.818782e-02  7.147129e-03  0.000000e+00
     vertex -1.818782e-02  7.147129e-03  1.000000e+00
     vertex -1.602671e-02  1.016916e-02  1.000000e+00
   endloop
 endfacet
 facet normal -8.134125e-01  5.816874e-01  0.000000e+00
   outer loop
     vertex -1.818782e-02  7.147129e-03  0.000000e+00
     vertex -1.602671e-02  1.016916e-02  1.000000e+00
     vertex -1.602671e-02  1.016916e-02  0.000000e+00
   endloop
 endfacet
 facet normal -9.314273e-01  3.639274e-01  0.000000e+00
   outer loop
     vertex -1.953990e-02  3.686647e-03  0.000000e+00
     vertex -1.953990e-02  3.686647e-03  1.000000e+00
     vertex -1.818782e-02  7.147129e-03  1.000000e+00
   endloop
 endfacet
 facet normal -9.314273e-01  3.639274e-01  0.000000e+00
   outer loop
     vertex -1.953990e-02  3.686647e-03  0.000000e+00
     vertex -1.818782e-02  7.147129e-03  1.000000e+00
     vertex -1.818782e-02  7.147129e-03  0.000000e+00
   endloop
 endfacet
 facet normal -9.923020e-01  1.238416e-01  0.000000e+00
   outer loop
     vertex -2.000000e-02  1.836970e-18  0.000000e+00
     vertex -2.000000e-02  1.836970e-18  1.000000e+00
     vertex -1.953990e-02  3.686647e-03  1.000000e+00
   endloop
 endfacet
 facet normal -9.923020e-01  1.238416e-01  0.000000e+00
   outer loop
     vertex -2.000000e-02  1.836970e-18  0.000000e+00
     vertex -1.953990e-02  3.686647e-03  1.000000e+00
     vertex -1.953990e-02  3.686647e-03  0.000000e+00
   endloop
 endfacet
 facet normal -9.923020e-01 -1.238416e-01  0.000000e+00
   outer loop
     vertex -1.953990e-02 -3.686647e-03  0.000000e+00
     vertex -1.953990e-02 -3.686647e-03  1.000000e+00
     vertex -2.000000e-02  1.836970e-18  1.000000e+00
   endloop
 endfacet
 facet normal -9.923020e-01 -1.238416e-01  0.000000e+00
   outer loop
     vertex -1.953990e-02 -3.686647e-03  0.000000e+00
     vertex -2.000000e-02  1.836970e-18  1.000000e+00
     vertex -2.000000e-02  1.836970e-18  0.000000e+00
   endloop
 endfacet
 facet normal -9.314273e-01 -3.639274e-01  0.000000e+00
   outer loop
     vertex -1.818782e-02 -7.147129e-03  0.000000e+00
     vertex -1.818782e-02 -7.147129e-03  1.000000e+00
     vertex -1.953990e-02 -3.686647e-03  1.000000e+00
   endloop
 endfacet
 facet normal -9.314273e-01 -3.639274e-01  0.000000e+00
   outer loop
     vertex -1.818782e-02 -7.147129e-03  0.000000e+00
     vertex -1.953990e-02 -3.686647e-03  1.000000e+00
     vertex -1.953990e-02 -3.686647e-03  0.000000e+00
   endloop
 endfacet
 facet normal -8.134125e-01 -5.816874e-01  0.000000e+00
   outer loop
     vertex -1.602671e-02 -1.016916e-02  0.000000e+00
     vertex -1.602671e-02 -1.016916e-02  1.000000e+00
     vertex -1.818782e-02 -7.147129e-03  1.000000e+00
   endloop
 endfacet
 facet normal -8.134125e-01 -5.816874e-01  0.000000e+00
   outer loop
     vertex -1.602671e-02 -1.016916e-02  0.000000e+00
     vertex -1.818782e-02 -7.147129e-03  1.000000e+00
     vertex -1.818782e-02 -7.147129e-03  0.000000e+00
   endloop
 endfacet
 facet normal -6.454972e-01 -7.637626e-01  0.000000e+00
   outer loop
     vertex -1.318914e-02 -1.256734e-02  0.000000e+00
     vertex -1.318914e-02 -1.256734e-02  1.000000e+00
     vertex -1.602671e-02 -1.016916e-02  1.000000e+00
   endloop
 endfacet
 facet normal -6.454972e-01 -7.637626e-01  0.000000e+00
   outer loop
     vertex -1.318914e-02 -1.256734e-02  0.000000e+00
     vertex -1.602671e-02 -1.016916e-02  1.000000e+00
     vertex -1.602671e-02 -1.016916e-02  0.000000e+00
   endloop
 endfacet
 facet normal -4.379827e-01 -8.989834e-01  0.000000e+00
   outer loop
     vertex -9.849195e-03 -1.419455e-02  0.000000e+00
     vertex -9.849195e-03 -1.419455e-02  1.000000e+00
     vertex -1.318914e-02 -1.256734e-02  1.000000e+00
   endloop
 endfacet
 facet normal -4.379827e-01 -8.989834e-01  0.000000e+00
   outer loop
     vertex -9.849195e-03 -1.419455e-02  0.000000e+00
     vertex -1.318914e-02 -1.256734e-02  1.000000e+00
     vertex -1.318914e-02 -1.256734e-02  0.000000e+00
   endloop
 endfacet
 facet normal -2.035993e-01 -9.790543e-01  0.000000e+00
   outer loop
     vertex -6.211766e-03 -1.495097e-02  0.000000e+00
     vertex -6.211766e-03 -1.495097e-02  1.000000e+00
     vertex -9.849195e-03 -1.419455e-02  1.000000e+00
   endloop
 endfacet
 facet normal -2.035993e-01 -9.790543e-01  0.000000e+00
   outer loop
     vertex -6.211766e-03 -1.495097e-02  0.000000e+00
     vertex -9.849195e-03 -1.419455e-02  1.000000e+00
     vertex -9.849195e-03 -1.419455e-02  0.000000e+00
   endloop
 endfacet
 facet normal  4.327425e-02 -9.990632e-01  0.000000e+00
   outer loop
     vertex -2.500000e-03 -1.479020e-02  0.000000e+00
     vertex -2.500000e-03 -1.479020e-02  1.000000e+00
     vertex -6.211766e-03 -1.495097e-02  1.000000e+00
   endloop
 endfacet
 facet normal  4.327425e-02 -9.990632e-01  0.000000e+00
   outer loop
     vertex -2.500000e-03 -1.479020e-02  0.000000e+00
     vertex -6.211766e-03 -1.495097e-02  1.000000e+00
     vertex -6.211766e-03 -1.495097e-02  0.000000e+00
   endloop
 endfacet
 facet normal  9.923020e-01  1.238416e-01  0.000000e+00
   outer loop
     vertex  1.453990e-02  3.686647e-03  0.000000e+00
     vertex  1.500000e-02  0.000000e+00  1.000000e+00
     vertex  1.500000e-02  0.000000e+00  0.000000e+00
   endloop
 endfacet
 facet normal  9.923020e-01  1.238416e-01 -0.000000e+00
   outer loop
     vertex  1.453990e-02  3.686647e-03  0.000000e+00
     vertex  1.453990e-02  3.686647e-03  1.000000e+00
     vertex  1.500000e-02  0.000000e+00  1.000000e+00
   endloop
 endfacet
 facet normal  9.314273e-01  3.639274e-01 -0.000000e+00
   outer loop
     vertex  1.318782e-02  7.147129e-03  0.000000e+00
     vertex  1.318782e-02  7.147129e-03  1.000000e+00
     vertex  1.453990e-02  3.686647e-03  1.000000e+00
   endloop
 endfacet
 facet normal  9.314273e-01  3.639274e-01  0.000000e+00
   outer loop
     vertex  1.318782e-02  7.147129e-03  0.000000e+00
     vertex  1.453990e-02  3.686647e-03  1.000000e+00
     vertex  1.453990e-02  3.686647e-03  0.000000e+00
   endloop
 endfacet
 facet normal  8.134125e-01  5.816874e-01 -0.000000e+00
   outer loop
     vertex  1.102671e-02  1.016916e-02  0.000000e+00
     vertex  1.102671e-02  1.016916e-02  1.000000e+00
     vertex  1.318782e-02  7.147129e-03  1.000000e+00
   endloop
 endfacet
 facet normal  8.134125e-01  5.816874e-01  0.000000e+00
   outer loop
     vertex  1.102671e-02  1.016916e-02  0.000000e+00
     vertex  1.318782e-02  7.147129e-03  1.000000e+00
     vertex  1.318782e-02  7.147129e-03  0.000000e+00
   endloop
 endfacet
 facet normal  6.454972e-01  7.637626e-01 -0.000000e+00
   outer loop
     vertex  8.189140e-03  1.256734e-02  0.000000e+00
     vertex  8.189140e-03  1.256734e-02  1.000000e+00
     vertex  1.102671e-02  1.016916e-02  1.000000e+00
   endloop
 endfacet
 facet normal  6.454972e-01  7.637626e-01  0.000000e+00
   outer loop
     vertex  8.189140e-03  1.256734e-02  0.000000e+00
     vertex  1.102671e-02  1.016916e-02  1.000000e+00
     vertex  1.102671e-02  1.016916e-02  0.000000e+00
   endloop
 endfacet
 facet normal  4.379827e-01  8.989834e-01 -0.000000e+00
   outer loop
     vertex  4.849195e-03  1.419455e-02  0.000000e+00
     vertex  4.849195e-03  1.419455e-02  1.000000e+00
     vertex  8.189140e-03  1.256734e-02  1.000000e+00
   endloop
 endfacet
 facet normal  4.379827e-01  8.989834e-01  0.000000e+00
   outer loop
     vertex  4.849195e-03  1.419455e-02  0.000000e+00
     vertex  8.189140e-03  1.256734e-02  1.000000e+00
     vertex  8.189140e-03  1.256734e-02  0.000000e+00
   endloop
 endfacet
 facet normal  2.035993e-01  9.790543e-01 -0.000000e+00
   outer loop
     vertex  1.211766e-03  1.495097e-02  0.000000e+00
     vertex  1.211766e-03  1.495097e-02  1.000000e+00
     vertex  4.849195e-03  1.419455e-02  1.000000e+00
   endloop
 endfacet
 facet normal  2.035993e-01  9.790543e-01  0.000000e+00
   outer loop
     vertex  1.211766e-03  1.495097e-02  0.000000e+00
     vertex  4.849195e-03  1.419455e-02  1.000000e+00
     vertex  4.849195e-03  1.419455e-02  0.000000e+00
   endloop
 endfacet
 facet normal -4.327425e-02  9.990632e-01  0.000000e+00
   outer loop
     vertex -2.500000e-03  1.479020e-02  0.000000e+00
     vertex -2.500000e-03  1.479020e-02  1.000000e+00
     vertex  1.211766e-03  1.495097e-02  1.000000e+00
   endloop
 endfacet
 facet normal -4.327425e-02  9.990632e-01  0.000000e+00
   outer loop
     vertex -2.500000e-03  1.479020e-02  0.000000e+00
     vertex  1.211766e-03  1.495097e-02  1.000000e+00
     vertex  1.211766e-03  1.495097e-02  0.000000e+00
   endloop
 endfacet
 facet normal -4.327425e-02 -9.990632e-01  0.000000e+00
   outer loop
     vertex  1.211766e-03 -1.495097e-02  0.000000e+00
     vertex -2.500000e-03 -1.479020e-02  0.000000e+00
     vertex -2.500000e-03 -1.479020e-02 -1.000000e+00
   endloop
 endfacet
 facet normal -4.327425e-02 -9.990632e-01 -0.000000e+00
   outer loop
     vertex  1.211766e-03 -1.495097e-02  0.000000e+00
     vertex -2.500000e-03 -1.479020e-02 -1.000000e+00
     vertex  1.211766e-03 -1.495097e-02 -1.000000e+00
   endloop
 endfacet
 facet normal  2.035993e-01 -9.790543e-01  0.000000e+00
   outer loop
     vertex  4.849195e-03 -1.419455e-02  0.000000e+00
     vertex  1.211766e-03 -1.495097e-02 -1.000000e+00
     vertex  4.849195e-03 -1.419455e-02 -1.000000e+00
   endloop
 endfacet
 facet normal  2.035993e-01 -9.790543e-01  0.000000e+00
   outer loop
     vertex  4.849195e-03 -1.419455e-02  0.000000e+00
     vertex  1.211766e-03 -1.495097e-02  0.000000e+00
     vertex  1.211766e-03 -1.495097e-02 -1.000000e+00
   endloop
 endfacet
 facet normal  4.379827e-01 -8.989834e-01  0.000000e+00
   outer loop
     vertex  8.189140e-03 -1.256734e-02  0.000000e+00
     vertex  4.849195e-03 -1.419455e-02 -1.000000e+00
     vertex  8.189140e-03 -1.256734e-02 -1.000000e+00
   endloop
 endfacet
 facet normal  4.379827e-01 -8.989834e-01  0.000000e+00
   outer loop
     vertex  8.189140e-03 -1.256734e-02  0.000000e+00
     vertex  4.849195e-03 -1.419455e-02  0.000000e+00
     vertex  4.849195e-03 -1.419455e-02 -1.000000e+00
   endloop
 endfacet
 facet normal  6.454972e-01 -7.637626e-01  0.000000e+00
   outer loop
     vertex  1.102671e-02 -1.016916e-02  0.000000e+00
     vertex  8.189140e-03 -1.256734e-02 -1.000000e+00
     vertex  1.102671e-02 -1.016916e-02 -1.000000e+00
   endloop
 endfacet
 facet normal  6.454972e-01 -7.637626e-01  0.000000e+00
   outer loop
     vertex  1.102671e-02 -1.016916e-02  0.000000e+00
     vertex  8.189140e-03 -1.256734e-02  0.000000e+00
     vertex  8.189140e-03 -1.256734e-02 -1.000000e+00
   endloop
 endfacet
 facet normal  8.134125e-01 -5.816874e-01  0.000000e+00
   outer loop
     vertex  1.318782e-02 -7.147129e-03  0.000000e+00
     vertex  1.102671e-02 -1.016916e-02 -1.000000e+00
     vertex  1.318782e-02 -7.147129e-03 -1.000000e+00
   endloop
 endfacet
 facet normal  8.134125e-01 -5.816874e-01  0.000000e+00
   outer loop
     vertex  1.318782e-02 -7.147129e-03  0.000000e+00
     vertex  1.102671e-02 -1.016916e-02  0.000000e+00
     vertex  1.102671e-02 -1.016916e-02 -1.000000e+00
   endloop
 endfacet
 facet normal  9.314273e-01 -3.639274e-01  0.000000e+00
   outer loop
     vertex  1.453990e-02 -3.686647e-03  0.000000e+00
     vertex  1.318782e-02 -7.147129e-03 -1.000000e+00
     vertex  1.453990e-02 -3.686647e-03 -1.000000e+00
   endloop
 endfacet
 facet normal  9.314273e-01 -3.639274e-01  0.000000e+00
   outer loop
     vertex  1.453990e-02 -3.686647e-03  0.000000e+00
     vertex  1.318782e-02 -7.147129e-03  0.000000e+00
     vertex  1.318782e-02 -7.147129e-03 -1.000000e+00
   endloop
 endfacet
 facet normal  9.923020e-01 -1.238416e-01  0.000000e+00
   outer loop
     vertex  1.500000e-02  0.000000e+00  0.000000e+00
     vertex  1.453990e-02 -3.686647e-03 -1.000000e+00
     vertex  1.500000e-02  0.000000e+00 -1.000000e+00
   endloop
 endfacet
 facet normal  9.923020e-01 -1.238416e-01  0.000000e+00
   outer loop
     vertex  1.500000e-02  0.000000e+00  0.000000e+00
     vertex  1.453990e-02 -3.686647e-03  0.000000e+00
     vertex  1.453990e-02 -3.686647e-03 -1.000000e+00
   endloop
 endfacet
 facet normal  0.000000e+00  0.000000e+00  1.000000e+00
   outer loop
     vertex  8.597757e-04 -1.380808e-02  1.000000e+00
     vertex -2.500000e-03 -1.479020e-02  1.000000e+00
     vertex  1.211766e-03 -1.495097e-02  1.000000e+00
   endloop
 endfacet
 facet normal  0.000000e+00  0.000000e+00  1.000000e+00
   outer loop
     vertex  4.849195e-03 -1.419455e-02  1.000000e+00
     vertex  8.597757e-04 -1.380808e-02  1.000000e+00
     vertex  1.211766e-03 -1.495097e-02  1.000000e+00
   endloop
 endfacet
 facet normal  0.000000e+00  0.000000e+00  1.000000e+00
   outer loop
     vertex  3.900450e-03 -1.207402e-02  1.000000e+00
     vertex  8.597757e-04 -1.380808e-02  1.000000e+00
     vertex  4.849195e-03 -1.419455e-02  1.000000e+00
   endloop
 endfacet
 facet normal  0.000000e+00  0.000000e+00  1.000000e+00
   outer loop
     vertex  8.189140e-03 -1.256734e-02  1.000000e+00
     vertex  3.900450e-03 -1.207402e-02  1.000000e+00
     vertex  4.849195e-03 -1.419455e-02  1.000000e+00
   endloop
 endfacet
 facet normal  0.000000e+00  0.000000e+00  1.000000e+00
   outer loop
     vertex  6.456439e-03 -9.682458e-03  1.000000e+00
     vertex  3.900450e-03 -1.207402e-02  1.000000e+00
     vertex  8.189140e-03 -1.256734e-02  1.000000e+00
   endloop
 endfacet
 facet normal  0.000000e+00  0.000000e+00  1.000000e+00
   outer loop
     vertex  1.102671e-02 -1.016916e-02  1.000000e+00
     vertex  6.456439e-03 -9.682458e-03  1.000000e+00
     vertex  8.189140e-03 -1.256734e-02  1.000000e+00
   endloop
 endfacet
 facet normal  0.000000e+00  0.000000e+00  1.000000e+00
   outer loop
     vertex  8.388554e-03 -6.763625e-03  1.000000e+00
     vertex  6.456439e-03 -9.682458e-03  1.000000e+00
     vertex  1.102671e-02 -1.016916e-02  1.000000e+00
   endloop
 endfacet
 facet normal  0.000000e+00  0.000000e+00  1.000000e+00
   outer loop
     vertex  1.318782e-02 -7.147129e-03  1.000000e+00
     vertex  8.388554e-03 -6.763625e-03  1.000000e+00
     vertex  1.102671e-02 -1.016916e-02  1.000000e+00
   endloop
 endfacet
 facet normal  0.000000e+00  0.000000e+00  1.000000e+00
   outer loop
     vertex  9.591578e-03 -3.476470e-03  1.000000e+00
     vertex  8.388554e-03 -6.763625e-03  1.000000e+00
     vertex  1.318782e-02 -7.147129e-03  1.000000e+00
   endloop
 endfacet
 facet normal  0.000000e+00  0.000000e+00  1.000000e+00
   outer loop
     vertex  1.453990e-02 -3.686647e-03  1.000000e+00
     vertex  1.000000e-02  0.000000e+00  1.000000e+00
     vertex  9.591578e-03 -3.476470e-03  1.000000e+00
   endloop
 endfacet
 facet normal  0.000000e+00  0.000000e+00  1.000000e+00
   outer loop
     vertex  1.453990e-02 -3.686647e-03  1.000000e+00
     vertex  9.591578e-03 -3.476470e-03  1.000000e+00
     vertex  1.318782e-02 -7.147129e-03  1.000000e+00
   endloop
 endfacet
 facet normal  0.000000e+00  0.000000e+00  1.000000e+00
   outer loop
     vertex  1.500000e-02  0.000000e+00  1.000000e+00
     vertex  1.000000e-02  0.000000e+00  1.000000e+00
     vertex  1.453990e-02 -3.686647e-03  1.000000e+00
   endloop
 endfacet
 facet normal  0.000000e+00  0.000000e+00  1.000000e+00
   outer loop
     vertex  1.211766e-03  1.495097e-02  1.000000e+00
     vertex -2.500000e-03  1.479020e-02  1.000000e+00
     vertex  8.597757e-04  1.380808e-02  1.000000e+00
   endloop
 endfacet
 facet normal  0.000000e+00  0.000000e+00  1.000000e+00
   outer loop
     vertex  1.453990e-02  3.686647e-03  1.000000e+00
     vertex  9.591578e-03  3.476470e-03  1.000000e+00
     vertex  1.000000e-02  0.000000e+00  1.000000e+00
   endloop
 endfacet
 facet normal  0.000000e+00  0.000000e+00  1.000000e+00
   outer loop
     vertex  1.453990e-02  3.686647e-03  1.000000e+00
     vertex  1.000000e-02  0.000000e+00  1.000000e+00
     vertex  1.500000e-02  0.000000e+00  1.000000e+00
   endloop
 endfacet
 facet normal  0.000000e+00  0.000000e+00  1.000000e+00
   outer loop
     vertex  4.849195e-03  1.419455e-02  1.000000e+00
     vertex  8.597757e-04  1.380808e-02  1.000000e+00
     vertex  3.900450e-03  1.207402e-02  1.000000e+00
   endloop
 endfacet
 facet normal  0.000000e+00  0.000000e+00  1.000000e+00
   outer loop
     vertex  4.849195e-03  1.419455e-02  1.000000e+00
     vertex  1.211766e-03  1.495097e-02  1.000000e+00
     vertex  8.597757e-04  1.380808e-02  1.000000e+00
   endloop
 endfacet
 facet normal  0.000000e+00  0.000000e+00  1.000000e+00
   outer loop
     vertex  1.318782e-02  7.147129e-03  1.000000e+00
     vertex  8.388554e-03  6.763625e-03  1.000000e+00
     vertex  9.591578e-03  3.476470e-03  1.000000e+00
   endloop
 endfacet
 facet normal  0.000000e+00  0.000000e+00  1.000000e+00
   outer loop
     vertex  1.318782e-02  7.147129e-03  1.000000e+00
     vertex  9.591578e-03  3.476470e-03  1.000000e+00
     vertex  1.453990e-02  3.686647e-03  1.000000e+00
   endloop
 endfacet
 facet normal  0.000000e+00  0.000000e+00  1.000000e+00
   outer loop
     vertex  8.189140e-03  1.256734e-02  1.000000e+00
     vertex  3.900450e-03  1.207402e-02  1.000000e+00
     vertex  6.456439e-03  9.682458e-03  1.000000e+00
   endloop
 endfacet
 facet normal  0.000000e+00  0.000000e+00  1.000000e+00
   outer loop
     vertex  8.189140e-03  1.256734e-02  1.000000e+00
     vertex  4.849195e-03  1.419455e-02  1.000000e+00
     vertex  3.900450e-03  1.207402e-02  1.000000e+00
   endloop
 endfacet
 facet normal  0.000000e+00  0.000000e+00  1.000000e+00
   outer loop
     vertex  1.102671e-02  1.016916e-02  1.000000e+00
     vertex  6.456439e-03  9.682458e-03  1.000000e+00
     vertex  8.388554e-03  6.763625e-03  1.000000e+00
   endloop
 endfacet
 facet normal  0.000000e+00  0.000000e+00  1.000000e+00
   outer loop
     vertex  1.102671e-02  1.016916e-02  1.000000e+00
     vertex  8.388554e-03  6.763625e-03  1.000000e+00
     vertex  1.318782e-02  7.147129e-03  1.000000e+00
   endloop
 endfacet
 facet normal  0.000000e+00  0.000000e+00  1.000000e+00
   outer loop
     vertex  1.102671e-02  1.016916e-02  1.000000e+00
     vertex  8.189140e-03  1.256734e-02  1.000000e+00
     vertex  6.456439e-03  9.682458e-03  1.000000e+00
   endloop
 endfacet
 facet normal  4.327425e-02  9.990632e-01  0.000000e+00
   outer loop
     vertex -6.211766e-03  1.495097e-02  0.000000e+00
     vertex -2.500000e-03  1.479020e-02  0.000000e+00
     vertex -2.500000e-03  1.479020e-02 -1.000000e+00
   endloop
 endfacet
 facet normal  4.327425e-02  9.990632e-01  0.000000e+00
   outer loop
     vertex -6.211766e-03  1.495097e-02  0.000000e+00
     vertex -2.500000e-03  1.479020e-02 -1.000000e+00
     vertex -6.211766e-03  1.495097e-02 -1.000000e+00
   endloop
 endfacet
 facet normal -2.035993e-01  9.790543e-01  0.000000e+00
   outer loop
     vertex -9.849195e-03  1.419455e-02  0.000000e+00
     vertex -6.211766e-03  1.495097e-02 -1.000000e+00
     vertex -9.849195e-03  1.419455e-02 -1.000000e+00
   endloop
 endfacet
 facet normal -2.035993e-01  9.790543e-01  0.000000e+00
   outer loop
     vertex -9.849195e-03  1.419455e-02  0.000000e+00
     vertex -6.211766e-03  1.495097e-02  0.000000e+00
     vertex -6.211766e-03  1.495097e-02 -1.000000e+00
   endloop
 endfacet
 facet normal -4.379827e-01  8.989834e-01  0.000000e+00
   outer loop
     vertex -1.318914e-02  1.256734e-02  0.000000e+00
     vertex -9.849195e-03  1.419455e-02 -1.000000e+00
     vertex -1.318914e-02  1.256734e-02 -1.000000e+00
   endloop
 endfacet
 facet normal -4.379827e-01  8.989834e-01  0.000000e+00
   outer loop
     vertex -1.318914e-02  1.256734e-02  0.000000e+00
     vertex -9.849195e-03  1.419455e-02  0.000000e+00
     vertex -9.849195e-03  1.419455e-02 -1.000000e+00
   endloop
 endfacet
 facet normal -6.454972e-01  7.637626e-01  0.000000e+00
   outer loop
     vertex -1.602671e-02  1.016916e-02  0.000000e+00
     vertex -1.318914e-02  1.256734e-02 -1.000000e+00
     vertex -1.602671e-02  1.016916e-02 -1.000000e+00
   endloop
 endfacet
 facet normal -6.454972e-01  7.637626e-01  0.000000e+00
   outer loop
     vertex -1.602671e-02  1.016916e-02  0.000000e+00
     vertex -1.318914e-02  1.256734e-02  0.000000e+00
     vertex -1.318914e-02  1.256734e-02 -1.000000e+00
   endloop
 endfacet
 facet normal -8.134125e-01  5.816874e-01  0.000000e+00
   outer loop
     vertex -1.818782e-02  7.147129e-03  0.000000e+00
     vertex -1.602671e-02  1.016916e-02 -1.000000e+00
     vertex -1.818782e-02  7.147129e-03 -1.000000e+00
   endloop
 endfacet
 facet normal -8.134125e-01  5.816874e-01  0.000000e+00
   outer loop
     vertex -1.818782e-02  7.147129e-03  0.000000e+00
     vertex -1.602671e-02  1.016916e-02  0.000000e+00
     vertex -1.602671e-02  1.016916e-02 -1.000000e+00
   endloop
 endfacet
 facet normal -9.314273e-01  3.639274e-01  0.000000e+00
   outer loop
     vertex -1.953990e-02  3.686647e-03  0.000000e+00
     vertex -1.818782e-02  7.147129e-03 -1.000000e+00
     vertex -1.953990e-02  3.686647e-03 -1.000000e+00
   endloop
 endfacet
 facet normal -9.314273e-01  3.639274e-01  0.000000e+00
   outer loop
     vertex -1.953990e-02  3.686647e-03  0.000000e+00
     vertex -1.818782e-02  7.147129e-03  0.000000e+00
     vertex -1.818782e-02  7.147129e-03 -1.000000e+00
   endloop
 endfacet
 facet normal -9.923020e-01  1.238416e-01  0.000000e+00
   outer loop
     vertex -2.000000e-02  1.836970e-18  0.000000e+00
     vertex -1.953990e-02  3.686647e-03 -1.000000e+00
     vertex -2.000000e-02  1.836970e-18 -1.000000e+00
   endloop
 endfacet
 facet normal -9.923020e-01  1.238416e-01  0.000000e+00
   outer loop
     vertex -2.000000e-02  1.836970e-18  0.000000e+00
     vertex -1.953990e-02  3.686647e-03  0.000000e+00
     vertex -1.953990e-02  3.686647e-03 -1.000000e+00
   endloop
 endfacet
 facet normal -9.923020e-01 -1.238416e-01 -0.000000e+00
   outer loop
     vertex -1.953990e-02 -3.686647e-03  0.000000e+00
     vertex -2.000000e-02  1.836970e-18 -1.000000e+00
     vertex -1.953990e-02 -3.686647e-03 -1.000000e+00
   endloop
 endfacet
 facet normal -9.923020e-01 -1.238416e-01  0.000000e+00
   outer loop
     vertex -1.953990e-02 -3.686647e-03  0.000000e+00
     vertex -2.000000e-02  1.836970e-18  0.000000e+00
     vertex -2.000000e-02  1.836970e-18 -1.000000e+00
   endloop
 endfacet
 facet normal -9.314273e-01 -3.639274e-01 -0.000000e+00
   outer loop
     vertex -1.818782e-02 -7.147129e-03  0.000000e+00
     vertex -1.953990e-02 -3.686647e-03 -1.000000e+00
     vertex -1.818782e-02 -7.147129e-03 -1.000000e+00
   endloop
 endfacet
 facet normal -9.314273e-01 -3.639274e-01  0.000000e+00
   outer loop
     vertex -1.818782e-02 -7.147129e-03  0.000000e+00
     vertex -1.953990e-02 -3.686647e-03  0.000000e+00
     vertex -1.953990e-02 -3.686647e-03 -1.000000e+00
   endloop
 endfacet
 facet normal -8.134125e-01 -5.816874e-01 -0.000000e+00
   outer loop
     vertex -1.602671e-02 -1.016916e-02  0.000000e+00
     vertex -1.818782e-02 -7.147129e-03 -1.000000e+00
     vertex -1.602671e-02 -1.016916e-02 -1.000000e+00
   endloop
 endfacet
 facet normal -8.134125e-01 -5.816874e-01  0.000000e+00
   outer loop
     vertex -1.602671e-02 -1.016916e-02  0.000000e+00
     vertex -1.818782e-02 -7.147129e-03  0.000000e+00
     vertex -1.818782e-02 -7.147129e-03 -1.000000e+00
   endloop
 endfacet
 facet normal -6.454972e-01 -7.637626e-01 -0.000000e+00
   outer loop
     vertex -1.318914e-02 -1.256734e-02  0.000000e+00
     vertex -1.602671e-02 -1.016916e-02 -1.000000e+00
     vertex -1.318914e-02 -1.256734e-02 -1.000000e+00
   endloop
 endfacet
 facet normal -6.454972e-01 -7.637626e-01  0.000000e+00
   outer loop
     vertex -1.318914e-02 -1.256734e-02  0.000000e+00
     vertex -1.602671e-02 -1.016916e-02  0.000000e+00
     vertex -1.602671e-02 -1.016916e-02 -1.000000e+00
   endloop
 endfacet
 facet normal -4.379827e-01 -8.989834e-01 -0.000000e+00
   outer loop
     vertex -9.849195e-03 -1.419455e-02  0.000000e+00
     vertex -1.318914e-02 -1.256734e-02 -1.000000e+00
     vertex -9.849195e-03 -1.419455e-02 -1.000000e+00
   endloop
 endfacet
 facet normal -4.379827e-01 -8.989834e-01  0.000000e+00
   outer loop
     vertex -9.849195e-03 -1.419455e-02  0.000000e+00
     vertex -1.318914e-02 -1.256734e-02  0.000000e+00
     vertex -1.318914e-02 -1.256734e-02 -1.000000e+00
   endloop
 endfacet
 facet normal -2.035993e-01 -9.790543e-01 -0.000000e+00
   outer loop
     vertex -6.211766e-03 -1.495097e-02  0.000000e+00
     vertex -9.849195e-03 -1.419455e-02 -1.000000e+00
     vertex -6.211766e-03 -1.495097e-02 -1.000000e+00
   endloop
 endfacet
 facet normal -2.035993e-01 -9.790543e-01  0.000000e+00
   outer loop
     vertex -6.211766e-03 -1.495097e-02  0.000000e+00
     vertex -9.849195e-03 -1.419455e-02  0.000000e+00
     vertex -9.849195e-03 -1.419455e-02 -1.000000e+00
   endloop
 endfacet
 facet normal  4.327425e-02 -9.990632e-01  0.000000e+00
   outer loop
     vertex -2.500000e-03 -1.479020e-02  0.000000e+00
     vertex -6.211766e-03 -1.495097e-02 -1.000000e+00
     vertex -2.500000e-03 -1.479020e-02 -1.000000e+00
   endloop
 endfacet
 facet normal  4.327425e-02 -9.990632e-01  0.000000e+00
   outer loop
     vertex -2.500000e-03 -1.479020e-02  0.000000e+00
     vertex -6.211766e-03 -1.495097e-02  0.000000e+00
     vertex -6.211766e-03 -1.495097e-02 -1.000000e+00
   endloop
 endfacet
 facet normal  0.000000e+00  0.000000e+00  1.000000e+00
   outer loop
     vertex -1.145644e-02 -9.682458e-03  1.000000e+00
     vertex -1.602671e-02 -1.016916e-02  1.000000e+00
     vertex -1.318914e-02 -1.256734e-02  1.000000e+00
   endloop
 endfacet
 facet normal  0.000000e+00  0.000000e+00  1.000000e+00
   outer loop
     vertex -8.900450e-03 -1.207402e-02  1.000000e+00
     vertex -1.318914e-02 -1.256734e-02  1.000000e+00
     vertex -9.849195e-03 -1.419455e-02  1.000000e+00
   endloop
 endfacet
 facet normal  0.000000e+00  0.000000e+00  1.000000e+00
   outer loop
     vertex -8.900450e-03 -1.207402e-02  1.000000e+00
     vertex -1.145644e-02 -9.682458e-03  1.000000e+00
     vertex -1.318914e-02 -1.256734e-02  1.000000e+00
   endloop
 endfacet
 facet normal  0.000000e+00  0.000000e+00  1.000000e+00
   outer loop
     vertex -1.338855e-02 -6.763625e-03  1.000000e+00
     vertex -1.818782e-02 -7.147129e-03  1.000000e+00
     vertex -1.602671e-02 -1.016916e-02  1.000000e+00
   endloop
 endfacet
 facet normal  0.000000e+00  0.000000e+00  1.000000e+00
   outer loop
     vertex -1.338855e-02 -6.763625e-03  1.000000e+00
     vertex -1.602671e-02 -1.016916e-02  1.000000e+00
     vertex -1.145644e-02 -9.682458e-03  1.000000e+00
   endloop
 endfacet
 facet normal  0.000000e+00  0.000000e+00  1.000000e+00
   outer loop
     vertex -5.859776e-03 -1.380808e-02  1.000000e+00
     vertex -9.849195e-03 -1.419455e-02  1.000000e+00
     vertex -6.211766e-03 -1.495097e-02  1.000000e+00
   endloop
 endfacet
 facet normal  0.000000e+00  0.000000e+00  1.000000e+00
   outer loop
     vertex -5.859776e-03 -1.380808e-02  1.000000e+00
     vertex -8.900450e-03 -1.207402e-02  1.000000e+00
     vertex -9.849195e-03 -1.419455e-02  1.000000e+00
   endloop
 endfacet
 facet normal  0.000000e+00  0.000000e+00  1.000000e+00
   outer loop
     vertex -1.459158e-02 -3.476470e-03  1.000000e+00
     vertex -1.953990e-02 -3.686647e-03  1.000000e+00
     vertex -1.818782e-02 -7.147129e-03  1.000000e+00
   endloop
 endfacet
 facet normal  0.000000e+00  0.000000e+00  1.000000e+00
   outer loop
     vertex -1.459158e-02 -3.476470e-03  1.000000e+00
     vertex -1.818782e-02 -7.147129e-03  1.000000e+00
     vertex -1.338855e-02 -6.763625e-03  1.000000e+00
   endloop
 endfacet
 facet normal  0.000000e+00  0.000000e+00  1.000000e+00
   outer loop
     vertex -2.500000e-03 -1.479020e-02  1.000000e+00
     vertex -5.859776e-03 -1.380808e-02  1.000000e+00
     vertex -6.211766e-03 -1.495097e-02  1.000000e+00
   endloop
 endfacet
 facet normal  0.000000e+00  0.000000e+00  1.000000e+00
   outer loop
     vertex -1.500000e-02  1.836970e-18  1.000000e+00
     vertex -1.953990e-02  3.686647e-03  1.000000e+00
     vertex -2.000000e-02  1.836970e-18  1.000000e+00
   endloop
 endfacet
 facet normal  0.000000e+00  0.000000e+00  1.000000e+00
   outer loop
     vertex -1.500000e-02  1.836970e-18  1.000000e+00
     vertex -2.000000e-02  1.836970e-18  1.000000e+00
     vertex -1.953990e-02 -3.686647e-03  1.000000e+00
   endloop
 endfacet
 facet normal  0.000000e+00  0.000000e+00  1.000000e+00
   outer loop
     vertex -1.500000e-02  1.836970e-18  1.000000e+00
     vertex -1.953990e-02 -3.686647e-03  1.000000e+00
     vertex -1.459158e-02 -3.476470e-03  1.000000e+00
   endloop
 endfacet
 facet normal  0.000000e+00  0.000000e+00  1.000000e+00
   outer loop
     vertex -1.459158e-02  3.476470e-03  1.000000e+00
     vertex -1.953990e-02  3.686647e-03  1.000000e+00
     vertex -1.500000e-02  1.836970e-18  1.000000e+00
   endloop
 endfacet
 facet normal  0.000000e+00  0.000000e+00  1.000000e+00
   outer loop
     vertex -1.818782e-02  7.147129e-03  1.000000e+00
     vertex -1.953990e-02  3.686647e-03  1.000000e+00
     vertex -1.459158e-02  3.476470e-03  1.000000e+00
   endloop
 endfacet
 facet normal  0.000000e+00  0.000000e+00  1.000000e+00
   outer loop
     vertex -1.338855e-02  6.763625e-03  1.000000e+00
     vertex -1.818782e-02  7.147129e-03  1.000000e+00
     vertex -1.459158e-02  3.476470e-03  1.000000e+00
   endloop
 endfacet
 facet normal  0.000000e+00  0.000000e+00  1.000000e+00
   outer loop
     vertex -1.602671e-02  1.016916e-02  1.000000e+00
     vertex -1.818782e-02  7.147129e-03  1.000000e+00
     vertex -1.338855e-02  6.763625e-03  1.000000e+00
   endloop
 endfacet
 facet normal  0.000000e+00  0.000000e+00  1.000000e+00
   outer loop
     vertex -1.145644e-02  9.682458e-03  1.000000e+00
     vertex -1.602671e-02  1.016916e-02  1.000000e+00
     vertex -1.338855e-02  6.763625e-03  1.000000e+00
   endloop
 endfacet
 facet normal  0.000000e+00  0.000000e+00  1.000000e+00
   outer loop
     vertex -1.318914e-02  1.256734e-02  1.000000e+00
     vertex -1.602671e-02  1.016916e-02  1.000000e+00
     vertex -1.145644e-02  9.682458e-03  1.000000e+00
   endloop
 endfacet
 facet normal  0.000000e+00  0.000000e+00  1.000000e+00
   outer loop
     vertex -8.900450e-03  1.207402e-02  1.000000e+00
     vertex -1.318914e-02  1.256734e-02  1.000000e+00
     vertex -1.145644e-02  9.682458e-03  1.000000e+00
   endloop
 endfacet
 facet normal  0.000000e+00  0.000000e+00  1.000000e+00
   outer loop
     vertex -9.849195e-03  1.419455e-02  1.000000e+00
     vertex -1.318914e-02  1.256734e-02  1.000000e+00
     vertex -8.900450e-03  1.207402e-02  1.000000e+00
   endloop
 endfacet
 facet normal  0.000000e+00  0.000000e+00  1.000000e+00
   outer loop
     vertex -5.859776e-03  1.380808e-02  1.000000e+00
     vertex -9.849195e-03  1.419455e-02  1.000000e+00
     vertex -8.900450e-03  1.207402e-02  1.000000e+00
   endloop
 endfacet
 facet normal  0.000000e+00  0.000000e+00  1.000000e+00
   outer loop
     vertex -6.211766e-03  1.495097e-02  1.000000e+00
     vertex -9.849195e-03  1.419455e-02  1.000000e+00
     vertex -5.859776e-03  1.380808e-02  1.000000e+00
   endloop
 endfacet
 facet normal  0.000000e+00  0.000000e+00  1.000000e+00
   outer loop
     vertex -2.500000e-03  1.479020e-02  1.000000e+00
     vertex -6.211766e-03  1.495097e-02  1.000000e+00
     vertex -5.859776e-03  1.380808e-02  1.000000e+00
   endloop
 endfacet
 facet normal  9.923020e-01  1.238416e-01  0.000000e+00
   outer loop
     vertex  1.453990e-02  3.686647e-03  0.000000e+00
     vertex  1.500000e-02  0.000000e+00  0.000000e+00
     vertex  1.500000e-02  0.000000e+00 -1.000000e+00
   endloop
 endfacet
 facet normal  9.923020e-01  1.238416e-01  0.000000e+00
   outer loop
     vertex  1.453990e-02  3.686647e-03  0.000000e+00
     vertex  1.500000e-02  0.000000e+00 -1.000000e+00
     vertex  1.453990e-02  3.686647e-03 -1.000000e+00
   endloop
 endfacet
 facet normal  9.314273e-01  3.639274e-01  0.000000e+00
   outer loop
     vertex  1.318782e-02  7.147129e-03  0.000000e+00
     vertex  1.453990e-02  3.686647e-03 -1.000000e+00
     vertex  1.318782e-02  7.147129e-03 -1.000000e+00
   endloop
 endfacet
 facet normal  9.314273e-01  3.639274e-01  0.000000e+00
   outer loop
     vertex  1.318782e-02  7.147129e-03  0.000000e+00
     vertex  1.453990e-02  3.686647e-03  0.000000e+00
     vertex  1.453990e-02  3.686647e-03 -1.000000e+00
   endloop
 endfacet
 facet normal  8.134125e-01  5.816874e-01  0.000000e+00
   outer loop
     vertex  1.102671e-02  1.016916e-02  0.000000e+00
     vertex  1.318782e-02  7.147129e-03 -1.000000e+00
     vertex  1.102671e-02  1.016916e-02 -1.000000e+00
   endloop
 endfacet
 facet normal  8.134125e-01  5.816874e-01  0.000000e+00
   outer loop
     vertex  1.102671e-02  1.016916e-02  0.000000e+00
     vertex  1.318782e-02  7.147129e-03  0.000000e+00
     vertex  1.318782e-02  7.147129e-03 -1.000000e+00
   endloop
 endfacet
 facet normal  6.454972e-01  7.637626e-01  0.000000e+00
   outer loop
     vertex  8.189140e-03  1.256734e-02  0.000000e+00
     vertex  1.102671e-02  1.016916e-02 -1.000000e+00
     vertex  8.189140e-03  1.256734e-02 -1.000000e+00
   endloop
 endfacet
 facet normal  6.454972e-01  7.637626e-01  0.000000e+00
   outer loop
     vertex  8.189140e-03  1.256734e-02  0.000000e+00
     vertex  1.102671e-02  1.016916e-02  0.000000e+00
     vertex  1.102671e-02  1.016916e-02 -1.000000e+00
   endloop
 endfacet
 facet normal  4.379827e-01  8.989834e-01  0.000000e+00
   outer loop
     vertex  4.849195e-03  1.419455e-02  0.000000e+00
     vertex  8.189140e-03  1.256734e-02 -1.000000e+00
     vertex  4.849195e-03  1.419455e-02 -1.000000e+00
   endloop
 endfacet
 facet normal  4.379827e-01  8.989834e-01  0.000000e+00
   outer loop
     vertex  4.849195e-03  1.419455e-02  0.000000e+00
     vertex  8.189140e-03  1.256734e-02  0.000000e+00
     vertex  8.189140e-03  1.256734e-02 -1.000000e+00
   endloop
 endfacet
 facet normal  2.035993e-01  9.790543e-01  0.000000e+00
   outer loop
     vertex  1.211766e-03  1.495097e-02  0.000000e+00
     vertex  4.849195e-03  1.419455e-02 -1.000000e+00
     vertex  1.211766e-03  1.495097e-02 -1.000000e+00
   endloop
 endfacet
 facet normal  2.035993e-01  9.790543e-01  0.000000e+00
   outer loop
     vertex  1.211766e-03  1.495097e-02  0.000000e+00
     vertex  4.849195e-03  1.419455e-02  0.000000e+00
     vertex  4.849195e-03  1.419455e-02 -1.000000e+00
   endloop
 endfacet
 facet normal -4.327425e-02  9.990632e-01  0.000000e+00
   outer loop
     vertex -2.500000e-03  1.479020e-02  0.000000e+00
     vertex  1.211766e-03  1.495097e-02 -1.000000e+00
     vertex -2.500000e-03  1.479020e-02 -1.000000e+00
   endloop
 endfacet
 facet normal -4.327425e-02  9.990632e-01  0.000000e+00
   outer loop
     vertex -2.500000e-03  1.479020e-02  0.000000e+00
     vertex  1.211766e-03  1.495097e-02  0.000000e+00
     vertex  1.211766e-03  1.495097e-02 -1.000000e+00
   endloop
 endfacet
 facet normal  0.000000e+00 -0.000000e+00 -1.000000e+00
   outer loop
     vertex  8.597757e-04 -1.380808e-02 -1.000000e+00
     vertex  1.211766e-03 -1.495097e-02 -1.000000e+00
     vertex -2.500000e-03 -1.479020e-02 -1.000000e+00
   endloop
 endfacet
 facet normal -0.000000e+00  0.000000e+00 -1.000000e+00
   outer loop
     vertex  4.849195e-03 -1.419455e-02 -1.000000e+00
     vertex  1.211766e-03 -1.495097e-02 -1.000000e+00
     vertex  8.597757e-04 -1.380808e-02 -1.000000e+00
   endloop
 endfacet
 facet normal  0.000000e+00 -0.000000e+00 -1.000000e+00
   outer loop
     vertex  3.900450e-03 -1.207402e-02 -1.000000e+00
     vertex  4.849195e-03 -1.419455e-02 -1.000000e+00
     vertex  8.597757e-04 -1.380808e-02 -1.000000e+00
   endloop
 endfacet
 facet normal -0.000000e+00  0.000000e+00 -1.000000e+00
   outer loop
     vertex  8.189140e-03 -1.256734e-02 -1.000000e+00
     vertex  4.849195e-03 -1.419455e-02 -1.000000e+00
     vertex  3.900450e-03 -1.207402e-02 -1.000000e+00
   endloop
 endfacet
 facet normal  0.000000e+00 -0.000000e+00 -1.000000e+00
   outer loop
     vertex  6.456439e-03 -9.682458e-03 -1.000000e+00
     vertex  8.189140e-03 -1.256734e-02 -1.000000e+00
     vertex  3.900450e-03 -1.207402e-02 -1.000000e+00
   endloop
 endfacet
 facet normal -0.000000e+00  0.000000e+00 -1.000000e+00
   outer loop
     vertex  1.102671e-02 -1.016916e-02 -1.000000e+00
     vertex  8.189140e-03 -1.256734e-02 -1.000000e+00
     vertex  6.456439e-03 -9.682458e-03 -1.000000e+00
   endloop
 endfacet
 facet normal  0.000000e+00 -0.000000e+00 -1.000000e+00
   outer loop
     vertex  8.388554e-03 -6.763625e-03 -1.000000e+00
     vertex  1.102671e-02 -1.016916e-02 -1.000000e+00
     vertex  6.456439e-03 -9.682458e-03 -1.000000e+00
   endloop
 endfacet
 facet normal -0.000000e+00  0.000000e+00 -1.000000e+00
   outer loop
     vertex  1.318782e-02 -7.147129e-03 -1.000000e+00
     vertex  1.102671e-02 -1.016916e-02 -1.000000e+00
     vertex  8.388554e-03 -6.763625e-03 -1.000000e+00
   endloop
 endfacet
 facet normal  0.000000e+00 -0.000000e+00 -1.000000e+00
   outer loop
     vertex  9.591578e-03 -3.476470e-03 -1.000000e+00
     vertex  1.318782e-02 -7.147129e-03 -1.000000e+00
     vertex  8.388554e-03 -6.763625e-03 -1.000000e+00
   endloop
 endfacet
 facet normal  0.000000e+00  0.000000e+00 -1.000000e+00
   outer loop
     vertex  1.453990e-02 -3.686647e-03 -1.000000e+00
     vertex  9.591578e-03 -3.476470e-03 -1.000000e+00
     vertex  1.000000e-02  0.000000e+00 -1.000000e+00
   endloop
 endfacet
 facet normal -0.000000e+00  0.000000e+00 -1.000000e+00
   outer loop
     vertex  1.453990e-02 -3.686647e-03 -1.000000e+00
     vertex  1.318782e-02 -7.147129e-03 -1.000000e+00
     vertex  9.591578e-03 -3.476470e-03 -1.000000e+00
   endloop
 endfacet
 facet normal -0.000000e+00  0.000000e+00 -1.000000e+00
   outer loop
     vertex  1.500000e-02  0.000000e+00 -1.000000e+00
     vertex  1.453990e-02 -3.686647e-03 -1.000000e+00
     vertex  1.000000e-02  0.000000e+00 -1.000000e+00
   endloop
 endfacet
 facet normal  0.000000e+00  0.000000e+00 -1.000000e+00
   outer loop
     vertex  1.211766e-03  1.495097e-02 -1.000000e+00
     vertex  8.597757e-04  1.380808e-02 -1.000000e+00
     vertex -2.500000e-03  1.479020e-02 -1.000000e+00
   endloop
 endfacet
 facet normal  0.000000e+00  0.000000e+00 -1.000000e+00
   outer loop
     vertex  1.453990e-02  3.686647e-03 -1.000000e+00
     vertex  1.000000e-02  0.000000e+00 -1.000000e+00
     vertex  9.591578e-03  3.476470e-03 -1.000000e+00
   endloop
 endfacet
 facet normal  0.000000e+00 -0.000000e+00 -1.000000e+00
   outer loop
     vertex  1.453990e-02  3.686647e-03 -1.000000e+00
     vertex  1.500000e-02  0.000000e+00 -1.000000e+00
     vertex  1.000000e-02  0.000000e+00 -1.000000e+00
   endloop
 endfacet
 facet normal  0.000000e+00  0.000000e+00 -1.000000e+00
   outer loop
     vertex  4.849195e-03  1.419455e-02 -1.000000e+00
     vertex  3.900450e-03  1.207402e-02 -1.000000e+00
     vertex  8.597757e-04  1.380808e-02 -1.000000e+00
   endloop
 endfacet
 facet normal -0.000000e+00  0.000000e+00 -1.000000e+00
   outer loop
     vertex  4.849195e-03  1.419455e-02 -1.000000e+00
     vertex  8.597757e-04  1.380808e-02 -1.000000e+00
     vertex  1.211766e-03  1.495097e-02 -1.000000e+00
   endloop
 endfacet
 facet normal  0.000000e+00  0.000000e+00 -1.000000e+00
   outer loop
     vertex  1.318782e-02  7.147129e-03 -1.000000e+00
     vertex  9.591578e-03  3.476470e-03 -1.000000e+00
     vertex  8.388554e-03  6.763625e-03 -1.000000e+00
   endloop
 endfacet
 facet normal  0.000000e+00 -0.000000e+00 -1.000000e+00
   outer loop
     vertex  1.318782e-02  7.147129e-03 -1.000000e+00
     vertex  1.453990e-02  3.686647e-03 -1.000000e+00
     vertex  9.591578e-03  3.476470e-03 -1.000000e+00
   endloop
 endfacet
 facet normal  0.000000e+00  0.000000e+00 -1.000000e+00
   outer loop
     vertex  8.189140e-03  1.256734e-02 -1.000000e+00
     vertex  6.456439e-03  9.682458e-03 -1.000000e+00
     vertex  3.900450e-03  1.207402e-02 -1.000000e+00
   endloop
 endfacet
 facet normal -0.000000e+00  0.000000e+00 -1.000000e+00
   outer loop
     vertex  8.189140e-03  1.256734e-02 -1.000000e+00
     vertex  3.900450e-03  1.207402e-02 -1.000000e+00
     vertex  4.849195e-03  1.419455e-02 -1.000000e+00
   endloop
 endfacet
 facet normal  0.000000e+00  0.000000e+00 -1.000000e+00
   outer loop
     vertex  1.102671e-02  1.016916e-02 -1.000000e+00
     vertex  8.388554e-03  6.763625e-03 -1.000000e+00
     vertex  6.456439e-03  9.682458e-03 -1.000000e+00
   endloop
 endfacet
 facet normal  0.000000e+00 -0.000000e+00 -1.000000e+00
   outer loop
     vertex  1.102671e-02  1.016916e-02 -1.000000e+00
     vertex  1.318782e-02  7.147129e-03 -1.000000e+00
     vertex  8.388554e-03  6.763625e-03 -1.000000e+00
   endloop
 endfacet
 facet normal -0.000000e+00  0.000000e+00 -1.000000e+00
   outer loop
     vertex  1.102671e-02  1.016916e-02 -1.000000e+00
     vertex  6.456439e-03  9.682458e-03 -1.000000e+00
     vertex  8.189140e-03  1.256734e-02 -1.000000e+00
   endloop
 endfacet
 facet normal  0.000000e+00  0.000000e+00  1.000000e+00
   outer loop
     vertex  8.597757e-04 -1.380808e-02  1.000000e+00
     vertex -5.859776e-03 -1.380808e-02  1.000000e+00
     vertex -2.500000e-03 -1.479020e-02  1.000000e+00
   endloop
 endfacet
 facet normal  0.000000e+00  0.000000e+00  1.000000e+00
   outer loop
     vertex  3.900450e-03 -1.207402e-02  1.000000e+00
     vertex -8.900450e-03 -1.207402e-02  1.000000e+00
     vertex -5.859776e-03 -1.380808e-02  1.000000e+00
   endloop
 endfacet
 facet normal  0.000000e+00  0.000000e+00  1.000000e+00
   outer loop
     vertex  3.900450e-03 -1.207402e-02  1.000000e+00
     vertex -5.859776e-03 -1.380808e-02  1.000000e+00
     vertex  8.597757e-04 -1.380808e-02  1.000000e+00
   endloop
 endfacet
 facet normal  0.000000e+00  0.000000e+00  1.000000e+00
   outer loop
     vertex  6.456439e-03 -9.682458e-03  1.000000e+00
     vertex -1.145644e-02 -9.682458e-03  1.000000e+00
     vertex -8.900450e-03 -1.207402e-02  1.000000e+00
   endloop
 endfacet
 facet normal  0.000000e+00  0.000000e+00  1.000000e+00
   outer loop
     vertex  6.456439e-03 -9.682458e-03  1.000000e+00
     vertex -8.900450e-03 -1.207402e-02  1.000000e+00
     vertex  3.900450e-03 -1.207402e-02  1.000000e+00
   endloop
 endfacet
 facet normal  0.000000e+00  0.000000e+00  1.000000e+00
   outer loop
     vertex  8.388554e-03 -6.763625e-03  1.000000e+00
     vertex -1.338855e-02 -6.763625e-03  1.000000e+00
     vertex -1.145644e-02 -9.682458e-03  1.000000e+00
   endloop
 endfacet
 facet normal  0.000000e+00  0.000000e+00  1.000000e+00
   outer loop
     vertex  8.388554e-03 -6.763625e-03  1.000000e+00
     vertex -1.145644e-02 -9.682458e-03  1.000000e+00
     vertex  6.456439e-03 -9.682458e-03  1.000000e+00
   endloop
 endfacet
 facet normal  0.000000e+00  0.000000e+00  1.000000e+00
   outer loop
     vertex  9.591578e-03 -3.476470e-03  1.000000e+00
     vertex -1.459158e-02 -3.476470e-03  1.000000e+00
     vertex -1.338855e-02 -6.763625e-03  1.000000e+00
   endloop
 endfacet
 facet normal  0.000000e+00  0.000000e+00  1.000000e+00
   outer loop
     vertex  9.591578e-03 -3.476470e-03  1.000000e+00
     vertex -1.338855e-02 -6.763625e-03  1.000000e+00
     vertex  8.388554e-03 -6.763625e-03  1.000000e+00
   endloop
 endfacet
 facet normal  0.000000e+00  0.000000e+00  1.000000e+00
   outer loop
     vertex  1.000000e-02  0.000000e+00  1.000000e+00
     vertex -1.500000e-02  1.836970e-18  1.000000e+00
     vertex -1.459158e-02 -3.476470e-03  1.000000e+00
   endloop
 endfacet
 facet normal  0.000000e+00  0.000000e+00  1.000000e+00
   outer loop
     vertex  1.000000e-02  0.000000e+00  1.000000e+00
     vertex -1.459158e-02 -3.476470e-03  1.000000e+00
     vertex  9.591578e-03 -3.476470e-03  1.000000e+00
   endloop
 endfacet
 facet normal  0.000000e+00  0.000000e+00  1.000000e+00
   outer loop
     vertex  9.591578e-03  3.476470e-03  1.000000e+00
     vertex -1.459158e-02  3.476470e-03  1.000000e+00
     vertex -1.500000e-02  1.836970e-18  1.000000e+00
   endloop
 endfacet
 facet normal  0.000000e+00  0.000000e+00  1.000000e+00
   outer loop
     vertex  9.591578e-03  3.476470e-03  1.000000e+00
     vertex -1.500000e-02  1.836970e-18  1.000000e+00
     vertex  1.000000e-02  0.000000e+00  1.000000e+00
   endloop
 endfacet
 facet normal  0.000000e+00  0.000000e+00  1.000000e+00
   outer loop
     vertex  8.597757e-04  1.380808e-02  1.000000e+00
     vertex -2.500000e-03  1.479020e-02  1.000000e+00
     vertex -5.859776e-03  1.380808e-02  1.000000e+00
   endloop
 endfacet
 facet normal  0.000000e+00  0.000000e+00  1.000000e+00
   outer loop
     vertex  8.388554e-03  6.763625e-03  1.000000e+00
     vertex -1.338855e-02  6.763625e-03  1.000000e+00
     vertex -1.459158e-02  3.476470e-03  1.000000e+00
   endloop
 endfacet
 facet normal  0.000000e+00  0.000000e+00  1.000000e+00
   outer loop
     vertex  8.388554e-03  6.763625e-03  1.000000e+00
     vertex -1.459158e-02  3.476470e-03  1.000000e+00
     vertex  9.591578e-03  3.476470e-03  1.000000e+00
   endloop
 endfacet
 facet normal  0.000000e+00  0.000000e+00  1.000000e+00
   outer loop
     vertex  3.900450e-03  1.207402e-02  1.000000e+00
     vertex -5.859776e-03  1.380808e-02  1.000000e+00
     vertex -8.900450e-03  1.207402e-02  1.000000e+00
   endloop
 endfacet
 facet normal  0.000000e+00  0.000000e+00  1.000000e+00
   outer loop
     vertex  3.900450e-03  1.207402e-02  1.000000e+00
     vertex  8.597757e-04  1.380808e-02  1.000000e+00
     vertex -5.859776e-03  1.380808e-02  1.000000e+00
   endloop
 endfacet
 facet normal  0.000000e+00  0.000000e+00  1.000000e+00
   outer loop
     vertex  6.456439e-03  9.682458e-03  1.000000e+00
     vertex -8.900450e-03  1.207402e-02  1.000000e+00
     vertex -1.145644e-02  9.682458e-03  1.000000e+00
   endloop
 endfacet
 facet normal  0.000000e+00  0.000000e+00  1.000000e+00
   outer loop
     vertex  6.456439e-03  9.682458e-03  1.000000e+00
     vertex -1.145644e-02  9.682458e-03  1.000000e+00
     vertex -1.338855e-02  6.763625e-03  1.000000e+00
   endloop
 endfacet
 facet normal  0.000000e+00  0.000000e+00  1.000000e+00
   outer loop
     vertex  6.456439e-03  9.682458e-03  1.000000e+00
     vertex -1.338855e-02  6.763625e-03  1.000000e+00
     vertex  8.388554e-03  6.763625e-03  1.000000e+00
   endloop
 endfacet
 facet normal  0.000000e+00  0.000000e+00  1.000000e+00
   outer loop
     vertex  6.456439e-03  9.682458e-03  1.000000e+00
     vertex  3.900450e-03  1.207402e-02  1.000000e+00
     vertex -8.900450e-03  1.207402e-02  1.000000e+00
   endloop
 endfacet
 facet normal  0.000000e+00  0.000000e+00 -1.000000e+00
   outer loop
     vertex -1.145644e-02 -9.682458e-03 -1.000000e+00
     vertex -1.318914e-02 -1.256734e-02 -1.000000e+00
     vertex -1.602671e-02 -1.016916e-02 -1.000000e+00
   endloop
 endfacet
 facet normal  0.000000e+00  0.000000e+00 -1.000000e+00
   outer loop
     vertex -8.900450e-03 -1.207402e-02 -1.000000e+00
     vertex -9.849195e-03 -1.419455e-02 -1.000000e+00
     vertex -1.318914e-02 -1.256734e-02 -1.000000e+00
   endloop
 endfacet
 facet normal -0.000000e+00  0.000000e+00 -1.000000e+00
   outer loop
     vertex -8.900450e-03 -1.207402e-02 -1.000000e+00
     vertex -1.318914e-02 -1.256734e-02 -1.000000e+00
     vertex -1.145644e-02 -9.682458e-03 -1.000000e+00
   endloop
 endfacet
 facet normal  0.000000e+00  0.000000e+00 -1.000000e+00
   outer loop
     vertex -1.338855e-02 -6.763625e-03 -1.000000e+00
     vertex -1.602671e-02 -1.016916e-02 -1.000000e+00
     vertex -1.818782e-02 -7.147129e-03 -1.000000e+00
   endloop
 endfacet
 facet normal  0.000000e+00 -0.000000e+00 -1.000000e+00
   outer loop
     vertex -1.338855e-02 -6.763625e-03 -1.000000e+00
     vertex -1.145644e-02 -9.682458e-03 -1.000000e+00
     vertex -1.602671e-02 -1.016916e-02 -1.000000e+00
   endloop
 endfacet
 facet normal  0.000000e+00  0.000000e+00 -1.000000e+00
   outer loop
     vertex -5.859776e-03 -1.380808e-02 -1.000000e+00
     vertex -6.211766e-03 -1.495097e-02 -1.000000e+00
     vertex -9.849195e-03 -1.419455e-02 -1.000000e+00
   endloop
 endfacet
 facet normal -0.000000e+00  0.000000e+00 -1.000000e+00
   outer loop
     vertex -5.859776e-03 -1.380808e-02 -1.000000e+00
     vertex -9.849195e-03 -1.419455e-02 -1.000000e+00
     vertex -8.900450e-03 -1.207402e-02 -1.000000e+00
   endloop
 endfacet
 facet normal  0.000000e+00  0.000000e+00 -1.000000e+00
   outer loop
     vertex -1.459158e-02 -3.476470e-03 -1.000000e+00
     vertex -1.818782e-02 -7.147129e-03 -1.000000e+00
     vertex -1.953990e-02 -3.686647e-03 -1.000000e+00
   endloop
 endfacet
 facet normal  0.000000e+00 -0.000000e+00 -1.000000e+00
   outer loop
     vertex -1.459158e-02 -3.476470e-03 -1.000000e+00
     vertex -1.338855e-02 -6.763625e-03 -1.000000e+00
     vertex -1.818782e-02 -7.147129e-03 -1.000000e+00
   endloop
 endfacet
 facet normal -0.000000e+00  0.000000e+00 -1.000000e+00
   outer loop
     vertex -2.500000e-03 -1.479020e-02 -1.000000e+00
     vertex -6.211766e-03 -1.495097e-02 -1.000000e+00
     vertex -5.859776e-03 -1.380808e-02 -1.000000e+00
   endloop
 endfacet
 facet normal  0.000000e+00  0.000000e+00 -1.000000e+00
   outer loop
     vertex -1.500000e-02  1.836970e-18 -1.000000e+00
     vertex -2.000000e-02  1.836970e-18 -1.000000e+00
     vertex -1.953990e-02  3.686647e-03 -1.000000e+00
   endloop
 endfacet
 facet normal -0.000000e+00  0.000000e+00 -1.000000e+00
   outer loop
     vertex -1.500000e-02  1.836970e-18 -1.000000e+00
     vertex -1.953990e-02 -3.686647e-03 -1.000000e+00
     vertex -2.000000e-02  1.836970e-18 -1.000000e+00
   endloop
 endfacet
 facet normal  0.000000e+00 -0.000000e+00 -1.000000e+00
   outer loop
     vertex -1.500000e-02  1.836970e-18 -1.000000e+00
     vertex -1.459158e-02 -3.476470e-03 -1.000000e+00
     vertex -1.953990e-02 -3.686647e-03 -1.000000e+00
   endloop
 endfacet
 facet normal -0.000000e+00  0.000000e+00 -1.000000e+00
   outer loop
     vertex -1.459158e-02  3.476470e-03 -1.000000e+00
     vertex -1.500000e-02  1.836970e-18 -1.000000e+00
     vertex -1.953990e-02  3.686647e-03 -1.000000e+00
   endloop
 endfacet
 facet normal  0.000000e+00 -0.000000e+00 -1.000000e+00
   outer loop
     vertex -1.818782e-02  7.147129e-03 -1.000000e+00
     vertex -1.459158e-02  3.476470e-03 -1.000000e+00
     vertex -1.953990e-02  3.686647e-03 -1.000000e+00
   endloop
 endfacet
 facet normal -0.000000e+00  0.000000e+00 -1.000000e+00
   outer loop
     vertex -1.338855e-02  6.763625e-03 -1.000000e+00
     vertex -1.459158e-02  3.476470e-03 -1.000000e+00
     vertex -1.818782e-02  7.147129e-03 -1.000000e+00
   endloop
 endfacet
 facet normal  0.000000e+00 -0.000000e+00 -1.000000e+00
   outer loop
     vertex -1.602671e-02  1.016916e-02 -1.000000e+00
     vertex -1.338855e-02  6.763625e-03 -1.000000e+00
     vertex -1.818782e-02  7.147129e-03 -1.000000e+00
   endloop
 endfacet
 facet normal -0.000000e+00  0.000000e+00 -1.000000e+00
   outer loop
     vertex -1.145644e-02  9.682458e-03 -1.000000e+00
     vertex -1.338855e-02  6.763625e-03 -1.000000e+00
     vertex -1.602671e-02  1.016916e-02 -1.000000e+00
   endloop
 endfacet
 facet normal  0.000000e+00 -0.000000e+00 -1.000000e+00
   outer loop
     vertex -1.318914e-02  1.256734e-02 -1.000000e+00
     vertex -1.145644e-02  9.682458e-03 -1.000000e+00
     vertex -1.602671e-02  1.016916e-02 -1.000000e+00
   endloop
 endfacet
 facet normal -0.000000e+00  0.000000e+00 -1.000000e+00
   outer loop
     vertex -8.900450e-03  1.207402e-02 -1.000000e+00
     vertex -1.145644e-02  9.682458e-03 -1.000000e+00
     vertex -1.318914e-02  1.256734e-02 -1.000000e+00
   endloop
 endfacet
 facet normal  0.000000e+00 -0.000000e+00 -1.000000e+00
   outer loop
     vertex -9.849195e-03  1.419455e-02 -1.000000e+00
     vertex -8.900450e-03  1.207402e-02 -1.000000e+00
     vertex -1.318914e-02  1.256734e-02 -1.000000e+00
   endloop
 endfacet
 facet normal -0.000000e+00  0.000000e+00 -1.000000e+00
   outer loop
     vertex -5.859776e-03  1.380808e-02 -1.000000e+00
     vertex -8.900450e-03  1.207402e-02 -1.000000e+00
     vertex -9.849195e-03  1.419455e-02 -1.000000e+00
   endloop
 endfacet
 facet normal  0.000000e+00 -0.000000e+00 -1.000000e+00
   outer loop
     vertex -6.211766e-03  1.495097e-02 -1.000000e+00
     vertex -5.859776e-03  1.380808e-02 -1.000000e+00
     vertex -9.849195e-03  1.419455e-02 -1.000000e+00
   endloop
 endfacet
 facet normal -0.000000e+00  0.000000e+00 -1.000000e+00
   outer loop
     vertex -2.500000e-03  1.479020e-02 -1.000000e+00
     vertex -5.859776e-03  1.380808e-02 -1.000000e+00
     vertex -6.211766e-03  1.495097e-02 -1.000000e+00
   endloop
 endfacet
 facet normal -0.000000e+00  0.000000e+00 -1.000000e+00
   outer loop
     vertex  8.597757e-04 -1.380808e-02 -1.000000e+00
     vertex -2.500000e-03 -1.479020e-02 -1.000000e+00
     vertex -5.859776e-03 -1.380808e-02 -1.000000e+00
   endloop
 endfacet
 facet normal -0.000000e+00  0.000000e+00 -1.000000e+00
   outer loop
     vertex  3.900450e-03 -1.207402e-02 -1.000000e+00
     vertex -5.859776e-03 -1.380808e-02 -1.000000e+00
     vertex -8.900450e-03 -1.207402e-02 -1.000000e+00
   endloop
 endfacet
 facet normal  0.000000e+00  0.000000e+00 -1.000000e+00
   outer loop
     vertex  3.900450e-03 -1.207402e-02 -1.000000e+00
     vertex  8.597757e-04 -1.380808e-02 -1.000000e+00
     vertex -5.859776e-03 -1.380808e-02 -1.000000e+00
   endloop
 endfacet
 facet normal -0.000000e+00  0.000000e+00 -1.000000e+00
   outer loop
     vertex  6.456439e-03 -9.682458e-03 -1.000000e+00
     vertex -8.900450e-03 -1.207402e-02 -1.000000e+00
     vertex -1.145644e-02 -9.682458e-03 -1.000000e+00
   endloop
 endfacet
 facet normal  0.000000e+00  0.000000e+00 -1.000000e+00
   outer loop
     vertex  6.456439e-03 -9.682458e-03 -1.000000e+00
     vertex  3.900450e-03 -1.207402e-02 -1.000000e+00
     vertex -8.900450e-03 -1.207402e-02 -1.000000e+00
   endloop
 endfacet
 facet normal -0.000000e+00  0.000000e+00 -1.000000e+00
   outer loop
     vertex  8.388554e-03 -6.763625e-03 -1.000000e+00
     vertex -1.145644e-02 -9.682458e-03 -1.000000e+00
     vertex -1.338855e-02 -6.763625e-03 -1.000000e+00
   endloop
 endfacet
 facet normal  0.000000e+00  0.000000e+00 -1.000000e+00
   outer loop
     vertex  8.388554e-03 -6.763625e-03 -1.000000e+00
     vertex  6.456439e-03 -9.682458e-03 -1.000000e+00
     vertex -1.145644e-02 -9.682458e-03 -1.000000e+00
   endloop
 endfacet
 facet normal -0.000000e+00  0.000000e+00 -1.000000e+00
   outer loop
     vertex  9.591578e-03 -3.476470e-03 -1.000000e+00
     vertex -1.338855e-02 -6.763625e-03 -1.000000e+00
     vertex -1.459158e-02 -3.476470e-03 -1.000000e+00
   endloop
 endfacet
 facet normal  0.000000e+00  0.000000e+00 -1.000000e+00
   outer loop
     vertex  9.591578e-03 -3.476470e-03 -1.000000e+00
     vertex  8.388554e-03 -6.763625e-03 -1.000000e+00
     vertex -1.338855e-02 -6.763625e-03 -1.000000e+00
   endloop
 endfacet
 facet normal -0.000000e+00  0.000000e+00 -1.000000e+00
   outer loop
     vertex  1.000000e-02  0.000000e+00 -1.000000e+00
     vertex -1.459158e-02 -3.476470e-03 -1.000000e+00
     vertex -1.500000e-02  1.836970e-18 -1.000000e+00
   endloop
 endfacet
 facet normal  0.000000e+00  0.000000e+00 -1.000000e+00
   outer loop
     vertex  1.000000e-02  0.000000e+00 -1.000000e+00
     vertex  9.591578e-03 -3.476470e-03 -1.000000e+00
     vertex -1.459158e-02 -3.476470e-03 -1.000000e+00
   endloop
 endfacet
 facet normal  0.000000e+00  0.000000e+00 -1.000000e+00
   outer loop
     vertex  9.591578e-03  3.476470e-03 -1.000000e+00
     vertex -1.500000e-02  1.836970e-18 -1.000000e+00
     vertex -1.459158e-02  3.476470e-03 -1.000000e+00
   endloop
 endfacet
 facet normal  0.000000e+00 -0.000000e+00 -1.000000e+00
   outer loop
     vertex  9.591578e-03  3.476470e-03 -1.000000e+00
     vertex  1.000000e-02  0.000000e+00 -1.000000e+00
     vertex -1.500000e-02  1.836970e-18 -1.000000e+00
   endloop
 endfacet
 facet normal -0.000000e+00  0.000000e+00 -1.000000e+00
   outer loop
     vertex  8.597757e-04  1.380808e-02 -1.000000e+00
     vertex -5.859776e-03  1.380808e-02 -1.000000e+00
     vertex -2.500000e-03  1.479020e-02 -1.000000e+00
   endloop
 endfacet
 facet normal  0.000000e+00  0.000000e+00 -1.000000e+00
   outer loop
     vertex  8.388554e-03  6.763625e-03 -1.000000e+00
     vertex -1.459158e-02  3.476470e-03 -1.000000e+00
     vertex -1.338855e-02  6.763625e-03 -1.000000e+00
   endloop
 endfacet
 facet normal  0.000000e+00 -0.000000e+00 -1.000000e+00
   outer loop
     vertex  8.388554e-03  6.763625e-03 -1.000000e+00
     vertex  9.591578e-03  3.476470e-03 -1.000000e+00
     vertex -1.459158e-02  3.476470e-03 -1.000000e+00
   endloop
 endfacet
 facet normal -0.000000e+00  0.000000e+00 -1.000000e+00
   outer loop
     vertex  3.900450e-03  1.207402e-02 -1.000000e+00
     vertex -8.900450e-03  1.207402e-02 -1.000000e+00
     vertex -5.859776e-03  1.380808e-02 -1.000000e+00
   endloop
 endfacet
 facet normal  0.000000e+00  0.000000e+00 -1.000000e+00
   outer loop
     vertex  3.900450e-03  1.207402e-02 -1.000000e+00
     vertex -5.859776e-03  1.380808e-02 -1.000000e+00
     vertex  8.597757e-04  1.380808e-02 -1.000000e+00
   endloop
 endfacet
 facet normal -0.000000e+00  0.000000e+00 -1.000000e+00
   outer loop
     vertex  6.456439e-03  9.682458e-03 -1.000000e+00
     vertex -1.145644e-02  9.682458e-03 -1.000000e+00
     vertex -8.900450e-03  1.207402e-02 -1.000000e+00
   endloop
 endfacet
 facet normal  0.000000e+00  0.000000e+00 -1.000000e+00
   outer loop
     vertex  6.456439e-03  9.682458e-03 -1.000000e+00
     vertex -1.338855e-02  6.763625e-03 -1.000000e+00
     vertex -1.145644e-02  9.682458e-03 -1.000000e+00
   endloop
 endfacet
 facet normal  0.000000e+00 -0.000000e+00 -1.000000e+00
   outer loop
     vertex  6.456439e-03  9.682458e-03 -1.000000e+00
     vertex  8.388554e-03  6.763625e-03 -1.000000e+00
     vertex -1.338855e-02  6.763625e-03 -1.000000e+00
   endloop
 endfacet
 facet normal  0.000000e+00  0.000000e+00 -1.000000e+00
   outer loop
     vertex  6.456439e-03  9.682458e-03 -1.000000e+00
     vertex -8.900450e-03  1.207402e-02 -1.000000e+00
     vertex  3.900450e-03  1.207402e-02 -1.000000e+00
   endloop
 endfacet
endsolid
