solid 
 facet normal  9.863939e-01 -1.643990e-01  0.000000e+00
   outer loop
     vertex -5.000000e-03  0.000000e+00  0.000000e+00
     vertex  5.000000e-03  6.000000e-02  0.000000e+00
     vertex  5.000000e-03  6.000000e-02  2.500000e-02
   endloop
 endfacet
 facet normal  9.863939e-01 -1.643990e-01  0.000000e+00
   outer loop
     vertex -5.000000e-03  0.000000e+00  0.000000e+00
     vertex  5.000000e-03  6.000000e-02  2.500000e-02
     vertex -5.000000e-03  0.000000e+00  2.500000e-02
   endloop
 endfacet
 facet normal -1.000000e+00  0.000000e+00  0.000000e+00
   outer loop
     vertex -5.000000e-03  9.800000e-01  0.000000e+00
     vertex -5.000000e-03  0.000000e+00  0.000000e+00
     vertex -5.000000e-03  0.000000e+00  2.500000e-02
   endloop
 endfacet
 facet normal -1.000000e+00  0.000000e+00  0.000000e+00
   outer loop
     vertex -5.000000e-03  9.800000e-01  0.000000e+00
     vertex -5.000000e-03  0.000000e+00  2.500000e-02
     vertex -5.000000e-03  9.800000e-01  2.500000e-02
   endloop
 endfacet
 facet normal  0.000000e+00  1.000000e+00  0.000000e+00
   outer loop
     vertex -5.000000e-03  9.800000e-01  0.000000e+00
     vertex  5.000000e-03  9.800000e-01  2.500000e-02
     vertex  5.000000e-03  9.800000e-01  0.000000e+00
   endloop
 endfacet
 facet normal  0.000000e+00  1.000000e+00  0.000000e+00
   outer loop
     vertex -5.000000e-03  9.800000e-01  0.000000e+00
     vertex -5.000000e-03  9.800000e-01  2.500000e-02
     vertex  5.000000e-03  9.800000e-01  2.500000e-02
   endloop
 endfacet
 facet normal  1.000000e+00  0.000000e+00  0.000000e+00
   outer loop
     vertex  5.000000e-03  9.800000e-01  0.000000e+00
     vertex  5.000000e-03  6.000000e-02  2.500000e-02
     vertex  5.000000e-03  6.000000e-02  0.000000e+00
   endloop
 endfacet
 facet normal  1.000000e+00  0.000000e+00 -0.000000e+00
   outer loop
     vertex  5.000000e-03  9.800000e-01  0.000000e+00
     vertex  5.000000e-03  9.800000e-01  2.500000e-02
     vertex  5.000000e-03  6.000000e-02  2.500000e-02
   endloop
 endfacet
 facet normal -0.000000e+00 -0.000000e+00 -1.000000e+00
   outer loop
     vertex  5.000000e-03  9.800000e-01  0.000000e+00
     vertex  5.000000e-03  6.000000e-02  0.000000e+00
     vertex -5.000000e-03  9.800000e-01  0.000000e+00
   endloop
 endfacet
 facet normal  0.000000e+00  0.000000e+00 -1.000000e+00
   outer loop
     vertex -5.000000e-03  9.800000e-01  0.000000e+00
     vertex  5.000000e-03  6.000000e-02  0.000000e+00
     vertex -5.000000e-03  0.000000e+00  0.000000e+00
   endloop
 endfacet
 facet normal  0.000000e+00  0.000000e+00  1.000000e+00
   outer loop
     vertex  5.000000e-03  9.800000e-01  2.500000e-02
     vertex -5.000000e-03  9.800000e-01  2.500000e-02
     vertex  5.000000e-03  6.000000e-02  2.500000e-02
   endloop
 endfacet
 facet normal  0.000000e+00  0.000000e+00  1.000000e+00
   outer loop
     vertex -5.000000e-03  9.800000e-01  2.500000e-02
     vertex -5.000000e-03  0.000000e+00  2.500000e-02
     vertex  5.000000e-03  6.000000e-02  2.500000e-02
   endloop
 endfacet
endsolid
