solid 
 facet normal  0.000000e+00 -1.000000e+00  0.000000e+00
   outer loop
     vertex  9.800000e-01  0.000000e+00  0.000000e+00
     vertex  0.000000e+00  0.000000e+00  2.500000e-02
     vertex  0.000000e+00  0.000000e+00  0.000000e+00
   endloop
 endfacet
 facet normal  0.000000e+00 -1.000000e+00  0.000000e+00
   outer loop
     vertex  9.800000e-01  0.000000e+00  0.000000e+00
     vertex  9.800000e-01  0.000000e+00  2.500000e-02
     vertex  0.000000e+00  0.000000e+00  2.500000e-02
   endloop
 endfacet
 facet normal  1.000000e+00  0.000000e+00  0.000000e+00
   outer loop
     vertex  9.800000e-01  9.800000e-01  0.000000e+00
     vertex  9.800000e-01  0.000000e+00  2.500000e-02
     vertex  9.800000e-01  0.000000e+00  0.000000e+00
   endloop
 endfacet
 facet normal  1.000000e+00  0.000000e+00 -0.000000e+00
   outer loop
     vertex  9.800000e-01  9.800000e-01  0.000000e+00
     vertex  9.800000e-01  9.800000e-01  2.500000e-02
     vertex  9.800000e-01  0.000000e+00  2.500000e-02
   endloop
 endfacet
 facet normal  0.000000e+00  1.000000e+00  0.000000e+00
   outer loop
     vertex  9.800000e-01  9.800000e-01  0.000000e+00
     vertex  0.000000e+00  9.800000e-01  0.000000e+00
     vertex  0.000000e+00  9.800000e-01  2.500000e-02
   endloop
 endfacet
 facet normal  0.000000e+00  1.000000e+00 -0.000000e+00
   outer loop
     vertex  9.800000e-01  9.800000e-01  0.000000e+00
     vertex  0.000000e+00  9.800000e-01  2.500000e-02
     vertex  9.800000e-01  9.800000e-01  2.500000e-02
   endloop
 endfacet
 facet normal -1.000000e+00  0.000000e+00  0.000000e+00
   outer loop
     vertex  0.000000e+00  9.800000e-01  0.000000e+00
     vertex  0.000000e+00  0.000000e+00  0.000000e+00
     vertex  0.000000e+00  0.000000e+00  2.500000e-02
   endloop
 endfacet
 facet normal -1.000000e+00  0.000000e+00  0.000000e+00
   outer loop
     vertex  0.000000e+00  9.800000e-01  0.000000e+00
     vertex  0.000000e+00  0.000000e+00  2.500000e-02
     vertex  0.000000e+00  9.800000e-01  2.500000e-02
   endloop
 endfacet
 facet normal  0.000000e+00 -0.000000e+00 -1.000000e+00
   outer loop
     vertex  9.800000e-01  9.800000e-01  0.000000e+00
     vertex  9.800000e-01  0.000000e+00  0.000000e+00
     vertex  0.000000e+00  0.000000e+00  0.000000e+00
   endloop
 endfacet
 facet normal -0.000000e+00  0.000000e+00 -1.000000e+00
   outer loop
     vertex  9.800000e-01  9.800000e-01  0.000000e+00
     vertex  0.000000e+00  0.000000e+00  0.000000e+00
     vertex  0.000000e+00  9.800000e-01  0.000000e+00
   endloop
 endfacet
 facet normal  0.000000e+00  0.000000e+00  1.000000e+00
   outer loop
     vertex  9.800000e-01  9.800000e-01  2.500000e-02
     vertex  0.000000e+00  0.000000e+00  2.500000e-02
     vertex  9.800000e-01  0.000000e+00  2.500000e-02
   endloop
 endfacet
 facet normal  0.000000e+00  0.000000e+00  1.000000e+00
   outer loop
     vertex  9.800000e-01  9.800000e-01  2.500000e-02
     vertex  0.000000e+00  9.800000e-01  2.500000e-02
     vertex  0.000000e+00  0.000000e+00  2.500000e-02
   endloop
 endfacet
 facet normal  0.000000e+00  1.000000e+00  0.000000e+00
   outer loop
     vertex  9.845000e+01  9.845000e+01  5.000000e+00
     vertex  9.755000e+01  9.845000e+01  5.000000e+00
     vertex  9.755000e+01  9.845000e+01  5.010000e+00
   endloop
 endfacet
 facet normal  0.000000e+00  1.000000e+00 -0.000000e+00
   outer loop
     vertex  9.845000e+01  9.845000e+01  5.000000e+00
     vertex  9.755000e+01  9.845000e+01  5.010000e+00
     vertex  9.845000e+01  9.845000e+01  5.010000e+00
   endloop
 endfacet
 facet normal -1.000000e+00  0.000000e+00  0.000000e+00
   outer loop
     vertex  9.755000e+01  9.755000e+01  5.000000e+00
     vertex  9.755000e+01  9.845000e+01  5.010000e+00
     vertex  9.755000e+01  9.845000e+01  5.000000e+00
   endloop
 endfacet
 facet normal -1.000000e+00  0.000000e+00  0.000000e+00
   outer loop
     vertex  9.755000e+01  9.755000e+01  5.000000e+00
     vertex  9.755000e+01  9.755000e+01  5.010000e+00
     vertex  9.755000e+01  9.845000e+01  5.010000e+00
   endloop
 endfacet
 facet normal  1.000000e+00  0.000000e+00  0.000000e+00
   outer loop
     vertex  9.845000e+01  9.755000e+01  5.000000e+00
     vertex  9.845000e+01  9.845000e+01  5.000000e+00
     vertex  9.845000e+01  9.845000e+01  5.010000e+00
   endloop
 endfacet
 facet normal  1.000000e+00  0.000000e+00  0.000000e+00
   outer loop
     vertex  9.845000e+01  9.755000e+01  5.000000e+00
     vertex  9.845000e+01  9.845000e+01  5.010000e+00
     vertex  9.845000e+01  9.755000e+01  5.010000e+00
   endloop
 endfacet
 facet normal  0.000000e+00 -1.000000e+00  0.000000e+00
   outer loop
     vertex  9.845000e+01  9.755000e+01  5.000000e+00
     vertex  9.755000e+01  9.755000e+01  5.010000e+00
     vertex  9.755000e+01  9.755000e+01  5.000000e+00
   endloop
 endfacet
 facet normal  0.000000e+00 -1.000000e+00  0.000000e+00
   outer loop
     vertex  9.845000e+01  9.755000e+01  5.000000e+00
     vertex  9.845000e+01  9.755000e+01  5.010000e+00
     vertex  9.755000e+01  9.755000e+01  5.010000e+00
   endloop
 endfacet
 facet normal  1.000000e+00  0.000000e+00  0.000000e+00
   outer loop
     vertex  9.759000e+01  9.776500e+01  5.000000e+00
     vertex  9.759000e+01  9.823500e+01  5.000000e+00
     vertex  9.759000e+01  9.823500e+01  5.010000e+00
   endloop
 endfacet
 facet normal  1.000000e+00  0.000000e+00  0.000000e+00
   outer loop
     vertex  9.759000e+01  9.776500e+01  5.000000e+00
     vertex  9.759000e+01  9.823500e+01  5.010000e+00
     vertex  9.759000e+01  9.776500e+01  5.010000e+00
   endloop
 endfacet
 facet normal  0.000000e+00  1.000000e+00  0.000000e+00
   outer loop
     vertex  9.823500e+01  9.776500e+01  5.000000e+00
     vertex  9.759000e+01  9.776500e+01  5.000000e+00
     vertex  9.759000e+01  9.776500e+01  5.010000e+00
   endloop
 endfacet
 facet normal  0.000000e+00  1.000000e+00 -0.000000e+00
   outer loop
     vertex  9.823500e+01  9.776500e+01  5.000000e+00
     vertex  9.759000e+01  9.776500e+01  5.010000e+00
     vertex  9.823500e+01  9.776500e+01  5.010000e+00
   endloop
 endfacet
 facet normal -1.000000e+00  0.000000e+00  0.000000e+00
   outer loop
     vertex  9.823500e+01  9.776500e+01  5.000000e+00
     vertex  9.823500e+01  9.823500e+01  5.010000e+00
     vertex  9.823500e+01  9.823500e+01  5.000000e+00
   endloop
 endfacet
 facet normal -1.000000e+00  0.000000e+00  0.000000e+00
   outer loop
     vertex  9.823500e+01  9.776500e+01  5.000000e+00
     vertex  9.823500e+01  9.776500e+01  5.010000e+00
     vertex  9.823500e+01  9.823500e+01  5.010000e+00
   endloop
 endfacet
 facet normal  0.000000e+00 -1.000000e+00  0.000000e+00
   outer loop
     vertex  9.823500e+01  9.823500e+01  5.000000e+00
     vertex  9.759000e+01  9.823500e+01  5.010000e+00
     vertex  9.759000e+01  9.823500e+01  5.000000e+00
   endloop
 endfacet
 facet normal  0.000000e+00 -1.000000e+00  0.000000e+00
   outer loop
     vertex  9.823500e+01  9.823500e+01  5.000000e+00
     vertex  9.823500e+01  9.823500e+01  5.010000e+00
     vertex  9.759000e+01  9.823500e+01  5.010000e+00
   endloop
 endfacet
 facet normal  0.000000e+00 -0.000000e+00 -1.000000e+00
   outer loop
     vertex  9.823500e+01  9.776500e+01  5.000000e+00
     vertex  9.845000e+01  9.755000e+01  5.000000e+00
     vertex  9.755000e+01  9.755000e+01  5.000000e+00
   endloop
 endfacet
 facet normal -0.000000e+00  0.000000e+00 -1.000000e+00
   outer loop
     vertex  9.823500e+01  9.776500e+01  5.000000e+00
     vertex  9.755000e+01  9.755000e+01  5.000000e+00
     vertex  9.759000e+01  9.776500e+01  5.000000e+00
   endloop
 endfacet
 facet normal  0.000000e+00  0.000000e+00 -1.000000e+00
   outer loop
     vertex  9.823500e+01  9.823500e+01  5.000000e+00
     vertex  9.759000e+01  9.823500e+01  5.000000e+00
     vertex  9.755000e+01  9.845000e+01  5.000000e+00
   endloop
 endfacet
 facet normal  0.000000e+00  0.000000e+00 -1.000000e+00
   outer loop
     vertex  9.845000e+01  9.845000e+01  5.000000e+00
     vertex  9.823500e+01  9.776500e+01  5.000000e+00
     vertex  9.823500e+01  9.823500e+01  5.000000e+00
   endloop
 endfacet
 facet normal  0.000000e+00 -0.000000e+00 -1.000000e+00
   outer loop
     vertex  9.845000e+01  9.845000e+01  5.000000e+00
     vertex  9.845000e+01  9.755000e+01  5.000000e+00
     vertex  9.823500e+01  9.776500e+01  5.000000e+00
   endloop
 endfacet
 facet normal -0.000000e+00  0.000000e+00 -1.000000e+00
   outer loop
     vertex  9.845000e+01  9.845000e+01  5.000000e+00
     vertex  9.823500e+01  9.823500e+01  5.000000e+00
     vertex  9.755000e+01  9.845000e+01  5.000000e+00
   endloop
 endfacet
 facet normal  0.000000e+00  0.000000e+00 -1.000000e+00
   outer loop
     vertex  9.755000e+01  9.845000e+01  5.000000e+00
     vertex  9.759000e+01  9.776500e+01  5.000000e+00
     vertex  9.755000e+01  9.755000e+01  5.000000e+00
   endloop
 endfacet
 facet normal  0.000000e+00  0.000000e+00 -1.000000e+00
   outer loop
     vertex  9.755000e+01  9.845000e+01  5.000000e+00
     vertex  9.759000e+01  9.823500e+01  5.000000e+00
     vertex  9.759000e+01  9.776500e+01  5.000000e+00
   endloop
 endfacet
 facet normal  0.000000e+00  0.000000e+00  1.000000e+00
   outer loop
     vertex  9.823500e+01  9.776500e+01  5.010000e+00
     vertex  9.755000e+01  9.755000e+01  5.010000e+00
     vertex  9.845000e+01  9.755000e+01  5.010000e+00
   endloop
 endfacet
 facet normal  0.000000e+00  0.000000e+00  1.000000e+00
   outer loop
     vertex  9.823500e+01  9.776500e+01  5.010000e+00
     vertex  9.759000e+01  9.776500e+01  5.010000e+00
     vertex  9.755000e+01  9.755000e+01  5.010000e+00
   endloop
 endfacet
 facet normal  0.000000e+00  0.000000e+00  1.000000e+00
   outer loop
     vertex  9.823500e+01  9.823500e+01  5.010000e+00
     vertex  9.755000e+01  9.845000e+01  5.010000e+00
     vertex  9.759000e+01  9.823500e+01  5.010000e+00
   endloop
 endfacet
 facet normal  0.000000e+00  0.000000e+00  1.000000e+00
   outer loop
     vertex  9.845000e+01  9.845000e+01  5.010000e+00
     vertex  9.823500e+01  9.823500e+01  5.010000e+00
     vertex  9.823500e+01  9.776500e+01  5.010000e+00
   endloop
 endfacet
 facet normal  0.000000e+00  0.000000e+00  1.000000e+00
   outer loop
     vertex  9.845000e+01  9.845000e+01  5.010000e+00
     vertex  9.823500e+01  9.776500e+01  5.010000e+00
     vertex  9.845000e+01  9.755000e+01  5.010000e+00
   endloop
 endfacet
 facet normal  0.000000e+00  0.000000e+00  1.000000e+00
   outer loop
     vertex  9.845000e+01  9.845000e+01  5.010000e+00
     vertex  9.755000e+01  9.845000e+01  5.010000e+00
     vertex  9.823500e+01  9.823500e+01  5.010000e+00
   endloop
 endfacet
 facet normal  0.000000e+00  0.000000e+00  1.000000e+00
   outer loop
     vertex  9.755000e+01  9.845000e+01  5.010000e+00
     vertex  9.755000e+01  9.755000e+01  5.010000e+00
     vertex  9.759000e+01  9.776500e+01  5.010000e+00
   endloop
 endfacet
 facet normal  0.000000e+00  0.000000e+00  1.000000e+00
   outer loop
     vertex  9.755000e+01  9.845000e+01  5.010000e+00
     vertex  9.759000e+01  9.776500e+01  5.010000e+00
     vertex  9.759000e+01  9.823500e+01  5.010000e+00
   endloop
 endfacet
endsolid
