solid 
 facet normal  0.000000e+00  1.000000e+00  0.000000e+00
   outer loop
     vertex  9.800000e-01  9.800000e-01  0.000000e+00
     vertex -9.800000e-01  9.800000e-01  0.000000e+00
     vertex -9.800000e-01  9.800000e-01  4.650000e-01
   endloop
 endfacet
 facet normal  0.000000e+00  1.000000e+00 -0.000000e+00
   outer loop
     vertex  9.800000e-01  9.800000e-01  0.000000e+00
     vertex -9.800000e-01  9.800000e-01  4.650000e-01
     vertex  9.800000e-01  9.800000e-01  4.650000e-01
   endloop
 endfacet
 facet normal -1.000000e+00  0.000000e+00  0.000000e+00
   outer loop
     vertex -9.800000e-01 -9.800000e-01  0.000000e+00
     vertex -9.800000e-01  9.800000e-01  4.650000e-01
     vertex -9.800000e-01  9.800000e-01  0.000000e+00
   endloop
 endfacet
 facet normal -1.000000e+00  0.000000e+00  0.000000e+00
   outer loop
     vertex -9.800000e-01 -9.800000e-01  0.000000e+00
     vertex -9.800000e-01 -9.800000e-01  4.650000e-01
     vertex -9.800000e-01  9.800000e-01  4.650000e-01
   endloop
 endfacet
 facet normal  1.000000e+00  0.000000e+00  0.000000e+00
   outer loop
     vertex  9.800000e-01 -9.800000e-01  0.000000e+00
     vertex  9.800000e-01  9.800000e-01  0.000000e+00
     vertex  9.800000e-01  9.800000e-01  4.650000e-01
   endloop
 endfacet
 facet normal  1.000000e+00  0.000000e+00  0.000000e+00
   outer loop
     vertex  9.800000e-01 -9.800000e-01  0.000000e+00
     vertex  9.800000e-01  9.800000e-01  4.650000e-01
     vertex  9.800000e-01 -9.800000e-01  4.650000e-01
   endloop
 endfacet
 facet normal  0.000000e+00 -1.000000e+00  0.000000e+00
   outer loop
     vertex  9.800000e-01 -9.800000e-01  0.000000e+00
     vertex -9.800000e-01 -9.800000e-01  4.650000e-01
     vertex -9.800000e-01 -9.800000e-01  0.000000e+00
   endloop
 endfacet
 facet normal  0.000000e+00 -1.000000e+00  0.000000e+00
   outer loop
     vertex  9.800000e-01 -9.800000e-01  0.000000e+00
     vertex  9.800000e-01 -9.800000e-01  4.650000e-01
     vertex -9.800000e-01 -9.800000e-01  4.650000e-01
   endloop
 endfacet
 facet normal -9.984815e-01 -5.508776e-02  0.000000e+00
   outer loop
     vertex  3.180578e-01  3.520263e-02  0.000000e+00
     vertex  3.200000e-01  0.000000e+00  0.000000e+00
     vertex  3.200000e-01  0.000000e+00  4.650000e-01
   endloop
 endfacet
 facet normal -9.984815e-01 -5.508776e-02  0.000000e+00
   outer loop
     vertex  3.180578e-01  3.520263e-02  0.000000e+00
     vertex  3.200000e-01  0.000000e+00  4.650000e-01
     vertex  3.180578e-01  3.520263e-02  4.650000e-01
   endloop
 endfacet
 facet normal -9.863613e-01 -1.645946e-01  0.000000e+00
   outer loop
     vertex  3.122548e-01  6.997795e-02  0.000000e+00
     vertex  3.180578e-01  3.520263e-02  4.650000e-01
     vertex  3.122548e-01  6.997795e-02  4.650000e-01
   endloop
 endfacet
 facet normal -9.863613e-01 -1.645946e-01  0.000000e+00
   outer loop
     vertex  3.122548e-01  6.997795e-02  0.000000e+00
     vertex  3.180578e-01  3.520263e-02  0.000000e+00
     vertex  3.180578e-01  3.520263e-02  4.650000e-01
   endloop
 endfacet
 facet normal -9.622680e-01 -2.721035e-01  0.000000e+00
   outer loop
     vertex  3.026615e-01  1.039038e-01  0.000000e+00
     vertex  3.122548e-01  6.997795e-02  4.650000e-01
     vertex  3.026615e-01  1.039038e-01  4.650000e-01
   endloop
 endfacet
 facet normal -9.622680e-01 -2.721035e-01  0.000000e+00
   outer loop
     vertex  3.026615e-01  1.039038e-01  0.000000e+00
     vertex  3.122548e-01  6.997795e-02  0.000000e+00
     vertex  3.122548e-01  6.997795e-02  4.650000e-01
   endloop
 endfacet
 facet normal -9.264941e-01 -3.763094e-01  0.000000e+00
   outer loop
     vertex  2.893943e-01  1.365685e-01  0.000000e+00
     vertex  3.026615e-01  1.039038e-01  4.650000e-01
     vertex  2.893943e-01  1.365685e-01  4.650000e-01
   endloop
 endfacet
 facet normal -9.264941e-01 -3.763094e-01  0.000000e+00
   outer loop
     vertex  2.893943e-01  1.365685e-01  0.000000e+00
     vertex  3.026615e-01  1.039038e-01  0.000000e+00
     vertex  3.026615e-01  1.039038e-01  4.650000e-01
   endloop
 endfacet
 facet normal -8.794738e-01 -4.759474e-01  0.000000e+00
   outer loop
     vertex  2.726142e-01  1.675753e-01  0.000000e+00
     vertex  2.893943e-01  1.365685e-01  4.650000e-01
     vertex  2.726142e-01  1.675753e-01  4.650000e-01
   endloop
 endfacet
 facet normal -8.794738e-01 -4.759474e-01  0.000000e+00
   outer loop
     vertex  2.726142e-01  1.675753e-01  0.000000e+00
     vertex  2.893943e-01  1.365685e-01  0.000000e+00
     vertex  2.893943e-01  1.365685e-01  4.650000e-01
   endloop
 endfacet
 facet normal -8.217778e-01 -5.698081e-01  0.000000e+00
   outer loop
     vertex  2.525250e-01  1.965481e-01  0.000000e+00
     vertex  2.726142e-01  1.675753e-01  4.650000e-01
     vertex  2.525250e-01  1.965481e-01  4.650000e-01
   endloop
 endfacet
 facet normal -8.217778e-01 -5.698081e-01  0.000000e+00
   outer loop
     vertex  2.525250e-01  1.965481e-01  0.000000e+00
     vertex  2.726142e-01  1.675753e-01  0.000000e+00
     vertex  2.726142e-01  1.675753e-01  4.650000e-01
   endloop
 endfacet
 facet normal -7.541066e-01 -6.567520e-01  0.000000e+00
   outer loop
     vertex  2.293704e-01  2.231350e-01  0.000000e+00
     vertex  2.525250e-01  1.965481e-01  4.650000e-01
     vertex  2.293704e-01  2.231350e-01  4.650000e-01
   endloop
 endfacet
 facet normal -7.541066e-01 -6.567520e-01  0.000000e+00
   outer loop
     vertex  2.293704e-01  2.231350e-01  0.000000e+00
     vertex  2.525250e-01  1.965481e-01  0.000000e+00
     vertex  2.525250e-01  1.965481e-01  4.650000e-01
   endloop
 endfacet
 facet normal -6.772816e-01 -7.357239e-01  0.000000e+00
   outer loop
     vertex  2.034316e-01  2.470133e-01  0.000000e+00
     vertex  2.293704e-01  2.231350e-01  4.650000e-01
     vertex  2.034316e-01  2.470133e-01  4.650000e-01
   endloop
 endfacet
 facet normal -6.772816e-01 -7.357239e-01  0.000000e+00
   outer loop
     vertex  2.034316e-01  2.470133e-01  0.000000e+00
     vertex  2.293704e-01  2.231350e-01  0.000000e+00
     vertex  2.293704e-01  2.231350e-01  4.650000e-01
   endloop
 endfacet
 facet normal -5.922353e-01 -8.057651e-01  0.000000e+00
   outer loop
     vertex  1.750234e-01  2.678933e-01  0.000000e+00
     vertex  2.034316e-01  2.470133e-01  4.650000e-01
     vertex  1.750234e-01  2.678933e-01  4.650000e-01
   endloop
 endfacet
 facet normal -5.922353e-01 -8.057651e-01  0.000000e+00
   outer loop
     vertex  1.750234e-01  2.678933e-01  0.000000e+00
     vertex  2.034316e-01  2.470133e-01  0.000000e+00
     vertex  2.034316e-01  2.470133e-01  4.650000e-01
   endloop
 endfacet
 facet normal -5.000000e-01 -8.660254e-01  0.000000e+00
   outer loop
     vertex  1.444907e-01  2.855214e-01  0.000000e+00
     vertex  1.750234e-01  2.678933e-01  4.650000e-01
     vertex  1.444907e-01  2.855214e-01  4.650000e-01
   endloop
 endfacet
 facet normal -5.000000e-01 -8.660254e-01  0.000000e+00
   outer loop
     vertex  1.444907e-01  2.855214e-01  0.000000e+00
     vertex  1.750234e-01  2.678933e-01  0.000000e+00
     vertex  1.750234e-01  2.678933e-01  4.650000e-01
   endloop
 endfacet
 facet normal -4.016954e-01 -9.157733e-01  0.000000e+00
   outer loop
     vertex  1.122040e-01  2.996836e-01  0.000000e+00
     vertex  1.444907e-01  2.855214e-01  4.650000e-01
     vertex  1.122040e-01  2.996836e-01  4.650000e-01
   endloop
 endfacet
 facet normal -4.016954e-01 -9.157733e-01  0.000000e+00
   outer loop
     vertex  1.122040e-01  2.996836e-01  0.000000e+00
     vertex  1.444907e-01  2.855214e-01  0.000000e+00
     vertex  1.444907e-01  2.855214e-01  4.650000e-01
   endloop
 endfacet
 facet normal -2.985148e-01 -9.544050e-01  0.000000e+00
   outer loop
     vertex  7.855536e-02  3.102081e-01  0.000000e+00
     vertex  1.122040e-01  2.996836e-01  4.650000e-01
     vertex  7.855536e-02  3.102081e-01  4.650000e-01
   endloop
 endfacet
 facet normal -2.985148e-01 -9.544050e-01  0.000000e+00
   outer loop
     vertex  7.855536e-02  3.102081e-01  0.000000e+00
     vertex  1.122040e-01  2.996836e-01  0.000000e+00
     vertex  1.122040e-01  2.996836e-01  4.650000e-01
   endloop
 endfacet
 facet normal -1.917106e-01 -9.814515e-01  0.000000e+00
   outer loop
     vertex  4.395314e-02  3.169671e-01  0.000000e+00
     vertex  7.855536e-02  3.102081e-01  4.650000e-01
     vertex  4.395314e-02  3.169671e-01  4.650000e-01
   endloop
 endfacet
 facet normal -1.917106e-01 -9.814515e-01  0.000000e+00
   outer loop
     vertex  4.395314e-02  3.169671e-01  0.000000e+00
     vertex  7.855536e-02  3.102081e-01  0.000000e+00
     vertex  7.855536e-02  3.102081e-01  4.650000e-01
   endloop
 endfacet
 facet normal -8.257935e-02 -9.965845e-01  0.000000e+00
   outer loop
     vertex  8.817390e-03  3.198785e-01  0.000000e+00
     vertex  4.395314e-02  3.169671e-01  4.650000e-01
     vertex  8.817390e-03  3.198785e-01  4.650000e-01
   endloop
 endfacet
 facet normal -8.257935e-02 -9.965845e-01  0.000000e+00
   outer loop
     vertex  8.817390e-03  3.198785e-01  0.000000e+00
     vertex  4.395314e-02  3.169671e-01  0.000000e+00
     vertex  4.395314e-02  3.169671e-01  4.650000e-01
   endloop
 endfacet
 facet normal  2.755434e-02 -9.996203e-01  0.000000e+00
   outer loop
     vertex -2.642539e-02  3.189070e-01  0.000000e+00
     vertex  8.817390e-03  3.198785e-01  4.650000e-01
     vertex -2.642539e-02  3.189070e-01  4.650000e-01
   endloop
 endfacet
 facet normal  2.755434e-02 -9.996203e-01  0.000000e+00
   outer loop
     vertex -2.642539e-02  3.189070e-01  0.000000e+00
     vertex  8.817390e-03  3.198785e-01  0.000000e+00
     vertex  8.817390e-03  3.198785e-01  4.650000e-01
   endloop
 endfacet
 facet normal  1.373536e-01 -9.905221e-01  0.000000e+00
   outer loop
     vertex -6.134740e-02  3.140645e-01  0.000000e+00
     vertex -2.642539e-02  3.189070e-01  4.650000e-01
     vertex -6.134740e-02  3.140645e-01  4.650000e-01
   endloop
 endfacet
 facet normal  1.373536e-01 -9.905221e-01  0.000000e+00
   outer loop
     vertex -6.134740e-02  3.140645e-01  0.000000e+00
     vertex -2.642539e-02  3.189070e-01  0.000000e+00
     vertex -2.642539e-02  3.189070e-01  4.650000e-01
   endloop
 endfacet
 facet normal  2.454855e-01 -9.694003e-01  0.000000e+00
   outer loop
     vertex -9.552474e-02  3.054096e-01  0.000000e+00
     vertex -6.134740e-02  3.140645e-01  4.650000e-01
     vertex -9.552474e-02  3.054096e-01  4.650000e-01
   endloop
 endfacet
 facet normal  2.454855e-01 -9.694003e-01  0.000000e+00
   outer loop
     vertex -9.552474e-02  3.054096e-01  0.000000e+00
     vertex -6.134740e-02  3.140645e-01  0.000000e+00
     vertex -6.134740e-02  3.140645e-01  4.650000e-01
   endloop
 endfacet
 facet normal  3.506376e-01 -9.365112e-01  0.000000e+00
   outer loop
     vertex -1.285425e-01  2.930475e-01  0.000000e+00
     vertex -9.552474e-02  3.054096e-01  4.650000e-01
     vertex -1.285425e-01  2.930475e-01  4.650000e-01
   endloop
 endfacet
 facet normal  3.506376e-01 -9.365112e-01  0.000000e+00
   outer loop
     vertex -1.285425e-01  2.930475e-01  0.000000e+00
     vertex -9.552474e-02  3.054096e-01  0.000000e+00
     vertex -9.552474e-02  3.054096e-01  4.650000e-01
   endloop
 endfacet
 facet normal  4.515334e-01 -8.922542e-01  0.000000e+00
   outer loop
     vertex -1.600000e-01  2.771281e-01  0.000000e+00
     vertex -1.285425e-01  2.930475e-01  4.650000e-01
     vertex -1.600000e-01  2.771281e-01  4.650000e-01
   endloop
 endfacet
 facet normal  4.515334e-01 -8.922542e-01  0.000000e+00
   outer loop
     vertex -1.600000e-01  2.771281e-01  0.000000e+00
     vertex -1.285425e-01  2.930475e-01  0.000000e+00
     vertex -1.285425e-01  2.930475e-01  4.650000e-01
   endloop
 endfacet
 facet normal  5.469482e-01 -8.371665e-01  0.000000e+00
   outer loop
     vertex -1.895153e-01  2.578448e-01  0.000000e+00
     vertex -1.600000e-01  2.771281e-01  4.650000e-01
     vertex -1.895153e-01  2.578448e-01  4.650000e-01
   endloop
 endfacet
 facet normal  5.469482e-01 -8.371665e-01  0.000000e+00
   outer loop
     vertex -1.895153e-01  2.578448e-01  0.000000e+00
     vertex -1.600000e-01  2.771281e-01  0.000000e+00
     vertex -1.600000e-01  2.771281e-01  4.650000e-01
   endloop
 endfacet
 facet normal  6.357237e-01 -7.719167e-01  0.000000e+00
   outer loop
     vertex -2.167301e-01  2.354317e-01  0.000000e+00
     vertex -1.895153e-01  2.578448e-01  0.000000e+00
     vertex -1.895153e-01  2.578448e-01  4.650000e-01
   endloop
 endfacet
 facet normal  6.357237e-01 -7.719167e-01  0.000000e+00
   outer loop
     vertex -2.167301e-01  2.354317e-01  0.000000e+00
     vertex -1.895153e-01  2.578448e-01  4.650000e-01
     vertex -2.167301e-01  2.354317e-01  4.650000e-01
   endloop
 endfacet
 facet normal  7.167825e-01 -6.972968e-01  0.000000e+00
   outer loop
     vertex -2.413141e-01  2.101606e-01  0.000000e+00
     vertex -2.167301e-01  2.354317e-01  0.000000e+00
     vertex -2.167301e-01  2.354317e-01  4.650000e-01
   endloop
 endfacet
 facet normal  7.167825e-01 -6.972968e-01  0.000000e+00
   outer loop
     vertex -2.413141e-01  2.101606e-01  0.000000e+00
     vertex -2.167301e-01  2.354317e-01  4.650000e-01
     vertex -2.413141e-01  2.101606e-01  4.650000e-01
   endloop
 endfacet
 facet normal  7.891405e-01 -6.142127e-01  0.000000e+00
   outer loop
     vertex -2.629689e-01  1.823386e-01  0.000000e+00
     vertex -2.413141e-01  2.101606e-01  0.000000e+00
     vertex -2.413141e-01  2.101606e-01  4.650000e-01
   endloop
 endfacet
 facet normal  7.891405e-01 -6.142127e-01  0.000000e+00
   outer loop
     vertex -2.629689e-01  1.823386e-01  0.000000e+00
     vertex -2.413141e-01  2.101606e-01  4.650000e-01
     vertex -2.629689e-01  1.823386e-01  4.650000e-01
   endloop
 endfacet
 facet normal  8.519194e-01 -5.236729e-01  0.000000e+00
   outer loop
     vertex -2.814316e-01  1.523032e-01  0.000000e+00
     vertex -2.629689e-01  1.823386e-01  0.000000e+00
     vertex -2.629689e-01  1.823386e-01  4.650000e-01
   endloop
 endfacet
 facet normal  8.519194e-01 -5.236729e-01  0.000000e+00
   outer loop
     vertex -2.814316e-01  1.523032e-01  0.000000e+00
     vertex -2.629689e-01  1.823386e-01  4.650000e-01
     vertex -2.814316e-01  1.523032e-01  4.650000e-01
   endloop
 endfacet
 facet normal  9.043572e-01 -4.267764e-01  0.000000e+00
   outer loop
     vertex -2.964781e-01  1.204190e-01  0.000000e+00
     vertex -2.814316e-01  1.523032e-01  0.000000e+00
     vertex -2.814316e-01  1.523032e-01  4.650000e-01
   endloop
 endfacet
 facet normal  9.043572e-01 -4.267764e-01  0.000000e+00
   outer loop
     vertex -2.964781e-01  1.204190e-01  0.000000e+00
     vertex -2.814316e-01  1.523032e-01  4.650000e-01
     vertex -2.964781e-01  1.204190e-01  4.650000e-01
   endloop
 endfacet
 facet normal  9.458172e-01 -3.246995e-01  0.000000e+00
   outer loop
     vertex -3.079258e-01  8.707311e-02  0.000000e+00
     vertex -2.964781e-01  1.204190e-01  0.000000e+00
     vertex -2.964781e-01  1.204190e-01  4.650000e-01
   endloop
 endfacet
 facet normal  9.458172e-01 -3.246995e-01  0.000000e+00
   outer loop
     vertex -3.079258e-01  8.707311e-02  0.000000e+00
     vertex -2.964781e-01  1.204190e-01  4.650000e-01
     vertex -3.079258e-01  8.707311e-02  4.650000e-01
   endloop
 endfacet
 facet normal  9.757964e-01 -2.186811e-01  0.000000e+00
   outer loop
     vertex -3.079258e-01  8.707311e-02  0.000000e+00
     vertex -3.079258e-01  8.707311e-02  4.650000e-01
     vertex -3.156356e-01  5.267027e-02  4.650000e-01
   endloop
 endfacet
 facet normal  9.757964e-01 -2.186811e-01  0.000000e+00
   outer loop
     vertex -3.156356e-01  5.267027e-02  0.000000e+00
     vertex -3.079258e-01  8.707311e-02  0.000000e+00
     vertex -3.156356e-01  5.267027e-02  4.650000e-01
   endloop
 endfacet
 facet normal  9.939307e-01 -1.100082e-01  0.000000e+00
   outer loop
     vertex -3.195141e-01  1.762808e-02  0.000000e+00
     vertex -3.156356e-01  5.267027e-02  4.650000e-01
     vertex -3.195141e-01  1.762808e-02  4.650000e-01
   endloop
 endfacet
 facet normal  9.939307e-01 -1.100082e-01  0.000000e+00
   outer loop
     vertex -3.195141e-01  1.762808e-02  0.000000e+00
     vertex -3.156356e-01  5.267027e-02  0.000000e+00
     vertex -3.156356e-01  5.267027e-02  4.650000e-01
   endloop
 endfacet
 facet normal  1.000000e+00  0.000000e+00  0.000000e+00
   outer loop
     vertex -3.195141e-01 -1.762808e-02  0.000000e+00
     vertex -3.195141e-01  1.762808e-02  4.650000e-01
     vertex -3.195141e-01 -1.762808e-02  4.650000e-01
   endloop
 endfacet
 facet normal  9.939307e-01  1.100082e-01 -0.000000e+00
   outer loop
     vertex -3.195141e-01 -1.762808e-02  0.000000e+00
     vertex -3.195141e-01 -1.762808e-02  4.650000e-01
     vertex -3.156356e-01 -5.267027e-02  4.650000e-01
   endloop
 endfacet
 facet normal  1.000000e+00  0.000000e+00  0.000000e+00
   outer loop
     vertex -3.195141e-01 -1.762808e-02  0.000000e+00
     vertex -3.195141e-01  1.762808e-02  0.000000e+00
     vertex -3.195141e-01  1.762808e-02  4.650000e-01
   endloop
 endfacet
 facet normal  9.939307e-01  1.100082e-01 -0.000000e+00
   outer loop
     vertex -3.156356e-01 -5.267027e-02  0.000000e+00
     vertex -3.195141e-01 -1.762808e-02  0.000000e+00
     vertex -3.156356e-01 -5.267027e-02  4.650000e-01
   endloop
 endfacet
 facet normal  9.757964e-01  2.186811e-01 -0.000000e+00
   outer loop
     vertex -3.079258e-01 -8.707311e-02  0.000000e+00
     vertex -3.156356e-01 -5.267027e-02  4.650000e-01
     vertex -3.079258e-01 -8.707311e-02  4.650000e-01
   endloop
 endfacet
 facet normal  9.757964e-01  2.186811e-01  0.000000e+00
   outer loop
     vertex -3.079258e-01 -8.707311e-02  0.000000e+00
     vertex -3.156356e-01 -5.267027e-02  0.000000e+00
     vertex -3.156356e-01 -5.267027e-02  4.650000e-01
   endloop
 endfacet
 facet normal  9.458172e-01  3.246995e-01 -0.000000e+00
   outer loop
     vertex -2.964781e-01 -1.204190e-01  0.000000e+00
     vertex -3.079258e-01 -8.707311e-02  4.650000e-01
     vertex -2.964781e-01 -1.204190e-01  4.650000e-01
   endloop
 endfacet
 facet normal  9.458172e-01  3.246995e-01  0.000000e+00
   outer loop
     vertex -2.964781e-01 -1.204190e-01  0.000000e+00
     vertex -3.079258e-01 -8.707311e-02  0.000000e+00
     vertex -3.079258e-01 -8.707311e-02  4.650000e-01
   endloop
 endfacet
 facet normal  9.043572e-01  4.267764e-01 -0.000000e+00
   outer loop
     vertex -2.814316e-01 -1.523032e-01  0.000000e+00
     vertex -2.964781e-01 -1.204190e-01  4.650000e-01
     vertex -2.814316e-01 -1.523032e-01  4.650000e-01
   endloop
 endfacet
 facet normal  8.519194e-01  5.236729e-01 -0.000000e+00
   outer loop
     vertex -2.814316e-01 -1.523032e-01  0.000000e+00
     vertex -2.814316e-01 -1.523032e-01  4.650000e-01
     vertex -2.629689e-01 -1.823386e-01  4.650000e-01
   endloop
 endfacet
 facet normal  9.043572e-01  4.267764e-01  0.000000e+00
   outer loop
     vertex -2.814316e-01 -1.523032e-01  0.000000e+00
     vertex -2.964781e-01 -1.204190e-01  0.000000e+00
     vertex -2.964781e-01 -1.204190e-01  4.650000e-01
   endloop
 endfacet
 facet normal  8.519194e-01  5.236729e-01 -0.000000e+00
   outer loop
     vertex -2.629689e-01 -1.823386e-01  0.000000e+00
     vertex -2.814316e-01 -1.523032e-01  0.000000e+00
     vertex -2.629689e-01 -1.823386e-01  4.650000e-01
   endloop
 endfacet
 facet normal  7.891405e-01  6.142127e-01 -0.000000e+00
   outer loop
     vertex -2.413141e-01 -2.101606e-01  0.000000e+00
     vertex -2.629689e-01 -1.823386e-01  4.650000e-01
     vertex -2.413141e-01 -2.101606e-01  4.650000e-01
   endloop
 endfacet
 facet normal  7.891405e-01  6.142127e-01  0.000000e+00
   outer loop
     vertex -2.413141e-01 -2.101606e-01  0.000000e+00
     vertex -2.629689e-01 -1.823386e-01  0.000000e+00
     vertex -2.629689e-01 -1.823386e-01  4.650000e-01
   endloop
 endfacet
 facet normal  7.167825e-01  6.972968e-01 -0.000000e+00
   outer loop
     vertex -2.167301e-01 -2.354317e-01  0.000000e+00
     vertex -2.413141e-01 -2.101606e-01  4.650000e-01
     vertex -2.167301e-01 -2.354317e-01  4.650000e-01
   endloop
 endfacet
 facet normal  7.167825e-01  6.972968e-01  0.000000e+00
   outer loop
     vertex -2.167301e-01 -2.354317e-01  0.000000e+00
     vertex -2.413141e-01 -2.101606e-01  0.000000e+00
     vertex -2.413141e-01 -2.101606e-01  4.650000e-01
   endloop
 endfacet
 facet normal  6.357237e-01  7.719167e-01 -0.000000e+00
   outer loop
     vertex -1.895153e-01 -2.578448e-01  0.000000e+00
     vertex -2.167301e-01 -2.354317e-01  4.650000e-01
     vertex -1.895153e-01 -2.578448e-01  4.650000e-01
   endloop
 endfacet
 facet normal  6.357237e-01  7.719167e-01  0.000000e+00
   outer loop
     vertex -1.895153e-01 -2.578448e-01  0.000000e+00
     vertex -2.167301e-01 -2.354317e-01  0.000000e+00
     vertex -2.167301e-01 -2.354317e-01  4.650000e-01
   endloop
 endfacet
 facet normal  5.469482e-01  8.371665e-01 -0.000000e+00
   outer loop
     vertex -1.600000e-01 -2.771281e-01  0.000000e+00
     vertex -1.895153e-01 -2.578448e-01  4.650000e-01
     vertex -1.600000e-01 -2.771281e-01  4.650000e-01
   endloop
 endfacet
 facet normal  5.469482e-01  8.371665e-01  0.000000e+00
   outer loop
     vertex -1.600000e-01 -2.771281e-01  0.000000e+00
     vertex -1.895153e-01 -2.578448e-01  0.000000e+00
     vertex -1.895153e-01 -2.578448e-01  4.650000e-01
   endloop
 endfacet
 facet normal  4.515334e-01  8.922542e-01 -0.000000e+00
   outer loop
     vertex -1.285425e-01 -2.930475e-01  0.000000e+00
     vertex -1.600000e-01 -2.771281e-01  4.650000e-01
     vertex -1.285425e-01 -2.930475e-01  4.650000e-01
   endloop
 endfacet
 facet normal  4.515334e-01  8.922542e-01  0.000000e+00
   outer loop
     vertex -1.285425e-01 -2.930475e-01  0.000000e+00
     vertex -1.600000e-01 -2.771281e-01  0.000000e+00
     vertex -1.600000e-01 -2.771281e-01  4.650000e-01
   endloop
 endfacet
 facet normal  3.506376e-01  9.365112e-01 -0.000000e+00
   outer loop
     vertex -9.552474e-02 -3.054096e-01  0.000000e+00
     vertex -1.285425e-01 -2.930475e-01  4.650000e-01
     vertex -9.552474e-02 -3.054096e-01  4.650000e-01
   endloop
 endfacet
 facet normal  2.454855e-01  9.694003e-01 -0.000000e+00
   outer loop
     vertex -9.552474e-02 -3.054096e-01  0.000000e+00
     vertex -9.552474e-02 -3.054096e-01  4.650000e-01
     vertex -6.134740e-02 -3.140645e-01  4.650000e-01
   endloop
 endfacet
 facet normal  3.506376e-01  9.365112e-01  0.000000e+00
   outer loop
     vertex -9.552474e-02 -3.054096e-01  0.000000e+00
     vertex -1.285425e-01 -2.930475e-01  0.000000e+00
     vertex -1.285425e-01 -2.930475e-01  4.650000e-01
   endloop
 endfacet
 facet normal  2.454855e-01  9.694003e-01 -0.000000e+00
   outer loop
     vertex -6.134740e-02 -3.140645e-01  0.000000e+00
     vertex -9.552474e-02 -3.054096e-01  0.000000e+00
     vertex -6.134740e-02 -3.140645e-01  4.650000e-01
   endloop
 endfacet
 facet normal  1.373536e-01  9.905221e-01 -0.000000e+00
   outer loop
     vertex -2.642539e-02 -3.189070e-01  0.000000e+00
     vertex -6.134740e-02 -3.140645e-01  4.650000e-01
     vertex -2.642539e-02 -3.189070e-01  4.650000e-01
   endloop
 endfacet
 facet normal  1.373536e-01  9.905221e-01  0.000000e+00
   outer loop
     vertex -2.642539e-02 -3.189070e-01  0.000000e+00
     vertex -6.134740e-02 -3.140645e-01  0.000000e+00
     vertex -6.134740e-02 -3.140645e-01  4.650000e-01
   endloop
 endfacet
 facet normal  2.755434e-02  9.996203e-01 -0.000000e+00
   outer loop
     vertex  8.817390e-03 -3.198785e-01  0.000000e+00
     vertex -2.642539e-02 -3.189070e-01  4.650000e-01
     vertex  8.817390e-03 -3.198785e-01  4.650000e-01
   endloop
 endfacet
 facet normal  2.755434e-02  9.996203e-01  0.000000e+00
   outer loop
     vertex  8.817390e-03 -3.198785e-01  0.000000e+00
     vertex -2.642539e-02 -3.189070e-01  0.000000e+00
     vertex -2.642539e-02 -3.189070e-01  4.650000e-01
   endloop
 endfacet
 facet normal -8.257935e-02  9.965845e-01  0.000000e+00
   outer loop
     vertex  4.395314e-02 -3.169671e-01  0.000000e+00
     vertex  8.817390e-03 -3.198785e-01  4.650000e-01
     vertex  4.395314e-02 -3.169671e-01  4.650000e-01
   endloop
 endfacet
 facet normal -8.257935e-02  9.965845e-01  0.000000e+00
   outer loop
     vertex  4.395314e-02 -3.169671e-01  0.000000e+00
     vertex  8.817390e-03 -3.198785e-01  0.000000e+00
     vertex  8.817390e-03 -3.198785e-01  4.650000e-01
   endloop
 endfacet
 facet normal -1.917106e-01  9.814515e-01  0.000000e+00
   outer loop
     vertex  7.855536e-02 -3.102081e-01  0.000000e+00
     vertex  4.395314e-02 -3.169671e-01  4.650000e-01
     vertex  7.855536e-02 -3.102081e-01  4.650000e-01
   endloop
 endfacet
 facet normal -1.917106e-01  9.814515e-01  0.000000e+00
   outer loop
     vertex  7.855536e-02 -3.102081e-01  0.000000e+00
     vertex  4.395314e-02 -3.169671e-01  0.000000e+00
     vertex  4.395314e-02 -3.169671e-01  4.650000e-01
   endloop
 endfacet
 facet normal -2.985148e-01  9.544050e-01  0.000000e+00
   outer loop
     vertex  1.122040e-01 -2.996836e-01  0.000000e+00
     vertex  7.855536e-02 -3.102081e-01  0.000000e+00
     vertex  7.855536e-02 -3.102081e-01  4.650000e-01
   endloop
 endfacet
 facet normal -2.985148e-01  9.544050e-01  0.000000e+00
   outer loop
     vertex  1.122040e-01 -2.996836e-01  0.000000e+00
     vertex  7.855536e-02 -3.102081e-01  4.650000e-01
     vertex  1.122040e-01 -2.996836e-01  4.650000e-01
   endloop
 endfacet
 facet normal -4.016954e-01  9.157733e-01  0.000000e+00
   outer loop
     vertex  1.444907e-01 -2.855214e-01  0.000000e+00
     vertex  1.122040e-01 -2.996836e-01  0.000000e+00
     vertex  1.122040e-01 -2.996836e-01  4.650000e-01
   endloop
 endfacet
 facet normal -4.016954e-01  9.157733e-01  0.000000e+00
   outer loop
     vertex  1.444907e-01 -2.855214e-01  0.000000e+00
     vertex  1.122040e-01 -2.996836e-01  4.650000e-01
     vertex  1.444907e-01 -2.855214e-01  4.650000e-01
   endloop
 endfacet
 facet normal -5.000000e-01  8.660254e-01  0.000000e+00
   outer loop
     vertex  1.444907e-01 -2.855214e-01  0.000000e+00
     vertex  1.444907e-01 -2.855214e-01  4.650000e-01
     vertex  1.750234e-01 -2.678933e-01  4.650000e-01
   endloop
 endfacet
 facet normal -5.000000e-01  8.660254e-01  0.000000e+00
   outer loop
     vertex  1.750234e-01 -2.678933e-01  0.000000e+00
     vertex  1.444907e-01 -2.855214e-01  0.000000e+00
     vertex  1.750234e-01 -2.678933e-01  4.650000e-01
   endloop
 endfacet
 facet normal -5.922353e-01  8.057651e-01  0.000000e+00
   outer loop
     vertex  2.034316e-01 -2.470133e-01  0.000000e+00
     vertex  1.750234e-01 -2.678933e-01  0.000000e+00
     vertex  1.750234e-01 -2.678933e-01  4.650000e-01
   endloop
 endfacet
 facet normal -5.922353e-01  8.057651e-01  0.000000e+00
   outer loop
     vertex  2.034316e-01 -2.470133e-01  0.000000e+00
     vertex  1.750234e-01 -2.678933e-01  4.650000e-01
     vertex  2.034316e-01 -2.470133e-01  4.650000e-01
   endloop
 endfacet
 facet normal -6.772816e-01  7.357239e-01  0.000000e+00
   outer loop
     vertex  2.034316e-01 -2.470133e-01  0.000000e+00
     vertex  2.034316e-01 -2.470133e-01  4.650000e-01
     vertex  2.293704e-01 -2.231350e-01  4.650000e-01
   endloop
 endfacet
 facet normal -6.772816e-01  7.357239e-01  0.000000e+00
   outer loop
     vertex  2.293704e-01 -2.231350e-01  0.000000e+00
     vertex  2.034316e-01 -2.470133e-01  0.000000e+00
     vertex  2.293704e-01 -2.231350e-01  4.650000e-01
   endloop
 endfacet
 facet normal -7.541066e-01  6.567520e-01  0.000000e+00
   outer loop
     vertex  2.293704e-01 -2.231350e-01  0.000000e+00
     vertex  2.293704e-01 -2.231350e-01  4.650000e-01
     vertex  2.525250e-01 -1.965481e-01  4.650000e-01
   endloop
 endfacet
 facet normal -7.541066e-01  6.567520e-01  0.000000e+00
   outer loop
     vertex  2.525250e-01 -1.965481e-01  0.000000e+00
     vertex  2.293704e-01 -2.231350e-01  0.000000e+00
     vertex  2.525250e-01 -1.965481e-01  4.650000e-01
   endloop
 endfacet
 facet normal -8.217778e-01  5.698081e-01  0.000000e+00
   outer loop
     vertex  2.726142e-01 -1.675753e-01  0.000000e+00
     vertex  2.525250e-01 -1.965481e-01  0.000000e+00
     vertex  2.525250e-01 -1.965481e-01  4.650000e-01
   endloop
 endfacet
 facet normal -8.217778e-01  5.698081e-01  0.000000e+00
   outer loop
     vertex  2.726142e-01 -1.675753e-01  0.000000e+00
     vertex  2.525250e-01 -1.965481e-01  4.650000e-01
     vertex  2.726142e-01 -1.675753e-01  4.650000e-01
   endloop
 endfacet
 facet normal -8.794738e-01  4.759474e-01  0.000000e+00
   outer loop
     vertex  2.893943e-01 -1.365685e-01  0.000000e+00
     vertex  2.726142e-01 -1.675753e-01  0.000000e+00
     vertex  2.726142e-01 -1.675753e-01  4.650000e-01
   endloop
 endfacet
 facet normal -8.794738e-01  4.759474e-01  0.000000e+00
   outer loop
     vertex  2.893943e-01 -1.365685e-01  0.000000e+00
     vertex  2.726142e-01 -1.675753e-01  4.650000e-01
     vertex  2.893943e-01 -1.365685e-01  4.650000e-01
   endloop
 endfacet
 facet normal -9.264941e-01  3.763094e-01  0.000000e+00
   outer loop
     vertex  2.893943e-01 -1.365685e-01  0.000000e+00
     vertex  2.893943e-01 -1.365685e-01  4.650000e-01
     vertex  3.026615e-01 -1.039038e-01  4.650000e-01
   endloop
 endfacet
 facet normal -9.264941e-01  3.763094e-01  0.000000e+00
   outer loop
     vertex  3.026615e-01 -1.039038e-01  0.000000e+00
     vertex  2.893943e-01 -1.365685e-01  0.000000e+00
     vertex  3.026615e-01 -1.039038e-01  4.650000e-01
   endloop
 endfacet
 facet normal -9.622680e-01  2.721035e-01  0.000000e+00
   outer loop
     vertex  3.026615e-01 -1.039038e-01  0.000000e+00
     vertex  3.026615e-01 -1.039038e-01  4.650000e-01
     vertex  3.122548e-01 -6.997795e-02  4.650000e-01
   endloop
 endfacet
 facet normal -9.622680e-01  2.721035e-01  0.000000e+00
   outer loop
     vertex  3.122548e-01 -6.997795e-02  0.000000e+00
     vertex  3.026615e-01 -1.039038e-01  0.000000e+00
     vertex  3.122548e-01 -6.997795e-02  4.650000e-01
   endloop
 endfacet
 facet normal -9.863613e-01  1.645946e-01  0.000000e+00
   outer loop
     vertex  3.180578e-01 -3.520263e-02  0.000000e+00
     vertex  3.122548e-01 -6.997795e-02  0.000000e+00
     vertex  3.122548e-01 -6.997795e-02  4.650000e-01
   endloop
 endfacet
 facet normal -9.863613e-01  1.645946e-01  0.000000e+00
   outer loop
     vertex  3.180578e-01 -3.520263e-02  0.000000e+00
     vertex  3.122548e-01 -6.997795e-02  4.650000e-01
     vertex  3.180578e-01 -3.520263e-02  4.650000e-01
   endloop
 endfacet
 facet normal -9.984815e-01  5.508776e-02  0.000000e+00
   outer loop
     vertex  3.200000e-01  0.000000e+00  0.000000e+00
     vertex  3.180578e-01 -3.520263e-02  0.000000e+00
     vertex  3.180578e-01 -3.520263e-02  4.650000e-01
   endloop
 endfacet
 facet normal -9.984815e-01  5.508776e-02  0.000000e+00
   outer loop
     vertex  3.200000e-01  0.000000e+00  0.000000e+00
     vertex  3.180578e-01 -3.520263e-02  4.650000e-01
     vertex  3.200000e-01  0.000000e+00  4.650000e-01
   endloop
 endfacet
 facet normal  0.000000e+00 -0.000000e+00 -1.000000e+00
   outer loop
     vertex -2.413141e-01 -2.101606e-01  0.000000e+00
     vertex -2.167301e-01 -2.354317e-01  0.000000e+00
     vertex -9.800000e-01 -9.800000e-01  0.000000e+00
   endloop
 endfacet
 facet normal -0.000000e+00  0.000000e+00 -1.000000e+00
   outer loop
     vertex -1.895153e-01 -2.578448e-01  0.000000e+00
     vertex -9.800000e-01 -9.800000e-01  0.000000e+00
     vertex -2.167301e-01 -2.354317e-01  0.000000e+00
   endloop
 endfacet
 facet normal  0.000000e+00 -0.000000e+00 -1.000000e+00
   outer loop
     vertex -2.629689e-01 -1.823386e-01  0.000000e+00
     vertex -2.413141e-01 -2.101606e-01  0.000000e+00
     vertex -9.800000e-01 -9.800000e-01  0.000000e+00
   endloop
 endfacet
 facet normal -0.000000e+00  0.000000e+00 -1.000000e+00
   outer loop
     vertex -1.600000e-01 -2.771281e-01  0.000000e+00
     vertex -9.800000e-01 -9.800000e-01  0.000000e+00
     vertex -1.895153e-01 -2.578448e-01  0.000000e+00
   endloop
 endfacet
 facet normal  0.000000e+00 -0.000000e+00 -1.000000e+00
   outer loop
     vertex -2.814316e-01 -1.523032e-01  0.000000e+00
     vertex -2.629689e-01 -1.823386e-01  0.000000e+00
     vertex -9.800000e-01 -9.800000e-01  0.000000e+00
   endloop
 endfacet
 facet normal -0.000000e+00  0.000000e+00 -1.000000e+00
   outer loop
     vertex -1.285425e-01 -2.930475e-01  0.000000e+00
     vertex -9.800000e-01 -9.800000e-01  0.000000e+00
     vertex -1.600000e-01 -2.771281e-01  0.000000e+00
   endloop
 endfacet
 facet normal  0.000000e+00 -0.000000e+00 -1.000000e+00
   outer loop
     vertex -2.964781e-01 -1.204190e-01  0.000000e+00
     vertex -2.814316e-01 -1.523032e-01  0.000000e+00
     vertex -9.800000e-01 -9.800000e-01  0.000000e+00
   endloop
 endfacet
 facet normal -0.000000e+00  0.000000e+00 -1.000000e+00
   outer loop
     vertex -9.552474e-02 -3.054096e-01  0.000000e+00
     vertex -9.800000e-01 -9.800000e-01  0.000000e+00
     vertex -1.285425e-01 -2.930475e-01  0.000000e+00
   endloop
 endfacet
 facet normal  0.000000e+00 -0.000000e+00 -1.000000e+00
   outer loop
     vertex -3.079258e-01 -8.707311e-02  0.000000e+00
     vertex -2.964781e-01 -1.204190e-01  0.000000e+00
     vertex -9.800000e-01 -9.800000e-01  0.000000e+00
   endloop
 endfacet
 facet normal -0.000000e+00  0.000000e+00 -1.000000e+00
   outer loop
     vertex -6.134740e-02 -3.140645e-01  0.000000e+00
     vertex -9.800000e-01 -9.800000e-01  0.000000e+00
     vertex -9.552474e-02 -3.054096e-01  0.000000e+00
   endloop
 endfacet
 facet normal  0.000000e+00 -0.000000e+00 -1.000000e+00
   outer loop
     vertex -3.156356e-01 -5.267027e-02  0.000000e+00
     vertex -3.079258e-01 -8.707311e-02  0.000000e+00
     vertex -9.800000e-01 -9.800000e-01  0.000000e+00
   endloop
 endfacet
 facet normal -0.000000e+00  0.000000e+00 -1.000000e+00
   outer loop
     vertex -2.642539e-02 -3.189070e-01  0.000000e+00
     vertex -9.800000e-01 -9.800000e-01  0.000000e+00
     vertex -6.134740e-02 -3.140645e-01  0.000000e+00
   endloop
 endfacet
 facet normal  0.000000e+00 -0.000000e+00 -1.000000e+00
   outer loop
     vertex -3.195141e-01 -1.762808e-02  0.000000e+00
     vertex -3.156356e-01 -5.267027e-02  0.000000e+00
     vertex -9.800000e-01 -9.800000e-01  0.000000e+00
   endloop
 endfacet
 facet normal -0.000000e+00  0.000000e+00 -1.000000e+00
   outer loop
     vertex  8.817390e-03 -3.198785e-01  0.000000e+00
     vertex -9.800000e-01 -9.800000e-01  0.000000e+00
     vertex -2.642539e-02 -3.189070e-01  0.000000e+00
   endloop
 endfacet
 facet normal  0.000000e+00  0.000000e+00 -1.000000e+00
   outer loop
     vertex  9.800000e-01 -9.800000e-01  0.000000e+00
     vertex  8.817390e-03 -3.198785e-01  0.000000e+00
     vertex  4.395314e-02 -3.169671e-01  0.000000e+00
   endloop
 endfacet
 facet normal  0.000000e+00  0.000000e+00 -1.000000e+00
   outer loop
     vertex  9.800000e-01 -9.800000e-01  0.000000e+00
     vertex  4.395314e-02 -3.169671e-01  0.000000e+00
     vertex  7.855536e-02 -3.102081e-01  0.000000e+00
   endloop
 endfacet
 facet normal  0.000000e+00  0.000000e+00 -1.000000e+00
   outer loop
     vertex  9.800000e-01 -9.800000e-01  0.000000e+00
     vertex  7.855536e-02 -3.102081e-01  0.000000e+00
     vertex  1.122040e-01 -2.996836e-01  0.000000e+00
   endloop
 endfacet
 facet normal  0.000000e+00  0.000000e+00 -1.000000e+00
   outer loop
     vertex  9.800000e-01 -9.800000e-01  0.000000e+00
     vertex  1.122040e-01 -2.996836e-01  0.000000e+00
     vertex  1.444907e-01 -2.855214e-01  0.000000e+00
   endloop
 endfacet
 facet normal  0.000000e+00  0.000000e+00 -1.000000e+00
   outer loop
     vertex  9.800000e-01 -9.800000e-01  0.000000e+00
     vertex  1.444907e-01 -2.855214e-01  0.000000e+00
     vertex  1.750234e-01 -2.678933e-01  0.000000e+00
   endloop
 endfacet
 facet normal  0.000000e+00  0.000000e+00 -1.000000e+00
   outer loop
     vertex  9.800000e-01 -9.800000e-01  0.000000e+00
     vertex  1.750234e-01 -2.678933e-01  0.000000e+00
     vertex  2.034316e-01 -2.470133e-01  0.000000e+00
   endloop
 endfacet
 facet normal  0.000000e+00  0.000000e+00 -1.000000e+00
   outer loop
     vertex  9.800000e-01 -9.800000e-01  0.000000e+00
     vertex -9.800000e-01 -9.800000e-01  0.000000e+00
     vertex  8.817390e-03 -3.198785e-01  0.000000e+00
   endloop
 endfacet
 facet normal  0.000000e+00  0.000000e+00 -1.000000e+00
   outer loop
     vertex -9.800000e-01  9.800000e-01  0.000000e+00
     vertex -2.413141e-01  2.101606e-01  0.000000e+00
     vertex -2.629689e-01  1.823386e-01  0.000000e+00
   endloop
 endfacet
 facet normal  0.000000e+00  0.000000e+00 -1.000000e+00
   outer loop
     vertex -9.800000e-01  9.800000e-01  0.000000e+00
     vertex -2.629689e-01  1.823386e-01  0.000000e+00
     vertex -2.814316e-01  1.523032e-01  0.000000e+00
   endloop
 endfacet
 facet normal  0.000000e+00  0.000000e+00 -1.000000e+00
   outer loop
     vertex -9.800000e-01  9.800000e-01  0.000000e+00
     vertex -2.814316e-01  1.523032e-01  0.000000e+00
     vertex -2.964781e-01  1.204190e-01  0.000000e+00
   endloop
 endfacet
 facet normal  0.000000e+00  0.000000e+00 -1.000000e+00
   outer loop
     vertex -9.800000e-01  9.800000e-01  0.000000e+00
     vertex -2.964781e-01  1.204190e-01  0.000000e+00
     vertex -3.079258e-01  8.707311e-02  0.000000e+00
   endloop
 endfacet
 facet normal  0.000000e+00  0.000000e+00 -1.000000e+00
   outer loop
     vertex -9.800000e-01  9.800000e-01  0.000000e+00
     vertex -3.079258e-01  8.707311e-02  0.000000e+00
     vertex -3.156356e-01  5.267027e-02  0.000000e+00
   endloop
 endfacet
 facet normal  0.000000e+00  0.000000e+00 -1.000000e+00
   outer loop
     vertex -9.800000e-01  9.800000e-01  0.000000e+00
     vertex -3.156356e-01  5.267027e-02  0.000000e+00
     vertex -3.195141e-01  1.762808e-02  0.000000e+00
   endloop
 endfacet
 facet normal  0.000000e+00  0.000000e+00 -1.000000e+00
   outer loop
     vertex -9.800000e-01  9.800000e-01  0.000000e+00
     vertex -3.195141e-01  1.762808e-02  0.000000e+00
     vertex -3.195141e-01 -1.762808e-02  0.000000e+00
   endloop
 endfacet
 facet normal  0.000000e+00  0.000000e+00 -1.000000e+00
   outer loop
     vertex -9.800000e-01  9.800000e-01  0.000000e+00
     vertex -3.195141e-01 -1.762808e-02  0.000000e+00
     vertex -9.800000e-01 -9.800000e-01  0.000000e+00
   endloop
 endfacet
 facet normal  0.000000e+00 -0.000000e+00 -1.000000e+00
   outer loop
     vertex  2.293704e-01 -2.231350e-01  0.000000e+00
     vertex  9.800000e-01 -9.800000e-01  0.000000e+00
     vertex  2.034316e-01 -2.470133e-01  0.000000e+00
   endloop
 endfacet
 facet normal -0.000000e+00  0.000000e+00 -1.000000e+00
   outer loop
     vertex -2.167301e-01  2.354317e-01  0.000000e+00
     vertex -2.413141e-01  2.101606e-01  0.000000e+00
     vertex -9.800000e-01  9.800000e-01  0.000000e+00
   endloop
 endfacet
 facet normal  0.000000e+00 -0.000000e+00 -1.000000e+00
   outer loop
     vertex  2.525250e-01 -1.965481e-01  0.000000e+00
     vertex  9.800000e-01 -9.800000e-01  0.000000e+00
     vertex  2.293704e-01 -2.231350e-01  0.000000e+00
   endloop
 endfacet
 facet normal -0.000000e+00  0.000000e+00 -1.000000e+00
   outer loop
     vertex -1.895153e-01  2.578448e-01  0.000000e+00
     vertex -2.167301e-01  2.354317e-01  0.000000e+00
     vertex -9.800000e-01  9.800000e-01  0.000000e+00
   endloop
 endfacet
 facet normal  0.000000e+00 -0.000000e+00 -1.000000e+00
   outer loop
     vertex  2.726142e-01 -1.675753e-01  0.000000e+00
     vertex  9.800000e-01 -9.800000e-01  0.000000e+00
     vertex  2.525250e-01 -1.965481e-01  0.000000e+00
   endloop
 endfacet
 facet normal -0.000000e+00  0.000000e+00 -1.000000e+00
   outer loop
     vertex -1.600000e-01  2.771281e-01  0.000000e+00
     vertex -1.895153e-01  2.578448e-01  0.000000e+00
     vertex -9.800000e-01  9.800000e-01  0.000000e+00
   endloop
 endfacet
 facet normal  0.000000e+00 -0.000000e+00 -1.000000e+00
   outer loop
     vertex  2.893943e-01 -1.365685e-01  0.000000e+00
     vertex  9.800000e-01 -9.800000e-01  0.000000e+00
     vertex  2.726142e-01 -1.675753e-01  0.000000e+00
   endloop
 endfacet
 facet normal -0.000000e+00  0.000000e+00 -1.000000e+00
   outer loop
     vertex -1.285425e-01  2.930475e-01  0.000000e+00
     vertex -1.600000e-01  2.771281e-01  0.000000e+00
     vertex -9.800000e-01  9.800000e-01  0.000000e+00
   endloop
 endfacet
 facet normal  0.000000e+00 -0.000000e+00 -1.000000e+00
   outer loop
     vertex  3.026615e-01 -1.039038e-01  0.000000e+00
     vertex  9.800000e-01 -9.800000e-01  0.000000e+00
     vertex  2.893943e-01 -1.365685e-01  0.000000e+00
   endloop
 endfacet
 facet normal -0.000000e+00  0.000000e+00 -1.000000e+00
   outer loop
     vertex -9.552474e-02  3.054096e-01  0.000000e+00
     vertex -1.285425e-01  2.930475e-01  0.000000e+00
     vertex -9.800000e-01  9.800000e-01  0.000000e+00
   endloop
 endfacet
 facet normal  0.000000e+00 -0.000000e+00 -1.000000e+00
   outer loop
     vertex  3.122548e-01 -6.997795e-02  0.000000e+00
     vertex  9.800000e-01 -9.800000e-01  0.000000e+00
     vertex  3.026615e-01 -1.039038e-01  0.000000e+00
   endloop
 endfacet
 facet normal -0.000000e+00  0.000000e+00 -1.000000e+00
   outer loop
     vertex -6.134740e-02  3.140645e-01  0.000000e+00
     vertex -9.552474e-02  3.054096e-01  0.000000e+00
     vertex -9.800000e-01  9.800000e-01  0.000000e+00
   endloop
 endfacet
 facet normal  0.000000e+00 -0.000000e+00 -1.000000e+00
   outer loop
     vertex  3.180578e-01 -3.520263e-02  0.000000e+00
     vertex  9.800000e-01 -9.800000e-01  0.000000e+00
     vertex  3.122548e-01 -6.997795e-02  0.000000e+00
   endloop
 endfacet
 facet normal -0.000000e+00  0.000000e+00 -1.000000e+00
   outer loop
     vertex -2.642539e-02  3.189070e-01  0.000000e+00
     vertex -6.134740e-02  3.140645e-01  0.000000e+00
     vertex -9.800000e-01  9.800000e-01  0.000000e+00
   endloop
 endfacet
 facet normal  0.000000e+00 -0.000000e+00 -1.000000e+00
   outer loop
     vertex  3.200000e-01  0.000000e+00  0.000000e+00
     vertex  9.800000e-01 -9.800000e-01  0.000000e+00
     vertex  3.180578e-01 -3.520263e-02  0.000000e+00
   endloop
 endfacet
 facet normal -0.000000e+00  0.000000e+00 -1.000000e+00
   outer loop
     vertex  8.817390e-03  3.198785e-01  0.000000e+00
     vertex -2.642539e-02  3.189070e-01  0.000000e+00
     vertex -9.800000e-01  9.800000e-01  0.000000e+00
   endloop
 endfacet
 facet normal  0.000000e+00  0.000000e+00 -1.000000e+00
   outer loop
     vertex  9.800000e-01  9.800000e-01  0.000000e+00
     vertex  3.200000e-01  0.000000e+00  0.000000e+00
     vertex  3.180578e-01  3.520263e-02  0.000000e+00
   endloop
 endfacet
 facet normal  0.000000e+00  0.000000e+00 -1.000000e+00
   outer loop
     vertex  9.800000e-01  9.800000e-01  0.000000e+00
     vertex  3.180578e-01  3.520263e-02  0.000000e+00
     vertex  3.122548e-01  6.997795e-02  0.000000e+00
   endloop
 endfacet
 facet normal  0.000000e+00  0.000000e+00 -1.000000e+00
   outer loop
     vertex  9.800000e-01  9.800000e-01  0.000000e+00
     vertex  3.122548e-01  6.997795e-02  0.000000e+00
     vertex  3.026615e-01  1.039038e-01  0.000000e+00
   endloop
 endfacet
 facet normal  0.000000e+00  0.000000e+00 -1.000000e+00
   outer loop
     vertex  9.800000e-01  9.800000e-01  0.000000e+00
     vertex  3.026615e-01  1.039038e-01  0.000000e+00
     vertex  2.893943e-01  1.365685e-01  0.000000e+00
   endloop
 endfacet
 facet normal  0.000000e+00  0.000000e+00 -1.000000e+00
   outer loop
     vertex  9.800000e-01  9.800000e-01  0.000000e+00
     vertex  2.893943e-01  1.365685e-01  0.000000e+00
     vertex  2.726142e-01  1.675753e-01  0.000000e+00
   endloop
 endfacet
 facet normal  0.000000e+00  0.000000e+00 -1.000000e+00
   outer loop
     vertex  9.800000e-01  9.800000e-01  0.000000e+00
     vertex  2.726142e-01  1.675753e-01  0.000000e+00
     vertex  2.525250e-01  1.965481e-01  0.000000e+00
   endloop
 endfacet
 facet normal  0.000000e+00  0.000000e+00 -1.000000e+00
   outer loop
     vertex  9.800000e-01  9.800000e-01  0.000000e+00
     vertex  2.525250e-01  1.965481e-01  0.000000e+00
     vertex  2.293704e-01  2.231350e-01  0.000000e+00
   endloop
 endfacet
 facet normal  0.000000e+00  0.000000e+00 -1.000000e+00
   outer loop
     vertex  9.800000e-01  9.800000e-01  0.000000e+00
     vertex  2.293704e-01  2.231350e-01  0.000000e+00
     vertex  2.034316e-01  2.470133e-01  0.000000e+00
   endloop
 endfacet
 facet normal  0.000000e+00  0.000000e+00 -1.000000e+00
   outer loop
     vertex  9.800000e-01  9.800000e-01  0.000000e+00
     vertex  2.034316e-01  2.470133e-01  0.000000e+00
     vertex  1.750234e-01  2.678933e-01  0.000000e+00
   endloop
 endfacet
 facet normal  0.000000e+00  0.000000e+00 -1.000000e+00
   outer loop
     vertex  9.800000e-01  9.800000e-01  0.000000e+00
     vertex  1.750234e-01  2.678933e-01  0.000000e+00
     vertex  1.444907e-01  2.855214e-01  0.000000e+00
   endloop
 endfacet
 facet normal  0.000000e+00  0.000000e+00 -1.000000e+00
   outer loop
     vertex  9.800000e-01  9.800000e-01  0.000000e+00
     vertex  1.444907e-01  2.855214e-01  0.000000e+00
     vertex  1.122040e-01  2.996836e-01  0.000000e+00
   endloop
 endfacet
 facet normal  0.000000e+00  0.000000e+00 -1.000000e+00
   outer loop
     vertex  9.800000e-01  9.800000e-01  0.000000e+00
     vertex  1.122040e-01  2.996836e-01  0.000000e+00
     vertex  7.855536e-02  3.102081e-01  0.000000e+00
   endloop
 endfacet
 facet normal  0.000000e+00  0.000000e+00 -1.000000e+00
   outer loop
     vertex  9.800000e-01  9.800000e-01  0.000000e+00
     vertex  7.855536e-02  3.102081e-01  0.000000e+00
     vertex  4.395314e-02  3.169671e-01  0.000000e+00
   endloop
 endfacet
 facet normal  0.000000e+00  0.000000e+00 -1.000000e+00
   outer loop
     vertex  9.800000e-01  9.800000e-01  0.000000e+00
     vertex  4.395314e-02  3.169671e-01  0.000000e+00
     vertex  8.817390e-03  3.198785e-01  0.000000e+00
   endloop
 endfacet
 facet normal  0.000000e+00 -0.000000e+00 -1.000000e+00
   outer loop
     vertex  9.800000e-01  9.800000e-01  0.000000e+00
     vertex  9.800000e-01 -9.800000e-01  0.000000e+00
     vertex  3.200000e-01  0.000000e+00  0.000000e+00
   endloop
 endfacet
 facet normal -0.000000e+00  0.000000e+00 -1.000000e+00
   outer loop
     vertex  9.800000e-01  9.800000e-01  0.000000e+00
     vertex  8.817390e-03  3.198785e-01  0.000000e+00
     vertex -9.800000e-01  9.800000e-01  0.000000e+00
   endloop
 endfacet
 facet normal  0.000000e+00  0.000000e+00  1.000000e+00
   outer loop
     vertex -2.413141e-01 -2.101606e-01  4.650000e-01
     vertex -9.800000e-01 -9.800000e-01  4.650000e-01
     vertex -2.167301e-01 -2.354317e-01  4.650000e-01
   endloop
 endfacet
 facet normal  0.000000e+00  0.000000e+00  1.000000e+00
   outer loop
     vertex -1.895153e-01 -2.578448e-01  4.650000e-01
     vertex -2.167301e-01 -2.354317e-01  4.650000e-01
     vertex -9.800000e-01 -9.800000e-01  4.650000e-01
   endloop
 endfacet
 facet normal  0.000000e+00  0.000000e+00  1.000000e+00
   outer loop
     vertex -2.629689e-01 -1.823386e-01  4.650000e-01
     vertex -9.800000e-01 -9.800000e-01  4.650000e-01
     vertex -2.413141e-01 -2.101606e-01  4.650000e-01
   endloop
 endfacet
 facet normal  0.000000e+00  0.000000e+00  1.000000e+00
   outer loop
     vertex -1.600000e-01 -2.771281e-01  4.650000e-01
     vertex -1.895153e-01 -2.578448e-01  4.650000e-01
     vertex -9.800000e-01 -9.800000e-01  4.650000e-01
   endloop
 endfacet
 facet normal  0.000000e+00  0.000000e+00  1.000000e+00
   outer loop
     vertex -2.814316e-01 -1.523032e-01  4.650000e-01
     vertex -9.800000e-01 -9.800000e-01  4.650000e-01
     vertex -2.629689e-01 -1.823386e-01  4.650000e-01
   endloop
 endfacet
 facet normal  0.000000e+00  0.000000e+00  1.000000e+00
   outer loop
     vertex -1.285425e-01 -2.930475e-01  4.650000e-01
     vertex -1.600000e-01 -2.771281e-01  4.650000e-01
     vertex -9.800000e-01 -9.800000e-01  4.650000e-01
   endloop
 endfacet
 facet normal  0.000000e+00  0.000000e+00  1.000000e+00
   outer loop
     vertex -2.964781e-01 -1.204190e-01  4.650000e-01
     vertex -9.800000e-01 -9.800000e-01  4.650000e-01
     vertex -2.814316e-01 -1.523032e-01  4.650000e-01
   endloop
 endfacet
 facet normal  0.000000e+00  0.000000e+00  1.000000e+00
   outer loop
     vertex -9.552474e-02 -3.054096e-01  4.650000e-01
     vertex -1.285425e-01 -2.930475e-01  4.650000e-01
     vertex -9.800000e-01 -9.800000e-01  4.650000e-01
   endloop
 endfacet
 facet normal  0.000000e+00  0.000000e+00  1.000000e+00
   outer loop
     vertex -3.079258e-01 -8.707311e-02  4.650000e-01
     vertex -9.800000e-01 -9.800000e-01  4.650000e-01
     vertex -2.964781e-01 -1.204190e-01  4.650000e-01
   endloop
 endfacet
 facet normal  0.000000e+00  0.000000e+00  1.000000e+00
   outer loop
     vertex -6.134740e-02 -3.140645e-01  4.650000e-01
     vertex -9.552474e-02 -3.054096e-01  4.650000e-01
     vertex -9.800000e-01 -9.800000e-01  4.650000e-01
   endloop
 endfacet
 facet normal  0.000000e+00  0.000000e+00  1.000000e+00
   outer loop
     vertex -3.156356e-01 -5.267027e-02  4.650000e-01
     vertex -9.800000e-01 -9.800000e-01  4.650000e-01
     vertex -3.079258e-01 -8.707311e-02  4.650000e-01
   endloop
 endfacet
 facet normal  0.000000e+00  0.000000e+00  1.000000e+00
   outer loop
     vertex -2.642539e-02 -3.189070e-01  4.650000e-01
     vertex -6.134740e-02 -3.140645e-01  4.650000e-01
     vertex -9.800000e-01 -9.800000e-01  4.650000e-01
   endloop
 endfacet
 facet normal  0.000000e+00  0.000000e+00  1.000000e+00
   outer loop
     vertex -3.195141e-01 -1.762808e-02  4.650000e-01
     vertex -9.800000e-01 -9.800000e-01  4.650000e-01
     vertex -3.156356e-01 -5.267027e-02  4.650000e-01
   endloop
 endfacet
 facet normal  0.000000e+00  0.000000e+00  1.000000e+00
   outer loop
     vertex  8.817390e-03 -3.198785e-01  4.650000e-01
     vertex -2.642539e-02 -3.189070e-01  4.650000e-01
     vertex -9.800000e-01 -9.800000e-01  4.650000e-01
   endloop
 endfacet
 facet normal  0.000000e+00  0.000000e+00  1.000000e+00
   outer loop
     vertex  9.800000e-01 -9.800000e-01  4.650000e-01
     vertex  4.395314e-02 -3.169671e-01  4.650000e-01
     vertex  8.817390e-03 -3.198785e-01  4.650000e-01
   endloop
 endfacet
 facet normal  0.000000e+00  0.000000e+00  1.000000e+00
   outer loop
     vertex  9.800000e-01 -9.800000e-01  4.650000e-01
     vertex  7.855536e-02 -3.102081e-01  4.650000e-01
     vertex  4.395314e-02 -3.169671e-01  4.650000e-01
   endloop
 endfacet
 facet normal  0.000000e+00  0.000000e+00  1.000000e+00
   outer loop
     vertex  9.800000e-01 -9.800000e-01  4.650000e-01
     vertex  1.122040e-01 -2.996836e-01  4.650000e-01
     vertex  7.855536e-02 -3.102081e-01  4.650000e-01
   endloop
 endfacet
 facet normal  0.000000e+00  0.000000e+00  1.000000e+00
   outer loop
     vertex  9.800000e-01 -9.800000e-01  4.650000e-01
     vertex  1.444907e-01 -2.855214e-01  4.650000e-01
     vertex  1.122040e-01 -2.996836e-01  4.650000e-01
   endloop
 endfacet
 facet normal  0.000000e+00  0.000000e+00  1.000000e+00
   outer loop
     vertex  9.800000e-01 -9.800000e-01  4.650000e-01
     vertex  1.750234e-01 -2.678933e-01  4.650000e-01
     vertex  1.444907e-01 -2.855214e-01  4.650000e-01
   endloop
 endfacet
 facet normal  0.000000e+00  0.000000e+00  1.000000e+00
   outer loop
     vertex  9.800000e-01 -9.800000e-01  4.650000e-01
     vertex  2.034316e-01 -2.470133e-01  4.650000e-01
     vertex  1.750234e-01 -2.678933e-01  4.650000e-01
   endloop
 endfacet
 facet normal  0.000000e+00  0.000000e+00  1.000000e+00
   outer loop
     vertex  9.800000e-01 -9.800000e-01  4.650000e-01
     vertex  8.817390e-03 -3.198785e-01  4.650000e-01
     vertex -9.800000e-01 -9.800000e-01  4.650000e-01
   endloop
 endfacet
 facet normal  0.000000e+00  0.000000e+00  1.000000e+00
   outer loop
     vertex -9.800000e-01  9.800000e-01  4.650000e-01
     vertex -2.629689e-01  1.823386e-01  4.650000e-01
     vertex -2.413141e-01  2.101606e-01  4.650000e-01
   endloop
 endfacet
 facet normal  0.000000e+00  0.000000e+00  1.000000e+00
   outer loop
     vertex -9.800000e-01  9.800000e-01  4.650000e-01
     vertex -2.814316e-01  1.523032e-01  4.650000e-01
     vertex -2.629689e-01  1.823386e-01  4.650000e-01
   endloop
 endfacet
 facet normal  0.000000e+00  0.000000e+00  1.000000e+00
   outer loop
     vertex -9.800000e-01  9.800000e-01  4.650000e-01
     vertex -2.964781e-01  1.204190e-01  4.650000e-01
     vertex -2.814316e-01  1.523032e-01  4.650000e-01
   endloop
 endfacet
 facet normal  0.000000e+00  0.000000e+00  1.000000e+00
   outer loop
     vertex -9.800000e-01  9.800000e-01  4.650000e-01
     vertex -3.079258e-01  8.707311e-02  4.650000e-01
     vertex -2.964781e-01  1.204190e-01  4.650000e-01
   endloop
 endfacet
 facet normal  0.000000e+00  0.000000e+00  1.000000e+00
   outer loop
     vertex -9.800000e-01  9.800000e-01  4.650000e-01
     vertex -3.156356e-01  5.267027e-02  4.650000e-01
     vertex -3.079258e-01  8.707311e-02  4.650000e-01
   endloop
 endfacet
 facet normal  0.000000e+00  0.000000e+00  1.000000e+00
   outer loop
     vertex -9.800000e-01  9.800000e-01  4.650000e-01
     vertex -3.195141e-01  1.762808e-02  4.650000e-01
     vertex -3.156356e-01  5.267027e-02  4.650000e-01
   endloop
 endfacet
 facet normal  0.000000e+00  0.000000e+00  1.000000e+00
   outer loop
     vertex -9.800000e-01  9.800000e-01  4.650000e-01
     vertex -3.195141e-01 -1.762808e-02  4.650000e-01
     vertex -3.195141e-01  1.762808e-02  4.650000e-01
   endloop
 endfacet
 facet normal  0.000000e+00  0.000000e+00  1.000000e+00
   outer loop
     vertex -9.800000e-01  9.800000e-01  4.650000e-01
     vertex -9.800000e-01 -9.800000e-01  4.650000e-01
     vertex -3.195141e-01 -1.762808e-02  4.650000e-01
   endloop
 endfacet
 facet normal  0.000000e+00  0.000000e+00  1.000000e+00
   outer loop
     vertex  2.293704e-01 -2.231350e-01  4.650000e-01
     vertex  2.034316e-01 -2.470133e-01  4.650000e-01
     vertex  9.800000e-01 -9.800000e-01  4.650000e-01
   endloop
 endfacet
 facet normal  0.000000e+00  0.000000e+00  1.000000e+00
   outer loop
     vertex -2.167301e-01  2.354317e-01  4.650000e-01
     vertex -9.800000e-01  9.800000e-01  4.650000e-01
     vertex -2.413141e-01  2.101606e-01  4.650000e-01
   endloop
 endfacet
 facet normal  0.000000e+00  0.000000e+00  1.000000e+00
   outer loop
     vertex  2.525250e-01 -1.965481e-01  4.650000e-01
     vertex  2.293704e-01 -2.231350e-01  4.650000e-01
     vertex  9.800000e-01 -9.800000e-01  4.650000e-01
   endloop
 endfacet
 facet normal  0.000000e+00  0.000000e+00  1.000000e+00
   outer loop
     vertex -1.895153e-01  2.578448e-01  4.650000e-01
     vertex -9.800000e-01  9.800000e-01  4.650000e-01
     vertex -2.167301e-01  2.354317e-01  4.650000e-01
   endloop
 endfacet
 facet normal  0.000000e+00  0.000000e+00  1.000000e+00
   outer loop
     vertex  2.726142e-01 -1.675753e-01  4.650000e-01
     vertex  2.525250e-01 -1.965481e-01  4.650000e-01
     vertex  9.800000e-01 -9.800000e-01  4.650000e-01
   endloop
 endfacet
 facet normal  0.000000e+00  0.000000e+00  1.000000e+00
   outer loop
     vertex -1.600000e-01  2.771281e-01  4.650000e-01
     vertex -9.800000e-01  9.800000e-01  4.650000e-01
     vertex -1.895153e-01  2.578448e-01  4.650000e-01
   endloop
 endfacet
 facet normal  0.000000e+00  0.000000e+00  1.000000e+00
   outer loop
     vertex  2.893943e-01 -1.365685e-01  4.650000e-01
     vertex  2.726142e-01 -1.675753e-01  4.650000e-01
     vertex  9.800000e-01 -9.800000e-01  4.650000e-01
   endloop
 endfacet
 facet normal  0.000000e+00  0.000000e+00  1.000000e+00
   outer loop
     vertex -1.285425e-01  2.930475e-01  4.650000e-01
     vertex -9.800000e-01  9.800000e-01  4.650000e-01
     vertex -1.600000e-01  2.771281e-01  4.650000e-01
   endloop
 endfacet
 facet normal  0.000000e+00  0.000000e+00  1.000000e+00
   outer loop
     vertex  3.026615e-01 -1.039038e-01  4.650000e-01
     vertex  2.893943e-01 -1.365685e-01  4.650000e-01
     vertex  9.800000e-01 -9.800000e-01  4.650000e-01
   endloop
 endfacet
 facet normal  0.000000e+00  0.000000e+00  1.000000e+00
   outer loop
     vertex -9.552474e-02  3.054096e-01  4.650000e-01
     vertex -9.800000e-01  9.800000e-01  4.650000e-01
     vertex -1.285425e-01  2.930475e-01  4.650000e-01
   endloop
 endfacet
 facet normal  0.000000e+00  0.000000e+00  1.000000e+00
   outer loop
     vertex  3.122548e-01 -6.997795e-02  4.650000e-01
     vertex  3.026615e-01 -1.039038e-01  4.650000e-01
     vertex  9.800000e-01 -9.800000e-01  4.650000e-01
   endloop
 endfacet
 facet normal  0.000000e+00  0.000000e+00  1.000000e+00
   outer loop
     vertex -6.134740e-02  3.140645e-01  4.650000e-01
     vertex -9.800000e-01  9.800000e-01  4.650000e-01
     vertex -9.552474e-02  3.054096e-01  4.650000e-01
   endloop
 endfacet
 facet normal  0.000000e+00  0.000000e+00  1.000000e+00
   outer loop
     vertex  3.180578e-01 -3.520263e-02  4.650000e-01
     vertex  3.122548e-01 -6.997795e-02  4.650000e-01
     vertex  9.800000e-01 -9.800000e-01  4.650000e-01
   endloop
 endfacet
 facet normal  0.000000e+00  0.000000e+00  1.000000e+00
   outer loop
     vertex -2.642539e-02  3.189070e-01  4.650000e-01
     vertex -9.800000e-01  9.800000e-01  4.650000e-01
     vertex -6.134740e-02  3.140645e-01  4.650000e-01
   endloop
 endfacet
 facet normal  0.000000e+00  0.000000e+00  1.000000e+00
   outer loop
     vertex  3.200000e-01  0.000000e+00  4.650000e-01
     vertex  3.180578e-01 -3.520263e-02  4.650000e-01
     vertex  9.800000e-01 -9.800000e-01  4.650000e-01
   endloop
 endfacet
 facet normal  0.000000e+00  0.000000e+00  1.000000e+00
   outer loop
     vertex  8.817390e-03  3.198785e-01  4.650000e-01
     vertex -9.800000e-01  9.800000e-01  4.650000e-01
     vertex -2.642539e-02  3.189070e-01  4.650000e-01
   endloop
 endfacet
 facet normal  0.000000e+00  0.000000e+00  1.000000e+00
   outer loop
     vertex  9.800000e-01  9.800000e-01  4.650000e-01
     vertex  3.180578e-01  3.520263e-02  4.650000e-01
     vertex  3.200000e-01  0.000000e+00  4.650000e-01
   endloop
 endfacet
 facet normal  0.000000e+00  0.000000e+00  1.000000e+00
   outer loop
     vertex  9.800000e-01  9.800000e-01  4.650000e-01
     vertex  3.122548e-01  6.997795e-02  4.650000e-01
     vertex  3.180578e-01  3.520263e-02  4.650000e-01
   endloop
 endfacet
 facet normal  0.000000e+00  0.000000e+00  1.000000e+00
   outer loop
     vertex  9.800000e-01  9.800000e-01  4.650000e-01
     vertex  3.026615e-01  1.039038e-01  4.650000e-01
     vertex  3.122548e-01  6.997795e-02  4.650000e-01
   endloop
 endfacet
 facet normal  0.000000e+00  0.000000e+00  1.000000e+00
   outer loop
     vertex  9.800000e-01  9.800000e-01  4.650000e-01
     vertex  2.893943e-01  1.365685e-01  4.650000e-01
     vertex  3.026615e-01  1.039038e-01  4.650000e-01
   endloop
 endfacet
 facet normal  0.000000e+00  0.000000e+00  1.000000e+00
   outer loop
     vertex  9.800000e-01  9.800000e-01  4.650000e-01
     vertex  2.726142e-01  1.675753e-01  4.650000e-01
     vertex  2.893943e-01  1.365685e-01  4.650000e-01
   endloop
 endfacet
 facet normal  0.000000e+00  0.000000e+00  1.000000e+00
   outer loop
     vertex  9.800000e-01  9.800000e-01  4.650000e-01
     vertex  2.525250e-01  1.965481e-01  4.650000e-01
     vertex  2.726142e-01  1.675753e-01  4.650000e-01
   endloop
 endfacet
 facet normal  0.000000e+00  0.000000e+00  1.000000e+00
   outer loop
     vertex  9.800000e-01  9.800000e-01  4.650000e-01
     vertex  2.293704e-01  2.231350e-01  4.650000e-01
     vertex  2.525250e-01  1.965481e-01  4.650000e-01
   endloop
 endfacet
 facet normal  0.000000e+00  0.000000e+00  1.000000e+00
   outer loop
     vertex  9.800000e-01  9.800000e-01  4.650000e-01
     vertex  2.034316e-01  2.470133e-01  4.650000e-01
     vertex  2.293704e-01  2.231350e-01  4.650000e-01
   endloop
 endfacet
 facet normal  0.000000e+00  0.000000e+00  1.000000e+00
   outer loop
     vertex  9.800000e-01  9.800000e-01  4.650000e-01
     vertex  1.750234e-01  2.678933e-01  4.650000e-01
     vertex  2.034316e-01  2.470133e-01  4.650000e-01
   endloop
 endfacet
 facet normal  0.000000e+00  0.000000e+00  1.000000e+00
   outer loop
     vertex  9.800000e-01  9.800000e-01  4.650000e-01
     vertex  1.444907e-01  2.855214e-01  4.650000e-01
     vertex  1.750234e-01  2.678933e-01  4.650000e-01
   endloop
 endfacet
 facet normal  0.000000e+00  0.000000e+00  1.000000e+00
   outer loop
     vertex  9.800000e-01  9.800000e-01  4.650000e-01
     vertex  1.122040e-01  2.996836e-01  4.650000e-01
     vertex  1.444907e-01  2.855214e-01  4.650000e-01
   endloop
 endfacet
 facet normal  0.000000e+00  0.000000e+00  1.000000e+00
   outer loop
     vertex  9.800000e-01  9.800000e-01  4.650000e-01
     vertex  7.855536e-02  3.102081e-01  4.650000e-01
     vertex  1.122040e-01  2.996836e-01  4.650000e-01
   endloop
 endfacet
 facet normal  0.000000e+00  0.000000e+00  1.000000e+00
   outer loop
     vertex  9.800000e-01  9.800000e-01  4.650000e-01
     vertex  4.395314e-02  3.169671e-01  4.650000e-01
     vertex  7.855536e-02  3.102081e-01  4.650000e-01
   endloop
 endfacet
 facet normal  0.000000e+00  0.000000e+00  1.000000e+00
   outer loop
     vertex  9.800000e-01  9.800000e-01  4.650000e-01
     vertex  8.817390e-03  3.198785e-01  4.650000e-01
     vertex  4.395314e-02  3.169671e-01  4.650000e-01
   endloop
 endfacet
 facet normal  0.000000e+00  0.000000e+00  1.000000e+00
   outer loop
     vertex  9.800000e-01  9.800000e-01  4.650000e-01
     vertex  3.200000e-01  0.000000e+00  4.650000e-01
     vertex  9.800000e-01 -9.800000e-01  4.650000e-01
   endloop
 endfacet
 facet normal  0.000000e+00  0.000000e+00  1.000000e+00
   outer loop
     vertex  9.800000e-01  9.800000e-01  4.650000e-01
     vertex -9.800000e-01  9.800000e-01  4.650000e-01
     vertex  8.817390e-03  3.198785e-01  4.650000e-01
   endloop
 endfacet
endsolid
