solid 
 facet normal  9.980267e-01  6.279052e-02  0.000000e+00
   outer loop
     vertex  1.472431e+02  9.803071e+01  1.470000e+02
     vertex  1.472450e+02  9.800000e+01  1.470000e+02
     vertex  1.472450e+02  9.800000e+01  1.465100e+02
   endloop
 endfacet
 facet normal  9.980267e-01  6.279052e-02  0.000000e+00
   outer loop
     vertex  1.472431e+02  9.803071e+01  1.470000e+02
     vertex  1.472450e+02  9.800000e+01  1.465100e+02
     vertex  1.472431e+02  9.803071e+01  1.465100e+02
   endloop
 endfacet
 facet normal  9.822873e-01  1.873813e-01  0.000000e+00
   outer loop
     vertex  1.472373e+02  9.806093e+01  1.470000e+02
     vertex  1.472431e+02  9.803071e+01  1.465100e+02
     vertex  1.472373e+02  9.806093e+01  1.465100e+02
   endloop
 endfacet
 facet normal  9.822873e-01  1.873813e-01  0.000000e+00
   outer loop
     vertex  1.472373e+02  9.806093e+01  1.470000e+02
     vertex  1.472431e+02  9.803071e+01  1.470000e+02
     vertex  1.472431e+02  9.803071e+01  1.465100e+02
   endloop
 endfacet
 facet normal  9.510565e-01  3.090170e-01  0.000000e+00
   outer loop
     vertex  1.472278e+02  9.809019e+01  1.470000e+02
     vertex  1.472373e+02  9.806093e+01  1.465100e+02
     vertex  1.472278e+02  9.809019e+01  1.465100e+02
   endloop
 endfacet
 facet normal  9.510565e-01  3.090170e-01  0.000000e+00
   outer loop
     vertex  1.472278e+02  9.809019e+01  1.470000e+02
     vertex  1.472373e+02  9.806093e+01  1.470000e+02
     vertex  1.472373e+02  9.806093e+01  1.465100e+02
   endloop
 endfacet
 facet normal  9.048271e-01  4.257793e-01  0.000000e+00
   outer loop
     vertex  1.472147e+02  9.811803e+01  1.470000e+02
     vertex  1.472278e+02  9.809019e+01  1.465100e+02
     vertex  1.472147e+02  9.811803e+01  1.465100e+02
   endloop
 endfacet
 facet normal  9.048271e-01  4.257793e-01  0.000000e+00
   outer loop
     vertex  1.472147e+02  9.811803e+01  1.470000e+02
     vertex  1.472278e+02  9.809019e+01  1.470000e+02
     vertex  1.472278e+02  9.809019e+01  1.465100e+02
   endloop
 endfacet
 facet normal  8.443279e-01  5.358268e-01  0.000000e+00
   outer loop
     vertex  1.471982e+02  9.814401e+01  1.470000e+02
     vertex  1.472147e+02  9.811803e+01  1.465100e+02
     vertex  1.471982e+02  9.814401e+01  1.465100e+02
   endloop
 endfacet
 facet normal  8.443279e-01  5.358268e-01  0.000000e+00
   outer loop
     vertex  1.471982e+02  9.814401e+01  1.470000e+02
     vertex  1.472147e+02  9.811803e+01  1.470000e+02
     vertex  1.472147e+02  9.811803e+01  1.465100e+02
   endloop
 endfacet
 facet normal  7.705132e-01  6.374240e-01  0.000000e+00
   outer loop
     vertex  1.471786e+02  9.816771e+01  1.470000e+02
     vertex  1.471982e+02  9.814401e+01  1.465100e+02
     vertex  1.471786e+02  9.816771e+01  1.465100e+02
   endloop
 endfacet
 facet normal  6.845471e-01  7.289686e-01  0.000000e+00
   outer loop
     vertex  1.471786e+02  9.816771e+01  1.470000e+02
     vertex  1.471786e+02  9.816771e+01  1.465100e+02
     vertex  1.471562e+02  9.818878e+01  1.465100e+02
   endloop
 endfacet
 facet normal  7.705132e-01  6.374240e-01  0.000000e+00
   outer loop
     vertex  1.471786e+02  9.816771e+01  1.470000e+02
     vertex  1.471982e+02  9.814401e+01  1.470000e+02
     vertex  1.471982e+02  9.814401e+01  1.465100e+02
   endloop
 endfacet
 facet normal  6.845471e-01  7.289686e-01  0.000000e+00
   outer loop
     vertex  1.471562e+02  9.818878e+01  1.470000e+02
     vertex  1.471786e+02  9.816771e+01  1.470000e+02
     vertex  1.471562e+02  9.818878e+01  1.465100e+02
   endloop
 endfacet
 facet normal  5.877853e-01  8.090170e-01  0.000000e+00
   outer loop
     vertex  1.471313e+02  9.820686e+01  1.470000e+02
     vertex  1.471562e+02  9.818878e+01  1.465100e+02
     vertex  1.471313e+02  9.820686e+01  1.465100e+02
   endloop
 endfacet
 facet normal  5.877853e-01  8.090170e-01  0.000000e+00
   outer loop
     vertex  1.471313e+02  9.820686e+01  1.470000e+02
     vertex  1.471562e+02  9.818878e+01  1.470000e+02
     vertex  1.471562e+02  9.818878e+01  1.465100e+02
   endloop
 endfacet
 facet normal  4.817537e-01  8.763067e-01  0.000000e+00
   outer loop
     vertex  1.471043e+02  9.822168e+01  1.470000e+02
     vertex  1.471313e+02  9.820686e+01  1.465100e+02
     vertex  1.471043e+02  9.822168e+01  1.465100e+02
   endloop
 endfacet
 facet normal  3.681246e-01  9.297765e-01  0.000000e+00
   outer loop
     vertex  1.471043e+02  9.822168e+01  1.470000e+02
     vertex  1.471043e+02  9.822168e+01  1.465100e+02
     vertex  1.470757e+02  9.823301e+01  1.465100e+02
   endloop
 endfacet
 facet normal  4.817537e-01  8.763067e-01  0.000000e+00
   outer loop
     vertex  1.471043e+02  9.822168e+01  1.470000e+02
     vertex  1.471313e+02  9.820686e+01  1.470000e+02
     vertex  1.471313e+02  9.820686e+01  1.465100e+02
   endloop
 endfacet
 facet normal  3.681246e-01  9.297765e-01  0.000000e+00
   outer loop
     vertex  1.470757e+02  9.823301e+01  1.470000e+02
     vertex  1.471043e+02  9.822168e+01  1.470000e+02
     vertex  1.470757e+02  9.823301e+01  1.465100e+02
   endloop
 endfacet
 facet normal  2.486899e-01  9.685832e-01  0.000000e+00
   outer loop
     vertex  1.470459e+02  9.824066e+01  1.470000e+02
     vertex  1.470757e+02  9.823301e+01  1.465100e+02
     vertex  1.470459e+02  9.824066e+01  1.465100e+02
   endloop
 endfacet
 facet normal  2.486899e-01  9.685832e-01  0.000000e+00
   outer loop
     vertex  1.470459e+02  9.824066e+01  1.470000e+02
     vertex  1.470757e+02  9.823301e+01  1.470000e+02
     vertex  1.470757e+02  9.823301e+01  1.465100e+02
   endloop
 endfacet
 facet normal  1.253332e-01  9.921147e-01  0.000000e+00
   outer loop
     vertex  1.470154e+02  9.824452e+01  1.470000e+02
     vertex  1.470459e+02  9.824066e+01  1.465100e+02
     vertex  1.470154e+02  9.824452e+01  1.465100e+02
   endloop
 endfacet
 facet normal  1.253332e-01  9.921147e-01  0.000000e+00
   outer loop
     vertex  1.470154e+02  9.824452e+01  1.470000e+02
     vertex  1.470459e+02  9.824066e+01  1.470000e+02
     vertex  1.470459e+02  9.824066e+01  1.465100e+02
   endloop
 endfacet
 facet normal  0.000000e+00  1.000000e+00  0.000000e+00
   outer loop
     vertex  1.469846e+02  9.824452e+01  1.470000e+02
     vertex  1.470154e+02  9.824452e+01  1.465100e+02
     vertex  1.469846e+02  9.824452e+01  1.465100e+02
   endloop
 endfacet
 facet normal -0.000000e+00  1.000000e+00  0.000000e+00
   outer loop
     vertex  1.469846e+02  9.824452e+01  1.470000e+02
     vertex  1.470154e+02  9.824452e+01  1.470000e+02
     vertex  1.470154e+02  9.824452e+01  1.465100e+02
   endloop
 endfacet
 facet normal -1.253332e-01  9.921147e-01  0.000000e+00
   outer loop
     vertex  1.469541e+02  9.824066e+01  1.470000e+02
     vertex  1.469846e+02  9.824452e+01  1.465100e+02
     vertex  1.469541e+02  9.824066e+01  1.465100e+02
   endloop
 endfacet
 facet normal -1.253332e-01  9.921147e-01  0.000000e+00
   outer loop
     vertex  1.469541e+02  9.824066e+01  1.470000e+02
     vertex  1.469846e+02  9.824452e+01  1.470000e+02
     vertex  1.469846e+02  9.824452e+01  1.465100e+02
   endloop
 endfacet
 facet normal -2.486899e-01  9.685832e-01  0.000000e+00
   outer loop
     vertex  1.469243e+02  9.823301e+01  1.470000e+02
     vertex  1.469541e+02  9.824066e+01  1.465100e+02
     vertex  1.469243e+02  9.823301e+01  1.465100e+02
   endloop
 endfacet
 facet normal -2.486899e-01  9.685832e-01  0.000000e+00
   outer loop
     vertex  1.469243e+02  9.823301e+01  1.470000e+02
     vertex  1.469541e+02  9.824066e+01  1.470000e+02
     vertex  1.469541e+02  9.824066e+01  1.465100e+02
   endloop
 endfacet
 facet normal -3.681246e-01  9.297765e-01  0.000000e+00
   outer loop
     vertex  1.468957e+02  9.822168e+01  1.470000e+02
     vertex  1.469243e+02  9.823301e+01  1.465100e+02
     vertex  1.468957e+02  9.822168e+01  1.465100e+02
   endloop
 endfacet
 facet normal -4.817537e-01  8.763067e-01  0.000000e+00
   outer loop
     vertex  1.468957e+02  9.822168e+01  1.470000e+02
     vertex  1.468957e+02  9.822168e+01  1.465100e+02
     vertex  1.468687e+02  9.820686e+01  1.465100e+02
   endloop
 endfacet
 facet normal -3.681246e-01  9.297765e-01  0.000000e+00
   outer loop
     vertex  1.468957e+02  9.822168e+01  1.470000e+02
     vertex  1.469243e+02  9.823301e+01  1.470000e+02
     vertex  1.469243e+02  9.823301e+01  1.465100e+02
   endloop
 endfacet
 facet normal -4.817537e-01  8.763067e-01  0.000000e+00
   outer loop
     vertex  1.468687e+02  9.820686e+01  1.470000e+02
     vertex  1.468957e+02  9.822168e+01  1.470000e+02
     vertex  1.468687e+02  9.820686e+01  1.465100e+02
   endloop
 endfacet
 facet normal -5.877853e-01  8.090170e-01  0.000000e+00
   outer loop
     vertex  1.468438e+02  9.818878e+01  1.470000e+02
     vertex  1.468687e+02  9.820686e+01  1.465100e+02
     vertex  1.468438e+02  9.818878e+01  1.465100e+02
   endloop
 endfacet
 facet normal -5.877853e-01  8.090170e-01  0.000000e+00
   outer loop
     vertex  1.468438e+02  9.818878e+01  1.470000e+02
     vertex  1.468687e+02  9.820686e+01  1.470000e+02
     vertex  1.468687e+02  9.820686e+01  1.465100e+02
   endloop
 endfacet
 facet normal -6.845471e-01  7.289686e-01  0.000000e+00
   outer loop
     vertex  1.468214e+02  9.816771e+01  1.470000e+02
     vertex  1.468438e+02  9.818878e+01  1.465100e+02
     vertex  1.468214e+02  9.816771e+01  1.465100e+02
   endloop
 endfacet
 facet normal -6.845471e-01  7.289686e-01  0.000000e+00
   outer loop
     vertex  1.468214e+02  9.816771e+01  1.470000e+02
     vertex  1.468438e+02  9.818878e+01  1.470000e+02
     vertex  1.468438e+02  9.818878e+01  1.465100e+02
   endloop
 endfacet
 facet normal -7.705132e-01  6.374240e-01  0.000000e+00
   outer loop
     vertex  1.468018e+02  9.814401e+01  1.470000e+02
     vertex  1.468214e+02  9.816771e+01  1.465100e+02
     vertex  1.468018e+02  9.814401e+01  1.465100e+02
   endloop
 endfacet
 facet normal -7.705132e-01  6.374240e-01  0.000000e+00
   outer loop
     vertex  1.468018e+02  9.814401e+01  1.470000e+02
     vertex  1.468214e+02  9.816771e+01  1.470000e+02
     vertex  1.468214e+02  9.816771e+01  1.465100e+02
   endloop
 endfacet
 facet normal -8.443279e-01  5.358268e-01  0.000000e+00
   outer loop
     vertex  1.467853e+02  9.811803e+01  1.470000e+02
     vertex  1.468018e+02  9.814401e+01  1.465100e+02
     vertex  1.467853e+02  9.811803e+01  1.465100e+02
   endloop
 endfacet
 facet normal -8.443279e-01  5.358268e-01  0.000000e+00
   outer loop
     vertex  1.467853e+02  9.811803e+01  1.470000e+02
     vertex  1.468018e+02  9.814401e+01  1.470000e+02
     vertex  1.468018e+02  9.814401e+01  1.465100e+02
   endloop
 endfacet
 facet normal -9.048271e-01  4.257793e-01  0.000000e+00
   outer loop
     vertex  1.467722e+02  9.809019e+01  1.470000e+02
     vertex  1.467853e+02  9.811803e+01  1.465100e+02
     vertex  1.467722e+02  9.809019e+01  1.465100e+02
   endloop
 endfacet
 facet normal -9.048271e-01  4.257793e-01  0.000000e+00
   outer loop
     vertex  1.467722e+02  9.809019e+01  1.470000e+02
     vertex  1.467853e+02  9.811803e+01  1.470000e+02
     vertex  1.467853e+02  9.811803e+01  1.465100e+02
   endloop
 endfacet
 facet normal -9.510565e-01  3.090170e-01  0.000000e+00
   outer loop
     vertex  1.467627e+02  9.806093e+01  1.470000e+02
     vertex  1.467722e+02  9.809019e+01  1.465100e+02
     vertex  1.467627e+02  9.806093e+01  1.465100e+02
   endloop
 endfacet
 facet normal -9.510565e-01  3.090170e-01  0.000000e+00
   outer loop
     vertex  1.467627e+02  9.806093e+01  1.470000e+02
     vertex  1.467722e+02  9.809019e+01  1.470000e+02
     vertex  1.467722e+02  9.809019e+01  1.465100e+02
   endloop
 endfacet
 facet normal -9.822873e-01  1.873813e-01  0.000000e+00
   outer loop
     vertex  1.467569e+02  9.803071e+01  1.470000e+02
     vertex  1.467627e+02  9.806093e+01  1.465100e+02
     vertex  1.467569e+02  9.803071e+01  1.465100e+02
   endloop
 endfacet
 facet normal -9.980267e-01  6.279052e-02  0.000000e+00
   outer loop
     vertex  1.467569e+02  9.803071e+01  1.470000e+02
     vertex  1.467569e+02  9.803071e+01  1.465100e+02
     vertex  1.467550e+02  9.800000e+01  1.465100e+02
   endloop
 endfacet
 facet normal -9.822873e-01  1.873813e-01  0.000000e+00
   outer loop
     vertex  1.467569e+02  9.803071e+01  1.470000e+02
     vertex  1.467627e+02  9.806093e+01  1.470000e+02
     vertex  1.467627e+02  9.806093e+01  1.465100e+02
   endloop
 endfacet
 facet normal -9.980267e-01  6.279052e-02  0.000000e+00
   outer loop
     vertex  1.467550e+02  9.800000e+01  1.470000e+02
     vertex  1.467569e+02  9.803071e+01  1.470000e+02
     vertex  1.467550e+02  9.800000e+01  1.465100e+02
   endloop
 endfacet
 facet normal -9.980267e-01 -6.279052e-02 -0.000000e+00
   outer loop
     vertex  1.467550e+02  9.800000e+01  1.470000e+02
     vertex  1.467550e+02  9.800000e+01  1.465100e+02
     vertex  1.467569e+02  9.796929e+01  1.465100e+02
   endloop
 endfacet
 facet normal -9.980267e-01 -6.279052e-02 -0.000000e+00
   outer loop
     vertex  1.467569e+02  9.796929e+01  1.470000e+02
     vertex  1.467550e+02  9.800000e+01  1.470000e+02
     vertex  1.467569e+02  9.796929e+01  1.465100e+02
   endloop
 endfacet
 facet normal -9.822873e-01 -1.873813e-01  0.000000e+00
   outer loop
     vertex  1.467627e+02  9.793907e+01  1.470000e+02
     vertex  1.467569e+02  9.796929e+01  1.470000e+02
     vertex  1.467569e+02  9.796929e+01  1.465100e+02
   endloop
 endfacet
 facet normal -9.822873e-01 -1.873813e-01 -0.000000e+00
   outer loop
     vertex  1.467627e+02  9.793907e+01  1.470000e+02
     vertex  1.467569e+02  9.796929e+01  1.465100e+02
     vertex  1.467627e+02  9.793907e+01  1.465100e+02
   endloop
 endfacet
 facet normal -9.510565e-01 -3.090170e-01  0.000000e+00
   outer loop
     vertex  1.467722e+02  9.790981e+01  1.470000e+02
     vertex  1.467627e+02  9.793907e+01  1.470000e+02
     vertex  1.467627e+02  9.793907e+01  1.465100e+02
   endloop
 endfacet
 facet normal -9.510565e-01 -3.090170e-01 -0.000000e+00
   outer loop
     vertex  1.467722e+02  9.790981e+01  1.470000e+02
     vertex  1.467627e+02  9.793907e+01  1.465100e+02
     vertex  1.467722e+02  9.790981e+01  1.465100e+02
   endloop
 endfacet
 facet normal -9.048271e-01 -4.257793e-01  0.000000e+00
   outer loop
     vertex  1.467853e+02  9.788197e+01  1.470000e+02
     vertex  1.467722e+02  9.790981e+01  1.470000e+02
     vertex  1.467722e+02  9.790981e+01  1.465100e+02
   endloop
 endfacet
 facet normal -9.048271e-01 -4.257793e-01 -0.000000e+00
   outer loop
     vertex  1.467853e+02  9.788197e+01  1.470000e+02
     vertex  1.467722e+02  9.790981e+01  1.465100e+02
     vertex  1.467853e+02  9.788197e+01  1.465100e+02
   endloop
 endfacet
 facet normal -8.443279e-01 -5.358268e-01 -0.000000e+00
   outer loop
     vertex  1.467853e+02  9.788197e+01  1.470000e+02
     vertex  1.467853e+02  9.788197e+01  1.465100e+02
     vertex  1.468018e+02  9.785599e+01  1.465100e+02
   endloop
 endfacet
 facet normal -8.443279e-01 -5.358268e-01 -0.000000e+00
   outer loop
     vertex  1.468018e+02  9.785599e+01  1.470000e+02
     vertex  1.467853e+02  9.788197e+01  1.470000e+02
     vertex  1.468018e+02  9.785599e+01  1.465100e+02
   endloop
 endfacet
 facet normal -7.705132e-01 -6.374240e-01  0.000000e+00
   outer loop
     vertex  1.468214e+02  9.783229e+01  1.470000e+02
     vertex  1.468018e+02  9.785599e+01  1.470000e+02
     vertex  1.468018e+02  9.785599e+01  1.465100e+02
   endloop
 endfacet
 facet normal -7.705132e-01 -6.374240e-01 -0.000000e+00
   outer loop
     vertex  1.468214e+02  9.783229e+01  1.470000e+02
     vertex  1.468018e+02  9.785599e+01  1.465100e+02
     vertex  1.468214e+02  9.783229e+01  1.465100e+02
   endloop
 endfacet
 facet normal -6.845471e-01 -7.289686e-01 -0.000000e+00
   outer loop
     vertex  1.468214e+02  9.783229e+01  1.470000e+02
     vertex  1.468214e+02  9.783229e+01  1.465100e+02
     vertex  1.468438e+02  9.781122e+01  1.465100e+02
   endloop
 endfacet
 facet normal -6.845471e-01 -7.289686e-01 -0.000000e+00
   outer loop
     vertex  1.468438e+02  9.781122e+01  1.470000e+02
     vertex  1.468214e+02  9.783229e+01  1.470000e+02
     vertex  1.468438e+02  9.781122e+01  1.465100e+02
   endloop
 endfacet
 facet normal -5.877853e-01 -8.090170e-01 -0.000000e+00
   outer loop
     vertex  1.468687e+02  9.779314e+01  1.470000e+02
     vertex  1.468438e+02  9.781122e+01  1.465100e+02
     vertex  1.468687e+02  9.779314e+01  1.465100e+02
   endloop
 endfacet
 facet normal -4.817537e-01 -8.763067e-01 -0.000000e+00
   outer loop
     vertex  1.468687e+02  9.779314e+01  1.470000e+02
     vertex  1.468687e+02  9.779314e+01  1.465100e+02
     vertex  1.468957e+02  9.777832e+01  1.465100e+02
   endloop
 endfacet
 facet normal -5.877853e-01 -8.090170e-01  0.000000e+00
   outer loop
     vertex  1.468687e+02  9.779314e+01  1.470000e+02
     vertex  1.468438e+02  9.781122e+01  1.470000e+02
     vertex  1.468438e+02  9.781122e+01  1.465100e+02
   endloop
 endfacet
 facet normal -3.681246e-01 -9.297765e-01 -0.000000e+00
   outer loop
     vertex  1.468957e+02  9.777832e+01  1.470000e+02
     vertex  1.468957e+02  9.777832e+01  1.465100e+02
     vertex  1.469243e+02  9.776699e+01  1.465100e+02
   endloop
 endfacet
 facet normal -4.817537e-01 -8.763067e-01 -0.000000e+00
   outer loop
     vertex  1.468957e+02  9.777832e+01  1.470000e+02
     vertex  1.468687e+02  9.779314e+01  1.470000e+02
     vertex  1.468957e+02  9.777832e+01  1.465100e+02
   endloop
 endfacet
 facet normal -3.681246e-01 -9.297765e-01 -0.000000e+00
   outer loop
     vertex  1.469243e+02  9.776699e+01  1.470000e+02
     vertex  1.468957e+02  9.777832e+01  1.470000e+02
     vertex  1.469243e+02  9.776699e+01  1.465100e+02
   endloop
 endfacet
 facet normal -2.486899e-01 -9.685832e-01 -0.000000e+00
   outer loop
     vertex  1.469541e+02  9.775934e+01  1.470000e+02
     vertex  1.469243e+02  9.776699e+01  1.465100e+02
     vertex  1.469541e+02  9.775934e+01  1.465100e+02
   endloop
 endfacet
 facet normal -2.486899e-01 -9.685832e-01  0.000000e+00
   outer loop
     vertex  1.469541e+02  9.775934e+01  1.470000e+02
     vertex  1.469243e+02  9.776699e+01  1.470000e+02
     vertex  1.469243e+02  9.776699e+01  1.465100e+02
   endloop
 endfacet
 facet normal -1.253332e-01 -9.921147e-01 -0.000000e+00
   outer loop
     vertex  1.469846e+02  9.775548e+01  1.470000e+02
     vertex  1.469541e+02  9.775934e+01  1.465100e+02
     vertex  1.469846e+02  9.775548e+01  1.465100e+02
   endloop
 endfacet
 facet normal -1.253332e-01 -9.921147e-01  0.000000e+00
   outer loop
     vertex  1.469846e+02  9.775548e+01  1.470000e+02
     vertex  1.469541e+02  9.775934e+01  1.470000e+02
     vertex  1.469541e+02  9.775934e+01  1.465100e+02
   endloop
 endfacet
 facet normal  0.000000e+00 -1.000000e+00 -0.000000e+00
   outer loop
     vertex  1.470154e+02  9.775548e+01  1.470000e+02
     vertex  1.469846e+02  9.775548e+01  1.465100e+02
     vertex  1.470154e+02  9.775548e+01  1.465100e+02
   endloop
 endfacet
 facet normal -0.000000e+00 -1.000000e+00  0.000000e+00
   outer loop
     vertex  1.470154e+02  9.775548e+01  1.470000e+02
     vertex  1.469846e+02  9.775548e+01  1.470000e+02
     vertex  1.469846e+02  9.775548e+01  1.465100e+02
   endloop
 endfacet
 facet normal  1.253332e-01 -9.921147e-01  0.000000e+00
   outer loop
     vertex  1.470459e+02  9.775934e+01  1.470000e+02
     vertex  1.470154e+02  9.775548e+01  1.465100e+02
     vertex  1.470459e+02  9.775934e+01  1.465100e+02
   endloop
 endfacet
 facet normal  1.253332e-01 -9.921147e-01  0.000000e+00
   outer loop
     vertex  1.470459e+02  9.775934e+01  1.470000e+02
     vertex  1.470154e+02  9.775548e+01  1.470000e+02
     vertex  1.470154e+02  9.775548e+01  1.465100e+02
   endloop
 endfacet
 facet normal  2.486899e-01 -9.685832e-01  0.000000e+00
   outer loop
     vertex  1.470757e+02  9.776699e+01  1.470000e+02
     vertex  1.470459e+02  9.775934e+01  1.465100e+02
     vertex  1.470757e+02  9.776699e+01  1.465100e+02
   endloop
 endfacet
 facet normal  2.486899e-01 -9.685832e-01  0.000000e+00
   outer loop
     vertex  1.470757e+02  9.776699e+01  1.470000e+02
     vertex  1.470459e+02  9.775934e+01  1.470000e+02
     vertex  1.470459e+02  9.775934e+01  1.465100e+02
   endloop
 endfacet
 facet normal  3.681246e-01 -9.297765e-01  0.000000e+00
   outer loop
     vertex  1.471043e+02  9.777832e+01  1.470000e+02
     vertex  1.470757e+02  9.776699e+01  1.465100e+02
     vertex  1.471043e+02  9.777832e+01  1.465100e+02
   endloop
 endfacet
 facet normal  3.681246e-01 -9.297765e-01  0.000000e+00
   outer loop
     vertex  1.471043e+02  9.777832e+01  1.470000e+02
     vertex  1.470757e+02  9.776699e+01  1.470000e+02
     vertex  1.470757e+02  9.776699e+01  1.465100e+02
   endloop
 endfacet
 facet normal  4.817537e-01 -8.763067e-01  0.000000e+00
   outer loop
     vertex  1.471313e+02  9.779314e+01  1.470000e+02
     vertex  1.471043e+02  9.777832e+01  1.465100e+02
     vertex  1.471313e+02  9.779314e+01  1.465100e+02
   endloop
 endfacet
 facet normal  4.817537e-01 -8.763067e-01  0.000000e+00
   outer loop
     vertex  1.471313e+02  9.779314e+01  1.470000e+02
     vertex  1.471043e+02  9.777832e+01  1.470000e+02
     vertex  1.471043e+02  9.777832e+01  1.465100e+02
   endloop
 endfacet
 facet normal  5.877853e-01 -8.090170e-01  0.000000e+00
   outer loop
     vertex  1.471562e+02  9.781122e+01  1.470000e+02
     vertex  1.471313e+02  9.779314e+01  1.465100e+02
     vertex  1.471562e+02  9.781122e+01  1.465100e+02
   endloop
 endfacet
 facet normal  5.877853e-01 -8.090170e-01  0.000000e+00
   outer loop
     vertex  1.471562e+02  9.781122e+01  1.470000e+02
     vertex  1.471313e+02  9.779314e+01  1.470000e+02
     vertex  1.471313e+02  9.779314e+01  1.465100e+02
   endloop
 endfacet
 facet normal  6.845471e-01 -7.289686e-01  0.000000e+00
   outer loop
     vertex  1.471786e+02  9.783229e+01  1.470000e+02
     vertex  1.471562e+02  9.781122e+01  1.465100e+02
     vertex  1.471786e+02  9.783229e+01  1.465100e+02
   endloop
 endfacet
 facet normal  6.845471e-01 -7.289686e-01  0.000000e+00
   outer loop
     vertex  1.471786e+02  9.783229e+01  1.470000e+02
     vertex  1.471562e+02  9.781122e+01  1.470000e+02
     vertex  1.471562e+02  9.781122e+01  1.465100e+02
   endloop
 endfacet
 facet normal  7.705132e-01 -6.374240e-01  0.000000e+00
   outer loop
     vertex  1.471982e+02  9.785599e+01  1.470000e+02
     vertex  1.471786e+02  9.783229e+01  1.465100e+02
     vertex  1.471982e+02  9.785599e+01  1.465100e+02
   endloop
 endfacet
 facet normal  7.705132e-01 -6.374240e-01  0.000000e+00
   outer loop
     vertex  1.471982e+02  9.785599e+01  1.470000e+02
     vertex  1.471786e+02  9.783229e+01  1.470000e+02
     vertex  1.471786e+02  9.783229e+01  1.465100e+02
   endloop
 endfacet
 facet normal  8.443279e-01 -5.358268e-01  0.000000e+00
   outer loop
     vertex  1.472147e+02  9.788197e+01  1.470000e+02
     vertex  1.471982e+02  9.785599e+01  1.465100e+02
     vertex  1.472147e+02  9.788197e+01  1.465100e+02
   endloop
 endfacet
 facet normal  8.443279e-01 -5.358268e-01  0.000000e+00
   outer loop
     vertex  1.472147e+02  9.788197e+01  1.470000e+02
     vertex  1.471982e+02  9.785599e+01  1.470000e+02
     vertex  1.471982e+02  9.785599e+01  1.465100e+02
   endloop
 endfacet
 facet normal  9.048271e-01 -4.257793e-01  0.000000e+00
   outer loop
     vertex  1.472278e+02  9.790981e+01  1.470000e+02
     vertex  1.472147e+02  9.788197e+01  1.465100e+02
     vertex  1.472278e+02  9.790981e+01  1.465100e+02
   endloop
 endfacet
 facet normal  9.048271e-01 -4.257793e-01  0.000000e+00
   outer loop
     vertex  1.472278e+02  9.790981e+01  1.470000e+02
     vertex  1.472147e+02  9.788197e+01  1.470000e+02
     vertex  1.472147e+02  9.788197e+01  1.465100e+02
   endloop
 endfacet
 facet normal  9.510565e-01 -3.090170e-01  0.000000e+00
   outer loop
     vertex  1.472373e+02  9.793907e+01  1.470000e+02
     vertex  1.472278e+02  9.790981e+01  1.465100e+02
     vertex  1.472373e+02  9.793907e+01  1.465100e+02
   endloop
 endfacet
 facet normal  9.822873e-01 -1.873813e-01  0.000000e+00
   outer loop
     vertex  1.472373e+02  9.793907e+01  1.470000e+02
     vertex  1.472373e+02  9.793907e+01  1.465100e+02
     vertex  1.472431e+02  9.796929e+01  1.465100e+02
   endloop
 endfacet
 facet normal  9.510565e-01 -3.090170e-01  0.000000e+00
   outer loop
     vertex  1.472373e+02  9.793907e+01  1.470000e+02
     vertex  1.472278e+02  9.790981e+01  1.470000e+02
     vertex  1.472278e+02  9.790981e+01  1.465100e+02
   endloop
 endfacet
 facet normal  9.822873e-01 -1.873813e-01  0.000000e+00
   outer loop
     vertex  1.472431e+02  9.796929e+01  1.470000e+02
     vertex  1.472373e+02  9.793907e+01  1.470000e+02
     vertex  1.472431e+02  9.796929e+01  1.465100e+02
   endloop
 endfacet
 facet normal  9.980267e-01 -6.279052e-02  0.000000e+00
   outer loop
     vertex  1.472450e+02  9.800000e+01  1.470000e+02
     vertex  1.472431e+02  9.796929e+01  1.465100e+02
     vertex  1.472450e+02  9.800000e+01  1.465100e+02
   endloop
 endfacet
 facet normal  9.980267e-01 -6.279052e-02  0.000000e+00
   outer loop
     vertex  1.472450e+02  9.800000e+01  1.470000e+02
     vertex  1.472431e+02  9.796929e+01  1.470000e+02
     vertex  1.472431e+02  9.796929e+01  1.465100e+02
   endloop
 endfacet
 facet normal  0.000000e+00  0.000000e+00  1.000000e+00
   outer loop
     vertex  1.471562e+02  9.781122e+01  1.470000e+02
     vertex  1.471043e+02  9.777832e+01  1.470000e+02
     vertex  1.471313e+02  9.779314e+01  1.470000e+02
   endloop
 endfacet
 facet normal  0.000000e+00  0.000000e+00  1.000000e+00
   outer loop
     vertex  1.471982e+02  9.785599e+01  1.470000e+02
     vertex  1.471562e+02  9.781122e+01  1.470000e+02
     vertex  1.471786e+02  9.783229e+01  1.470000e+02
   endloop
 endfacet
 facet normal  0.000000e+00  0.000000e+00  1.000000e+00
   outer loop
     vertex  1.472147e+02  9.788197e+01  1.470000e+02
     vertex  1.471562e+02  9.781122e+01  1.470000e+02
     vertex  1.471982e+02  9.785599e+01  1.470000e+02
   endloop
 endfacet
 facet normal  0.000000e+00  0.000000e+00  1.000000e+00
   outer loop
     vertex  1.472373e+02  9.793907e+01  1.470000e+02
     vertex  1.472147e+02  9.788197e+01  1.470000e+02
     vertex  1.472278e+02  9.790981e+01  1.470000e+02
   endloop
 endfacet
 facet normal  0.000000e+00  0.000000e+00  1.000000e+00
   outer loop
     vertex  1.470757e+02  9.823301e+01  1.470000e+02
     vertex  1.470459e+02  9.824066e+01  1.470000e+02
     vertex  1.470154e+02  9.824452e+01  1.470000e+02
   endloop
 endfacet
 facet normal  0.000000e+00  0.000000e+00  1.000000e+00
   outer loop
     vertex  1.472278e+02  9.809019e+01  1.470000e+02
     vertex  1.472431e+02  9.803071e+01  1.470000e+02
     vertex  1.472373e+02  9.806093e+01  1.470000e+02
   endloop
 endfacet
 facet normal  0.000000e+00  0.000000e+00  1.000000e+00
   outer loop
     vertex  1.471562e+02  9.818878e+01  1.470000e+02
     vertex  1.471313e+02  9.820686e+01  1.470000e+02
     vertex  1.471043e+02  9.822168e+01  1.470000e+02
   endloop
 endfacet
 facet normal  0.000000e+00  0.000000e+00  1.000000e+00
   outer loop
     vertex  1.471562e+02  9.818878e+01  1.470000e+02
     vertex  1.471043e+02  9.822168e+01  1.470000e+02
     vertex  1.470757e+02  9.823301e+01  1.470000e+02
   endloop
 endfacet
 facet normal  0.000000e+00  0.000000e+00  1.000000e+00
   outer loop
     vertex  1.471562e+02  9.818878e+01  1.470000e+02
     vertex  1.470154e+02  9.824452e+01  1.470000e+02
     vertex  1.469846e+02  9.824452e+01  1.470000e+02
   endloop
 endfacet
 facet normal  0.000000e+00  0.000000e+00  1.000000e+00
   outer loop
     vertex  1.471562e+02  9.818878e+01  1.470000e+02
     vertex  1.469846e+02  9.824452e+01  1.470000e+02
     vertex  1.469541e+02  9.824066e+01  1.470000e+02
   endloop
 endfacet
 facet normal  0.000000e+00  0.000000e+00  1.000000e+00
   outer loop
     vertex  1.471562e+02  9.818878e+01  1.470000e+02
     vertex  1.469541e+02  9.824066e+01  1.470000e+02
     vertex  1.469243e+02  9.823301e+01  1.470000e+02
   endloop
 endfacet
 facet normal  0.000000e+00  0.000000e+00  1.000000e+00
   outer loop
     vertex  1.471562e+02  9.818878e+01  1.470000e+02
     vertex  1.469243e+02  9.823301e+01  1.470000e+02
     vertex  1.468957e+02  9.822168e+01  1.470000e+02
   endloop
 endfacet
 facet normal  0.000000e+00  0.000000e+00  1.000000e+00
   outer loop
     vertex  1.471562e+02  9.818878e+01  1.470000e+02
     vertex  1.468957e+02  9.822168e+01  1.470000e+02
     vertex  1.468687e+02  9.820686e+01  1.470000e+02
   endloop
 endfacet
 facet normal  0.000000e+00  0.000000e+00  1.000000e+00
   outer loop
     vertex  1.471562e+02  9.818878e+01  1.470000e+02
     vertex  1.468687e+02  9.820686e+01  1.470000e+02
     vertex  1.468438e+02  9.818878e+01  1.470000e+02
   endloop
 endfacet
 facet normal  0.000000e+00  0.000000e+00  1.000000e+00
   outer loop
     vertex  1.471562e+02  9.818878e+01  1.470000e+02
     vertex  1.468438e+02  9.818878e+01  1.470000e+02
     vertex  1.468214e+02  9.816771e+01  1.470000e+02
   endloop
 endfacet
 facet normal  0.000000e+00  0.000000e+00  1.000000e+00
   outer loop
     vertex  1.471562e+02  9.818878e+01  1.470000e+02
     vertex  1.468214e+02  9.816771e+01  1.470000e+02
     vertex  1.468018e+02  9.814401e+01  1.470000e+02
   endloop
 endfacet
 facet normal  0.000000e+00  0.000000e+00  1.000000e+00
   outer loop
     vertex  1.471562e+02  9.818878e+01  1.470000e+02
     vertex  1.468018e+02  9.814401e+01  1.470000e+02
     vertex  1.467853e+02  9.811803e+01  1.470000e+02
   endloop
 endfacet
 facet normal  0.000000e+00  0.000000e+00  1.000000e+00
   outer loop
     vertex  1.471562e+02  9.818878e+01  1.470000e+02
     vertex  1.467853e+02  9.811803e+01  1.470000e+02
     vertex  1.467722e+02  9.809019e+01  1.470000e+02
   endloop
 endfacet
 facet normal  0.000000e+00  0.000000e+00  1.000000e+00
   outer loop
     vertex  1.471562e+02  9.818878e+01  1.470000e+02
     vertex  1.467722e+02  9.809019e+01  1.470000e+02
     vertex  1.467627e+02  9.806093e+01  1.470000e+02
   endloop
 endfacet
 facet normal  0.000000e+00  0.000000e+00  1.000000e+00
   outer loop
     vertex  1.471562e+02  9.818878e+01  1.470000e+02
     vertex  1.467627e+02  9.806093e+01  1.470000e+02
     vertex  1.467569e+02  9.803071e+01  1.470000e+02
   endloop
 endfacet
 facet normal  0.000000e+00  0.000000e+00  1.000000e+00
   outer loop
     vertex  1.471562e+02  9.818878e+01  1.470000e+02
     vertex  1.467569e+02  9.803071e+01  1.470000e+02
     vertex  1.467550e+02  9.800000e+01  1.470000e+02
   endloop
 endfacet
 facet normal  0.000000e+00  0.000000e+00  1.000000e+00
   outer loop
     vertex  1.471562e+02  9.818878e+01  1.470000e+02
     vertex  1.467550e+02  9.800000e+01  1.470000e+02
     vertex  1.467569e+02  9.796929e+01  1.470000e+02
   endloop
 endfacet
 facet normal  0.000000e+00  0.000000e+00  1.000000e+00
   outer loop
     vertex  1.471562e+02  9.818878e+01  1.470000e+02
     vertex  1.467569e+02  9.796929e+01  1.470000e+02
     vertex  1.467627e+02  9.793907e+01  1.470000e+02
   endloop
 endfacet
 facet normal  0.000000e+00  0.000000e+00  1.000000e+00
   outer loop
     vertex  1.471562e+02  9.818878e+01  1.470000e+02
     vertex  1.467627e+02  9.793907e+01  1.470000e+02
     vertex  1.467722e+02  9.790981e+01  1.470000e+02
   endloop
 endfacet
 facet normal  0.000000e+00  0.000000e+00  1.000000e+00
   outer loop
     vertex  1.471562e+02  9.818878e+01  1.470000e+02
     vertex  1.467722e+02  9.790981e+01  1.470000e+02
     vertex  1.467853e+02  9.788197e+01  1.470000e+02
   endloop
 endfacet
 facet normal  0.000000e+00  0.000000e+00  1.000000e+00
   outer loop
     vertex  1.471562e+02  9.818878e+01  1.470000e+02
     vertex  1.467853e+02  9.788197e+01  1.470000e+02
     vertex  1.468018e+02  9.785599e+01  1.470000e+02
   endloop
 endfacet
 facet normal  0.000000e+00  0.000000e+00  1.000000e+00
   outer loop
     vertex  1.471562e+02  9.818878e+01  1.470000e+02
     vertex  1.468018e+02  9.785599e+01  1.470000e+02
     vertex  1.468214e+02  9.783229e+01  1.470000e+02
   endloop
 endfacet
 facet normal  0.000000e+00  0.000000e+00  1.000000e+00
   outer loop
     vertex  1.471562e+02  9.818878e+01  1.470000e+02
     vertex  1.468214e+02  9.783229e+01  1.470000e+02
     vertex  1.468438e+02  9.781122e+01  1.470000e+02
   endloop
 endfacet
 facet normal  0.000000e+00  0.000000e+00  1.000000e+00
   outer loop
     vertex  1.471562e+02  9.818878e+01  1.470000e+02
     vertex  1.468438e+02  9.781122e+01  1.470000e+02
     vertex  1.468687e+02  9.779314e+01  1.470000e+02
   endloop
 endfacet
 facet normal  0.000000e+00  0.000000e+00  1.000000e+00
   outer loop
     vertex  1.471562e+02  9.818878e+01  1.470000e+02
     vertex  1.468687e+02  9.779314e+01  1.470000e+02
     vertex  1.468957e+02  9.777832e+01  1.470000e+02
   endloop
 endfacet
 facet normal  0.000000e+00  0.000000e+00  1.000000e+00
   outer loop
     vertex  1.471562e+02  9.818878e+01  1.470000e+02
     vertex  1.470757e+02  9.823301e+01  1.470000e+02
     vertex  1.470154e+02  9.824452e+01  1.470000e+02
   endloop
 endfacet
 facet normal  0.000000e+00  0.000000e+00  1.000000e+00
   outer loop
     vertex  1.471786e+02  9.816771e+01  1.470000e+02
     vertex  1.472450e+02  9.800000e+01  1.470000e+02
     vertex  1.472431e+02  9.803071e+01  1.470000e+02
   endloop
 endfacet
 facet normal  0.000000e+00  0.000000e+00  1.000000e+00
   outer loop
     vertex  1.471786e+02  9.816771e+01  1.470000e+02
     vertex  1.472278e+02  9.809019e+01  1.470000e+02
     vertex  1.472147e+02  9.811803e+01  1.470000e+02
   endloop
 endfacet
 facet normal  0.000000e+00  0.000000e+00  1.000000e+00
   outer loop
     vertex  1.471786e+02  9.816771e+01  1.470000e+02
     vertex  1.472147e+02  9.811803e+01  1.470000e+02
     vertex  1.471982e+02  9.814401e+01  1.470000e+02
   endloop
 endfacet
 facet normal  0.000000e+00  0.000000e+00  1.000000e+00
   outer loop
     vertex  1.471786e+02  9.816771e+01  1.470000e+02
     vertex  1.471562e+02  9.781122e+01  1.470000e+02
     vertex  1.472147e+02  9.788197e+01  1.470000e+02
   endloop
 endfacet
 facet normal  0.000000e+00  0.000000e+00  1.000000e+00
   outer loop
     vertex  1.471786e+02  9.816771e+01  1.470000e+02
     vertex  1.472147e+02  9.788197e+01  1.470000e+02
     vertex  1.472373e+02  9.793907e+01  1.470000e+02
   endloop
 endfacet
 facet normal  0.000000e+00  0.000000e+00  1.000000e+00
   outer loop
     vertex  1.471786e+02  9.816771e+01  1.470000e+02
     vertex  1.471562e+02  9.818878e+01  1.470000e+02
     vertex  1.468957e+02  9.777832e+01  1.470000e+02
   endloop
 endfacet
 facet normal  0.000000e+00  0.000000e+00  1.000000e+00
   outer loop
     vertex  1.471786e+02  9.816771e+01  1.470000e+02
     vertex  1.468957e+02  9.777832e+01  1.470000e+02
     vertex  1.469243e+02  9.776699e+01  1.470000e+02
   endloop
 endfacet
 facet normal  0.000000e+00  0.000000e+00  1.000000e+00
   outer loop
     vertex  1.471786e+02  9.816771e+01  1.470000e+02
     vertex  1.469243e+02  9.776699e+01  1.470000e+02
     vertex  1.469541e+02  9.775934e+01  1.470000e+02
   endloop
 endfacet
 facet normal  0.000000e+00  0.000000e+00  1.000000e+00
   outer loop
     vertex  1.471786e+02  9.816771e+01  1.470000e+02
     vertex  1.469541e+02  9.775934e+01  1.470000e+02
     vertex  1.469846e+02  9.775548e+01  1.470000e+02
   endloop
 endfacet
 facet normal  0.000000e+00  0.000000e+00  1.000000e+00
   outer loop
     vertex  1.471786e+02  9.816771e+01  1.470000e+02
     vertex  1.469846e+02  9.775548e+01  1.470000e+02
     vertex  1.470154e+02  9.775548e+01  1.470000e+02
   endloop
 endfacet
 facet normal  0.000000e+00  0.000000e+00  1.000000e+00
   outer loop
     vertex  1.471786e+02  9.816771e+01  1.470000e+02
     vertex  1.470154e+02  9.775548e+01  1.470000e+02
     vertex  1.470459e+02  9.775934e+01  1.470000e+02
   endloop
 endfacet
 facet normal  0.000000e+00  0.000000e+00  1.000000e+00
   outer loop
     vertex  1.471786e+02  9.816771e+01  1.470000e+02
     vertex  1.470459e+02  9.775934e+01  1.470000e+02
     vertex  1.470757e+02  9.776699e+01  1.470000e+02
   endloop
 endfacet
 facet normal  0.000000e+00  0.000000e+00  1.000000e+00
   outer loop
     vertex  1.471786e+02  9.816771e+01  1.470000e+02
     vertex  1.470757e+02  9.776699e+01  1.470000e+02
     vertex  1.471043e+02  9.777832e+01  1.470000e+02
   endloop
 endfacet
 facet normal  0.000000e+00  0.000000e+00  1.000000e+00
   outer loop
     vertex  1.471786e+02  9.816771e+01  1.470000e+02
     vertex  1.472373e+02  9.793907e+01  1.470000e+02
     vertex  1.472431e+02  9.796929e+01  1.470000e+02
   endloop
 endfacet
 facet normal  0.000000e+00  0.000000e+00  1.000000e+00
   outer loop
     vertex  1.471786e+02  9.816771e+01  1.470000e+02
     vertex  1.472431e+02  9.796929e+01  1.470000e+02
     vertex  1.472450e+02  9.800000e+01  1.470000e+02
   endloop
 endfacet
 facet normal  0.000000e+00  0.000000e+00  1.000000e+00
   outer loop
     vertex  1.471786e+02  9.816771e+01  1.470000e+02
     vertex  1.472431e+02  9.803071e+01  1.470000e+02
     vertex  1.472278e+02  9.809019e+01  1.470000e+02
   endloop
 endfacet
 facet normal  0.000000e+00  0.000000e+00  1.000000e+00
   outer loop
     vertex  1.471786e+02  9.816771e+01  1.470000e+02
     vertex  1.471043e+02  9.777832e+01  1.470000e+02
     vertex  1.471562e+02  9.781122e+01  1.470000e+02
   endloop
 endfacet
 facet normal  0.000000e+00  0.000000e+00 -1.000000e+00
   outer loop
     vertex  1.471562e+02  9.781122e+01  1.465100e+02
     vertex  1.471313e+02  9.779314e+01  1.465100e+02
     vertex  1.471043e+02  9.777832e+01  1.465100e+02
   endloop
 endfacet
 facet normal  0.000000e+00  0.000000e+00 -1.000000e+00
   outer loop
     vertex  1.471982e+02  9.785599e+01  1.465100e+02
     vertex  1.471786e+02  9.783229e+01  1.465100e+02
     vertex  1.471562e+02  9.781122e+01  1.465100e+02
   endloop
 endfacet
 facet normal  0.000000e+00  0.000000e+00 -1.000000e+00
   outer loop
     vertex  1.472147e+02  9.788197e+01  1.465100e+02
     vertex  1.471982e+02  9.785599e+01  1.465100e+02
     vertex  1.471562e+02  9.781122e+01  1.465100e+02
   endloop
 endfacet
 facet normal  0.000000e+00  0.000000e+00 -1.000000e+00
   outer loop
     vertex  1.472373e+02  9.793907e+01  1.465100e+02
     vertex  1.472278e+02  9.790981e+01  1.465100e+02
     vertex  1.472147e+02  9.788197e+01  1.465100e+02
   endloop
 endfacet
 facet normal  0.000000e+00  0.000000e+00 -1.000000e+00
   outer loop
     vertex  1.470757e+02  9.823301e+01  1.465100e+02
     vertex  1.470154e+02  9.824452e+01  1.465100e+02
     vertex  1.470459e+02  9.824066e+01  1.465100e+02
   endloop
 endfacet
 facet normal  0.000000e+00  0.000000e+00 -1.000000e+00
   outer loop
     vertex  1.472278e+02  9.809019e+01  1.465100e+02
     vertex  1.472373e+02  9.806093e+01  1.465100e+02
     vertex  1.472431e+02  9.803071e+01  1.465100e+02
   endloop
 endfacet
 facet normal  0.000000e+00  0.000000e+00 -1.000000e+00
   outer loop
     vertex  1.471562e+02  9.818878e+01  1.465100e+02
     vertex  1.471043e+02  9.822168e+01  1.465100e+02
     vertex  1.471313e+02  9.820686e+01  1.465100e+02
   endloop
 endfacet
 facet normal  0.000000e+00  0.000000e+00 -1.000000e+00
   outer loop
     vertex  1.471562e+02  9.818878e+01  1.465100e+02
     vertex  1.470757e+02  9.823301e+01  1.465100e+02
     vertex  1.471043e+02  9.822168e+01  1.465100e+02
   endloop
 endfacet
 facet normal  0.000000e+00  0.000000e+00 -1.000000e+00
   outer loop
     vertex  1.471562e+02  9.818878e+01  1.465100e+02
     vertex  1.469846e+02  9.824452e+01  1.465100e+02
     vertex  1.470154e+02  9.824452e+01  1.465100e+02
   endloop
 endfacet
 facet normal  0.000000e+00  0.000000e+00 -1.000000e+00
   outer loop
     vertex  1.471562e+02  9.818878e+01  1.465100e+02
     vertex  1.469541e+02  9.824066e+01  1.465100e+02
     vertex  1.469846e+02  9.824452e+01  1.465100e+02
   endloop
 endfacet
 facet normal  0.000000e+00  0.000000e+00 -1.000000e+00
   outer loop
     vertex  1.471562e+02  9.818878e+01  1.465100e+02
     vertex  1.469243e+02  9.823301e+01  1.465100e+02
     vertex  1.469541e+02  9.824066e+01  1.465100e+02
   endloop
 endfacet
 facet normal  0.000000e+00  0.000000e+00 -1.000000e+00
   outer loop
     vertex  1.471562e+02  9.818878e+01  1.465100e+02
     vertex  1.468957e+02  9.822168e+01  1.465100e+02
     vertex  1.469243e+02  9.823301e+01  1.465100e+02
   endloop
 endfacet
 facet normal  0.000000e+00  0.000000e+00 -1.000000e+00
   outer loop
     vertex  1.471562e+02  9.818878e+01  1.465100e+02
     vertex  1.468687e+02  9.820686e+01  1.465100e+02
     vertex  1.468957e+02  9.822168e+01  1.465100e+02
   endloop
 endfacet
 facet normal  0.000000e+00  0.000000e+00 -1.000000e+00
   outer loop
     vertex  1.471562e+02  9.818878e+01  1.465100e+02
     vertex  1.468438e+02  9.818878e+01  1.465100e+02
     vertex  1.468687e+02  9.820686e+01  1.465100e+02
   endloop
 endfacet
 facet normal -0.000000e+00  0.000000e+00 -1.000000e+00
   outer loop
     vertex  1.471562e+02  9.818878e+01  1.465100e+02
     vertex  1.468214e+02  9.816771e+01  1.465100e+02
     vertex  1.468438e+02  9.818878e+01  1.465100e+02
   endloop
 endfacet
 facet normal  0.000000e+00  0.000000e+00 -1.000000e+00
   outer loop
     vertex  1.471562e+02  9.818878e+01  1.465100e+02
     vertex  1.468018e+02  9.814401e+01  1.465100e+02
     vertex  1.468214e+02  9.816771e+01  1.465100e+02
   endloop
 endfacet
 facet normal  0.000000e+00  0.000000e+00 -1.000000e+00
   outer loop
     vertex  1.471562e+02  9.818878e+01  1.465100e+02
     vertex  1.467853e+02  9.811803e+01  1.465100e+02
     vertex  1.468018e+02  9.814401e+01  1.465100e+02
   endloop
 endfacet
 facet normal  0.000000e+00  0.000000e+00 -1.000000e+00
   outer loop
     vertex  1.471562e+02  9.818878e+01  1.465100e+02
     vertex  1.467722e+02  9.809019e+01  1.465100e+02
     vertex  1.467853e+02  9.811803e+01  1.465100e+02
   endloop
 endfacet
 facet normal  0.000000e+00  0.000000e+00 -1.000000e+00
   outer loop
     vertex  1.471562e+02  9.818878e+01  1.465100e+02
     vertex  1.467627e+02  9.806093e+01  1.465100e+02
     vertex  1.467722e+02  9.809019e+01  1.465100e+02
   endloop
 endfacet
 facet normal  0.000000e+00  0.000000e+00 -1.000000e+00
   outer loop
     vertex  1.471562e+02  9.818878e+01  1.465100e+02
     vertex  1.467569e+02  9.803071e+01  1.465100e+02
     vertex  1.467627e+02  9.806093e+01  1.465100e+02
   endloop
 endfacet
 facet normal  0.000000e+00  0.000000e+00 -1.000000e+00
   outer loop
     vertex  1.471562e+02  9.818878e+01  1.465100e+02
     vertex  1.467550e+02  9.800000e+01  1.465100e+02
     vertex  1.467569e+02  9.803071e+01  1.465100e+02
   endloop
 endfacet
 facet normal  0.000000e+00  0.000000e+00 -1.000000e+00
   outer loop
     vertex  1.471562e+02  9.818878e+01  1.465100e+02
     vertex  1.467569e+02  9.796929e+01  1.465100e+02
     vertex  1.467550e+02  9.800000e+01  1.465100e+02
   endloop
 endfacet
 facet normal  0.000000e+00  0.000000e+00 -1.000000e+00
   outer loop
     vertex  1.471562e+02  9.818878e+01  1.465100e+02
     vertex  1.467627e+02  9.793907e+01  1.465100e+02
     vertex  1.467569e+02  9.796929e+01  1.465100e+02
   endloop
 endfacet
 facet normal  0.000000e+00  0.000000e+00 -1.000000e+00
   outer loop
     vertex  1.471562e+02  9.818878e+01  1.465100e+02
     vertex  1.467722e+02  9.790981e+01  1.465100e+02
     vertex  1.467627e+02  9.793907e+01  1.465100e+02
   endloop
 endfacet
 facet normal  0.000000e+00  0.000000e+00 -1.000000e+00
   outer loop
     vertex  1.471562e+02  9.818878e+01  1.465100e+02
     vertex  1.467853e+02  9.788197e+01  1.465100e+02
     vertex  1.467722e+02  9.790981e+01  1.465100e+02
   endloop
 endfacet
 facet normal  0.000000e+00  0.000000e+00 -1.000000e+00
   outer loop
     vertex  1.471562e+02  9.818878e+01  1.465100e+02
     vertex  1.468018e+02  9.785599e+01  1.465100e+02
     vertex  1.467853e+02  9.788197e+01  1.465100e+02
   endloop
 endfacet
 facet normal  0.000000e+00  0.000000e+00 -1.000000e+00
   outer loop
     vertex  1.471562e+02  9.818878e+01  1.465100e+02
     vertex  1.468214e+02  9.783229e+01  1.465100e+02
     vertex  1.468018e+02  9.785599e+01  1.465100e+02
   endloop
 endfacet
 facet normal  0.000000e+00  0.000000e+00 -1.000000e+00
   outer loop
     vertex  1.471562e+02  9.818878e+01  1.465100e+02
     vertex  1.468438e+02  9.781122e+01  1.465100e+02
     vertex  1.468214e+02  9.783229e+01  1.465100e+02
   endloop
 endfacet
 facet normal  0.000000e+00  0.000000e+00 -1.000000e+00
   outer loop
     vertex  1.471562e+02  9.818878e+01  1.465100e+02
     vertex  1.468687e+02  9.779314e+01  1.465100e+02
     vertex  1.468438e+02  9.781122e+01  1.465100e+02
   endloop
 endfacet
 facet normal  0.000000e+00  0.000000e+00 -1.000000e+00
   outer loop
     vertex  1.471562e+02  9.818878e+01  1.465100e+02
     vertex  1.468957e+02  9.777832e+01  1.465100e+02
     vertex  1.468687e+02  9.779314e+01  1.465100e+02
   endloop
 endfacet
 facet normal  0.000000e+00  0.000000e+00 -1.000000e+00
   outer loop
     vertex  1.471562e+02  9.818878e+01  1.465100e+02
     vertex  1.470154e+02  9.824452e+01  1.465100e+02
     vertex  1.470757e+02  9.823301e+01  1.465100e+02
   endloop
 endfacet
 facet normal  0.000000e+00  0.000000e+00 -1.000000e+00
   outer loop
     vertex  1.471786e+02  9.816771e+01  1.465100e+02
     vertex  1.472431e+02  9.803071e+01  1.465100e+02
     vertex  1.472450e+02  9.800000e+01  1.465100e+02
   endloop
 endfacet
 facet normal  0.000000e+00  0.000000e+00 -1.000000e+00
   outer loop
     vertex  1.471786e+02  9.816771e+01  1.465100e+02
     vertex  1.472147e+02  9.811803e+01  1.465100e+02
     vertex  1.472278e+02  9.809019e+01  1.465100e+02
   endloop
 endfacet
 facet normal  0.000000e+00  0.000000e+00 -1.000000e+00
   outer loop
     vertex  1.471786e+02  9.816771e+01  1.465100e+02
     vertex  1.471982e+02  9.814401e+01  1.465100e+02
     vertex  1.472147e+02  9.811803e+01  1.465100e+02
   endloop
 endfacet
 facet normal  0.000000e+00 -0.000000e+00 -1.000000e+00
   outer loop
     vertex  1.471786e+02  9.816771e+01  1.465100e+02
     vertex  1.472147e+02  9.788197e+01  1.465100e+02
     vertex  1.471562e+02  9.781122e+01  1.465100e+02
   endloop
 endfacet
 facet normal  0.000000e+00  0.000000e+00 -1.000000e+00
   outer loop
     vertex  1.471786e+02  9.816771e+01  1.465100e+02
     vertex  1.472373e+02  9.793907e+01  1.465100e+02
     vertex  1.472147e+02  9.788197e+01  1.465100e+02
   endloop
 endfacet
 facet normal -0.000000e+00  0.000000e+00 -1.000000e+00
   outer loop
     vertex  1.471786e+02  9.816771e+01  1.465100e+02
     vertex  1.468957e+02  9.777832e+01  1.465100e+02
     vertex  1.471562e+02  9.818878e+01  1.465100e+02
   endloop
 endfacet
 facet normal  0.000000e+00  0.000000e+00 -1.000000e+00
   outer loop
     vertex  1.471786e+02  9.816771e+01  1.465100e+02
     vertex  1.469243e+02  9.776699e+01  1.465100e+02
     vertex  1.468957e+02  9.777832e+01  1.465100e+02
   endloop
 endfacet
 facet normal  0.000000e+00  0.000000e+00 -1.000000e+00
   outer loop
     vertex  1.471786e+02  9.816771e+01  1.465100e+02
     vertex  1.469541e+02  9.775934e+01  1.465100e+02
     vertex  1.469243e+02  9.776699e+01  1.465100e+02
   endloop
 endfacet
 facet normal  0.000000e+00  0.000000e+00 -1.000000e+00
   outer loop
     vertex  1.471786e+02  9.816771e+01  1.465100e+02
     vertex  1.469846e+02  9.775548e+01  1.465100e+02
     vertex  1.469541e+02  9.775934e+01  1.465100e+02
   endloop
 endfacet
 facet normal  0.000000e+00  0.000000e+00 -1.000000e+00
   outer loop
     vertex  1.471786e+02  9.816771e+01  1.465100e+02
     vertex  1.470154e+02  9.775548e+01  1.465100e+02
     vertex  1.469846e+02  9.775548e+01  1.465100e+02
   endloop
 endfacet
 facet normal  0.000000e+00  0.000000e+00 -1.000000e+00
   outer loop
     vertex  1.471786e+02  9.816771e+01  1.465100e+02
     vertex  1.470459e+02  9.775934e+01  1.465100e+02
     vertex  1.470154e+02  9.775548e+01  1.465100e+02
   endloop
 endfacet
 facet normal  0.000000e+00  0.000000e+00 -1.000000e+00
   outer loop
     vertex  1.471786e+02  9.816771e+01  1.465100e+02
     vertex  1.470757e+02  9.776699e+01  1.465100e+02
     vertex  1.470459e+02  9.775934e+01  1.465100e+02
   endloop
 endfacet
 facet normal  0.000000e+00  0.000000e+00 -1.000000e+00
   outer loop
     vertex  1.471786e+02  9.816771e+01  1.465100e+02
     vertex  1.471043e+02  9.777832e+01  1.465100e+02
     vertex  1.470757e+02  9.776699e+01  1.465100e+02
   endloop
 endfacet
 facet normal  0.000000e+00  0.000000e+00 -1.000000e+00
   outer loop
     vertex  1.471786e+02  9.816771e+01  1.465100e+02
     vertex  1.472431e+02  9.796929e+01  1.465100e+02
     vertex  1.472373e+02  9.793907e+01  1.465100e+02
   endloop
 endfacet
 facet normal  0.000000e+00  0.000000e+00 -1.000000e+00
   outer loop
     vertex  1.471786e+02  9.816771e+01  1.465100e+02
     vertex  1.472450e+02  9.800000e+01  1.465100e+02
     vertex  1.472431e+02  9.796929e+01  1.465100e+02
   endloop
 endfacet
 facet normal  0.000000e+00  0.000000e+00 -1.000000e+00
   outer loop
     vertex  1.471786e+02  9.816771e+01  1.465100e+02
     vertex  1.472278e+02  9.809019e+01  1.465100e+02
     vertex  1.472431e+02  9.803071e+01  1.465100e+02
   endloop
 endfacet
 facet normal  0.000000e+00  0.000000e+00 -1.000000e+00
   outer loop
     vertex  1.471786e+02  9.816771e+01  1.465100e+02
     vertex  1.471562e+02  9.781122e+01  1.465100e+02
     vertex  1.471043e+02  9.777832e+01  1.465100e+02
   endloop
 endfacet
 facet normal  0.000000e+00 -1.000000e+00  0.000000e+00
   outer loop
     vertex  9.800000e-01  0.000000e+00  0.000000e+00
     vertex  0.000000e+00  0.000000e+00  7.350000e-01
     vertex  0.000000e+00  0.000000e+00  0.000000e+00
   endloop
 endfacet
 facet normal  0.000000e+00 -1.000000e+00  0.000000e+00
   outer loop
     vertex  9.800000e-01  0.000000e+00  0.000000e+00
     vertex  9.800000e-01  0.000000e+00  7.350000e-01
     vertex  0.000000e+00  0.000000e+00  7.350000e-01
   endloop
 endfacet
 facet normal -1.000000e+00  0.000000e+00  0.000000e+00
   outer loop
     vertex  0.000000e+00  9.800000e-01  0.000000e+00
     vertex  0.000000e+00  0.000000e+00  0.000000e+00
     vertex  0.000000e+00  0.000000e+00  7.350000e-01
   endloop
 endfacet
 facet normal -1.000000e+00  0.000000e+00  0.000000e+00
   outer loop
     vertex  0.000000e+00  9.800000e-01  0.000000e+00
     vertex  0.000000e+00  0.000000e+00  7.350000e-01
     vertex  0.000000e+00  9.800000e-01  7.350000e-01
   endloop
 endfacet
 facet normal  1.000000e+00  0.000000e+00  0.000000e+00
   outer loop
     vertex  9.800000e-01  9.800000e-01  0.000000e+00
     vertex  9.800000e-01  0.000000e+00  7.350000e-01
     vertex  9.800000e-01  0.000000e+00  0.000000e+00
   endloop
 endfacet
 facet normal  1.000000e+00  0.000000e+00 -0.000000e+00
   outer loop
     vertex  9.800000e-01  9.800000e-01  0.000000e+00
     vertex  9.800000e-01  9.800000e-01  7.350000e-01
     vertex  9.800000e-01  0.000000e+00  7.350000e-01
   endloop
 endfacet
 facet normal  0.000000e+00  1.000000e+00  0.000000e+00
   outer loop
     vertex  9.800000e-01  9.800000e-01  0.000000e+00
     vertex  0.000000e+00  9.800000e-01  0.000000e+00
     vertex  0.000000e+00  9.800000e-01  7.350000e-01
   endloop
 endfacet
 facet normal  0.000000e+00  1.000000e+00 -0.000000e+00
   outer loop
     vertex  9.800000e-01  9.800000e-01  0.000000e+00
     vertex  0.000000e+00  9.800000e-01  7.350000e-01
     vertex  9.800000e-01  9.800000e-01  7.350000e-01
   endloop
 endfacet
 facet normal  1.000000e+00  0.000000e+00  0.000000e+00
   outer loop
     vertex  2.450000e-01  2.450000e-01  0.000000e+00
     vertex  2.450000e-01  7.350000e-01  0.000000e+00
     vertex  2.450000e-01  7.350000e-01  7.350000e-01
   endloop
 endfacet
 facet normal  1.000000e+00  0.000000e+00  0.000000e+00
   outer loop
     vertex  2.450000e-01  2.450000e-01  0.000000e+00
     vertex  2.450000e-01  7.350000e-01  7.350000e-01
     vertex  2.450000e-01  2.450000e-01  7.350000e-01
   endloop
 endfacet
 facet normal  0.000000e+00  1.000000e+00  0.000000e+00
   outer loop
     vertex  7.350000e-01  2.450000e-01  0.000000e+00
     vertex  2.450000e-01  2.450000e-01  0.000000e+00
     vertex  2.450000e-01  2.450000e-01  7.350000e-01
   endloop
 endfacet
 facet normal  0.000000e+00  1.000000e+00 -0.000000e+00
   outer loop
     vertex  7.350000e-01  2.450000e-01  0.000000e+00
     vertex  2.450000e-01  2.450000e-01  7.350000e-01
     vertex  7.350000e-01  2.450000e-01  7.350000e-01
   endloop
 endfacet
 facet normal -1.000000e+00  0.000000e+00  0.000000e+00
   outer loop
     vertex  7.350000e-01  2.450000e-01  0.000000e+00
     vertex  7.350000e-01  7.350000e-01  7.350000e-01
     vertex  7.350000e-01  7.350000e-01  0.000000e+00
   endloop
 endfacet
 facet normal -1.000000e+00  0.000000e+00  0.000000e+00
   outer loop
     vertex  7.350000e-01  2.450000e-01  0.000000e+00
     vertex  7.350000e-01  2.450000e-01  7.350000e-01
     vertex  7.350000e-01  7.350000e-01  7.350000e-01
   endloop
 endfacet
 facet normal  0.000000e+00 -1.000000e+00  0.000000e+00
   outer loop
     vertex  7.350000e-01  7.350000e-01  0.000000e+00
     vertex  2.450000e-01  7.350000e-01  7.350000e-01
     vertex  2.450000e-01  7.350000e-01  0.000000e+00
   endloop
 endfacet
 facet normal  0.000000e+00 -1.000000e+00  0.000000e+00
   outer loop
     vertex  7.350000e-01  7.350000e-01  0.000000e+00
     vertex  7.350000e-01  7.350000e-01  7.350000e-01
     vertex  2.450000e-01  7.350000e-01  7.350000e-01
   endloop
 endfacet
 facet normal  0.000000e+00  0.000000e+00 -1.000000e+00
   outer loop
     vertex  9.800000e-01  0.000000e+00  0.000000e+00
     vertex  2.450000e-01  2.450000e-01  0.000000e+00
     vertex  7.350000e-01  2.450000e-01  0.000000e+00
   endloop
 endfacet
 facet normal  0.000000e+00  0.000000e+00 -1.000000e+00
   outer loop
     vertex  9.800000e-01  0.000000e+00  0.000000e+00
     vertex  0.000000e+00  0.000000e+00  0.000000e+00
     vertex  2.450000e-01  2.450000e-01  0.000000e+00
   endloop
 endfacet
 facet normal  0.000000e+00  0.000000e+00 -1.000000e+00
   outer loop
     vertex  0.000000e+00  9.800000e-01  0.000000e+00
     vertex  2.450000e-01  7.350000e-01  0.000000e+00
     vertex  2.450000e-01  2.450000e-01  0.000000e+00
   endloop
 endfacet
 facet normal  0.000000e+00  0.000000e+00 -1.000000e+00
   outer loop
     vertex  0.000000e+00  9.800000e-01  0.000000e+00
     vertex  2.450000e-01  2.450000e-01  0.000000e+00
     vertex  0.000000e+00  0.000000e+00  0.000000e+00
   endloop
 endfacet
 facet normal  0.000000e+00  0.000000e+00 -1.000000e+00
   outer loop
     vertex  9.800000e-01  9.800000e-01  0.000000e+00
     vertex  7.350000e-01  7.350000e-01  0.000000e+00
     vertex  2.450000e-01  7.350000e-01  0.000000e+00
   endloop
 endfacet
 facet normal  0.000000e+00  0.000000e+00 -1.000000e+00
   outer loop
     vertex  9.800000e-01  9.800000e-01  0.000000e+00
     vertex  7.350000e-01  2.450000e-01  0.000000e+00
     vertex  7.350000e-01  7.350000e-01  0.000000e+00
   endloop
 endfacet
 facet normal  0.000000e+00 -0.000000e+00 -1.000000e+00
   outer loop
     vertex  9.800000e-01  9.800000e-01  0.000000e+00
     vertex  9.800000e-01  0.000000e+00  0.000000e+00
     vertex  7.350000e-01  2.450000e-01  0.000000e+00
   endloop
 endfacet
 facet normal -0.000000e+00  0.000000e+00 -1.000000e+00
   outer loop
     vertex  9.800000e-01  9.800000e-01  0.000000e+00
     vertex  2.450000e-01  7.350000e-01  0.000000e+00
     vertex  0.000000e+00  9.800000e-01  0.000000e+00
   endloop
 endfacet
 facet normal  0.000000e+00  0.000000e+00  1.000000e+00
   outer loop
     vertex  9.800000e-01  0.000000e+00  7.350000e-01
     vertex  7.350000e-01  2.450000e-01  7.350000e-01
     vertex  2.450000e-01  2.450000e-01  7.350000e-01
   endloop
 endfacet
 facet normal  0.000000e+00  0.000000e+00  1.000000e+00
   outer loop
     vertex  9.800000e-01  0.000000e+00  7.350000e-01
     vertex  2.450000e-01  2.450000e-01  7.350000e-01
     vertex  0.000000e+00  0.000000e+00  7.350000e-01
   endloop
 endfacet
 facet normal  0.000000e+00  0.000000e+00  1.000000e+00
   outer loop
     vertex  0.000000e+00  9.800000e-01  7.350000e-01
     vertex  2.450000e-01  2.450000e-01  7.350000e-01
     vertex  2.450000e-01  7.350000e-01  7.350000e-01
   endloop
 endfacet
 facet normal  0.000000e+00  0.000000e+00  1.000000e+00
   outer loop
     vertex  0.000000e+00  9.800000e-01  7.350000e-01
     vertex  0.000000e+00  0.000000e+00  7.350000e-01
     vertex  2.450000e-01  2.450000e-01  7.350000e-01
   endloop
 endfacet
 facet normal  0.000000e+00  0.000000e+00  1.000000e+00
   outer loop
     vertex  9.800000e-01  9.800000e-01  7.350000e-01
     vertex  2.450000e-01  7.350000e-01  7.350000e-01
     vertex  7.350000e-01  7.350000e-01  7.350000e-01
   endloop
 endfacet
 facet normal  0.000000e+00  0.000000e+00  1.000000e+00
   outer loop
     vertex  9.800000e-01  9.800000e-01  7.350000e-01
     vertex  7.350000e-01  7.350000e-01  7.350000e-01
     vertex  7.350000e-01  2.450000e-01  7.350000e-01
   endloop
 endfacet
 facet normal  0.000000e+00  0.000000e+00  1.000000e+00
   outer loop
     vertex  9.800000e-01  9.800000e-01  7.350000e-01
     vertex  7.350000e-01  2.450000e-01  7.350000e-01
     vertex  9.800000e-01  0.000000e+00  7.350000e-01
   endloop
 endfacet
 facet normal  0.000000e+00  0.000000e+00  1.000000e+00
   outer loop
     vertex  9.800000e-01  9.800000e-01  7.350000e-01
     vertex  0.000000e+00  9.800000e-01  7.350000e-01
     vertex  2.450000e-01  7.350000e-01  7.350000e-01
   endloop
 endfacet
endsolid
