solid 
 facet normal  9.979454e-01  6.407022e-02  0.000000e+00
   outer loop
     vertex  2.380296e-01  3.069052e-02  0.000000e+00
     vertex  2.400000e-01  0.000000e+00  1.000000e+00
     vertex  2.400000e-01  0.000000e+00  0.000000e+00
   endloop
 endfacet
 facet normal  9.979454e-01  6.407022e-02 -0.000000e+00
   outer loop
     vertex  2.380296e-01  3.069052e-02  0.000000e+00
     vertex  2.380296e-01  3.069052e-02  1.000000e+00
     vertex  2.400000e-01  0.000000e+00  1.000000e+00
   endloop
 endfacet
 facet normal  9.815592e-01  1.911586e-01 -0.000000e+00
   outer loop
     vertex  2.321508e-01  6.087710e-02  0.000000e+00
     vertex  2.321508e-01  6.087710e-02  1.000000e+00
     vertex  2.380296e-01  3.069052e-02  1.000000e+00
   endloop
 endfacet
 facet normal  9.815592e-01  1.911586e-01  0.000000e+00
   outer loop
     vertex  2.321508e-01  6.087710e-02  0.000000e+00
     vertex  2.380296e-01  3.069052e-02  1.000000e+00
     vertex  2.380296e-01  3.069052e-02  0.000000e+00
   endloop
 endfacet
 facet normal  9.490557e-01  3.151082e-01 -0.000000e+00
   outer loop
     vertex  2.224600e-01  9.006408e-02  0.000000e+00
     vertex  2.224600e-01  9.006408e-02  1.000000e+00
     vertex  2.321508e-01  6.087710e-02  1.000000e+00
   endloop
 endfacet
 facet normal  9.490557e-01  3.151082e-01  0.000000e+00
   outer loop
     vertex  2.224600e-01  9.006408e-02  0.000000e+00
     vertex  2.321508e-01  6.087710e-02  1.000000e+00
     vertex  2.321508e-01  6.087710e-02  0.000000e+00
   endloop
 endfacet
 facet normal  9.009689e-01  4.338837e-01 -0.000000e+00
   outer loop
     vertex  2.091165e-01  1.177722e-01  0.000000e+00
     vertex  2.091165e-01  1.177722e-01  1.000000e+00
     vertex  2.224600e-01  9.006408e-02  1.000000e+00
   endloop
 endfacet
 facet normal  9.009689e-01  4.338837e-01  0.000000e+00
   outer loop
     vertex  2.091165e-01  1.177722e-01  0.000000e+00
     vertex  2.224600e-01  9.006408e-02  1.000000e+00
     vertex  2.224600e-01  9.006408e-02  0.000000e+00
   endloop
 endfacet
 facet normal  8.380881e-01  5.455349e-01 -0.000000e+00
   outer loop
     vertex  1.923393e-01  1.435465e-01  0.000000e+00
     vertex  1.923393e-01  1.435465e-01  1.000000e+00
     vertex  2.091165e-01  1.177722e-01  1.000000e+00
   endloop
 endfacet
 facet normal  8.380881e-01  5.455349e-01  0.000000e+00
   outer loop
     vertex  1.923393e-01  1.435465e-01  0.000000e+00
     vertex  2.091165e-01  1.177722e-01  1.000000e+00
     vertex  2.091165e-01  1.177722e-01  0.000000e+00
   endloop
 endfacet
 facet normal  7.614460e-01  6.482284e-01 -0.000000e+00
   outer loop
     vertex  1.724038e-01  1.669638e-01  0.000000e+00
     vertex  1.724038e-01  1.669638e-01  1.000000e+00
     vertex  1.923393e-01  1.435465e-01  1.000000e+00
   endloop
 endfacet
 facet normal  7.614460e-01  6.482284e-01  0.000000e+00
   outer loop
     vertex  1.724038e-01  1.669638e-01  0.000000e+00
     vertex  1.923393e-01  1.435465e-01  1.000000e+00
     vertex  1.923393e-01  1.435465e-01  0.000000e+00
   endloop
 endfacet
 facet normal  6.723009e-01  7.402780e-01 -0.000000e+00
   outer loop
     vertex  1.496376e-01  1.876396e-01  0.000000e+00
     vertex  1.496376e-01  1.876396e-01  1.000000e+00
     vertex  1.724038e-01  1.669638e-01  1.000000e+00
   endloop
 endfacet
 facet normal  6.723009e-01  7.402780e-01  0.000000e+00
   outer loop
     vertex  1.496376e-01  1.876396e-01  0.000000e+00
     vertex  1.724038e-01  1.669638e-01  1.000000e+00
     vertex  1.724038e-01  1.669638e-01  0.000000e+00
   endloop
 endfacet
 facet normal  5.721167e-01  8.201723e-01 -0.000000e+00
   outer loop
     vertex  1.244142e-01  2.052343e-01  0.000000e+00
     vertex  1.244142e-01  2.052343e-01  1.000000e+00
     vertex  1.496376e-01  1.876396e-01  1.000000e+00
   endloop
 endfacet
 facet normal  5.721167e-01  8.201723e-01  0.000000e+00
   outer loop
     vertex  1.244142e-01  2.052343e-01  0.000000e+00
     vertex  1.496376e-01  1.876396e-01  1.000000e+00
     vertex  1.496376e-01  1.876396e-01  0.000000e+00
   endloop
 endfacet
 facet normal  4.625383e-01  8.865993e-01 -0.000000e+00
   outer loop
     vertex  9.714800e-02  2.194590e-01  0.000000e+00
     vertex  9.714800e-02  2.194590e-01  1.000000e+00
     vertex  1.244142e-01  2.052343e-01  1.000000e+00
   endloop
 endfacet
 facet normal  4.625383e-01  8.865993e-01  0.000000e+00
   outer loop
     vertex  9.714800e-02  2.194590e-01  0.000000e+00
     vertex  1.244142e-01  2.052343e-01  1.000000e+00
     vertex  1.244142e-01  2.052343e-01  0.000000e+00
   endloop
 endfacet
 facet normal  3.453651e-01  9.384684e-01 -0.000000e+00
   outer loop
     vertex  6.828662e-02  2.300803e-01  0.000000e+00
     vertex  6.828662e-02  2.300803e-01  1.000000e+00
     vertex  9.714800e-02  2.194590e-01  1.000000e+00
   endloop
 endfacet
 facet normal  3.453651e-01  9.384684e-01  0.000000e+00
   outer loop
     vertex  6.828662e-02  2.300803e-01  0.000000e+00
     vertex  9.714800e-02  2.194590e-01  1.000000e+00
     vertex  9.714800e-02  2.194590e-01  0.000000e+00
   endloop
 endfacet
 facet normal  2.225209e-01  9.749279e-01 -0.000000e+00
   outer loop
     vertex  3.830397e-02  2.369236e-01  0.000000e+00
     vertex  3.830397e-02  2.369236e-01  1.000000e+00
     vertex  6.828662e-02  2.300803e-01  1.000000e+00
   endloop
 endfacet
 facet normal  2.225209e-01  9.749279e-01  0.000000e+00
   outer loop
     vertex  3.830397e-02  2.369236e-01  0.000000e+00
     vertex  6.828662e-02  2.300803e-01  1.000000e+00
     vertex  6.828662e-02  2.300803e-01  0.000000e+00
   endloop
 endfacet
 facet normal  9.602303e-02  9.953791e-01 -0.000000e+00
   outer loop
     vertex  7.692379e-03  2.398767e-01  0.000000e+00
     vertex  7.692379e-03  2.398767e-01  1.000000e+00
     vertex  3.830397e-02  2.369236e-01  1.000000e+00
   endloop
 endfacet
 facet normal  9.602303e-02  9.953791e-01  0.000000e+00
   outer loop
     vertex  7.692379e-03  2.398767e-01  0.000000e+00
     vertex  3.830397e-02  2.369236e-01  1.000000e+00
     vertex  3.830397e-02  2.369236e-01  0.000000e+00
   endloop
 endfacet
 facet normal -3.205158e-02  9.994862e-01  0.000000e+00
   outer loop
     vertex -2.304553e-02  2.388910e-01  0.000000e+00
     vertex -2.304553e-02  2.388910e-01  1.000000e+00
     vertex  7.692379e-03  2.398767e-01  1.000000e+00
   endloop
 endfacet
 facet normal -3.205158e-02  9.994862e-01  0.000000e+00
   outer loop
     vertex -2.304553e-02  2.388910e-01  0.000000e+00
     vertex  7.692379e-03  2.398767e-01  1.000000e+00
     vertex  7.692379e-03  2.398767e-01  0.000000e+00
   endloop
 endfacet
 facet normal -1.595999e-01  9.871818e-01  0.000000e+00
   outer loop
     vertex -5.340502e-02  2.339827e-01  0.000000e+00
     vertex -5.340502e-02  2.339827e-01  1.000000e+00
     vertex -2.304553e-02  2.388910e-01  1.000000e+00
   endloop
 endfacet
 facet normal -1.595999e-01  9.871818e-01  0.000000e+00
   outer loop
     vertex -5.340502e-02  2.339827e-01  0.000000e+00
     vertex -2.304553e-02  2.388910e-01  1.000000e+00
     vertex -2.304553e-02  2.388910e-01  0.000000e+00
   endloop
 endfacet
 facet normal -2.845276e-01  9.586679e-01  0.000000e+00
   outer loop
     vertex -8.288761e-02  2.252324e-01  0.000000e+00
     vertex -8.288761e-02  2.252324e-01  1.000000e+00
     vertex -5.340502e-02  2.339827e-01  1.000000e+00
   endloop
 endfacet
 facet normal -2.845276e-01  9.586679e-01  0.000000e+00
   outer loop
     vertex -8.288761e-02  2.252324e-01  0.000000e+00
     vertex -5.340502e-02  2.339827e-01  1.000000e+00
     vertex -5.340502e-02  2.339827e-01  0.000000e+00
   endloop
 endfacet
 facet normal -4.047833e-01  9.144126e-01  0.000000e+00
   outer loop
     vertex -1.110092e-01  2.127838e-01  0.000000e+00
     vertex -1.110092e-01  2.127838e-01  1.000000e+00
     vertex -8.288761e-02  2.252324e-01  1.000000e+00
   endloop
 endfacet
 facet normal -4.047833e-01  9.144126e-01  0.000000e+00
   outer loop
     vertex -1.110092e-01  2.127838e-01  0.000000e+00
     vertex -8.288761e-02  2.252324e-01  1.000000e+00
     vertex -8.288761e-02  2.252324e-01  0.000000e+00
   endloop
 endfacet
 facet normal -5.183926e-01  8.551428e-01  0.000000e+00
   outer loop
     vertex -1.373080e-01  1.968413e-01  0.000000e+00
     vertex -1.373080e-01  1.968413e-01  1.000000e+00
     vertex -1.110092e-01  2.127838e-01  1.000000e+00
   endloop
 endfacet
 facet normal -5.183926e-01  8.551428e-01  0.000000e+00
   outer loop
     vertex -1.373080e-01  1.968413e-01  0.000000e+00
     vertex -1.110092e-01  2.127838e-01  1.000000e+00
     vertex -1.110092e-01  2.127838e-01  0.000000e+00
   endloop
 endfacet
 facet normal -6.234898e-01  7.818315e-01  0.000000e+00
   outer loop
     vertex -1.613522e-01  1.776667e-01  0.000000e+00
     vertex -1.613522e-01  1.776667e-01  1.000000e+00
     vertex -1.373080e-01  1.968413e-01  1.000000e+00
   endloop
 endfacet
 facet normal -6.234898e-01  7.818315e-01  0.000000e+00
   outer loop
     vertex -1.613522e-01  1.776667e-01  0.000000e+00
     vertex -1.373080e-01  1.968413e-01  1.000000e+00
     vertex -1.373080e-01  1.968413e-01  0.000000e+00
   endloop
 endfacet
 facet normal -7.183494e-01  6.956826e-01  0.000000e+00
   outer loop
     vertex -1.827470e-01  1.555748e-01  0.000000e+00
     vertex -1.827470e-01  1.555748e-01  1.000000e+00
     vertex -1.613522e-01  1.776667e-01  1.000000e+00
   endloop
 endfacet
 facet normal -7.183494e-01  6.956826e-01  0.000000e+00
   outer loop
     vertex -1.827470e-01  1.555748e-01  0.000000e+00
     vertex -1.613522e-01  1.776667e-01  1.000000e+00
     vertex -1.613522e-01  1.776667e-01  0.000000e+00
   endloop
 endfacet
 facet normal -8.014136e-01  5.981105e-01  0.000000e+00
   outer loop
     vertex -2.011411e-01  1.309284e-01  0.000000e+00
     vertex -2.011411e-01  1.309284e-01  1.000000e+00
     vertex -1.827470e-01  1.555748e-01  1.000000e+00
   endloop
 endfacet
 facet normal -8.014136e-01  5.981105e-01  0.000000e+00
   outer loop
     vertex -2.011411e-01  1.309284e-01  0.000000e+00
     vertex -1.827470e-01  1.555748e-01  1.000000e+00
     vertex -1.827470e-01  1.555748e-01  0.000000e+00
   endloop
 endfacet
 facet normal -8.713187e-01  4.907176e-01  0.000000e+00
   outer loop
     vertex -2.162325e-01  1.041321e-01  0.000000e+00
     vertex -2.162325e-01  1.041321e-01  1.000000e+00
     vertex -2.011411e-01  1.309284e-01  1.000000e+00
   endloop
 endfacet
 facet normal -8.713187e-01  4.907176e-01  0.000000e+00
   outer loop
     vertex -2.162325e-01  1.041321e-01  0.000000e+00
     vertex -2.011411e-01  1.309284e-01  1.000000e+00
     vertex -2.011411e-01  1.309284e-01  0.000000e+00
   endloop
 endfacet
 facet normal -9.269168e-01  3.752670e-01  0.000000e+00
   outer loop
     vertex -2.277734e-01  7.562597e-02  0.000000e+00
     vertex -2.277734e-01  7.562597e-02  1.000000e+00
     vertex -2.162325e-01  1.041321e-01  1.000000e+00
   endloop
 endfacet
 facet normal -9.269168e-01  3.752670e-01  0.000000e+00
   outer loop
     vertex -2.277734e-01  7.562597e-02  0.000000e+00
     vertex -2.162325e-01  1.041321e-01  1.000000e+00
     vertex -2.162325e-01  1.041321e-01  0.000000e+00
   endloop
 endfacet
 facet normal -9.672949e-01  2.536546e-01  0.000000e+00
   outer loop
     vertex -2.355742e-01  4.587807e-02  0.000000e+00
     vertex -2.355742e-01  4.587807e-02  1.000000e+00
     vertex -2.277734e-01  7.562597e-02  1.000000e+00
   endloop
 endfacet
 facet normal -9.672949e-01  2.536546e-01  0.000000e+00
   outer loop
     vertex -2.355742e-01  4.587807e-02  0.000000e+00
     vertex -2.277734e-01  7.562597e-02  1.000000e+00
     vertex -2.277734e-01  7.562597e-02  0.000000e+00
   endloop
 endfacet
 facet normal -9.917900e-01  1.278772e-01  0.000000e+00
   outer loop
     vertex -2.395069e-01  1.537685e-02  0.000000e+00
     vertex -2.395069e-01  1.537685e-02  1.000000e+00
     vertex -2.355742e-01  4.587807e-02  1.000000e+00
   endloop
 endfacet
 facet normal -9.917900e-01  1.278772e-01  0.000000e+00
   outer loop
     vertex -2.395069e-01  1.537685e-02  0.000000e+00
     vertex -2.355742e-01  4.587807e-02  1.000000e+00
     vertex -2.355742e-01  4.587807e-02  0.000000e+00
   endloop
 endfacet
 facet normal -1.000000e+00  1.805023e-15  0.000000e+00
   outer loop
     vertex -2.395069e-01 -1.537685e-02  0.000000e+00
     vertex -2.395069e-01  1.537685e-02  1.000000e+00
     vertex -2.395069e-01  1.537685e-02  0.000000e+00
   endloop
 endfacet
 facet normal -1.000000e+00  1.805023e-15  0.000000e+00
   outer loop
     vertex -2.395069e-01 -1.537685e-02  0.000000e+00
     vertex -2.395069e-01 -1.537685e-02  1.000000e+00
     vertex -2.395069e-01  1.537685e-02  1.000000e+00
   endloop
 endfacet
 facet normal -9.917900e-01 -1.278772e-01  0.000000e+00
   outer loop
     vertex -2.355742e-01 -4.587807e-02  0.000000e+00
     vertex -2.395069e-01 -1.537685e-02  1.000000e+00
     vertex -2.395069e-01 -1.537685e-02  0.000000e+00
   endloop
 endfacet
 facet normal -9.917900e-01 -1.278772e-01  0.000000e+00
   outer loop
     vertex -2.355742e-01 -4.587807e-02  0.000000e+00
     vertex -2.355742e-01 -4.587807e-02  1.000000e+00
     vertex -2.395069e-01 -1.537685e-02  1.000000e+00
   endloop
 endfacet
 facet normal -9.672949e-01 -2.536546e-01  0.000000e+00
   outer loop
     vertex -2.277734e-01 -7.562597e-02  0.000000e+00
     vertex -2.355742e-01 -4.587807e-02  1.000000e+00
     vertex -2.355742e-01 -4.587807e-02  0.000000e+00
   endloop
 endfacet
 facet normal -9.672949e-01 -2.536546e-01  0.000000e+00
   outer loop
     vertex -2.277734e-01 -7.562597e-02  0.000000e+00
     vertex -2.277734e-01 -7.562597e-02  1.000000e+00
     vertex -2.355742e-01 -4.587807e-02  1.000000e+00
   endloop
 endfacet
 facet normal -9.269168e-01 -3.752670e-01  0.000000e+00
   outer loop
     vertex -2.277734e-01 -7.562597e-02  0.000000e+00
     vertex -2.162325e-01 -1.041321e-01  1.000000e+00
     vertex -2.277734e-01 -7.562597e-02  1.000000e+00
   endloop
 endfacet
 facet normal -9.269168e-01 -3.752670e-01  0.000000e+00
   outer loop
     vertex -2.162325e-01 -1.041321e-01  0.000000e+00
     vertex -2.162325e-01 -1.041321e-01  1.000000e+00
     vertex -2.277734e-01 -7.562597e-02  0.000000e+00
   endloop
 endfacet
 facet normal -8.713187e-01 -4.907176e-01  0.000000e+00
   outer loop
     vertex -2.011411e-01 -1.309284e-01  0.000000e+00
     vertex -2.162325e-01 -1.041321e-01  1.000000e+00
     vertex -2.162325e-01 -1.041321e-01  0.000000e+00
   endloop
 endfacet
 facet normal -8.713187e-01 -4.907176e-01  0.000000e+00
   outer loop
     vertex -2.011411e-01 -1.309284e-01  0.000000e+00
     vertex -2.011411e-01 -1.309284e-01  1.000000e+00
     vertex -2.162325e-01 -1.041321e-01  1.000000e+00
   endloop
 endfacet
 facet normal -8.014136e-01 -5.981105e-01  0.000000e+00
   outer loop
     vertex -1.827470e-01 -1.555748e-01  0.000000e+00
     vertex -2.011411e-01 -1.309284e-01  1.000000e+00
     vertex -2.011411e-01 -1.309284e-01  0.000000e+00
   endloop
 endfacet
 facet normal -8.014136e-01 -5.981105e-01  0.000000e+00
   outer loop
     vertex -1.827470e-01 -1.555748e-01  0.000000e+00
     vertex -1.827470e-01 -1.555748e-01  1.000000e+00
     vertex -2.011411e-01 -1.309284e-01  1.000000e+00
   endloop
 endfacet
 facet normal -7.183494e-01 -6.956826e-01  0.000000e+00
   outer loop
     vertex -1.613522e-01 -1.776667e-01  0.000000e+00
     vertex -1.827470e-01 -1.555748e-01  1.000000e+00
     vertex -1.827470e-01 -1.555748e-01  0.000000e+00
   endloop
 endfacet
 facet normal -7.183494e-01 -6.956826e-01  0.000000e+00
   outer loop
     vertex -1.613522e-01 -1.776667e-01  0.000000e+00
     vertex -1.613522e-01 -1.776667e-01  1.000000e+00
     vertex -1.827470e-01 -1.555748e-01  1.000000e+00
   endloop
 endfacet
 facet normal -6.234898e-01 -7.818315e-01  0.000000e+00
   outer loop
     vertex -1.373080e-01 -1.968413e-01  0.000000e+00
     vertex -1.613522e-01 -1.776667e-01  1.000000e+00
     vertex -1.613522e-01 -1.776667e-01  0.000000e+00
   endloop
 endfacet
 facet normal -6.234898e-01 -7.818315e-01  0.000000e+00
   outer loop
     vertex -1.373080e-01 -1.968413e-01  0.000000e+00
     vertex -1.373080e-01 -1.968413e-01  1.000000e+00
     vertex -1.613522e-01 -1.776667e-01  1.000000e+00
   endloop
 endfacet
 facet normal -5.183926e-01 -8.551428e-01  0.000000e+00
   outer loop
     vertex -1.373080e-01 -1.968413e-01  0.000000e+00
     vertex -1.110092e-01 -2.127838e-01  1.000000e+00
     vertex -1.373080e-01 -1.968413e-01  1.000000e+00
   endloop
 endfacet
 facet normal -5.183926e-01 -8.551428e-01  0.000000e+00
   outer loop
     vertex -1.110092e-01 -2.127838e-01  0.000000e+00
     vertex -1.110092e-01 -2.127838e-01  1.000000e+00
     vertex -1.373080e-01 -1.968413e-01  0.000000e+00
   endloop
 endfacet
 facet normal -4.047833e-01 -9.144126e-01  0.000000e+00
   outer loop
     vertex -8.288761e-02 -2.252324e-01  0.000000e+00
     vertex -8.288761e-02 -2.252324e-01  1.000000e+00
     vertex -1.110092e-01 -2.127838e-01  1.000000e+00
   endloop
 endfacet
 facet normal -2.845276e-01 -9.586679e-01  0.000000e+00
   outer loop
     vertex -8.288761e-02 -2.252324e-01  0.000000e+00
     vertex -5.340502e-02 -2.339827e-01  1.000000e+00
     vertex -8.288761e-02 -2.252324e-01  1.000000e+00
   endloop
 endfacet
 facet normal -4.047833e-01 -9.144126e-01  0.000000e+00
   outer loop
     vertex -8.288761e-02 -2.252324e-01  0.000000e+00
     vertex -1.110092e-01 -2.127838e-01  1.000000e+00
     vertex -1.110092e-01 -2.127838e-01  0.000000e+00
   endloop
 endfacet
 facet normal -2.845276e-01 -9.586679e-01  0.000000e+00
   outer loop
     vertex -5.340502e-02 -2.339827e-01  0.000000e+00
     vertex -5.340502e-02 -2.339827e-01  1.000000e+00
     vertex -8.288761e-02 -2.252324e-01  0.000000e+00
   endloop
 endfacet
 facet normal -1.595999e-01 -9.871818e-01  0.000000e+00
   outer loop
     vertex -2.304553e-02 -2.388910e-01  0.000000e+00
     vertex -2.304553e-02 -2.388910e-01  1.000000e+00
     vertex -5.340502e-02 -2.339827e-01  1.000000e+00
   endloop
 endfacet
 facet normal -1.595999e-01 -9.871818e-01  0.000000e+00
   outer loop
     vertex -2.304553e-02 -2.388910e-01  0.000000e+00
     vertex -5.340502e-02 -2.339827e-01  1.000000e+00
     vertex -5.340502e-02 -2.339827e-01  0.000000e+00
   endloop
 endfacet
 facet normal -3.205158e-02 -9.994862e-01  0.000000e+00
   outer loop
     vertex  7.692379e-03 -2.398767e-01  0.000000e+00
     vertex  7.692379e-03 -2.398767e-01  1.000000e+00
     vertex -2.304553e-02 -2.388910e-01  1.000000e+00
   endloop
 endfacet
 facet normal -3.205158e-02 -9.994862e-01  0.000000e+00
   outer loop
     vertex  7.692379e-03 -2.398767e-01  0.000000e+00
     vertex -2.304553e-02 -2.388910e-01  1.000000e+00
     vertex -2.304553e-02 -2.388910e-01  0.000000e+00
   endloop
 endfacet
 facet normal  9.602303e-02 -9.953791e-01  0.000000e+00
   outer loop
     vertex  3.830397e-02 -2.369236e-01  0.000000e+00
     vertex  3.830397e-02 -2.369236e-01  1.000000e+00
     vertex  7.692379e-03 -2.398767e-01  1.000000e+00
   endloop
 endfacet
 facet normal  9.602303e-02 -9.953791e-01  0.000000e+00
   outer loop
     vertex  3.830397e-02 -2.369236e-01  0.000000e+00
     vertex  7.692379e-03 -2.398767e-01  1.000000e+00
     vertex  7.692379e-03 -2.398767e-01  0.000000e+00
   endloop
 endfacet
 facet normal  2.225209e-01 -9.749279e-01  0.000000e+00
   outer loop
     vertex  6.828662e-02 -2.300803e-01  0.000000e+00
     vertex  6.828662e-02 -2.300803e-01  1.000000e+00
     vertex  3.830397e-02 -2.369236e-01  1.000000e+00
   endloop
 endfacet
 facet normal  3.453651e-01 -9.384684e-01  0.000000e+00
   outer loop
     vertex  6.828662e-02 -2.300803e-01  0.000000e+00
     vertex  9.714800e-02 -2.194590e-01  1.000000e+00
     vertex  6.828662e-02 -2.300803e-01  1.000000e+00
   endloop
 endfacet
 facet normal  2.225209e-01 -9.749279e-01  0.000000e+00
   outer loop
     vertex  6.828662e-02 -2.300803e-01  0.000000e+00
     vertex  3.830397e-02 -2.369236e-01  1.000000e+00
     vertex  3.830397e-02 -2.369236e-01  0.000000e+00
   endloop
 endfacet
 facet normal  3.453651e-01 -9.384684e-01  0.000000e+00
   outer loop
     vertex  9.714800e-02 -2.194590e-01  0.000000e+00
     vertex  9.714800e-02 -2.194590e-01  1.000000e+00
     vertex  6.828662e-02 -2.300803e-01  0.000000e+00
   endloop
 endfacet
 facet normal  4.625383e-01 -8.865993e-01  0.000000e+00
   outer loop
     vertex  1.244142e-01 -2.052343e-01  0.000000e+00
     vertex  1.244142e-01 -2.052343e-01  1.000000e+00
     vertex  9.714800e-02 -2.194590e-01  1.000000e+00
   endloop
 endfacet
 facet normal  4.625383e-01 -8.865993e-01  0.000000e+00
   outer loop
     vertex  1.244142e-01 -2.052343e-01  0.000000e+00
     vertex  9.714800e-02 -2.194590e-01  1.000000e+00
     vertex  9.714800e-02 -2.194590e-01  0.000000e+00
   endloop
 endfacet
 facet normal  5.721167e-01 -8.201723e-01  0.000000e+00
   outer loop
     vertex  1.496376e-01 -1.876396e-01  0.000000e+00
     vertex  1.496376e-01 -1.876396e-01  1.000000e+00
     vertex  1.244142e-01 -2.052343e-01  1.000000e+00
   endloop
 endfacet
 facet normal  5.721167e-01 -8.201723e-01  0.000000e+00
   outer loop
     vertex  1.496376e-01 -1.876396e-01  0.000000e+00
     vertex  1.244142e-01 -2.052343e-01  1.000000e+00
     vertex  1.244142e-01 -2.052343e-01  0.000000e+00
   endloop
 endfacet
 facet normal  6.723009e-01 -7.402780e-01  0.000000e+00
   outer loop
     vertex  1.724038e-01 -1.669638e-01  0.000000e+00
     vertex  1.724038e-01 -1.669638e-01  1.000000e+00
     vertex  1.496376e-01 -1.876396e-01  1.000000e+00
   endloop
 endfacet
 facet normal  6.723009e-01 -7.402780e-01  0.000000e+00
   outer loop
     vertex  1.724038e-01 -1.669638e-01  0.000000e+00
     vertex  1.496376e-01 -1.876396e-01  1.000000e+00
     vertex  1.496376e-01 -1.876396e-01  0.000000e+00
   endloop
 endfacet
 facet normal  7.614460e-01 -6.482284e-01  0.000000e+00
   outer loop
     vertex  1.923393e-01 -1.435465e-01  0.000000e+00
     vertex  1.923393e-01 -1.435465e-01  1.000000e+00
     vertex  1.724038e-01 -1.669638e-01  1.000000e+00
   endloop
 endfacet
 facet normal  7.614460e-01 -6.482284e-01  0.000000e+00
   outer loop
     vertex  1.923393e-01 -1.435465e-01  0.000000e+00
     vertex  1.724038e-01 -1.669638e-01  1.000000e+00
     vertex  1.724038e-01 -1.669638e-01  0.000000e+00
   endloop
 endfacet
 facet normal  8.380881e-01 -5.455349e-01  0.000000e+00
   outer loop
     vertex  2.091165e-01 -1.177722e-01  0.000000e+00
     vertex  2.091165e-01 -1.177722e-01  1.000000e+00
     vertex  1.923393e-01 -1.435465e-01  1.000000e+00
   endloop
 endfacet
 facet normal  8.380881e-01 -5.455349e-01  0.000000e+00
   outer loop
     vertex  2.091165e-01 -1.177722e-01  0.000000e+00
     vertex  1.923393e-01 -1.435465e-01  1.000000e+00
     vertex  1.923393e-01 -1.435465e-01  0.000000e+00
   endloop
 endfacet
 facet normal  9.009689e-01 -4.338837e-01  0.000000e+00
   outer loop
     vertex  2.224600e-01 -9.006408e-02  0.000000e+00
     vertex  2.224600e-01 -9.006408e-02  1.000000e+00
     vertex  2.091165e-01 -1.177722e-01  1.000000e+00
   endloop
 endfacet
 facet normal  9.009689e-01 -4.338837e-01  0.000000e+00
   outer loop
     vertex  2.224600e-01 -9.006408e-02  0.000000e+00
     vertex  2.091165e-01 -1.177722e-01  1.000000e+00
     vertex  2.091165e-01 -1.177722e-01  0.000000e+00
   endloop
 endfacet
 facet normal  9.490557e-01 -3.151082e-01  0.000000e+00
   outer loop
     vertex  2.321508e-01 -6.087710e-02  0.000000e+00
     vertex  2.321508e-01 -6.087710e-02  1.000000e+00
     vertex  2.224600e-01 -9.006408e-02  1.000000e+00
   endloop
 endfacet
 facet normal  9.490557e-01 -3.151082e-01  0.000000e+00
   outer loop
     vertex  2.321508e-01 -6.087710e-02  0.000000e+00
     vertex  2.224600e-01 -9.006408e-02  1.000000e+00
     vertex  2.224600e-01 -9.006408e-02  0.000000e+00
   endloop
 endfacet
 facet normal  9.815592e-01 -1.911586e-01  0.000000e+00
   outer loop
     vertex  2.380296e-01 -3.069052e-02  0.000000e+00
     vertex  2.380296e-01 -3.069052e-02  1.000000e+00
     vertex  2.321508e-01 -6.087710e-02  1.000000e+00
   endloop
 endfacet
 facet normal  9.815592e-01 -1.911586e-01  0.000000e+00
   outer loop
     vertex  2.380296e-01 -3.069052e-02  0.000000e+00
     vertex  2.321508e-01 -6.087710e-02  1.000000e+00
     vertex  2.321508e-01 -6.087710e-02  0.000000e+00
   endloop
 endfacet
 facet normal  9.979454e-01 -6.407022e-02  0.000000e+00
   outer loop
     vertex  2.400000e-01  0.000000e+00  0.000000e+00
     vertex  2.400000e-01  0.000000e+00  1.000000e+00
     vertex  2.380296e-01 -3.069052e-02  1.000000e+00
   endloop
 endfacet
 facet normal  9.979454e-01 -6.407022e-02  0.000000e+00
   outer loop
     vertex  2.400000e-01  0.000000e+00  0.000000e+00
     vertex  2.380296e-01 -3.069052e-02  1.000000e+00
     vertex  2.380296e-01 -3.069052e-02  0.000000e+00
   endloop
 endfacet
 facet normal -9.970658e-01 -7.654925e-02  0.000000e+00
   outer loop
     vertex  1.630663e-01  2.518713e-02  0.000000e+00
     vertex  1.650000e-01  0.000000e+00  0.000000e+00
     vertex  1.650000e-01  0.000000e+00  1.000000e+00
   endloop
 endfacet
 facet normal -9.970658e-01 -7.654925e-02  0.000000e+00
   outer loop
     vertex  1.630663e-01  2.518713e-02  0.000000e+00
     vertex  1.650000e-01  0.000000e+00  1.000000e+00
     vertex  1.630663e-01  2.518713e-02  1.000000e+00
   endloop
 endfacet
 facet normal -9.736954e-01 -2.278535e-01  0.000000e+00
   outer loop
     vertex  1.573104e-01  4.978390e-02  0.000000e+00
     vertex  1.630663e-01  2.518713e-02  1.000000e+00
     vertex  1.573104e-01  4.978390e-02  1.000000e+00
   endloop
 endfacet
 facet normal -9.736954e-01 -2.278535e-01  0.000000e+00
   outer loop
     vertex  1.573104e-01  4.978390e-02  0.000000e+00
     vertex  1.630663e-01  2.518713e-02  0.000000e+00
     vertex  1.630663e-01  2.518713e-02  1.000000e+00
   endloop
 endfacet
 facet normal -9.275025e-01 -3.738171e-01  0.000000e+00
   outer loop
     vertex  1.478673e-01  7.321377e-02  0.000000e+00
     vertex  1.573104e-01  4.978390e-02  1.000000e+00
     vertex  1.478673e-01  7.321377e-02  1.000000e+00
   endloop
 endfacet
 facet normal -9.275025e-01 -3.738171e-01  0.000000e+00
   outer loop
     vertex  1.478673e-01  7.321377e-02  0.000000e+00
     vertex  1.573104e-01  4.978390e-02  0.000000e+00
     vertex  1.573104e-01  4.978390e-02  1.000000e+00
   endloop
 endfacet
 facet normal -8.595696e-01 -5.110187e-01  0.000000e+00
   outer loop
     vertex  1.349583e-01  9.492758e-02  0.000000e+00
     vertex  1.478673e-01  7.321377e-02  0.000000e+00
     vertex  1.478673e-01  7.321377e-02  1.000000e+00
   endloop
 endfacet
 facet normal -8.595696e-01 -5.110187e-01  0.000000e+00
   outer loop
     vertex  1.349583e-01  9.492758e-02  0.000000e+00
     vertex  1.478673e-01  7.321377e-02  1.000000e+00
     vertex  1.349583e-01  9.492758e-02  1.000000e+00
   endloop
 endfacet
 facet normal -7.714892e-01 -6.362424e-01  0.000000e+00
   outer loop
     vertex  1.188861e-01  1.144164e-01  0.000000e+00
     vertex  1.349583e-01  9.492758e-02  0.000000e+00
     vertex  1.349583e-01  9.492758e-02  1.000000e+00
   endloop
 endfacet
 facet normal -7.714892e-01 -6.362424e-01  0.000000e+00
   outer loop
     vertex  1.188861e-01  1.144164e-01  0.000000e+00
     vertex  1.349583e-01  9.492758e-02  1.000000e+00
     vertex  1.188861e-01  1.144164e-01  1.000000e+00
   endloop
 endfacet
 facet normal -6.653257e-01 -7.465532e-01  0.000000e+00
   outer loop
     vertex  1.000272e-01  1.312233e-01  0.000000e+00
     vertex  1.188861e-01  1.144164e-01  1.000000e+00
     vertex  1.000272e-01  1.312233e-01  1.000000e+00
   endloop
 endfacet
 facet normal -6.653257e-01 -7.465532e-01  0.000000e+00
   outer loop
     vertex  1.000272e-01  1.312233e-01  0.000000e+00
     vertex  1.188861e-01  1.144164e-01  0.000000e+00
     vertex  1.188861e-01  1.144164e-01  1.000000e+00
   endloop
 endfacet
 facet normal -5.435676e-01 -8.393654e-01  0.000000e+00
   outer loop
     vertex  7.882377e-02  1.449545e-01  0.000000e+00
     vertex  1.000272e-01  1.312233e-01  1.000000e+00
     vertex  7.882377e-02  1.449545e-01  1.000000e+00
   endloop
 endfacet
 facet normal -5.435676e-01 -8.393654e-01  0.000000e+00
   outer loop
     vertex  7.882377e-02  1.449545e-01  0.000000e+00
     vertex  1.000272e-01  1.312233e-01  0.000000e+00
     vertex  1.000272e-01  1.312233e-01  1.000000e+00
   endloop
 endfacet
 facet normal -4.090686e-01 -9.125036e-01  0.000000e+00
   outer loop
     vertex  5.577278e-02  1.552881e-01  0.000000e+00
     vertex  7.882377e-02  1.449545e-01  1.000000e+00
     vertex  5.577278e-02  1.552881e-01  1.000000e+00
   endloop
 endfacet
 facet normal -2.649815e-01 -9.642535e-01  0.000000e+00
   outer loop
     vertex  5.577278e-02  1.552881e-01  0.000000e+00
     vertex  5.577278e-02  1.552881e-01  1.000000e+00
     vertex  3.141453e-02  1.619819e-01  1.000000e+00
   endloop
 endfacet
 facet normal -4.090686e-01 -9.125036e-01  0.000000e+00
   outer loop
     vertex  5.577278e-02  1.552881e-01  0.000000e+00
     vertex  7.882377e-02  1.449545e-01  0.000000e+00
     vertex  7.882377e-02  1.449545e-01  1.000000e+00
   endloop
 endfacet
 facet normal -2.649815e-01 -9.642535e-01  0.000000e+00
   outer loop
     vertex  3.141453e-02  1.619819e-01  0.000000e+00
     vertex  5.577278e-02  1.552881e-01  0.000000e+00
     vertex  3.141453e-02  1.619819e-01  1.000000e+00
   endloop
 endfacet
 facet normal -1.146834e-01 -9.934021e-01  0.000000e+00
   outer loop
     vertex  6.319951e-03  1.648789e-01  0.000000e+00
     vertex  3.141453e-02  1.619819e-01  1.000000e+00
     vertex  6.319951e-03  1.648789e-01  1.000000e+00
   endloop
 endfacet
 facet normal -1.146834e-01 -9.934021e-01  0.000000e+00
   outer loop
     vertex  6.319951e-03  1.648789e-01  0.000000e+00
     vertex  3.141453e-02  1.619819e-01  0.000000e+00
     vertex  3.141453e-02  1.619819e-01  1.000000e+00
   endloop
 endfacet
 facet normal  3.830273e-02 -9.992662e-01  0.000000e+00
   outer loop
     vertex -1.892277e-02  1.639113e-01  0.000000e+00
     vertex  6.319951e-03  1.648789e-01  1.000000e+00
     vertex -1.892277e-02  1.639113e-01  1.000000e+00
   endloop
 endfacet
 facet normal  3.830273e-02 -9.992662e-01  0.000000e+00
   outer loop
     vertex -1.892277e-02  1.639113e-01  0.000000e+00
     vertex  6.319951e-03  1.648789e-01  0.000000e+00
     vertex  6.319951e-03  1.648789e-01  1.000000e+00
   endloop
 endfacet
 facet normal  1.903911e-01 -9.817083e-01  0.000000e+00
   outer loop
     vertex -4.372195e-02  1.591018e-01  0.000000e+00
     vertex -1.892277e-02  1.639113e-01  1.000000e+00
     vertex -4.372195e-02  1.591018e-01  1.000000e+00
   endloop
 endfacet
 facet normal  3.380169e-01 -9.411400e-01  0.000000e+00
   outer loop
     vertex -4.372195e-02  1.591018e-01  0.000000e+00
     vertex -4.372195e-02  1.591018e-01  1.000000e+00
     vertex -6.749633e-02  1.505631e-01  1.000000e+00
   endloop
 endfacet
 facet normal  1.903911e-01 -9.817083e-01  0.000000e+00
   outer loop
     vertex -4.372195e-02  1.591018e-01  0.000000e+00
     vertex -1.892277e-02  1.639113e-01  0.000000e+00
     vertex -1.892277e-02  1.639113e-01  1.000000e+00
   endloop
 endfacet
 facet normal  3.380169e-01 -9.411400e-01  0.000000e+00
   outer loop
     vertex -6.749633e-02  1.505631e-01  0.000000e+00
     vertex -4.372195e-02  1.591018e-01  0.000000e+00
     vertex -6.749633e-02  1.505631e-01  1.000000e+00
   endloop
 endfacet
 facet normal  4.777198e-01 -8.785123e-01  0.000000e+00
   outer loop
     vertex -8.968865e-02  1.384953e-01  0.000000e+00
     vertex -6.749633e-02  1.505631e-01  1.000000e+00
     vertex -8.968865e-02  1.384953e-01  1.000000e+00
   endloop
 endfacet
 facet normal  4.777198e-01 -8.785123e-01  0.000000e+00
   outer loop
     vertex -8.968865e-02  1.384953e-01  0.000000e+00
     vertex -6.749633e-02  1.505631e-01  0.000000e+00
     vertex -6.749633e-02  1.505631e-01  1.000000e+00
   endloop
 endfacet
 facet normal  6.062254e-01 -7.952929e-01  0.000000e+00
   outer loop
     vertex -1.097787e-01  1.231813e-01  0.000000e+00
     vertex -8.968865e-02  1.384953e-01  1.000000e+00
     vertex -1.097787e-01  1.231813e-01  1.000000e+00
   endloop
 endfacet
 facet normal  6.062254e-01 -7.952929e-01  0.000000e+00
   outer loop
     vertex -1.097787e-01  1.231813e-01  0.000000e+00
     vertex -8.968865e-02  1.384953e-01  0.000000e+00
     vertex -8.968865e-02  1.384953e-01  1.000000e+00
   endloop
 endfacet
 facet normal  7.205216e-01 -6.934325e-01  0.000000e+00
   outer loop
     vertex -1.272957e-01  1.049800e-01  0.000000e+00
     vertex -1.097787e-01  1.231813e-01  1.000000e+00
     vertex -1.272957e-01  1.049800e-01  1.000000e+00
   endloop
 endfacet
 facet normal  7.205216e-01 -6.934325e-01  0.000000e+00
   outer loop
     vertex -1.272957e-01  1.049800e-01  0.000000e+00
     vertex -1.097787e-01  1.231813e-01  0.000000e+00
     vertex -1.097787e-01  1.231813e-01  1.000000e+00
   endloop
 endfacet
 facet normal  8.179294e-01 -5.753187e-01  0.000000e+00
   outer loop
     vertex -1.418290e-01  8.431808e-02  0.000000e+00
     vertex -1.272957e-01  1.049800e-01  1.000000e+00
     vertex -1.418290e-01  8.431808e-02  1.000000e+00
   endloop
 endfacet
 facet normal  8.961656e-01 -4.437198e-01  0.000000e+00
   outer loop
     vertex -1.418290e-01  8.431808e-02  0.000000e+00
     vertex -1.418290e-01  8.431808e-02  1.000000e+00
     vertex -1.530379e-01  6.167982e-02  1.000000e+00
   endloop
 endfacet
 facet normal  8.179294e-01 -5.753187e-01  0.000000e+00
   outer loop
     vertex -1.418290e-01  8.431808e-02  0.000000e+00
     vertex -1.272957e-01  1.049800e-01  0.000000e+00
     vertex -1.272957e-01  1.049800e-01  1.000000e+00
   endloop
 endfacet
 facet normal  8.961656e-01 -4.437198e-01  0.000000e+00
   outer loop
     vertex -1.530379e-01  6.167982e-02  0.000000e+00
     vertex -1.418290e-01  8.431808e-02  0.000000e+00
     vertex -1.530379e-01  6.167982e-02  1.000000e+00
   endloop
 endfacet
 facet normal  9.533964e-01 -3.017206e-01  0.000000e+00
   outer loop
     vertex -1.606597e-01  3.759583e-02  0.000000e+00
     vertex -1.530379e-01  6.167982e-02  1.000000e+00
     vertex -1.606597e-01  3.759583e-02  1.000000e+00
   endloop
 endfacet
 facet normal  9.533964e-01 -3.017206e-01  0.000000e+00
   outer loop
     vertex -1.606597e-01  3.759583e-02  0.000000e+00
     vertex -1.530379e-01  6.167982e-02  0.000000e+00
     vertex -1.530379e-01  6.167982e-02  1.000000e+00
   endloop
 endfacet
 facet normal  9.882804e-01 -1.526493e-01  0.000000e+00
   outer loop
     vertex -1.645159e-01  1.263063e-02  0.000000e+00
     vertex -1.606597e-01  3.759583e-02  1.000000e+00
     vertex -1.645159e-01  1.263063e-02  1.000000e+00
   endloop
 endfacet
 facet normal  9.882804e-01 -1.526493e-01  0.000000e+00
   outer loop
     vertex -1.645159e-01  1.263063e-02  0.000000e+00
     vertex -1.606597e-01  3.759583e-02  0.000000e+00
     vertex -1.606597e-01  3.759583e-02  1.000000e+00
   endloop
 endfacet
 facet normal  1.000000e+00 -1.098741e-15  0.000000e+00
   outer loop
     vertex -1.645159e-01 -1.263063e-02  0.000000e+00
     vertex -1.645159e-01  1.263063e-02  1.000000e+00
     vertex -1.645159e-01 -1.263063e-02  1.000000e+00
   endloop
 endfacet
 facet normal  1.000000e+00 -1.098741e-15  0.000000e+00
   outer loop
     vertex -1.645159e-01 -1.263063e-02  0.000000e+00
     vertex -1.645159e-01  1.263063e-02  0.000000e+00
     vertex -1.645159e-01  1.263063e-02  1.000000e+00
   endloop
 endfacet
 facet normal  9.882804e-01  1.526493e-01 -0.000000e+00
   outer loop
     vertex -1.606597e-01 -3.759583e-02  0.000000e+00
     vertex -1.645159e-01 -1.263063e-02  1.000000e+00
     vertex -1.606597e-01 -3.759583e-02  1.000000e+00
   endloop
 endfacet
 facet normal  9.533964e-01  3.017206e-01 -0.000000e+00
   outer loop
     vertex -1.606597e-01 -3.759583e-02  0.000000e+00
     vertex -1.606597e-01 -3.759583e-02  1.000000e+00
     vertex -1.530379e-01 -6.167982e-02  1.000000e+00
   endloop
 endfacet
 facet normal  9.882804e-01  1.526493e-01  0.000000e+00
   outer loop
     vertex -1.606597e-01 -3.759583e-02  0.000000e+00
     vertex -1.645159e-01 -1.263063e-02  0.000000e+00
     vertex -1.645159e-01 -1.263063e-02  1.000000e+00
   endloop
 endfacet
 facet normal  9.533964e-01  3.017206e-01 -0.000000e+00
   outer loop
     vertex -1.530379e-01 -6.167982e-02  0.000000e+00
     vertex -1.606597e-01 -3.759583e-02  0.000000e+00
     vertex -1.530379e-01 -6.167982e-02  1.000000e+00
   endloop
 endfacet
 facet normal  8.961656e-01  4.437198e-01 -0.000000e+00
   outer loop
     vertex -1.418290e-01 -8.431808e-02  0.000000e+00
     vertex -1.530379e-01 -6.167982e-02  1.000000e+00
     vertex -1.418290e-01 -8.431808e-02  1.000000e+00
   endloop
 endfacet
 facet normal  8.179294e-01  5.753187e-01 -0.000000e+00
   outer loop
     vertex -1.418290e-01 -8.431808e-02  0.000000e+00
     vertex -1.418290e-01 -8.431808e-02  1.000000e+00
     vertex -1.272957e-01 -1.049800e-01  1.000000e+00
   endloop
 endfacet
 facet normal  8.961656e-01  4.437198e-01  0.000000e+00
   outer loop
     vertex -1.418290e-01 -8.431808e-02  0.000000e+00
     vertex -1.530379e-01 -6.167982e-02  0.000000e+00
     vertex -1.530379e-01 -6.167982e-02  1.000000e+00
   endloop
 endfacet
 facet normal  8.179294e-01  5.753187e-01 -0.000000e+00
   outer loop
     vertex -1.272957e-01 -1.049800e-01  0.000000e+00
     vertex -1.418290e-01 -8.431808e-02  0.000000e+00
     vertex -1.272957e-01 -1.049800e-01  1.000000e+00
   endloop
 endfacet
 facet normal  7.205216e-01  6.934325e-01 -0.000000e+00
   outer loop
     vertex -1.097787e-01 -1.231813e-01  0.000000e+00
     vertex -1.272957e-01 -1.049800e-01  1.000000e+00
     vertex -1.097787e-01 -1.231813e-01  1.000000e+00
   endloop
 endfacet
 facet normal  6.062254e-01  7.952929e-01 -0.000000e+00
   outer loop
     vertex -1.097787e-01 -1.231813e-01  0.000000e+00
     vertex -1.097787e-01 -1.231813e-01  1.000000e+00
     vertex -8.968865e-02 -1.384953e-01  1.000000e+00
   endloop
 endfacet
 facet normal  7.205216e-01  6.934325e-01  0.000000e+00
   outer loop
     vertex -1.097787e-01 -1.231813e-01  0.000000e+00
     vertex -1.272957e-01 -1.049800e-01  0.000000e+00
     vertex -1.272957e-01 -1.049800e-01  1.000000e+00
   endloop
 endfacet
 facet normal  6.062254e-01  7.952929e-01 -0.000000e+00
   outer loop
     vertex -8.968865e-02 -1.384953e-01  0.000000e+00
     vertex -1.097787e-01 -1.231813e-01  0.000000e+00
     vertex -8.968865e-02 -1.384953e-01  1.000000e+00
   endloop
 endfacet
 facet normal  4.777198e-01  8.785123e-01 -0.000000e+00
   outer loop
     vertex -6.749633e-02 -1.505631e-01  0.000000e+00
     vertex -8.968865e-02 -1.384953e-01  1.000000e+00
     vertex -6.749633e-02 -1.505631e-01  1.000000e+00
   endloop
 endfacet
 facet normal  4.777198e-01  8.785123e-01  0.000000e+00
   outer loop
     vertex -6.749633e-02 -1.505631e-01  0.000000e+00
     vertex -8.968865e-02 -1.384953e-01  0.000000e+00
     vertex -8.968865e-02 -1.384953e-01  1.000000e+00
   endloop
 endfacet
 facet normal  3.380169e-01  9.411400e-01  0.000000e+00
   outer loop
     vertex -4.372195e-02 -1.591018e-01  0.000000e+00
     vertex -6.749633e-02 -1.505631e-01  0.000000e+00
     vertex -6.749633e-02 -1.505631e-01  1.000000e+00
   endloop
 endfacet
 facet normal  3.380169e-01  9.411400e-01 -0.000000e+00
   outer loop
     vertex -4.372195e-02 -1.591018e-01  0.000000e+00
     vertex -6.749633e-02 -1.505631e-01  1.000000e+00
     vertex -4.372195e-02 -1.591018e-01  1.000000e+00
   endloop
 endfacet
 facet normal  1.903911e-01  9.817083e-01  0.000000e+00
   outer loop
     vertex -1.892277e-02 -1.639113e-01  0.000000e+00
     vertex -4.372195e-02 -1.591018e-01  0.000000e+00
     vertex -4.372195e-02 -1.591018e-01  1.000000e+00
   endloop
 endfacet
 facet normal  1.903911e-01  9.817083e-01 -0.000000e+00
   outer loop
     vertex -1.892277e-02 -1.639113e-01  0.000000e+00
     vertex -4.372195e-02 -1.591018e-01  1.000000e+00
     vertex -1.892277e-02 -1.639113e-01  1.000000e+00
   endloop
 endfacet
 facet normal  3.830273e-02  9.992662e-01  0.000000e+00
   outer loop
     vertex  6.319951e-03 -1.648789e-01  0.000000e+00
     vertex -1.892277e-02 -1.639113e-01  0.000000e+00
     vertex -1.892277e-02 -1.639113e-01  1.000000e+00
   endloop
 endfacet
 facet normal  3.830273e-02  9.992662e-01 -0.000000e+00
   outer loop
     vertex  6.319951e-03 -1.648789e-01  0.000000e+00
     vertex -1.892277e-02 -1.639113e-01  1.000000e+00
     vertex  6.319951e-03 -1.648789e-01  1.000000e+00
   endloop
 endfacet
 facet normal -1.146834e-01  9.934021e-01  0.000000e+00
   outer loop
     vertex  3.141453e-02 -1.619819e-01  0.000000e+00
     vertex  6.319951e-03 -1.648789e-01  0.000000e+00
     vertex  6.319951e-03 -1.648789e-01  1.000000e+00
   endloop
 endfacet
 facet normal -1.146834e-01  9.934021e-01  0.000000e+00
   outer loop
     vertex  3.141453e-02 -1.619819e-01  0.000000e+00
     vertex  6.319951e-03 -1.648789e-01  1.000000e+00
     vertex  3.141453e-02 -1.619819e-01  1.000000e+00
   endloop
 endfacet
 facet normal -2.649815e-01  9.642535e-01  0.000000e+00
   outer loop
     vertex  5.577278e-02 -1.552881e-01  0.000000e+00
     vertex  3.141453e-02 -1.619819e-01  0.000000e+00
     vertex  3.141453e-02 -1.619819e-01  1.000000e+00
   endloop
 endfacet
 facet normal -2.649815e-01  9.642535e-01  0.000000e+00
   outer loop
     vertex  5.577278e-02 -1.552881e-01  0.000000e+00
     vertex  3.141453e-02 -1.619819e-01  1.000000e+00
     vertex  5.577278e-02 -1.552881e-01  1.000000e+00
   endloop
 endfacet
 facet normal -4.090686e-01  9.125036e-01  0.000000e+00
   outer loop
     vertex  7.882377e-02 -1.449545e-01  0.000000e+00
     vertex  5.577278e-02 -1.552881e-01  0.000000e+00
     vertex  5.577278e-02 -1.552881e-01  1.000000e+00
   endloop
 endfacet
 facet normal -4.090686e-01  9.125036e-01  0.000000e+00
   outer loop
     vertex  7.882377e-02 -1.449545e-01  0.000000e+00
     vertex  5.577278e-02 -1.552881e-01  1.000000e+00
     vertex  7.882377e-02 -1.449545e-01  1.000000e+00
   endloop
 endfacet
 facet normal -5.435676e-01  8.393654e-01  0.000000e+00
   outer loop
     vertex  1.000272e-01 -1.312233e-01  0.000000e+00
     vertex  7.882377e-02 -1.449545e-01  0.000000e+00
     vertex  7.882377e-02 -1.449545e-01  1.000000e+00
   endloop
 endfacet
 facet normal -5.435676e-01  8.393654e-01  0.000000e+00
   outer loop
     vertex  1.000272e-01 -1.312233e-01  0.000000e+00
     vertex  7.882377e-02 -1.449545e-01  1.000000e+00
     vertex  1.000272e-01 -1.312233e-01  1.000000e+00
   endloop
 endfacet
 facet normal -6.653257e-01  7.465532e-01  0.000000e+00
   outer loop
     vertex  1.000272e-01 -1.312233e-01  0.000000e+00
     vertex  1.000272e-01 -1.312233e-01  1.000000e+00
     vertex  1.188861e-01 -1.144164e-01  1.000000e+00
   endloop
 endfacet
 facet normal -6.653257e-01  7.465532e-01  0.000000e+00
   outer loop
     vertex  1.188861e-01 -1.144164e-01  0.000000e+00
     vertex  1.000272e-01 -1.312233e-01  0.000000e+00
     vertex  1.188861e-01 -1.144164e-01  1.000000e+00
   endloop
 endfacet
 facet normal -7.714892e-01  6.362424e-01  0.000000e+00
   outer loop
     vertex  1.349583e-01 -9.492758e-02  0.000000e+00
     vertex  1.188861e-01 -1.144164e-01  0.000000e+00
     vertex  1.188861e-01 -1.144164e-01  1.000000e+00
   endloop
 endfacet
 facet normal -7.714892e-01  6.362424e-01  0.000000e+00
   outer loop
     vertex  1.349583e-01 -9.492758e-02  0.000000e+00
     vertex  1.188861e-01 -1.144164e-01  1.000000e+00
     vertex  1.349583e-01 -9.492758e-02  1.000000e+00
   endloop
 endfacet
 facet normal -8.595696e-01  5.110187e-01  0.000000e+00
   outer loop
     vertex  1.478673e-01 -7.321377e-02  0.000000e+00
     vertex  1.349583e-01 -9.492758e-02  0.000000e+00
     vertex  1.349583e-01 -9.492758e-02  1.000000e+00
   endloop
 endfacet
 facet normal -8.595696e-01  5.110187e-01  0.000000e+00
   outer loop
     vertex  1.478673e-01 -7.321377e-02  0.000000e+00
     vertex  1.349583e-01 -9.492758e-02  1.000000e+00
     vertex  1.478673e-01 -7.321377e-02  1.000000e+00
   endloop
 endfacet
 facet normal -9.275025e-01  3.738171e-01  0.000000e+00
   outer loop
     vertex  1.573104e-01 -4.978390e-02  0.000000e+00
     vertex  1.478673e-01 -7.321377e-02  0.000000e+00
     vertex  1.478673e-01 -7.321377e-02  1.000000e+00
   endloop
 endfacet
 facet normal -9.275025e-01  3.738171e-01  0.000000e+00
   outer loop
     vertex  1.573104e-01 -4.978390e-02  0.000000e+00
     vertex  1.478673e-01 -7.321377e-02  1.000000e+00
     vertex  1.573104e-01 -4.978390e-02  1.000000e+00
   endloop
 endfacet
 facet normal -9.736954e-01  2.278535e-01  0.000000e+00
   outer loop
     vertex  1.573104e-01 -4.978390e-02  0.000000e+00
     vertex  1.573104e-01 -4.978390e-02  1.000000e+00
     vertex  1.630663e-01 -2.518713e-02  1.000000e+00
   endloop
 endfacet
 facet normal -9.736954e-01  2.278535e-01  0.000000e+00
   outer loop
     vertex  1.630663e-01 -2.518713e-02  0.000000e+00
     vertex  1.573104e-01 -4.978390e-02  0.000000e+00
     vertex  1.630663e-01 -2.518713e-02  1.000000e+00
   endloop
 endfacet
 facet normal -9.970658e-01  7.654925e-02  0.000000e+00
   outer loop
     vertex  1.650000e-01  0.000000e+00  0.000000e+00
     vertex  1.630663e-01 -2.518713e-02  1.000000e+00
     vertex  1.650000e-01  0.000000e+00  1.000000e+00
   endloop
 endfacet
 facet normal -9.970658e-01  7.654925e-02  0.000000e+00
   outer loop
     vertex  1.650000e-01  0.000000e+00  0.000000e+00
     vertex  1.630663e-01 -2.518713e-02  0.000000e+00
     vertex  1.630663e-01 -2.518713e-02  1.000000e+00
   endloop
 endfacet
 facet normal  0.000000e+00  0.000000e+00 -1.000000e+00
   outer loop
     vertex -1.097787e-01 -1.231813e-01  0.000000e+00
     vertex -1.613522e-01 -1.776667e-01  0.000000e+00
     vertex -1.827470e-01 -1.555748e-01  0.000000e+00
   endloop
 endfacet
 facet normal  0.000000e+00  0.000000e+00 -1.000000e+00
   outer loop
     vertex -1.097787e-01 -1.231813e-01  0.000000e+00
     vertex -1.373080e-01 -1.968413e-01  0.000000e+00
     vertex -1.613522e-01 -1.776667e-01  0.000000e+00
   endloop
 endfacet
 facet normal  0.000000e+00 -0.000000e+00 -1.000000e+00
   outer loop
     vertex -1.272957e-01 -1.049800e-01  0.000000e+00
     vertex -1.097787e-01 -1.231813e-01  0.000000e+00
     vertex -1.827470e-01 -1.555748e-01  0.000000e+00
   endloop
 endfacet
 facet normal  0.000000e+00  0.000000e+00 -1.000000e+00
   outer loop
     vertex -1.272957e-01 -1.049800e-01  0.000000e+00
     vertex -1.827470e-01 -1.555748e-01  0.000000e+00
     vertex -2.011411e-01 -1.309284e-01  0.000000e+00
   endloop
 endfacet
 facet normal -0.000000e+00  0.000000e+00 -1.000000e+00
   outer loop
     vertex -8.968865e-02 -1.384953e-01  0.000000e+00
     vertex -1.373080e-01 -1.968413e-01  0.000000e+00
     vertex -1.097787e-01 -1.231813e-01  0.000000e+00
   endloop
 endfacet
 facet normal  0.000000e+00  0.000000e+00 -1.000000e+00
   outer loop
     vertex -8.968865e-02 -1.384953e-01  0.000000e+00
     vertex -1.110092e-01 -2.127838e-01  0.000000e+00
     vertex -1.373080e-01 -1.968413e-01  0.000000e+00
   endloop
 endfacet
 facet normal  0.000000e+00 -0.000000e+00 -1.000000e+00
   outer loop
     vertex -1.418290e-01 -8.431808e-02  0.000000e+00
     vertex -1.272957e-01 -1.049800e-01  0.000000e+00
     vertex -2.011411e-01 -1.309284e-01  0.000000e+00
   endloop
 endfacet
 facet normal  0.000000e+00  0.000000e+00 -1.000000e+00
   outer loop
     vertex -1.418290e-01 -8.431808e-02  0.000000e+00
     vertex -2.011411e-01 -1.309284e-01  0.000000e+00
     vertex -2.162325e-01 -1.041321e-01  0.000000e+00
   endloop
 endfacet
 facet normal -0.000000e+00  0.000000e+00 -1.000000e+00
   outer loop
     vertex -6.749633e-02 -1.505631e-01  0.000000e+00
     vertex -1.110092e-01 -2.127838e-01  0.000000e+00
     vertex -8.968865e-02 -1.384953e-01  0.000000e+00
   endloop
 endfacet
 facet normal  0.000000e+00  0.000000e+00 -1.000000e+00
   outer loop
     vertex -6.749633e-02 -1.505631e-01  0.000000e+00
     vertex -8.288761e-02 -2.252324e-01  0.000000e+00
     vertex -1.110092e-01 -2.127838e-01  0.000000e+00
   endloop
 endfacet
 facet normal  0.000000e+00 -0.000000e+00 -1.000000e+00
   outer loop
     vertex -1.530379e-01 -6.167982e-02  0.000000e+00
     vertex -1.418290e-01 -8.431808e-02  0.000000e+00
     vertex -2.162325e-01 -1.041321e-01  0.000000e+00
   endloop
 endfacet
 facet normal  0.000000e+00  0.000000e+00 -1.000000e+00
   outer loop
     vertex -1.530379e-01 -6.167982e-02  0.000000e+00
     vertex -2.162325e-01 -1.041321e-01  0.000000e+00
     vertex -2.277734e-01 -7.562597e-02  0.000000e+00
   endloop
 endfacet
 facet normal -0.000000e+00  0.000000e+00 -1.000000e+00
   outer loop
     vertex -4.372195e-02 -1.591018e-01  0.000000e+00
     vertex -8.288761e-02 -2.252324e-01  0.000000e+00
     vertex -6.749633e-02 -1.505631e-01  0.000000e+00
   endloop
 endfacet
 facet normal  0.000000e+00  0.000000e+00 -1.000000e+00
   outer loop
     vertex -4.372195e-02 -1.591018e-01  0.000000e+00
     vertex -5.340502e-02 -2.339827e-01  0.000000e+00
     vertex -8.288761e-02 -2.252324e-01  0.000000e+00
   endloop
 endfacet
 facet normal  0.000000e+00 -0.000000e+00 -1.000000e+00
   outer loop
     vertex -1.606597e-01 -3.759583e-02  0.000000e+00
     vertex -1.530379e-01 -6.167982e-02  0.000000e+00
     vertex -2.277734e-01 -7.562597e-02  0.000000e+00
   endloop
 endfacet
 facet normal  0.000000e+00  0.000000e+00 -1.000000e+00
   outer loop
     vertex -1.606597e-01 -3.759583e-02  0.000000e+00
     vertex -2.277734e-01 -7.562597e-02  0.000000e+00
     vertex -2.355742e-01 -4.587807e-02  0.000000e+00
   endloop
 endfacet
 facet normal -0.000000e+00  0.000000e+00 -1.000000e+00
   outer loop
     vertex -1.892277e-02 -1.639113e-01  0.000000e+00
     vertex -5.340502e-02 -2.339827e-01  0.000000e+00
     vertex -4.372195e-02 -1.591018e-01  0.000000e+00
   endloop
 endfacet
 facet normal  0.000000e+00  0.000000e+00 -1.000000e+00
   outer loop
     vertex -1.892277e-02 -1.639113e-01  0.000000e+00
     vertex -2.304553e-02 -2.388910e-01  0.000000e+00
     vertex -5.340502e-02 -2.339827e-01  0.000000e+00
   endloop
 endfacet
 facet normal  0.000000e+00 -0.000000e+00 -1.000000e+00
   outer loop
     vertex -1.645159e-01 -1.263063e-02  0.000000e+00
     vertex -1.606597e-01 -3.759583e-02  0.000000e+00
     vertex -2.355742e-01 -4.587807e-02  0.000000e+00
   endloop
 endfacet
 facet normal  0.000000e+00  0.000000e+00 -1.000000e+00
   outer loop
     vertex -1.645159e-01 -1.263063e-02  0.000000e+00
     vertex -2.355742e-01 -4.587807e-02  0.000000e+00
     vertex -2.395069e-01 -1.537685e-02  0.000000e+00
   endloop
 endfacet
 facet normal -0.000000e+00  0.000000e+00 -1.000000e+00
   outer loop
     vertex  6.319951e-03 -1.648789e-01  0.000000e+00
     vertex -2.304553e-02 -2.388910e-01  0.000000e+00
     vertex -1.892277e-02 -1.639113e-01  0.000000e+00
   endloop
 endfacet
 facet normal  0.000000e+00 -0.000000e+00 -1.000000e+00
   outer loop
     vertex  6.319951e-03 -1.648789e-01  0.000000e+00
     vertex  7.692379e-03 -2.398767e-01  0.000000e+00
     vertex -2.304553e-02 -2.388910e-01  0.000000e+00
   endloop
 endfacet
 facet normal  0.000000e+00  0.000000e+00 -1.000000e+00
   outer loop
     vertex  6.319951e-03 -1.648789e-01  0.000000e+00
     vertex  3.830397e-02 -2.369236e-01  0.000000e+00
     vertex  7.692379e-03 -2.398767e-01  0.000000e+00
   endloop
 endfacet
 facet normal  0.000000e+00  0.000000e+00 -1.000000e+00
   outer loop
     vertex -1.645159e-01  1.263063e-02  0.000000e+00
     vertex -2.395069e-01  1.537685e-02  0.000000e+00
     vertex -2.355742e-01  4.587807e-02  0.000000e+00
   endloop
 endfacet
 facet normal -0.000000e+00  0.000000e+00 -1.000000e+00
   outer loop
     vertex -1.645159e-01  1.263063e-02  0.000000e+00
     vertex -2.395069e-01 -1.537685e-02  0.000000e+00
     vertex -2.395069e-01  1.537685e-02  0.000000e+00
   endloop
 endfacet
 facet normal  0.000000e+00  0.000000e+00 -1.000000e+00
   outer loop
     vertex -1.645159e-01  1.263063e-02  0.000000e+00
     vertex -1.645159e-01 -1.263063e-02  0.000000e+00
     vertex -2.395069e-01 -1.537685e-02  0.000000e+00
   endloop
 endfacet
 facet normal  0.000000e+00 -0.000000e+00 -1.000000e+00
   outer loop
     vertex  3.141453e-02 -1.619819e-01  0.000000e+00
     vertex  3.830397e-02 -2.369236e-01  0.000000e+00
     vertex  6.319951e-03 -1.648789e-01  0.000000e+00
   endloop
 endfacet
 facet normal  0.000000e+00  0.000000e+00 -1.000000e+00
   outer loop
     vertex  3.141453e-02 -1.619819e-01  0.000000e+00
     vertex  6.828662e-02 -2.300803e-01  0.000000e+00
     vertex  3.830397e-02 -2.369236e-01  0.000000e+00
   endloop
 endfacet
 facet normal  0.000000e+00  0.000000e+00 -1.000000e+00
   outer loop
     vertex -1.606597e-01  3.759583e-02  0.000000e+00
     vertex -2.355742e-01  4.587807e-02  0.000000e+00
     vertex -2.277734e-01  7.562597e-02  0.000000e+00
   endloop
 endfacet
 facet normal -0.000000e+00  0.000000e+00 -1.000000e+00
   outer loop
     vertex -1.606597e-01  3.759583e-02  0.000000e+00
     vertex -1.645159e-01  1.263063e-02  0.000000e+00
     vertex -2.355742e-01  4.587807e-02  0.000000e+00
   endloop
 endfacet
 facet normal  0.000000e+00  0.000000e+00 -1.000000e+00
   outer loop
     vertex  5.577278e-02 -1.552881e-01  0.000000e+00
     vertex  9.714800e-02 -2.194590e-01  0.000000e+00
     vertex  6.828662e-02 -2.300803e-01  0.000000e+00
   endloop
 endfacet
 facet normal  0.000000e+00 -0.000000e+00 -1.000000e+00
   outer loop
     vertex  5.577278e-02 -1.552881e-01  0.000000e+00
     vertex  6.828662e-02 -2.300803e-01  0.000000e+00
     vertex  3.141453e-02 -1.619819e-01  0.000000e+00
   endloop
 endfacet
 facet normal  0.000000e+00  0.000000e+00 -1.000000e+00
   outer loop
     vertex -1.530379e-01  6.167982e-02  0.000000e+00
     vertex -2.277734e-01  7.562597e-02  0.000000e+00
     vertex -2.162325e-01  1.041321e-01  0.000000e+00
   endloop
 endfacet
 facet normal -0.000000e+00  0.000000e+00 -1.000000e+00
   outer loop
     vertex -1.530379e-01  6.167982e-02  0.000000e+00
     vertex -1.606597e-01  3.759583e-02  0.000000e+00
     vertex -2.277734e-01  7.562597e-02  0.000000e+00
   endloop
 endfacet
 facet normal  0.000000e+00  0.000000e+00 -1.000000e+00
   outer loop
     vertex  7.882377e-02 -1.449545e-01  0.000000e+00
     vertex  1.244142e-01 -2.052343e-01  0.000000e+00
     vertex  9.714800e-02 -2.194590e-01  0.000000e+00
   endloop
 endfacet
 facet normal  0.000000e+00 -0.000000e+00 -1.000000e+00
   outer loop
     vertex  7.882377e-02 -1.449545e-01  0.000000e+00
     vertex  9.714800e-02 -2.194590e-01  0.000000e+00
     vertex  5.577278e-02 -1.552881e-01  0.000000e+00
   endloop
 endfacet
 facet normal  0.000000e+00  0.000000e+00 -1.000000e+00
   outer loop
     vertex -1.418290e-01  8.431808e-02  0.000000e+00
     vertex -2.162325e-01  1.041321e-01  0.000000e+00
     vertex -2.011411e-01  1.309284e-01  0.000000e+00
   endloop
 endfacet
 facet normal -0.000000e+00  0.000000e+00 -1.000000e+00
   outer loop
     vertex -1.418290e-01  8.431808e-02  0.000000e+00
     vertex -1.530379e-01  6.167982e-02  0.000000e+00
     vertex -2.162325e-01  1.041321e-01  0.000000e+00
   endloop
 endfacet
 facet normal  0.000000e+00  0.000000e+00 -1.000000e+00
   outer loop
     vertex  1.000272e-01 -1.312233e-01  0.000000e+00
     vertex  1.496376e-01 -1.876396e-01  0.000000e+00
     vertex  1.244142e-01 -2.052343e-01  0.000000e+00
   endloop
 endfacet
 facet normal  0.000000e+00 -0.000000e+00 -1.000000e+00
   outer loop
     vertex  1.000272e-01 -1.312233e-01  0.000000e+00
     vertex  1.244142e-01 -2.052343e-01  0.000000e+00
     vertex  7.882377e-02 -1.449545e-01  0.000000e+00
   endloop
 endfacet
 facet normal  0.000000e+00  0.000000e+00 -1.000000e+00
   outer loop
     vertex -1.272957e-01  1.049800e-01  0.000000e+00
     vertex -2.011411e-01  1.309284e-01  0.000000e+00
     vertex -1.827470e-01  1.555748e-01  0.000000e+00
   endloop
 endfacet
 facet normal -0.000000e+00  0.000000e+00 -1.000000e+00
   outer loop
     vertex -1.272957e-01  1.049800e-01  0.000000e+00
     vertex -1.418290e-01  8.431808e-02  0.000000e+00
     vertex -2.011411e-01  1.309284e-01  0.000000e+00
   endloop
 endfacet
 facet normal  0.000000e+00 -0.000000e+00 -1.000000e+00
   outer loop
     vertex  1.188861e-01 -1.144164e-01  0.000000e+00
     vertex  1.496376e-01 -1.876396e-01  0.000000e+00
     vertex  1.000272e-01 -1.312233e-01  0.000000e+00
   endloop
 endfacet
 facet normal -0.000000e+00  0.000000e+00 -1.000000e+00
   outer loop
     vertex  1.724038e-01 -1.669638e-01  0.000000e+00
     vertex  1.496376e-01 -1.876396e-01  0.000000e+00
     vertex  1.188861e-01 -1.144164e-01  0.000000e+00
   endloop
 endfacet
 facet normal -0.000000e+00  0.000000e+00 -1.000000e+00
   outer loop
     vertex -1.097787e-01  1.231813e-01  0.000000e+00
     vertex -1.272957e-01  1.049800e-01  0.000000e+00
     vertex -1.827470e-01  1.555748e-01  0.000000e+00
   endloop
 endfacet
 facet normal  0.000000e+00 -0.000000e+00 -1.000000e+00
   outer loop
     vertex -1.613522e-01  1.776667e-01  0.000000e+00
     vertex -1.097787e-01  1.231813e-01  0.000000e+00
     vertex -1.827470e-01  1.555748e-01  0.000000e+00
   endloop
 endfacet
 facet normal -0.000000e+00  0.000000e+00 -1.000000e+00
   outer loop
     vertex  1.923393e-01 -1.435465e-01  0.000000e+00
     vertex  1.724038e-01 -1.669638e-01  0.000000e+00
     vertex  1.188861e-01 -1.144164e-01  0.000000e+00
   endloop
 endfacet
 facet normal  0.000000e+00  0.000000e+00 -1.000000e+00
   outer loop
     vertex  1.923393e-01 -1.435465e-01  0.000000e+00
     vertex  1.188861e-01 -1.144164e-01  0.000000e+00
     vertex  1.349583e-01 -9.492758e-02  0.000000e+00
   endloop
 endfacet
 facet normal  0.000000e+00  0.000000e+00 -1.000000e+00
   outer loop
     vertex -1.373080e-01  1.968413e-01  0.000000e+00
     vertex -8.968865e-02  1.384953e-01  0.000000e+00
     vertex -1.097787e-01  1.231813e-01  0.000000e+00
   endloop
 endfacet
 facet normal  0.000000e+00 -0.000000e+00 -1.000000e+00
   outer loop
     vertex -1.373080e-01  1.968413e-01  0.000000e+00
     vertex -1.097787e-01  1.231813e-01  0.000000e+00
     vertex -1.613522e-01  1.776667e-01  0.000000e+00
   endloop
 endfacet
 facet normal  0.000000e+00  0.000000e+00 -1.000000e+00
   outer loop
     vertex  2.091165e-01 -1.177722e-01  0.000000e+00
     vertex  1.349583e-01 -9.492758e-02  0.000000e+00
     vertex  1.478673e-01 -7.321377e-02  0.000000e+00
   endloop
 endfacet
 facet normal -0.000000e+00  0.000000e+00 -1.000000e+00
   outer loop
     vertex  2.091165e-01 -1.177722e-01  0.000000e+00
     vertex  1.923393e-01 -1.435465e-01  0.000000e+00
     vertex  1.349583e-01 -9.492758e-02  0.000000e+00
   endloop
 endfacet
 facet normal  0.000000e+00  0.000000e+00 -1.000000e+00
   outer loop
     vertex -1.110092e-01  2.127838e-01  0.000000e+00
     vertex -6.749633e-02  1.505631e-01  0.000000e+00
     vertex -8.968865e-02  1.384953e-01  0.000000e+00
   endloop
 endfacet
 facet normal  0.000000e+00 -0.000000e+00 -1.000000e+00
   outer loop
     vertex -1.110092e-01  2.127838e-01  0.000000e+00
     vertex -8.968865e-02  1.384953e-01  0.000000e+00
     vertex -1.373080e-01  1.968413e-01  0.000000e+00
   endloop
 endfacet
 facet normal  0.000000e+00  0.000000e+00 -1.000000e+00
   outer loop
     vertex  2.224600e-01 -9.006408e-02  0.000000e+00
     vertex  1.478673e-01 -7.321377e-02  0.000000e+00
     vertex  1.573104e-01 -4.978390e-02  0.000000e+00
   endloop
 endfacet
 facet normal -0.000000e+00  0.000000e+00 -1.000000e+00
   outer loop
     vertex  2.224600e-01 -9.006408e-02  0.000000e+00
     vertex  2.091165e-01 -1.177722e-01  0.000000e+00
     vertex  1.478673e-01 -7.321377e-02  0.000000e+00
   endloop
 endfacet
 facet normal  0.000000e+00 -0.000000e+00 -1.000000e+00
   outer loop
     vertex -8.288761e-02  2.252324e-01  0.000000e+00
     vertex -6.749633e-02  1.505631e-01  0.000000e+00
     vertex -1.110092e-01  2.127838e-01  0.000000e+00
   endloop
 endfacet
 facet normal  0.000000e+00  0.000000e+00 -1.000000e+00
   outer loop
     vertex -8.288761e-02  2.252324e-01  0.000000e+00
     vertex -4.372195e-02  1.591018e-01  0.000000e+00
     vertex -6.749633e-02  1.505631e-01  0.000000e+00
   endloop
 endfacet
 facet normal -0.000000e+00  0.000000e+00 -1.000000e+00
   outer loop
     vertex  2.321508e-01 -6.087710e-02  0.000000e+00
     vertex  2.224600e-01 -9.006408e-02  0.000000e+00
     vertex  1.573104e-01 -4.978390e-02  0.000000e+00
   endloop
 endfacet
 facet normal  0.000000e+00  0.000000e+00 -1.000000e+00
   outer loop
     vertex  2.321508e-01 -6.087710e-02  0.000000e+00
     vertex  1.573104e-01 -4.978390e-02  0.000000e+00
     vertex  1.630663e-01 -2.518713e-02  0.000000e+00
   endloop
 endfacet
 facet normal  0.000000e+00 -0.000000e+00 -1.000000e+00
   outer loop
     vertex -5.340502e-02  2.339827e-01  0.000000e+00
     vertex -4.372195e-02  1.591018e-01  0.000000e+00
     vertex -8.288761e-02  2.252324e-01  0.000000e+00
   endloop
 endfacet
 facet normal  0.000000e+00  0.000000e+00 -1.000000e+00
   outer loop
     vertex -5.340502e-02  2.339827e-01  0.000000e+00
     vertex -1.892277e-02  1.639113e-01  0.000000e+00
     vertex -4.372195e-02  1.591018e-01  0.000000e+00
   endloop
 endfacet
 facet normal -0.000000e+00  0.000000e+00 -1.000000e+00
   outer loop
     vertex  2.380296e-01 -3.069052e-02  0.000000e+00
     vertex  2.321508e-01 -6.087710e-02  0.000000e+00
     vertex  1.630663e-01 -2.518713e-02  0.000000e+00
   endloop
 endfacet
 facet normal  0.000000e+00  0.000000e+00 -1.000000e+00
   outer loop
     vertex  2.380296e-01 -3.069052e-02  0.000000e+00
     vertex  1.630663e-01 -2.518713e-02  0.000000e+00
     vertex  1.650000e-01  0.000000e+00  0.000000e+00
   endloop
 endfacet
 facet normal  0.000000e+00 -0.000000e+00 -1.000000e+00
   outer loop
     vertex -2.304553e-02  2.388910e-01  0.000000e+00
     vertex -1.892277e-02  1.639113e-01  0.000000e+00
     vertex -5.340502e-02  2.339827e-01  0.000000e+00
   endloop
 endfacet
 facet normal  0.000000e+00  0.000000e+00 -1.000000e+00
   outer loop
     vertex -2.304553e-02  2.388910e-01  0.000000e+00
     vertex  6.319951e-03  1.648789e-01  0.000000e+00
     vertex -1.892277e-02  1.639113e-01  0.000000e+00
   endloop
 endfacet
 facet normal -0.000000e+00  0.000000e+00 -1.000000e+00
   outer loop
     vertex  2.400000e-01  0.000000e+00  0.000000e+00
     vertex  2.380296e-01 -3.069052e-02  0.000000e+00
     vertex  1.650000e-01  0.000000e+00  0.000000e+00
   endloop
 endfacet
 facet normal  0.000000e+00  0.000000e+00 -1.000000e+00
   outer loop
     vertex  7.692379e-03  2.398767e-01  0.000000e+00
     vertex  6.319951e-03  1.648789e-01  0.000000e+00
     vertex -2.304553e-02  2.388910e-01  0.000000e+00
   endloop
 endfacet
 facet normal  0.000000e+00 -0.000000e+00 -1.000000e+00
   outer loop
     vertex  2.380296e-01  3.069052e-02  0.000000e+00
     vertex  2.400000e-01  0.000000e+00  0.000000e+00
     vertex  1.650000e-01  0.000000e+00  0.000000e+00
   endloop
 endfacet
 facet normal  0.000000e+00  0.000000e+00 -1.000000e+00
   outer loop
     vertex  2.380296e-01  3.069052e-02  0.000000e+00
     vertex  1.650000e-01  0.000000e+00  0.000000e+00
     vertex  1.630663e-01  2.518713e-02  0.000000e+00
   endloop
 endfacet
 facet normal -0.000000e+00  0.000000e+00 -1.000000e+00
   outer loop
     vertex  3.830397e-02  2.369236e-01  0.000000e+00
     vertex  6.319951e-03  1.648789e-01  0.000000e+00
     vertex  7.692379e-03  2.398767e-01  0.000000e+00
   endloop
 endfacet
 facet normal  0.000000e+00  0.000000e+00 -1.000000e+00
   outer loop
     vertex  3.830397e-02  2.369236e-01  0.000000e+00
     vertex  3.141453e-02  1.619819e-01  0.000000e+00
     vertex  6.319951e-03  1.648789e-01  0.000000e+00
   endloop
 endfacet
 facet normal  0.000000e+00 -0.000000e+00 -1.000000e+00
   outer loop
     vertex  2.321508e-01  6.087710e-02  0.000000e+00
     vertex  2.380296e-01  3.069052e-02  0.000000e+00
     vertex  1.630663e-01  2.518713e-02  0.000000e+00
   endloop
 endfacet
 facet normal  0.000000e+00  0.000000e+00 -1.000000e+00
   outer loop
     vertex  2.321508e-01  6.087710e-02  0.000000e+00
     vertex  1.630663e-01  2.518713e-02  0.000000e+00
     vertex  1.573104e-01  4.978390e-02  0.000000e+00
   endloop
 endfacet
 facet normal -0.000000e+00  0.000000e+00 -1.000000e+00
   outer loop
     vertex  6.828662e-02  2.300803e-01  0.000000e+00
     vertex  3.141453e-02  1.619819e-01  0.000000e+00
     vertex  3.830397e-02  2.369236e-01  0.000000e+00
   endloop
 endfacet
 facet normal  0.000000e+00  0.000000e+00 -1.000000e+00
   outer loop
     vertex  6.828662e-02  2.300803e-01  0.000000e+00
     vertex  5.577278e-02  1.552881e-01  0.000000e+00
     vertex  3.141453e-02  1.619819e-01  0.000000e+00
   endloop
 endfacet
 facet normal  0.000000e+00  0.000000e+00 -1.000000e+00
   outer loop
     vertex  2.224600e-01  9.006408e-02  0.000000e+00
     vertex  1.573104e-01  4.978390e-02  0.000000e+00
     vertex  1.478673e-01  7.321377e-02  0.000000e+00
   endloop
 endfacet
 facet normal  0.000000e+00 -0.000000e+00 -1.000000e+00
   outer loop
     vertex  2.224600e-01  9.006408e-02  0.000000e+00
     vertex  2.321508e-01  6.087710e-02  0.000000e+00
     vertex  1.573104e-01  4.978390e-02  0.000000e+00
   endloop
 endfacet
 facet normal  0.000000e+00  0.000000e+00 -1.000000e+00
   outer loop
     vertex  9.714800e-02  2.194590e-01  0.000000e+00
     vertex  7.882377e-02  1.449545e-01  0.000000e+00
     vertex  5.577278e-02  1.552881e-01  0.000000e+00
   endloop
 endfacet
 facet normal -0.000000e+00  0.000000e+00 -1.000000e+00
   outer loop
     vertex  9.714800e-02  2.194590e-01  0.000000e+00
     vertex  5.577278e-02  1.552881e-01  0.000000e+00
     vertex  6.828662e-02  2.300803e-01  0.000000e+00
   endloop
 endfacet
 facet normal  0.000000e+00  0.000000e+00 -1.000000e+00
   outer loop
     vertex  2.091165e-01  1.177722e-01  0.000000e+00
     vertex  1.478673e-01  7.321377e-02  0.000000e+00
     vertex  1.349583e-01  9.492758e-02  0.000000e+00
   endloop
 endfacet
 facet normal  0.000000e+00 -0.000000e+00 -1.000000e+00
   outer loop
     vertex  2.091165e-01  1.177722e-01  0.000000e+00
     vertex  2.224600e-01  9.006408e-02  0.000000e+00
     vertex  1.478673e-01  7.321377e-02  0.000000e+00
   endloop
 endfacet
 facet normal  0.000000e+00  0.000000e+00 -1.000000e+00
   outer loop
     vertex  1.244142e-01  2.052343e-01  0.000000e+00
     vertex  1.000272e-01  1.312233e-01  0.000000e+00
     vertex  7.882377e-02  1.449545e-01  0.000000e+00
   endloop
 endfacet
 facet normal -0.000000e+00  0.000000e+00 -1.000000e+00
   outer loop
     vertex  1.244142e-01  2.052343e-01  0.000000e+00
     vertex  7.882377e-02  1.449545e-01  0.000000e+00
     vertex  9.714800e-02  2.194590e-01  0.000000e+00
   endloop
 endfacet
 facet normal  0.000000e+00 -0.000000e+00 -1.000000e+00
   outer loop
     vertex  1.923393e-01  1.435465e-01  0.000000e+00
     vertex  2.091165e-01  1.177722e-01  0.000000e+00
     vertex  1.349583e-01  9.492758e-02  0.000000e+00
   endloop
 endfacet
 facet normal  0.000000e+00  0.000000e+00 -1.000000e+00
   outer loop
     vertex  1.923393e-01  1.435465e-01  0.000000e+00
     vertex  1.349583e-01  9.492758e-02  0.000000e+00
     vertex  1.188861e-01  1.144164e-01  0.000000e+00
   endloop
 endfacet
 facet normal  0.000000e+00  0.000000e+00 -1.000000e+00
   outer loop
     vertex  1.496376e-01  1.876396e-01  0.000000e+00
     vertex  1.188861e-01  1.144164e-01  0.000000e+00
     vertex  1.000272e-01  1.312233e-01  0.000000e+00
   endloop
 endfacet
 facet normal -0.000000e+00  0.000000e+00 -1.000000e+00
   outer loop
     vertex  1.496376e-01  1.876396e-01  0.000000e+00
     vertex  1.000272e-01  1.312233e-01  0.000000e+00
     vertex  1.244142e-01  2.052343e-01  0.000000e+00
   endloop
 endfacet
 facet normal  0.000000e+00 -0.000000e+00 -1.000000e+00
   outer loop
     vertex  1.724038e-01  1.669638e-01  0.000000e+00
     vertex  1.923393e-01  1.435465e-01  0.000000e+00
     vertex  1.188861e-01  1.144164e-01  0.000000e+00
   endloop
 endfacet
 facet normal -0.000000e+00  0.000000e+00 -1.000000e+00
   outer loop
     vertex  1.724038e-01  1.669638e-01  0.000000e+00
     vertex  1.188861e-01  1.144164e-01  0.000000e+00
     vertex  1.496376e-01  1.876396e-01  0.000000e+00
   endloop
 endfacet
 facet normal  0.000000e+00  0.000000e+00  1.000000e+00
   outer loop
     vertex -1.097787e-01 -1.231813e-01  1.000000e+00
     vertex -1.827470e-01 -1.555748e-01  1.000000e+00
     vertex -1.613522e-01 -1.776667e-01  1.000000e+00
   endloop
 endfacet
 facet normal  0.000000e+00  0.000000e+00  1.000000e+00
   outer loop
     vertex -1.097787e-01 -1.231813e-01  1.000000e+00
     vertex -1.613522e-01 -1.776667e-01  1.000000e+00
     vertex -1.373080e-01 -1.968413e-01  1.000000e+00
   endloop
 endfacet
 facet normal  0.000000e+00  0.000000e+00  1.000000e+00
   outer loop
     vertex -1.272957e-01 -1.049800e-01  1.000000e+00
     vertex -1.827470e-01 -1.555748e-01  1.000000e+00
     vertex -1.097787e-01 -1.231813e-01  1.000000e+00
   endloop
 endfacet
 facet normal  0.000000e+00  0.000000e+00  1.000000e+00
   outer loop
     vertex -1.272957e-01 -1.049800e-01  1.000000e+00
     vertex -2.011411e-01 -1.309284e-01  1.000000e+00
     vertex -1.827470e-01 -1.555748e-01  1.000000e+00
   endloop
 endfacet
 facet normal  0.000000e+00  0.000000e+00  1.000000e+00
   outer loop
     vertex -8.968865e-02 -1.384953e-01  1.000000e+00
     vertex -1.097787e-01 -1.231813e-01  1.000000e+00
     vertex -1.373080e-01 -1.968413e-01  1.000000e+00
   endloop
 endfacet
 facet normal  0.000000e+00  0.000000e+00  1.000000e+00
   outer loop
     vertex -8.968865e-02 -1.384953e-01  1.000000e+00
     vertex -1.373080e-01 -1.968413e-01  1.000000e+00
     vertex -1.110092e-01 -2.127838e-01  1.000000e+00
   endloop
 endfacet
 facet normal  0.000000e+00  0.000000e+00  1.000000e+00
   outer loop
     vertex -1.418290e-01 -8.431808e-02  1.000000e+00
     vertex -2.011411e-01 -1.309284e-01  1.000000e+00
     vertex -1.272957e-01 -1.049800e-01  1.000000e+00
   endloop
 endfacet
 facet normal  0.000000e+00  0.000000e+00  1.000000e+00
   outer loop
     vertex -1.418290e-01 -8.431808e-02  1.000000e+00
     vertex -2.162325e-01 -1.041321e-01  1.000000e+00
     vertex -2.011411e-01 -1.309284e-01  1.000000e+00
   endloop
 endfacet
 facet normal  0.000000e+00  0.000000e+00  1.000000e+00
   outer loop
     vertex -6.749633e-02 -1.505631e-01  1.000000e+00
     vertex -8.968865e-02 -1.384953e-01  1.000000e+00
     vertex -1.110092e-01 -2.127838e-01  1.000000e+00
   endloop
 endfacet
 facet normal  0.000000e+00  0.000000e+00  1.000000e+00
   outer loop
     vertex -6.749633e-02 -1.505631e-01  1.000000e+00
     vertex -1.110092e-01 -2.127838e-01  1.000000e+00
     vertex -8.288761e-02 -2.252324e-01  1.000000e+00
   endloop
 endfacet
 facet normal  0.000000e+00  0.000000e+00  1.000000e+00
   outer loop
     vertex -1.530379e-01 -6.167982e-02  1.000000e+00
     vertex -2.162325e-01 -1.041321e-01  1.000000e+00
     vertex -1.418290e-01 -8.431808e-02  1.000000e+00
   endloop
 endfacet
 facet normal  0.000000e+00  0.000000e+00  1.000000e+00
   outer loop
     vertex -1.530379e-01 -6.167982e-02  1.000000e+00
     vertex -2.277734e-01 -7.562597e-02  1.000000e+00
     vertex -2.162325e-01 -1.041321e-01  1.000000e+00
   endloop
 endfacet
 facet normal  0.000000e+00  0.000000e+00  1.000000e+00
   outer loop
     vertex -4.372195e-02 -1.591018e-01  1.000000e+00
     vertex -6.749633e-02 -1.505631e-01  1.000000e+00
     vertex -8.288761e-02 -2.252324e-01  1.000000e+00
   endloop
 endfacet
 facet normal  0.000000e+00  0.000000e+00  1.000000e+00
   outer loop
     vertex -4.372195e-02 -1.591018e-01  1.000000e+00
     vertex -8.288761e-02 -2.252324e-01  1.000000e+00
     vertex -5.340502e-02 -2.339827e-01  1.000000e+00
   endloop
 endfacet
 facet normal  0.000000e+00  0.000000e+00  1.000000e+00
   outer loop
     vertex -1.606597e-01 -3.759583e-02  1.000000e+00
     vertex -2.277734e-01 -7.562597e-02  1.000000e+00
     vertex -1.530379e-01 -6.167982e-02  1.000000e+00
   endloop
 endfacet
 facet normal  0.000000e+00  0.000000e+00  1.000000e+00
   outer loop
     vertex -1.606597e-01 -3.759583e-02  1.000000e+00
     vertex -2.355742e-01 -4.587807e-02  1.000000e+00
     vertex -2.277734e-01 -7.562597e-02  1.000000e+00
   endloop
 endfacet
 facet normal  0.000000e+00  0.000000e+00  1.000000e+00
   outer loop
     vertex -1.892277e-02 -1.639113e-01  1.000000e+00
     vertex -4.372195e-02 -1.591018e-01  1.000000e+00
     vertex -5.340502e-02 -2.339827e-01  1.000000e+00
   endloop
 endfacet
 facet normal  0.000000e+00  0.000000e+00  1.000000e+00
   outer loop
     vertex -1.892277e-02 -1.639113e-01  1.000000e+00
     vertex -5.340502e-02 -2.339827e-01  1.000000e+00
     vertex -2.304553e-02 -2.388910e-01  1.000000e+00
   endloop
 endfacet
 facet normal  0.000000e+00  0.000000e+00  1.000000e+00
   outer loop
     vertex -1.645159e-01 -1.263063e-02  1.000000e+00
     vertex -2.355742e-01 -4.587807e-02  1.000000e+00
     vertex -1.606597e-01 -3.759583e-02  1.000000e+00
   endloop
 endfacet
 facet normal  0.000000e+00  0.000000e+00  1.000000e+00
   outer loop
     vertex -1.645159e-01 -1.263063e-02  1.000000e+00
     vertex -2.395069e-01 -1.537685e-02  1.000000e+00
     vertex -2.355742e-01 -4.587807e-02  1.000000e+00
   endloop
 endfacet
 facet normal  0.000000e+00  0.000000e+00  1.000000e+00
   outer loop
     vertex  6.319951e-03 -1.648789e-01  1.000000e+00
     vertex -1.892277e-02 -1.639113e-01  1.000000e+00
     vertex -2.304553e-02 -2.388910e-01  1.000000e+00
   endloop
 endfacet
 facet normal  0.000000e+00  0.000000e+00  1.000000e+00
   outer loop
     vertex  6.319951e-03 -1.648789e-01  1.000000e+00
     vertex -2.304553e-02 -2.388910e-01  1.000000e+00
     vertex  7.692379e-03 -2.398767e-01  1.000000e+00
   endloop
 endfacet
 facet normal  0.000000e+00  0.000000e+00  1.000000e+00
   outer loop
     vertex  6.319951e-03 -1.648789e-01  1.000000e+00
     vertex  7.692379e-03 -2.398767e-01  1.000000e+00
     vertex  3.830397e-02 -2.369236e-01  1.000000e+00
   endloop
 endfacet
 facet normal  0.000000e+00  0.000000e+00  1.000000e+00
   outer loop
     vertex -1.645159e-01  1.263063e-02  1.000000e+00
     vertex -2.355742e-01  4.587807e-02  1.000000e+00
     vertex -2.395069e-01  1.537685e-02  1.000000e+00
   endloop
 endfacet
 facet normal  0.000000e+00  0.000000e+00  1.000000e+00
   outer loop
     vertex -1.645159e-01  1.263063e-02  1.000000e+00
     vertex -2.395069e-01  1.537685e-02  1.000000e+00
     vertex -2.395069e-01 -1.537685e-02  1.000000e+00
   endloop
 endfacet
 facet normal  0.000000e+00  0.000000e+00  1.000000e+00
   outer loop
     vertex -1.645159e-01  1.263063e-02  1.000000e+00
     vertex -2.395069e-01 -1.537685e-02  1.000000e+00
     vertex -1.645159e-01 -1.263063e-02  1.000000e+00
   endloop
 endfacet
 facet normal  0.000000e+00  0.000000e+00  1.000000e+00
   outer loop
     vertex  3.141453e-02 -1.619819e-01  1.000000e+00
     vertex  6.319951e-03 -1.648789e-01  1.000000e+00
     vertex  3.830397e-02 -2.369236e-01  1.000000e+00
   endloop
 endfacet
 facet normal  0.000000e+00  0.000000e+00  1.000000e+00
   outer loop
     vertex  3.141453e-02 -1.619819e-01  1.000000e+00
     vertex  3.830397e-02 -2.369236e-01  1.000000e+00
     vertex  6.828662e-02 -2.300803e-01  1.000000e+00
   endloop
 endfacet
 facet normal  0.000000e+00  0.000000e+00  1.000000e+00
   outer loop
     vertex -1.606597e-01  3.759583e-02  1.000000e+00
     vertex -2.277734e-01  7.562597e-02  1.000000e+00
     vertex -2.355742e-01  4.587807e-02  1.000000e+00
   endloop
 endfacet
 facet normal  0.000000e+00  0.000000e+00  1.000000e+00
   outer loop
     vertex -1.606597e-01  3.759583e-02  1.000000e+00
     vertex -2.355742e-01  4.587807e-02  1.000000e+00
     vertex -1.645159e-01  1.263063e-02  1.000000e+00
   endloop
 endfacet
 facet normal  0.000000e+00  0.000000e+00  1.000000e+00
   outer loop
     vertex  5.577278e-02 -1.552881e-01  1.000000e+00
     vertex  6.828662e-02 -2.300803e-01  1.000000e+00
     vertex  9.714800e-02 -2.194590e-01  1.000000e+00
   endloop
 endfacet
 facet normal  0.000000e+00  0.000000e+00  1.000000e+00
   outer loop
     vertex  5.577278e-02 -1.552881e-01  1.000000e+00
     vertex  3.141453e-02 -1.619819e-01  1.000000e+00
     vertex  6.828662e-02 -2.300803e-01  1.000000e+00
   endloop
 endfacet
 facet normal  0.000000e+00  0.000000e+00  1.000000e+00
   outer loop
     vertex -1.530379e-01  6.167982e-02  1.000000e+00
     vertex -2.162325e-01  1.041321e-01  1.000000e+00
     vertex -2.277734e-01  7.562597e-02  1.000000e+00
   endloop
 endfacet
 facet normal  0.000000e+00  0.000000e+00  1.000000e+00
   outer loop
     vertex -1.530379e-01  6.167982e-02  1.000000e+00
     vertex -2.277734e-01  7.562597e-02  1.000000e+00
     vertex -1.606597e-01  3.759583e-02  1.000000e+00
   endloop
 endfacet
 facet normal  0.000000e+00  0.000000e+00  1.000000e+00
   outer loop
     vertex  7.882377e-02 -1.449545e-01  1.000000e+00
     vertex  9.714800e-02 -2.194590e-01  1.000000e+00
     vertex  1.244142e-01 -2.052343e-01  1.000000e+00
   endloop
 endfacet
 facet normal  0.000000e+00  0.000000e+00  1.000000e+00
   outer loop
     vertex  7.882377e-02 -1.449545e-01  1.000000e+00
     vertex  5.577278e-02 -1.552881e-01  1.000000e+00
     vertex  9.714800e-02 -2.194590e-01  1.000000e+00
   endloop
 endfacet
 facet normal  0.000000e+00  0.000000e+00  1.000000e+00
   outer loop
     vertex -1.418290e-01  8.431808e-02  1.000000e+00
     vertex -2.011411e-01  1.309284e-01  1.000000e+00
     vertex -2.162325e-01  1.041321e-01  1.000000e+00
   endloop
 endfacet
 facet normal  0.000000e+00  0.000000e+00  1.000000e+00
   outer loop
     vertex -1.418290e-01  8.431808e-02  1.000000e+00
     vertex -2.162325e-01  1.041321e-01  1.000000e+00
     vertex -1.530379e-01  6.167982e-02  1.000000e+00
   endloop
 endfacet
 facet normal  0.000000e+00  0.000000e+00  1.000000e+00
   outer loop
     vertex  1.000272e-01 -1.312233e-01  1.000000e+00
     vertex  1.244142e-01 -2.052343e-01  1.000000e+00
     vertex  1.496376e-01 -1.876396e-01  1.000000e+00
   endloop
 endfacet
 facet normal  0.000000e+00  0.000000e+00  1.000000e+00
   outer loop
     vertex  1.000272e-01 -1.312233e-01  1.000000e+00
     vertex  7.882377e-02 -1.449545e-01  1.000000e+00
     vertex  1.244142e-01 -2.052343e-01  1.000000e+00
   endloop
 endfacet
 facet normal  0.000000e+00  0.000000e+00  1.000000e+00
   outer loop
     vertex -1.272957e-01  1.049800e-01  1.000000e+00
     vertex -1.827470e-01  1.555748e-01  1.000000e+00
     vertex -2.011411e-01  1.309284e-01  1.000000e+00
   endloop
 endfacet
 facet normal  0.000000e+00  0.000000e+00  1.000000e+00
   outer loop
     vertex -1.272957e-01  1.049800e-01  1.000000e+00
     vertex -2.011411e-01  1.309284e-01  1.000000e+00
     vertex -1.418290e-01  8.431808e-02  1.000000e+00
   endloop
 endfacet
 facet normal  0.000000e+00  0.000000e+00  1.000000e+00
   outer loop
     vertex  1.188861e-01 -1.144164e-01  1.000000e+00
     vertex  1.000272e-01 -1.312233e-01  1.000000e+00
     vertex  1.496376e-01 -1.876396e-01  1.000000e+00
   endloop
 endfacet
 facet normal  0.000000e+00  0.000000e+00  1.000000e+00
   outer loop
     vertex  1.724038e-01 -1.669638e-01  1.000000e+00
     vertex  1.188861e-01 -1.144164e-01  1.000000e+00
     vertex  1.496376e-01 -1.876396e-01  1.000000e+00
   endloop
 endfacet
 facet normal  0.000000e+00  0.000000e+00  1.000000e+00
   outer loop
     vertex -1.097787e-01  1.231813e-01  1.000000e+00
     vertex -1.827470e-01  1.555748e-01  1.000000e+00
     vertex -1.272957e-01  1.049800e-01  1.000000e+00
   endloop
 endfacet
 facet normal  0.000000e+00  0.000000e+00  1.000000e+00
   outer loop
     vertex -1.613522e-01  1.776667e-01  1.000000e+00
     vertex -1.827470e-01  1.555748e-01  1.000000e+00
     vertex -1.097787e-01  1.231813e-01  1.000000e+00
   endloop
 endfacet
 facet normal  0.000000e+00  0.000000e+00  1.000000e+00
   outer loop
     vertex  1.923393e-01 -1.435465e-01  1.000000e+00
     vertex  1.188861e-01 -1.144164e-01  1.000000e+00
     vertex  1.724038e-01 -1.669638e-01  1.000000e+00
   endloop
 endfacet
 facet normal  0.000000e+00  0.000000e+00  1.000000e+00
   outer loop
     vertex  1.923393e-01 -1.435465e-01  1.000000e+00
     vertex  1.349583e-01 -9.492758e-02  1.000000e+00
     vertex  1.188861e-01 -1.144164e-01  1.000000e+00
   endloop
 endfacet
 facet normal  0.000000e+00  0.000000e+00  1.000000e+00
   outer loop
     vertex -1.373080e-01  1.968413e-01  1.000000e+00
     vertex -1.097787e-01  1.231813e-01  1.000000e+00
     vertex -8.968865e-02  1.384953e-01  1.000000e+00
   endloop
 endfacet
 facet normal  0.000000e+00  0.000000e+00  1.000000e+00
   outer loop
     vertex -1.373080e-01  1.968413e-01  1.000000e+00
     vertex -1.613522e-01  1.776667e-01  1.000000e+00
     vertex -1.097787e-01  1.231813e-01  1.000000e+00
   endloop
 endfacet
 facet normal  0.000000e+00  0.000000e+00  1.000000e+00
   outer loop
     vertex  2.091165e-01 -1.177722e-01  1.000000e+00
     vertex  1.478673e-01 -7.321377e-02  1.000000e+00
     vertex  1.349583e-01 -9.492758e-02  1.000000e+00
   endloop
 endfacet
 facet normal  0.000000e+00  0.000000e+00  1.000000e+00
   outer loop
     vertex  2.091165e-01 -1.177722e-01  1.000000e+00
     vertex  1.349583e-01 -9.492758e-02  1.000000e+00
     vertex  1.923393e-01 -1.435465e-01  1.000000e+00
   endloop
 endfacet
 facet normal  0.000000e+00  0.000000e+00  1.000000e+00
   outer loop
     vertex -1.110092e-01  2.127838e-01  1.000000e+00
     vertex -8.968865e-02  1.384953e-01  1.000000e+00
     vertex -6.749633e-02  1.505631e-01  1.000000e+00
   endloop
 endfacet
 facet normal  0.000000e+00  0.000000e+00  1.000000e+00
   outer loop
     vertex -1.110092e-01  2.127838e-01  1.000000e+00
     vertex -1.373080e-01  1.968413e-01  1.000000e+00
     vertex -8.968865e-02  1.384953e-01  1.000000e+00
   endloop
 endfacet
 facet normal  0.000000e+00  0.000000e+00  1.000000e+00
   outer loop
     vertex  2.224600e-01 -9.006408e-02  1.000000e+00
     vertex  1.573104e-01 -4.978390e-02  1.000000e+00
     vertex  1.478673e-01 -7.321377e-02  1.000000e+00
   endloop
 endfacet
 facet normal  0.000000e+00  0.000000e+00  1.000000e+00
   outer loop
     vertex  2.224600e-01 -9.006408e-02  1.000000e+00
     vertex  1.478673e-01 -7.321377e-02  1.000000e+00
     vertex  2.091165e-01 -1.177722e-01  1.000000e+00
   endloop
 endfacet
 facet normal  0.000000e+00  0.000000e+00  1.000000e+00
   outer loop
     vertex -8.288761e-02  2.252324e-01  1.000000e+00
     vertex -1.110092e-01  2.127838e-01  1.000000e+00
     vertex -6.749633e-02  1.505631e-01  1.000000e+00
   endloop
 endfacet
 facet normal  0.000000e+00  0.000000e+00  1.000000e+00
   outer loop
     vertex -8.288761e-02  2.252324e-01  1.000000e+00
     vertex -6.749633e-02  1.505631e-01  1.000000e+00
     vertex -4.372195e-02  1.591018e-01  1.000000e+00
   endloop
 endfacet
 facet normal  0.000000e+00  0.000000e+00  1.000000e+00
   outer loop
     vertex  2.321508e-01 -6.087710e-02  1.000000e+00
     vertex  1.573104e-01 -4.978390e-02  1.000000e+00
     vertex  2.224600e-01 -9.006408e-02  1.000000e+00
   endloop
 endfacet
 facet normal  0.000000e+00  0.000000e+00  1.000000e+00
   outer loop
     vertex  2.321508e-01 -6.087710e-02  1.000000e+00
     vertex  1.630663e-01 -2.518713e-02  1.000000e+00
     vertex  1.573104e-01 -4.978390e-02  1.000000e+00
   endloop
 endfacet
 facet normal  0.000000e+00  0.000000e+00  1.000000e+00
   outer loop
     vertex -5.340502e-02  2.339827e-01  1.000000e+00
     vertex -8.288761e-02  2.252324e-01  1.000000e+00
     vertex -4.372195e-02  1.591018e-01  1.000000e+00
   endloop
 endfacet
 facet normal  0.000000e+00  0.000000e+00  1.000000e+00
   outer loop
     vertex -5.340502e-02  2.339827e-01  1.000000e+00
     vertex -4.372195e-02  1.591018e-01  1.000000e+00
     vertex -1.892277e-02  1.639113e-01  1.000000e+00
   endloop
 endfacet
 facet normal  0.000000e+00  0.000000e+00  1.000000e+00
   outer loop
     vertex  2.380296e-01 -3.069052e-02  1.000000e+00
     vertex  1.630663e-01 -2.518713e-02  1.000000e+00
     vertex  2.321508e-01 -6.087710e-02  1.000000e+00
   endloop
 endfacet
 facet normal  0.000000e+00  0.000000e+00  1.000000e+00
   outer loop
     vertex  2.380296e-01 -3.069052e-02  1.000000e+00
     vertex  1.650000e-01  0.000000e+00  1.000000e+00
     vertex  1.630663e-01 -2.518713e-02  1.000000e+00
   endloop
 endfacet
 facet normal  0.000000e+00  0.000000e+00  1.000000e+00
   outer loop
     vertex -2.304553e-02  2.388910e-01  1.000000e+00
     vertex -5.340502e-02  2.339827e-01  1.000000e+00
     vertex -1.892277e-02  1.639113e-01  1.000000e+00
   endloop
 endfacet
 facet normal  0.000000e+00  0.000000e+00  1.000000e+00
   outer loop
     vertex -2.304553e-02  2.388910e-01  1.000000e+00
     vertex -1.892277e-02  1.639113e-01  1.000000e+00
     vertex  6.319951e-03  1.648789e-01  1.000000e+00
   endloop
 endfacet
 facet normal  0.000000e+00  0.000000e+00  1.000000e+00
   outer loop
     vertex  2.400000e-01  0.000000e+00  1.000000e+00
     vertex  1.650000e-01  0.000000e+00  1.000000e+00
     vertex  2.380296e-01 -3.069052e-02  1.000000e+00
   endloop
 endfacet
 facet normal  0.000000e+00  0.000000e+00  1.000000e+00
   outer loop
     vertex  7.692379e-03  2.398767e-01  1.000000e+00
     vertex -2.304553e-02  2.388910e-01  1.000000e+00
     vertex  6.319951e-03  1.648789e-01  1.000000e+00
   endloop
 endfacet
 facet normal  0.000000e+00  0.000000e+00  1.000000e+00
   outer loop
     vertex  2.380296e-01  3.069052e-02  1.000000e+00
     vertex  1.650000e-01  0.000000e+00  1.000000e+00
     vertex  2.400000e-01  0.000000e+00  1.000000e+00
   endloop
 endfacet
 facet normal  0.000000e+00  0.000000e+00  1.000000e+00
   outer loop
     vertex  2.380296e-01  3.069052e-02  1.000000e+00
     vertex  1.630663e-01  2.518713e-02  1.000000e+00
     vertex  1.650000e-01  0.000000e+00  1.000000e+00
   endloop
 endfacet
 facet normal  0.000000e+00  0.000000e+00  1.000000e+00
   outer loop
     vertex  3.830397e-02  2.369236e-01  1.000000e+00
     vertex  7.692379e-03  2.398767e-01  1.000000e+00
     vertex  6.319951e-03  1.648789e-01  1.000000e+00
   endloop
 endfacet
 facet normal  0.000000e+00  0.000000e+00  1.000000e+00
   outer loop
     vertex  3.830397e-02  2.369236e-01  1.000000e+00
     vertex  6.319951e-03  1.648789e-01  1.000000e+00
     vertex  3.141453e-02  1.619819e-01  1.000000e+00
   endloop
 endfacet
 facet normal  0.000000e+00  0.000000e+00  1.000000e+00
   outer loop
     vertex  2.321508e-01  6.087710e-02  1.000000e+00
     vertex  1.630663e-01  2.518713e-02  1.000000e+00
     vertex  2.380296e-01  3.069052e-02  1.000000e+00
   endloop
 endfacet
 facet normal  0.000000e+00  0.000000e+00  1.000000e+00
   outer loop
     vertex  2.321508e-01  6.087710e-02  1.000000e+00
     vertex  1.573104e-01  4.978390e-02  1.000000e+00
     vertex  1.630663e-01  2.518713e-02  1.000000e+00
   endloop
 endfacet
 facet normal  0.000000e+00  0.000000e+00  1.000000e+00
   outer loop
     vertex  6.828662e-02  2.300803e-01  1.000000e+00
     vertex  3.830397e-02  2.369236e-01  1.000000e+00
     vertex  3.141453e-02  1.619819e-01  1.000000e+00
   endloop
 endfacet
 facet normal  0.000000e+00  0.000000e+00  1.000000e+00
   outer loop
     vertex  6.828662e-02  2.300803e-01  1.000000e+00
     vertex  3.141453e-02  1.619819e-01  1.000000e+00
     vertex  5.577278e-02  1.552881e-01  1.000000e+00
   endloop
 endfacet
 facet normal  0.000000e+00  0.000000e+00  1.000000e+00
   outer loop
     vertex  2.224600e-01  9.006408e-02  1.000000e+00
     vertex  1.478673e-01  7.321377e-02  1.000000e+00
     vertex  1.573104e-01  4.978390e-02  1.000000e+00
   endloop
 endfacet
 facet normal  0.000000e+00  0.000000e+00  1.000000e+00
   outer loop
     vertex  2.224600e-01  9.006408e-02  1.000000e+00
     vertex  1.573104e-01  4.978390e-02  1.000000e+00
     vertex  2.321508e-01  6.087710e-02  1.000000e+00
   endloop
 endfacet
 facet normal  0.000000e+00  0.000000e+00  1.000000e+00
   outer loop
     vertex  9.714800e-02  2.194590e-01  1.000000e+00
     vertex  5.577278e-02  1.552881e-01  1.000000e+00
     vertex  7.882377e-02  1.449545e-01  1.000000e+00
   endloop
 endfacet
 facet normal  0.000000e+00  0.000000e+00  1.000000e+00
   outer loop
     vertex  9.714800e-02  2.194590e-01  1.000000e+00
     vertex  6.828662e-02  2.300803e-01  1.000000e+00
     vertex  5.577278e-02  1.552881e-01  1.000000e+00
   endloop
 endfacet
 facet normal  0.000000e+00  0.000000e+00  1.000000e+00
   outer loop
     vertex  2.091165e-01  1.177722e-01  1.000000e+00
     vertex  1.349583e-01  9.492758e-02  1.000000e+00
     vertex  1.478673e-01  7.321377e-02  1.000000e+00
   endloop
 endfacet
 facet normal  0.000000e+00  0.000000e+00  1.000000e+00
   outer loop
     vertex  2.091165e-01  1.177722e-01  1.000000e+00
     vertex  1.478673e-01  7.321377e-02  1.000000e+00
     vertex  2.224600e-01  9.006408e-02  1.000000e+00
   endloop
 endfacet
 facet normal  0.000000e+00  0.000000e+00  1.000000e+00
   outer loop
     vertex  1.244142e-01  2.052343e-01  1.000000e+00
     vertex  7.882377e-02  1.449545e-01  1.000000e+00
     vertex  1.000272e-01  1.312233e-01  1.000000e+00
   endloop
 endfacet
 facet normal  0.000000e+00  0.000000e+00  1.000000e+00
   outer loop
     vertex  1.244142e-01  2.052343e-01  1.000000e+00
     vertex  9.714800e-02  2.194590e-01  1.000000e+00
     vertex  7.882377e-02  1.449545e-01  1.000000e+00
   endloop
 endfacet
 facet normal  0.000000e+00  0.000000e+00  1.000000e+00
   outer loop
     vertex  1.923393e-01  1.435465e-01  1.000000e+00
     vertex  1.349583e-01  9.492758e-02  1.000000e+00
     vertex  2.091165e-01  1.177722e-01  1.000000e+00
   endloop
 endfacet
 facet normal  0.000000e+00  0.000000e+00  1.000000e+00
   outer loop
     vertex  1.923393e-01  1.435465e-01  1.000000e+00
     vertex  1.188861e-01  1.144164e-01  1.000000e+00
     vertex  1.349583e-01  9.492758e-02  1.000000e+00
   endloop
 endfacet
 facet normal  0.000000e+00  0.000000e+00  1.000000e+00
   outer loop
     vertex  1.496376e-01  1.876396e-01  1.000000e+00
     vertex  1.000272e-01  1.312233e-01  1.000000e+00
     vertex  1.188861e-01  1.144164e-01  1.000000e+00
   endloop
 endfacet
 facet normal  0.000000e+00  0.000000e+00  1.000000e+00
   outer loop
     vertex  1.496376e-01  1.876396e-01  1.000000e+00
     vertex  1.244142e-01  2.052343e-01  1.000000e+00
     vertex  1.000272e-01  1.312233e-01  1.000000e+00
   endloop
 endfacet
 facet normal  0.000000e+00  0.000000e+00  1.000000e+00
   outer loop
     vertex  1.724038e-01  1.669638e-01  1.000000e+00
     vertex  1.188861e-01  1.144164e-01  1.000000e+00
     vertex  1.923393e-01  1.435465e-01  1.000000e+00
   endloop
 endfacet
 facet normal  0.000000e+00  0.000000e+00  1.000000e+00
   outer loop
     vertex  1.724038e-01  1.669638e-01  1.000000e+00
     vertex  1.496376e-01  1.876396e-01  1.000000e+00
     vertex  1.188861e-01  1.144164e-01  1.000000e+00
   endloop
 endfacet
endsolid
