solid 
 facet normal  0.000000e+00  0.000000e+00 -1.000000e+00
   outer loop
     vertex  9.814000e+01  8.400000e+01  6.580000e+00
     vertex  9.849000e+01  8.435000e+01  6.580000e+00
     vertex  9.849000e+01  8.400000e+01  6.580000e+00
   endloop
 endfacet
 facet normal  0.000000e+00  0.000000e+00 -1.000000e+00
   outer loop
     vertex  9.814000e+01  8.400000e+01  6.580000e+00
     vertex  9.814000e+01  8.435000e+01  6.580000e+00
     vertex  9.849000e+01  8.435000e+01  6.580000e+00
   endloop
 endfacet
 facet normal -1.000000e+00  0.000000e+00  0.000000e+00
   outer loop
     vertex  9.814000e+01  8.400000e+01  7.350000e+00
     vertex  9.814000e+01  8.435000e+01  6.580000e+00
     vertex  9.814000e+01  8.400000e+01  6.580000e+00
   endloop
 endfacet
 facet normal -1.000000e+00  0.000000e+00  0.000000e+00
   outer loop
     vertex  9.814000e+01  8.400000e+01  7.350000e+00
     vertex  9.814000e+01  8.435000e+01  7.350000e+00
     vertex  9.814000e+01  8.435000e+01  6.580000e+00
   endloop
 endfacet
 facet normal  0.000000e+00  0.000000e+00  1.000000e+00
   outer loop
     vertex  9.814000e+01  8.400000e+01  7.350000e+00
     vertex  9.849000e+01  8.400000e+01  7.350000e+00
     vertex  9.849000e+01  8.435000e+01  7.350000e+00
   endloop
 endfacet
 facet normal  0.000000e+00  0.000000e+00  1.000000e+00
   outer loop
     vertex  9.814000e+01  8.400000e+01  7.350000e+00
     vertex  9.849000e+01  8.435000e+01  7.350000e+00
     vertex  9.814000e+01  8.435000e+01  7.350000e+00
   endloop
 endfacet
 facet normal  1.000000e+00  0.000000e+00  0.000000e+00
   outer loop
     vertex  9.849000e+01  8.400000e+01  7.350000e+00
     vertex  9.849000e+01  8.400000e+01  6.580000e+00
     vertex  9.849000e+01  8.435000e+01  6.580000e+00
   endloop
 endfacet
 facet normal  1.000000e+00 -0.000000e+00  0.000000e+00
   outer loop
     vertex  9.849000e+01  8.400000e+01  7.350000e+00
     vertex  9.849000e+01  8.435000e+01  6.580000e+00
     vertex  9.849000e+01  8.435000e+01  7.350000e+00
   endloop
 endfacet
 facet normal  0.000000e+00 -1.000000e+00  0.000000e+00
   outer loop
     vertex  9.814000e+01  8.400000e+01  7.350000e+00
     vertex  9.814000e+01  8.400000e+01  6.580000e+00
     vertex  9.849000e+01  8.400000e+01  6.580000e+00
   endloop
 endfacet
 facet normal  0.000000e+00 -1.000000e+00  0.000000e+00
   outer loop
     vertex  9.814000e+01  8.400000e+01  7.350000e+00
     vertex  9.849000e+01  8.400000e+01  6.580000e+00
     vertex  9.849000e+01  8.400000e+01  7.350000e+00
   endloop
 endfacet
 facet normal  0.000000e+00  1.000000e+00  0.000000e+00
   outer loop
     vertex  9.814000e+01  8.435000e+01  7.350000e+00
     vertex  9.849000e+01  8.435000e+01  6.580000e+00
     vertex  9.814000e+01  8.435000e+01  6.580000e+00
   endloop
 endfacet
 facet normal -0.000000e+00  1.000000e+00  0.000000e+00
   outer loop
     vertex  9.814000e+01  8.435000e+01  7.350000e+00
     vertex  9.849000e+01  8.435000e+01  7.350000e+00
     vertex  9.849000e+01  8.435000e+01  6.580000e+00
   endloop
 endfacet
 facet normal  0.000000e+00 -1.000000e+00  0.000000e+00
   outer loop
     vertex  9.800000e-01  0.000000e+00  0.000000e+00
     vertex  0.000000e+00  0.000000e+00  3.500000e-02
     vertex  0.000000e+00  0.000000e+00  0.000000e+00
   endloop
 endfacet
 facet normal  0.000000e+00 -1.000000e+00  0.000000e+00
   outer loop
     vertex  9.800000e-01  0.000000e+00  0.000000e+00
     vertex  9.800000e-01  0.000000e+00  3.500000e-02
     vertex  0.000000e+00  0.000000e+00  3.500000e-02
   endloop
 endfacet
 facet normal  1.000000e+00  0.000000e+00  0.000000e+00
   outer loop
     vertex  9.800000e-01  4.200000e-01  0.000000e+00
     vertex  9.800000e-01  0.000000e+00  3.500000e-02
     vertex  9.800000e-01  0.000000e+00  0.000000e+00
   endloop
 endfacet
 facet normal  1.000000e+00  0.000000e+00 -0.000000e+00
   outer loop
     vertex  9.800000e-01  4.200000e-01  0.000000e+00
     vertex  9.800000e-01  4.200000e-01  3.500000e-02
     vertex  9.800000e-01  0.000000e+00  3.500000e-02
   endloop
 endfacet
 facet normal  0.000000e+00  1.000000e+00  0.000000e+00
   outer loop
     vertex  9.800000e-01  4.200000e-01  0.000000e+00
     vertex  0.000000e+00  4.200000e-01  0.000000e+00
     vertex  0.000000e+00  4.200000e-01  3.500000e-02
   endloop
 endfacet
 facet normal  0.000000e+00  1.000000e+00 -0.000000e+00
   outer loop
     vertex  9.800000e-01  4.200000e-01  0.000000e+00
     vertex  0.000000e+00  4.200000e-01  3.500000e-02
     vertex  9.800000e-01  4.200000e-01  3.500000e-02
   endloop
 endfacet
 facet normal -1.000000e+00  0.000000e+00  0.000000e+00
   outer loop
     vertex  0.000000e+00  4.200000e-01  0.000000e+00
     vertex  0.000000e+00  0.000000e+00  0.000000e+00
     vertex  0.000000e+00  0.000000e+00  3.500000e-02
   endloop
 endfacet
 facet normal -1.000000e+00  0.000000e+00  0.000000e+00
   outer loop
     vertex  0.000000e+00  4.200000e-01  0.000000e+00
     vertex  0.000000e+00  0.000000e+00  3.500000e-02
     vertex  0.000000e+00  4.200000e-01  3.500000e-02
   endloop
 endfacet
 facet normal  0.000000e+00 -0.000000e+00 -1.000000e+00
   outer loop
     vertex  9.800000e-01  4.200000e-01  0.000000e+00
     vertex  9.800000e-01  0.000000e+00  0.000000e+00
     vertex  0.000000e+00  0.000000e+00  0.000000e+00
   endloop
 endfacet
 facet normal -0.000000e+00  0.000000e+00 -1.000000e+00
   outer loop
     vertex  9.800000e-01  4.200000e-01  0.000000e+00
     vertex  0.000000e+00  0.000000e+00  0.000000e+00
     vertex  0.000000e+00  4.200000e-01  0.000000e+00
   endloop
 endfacet
 facet normal  0.000000e+00  0.000000e+00  1.000000e+00
   outer loop
     vertex  9.800000e-01  4.200000e-01  3.500000e-02
     vertex  0.000000e+00  0.000000e+00  3.500000e-02
     vertex  9.800000e-01  0.000000e+00  3.500000e-02
   endloop
 endfacet
 facet normal  0.000000e+00  0.000000e+00  1.000000e+00
   outer loop
     vertex  9.800000e-01  4.200000e-01  3.500000e-02
     vertex  0.000000e+00  4.200000e-01  3.500000e-02
     vertex  0.000000e+00  0.000000e+00  3.500000e-02
   endloop
 endfacet
 facet normal  0.000000e+00 -1.000000e+00  0.000000e+00
   outer loop
     vertex  9.786000e+01  8.358000e+01  7.000000e+00
     vertex  9.751000e+01  8.358000e+01  7.350000e+00
     vertex  9.751000e+01  8.358000e+01  7.000000e+00
   endloop
 endfacet
 facet normal  0.000000e+00 -1.000000e+00  0.000000e+00
   outer loop
     vertex  9.786000e+01  8.358000e+01  7.000000e+00
     vertex  9.786000e+01  8.358000e+01  7.350000e+00
     vertex  9.751000e+01  8.358000e+01  7.350000e+00
   endloop
 endfacet
 facet normal  1.000000e+00  0.000000e+00  0.000000e+00
   outer loop
     vertex  9.786000e+01  8.442000e+01  7.000000e+00
     vertex  9.786000e+01  8.358000e+01  7.350000e+00
     vertex  9.786000e+01  8.358000e+01  7.000000e+00
   endloop
 endfacet
 facet normal  1.000000e+00  0.000000e+00 -0.000000e+00
   outer loop
     vertex  9.786000e+01  8.442000e+01  7.000000e+00
     vertex  9.786000e+01  8.442000e+01  7.350000e+00
     vertex  9.786000e+01  8.358000e+01  7.350000e+00
   endloop
 endfacet
 facet normal  0.000000e+00  1.000000e+00  0.000000e+00
   outer loop
     vertex  9.786000e+01  8.442000e+01  7.000000e+00
     vertex  9.751000e+01  8.442000e+01  7.000000e+00
     vertex  9.751000e+01  8.442000e+01  7.350000e+00
   endloop
 endfacet
 facet normal  0.000000e+00  1.000000e+00 -0.000000e+00
   outer loop
     vertex  9.786000e+01  8.442000e+01  7.000000e+00
     vertex  9.751000e+01  8.442000e+01  7.350000e+00
     vertex  9.786000e+01  8.442000e+01  7.350000e+00
   endloop
 endfacet
 facet normal -1.000000e+00  0.000000e+00  0.000000e+00
   outer loop
     vertex  9.751000e+01  8.358000e+01  7.000000e+00
     vertex  9.751000e+01  8.442000e+01  7.350000e+00
     vertex  9.751000e+01  8.442000e+01  7.000000e+00
   endloop
 endfacet
 facet normal -1.000000e+00  0.000000e+00  0.000000e+00
   outer loop
     vertex  9.751000e+01  8.358000e+01  7.000000e+00
     vertex  9.751000e+01  8.358000e+01  7.350000e+00
     vertex  9.751000e+01  8.442000e+01  7.350000e+00
   endloop
 endfacet
 facet normal  0.000000e+00 -0.000000e+00 -1.000000e+00
   outer loop
     vertex  9.786000e+01  8.442000e+01  7.000000e+00
     vertex  9.786000e+01  8.358000e+01  7.000000e+00
     vertex  9.751000e+01  8.358000e+01  7.000000e+00
   endloop
 endfacet
 facet normal -0.000000e+00  0.000000e+00 -1.000000e+00
   outer loop
     vertex  9.786000e+01  8.442000e+01  7.000000e+00
     vertex  9.751000e+01  8.358000e+01  7.000000e+00
     vertex  9.751000e+01  8.442000e+01  7.000000e+00
   endloop
 endfacet
 facet normal  0.000000e+00  0.000000e+00  1.000000e+00
   outer loop
     vertex  9.786000e+01  8.442000e+01  7.350000e+00
     vertex  9.751000e+01  8.358000e+01  7.350000e+00
     vertex  9.786000e+01  8.358000e+01  7.350000e+00
   endloop
 endfacet
 facet normal  0.000000e+00  0.000000e+00  1.000000e+00
   outer loop
     vertex  9.786000e+01  8.442000e+01  7.350000e+00
     vertex  9.751000e+01  8.442000e+01  7.350000e+00
     vertex  9.751000e+01  8.358000e+01  7.350000e+00
   endloop
 endfacet
endsolid
