solid 
 facet normal  9.984815e-01  0.000000e+00  5.508776e-02
   outer loop
     vertex  3.230275e-01  0.000000e+00  3.575267e-02
     vertex  3.250000e-01 -1.000000e+00  0.000000e+00
     vertex  3.250000e-01  0.000000e+00  0.000000e+00
   endloop
 endfacet
 facet normal  9.984815e-01  0.000000e+00  5.508776e-02
   outer loop
     vertex  3.230275e-01  0.000000e+00  3.575267e-02
     vertex  3.230275e-01 -1.000000e+00  3.575267e-02
     vertex  3.250000e-01 -1.000000e+00  0.000000e+00
   endloop
 endfacet
 facet normal  9.863613e-01  0.000000e+00  1.645946e-01
   outer loop
     vertex  3.171338e-01  0.000000e+00  7.107135e-02
     vertex  3.171338e-01 -1.000000e+00  7.107135e-02
     vertex  3.230275e-01 -1.000000e+00  3.575267e-02
   endloop
 endfacet
 facet normal  9.863613e-01  0.000000e+00  1.645946e-01
   outer loop
     vertex  3.171338e-01  0.000000e+00  7.107135e-02
     vertex  3.230275e-01 -1.000000e+00  3.575267e-02
     vertex  3.230275e-01  0.000000e+00  3.575267e-02
   endloop
 endfacet
 facet normal  9.622680e-01  0.000000e+00  2.721035e-01
   outer loop
     vertex  3.073906e-01  0.000000e+00  1.055273e-01
     vertex  3.073906e-01 -1.000000e+00  1.055273e-01
     vertex  3.171338e-01 -1.000000e+00  7.107135e-02
   endloop
 endfacet
 facet normal  9.622680e-01  0.000000e+00  2.721035e-01
   outer loop
     vertex  3.073906e-01  0.000000e+00  1.055273e-01
     vertex  3.171338e-01 -1.000000e+00  7.107135e-02
     vertex  3.171338e-01  0.000000e+00  7.107135e-02
   endloop
 endfacet
 facet normal  9.264941e-01  0.000000e+00  3.763094e-01
   outer loop
     vertex  2.939161e-01  0.000000e+00  1.387023e-01
     vertex  2.939161e-01 -1.000000e+00  1.387023e-01
     vertex  3.073906e-01 -1.000000e+00  1.055273e-01
   endloop
 endfacet
 facet normal  8.794738e-01  0.000000e+00  4.759474e-01
   outer loop
     vertex  2.939161e-01  0.000000e+00  1.387023e-01
     vertex  2.768738e-01 -1.000000e+00  1.701937e-01
     vertex  2.939161e-01 -1.000000e+00  1.387023e-01
   endloop
 endfacet
 facet normal  9.264941e-01  0.000000e+00  3.763094e-01
   outer loop
     vertex  2.939161e-01  0.000000e+00  1.387023e-01
     vertex  3.073906e-01 -1.000000e+00  1.055273e-01
     vertex  3.073906e-01  0.000000e+00  1.055273e-01
   endloop
 endfacet
 facet normal  8.794738e-01  0.000000e+00  4.759474e-01
   outer loop
     vertex  2.768738e-01  0.000000e+00  1.701937e-01
     vertex  2.768738e-01 -1.000000e+00  1.701937e-01
     vertex  2.939161e-01  0.000000e+00  1.387023e-01
   endloop
 endfacet
 facet normal  8.217778e-01  0.000000e+00  5.698081e-01
   outer loop
     vertex  2.564707e-01  0.000000e+00  1.996191e-01
     vertex  2.564707e-01 -1.000000e+00  1.996191e-01
     vertex  2.768738e-01 -1.000000e+00  1.701937e-01
   endloop
 endfacet
 facet normal  8.217778e-01  0.000000e+00  5.698081e-01
   outer loop
     vertex  2.564707e-01  0.000000e+00  1.996191e-01
     vertex  2.768738e-01 -1.000000e+00  1.701937e-01
     vertex  2.768738e-01  0.000000e+00  1.701937e-01
   endloop
 endfacet
 facet normal  7.541066e-01  0.000000e+00  6.567520e-01
   outer loop
     vertex  2.329543e-01  0.000000e+00  2.266215e-01
     vertex  2.329543e-01 -1.000000e+00  2.266215e-01
     vertex  2.564707e-01 -1.000000e+00  1.996191e-01
   endloop
 endfacet
 facet normal  7.541066e-01  0.000000e+00  6.567520e-01
   outer loop
     vertex  2.329543e-01  0.000000e+00  2.266215e-01
     vertex  2.564707e-01 -1.000000e+00  1.996191e-01
     vertex  2.564707e-01  0.000000e+00  1.996191e-01
   endloop
 endfacet
 facet normal  6.772816e-01  0.000000e+00  7.357239e-01
   outer loop
     vertex  2.066102e-01  0.000000e+00  2.508729e-01
     vertex  2.066102e-01 -1.000000e+00  2.508729e-01
     vertex  2.329543e-01 -1.000000e+00  2.266215e-01
   endloop
 endfacet
 facet normal  5.922353e-01  0.000000e+00  8.057651e-01
   outer loop
     vertex  2.066102e-01  0.000000e+00  2.508729e-01
     vertex  1.777582e-01 -1.000000e+00  2.720791e-01
     vertex  2.066102e-01 -1.000000e+00  2.508729e-01
   endloop
 endfacet
 facet normal  6.772816e-01  0.000000e+00  7.357239e-01
   outer loop
     vertex  2.066102e-01  0.000000e+00  2.508729e-01
     vertex  2.329543e-01 -1.000000e+00  2.266215e-01
     vertex  2.329543e-01  0.000000e+00  2.266215e-01
   endloop
 endfacet
 facet normal  5.000000e-01  0.000000e+00  8.660254e-01
   outer loop
     vertex  1.777582e-01  0.000000e+00  2.720791e-01
     vertex  1.467483e-01 -1.000000e+00  2.899826e-01
     vertex  1.777582e-01 -1.000000e+00  2.720791e-01
   endloop
 endfacet
 facet normal  5.922353e-01  0.000000e+00  8.057651e-01
   outer loop
     vertex  1.777582e-01  0.000000e+00  2.720791e-01
     vertex  1.777582e-01 -1.000000e+00  2.720791e-01
     vertex  2.066102e-01  0.000000e+00  2.508729e-01
   endloop
 endfacet
 facet normal  4.016954e-01  0.000000e+00  9.157733e-01
   outer loop
     vertex  1.467483e-01  0.000000e+00  2.899826e-01
     vertex  1.139572e-01 -1.000000e+00  3.043662e-01
     vertex  1.467483e-01 -1.000000e+00  2.899826e-01
   endloop
 endfacet
 facet normal  5.000000e-01  0.000000e+00  8.660254e-01
   outer loop
     vertex  1.467483e-01  0.000000e+00  2.899826e-01
     vertex  1.467483e-01 -1.000000e+00  2.899826e-01
     vertex  1.777582e-01  0.000000e+00  2.720791e-01
   endloop
 endfacet
 facet normal  4.016954e-01  0.000000e+00  9.157733e-01
   outer loop
     vertex  1.139572e-01  0.000000e+00  3.043662e-01
     vertex  1.139572e-01 -1.000000e+00  3.043662e-01
     vertex  1.467483e-01  0.000000e+00  2.899826e-01
   endloop
 endfacet
 facet normal  2.985148e-01  0.000000e+00  9.544050e-01
   outer loop
     vertex  7.978278e-02  0.000000e+00  3.150551e-01
     vertex  7.978278e-02 -1.000000e+00  3.150551e-01
     vertex  1.139572e-01 -1.000000e+00  3.043662e-01
   endloop
 endfacet
 facet normal  1.917106e-01  0.000000e+00  9.814515e-01
   outer loop
     vertex  7.978278e-02  0.000000e+00  3.150551e-01
     vertex  4.463991e-02 -1.000000e+00  3.219197e-01
     vertex  7.978278e-02 -1.000000e+00  3.150551e-01
   endloop
 endfacet
 facet normal  2.985148e-01  0.000000e+00  9.544050e-01
   outer loop
     vertex  7.978278e-02  0.000000e+00  3.150551e-01
     vertex  1.139572e-01 -1.000000e+00  3.043662e-01
     vertex  1.139572e-01  0.000000e+00  3.043662e-01
   endloop
 endfacet
 facet normal  1.917106e-01  0.000000e+00  9.814515e-01
   outer loop
     vertex  4.463991e-02  0.000000e+00  3.219197e-01
     vertex  4.463991e-02 -1.000000e+00  3.219197e-01
     vertex  7.978278e-02  0.000000e+00  3.150551e-01
   endloop
 endfacet
 facet normal  8.257935e-02  0.000000e+00  9.965845e-01
   outer loop
     vertex  8.955161e-03  0.000000e+00  3.248766e-01
     vertex  8.955161e-03 -1.000000e+00  3.248766e-01
     vertex  4.463991e-02 -1.000000e+00  3.219197e-01
   endloop
 endfacet
 facet normal -2.755434e-02  0.000000e+00  9.996203e-01
   outer loop
     vertex  8.955161e-03  0.000000e+00  3.248766e-01
     vertex -2.683829e-02 -1.000000e+00  3.238900e-01
     vertex  8.955161e-03 -1.000000e+00  3.248766e-01
   endloop
 endfacet
 facet normal  8.257935e-02  0.000000e+00  9.965845e-01
   outer loop
     vertex  8.955161e-03  0.000000e+00  3.248766e-01
     vertex  4.463991e-02 -1.000000e+00  3.219197e-01
     vertex  4.463991e-02  0.000000e+00  3.219197e-01
   endloop
 endfacet
 facet normal -2.755434e-02  0.000000e+00  9.996203e-01
   outer loop
     vertex -2.683829e-02  0.000000e+00  3.238900e-01
     vertex -2.683829e-02 -1.000000e+00  3.238900e-01
     vertex  8.955161e-03  0.000000e+00  3.248766e-01
   endloop
 endfacet
 facet normal -1.373536e-01  0.000000e+00  9.905221e-01
   outer loop
     vertex -6.230596e-02  0.000000e+00  3.189717e-01
     vertex -6.230596e-02 -1.000000e+00  3.189717e-01
     vertex -2.683829e-02 -1.000000e+00  3.238900e-01
   endloop
 endfacet
 facet normal -2.454855e-01  0.000000e+00  9.694003e-01
   outer loop
     vertex -6.230596e-02  0.000000e+00  3.189717e-01
     vertex -9.701731e-02 -1.000000e+00  3.101816e-01
     vertex -6.230596e-02 -1.000000e+00  3.189717e-01
   endloop
 endfacet
 facet normal -1.373536e-01  0.000000e+00  9.905221e-01
   outer loop
     vertex -6.230596e-02  0.000000e+00  3.189717e-01
     vertex -2.683829e-02 -1.000000e+00  3.238900e-01
     vertex -2.683829e-02  0.000000e+00  3.238900e-01
   endloop
 endfacet
 facet normal -2.454855e-01  0.000000e+00  9.694003e-01
   outer loop
     vertex -9.701731e-02  0.000000e+00  3.101816e-01
     vertex -9.701731e-02 -1.000000e+00  3.101816e-01
     vertex -6.230596e-02  0.000000e+00  3.189717e-01
   endloop
 endfacet
 facet normal -3.506376e-01  0.000000e+00  9.365112e-01
   outer loop
     vertex -1.305510e-01  0.000000e+00  2.976263e-01
     vertex -1.305510e-01 -1.000000e+00  2.976263e-01
     vertex -9.701731e-02 -1.000000e+00  3.101816e-01
   endloop
 endfacet
 facet normal -3.506376e-01  0.000000e+00  9.365112e-01
   outer loop
     vertex -1.305510e-01  0.000000e+00  2.976263e-01
     vertex -9.701731e-02 -1.000000e+00  3.101816e-01
     vertex -9.701731e-02  0.000000e+00  3.101816e-01
   endloop
 endfacet
 facet normal -4.515334e-01  0.000000e+00  8.922542e-01
   outer loop
     vertex -1.625000e-01  0.000000e+00  2.814583e-01
     vertex -1.625000e-01 -1.000000e+00  2.814583e-01
     vertex -1.305510e-01 -1.000000e+00  2.976263e-01
   endloop
 endfacet
 facet normal -5.469482e-01  0.000000e+00  8.371665e-01
   outer loop
     vertex -1.625000e-01  0.000000e+00  2.814583e-01
     vertex -1.924765e-01 -1.000000e+00  2.618737e-01
     vertex -1.625000e-01 -1.000000e+00  2.814583e-01
   endloop
 endfacet
 facet normal -4.515334e-01  0.000000e+00  8.922542e-01
   outer loop
     vertex -1.625000e-01  0.000000e+00  2.814583e-01
     vertex -1.305510e-01 -1.000000e+00  2.976263e-01
     vertex -1.305510e-01  0.000000e+00  2.976263e-01
   endloop
 endfacet
 facet normal -5.469482e-01  0.000000e+00  8.371665e-01
   outer loop
     vertex -1.924765e-01  0.000000e+00  2.618737e-01
     vertex -1.924765e-01 -1.000000e+00  2.618737e-01
     vertex -1.625000e-01  0.000000e+00  2.814583e-01
   endloop
 endfacet
 facet normal -6.357237e-01  0.000000e+00  7.719167e-01
   outer loop
     vertex -2.201165e-01  0.000000e+00  2.391103e-01
     vertex -1.924765e-01 -1.000000e+00  2.618737e-01
     vertex -1.924765e-01  0.000000e+00  2.618737e-01
   endloop
 endfacet
 facet normal -6.357237e-01  0.000000e+00  7.719167e-01
   outer loop
     vertex -2.201165e-01  0.000000e+00  2.391103e-01
     vertex -2.201165e-01 -1.000000e+00  2.391103e-01
     vertex -1.924765e-01 -1.000000e+00  2.618737e-01
   endloop
 endfacet
 facet normal -7.167825e-01  0.000000e+00  6.972968e-01
   outer loop
     vertex -2.450846e-01  0.000000e+00  2.134444e-01
     vertex -2.201165e-01 -1.000000e+00  2.391103e-01
     vertex -2.201165e-01  0.000000e+00  2.391103e-01
   endloop
 endfacet
 facet normal -7.167825e-01  0.000000e+00  6.972968e-01
   outer loop
     vertex -2.450846e-01  0.000000e+00  2.134444e-01
     vertex -2.450846e-01 -1.000000e+00  2.134444e-01
     vertex -2.201165e-01 -1.000000e+00  2.391103e-01
   endloop
 endfacet
 facet normal -7.891405e-01  0.000000e+00  6.142127e-01
   outer loop
     vertex -2.670778e-01  0.000000e+00  1.851876e-01
     vertex -2.450846e-01 -1.000000e+00  2.134444e-01
     vertex -2.450846e-01  0.000000e+00  2.134444e-01
   endloop
 endfacet
 facet normal -7.891405e-01  0.000000e+00  6.142127e-01
   outer loop
     vertex -2.670778e-01  0.000000e+00  1.851876e-01
     vertex -2.670778e-01 -1.000000e+00  1.851876e-01
     vertex -2.450846e-01 -1.000000e+00  2.134444e-01
   endloop
 endfacet
 facet normal -8.519194e-01  0.000000e+00  5.236729e-01
   outer loop
     vertex -2.858290e-01  0.000000e+00  1.546829e-01
     vertex -2.670778e-01 -1.000000e+00  1.851876e-01
     vertex -2.670778e-01  0.000000e+00  1.851876e-01
   endloop
 endfacet
 facet normal -8.519194e-01  0.000000e+00  5.236729e-01
   outer loop
     vertex -2.858290e-01  0.000000e+00  1.546829e-01
     vertex -2.858290e-01 -1.000000e+00  1.546829e-01
     vertex -2.670778e-01 -1.000000e+00  1.851876e-01
   endloop
 endfacet
 facet normal -9.043572e-01  0.000000e+00  4.267764e-01
   outer loop
     vertex -3.011106e-01  0.000000e+00  1.223005e-01
     vertex -2.858290e-01 -1.000000e+00  1.546829e-01
     vertex -2.858290e-01  0.000000e+00  1.546829e-01
   endloop
 endfacet
 facet normal -9.043572e-01  0.000000e+00  4.267764e-01
   outer loop
     vertex -3.011106e-01  0.000000e+00  1.223005e-01
     vertex -3.011106e-01 -1.000000e+00  1.223005e-01
     vertex -2.858290e-01 -1.000000e+00  1.546829e-01
   endloop
 endfacet
 facet normal -9.458172e-01  0.000000e+00  3.246995e-01
   outer loop
     vertex -3.127371e-01  0.000000e+00  8.843363e-02
     vertex -3.011106e-01 -1.000000e+00  1.223005e-01
     vertex -3.011106e-01  0.000000e+00  1.223005e-01
   endloop
 endfacet
 facet normal -9.458172e-01  0.000000e+00  3.246995e-01
   outer loop
     vertex -3.127371e-01  0.000000e+00  8.843363e-02
     vertex -3.127371e-01 -1.000000e+00  8.843363e-02
     vertex -3.011106e-01 -1.000000e+00  1.223005e-01
   endloop
 endfacet
 facet normal -9.757964e-01  0.000000e+00  2.186811e-01
   outer loop
     vertex -3.205674e-01  0.000000e+00  5.349324e-02
     vertex -3.205674e-01 -1.000000e+00  5.349324e-02
     vertex -3.127371e-01 -1.000000e+00  8.843363e-02
   endloop
 endfacet
 facet normal -9.757964e-01  0.000000e+00  2.186811e-01
   outer loop
     vertex -3.205674e-01  0.000000e+00  5.349324e-02
     vertex -3.127371e-01 -1.000000e+00  8.843363e-02
     vertex -3.127371e-01  0.000000e+00  8.843363e-02
   endloop
 endfacet
 facet normal -9.939307e-01  0.000000e+00  1.100082e-01
   outer loop
     vertex -3.245065e-01  0.000000e+00  1.790352e-02
     vertex -3.245065e-01 -1.000000e+00  1.790352e-02
     vertex -3.205674e-01 -1.000000e+00  5.349324e-02
   endloop
 endfacet
 facet normal -1.000000e+00 -0.000000e+00  0.000000e+00
   outer loop
     vertex -3.245065e-01  0.000000e+00  1.790352e-02
     vertex -3.245065e-01 -1.000000e+00 -1.790352e-02
     vertex -3.245065e-01 -1.000000e+00  1.790352e-02
   endloop
 endfacet
 facet normal -9.939307e-01  0.000000e+00  1.100082e-01
   outer loop
     vertex -3.245065e-01  0.000000e+00  1.790352e-02
     vertex -3.205674e-01 -1.000000e+00  5.349324e-02
     vertex -3.205674e-01  0.000000e+00  5.349324e-02
   endloop
 endfacet
 facet normal -1.000000e+00  0.000000e+00  0.000000e+00
   outer loop
     vertex -3.245065e-01  0.000000e+00 -1.790352e-02
     vertex -3.245065e-01 -1.000000e+00 -1.790352e-02
     vertex -3.245065e-01  0.000000e+00  1.790352e-02
   endloop
 endfacet
 facet normal -9.939307e-01 -0.000000e+00 -1.100082e-01
   outer loop
     vertex -3.205674e-01  0.000000e+00 -5.349324e-02
     vertex -3.205674e-01 -1.000000e+00 -5.349324e-02
     vertex -3.245065e-01 -1.000000e+00 -1.790352e-02
   endloop
 endfacet
 facet normal -9.939307e-01  0.000000e+00 -1.100082e-01
   outer loop
     vertex -3.205674e-01  0.000000e+00 -5.349324e-02
     vertex -3.245065e-01 -1.000000e+00 -1.790352e-02
     vertex -3.245065e-01  0.000000e+00 -1.790352e-02
   endloop
 endfacet
 facet normal -9.757964e-01 -0.000000e+00 -2.186811e-01
   outer loop
     vertex -3.127371e-01  0.000000e+00 -8.843363e-02
     vertex -3.127371e-01 -1.000000e+00 -8.843363e-02
     vertex -3.205674e-01 -1.000000e+00 -5.349324e-02
   endloop
 endfacet
 facet normal -9.757964e-01  0.000000e+00 -2.186811e-01
   outer loop
     vertex -3.127371e-01  0.000000e+00 -8.843363e-02
     vertex -3.205674e-01 -1.000000e+00 -5.349324e-02
     vertex -3.205674e-01  0.000000e+00 -5.349324e-02
   endloop
 endfacet
 facet normal -9.458172e-01 -0.000000e+00 -3.246995e-01
   outer loop
     vertex -3.011106e-01  0.000000e+00 -1.223005e-01
     vertex -3.011106e-01 -1.000000e+00 -1.223005e-01
     vertex -3.127371e-01 -1.000000e+00 -8.843363e-02
   endloop
 endfacet
 facet normal -9.458172e-01  0.000000e+00 -3.246995e-01
   outer loop
     vertex -3.011106e-01  0.000000e+00 -1.223005e-01
     vertex -3.127371e-01 -1.000000e+00 -8.843363e-02
     vertex -3.127371e-01  0.000000e+00 -8.843363e-02
   endloop
 endfacet
 facet normal -9.043572e-01 -0.000000e+00 -4.267764e-01
   outer loop
     vertex -2.858290e-01  0.000000e+00 -1.546829e-01
     vertex -2.858290e-01 -1.000000e+00 -1.546829e-01
     vertex -3.011106e-01 -1.000000e+00 -1.223005e-01
   endloop
 endfacet
 facet normal -9.043572e-01  0.000000e+00 -4.267764e-01
   outer loop
     vertex -2.858290e-01  0.000000e+00 -1.546829e-01
     vertex -3.011106e-01 -1.000000e+00 -1.223005e-01
     vertex -3.011106e-01  0.000000e+00 -1.223005e-01
   endloop
 endfacet
 facet normal -8.519194e-01 -0.000000e+00 -5.236729e-01
   outer loop
     vertex -2.670778e-01  0.000000e+00 -1.851876e-01
     vertex -2.670778e-01 -1.000000e+00 -1.851876e-01
     vertex -2.858290e-01 -1.000000e+00 -1.546829e-01
   endloop
 endfacet
 facet normal -7.891405e-01 -0.000000e+00 -6.142127e-01
   outer loop
     vertex -2.670778e-01  0.000000e+00 -1.851876e-01
     vertex -2.450846e-01 -1.000000e+00 -2.134444e-01
     vertex -2.670778e-01 -1.000000e+00 -1.851876e-01
   endloop
 endfacet
 facet normal -8.519194e-01  0.000000e+00 -5.236729e-01
   outer loop
     vertex -2.670778e-01  0.000000e+00 -1.851876e-01
     vertex -2.858290e-01 -1.000000e+00 -1.546829e-01
     vertex -2.858290e-01  0.000000e+00 -1.546829e-01
   endloop
 endfacet
 facet normal -7.891405e-01 -0.000000e+00 -6.142127e-01
   outer loop
     vertex -2.450846e-01  0.000000e+00 -2.134444e-01
     vertex -2.450846e-01 -1.000000e+00 -2.134444e-01
     vertex -2.670778e-01  0.000000e+00 -1.851876e-01
   endloop
 endfacet
 facet normal -7.167825e-01 -0.000000e+00 -6.972968e-01
   outer loop
     vertex -2.201165e-01  0.000000e+00 -2.391103e-01
     vertex -2.201165e-01 -1.000000e+00 -2.391103e-01
     vertex -2.450846e-01 -1.000000e+00 -2.134444e-01
   endloop
 endfacet
 facet normal -6.357237e-01 -0.000000e+00 -7.719167e-01
   outer loop
     vertex -2.201165e-01  0.000000e+00 -2.391103e-01
     vertex -1.924765e-01 -1.000000e+00 -2.618737e-01
     vertex -2.201165e-01 -1.000000e+00 -2.391103e-01
   endloop
 endfacet
 facet normal -7.167825e-01  0.000000e+00 -6.972968e-01
   outer loop
     vertex -2.201165e-01  0.000000e+00 -2.391103e-01
     vertex -2.450846e-01 -1.000000e+00 -2.134444e-01
     vertex -2.450846e-01  0.000000e+00 -2.134444e-01
   endloop
 endfacet
 facet normal -6.357237e-01 -0.000000e+00 -7.719167e-01
   outer loop
     vertex -1.924765e-01  0.000000e+00 -2.618737e-01
     vertex -1.924765e-01 -1.000000e+00 -2.618737e-01
     vertex -2.201165e-01  0.000000e+00 -2.391103e-01
   endloop
 endfacet
 facet normal -5.469482e-01 -0.000000e+00 -8.371665e-01
   outer loop
     vertex -1.625000e-01  0.000000e+00 -2.814583e-01
     vertex -1.625000e-01 -1.000000e+00 -2.814583e-01
     vertex -1.924765e-01 -1.000000e+00 -2.618737e-01
   endloop
 endfacet
 facet normal -4.515334e-01 -0.000000e+00 -8.922542e-01
   outer loop
     vertex -1.625000e-01  0.000000e+00 -2.814583e-01
     vertex -1.305510e-01 -1.000000e+00 -2.976263e-01
     vertex -1.625000e-01 -1.000000e+00 -2.814583e-01
   endloop
 endfacet
 facet normal -5.469482e-01  0.000000e+00 -8.371665e-01
   outer loop
     vertex -1.625000e-01  0.000000e+00 -2.814583e-01
     vertex -1.924765e-01 -1.000000e+00 -2.618737e-01
     vertex -1.924765e-01  0.000000e+00 -2.618737e-01
   endloop
 endfacet
 facet normal -4.515334e-01 -0.000000e+00 -8.922542e-01
   outer loop
     vertex -1.305510e-01  0.000000e+00 -2.976263e-01
     vertex -1.305510e-01 -1.000000e+00 -2.976263e-01
     vertex -1.625000e-01  0.000000e+00 -2.814583e-01
   endloop
 endfacet
 facet normal -3.506376e-01 -0.000000e+00 -9.365112e-01
   outer loop
     vertex -9.701731e-02  0.000000e+00 -3.101816e-01
     vertex -9.701731e-02 -1.000000e+00 -3.101816e-01
     vertex -1.305510e-01 -1.000000e+00 -2.976263e-01
   endloop
 endfacet
 facet normal -2.454855e-01 -0.000000e+00 -9.694003e-01
   outer loop
     vertex -9.701731e-02  0.000000e+00 -3.101816e-01
     vertex -6.230596e-02 -1.000000e+00 -3.189717e-01
     vertex -9.701731e-02 -1.000000e+00 -3.101816e-01
   endloop
 endfacet
 facet normal -3.506376e-01  0.000000e+00 -9.365112e-01
   outer loop
     vertex -9.701731e-02  0.000000e+00 -3.101816e-01
     vertex -1.305510e-01 -1.000000e+00 -2.976263e-01
     vertex -1.305510e-01  0.000000e+00 -2.976263e-01
   endloop
 endfacet
 facet normal -2.454855e-01 -0.000000e+00 -9.694003e-01
   outer loop
     vertex -6.230596e-02  0.000000e+00 -3.189717e-01
     vertex -6.230596e-02 -1.000000e+00 -3.189717e-01
     vertex -9.701731e-02  0.000000e+00 -3.101816e-01
   endloop
 endfacet
 facet normal -1.373536e-01 -0.000000e+00 -9.905221e-01
   outer loop
     vertex -2.683829e-02  0.000000e+00 -3.238900e-01
     vertex -2.683829e-02 -1.000000e+00 -3.238900e-01
     vertex -6.230596e-02 -1.000000e+00 -3.189717e-01
   endloop
 endfacet
 facet normal -1.373536e-01  0.000000e+00 -9.905221e-01
   outer loop
     vertex -2.683829e-02  0.000000e+00 -3.238900e-01
     vertex -6.230596e-02 -1.000000e+00 -3.189717e-01
     vertex -6.230596e-02  0.000000e+00 -3.189717e-01
   endloop
 endfacet
 facet normal -2.755434e-02 -0.000000e+00 -9.996203e-01
   outer loop
     vertex  8.955161e-03  0.000000e+00 -3.248766e-01
     vertex  8.955161e-03 -1.000000e+00 -3.248766e-01
     vertex -2.683829e-02 -1.000000e+00 -3.238900e-01
   endloop
 endfacet
 facet normal -2.755434e-02  0.000000e+00 -9.996203e-01
   outer loop
     vertex  8.955161e-03  0.000000e+00 -3.248766e-01
     vertex -2.683829e-02 -1.000000e+00 -3.238900e-01
     vertex -2.683829e-02  0.000000e+00 -3.238900e-01
   endloop
 endfacet
 facet normal  8.257935e-02  0.000000e+00 -9.965845e-01
   outer loop
     vertex  4.463991e-02  0.000000e+00 -3.219197e-01
     vertex  4.463991e-02 -1.000000e+00 -3.219197e-01
     vertex  8.955161e-03 -1.000000e+00 -3.248766e-01
   endloop
 endfacet
 facet normal  8.257935e-02  0.000000e+00 -9.965845e-01
   outer loop
     vertex  4.463991e-02  0.000000e+00 -3.219197e-01
     vertex  8.955161e-03 -1.000000e+00 -3.248766e-01
     vertex  8.955161e-03  0.000000e+00 -3.248766e-01
   endloop
 endfacet
 facet normal  1.917106e-01  0.000000e+00 -9.814515e-01
   outer loop
     vertex  7.978278e-02  0.000000e+00 -3.150551e-01
     vertex  7.978278e-02 -1.000000e+00 -3.150551e-01
     vertex  4.463991e-02 -1.000000e+00 -3.219197e-01
   endloop
 endfacet
 facet normal  1.917106e-01  0.000000e+00 -9.814515e-01
   outer loop
     vertex  7.978278e-02  0.000000e+00 -3.150551e-01
     vertex  4.463991e-02 -1.000000e+00 -3.219197e-01
     vertex  4.463991e-02  0.000000e+00 -3.219197e-01
   endloop
 endfacet
 facet normal  2.985148e-01  0.000000e+00 -9.544050e-01
   outer loop
     vertex  1.139572e-01  0.000000e+00 -3.043662e-01
     vertex  7.978278e-02 -1.000000e+00 -3.150551e-01
     vertex  7.978278e-02  0.000000e+00 -3.150551e-01
   endloop
 endfacet
 facet normal  2.985148e-01  0.000000e+00 -9.544050e-01
   outer loop
     vertex  1.139572e-01  0.000000e+00 -3.043662e-01
     vertex  1.139572e-01 -1.000000e+00 -3.043662e-01
     vertex  7.978278e-02 -1.000000e+00 -3.150551e-01
   endloop
 endfacet
 facet normal  4.016954e-01  0.000000e+00 -9.157733e-01
   outer loop
     vertex  1.467483e-01  0.000000e+00 -2.899826e-01
     vertex  1.139572e-01 -1.000000e+00 -3.043662e-01
     vertex  1.139572e-01  0.000000e+00 -3.043662e-01
   endloop
 endfacet
 facet normal  4.016954e-01  0.000000e+00 -9.157733e-01
   outer loop
     vertex  1.467483e-01  0.000000e+00 -2.899826e-01
     vertex  1.467483e-01 -1.000000e+00 -2.899826e-01
     vertex  1.139572e-01 -1.000000e+00 -3.043662e-01
   endloop
 endfacet
 facet normal  5.000000e-01  0.000000e+00 -8.660254e-01
   outer loop
     vertex  1.777582e-01  0.000000e+00 -2.720791e-01
     vertex  1.467483e-01 -1.000000e+00 -2.899826e-01
     vertex  1.467483e-01  0.000000e+00 -2.899826e-01
   endloop
 endfacet
 facet normal  5.000000e-01  0.000000e+00 -8.660254e-01
   outer loop
     vertex  1.777582e-01  0.000000e+00 -2.720791e-01
     vertex  1.777582e-01 -1.000000e+00 -2.720791e-01
     vertex  1.467483e-01 -1.000000e+00 -2.899826e-01
   endloop
 endfacet
 facet normal  5.922353e-01  0.000000e+00 -8.057651e-01
   outer loop
     vertex  2.066102e-01  0.000000e+00 -2.508729e-01
     vertex  1.777582e-01 -1.000000e+00 -2.720791e-01
     vertex  1.777582e-01  0.000000e+00 -2.720791e-01
   endloop
 endfacet
 facet normal  5.922353e-01  0.000000e+00 -8.057651e-01
   outer loop
     vertex  2.066102e-01  0.000000e+00 -2.508729e-01
     vertex  2.066102e-01 -1.000000e+00 -2.508729e-01
     vertex  1.777582e-01 -1.000000e+00 -2.720791e-01
   endloop
 endfacet
 facet normal  6.772816e-01  0.000000e+00 -7.357239e-01
   outer loop
     vertex  2.329543e-01  0.000000e+00 -2.266215e-01
     vertex  2.066102e-01 -1.000000e+00 -2.508729e-01
     vertex  2.066102e-01  0.000000e+00 -2.508729e-01
   endloop
 endfacet
 facet normal  6.772816e-01  0.000000e+00 -7.357239e-01
   outer loop
     vertex  2.329543e-01  0.000000e+00 -2.266215e-01
     vertex  2.329543e-01 -1.000000e+00 -2.266215e-01
     vertex  2.066102e-01 -1.000000e+00 -2.508729e-01
   endloop
 endfacet
 facet normal  7.541066e-01  0.000000e+00 -6.567520e-01
   outer loop
     vertex  2.564707e-01  0.000000e+00 -1.996191e-01
     vertex  2.329543e-01 -1.000000e+00 -2.266215e-01
     vertex  2.329543e-01  0.000000e+00 -2.266215e-01
   endloop
 endfacet
 facet normal  7.541066e-01  0.000000e+00 -6.567520e-01
   outer loop
     vertex  2.564707e-01  0.000000e+00 -1.996191e-01
     vertex  2.564707e-01 -1.000000e+00 -1.996191e-01
     vertex  2.329543e-01 -1.000000e+00 -2.266215e-01
   endloop
 endfacet
 facet normal  8.217778e-01  0.000000e+00 -5.698081e-01
   outer loop
     vertex  2.768738e-01  0.000000e+00 -1.701937e-01
     vertex  2.564707e-01 -1.000000e+00 -1.996191e-01
     vertex  2.564707e-01  0.000000e+00 -1.996191e-01
   endloop
 endfacet
 facet normal  8.217778e-01  0.000000e+00 -5.698081e-01
   outer loop
     vertex  2.768738e-01  0.000000e+00 -1.701937e-01
     vertex  2.768738e-01 -1.000000e+00 -1.701937e-01
     vertex  2.564707e-01 -1.000000e+00 -1.996191e-01
   endloop
 endfacet
 facet normal  8.794738e-01  0.000000e+00 -4.759474e-01
   outer loop
     vertex  2.939161e-01  0.000000e+00 -1.387023e-01
     vertex  2.768738e-01 -1.000000e+00 -1.701937e-01
     vertex  2.768738e-01  0.000000e+00 -1.701937e-01
   endloop
 endfacet
 facet normal  8.794738e-01  0.000000e+00 -4.759474e-01
   outer loop
     vertex  2.939161e-01  0.000000e+00 -1.387023e-01
     vertex  2.939161e-01 -1.000000e+00 -1.387023e-01
     vertex  2.768738e-01 -1.000000e+00 -1.701937e-01
   endloop
 endfacet
 facet normal  9.264941e-01  0.000000e+00 -3.763094e-01
   outer loop
     vertex  3.073906e-01  0.000000e+00 -1.055273e-01
     vertex  2.939161e-01 -1.000000e+00 -1.387023e-01
     vertex  2.939161e-01  0.000000e+00 -1.387023e-01
   endloop
 endfacet
 facet normal  9.264941e-01  0.000000e+00 -3.763094e-01
   outer loop
     vertex  3.073906e-01  0.000000e+00 -1.055273e-01
     vertex  3.073906e-01 -1.000000e+00 -1.055273e-01
     vertex  2.939161e-01 -1.000000e+00 -1.387023e-01
   endloop
 endfacet
 facet normal  9.622680e-01  0.000000e+00 -2.721035e-01
   outer loop
     vertex  3.073906e-01  0.000000e+00 -1.055273e-01
     vertex  3.171338e-01 -1.000000e+00 -7.107135e-02
     vertex  3.073906e-01 -1.000000e+00 -1.055273e-01
   endloop
 endfacet
 facet normal  9.622680e-01  0.000000e+00 -2.721035e-01
   outer loop
     vertex  3.171338e-01  0.000000e+00 -7.107135e-02
     vertex  3.171338e-01 -1.000000e+00 -7.107135e-02
     vertex  3.073906e-01  0.000000e+00 -1.055273e-01
   endloop
 endfacet
 facet normal  9.863613e-01  0.000000e+00 -1.645946e-01
   outer loop
     vertex  3.230275e-01  0.000000e+00 -3.575267e-02
     vertex  3.171338e-01 -1.000000e+00 -7.107135e-02
     vertex  3.171338e-01  0.000000e+00 -7.107135e-02
   endloop
 endfacet
 facet normal  9.863613e-01  0.000000e+00 -1.645946e-01
   outer loop
     vertex  3.230275e-01  0.000000e+00 -3.575267e-02
     vertex  3.230275e-01 -1.000000e+00 -3.575267e-02
     vertex  3.171338e-01 -1.000000e+00 -7.107135e-02
   endloop
 endfacet
 facet normal  9.984815e-01  0.000000e+00 -5.508776e-02
   outer loop
     vertex  3.250000e-01  0.000000e+00  0.000000e+00
     vertex  3.230275e-01 -1.000000e+00 -3.575267e-02
     vertex  3.230275e-01  0.000000e+00 -3.575267e-02
   endloop
 endfacet
 facet normal  9.984815e-01  0.000000e+00 -5.508776e-02
   outer loop
     vertex  3.250000e-01  0.000000e+00  0.000000e+00
     vertex  3.250000e-01 -1.000000e+00  0.000000e+00
     vertex  3.230275e-01 -1.000000e+00 -3.575267e-02
   endloop
 endfacet
 facet normal  0.000000e+00  1.000000e+00  0.000000e+00
   outer loop
     vertex  2.066102e-01  0.000000e+00 -2.508729e-01
     vertex  1.777582e-01  0.000000e+00 -2.720791e-01
     vertex  1.467483e-01  0.000000e+00 -2.899826e-01
   endloop
 endfacet
 facet normal  0.000000e+00  1.000000e+00  0.000000e+00
   outer loop
     vertex  2.329543e-01  0.000000e+00 -2.266215e-01
     vertex  2.066102e-01  0.000000e+00 -2.508729e-01
     vertex  1.467483e-01  0.000000e+00 -2.899826e-01
   endloop
 endfacet
 facet normal  0.000000e+00  1.000000e+00  0.000000e+00
   outer loop
     vertex  2.329543e-01  0.000000e+00 -2.266215e-01
     vertex  1.467483e-01  0.000000e+00 -2.899826e-01
     vertex  1.139572e-01  0.000000e+00 -3.043662e-01
   endloop
 endfacet
 facet normal  0.000000e+00  1.000000e+00  0.000000e+00
   outer loop
     vertex -2.201165e-01  0.000000e+00  2.391103e-01
     vertex -2.670778e-01  0.000000e+00  1.851876e-01
     vertex -2.450846e-01  0.000000e+00  2.134444e-01
   endloop
 endfacet
 facet normal  0.000000e+00  1.000000e+00  0.000000e+00
   outer loop
     vertex -2.201165e-01  0.000000e+00  2.391103e-01
     vertex -2.858290e-01  0.000000e+00  1.546829e-01
     vertex -2.670778e-01  0.000000e+00  1.851876e-01
   endloop
 endfacet
 facet normal  0.000000e+00  1.000000e+00  0.000000e+00
   outer loop
     vertex  2.768738e-01  0.000000e+00 -1.701937e-01
     vertex  2.564707e-01  0.000000e+00 -1.996191e-01
     vertex  2.329543e-01  0.000000e+00 -2.266215e-01
   endloop
 endfacet
 facet normal  0.000000e+00  1.000000e+00  0.000000e+00
   outer loop
     vertex -1.625000e-01  0.000000e+00  2.814583e-01
     vertex -2.201165e-01  0.000000e+00  2.391103e-01
     vertex -1.924765e-01  0.000000e+00  2.618737e-01
   endloop
 endfacet
 facet normal  0.000000e+00  1.000000e+00  0.000000e+00
   outer loop
     vertex  2.939161e-01  0.000000e+00 -1.387023e-01
     vertex  2.768738e-01  0.000000e+00 -1.701937e-01
     vertex  2.329543e-01  0.000000e+00 -2.266215e-01
   endloop
 endfacet
 facet normal  0.000000e+00  1.000000e+00  0.000000e+00
   outer loop
     vertex  3.073906e-01  0.000000e+00 -1.055273e-01
     vertex  2.939161e-01  0.000000e+00 -1.387023e-01
     vertex  2.329543e-01  0.000000e+00 -2.266215e-01
   endloop
 endfacet
 facet normal  0.000000e+00  1.000000e+00  0.000000e+00
   outer loop
     vertex -6.230596e-02  0.000000e+00  3.189717e-01
     vertex -1.305510e-01  0.000000e+00  2.976263e-01
     vertex -9.701731e-02  0.000000e+00  3.101816e-01
   endloop
 endfacet
 facet normal  0.000000e+00  1.000000e+00  0.000000e+00
   outer loop
     vertex  3.250000e-01  0.000000e+00  0.000000e+00
     vertex  3.230275e-01  0.000000e+00 -3.575267e-02
     vertex  3.171338e-01  0.000000e+00 -7.107135e-02
   endloop
 endfacet
 facet normal  0.000000e+00  1.000000e+00  0.000000e+00
   outer loop
     vertex  3.171338e-01  0.000000e+00  7.107135e-02
     vertex  3.230275e-01  0.000000e+00  3.575267e-02
     vertex  3.250000e-01  0.000000e+00  0.000000e+00
   endloop
 endfacet
 facet normal  0.000000e+00  1.000000e+00  0.000000e+00
   outer loop
     vertex  2.939161e-01  0.000000e+00  1.387023e-01
     vertex  3.073906e-01  0.000000e+00  1.055273e-01
     vertex  3.171338e-01  0.000000e+00  7.107135e-02
   endloop
 endfacet
 facet normal  0.000000e+00  1.000000e+00  0.000000e+00
   outer loop
     vertex  1.467483e-01  0.000000e+00  2.899826e-01
     vertex  7.978278e-02  0.000000e+00  3.150551e-01
     vertex  1.139572e-01  0.000000e+00  3.043662e-01
   endloop
 endfacet
 facet normal  0.000000e+00  1.000000e+00  0.000000e+00
   outer loop
     vertex  2.768738e-01  0.000000e+00  1.701937e-01
     vertex  2.939161e-01  0.000000e+00  1.387023e-01
     vertex  3.171338e-01  0.000000e+00  7.107135e-02
   endloop
 endfacet
 facet normal  0.000000e+00  1.000000e+00  0.000000e+00
   outer loop
     vertex  2.066102e-01  0.000000e+00  2.508729e-01
     vertex  1.467483e-01  0.000000e+00  2.899826e-01
     vertex  1.777582e-01  0.000000e+00  2.720791e-01
   endloop
 endfacet
 facet normal  0.000000e+00  1.000000e+00  0.000000e+00
   outer loop
     vertex  2.329543e-01  0.000000e+00  2.266215e-01
     vertex  2.564707e-01  0.000000e+00  1.996191e-01
     vertex  2.768738e-01  0.000000e+00  1.701937e-01
   endloop
 endfacet
 facet normal  0.000000e+00  1.000000e+00  0.000000e+00
   outer loop
     vertex  2.329543e-01  0.000000e+00  2.266215e-01
     vertex  4.463991e-02  0.000000e+00  3.219197e-01
     vertex  7.978278e-02  0.000000e+00  3.150551e-01
   endloop
 endfacet
 facet normal  0.000000e+00  1.000000e+00  0.000000e+00
   outer loop
     vertex  2.329543e-01  0.000000e+00  2.266215e-01
     vertex  8.955161e-03  0.000000e+00  3.248766e-01
     vertex  4.463991e-02  0.000000e+00  3.219197e-01
   endloop
 endfacet
 facet normal  0.000000e+00  1.000000e+00  0.000000e+00
   outer loop
     vertex  2.329543e-01  0.000000e+00  2.266215e-01
     vertex -2.683829e-02  0.000000e+00  3.238900e-01
     vertex  8.955161e-03  0.000000e+00  3.248766e-01
   endloop
 endfacet
 facet normal  0.000000e+00  1.000000e+00  0.000000e+00
   outer loop
     vertex  2.329543e-01  0.000000e+00  2.266215e-01
     vertex -6.230596e-02  0.000000e+00  3.189717e-01
     vertex -2.683829e-02  0.000000e+00  3.238900e-01
   endloop
 endfacet
 facet normal  0.000000e+00  1.000000e+00  0.000000e+00
   outer loop
     vertex  2.329543e-01  0.000000e+00  2.266215e-01
     vertex  2.329543e-01  0.000000e+00 -2.266215e-01
     vertex  1.139572e-01  0.000000e+00 -3.043662e-01
   endloop
 endfacet
 facet normal  0.000000e+00  1.000000e+00  0.000000e+00
   outer loop
     vertex  2.329543e-01  0.000000e+00  2.266215e-01
     vertex -1.625000e-01  0.000000e+00  2.814583e-01
     vertex -1.305510e-01  0.000000e+00  2.976263e-01
   endloop
 endfacet
 facet normal  0.000000e+00  1.000000e+00  0.000000e+00
   outer loop
     vertex  2.329543e-01  0.000000e+00  2.266215e-01
     vertex -2.201165e-01  0.000000e+00  2.391103e-01
     vertex -1.625000e-01  0.000000e+00  2.814583e-01
   endloop
 endfacet
 facet normal  0.000000e+00  1.000000e+00  0.000000e+00
   outer loop
     vertex  2.329543e-01  0.000000e+00  2.266215e-01
     vertex -3.011106e-01  0.000000e+00  1.223005e-01
     vertex -2.858290e-01  0.000000e+00  1.546829e-01
   endloop
 endfacet
 facet normal  0.000000e+00  1.000000e+00  0.000000e+00
   outer loop
     vertex  2.329543e-01  0.000000e+00  2.266215e-01
     vertex -3.127371e-01  0.000000e+00  8.843363e-02
     vertex -3.011106e-01  0.000000e+00  1.223005e-01
   endloop
 endfacet
 facet normal  0.000000e+00  1.000000e+00  0.000000e+00
   outer loop
     vertex  2.329543e-01  0.000000e+00  2.266215e-01
     vertex -3.205674e-01  0.000000e+00  5.349324e-02
     vertex -3.127371e-01  0.000000e+00  8.843363e-02
   endloop
 endfacet
 facet normal  0.000000e+00  1.000000e+00  0.000000e+00
   outer loop
     vertex  2.329543e-01  0.000000e+00  2.266215e-01
     vertex -3.245065e-01  0.000000e+00  1.790352e-02
     vertex -3.205674e-01  0.000000e+00  5.349324e-02
   endloop
 endfacet
 facet normal  0.000000e+00  1.000000e+00  0.000000e+00
   outer loop
     vertex  2.329543e-01  0.000000e+00  2.266215e-01
     vertex -3.245065e-01  0.000000e+00 -1.790352e-02
     vertex -3.245065e-01  0.000000e+00  1.790352e-02
   endloop
 endfacet
 facet normal  0.000000e+00  1.000000e+00  0.000000e+00
   outer loop
     vertex  2.329543e-01  0.000000e+00  2.266215e-01
     vertex -3.205674e-01  0.000000e+00 -5.349324e-02
     vertex -3.245065e-01  0.000000e+00 -1.790352e-02
   endloop
 endfacet
 facet normal  0.000000e+00  1.000000e+00  0.000000e+00
   outer loop
     vertex  2.329543e-01  0.000000e+00  2.266215e-01
     vertex -3.127371e-01  0.000000e+00 -8.843363e-02
     vertex -3.205674e-01  0.000000e+00 -5.349324e-02
   endloop
 endfacet
 facet normal  0.000000e+00  1.000000e+00  0.000000e+00
   outer loop
     vertex  2.329543e-01  0.000000e+00  2.266215e-01
     vertex -3.011106e-01  0.000000e+00 -1.223005e-01
     vertex -3.127371e-01  0.000000e+00 -8.843363e-02
   endloop
 endfacet
 facet normal  0.000000e+00  1.000000e+00  0.000000e+00
   outer loop
     vertex  2.329543e-01  0.000000e+00  2.266215e-01
     vertex -2.858290e-01  0.000000e+00 -1.546829e-01
     vertex -3.011106e-01  0.000000e+00 -1.223005e-01
   endloop
 endfacet
 facet normal  0.000000e+00  1.000000e+00  0.000000e+00
   outer loop
     vertex  2.329543e-01  0.000000e+00  2.266215e-01
     vertex -2.670778e-01  0.000000e+00 -1.851876e-01
     vertex -2.858290e-01  0.000000e+00 -1.546829e-01
   endloop
 endfacet
 facet normal  0.000000e+00  1.000000e+00  0.000000e+00
   outer loop
     vertex  2.329543e-01  0.000000e+00  2.266215e-01
     vertex -2.450846e-01  0.000000e+00 -2.134444e-01
     vertex -2.670778e-01  0.000000e+00 -1.851876e-01
   endloop
 endfacet
 facet normal  0.000000e+00  1.000000e+00  0.000000e+00
   outer loop
     vertex  2.329543e-01  0.000000e+00  2.266215e-01
     vertex -2.201165e-01  0.000000e+00 -2.391103e-01
     vertex -2.450846e-01  0.000000e+00 -2.134444e-01
   endloop
 endfacet
 facet normal  0.000000e+00  1.000000e+00  0.000000e+00
   outer loop
     vertex  2.329543e-01  0.000000e+00  2.266215e-01
     vertex -1.924765e-01  0.000000e+00 -2.618737e-01
     vertex -2.201165e-01  0.000000e+00 -2.391103e-01
   endloop
 endfacet
 facet normal  0.000000e+00  1.000000e+00  0.000000e+00
   outer loop
     vertex  2.329543e-01  0.000000e+00  2.266215e-01
     vertex -1.625000e-01  0.000000e+00 -2.814583e-01
     vertex -1.924765e-01  0.000000e+00 -2.618737e-01
   endloop
 endfacet
 facet normal  0.000000e+00  1.000000e+00  0.000000e+00
   outer loop
     vertex  2.329543e-01  0.000000e+00  2.266215e-01
     vertex -1.305510e-01  0.000000e+00 -2.976263e-01
     vertex -1.625000e-01  0.000000e+00 -2.814583e-01
   endloop
 endfacet
 facet normal  0.000000e+00  1.000000e+00  0.000000e+00
   outer loop
     vertex  2.329543e-01  0.000000e+00  2.266215e-01
     vertex -9.701731e-02  0.000000e+00 -3.101816e-01
     vertex -1.305510e-01  0.000000e+00 -2.976263e-01
   endloop
 endfacet
 facet normal  0.000000e+00  1.000000e+00  0.000000e+00
   outer loop
     vertex  2.329543e-01  0.000000e+00  2.266215e-01
     vertex -6.230596e-02  0.000000e+00 -3.189717e-01
     vertex -9.701731e-02  0.000000e+00 -3.101816e-01
   endloop
 endfacet
 facet normal  0.000000e+00  1.000000e+00  0.000000e+00
   outer loop
     vertex  2.329543e-01  0.000000e+00  2.266215e-01
     vertex -2.683829e-02  0.000000e+00 -3.238900e-01
     vertex -6.230596e-02  0.000000e+00 -3.189717e-01
   endloop
 endfacet
 facet normal  0.000000e+00  1.000000e+00  0.000000e+00
   outer loop
     vertex  2.329543e-01  0.000000e+00  2.266215e-01
     vertex  8.955161e-03  0.000000e+00 -3.248766e-01
     vertex -2.683829e-02  0.000000e+00 -3.238900e-01
   endloop
 endfacet
 facet normal  0.000000e+00  1.000000e+00  0.000000e+00
   outer loop
     vertex  2.329543e-01  0.000000e+00  2.266215e-01
     vertex  4.463991e-02  0.000000e+00 -3.219197e-01
     vertex  8.955161e-03  0.000000e+00 -3.248766e-01
   endloop
 endfacet
 facet normal  0.000000e+00  1.000000e+00  0.000000e+00
   outer loop
     vertex  2.329543e-01  0.000000e+00  2.266215e-01
     vertex  7.978278e-02  0.000000e+00 -3.150551e-01
     vertex  4.463991e-02  0.000000e+00 -3.219197e-01
   endloop
 endfacet
 facet normal  0.000000e+00  1.000000e+00  0.000000e+00
   outer loop
     vertex  2.329543e-01  0.000000e+00  2.266215e-01
     vertex  1.139572e-01  0.000000e+00 -3.043662e-01
     vertex  7.978278e-02  0.000000e+00 -3.150551e-01
   endloop
 endfacet
 facet normal  0.000000e+00  1.000000e+00  0.000000e+00
   outer loop
     vertex  2.329543e-01  0.000000e+00  2.266215e-01
     vertex  3.250000e-01  0.000000e+00  0.000000e+00
     vertex  3.171338e-01  0.000000e+00 -7.107135e-02
   endloop
 endfacet
 facet normal  0.000000e+00  1.000000e+00  0.000000e+00
   outer loop
     vertex  2.329543e-01  0.000000e+00  2.266215e-01
     vertex  7.978278e-02  0.000000e+00  3.150551e-01
     vertex  1.467483e-01  0.000000e+00  2.899826e-01
   endloop
 endfacet
 facet normal  0.000000e+00  1.000000e+00  0.000000e+00
   outer loop
     vertex  2.329543e-01  0.000000e+00  2.266215e-01
     vertex  3.171338e-01  0.000000e+00 -7.107135e-02
     vertex  3.073906e-01  0.000000e+00 -1.055273e-01
   endloop
 endfacet
 facet normal  0.000000e+00  1.000000e+00  0.000000e+00
   outer loop
     vertex  2.329543e-01  0.000000e+00  2.266215e-01
     vertex  2.768738e-01  0.000000e+00  1.701937e-01
     vertex  3.171338e-01  0.000000e+00  7.107135e-02
   endloop
 endfacet
 facet normal  0.000000e+00  1.000000e+00  0.000000e+00
   outer loop
     vertex  2.329543e-01  0.000000e+00  2.266215e-01
     vertex  3.171338e-01  0.000000e+00  7.107135e-02
     vertex  3.250000e-01  0.000000e+00  0.000000e+00
   endloop
 endfacet
 facet normal  0.000000e+00  1.000000e+00  0.000000e+00
   outer loop
     vertex  2.329543e-01  0.000000e+00  2.266215e-01
     vertex -1.305510e-01  0.000000e+00  2.976263e-01
     vertex -6.230596e-02  0.000000e+00  3.189717e-01
   endloop
 endfacet
 facet normal  0.000000e+00  1.000000e+00  0.000000e+00
   outer loop
     vertex  2.329543e-01  0.000000e+00  2.266215e-01
     vertex  1.467483e-01  0.000000e+00  2.899826e-01
     vertex  2.066102e-01  0.000000e+00  2.508729e-01
   endloop
 endfacet
 facet normal  0.000000e+00  1.000000e+00  0.000000e+00
   outer loop
     vertex  2.329543e-01  0.000000e+00  2.266215e-01
     vertex  3.073906e-01  0.000000e+00 -1.055273e-01
     vertex  2.329543e-01  0.000000e+00 -2.266215e-01
   endloop
 endfacet
 facet normal  0.000000e+00  1.000000e+00  0.000000e+00
   outer loop
     vertex  2.329543e-01  0.000000e+00  2.266215e-01
     vertex -2.858290e-01  0.000000e+00  1.546829e-01
     vertex -2.201165e-01  0.000000e+00  2.391103e-01
   endloop
 endfacet
 facet normal  0.000000e+00 -1.000000e+00  0.000000e+00
   outer loop
     vertex  2.066102e-01 -1.000000e+00 -2.508729e-01
     vertex  1.467483e-01 -1.000000e+00 -2.899826e-01
     vertex  1.777582e-01 -1.000000e+00 -2.720791e-01
   endloop
 endfacet
 facet normal  0.000000e+00 -1.000000e+00  0.000000e+00
   outer loop
     vertex  2.329543e-01 -1.000000e+00 -2.266215e-01
     vertex  1.467483e-01 -1.000000e+00 -2.899826e-01
     vertex  2.066102e-01 -1.000000e+00 -2.508729e-01
   endloop
 endfacet
 facet normal  0.000000e+00 -1.000000e+00  0.000000e+00
   outer loop
     vertex  2.329543e-01 -1.000000e+00 -2.266215e-01
     vertex  1.139572e-01 -1.000000e+00 -3.043662e-01
     vertex  1.467483e-01 -1.000000e+00 -2.899826e-01
   endloop
 endfacet
 facet normal  0.000000e+00 -1.000000e+00  0.000000e+00
   outer loop
     vertex -2.201165e-01 -1.000000e+00  2.391103e-01
     vertex -2.450846e-01 -1.000000e+00  2.134444e-01
     vertex -2.670778e-01 -1.000000e+00  1.851876e-01
   endloop
 endfacet
 facet normal  0.000000e+00 -1.000000e+00  0.000000e+00
   outer loop
     vertex -2.201165e-01 -1.000000e+00  2.391103e-01
     vertex -2.670778e-01 -1.000000e+00  1.851876e-01
     vertex -2.858290e-01 -1.000000e+00  1.546829e-01
   endloop
 endfacet
 facet normal  0.000000e+00 -1.000000e+00  0.000000e+00
   outer loop
     vertex  2.768738e-01 -1.000000e+00 -1.701937e-01
     vertex  2.329543e-01 -1.000000e+00 -2.266215e-01
     vertex  2.564707e-01 -1.000000e+00 -1.996191e-01
   endloop
 endfacet
 facet normal  0.000000e+00 -1.000000e+00  0.000000e+00
   outer loop
     vertex -1.625000e-01 -1.000000e+00  2.814583e-01
     vertex -1.924765e-01 -1.000000e+00  2.618737e-01
     vertex -2.201165e-01 -1.000000e+00  2.391103e-01
   endloop
 endfacet
 facet normal  0.000000e+00 -1.000000e+00  0.000000e+00
   outer loop
     vertex  2.939161e-01 -1.000000e+00 -1.387023e-01
     vertex  2.329543e-01 -1.000000e+00 -2.266215e-01
     vertex  2.768738e-01 -1.000000e+00 -1.701937e-01
   endloop
 endfacet
 facet normal  0.000000e+00 -1.000000e+00  0.000000e+00
   outer loop
     vertex  3.073906e-01 -1.000000e+00 -1.055273e-01
     vertex  2.329543e-01 -1.000000e+00 -2.266215e-01
     vertex  2.939161e-01 -1.000000e+00 -1.387023e-01
   endloop
 endfacet
 facet normal  0.000000e+00 -1.000000e+00  0.000000e+00
   outer loop
     vertex -6.230596e-02 -1.000000e+00  3.189717e-01
     vertex -9.701731e-02 -1.000000e+00  3.101816e-01
     vertex -1.305510e-01 -1.000000e+00  2.976263e-01
   endloop
 endfacet
 facet normal  0.000000e+00 -1.000000e+00  0.000000e+00
   outer loop
     vertex  3.250000e-01 -1.000000e+00  0.000000e+00
     vertex  3.171338e-01 -1.000000e+00 -7.107135e-02
     vertex  3.230275e-01 -1.000000e+00 -3.575267e-02
   endloop
 endfacet
 facet normal  0.000000e+00 -1.000000e+00  0.000000e+00
   outer loop
     vertex  3.171338e-01 -1.000000e+00  7.107135e-02
     vertex  3.250000e-01 -1.000000e+00  0.000000e+00
     vertex  3.230275e-01 -1.000000e+00  3.575267e-02
   endloop
 endfacet
 facet normal  0.000000e+00 -1.000000e+00  0.000000e+00
   outer loop
     vertex  2.939161e-01 -1.000000e+00  1.387023e-01
     vertex  3.171338e-01 -1.000000e+00  7.107135e-02
     vertex  3.073906e-01 -1.000000e+00  1.055273e-01
   endloop
 endfacet
 facet normal  0.000000e+00 -1.000000e+00  0.000000e+00
   outer loop
     vertex  1.467483e-01 -1.000000e+00  2.899826e-01
     vertex  1.139572e-01 -1.000000e+00  3.043662e-01
     vertex  7.978278e-02 -1.000000e+00  3.150551e-01
   endloop
 endfacet
 facet normal  0.000000e+00 -1.000000e+00  0.000000e+00
   outer loop
     vertex  2.768738e-01 -1.000000e+00  1.701937e-01
     vertex  3.171338e-01 -1.000000e+00  7.107135e-02
     vertex  2.939161e-01 -1.000000e+00  1.387023e-01
   endloop
 endfacet
 facet normal  0.000000e+00 -1.000000e+00  0.000000e+00
   outer loop
     vertex  2.066102e-01 -1.000000e+00  2.508729e-01
     vertex  1.777582e-01 -1.000000e+00  2.720791e-01
     vertex  1.467483e-01 -1.000000e+00  2.899826e-01
   endloop
 endfacet
 facet normal  0.000000e+00 -1.000000e+00  0.000000e+00
   outer loop
     vertex  2.329543e-01 -1.000000e+00  2.266215e-01
     vertex  2.768738e-01 -1.000000e+00  1.701937e-01
     vertex  2.564707e-01 -1.000000e+00  1.996191e-01
   endloop
 endfacet
 facet normal  0.000000e+00 -1.000000e+00  0.000000e+00
   outer loop
     vertex  2.329543e-01 -1.000000e+00  2.266215e-01
     vertex  7.978278e-02 -1.000000e+00  3.150551e-01
     vertex  4.463991e-02 -1.000000e+00  3.219197e-01
   endloop
 endfacet
 facet normal  0.000000e+00 -1.000000e+00  0.000000e+00
   outer loop
     vertex  2.329543e-01 -1.000000e+00  2.266215e-01
     vertex  4.463991e-02 -1.000000e+00  3.219197e-01
     vertex  8.955161e-03 -1.000000e+00  3.248766e-01
   endloop
 endfacet
 facet normal  0.000000e+00 -1.000000e+00  0.000000e+00
   outer loop
     vertex  2.329543e-01 -1.000000e+00  2.266215e-01
     vertex  8.955161e-03 -1.000000e+00  3.248766e-01
     vertex -2.683829e-02 -1.000000e+00  3.238900e-01
   endloop
 endfacet
 facet normal  0.000000e+00 -1.000000e+00  0.000000e+00
   outer loop
     vertex  2.329543e-01 -1.000000e+00  2.266215e-01
     vertex -2.683829e-02 -1.000000e+00  3.238900e-01
     vertex -6.230596e-02 -1.000000e+00  3.189717e-01
   endloop
 endfacet
 facet normal  0.000000e+00 -1.000000e+00  0.000000e+00
   outer loop
     vertex  2.329543e-01 -1.000000e+00  2.266215e-01
     vertex  1.139572e-01 -1.000000e+00 -3.043662e-01
     vertex  2.329543e-01 -1.000000e+00 -2.266215e-01
   endloop
 endfacet
 facet normal  0.000000e+00 -1.000000e+00  0.000000e+00
   outer loop
     vertex  2.329543e-01 -1.000000e+00  2.266215e-01
     vertex -1.305510e-01 -1.000000e+00  2.976263e-01
     vertex -1.625000e-01 -1.000000e+00  2.814583e-01
   endloop
 endfacet
 facet normal  0.000000e+00 -1.000000e+00  0.000000e+00
   outer loop
     vertex  2.329543e-01 -1.000000e+00  2.266215e-01
     vertex -1.625000e-01 -1.000000e+00  2.814583e-01
     vertex -2.201165e-01 -1.000000e+00  2.391103e-01
   endloop
 endfacet
 facet normal  0.000000e+00 -1.000000e+00  0.000000e+00
   outer loop
     vertex  2.329543e-01 -1.000000e+00  2.266215e-01
     vertex -2.858290e-01 -1.000000e+00  1.546829e-01
     vertex -3.011106e-01 -1.000000e+00  1.223005e-01
   endloop
 endfacet
 facet normal  0.000000e+00 -1.000000e+00  0.000000e+00
   outer loop
     vertex  2.329543e-01 -1.000000e+00  2.266215e-01
     vertex -3.011106e-01 -1.000000e+00  1.223005e-01
     vertex -3.127371e-01 -1.000000e+00  8.843363e-02
   endloop
 endfacet
 facet normal  0.000000e+00 -1.000000e+00  0.000000e+00
   outer loop
     vertex  2.329543e-01 -1.000000e+00  2.266215e-01
     vertex -3.127371e-01 -1.000000e+00  8.843363e-02
     vertex -3.205674e-01 -1.000000e+00  5.349324e-02
   endloop
 endfacet
 facet normal  0.000000e+00 -1.000000e+00  0.000000e+00
   outer loop
     vertex  2.329543e-01 -1.000000e+00  2.266215e-01
     vertex -3.205674e-01 -1.000000e+00  5.349324e-02
     vertex -3.245065e-01 -1.000000e+00  1.790352e-02
   endloop
 endfacet
 facet normal  0.000000e+00 -1.000000e+00  0.000000e+00
   outer loop
     vertex  2.329543e-01 -1.000000e+00  2.266215e-01
     vertex -3.245065e-01 -1.000000e+00  1.790352e-02
     vertex -3.245065e-01 -1.000000e+00 -1.790352e-02
   endloop
 endfacet
 facet normal  0.000000e+00 -1.000000e+00  0.000000e+00
   outer loop
     vertex  2.329543e-01 -1.000000e+00  2.266215e-01
     vertex -3.245065e-01 -1.000000e+00 -1.790352e-02
     vertex -3.205674e-01 -1.000000e+00 -5.349324e-02
   endloop
 endfacet
 facet normal  0.000000e+00 -1.000000e+00  0.000000e+00
   outer loop
     vertex  2.329543e-01 -1.000000e+00  2.266215e-01
     vertex -3.205674e-01 -1.000000e+00 -5.349324e-02
     vertex -3.127371e-01 -1.000000e+00 -8.843363e-02
   endloop
 endfacet
 facet normal  0.000000e+00 -1.000000e+00  0.000000e+00
   outer loop
     vertex  2.329543e-01 -1.000000e+00  2.266215e-01
     vertex -3.127371e-01 -1.000000e+00 -8.843363e-02
     vertex -3.011106e-01 -1.000000e+00 -1.223005e-01
   endloop
 endfacet
 facet normal  0.000000e+00 -1.000000e+00  0.000000e+00
   outer loop
     vertex  2.329543e-01 -1.000000e+00  2.266215e-01
     vertex -3.011106e-01 -1.000000e+00 -1.223005e-01
     vertex -2.858290e-01 -1.000000e+00 -1.546829e-01
   endloop
 endfacet
 facet normal  0.000000e+00 -1.000000e+00  0.000000e+00
   outer loop
     vertex  2.329543e-01 -1.000000e+00  2.266215e-01
     vertex -2.858290e-01 -1.000000e+00 -1.546829e-01
     vertex -2.670778e-01 -1.000000e+00 -1.851876e-01
   endloop
 endfacet
 facet normal  0.000000e+00 -1.000000e+00  0.000000e+00
   outer loop
     vertex  2.329543e-01 -1.000000e+00  2.266215e-01
     vertex -2.670778e-01 -1.000000e+00 -1.851876e-01
     vertex -2.450846e-01 -1.000000e+00 -2.134444e-01
   endloop
 endfacet
 facet normal  0.000000e+00 -1.000000e+00  0.000000e+00
   outer loop
     vertex  2.329543e-01 -1.000000e+00  2.266215e-01
     vertex -2.450846e-01 -1.000000e+00 -2.134444e-01
     vertex -2.201165e-01 -1.000000e+00 -2.391103e-01
   endloop
 endfacet
 facet normal  0.000000e+00 -1.000000e+00  0.000000e+00
   outer loop
     vertex  2.329543e-01 -1.000000e+00  2.266215e-01
     vertex -2.201165e-01 -1.000000e+00 -2.391103e-01
     vertex -1.924765e-01 -1.000000e+00 -2.618737e-01
   endloop
 endfacet
 facet normal  0.000000e+00 -1.000000e+00  0.000000e+00
   outer loop
     vertex  2.329543e-01 -1.000000e+00  2.266215e-01
     vertex -1.924765e-01 -1.000000e+00 -2.618737e-01
     vertex -1.625000e-01 -1.000000e+00 -2.814583e-01
   endloop
 endfacet
 facet normal  0.000000e+00 -1.000000e+00  0.000000e+00
   outer loop
     vertex  2.329543e-01 -1.000000e+00  2.266215e-01
     vertex -1.625000e-01 -1.000000e+00 -2.814583e-01
     vertex -1.305510e-01 -1.000000e+00 -2.976263e-01
   endloop
 endfacet
 facet normal  0.000000e+00 -1.000000e+00  0.000000e+00
   outer loop
     vertex  2.329543e-01 -1.000000e+00  2.266215e-01
     vertex -1.305510e-01 -1.000000e+00 -2.976263e-01
     vertex -9.701731e-02 -1.000000e+00 -3.101816e-01
   endloop
 endfacet
 facet normal  0.000000e+00 -1.000000e+00  0.000000e+00
   outer loop
     vertex  2.329543e-01 -1.000000e+00  2.266215e-01
     vertex -9.701731e-02 -1.000000e+00 -3.101816e-01
     vertex -6.230596e-02 -1.000000e+00 -3.189717e-01
   endloop
 endfacet
 facet normal  0.000000e+00 -1.000000e+00  0.000000e+00
   outer loop
     vertex  2.329543e-01 -1.000000e+00  2.266215e-01
     vertex -6.230596e-02 -1.000000e+00 -3.189717e-01
     vertex -2.683829e-02 -1.000000e+00 -3.238900e-01
   endloop
 endfacet
 facet normal  0.000000e+00 -1.000000e+00  0.000000e+00
   outer loop
     vertex  2.329543e-01 -1.000000e+00  2.266215e-01
     vertex -2.683829e-02 -1.000000e+00 -3.238900e-01
     vertex  8.955161e-03 -1.000000e+00 -3.248766e-01
   endloop
 endfacet
 facet normal  0.000000e+00 -1.000000e+00  0.000000e+00
   outer loop
     vertex  2.329543e-01 -1.000000e+00  2.266215e-01
     vertex  8.955161e-03 -1.000000e+00 -3.248766e-01
     vertex  4.463991e-02 -1.000000e+00 -3.219197e-01
   endloop
 endfacet
 facet normal  0.000000e+00 -1.000000e+00  0.000000e+00
   outer loop
     vertex  2.329543e-01 -1.000000e+00  2.266215e-01
     vertex  4.463991e-02 -1.000000e+00 -3.219197e-01
     vertex  7.978278e-02 -1.000000e+00 -3.150551e-01
   endloop
 endfacet
 facet normal  0.000000e+00 -1.000000e+00  0.000000e+00
   outer loop
     vertex  2.329543e-01 -1.000000e+00  2.266215e-01
     vertex  7.978278e-02 -1.000000e+00 -3.150551e-01
     vertex  1.139572e-01 -1.000000e+00 -3.043662e-01
   endloop
 endfacet
 facet normal  0.000000e+00 -1.000000e+00  0.000000e+00
   outer loop
     vertex  2.329543e-01 -1.000000e+00  2.266215e-01
     vertex  3.171338e-01 -1.000000e+00 -7.107135e-02
     vertex  3.250000e-01 -1.000000e+00  0.000000e+00
   endloop
 endfacet
 facet normal  0.000000e+00 -1.000000e+00  0.000000e+00
   outer loop
     vertex  2.329543e-01 -1.000000e+00  2.266215e-01
     vertex  1.467483e-01 -1.000000e+00  2.899826e-01
     vertex  7.978278e-02 -1.000000e+00  3.150551e-01
   endloop
 endfacet
 facet normal  0.000000e+00 -1.000000e+00  0.000000e+00
   outer loop
     vertex  2.329543e-01 -1.000000e+00  2.266215e-01
     vertex  3.073906e-01 -1.000000e+00 -1.055273e-01
     vertex  3.171338e-01 -1.000000e+00 -7.107135e-02
   endloop
 endfacet
 facet normal  0.000000e+00 -1.000000e+00  0.000000e+00
   outer loop
     vertex  2.329543e-01 -1.000000e+00  2.266215e-01
     vertex  3.171338e-01 -1.000000e+00  7.107135e-02
     vertex  2.768738e-01 -1.000000e+00  1.701937e-01
   endloop
 endfacet
 facet normal  0.000000e+00 -1.000000e+00  0.000000e+00
   outer loop
     vertex  2.329543e-01 -1.000000e+00  2.266215e-01
     vertex  3.250000e-01 -1.000000e+00  0.000000e+00
     vertex  3.171338e-01 -1.000000e+00  7.107135e-02
   endloop
 endfacet
 facet normal  0.000000e+00 -1.000000e+00  0.000000e+00
   outer loop
     vertex  2.329543e-01 -1.000000e+00  2.266215e-01
     vertex -6.230596e-02 -1.000000e+00  3.189717e-01
     vertex -1.305510e-01 -1.000000e+00  2.976263e-01
   endloop
 endfacet
 facet normal  0.000000e+00 -1.000000e+00  0.000000e+00
   outer loop
     vertex  2.329543e-01 -1.000000e+00  2.266215e-01
     vertex  2.066102e-01 -1.000000e+00  2.508729e-01
     vertex  1.467483e-01 -1.000000e+00  2.899826e-01
   endloop
 endfacet
 facet normal  0.000000e+00 -1.000000e+00 -0.000000e+00
   outer loop
     vertex  2.329543e-01 -1.000000e+00  2.266215e-01
     vertex  2.329543e-01 -1.000000e+00 -2.266215e-01
     vertex  3.073906e-01 -1.000000e+00 -1.055273e-01
   endloop
 endfacet
 facet normal -0.000000e+00 -1.000000e+00  0.000000e+00
   outer loop
     vertex  2.329543e-01 -1.000000e+00  2.266215e-01
     vertex -2.201165e-01 -1.000000e+00  2.391103e-01
     vertex -2.858290e-01 -1.000000e+00  1.546829e-01
   endloop
 endfacet
endsolid
