solid 
 facet normal -6.111006e-02  9.981310e-01  0.000000e+00
   outer loop
     vertex -9.800000e-01  3.700000e-01  0.000000e+00
     vertex  9.800000e-01  4.900000e-01  1.200000e-01
     vertex  9.800000e-01  4.900000e-01  0.000000e+00
   endloop
 endfacet
 facet normal -6.111006e-02  9.981310e-01  0.000000e+00
   outer loop
     vertex -9.800000e-01  3.700000e-01  0.000000e+00
     vertex -9.800000e-01  3.700000e-01  1.200000e-01
     vertex  9.800000e-01  4.900000e-01  1.200000e-01
   endloop
 endfacet
 facet normal -1.000000e+00  0.000000e+00  0.000000e+00
   outer loop
     vertex -9.800000e-01 -6.000000e-02  0.000000e+00
     vertex -9.800000e-01  3.700000e-01  1.200000e-01
     vertex -9.800000e-01  3.700000e-01  0.000000e+00
   endloop
 endfacet
 facet normal -1.000000e+00  0.000000e+00  0.000000e+00
   outer loop
     vertex -9.800000e-01 -6.000000e-02  0.000000e+00
     vertex -9.800000e-01 -6.000000e-02  1.200000e-01
     vertex -9.800000e-01  3.700000e-01  1.200000e-01
   endloop
 endfacet
 facet normal  0.000000e+00 -1.000000e+00  0.000000e+00
   outer loop
     vertex -9.800000e-01 -6.000000e-02  0.000000e+00
     vertex  9.800000e-01 -6.000000e-02  0.000000e+00
     vertex  9.800000e-01 -6.000000e-02  1.200000e-01
   endloop
 endfacet
 facet normal  0.000000e+00 -1.000000e+00  0.000000e+00
   outer loop
     vertex -9.800000e-01 -6.000000e-02  0.000000e+00
     vertex  9.800000e-01 -6.000000e-02  1.200000e-01
     vertex -9.800000e-01 -6.000000e-02  1.200000e-01
   endloop
 endfacet
 facet normal  1.000000e+00  0.000000e+00  0.000000e+00
   outer loop
     vertex  9.800000e-01 -6.000000e-02  0.000000e+00
     vertex  9.800000e-01  4.900000e-01  0.000000e+00
     vertex  9.800000e-01  4.900000e-01  1.200000e-01
   endloop
 endfacet
 facet normal  1.000000e+00  0.000000e+00  0.000000e+00
   outer loop
     vertex  9.800000e-01 -6.000000e-02  0.000000e+00
     vertex  9.800000e-01  4.900000e-01  1.200000e-01
     vertex  9.800000e-01 -6.000000e-02  1.200000e-01
   endloop
 endfacet
 facet normal  0.000000e+00  0.000000e+00 -1.000000e+00
   outer loop
     vertex  9.800000e-01 -6.000000e-02  0.000000e+00
     vertex -9.800000e-01 -6.000000e-02  0.000000e+00
     vertex -9.800000e-01  3.700000e-01  0.000000e+00
   endloop
 endfacet
 facet normal  0.000000e+00 -0.000000e+00 -1.000000e+00
   outer loop
     vertex  9.800000e-01  4.900000e-01  0.000000e+00
     vertex  9.800000e-01 -6.000000e-02  0.000000e+00
     vertex -9.800000e-01  3.700000e-01  0.000000e+00
   endloop
 endfacet
 facet normal  0.000000e+00  0.000000e+00  1.000000e+00
   outer loop
     vertex  9.800000e-01 -6.000000e-02  1.200000e-01
     vertex -9.800000e-01  3.700000e-01  1.200000e-01
     vertex -9.800000e-01 -6.000000e-02  1.200000e-01
   endloop
 endfacet
 facet normal  0.000000e+00  0.000000e+00  1.000000e+00
   outer loop
     vertex  9.800000e-01  4.900000e-01  1.200000e-01
     vertex -9.800000e-01  3.700000e-01  1.200000e-01
     vertex  9.800000e-01 -6.000000e-02  1.200000e-01
   endloop
 endfacet
endsolid
