solid 
 facet normal -0.000000e+00  0.000000e+00 -1.000000e+00
   outer loop
     vertex  9.800000e-01  0.000000e+00  0.000000e+00
     vertex  0.000000e+00 -6.550000e-01  0.000000e+00
     vertex  0.000000e+00  0.000000e+00  0.000000e+00
   endloop
 endfacet
 facet normal  0.000000e+00 -0.000000e+00 -1.000000e+00
   outer loop
     vertex  9.800000e-01  0.000000e+00  0.000000e+00
     vertex  9.800000e-01 -6.550000e-01  0.000000e+00
     vertex  0.000000e+00 -6.550000e-01  0.000000e+00
   endloop
 endfacet
 facet normal  1.000000e+00  0.000000e+00  0.000000e+00
   outer loop
     vertex  9.800000e-01  0.000000e+00  8.150000e-01
     vertex  9.800000e-01 -6.550000e-01  0.000000e+00
     vertex  9.800000e-01  0.000000e+00  0.000000e+00
   endloop
 endfacet
 facet normal  1.000000e+00  0.000000e+00  0.000000e+00
   outer loop
     vertex  9.800000e-01  0.000000e+00  8.150000e-01
     vertex  9.800000e-01 -6.550000e-01  8.150000e-01
     vertex  9.800000e-01 -6.550000e-01  0.000000e+00
   endloop
 endfacet
 facet normal -0.000000e+00  0.000000e+00  1.000000e+00
   outer loop
     vertex  0.000000e+00  0.000000e+00  8.150000e-01
     vertex  9.800000e-01 -6.550000e-01  8.150000e-01
     vertex  9.800000e-01  0.000000e+00  8.150000e-01
   endloop
 endfacet
 facet normal  0.000000e+00  0.000000e+00  1.000000e+00
   outer loop
     vertex  0.000000e+00  0.000000e+00  8.150000e-01
     vertex  0.000000e+00 -6.550000e-01  8.150000e-01
     vertex  9.800000e-01 -6.550000e-01  8.150000e-01
   endloop
 endfacet
 facet normal -1.000000e+00  0.000000e+00 -0.000000e+00
   outer loop
     vertex  0.000000e+00  0.000000e+00  8.150000e-01
     vertex  0.000000e+00  0.000000e+00  0.000000e+00
     vertex  0.000000e+00 -6.550000e-01  0.000000e+00
   endloop
 endfacet
 facet normal -1.000000e+00 -0.000000e+00  0.000000e+00
   outer loop
     vertex  0.000000e+00  0.000000e+00  8.150000e-01
     vertex  0.000000e+00 -6.550000e-01  0.000000e+00
     vertex  0.000000e+00 -6.550000e-01  8.150000e-01
   endloop
 endfacet
 facet normal  0.000000e+00  1.000000e+00  0.000000e+00
   outer loop
     vertex  9.800000e-01  0.000000e+00  8.150000e-01
     vertex  9.800000e-01  0.000000e+00  0.000000e+00
     vertex  0.000000e+00  0.000000e+00  0.000000e+00
   endloop
 endfacet
 facet normal  0.000000e+00  1.000000e+00  0.000000e+00
   outer loop
     vertex  9.800000e-01  0.000000e+00  8.150000e-01
     vertex  0.000000e+00  0.000000e+00  0.000000e+00
     vertex  0.000000e+00  0.000000e+00  8.150000e-01
   endloop
 endfacet
 facet normal  0.000000e+00 -1.000000e+00 -0.000000e+00
   outer loop
     vertex  9.800000e-01 -6.550000e-01  8.150000e-01
     vertex  0.000000e+00 -6.550000e-01  0.000000e+00
     vertex  9.800000e-01 -6.550000e-01  0.000000e+00
   endloop
 endfacet
 facet normal -0.000000e+00 -1.000000e+00  0.000000e+00
   outer loop
     vertex  9.800000e-01 -6.550000e-01  8.150000e-01
     vertex  0.000000e+00 -6.550000e-01  8.150000e-01
     vertex  0.000000e+00 -6.550000e-01  0.000000e+00
   endloop
 endfacet
 facet normal -0.000000e+00  0.000000e+00 -1.000000e+00
   outer loop
     vertex  9.849000e+01 -1.305100e+02  8.159000e+01
     vertex  9.783500e+01 -1.310000e+02  8.159000e+01
     vertex  9.783500e+01 -1.305100e+02  8.159000e+01
   endloop
 endfacet
 facet normal  0.000000e+00  0.000000e+00 -1.000000e+00
   outer loop
     vertex  9.849000e+01 -1.310000e+02  8.159000e+01
     vertex  9.783500e+01 -1.310000e+02  8.159000e+01
     vertex  9.849000e+01 -1.305100e+02  8.159000e+01
   endloop
 endfacet
 facet normal  1.000000e+00  0.000000e+00  0.000000e+00
   outer loop
     vertex  9.849000e+01 -1.305100e+02  8.241000e+01
     vertex  9.849000e+01 -1.310000e+02  8.159000e+01
     vertex  9.849000e+01 -1.305100e+02  8.159000e+01
   endloop
 endfacet
 facet normal  1.000000e+00 -0.000000e+00  0.000000e+00
   outer loop
     vertex  9.849000e+01 -1.310000e+02  8.241000e+01
     vertex  9.849000e+01 -1.310000e+02  8.159000e+01
     vertex  9.849000e+01 -1.305100e+02  8.241000e+01
   endloop
 endfacet
 facet normal -0.000000e+00  0.000000e+00  1.000000e+00
   outer loop
     vertex  9.783500e+01 -1.305100e+02  8.241000e+01
     vertex  9.849000e+01 -1.310000e+02  8.241000e+01
     vertex  9.849000e+01 -1.305100e+02  8.241000e+01
   endloop
 endfacet
 facet normal  0.000000e+00  0.000000e+00  1.000000e+00
   outer loop
     vertex  9.783500e+01 -1.310000e+02  8.241000e+01
     vertex  9.849000e+01 -1.310000e+02  8.241000e+01
     vertex  9.783500e+01 -1.305100e+02  8.241000e+01
   endloop
 endfacet
 facet normal -1.000000e+00  0.000000e+00 -0.000000e+00
   outer loop
     vertex  9.783500e+01 -1.305100e+02  8.241000e+01
     vertex  9.783500e+01 -1.305100e+02  8.159000e+01
     vertex  9.783500e+01 -1.310000e+02  8.159000e+01
   endloop
 endfacet
 facet normal -1.000000e+00  0.000000e+00  0.000000e+00
   outer loop
     vertex  9.783500e+01 -1.310000e+02  8.241000e+01
     vertex  9.783500e+01 -1.305100e+02  8.241000e+01
     vertex  9.783500e+01 -1.310000e+02  8.159000e+01
   endloop
 endfacet
 facet normal  0.000000e+00 -1.000000e+00 -0.000000e+00
   outer loop
     vertex  9.849000e+01 -1.310000e+02  8.241000e+01
     vertex  9.783500e+01 -1.310000e+02  8.159000e+01
     vertex  9.849000e+01 -1.310000e+02  8.159000e+01
   endloop
 endfacet
 facet normal -0.000000e+00 -1.000000e+00  0.000000e+00
   outer loop
     vertex  9.849000e+01 -1.310000e+02  8.241000e+01
     vertex  9.783500e+01 -1.310000e+02  8.241000e+01
     vertex  9.783500e+01 -1.310000e+02  8.159000e+01
   endloop
 endfacet
 facet normal  0.000000e+00  1.000000e+00  0.000000e+00
   outer loop
     vertex  9.849000e+01 -1.305100e+02  8.241000e+01
     vertex  9.849000e+01 -1.305100e+02  8.159000e+01
     vertex  9.783500e+01 -1.305100e+02  8.159000e+01
   endloop
 endfacet
 facet normal  0.000000e+00  1.000000e+00  0.000000e+00
   outer loop
     vertex  9.849000e+01 -1.305100e+02  8.241000e+01
     vertex  9.783500e+01 -1.305100e+02  8.159000e+01
     vertex  9.783500e+01 -1.305100e+02  8.241000e+01
   endloop
 endfacet
endsolid
