solid 
 facet normal  0.000000e+00 -1.000000e+00  0.000000e+00
   outer loop
     vertex  2.400000e-01  0.000000e+00  0.000000e+00
     vertex  0.000000e+00  0.000000e+00  1.000000e+00
     vertex  0.000000e+00  0.000000e+00  0.000000e+00
   endloop
 endfacet
 facet normal  0.000000e+00 -1.000000e+00  0.000000e+00
   outer loop
     vertex  2.400000e-01  0.000000e+00  0.000000e+00
     vertex  2.400000e-01  0.000000e+00  1.000000e+00
     vertex  0.000000e+00  0.000000e+00  1.000000e+00
   endloop
 endfacet
 facet normal  5.087293e-01 -8.609265e-01  0.000000e+00
   outer loop
     vertex  3.500000e-01  6.500000e-02  0.000000e+00
     vertex  2.400000e-01  0.000000e+00  1.000000e+00
     vertex  2.400000e-01  0.000000e+00  0.000000e+00
   endloop
 endfacet
 facet normal  5.087293e-01 -8.609265e-01  0.000000e+00
   outer loop
     vertex  3.500000e-01  6.500000e-02  0.000000e+00
     vertex  3.500000e-01  6.500000e-02  1.000000e+00
     vertex  2.400000e-01  0.000000e+00  1.000000e+00
   endloop
 endfacet
 facet normal  8.904932e-01  4.549965e-01  0.000000e+00
   outer loop
     vertex  3.500000e-01  6.500000e-02  0.000000e+00
     vertex  0.000000e+00  7.500000e-01  0.000000e+00
     vertex  0.000000e+00  7.500000e-01  1.000000e+00
   endloop
 endfacet
 facet normal  8.904932e-01  4.549965e-01 -0.000000e+00
   outer loop
     vertex  3.500000e-01  6.500000e-02  0.000000e+00
     vertex  0.000000e+00  7.500000e-01  1.000000e+00
     vertex  3.500000e-01  6.500000e-02  1.000000e+00
   endloop
 endfacet
 facet normal -1.000000e+00  0.000000e+00  0.000000e+00
   outer loop
     vertex  0.000000e+00  7.500000e-01  0.000000e+00
     vertex  0.000000e+00  0.000000e+00  0.000000e+00
     vertex  0.000000e+00  0.000000e+00  1.000000e+00
   endloop
 endfacet
 facet normal -1.000000e+00  0.000000e+00  0.000000e+00
   outer loop
     vertex  0.000000e+00  7.500000e-01  0.000000e+00
     vertex  0.000000e+00  0.000000e+00  1.000000e+00
     vertex  0.000000e+00  7.500000e-01  1.000000e+00
   endloop
 endfacet
 facet normal  0.000000e+00  0.000000e+00 -1.000000e+00
   outer loop
     vertex  3.500000e-01  6.500000e-02  0.000000e+00
     vertex  2.400000e-01  0.000000e+00  0.000000e+00
     vertex  0.000000e+00  0.000000e+00  0.000000e+00
   endloop
 endfacet
 facet normal  0.000000e+00  0.000000e+00 -1.000000e+00
   outer loop
     vertex  0.000000e+00  7.500000e-01  0.000000e+00
     vertex  3.500000e-01  6.500000e-02  0.000000e+00
     vertex  0.000000e+00  0.000000e+00  0.000000e+00
   endloop
 endfacet
 facet normal  0.000000e+00  0.000000e+00  1.000000e+00
   outer loop
     vertex  3.500000e-01  6.500000e-02  1.000000e+00
     vertex  0.000000e+00  0.000000e+00  1.000000e+00
     vertex  2.400000e-01  0.000000e+00  1.000000e+00
   endloop
 endfacet
 facet normal  0.000000e+00  0.000000e+00  1.000000e+00
   outer loop
     vertex  0.000000e+00  7.500000e-01  1.000000e+00
     vertex  0.000000e+00  0.000000e+00  1.000000e+00
     vertex  3.500000e-01  6.500000e-02  1.000000e+00
   endloop
 endfacet
endsolid
