solid 
 facet normal  9.927089e-01  0.000000e+00  1.205367e-01
   outer loop
     vertex  5.825651e-02 -2.500000e+01  1.201436e+01
     vertex  6.000000e-02 -2.500000e+01  1.200000e+01
     vertex  6.000000e-02 -2.467500e+01  1.200000e+01
   endloop
 endfacet
 facet normal  9.927089e-01 -0.000000e+00  1.205367e-01
   outer loop
     vertex  5.825651e-02 -2.500000e+01  1.201436e+01
     vertex  6.000000e-02 -2.467500e+01  1.200000e+01
     vertex  5.825651e-02 -2.467500e+01  1.201436e+01
   endloop
 endfacet
 facet normal  9.350162e-01 -0.000000e+00  3.546049e-01
   outer loop
     vertex  5.312736e-02 -2.500000e+01  1.202788e+01
     vertex  5.825651e-02 -2.467500e+01  1.201436e+01
     vertex  5.312736e-02 -2.467500e+01  1.202788e+01
   endloop
 endfacet
 facet normal  9.350162e-01  0.000000e+00  3.546049e-01
   outer loop
     vertex  5.312736e-02 -2.500000e+01  1.202788e+01
     vertex  5.825651e-02 -2.500000e+01  1.201436e+01
     vertex  5.825651e-02 -2.467500e+01  1.201436e+01
   endloop
 endfacet
 facet normal  8.229839e-01 -0.000000e+00  5.680647e-01
   outer loop
     vertex  4.491064e-02 -2.500000e+01  1.203979e+01
     vertex  5.312736e-02 -2.467500e+01  1.202788e+01
     vertex  4.491064e-02 -2.467500e+01  1.203979e+01
   endloop
 endfacet
 facet normal  8.229839e-01  0.000000e+00  5.680647e-01
   outer loop
     vertex  4.491064e-02 -2.500000e+01  1.203979e+01
     vertex  5.312736e-02 -2.500000e+01  1.202788e+01
     vertex  5.312736e-02 -2.467500e+01  1.202788e+01
   endloop
 endfacet
 facet normal  6.631227e-01 -0.000000e+00  7.485107e-01
   outer loop
     vertex  3.408388e-02 -2.500000e+01  1.204938e+01
     vertex  4.491064e-02 -2.467500e+01  1.203979e+01
     vertex  3.408388e-02 -2.467500e+01  1.204938e+01
   endloop
 endfacet
 facet normal  6.631227e-01  0.000000e+00  7.485107e-01
   outer loop
     vertex  3.408388e-02 -2.500000e+01  1.204938e+01
     vertex  4.491064e-02 -2.500000e+01  1.203979e+01
     vertex  4.491064e-02 -2.467500e+01  1.203979e+01
   endloop
 endfacet
 facet normal  4.647232e-01 -0.000000e+00  8.854560e-01
   outer loop
     vertex  2.127629e-02 -2.500000e+01  1.205610e+01
     vertex  3.408388e-02 -2.467500e+01  1.204938e+01
     vertex  2.127629e-02 -2.467500e+01  1.205610e+01
   endloop
 endfacet
 facet normal  4.647232e-01  0.000000e+00  8.854560e-01
   outer loop
     vertex  2.127629e-02 -2.500000e+01  1.205610e+01
     vertex  3.408388e-02 -2.500000e+01  1.204938e+01
     vertex  3.408388e-02 -2.467500e+01  1.204938e+01
   endloop
 endfacet
 facet normal  2.393157e-01 -0.000000e+00  9.709418e-01
   outer loop
     vertex  7.232201e-03 -2.500000e+01  1.205956e+01
     vertex  2.127629e-02 -2.467500e+01  1.205610e+01
     vertex  7.232201e-03 -2.467500e+01  1.205956e+01
   endloop
 endfacet
 facet normal  2.393157e-01  0.000000e+00  9.709418e-01
   outer loop
     vertex  7.232201e-03 -2.500000e+01  1.205956e+01
     vertex  2.127629e-02 -2.500000e+01  1.205610e+01
     vertex  2.127629e-02 -2.467500e+01  1.205610e+01
   endloop
 endfacet
 facet normal  0.000000e+00  0.000000e+00  1.000000e+00
   outer loop
     vertex -7.232201e-03 -2.500000e+01  1.205956e+01
     vertex  7.232201e-03 -2.467500e+01  1.205956e+01
     vertex -7.232201e-03 -2.467500e+01  1.205956e+01
   endloop
 endfacet
 facet normal  0.000000e+00  0.000000e+00  1.000000e+00
   outer loop
     vertex -7.232201e-03 -2.500000e+01  1.205956e+01
     vertex  7.232201e-03 -2.500000e+01  1.205956e+01
     vertex  7.232201e-03 -2.467500e+01  1.205956e+01
   endloop
 endfacet
 facet normal -2.393157e-01  0.000000e+00  9.709418e-01
   outer loop
     vertex -2.127629e-02 -2.500000e+01  1.205610e+01
     vertex -7.232201e-03 -2.467500e+01  1.205956e+01
     vertex -2.127629e-02 -2.467500e+01  1.205610e+01
   endloop
 endfacet
 facet normal -2.393157e-01  0.000000e+00  9.709418e-01
   outer loop
     vertex -2.127629e-02 -2.500000e+01  1.205610e+01
     vertex -7.232201e-03 -2.500000e+01  1.205956e+01
     vertex -7.232201e-03 -2.467500e+01  1.205956e+01
   endloop
 endfacet
 facet normal -4.647232e-01  0.000000e+00  8.854560e-01
   outer loop
     vertex -3.408388e-02 -2.500000e+01  1.204938e+01
     vertex -2.127629e-02 -2.467500e+01  1.205610e+01
     vertex -3.408388e-02 -2.467500e+01  1.204938e+01
   endloop
 endfacet
 facet normal -6.631227e-01  0.000000e+00  7.485107e-01
   outer loop
     vertex -3.408388e-02 -2.500000e+01  1.204938e+01
     vertex -3.408388e-02 -2.467500e+01  1.204938e+01
     vertex -4.491064e-02 -2.467500e+01  1.203979e+01
   endloop
 endfacet
 facet normal -4.647232e-01  0.000000e+00  8.854560e-01
   outer loop
     vertex -3.408388e-02 -2.500000e+01  1.204938e+01
     vertex -2.127629e-02 -2.500000e+01  1.205610e+01
     vertex -2.127629e-02 -2.467500e+01  1.205610e+01
   endloop
 endfacet
 facet normal -6.631227e-01  0.000000e+00  7.485107e-01
   outer loop
     vertex -4.491064e-02 -2.500000e+01  1.203979e+01
     vertex -3.408388e-02 -2.500000e+01  1.204938e+01
     vertex -4.491064e-02 -2.467500e+01  1.203979e+01
   endloop
 endfacet
 facet normal -8.229839e-01  0.000000e+00  5.680647e-01
   outer loop
     vertex -5.312736e-02 -2.500000e+01  1.202788e+01
     vertex -4.491064e-02 -2.500000e+01  1.203979e+01
     vertex -4.491064e-02 -2.467500e+01  1.203979e+01
   endloop
 endfacet
 facet normal -8.229839e-01  0.000000e+00  5.680647e-01
   outer loop
     vertex -5.312736e-02 -2.500000e+01  1.202788e+01
     vertex -4.491064e-02 -2.467500e+01  1.203979e+01
     vertex -5.312736e-02 -2.467500e+01  1.202788e+01
   endloop
 endfacet
 facet normal -9.350162e-01  0.000000e+00  3.546049e-01
   outer loop
     vertex -5.825651e-02 -2.500000e+01  1.201436e+01
     vertex -5.312736e-02 -2.500000e+01  1.202788e+01
     vertex -5.312736e-02 -2.467500e+01  1.202788e+01
   endloop
 endfacet
 facet normal -9.350162e-01  0.000000e+00  3.546049e-01
   outer loop
     vertex -5.825651e-02 -2.500000e+01  1.201436e+01
     vertex -5.312736e-02 -2.467500e+01  1.202788e+01
     vertex -5.825651e-02 -2.467500e+01  1.201436e+01
   endloop
 endfacet
 facet normal -9.927089e-01  0.000000e+00  1.205367e-01
   outer loop
     vertex -6.000000e-02 -2.500000e+01  1.200000e+01
     vertex -5.825651e-02 -2.500000e+01  1.201436e+01
     vertex -5.825651e-02 -2.467500e+01  1.201436e+01
   endloop
 endfacet
 facet normal -9.927089e-01  0.000000e+00  1.205367e-01
   outer loop
     vertex -6.000000e-02 -2.500000e+01  1.200000e+01
     vertex -5.825651e-02 -2.467500e+01  1.201436e+01
     vertex -6.000000e-02 -2.467500e+01  1.200000e+01
   endloop
 endfacet
 facet normal -9.927089e-01  0.000000e+00 -1.205367e-01
   outer loop
     vertex -5.825651e-02 -2.500000e+01  1.198564e+01
     vertex -6.000000e-02 -2.500000e+01  1.200000e+01
     vertex -6.000000e-02 -2.467500e+01  1.200000e+01
   endloop
 endfacet
 facet normal -9.927089e-01  0.000000e+00 -1.205367e-01
   outer loop
     vertex -5.825651e-02 -2.500000e+01  1.198564e+01
     vertex -6.000000e-02 -2.467500e+01  1.200000e+01
     vertex -5.825651e-02 -2.467500e+01  1.198564e+01
   endloop
 endfacet
 facet normal -9.350162e-01  0.000000e+00 -3.546049e-01
   outer loop
     vertex -5.312736e-02 -2.500000e+01  1.197212e+01
     vertex -5.825651e-02 -2.500000e+01  1.198564e+01
     vertex -5.825651e-02 -2.467500e+01  1.198564e+01
   endloop
 endfacet
 facet normal -9.350162e-01  0.000000e+00 -3.546049e-01
   outer loop
     vertex -5.312736e-02 -2.500000e+01  1.197212e+01
     vertex -5.825651e-02 -2.467500e+01  1.198564e+01
     vertex -5.312736e-02 -2.467500e+01  1.197212e+01
   endloop
 endfacet
 facet normal -8.229839e-01  0.000000e+00 -5.680647e-01
   outer loop
     vertex -5.312736e-02 -2.500000e+01  1.197212e+01
     vertex -5.312736e-02 -2.467500e+01  1.197212e+01
     vertex -4.491064e-02 -2.467500e+01  1.196021e+01
   endloop
 endfacet
 facet normal -6.631227e-01  0.000000e+00 -7.485107e-01
   outer loop
     vertex -4.491064e-02 -2.500000e+01  1.196021e+01
     vertex -4.491064e-02 -2.467500e+01  1.196021e+01
     vertex -3.408388e-02 -2.467500e+01  1.195062e+01
   endloop
 endfacet
 facet normal -8.229839e-01  0.000000e+00 -5.680647e-01
   outer loop
     vertex -4.491064e-02 -2.500000e+01  1.196021e+01
     vertex -5.312736e-02 -2.500000e+01  1.197212e+01
     vertex -4.491064e-02 -2.467500e+01  1.196021e+01
   endloop
 endfacet
 facet normal -6.631227e-01  0.000000e+00 -7.485107e-01
   outer loop
     vertex -3.408388e-02 -2.500000e+01  1.195062e+01
     vertex -4.491064e-02 -2.500000e+01  1.196021e+01
     vertex -3.408388e-02 -2.467500e+01  1.195062e+01
   endloop
 endfacet
 facet normal -4.647232e-01  0.000000e+00 -8.854560e-01
   outer loop
     vertex -2.127629e-02 -2.500000e+01  1.194390e+01
     vertex -3.408388e-02 -2.467500e+01  1.195062e+01
     vertex -2.127629e-02 -2.467500e+01  1.194390e+01
   endloop
 endfacet
 facet normal -2.393157e-01  0.000000e+00 -9.709418e-01
   outer loop
     vertex -2.127629e-02 -2.500000e+01  1.194390e+01
     vertex -2.127629e-02 -2.467500e+01  1.194390e+01
     vertex -7.232201e-03 -2.467500e+01  1.194044e+01
   endloop
 endfacet
 facet normal -4.647232e-01  0.000000e+00 -8.854560e-01
   outer loop
     vertex -2.127629e-02 -2.500000e+01  1.194390e+01
     vertex -3.408388e-02 -2.500000e+01  1.195062e+01
     vertex -3.408388e-02 -2.467500e+01  1.195062e+01
   endloop
 endfacet
 facet normal -2.393157e-01  0.000000e+00 -9.709418e-01
   outer loop
     vertex -7.232201e-03 -2.500000e+01  1.194044e+01
     vertex -2.127629e-02 -2.500000e+01  1.194390e+01
     vertex -7.232201e-03 -2.467500e+01  1.194044e+01
   endloop
 endfacet
 facet normal  0.000000e+00  0.000000e+00 -1.000000e+00
   outer loop
     vertex  7.232201e-03 -2.500000e+01  1.194044e+01
     vertex -7.232201e-03 -2.467500e+01  1.194044e+01
     vertex  7.232201e-03 -2.467500e+01  1.194044e+01
   endloop
 endfacet
 facet normal  2.393157e-01  0.000000e+00 -9.709418e-01
   outer loop
     vertex  7.232201e-03 -2.500000e+01  1.194044e+01
     vertex  7.232201e-03 -2.467500e+01  1.194044e+01
     vertex  2.127629e-02 -2.467500e+01  1.194390e+01
   endloop
 endfacet
 facet normal  0.000000e+00  0.000000e+00 -1.000000e+00
   outer loop
     vertex  7.232201e-03 -2.500000e+01  1.194044e+01
     vertex -7.232201e-03 -2.500000e+01  1.194044e+01
     vertex -7.232201e-03 -2.467500e+01  1.194044e+01
   endloop
 endfacet
 facet normal  2.393157e-01  0.000000e+00 -9.709418e-01
   outer loop
     vertex  2.127629e-02 -2.500000e+01  1.194390e+01
     vertex  7.232201e-03 -2.500000e+01  1.194044e+01
     vertex  2.127629e-02 -2.467500e+01  1.194390e+01
   endloop
 endfacet
 facet normal  4.647232e-01  0.000000e+00 -8.854560e-01
   outer loop
     vertex  3.408388e-02 -2.500000e+01  1.195062e+01
     vertex  2.127629e-02 -2.467500e+01  1.194390e+01
     vertex  3.408388e-02 -2.467500e+01  1.195062e+01
   endloop
 endfacet
 facet normal  6.631227e-01  0.000000e+00 -7.485107e-01
   outer loop
     vertex  3.408388e-02 -2.500000e+01  1.195062e+01
     vertex  3.408388e-02 -2.467500e+01  1.195062e+01
     vertex  4.491064e-02 -2.467500e+01  1.196021e+01
   endloop
 endfacet
 facet normal  4.647232e-01  0.000000e+00 -8.854560e-01
   outer loop
     vertex  3.408388e-02 -2.500000e+01  1.195062e+01
     vertex  2.127629e-02 -2.500000e+01  1.194390e+01
     vertex  2.127629e-02 -2.467500e+01  1.194390e+01
   endloop
 endfacet
 facet normal  6.631227e-01  0.000000e+00 -7.485107e-01
   outer loop
     vertex  4.491064e-02 -2.500000e+01  1.196021e+01
     vertex  3.408388e-02 -2.500000e+01  1.195062e+01
     vertex  4.491064e-02 -2.467500e+01  1.196021e+01
   endloop
 endfacet
 facet normal  8.229839e-01  0.000000e+00 -5.680647e-01
   outer loop
     vertex  5.312736e-02 -2.500000e+01  1.197212e+01
     vertex  4.491064e-02 -2.467500e+01  1.196021e+01
     vertex  5.312736e-02 -2.467500e+01  1.197212e+01
   endloop
 endfacet
 facet normal  8.229839e-01  0.000000e+00 -5.680647e-01
   outer loop
     vertex  5.312736e-02 -2.500000e+01  1.197212e+01
     vertex  4.491064e-02 -2.500000e+01  1.196021e+01
     vertex  4.491064e-02 -2.467500e+01  1.196021e+01
   endloop
 endfacet
 facet normal  9.350162e-01  0.000000e+00 -3.546049e-01
   outer loop
     vertex  5.825651e-02 -2.500000e+01  1.198564e+01
     vertex  5.312736e-02 -2.467500e+01  1.197212e+01
     vertex  5.825651e-02 -2.467500e+01  1.198564e+01
   endloop
 endfacet
 facet normal  9.927089e-01  0.000000e+00 -1.205367e-01
   outer loop
     vertex  5.825651e-02 -2.500000e+01  1.198564e+01
     vertex  5.825651e-02 -2.467500e+01  1.198564e+01
     vertex  6.000000e-02 -2.467500e+01  1.200000e+01
   endloop
 endfacet
 facet normal  9.350162e-01  0.000000e+00 -3.546049e-01
   outer loop
     vertex  5.825651e-02 -2.500000e+01  1.198564e+01
     vertex  5.312736e-02 -2.500000e+01  1.197212e+01
     vertex  5.312736e-02 -2.467500e+01  1.197212e+01
   endloop
 endfacet
 facet normal  9.927089e-01  0.000000e+00 -1.205367e-01
   outer loop
     vertex  6.000000e-02 -2.500000e+01  1.200000e+01
     vertex  5.825651e-02 -2.500000e+01  1.198564e+01
     vertex  6.000000e-02 -2.467500e+01  1.200000e+01
   endloop
 endfacet
 facet normal  0.000000e+00 -1.000000e+00  0.000000e+00
   outer loop
     vertex  4.491064e-02 -2.500000e+01  1.203979e+01
     vertex  6.000000e-02 -2.500000e+01  1.200000e+01
     vertex  5.825651e-02 -2.500000e+01  1.201436e+01
   endloop
 endfacet
 facet normal  0.000000e+00 -1.000000e+00  0.000000e+00
   outer loop
     vertex  4.491064e-02 -2.500000e+01  1.203979e+01
     vertex  5.825651e-02 -2.500000e+01  1.201436e+01
     vertex  5.312736e-02 -2.500000e+01  1.202788e+01
   endloop
 endfacet
 facet normal  0.000000e+00 -1.000000e+00  0.000000e+00
   outer loop
     vertex  4.491064e-02 -2.500000e+01  1.203979e+01
     vertex  3.408388e-02 -2.500000e+01  1.204938e+01
     vertex  2.127629e-02 -2.500000e+01  1.205610e+01
   endloop
 endfacet
 facet normal  0.000000e+00 -1.000000e+00  0.000000e+00
   outer loop
     vertex  4.491064e-02 -2.500000e+01  1.203979e+01
     vertex  2.127629e-02 -2.500000e+01  1.205610e+01
     vertex  7.232201e-03 -2.500000e+01  1.205956e+01
   endloop
 endfacet
 facet normal  0.000000e+00 -1.000000e+00  0.000000e+00
   outer loop
     vertex  4.491064e-02 -2.500000e+01  1.203979e+01
     vertex  7.232201e-03 -2.500000e+01  1.205956e+01
     vertex -7.232201e-03 -2.500000e+01  1.205956e+01
   endloop
 endfacet
 facet normal  0.000000e+00 -1.000000e+00  0.000000e+00
   outer loop
     vertex  4.491064e-02 -2.500000e+01  1.203979e+01
     vertex -7.232201e-03 -2.500000e+01  1.205956e+01
     vertex -2.127629e-02 -2.500000e+01  1.205610e+01
   endloop
 endfacet
 facet normal  0.000000e+00 -1.000000e+00  0.000000e+00
   outer loop
     vertex  4.491064e-02 -2.500000e+01  1.203979e+01
     vertex -2.127629e-02 -2.500000e+01  1.205610e+01
     vertex -3.408388e-02 -2.500000e+01  1.204938e+01
   endloop
 endfacet
 facet normal  0.000000e+00 -1.000000e+00  0.000000e+00
   outer loop
     vertex  4.491064e-02 -2.500000e+01  1.203979e+01
     vertex -3.408388e-02 -2.500000e+01  1.204938e+01
     vertex -4.491064e-02 -2.500000e+01  1.203979e+01
   endloop
 endfacet
 facet normal -0.000000e+00 -1.000000e+00  0.000000e+00
   outer loop
     vertex  4.491064e-02 -2.500000e+01  1.203979e+01
     vertex -4.491064e-02 -2.500000e+01  1.203979e+01
     vertex -5.312736e-02 -2.500000e+01  1.202788e+01
   endloop
 endfacet
 facet normal  0.000000e+00 -1.000000e+00  0.000000e+00
   outer loop
     vertex  4.491064e-02 -2.500000e+01  1.203979e+01
     vertex -5.312736e-02 -2.500000e+01  1.202788e+01
     vertex -5.825651e-02 -2.500000e+01  1.201436e+01
   endloop
 endfacet
 facet normal  0.000000e+00 -1.000000e+00  0.000000e+00
   outer loop
     vertex  4.491064e-02 -2.500000e+01  1.203979e+01
     vertex -5.825651e-02 -2.500000e+01  1.201436e+01
     vertex -6.000000e-02 -2.500000e+01  1.200000e+01
   endloop
 endfacet
 facet normal  0.000000e+00 -1.000000e+00  0.000000e+00
   outer loop
     vertex  4.491064e-02 -2.500000e+01  1.203979e+01
     vertex -6.000000e-02 -2.500000e+01  1.200000e+01
     vertex -5.825651e-02 -2.500000e+01  1.198564e+01
   endloop
 endfacet
 facet normal  0.000000e+00 -1.000000e+00  0.000000e+00
   outer loop
     vertex  4.491064e-02 -2.500000e+01  1.203979e+01
     vertex -5.825651e-02 -2.500000e+01  1.198564e+01
     vertex -5.312736e-02 -2.500000e+01  1.197212e+01
   endloop
 endfacet
 facet normal  0.000000e+00 -1.000000e+00  0.000000e+00
   outer loop
     vertex  4.491064e-02 -2.500000e+01  1.203979e+01
     vertex -5.312736e-02 -2.500000e+01  1.197212e+01
     vertex -4.491064e-02 -2.500000e+01  1.196021e+01
   endloop
 endfacet
 facet normal  0.000000e+00 -1.000000e+00  0.000000e+00
   outer loop
     vertex  4.491064e-02 -2.500000e+01  1.203979e+01
     vertex -4.491064e-02 -2.500000e+01  1.196021e+01
     vertex -3.408388e-02 -2.500000e+01  1.195062e+01
   endloop
 endfacet
 facet normal  0.000000e+00 -1.000000e+00  0.000000e+00
   outer loop
     vertex  4.491064e-02 -2.500000e+01  1.203979e+01
     vertex -3.408388e-02 -2.500000e+01  1.195062e+01
     vertex -2.127629e-02 -2.500000e+01  1.194390e+01
   endloop
 endfacet
 facet normal  0.000000e+00 -1.000000e+00  0.000000e+00
   outer loop
     vertex  4.491064e-02 -2.500000e+01  1.203979e+01
     vertex -2.127629e-02 -2.500000e+01  1.194390e+01
     vertex -7.232201e-03 -2.500000e+01  1.194044e+01
   endloop
 endfacet
 facet normal  0.000000e+00 -1.000000e+00  0.000000e+00
   outer loop
     vertex  4.491064e-02 -2.500000e+01  1.203979e+01
     vertex -7.232201e-03 -2.500000e+01  1.194044e+01
     vertex  7.232201e-03 -2.500000e+01  1.194044e+01
   endloop
 endfacet
 facet normal  0.000000e+00 -1.000000e+00  0.000000e+00
   outer loop
     vertex  4.491064e-02 -2.500000e+01  1.203979e+01
     vertex  7.232201e-03 -2.500000e+01  1.194044e+01
     vertex  2.127629e-02 -2.500000e+01  1.194390e+01
   endloop
 endfacet
 facet normal  0.000000e+00 -1.000000e+00  0.000000e+00
   outer loop
     vertex  4.491064e-02 -2.500000e+01  1.203979e+01
     vertex  2.127629e-02 -2.500000e+01  1.194390e+01
     vertex  3.408388e-02 -2.500000e+01  1.195062e+01
   endloop
 endfacet
 facet normal  0.000000e+00 -1.000000e+00  0.000000e+00
   outer loop
     vertex  4.491064e-02 -2.500000e+01  1.203979e+01
     vertex  3.408388e-02 -2.500000e+01  1.195062e+01
     vertex  4.491064e-02 -2.500000e+01  1.196021e+01
   endloop
 endfacet
 facet normal  0.000000e+00 -1.000000e+00 -0.000000e+00
   outer loop
     vertex  4.491064e-02 -2.500000e+01  1.203979e+01
     vertex  4.491064e-02 -2.500000e+01  1.196021e+01
     vertex  5.312736e-02 -2.500000e+01  1.197212e+01
   endloop
 endfacet
 facet normal  0.000000e+00 -1.000000e+00  0.000000e+00
   outer loop
     vertex  4.491064e-02 -2.500000e+01  1.203979e+01
     vertex  5.312736e-02 -2.500000e+01  1.197212e+01
     vertex  5.825651e-02 -2.500000e+01  1.198564e+01
   endloop
 endfacet
 facet normal  0.000000e+00 -1.000000e+00  0.000000e+00
   outer loop
     vertex  4.491064e-02 -2.500000e+01  1.203979e+01
     vertex  5.825651e-02 -2.500000e+01  1.198564e+01
     vertex  6.000000e-02 -2.500000e+01  1.200000e+01
   endloop
 endfacet
 facet normal  0.000000e+00  1.000000e+00  0.000000e+00
   outer loop
     vertex  4.491064e-02 -2.467500e+01  1.203979e+01
     vertex  5.825651e-02 -2.467500e+01  1.201436e+01
     vertex  6.000000e-02 -2.467500e+01  1.200000e+01
   endloop
 endfacet
 facet normal  0.000000e+00  1.000000e+00  0.000000e+00
   outer loop
     vertex  4.491064e-02 -2.467500e+01  1.203979e+01
     vertex  5.312736e-02 -2.467500e+01  1.202788e+01
     vertex  5.825651e-02 -2.467500e+01  1.201436e+01
   endloop
 endfacet
 facet normal  0.000000e+00  1.000000e+00  0.000000e+00
   outer loop
     vertex  4.491064e-02 -2.467500e+01  1.203979e+01
     vertex  2.127629e-02 -2.467500e+01  1.205610e+01
     vertex  3.408388e-02 -2.467500e+01  1.204938e+01
   endloop
 endfacet
 facet normal  0.000000e+00  1.000000e+00  0.000000e+00
   outer loop
     vertex  4.491064e-02 -2.467500e+01  1.203979e+01
     vertex  7.232201e-03 -2.467500e+01  1.205956e+01
     vertex  2.127629e-02 -2.467500e+01  1.205610e+01
   endloop
 endfacet
 facet normal  0.000000e+00  1.000000e+00  0.000000e+00
   outer loop
     vertex  4.491064e-02 -2.467500e+01  1.203979e+01
     vertex -7.232201e-03 -2.467500e+01  1.205956e+01
     vertex  7.232201e-03 -2.467500e+01  1.205956e+01
   endloop
 endfacet
 facet normal  0.000000e+00  1.000000e+00  0.000000e+00
   outer loop
     vertex  4.491064e-02 -2.467500e+01  1.203979e+01
     vertex -2.127629e-02 -2.467500e+01  1.205610e+01
     vertex -7.232201e-03 -2.467500e+01  1.205956e+01
   endloop
 endfacet
 facet normal  0.000000e+00  1.000000e+00  0.000000e+00
   outer loop
     vertex  4.491064e-02 -2.467500e+01  1.203979e+01
     vertex -3.408388e-02 -2.467500e+01  1.204938e+01
     vertex -2.127629e-02 -2.467500e+01  1.205610e+01
   endloop
 endfacet
 facet normal  0.000000e+00  1.000000e+00  0.000000e+00
   outer loop
     vertex  4.491064e-02 -2.467500e+01  1.203979e+01
     vertex -4.491064e-02 -2.467500e+01  1.203979e+01
     vertex -3.408388e-02 -2.467500e+01  1.204938e+01
   endloop
 endfacet
 facet normal  0.000000e+00  1.000000e+00  0.000000e+00
   outer loop
     vertex  4.491064e-02 -2.467500e+01  1.203979e+01
     vertex -5.312736e-02 -2.467500e+01  1.202788e+01
     vertex -4.491064e-02 -2.467500e+01  1.203979e+01
   endloop
 endfacet
 facet normal  0.000000e+00  1.000000e+00  0.000000e+00
   outer loop
     vertex  4.491064e-02 -2.467500e+01  1.203979e+01
     vertex -5.825651e-02 -2.467500e+01  1.201436e+01
     vertex -5.312736e-02 -2.467500e+01  1.202788e+01
   endloop
 endfacet
 facet normal  0.000000e+00  1.000000e+00  0.000000e+00
   outer loop
     vertex  4.491064e-02 -2.467500e+01  1.203979e+01
     vertex -6.000000e-02 -2.467500e+01  1.200000e+01
     vertex -5.825651e-02 -2.467500e+01  1.201436e+01
   endloop
 endfacet
 facet normal  0.000000e+00  1.000000e+00  0.000000e+00
   outer loop
     vertex  4.491064e-02 -2.467500e+01  1.203979e+01
     vertex -5.825651e-02 -2.467500e+01  1.198564e+01
     vertex -6.000000e-02 -2.467500e+01  1.200000e+01
   endloop
 endfacet
 facet normal  0.000000e+00  1.000000e+00  0.000000e+00
   outer loop
     vertex  4.491064e-02 -2.467500e+01  1.203979e+01
     vertex -5.312736e-02 -2.467500e+01  1.197212e+01
     vertex -5.825651e-02 -2.467500e+01  1.198564e+01
   endloop
 endfacet
 facet normal  0.000000e+00  1.000000e+00  0.000000e+00
   outer loop
     vertex  4.491064e-02 -2.467500e+01  1.203979e+01
     vertex -4.491064e-02 -2.467500e+01  1.196021e+01
     vertex -5.312736e-02 -2.467500e+01  1.197212e+01
   endloop
 endfacet
 facet normal  0.000000e+00  1.000000e+00  0.000000e+00
   outer loop
     vertex  4.491064e-02 -2.467500e+01  1.203979e+01
     vertex -3.408388e-02 -2.467500e+01  1.195062e+01
     vertex -4.491064e-02 -2.467500e+01  1.196021e+01
   endloop
 endfacet
 facet normal  0.000000e+00  1.000000e+00  0.000000e+00
   outer loop
     vertex  4.491064e-02 -2.467500e+01  1.203979e+01
     vertex -2.127629e-02 -2.467500e+01  1.194390e+01
     vertex -3.408388e-02 -2.467500e+01  1.195062e+01
   endloop
 endfacet
 facet normal  0.000000e+00  1.000000e+00  0.000000e+00
   outer loop
     vertex  4.491064e-02 -2.467500e+01  1.203979e+01
     vertex -7.232201e-03 -2.467500e+01  1.194044e+01
     vertex -2.127629e-02 -2.467500e+01  1.194390e+01
   endloop
 endfacet
 facet normal  0.000000e+00  1.000000e+00  0.000000e+00
   outer loop
     vertex  4.491064e-02 -2.467500e+01  1.203979e+01
     vertex  7.232201e-03 -2.467500e+01  1.194044e+01
     vertex -7.232201e-03 -2.467500e+01  1.194044e+01
   endloop
 endfacet
 facet normal  0.000000e+00  1.000000e+00  0.000000e+00
   outer loop
     vertex  4.491064e-02 -2.467500e+01  1.203979e+01
     vertex  2.127629e-02 -2.467500e+01  1.194390e+01
     vertex  7.232201e-03 -2.467500e+01  1.194044e+01
   endloop
 endfacet
 facet normal  0.000000e+00  1.000000e+00  0.000000e+00
   outer loop
     vertex  4.491064e-02 -2.467500e+01  1.203979e+01
     vertex  3.408388e-02 -2.467500e+01  1.195062e+01
     vertex  2.127629e-02 -2.467500e+01  1.194390e+01
   endloop
 endfacet
 facet normal  0.000000e+00  1.000000e+00  0.000000e+00
   outer loop
     vertex  4.491064e-02 -2.467500e+01  1.203979e+01
     vertex  4.491064e-02 -2.467500e+01  1.196021e+01
     vertex  3.408388e-02 -2.467500e+01  1.195062e+01
   endloop
 endfacet
 facet normal  0.000000e+00  1.000000e+00  0.000000e+00
   outer loop
     vertex  4.491064e-02 -2.467500e+01  1.203979e+01
     vertex  5.312736e-02 -2.467500e+01  1.197212e+01
     vertex  4.491064e-02 -2.467500e+01  1.196021e+01
   endloop
 endfacet
 facet normal  0.000000e+00  1.000000e+00  0.000000e+00
   outer loop
     vertex  4.491064e-02 -2.467500e+01  1.203979e+01
     vertex  5.825651e-02 -2.467500e+01  1.198564e+01
     vertex  5.312736e-02 -2.467500e+01  1.197212e+01
   endloop
 endfacet
 facet normal  0.000000e+00  1.000000e+00  0.000000e+00
   outer loop
     vertex  4.491064e-02 -2.467500e+01  1.203979e+01
     vertex  6.000000e-02 -2.467500e+01  1.200000e+01
     vertex  5.825651e-02 -2.467500e+01  1.198564e+01
   endloop
 endfacet
 facet normal -0.000000e+00  0.000000e+00 -1.000000e+00
   outer loop
     vertex  9.800000e-01  0.000000e+00  0.000000e+00
     vertex -9.800000e-01 -1.400000e-01  0.000000e+00
     vertex -9.800000e-01  0.000000e+00  0.000000e+00
   endloop
 endfacet
 facet normal  0.000000e+00 -0.000000e+00 -1.000000e+00
   outer loop
     vertex  9.800000e-01  0.000000e+00  0.000000e+00
     vertex  9.800000e-01 -1.400000e-01  0.000000e+00
     vertex -9.800000e-01 -1.400000e-01  0.000000e+00
   endloop
 endfacet
 facet normal -1.000000e+00  0.000000e+00 -0.000000e+00
   outer loop
     vertex -9.800000e-01  0.000000e+00  4.500000e-01
     vertex -9.800000e-01  0.000000e+00  0.000000e+00
     vertex -9.800000e-01 -1.400000e-01  0.000000e+00
   endloop
 endfacet
 facet normal -1.000000e+00 -0.000000e+00  0.000000e+00
   outer loop
     vertex -9.800000e-01  0.000000e+00  4.500000e-01
     vertex -9.800000e-01 -1.400000e-01  0.000000e+00
     vertex -9.800000e-01 -1.400000e-01  4.500000e-01
   endloop
 endfacet
 facet normal  1.000000e+00  0.000000e+00  0.000000e+00
   outer loop
     vertex  9.800000e-01  0.000000e+00  1.200000e-01
     vertex  9.800000e-01 -1.400000e-01  0.000000e+00
     vertex  9.800000e-01  0.000000e+00  0.000000e+00
   endloop
 endfacet
 facet normal  1.000000e+00  0.000000e+00  0.000000e+00
   outer loop
     vertex  9.800000e-01  0.000000e+00  1.200000e-01
     vertex  9.800000e-01 -1.400000e-01  1.200000e-01
     vertex  9.800000e-01 -1.400000e-01  0.000000e+00
   endloop
 endfacet
 facet normal  0.000000e+00  0.000000e+00 -1.000000e+00
   outer loop
     vertex  9.800000e-01  0.000000e+00  0.000000e+00
     vertex -9.800000e-01  0.000000e+00  0.000000e+00
     vertex -9.800000e-01  1.400000e-01  0.000000e+00
   endloop
 endfacet
 facet normal  0.000000e+00  0.000000e+00 -1.000000e+00
   outer loop
     vertex  9.800000e-01  0.000000e+00  0.000000e+00
     vertex -9.800000e-01  1.400000e-01  0.000000e+00
     vertex  9.800000e-01  1.400000e-01  0.000000e+00
   endloop
 endfacet
 facet normal  0.000000e+00 -1.000000e+00 -0.000000e+00
   outer loop
     vertex  9.800000e-01 -1.400000e-01  1.200000e-01
     vertex -9.800000e-01 -1.400000e-01  0.000000e+00
     vertex  9.800000e-01 -1.400000e-01  0.000000e+00
   endloop
 endfacet
 facet normal -0.000000e+00 -1.000000e+00  0.000000e+00
   outer loop
     vertex  9.800000e-01 -1.400000e-01  1.200000e-01
     vertex -9.800000e-01 -1.400000e-01  4.500000e-01
     vertex -9.800000e-01 -1.400000e-01  0.000000e+00
   endloop
 endfacet
 facet normal  1.660305e-01  0.000000e+00  9.861206e-01
   outer loop
     vertex  9.800000e-01  0.000000e+00  1.200000e-01
     vertex -9.800000e-01  0.000000e+00  4.500000e-01
     vertex -9.800000e-01 -1.400000e-01  4.500000e-01
   endloop
 endfacet
 facet normal  1.660305e-01  0.000000e+00  9.861206e-01
   outer loop
     vertex  9.800000e-01  0.000000e+00  1.200000e-01
     vertex -9.800000e-01 -1.400000e-01  4.500000e-01
     vertex  9.800000e-01 -1.400000e-01  1.200000e-01
   endloop
 endfacet
 facet normal -1.000000e+00  0.000000e+00  0.000000e+00
   outer loop
     vertex -9.800000e-01  0.000000e+00  4.500000e-01
     vertex -9.800000e-01  1.400000e-01  0.000000e+00
     vertex -9.800000e-01  0.000000e+00  0.000000e+00
   endloop
 endfacet
 facet normal -1.000000e+00  0.000000e+00  0.000000e+00
   outer loop
     vertex -9.800000e-01  0.000000e+00  4.500000e-01
     vertex -9.800000e-01  1.400000e-01  4.500000e-01
     vertex -9.800000e-01  1.400000e-01  0.000000e+00
   endloop
 endfacet
 facet normal  1.000000e+00  0.000000e+00  0.000000e+00
   outer loop
     vertex  9.800000e-01  0.000000e+00  1.200000e-01
     vertex  9.800000e-01  0.000000e+00  0.000000e+00
     vertex  9.800000e-01  1.400000e-01  0.000000e+00
   endloop
 endfacet
 facet normal  1.000000e+00 -0.000000e+00  0.000000e+00
   outer loop
     vertex  9.800000e-01  0.000000e+00  1.200000e-01
     vertex  9.800000e-01  1.400000e-01  0.000000e+00
     vertex  9.800000e-01  1.400000e-01  1.200000e-01
   endloop
 endfacet
 facet normal  0.000000e+00  1.000000e+00  0.000000e+00
   outer loop
     vertex  9.800000e-01  1.400000e-01  1.200000e-01
     vertex  9.800000e-01  1.400000e-01  0.000000e+00
     vertex -9.800000e-01  1.400000e-01  0.000000e+00
   endloop
 endfacet
 facet normal  0.000000e+00  1.000000e+00  0.000000e+00
   outer loop
     vertex  9.800000e-01  1.400000e-01  1.200000e-01
     vertex -9.800000e-01  1.400000e-01  0.000000e+00
     vertex -9.800000e-01  1.400000e-01  4.500000e-01
   endloop
 endfacet
 facet normal  1.660305e-01  0.000000e+00  9.861206e-01
   outer loop
     vertex  9.800000e-01  0.000000e+00  1.200000e-01
     vertex -9.800000e-01  1.400000e-01  4.500000e-01
     vertex -9.800000e-01  0.000000e+00  4.500000e-01
   endloop
 endfacet
 facet normal  1.660305e-01 -0.000000e+00  9.861206e-01
   outer loop
     vertex  9.800000e-01  0.000000e+00  1.200000e-01
     vertex  9.800000e-01  1.400000e-01  1.200000e-01
     vertex -9.800000e-01  1.400000e-01  4.500000e-01
   endloop
 endfacet
endsolid
