solid 
 facet normal -9.996970e-01  2.461614e-02  0.000000e+00
   outer loop
     vertex -9.784816e-01  6.166602e-02  0.000000e+00
     vertex -9.800000e-01  0.000000e+00  0.000000e+00
     vertex -9.800000e-01  0.000000e+00  3.500000e-01
   endloop
 endfacet
 facet normal -9.996970e-01  2.461614e-02  0.000000e+00
   outer loop
     vertex -9.784816e-01  6.166602e-02  0.000000e+00
     vertex -9.800000e-01  0.000000e+00  3.500000e-01
     vertex -9.784816e-01  6.166602e-02  3.500000e-01
   endloop
 endfacet
 facet normal -9.961290e-01  8.790332e-02  0.000000e+00
   outer loop
     vertex -9.730593e-01  1.231120e-01  0.000000e+00
     vertex -9.784816e-01  6.166602e-02  3.500000e-01
     vertex -9.730593e-01  1.231120e-01  3.500000e-01
   endloop
 endfacet
 facet normal -9.961290e-01  8.790332e-02  0.000000e+00
   outer loop
     vertex -9.730593e-01  1.231120e-01  0.000000e+00
     vertex -9.784816e-01  6.166602e-02  0.000000e+00
     vertex -9.784816e-01  6.166602e-02  3.500000e-01
   endloop
 endfacet
 facet normal -9.885586e-01  1.508373e-01  0.000000e+00
   outer loop
     vertex -9.637549e-01  1.840909e-01  0.000000e+00
     vertex -9.730593e-01  1.231120e-01  3.500000e-01
     vertex -9.637549e-01  1.840909e-01  3.500000e-01
   endloop
 endfacet
 facet normal -9.885586e-01  1.508373e-01  0.000000e+00
   outer loop
     vertex -9.637549e-01  1.840909e-01  0.000000e+00
     vertex -9.730593e-01  1.231120e-01  0.000000e+00
     vertex -9.730593e-01  1.231120e-01  3.500000e-01
   endloop
 endfacet
 facet normal -9.770162e-01  2.131652e-01  0.000000e+00
   outer loop
     vertex -9.506059e-01  2.443579e-01  0.000000e+00
     vertex -9.637549e-01  1.840909e-01  3.500000e-01
     vertex -9.506059e-01  2.443579e-01  3.500000e-01
   endloop
 endfacet
 facet normal -9.770162e-01  2.131652e-01  0.000000e+00
   outer loop
     vertex -9.506059e-01  2.443579e-01  0.000000e+00
     vertex -9.637549e-01  1.840909e-01  0.000000e+00
     vertex -9.637549e-01  1.840909e-01  3.500000e-01
   endloop
 endfacet
 facet normal -9.615481e-01  2.746367e-01  0.000000e+00
   outer loop
     vertex -9.336650e-01  3.036707e-01  0.000000e+00
     vertex -9.506059e-01  2.443579e-01  3.500000e-01
     vertex -9.336650e-01  3.036707e-01  3.500000e-01
   endloop
 endfacet
 facet normal -9.615481e-01  2.746367e-01  0.000000e+00
   outer loop
     vertex -9.336650e-01  3.036707e-01  0.000000e+00
     vertex -9.506059e-01  2.443579e-01  0.000000e+00
     vertex -9.506059e-01  2.443579e-01  3.500000e-01
   endloop
 endfacet
 facet normal -9.422165e-01  3.350046e-01  0.000000e+00
   outer loop
     vertex -9.130003e-01  3.617910e-01  0.000000e+00
     vertex -9.336650e-01  3.036707e-01  3.500000e-01
     vertex -9.130003e-01  3.617910e-01  3.500000e-01
   endloop
 endfacet
 facet normal -9.422165e-01  3.350046e-01  0.000000e+00
   outer loop
     vertex -9.130003e-01  3.617910e-01  0.000000e+00
     vertex -9.336650e-01  3.036707e-01  0.000000e+00
     vertex -9.336650e-01  3.036707e-01  3.500000e-01
   endloop
 endfacet
 facet normal -9.190991e-01  3.940265e-01  0.000000e+00
   outer loop
     vertex -8.886949e-01  4.184854e-01  0.000000e+00
     vertex -9.130003e-01  3.617910e-01  3.500000e-01
     vertex -8.886949e-01  4.184854e-01  3.500000e-01
   endloop
 endfacet
 facet normal -9.190991e-01  3.940265e-01  0.000000e+00
   outer loop
     vertex -8.886949e-01  4.184854e-01  0.000000e+00
     vertex -9.130003e-01  3.617910e-01  0.000000e+00
     vertex -9.130003e-01  3.617910e-01  3.500000e-01
   endloop
 endfacet
 facet normal -8.922887e-01  4.514652e-01  0.000000e+00
   outer loop
     vertex -8.608464e-01  4.735260e-01  0.000000e+00
     vertex -8.886949e-01  4.184854e-01  3.500000e-01
     vertex -8.608464e-01  4.735260e-01  3.500000e-01
   endloop
 endfacet
 facet normal -8.922887e-01  4.514652e-01  0.000000e+00
   outer loop
     vertex -8.608464e-01  4.735260e-01  0.000000e+00
     vertex -8.886949e-01  4.184854e-01  0.000000e+00
     vertex -8.886949e-01  4.184854e-01  3.500000e-01
   endloop
 endfacet
 facet normal -8.618932e-01  5.070899e-01  0.000000e+00
   outer loop
     vertex -8.295667e-01  5.266916e-01  0.000000e+00
     vertex -8.608464e-01  4.735260e-01  3.500000e-01
     vertex -8.295667e-01  5.266916e-01  3.500000e-01
   endloop
 endfacet
 facet normal -8.280345e-01  5.606771e-01  0.000000e+00
   outer loop
     vertex -8.295667e-01  5.266916e-01  0.000000e+00
     vertex -8.295667e-01  5.266916e-01  3.500000e-01
     vertex -7.949815e-01  5.777687e-01  3.500000e-01
   endloop
 endfacet
 facet normal -8.618932e-01  5.070899e-01  0.000000e+00
   outer loop
     vertex -8.295667e-01  5.266916e-01  0.000000e+00
     vertex -8.608464e-01  4.735260e-01  0.000000e+00
     vertex -8.608464e-01  4.735260e-01  3.500000e-01
   endloop
 endfacet
 facet normal -8.280345e-01  5.606771e-01  0.000000e+00
   outer loop
     vertex -7.949815e-01  5.777687e-01  0.000000e+00
     vertex -8.295667e-01  5.266916e-01  0.000000e+00
     vertex -7.949815e-01  5.777687e-01  3.500000e-01
   endloop
 endfacet
 facet normal -7.908489e-01  6.120115e-01  0.000000e+00
   outer loop
     vertex -7.572298e-01  6.265520e-01  0.000000e+00
     vertex -7.949815e-01  5.777687e-01  3.500000e-01
     vertex -7.572298e-01  6.265520e-01  3.500000e-01
   endloop
 endfacet
 facet normal -7.908489e-01  6.120115e-01  0.000000e+00
   outer loop
     vertex -7.572298e-01  6.265520e-01  0.000000e+00
     vertex -7.949815e-01  5.777687e-01  0.000000e+00
     vertex -7.949815e-01  5.777687e-01  3.500000e-01
   endloop
 endfacet
 facet normal -7.504855e-01  6.608869e-01  0.000000e+00
   outer loop
     vertex -7.164632e-01  6.728455e-01  0.000000e+00
     vertex -7.572298e-01  6.265520e-01  0.000000e+00
     vertex -7.572298e-01  6.265520e-01  3.500000e-01
   endloop
 endfacet
 facet normal -7.504855e-01  6.608869e-01  0.000000e+00
   outer loop
     vertex -7.164632e-01  6.728455e-01  0.000000e+00
     vertex -7.572298e-01  6.265520e-01  3.500000e-01
     vertex -7.164632e-01  6.728455e-01  3.500000e-01
   endloop
 endfacet
 facet normal -7.071068e-01  7.071068e-01  0.000000e+00
   outer loop
     vertex -6.728455e-01  7.164632e-01  0.000000e+00
     vertex -7.164632e-01  6.728455e-01  0.000000e+00
     vertex -7.164632e-01  6.728455e-01  3.500000e-01
   endloop
 endfacet
 facet normal -7.071068e-01  7.071068e-01  0.000000e+00
   outer loop
     vertex -6.728455e-01  7.164632e-01  0.000000e+00
     vertex -7.164632e-01  6.728455e-01  3.500000e-01
     vertex -6.728455e-01  7.164632e-01  3.500000e-01
   endloop
 endfacet
 facet normal -6.608869e-01  7.504855e-01  0.000000e+00
   outer loop
     vertex -6.265520e-01  7.572298e-01  0.000000e+00
     vertex -6.728455e-01  7.164632e-01  0.000000e+00
     vertex -6.728455e-01  7.164632e-01  3.500000e-01
   endloop
 endfacet
 facet normal -6.608869e-01  7.504855e-01  0.000000e+00
   outer loop
     vertex -6.265520e-01  7.572298e-01  0.000000e+00
     vertex -6.728455e-01  7.164632e-01  3.500000e-01
     vertex -6.265520e-01  7.572298e-01  3.500000e-01
   endloop
 endfacet
 facet normal -6.120115e-01  7.908489e-01  0.000000e+00
   outer loop
     vertex -5.777687e-01  7.949815e-01  0.000000e+00
     vertex -6.265520e-01  7.572298e-01  0.000000e+00
     vertex -6.265520e-01  7.572298e-01  3.500000e-01
   endloop
 endfacet
 facet normal -6.120115e-01  7.908489e-01  0.000000e+00
   outer loop
     vertex -5.777687e-01  7.949815e-01  0.000000e+00
     vertex -6.265520e-01  7.572298e-01  3.500000e-01
     vertex -5.777687e-01  7.949815e-01  3.500000e-01
   endloop
 endfacet
 facet normal -5.606771e-01  8.280345e-01  0.000000e+00
   outer loop
     vertex -5.266916e-01  8.295667e-01  0.000000e+00
     vertex -5.777687e-01  7.949815e-01  0.000000e+00
     vertex -5.777687e-01  7.949815e-01  3.500000e-01
   endloop
 endfacet
 facet normal -5.606771e-01  8.280345e-01  0.000000e+00
   outer loop
     vertex -5.266916e-01  8.295667e-01  0.000000e+00
     vertex -5.777687e-01  7.949815e-01  3.500000e-01
     vertex -5.266916e-01  8.295667e-01  3.500000e-01
   endloop
 endfacet
 facet normal -5.070899e-01  8.618932e-01  0.000000e+00
   outer loop
     vertex -4.735260e-01  8.608464e-01  0.000000e+00
     vertex -5.266916e-01  8.295667e-01  3.500000e-01
     vertex -4.735260e-01  8.608464e-01  3.500000e-01
   endloop
 endfacet
 facet normal -5.070899e-01  8.618932e-01  0.000000e+00
   outer loop
     vertex -4.735260e-01  8.608464e-01  0.000000e+00
     vertex -5.266916e-01  8.295667e-01  0.000000e+00
     vertex -5.266916e-01  8.295667e-01  3.500000e-01
   endloop
 endfacet
 facet normal -4.514652e-01  8.922887e-01  0.000000e+00
   outer loop
     vertex -4.184854e-01  8.886949e-01  0.000000e+00
     vertex -4.735260e-01  8.608464e-01  3.500000e-01
     vertex -4.184854e-01  8.886949e-01  3.500000e-01
   endloop
 endfacet
 facet normal -4.514652e-01  8.922887e-01  0.000000e+00
   outer loop
     vertex -4.184854e-01  8.886949e-01  0.000000e+00
     vertex -4.735260e-01  8.608464e-01  0.000000e+00
     vertex -4.735260e-01  8.608464e-01  3.500000e-01
   endloop
 endfacet
 facet normal -3.940265e-01  9.190991e-01  0.000000e+00
   outer loop
     vertex -3.617910e-01  9.130003e-01  0.000000e+00
     vertex -4.184854e-01  8.886949e-01  3.500000e-01
     vertex -3.617910e-01  9.130003e-01  3.500000e-01
   endloop
 endfacet
 facet normal -3.940265e-01  9.190991e-01  0.000000e+00
   outer loop
     vertex -3.617910e-01  9.130003e-01  0.000000e+00
     vertex -4.184854e-01  8.886949e-01  0.000000e+00
     vertex -4.184854e-01  8.886949e-01  3.500000e-01
   endloop
 endfacet
 facet normal -3.350046e-01  9.422165e-01  0.000000e+00
   outer loop
     vertex -3.036707e-01  9.336650e-01  0.000000e+00
     vertex -3.617910e-01  9.130003e-01  3.500000e-01
     vertex -3.036707e-01  9.336650e-01  3.500000e-01
   endloop
 endfacet
 facet normal -2.746367e-01  9.615481e-01  0.000000e+00
   outer loop
     vertex -3.036707e-01  9.336650e-01  0.000000e+00
     vertex -3.036707e-01  9.336650e-01  3.500000e-01
     vertex -2.443579e-01  9.506059e-01  3.500000e-01
   endloop
 endfacet
 facet normal -3.350046e-01  9.422165e-01  0.000000e+00
   outer loop
     vertex -3.036707e-01  9.336650e-01  0.000000e+00
     vertex -3.617910e-01  9.130003e-01  0.000000e+00
     vertex -3.617910e-01  9.130003e-01  3.500000e-01
   endloop
 endfacet
 facet normal -2.131652e-01  9.770162e-01  0.000000e+00
   outer loop
     vertex -2.443579e-01  9.506059e-01  0.000000e+00
     vertex -2.443579e-01  9.506059e-01  3.500000e-01
     vertex -1.840909e-01  9.637549e-01  3.500000e-01
   endloop
 endfacet
 facet normal -2.746367e-01  9.615481e-01  0.000000e+00
   outer loop
     vertex -2.443579e-01  9.506059e-01  0.000000e+00
     vertex -3.036707e-01  9.336650e-01  0.000000e+00
     vertex -2.443579e-01  9.506059e-01  3.500000e-01
   endloop
 endfacet
 facet normal -2.131652e-01  9.770162e-01  0.000000e+00
   outer loop
     vertex -1.840909e-01  9.637549e-01  0.000000e+00
     vertex -2.443579e-01  9.506059e-01  0.000000e+00
     vertex -1.840909e-01  9.637549e-01  3.500000e-01
   endloop
 endfacet
 facet normal -1.508373e-01  9.885586e-01  0.000000e+00
   outer loop
     vertex -1.231120e-01  9.730593e-01  0.000000e+00
     vertex -1.840909e-01  9.637549e-01  3.500000e-01
     vertex -1.231120e-01  9.730593e-01  3.500000e-01
   endloop
 endfacet
 facet normal -1.508373e-01  9.885586e-01  0.000000e+00
   outer loop
     vertex -1.231120e-01  9.730593e-01  0.000000e+00
     vertex -1.840909e-01  9.637549e-01  0.000000e+00
     vertex -1.840909e-01  9.637549e-01  3.500000e-01
   endloop
 endfacet
 facet normal -8.790332e-02  9.961290e-01  0.000000e+00
   outer loop
     vertex -6.166602e-02  9.784816e-01  0.000000e+00
     vertex -1.231120e-01  9.730593e-01  3.500000e-01
     vertex -6.166602e-02  9.784816e-01  3.500000e-01
   endloop
 endfacet
 facet normal -8.790332e-02  9.961290e-01  0.000000e+00
   outer loop
     vertex -6.166602e-02  9.784816e-01  0.000000e+00
     vertex -1.231120e-01  9.730593e-01  0.000000e+00
     vertex -1.231120e-01  9.730593e-01  3.500000e-01
   endloop
 endfacet
 facet normal -2.461614e-02  9.996970e-01  0.000000e+00
   outer loop
     vertex -4.336809e-18  9.800000e-01  0.000000e+00
     vertex -6.166602e-02  9.784816e-01  3.500000e-01
     vertex -4.336809e-18  9.800000e-01  3.500000e-01
   endloop
 endfacet
 facet normal -2.461614e-02  9.996970e-01  0.000000e+00
   outer loop
     vertex -4.336809e-18  9.800000e-01  0.000000e+00
     vertex -6.166602e-02  9.784816e-01  0.000000e+00
     vertex -6.166602e-02  9.784816e-01  3.500000e-01
   endloop
 endfacet
 facet normal  1.000000e+00  4.425315e-18  0.000000e+00
   outer loop
     vertex  0.000000e+00  0.000000e+00  0.000000e+00
     vertex -4.336809e-18  9.800000e-01  0.000000e+00
     vertex -4.336809e-18  9.800000e-01  3.500000e-01
   endloop
 endfacet
 facet normal  1.000000e+00  4.425315e-18 -0.000000e+00
   outer loop
     vertex  0.000000e+00  0.000000e+00  0.000000e+00
     vertex -4.336809e-18  9.800000e-01  3.500000e-01
     vertex  0.000000e+00  0.000000e+00  3.500000e-01
   endloop
 endfacet
 facet normal  0.000000e+00 -1.000000e+00  0.000000e+00
   outer loop
     vertex  0.000000e+00  0.000000e+00  0.000000e+00
     vertex -9.800000e-01  0.000000e+00  3.500000e-01
     vertex -9.800000e-01  0.000000e+00  0.000000e+00
   endloop
 endfacet
 facet normal  0.000000e+00 -1.000000e+00  0.000000e+00
   outer loop
     vertex  0.000000e+00  0.000000e+00  0.000000e+00
     vertex  0.000000e+00  0.000000e+00  3.500000e-01
     vertex -9.800000e-01  0.000000e+00  3.500000e-01
   endloop
 endfacet
 facet normal  0.000000e+00  0.000000e+00 -1.000000e+00
   outer loop
     vertex  0.000000e+00  0.000000e+00  0.000000e+00
     vertex -9.800000e-01  0.000000e+00  0.000000e+00
     vertex -9.784816e-01  6.166602e-02  0.000000e+00
   endloop
 endfacet
 facet normal  0.000000e+00  0.000000e+00 -1.000000e+00
   outer loop
     vertex  0.000000e+00  0.000000e+00  0.000000e+00
     vertex -9.784816e-01  6.166602e-02  0.000000e+00
     vertex -9.730593e-01  1.231120e-01  0.000000e+00
   endloop
 endfacet
 facet normal  0.000000e+00  0.000000e+00 -1.000000e+00
   outer loop
     vertex  0.000000e+00  0.000000e+00  0.000000e+00
     vertex -9.730593e-01  1.231120e-01  0.000000e+00
     vertex -9.637549e-01  1.840909e-01  0.000000e+00
   endloop
 endfacet
 facet normal  0.000000e+00  0.000000e+00 -1.000000e+00
   outer loop
     vertex  0.000000e+00  0.000000e+00  0.000000e+00
     vertex -9.637549e-01  1.840909e-01  0.000000e+00
     vertex -9.506059e-01  2.443579e-01  0.000000e+00
   endloop
 endfacet
 facet normal  0.000000e+00  0.000000e+00 -1.000000e+00
   outer loop
     vertex  0.000000e+00  0.000000e+00  0.000000e+00
     vertex -9.506059e-01  2.443579e-01  0.000000e+00
     vertex -9.336650e-01  3.036707e-01  0.000000e+00
   endloop
 endfacet
 facet normal  0.000000e+00  0.000000e+00 -1.000000e+00
   outer loop
     vertex  0.000000e+00  0.000000e+00  0.000000e+00
     vertex -9.336650e-01  3.036707e-01  0.000000e+00
     vertex -9.130003e-01  3.617910e-01  0.000000e+00
   endloop
 endfacet
 facet normal  0.000000e+00  0.000000e+00 -1.000000e+00
   outer loop
     vertex  0.000000e+00  0.000000e+00  0.000000e+00
     vertex -9.130003e-01  3.617910e-01  0.000000e+00
     vertex -8.886949e-01  4.184854e-01  0.000000e+00
   endloop
 endfacet
 facet normal  0.000000e+00  0.000000e+00 -1.000000e+00
   outer loop
     vertex  0.000000e+00  0.000000e+00  0.000000e+00
     vertex -8.886949e-01  4.184854e-01  0.000000e+00
     vertex -8.608464e-01  4.735260e-01  0.000000e+00
   endloop
 endfacet
 facet normal  0.000000e+00  0.000000e+00 -1.000000e+00
   outer loop
     vertex  0.000000e+00  0.000000e+00  0.000000e+00
     vertex -8.608464e-01  4.735260e-01  0.000000e+00
     vertex -8.295667e-01  5.266916e-01  0.000000e+00
   endloop
 endfacet
 facet normal  0.000000e+00  0.000000e+00 -1.000000e+00
   outer loop
     vertex  0.000000e+00  0.000000e+00  0.000000e+00
     vertex -8.295667e-01  5.266916e-01  0.000000e+00
     vertex -7.949815e-01  5.777687e-01  0.000000e+00
   endloop
 endfacet
 facet normal  0.000000e+00  0.000000e+00 -1.000000e+00
   outer loop
     vertex  0.000000e+00  0.000000e+00  0.000000e+00
     vertex -7.949815e-01  5.777687e-01  0.000000e+00
     vertex -7.572298e-01  6.265520e-01  0.000000e+00
   endloop
 endfacet
 facet normal  0.000000e+00  0.000000e+00 -1.000000e+00
   outer loop
     vertex  0.000000e+00  0.000000e+00  0.000000e+00
     vertex -7.572298e-01  6.265520e-01  0.000000e+00
     vertex -7.164632e-01  6.728455e-01  0.000000e+00
   endloop
 endfacet
 facet normal  0.000000e+00 -0.000000e+00 -1.000000e+00
   outer loop
     vertex -6.728455e-01  7.164632e-01  0.000000e+00
     vertex  0.000000e+00  0.000000e+00  0.000000e+00
     vertex -7.164632e-01  6.728455e-01  0.000000e+00
   endloop
 endfacet
 facet normal  0.000000e+00 -0.000000e+00 -1.000000e+00
   outer loop
     vertex -6.265520e-01  7.572298e-01  0.000000e+00
     vertex  0.000000e+00  0.000000e+00  0.000000e+00
     vertex -6.728455e-01  7.164632e-01  0.000000e+00
   endloop
 endfacet
 facet normal  0.000000e+00 -0.000000e+00 -1.000000e+00
   outer loop
     vertex -5.777687e-01  7.949815e-01  0.000000e+00
     vertex  0.000000e+00  0.000000e+00  0.000000e+00
     vertex -6.265520e-01  7.572298e-01  0.000000e+00
   endloop
 endfacet
 facet normal  0.000000e+00 -0.000000e+00 -1.000000e+00
   outer loop
     vertex -5.266916e-01  8.295667e-01  0.000000e+00
     vertex  0.000000e+00  0.000000e+00  0.000000e+00
     vertex -5.777687e-01  7.949815e-01  0.000000e+00
   endloop
 endfacet
 facet normal  0.000000e+00 -0.000000e+00 -1.000000e+00
   outer loop
     vertex -4.735260e-01  8.608464e-01  0.000000e+00
     vertex  0.000000e+00  0.000000e+00  0.000000e+00
     vertex -5.266916e-01  8.295667e-01  0.000000e+00
   endloop
 endfacet
 facet normal  0.000000e+00 -0.000000e+00 -1.000000e+00
   outer loop
     vertex -4.184854e-01  8.886949e-01  0.000000e+00
     vertex  0.000000e+00  0.000000e+00  0.000000e+00
     vertex -4.735260e-01  8.608464e-01  0.000000e+00
   endloop
 endfacet
 facet normal  0.000000e+00 -0.000000e+00 -1.000000e+00
   outer loop
     vertex -3.617910e-01  9.130003e-01  0.000000e+00
     vertex  0.000000e+00  0.000000e+00  0.000000e+00
     vertex -4.184854e-01  8.886949e-01  0.000000e+00
   endloop
 endfacet
 facet normal  0.000000e+00 -0.000000e+00 -1.000000e+00
   outer loop
     vertex -3.036707e-01  9.336650e-01  0.000000e+00
     vertex  0.000000e+00  0.000000e+00  0.000000e+00
     vertex -3.617910e-01  9.130003e-01  0.000000e+00
   endloop
 endfacet
 facet normal  0.000000e+00 -0.000000e+00 -1.000000e+00
   outer loop
     vertex -2.443579e-01  9.506059e-01  0.000000e+00
     vertex  0.000000e+00  0.000000e+00  0.000000e+00
     vertex -3.036707e-01  9.336650e-01  0.000000e+00
   endloop
 endfacet
 facet normal  0.000000e+00 -0.000000e+00 -1.000000e+00
   outer loop
     vertex -1.840909e-01  9.637549e-01  0.000000e+00
     vertex  0.000000e+00  0.000000e+00  0.000000e+00
     vertex -2.443579e-01  9.506059e-01  0.000000e+00
   endloop
 endfacet
 facet normal  0.000000e+00 -0.000000e+00 -1.000000e+00
   outer loop
     vertex -1.231120e-01  9.730593e-01  0.000000e+00
     vertex  0.000000e+00  0.000000e+00  0.000000e+00
     vertex -1.840909e-01  9.637549e-01  0.000000e+00
   endloop
 endfacet
 facet normal  0.000000e+00 -0.000000e+00 -1.000000e+00
   outer loop
     vertex -6.166602e-02  9.784816e-01  0.000000e+00
     vertex  0.000000e+00  0.000000e+00  0.000000e+00
     vertex -1.231120e-01  9.730593e-01  0.000000e+00
   endloop
 endfacet
 facet normal  0.000000e+00 -0.000000e+00 -1.000000e+00
   outer loop
     vertex -4.336809e-18  9.800000e-01  0.000000e+00
     vertex  0.000000e+00  0.000000e+00  0.000000e+00
     vertex -6.166602e-02  9.784816e-01  0.000000e+00
   endloop
 endfacet
 facet normal  0.000000e+00  0.000000e+00  1.000000e+00
   outer loop
     vertex  0.000000e+00  0.000000e+00  3.500000e-01
     vertex -9.784816e-01  6.166602e-02  3.500000e-01
     vertex -9.800000e-01  0.000000e+00  3.500000e-01
   endloop
 endfacet
 facet normal  0.000000e+00  0.000000e+00  1.000000e+00
   outer loop
     vertex  0.000000e+00  0.000000e+00  3.500000e-01
     vertex -9.730593e-01  1.231120e-01  3.500000e-01
     vertex -9.784816e-01  6.166602e-02  3.500000e-01
   endloop
 endfacet
 facet normal  0.000000e+00  0.000000e+00  1.000000e+00
   outer loop
     vertex  0.000000e+00  0.000000e+00  3.500000e-01
     vertex -9.637549e-01  1.840909e-01  3.500000e-01
     vertex -9.730593e-01  1.231120e-01  3.500000e-01
   endloop
 endfacet
 facet normal  0.000000e+00  0.000000e+00  1.000000e+00
   outer loop
     vertex  0.000000e+00  0.000000e+00  3.500000e-01
     vertex -9.506059e-01  2.443579e-01  3.500000e-01
     vertex -9.637549e-01  1.840909e-01  3.500000e-01
   endloop
 endfacet
 facet normal  0.000000e+00  0.000000e+00  1.000000e+00
   outer loop
     vertex  0.000000e+00  0.000000e+00  3.500000e-01
     vertex -9.336650e-01  3.036707e-01  3.500000e-01
     vertex -9.506059e-01  2.443579e-01  3.500000e-01
   endloop
 endfacet
 facet normal  0.000000e+00  0.000000e+00  1.000000e+00
   outer loop
     vertex  0.000000e+00  0.000000e+00  3.500000e-01
     vertex -9.130003e-01  3.617910e-01  3.500000e-01
     vertex -9.336650e-01  3.036707e-01  3.500000e-01
   endloop
 endfacet
 facet normal  0.000000e+00  0.000000e+00  1.000000e+00
   outer loop
     vertex  0.000000e+00  0.000000e+00  3.500000e-01
     vertex -8.886949e-01  4.184854e-01  3.500000e-01
     vertex -9.130003e-01  3.617910e-01  3.500000e-01
   endloop
 endfacet
 facet normal  0.000000e+00  0.000000e+00  1.000000e+00
   outer loop
     vertex  0.000000e+00  0.000000e+00  3.500000e-01
     vertex -8.608464e-01  4.735260e-01  3.500000e-01
     vertex -8.886949e-01  4.184854e-01  3.500000e-01
   endloop
 endfacet
 facet normal  0.000000e+00  0.000000e+00  1.000000e+00
   outer loop
     vertex  0.000000e+00  0.000000e+00  3.500000e-01
     vertex -8.295667e-01  5.266916e-01  3.500000e-01
     vertex -8.608464e-01  4.735260e-01  3.500000e-01
   endloop
 endfacet
 facet normal  0.000000e+00  0.000000e+00  1.000000e+00
   outer loop
     vertex  0.000000e+00  0.000000e+00  3.500000e-01
     vertex -7.949815e-01  5.777687e-01  3.500000e-01
     vertex -8.295667e-01  5.266916e-01  3.500000e-01
   endloop
 endfacet
 facet normal  0.000000e+00  0.000000e+00  1.000000e+00
   outer loop
     vertex  0.000000e+00  0.000000e+00  3.500000e-01
     vertex -7.572298e-01  6.265520e-01  3.500000e-01
     vertex -7.949815e-01  5.777687e-01  3.500000e-01
   endloop
 endfacet
 facet normal  0.000000e+00  0.000000e+00  1.000000e+00
   outer loop
     vertex  0.000000e+00  0.000000e+00  3.500000e-01
     vertex -7.164632e-01  6.728455e-01  3.500000e-01
     vertex -7.572298e-01  6.265520e-01  3.500000e-01
   endloop
 endfacet
 facet normal  0.000000e+00  0.000000e+00  1.000000e+00
   outer loop
     vertex -6.728455e-01  7.164632e-01  3.500000e-01
     vertex -7.164632e-01  6.728455e-01  3.500000e-01
     vertex  0.000000e+00  0.000000e+00  3.500000e-01
   endloop
 endfacet
 facet normal  0.000000e+00  0.000000e+00  1.000000e+00
   outer loop
     vertex -6.265520e-01  7.572298e-01  3.500000e-01
     vertex -6.728455e-01  7.164632e-01  3.500000e-01
     vertex  0.000000e+00  0.000000e+00  3.500000e-01
   endloop
 endfacet
 facet normal  0.000000e+00  0.000000e+00  1.000000e+00
   outer loop
     vertex -5.777687e-01  7.949815e-01  3.500000e-01
     vertex -6.265520e-01  7.572298e-01  3.500000e-01
     vertex  0.000000e+00  0.000000e+00  3.500000e-01
   endloop
 endfacet
 facet normal  0.000000e+00  0.000000e+00  1.000000e+00
   outer loop
     vertex -5.266916e-01  8.295667e-01  3.500000e-01
     vertex -5.777687e-01  7.949815e-01  3.500000e-01
     vertex  0.000000e+00  0.000000e+00  3.500000e-01
   endloop
 endfacet
 facet normal  0.000000e+00  0.000000e+00  1.000000e+00
   outer loop
     vertex -4.735260e-01  8.608464e-01  3.500000e-01
     vertex -5.266916e-01  8.295667e-01  3.500000e-01
     vertex  0.000000e+00  0.000000e+00  3.500000e-01
   endloop
 endfacet
 facet normal  0.000000e+00  0.000000e+00  1.000000e+00
   outer loop
     vertex -4.184854e-01  8.886949e-01  3.500000e-01
     vertex -4.735260e-01  8.608464e-01  3.500000e-01
     vertex  0.000000e+00  0.000000e+00  3.500000e-01
   endloop
 endfacet
 facet normal  0.000000e+00  0.000000e+00  1.000000e+00
   outer loop
     vertex -3.617910e-01  9.130003e-01  3.500000e-01
     vertex -4.184854e-01  8.886949e-01  3.500000e-01
     vertex  0.000000e+00  0.000000e+00  3.500000e-01
   endloop
 endfacet
 facet normal  0.000000e+00  0.000000e+00  1.000000e+00
   outer loop
     vertex -3.036707e-01  9.336650e-01  3.500000e-01
     vertex -3.617910e-01  9.130003e-01  3.500000e-01
     vertex  0.000000e+00  0.000000e+00  3.500000e-01
   endloop
 endfacet
 facet normal  0.000000e+00  0.000000e+00  1.000000e+00
   outer loop
     vertex -2.443579e-01  9.506059e-01  3.500000e-01
     vertex -3.036707e-01  9.336650e-01  3.500000e-01
     vertex  0.000000e+00  0.000000e+00  3.500000e-01
   endloop
 endfacet
 facet normal  0.000000e+00  0.000000e+00  1.000000e+00
   outer loop
     vertex -1.840909e-01  9.637549e-01  3.500000e-01
     vertex -2.443579e-01  9.506059e-01  3.500000e-01
     vertex  0.000000e+00  0.000000e+00  3.500000e-01
   endloop
 endfacet
 facet normal  0.000000e+00  0.000000e+00  1.000000e+00
   outer loop
     vertex -1.231120e-01  9.730593e-01  3.500000e-01
     vertex -1.840909e-01  9.637549e-01  3.500000e-01
     vertex  0.000000e+00  0.000000e+00  3.500000e-01
   endloop
 endfacet
 facet normal  0.000000e+00  0.000000e+00  1.000000e+00
   outer loop
     vertex -6.166602e-02  9.784816e-01  3.500000e-01
     vertex -1.231120e-01  9.730593e-01  3.500000e-01
     vertex  0.000000e+00  0.000000e+00  3.500000e-01
   endloop
 endfacet
 facet normal  0.000000e+00  0.000000e+00  1.000000e+00
   outer loop
     vertex -4.336809e-18  9.800000e-01  3.500000e-01
     vertex -6.166602e-02  9.784816e-01  3.500000e-01
     vertex  0.000000e+00  0.000000e+00  3.500000e-01
   endloop
 endfacet
endsolid
