solid 
 facet normal  0.000000e+00  0.000000e+00 -1.000000e+00
   outer loop
     vertex  8.629630e-01  0.000000e+00 -3.522046e-01
     vertex -8.964726e-01  0.000000e+00 -3.522046e-01
     vertex -8.964726e-01  9.206349e-01 -3.522046e-01
   endloop
 endfacet
 facet normal  0.000000e+00  0.000000e+00 -1.000000e+00
   outer loop
     vertex  8.629630e-01  0.000000e+00 -3.522046e-01
     vertex -8.964726e-01  9.206349e-01 -3.522046e-01
     vertex  8.629630e-01  9.206349e-01 -3.522046e-01
   endloop
 endfacet
 facet normal  0.000000e+00 -1.000000e+00 -0.000000e+00
   outer loop
     vertex  8.629630e-01  0.000000e+00  3.758377e-01
     vertex -8.964726e-01  0.000000e+00 -3.522046e-01
     vertex  8.629630e-01  0.000000e+00 -3.522046e-01
   endloop
 endfacet
 facet normal -0.000000e+00 -1.000000e+00  0.000000e+00
   outer loop
     vertex  8.629630e-01  0.000000e+00  3.758377e-01
     vertex -8.964726e-01  0.000000e+00  3.758377e-01
     vertex -8.964726e-01  0.000000e+00 -3.522046e-01
   endloop
 endfacet
 facet normal  1.000000e+00  0.000000e+00  0.000000e+00
   outer loop
     vertex  8.629630e-01  0.000000e+00  3.758377e-01
     vertex  8.629630e-01  0.000000e+00 -3.522046e-01
     vertex  8.629630e-01  9.206349e-01 -3.522046e-01
   endloop
 endfacet
 facet normal  1.000000e+00 -0.000000e+00  0.000000e+00
   outer loop
     vertex  8.629630e-01  0.000000e+00  3.758377e-01
     vertex  8.629630e-01  9.206349e-01 -3.522046e-01
     vertex  8.629630e-01  9.206349e-01  3.758377e-01
   endloop
 endfacet
 facet normal  0.000000e+00  1.000000e+00  0.000000e+00
   outer loop
     vertex  8.629630e-01  9.206349e-01  3.758377e-01
     vertex  8.629630e-01  9.206349e-01 -3.522046e-01
     vertex -8.964726e-01  9.206349e-01 -3.522046e-01
   endloop
 endfacet
 facet normal  0.000000e+00  1.000000e+00  0.000000e+00
   outer loop
     vertex  8.629630e-01  9.206349e-01  3.758377e-01
     vertex -8.964726e-01  9.206349e-01 -3.522046e-01
     vertex -8.964726e-01  9.206349e-01  3.758377e-01
   endloop
 endfacet
 facet normal -1.000000e+00  0.000000e+00  0.000000e+00
   outer loop
     vertex -8.964726e-01  0.000000e+00 -3.522046e-01
     vertex -8.964726e-01  0.000000e+00  3.758377e-01
     vertex -8.964726e-01  9.206349e-01  3.758377e-01
   endloop
 endfacet
 facet normal -1.000000e+00  0.000000e+00  0.000000e+00
   outer loop
     vertex -8.964726e-01  0.000000e+00 -3.522046e-01
     vertex -8.964726e-01  9.206349e-01  3.758377e-01
     vertex -8.964726e-01  9.206349e-01 -3.522046e-01
   endloop
 endfacet
 facet normal  0.000000e+00  0.000000e+00  1.000000e+00
   outer loop
     vertex -8.964726e-01  0.000000e+00  3.758377e-01
     vertex  8.629630e-01  0.000000e+00  3.758377e-01
     vertex  8.629630e-01  9.206349e-01  3.758377e-01
   endloop
 endfacet
 facet normal  0.000000e+00  0.000000e+00  1.000000e+00
   outer loop
     vertex -8.964726e-01  0.000000e+00  3.758377e-01
     vertex  8.629630e-01  9.206349e-01  3.758377e-01
     vertex -8.964726e-01  9.206349e-01  3.758377e-01
   endloop
 endfacet
endsolid
