solid 
 facet normal -1.000000e+00  0.000000e+00 -0.000000e+00
   outer loop
     vertex  0.000000e+00  0.000000e+00  9.800000e-01
     vertex  0.000000e+00  0.000000e+00  0.000000e+00
     vertex  0.000000e+00 -9.700000e-01  0.000000e+00
   endloop
 endfacet
 facet normal -1.000000e+00 -0.000000e+00  0.000000e+00
   outer loop
     vertex  0.000000e+00  0.000000e+00  9.800000e-01
     vertex  0.000000e+00 -9.700000e-01  0.000000e+00
     vertex  0.000000e+00 -9.700000e-01  9.800000e-01
   endloop
 endfacet
 facet normal  0.000000e+00  0.000000e+00  1.000000e+00
   outer loop
     vertex  4.850000e-01  0.000000e+00  9.800000e-01
     vertex  0.000000e+00  0.000000e+00  9.800000e-01
     vertex  0.000000e+00 -9.700000e-01  9.800000e-01
   endloop
 endfacet
 facet normal  0.000000e+00  0.000000e+00  1.000000e+00
   outer loop
     vertex  4.850000e-01  0.000000e+00  9.800000e-01
     vertex  0.000000e+00 -9.700000e-01  9.800000e-01
     vertex  4.850000e-01 -9.700000e-01  9.800000e-01
   endloop
 endfacet
 facet normal  1.000000e+00  0.000000e+00 -0.000000e+00
   outer loop
     vertex  4.850000e-01  0.000000e+00  4.850000e-01
     vertex  4.850000e-01  0.000000e+00  9.800000e-01
     vertex  4.850000e-01 -9.700000e-01  9.800000e-01
   endloop
 endfacet
 facet normal  1.000000e+00  0.000000e+00  0.000000e+00
   outer loop
     vertex  4.850000e-01  0.000000e+00  4.850000e-01
     vertex  4.850000e-01 -9.700000e-01  9.800000e-01
     vertex  4.850000e-01 -9.700000e-01  4.850000e-01
   endloop
 endfacet
 facet normal  0.000000e+00  0.000000e+00  1.000000e+00
   outer loop
     vertex  9.800000e-01  0.000000e+00  4.850000e-01
     vertex  4.850000e-01  0.000000e+00  4.850000e-01
     vertex  4.850000e-01 -9.700000e-01  4.850000e-01
   endloop
 endfacet
 facet normal  0.000000e+00  0.000000e+00  1.000000e+00
   outer loop
     vertex  9.800000e-01  0.000000e+00  4.850000e-01
     vertex  4.850000e-01 -9.700000e-01  4.850000e-01
     vertex  9.800000e-01 -9.700000e-01  4.850000e-01
   endloop
 endfacet
 facet normal  1.000000e+00  0.000000e+00 -0.000000e+00
   outer loop
     vertex  9.800000e-01  0.000000e+00  0.000000e+00
     vertex  9.800000e-01  0.000000e+00  4.850000e-01
     vertex  9.800000e-01 -9.700000e-01  4.850000e-01
   endloop
 endfacet
 facet normal  1.000000e+00  0.000000e+00  0.000000e+00
   outer loop
     vertex  9.800000e-01  0.000000e+00  0.000000e+00
     vertex  9.800000e-01 -9.700000e-01  4.850000e-01
     vertex  9.800000e-01 -9.700000e-01  0.000000e+00
   endloop
 endfacet
 facet normal -0.000000e+00  0.000000e+00 -1.000000e+00
   outer loop
     vertex  9.800000e-01  0.000000e+00  0.000000e+00
     vertex  0.000000e+00 -9.700000e-01  0.000000e+00
     vertex  0.000000e+00  0.000000e+00  0.000000e+00
   endloop
 endfacet
 facet normal  0.000000e+00 -0.000000e+00 -1.000000e+00
   outer loop
     vertex  9.800000e-01  0.000000e+00  0.000000e+00
     vertex  9.800000e-01 -9.700000e-01  0.000000e+00
     vertex  0.000000e+00 -9.700000e-01  0.000000e+00
   endloop
 endfacet
 facet normal  0.000000e+00  1.000000e+00  0.000000e+00
   outer loop
     vertex  9.800000e-01  0.000000e+00  0.000000e+00
     vertex  0.000000e+00  0.000000e+00  0.000000e+00
     vertex  4.850000e-01  0.000000e+00  4.850000e-01
   endloop
 endfacet
 facet normal  0.000000e+00  1.000000e+00  0.000000e+00
   outer loop
     vertex  0.000000e+00  0.000000e+00  9.800000e-01
     vertex  4.850000e-01  0.000000e+00  4.850000e-01
     vertex  0.000000e+00  0.000000e+00  0.000000e+00
   endloop
 endfacet
 facet normal  0.000000e+00  1.000000e+00  0.000000e+00
   outer loop
     vertex  4.850000e-01  0.000000e+00  9.800000e-01
     vertex  4.850000e-01  0.000000e+00  4.850000e-01
     vertex  0.000000e+00  0.000000e+00  9.800000e-01
   endloop
 endfacet
 facet normal  0.000000e+00  1.000000e+00  0.000000e+00
   outer loop
     vertex  9.800000e-01  0.000000e+00  4.850000e-01
     vertex  9.800000e-01  0.000000e+00  0.000000e+00
     vertex  4.850000e-01  0.000000e+00  4.850000e-01
   endloop
 endfacet
 facet normal  0.000000e+00 -1.000000e+00  0.000000e+00
   outer loop
     vertex  9.800000e-01 -9.700000e-01  0.000000e+00
     vertex  4.850000e-01 -9.700000e-01  4.850000e-01
     vertex  0.000000e+00 -9.700000e-01  0.000000e+00
   endloop
 endfacet
 facet normal  0.000000e+00 -1.000000e+00  0.000000e+00
   outer loop
     vertex  0.000000e+00 -9.700000e-01  9.800000e-01
     vertex  0.000000e+00 -9.700000e-01  0.000000e+00
     vertex  4.850000e-01 -9.700000e-01  4.850000e-01
   endloop
 endfacet
 facet normal -0.000000e+00 -1.000000e+00 -0.000000e+00
   outer loop
     vertex  4.850000e-01 -9.700000e-01  9.800000e-01
     vertex  0.000000e+00 -9.700000e-01  9.800000e-01
     vertex  4.850000e-01 -9.700000e-01  4.850000e-01
   endloop
 endfacet
 facet normal -0.000000e+00 -1.000000e+00 -0.000000e+00
   outer loop
     vertex  9.800000e-01 -9.700000e-01  4.850000e-01
     vertex  4.850000e-01 -9.700000e-01  4.850000e-01
     vertex  9.800000e-01 -9.700000e-01  0.000000e+00
   endloop
 endfacet
 facet normal  0.000000e+00  0.000000e+00  1.000000e+00
   outer loop
     vertex  9.752500e+01 -9.700000e+01  9.849000e+01
     vertex  9.847500e+01 -9.700000e+01  9.849000e+01
     vertex  9.847500e+01 -9.682500e+01  9.849000e+01
   endloop
 endfacet
 facet normal  0.000000e+00  0.000000e+00  1.000000e+00
   outer loop
     vertex  9.752500e+01 -9.700000e+01  9.849000e+01
     vertex  9.847500e+01 -9.682500e+01  9.849000e+01
     vertex  9.752500e+01 -9.682500e+01  9.849000e+01
   endloop
 endfacet
 facet normal -1.000000e+00  0.000000e+00  0.000000e+00
   outer loop
     vertex  9.752500e+01 -9.700000e+01  9.751000e+01
     vertex  9.752500e+01 -9.700000e+01  9.849000e+01
     vertex  9.752500e+01 -9.682500e+01  9.849000e+01
   endloop
 endfacet
 facet normal -1.000000e+00  0.000000e+00  0.000000e+00
   outer loop
     vertex  9.752500e+01 -9.700000e+01  9.751000e+01
     vertex  9.752500e+01 -9.682500e+01  9.849000e+01
     vertex  9.752500e+01 -9.682500e+01  9.751000e+01
   endloop
 endfacet
 facet normal  0.000000e+00  0.000000e+00 -1.000000e+00
   outer loop
     vertex  9.752500e+01 -9.700000e+01  9.751000e+01
     vertex  9.847500e+01 -9.682500e+01  9.751000e+01
     vertex  9.847500e+01 -9.700000e+01  9.751000e+01
   endloop
 endfacet
 facet normal  0.000000e+00  0.000000e+00 -1.000000e+00
   outer loop
     vertex  9.752500e+01 -9.700000e+01  9.751000e+01
     vertex  9.752500e+01 -9.682500e+01  9.751000e+01
     vertex  9.847500e+01 -9.682500e+01  9.751000e+01
   endloop
 endfacet
 facet normal  1.000000e+00  0.000000e+00  0.000000e+00
   outer loop
     vertex  9.847500e+01 -9.700000e+01  9.751000e+01
     vertex  9.847500e+01 -9.682500e+01  9.849000e+01
     vertex  9.847500e+01 -9.700000e+01  9.849000e+01
   endloop
 endfacet
 facet normal  1.000000e+00  0.000000e+00  0.000000e+00
   outer loop
     vertex  9.847500e+01 -9.700000e+01  9.751000e+01
     vertex  9.847500e+01 -9.682500e+01  9.751000e+01
     vertex  9.847500e+01 -9.682500e+01  9.849000e+01
   endloop
 endfacet
 facet normal -0.000000e+00 -1.000000e+00  0.000000e+00
   outer loop
     vertex  9.847500e+01 -9.700000e+01  9.849000e+01
     vertex  9.752500e+01 -9.700000e+01  9.849000e+01
     vertex  9.752500e+01 -9.700000e+01  9.751000e+01
   endloop
 endfacet
 facet normal  0.000000e+00 -1.000000e+00 -0.000000e+00
   outer loop
     vertex  9.847500e+01 -9.700000e+01  9.849000e+01
     vertex  9.752500e+01 -9.700000e+01  9.751000e+01
     vertex  9.847500e+01 -9.700000e+01  9.751000e+01
   endloop
 endfacet
 facet normal  0.000000e+00  1.000000e+00  0.000000e+00
   outer loop
     vertex  9.847500e+01 -9.682500e+01  9.849000e+01
     vertex  9.752500e+01 -9.682500e+01  9.751000e+01
     vertex  9.752500e+01 -9.682500e+01  9.849000e+01
   endloop
 endfacet
 facet normal  0.000000e+00  1.000000e+00  0.000000e+00
   outer loop
     vertex  9.847500e+01 -9.682500e+01  9.849000e+01
     vertex  9.847500e+01 -9.682500e+01  9.751000e+01
     vertex  9.752500e+01 -9.682500e+01  9.751000e+01
   endloop
 endfacet
endsolid
