solid 
 facet normal  9.975641e-01  6.975647e-02  0.000000e+00
   outer loop
     vertex  1.980536e-01  2.783462e-02  0.000000e+00
     vertex  2.000000e-01  0.000000e+00  1.000000e+00
     vertex  2.000000e-01  0.000000e+00  0.000000e+00
   endloop
 endfacet
 facet normal  9.975641e-01  6.975647e-02 -0.000000e+00
   outer loop
     vertex  1.980536e-01  2.783462e-02  0.000000e+00
     vertex  1.980536e-01  2.783462e-02  1.000000e+00
     vertex  2.000000e-01  0.000000e+00  1.000000e+00
   endloop
 endfacet
 facet normal  9.781476e-01  2.079117e-01 -0.000000e+00
   outer loop
     vertex  1.922523e-01  5.512747e-02  0.000000e+00
     vertex  1.922523e-01  5.512747e-02  1.000000e+00
     vertex  1.980536e-01  2.783462e-02  1.000000e+00
   endloop
 endfacet
 facet normal  9.781476e-01  2.079117e-01  0.000000e+00
   outer loop
     vertex  1.922523e-01  5.512747e-02  0.000000e+00
     vertex  1.980536e-01  2.783462e-02  1.000000e+00
     vertex  1.980536e-01  2.783462e-02  0.000000e+00
   endloop
 endfacet
 facet normal  9.396926e-01  3.420201e-01 -0.000000e+00
   outer loop
     vertex  1.827091e-01  8.134733e-02  0.000000e+00
     vertex  1.827091e-01  8.134733e-02  1.000000e+00
     vertex  1.922523e-01  5.512747e-02  1.000000e+00
   endloop
 endfacet
 facet normal  9.396926e-01  3.420201e-01  0.000000e+00
   outer loop
     vertex  1.827091e-01  8.134733e-02  0.000000e+00
     vertex  1.922523e-01  5.512747e-02  1.000000e+00
     vertex  1.922523e-01  5.512747e-02  0.000000e+00
   endloop
 endfacet
 facet normal  8.829476e-01  4.694716e-01 -0.000000e+00
   outer loop
     vertex  1.696096e-01  1.059839e-01  0.000000e+00
     vertex  1.696096e-01  1.059839e-01  1.000000e+00
     vertex  1.827091e-01  8.134733e-02  1.000000e+00
   endloop
 endfacet
 facet normal  8.829476e-01  4.694716e-01  0.000000e+00
   outer loop
     vertex  1.696096e-01  1.059839e-01  0.000000e+00
     vertex  1.827091e-01  8.134733e-02  1.000000e+00
     vertex  1.827091e-01  8.134733e-02  0.000000e+00
   endloop
 endfacet
 facet normal  8.090170e-01  5.877853e-01 -0.000000e+00
   outer loop
     vertex  1.532089e-01  1.285575e-01  0.000000e+00
     vertex  1.532089e-01  1.285575e-01  1.000000e+00
     vertex  1.696096e-01  1.059839e-01  1.000000e+00
   endloop
 endfacet
 facet normal  8.090170e-01  5.877853e-01  0.000000e+00
   outer loop
     vertex  1.532089e-01  1.285575e-01  0.000000e+00
     vertex  1.696096e-01  1.059839e-01  1.000000e+00
     vertex  1.696096e-01  1.059839e-01  0.000000e+00
   endloop
 endfacet
 facet normal  7.193398e-01  6.946584e-01 -0.000000e+00
   outer loop
     vertex  1.338261e-01  1.486290e-01  0.000000e+00
     vertex  1.338261e-01  1.486290e-01  1.000000e+00
     vertex  1.532089e-01  1.285575e-01  1.000000e+00
   endloop
 endfacet
 facet normal  7.193398e-01  6.946584e-01  0.000000e+00
   outer loop
     vertex  1.338261e-01  1.486290e-01  0.000000e+00
     vertex  1.532089e-01  1.285575e-01  1.000000e+00
     vertex  1.532089e-01  1.285575e-01  0.000000e+00
   endloop
 endfacet
 facet normal  6.156615e-01  7.880108e-01 -0.000000e+00
   outer loop
     vertex  1.118386e-01  1.658075e-01  0.000000e+00
     vertex  1.118386e-01  1.658075e-01  1.000000e+00
     vertex  1.338261e-01  1.486290e-01  1.000000e+00
   endloop
 endfacet
 facet normal  5.000000e-01  8.660254e-01 -0.000000e+00
   outer loop
     vertex  1.118386e-01  1.658075e-01  0.000000e+00
     vertex  8.767423e-02  1.797588e-01  1.000000e+00
     vertex  1.118386e-01  1.658075e-01  1.000000e+00
   endloop
 endfacet
 facet normal  6.156615e-01  7.880108e-01  0.000000e+00
   outer loop
     vertex  1.118386e-01  1.658075e-01  0.000000e+00
     vertex  1.338261e-01  1.486290e-01  1.000000e+00
     vertex  1.338261e-01  1.486290e-01  0.000000e+00
   endloop
 endfacet
 facet normal  5.000000e-01  8.660254e-01 -0.000000e+00
   outer loop
     vertex  8.767423e-02  1.797588e-01  0.000000e+00
     vertex  8.767423e-02  1.797588e-01  1.000000e+00
     vertex  1.118386e-01  1.658075e-01  0.000000e+00
   endloop
 endfacet
 facet normal  3.746066e-01  9.271839e-01 -0.000000e+00
   outer loop
     vertex  6.180340e-02  1.902113e-01  0.000000e+00
     vertex  6.180340e-02  1.902113e-01  1.000000e+00
     vertex  8.767423e-02  1.797588e-01  1.000000e+00
   endloop
 endfacet
 facet normal  3.746066e-01  9.271839e-01  0.000000e+00
   outer loop
     vertex  6.180340e-02  1.902113e-01  0.000000e+00
     vertex  8.767423e-02  1.797588e-01  1.000000e+00
     vertex  8.767423e-02  1.797588e-01  0.000000e+00
   endloop
 endfacet
 facet normal  2.419219e-01  9.702957e-01 -0.000000e+00
   outer loop
     vertex  3.472964e-02  1.969616e-01  0.000000e+00
     vertex  3.472964e-02  1.969616e-01  1.000000e+00
     vertex  6.180340e-02  1.902113e-01  1.000000e+00
   endloop
 endfacet
 facet normal  2.419219e-01  9.702957e-01  0.000000e+00
   outer loop
     vertex  3.472964e-02  1.969616e-01  0.000000e+00
     vertex  6.180340e-02  1.902113e-01  1.000000e+00
     vertex  6.180340e-02  1.902113e-01  0.000000e+00
   endloop
 endfacet
 facet normal  1.045285e-01  9.945219e-01 -0.000000e+00
   outer loop
     vertex  6.979899e-03  1.998782e-01  0.000000e+00
     vertex  6.979899e-03  1.998782e-01  1.000000e+00
     vertex  3.472964e-02  1.969616e-01  1.000000e+00
   endloop
 endfacet
 facet normal  1.045285e-01  9.945219e-01  0.000000e+00
   outer loop
     vertex  6.979899e-03  1.998782e-01  0.000000e+00
     vertex  3.472964e-02  1.969616e-01  1.000000e+00
     vertex  3.472964e-02  1.969616e-01  0.000000e+00
   endloop
 endfacet
 facet normal -3.489950e-02  9.993908e-01  0.000000e+00
   outer loop
     vertex -2.090569e-02  1.989044e-01  0.000000e+00
     vertex -2.090569e-02  1.989044e-01  1.000000e+00
     vertex  6.979899e-03  1.998782e-01  1.000000e+00
   endloop
 endfacet
 facet normal -3.489950e-02  9.993908e-01  0.000000e+00
   outer loop
     vertex -2.090569e-02  1.989044e-01  0.000000e+00
     vertex  6.979899e-03  1.998782e-01  1.000000e+00
     vertex  6.979899e-03  1.998782e-01  0.000000e+00
   endloop
 endfacet
 facet normal -1.736482e-01  9.848078e-01  0.000000e+00
   outer loop
     vertex -4.838438e-02  1.940591e-01  0.000000e+00
     vertex -4.838438e-02  1.940591e-01  1.000000e+00
     vertex -2.090569e-02  1.989044e-01  1.000000e+00
   endloop
 endfacet
 facet normal -1.736482e-01  9.848078e-01  0.000000e+00
   outer loop
     vertex -4.838438e-02  1.940591e-01  0.000000e+00
     vertex -2.090569e-02  1.989044e-01  1.000000e+00
     vertex -2.090569e-02  1.989044e-01  0.000000e+00
   endloop
 endfacet
 facet normal -3.090170e-01  9.510565e-01  0.000000e+00
   outer loop
     vertex -7.492132e-02  1.854368e-01  0.000000e+00
     vertex -7.492132e-02  1.854368e-01  1.000000e+00
     vertex -4.838438e-02  1.940591e-01  1.000000e+00
   endloop
 endfacet
 facet normal -3.090170e-01  9.510565e-01  0.000000e+00
   outer loop
     vertex -7.492132e-02  1.854368e-01  0.000000e+00
     vertex -4.838438e-02  1.940591e-01  1.000000e+00
     vertex -4.838438e-02  1.940591e-01  0.000000e+00
   endloop
 endfacet
 facet normal -4.383711e-01  8.987940e-01  0.000000e+00
   outer loop
     vertex -1.000000e-01  1.732051e-01  0.000000e+00
     vertex -1.000000e-01  1.732051e-01  1.000000e+00
     vertex -7.492132e-02  1.854368e-01  1.000000e+00
   endloop
 endfacet
 facet normal -4.383711e-01  8.987940e-01  0.000000e+00
   outer loop
     vertex -1.000000e-01  1.732051e-01  0.000000e+00
     vertex -7.492132e-02  1.854368e-01  1.000000e+00
     vertex -7.492132e-02  1.854368e-01  0.000000e+00
   endloop
 endfacet
 facet normal -5.591929e-01  8.290376e-01  0.000000e+00
   outer loop
     vertex -1.231323e-01  1.576022e-01  0.000000e+00
     vertex -1.231323e-01  1.576022e-01  1.000000e+00
     vertex -1.000000e-01  1.732051e-01  1.000000e+00
   endloop
 endfacet
 facet normal -5.591929e-01  8.290376e-01  0.000000e+00
   outer loop
     vertex -1.231323e-01  1.576022e-01  0.000000e+00
     vertex -1.000000e-01  1.732051e-01  1.000000e+00
     vertex -1.000000e-01  1.732051e-01  0.000000e+00
   endloop
 endfacet
 facet normal -6.691306e-01  7.431448e-01  0.000000e+00
   outer loop
     vertex -1.438680e-01  1.389317e-01  0.000000e+00
     vertex -1.438680e-01  1.389317e-01  1.000000e+00
     vertex -1.231323e-01  1.576022e-01  1.000000e+00
   endloop
 endfacet
 facet normal -6.691306e-01  7.431448e-01  0.000000e+00
   outer loop
     vertex -1.438680e-01  1.389317e-01  0.000000e+00
     vertex -1.231323e-01  1.576022e-01  1.000000e+00
     vertex -1.231323e-01  1.576022e-01  0.000000e+00
   endloop
 endfacet
 facet normal -7.660444e-01  6.427876e-01  0.000000e+00
   outer loop
     vertex -1.618034e-01  1.175571e-01  0.000000e+00
     vertex -1.618034e-01  1.175571e-01  1.000000e+00
     vertex -1.438680e-01  1.389317e-01  1.000000e+00
   endloop
 endfacet
 facet normal -7.660444e-01  6.427876e-01  0.000000e+00
   outer loop
     vertex -1.618034e-01  1.175571e-01  0.000000e+00
     vertex -1.438680e-01  1.389317e-01  1.000000e+00
     vertex -1.438680e-01  1.389317e-01  0.000000e+00
   endloop
 endfacet
 facet normal -8.480481e-01  5.299193e-01  0.000000e+00
   outer loop
     vertex -1.765895e-01  9.389431e-02  0.000000e+00
     vertex -1.765895e-01  9.389431e-02  1.000000e+00
     vertex -1.618034e-01  1.175571e-01  1.000000e+00
   endloop
 endfacet
 facet normal -8.480481e-01  5.299193e-01  0.000000e+00
   outer loop
     vertex -1.765895e-01  9.389431e-02  0.000000e+00
     vertex -1.618034e-01  1.175571e-01  1.000000e+00
     vertex -1.618034e-01  1.175571e-01  0.000000e+00
   endloop
 endfacet
 facet normal -9.135455e-01  4.067366e-01  0.000000e+00
   outer loop
     vertex -1.879385e-01  6.840403e-02  0.000000e+00
     vertex -1.879385e-01  6.840403e-02  1.000000e+00
     vertex -1.765895e-01  9.389431e-02  1.000000e+00
   endloop
 endfacet
 facet normal -9.135455e-01  4.067366e-01  0.000000e+00
   outer loop
     vertex -1.879385e-01  6.840403e-02  0.000000e+00
     vertex -1.765895e-01  9.389431e-02  1.000000e+00
     vertex -1.765895e-01  9.389431e-02  0.000000e+00
   endloop
 endfacet
 facet normal -9.612617e-01  2.756374e-01  0.000000e+00
   outer loop
     vertex -1.956295e-01  4.158234e-02  0.000000e+00
     vertex -1.956295e-01  4.158234e-02  1.000000e+00
     vertex -1.879385e-01  6.840403e-02  1.000000e+00
   endloop
 endfacet
 facet normal -9.902681e-01  1.391731e-01  0.000000e+00
   outer loop
     vertex -1.956295e-01  4.158234e-02  0.000000e+00
     vertex -1.995128e-01  1.395129e-02  1.000000e+00
     vertex -1.956295e-01  4.158234e-02  1.000000e+00
   endloop
 endfacet
 facet normal -9.612617e-01  2.756374e-01  0.000000e+00
   outer loop
     vertex -1.956295e-01  4.158234e-02  0.000000e+00
     vertex -1.879385e-01  6.840403e-02  1.000000e+00
     vertex -1.879385e-01  6.840403e-02  0.000000e+00
   endloop
 endfacet
 facet normal -9.902681e-01  1.391731e-01  0.000000e+00
   outer loop
     vertex -1.995128e-01  1.395129e-02  0.000000e+00
     vertex -1.995128e-01  1.395129e-02  1.000000e+00
     vertex -1.956295e-01  4.158234e-02  0.000000e+00
   endloop
 endfacet
 facet normal -1.000000e+00  0.000000e+00  0.000000e+00
   outer loop
     vertex -1.995128e-01 -1.395129e-02  0.000000e+00
     vertex -1.995128e-01 -1.395129e-02  1.000000e+00
     vertex -1.995128e-01  1.395129e-02  1.000000e+00
   endloop
 endfacet
 facet normal -9.902681e-01 -1.391731e-01  0.000000e+00
   outer loop
     vertex -1.995128e-01 -1.395129e-02  0.000000e+00
     vertex -1.956295e-01 -4.158234e-02  1.000000e+00
     vertex -1.995128e-01 -1.395129e-02  1.000000e+00
   endloop
 endfacet
 facet normal -1.000000e+00  0.000000e+00  0.000000e+00
   outer loop
     vertex -1.995128e-01 -1.395129e-02  0.000000e+00
     vertex -1.995128e-01  1.395129e-02  1.000000e+00
     vertex -1.995128e-01  1.395129e-02  0.000000e+00
   endloop
 endfacet
 facet normal -9.902681e-01 -1.391731e-01  0.000000e+00
   outer loop
     vertex -1.956295e-01 -4.158234e-02  0.000000e+00
     vertex -1.956295e-01 -4.158234e-02  1.000000e+00
     vertex -1.995128e-01 -1.395129e-02  0.000000e+00
   endloop
 endfacet
 facet normal -9.612617e-01 -2.756374e-01  0.000000e+00
   outer loop
     vertex -1.879385e-01 -6.840403e-02  0.000000e+00
     vertex -1.879385e-01 -6.840403e-02  1.000000e+00
     vertex -1.956295e-01 -4.158234e-02  1.000000e+00
   endloop
 endfacet
 facet normal -9.612617e-01 -2.756374e-01  0.000000e+00
   outer loop
     vertex -1.879385e-01 -6.840403e-02  0.000000e+00
     vertex -1.956295e-01 -4.158234e-02  1.000000e+00
     vertex -1.956295e-01 -4.158234e-02  0.000000e+00
   endloop
 endfacet
 facet normal -9.135455e-01 -4.067366e-01  0.000000e+00
   outer loop
     vertex -1.765895e-01 -9.389431e-02  0.000000e+00
     vertex -1.765895e-01 -9.389431e-02  1.000000e+00
     vertex -1.879385e-01 -6.840403e-02  1.000000e+00
   endloop
 endfacet
 facet normal -9.135455e-01 -4.067366e-01  0.000000e+00
   outer loop
     vertex -1.765895e-01 -9.389431e-02  0.000000e+00
     vertex -1.879385e-01 -6.840403e-02  1.000000e+00
     vertex -1.879385e-01 -6.840403e-02  0.000000e+00
   endloop
 endfacet
 facet normal -8.480481e-01 -5.299193e-01  0.000000e+00
   outer loop
     vertex -1.618034e-01 -1.175571e-01  0.000000e+00
     vertex -1.765895e-01 -9.389431e-02  1.000000e+00
     vertex -1.765895e-01 -9.389431e-02  0.000000e+00
   endloop
 endfacet
 facet normal -8.480481e-01 -5.299193e-01  0.000000e+00
   outer loop
     vertex -1.618034e-01 -1.175571e-01  0.000000e+00
     vertex -1.618034e-01 -1.175571e-01  1.000000e+00
     vertex -1.765895e-01 -9.389431e-02  1.000000e+00
   endloop
 endfacet
 facet normal -7.660444e-01 -6.427876e-01  0.000000e+00
   outer loop
     vertex -1.438680e-01 -1.389317e-01  0.000000e+00
     vertex -1.618034e-01 -1.175571e-01  1.000000e+00
     vertex -1.618034e-01 -1.175571e-01  0.000000e+00
   endloop
 endfacet
 facet normal -7.660444e-01 -6.427876e-01  0.000000e+00
   outer loop
     vertex -1.438680e-01 -1.389317e-01  0.000000e+00
     vertex -1.438680e-01 -1.389317e-01  1.000000e+00
     vertex -1.618034e-01 -1.175571e-01  1.000000e+00
   endloop
 endfacet
 facet normal -6.691306e-01 -7.431448e-01  0.000000e+00
   outer loop
     vertex -1.231323e-01 -1.576022e-01  0.000000e+00
     vertex -1.438680e-01 -1.389317e-01  1.000000e+00
     vertex -1.438680e-01 -1.389317e-01  0.000000e+00
   endloop
 endfacet
 facet normal -6.691306e-01 -7.431448e-01  0.000000e+00
   outer loop
     vertex -1.231323e-01 -1.576022e-01  0.000000e+00
     vertex -1.231323e-01 -1.576022e-01  1.000000e+00
     vertex -1.438680e-01 -1.389317e-01  1.000000e+00
   endloop
 endfacet
 facet normal -5.591929e-01 -8.290376e-01  0.000000e+00
   outer loop
     vertex -1.000000e-01 -1.732051e-01  0.000000e+00
     vertex -1.231323e-01 -1.576022e-01  1.000000e+00
     vertex -1.231323e-01 -1.576022e-01  0.000000e+00
   endloop
 endfacet
 facet normal -5.591929e-01 -8.290376e-01  0.000000e+00
   outer loop
     vertex -1.000000e-01 -1.732051e-01  0.000000e+00
     vertex -1.000000e-01 -1.732051e-01  1.000000e+00
     vertex -1.231323e-01 -1.576022e-01  1.000000e+00
   endloop
 endfacet
 facet normal -4.383711e-01 -8.987940e-01  0.000000e+00
   outer loop
     vertex -7.492132e-02 -1.854368e-01  0.000000e+00
     vertex -1.000000e-01 -1.732051e-01  1.000000e+00
     vertex -1.000000e-01 -1.732051e-01  0.000000e+00
   endloop
 endfacet
 facet normal -4.383711e-01 -8.987940e-01  0.000000e+00
   outer loop
     vertex -7.492132e-02 -1.854368e-01  0.000000e+00
     vertex -7.492132e-02 -1.854368e-01  1.000000e+00
     vertex -1.000000e-01 -1.732051e-01  1.000000e+00
   endloop
 endfacet
 facet normal -3.090170e-01 -9.510565e-01  0.000000e+00
   outer loop
     vertex -4.838438e-02 -1.940591e-01  0.000000e+00
     vertex -7.492132e-02 -1.854368e-01  1.000000e+00
     vertex -7.492132e-02 -1.854368e-01  0.000000e+00
   endloop
 endfacet
 facet normal -3.090170e-01 -9.510565e-01  0.000000e+00
   outer loop
     vertex -4.838438e-02 -1.940591e-01  0.000000e+00
     vertex -4.838438e-02 -1.940591e-01  1.000000e+00
     vertex -7.492132e-02 -1.854368e-01  1.000000e+00
   endloop
 endfacet
 facet normal -1.736482e-01 -9.848078e-01  0.000000e+00
   outer loop
     vertex -2.090569e-02 -1.989044e-01  0.000000e+00
     vertex -4.838438e-02 -1.940591e-01  1.000000e+00
     vertex -4.838438e-02 -1.940591e-01  0.000000e+00
   endloop
 endfacet
 facet normal -1.736482e-01 -9.848078e-01  0.000000e+00
   outer loop
     vertex -2.090569e-02 -1.989044e-01  0.000000e+00
     vertex -2.090569e-02 -1.989044e-01  1.000000e+00
     vertex -4.838438e-02 -1.940591e-01  1.000000e+00
   endloop
 endfacet
 facet normal -3.489950e-02 -9.993908e-01  0.000000e+00
   outer loop
     vertex  6.979899e-03 -1.998782e-01  0.000000e+00
     vertex -2.090569e-02 -1.989044e-01  1.000000e+00
     vertex -2.090569e-02 -1.989044e-01  0.000000e+00
   endloop
 endfacet
 facet normal -3.489950e-02 -9.993908e-01  0.000000e+00
   outer loop
     vertex  6.979899e-03 -1.998782e-01  0.000000e+00
     vertex  6.979899e-03 -1.998782e-01  1.000000e+00
     vertex -2.090569e-02 -1.989044e-01  1.000000e+00
   endloop
 endfacet
 facet normal  1.045285e-01 -9.945219e-01  0.000000e+00
   outer loop
     vertex  6.979899e-03 -1.998782e-01  0.000000e+00
     vertex  3.472964e-02 -1.969616e-01  1.000000e+00
     vertex  6.979899e-03 -1.998782e-01  1.000000e+00
   endloop
 endfacet
 facet normal  1.045285e-01 -9.945219e-01  0.000000e+00
   outer loop
     vertex  3.472964e-02 -1.969616e-01  0.000000e+00
     vertex  3.472964e-02 -1.969616e-01  1.000000e+00
     vertex  6.979899e-03 -1.998782e-01  0.000000e+00
   endloop
 endfacet
 facet normal  2.419219e-01 -9.702957e-01  0.000000e+00
   outer loop
     vertex  6.180340e-02 -1.902113e-01  0.000000e+00
     vertex  6.180340e-02 -1.902113e-01  1.000000e+00
     vertex  3.472964e-02 -1.969616e-01  1.000000e+00
   endloop
 endfacet
 facet normal  2.419219e-01 -9.702957e-01  0.000000e+00
   outer loop
     vertex  6.180340e-02 -1.902113e-01  0.000000e+00
     vertex  3.472964e-02 -1.969616e-01  1.000000e+00
     vertex  3.472964e-02 -1.969616e-01  0.000000e+00
   endloop
 endfacet
 facet normal  3.746066e-01 -9.271839e-01  0.000000e+00
   outer loop
     vertex  8.767423e-02 -1.797588e-01  0.000000e+00
     vertex  8.767423e-02 -1.797588e-01  1.000000e+00
     vertex  6.180340e-02 -1.902113e-01  1.000000e+00
   endloop
 endfacet
 facet normal  3.746066e-01 -9.271839e-01  0.000000e+00
   outer loop
     vertex  8.767423e-02 -1.797588e-01  0.000000e+00
     vertex  6.180340e-02 -1.902113e-01  1.000000e+00
     vertex  6.180340e-02 -1.902113e-01  0.000000e+00
   endloop
 endfacet
 facet normal  5.000000e-01 -8.660254e-01  0.000000e+00
   outer loop
     vertex  1.118386e-01 -1.658075e-01  0.000000e+00
     vertex  1.118386e-01 -1.658075e-01  1.000000e+00
     vertex  8.767423e-02 -1.797588e-01  1.000000e+00
   endloop
 endfacet
 facet normal  5.000000e-01 -8.660254e-01  0.000000e+00
   outer loop
     vertex  1.118386e-01 -1.658075e-01  0.000000e+00
     vertex  8.767423e-02 -1.797588e-01  1.000000e+00
     vertex  8.767423e-02 -1.797588e-01  0.000000e+00
   endloop
 endfacet
 facet normal  6.156615e-01 -7.880108e-01  0.000000e+00
   outer loop
     vertex  1.338261e-01 -1.486290e-01  0.000000e+00
     vertex  1.338261e-01 -1.486290e-01  1.000000e+00
     vertex  1.118386e-01 -1.658075e-01  1.000000e+00
   endloop
 endfacet
 facet normal  6.156615e-01 -7.880108e-01  0.000000e+00
   outer loop
     vertex  1.338261e-01 -1.486290e-01  0.000000e+00
     vertex  1.118386e-01 -1.658075e-01  1.000000e+00
     vertex  1.118386e-01 -1.658075e-01  0.000000e+00
   endloop
 endfacet
 facet normal  7.193398e-01 -6.946584e-01  0.000000e+00
   outer loop
     vertex  1.532089e-01 -1.285575e-01  0.000000e+00
     vertex  1.532089e-01 -1.285575e-01  1.000000e+00
     vertex  1.338261e-01 -1.486290e-01  1.000000e+00
   endloop
 endfacet
 facet normal  7.193398e-01 -6.946584e-01  0.000000e+00
   outer loop
     vertex  1.532089e-01 -1.285575e-01  0.000000e+00
     vertex  1.338261e-01 -1.486290e-01  1.000000e+00
     vertex  1.338261e-01 -1.486290e-01  0.000000e+00
   endloop
 endfacet
 facet normal  8.090170e-01 -5.877853e-01  0.000000e+00
   outer loop
     vertex  1.696096e-01 -1.059839e-01  0.000000e+00
     vertex  1.696096e-01 -1.059839e-01  1.000000e+00
     vertex  1.532089e-01 -1.285575e-01  1.000000e+00
   endloop
 endfacet
 facet normal  8.090170e-01 -5.877853e-01  0.000000e+00
   outer loop
     vertex  1.696096e-01 -1.059839e-01  0.000000e+00
     vertex  1.532089e-01 -1.285575e-01  1.000000e+00
     vertex  1.532089e-01 -1.285575e-01  0.000000e+00
   endloop
 endfacet
 facet normal  8.829476e-01 -4.694716e-01  0.000000e+00
   outer loop
     vertex  1.827091e-01 -8.134733e-02  0.000000e+00
     vertex  1.827091e-01 -8.134733e-02  1.000000e+00
     vertex  1.696096e-01 -1.059839e-01  1.000000e+00
   endloop
 endfacet
 facet normal  8.829476e-01 -4.694716e-01  0.000000e+00
   outer loop
     vertex  1.827091e-01 -8.134733e-02  0.000000e+00
     vertex  1.696096e-01 -1.059839e-01  1.000000e+00
     vertex  1.696096e-01 -1.059839e-01  0.000000e+00
   endloop
 endfacet
 facet normal  9.396926e-01 -3.420201e-01  0.000000e+00
   outer loop
     vertex  1.922523e-01 -5.512747e-02  0.000000e+00
     vertex  1.922523e-01 -5.512747e-02  1.000000e+00
     vertex  1.827091e-01 -8.134733e-02  1.000000e+00
   endloop
 endfacet
 facet normal  9.396926e-01 -3.420201e-01  0.000000e+00
   outer loop
     vertex  1.922523e-01 -5.512747e-02  0.000000e+00
     vertex  1.827091e-01 -8.134733e-02  1.000000e+00
     vertex  1.827091e-01 -8.134733e-02  0.000000e+00
   endloop
 endfacet
 facet normal  9.781476e-01 -2.079117e-01  0.000000e+00
   outer loop
     vertex  1.980536e-01 -2.783462e-02  0.000000e+00
     vertex  1.980536e-01 -2.783462e-02  1.000000e+00
     vertex  1.922523e-01 -5.512747e-02  1.000000e+00
   endloop
 endfacet
 facet normal  9.975641e-01 -6.975647e-02  0.000000e+00
   outer loop
     vertex  1.980536e-01 -2.783462e-02  0.000000e+00
     vertex  2.000000e-01  0.000000e+00  1.000000e+00
     vertex  1.980536e-01 -2.783462e-02  1.000000e+00
   endloop
 endfacet
 facet normal  9.781476e-01 -2.079117e-01  0.000000e+00
   outer loop
     vertex  1.980536e-01 -2.783462e-02  0.000000e+00
     vertex  1.922523e-01 -5.512747e-02  1.000000e+00
     vertex  1.922523e-01 -5.512747e-02  0.000000e+00
   endloop
 endfacet
 facet normal  9.975641e-01 -6.975647e-02  0.000000e+00
   outer loop
     vertex  2.000000e-01  0.000000e+00  0.000000e+00
     vertex  2.000000e-01  0.000000e+00  1.000000e+00
     vertex  1.980536e-01 -2.783462e-02  0.000000e+00
   endloop
 endfacet
 facet normal -9.963975e-01 -8.480592e-02  0.000000e+00
   outer loop
     vertex  1.330581e-01  2.281511e-02  0.000000e+00
     vertex  1.350000e-01  0.000000e+00  0.000000e+00
     vertex  1.350000e-01  0.000000e+00  1.000000e+00
   endloop
 endfacet
 facet normal -9.963975e-01 -8.480592e-02  0.000000e+00
   outer loop
     vertex  1.330581e-01  2.281511e-02  0.000000e+00
     vertex  1.350000e-01  0.000000e+00  1.000000e+00
     vertex  1.330581e-01  2.281511e-02  1.000000e+00
   endloop
 endfacet
 facet normal -9.677329e-01 -2.519781e-01  0.000000e+00
   outer loop
     vertex  1.272885e-01  4.497387e-02  0.000000e+00
     vertex  1.330581e-01  2.281511e-02  1.000000e+00
     vertex  1.272885e-01  4.497387e-02  1.000000e+00
   endloop
 endfacet
 facet normal -9.677329e-01 -2.519781e-01  0.000000e+00
   outer loop
     vertex  1.272885e-01  4.497387e-02  0.000000e+00
     vertex  1.330581e-01  2.281511e-02  0.000000e+00
     vertex  1.330581e-01  2.281511e-02  1.000000e+00
   endloop
 endfacet
 facet normal -9.112285e-01 -4.119012e-01  0.000000e+00
   outer loop
     vertex  1.178569e-01  6.583882e-02  0.000000e+00
     vertex  1.272885e-01  4.497387e-02  1.000000e+00
     vertex  1.178569e-01  6.583882e-02  1.000000e+00
   endloop
 endfacet
 facet normal -9.112285e-01 -4.119012e-01  0.000000e+00
   outer loop
     vertex  1.178569e-01  6.583882e-02  0.000000e+00
     vertex  1.272885e-01  4.497387e-02  0.000000e+00
     vertex  1.272885e-01  4.497387e-02  1.000000e+00
   endloop
 endfacet
 facet normal -8.285096e-01 -5.599748e-01  0.000000e+00
   outer loop
     vertex  1.050348e-01  8.480970e-02  0.000000e+00
     vertex  1.178569e-01  6.583882e-02  1.000000e+00
     vertex  1.050348e-01  8.480970e-02  1.000000e+00
   endloop
 endfacet
 facet normal -8.285096e-01 -5.599748e-01  0.000000e+00
   outer loop
     vertex  1.050348e-01  8.480970e-02  0.000000e+00
     vertex  1.178569e-01  6.583882e-02  0.000000e+00
     vertex  1.178569e-01  6.583882e-02  1.000000e+00
   endloop
 endfacet
 facet normal -7.219561e-01 -6.919389e-01  0.000000e+00
   outer loop
     vertex  8.919109e-02  1.013408e-01  0.000000e+00
     vertex  1.050348e-01  8.480970e-02  1.000000e+00
     vertex  8.919109e-02  1.013408e-01  1.000000e+00
   endloop
 endfacet
 facet normal -7.219561e-01 -6.919389e-01  0.000000e+00
   outer loop
     vertex  8.919109e-02  1.013408e-01  0.000000e+00
     vertex  1.050348e-01  8.480970e-02  0.000000e+00
     vertex  1.050348e-01  8.480970e-02  1.000000e+00
   endloop
 endfacet
 facet normal -5.946332e-01 -8.039971e-01  0.000000e+00
   outer loop
     vertex  7.078148e-02  1.149564e-01  0.000000e+00
     vertex  8.919109e-02  1.013408e-01  0.000000e+00
     vertex  8.919109e-02  1.013408e-01  1.000000e+00
   endloop
 endfacet
 facet normal -5.946332e-01 -8.039971e-01  0.000000e+00
   outer loop
     vertex  7.078148e-02  1.149564e-01  0.000000e+00
     vertex  8.919109e-02  1.013408e-01  1.000000e+00
     vertex  7.078148e-02  1.149564e-01  1.000000e+00
   endloop
 endfacet
 facet normal -4.502037e-01 -8.929259e-01  0.000000e+00
   outer loop
     vertex  5.033562e-02  1.252650e-01  0.000000e+00
     vertex  7.078148e-02  1.149564e-01  0.000000e+00
     vertex  7.078148e-02  1.149564e-01  1.000000e+00
   endloop
 endfacet
 facet normal -4.502037e-01 -8.929259e-01  0.000000e+00
   outer loop
     vertex  5.033562e-02  1.252650e-01  0.000000e+00
     vertex  7.078148e-02  1.149564e-01  1.000000e+00
     vertex  5.033562e-02  1.252650e-01  1.000000e+00
   endloop
 endfacet
 facet normal -2.928228e-01 -9.561667e-01  0.000000e+00
   outer loop
     vertex  2.844170e-02  1.319700e-01  0.000000e+00
     vertex  5.033562e-02  1.252650e-01  1.000000e+00
     vertex  2.844170e-02  1.319700e-01  1.000000e+00
   endloop
 endfacet
 facet normal -2.928228e-01 -9.561667e-01  0.000000e+00
   outer loop
     vertex  2.844170e-02  1.319700e-01  0.000000e+00
     vertex  5.033562e-02  1.252650e-01  0.000000e+00
     vertex  5.033562e-02  1.252650e-01  1.000000e+00
   endloop
 endfacet
 facet normal -1.270178e-01 -9.919004e-01  0.000000e+00
   outer loop
     vertex  5.729562e-03  1.348784e-01  0.000000e+00
     vertex  2.844170e-02  1.319700e-01  0.000000e+00
     vertex  2.844170e-02  1.319700e-01  1.000000e+00
   endloop
 endfacet
 facet normal -1.270178e-01 -9.919004e-01  0.000000e+00
   outer loop
     vertex  5.729562e-03  1.348784e-01  0.000000e+00
     vertex  2.844170e-02  1.319700e-01  1.000000e+00
     vertex  5.729562e-03  1.348784e-01  1.000000e+00
   endloop
 endfacet
 facet normal  4.244120e-02 -9.990990e-01  0.000000e+00
   outer loop
     vertex -1.714741e-02  1.339066e-01  0.000000e+00
     vertex  5.729562e-03  1.348784e-01  1.000000e+00
     vertex -1.714741e-02  1.339066e-01  1.000000e+00
   endloop
 endfacet
 facet normal  4.244120e-02 -9.990990e-01  0.000000e+00
   outer loop
     vertex -1.714741e-02  1.339066e-01  0.000000e+00
     vertex  5.729562e-03  1.348784e-01  0.000000e+00
     vertex  5.729562e-03  1.348784e-01  1.000000e+00
   endloop
 endfacet
 facet normal  2.106793e-01 -9.775552e-01  0.000000e+00
   outer loop
     vertex -3.953107e-02  1.290825e-01  0.000000e+00
     vertex -1.714741e-02  1.339066e-01  1.000000e+00
     vertex -3.953107e-02  1.290825e-01  1.000000e+00
   endloop
 endfacet
 facet normal  3.728565e-01 -9.278890e-01  0.000000e+00
   outer loop
     vertex -3.953107e-02  1.290825e-01  0.000000e+00
     vertex -3.953107e-02  1.290825e-01  1.000000e+00
     vertex -6.077751e-02  1.205450e-01  1.000000e+00
   endloop
 endfacet
 facet normal  2.106793e-01 -9.775552e-01  0.000000e+00
   outer loop
     vertex -3.953107e-02  1.290825e-01  0.000000e+00
     vertex -1.714741e-02  1.339066e-01  0.000000e+00
     vertex -1.714741e-02  1.339066e-01  1.000000e+00
   endloop
 endfacet
 facet normal  3.728565e-01 -9.278890e-01  0.000000e+00
   outer loop
     vertex -6.077751e-02  1.205450e-01  0.000000e+00
     vertex -3.953107e-02  1.290825e-01  0.000000e+00
     vertex -6.077751e-02  1.205450e-01  1.000000e+00
   endloop
 endfacet
 facet normal  5.243073e-01 -8.515291e-01  0.000000e+00
   outer loop
     vertex -8.027548e-02  1.085396e-01  0.000000e+00
     vertex -6.077751e-02  1.205450e-01  1.000000e+00
     vertex -8.027548e-02  1.085396e-01  1.000000e+00
   endloop
 endfacet
 facet normal  5.243073e-01 -8.515291e-01  0.000000e+00
   outer loop
     vertex -8.027548e-02  1.085396e-01  0.000000e+00
     vertex -6.077751e-02  1.205450e-01  0.000000e+00
     vertex -6.077751e-02  1.205450e-01  1.000000e+00
   endloop
 endfacet
 facet normal  6.606747e-01 -7.506723e-01  0.000000e+00
   outer loop
     vertex -9.746407e-02  9.341175e-02  0.000000e+00
     vertex -8.027548e-02  1.085396e-01  1.000000e+00
     vertex -9.746407e-02  9.341175e-02  1.000000e+00
   endloop
 endfacet
 facet normal  7.780358e-01 -6.282200e-01  0.000000e+00
   outer loop
     vertex -9.746407e-02  9.341175e-02  0.000000e+00
     vertex -9.746407e-02  9.341175e-02  1.000000e+00
     vertex -1.118488e-01  7.559660e-02  1.000000e+00
   endloop
 endfacet
 facet normal  6.606747e-01 -7.506723e-01  0.000000e+00
   outer loop
     vertex -9.746407e-02  9.341175e-02  0.000000e+00
     vertex -8.027548e-02  1.085396e-01  0.000000e+00
     vertex -8.027548e-02  1.085396e-01  1.000000e+00
   endloop
 endfacet
 facet normal  7.780358e-01 -6.282200e-01  0.000000e+00
   outer loop
     vertex -1.118488e-01  7.559660e-02  0.000000e+00
     vertex -9.746407e-02  9.341175e-02  0.000000e+00
     vertex -1.118488e-01  7.559660e-02  1.000000e+00
   endloop
 endfacet
 facet normal  8.730141e-01 -4.876949e-01  0.000000e+00
   outer loop
     vertex -1.230158e-01  5.560667e-02  0.000000e+00
     vertex -1.118488e-01  7.559660e-02  1.000000e+00
     vertex -1.230158e-01  5.560667e-02  1.000000e+00
   endloop
 endfacet
 facet normal  8.730141e-01 -4.876949e-01  0.000000e+00
   outer loop
     vertex -1.230158e-01  5.560667e-02  0.000000e+00
     vertex -1.118488e-01  7.559660e-02  0.000000e+00
     vertex -1.118488e-01  7.559660e-02  1.000000e+00
   endloop
 endfacet
 facet normal  9.428774e-01 -3.331398e-01  0.000000e+00
   outer loop
     vertex -1.306439e-01  3.401704e-02  0.000000e+00
     vertex -1.230158e-01  5.560667e-02  1.000000e+00
     vertex -1.306439e-01  3.401704e-02  1.000000e+00
   endloop
 endfacet
 facet normal  9.428774e-01 -3.331398e-01  0.000000e+00
   outer loop
     vertex -1.306439e-01  3.401704e-02  0.000000e+00
     vertex -1.230158e-01  5.560667e-02  0.000000e+00
     vertex -1.230158e-01  5.560667e-02  1.000000e+00
   endloop
 endfacet
 facet normal  9.856159e-01 -1.690008e-01  0.000000e+00
   outer loop
     vertex -1.345137e-01  1.144880e-02  0.000000e+00
     vertex -1.306439e-01  3.401704e-02  1.000000e+00
     vertex -1.345137e-01  1.144880e-02  1.000000e+00
   endloop
 endfacet
 facet normal  1.000000e+00  0.000000e+00 -0.000000e+00
   outer loop
     vertex -1.345137e-01  1.144880e-02  0.000000e+00
     vertex -1.345137e-01  1.144880e-02  1.000000e+00
     vertex -1.345137e-01 -1.144880e-02  1.000000e+00
   endloop
 endfacet
 facet normal  9.856159e-01 -1.690008e-01  0.000000e+00
   outer loop
     vertex -1.345137e-01  1.144880e-02  0.000000e+00
     vertex -1.306439e-01  3.401704e-02  0.000000e+00
     vertex -1.306439e-01  3.401704e-02  1.000000e+00
   endloop
 endfacet
 facet normal  1.000000e+00  0.000000e+00  0.000000e+00
   outer loop
     vertex -1.345137e-01 -1.144880e-02  0.000000e+00
     vertex -1.345137e-01  1.144880e-02  0.000000e+00
     vertex -1.345137e-01 -1.144880e-02  1.000000e+00
   endloop
 endfacet
 facet normal  9.856159e-01  1.690008e-01 -0.000000e+00
   outer loop
     vertex -1.306439e-01 -3.401704e-02  0.000000e+00
     vertex -1.345137e-01 -1.144880e-02  1.000000e+00
     vertex -1.306439e-01 -3.401704e-02  1.000000e+00
   endloop
 endfacet
 facet normal  9.856159e-01  1.690008e-01  0.000000e+00
   outer loop
     vertex -1.306439e-01 -3.401704e-02  0.000000e+00
     vertex -1.345137e-01 -1.144880e-02  0.000000e+00
     vertex -1.345137e-01 -1.144880e-02  1.000000e+00
   endloop
 endfacet
 facet normal  9.428774e-01  3.331398e-01 -0.000000e+00
   outer loop
     vertex -1.230158e-01 -5.560667e-02  0.000000e+00
     vertex -1.306439e-01 -3.401704e-02  1.000000e+00
     vertex -1.230158e-01 -5.560667e-02  1.000000e+00
   endloop
 endfacet
 facet normal  9.428774e-01  3.331398e-01  0.000000e+00
   outer loop
     vertex -1.230158e-01 -5.560667e-02  0.000000e+00
     vertex -1.306439e-01 -3.401704e-02  0.000000e+00
     vertex -1.306439e-01 -3.401704e-02  1.000000e+00
   endloop
 endfacet
 facet normal  8.730141e-01  4.876949e-01 -0.000000e+00
   outer loop
     vertex -1.118488e-01 -7.559660e-02  0.000000e+00
     vertex -1.230158e-01 -5.560667e-02  1.000000e+00
     vertex -1.118488e-01 -7.559660e-02  1.000000e+00
   endloop
 endfacet
 facet normal  7.780358e-01  6.282200e-01 -0.000000e+00
   outer loop
     vertex -1.118488e-01 -7.559660e-02  0.000000e+00
     vertex -1.118488e-01 -7.559660e-02  1.000000e+00
     vertex -9.746407e-02 -9.341175e-02  1.000000e+00
   endloop
 endfacet
 facet normal  8.730141e-01  4.876949e-01  0.000000e+00
   outer loop
     vertex -1.118488e-01 -7.559660e-02  0.000000e+00
     vertex -1.230158e-01 -5.560667e-02  0.000000e+00
     vertex -1.230158e-01 -5.560667e-02  1.000000e+00
   endloop
 endfacet
 facet normal  6.606747e-01  7.506723e-01 -0.000000e+00
   outer loop
     vertex -9.746407e-02 -9.341175e-02  0.000000e+00
     vertex -9.746407e-02 -9.341175e-02  1.000000e+00
     vertex -8.027548e-02 -1.085396e-01  1.000000e+00
   endloop
 endfacet
 facet normal  7.780358e-01  6.282200e-01 -0.000000e+00
   outer loop
     vertex -9.746407e-02 -9.341175e-02  0.000000e+00
     vertex -1.118488e-01 -7.559660e-02  0.000000e+00
     vertex -9.746407e-02 -9.341175e-02  1.000000e+00
   endloop
 endfacet
 facet normal  6.606747e-01  7.506723e-01 -0.000000e+00
   outer loop
     vertex -8.027548e-02 -1.085396e-01  0.000000e+00
     vertex -9.746407e-02 -9.341175e-02  0.000000e+00
     vertex -8.027548e-02 -1.085396e-01  1.000000e+00
   endloop
 endfacet
 facet normal  5.243073e-01  8.515291e-01 -0.000000e+00
   outer loop
     vertex -6.077751e-02 -1.205450e-01  0.000000e+00
     vertex -8.027548e-02 -1.085396e-01  1.000000e+00
     vertex -6.077751e-02 -1.205450e-01  1.000000e+00
   endloop
 endfacet
 facet normal  3.728565e-01  9.278890e-01 -0.000000e+00
   outer loop
     vertex -6.077751e-02 -1.205450e-01  0.000000e+00
     vertex -6.077751e-02 -1.205450e-01  1.000000e+00
     vertex -3.953107e-02 -1.290825e-01  1.000000e+00
   endloop
 endfacet
 facet normal  5.243073e-01  8.515291e-01  0.000000e+00
   outer loop
     vertex -6.077751e-02 -1.205450e-01  0.000000e+00
     vertex -8.027548e-02 -1.085396e-01  0.000000e+00
     vertex -8.027548e-02 -1.085396e-01  1.000000e+00
   endloop
 endfacet
 facet normal  2.106793e-01  9.775552e-01 -0.000000e+00
   outer loop
     vertex -3.953107e-02 -1.290825e-01  0.000000e+00
     vertex -3.953107e-02 -1.290825e-01  1.000000e+00
     vertex -1.714741e-02 -1.339066e-01  1.000000e+00
   endloop
 endfacet
 facet normal  3.728565e-01  9.278890e-01 -0.000000e+00
   outer loop
     vertex -3.953107e-02 -1.290825e-01  0.000000e+00
     vertex -6.077751e-02 -1.205450e-01  0.000000e+00
     vertex -3.953107e-02 -1.290825e-01  1.000000e+00
   endloop
 endfacet
 facet normal  4.244120e-02  9.990990e-01 -0.000000e+00
   outer loop
     vertex -1.714741e-02 -1.339066e-01  0.000000e+00
     vertex -1.714741e-02 -1.339066e-01  1.000000e+00
     vertex  5.729562e-03 -1.348784e-01  1.000000e+00
   endloop
 endfacet
 facet normal  2.106793e-01  9.775552e-01 -0.000000e+00
   outer loop
     vertex -1.714741e-02 -1.339066e-01  0.000000e+00
     vertex -3.953107e-02 -1.290825e-01  0.000000e+00
     vertex -1.714741e-02 -1.339066e-01  1.000000e+00
   endloop
 endfacet
 facet normal  4.244120e-02  9.990990e-01 -0.000000e+00
   outer loop
     vertex  5.729562e-03 -1.348784e-01  0.000000e+00
     vertex -1.714741e-02 -1.339066e-01  0.000000e+00
     vertex  5.729562e-03 -1.348784e-01  1.000000e+00
   endloop
 endfacet
 facet normal -1.270178e-01  9.919004e-01  0.000000e+00
   outer loop
     vertex  2.844170e-02 -1.319700e-01  0.000000e+00
     vertex  5.729562e-03 -1.348784e-01  1.000000e+00
     vertex  2.844170e-02 -1.319700e-01  1.000000e+00
   endloop
 endfacet
 facet normal -1.270178e-01  9.919004e-01  0.000000e+00
   outer loop
     vertex  2.844170e-02 -1.319700e-01  0.000000e+00
     vertex  5.729562e-03 -1.348784e-01  0.000000e+00
     vertex  5.729562e-03 -1.348784e-01  1.000000e+00
   endloop
 endfacet
 facet normal -2.928228e-01  9.561667e-01  0.000000e+00
   outer loop
     vertex  5.033562e-02 -1.252650e-01  0.000000e+00
     vertex  2.844170e-02 -1.319700e-01  1.000000e+00
     vertex  5.033562e-02 -1.252650e-01  1.000000e+00
   endloop
 endfacet
 facet normal -2.928228e-01  9.561667e-01  0.000000e+00
   outer loop
     vertex  5.033562e-02 -1.252650e-01  0.000000e+00
     vertex  2.844170e-02 -1.319700e-01  0.000000e+00
     vertex  2.844170e-02 -1.319700e-01  1.000000e+00
   endloop
 endfacet
 facet normal -4.502037e-01  8.929259e-01  0.000000e+00
   outer loop
     vertex  7.078148e-02 -1.149564e-01  0.000000e+00
     vertex  5.033562e-02 -1.252650e-01  0.000000e+00
     vertex  5.033562e-02 -1.252650e-01  1.000000e+00
   endloop
 endfacet
 facet normal -4.502037e-01  8.929259e-01  0.000000e+00
   outer loop
     vertex  7.078148e-02 -1.149564e-01  0.000000e+00
     vertex  5.033562e-02 -1.252650e-01  1.000000e+00
     vertex  7.078148e-02 -1.149564e-01  1.000000e+00
   endloop
 endfacet
 facet normal -5.946332e-01  8.039971e-01  0.000000e+00
   outer loop
     vertex  8.919109e-02 -1.013408e-01  0.000000e+00
     vertex  7.078148e-02 -1.149564e-01  0.000000e+00
     vertex  7.078148e-02 -1.149564e-01  1.000000e+00
   endloop
 endfacet
 facet normal -5.946332e-01  8.039971e-01  0.000000e+00
   outer loop
     vertex  8.919109e-02 -1.013408e-01  0.000000e+00
     vertex  7.078148e-02 -1.149564e-01  1.000000e+00
     vertex  8.919109e-02 -1.013408e-01  1.000000e+00
   endloop
 endfacet
 facet normal -7.219561e-01  6.919389e-01  0.000000e+00
   outer loop
     vertex  8.919109e-02 -1.013408e-01  0.000000e+00
     vertex  8.919109e-02 -1.013408e-01  1.000000e+00
     vertex  1.050348e-01 -8.480970e-02  1.000000e+00
   endloop
 endfacet
 facet normal -7.219561e-01  6.919389e-01  0.000000e+00
   outer loop
     vertex  1.050348e-01 -8.480970e-02  0.000000e+00
     vertex  8.919109e-02 -1.013408e-01  0.000000e+00
     vertex  1.050348e-01 -8.480970e-02  1.000000e+00
   endloop
 endfacet
 facet normal -8.285096e-01  5.599748e-01  0.000000e+00
   outer loop
     vertex  1.178569e-01 -6.583882e-02  0.000000e+00
     vertex  1.050348e-01 -8.480970e-02  0.000000e+00
     vertex  1.050348e-01 -8.480970e-02  1.000000e+00
   endloop
 endfacet
 facet normal -8.285096e-01  5.599748e-01  0.000000e+00
   outer loop
     vertex  1.178569e-01 -6.583882e-02  0.000000e+00
     vertex  1.050348e-01 -8.480970e-02  1.000000e+00
     vertex  1.178569e-01 -6.583882e-02  1.000000e+00
   endloop
 endfacet
 facet normal -9.112285e-01  4.119012e-01  0.000000e+00
   outer loop
     vertex  1.178569e-01 -6.583882e-02  0.000000e+00
     vertex  1.178569e-01 -6.583882e-02  1.000000e+00
     vertex  1.272885e-01 -4.497387e-02  1.000000e+00
   endloop
 endfacet
 facet normal -9.112285e-01  4.119012e-01  0.000000e+00
   outer loop
     vertex  1.272885e-01 -4.497387e-02  0.000000e+00
     vertex  1.178569e-01 -6.583882e-02  0.000000e+00
     vertex  1.272885e-01 -4.497387e-02  1.000000e+00
   endloop
 endfacet
 facet normal -9.677329e-01  2.519781e-01  0.000000e+00
   outer loop
     vertex  1.330581e-01 -2.281511e-02  0.000000e+00
     vertex  1.272885e-01 -4.497387e-02  0.000000e+00
     vertex  1.272885e-01 -4.497387e-02  1.000000e+00
   endloop
 endfacet
 facet normal -9.677329e-01  2.519781e-01  0.000000e+00
   outer loop
     vertex  1.330581e-01 -2.281511e-02  0.000000e+00
     vertex  1.272885e-01 -4.497387e-02  1.000000e+00
     vertex  1.330581e-01 -2.281511e-02  1.000000e+00
   endloop
 endfacet
 facet normal -9.963975e-01  8.480592e-02  0.000000e+00
   outer loop
     vertex  1.350000e-01  0.000000e+00  0.000000e+00
     vertex  1.330581e-01 -2.281511e-02  0.000000e+00
     vertex  1.330581e-01 -2.281511e-02  1.000000e+00
   endloop
 endfacet
 facet normal -9.963975e-01  8.480592e-02  0.000000e+00
   outer loop
     vertex  1.350000e-01  0.000000e+00  0.000000e+00
     vertex  1.330581e-01 -2.281511e-02  1.000000e+00
     vertex  1.350000e-01  0.000000e+00  1.000000e+00
   endloop
 endfacet
 facet normal  0.000000e+00  0.000000e+00 -1.000000e+00
   outer loop
     vertex -9.746407e-02 -9.341175e-02  0.000000e+00
     vertex -1.438680e-01 -1.389317e-01  0.000000e+00
     vertex -1.618034e-01 -1.175571e-01  0.000000e+00
   endloop
 endfacet
 facet normal  0.000000e+00  0.000000e+00 -1.000000e+00
   outer loop
     vertex -9.746407e-02 -9.341175e-02  0.000000e+00
     vertex -1.231323e-01 -1.576022e-01  0.000000e+00
     vertex -1.438680e-01 -1.389317e-01  0.000000e+00
   endloop
 endfacet
 facet normal -0.000000e+00  0.000000e+00 -1.000000e+00
   outer loop
     vertex -8.027548e-02 -1.085396e-01  0.000000e+00
     vertex -1.231323e-01 -1.576022e-01  0.000000e+00
     vertex -9.746407e-02 -9.341175e-02  0.000000e+00
   endloop
 endfacet
 facet normal  0.000000e+00  0.000000e+00 -1.000000e+00
   outer loop
     vertex -8.027548e-02 -1.085396e-01  0.000000e+00
     vertex -1.000000e-01 -1.732051e-01  0.000000e+00
     vertex -1.231323e-01 -1.576022e-01  0.000000e+00
   endloop
 endfacet
 facet normal  0.000000e+00  0.000000e+00 -1.000000e+00
   outer loop
     vertex -1.118488e-01 -7.559660e-02  0.000000e+00
     vertex -1.618034e-01 -1.175571e-01  0.000000e+00
     vertex -1.765895e-01 -9.389431e-02  0.000000e+00
   endloop
 endfacet
 facet normal  0.000000e+00 -0.000000e+00 -1.000000e+00
   outer loop
     vertex -1.118488e-01 -7.559660e-02  0.000000e+00
     vertex -9.746407e-02 -9.341175e-02  0.000000e+00
     vertex -1.618034e-01 -1.175571e-01  0.000000e+00
   endloop
 endfacet
 facet normal -0.000000e+00  0.000000e+00 -1.000000e+00
   outer loop
     vertex -6.077751e-02 -1.205450e-01  0.000000e+00
     vertex -1.000000e-01 -1.732051e-01  0.000000e+00
     vertex -8.027548e-02 -1.085396e-01  0.000000e+00
   endloop
 endfacet
 facet normal  0.000000e+00  0.000000e+00 -1.000000e+00
   outer loop
     vertex -6.077751e-02 -1.205450e-01  0.000000e+00
     vertex -7.492132e-02 -1.854368e-01  0.000000e+00
     vertex -1.000000e-01 -1.732051e-01  0.000000e+00
   endloop
 endfacet
 facet normal  0.000000e+00 -0.000000e+00 -1.000000e+00
   outer loop
     vertex -1.230158e-01 -5.560667e-02  0.000000e+00
     vertex -1.118488e-01 -7.559660e-02  0.000000e+00
     vertex -1.765895e-01 -9.389431e-02  0.000000e+00
   endloop
 endfacet
 facet normal  0.000000e+00  0.000000e+00 -1.000000e+00
   outer loop
     vertex -1.230158e-01 -5.560667e-02  0.000000e+00
     vertex -1.765895e-01 -9.389431e-02  0.000000e+00
     vertex -1.879385e-01 -6.840403e-02  0.000000e+00
   endloop
 endfacet
 facet normal -0.000000e+00  0.000000e+00 -1.000000e+00
   outer loop
     vertex -3.953107e-02 -1.290825e-01  0.000000e+00
     vertex -7.492132e-02 -1.854368e-01  0.000000e+00
     vertex -6.077751e-02 -1.205450e-01  0.000000e+00
   endloop
 endfacet
 facet normal  0.000000e+00  0.000000e+00 -1.000000e+00
   outer loop
     vertex -3.953107e-02 -1.290825e-01  0.000000e+00
     vertex -4.838438e-02 -1.940591e-01  0.000000e+00
     vertex -7.492132e-02 -1.854368e-01  0.000000e+00
   endloop
 endfacet
 facet normal  0.000000e+00  0.000000e+00 -1.000000e+00
   outer loop
     vertex -1.306439e-01 -3.401704e-02  0.000000e+00
     vertex -1.879385e-01 -6.840403e-02  0.000000e+00
     vertex -1.956295e-01 -4.158234e-02  0.000000e+00
   endloop
 endfacet
 facet normal  0.000000e+00 -0.000000e+00 -1.000000e+00
   outer loop
     vertex -1.306439e-01 -3.401704e-02  0.000000e+00
     vertex -1.230158e-01 -5.560667e-02  0.000000e+00
     vertex -1.879385e-01 -6.840403e-02  0.000000e+00
   endloop
 endfacet
 facet normal -0.000000e+00  0.000000e+00 -1.000000e+00
   outer loop
     vertex -1.714741e-02 -1.339066e-01  0.000000e+00
     vertex -4.838438e-02 -1.940591e-01  0.000000e+00
     vertex -3.953107e-02 -1.290825e-01  0.000000e+00
   endloop
 endfacet
 facet normal  0.000000e+00  0.000000e+00 -1.000000e+00
   outer loop
     vertex -1.714741e-02 -1.339066e-01  0.000000e+00
     vertex -2.090569e-02 -1.989044e-01  0.000000e+00
     vertex -4.838438e-02 -1.940591e-01  0.000000e+00
   endloop
 endfacet
 facet normal  0.000000e+00  0.000000e+00 -1.000000e+00
   outer loop
     vertex -1.345137e-01 -1.144880e-02  0.000000e+00
     vertex -1.956295e-01 -4.158234e-02  0.000000e+00
     vertex -1.995128e-01 -1.395129e-02  0.000000e+00
   endloop
 endfacet
 facet normal  0.000000e+00 -0.000000e+00 -1.000000e+00
   outer loop
     vertex -1.345137e-01 -1.144880e-02  0.000000e+00
     vertex -1.306439e-01 -3.401704e-02  0.000000e+00
     vertex -1.956295e-01 -4.158234e-02  0.000000e+00
   endloop
 endfacet
 facet normal -0.000000e+00  0.000000e+00 -1.000000e+00
   outer loop
     vertex  5.729562e-03 -1.348784e-01  0.000000e+00
     vertex -2.090569e-02 -1.989044e-01  0.000000e+00
     vertex -1.714741e-02 -1.339066e-01  0.000000e+00
   endloop
 endfacet
 facet normal  0.000000e+00 -0.000000e+00 -1.000000e+00
   outer loop
     vertex  5.729562e-03 -1.348784e-01  0.000000e+00
     vertex  6.979899e-03 -1.998782e-01  0.000000e+00
     vertex -2.090569e-02 -1.989044e-01  0.000000e+00
   endloop
 endfacet
 facet normal  0.000000e+00  0.000000e+00 -1.000000e+00
   outer loop
     vertex  5.729562e-03 -1.348784e-01  0.000000e+00
     vertex  3.472964e-02 -1.969616e-01  0.000000e+00
     vertex  6.979899e-03 -1.998782e-01  0.000000e+00
   endloop
 endfacet
 facet normal  0.000000e+00  0.000000e+00 -1.000000e+00
   outer loop
     vertex -1.345137e-01  1.144880e-02  0.000000e+00
     vertex -1.995128e-01  1.395129e-02  0.000000e+00
     vertex -1.956295e-01  4.158234e-02  0.000000e+00
   endloop
 endfacet
 facet normal -0.000000e+00  0.000000e+00 -1.000000e+00
   outer loop
     vertex -1.345137e-01  1.144880e-02  0.000000e+00
     vertex -1.995128e-01 -1.395129e-02  0.000000e+00
     vertex -1.995128e-01  1.395129e-02  0.000000e+00
   endloop
 endfacet
 facet normal  0.000000e+00 -0.000000e+00 -1.000000e+00
   outer loop
     vertex -1.345137e-01  1.144880e-02  0.000000e+00
     vertex -1.345137e-01 -1.144880e-02  0.000000e+00
     vertex -1.995128e-01 -1.395129e-02  0.000000e+00
   endloop
 endfacet
 facet normal  0.000000e+00 -0.000000e+00 -1.000000e+00
   outer loop
     vertex  2.844170e-02 -1.319700e-01  0.000000e+00
     vertex  3.472964e-02 -1.969616e-01  0.000000e+00
     vertex  5.729562e-03 -1.348784e-01  0.000000e+00
   endloop
 endfacet
 facet normal  0.000000e+00  0.000000e+00 -1.000000e+00
   outer loop
     vertex  2.844170e-02 -1.319700e-01  0.000000e+00
     vertex  6.180340e-02 -1.902113e-01  0.000000e+00
     vertex  3.472964e-02 -1.969616e-01  0.000000e+00
   endloop
 endfacet
 facet normal  0.000000e+00  0.000000e+00 -1.000000e+00
   outer loop
     vertex -1.306439e-01  3.401704e-02  0.000000e+00
     vertex -1.956295e-01  4.158234e-02  0.000000e+00
     vertex -1.879385e-01  6.840403e-02  0.000000e+00
   endloop
 endfacet
 facet normal -0.000000e+00  0.000000e+00 -1.000000e+00
   outer loop
     vertex -1.306439e-01  3.401704e-02  0.000000e+00
     vertex -1.345137e-01  1.144880e-02  0.000000e+00
     vertex -1.956295e-01  4.158234e-02  0.000000e+00
   endloop
 endfacet
 facet normal  0.000000e+00  0.000000e+00 -1.000000e+00
   outer loop
     vertex  5.033562e-02 -1.252650e-01  0.000000e+00
     vertex  8.767423e-02 -1.797588e-01  0.000000e+00
     vertex  6.180340e-02 -1.902113e-01  0.000000e+00
   endloop
 endfacet
 facet normal  0.000000e+00 -0.000000e+00 -1.000000e+00
   outer loop
     vertex  5.033562e-02 -1.252650e-01  0.000000e+00
     vertex  6.180340e-02 -1.902113e-01  0.000000e+00
     vertex  2.844170e-02 -1.319700e-01  0.000000e+00
   endloop
 endfacet
 facet normal  0.000000e+00  0.000000e+00 -1.000000e+00
   outer loop
     vertex -1.230158e-01  5.560667e-02  0.000000e+00
     vertex -1.879385e-01  6.840403e-02  0.000000e+00
     vertex -1.765895e-01  9.389431e-02  0.000000e+00
   endloop
 endfacet
 facet normal -0.000000e+00  0.000000e+00 -1.000000e+00
   outer loop
     vertex -1.230158e-01  5.560667e-02  0.000000e+00
     vertex -1.306439e-01  3.401704e-02  0.000000e+00
     vertex -1.879385e-01  6.840403e-02  0.000000e+00
   endloop
 endfacet
 facet normal  0.000000e+00  0.000000e+00 -1.000000e+00
   outer loop
     vertex  7.078148e-02 -1.149564e-01  0.000000e+00
     vertex  1.118386e-01 -1.658075e-01  0.000000e+00
     vertex  8.767423e-02 -1.797588e-01  0.000000e+00
   endloop
 endfacet
 facet normal  0.000000e+00 -0.000000e+00 -1.000000e+00
   outer loop
     vertex  7.078148e-02 -1.149564e-01  0.000000e+00
     vertex  8.767423e-02 -1.797588e-01  0.000000e+00
     vertex  5.033562e-02 -1.252650e-01  0.000000e+00
   endloop
 endfacet
 facet normal  0.000000e+00  0.000000e+00 -1.000000e+00
   outer loop
     vertex -1.118488e-01  7.559660e-02  0.000000e+00
     vertex -1.765895e-01  9.389431e-02  0.000000e+00
     vertex -1.618034e-01  1.175571e-01  0.000000e+00
   endloop
 endfacet
 facet normal -0.000000e+00  0.000000e+00 -1.000000e+00
   outer loop
     vertex -1.118488e-01  7.559660e-02  0.000000e+00
     vertex -1.230158e-01  5.560667e-02  0.000000e+00
     vertex -1.765895e-01  9.389431e-02  0.000000e+00
   endloop
 endfacet
 facet normal  0.000000e+00  0.000000e+00 -1.000000e+00
   outer loop
     vertex  8.919109e-02 -1.013408e-01  0.000000e+00
     vertex  1.338261e-01 -1.486290e-01  0.000000e+00
     vertex  1.118386e-01 -1.658075e-01  0.000000e+00
   endloop
 endfacet
 facet normal  0.000000e+00 -0.000000e+00 -1.000000e+00
   outer loop
     vertex  8.919109e-02 -1.013408e-01  0.000000e+00
     vertex  1.118386e-01 -1.658075e-01  0.000000e+00
     vertex  7.078148e-02 -1.149564e-01  0.000000e+00
   endloop
 endfacet
 facet normal  0.000000e+00  0.000000e+00 -1.000000e+00
   outer loop
     vertex -9.746407e-02  9.341175e-02  0.000000e+00
     vertex -1.618034e-01  1.175571e-01  0.000000e+00
     vertex -1.438680e-01  1.389317e-01  0.000000e+00
   endloop
 endfacet
 facet normal -0.000000e+00  0.000000e+00 -1.000000e+00
   outer loop
     vertex -9.746407e-02  9.341175e-02  0.000000e+00
     vertex -1.118488e-01  7.559660e-02  0.000000e+00
     vertex -1.618034e-01  1.175571e-01  0.000000e+00
   endloop
 endfacet
 facet normal -0.000000e+00  0.000000e+00 -1.000000e+00
   outer loop
     vertex  1.532089e-01 -1.285575e-01  0.000000e+00
     vertex  1.338261e-01 -1.486290e-01  0.000000e+00
     vertex  8.919109e-02 -1.013408e-01  0.000000e+00
   endloop
 endfacet
 facet normal  0.000000e+00  0.000000e+00 -1.000000e+00
   outer loop
     vertex  1.532089e-01 -1.285575e-01  0.000000e+00
     vertex  8.919109e-02 -1.013408e-01  0.000000e+00
     vertex  1.050348e-01 -8.480970e-02  0.000000e+00
   endloop
 endfacet
 facet normal  0.000000e+00 -0.000000e+00 -1.000000e+00
   outer loop
     vertex -1.231323e-01  1.576022e-01  0.000000e+00
     vertex -9.746407e-02  9.341175e-02  0.000000e+00
     vertex -1.438680e-01  1.389317e-01  0.000000e+00
   endloop
 endfacet
 facet normal  0.000000e+00  0.000000e+00 -1.000000e+00
   outer loop
     vertex -1.231323e-01  1.576022e-01  0.000000e+00
     vertex -8.027548e-02  1.085396e-01  0.000000e+00
     vertex -9.746407e-02  9.341175e-02  0.000000e+00
   endloop
 endfacet
 facet normal -0.000000e+00  0.000000e+00 -1.000000e+00
   outer loop
     vertex  1.696096e-01 -1.059839e-01  0.000000e+00
     vertex  1.532089e-01 -1.285575e-01  0.000000e+00
     vertex  1.050348e-01 -8.480970e-02  0.000000e+00
   endloop
 endfacet
 facet normal  0.000000e+00  0.000000e+00 -1.000000e+00
   outer loop
     vertex  1.696096e-01 -1.059839e-01  0.000000e+00
     vertex  1.050348e-01 -8.480970e-02  0.000000e+00
     vertex  1.178569e-01 -6.583882e-02  0.000000e+00
   endloop
 endfacet
 facet normal  0.000000e+00 -0.000000e+00 -1.000000e+00
   outer loop
     vertex -1.000000e-01  1.732051e-01  0.000000e+00
     vertex -8.027548e-02  1.085396e-01  0.000000e+00
     vertex -1.231323e-01  1.576022e-01  0.000000e+00
   endloop
 endfacet
 facet normal  0.000000e+00  0.000000e+00 -1.000000e+00
   outer loop
     vertex -1.000000e-01  1.732051e-01  0.000000e+00
     vertex -6.077751e-02  1.205450e-01  0.000000e+00
     vertex -8.027548e-02  1.085396e-01  0.000000e+00
   endloop
 endfacet
 facet normal  0.000000e+00  0.000000e+00 -1.000000e+00
   outer loop
     vertex  1.827091e-01 -8.134733e-02  0.000000e+00
     vertex  1.178569e-01 -6.583882e-02  0.000000e+00
     vertex  1.272885e-01 -4.497387e-02  0.000000e+00
   endloop
 endfacet
 facet normal -0.000000e+00  0.000000e+00 -1.000000e+00
   outer loop
     vertex  1.827091e-01 -8.134733e-02  0.000000e+00
     vertex  1.696096e-01 -1.059839e-01  0.000000e+00
     vertex  1.178569e-01 -6.583882e-02  0.000000e+00
   endloop
 endfacet
 facet normal  0.000000e+00  0.000000e+00 -1.000000e+00
   outer loop
     vertex -7.492132e-02  1.854368e-01  0.000000e+00
     vertex -3.953107e-02  1.290825e-01  0.000000e+00
     vertex -6.077751e-02  1.205450e-01  0.000000e+00
   endloop
 endfacet
 facet normal  0.000000e+00 -0.000000e+00 -1.000000e+00
   outer loop
     vertex -7.492132e-02  1.854368e-01  0.000000e+00
     vertex -6.077751e-02  1.205450e-01  0.000000e+00
     vertex -1.000000e-01  1.732051e-01  0.000000e+00
   endloop
 endfacet
 facet normal  0.000000e+00  0.000000e+00 -1.000000e+00
   outer loop
     vertex  1.922523e-01 -5.512747e-02  0.000000e+00
     vertex  1.272885e-01 -4.497387e-02  0.000000e+00
     vertex  1.330581e-01 -2.281511e-02  0.000000e+00
   endloop
 endfacet
 facet normal -0.000000e+00  0.000000e+00 -1.000000e+00
   outer loop
     vertex  1.922523e-01 -5.512747e-02  0.000000e+00
     vertex  1.827091e-01 -8.134733e-02  0.000000e+00
     vertex  1.272885e-01 -4.497387e-02  0.000000e+00
   endloop
 endfacet
 facet normal  0.000000e+00  0.000000e+00 -1.000000e+00
   outer loop
     vertex -4.838438e-02  1.940591e-01  0.000000e+00
     vertex -1.714741e-02  1.339066e-01  0.000000e+00
     vertex -3.953107e-02  1.290825e-01  0.000000e+00
   endloop
 endfacet
 facet normal  0.000000e+00 -0.000000e+00 -1.000000e+00
   outer loop
     vertex -4.838438e-02  1.940591e-01  0.000000e+00
     vertex -3.953107e-02  1.290825e-01  0.000000e+00
     vertex -7.492132e-02  1.854368e-01  0.000000e+00
   endloop
 endfacet
 facet normal  0.000000e+00  0.000000e+00 -1.000000e+00
   outer loop
     vertex  1.980536e-01 -2.783462e-02  0.000000e+00
     vertex  1.330581e-01 -2.281511e-02  0.000000e+00
     vertex  1.350000e-01  0.000000e+00  0.000000e+00
   endloop
 endfacet
 facet normal -0.000000e+00  0.000000e+00 -1.000000e+00
   outer loop
     vertex  1.980536e-01 -2.783462e-02  0.000000e+00
     vertex  1.922523e-01 -5.512747e-02  0.000000e+00
     vertex  1.330581e-01 -2.281511e-02  0.000000e+00
   endloop
 endfacet
 facet normal  0.000000e+00 -0.000000e+00 -1.000000e+00
   outer loop
     vertex -2.090569e-02  1.989044e-01  0.000000e+00
     vertex -1.714741e-02  1.339066e-01  0.000000e+00
     vertex -4.838438e-02  1.940591e-01  0.000000e+00
   endloop
 endfacet
 facet normal  0.000000e+00  0.000000e+00 -1.000000e+00
   outer loop
     vertex -2.090569e-02  1.989044e-01  0.000000e+00
     vertex  5.729562e-03  1.348784e-01  0.000000e+00
     vertex -1.714741e-02  1.339066e-01  0.000000e+00
   endloop
 endfacet
 facet normal -0.000000e+00  0.000000e+00 -1.000000e+00
   outer loop
     vertex  2.000000e-01  0.000000e+00  0.000000e+00
     vertex  1.980536e-01 -2.783462e-02  0.000000e+00
     vertex  1.350000e-01  0.000000e+00  0.000000e+00
   endloop
 endfacet
 facet normal  0.000000e+00  0.000000e+00 -1.000000e+00
   outer loop
     vertex  6.979899e-03  1.998782e-01  0.000000e+00
     vertex  5.729562e-03  1.348784e-01  0.000000e+00
     vertex -2.090569e-02  1.989044e-01  0.000000e+00
   endloop
 endfacet
 facet normal  0.000000e+00  0.000000e+00 -1.000000e+00
   outer loop
     vertex  1.980536e-01  2.783462e-02  0.000000e+00
     vertex  1.350000e-01  0.000000e+00  0.000000e+00
     vertex  1.330581e-01  2.281511e-02  0.000000e+00
   endloop
 endfacet
 facet normal  0.000000e+00 -0.000000e+00 -1.000000e+00
   outer loop
     vertex  1.980536e-01  2.783462e-02  0.000000e+00
     vertex  2.000000e-01  0.000000e+00  0.000000e+00
     vertex  1.350000e-01  0.000000e+00  0.000000e+00
   endloop
 endfacet
 facet normal  0.000000e+00  0.000000e+00 -1.000000e+00
   outer loop
     vertex  3.472964e-02  1.969616e-01  0.000000e+00
     vertex  2.844170e-02  1.319700e-01  0.000000e+00
     vertex  5.729562e-03  1.348784e-01  0.000000e+00
   endloop
 endfacet
 facet normal -0.000000e+00  0.000000e+00 -1.000000e+00
   outer loop
     vertex  3.472964e-02  1.969616e-01  0.000000e+00
     vertex  5.729562e-03  1.348784e-01  0.000000e+00
     vertex  6.979899e-03  1.998782e-01  0.000000e+00
   endloop
 endfacet
 facet normal  0.000000e+00 -0.000000e+00 -1.000000e+00
   outer loop
     vertex  1.922523e-01  5.512747e-02  0.000000e+00
     vertex  1.980536e-01  2.783462e-02  0.000000e+00
     vertex  1.330581e-01  2.281511e-02  0.000000e+00
   endloop
 endfacet
 facet normal  0.000000e+00  0.000000e+00 -1.000000e+00
   outer loop
     vertex  1.922523e-01  5.512747e-02  0.000000e+00
     vertex  1.330581e-01  2.281511e-02  0.000000e+00
     vertex  1.272885e-01  4.497387e-02  0.000000e+00
   endloop
 endfacet
 facet normal -0.000000e+00  0.000000e+00 -1.000000e+00
   outer loop
     vertex  6.180340e-02  1.902113e-01  0.000000e+00
     vertex  2.844170e-02  1.319700e-01  0.000000e+00
     vertex  3.472964e-02  1.969616e-01  0.000000e+00
   endloop
 endfacet
 facet normal  0.000000e+00  0.000000e+00 -1.000000e+00
   outer loop
     vertex  6.180340e-02  1.902113e-01  0.000000e+00
     vertex  5.033562e-02  1.252650e-01  0.000000e+00
     vertex  2.844170e-02  1.319700e-01  0.000000e+00
   endloop
 endfacet
 facet normal  0.000000e+00 -0.000000e+00 -1.000000e+00
   outer loop
     vertex  1.827091e-01  8.134733e-02  0.000000e+00
     vertex  1.922523e-01  5.512747e-02  0.000000e+00
     vertex  1.272885e-01  4.497387e-02  0.000000e+00
   endloop
 endfacet
 facet normal  0.000000e+00  0.000000e+00 -1.000000e+00
   outer loop
     vertex  1.827091e-01  8.134733e-02  0.000000e+00
     vertex  1.272885e-01  4.497387e-02  0.000000e+00
     vertex  1.178569e-01  6.583882e-02  0.000000e+00
   endloop
 endfacet
 facet normal -0.000000e+00  0.000000e+00 -1.000000e+00
   outer loop
     vertex  8.767423e-02  1.797588e-01  0.000000e+00
     vertex  5.033562e-02  1.252650e-01  0.000000e+00
     vertex  6.180340e-02  1.902113e-01  0.000000e+00
   endloop
 endfacet
 facet normal  0.000000e+00  0.000000e+00 -1.000000e+00
   outer loop
     vertex  8.767423e-02  1.797588e-01  0.000000e+00
     vertex  7.078148e-02  1.149564e-01  0.000000e+00
     vertex  5.033562e-02  1.252650e-01  0.000000e+00
   endloop
 endfacet
 facet normal  0.000000e+00 -0.000000e+00 -1.000000e+00
   outer loop
     vertex  1.696096e-01  1.059839e-01  0.000000e+00
     vertex  1.827091e-01  8.134733e-02  0.000000e+00
     vertex  1.178569e-01  6.583882e-02  0.000000e+00
   endloop
 endfacet
 facet normal  0.000000e+00  0.000000e+00 -1.000000e+00
   outer loop
     vertex  1.696096e-01  1.059839e-01  0.000000e+00
     vertex  1.178569e-01  6.583882e-02  0.000000e+00
     vertex  1.050348e-01  8.480970e-02  0.000000e+00
   endloop
 endfacet
 facet normal -0.000000e+00  0.000000e+00 -1.000000e+00
   outer loop
     vertex  1.118386e-01  1.658075e-01  0.000000e+00
     vertex  7.078148e-02  1.149564e-01  0.000000e+00
     vertex  8.767423e-02  1.797588e-01  0.000000e+00
   endloop
 endfacet
 facet normal  0.000000e+00  0.000000e+00 -1.000000e+00
   outer loop
     vertex  1.118386e-01  1.658075e-01  0.000000e+00
     vertex  8.919109e-02  1.013408e-01  0.000000e+00
     vertex  7.078148e-02  1.149564e-01  0.000000e+00
   endloop
 endfacet
 facet normal  0.000000e+00 -0.000000e+00 -1.000000e+00
   outer loop
     vertex  1.532089e-01  1.285575e-01  0.000000e+00
     vertex  1.696096e-01  1.059839e-01  0.000000e+00
     vertex  1.050348e-01  8.480970e-02  0.000000e+00
   endloop
 endfacet
 facet normal  0.000000e+00  0.000000e+00 -1.000000e+00
   outer loop
     vertex  1.532089e-01  1.285575e-01  0.000000e+00
     vertex  1.050348e-01  8.480970e-02  0.000000e+00
     vertex  8.919109e-02  1.013408e-01  0.000000e+00
   endloop
 endfacet
 facet normal -0.000000e+00  0.000000e+00 -1.000000e+00
   outer loop
     vertex  1.338261e-01  1.486290e-01  0.000000e+00
     vertex  8.919109e-02  1.013408e-01  0.000000e+00
     vertex  1.118386e-01  1.658075e-01  0.000000e+00
   endloop
 endfacet
 facet normal  0.000000e+00 -0.000000e+00 -1.000000e+00
   outer loop
     vertex  1.338261e-01  1.486290e-01  0.000000e+00
     vertex  1.532089e-01  1.285575e-01  0.000000e+00
     vertex  8.919109e-02  1.013408e-01  0.000000e+00
   endloop
 endfacet
 facet normal  0.000000e+00  0.000000e+00  1.000000e+00
   outer loop
     vertex -9.746407e-02 -9.341175e-02  1.000000e+00
     vertex -1.618034e-01 -1.175571e-01  1.000000e+00
     vertex -1.438680e-01 -1.389317e-01  1.000000e+00
   endloop
 endfacet
 facet normal  0.000000e+00  0.000000e+00  1.000000e+00
   outer loop
     vertex -9.746407e-02 -9.341175e-02  1.000000e+00
     vertex -1.438680e-01 -1.389317e-01  1.000000e+00
     vertex -1.231323e-01 -1.576022e-01  1.000000e+00
   endloop
 endfacet
 facet normal  0.000000e+00  0.000000e+00  1.000000e+00
   outer loop
     vertex -8.027548e-02 -1.085396e-01  1.000000e+00
     vertex -9.746407e-02 -9.341175e-02  1.000000e+00
     vertex -1.231323e-01 -1.576022e-01  1.000000e+00
   endloop
 endfacet
 facet normal  0.000000e+00  0.000000e+00  1.000000e+00
   outer loop
     vertex -8.027548e-02 -1.085396e-01  1.000000e+00
     vertex -1.231323e-01 -1.576022e-01  1.000000e+00
     vertex -1.000000e-01 -1.732051e-01  1.000000e+00
   endloop
 endfacet
 facet normal  0.000000e+00  0.000000e+00  1.000000e+00
   outer loop
     vertex -1.118488e-01 -7.559660e-02  1.000000e+00
     vertex -1.765895e-01 -9.389431e-02  1.000000e+00
     vertex -1.618034e-01 -1.175571e-01  1.000000e+00
   endloop
 endfacet
 facet normal  0.000000e+00  0.000000e+00  1.000000e+00
   outer loop
     vertex -1.118488e-01 -7.559660e-02  1.000000e+00
     vertex -1.618034e-01 -1.175571e-01  1.000000e+00
     vertex -9.746407e-02 -9.341175e-02  1.000000e+00
   endloop
 endfacet
 facet normal  0.000000e+00  0.000000e+00  1.000000e+00
   outer loop
     vertex -6.077751e-02 -1.205450e-01  1.000000e+00
     vertex -8.027548e-02 -1.085396e-01  1.000000e+00
     vertex -1.000000e-01 -1.732051e-01  1.000000e+00
   endloop
 endfacet
 facet normal  0.000000e+00  0.000000e+00  1.000000e+00
   outer loop
     vertex -6.077751e-02 -1.205450e-01  1.000000e+00
     vertex -1.000000e-01 -1.732051e-01  1.000000e+00
     vertex -7.492132e-02 -1.854368e-01  1.000000e+00
   endloop
 endfacet
 facet normal  0.000000e+00  0.000000e+00  1.000000e+00
   outer loop
     vertex -1.230158e-01 -5.560667e-02  1.000000e+00
     vertex -1.765895e-01 -9.389431e-02  1.000000e+00
     vertex -1.118488e-01 -7.559660e-02  1.000000e+00
   endloop
 endfacet
 facet normal  0.000000e+00  0.000000e+00  1.000000e+00
   outer loop
     vertex -1.230158e-01 -5.560667e-02  1.000000e+00
     vertex -1.879385e-01 -6.840403e-02  1.000000e+00
     vertex -1.765895e-01 -9.389431e-02  1.000000e+00
   endloop
 endfacet
 facet normal  0.000000e+00  0.000000e+00  1.000000e+00
   outer loop
     vertex -3.953107e-02 -1.290825e-01  1.000000e+00
     vertex -6.077751e-02 -1.205450e-01  1.000000e+00
     vertex -7.492132e-02 -1.854368e-01  1.000000e+00
   endloop
 endfacet
 facet normal  0.000000e+00  0.000000e+00  1.000000e+00
   outer loop
     vertex -3.953107e-02 -1.290825e-01  1.000000e+00
     vertex -7.492132e-02 -1.854368e-01  1.000000e+00
     vertex -4.838438e-02 -1.940591e-01  1.000000e+00
   endloop
 endfacet
 facet normal  0.000000e+00  0.000000e+00  1.000000e+00
   outer loop
     vertex -1.306439e-01 -3.401704e-02  1.000000e+00
     vertex -1.956295e-01 -4.158234e-02  1.000000e+00
     vertex -1.879385e-01 -6.840403e-02  1.000000e+00
   endloop
 endfacet
 facet normal  0.000000e+00  0.000000e+00  1.000000e+00
   outer loop
     vertex -1.306439e-01 -3.401704e-02  1.000000e+00
     vertex -1.879385e-01 -6.840403e-02  1.000000e+00
     vertex -1.230158e-01 -5.560667e-02  1.000000e+00
   endloop
 endfacet
 facet normal  0.000000e+00  0.000000e+00  1.000000e+00
   outer loop
     vertex -1.714741e-02 -1.339066e-01  1.000000e+00
     vertex -3.953107e-02 -1.290825e-01  1.000000e+00
     vertex -4.838438e-02 -1.940591e-01  1.000000e+00
   endloop
 endfacet
 facet normal  0.000000e+00  0.000000e+00  1.000000e+00
   outer loop
     vertex -1.714741e-02 -1.339066e-01  1.000000e+00
     vertex -4.838438e-02 -1.940591e-01  1.000000e+00
     vertex -2.090569e-02 -1.989044e-01  1.000000e+00
   endloop
 endfacet
 facet normal  0.000000e+00  0.000000e+00  1.000000e+00
   outer loop
     vertex -1.345137e-01 -1.144880e-02  1.000000e+00
     vertex -1.995128e-01 -1.395129e-02  1.000000e+00
     vertex -1.956295e-01 -4.158234e-02  1.000000e+00
   endloop
 endfacet
 facet normal  0.000000e+00  0.000000e+00  1.000000e+00
   outer loop
     vertex -1.345137e-01 -1.144880e-02  1.000000e+00
     vertex -1.956295e-01 -4.158234e-02  1.000000e+00
     vertex -1.306439e-01 -3.401704e-02  1.000000e+00
   endloop
 endfacet
 facet normal  0.000000e+00  0.000000e+00  1.000000e+00
   outer loop
     vertex  5.729562e-03 -1.348784e-01  1.000000e+00
     vertex -1.714741e-02 -1.339066e-01  1.000000e+00
     vertex -2.090569e-02 -1.989044e-01  1.000000e+00
   endloop
 endfacet
 facet normal  0.000000e+00  0.000000e+00  1.000000e+00
   outer loop
     vertex  5.729562e-03 -1.348784e-01  1.000000e+00
     vertex -2.090569e-02 -1.989044e-01  1.000000e+00
     vertex  6.979899e-03 -1.998782e-01  1.000000e+00
   endloop
 endfacet
 facet normal  0.000000e+00  0.000000e+00  1.000000e+00
   outer loop
     vertex  5.729562e-03 -1.348784e-01  1.000000e+00
     vertex  6.979899e-03 -1.998782e-01  1.000000e+00
     vertex  3.472964e-02 -1.969616e-01  1.000000e+00
   endloop
 endfacet
 facet normal  0.000000e+00  0.000000e+00  1.000000e+00
   outer loop
     vertex -1.345137e-01  1.144880e-02  1.000000e+00
     vertex -1.956295e-01  4.158234e-02  1.000000e+00
     vertex -1.995128e-01  1.395129e-02  1.000000e+00
   endloop
 endfacet
 facet normal  0.000000e+00  0.000000e+00  1.000000e+00
   outer loop
     vertex -1.345137e-01  1.144880e-02  1.000000e+00
     vertex -1.995128e-01  1.395129e-02  1.000000e+00
     vertex -1.995128e-01 -1.395129e-02  1.000000e+00
   endloop
 endfacet
 facet normal  0.000000e+00  0.000000e+00  1.000000e+00
   outer loop
     vertex -1.345137e-01  1.144880e-02  1.000000e+00
     vertex -1.995128e-01 -1.395129e-02  1.000000e+00
     vertex -1.345137e-01 -1.144880e-02  1.000000e+00
   endloop
 endfacet
 facet normal  0.000000e+00  0.000000e+00  1.000000e+00
   outer loop
     vertex  2.844170e-02 -1.319700e-01  1.000000e+00
     vertex  5.729562e-03 -1.348784e-01  1.000000e+00
     vertex  3.472964e-02 -1.969616e-01  1.000000e+00
   endloop
 endfacet
 facet normal  0.000000e+00  0.000000e+00  1.000000e+00
   outer loop
     vertex  2.844170e-02 -1.319700e-01  1.000000e+00
     vertex  3.472964e-02 -1.969616e-01  1.000000e+00
     vertex  6.180340e-02 -1.902113e-01  1.000000e+00
   endloop
 endfacet
 facet normal  0.000000e+00  0.000000e+00  1.000000e+00
   outer loop
     vertex -1.306439e-01  3.401704e-02  1.000000e+00
     vertex -1.879385e-01  6.840403e-02  1.000000e+00
     vertex -1.956295e-01  4.158234e-02  1.000000e+00
   endloop
 endfacet
 facet normal  0.000000e+00  0.000000e+00  1.000000e+00
   outer loop
     vertex -1.306439e-01  3.401704e-02  1.000000e+00
     vertex -1.956295e-01  4.158234e-02  1.000000e+00
     vertex -1.345137e-01  1.144880e-02  1.000000e+00
   endloop
 endfacet
 facet normal  0.000000e+00  0.000000e+00  1.000000e+00
   outer loop
     vertex  5.033562e-02 -1.252650e-01  1.000000e+00
     vertex  6.180340e-02 -1.902113e-01  1.000000e+00
     vertex  8.767423e-02 -1.797588e-01  1.000000e+00
   endloop
 endfacet
 facet normal  0.000000e+00  0.000000e+00  1.000000e+00
   outer loop
     vertex  5.033562e-02 -1.252650e-01  1.000000e+00
     vertex  2.844170e-02 -1.319700e-01  1.000000e+00
     vertex  6.180340e-02 -1.902113e-01  1.000000e+00
   endloop
 endfacet
 facet normal  0.000000e+00  0.000000e+00  1.000000e+00
   outer loop
     vertex -1.230158e-01  5.560667e-02  1.000000e+00
     vertex -1.765895e-01  9.389431e-02  1.000000e+00
     vertex -1.879385e-01  6.840403e-02  1.000000e+00
   endloop
 endfacet
 facet normal  0.000000e+00  0.000000e+00  1.000000e+00
   outer loop
     vertex -1.230158e-01  5.560667e-02  1.000000e+00
     vertex -1.879385e-01  6.840403e-02  1.000000e+00
     vertex -1.306439e-01  3.401704e-02  1.000000e+00
   endloop
 endfacet
 facet normal  0.000000e+00  0.000000e+00  1.000000e+00
   outer loop
     vertex  7.078148e-02 -1.149564e-01  1.000000e+00
     vertex  8.767423e-02 -1.797588e-01  1.000000e+00
     vertex  1.118386e-01 -1.658075e-01  1.000000e+00
   endloop
 endfacet
 facet normal  0.000000e+00  0.000000e+00  1.000000e+00
   outer loop
     vertex  7.078148e-02 -1.149564e-01  1.000000e+00
     vertex  5.033562e-02 -1.252650e-01  1.000000e+00
     vertex  8.767423e-02 -1.797588e-01  1.000000e+00
   endloop
 endfacet
 facet normal  0.000000e+00  0.000000e+00  1.000000e+00
   outer loop
     vertex -1.118488e-01  7.559660e-02  1.000000e+00
     vertex -1.618034e-01  1.175571e-01  1.000000e+00
     vertex -1.765895e-01  9.389431e-02  1.000000e+00
   endloop
 endfacet
 facet normal  0.000000e+00  0.000000e+00  1.000000e+00
   outer loop
     vertex -1.118488e-01  7.559660e-02  1.000000e+00
     vertex -1.765895e-01  9.389431e-02  1.000000e+00
     vertex -1.230158e-01  5.560667e-02  1.000000e+00
   endloop
 endfacet
 facet normal  0.000000e+00  0.000000e+00  1.000000e+00
   outer loop
     vertex  8.919109e-02 -1.013408e-01  1.000000e+00
     vertex  1.118386e-01 -1.658075e-01  1.000000e+00
     vertex  1.338261e-01 -1.486290e-01  1.000000e+00
   endloop
 endfacet
 facet normal  0.000000e+00  0.000000e+00  1.000000e+00
   outer loop
     vertex  8.919109e-02 -1.013408e-01  1.000000e+00
     vertex  7.078148e-02 -1.149564e-01  1.000000e+00
     vertex  1.118386e-01 -1.658075e-01  1.000000e+00
   endloop
 endfacet
 facet normal  0.000000e+00  0.000000e+00  1.000000e+00
   outer loop
     vertex -9.746407e-02  9.341175e-02  1.000000e+00
     vertex -1.438680e-01  1.389317e-01  1.000000e+00
     vertex -1.618034e-01  1.175571e-01  1.000000e+00
   endloop
 endfacet
 facet normal  0.000000e+00  0.000000e+00  1.000000e+00
   outer loop
     vertex -9.746407e-02  9.341175e-02  1.000000e+00
     vertex -1.618034e-01  1.175571e-01  1.000000e+00
     vertex -1.118488e-01  7.559660e-02  1.000000e+00
   endloop
 endfacet
 facet normal  0.000000e+00  0.000000e+00  1.000000e+00
   outer loop
     vertex  1.532089e-01 -1.285575e-01  1.000000e+00
     vertex  8.919109e-02 -1.013408e-01  1.000000e+00
     vertex  1.338261e-01 -1.486290e-01  1.000000e+00
   endloop
 endfacet
 facet normal  0.000000e+00  0.000000e+00  1.000000e+00
   outer loop
     vertex  1.532089e-01 -1.285575e-01  1.000000e+00
     vertex  1.050348e-01 -8.480970e-02  1.000000e+00
     vertex  8.919109e-02 -1.013408e-01  1.000000e+00
   endloop
 endfacet
 facet normal  0.000000e+00  0.000000e+00  1.000000e+00
   outer loop
     vertex -1.231323e-01  1.576022e-01  1.000000e+00
     vertex -1.438680e-01  1.389317e-01  1.000000e+00
     vertex -9.746407e-02  9.341175e-02  1.000000e+00
   endloop
 endfacet
 facet normal  0.000000e+00  0.000000e+00  1.000000e+00
   outer loop
     vertex -1.231323e-01  1.576022e-01  1.000000e+00
     vertex -9.746407e-02  9.341175e-02  1.000000e+00
     vertex -8.027548e-02  1.085396e-01  1.000000e+00
   endloop
 endfacet
 facet normal  0.000000e+00  0.000000e+00  1.000000e+00
   outer loop
     vertex  1.696096e-01 -1.059839e-01  1.000000e+00
     vertex  1.050348e-01 -8.480970e-02  1.000000e+00
     vertex  1.532089e-01 -1.285575e-01  1.000000e+00
   endloop
 endfacet
 facet normal  0.000000e+00  0.000000e+00  1.000000e+00
   outer loop
     vertex  1.696096e-01 -1.059839e-01  1.000000e+00
     vertex  1.178569e-01 -6.583882e-02  1.000000e+00
     vertex  1.050348e-01 -8.480970e-02  1.000000e+00
   endloop
 endfacet
 facet normal  0.000000e+00  0.000000e+00  1.000000e+00
   outer loop
     vertex -1.000000e-01  1.732051e-01  1.000000e+00
     vertex -1.231323e-01  1.576022e-01  1.000000e+00
     vertex -8.027548e-02  1.085396e-01  1.000000e+00
   endloop
 endfacet
 facet normal  0.000000e+00  0.000000e+00  1.000000e+00
   outer loop
     vertex -1.000000e-01  1.732051e-01  1.000000e+00
     vertex -8.027548e-02  1.085396e-01  1.000000e+00
     vertex -6.077751e-02  1.205450e-01  1.000000e+00
   endloop
 endfacet
 facet normal  0.000000e+00  0.000000e+00  1.000000e+00
   outer loop
     vertex  1.827091e-01 -8.134733e-02  1.000000e+00
     vertex  1.272885e-01 -4.497387e-02  1.000000e+00
     vertex  1.178569e-01 -6.583882e-02  1.000000e+00
   endloop
 endfacet
 facet normal  0.000000e+00  0.000000e+00  1.000000e+00
   outer loop
     vertex  1.827091e-01 -8.134733e-02  1.000000e+00
     vertex  1.178569e-01 -6.583882e-02  1.000000e+00
     vertex  1.696096e-01 -1.059839e-01  1.000000e+00
   endloop
 endfacet
 facet normal  0.000000e+00  0.000000e+00  1.000000e+00
   outer loop
     vertex -7.492132e-02  1.854368e-01  1.000000e+00
     vertex -6.077751e-02  1.205450e-01  1.000000e+00
     vertex -3.953107e-02  1.290825e-01  1.000000e+00
   endloop
 endfacet
 facet normal  0.000000e+00  0.000000e+00  1.000000e+00
   outer loop
     vertex -7.492132e-02  1.854368e-01  1.000000e+00
     vertex -1.000000e-01  1.732051e-01  1.000000e+00
     vertex -6.077751e-02  1.205450e-01  1.000000e+00
   endloop
 endfacet
 facet normal  0.000000e+00  0.000000e+00  1.000000e+00
   outer loop
     vertex  1.922523e-01 -5.512747e-02  1.000000e+00
     vertex  1.330581e-01 -2.281511e-02  1.000000e+00
     vertex  1.272885e-01 -4.497387e-02  1.000000e+00
   endloop
 endfacet
 facet normal  0.000000e+00  0.000000e+00  1.000000e+00
   outer loop
     vertex  1.922523e-01 -5.512747e-02  1.000000e+00
     vertex  1.272885e-01 -4.497387e-02  1.000000e+00
     vertex  1.827091e-01 -8.134733e-02  1.000000e+00
   endloop
 endfacet
 facet normal  0.000000e+00  0.000000e+00  1.000000e+00
   outer loop
     vertex -4.838438e-02  1.940591e-01  1.000000e+00
     vertex -3.953107e-02  1.290825e-01  1.000000e+00
     vertex -1.714741e-02  1.339066e-01  1.000000e+00
   endloop
 endfacet
 facet normal  0.000000e+00  0.000000e+00  1.000000e+00
   outer loop
     vertex -4.838438e-02  1.940591e-01  1.000000e+00
     vertex -7.492132e-02  1.854368e-01  1.000000e+00
     vertex -3.953107e-02  1.290825e-01  1.000000e+00
   endloop
 endfacet
 facet normal  0.000000e+00  0.000000e+00  1.000000e+00
   outer loop
     vertex  1.980536e-01 -2.783462e-02  1.000000e+00
     vertex  1.350000e-01  0.000000e+00  1.000000e+00
     vertex  1.330581e-01 -2.281511e-02  1.000000e+00
   endloop
 endfacet
 facet normal  0.000000e+00  0.000000e+00  1.000000e+00
   outer loop
     vertex  1.980536e-01 -2.783462e-02  1.000000e+00
     vertex  1.330581e-01 -2.281511e-02  1.000000e+00
     vertex  1.922523e-01 -5.512747e-02  1.000000e+00
   endloop
 endfacet
 facet normal  0.000000e+00  0.000000e+00  1.000000e+00
   outer loop
     vertex -2.090569e-02  1.989044e-01  1.000000e+00
     vertex -4.838438e-02  1.940591e-01  1.000000e+00
     vertex -1.714741e-02  1.339066e-01  1.000000e+00
   endloop
 endfacet
 facet normal  0.000000e+00  0.000000e+00  1.000000e+00
   outer loop
     vertex -2.090569e-02  1.989044e-01  1.000000e+00
     vertex -1.714741e-02  1.339066e-01  1.000000e+00
     vertex  5.729562e-03  1.348784e-01  1.000000e+00
   endloop
 endfacet
 facet normal  0.000000e+00  0.000000e+00  1.000000e+00
   outer loop
     vertex  2.000000e-01  0.000000e+00  1.000000e+00
     vertex  1.350000e-01  0.000000e+00  1.000000e+00
     vertex  1.980536e-01 -2.783462e-02  1.000000e+00
   endloop
 endfacet
 facet normal  0.000000e+00  0.000000e+00  1.000000e+00
   outer loop
     vertex  6.979899e-03  1.998782e-01  1.000000e+00
     vertex -2.090569e-02  1.989044e-01  1.000000e+00
     vertex  5.729562e-03  1.348784e-01  1.000000e+00
   endloop
 endfacet
 facet normal  0.000000e+00  0.000000e+00  1.000000e+00
   outer loop
     vertex  1.980536e-01  2.783462e-02  1.000000e+00
     vertex  1.330581e-01  2.281511e-02  1.000000e+00
     vertex  1.350000e-01  0.000000e+00  1.000000e+00
   endloop
 endfacet
 facet normal  0.000000e+00  0.000000e+00  1.000000e+00
   outer loop
     vertex  1.980536e-01  2.783462e-02  1.000000e+00
     vertex  1.350000e-01  0.000000e+00  1.000000e+00
     vertex  2.000000e-01  0.000000e+00  1.000000e+00
   endloop
 endfacet
 facet normal  0.000000e+00  0.000000e+00  1.000000e+00
   outer loop
     vertex  3.472964e-02  1.969616e-01  1.000000e+00
     vertex  5.729562e-03  1.348784e-01  1.000000e+00
     vertex  2.844170e-02  1.319700e-01  1.000000e+00
   endloop
 endfacet
 facet normal  0.000000e+00  0.000000e+00  1.000000e+00
   outer loop
     vertex  3.472964e-02  1.969616e-01  1.000000e+00
     vertex  6.979899e-03  1.998782e-01  1.000000e+00
     vertex  5.729562e-03  1.348784e-01  1.000000e+00
   endloop
 endfacet
 facet normal  0.000000e+00  0.000000e+00  1.000000e+00
   outer loop
     vertex  1.922523e-01  5.512747e-02  1.000000e+00
     vertex  1.330581e-01  2.281511e-02  1.000000e+00
     vertex  1.980536e-01  2.783462e-02  1.000000e+00
   endloop
 endfacet
 facet normal  0.000000e+00  0.000000e+00  1.000000e+00
   outer loop
     vertex  1.922523e-01  5.512747e-02  1.000000e+00
     vertex  1.272885e-01  4.497387e-02  1.000000e+00
     vertex  1.330581e-01  2.281511e-02  1.000000e+00
   endloop
 endfacet
 facet normal  0.000000e+00  0.000000e+00  1.000000e+00
   outer loop
     vertex  6.180340e-02  1.902113e-01  1.000000e+00
     vertex  3.472964e-02  1.969616e-01  1.000000e+00
     vertex  2.844170e-02  1.319700e-01  1.000000e+00
   endloop
 endfacet
 facet normal  0.000000e+00  0.000000e+00  1.000000e+00
   outer loop
     vertex  6.180340e-02  1.902113e-01  1.000000e+00
     vertex  2.844170e-02  1.319700e-01  1.000000e+00
     vertex  5.033562e-02  1.252650e-01  1.000000e+00
   endloop
 endfacet
 facet normal  0.000000e+00  0.000000e+00  1.000000e+00
   outer loop
     vertex  1.827091e-01  8.134733e-02  1.000000e+00
     vertex  1.272885e-01  4.497387e-02  1.000000e+00
     vertex  1.922523e-01  5.512747e-02  1.000000e+00
   endloop
 endfacet
 facet normal  0.000000e+00  0.000000e+00  1.000000e+00
   outer loop
     vertex  1.827091e-01  8.134733e-02  1.000000e+00
     vertex  1.178569e-01  6.583882e-02  1.000000e+00
     vertex  1.272885e-01  4.497387e-02  1.000000e+00
   endloop
 endfacet
 facet normal  0.000000e+00  0.000000e+00  1.000000e+00
   outer loop
     vertex  8.767423e-02  1.797588e-01  1.000000e+00
     vertex  6.180340e-02  1.902113e-01  1.000000e+00
     vertex  5.033562e-02  1.252650e-01  1.000000e+00
   endloop
 endfacet
 facet normal  0.000000e+00  0.000000e+00  1.000000e+00
   outer loop
     vertex  8.767423e-02  1.797588e-01  1.000000e+00
     vertex  5.033562e-02  1.252650e-01  1.000000e+00
     vertex  7.078148e-02  1.149564e-01  1.000000e+00
   endloop
 endfacet
 facet normal  0.000000e+00  0.000000e+00  1.000000e+00
   outer loop
     vertex  1.696096e-01  1.059839e-01  1.000000e+00
     vertex  1.178569e-01  6.583882e-02  1.000000e+00
     vertex  1.827091e-01  8.134733e-02  1.000000e+00
   endloop
 endfacet
 facet normal  0.000000e+00  0.000000e+00  1.000000e+00
   outer loop
     vertex  1.696096e-01  1.059839e-01  1.000000e+00
     vertex  1.050348e-01  8.480970e-02  1.000000e+00
     vertex  1.178569e-01  6.583882e-02  1.000000e+00
   endloop
 endfacet
 facet normal  0.000000e+00  0.000000e+00  1.000000e+00
   outer loop
     vertex  1.118386e-01  1.658075e-01  1.000000e+00
     vertex  8.767423e-02  1.797588e-01  1.000000e+00
     vertex  7.078148e-02  1.149564e-01  1.000000e+00
   endloop
 endfacet
 facet normal  0.000000e+00  0.000000e+00  1.000000e+00
   outer loop
     vertex  1.118386e-01  1.658075e-01  1.000000e+00
     vertex  7.078148e-02  1.149564e-01  1.000000e+00
     vertex  8.919109e-02  1.013408e-01  1.000000e+00
   endloop
 endfacet
 facet normal  0.000000e+00  0.000000e+00  1.000000e+00
   outer loop
     vertex  1.532089e-01  1.285575e-01  1.000000e+00
     vertex  1.050348e-01  8.480970e-02  1.000000e+00
     vertex  1.696096e-01  1.059839e-01  1.000000e+00
   endloop
 endfacet
 facet normal  0.000000e+00  0.000000e+00  1.000000e+00
   outer loop
     vertex  1.532089e-01  1.285575e-01  1.000000e+00
     vertex  8.919109e-02  1.013408e-01  1.000000e+00
     vertex  1.050348e-01  8.480970e-02  1.000000e+00
   endloop
 endfacet
 facet normal  0.000000e+00  0.000000e+00  1.000000e+00
   outer loop
     vertex  1.338261e-01  1.486290e-01  1.000000e+00
     vertex  1.118386e-01  1.658075e-01  1.000000e+00
     vertex  8.919109e-02  1.013408e-01  1.000000e+00
   endloop
 endfacet
 facet normal  0.000000e+00  0.000000e+00  1.000000e+00
   outer loop
     vertex  1.338261e-01  1.486290e-01  1.000000e+00
     vertex  8.919109e-02  1.013408e-01  1.000000e+00
     vertex  1.532089e-01  1.285575e-01  1.000000e+00
   endloop
 endfacet
endsolid
