solid 
 facet normal -0.000000e+00  0.000000e+00 -1.000000e+00
   outer loop
     vertex  9.800000e-01  0.000000e+00  0.000000e+00
     vertex  0.000000e+00 -2.600000e-01  0.000000e+00
     vertex  0.000000e+00  0.000000e+00  0.000000e+00
   endloop
 endfacet
 facet normal  0.000000e+00 -0.000000e+00 -1.000000e+00
   outer loop
     vertex  9.800000e-01  0.000000e+00  0.000000e+00
     vertex  9.800000e-01 -2.600000e-01  0.000000e+00
     vertex  0.000000e+00 -2.600000e-01  0.000000e+00
   endloop
 endfacet
 facet normal  1.000000e+00  0.000000e+00  0.000000e+00
   outer loop
     vertex  9.800000e-01  0.000000e+00  9.800000e-01
     vertex  9.800000e-01 -2.600000e-01  0.000000e+00
     vertex  9.800000e-01  0.000000e+00  0.000000e+00
   endloop
 endfacet
 facet normal  1.000000e+00  0.000000e+00  0.000000e+00
   outer loop
     vertex  9.800000e-01  0.000000e+00  9.800000e-01
     vertex  9.800000e-01 -2.600000e-01  9.800000e-01
     vertex  9.800000e-01 -2.600000e-01  0.000000e+00
   endloop
 endfacet
 facet normal  0.000000e+00  0.000000e+00  1.000000e+00
   outer loop
     vertex  9.800000e-01  0.000000e+00  9.800000e-01
     vertex  0.000000e+00  0.000000e+00  9.800000e-01
     vertex  0.000000e+00 -2.600000e-01  9.800000e-01
   endloop
 endfacet
 facet normal  0.000000e+00  0.000000e+00  1.000000e+00
   outer loop
     vertex  9.800000e-01  0.000000e+00  9.800000e-01
     vertex  0.000000e+00 -2.600000e-01  9.800000e-01
     vertex  9.800000e-01 -2.600000e-01  9.800000e-01
   endloop
 endfacet
 facet normal -1.000000e+00  0.000000e+00 -0.000000e+00
   outer loop
     vertex  0.000000e+00  0.000000e+00  9.800000e-01
     vertex  0.000000e+00  0.000000e+00  0.000000e+00
     vertex  0.000000e+00 -2.600000e-01  0.000000e+00
   endloop
 endfacet
 facet normal -1.000000e+00 -0.000000e+00  0.000000e+00
   outer loop
     vertex  0.000000e+00  0.000000e+00  9.800000e-01
     vertex  0.000000e+00 -2.600000e-01  0.000000e+00
     vertex  0.000000e+00 -2.600000e-01  9.800000e-01
   endloop
 endfacet
 facet normal  0.000000e+00  1.000000e+00  0.000000e+00
   outer loop
     vertex  9.800000e-01  0.000000e+00  9.800000e-01
     vertex  9.800000e-01  0.000000e+00  0.000000e+00
     vertex  0.000000e+00  0.000000e+00  0.000000e+00
   endloop
 endfacet
 facet normal  0.000000e+00  1.000000e+00  0.000000e+00
   outer loop
     vertex  9.800000e-01  0.000000e+00  9.800000e-01
     vertex  0.000000e+00  0.000000e+00  0.000000e+00
     vertex  0.000000e+00  0.000000e+00  9.800000e-01
   endloop
 endfacet
 facet normal  0.000000e+00 -1.000000e+00 -0.000000e+00
   outer loop
     vertex  9.800000e-01 -2.600000e-01  9.800000e-01
     vertex  0.000000e+00 -2.600000e-01  0.000000e+00
     vertex  9.800000e-01 -2.600000e-01  0.000000e+00
   endloop
 endfacet
 facet normal -0.000000e+00 -1.000000e+00  0.000000e+00
   outer loop
     vertex  9.800000e-01 -2.600000e-01  9.800000e-01
     vertex  0.000000e+00 -2.600000e-01  9.800000e-01
     vertex  0.000000e+00 -2.600000e-01  0.000000e+00
   endloop
 endfacet
 facet normal  1.000000e+00  0.000000e+00  0.000000e+00
   outer loop
     vertex  9.849000e+01  0.000000e+00  1.216350e+02
     vertex  9.849000e+01  0.000000e+00  1.213900e+02
     vertex  9.849000e+01  2.600000e-01  1.213900e+02
   endloop
 endfacet
 facet normal  1.000000e+00 -0.000000e+00  0.000000e+00
   outer loop
     vertex  9.849000e+01  0.000000e+00  1.216350e+02
     vertex  9.849000e+01  2.600000e-01  1.213900e+02
     vertex  9.849000e+01  2.600000e-01  1.216350e+02
   endloop
 endfacet
 facet normal  4.472136e-01  0.000000e+00  8.944272e-01
   outer loop
     vertex  9.849000e+01  0.000000e+00  1.216350e+02
     vertex  9.751000e+01  2.600000e-01  1.221250e+02
     vertex  9.751000e+01  0.000000e+00  1.221250e+02
   endloop
 endfacet
 facet normal  4.472136e-01 -0.000000e+00  8.944272e-01
   outer loop
     vertex  9.849000e+01  0.000000e+00  1.216350e+02
     vertex  9.849000e+01  2.600000e-01  1.216350e+02
     vertex  9.751000e+01  2.600000e-01  1.221250e+02
   endloop
 endfacet
 facet normal -1.000000e+00  0.000000e+00  0.000000e+00
   outer loop
     vertex  9.751000e+01  0.000000e+00  1.221250e+02
     vertex  9.751000e+01  2.600000e-01  1.213900e+02
     vertex  9.751000e+01  0.000000e+00  1.213900e+02
   endloop
 endfacet
 facet normal -1.000000e+00  0.000000e+00  0.000000e+00
   outer loop
     vertex  9.751000e+01  0.000000e+00  1.221250e+02
     vertex  9.751000e+01  2.600000e-01  1.221250e+02
     vertex  9.751000e+01  2.600000e-01  1.213900e+02
   endloop
 endfacet
 facet normal  0.000000e+00  0.000000e+00 -1.000000e+00
   outer loop
     vertex  9.849000e+01  0.000000e+00  1.213900e+02
     vertex  9.751000e+01  0.000000e+00  1.213900e+02
     vertex  9.751000e+01  2.600000e-01  1.213900e+02
   endloop
 endfacet
 facet normal  0.000000e+00  0.000000e+00 -1.000000e+00
   outer loop
     vertex  9.849000e+01  0.000000e+00  1.213900e+02
     vertex  9.751000e+01  2.600000e-01  1.213900e+02
     vertex  9.849000e+01  2.600000e-01  1.213900e+02
   endloop
 endfacet
 facet normal  0.000000e+00 -1.000000e+00  0.000000e+00
   outer loop
     vertex  9.751000e+01  0.000000e+00  1.213900e+02
     vertex  9.849000e+01  0.000000e+00  1.213900e+02
     vertex  9.849000e+01  0.000000e+00  1.216350e+02
   endloop
 endfacet
 facet normal  0.000000e+00 -1.000000e+00  0.000000e+00
   outer loop
     vertex  9.751000e+01  0.000000e+00  1.221250e+02
     vertex  9.751000e+01  0.000000e+00  1.213900e+02
     vertex  9.849000e+01  0.000000e+00  1.216350e+02
   endloop
 endfacet
 facet normal  0.000000e+00  1.000000e+00  0.000000e+00
   outer loop
     vertex  9.751000e+01  2.600000e-01  1.213900e+02
     vertex  9.849000e+01  2.600000e-01  1.216350e+02
     vertex  9.849000e+01  2.600000e-01  1.213900e+02
   endloop
 endfacet
 facet normal  0.000000e+00  1.000000e+00  0.000000e+00
   outer loop
     vertex  9.751000e+01  2.600000e-01  1.221250e+02
     vertex  9.849000e+01  2.600000e-01  1.216350e+02
     vertex  9.751000e+01  2.600000e-01  1.213900e+02
   endloop
 endfacet
endsolid
