solid 
 facet normal -1.000000e+00  0.000000e+00  0.000000e+00
   outer loop
     vertex  0.000000e+00  6.650000e-01  0.000000e+00
     vertex  0.000000e+00  0.000000e+00  0.000000e+00
     vertex  0.000000e+00  0.000000e+00  1.000000e+00
   endloop
 endfacet
 facet normal -1.000000e+00  0.000000e+00  0.000000e+00
   outer loop
     vertex  0.000000e+00  6.650000e-01  0.000000e+00
     vertex  0.000000e+00  0.000000e+00  1.000000e+00
     vertex  0.000000e+00  6.650000e-01  1.000000e+00
   endloop
 endfacet
 facet normal  9.916004e-01  1.293392e-01  0.000000e+00
   outer loop
     vertex  6.000000e-02  2.050000e-01  0.000000e+00
     vertex  0.000000e+00  6.650000e-01  0.000000e+00
     vertex  0.000000e+00  6.650000e-01  1.000000e+00
   endloop
 endfacet
 facet normal  9.916004e-01  1.293392e-01 -0.000000e+00
   outer loop
     vertex  6.000000e-02  2.050000e-01  0.000000e+00
     vertex  0.000000e+00  6.650000e-01  1.000000e+00
     vertex  6.000000e-02  2.050000e-01  1.000000e+00
   endloop
 endfacet
 facet normal  4.303410e-01  9.026664e-01  0.000000e+00
   outer loop
     vertex  4.900000e-01  0.000000e+00  0.000000e+00
     vertex  6.000000e-02  2.050000e-01  0.000000e+00
     vertex  6.000000e-02  2.050000e-01  1.000000e+00
   endloop
 endfacet
 facet normal  4.303410e-01  9.026664e-01 -0.000000e+00
   outer loop
     vertex  4.900000e-01  0.000000e+00  0.000000e+00
     vertex  6.000000e-02  2.050000e-01  1.000000e+00
     vertex  4.900000e-01  0.000000e+00  1.000000e+00
   endloop
 endfacet
 facet normal  0.000000e+00 -1.000000e+00  0.000000e+00
   outer loop
     vertex  4.900000e-01  0.000000e+00  0.000000e+00
     vertex  0.000000e+00  0.000000e+00  1.000000e+00
     vertex  0.000000e+00  0.000000e+00  0.000000e+00
   endloop
 endfacet
 facet normal  0.000000e+00 -1.000000e+00  0.000000e+00
   outer loop
     vertex  4.900000e-01  0.000000e+00  0.000000e+00
     vertex  4.900000e-01  0.000000e+00  1.000000e+00
     vertex  0.000000e+00  0.000000e+00  1.000000e+00
   endloop
 endfacet
 facet normal  0.000000e+00  0.000000e+00 -1.000000e+00
   outer loop
     vertex  4.900000e-01  0.000000e+00  0.000000e+00
     vertex  0.000000e+00  0.000000e+00  0.000000e+00
     vertex  6.000000e-02  2.050000e-01  0.000000e+00
   endloop
 endfacet
 facet normal  0.000000e+00  0.000000e+00 -1.000000e+00
   outer loop
     vertex  0.000000e+00  6.650000e-01  0.000000e+00
     vertex  6.000000e-02  2.050000e-01  0.000000e+00
     vertex  0.000000e+00  0.000000e+00  0.000000e+00
   endloop
 endfacet
 facet normal  0.000000e+00  0.000000e+00  1.000000e+00
   outer loop
     vertex  4.900000e-01  0.000000e+00  1.000000e+00
     vertex  6.000000e-02  2.050000e-01  1.000000e+00
     vertex  0.000000e+00  0.000000e+00  1.000000e+00
   endloop
 endfacet
 facet normal  0.000000e+00  0.000000e+00  1.000000e+00
   outer loop
     vertex  0.000000e+00  6.650000e-01  1.000000e+00
     vertex  0.000000e+00  0.000000e+00  1.000000e+00
     vertex  6.000000e-02  2.050000e-01  1.000000e+00
   endloop
 endfacet
endsolid
