solid 
 facet normal  9.941380e-01  1.081190e-01  0.000000e+00
   outer loop
     vertex  7.812964e-02  1.719764e-02  0.000000e+00
     vertex  8.000000e-02  0.000000e+00  1.000000e+00
     vertex  8.000000e-02  0.000000e+00  0.000000e+00
   endloop
 endfacet
 facet normal  9.941380e-01  1.081190e-01 -0.000000e+00
   outer loop
     vertex  7.812964e-02  1.719764e-02  0.000000e+00
     vertex  7.812964e-02  1.719764e-02  1.000000e+00
     vertex  8.000000e-02  0.000000e+00  1.000000e+00
   endloop
 endfacet
 facet normal  9.476532e-01  3.193015e-01 -0.000000e+00
   outer loop
     vertex  7.260603e-02  3.359113e-02  0.000000e+00
     vertex  7.260603e-02  3.359113e-02  1.000000e+00
     vertex  7.812964e-02  1.719764e-02  1.000000e+00
   endloop
 endfacet
 facet normal  9.476532e-01  3.193015e-01  0.000000e+00
   outer loop
     vertex  7.260603e-02  3.359113e-02  0.000000e+00
     vertex  7.812964e-02  1.719764e-02  1.000000e+00
     vertex  7.812964e-02  1.719764e-02  0.000000e+00
   endloop
 endfacet
 facet normal  8.568572e-01  5.155539e-01 -0.000000e+00
   outer loop
     vertex  6.368745e-02  4.841394e-02  0.000000e+00
     vertex  6.368745e-02  4.841394e-02  1.000000e+00
     vertex  7.260603e-02  3.359113e-02  1.000000e+00
   endloop
 endfacet
 facet normal  8.568572e-01  5.155539e-01  0.000000e+00
   outer loop
     vertex  6.368745e-02  4.841394e-02  0.000000e+00
     vertex  7.260603e-02  3.359113e-02  1.000000e+00
     vertex  7.260603e-02  3.359113e-02  0.000000e+00
   endloop
 endfacet
 facet normal  7.259955e-01  6.876995e-01 -0.000000e+00
   outer loop
     vertex  5.179090e-02  6.097296e-02  0.000000e+00
     vertex  5.179090e-02  6.097296e-02  1.000000e+00
     vertex  6.368745e-02  4.841394e-02  1.000000e+00
   endloop
 endfacet
 facet normal  7.259955e-01  6.876995e-01  0.000000e+00
   outer loop
     vertex  5.179090e-02  6.097296e-02  0.000000e+00
     vertex  6.368745e-02  4.841394e-02  1.000000e+00
     vertex  6.368745e-02  4.841394e-02  0.000000e+00
   endloop
 endfacet
 facet normal  5.611871e-01  8.276890e-01 -0.000000e+00
   outer loop
     vertex  3.747268e-02  7.068096e-02  0.000000e+00
     vertex  3.747268e-02  7.068096e-02  1.000000e+00
     vertex  5.179090e-02  6.097296e-02  1.000000e+00
   endloop
 endfacet
 facet normal  5.611871e-01  8.276890e-01  0.000000e+00
   outer loop
     vertex  3.747268e-02  7.068096e-02  0.000000e+00
     vertex  5.179090e-02  6.097296e-02  1.000000e+00
     vertex  5.179090e-02  6.097296e-02  0.000000e+00
   endloop
 endfacet
 facet normal  3.701382e-01  9.289767e-01 -0.000000e+00
   outer loop
     vertex  2.140227e-02  7.708400e-02  0.000000e+00
     vertex  2.140227e-02  7.708400e-02  1.000000e+00
     vertex  3.747268e-02  7.068096e-02  1.000000e+00
   endloop
 endfacet
 facet normal  3.701382e-01  9.289767e-01  0.000000e+00
   outer loop
     vertex  2.140227e-02  7.708400e-02  0.000000e+00
     vertex  3.747268e-02  7.068096e-02  1.000000e+00
     vertex  3.747268e-02  7.068096e-02  0.000000e+00
   endloop
 endfacet
 facet normal  1.617820e-01  9.868265e-01 -0.000000e+00
   outer loop
     vertex  4.331113e-03  7.988267e-02  0.000000e+00
     vertex  4.331113e-03  7.988267e-02  1.000000e+00
     vertex  2.140227e-02  7.708400e-02  1.000000e+00
   endloop
 endfacet
 facet normal  1.617820e-01  9.868265e-01  0.000000e+00
   outer loop
     vertex  4.331113e-03  7.988267e-02  0.000000e+00
     vertex  2.140227e-02  7.708400e-02  1.000000e+00
     vertex  2.140227e-02  7.708400e-02  0.000000e+00
   endloop
 endfacet
 facet normal -5.413891e-02  9.985334e-01  0.000000e+00
   outer loop
     vertex -1.294256e-02  7.894612e-02  0.000000e+00
     vertex -1.294256e-02  7.894612e-02  1.000000e+00
     vertex  4.331113e-03  7.988267e-02  1.000000e+00
   endloop
 endfacet
 facet normal -5.413891e-02  9.985334e-01  0.000000e+00
   outer loop
     vertex -1.294256e-02  7.894612e-02  0.000000e+00
     vertex  4.331113e-03  7.988267e-02  1.000000e+00
     vertex  4.331113e-03  7.988267e-02  0.000000e+00
   endloop
 endfacet
 facet normal -2.675283e-01  9.635500e-01  0.000000e+00
   outer loop
     vertex -2.961105e-02  7.431814e-02  0.000000e+00
     vertex -2.961105e-02  7.431814e-02  1.000000e+00
     vertex -1.294256e-02  7.894612e-02  1.000000e+00
   endloop
 endfacet
 facet normal -2.675283e-01  9.635500e-01  0.000000e+00
   outer loop
     vertex -2.961105e-02  7.431814e-02  0.000000e+00
     vertex -1.294256e-02  7.894612e-02  1.000000e+00
     vertex -1.294256e-02  7.894612e-02  0.000000e+00
   endloop
 endfacet
 facet normal -4.684084e-01  8.835120e-01  0.000000e+00
   outer loop
     vertex -4.489497e-02  6.621512e-02  0.000000e+00
     vertex -2.961105e-02  7.431814e-02  1.000000e+00
     vertex -2.961105e-02  7.431814e-02  0.000000e+00
   endloop
 endfacet
 facet normal -4.684084e-01  8.835120e-01  0.000000e+00
   outer loop
     vertex -4.489497e-02  6.621512e-02  0.000000e+00
     vertex -4.489497e-02  6.621512e-02  1.000000e+00
     vertex -2.961105e-02  7.431814e-02  1.000000e+00
   endloop
 endfacet
 facet normal -6.473863e-01  7.621621e-01  0.000000e+00
   outer loop
     vertex -5.807964e-02  5.501596e-02  0.000000e+00
     vertex -4.489497e-02  6.621512e-02  1.000000e+00
     vertex -4.489497e-02  6.621512e-02  0.000000e+00
   endloop
 endfacet
 facet normal -6.473863e-01  7.621621e-01  0.000000e+00
   outer loop
     vertex -5.807964e-02  5.501596e-02  0.000000e+00
     vertex -5.807964e-02  5.501596e-02  1.000000e+00
     vertex -4.489497e-02  6.621512e-02  1.000000e+00
   endloop
 endfacet
 facet normal -7.960931e-01  6.051742e-01  0.000000e+00
   outer loop
     vertex -6.854857e-02  4.124431e-02  0.000000e+00
     vertex -6.854857e-02  4.124431e-02  1.000000e+00
     vertex -5.807964e-02  5.501596e-02  1.000000e+00
   endloop
 endfacet
 facet normal -7.960931e-01  6.051742e-01  0.000000e+00
   outer loop
     vertex -6.854857e-02  4.124431e-02  0.000000e+00
     vertex -5.807964e-02  5.501596e-02  1.000000e+00
     vertex -5.807964e-02  5.501596e-02  0.000000e+00
   endloop
 endfacet
 facet normal -9.075754e-01  4.198891e-01  0.000000e+00
   outer loop
     vertex -7.581225e-02  2.554412e-02  0.000000e+00
     vertex -7.581225e-02  2.554412e-02  1.000000e+00
     vertex -6.854857e-02  4.124431e-02  1.000000e+00
   endloop
 endfacet
 facet normal -9.766206e-01  2.149704e-01  0.000000e+00
   outer loop
     vertex -7.581225e-02  2.554412e-02  0.000000e+00
     vertex -7.953104e-02  8.649521e-03  1.000000e+00
     vertex -7.581225e-02  2.554412e-02  1.000000e+00
   endloop
 endfacet
 facet normal -9.075754e-01  4.198891e-01  0.000000e+00
   outer loop
     vertex -7.581225e-02  2.554412e-02  0.000000e+00
     vertex -6.854857e-02  4.124431e-02  1.000000e+00
     vertex -6.854857e-02  4.124431e-02  0.000000e+00
   endloop
 endfacet
 facet normal -9.766206e-01  2.149704e-01  0.000000e+00
   outer loop
     vertex -7.953104e-02  8.649521e-03  0.000000e+00
     vertex -7.953104e-02  8.649521e-03  1.000000e+00
     vertex -7.581225e-02  2.554412e-02  0.000000e+00
   endloop
 endfacet
 facet normal -1.000000e+00 -8.022286e-16  0.000000e+00
   outer loop
     vertex -7.953104e-02 -8.649521e-03  0.000000e+00
     vertex -7.953104e-02 -8.649521e-03  1.000000e+00
     vertex -7.953104e-02  8.649521e-03  1.000000e+00
   endloop
 endfacet
 facet normal -1.000000e+00 -8.022286e-16  0.000000e+00
   outer loop
     vertex -7.953104e-02 -8.649521e-03  0.000000e+00
     vertex -7.953104e-02  8.649521e-03  1.000000e+00
     vertex -7.953104e-02  8.649521e-03  0.000000e+00
   endloop
 endfacet
 facet normal -9.766206e-01 -2.149704e-01  0.000000e+00
   outer loop
     vertex -7.581225e-02 -2.554412e-02  0.000000e+00
     vertex -7.581225e-02 -2.554412e-02  1.000000e+00
     vertex -7.953104e-02 -8.649521e-03  1.000000e+00
   endloop
 endfacet
 facet normal -9.766206e-01 -2.149704e-01  0.000000e+00
   outer loop
     vertex -7.581225e-02 -2.554412e-02  0.000000e+00
     vertex -7.953104e-02 -8.649521e-03  1.000000e+00
     vertex -7.953104e-02 -8.649521e-03  0.000000e+00
   endloop
 endfacet
 facet normal -9.075754e-01 -4.198891e-01  0.000000e+00
   outer loop
     vertex -6.854857e-02 -4.124431e-02  0.000000e+00
     vertex -6.854857e-02 -4.124431e-02  1.000000e+00
     vertex -7.581225e-02 -2.554412e-02  1.000000e+00
   endloop
 endfacet
 facet normal -9.075754e-01 -4.198891e-01  0.000000e+00
   outer loop
     vertex -6.854857e-02 -4.124431e-02  0.000000e+00
     vertex -7.581225e-02 -2.554412e-02  1.000000e+00
     vertex -7.581225e-02 -2.554412e-02  0.000000e+00
   endloop
 endfacet
 facet normal -7.960931e-01 -6.051742e-01  0.000000e+00
   outer loop
     vertex -5.807964e-02 -5.501596e-02  0.000000e+00
     vertex -5.807964e-02 -5.501596e-02  1.000000e+00
     vertex -6.854857e-02 -4.124431e-02  1.000000e+00
   endloop
 endfacet
 facet normal -6.473863e-01 -7.621621e-01  0.000000e+00
   outer loop
     vertex -5.807964e-02 -5.501596e-02  0.000000e+00
     vertex -4.489497e-02 -6.621512e-02  1.000000e+00
     vertex -5.807964e-02 -5.501596e-02  1.000000e+00
   endloop
 endfacet
 facet normal -7.960931e-01 -6.051742e-01  0.000000e+00
   outer loop
     vertex -5.807964e-02 -5.501596e-02  0.000000e+00
     vertex -6.854857e-02 -4.124431e-02  1.000000e+00
     vertex -6.854857e-02 -4.124431e-02  0.000000e+00
   endloop
 endfacet
 facet normal -6.473863e-01 -7.621621e-01  0.000000e+00
   outer loop
     vertex -4.489497e-02 -6.621512e-02  0.000000e+00
     vertex -4.489497e-02 -6.621512e-02  1.000000e+00
     vertex -5.807964e-02 -5.501596e-02  0.000000e+00
   endloop
 endfacet
 facet normal -4.684084e-01 -8.835120e-01  0.000000e+00
   outer loop
     vertex -2.961105e-02 -7.431814e-02  0.000000e+00
     vertex -2.961105e-02 -7.431814e-02  1.000000e+00
     vertex -4.489497e-02 -6.621512e-02  1.000000e+00
   endloop
 endfacet
 facet normal -4.684084e-01 -8.835120e-01  0.000000e+00
   outer loop
     vertex -2.961105e-02 -7.431814e-02  0.000000e+00
     vertex -4.489497e-02 -6.621512e-02  1.000000e+00
     vertex -4.489497e-02 -6.621512e-02  0.000000e+00
   endloop
 endfacet
 facet normal -2.675283e-01 -9.635500e-01  0.000000e+00
   outer loop
     vertex -1.294256e-02 -7.894612e-02  0.000000e+00
     vertex -1.294256e-02 -7.894612e-02  1.000000e+00
     vertex -2.961105e-02 -7.431814e-02  1.000000e+00
   endloop
 endfacet
 facet normal -2.675283e-01 -9.635500e-01  0.000000e+00
   outer loop
     vertex -1.294256e-02 -7.894612e-02  0.000000e+00
     vertex -2.961105e-02 -7.431814e-02  1.000000e+00
     vertex -2.961105e-02 -7.431814e-02  0.000000e+00
   endloop
 endfacet
 facet normal -5.413891e-02 -9.985334e-01  0.000000e+00
   outer loop
     vertex  4.331113e-03 -7.988267e-02  0.000000e+00
     vertex  4.331113e-03 -7.988267e-02  1.000000e+00
     vertex -1.294256e-02 -7.894612e-02  1.000000e+00
   endloop
 endfacet
 facet normal -5.413891e-02 -9.985334e-01  0.000000e+00
   outer loop
     vertex  4.331113e-03 -7.988267e-02  0.000000e+00
     vertex -1.294256e-02 -7.894612e-02  1.000000e+00
     vertex -1.294256e-02 -7.894612e-02  0.000000e+00
   endloop
 endfacet
 facet normal  1.617820e-01 -9.868265e-01  0.000000e+00
   outer loop
     vertex  2.140227e-02 -7.708400e-02  0.000000e+00
     vertex  2.140227e-02 -7.708400e-02  1.000000e+00
     vertex  4.331113e-03 -7.988267e-02  1.000000e+00
   endloop
 endfacet
 facet normal  1.617820e-01 -9.868265e-01  0.000000e+00
   outer loop
     vertex  2.140227e-02 -7.708400e-02  0.000000e+00
     vertex  4.331113e-03 -7.988267e-02  1.000000e+00
     vertex  4.331113e-03 -7.988267e-02  0.000000e+00
   endloop
 endfacet
 facet normal  3.701382e-01 -9.289767e-01  0.000000e+00
   outer loop
     vertex  3.747268e-02 -7.068096e-02  0.000000e+00
     vertex  3.747268e-02 -7.068096e-02  1.000000e+00
     vertex  2.140227e-02 -7.708400e-02  1.000000e+00
   endloop
 endfacet
 facet normal  3.701382e-01 -9.289767e-01  0.000000e+00
   outer loop
     vertex  3.747268e-02 -7.068096e-02  0.000000e+00
     vertex  2.140227e-02 -7.708400e-02  1.000000e+00
     vertex  2.140227e-02 -7.708400e-02  0.000000e+00
   endloop
 endfacet
 facet normal  5.611871e-01 -8.276890e-01  0.000000e+00
   outer loop
     vertex  5.179090e-02 -6.097296e-02  0.000000e+00
     vertex  5.179090e-02 -6.097296e-02  1.000000e+00
     vertex  3.747268e-02 -7.068096e-02  1.000000e+00
   endloop
 endfacet
 facet normal  5.611871e-01 -8.276890e-01  0.000000e+00
   outer loop
     vertex  5.179090e-02 -6.097296e-02  0.000000e+00
     vertex  3.747268e-02 -7.068096e-02  1.000000e+00
     vertex  3.747268e-02 -7.068096e-02  0.000000e+00
   endloop
 endfacet
 facet normal  7.259955e-01 -6.876995e-01  0.000000e+00
   outer loop
     vertex  6.368745e-02 -4.841394e-02  0.000000e+00
     vertex  6.368745e-02 -4.841394e-02  1.000000e+00
     vertex  5.179090e-02 -6.097296e-02  1.000000e+00
   endloop
 endfacet
 facet normal  7.259955e-01 -6.876995e-01  0.000000e+00
   outer loop
     vertex  6.368745e-02 -4.841394e-02  0.000000e+00
     vertex  5.179090e-02 -6.097296e-02  1.000000e+00
     vertex  5.179090e-02 -6.097296e-02  0.000000e+00
   endloop
 endfacet
 facet normal  8.568572e-01 -5.155539e-01  0.000000e+00
   outer loop
     vertex  7.260603e-02 -3.359113e-02  0.000000e+00
     vertex  7.260603e-02 -3.359113e-02  1.000000e+00
     vertex  6.368745e-02 -4.841394e-02  1.000000e+00
   endloop
 endfacet
 facet normal  8.568572e-01 -5.155539e-01  0.000000e+00
   outer loop
     vertex  7.260603e-02 -3.359113e-02  0.000000e+00
     vertex  6.368745e-02 -4.841394e-02  1.000000e+00
     vertex  6.368745e-02 -4.841394e-02  0.000000e+00
   endloop
 endfacet
 facet normal  9.476532e-01 -3.193015e-01  0.000000e+00
   outer loop
     vertex  7.812964e-02 -1.719764e-02  0.000000e+00
     vertex  7.812964e-02 -1.719764e-02  1.000000e+00
     vertex  7.260603e-02 -3.359113e-02  1.000000e+00
   endloop
 endfacet
 facet normal  9.476532e-01 -3.193015e-01  0.000000e+00
   outer loop
     vertex  7.812964e-02 -1.719764e-02  0.000000e+00
     vertex  7.260603e-02 -3.359113e-02  1.000000e+00
     vertex  7.260603e-02 -3.359113e-02  0.000000e+00
   endloop
 endfacet
 facet normal  9.941380e-01 -1.081190e-01  0.000000e+00
   outer loop
     vertex  8.000000e-02  0.000000e+00  0.000000e+00
     vertex  8.000000e-02  0.000000e+00  1.000000e+00
     vertex  7.812964e-02 -1.719764e-02  1.000000e+00
   endloop
 endfacet
 facet normal  9.941380e-01 -1.081190e-01  0.000000e+00
   outer loop
     vertex  8.000000e-02  0.000000e+00  0.000000e+00
     vertex  7.812964e-02 -1.719764e-02  1.000000e+00
     vertex  7.812964e-02 -1.719764e-02  0.000000e+00
   endloop
 endfacet
 facet normal -9.927089e-01 -1.205367e-01  0.000000e+00
   outer loop
     vertex  5.825651e-02  1.435894e-02  0.000000e+00
     vertex  6.000000e-02  0.000000e+00  0.000000e+00
     vertex  6.000000e-02  0.000000e+00  1.000000e+00
   endloop
 endfacet
 facet normal -9.927089e-01 -1.205367e-01  0.000000e+00
   outer loop
     vertex  5.825651e-02  1.435894e-02  0.000000e+00
     vertex  6.000000e-02  0.000000e+00  1.000000e+00
     vertex  5.825651e-02  1.435894e-02  1.000000e+00
   endloop
 endfacet
 facet normal -9.350162e-01 -3.546049e-01  0.000000e+00
   outer loop
     vertex  5.312736e-02  2.788339e-02  0.000000e+00
     vertex  5.825651e-02  1.435894e-02  1.000000e+00
     vertex  5.312736e-02  2.788339e-02  1.000000e+00
   endloop
 endfacet
 facet normal -9.350162e-01 -3.546049e-01  0.000000e+00
   outer loop
     vertex  5.312736e-02  2.788339e-02  0.000000e+00
     vertex  5.825651e-02  1.435894e-02  0.000000e+00
     vertex  5.825651e-02  1.435894e-02  1.000000e+00
   endloop
 endfacet
 facet normal -8.229839e-01 -5.680647e-01  0.000000e+00
   outer loop
     vertex  4.491064e-02  3.978736e-02  0.000000e+00
     vertex  5.312736e-02  2.788339e-02  1.000000e+00
     vertex  4.491064e-02  3.978736e-02  1.000000e+00
   endloop
 endfacet
 facet normal -8.229839e-01 -5.680647e-01  0.000000e+00
   outer loop
     vertex  4.491064e-02  3.978736e-02  0.000000e+00
     vertex  5.312736e-02  2.788339e-02  0.000000e+00
     vertex  5.312736e-02  2.788339e-02  1.000000e+00
   endloop
 endfacet
 facet normal -6.631227e-01 -7.485107e-01  0.000000e+00
   outer loop
     vertex  3.408388e-02  4.937903e-02  0.000000e+00
     vertex  4.491064e-02  3.978736e-02  1.000000e+00
     vertex  3.408388e-02  4.937903e-02  1.000000e+00
   endloop
 endfacet
 facet normal -6.631227e-01 -7.485107e-01  0.000000e+00
   outer loop
     vertex  3.408388e-02  4.937903e-02  0.000000e+00
     vertex  4.491064e-02  3.978736e-02  0.000000e+00
     vertex  4.491064e-02  3.978736e-02  1.000000e+00
   endloop
 endfacet
 facet normal -4.647232e-01 -8.854560e-01  0.000000e+00
   outer loop
     vertex  2.127629e-02  5.610097e-02  0.000000e+00
     vertex  3.408388e-02  4.937903e-02  1.000000e+00
     vertex  2.127629e-02  5.610097e-02  1.000000e+00
   endloop
 endfacet
 facet normal -4.647232e-01 -8.854560e-01  0.000000e+00
   outer loop
     vertex  2.127629e-02  5.610097e-02  0.000000e+00
     vertex  3.408388e-02  4.937903e-02  0.000000e+00
     vertex  3.408388e-02  4.937903e-02  1.000000e+00
   endloop
 endfacet
 facet normal -2.393157e-01 -9.709418e-01  0.000000e+00
   outer loop
     vertex  7.232201e-03  5.956253e-02  0.000000e+00
     vertex  2.127629e-02  5.610097e-02  1.000000e+00
     vertex  7.232201e-03  5.956253e-02  1.000000e+00
   endloop
 endfacet
 facet normal -2.393157e-01 -9.709418e-01  0.000000e+00
   outer loop
     vertex  7.232201e-03  5.956253e-02  0.000000e+00
     vertex  2.127629e-02  5.610097e-02  0.000000e+00
     vertex  2.127629e-02  5.610097e-02  1.000000e+00
   endloop
 endfacet
 facet normal  0.000000e+00 -1.000000e+00  0.000000e+00
   outer loop
     vertex -7.232201e-03  5.956253e-02  0.000000e+00
     vertex  7.232201e-03  5.956253e-02  1.000000e+00
     vertex -7.232201e-03  5.956253e-02  1.000000e+00
   endloop
 endfacet
 facet normal  0.000000e+00 -1.000000e+00  0.000000e+00
   outer loop
     vertex -7.232201e-03  5.956253e-02  0.000000e+00
     vertex  7.232201e-03  5.956253e-02  0.000000e+00
     vertex  7.232201e-03  5.956253e-02  1.000000e+00
   endloop
 endfacet
 facet normal  2.393157e-01 -9.709418e-01  0.000000e+00
   outer loop
     vertex -2.127629e-02  5.610097e-02  0.000000e+00
     vertex -7.232201e-03  5.956253e-02  1.000000e+00
     vertex -2.127629e-02  5.610097e-02  1.000000e+00
   endloop
 endfacet
 facet normal  2.393157e-01 -9.709418e-01  0.000000e+00
   outer loop
     vertex -2.127629e-02  5.610097e-02  0.000000e+00
     vertex -7.232201e-03  5.956253e-02  0.000000e+00
     vertex -7.232201e-03  5.956253e-02  1.000000e+00
   endloop
 endfacet
 facet normal  4.647232e-01 -8.854560e-01  0.000000e+00
   outer loop
     vertex -3.408388e-02  4.937903e-02  0.000000e+00
     vertex -2.127629e-02  5.610097e-02  1.000000e+00
     vertex -3.408388e-02  4.937903e-02  1.000000e+00
   endloop
 endfacet
 facet normal  4.647232e-01 -8.854560e-01  0.000000e+00
   outer loop
     vertex -3.408388e-02  4.937903e-02  0.000000e+00
     vertex -2.127629e-02  5.610097e-02  0.000000e+00
     vertex -2.127629e-02  5.610097e-02  1.000000e+00
   endloop
 endfacet
 facet normal  6.631227e-01 -7.485107e-01  0.000000e+00
   outer loop
     vertex -4.491064e-02  3.978736e-02  0.000000e+00
     vertex -3.408388e-02  4.937903e-02  1.000000e+00
     vertex -4.491064e-02  3.978736e-02  1.000000e+00
   endloop
 endfacet
 facet normal  6.631227e-01 -7.485107e-01  0.000000e+00
   outer loop
     vertex -4.491064e-02  3.978736e-02  0.000000e+00
     vertex -3.408388e-02  4.937903e-02  0.000000e+00
     vertex -3.408388e-02  4.937903e-02  1.000000e+00
   endloop
 endfacet
 facet normal  8.229839e-01 -5.680647e-01  0.000000e+00
   outer loop
     vertex -5.312736e-02  2.788339e-02  0.000000e+00
     vertex -4.491064e-02  3.978736e-02  0.000000e+00
     vertex -4.491064e-02  3.978736e-02  1.000000e+00
   endloop
 endfacet
 facet normal  8.229839e-01 -5.680647e-01  0.000000e+00
   outer loop
     vertex -5.312736e-02  2.788339e-02  0.000000e+00
     vertex -4.491064e-02  3.978736e-02  1.000000e+00
     vertex -5.312736e-02  2.788339e-02  1.000000e+00
   endloop
 endfacet
 facet normal  9.350162e-01 -3.546049e-01  0.000000e+00
   outer loop
     vertex -5.825651e-02  1.435894e-02  0.000000e+00
     vertex -5.312736e-02  2.788339e-02  0.000000e+00
     vertex -5.312736e-02  2.788339e-02  1.000000e+00
   endloop
 endfacet
 facet normal  9.350162e-01 -3.546049e-01  0.000000e+00
   outer loop
     vertex -5.825651e-02  1.435894e-02  0.000000e+00
     vertex -5.312736e-02  2.788339e-02  1.000000e+00
     vertex -5.825651e-02  1.435894e-02  1.000000e+00
   endloop
 endfacet
 facet normal  9.927089e-01 -1.205367e-01  0.000000e+00
   outer loop
     vertex -6.000000e-02  6.063859e-17  0.000000e+00
     vertex -5.825651e-02  1.435894e-02  0.000000e+00
     vertex -5.825651e-02  1.435894e-02  1.000000e+00
   endloop
 endfacet
 facet normal  9.927089e-01 -1.205367e-01  0.000000e+00
   outer loop
     vertex -6.000000e-02  6.063859e-17  0.000000e+00
     vertex -5.825651e-02  1.435894e-02  1.000000e+00
     vertex -6.000000e-02  6.063859e-17  1.000000e+00
   endloop
 endfacet
 facet normal  9.927089e-01  1.205367e-01 -0.000000e+00
   outer loop
     vertex -5.825651e-02 -1.435894e-02  0.000000e+00
     vertex -6.000000e-02  6.063859e-17  1.000000e+00
     vertex -5.825651e-02 -1.435894e-02  1.000000e+00
   endloop
 endfacet
 facet normal  9.927089e-01  1.205367e-01  0.000000e+00
   outer loop
     vertex -5.825651e-02 -1.435894e-02  0.000000e+00
     vertex -6.000000e-02  6.063859e-17  0.000000e+00
     vertex -6.000000e-02  6.063859e-17  1.000000e+00
   endloop
 endfacet
 facet normal  9.350162e-01  3.546049e-01  0.000000e+00
   outer loop
     vertex -5.312736e-02 -2.788339e-02  0.000000e+00
     vertex -5.825651e-02 -1.435894e-02  0.000000e+00
     vertex -5.825651e-02 -1.435894e-02  1.000000e+00
   endloop
 endfacet
 facet normal  9.350162e-01  3.546049e-01 -0.000000e+00
   outer loop
     vertex -5.312736e-02 -2.788339e-02  0.000000e+00
     vertex -5.825651e-02 -1.435894e-02  1.000000e+00
     vertex -5.312736e-02 -2.788339e-02  1.000000e+00
   endloop
 endfacet
 facet normal  8.229839e-01  5.680647e-01 -0.000000e+00
   outer loop
     vertex -5.312736e-02 -2.788339e-02  0.000000e+00
     vertex -5.312736e-02 -2.788339e-02  1.000000e+00
     vertex -4.491064e-02 -3.978736e-02  1.000000e+00
   endloop
 endfacet
 facet normal  8.229839e-01  5.680647e-01 -0.000000e+00
   outer loop
     vertex -4.491064e-02 -3.978736e-02  0.000000e+00
     vertex -5.312736e-02 -2.788339e-02  0.000000e+00
     vertex -4.491064e-02 -3.978736e-02  1.000000e+00
   endloop
 endfacet
 facet normal  6.631227e-01  7.485107e-01 -0.000000e+00
   outer loop
     vertex -3.408388e-02 -4.937903e-02  0.000000e+00
     vertex -4.491064e-02 -3.978736e-02  1.000000e+00
     vertex -3.408388e-02 -4.937903e-02  1.000000e+00
   endloop
 endfacet
 facet normal  6.631227e-01  7.485107e-01  0.000000e+00
   outer loop
     vertex -3.408388e-02 -4.937903e-02  0.000000e+00
     vertex -4.491064e-02 -3.978736e-02  0.000000e+00
     vertex -4.491064e-02 -3.978736e-02  1.000000e+00
   endloop
 endfacet
 facet normal  4.647232e-01  8.854560e-01 -0.000000e+00
   outer loop
     vertex -2.127629e-02 -5.610097e-02  0.000000e+00
     vertex -3.408388e-02 -4.937903e-02  1.000000e+00
     vertex -2.127629e-02 -5.610097e-02  1.000000e+00
   endloop
 endfacet
 facet normal  4.647232e-01  8.854560e-01  0.000000e+00
   outer loop
     vertex -2.127629e-02 -5.610097e-02  0.000000e+00
     vertex -3.408388e-02 -4.937903e-02  0.000000e+00
     vertex -3.408388e-02 -4.937903e-02  1.000000e+00
   endloop
 endfacet
 facet normal  2.393157e-01  9.709418e-01 -0.000000e+00
   outer loop
     vertex -7.232201e-03 -5.956253e-02  0.000000e+00
     vertex -2.127629e-02 -5.610097e-02  1.000000e+00
     vertex -7.232201e-03 -5.956253e-02  1.000000e+00
   endloop
 endfacet
 facet normal  2.393157e-01  9.709418e-01  0.000000e+00
   outer loop
     vertex -7.232201e-03 -5.956253e-02  0.000000e+00
     vertex -2.127629e-02 -5.610097e-02  0.000000e+00
     vertex -2.127629e-02 -5.610097e-02  1.000000e+00
   endloop
 endfacet
 facet normal  2.398611e-15  1.000000e+00 -0.000000e+00
   outer loop
     vertex  7.232201e-03 -5.956253e-02  0.000000e+00
     vertex -7.232201e-03 -5.956253e-02  1.000000e+00
     vertex  7.232201e-03 -5.956253e-02  1.000000e+00
   endloop
 endfacet
 facet normal  2.398611e-15  1.000000e+00  0.000000e+00
   outer loop
     vertex  7.232201e-03 -5.956253e-02  0.000000e+00
     vertex -7.232201e-03 -5.956253e-02  0.000000e+00
     vertex -7.232201e-03 -5.956253e-02  1.000000e+00
   endloop
 endfacet
 facet normal -2.393157e-01  9.709418e-01  0.000000e+00
   outer loop
     vertex  2.127629e-02 -5.610097e-02  0.000000e+00
     vertex  7.232201e-03 -5.956253e-02  1.000000e+00
     vertex  2.127629e-02 -5.610097e-02  1.000000e+00
   endloop
 endfacet
 facet normal -2.393157e-01  9.709418e-01  0.000000e+00
   outer loop
     vertex  2.127629e-02 -5.610097e-02  0.000000e+00
     vertex  7.232201e-03 -5.956253e-02  0.000000e+00
     vertex  7.232201e-03 -5.956253e-02  1.000000e+00
   endloop
 endfacet
 facet normal -4.647232e-01  8.854560e-01  0.000000e+00
   outer loop
     vertex  3.408388e-02 -4.937903e-02  0.000000e+00
     vertex  2.127629e-02 -5.610097e-02  1.000000e+00
     vertex  3.408388e-02 -4.937903e-02  1.000000e+00
   endloop
 endfacet
 facet normal -4.647232e-01  8.854560e-01  0.000000e+00
   outer loop
     vertex  3.408388e-02 -4.937903e-02  0.000000e+00
     vertex  2.127629e-02 -5.610097e-02  0.000000e+00
     vertex  2.127629e-02 -5.610097e-02  1.000000e+00
   endloop
 endfacet
 facet normal -6.631227e-01  7.485107e-01  0.000000e+00
   outer loop
     vertex  4.491064e-02 -3.978736e-02  0.000000e+00
     vertex  3.408388e-02 -4.937903e-02  1.000000e+00
     vertex  4.491064e-02 -3.978736e-02  1.000000e+00
   endloop
 endfacet
 facet normal -6.631227e-01  7.485107e-01  0.000000e+00
   outer loop
     vertex  4.491064e-02 -3.978736e-02  0.000000e+00
     vertex  3.408388e-02 -4.937903e-02  0.000000e+00
     vertex  3.408388e-02 -4.937903e-02  1.000000e+00
   endloop
 endfacet
 facet normal -8.229839e-01  5.680647e-01  0.000000e+00
   outer loop
     vertex  5.312736e-02 -2.788339e-02  0.000000e+00
     vertex  4.491064e-02 -3.978736e-02  1.000000e+00
     vertex  5.312736e-02 -2.788339e-02  1.000000e+00
   endloop
 endfacet
 facet normal -9.350162e-01  3.546049e-01  0.000000e+00
   outer loop
     vertex  5.312736e-02 -2.788339e-02  0.000000e+00
     vertex  5.312736e-02 -2.788339e-02  1.000000e+00
     vertex  5.825651e-02 -1.435894e-02  1.000000e+00
   endloop
 endfacet
 facet normal -8.229839e-01  5.680647e-01  0.000000e+00
   outer loop
     vertex  5.312736e-02 -2.788339e-02  0.000000e+00
     vertex  4.491064e-02 -3.978736e-02  0.000000e+00
     vertex  4.491064e-02 -3.978736e-02  1.000000e+00
   endloop
 endfacet
 facet normal -9.350162e-01  3.546049e-01  0.000000e+00
   outer loop
     vertex  5.825651e-02 -1.435894e-02  0.000000e+00
     vertex  5.312736e-02 -2.788339e-02  0.000000e+00
     vertex  5.825651e-02 -1.435894e-02  1.000000e+00
   endloop
 endfacet
 facet normal -9.927089e-01  1.205367e-01  0.000000e+00
   outer loop
     vertex  6.000000e-02  0.000000e+00  0.000000e+00
     vertex  5.825651e-02 -1.435894e-02  1.000000e+00
     vertex  6.000000e-02  0.000000e+00  1.000000e+00
   endloop
 endfacet
 facet normal -9.927089e-01  1.205367e-01  0.000000e+00
   outer loop
     vertex  6.000000e-02  0.000000e+00  0.000000e+00
     vertex  5.825651e-02 -1.435894e-02  0.000000e+00
     vertex  5.825651e-02 -1.435894e-02  1.000000e+00
   endloop
 endfacet
 facet normal  0.000000e+00  0.000000e+00 -1.000000e+00
   outer loop
     vertex -4.491064e-02 -3.978736e-02  0.000000e+00
     vertex -5.807964e-02 -5.501596e-02  0.000000e+00
     vertex -6.854857e-02 -4.124431e-02  0.000000e+00
   endloop
 endfacet
 facet normal  0.000000e+00  0.000000e+00 -1.000000e+00
   outer loop
     vertex -3.408388e-02 -4.937903e-02  0.000000e+00
     vertex -4.489497e-02 -6.621512e-02  0.000000e+00
     vertex -5.807964e-02 -5.501596e-02  0.000000e+00
   endloop
 endfacet
 facet normal  0.000000e+00 -0.000000e+00 -1.000000e+00
   outer loop
     vertex -3.408388e-02 -4.937903e-02  0.000000e+00
     vertex -2.961105e-02 -7.431814e-02  0.000000e+00
     vertex -4.489497e-02 -6.621512e-02  0.000000e+00
   endloop
 endfacet
 facet normal -0.000000e+00  0.000000e+00 -1.000000e+00
   outer loop
     vertex -3.408388e-02 -4.937903e-02  0.000000e+00
     vertex -5.807964e-02 -5.501596e-02  0.000000e+00
     vertex -4.491064e-02 -3.978736e-02  0.000000e+00
   endloop
 endfacet
 facet normal -0.000000e+00  0.000000e+00 -1.000000e+00
   outer loop
     vertex -5.312736e-02 -2.788339e-02  0.000000e+00
     vertex -6.854857e-02 -4.124431e-02  0.000000e+00
     vertex -7.581225e-02 -2.554412e-02  0.000000e+00
   endloop
 endfacet
 facet normal  0.000000e+00 -0.000000e+00 -1.000000e+00
   outer loop
     vertex -5.312736e-02 -2.788339e-02  0.000000e+00
     vertex -4.491064e-02 -3.978736e-02  0.000000e+00
     vertex -6.854857e-02 -4.124431e-02  0.000000e+00
   endloop
 endfacet
 facet normal  0.000000e+00 -0.000000e+00 -1.000000e+00
   outer loop
     vertex -2.127629e-02 -5.610097e-02  0.000000e+00
     vertex -1.294256e-02 -7.894612e-02  0.000000e+00
     vertex -2.961105e-02 -7.431814e-02  0.000000e+00
   endloop
 endfacet
 facet normal -0.000000e+00  0.000000e+00 -1.000000e+00
   outer loop
     vertex -2.127629e-02 -5.610097e-02  0.000000e+00
     vertex -2.961105e-02 -7.431814e-02  0.000000e+00
     vertex -3.408388e-02 -4.937903e-02  0.000000e+00
   endloop
 endfacet
 facet normal -0.000000e+00  0.000000e+00 -1.000000e+00
   outer loop
     vertex -5.825651e-02 -1.435894e-02  0.000000e+00
     vertex -7.581225e-02 -2.554412e-02  0.000000e+00
     vertex -7.953104e-02 -8.649521e-03  0.000000e+00
   endloop
 endfacet
 facet normal  0.000000e+00 -0.000000e+00 -1.000000e+00
   outer loop
     vertex -5.825651e-02 -1.435894e-02  0.000000e+00
     vertex -5.312736e-02 -2.788339e-02  0.000000e+00
     vertex -7.581225e-02 -2.554412e-02  0.000000e+00
   endloop
 endfacet
 facet normal  0.000000e+00 -0.000000e+00 -1.000000e+00
   outer loop
     vertex -7.232201e-03 -5.956253e-02  0.000000e+00
     vertex  4.331113e-03 -7.988267e-02  0.000000e+00
     vertex -1.294256e-02 -7.894612e-02  0.000000e+00
   endloop
 endfacet
 facet normal -0.000000e+00  0.000000e+00 -1.000000e+00
   outer loop
     vertex -7.232201e-03 -5.956253e-02  0.000000e+00
     vertex -1.294256e-02 -7.894612e-02  0.000000e+00
     vertex -2.127629e-02 -5.610097e-02  0.000000e+00
   endloop
 endfacet
 facet normal -0.000000e+00  0.000000e+00 -1.000000e+00
   outer loop
     vertex -6.000000e-02  6.063859e-17  0.000000e+00
     vertex -7.953104e-02 -8.649521e-03  0.000000e+00
     vertex -7.953104e-02  8.649521e-03  0.000000e+00
   endloop
 endfacet
 facet normal  0.000000e+00 -0.000000e+00 -1.000000e+00
   outer loop
     vertex -6.000000e-02  6.063859e-17  0.000000e+00
     vertex -5.825651e-02 -1.435894e-02  0.000000e+00
     vertex -7.953104e-02 -8.649521e-03  0.000000e+00
   endloop
 endfacet
 facet normal  0.000000e+00 -0.000000e+00 -1.000000e+00
   outer loop
     vertex  7.232201e-03 -5.956253e-02  0.000000e+00
     vertex  2.140227e-02 -7.708400e-02  0.000000e+00
     vertex  4.331113e-03 -7.988267e-02  0.000000e+00
   endloop
 endfacet
 facet normal -0.000000e+00  0.000000e+00 -1.000000e+00
   outer loop
     vertex  7.232201e-03 -5.956253e-02  0.000000e+00
     vertex  4.331113e-03 -7.988267e-02  0.000000e+00
     vertex -7.232201e-03 -5.956253e-02  0.000000e+00
   endloop
 endfacet
 facet normal -0.000000e+00  0.000000e+00 -1.000000e+00
   outer loop
     vertex -5.825651e-02  1.435894e-02  0.000000e+00
     vertex -7.953104e-02  8.649521e-03  0.000000e+00
     vertex -7.581225e-02  2.554412e-02  0.000000e+00
   endloop
 endfacet
 facet normal  0.000000e+00  0.000000e+00 -1.000000e+00
   outer loop
     vertex -5.825651e-02  1.435894e-02  0.000000e+00
     vertex -6.000000e-02  6.063859e-17  0.000000e+00
     vertex -7.953104e-02  8.649521e-03  0.000000e+00
   endloop
 endfacet
 facet normal  0.000000e+00 -0.000000e+00 -1.000000e+00
   outer loop
     vertex  2.127629e-02 -5.610097e-02  0.000000e+00
     vertex  2.140227e-02 -7.708400e-02  0.000000e+00
     vertex  7.232201e-03 -5.956253e-02  0.000000e+00
   endloop
 endfacet
 facet normal -0.000000e+00  0.000000e+00 -1.000000e+00
   outer loop
     vertex  3.747268e-02 -7.068096e-02  0.000000e+00
     vertex  2.140227e-02 -7.708400e-02  0.000000e+00
     vertex  2.127629e-02 -5.610097e-02  0.000000e+00
   endloop
 endfacet
 facet normal -0.000000e+00  0.000000e+00 -1.000000e+00
   outer loop
     vertex -5.312736e-02  2.788339e-02  0.000000e+00
     vertex -7.581225e-02  2.554412e-02  0.000000e+00
     vertex -6.854857e-02  4.124431e-02  0.000000e+00
   endloop
 endfacet
 facet normal  0.000000e+00  0.000000e+00 -1.000000e+00
   outer loop
     vertex -5.312736e-02  2.788339e-02  0.000000e+00
     vertex -5.825651e-02  1.435894e-02  0.000000e+00
     vertex -7.581225e-02  2.554412e-02  0.000000e+00
   endloop
 endfacet
 facet normal  0.000000e+00 -0.000000e+00 -1.000000e+00
   outer loop
     vertex  3.408388e-02 -4.937903e-02  0.000000e+00
     vertex  3.747268e-02 -7.068096e-02  0.000000e+00
     vertex  2.127629e-02 -5.610097e-02  0.000000e+00
   endloop
 endfacet
 facet normal -0.000000e+00  0.000000e+00 -1.000000e+00
   outer loop
     vertex  5.179090e-02 -6.097296e-02  0.000000e+00
     vertex  3.747268e-02 -7.068096e-02  0.000000e+00
     vertex  3.408388e-02 -4.937903e-02  0.000000e+00
   endloop
 endfacet
 facet normal -0.000000e+00  0.000000e+00 -1.000000e+00
   outer loop
     vertex -4.491064e-02  3.978736e-02  0.000000e+00
     vertex -5.312736e-02  2.788339e-02  0.000000e+00
     vertex -6.854857e-02  4.124431e-02  0.000000e+00
   endloop
 endfacet
 facet normal  0.000000e+00 -0.000000e+00 -1.000000e+00
   outer loop
     vertex -5.807964e-02  5.501596e-02  0.000000e+00
     vertex -4.491064e-02  3.978736e-02  0.000000e+00
     vertex -6.854857e-02  4.124431e-02  0.000000e+00
   endloop
 endfacet
 facet normal  0.000000e+00 -0.000000e+00 -1.000000e+00
   outer loop
     vertex  4.491064e-02 -3.978736e-02  0.000000e+00
     vertex  5.179090e-02 -6.097296e-02  0.000000e+00
     vertex  3.408388e-02 -4.937903e-02  0.000000e+00
   endloop
 endfacet
 facet normal -0.000000e+00  0.000000e+00 -1.000000e+00
   outer loop
     vertex  6.368745e-02 -4.841394e-02  0.000000e+00
     vertex  5.179090e-02 -6.097296e-02  0.000000e+00
     vertex  4.491064e-02 -3.978736e-02  0.000000e+00
   endloop
 endfacet
 facet normal -0.000000e+00  0.000000e+00 -1.000000e+00
   outer loop
     vertex -3.408388e-02  4.937903e-02  0.000000e+00
     vertex -4.491064e-02  3.978736e-02  0.000000e+00
     vertex -5.807964e-02  5.501596e-02  0.000000e+00
   endloop
 endfacet
 facet normal  0.000000e+00 -0.000000e+00 -1.000000e+00
   outer loop
     vertex -4.489497e-02  6.621512e-02  0.000000e+00
     vertex -3.408388e-02  4.937903e-02  0.000000e+00
     vertex -5.807964e-02  5.501596e-02  0.000000e+00
   endloop
 endfacet
 facet normal  0.000000e+00 -0.000000e+00 -1.000000e+00
   outer loop
     vertex  5.312736e-02 -2.788339e-02  0.000000e+00
     vertex  6.368745e-02 -4.841394e-02  0.000000e+00
     vertex  4.491064e-02 -3.978736e-02  0.000000e+00
   endloop
 endfacet
 facet normal -0.000000e+00  0.000000e+00 -1.000000e+00
   outer loop
     vertex  7.260603e-02 -3.359113e-02  0.000000e+00
     vertex  6.368745e-02 -4.841394e-02  0.000000e+00
     vertex  5.312736e-02 -2.788339e-02  0.000000e+00
   endloop
 endfacet
 facet normal  0.000000e+00 -0.000000e+00 -1.000000e+00
   outer loop
     vertex  5.825651e-02 -1.435894e-02  0.000000e+00
     vertex  7.260603e-02 -3.359113e-02  0.000000e+00
     vertex  5.312736e-02 -2.788339e-02  0.000000e+00
   endloop
 endfacet
 facet normal  0.000000e+00  0.000000e+00 -1.000000e+00
   outer loop
     vertex -2.961105e-02  7.431814e-02  0.000000e+00
     vertex -3.408388e-02  4.937903e-02  0.000000e+00
     vertex -4.489497e-02  6.621512e-02  0.000000e+00
   endloop
 endfacet
 facet normal  0.000000e+00 -0.000000e+00 -1.000000e+00
   outer loop
     vertex -2.961105e-02  7.431814e-02  0.000000e+00
     vertex -2.127629e-02  5.610097e-02  0.000000e+00
     vertex -3.408388e-02  4.937903e-02  0.000000e+00
   endloop
 endfacet
 facet normal -0.000000e+00  0.000000e+00 -1.000000e+00
   outer loop
     vertex  7.812964e-02 -1.719764e-02  0.000000e+00
     vertex  7.260603e-02 -3.359113e-02  0.000000e+00
     vertex  5.825651e-02 -1.435894e-02  0.000000e+00
   endloop
 endfacet
 facet normal  0.000000e+00  0.000000e+00 -1.000000e+00
   outer loop
     vertex  7.812964e-02 -1.719764e-02  0.000000e+00
     vertex  5.825651e-02 -1.435894e-02  0.000000e+00
     vertex  6.000000e-02  0.000000e+00  0.000000e+00
   endloop
 endfacet
 facet normal  0.000000e+00  0.000000e+00 -1.000000e+00
   outer loop
     vertex -1.294256e-02  7.894612e-02  0.000000e+00
     vertex -2.127629e-02  5.610097e-02  0.000000e+00
     vertex -2.961105e-02  7.431814e-02  0.000000e+00
   endloop
 endfacet
 facet normal  0.000000e+00 -0.000000e+00 -1.000000e+00
   outer loop
     vertex -1.294256e-02  7.894612e-02  0.000000e+00
     vertex -7.232201e-03  5.956253e-02  0.000000e+00
     vertex -2.127629e-02  5.610097e-02  0.000000e+00
   endloop
 endfacet
 facet normal -0.000000e+00  0.000000e+00 -1.000000e+00
   outer loop
     vertex  8.000000e-02  0.000000e+00  0.000000e+00
     vertex  7.812964e-02 -1.719764e-02  0.000000e+00
     vertex  6.000000e-02  0.000000e+00  0.000000e+00
   endloop
 endfacet
 facet normal  0.000000e+00 -0.000000e+00 -1.000000e+00
   outer loop
     vertex  4.331113e-03  7.988267e-02  0.000000e+00
     vertex  7.232201e-03  5.956253e-02  0.000000e+00
     vertex -7.232201e-03  5.956253e-02  0.000000e+00
   endloop
 endfacet
 facet normal  0.000000e+00  0.000000e+00 -1.000000e+00
   outer loop
     vertex  4.331113e-03  7.988267e-02  0.000000e+00
     vertex -7.232201e-03  5.956253e-02  0.000000e+00
     vertex -1.294256e-02  7.894612e-02  0.000000e+00
   endloop
 endfacet
 facet normal  0.000000e+00  0.000000e+00 -1.000000e+00
   outer loop
     vertex  7.812964e-02  1.719764e-02  0.000000e+00
     vertex  6.000000e-02  0.000000e+00  0.000000e+00
     vertex  5.825651e-02  1.435894e-02  0.000000e+00
   endloop
 endfacet
 facet normal  0.000000e+00 -0.000000e+00 -1.000000e+00
   outer loop
     vertex  7.812964e-02  1.719764e-02  0.000000e+00
     vertex  8.000000e-02  0.000000e+00  0.000000e+00
     vertex  6.000000e-02  0.000000e+00  0.000000e+00
   endloop
 endfacet
 facet normal  0.000000e+00  0.000000e+00 -1.000000e+00
   outer loop
     vertex  2.140227e-02  7.708400e-02  0.000000e+00
     vertex  2.127629e-02  5.610097e-02  0.000000e+00
     vertex  7.232201e-03  5.956253e-02  0.000000e+00
   endloop
 endfacet
 facet normal -0.000000e+00  0.000000e+00 -1.000000e+00
   outer loop
     vertex  2.140227e-02  7.708400e-02  0.000000e+00
     vertex  7.232201e-03  5.956253e-02  0.000000e+00
     vertex  4.331113e-03  7.988267e-02  0.000000e+00
   endloop
 endfacet
 facet normal  0.000000e+00  0.000000e+00 -1.000000e+00
   outer loop
     vertex  7.260603e-02  3.359113e-02  0.000000e+00
     vertex  5.825651e-02  1.435894e-02  0.000000e+00
     vertex  5.312736e-02  2.788339e-02  0.000000e+00
   endloop
 endfacet
 facet normal  0.000000e+00 -0.000000e+00 -1.000000e+00
   outer loop
     vertex  7.260603e-02  3.359113e-02  0.000000e+00
     vertex  7.812964e-02  1.719764e-02  0.000000e+00
     vertex  5.825651e-02  1.435894e-02  0.000000e+00
   endloop
 endfacet
 facet normal  0.000000e+00  0.000000e+00 -1.000000e+00
   outer loop
     vertex  3.747268e-02  7.068096e-02  0.000000e+00
     vertex  3.408388e-02  4.937903e-02  0.000000e+00
     vertex  2.127629e-02  5.610097e-02  0.000000e+00
   endloop
 endfacet
 facet normal -0.000000e+00  0.000000e+00 -1.000000e+00
   outer loop
     vertex  3.747268e-02  7.068096e-02  0.000000e+00
     vertex  2.127629e-02  5.610097e-02  0.000000e+00
     vertex  2.140227e-02  7.708400e-02  0.000000e+00
   endloop
 endfacet
 facet normal  0.000000e+00  0.000000e+00 -1.000000e+00
   outer loop
     vertex  6.368745e-02  4.841394e-02  0.000000e+00
     vertex  5.312736e-02  2.788339e-02  0.000000e+00
     vertex  4.491064e-02  3.978736e-02  0.000000e+00
   endloop
 endfacet
 facet normal  0.000000e+00 -0.000000e+00 -1.000000e+00
   outer loop
     vertex  6.368745e-02  4.841394e-02  0.000000e+00
     vertex  7.260603e-02  3.359113e-02  0.000000e+00
     vertex  5.312736e-02  2.788339e-02  0.000000e+00
   endloop
 endfacet
 facet normal  0.000000e+00  0.000000e+00 -1.000000e+00
   outer loop
     vertex  5.179090e-02  6.097296e-02  0.000000e+00
     vertex  4.491064e-02  3.978736e-02  0.000000e+00
     vertex  3.408388e-02  4.937903e-02  0.000000e+00
   endloop
 endfacet
 facet normal  0.000000e+00 -0.000000e+00 -1.000000e+00
   outer loop
     vertex  5.179090e-02  6.097296e-02  0.000000e+00
     vertex  6.368745e-02  4.841394e-02  0.000000e+00
     vertex  4.491064e-02  3.978736e-02  0.000000e+00
   endloop
 endfacet
 facet normal -0.000000e+00  0.000000e+00 -1.000000e+00
   outer loop
     vertex  5.179090e-02  6.097296e-02  0.000000e+00
     vertex  3.408388e-02  4.937903e-02  0.000000e+00
     vertex  3.747268e-02  7.068096e-02  0.000000e+00
   endloop
 endfacet
 facet normal  0.000000e+00  0.000000e+00  1.000000e+00
   outer loop
     vertex -4.491064e-02 -3.978736e-02  1.000000e+00
     vertex -6.854857e-02 -4.124431e-02  1.000000e+00
     vertex -5.807964e-02 -5.501596e-02  1.000000e+00
   endloop
 endfacet
 facet normal  0.000000e+00  0.000000e+00  1.000000e+00
   outer loop
     vertex -3.408388e-02 -4.937903e-02  1.000000e+00
     vertex -5.807964e-02 -5.501596e-02  1.000000e+00
     vertex -4.489497e-02 -6.621512e-02  1.000000e+00
   endloop
 endfacet
 facet normal  0.000000e+00  0.000000e+00  1.000000e+00
   outer loop
     vertex -3.408388e-02 -4.937903e-02  1.000000e+00
     vertex -4.489497e-02 -6.621512e-02  1.000000e+00
     vertex -2.961105e-02 -7.431814e-02  1.000000e+00
   endloop
 endfacet
 facet normal  0.000000e+00  0.000000e+00  1.000000e+00
   outer loop
     vertex -3.408388e-02 -4.937903e-02  1.000000e+00
     vertex -4.491064e-02 -3.978736e-02  1.000000e+00
     vertex -5.807964e-02 -5.501596e-02  1.000000e+00
   endloop
 endfacet
 facet normal  0.000000e+00  0.000000e+00  1.000000e+00
   outer loop
     vertex -5.312736e-02 -2.788339e-02  1.000000e+00
     vertex -7.581225e-02 -2.554412e-02  1.000000e+00
     vertex -6.854857e-02 -4.124431e-02  1.000000e+00
   endloop
 endfacet
 facet normal  0.000000e+00  0.000000e+00  1.000000e+00
   outer loop
     vertex -5.312736e-02 -2.788339e-02  1.000000e+00
     vertex -6.854857e-02 -4.124431e-02  1.000000e+00
     vertex -4.491064e-02 -3.978736e-02  1.000000e+00
   endloop
 endfacet
 facet normal  0.000000e+00  0.000000e+00  1.000000e+00
   outer loop
     vertex -2.127629e-02 -5.610097e-02  1.000000e+00
     vertex -2.961105e-02 -7.431814e-02  1.000000e+00
     vertex -1.294256e-02 -7.894612e-02  1.000000e+00
   endloop
 endfacet
 facet normal  0.000000e+00  0.000000e+00  1.000000e+00
   outer loop
     vertex -2.127629e-02 -5.610097e-02  1.000000e+00
     vertex -3.408388e-02 -4.937903e-02  1.000000e+00
     vertex -2.961105e-02 -7.431814e-02  1.000000e+00
   endloop
 endfacet
 facet normal  0.000000e+00  0.000000e+00  1.000000e+00
   outer loop
     vertex -5.825651e-02 -1.435894e-02  1.000000e+00
     vertex -7.953104e-02 -8.649521e-03  1.000000e+00
     vertex -7.581225e-02 -2.554412e-02  1.000000e+00
   endloop
 endfacet
 facet normal  0.000000e+00  0.000000e+00  1.000000e+00
   outer loop
     vertex -5.825651e-02 -1.435894e-02  1.000000e+00
     vertex -7.581225e-02 -2.554412e-02  1.000000e+00
     vertex -5.312736e-02 -2.788339e-02  1.000000e+00
   endloop
 endfacet
 facet normal  0.000000e+00  0.000000e+00  1.000000e+00
   outer loop
     vertex -7.232201e-03 -5.956253e-02  1.000000e+00
     vertex -1.294256e-02 -7.894612e-02  1.000000e+00
     vertex  4.331113e-03 -7.988267e-02  1.000000e+00
   endloop
 endfacet
 facet normal  0.000000e+00  0.000000e+00  1.000000e+00
   outer loop
     vertex -7.232201e-03 -5.956253e-02  1.000000e+00
     vertex -2.127629e-02 -5.610097e-02  1.000000e+00
     vertex -1.294256e-02 -7.894612e-02  1.000000e+00
   endloop
 endfacet
 facet normal  0.000000e+00  0.000000e+00  1.000000e+00
   outer loop
     vertex -6.000000e-02  6.063859e-17  1.000000e+00
     vertex -7.953104e-02  8.649521e-03  1.000000e+00
     vertex -7.953104e-02 -8.649521e-03  1.000000e+00
   endloop
 endfacet
 facet normal  0.000000e+00  0.000000e+00  1.000000e+00
   outer loop
     vertex -6.000000e-02  6.063859e-17  1.000000e+00
     vertex -7.953104e-02 -8.649521e-03  1.000000e+00
     vertex -5.825651e-02 -1.435894e-02  1.000000e+00
   endloop
 endfacet
 facet normal  0.000000e+00  0.000000e+00  1.000000e+00
   outer loop
     vertex  7.232201e-03 -5.956253e-02  1.000000e+00
     vertex  4.331113e-03 -7.988267e-02  1.000000e+00
     vertex  2.140227e-02 -7.708400e-02  1.000000e+00
   endloop
 endfacet
 facet normal  0.000000e+00  0.000000e+00  1.000000e+00
   outer loop
     vertex  7.232201e-03 -5.956253e-02  1.000000e+00
     vertex -7.232201e-03 -5.956253e-02  1.000000e+00
     vertex  4.331113e-03 -7.988267e-02  1.000000e+00
   endloop
 endfacet
 facet normal  0.000000e+00  0.000000e+00  1.000000e+00
   outer loop
     vertex -5.825651e-02  1.435894e-02  1.000000e+00
     vertex -7.581225e-02  2.554412e-02  1.000000e+00
     vertex -7.953104e-02  8.649521e-03  1.000000e+00
   endloop
 endfacet
 facet normal  0.000000e+00  0.000000e+00  1.000000e+00
   outer loop
     vertex -5.825651e-02  1.435894e-02  1.000000e+00
     vertex -7.953104e-02  8.649521e-03  1.000000e+00
     vertex -6.000000e-02  6.063859e-17  1.000000e+00
   endloop
 endfacet
 facet normal  0.000000e+00  0.000000e+00  1.000000e+00
   outer loop
     vertex  2.127629e-02 -5.610097e-02  1.000000e+00
     vertex  7.232201e-03 -5.956253e-02  1.000000e+00
     vertex  2.140227e-02 -7.708400e-02  1.000000e+00
   endloop
 endfacet
 facet normal  0.000000e+00  0.000000e+00  1.000000e+00
   outer loop
     vertex  3.747268e-02 -7.068096e-02  1.000000e+00
     vertex  2.127629e-02 -5.610097e-02  1.000000e+00
     vertex  2.140227e-02 -7.708400e-02  1.000000e+00
   endloop
 endfacet
 facet normal  0.000000e+00  0.000000e+00  1.000000e+00
   outer loop
     vertex -5.312736e-02  2.788339e-02  1.000000e+00
     vertex -6.854857e-02  4.124431e-02  1.000000e+00
     vertex -7.581225e-02  2.554412e-02  1.000000e+00
   endloop
 endfacet
 facet normal  0.000000e+00  0.000000e+00  1.000000e+00
   outer loop
     vertex -5.312736e-02  2.788339e-02  1.000000e+00
     vertex -7.581225e-02  2.554412e-02  1.000000e+00
     vertex -5.825651e-02  1.435894e-02  1.000000e+00
   endloop
 endfacet
 facet normal  0.000000e+00  0.000000e+00  1.000000e+00
   outer loop
     vertex  3.408388e-02 -4.937903e-02  1.000000e+00
     vertex  2.127629e-02 -5.610097e-02  1.000000e+00
     vertex  3.747268e-02 -7.068096e-02  1.000000e+00
   endloop
 endfacet
 facet normal  0.000000e+00  0.000000e+00  1.000000e+00
   outer loop
     vertex  5.179090e-02 -6.097296e-02  1.000000e+00
     vertex  3.408388e-02 -4.937903e-02  1.000000e+00
     vertex  3.747268e-02 -7.068096e-02  1.000000e+00
   endloop
 endfacet
 facet normal  0.000000e+00  0.000000e+00  1.000000e+00
   outer loop
     vertex -4.491064e-02  3.978736e-02  1.000000e+00
     vertex -6.854857e-02  4.124431e-02  1.000000e+00
     vertex -5.312736e-02  2.788339e-02  1.000000e+00
   endloop
 endfacet
 facet normal  0.000000e+00  0.000000e+00  1.000000e+00
   outer loop
     vertex -5.807964e-02  5.501596e-02  1.000000e+00
     vertex -6.854857e-02  4.124431e-02  1.000000e+00
     vertex -4.491064e-02  3.978736e-02  1.000000e+00
   endloop
 endfacet
 facet normal  0.000000e+00  0.000000e+00  1.000000e+00
   outer loop
     vertex  4.491064e-02 -3.978736e-02  1.000000e+00
     vertex  3.408388e-02 -4.937903e-02  1.000000e+00
     vertex  5.179090e-02 -6.097296e-02  1.000000e+00
   endloop
 endfacet
 facet normal  0.000000e+00  0.000000e+00  1.000000e+00
   outer loop
     vertex  6.368745e-02 -4.841394e-02  1.000000e+00
     vertex  4.491064e-02 -3.978736e-02  1.000000e+00
     vertex  5.179090e-02 -6.097296e-02  1.000000e+00
   endloop
 endfacet
 facet normal  0.000000e+00  0.000000e+00  1.000000e+00
   outer loop
     vertex -3.408388e-02  4.937903e-02  1.000000e+00
     vertex -5.807964e-02  5.501596e-02  1.000000e+00
     vertex -4.491064e-02  3.978736e-02  1.000000e+00
   endloop
 endfacet
 facet normal  0.000000e+00  0.000000e+00  1.000000e+00
   outer loop
     vertex -4.489497e-02  6.621512e-02  1.000000e+00
     vertex -5.807964e-02  5.501596e-02  1.000000e+00
     vertex -3.408388e-02  4.937903e-02  1.000000e+00
   endloop
 endfacet
 facet normal  0.000000e+00  0.000000e+00  1.000000e+00
   outer loop
     vertex  5.312736e-02 -2.788339e-02  1.000000e+00
     vertex  4.491064e-02 -3.978736e-02  1.000000e+00
     vertex  6.368745e-02 -4.841394e-02  1.000000e+00
   endloop
 endfacet
 facet normal  0.000000e+00  0.000000e+00  1.000000e+00
   outer loop
     vertex  7.260603e-02 -3.359113e-02  1.000000e+00
     vertex  5.312736e-02 -2.788339e-02  1.000000e+00
     vertex  6.368745e-02 -4.841394e-02  1.000000e+00
   endloop
 endfacet
 facet normal  0.000000e+00  0.000000e+00  1.000000e+00
   outer loop
     vertex  5.825651e-02 -1.435894e-02  1.000000e+00
     vertex  5.312736e-02 -2.788339e-02  1.000000e+00
     vertex  7.260603e-02 -3.359113e-02  1.000000e+00
   endloop
 endfacet
 facet normal  0.000000e+00  0.000000e+00  1.000000e+00
   outer loop
     vertex -2.961105e-02  7.431814e-02  1.000000e+00
     vertex -4.489497e-02  6.621512e-02  1.000000e+00
     vertex -3.408388e-02  4.937903e-02  1.000000e+00
   endloop
 endfacet
 facet normal  0.000000e+00  0.000000e+00  1.000000e+00
   outer loop
     vertex -2.961105e-02  7.431814e-02  1.000000e+00
     vertex -3.408388e-02  4.937903e-02  1.000000e+00
     vertex -2.127629e-02  5.610097e-02  1.000000e+00
   endloop
 endfacet
 facet normal  0.000000e+00  0.000000e+00  1.000000e+00
   outer loop
     vertex  7.812964e-02 -1.719764e-02  1.000000e+00
     vertex  5.825651e-02 -1.435894e-02  1.000000e+00
     vertex  7.260603e-02 -3.359113e-02  1.000000e+00
   endloop
 endfacet
 facet normal  0.000000e+00  0.000000e+00  1.000000e+00
   outer loop
     vertex  7.812964e-02 -1.719764e-02  1.000000e+00
     vertex  6.000000e-02  0.000000e+00  1.000000e+00
     vertex  5.825651e-02 -1.435894e-02  1.000000e+00
   endloop
 endfacet
 facet normal  0.000000e+00  0.000000e+00  1.000000e+00
   outer loop
     vertex -1.294256e-02  7.894612e-02  1.000000e+00
     vertex -2.961105e-02  7.431814e-02  1.000000e+00
     vertex -2.127629e-02  5.610097e-02  1.000000e+00
   endloop
 endfacet
 facet normal  0.000000e+00  0.000000e+00  1.000000e+00
   outer loop
     vertex -1.294256e-02  7.894612e-02  1.000000e+00
     vertex -2.127629e-02  5.610097e-02  1.000000e+00
     vertex -7.232201e-03  5.956253e-02  1.000000e+00
   endloop
 endfacet
 facet normal  0.000000e+00  0.000000e+00  1.000000e+00
   outer loop
     vertex  8.000000e-02  0.000000e+00  1.000000e+00
     vertex  6.000000e-02  0.000000e+00  1.000000e+00
     vertex  7.812964e-02 -1.719764e-02  1.000000e+00
   endloop
 endfacet
 facet normal  0.000000e+00  0.000000e+00  1.000000e+00
   outer loop
     vertex  4.331113e-03  7.988267e-02  1.000000e+00
     vertex -7.232201e-03  5.956253e-02  1.000000e+00
     vertex  7.232201e-03  5.956253e-02  1.000000e+00
   endloop
 endfacet
 facet normal  0.000000e+00  0.000000e+00  1.000000e+00
   outer loop
     vertex  4.331113e-03  7.988267e-02  1.000000e+00
     vertex -1.294256e-02  7.894612e-02  1.000000e+00
     vertex -7.232201e-03  5.956253e-02  1.000000e+00
   endloop
 endfacet
 facet normal  0.000000e+00  0.000000e+00  1.000000e+00
   outer loop
     vertex  7.812964e-02  1.719764e-02  1.000000e+00
     vertex  5.825651e-02  1.435894e-02  1.000000e+00
     vertex  6.000000e-02  0.000000e+00  1.000000e+00
   endloop
 endfacet
 facet normal  0.000000e+00  0.000000e+00  1.000000e+00
   outer loop
     vertex  7.812964e-02  1.719764e-02  1.000000e+00
     vertex  6.000000e-02  0.000000e+00  1.000000e+00
     vertex  8.000000e-02  0.000000e+00  1.000000e+00
   endloop
 endfacet
 facet normal  0.000000e+00  0.000000e+00  1.000000e+00
   outer loop
     vertex  2.140227e-02  7.708400e-02  1.000000e+00
     vertex  7.232201e-03  5.956253e-02  1.000000e+00
     vertex  2.127629e-02  5.610097e-02  1.000000e+00
   endloop
 endfacet
 facet normal  0.000000e+00  0.000000e+00  1.000000e+00
   outer loop
     vertex  2.140227e-02  7.708400e-02  1.000000e+00
     vertex  4.331113e-03  7.988267e-02  1.000000e+00
     vertex  7.232201e-03  5.956253e-02  1.000000e+00
   endloop
 endfacet
 facet normal  0.000000e+00  0.000000e+00  1.000000e+00
   outer loop
     vertex  7.260603e-02  3.359113e-02  1.000000e+00
     vertex  5.312736e-02  2.788339e-02  1.000000e+00
     vertex  5.825651e-02  1.435894e-02  1.000000e+00
   endloop
 endfacet
 facet normal  0.000000e+00  0.000000e+00  1.000000e+00
   outer loop
     vertex  7.260603e-02  3.359113e-02  1.000000e+00
     vertex  5.825651e-02  1.435894e-02  1.000000e+00
     vertex  7.812964e-02  1.719764e-02  1.000000e+00
   endloop
 endfacet
 facet normal  0.000000e+00  0.000000e+00  1.000000e+00
   outer loop
     vertex  3.747268e-02  7.068096e-02  1.000000e+00
     vertex  2.127629e-02  5.610097e-02  1.000000e+00
     vertex  3.408388e-02  4.937903e-02  1.000000e+00
   endloop
 endfacet
 facet normal  0.000000e+00  0.000000e+00  1.000000e+00
   outer loop
     vertex  3.747268e-02  7.068096e-02  1.000000e+00
     vertex  2.140227e-02  7.708400e-02  1.000000e+00
     vertex  2.127629e-02  5.610097e-02  1.000000e+00
   endloop
 endfacet
 facet normal  0.000000e+00  0.000000e+00  1.000000e+00
   outer loop
     vertex  6.368745e-02  4.841394e-02  1.000000e+00
     vertex  4.491064e-02  3.978736e-02  1.000000e+00
     vertex  5.312736e-02  2.788339e-02  1.000000e+00
   endloop
 endfacet
 facet normal  0.000000e+00  0.000000e+00  1.000000e+00
   outer loop
     vertex  6.368745e-02  4.841394e-02  1.000000e+00
     vertex  5.312736e-02  2.788339e-02  1.000000e+00
     vertex  7.260603e-02  3.359113e-02  1.000000e+00
   endloop
 endfacet
 facet normal  0.000000e+00  0.000000e+00  1.000000e+00
   outer loop
     vertex  5.179090e-02  6.097296e-02  1.000000e+00
     vertex  3.408388e-02  4.937903e-02  1.000000e+00
     vertex  4.491064e-02  3.978736e-02  1.000000e+00
   endloop
 endfacet
 facet normal  0.000000e+00  0.000000e+00  1.000000e+00
   outer loop
     vertex  5.179090e-02  6.097296e-02  1.000000e+00
     vertex  4.491064e-02  3.978736e-02  1.000000e+00
     vertex  6.368745e-02  4.841394e-02  1.000000e+00
   endloop
 endfacet
 facet normal  0.000000e+00  0.000000e+00  1.000000e+00
   outer loop
     vertex  5.179090e-02  6.097296e-02  1.000000e+00
     vertex  3.747268e-02  7.068096e-02  1.000000e+00
     vertex  3.408388e-02  4.937903e-02  1.000000e+00
   endloop
 endfacet
endsolid
