solid 
 facet normal  0.000000e+00  1.000000e+00  0.000000e+00
   outer loop
     vertex  6.550000e-01  9.800000e-01  0.000000e+00
     vertex -6.550000e-01  9.800000e-01  0.000000e+00
     vertex -6.550000e-01  9.800000e-01  3.250000e-01
   endloop
 endfacet
 facet normal  0.000000e+00  1.000000e+00 -0.000000e+00
   outer loop
     vertex  6.550000e-01  9.800000e-01  0.000000e+00
     vertex -6.550000e-01  9.800000e-01  3.250000e-01
     vertex  6.550000e-01  9.800000e-01  3.250000e-01
   endloop
 endfacet
 facet normal  1.000000e+00  0.000000e+00  0.000000e+00
   outer loop
     vertex  6.550000e-01 -9.800000e-01  0.000000e+00
     vertex  6.550000e-01  9.800000e-01  0.000000e+00
     vertex  6.550000e-01  9.800000e-01  3.250000e-01
   endloop
 endfacet
 facet normal  1.000000e+00  0.000000e+00  0.000000e+00
   outer loop
     vertex  6.550000e-01 -9.800000e-01  0.000000e+00
     vertex  6.550000e-01  9.800000e-01  3.250000e-01
     vertex  6.550000e-01 -9.800000e-01  3.250000e-01
   endloop
 endfacet
 facet normal  0.000000e+00 -1.000000e+00  0.000000e+00
   outer loop
     vertex  6.550000e-01 -9.800000e-01  0.000000e+00
     vertex -6.550000e-01 -9.800000e-01  3.250000e-01
     vertex -6.550000e-01 -9.800000e-01  0.000000e+00
   endloop
 endfacet
 facet normal  0.000000e+00 -1.000000e+00  0.000000e+00
   outer loop
     vertex  6.550000e-01 -9.800000e-01  0.000000e+00
     vertex  6.550000e-01 -9.800000e-01  3.250000e-01
     vertex -6.550000e-01 -9.800000e-01  3.250000e-01
   endloop
 endfacet
 facet normal -1.000000e+00  0.000000e+00  0.000000e+00
   outer loop
     vertex -6.550000e-01 -9.800000e-01  0.000000e+00
     vertex -6.550000e-01  9.800000e-01  3.250000e-01
     vertex -6.550000e-01  9.800000e-01  0.000000e+00
   endloop
 endfacet
 facet normal -1.000000e+00  0.000000e+00  0.000000e+00
   outer loop
     vertex -6.550000e-01 -9.800000e-01  0.000000e+00
     vertex -6.550000e-01 -9.800000e-01  3.250000e-01
     vertex -6.550000e-01  9.800000e-01  3.250000e-01
   endloop
 endfacet
 facet normal -0.000000e+00  0.000000e+00 -1.000000e+00
   outer loop
     vertex  6.550000e-01  9.800000e-01  0.000000e+00
     vertex -6.550000e-01 -9.800000e-01  0.000000e+00
     vertex -6.550000e-01  9.800000e-01  0.000000e+00
   endloop
 endfacet
 facet normal  0.000000e+00 -0.000000e+00 -1.000000e+00
   outer loop
     vertex  6.550000e-01  9.800000e-01  0.000000e+00
     vertex  6.550000e-01 -9.800000e-01  0.000000e+00
     vertex -6.550000e-01 -9.800000e-01  0.000000e+00
   endloop
 endfacet
 facet normal  0.000000e+00  0.000000e+00  1.000000e+00
   outer loop
     vertex  6.550000e-01  9.800000e-01  3.250000e-01
     vertex -6.550000e-01  9.800000e-01  3.250000e-01
     vertex -6.550000e-01 -9.800000e-01  3.250000e-01
   endloop
 endfacet
 facet normal  0.000000e+00  0.000000e+00  1.000000e+00
   outer loop
     vertex  6.550000e-01  9.800000e-01  3.250000e-01
     vertex -6.550000e-01 -9.800000e-01  3.250000e-01
     vertex  6.550000e-01 -9.800000e-01  3.250000e-01
   endloop
 endfacet
endsolid
