solid 
 facet normal  0.000000e+00  1.000000e+00  0.000000e+00
   outer loop
     vertex  3.399000e+01  6.005000e+01  2.400000e+01
     vertex  3.399000e+01  6.005000e+01  2.388000e+01
     vertex  3.393500e+01  6.005000e+01  2.388000e+01
   endloop
 endfacet
 facet normal -0.000000e+00  1.000000e+00  0.000000e+00
   outer loop
     vertex  3.393500e+01  6.005000e+01  2.400000e+01
     vertex  3.399000e+01  6.005000e+01  2.400000e+01
     vertex  3.393500e+01  6.005000e+01  2.388000e+01
   endloop
 endfacet
 facet normal -1.000000e+00  0.000000e+00 -0.000000e+00
   outer loop
     vertex  3.393500e+01  6.005000e+01  2.400000e+01
     vertex  3.393500e+01  6.005000e+01  2.388000e+01
     vertex  3.393500e+01  5.995000e+01  2.388000e+01
   endloop
 endfacet
 facet normal -1.000000e+00  0.000000e+00  0.000000e+00
   outer loop
     vertex  3.393500e+01  5.995000e+01  2.400000e+01
     vertex  3.393500e+01  6.005000e+01  2.400000e+01
     vertex  3.393500e+01  5.995000e+01  2.388000e+01
   endloop
 endfacet
 facet normal  0.000000e+00 -1.000000e+00 -0.000000e+00
   outer loop
     vertex  3.399000e+01  5.995000e+01  2.400000e+01
     vertex  3.393500e+01  5.995000e+01  2.388000e+01
     vertex  3.399000e+01  5.995000e+01  2.388000e+01
   endloop
 endfacet
 facet normal  0.000000e+00 -1.000000e+00  0.000000e+00
   outer loop
     vertex  3.393500e+01  5.995000e+01  2.400000e+01
     vertex  3.393500e+01  5.995000e+01  2.388000e+01
     vertex  3.399000e+01  5.995000e+01  2.400000e+01
   endloop
 endfacet
 facet normal  1.000000e+00  0.000000e+00  0.000000e+00
   outer loop
     vertex  3.399000e+01  6.005000e+01  2.400000e+01
     vertex  3.399000e+01  5.995000e+01  2.388000e+01
     vertex  3.399000e+01  6.005000e+01  2.388000e+01
   endloop
 endfacet
 facet normal  1.000000e+00 -0.000000e+00  0.000000e+00
   outer loop
     vertex  3.399000e+01  5.995000e+01  2.400000e+01
     vertex  3.399000e+01  5.995000e+01  2.388000e+01
     vertex  3.399000e+01  6.005000e+01  2.400000e+01
   endloop
 endfacet
 facet normal  0.000000e+00  0.000000e+00  1.000000e+00
   outer loop
     vertex  3.399000e+01  6.005000e+01  2.400000e+01
     vertex  3.393500e+01  6.005000e+01  2.400000e+01
     vertex  3.393500e+01  5.995000e+01  2.400000e+01
   endloop
 endfacet
 facet normal  0.000000e+00  0.000000e+00  1.000000e+00
   outer loop
     vertex  3.399000e+01  6.005000e+01  2.400000e+01
     vertex  3.393500e+01  5.995000e+01  2.400000e+01
     vertex  3.399000e+01  5.995000e+01  2.400000e+01
   endloop
 endfacet
 facet normal -0.000000e+00  0.000000e+00 -1.000000e+00
   outer loop
     vertex  3.399000e+01  6.005000e+01  2.388000e+01
     vertex  3.393500e+01  5.995000e+01  2.388000e+01
     vertex  3.393500e+01  6.005000e+01  2.388000e+01
   endloop
 endfacet
 facet normal  0.000000e+00 -0.000000e+00 -1.000000e+00
   outer loop
     vertex  3.399000e+01  6.005000e+01  2.388000e+01
     vertex  3.399000e+01  5.995000e+01  2.388000e+01
     vertex  3.393500e+01  5.995000e+01  2.388000e+01
   endloop
 endfacet
 facet normal  0.000000e+00  1.000000e+00  0.000000e+00
   outer loop
     vertex -1.000000e-02  6.005000e+01  2.400000e+01
     vertex  3.000000e-02  6.005000e+01  2.388000e+01
     vertex -1.000000e-02  6.005000e+01  2.388000e+01
   endloop
 endfacet
 facet normal  0.000000e+00  1.000000e+00  0.000000e+00
   outer loop
     vertex  3.000000e-02  6.005000e+01  2.400000e+01
     vertex  3.000000e-02  6.005000e+01  2.388000e+01
     vertex -1.000000e-02  6.005000e+01  2.400000e+01
   endloop
 endfacet
 facet normal  0.000000e+00  0.000000e+00  1.000000e+00
   outer loop
     vertex  3.000000e-02  6.005000e+01  2.400000e+01
     vertex -1.000000e-02  6.005000e+01  2.400000e+01
     vertex -1.000000e-02  5.995000e+01  2.400000e+01
   endloop
 endfacet
 facet normal  0.000000e+00  0.000000e+00  1.000000e+00
   outer loop
     vertex  3.000000e-02  6.005000e+01  2.400000e+01
     vertex -1.000000e-02  5.995000e+01  2.400000e+01
     vertex  3.000000e-02  5.995000e+01  2.400000e+01
   endloop
 endfacet
 facet normal  0.000000e+00  1.000000e+00  0.000000e+00
   outer loop
     vertex  3.000000e-02  6.005000e+01  2.400000e+01
     vertex  6.500000e-02  6.005000e+01  2.388000e+01
     vertex  3.000000e-02  6.005000e+01  2.388000e+01
   endloop
 endfacet
 facet normal  0.000000e+00  1.000000e+00  0.000000e+00
   outer loop
     vertex  6.500000e-02  6.005000e+01  2.400000e+01
     vertex  6.500000e-02  6.005000e+01  2.388000e+01
     vertex  3.000000e-02  6.005000e+01  2.400000e+01
   endloop
 endfacet
 facet normal -0.000000e+00  0.000000e+00 -1.000000e+00
   outer loop
     vertex  3.000000e-02  6.005000e+01  2.388000e+01
     vertex -1.000000e-02  5.995000e+01  2.388000e+01
     vertex -1.000000e-02  6.005000e+01  2.388000e+01
   endloop
 endfacet
 facet normal  0.000000e+00 -0.000000e+00 -1.000000e+00
   outer loop
     vertex  3.000000e-02  6.005000e+01  2.388000e+01
     vertex  3.000000e-02  5.995000e+01  2.388000e+01
     vertex -1.000000e-02  5.995000e+01  2.388000e+01
   endloop
 endfacet
 facet normal  0.000000e+00  1.000000e+00  0.000000e+00
   outer loop
     vertex -6.500000e-02  6.005000e+01  2.400000e+01
     vertex -1.000000e-02  6.005000e+01  2.388000e+01
     vertex -6.500000e-02  6.005000e+01  2.388000e+01
   endloop
 endfacet
 facet normal  0.000000e+00  1.000000e+00  0.000000e+00
   outer loop
     vertex -1.000000e-02  6.005000e+01  2.400000e+01
     vertex -1.000000e-02  6.005000e+01  2.388000e+01
     vertex -6.500000e-02  6.005000e+01  2.400000e+01
   endloop
 endfacet
 facet normal  0.000000e+00  0.000000e+00  1.000000e+00
   outer loop
     vertex  6.500000e-02  6.005000e+01  2.400000e+01
     vertex  3.000000e-02  6.005000e+01  2.400000e+01
     vertex  3.000000e-02  5.995000e+01  2.400000e+01
   endloop
 endfacet
 facet normal  0.000000e+00  0.000000e+00  1.000000e+00
   outer loop
     vertex  6.500000e-02  6.005000e+01  2.400000e+01
     vertex  3.000000e-02  5.995000e+01  2.400000e+01
     vertex  6.500000e-02  5.995000e+01  2.400000e+01
   endloop
 endfacet
 facet normal  0.000000e+00 -1.000000e+00  0.000000e+00
   outer loop
     vertex -1.000000e-02  5.995000e+01  2.400000e+01
     vertex -1.000000e-02  5.995000e+01  2.388000e+01
     vertex  3.000000e-02  5.995000e+01  2.388000e+01
   endloop
 endfacet
 facet normal -0.000000e+00 -1.000000e+00 -0.000000e+00
   outer loop
     vertex  3.000000e-02  5.995000e+01  2.400000e+01
     vertex -1.000000e-02  5.995000e+01  2.400000e+01
     vertex  3.000000e-02  5.995000e+01  2.388000e+01
   endloop
 endfacet
 facet normal  0.000000e+00  0.000000e+00  1.000000e+00
   outer loop
     vertex -1.000000e-02  6.005000e+01  2.400000e+01
     vertex -6.500000e-02  6.005000e+01  2.400000e+01
     vertex -6.500000e-02  5.995000e+01  2.400000e+01
   endloop
 endfacet
 facet normal  0.000000e+00  0.000000e+00  1.000000e+00
   outer loop
     vertex -1.000000e-02  6.005000e+01  2.400000e+01
     vertex -6.500000e-02  5.995000e+01  2.400000e+01
     vertex -1.000000e-02  5.995000e+01  2.400000e+01
   endloop
 endfacet
 facet normal  1.000000e+00  0.000000e+00  0.000000e+00
   outer loop
     vertex  6.500000e-02  6.005000e+01  2.400000e+01
     vertex  6.500000e-02  5.995000e+01  2.388000e+01
     vertex  6.500000e-02  6.005000e+01  2.388000e+01
   endloop
 endfacet
 facet normal  1.000000e+00 -0.000000e+00  0.000000e+00
   outer loop
     vertex  6.500000e-02  5.995000e+01  2.400000e+01
     vertex  6.500000e-02  5.995000e+01  2.388000e+01
     vertex  6.500000e-02  6.005000e+01  2.400000e+01
   endloop
 endfacet
 facet normal -0.000000e+00  0.000000e+00 -1.000000e+00
   outer loop
     vertex  6.500000e-02  6.005000e+01  2.388000e+01
     vertex  3.000000e-02  5.995000e+01  2.388000e+01
     vertex  3.000000e-02  6.005000e+01  2.388000e+01
   endloop
 endfacet
 facet normal  0.000000e+00 -0.000000e+00 -1.000000e+00
   outer loop
     vertex  6.500000e-02  6.005000e+01  2.388000e+01
     vertex  6.500000e-02  5.995000e+01  2.388000e+01
     vertex  3.000000e-02  5.995000e+01  2.388000e+01
   endloop
 endfacet
 facet normal -0.000000e+00  0.000000e+00 -1.000000e+00
   outer loop
     vertex -1.000000e-02  6.005000e+01  2.388000e+01
     vertex -6.500000e-02  5.995000e+01  2.388000e+01
     vertex -6.500000e-02  6.005000e+01  2.388000e+01
   endloop
 endfacet
 facet normal  0.000000e+00 -0.000000e+00 -1.000000e+00
   outer loop
     vertex -1.000000e-02  6.005000e+01  2.388000e+01
     vertex -1.000000e-02  5.995000e+01  2.388000e+01
     vertex -6.500000e-02  5.995000e+01  2.388000e+01
   endloop
 endfacet
 facet normal -1.000000e+00  0.000000e+00  0.000000e+00
   outer loop
     vertex -6.500000e-02  5.995000e+01  2.400000e+01
     vertex -6.500000e-02  6.005000e+01  2.388000e+01
     vertex -6.500000e-02  5.995000e+01  2.388000e+01
   endloop
 endfacet
 facet normal -1.000000e+00 -0.000000e+00 -0.000000e+00
   outer loop
     vertex -6.500000e-02  6.005000e+01  2.400000e+01
     vertex -6.500000e-02  6.005000e+01  2.388000e+01
     vertex -6.500000e-02  5.995000e+01  2.400000e+01
   endloop
 endfacet
 facet normal  0.000000e+00 -1.000000e+00  0.000000e+00
   outer loop
     vertex  3.000000e-02  5.995000e+01  2.400000e+01
     vertex  3.000000e-02  5.995000e+01  2.388000e+01
     vertex  6.500000e-02  5.995000e+01  2.388000e+01
   endloop
 endfacet
 facet normal -0.000000e+00 -1.000000e+00 -0.000000e+00
   outer loop
     vertex  6.500000e-02  5.995000e+01  2.400000e+01
     vertex  3.000000e-02  5.995000e+01  2.400000e+01
     vertex  6.500000e-02  5.995000e+01  2.388000e+01
   endloop
 endfacet
 facet normal  0.000000e+00 -1.000000e+00  0.000000e+00
   outer loop
     vertex -6.500000e-02  5.995000e+01  2.400000e+01
     vertex -6.500000e-02  5.995000e+01  2.388000e+01
     vertex -1.000000e-02  5.995000e+01  2.388000e+01
   endloop
 endfacet
 facet normal -0.000000e+00 -1.000000e+00 -0.000000e+00
   outer loop
     vertex -1.000000e-02  5.995000e+01  2.400000e+01
     vertex -6.500000e-02  5.995000e+01  2.400000e+01
     vertex -1.000000e-02  5.995000e+01  2.388000e+01
   endloop
 endfacet
 facet normal  0.000000e+00 -1.000000e+00  0.000000e+00
   outer loop
     vertex  3.000000e-01  0.000000e+00  0.000000e+00
     vertex  0.000000e+00  0.000000e+00  2.400000e-01
     vertex  0.000000e+00  0.000000e+00  0.000000e+00
   endloop
 endfacet
 facet normal  0.000000e+00 -1.000000e+00  0.000000e+00
   outer loop
     vertex  3.000000e-01  0.000000e+00  0.000000e+00
     vertex  3.000000e-01  0.000000e+00  2.400000e-01
     vertex  0.000000e+00  0.000000e+00  2.400000e-01
   endloop
 endfacet
 facet normal  1.000000e+00  0.000000e+00  0.000000e+00
   outer loop
     vertex  3.000000e-01  6.000000e-01  0.000000e+00
     vertex  3.000000e-01  0.000000e+00  2.400000e-01
     vertex  3.000000e-01  0.000000e+00  0.000000e+00
   endloop
 endfacet
 facet normal  1.000000e+00  0.000000e+00 -0.000000e+00
   outer loop
     vertex  3.000000e-01  6.000000e-01  0.000000e+00
     vertex  3.000000e-01  6.000000e-01  2.400000e-01
     vertex  3.000000e-01  0.000000e+00  2.400000e-01
   endloop
 endfacet
 facet normal  0.000000e+00  1.000000e+00  0.000000e+00
   outer loop
     vertex  3.000000e-01  6.000000e-01  0.000000e+00
     vertex  0.000000e+00  6.000000e-01  0.000000e+00
     vertex  0.000000e+00  6.000000e-01  2.400000e-01
   endloop
 endfacet
 facet normal  0.000000e+00  1.000000e+00 -0.000000e+00
   outer loop
     vertex  3.000000e-01  6.000000e-01  0.000000e+00
     vertex  0.000000e+00  6.000000e-01  2.400000e-01
     vertex  3.000000e-01  6.000000e-01  2.400000e-01
   endloop
 endfacet
 facet normal -1.000000e+00  0.000000e+00  0.000000e+00
   outer loop
     vertex  0.000000e+00  6.000000e-01  0.000000e+00
     vertex  0.000000e+00  0.000000e+00  0.000000e+00
     vertex  0.000000e+00  0.000000e+00  2.400000e-01
   endloop
 endfacet
 facet normal -1.000000e+00  0.000000e+00  0.000000e+00
   outer loop
     vertex  0.000000e+00  6.000000e-01  0.000000e+00
     vertex  0.000000e+00  0.000000e+00  2.400000e-01
     vertex  0.000000e+00  6.000000e-01  2.400000e-01
   endloop
 endfacet
 facet normal  0.000000e+00 -0.000000e+00 -1.000000e+00
   outer loop
     vertex  3.000000e-01  6.000000e-01  0.000000e+00
     vertex  3.000000e-01  0.000000e+00  0.000000e+00
     vertex  0.000000e+00  0.000000e+00  0.000000e+00
   endloop
 endfacet
 facet normal -0.000000e+00  0.000000e+00 -1.000000e+00
   outer loop
     vertex  3.000000e-01  6.000000e-01  0.000000e+00
     vertex  0.000000e+00  0.000000e+00  0.000000e+00
     vertex  0.000000e+00  6.000000e-01  0.000000e+00
   endloop
 endfacet
 facet normal  0.000000e+00  0.000000e+00  1.000000e+00
   outer loop
     vertex  3.000000e-01  6.000000e-01  2.400000e-01
     vertex  0.000000e+00  0.000000e+00  2.400000e-01
     vertex  3.000000e-01  0.000000e+00  2.400000e-01
   endloop
 endfacet
 facet normal  0.000000e+00  0.000000e+00  1.000000e+00
   outer loop
     vertex  3.000000e-01  6.000000e-01  2.400000e-01
     vertex  0.000000e+00  6.000000e-01  2.400000e-01
     vertex  0.000000e+00  0.000000e+00  2.400000e-01
   endloop
 endfacet
 facet normal  0.000000e+00  1.000000e+00  0.000000e+00
   outer loop
     vertex  3.403500e+01  6.004500e+01  4.800000e+01
     vertex  3.396500e+01  6.004500e+01  4.788000e+01
     vertex  3.396500e+01  6.004500e+01  4.800000e+01
   endloop
 endfacet
 facet normal  0.000000e+00  1.000000e+00  0.000000e+00
   outer loop
     vertex  3.403500e+01  6.004500e+01  4.800000e+01
     vertex  3.403500e+01  6.004500e+01  4.788000e+01
     vertex  3.396500e+01  6.004500e+01  4.788000e+01
   endloop
 endfacet
 facet normal  1.000000e+00 -0.000000e+00  0.000000e+00
   outer loop
     vertex  3.403500e+01  5.995500e+01  4.800000e+01
     vertex  3.403500e+01  6.004500e+01  4.788000e+01
     vertex  3.403500e+01  6.004500e+01  4.800000e+01
   endloop
 endfacet
 facet normal  1.000000e+00  0.000000e+00  0.000000e+00
   outer loop
     vertex  3.403500e+01  5.995500e+01  4.800000e+01
     vertex  3.403500e+01  5.995500e+01  4.788000e+01
     vertex  3.403500e+01  6.004500e+01  4.788000e+01
   endloop
 endfacet
 facet normal -0.000000e+00 -1.000000e+00  0.000000e+00
   outer loop
     vertex  3.403500e+01  5.995500e+01  4.800000e+01
     vertex  3.396500e+01  5.995500e+01  4.800000e+01
     vertex  3.396500e+01  5.995500e+01  4.788000e+01
   endloop
 endfacet
 facet normal  0.000000e+00 -1.000000e+00 -0.000000e+00
   outer loop
     vertex  3.403500e+01  5.995500e+01  4.800000e+01
     vertex  3.396500e+01  5.995500e+01  4.788000e+01
     vertex  3.403500e+01  5.995500e+01  4.788000e+01
   endloop
 endfacet
 facet normal -1.000000e+00  0.000000e+00  0.000000e+00
   outer loop
     vertex  3.396500e+01  5.995500e+01  4.800000e+01
     vertex  3.396500e+01  6.004500e+01  4.800000e+01
     vertex  3.396500e+01  6.004500e+01  4.788000e+01
   endloop
 endfacet
 facet normal -1.000000e+00  0.000000e+00  0.000000e+00
   outer loop
     vertex  3.396500e+01  5.995500e+01  4.800000e+01
     vertex  3.396500e+01  6.004500e+01  4.788000e+01
     vertex  3.396500e+01  5.995500e+01  4.788000e+01
   endloop
 endfacet
 facet normal  0.000000e+00  0.000000e+00  1.000000e+00
   outer loop
     vertex  3.403500e+01  6.004500e+01  4.800000e+01
     vertex  3.396500e+01  6.004500e+01  4.800000e+01
     vertex  3.396500e+01  5.995500e+01  4.800000e+01
   endloop
 endfacet
 facet normal  0.000000e+00  0.000000e+00  1.000000e+00
   outer loop
     vertex  3.403500e+01  6.004500e+01  4.800000e+01
     vertex  3.396500e+01  5.995500e+01  4.800000e+01
     vertex  3.403500e+01  5.995500e+01  4.800000e+01
   endloop
 endfacet
 facet normal -0.000000e+00  0.000000e+00 -1.000000e+00
   outer loop
     vertex  3.403500e+01  6.004500e+01  4.788000e+01
     vertex  3.396500e+01  5.995500e+01  4.788000e+01
     vertex  3.396500e+01  6.004500e+01  4.788000e+01
   endloop
 endfacet
 facet normal  0.000000e+00 -0.000000e+00 -1.000000e+00
   outer loop
     vertex  3.403500e+01  6.004500e+01  4.788000e+01
     vertex  3.403500e+01  5.995500e+01  4.788000e+01
     vertex  3.396500e+01  5.995500e+01  4.788000e+01
   endloop
 endfacet
endsolid
