solid 
 facet normal -1.000000e+00  0.000000e+00  0.000000e+00
   outer loop
     vertex  0.000000e+00  3.350000e-01  0.000000e+00
     vertex  0.000000e+00  0.000000e+00  0.000000e+00
     vertex  0.000000e+00  0.000000e+00  1.000000e+00
   endloop
 endfacet
 facet normal -1.000000e+00  0.000000e+00  0.000000e+00
   outer loop
     vertex  0.000000e+00  3.350000e-01  0.000000e+00
     vertex  0.000000e+00  0.000000e+00  1.000000e+00
     vertex  0.000000e+00  3.350000e-01  1.000000e+00
   endloop
 endfacet
 facet normal  0.000000e+00  1.000000e+00  0.000000e+00
   outer loop
     vertex  6.000000e-02  3.350000e-01  0.000000e+00
     vertex  0.000000e+00  3.350000e-01  0.000000e+00
     vertex  0.000000e+00  3.350000e-01  1.000000e+00
   endloop
 endfacet
 facet normal  0.000000e+00  1.000000e+00 -0.000000e+00
   outer loop
     vertex  6.000000e-02  3.350000e-01  0.000000e+00
     vertex  0.000000e+00  3.350000e-01  1.000000e+00
     vertex  6.000000e-02  3.350000e-01  1.000000e+00
   endloop
 endfacet
 facet normal  0.000000e+00  1.000000e+00  0.000000e+00
   outer loop
     vertex  1.650000e-01  3.350000e-01  0.000000e+00
     vertex  6.000000e-02  3.350000e-01  0.000000e+00
     vertex  6.000000e-02  3.350000e-01  1.000000e+00
   endloop
 endfacet
 facet normal  0.000000e+00  1.000000e+00 -0.000000e+00
   outer loop
     vertex  1.650000e-01  3.350000e-01  0.000000e+00
     vertex  6.000000e-02  3.350000e-01  1.000000e+00
     vertex  1.650000e-01  3.350000e-01  1.000000e+00
   endloop
 endfacet
 facet normal  0.000000e+00  1.000000e+00  0.000000e+00
   outer loop
     vertex  1.650000e-01  3.350000e-01  0.000000e+00
     vertex  4.900000e-01  3.350000e-01  1.000000e+00
     vertex  4.900000e-01  3.350000e-01  0.000000e+00
   endloop
 endfacet
 facet normal  0.000000e+00  1.000000e+00  0.000000e+00
   outer loop
     vertex  1.650000e-01  3.350000e-01  0.000000e+00
     vertex  1.650000e-01  3.350000e-01  1.000000e+00
     vertex  4.900000e-01  3.350000e-01  1.000000e+00
   endloop
 endfacet
 facet normal  9.960142e-01 -8.919530e-02  0.000000e+00
   outer loop
     vertex  4.900000e-01  3.350000e-01  0.000000e+00
     vertex  4.600000e-01  0.000000e+00  1.000000e+00
     vertex  4.600000e-01  0.000000e+00  0.000000e+00
   endloop
 endfacet
 facet normal  9.960142e-01 -8.919530e-02  0.000000e+00
   outer loop
     vertex  4.900000e-01  3.350000e-01  0.000000e+00
     vertex  4.900000e-01  3.350000e-01  1.000000e+00
     vertex  4.600000e-01  0.000000e+00  1.000000e+00
   endloop
 endfacet
 facet normal  0.000000e+00 -1.000000e+00  0.000000e+00
   outer loop
     vertex  4.600000e-01  0.000000e+00  0.000000e+00
     vertex  0.000000e+00  0.000000e+00  1.000000e+00
     vertex  0.000000e+00  0.000000e+00  0.000000e+00
   endloop
 endfacet
 facet normal  0.000000e+00 -1.000000e+00  0.000000e+00
   outer loop
     vertex  4.600000e-01  0.000000e+00  0.000000e+00
     vertex  4.600000e-01  0.000000e+00  1.000000e+00
     vertex  0.000000e+00  0.000000e+00  1.000000e+00
   endloop
 endfacet
 facet normal -0.000000e+00  0.000000e+00 -1.000000e+00
   outer loop
     vertex  6.000000e-02  3.350000e-01  0.000000e+00
     vertex  0.000000e+00  0.000000e+00  0.000000e+00
     vertex  0.000000e+00  3.350000e-01  0.000000e+00
   endloop
 endfacet
 facet normal  0.000000e+00 -0.000000e+00 -1.000000e+00
   outer loop
     vertex  1.650000e-01  3.350000e-01  0.000000e+00
     vertex  4.600000e-01  0.000000e+00  0.000000e+00
     vertex  0.000000e+00  0.000000e+00  0.000000e+00
   endloop
 endfacet
 facet normal -0.000000e+00  0.000000e+00 -1.000000e+00
   outer loop
     vertex  1.650000e-01  3.350000e-01  0.000000e+00
     vertex  0.000000e+00  0.000000e+00  0.000000e+00
     vertex  6.000000e-02  3.350000e-01  0.000000e+00
   endloop
 endfacet
 facet normal -0.000000e+00  0.000000e+00 -1.000000e+00
   outer loop
     vertex  4.900000e-01  3.350000e-01  0.000000e+00
     vertex  4.600000e-01  0.000000e+00  0.000000e+00
     vertex  1.650000e-01  3.350000e-01  0.000000e+00
   endloop
 endfacet
 facet normal  0.000000e+00  0.000000e+00  1.000000e+00
   outer loop
     vertex  6.000000e-02  3.350000e-01  1.000000e+00
     vertex  0.000000e+00  3.350000e-01  1.000000e+00
     vertex  0.000000e+00  0.000000e+00  1.000000e+00
   endloop
 endfacet
 facet normal  0.000000e+00  0.000000e+00  1.000000e+00
   outer loop
     vertex  1.650000e-01  3.350000e-01  1.000000e+00
     vertex  0.000000e+00  0.000000e+00  1.000000e+00
     vertex  4.600000e-01  0.000000e+00  1.000000e+00
   endloop
 endfacet
 facet normal  0.000000e+00  0.000000e+00  1.000000e+00
   outer loop
     vertex  1.650000e-01  3.350000e-01  1.000000e+00
     vertex  6.000000e-02  3.350000e-01  1.000000e+00
     vertex  0.000000e+00  0.000000e+00  1.000000e+00
   endloop
 endfacet
 facet normal  0.000000e+00  0.000000e+00  1.000000e+00
   outer loop
     vertex  4.900000e-01  3.350000e-01  1.000000e+00
     vertex  1.650000e-01  3.350000e-01  1.000000e+00
     vertex  4.600000e-01  0.000000e+00  1.000000e+00
   endloop
 endfacet
endsolid
