solid 
 facet normal  9.927089e-01  0.000000e+00  1.205367e-01
   outer loop
     vertex  1.941884e-02  0.000000e+00  4.786313e-03
     vertex  2.000000e-02  0.000000e+00  0.000000e+00
     vertex  2.000000e-02  1.000000e+00  0.000000e+00
   endloop
 endfacet
 facet normal  9.927089e-01 -0.000000e+00  1.205367e-01
   outer loop
     vertex  1.941884e-02  0.000000e+00  4.786313e-03
     vertex  2.000000e-02  1.000000e+00  0.000000e+00
     vertex  1.941884e-02  1.000000e+00  4.786313e-03
   endloop
 endfacet
 facet normal  9.350162e-01 -0.000000e+00  3.546049e-01
   outer loop
     vertex  1.770912e-02  0.000000e+00  9.294463e-03
     vertex  1.941884e-02  1.000000e+00  4.786313e-03
     vertex  1.770912e-02  1.000000e+00  9.294463e-03
   endloop
 endfacet
 facet normal  9.350162e-01  0.000000e+00  3.546049e-01
   outer loop
     vertex  1.770912e-02  0.000000e+00  9.294463e-03
     vertex  1.941884e-02  0.000000e+00  4.786313e-03
     vertex  1.941884e-02  1.000000e+00  4.786313e-03
   endloop
 endfacet
 facet normal  8.229839e-01 -0.000000e+00  5.680647e-01
   outer loop
     vertex  1.497021e-02  0.000000e+00  1.326245e-02
     vertex  1.770912e-02  1.000000e+00  9.294463e-03
     vertex  1.497021e-02  1.000000e+00  1.326245e-02
   endloop
 endfacet
 facet normal  8.229839e-01  0.000000e+00  5.680647e-01
   outer loop
     vertex  1.497021e-02  0.000000e+00  1.326245e-02
     vertex  1.770912e-02  0.000000e+00  9.294463e-03
     vertex  1.770912e-02  1.000000e+00  9.294463e-03
   endloop
 endfacet
 facet normal  6.631227e-01 -0.000000e+00  7.485107e-01
   outer loop
     vertex  1.136129e-02  0.000000e+00  1.645968e-02
     vertex  1.497021e-02  1.000000e+00  1.326245e-02
     vertex  1.136129e-02  1.000000e+00  1.645968e-02
   endloop
 endfacet
 facet normal  6.631227e-01  0.000000e+00  7.485107e-01
   outer loop
     vertex  1.136129e-02  0.000000e+00  1.645968e-02
     vertex  1.497021e-02  0.000000e+00  1.326245e-02
     vertex  1.497021e-02  1.000000e+00  1.326245e-02
   endloop
 endfacet
 facet normal  4.647232e-01 -0.000000e+00  8.854560e-01
   outer loop
     vertex  7.092098e-03  0.000000e+00  1.870032e-02
     vertex  1.136129e-02  1.000000e+00  1.645968e-02
     vertex  7.092098e-03  1.000000e+00  1.870032e-02
   endloop
 endfacet
 facet normal  4.647232e-01  0.000000e+00  8.854560e-01
   outer loop
     vertex  7.092098e-03  0.000000e+00  1.870032e-02
     vertex  1.136129e-02  0.000000e+00  1.645968e-02
     vertex  1.136129e-02  1.000000e+00  1.645968e-02
   endloop
 endfacet
 facet normal  2.393157e-01 -0.000000e+00  9.709418e-01
   outer loop
     vertex  2.410734e-03  0.000000e+00  1.985418e-02
     vertex  7.092098e-03  1.000000e+00  1.870032e-02
     vertex  2.410734e-03  1.000000e+00  1.985418e-02
   endloop
 endfacet
 facet normal  2.393157e-01  0.000000e+00  9.709418e-01
   outer loop
     vertex  2.410734e-03  0.000000e+00  1.985418e-02
     vertex  7.092098e-03  0.000000e+00  1.870032e-02
     vertex  7.092098e-03  1.000000e+00  1.870032e-02
   endloop
 endfacet
 facet normal  0.000000e+00  0.000000e+00  1.000000e+00
   outer loop
     vertex -2.410734e-03  0.000000e+00  1.985418e-02
     vertex  2.410734e-03  1.000000e+00  1.985418e-02
     vertex -2.410734e-03  1.000000e+00  1.985418e-02
   endloop
 endfacet
 facet normal  0.000000e+00  0.000000e+00  1.000000e+00
   outer loop
     vertex -2.410734e-03  0.000000e+00  1.985418e-02
     vertex  2.410734e-03  0.000000e+00  1.985418e-02
     vertex  2.410734e-03  1.000000e+00  1.985418e-02
   endloop
 endfacet
 facet normal -2.393157e-01  0.000000e+00  9.709418e-01
   outer loop
     vertex -7.092098e-03  0.000000e+00  1.870032e-02
     vertex -2.410734e-03  1.000000e+00  1.985418e-02
     vertex -7.092098e-03  1.000000e+00  1.870032e-02
   endloop
 endfacet
 facet normal -2.393157e-01  0.000000e+00  9.709418e-01
   outer loop
     vertex -7.092098e-03  0.000000e+00  1.870032e-02
     vertex -2.410734e-03  0.000000e+00  1.985418e-02
     vertex -2.410734e-03  1.000000e+00  1.985418e-02
   endloop
 endfacet
 facet normal -4.647232e-01  0.000000e+00  8.854560e-01
   outer loop
     vertex -1.136129e-02  0.000000e+00  1.645968e-02
     vertex -7.092098e-03  1.000000e+00  1.870032e-02
     vertex -1.136129e-02  1.000000e+00  1.645968e-02
   endloop
 endfacet
 facet normal -4.647232e-01  0.000000e+00  8.854560e-01
   outer loop
     vertex -1.136129e-02  0.000000e+00  1.645968e-02
     vertex -7.092098e-03  0.000000e+00  1.870032e-02
     vertex -7.092098e-03  1.000000e+00  1.870032e-02
   endloop
 endfacet
 facet normal -6.631227e-01  0.000000e+00  7.485107e-01
   outer loop
     vertex -1.497021e-02  0.000000e+00  1.326245e-02
     vertex -1.136129e-02  1.000000e+00  1.645968e-02
     vertex -1.497021e-02  1.000000e+00  1.326245e-02
   endloop
 endfacet
 facet normal -6.631227e-01  0.000000e+00  7.485107e-01
   outer loop
     vertex -1.497021e-02  0.000000e+00  1.326245e-02
     vertex -1.136129e-02  0.000000e+00  1.645968e-02
     vertex -1.136129e-02  1.000000e+00  1.645968e-02
   endloop
 endfacet
 facet normal -8.229839e-01  0.000000e+00  5.680647e-01
   outer loop
     vertex -1.770912e-02  0.000000e+00  9.294463e-03
     vertex -1.497021e-02  1.000000e+00  1.326245e-02
     vertex -1.770912e-02  1.000000e+00  9.294463e-03
   endloop
 endfacet
 facet normal -8.229839e-01  0.000000e+00  5.680647e-01
   outer loop
     vertex -1.770912e-02  0.000000e+00  9.294463e-03
     vertex -1.497021e-02  0.000000e+00  1.326245e-02
     vertex -1.497021e-02  1.000000e+00  1.326245e-02
   endloop
 endfacet
 facet normal -9.350162e-01  0.000000e+00  3.546049e-01
   outer loop
     vertex -1.941884e-02  0.000000e+00  4.786313e-03
     vertex -1.770912e-02  0.000000e+00  9.294463e-03
     vertex -1.770912e-02  1.000000e+00  9.294463e-03
   endloop
 endfacet
 facet normal -9.350162e-01  0.000000e+00  3.546049e-01
   outer loop
     vertex -1.941884e-02  0.000000e+00  4.786313e-03
     vertex -1.770912e-02  1.000000e+00  9.294463e-03
     vertex -1.941884e-02  1.000000e+00  4.786313e-03
   endloop
 endfacet
 facet normal -9.927089e-01  0.000000e+00  1.205367e-01
   outer loop
     vertex -2.000000e-02  0.000000e+00  2.021286e-17
     vertex -1.941884e-02  0.000000e+00  4.786313e-03
     vertex -1.941884e-02  1.000000e+00  4.786313e-03
   endloop
 endfacet
 facet normal -9.927089e-01  0.000000e+00  1.205367e-01
   outer loop
     vertex -2.000000e-02  0.000000e+00  2.021286e-17
     vertex -1.941884e-02  1.000000e+00  4.786313e-03
     vertex -2.000000e-02  1.000000e+00  2.021286e-17
   endloop
 endfacet
 facet normal -9.927089e-01  0.000000e+00 -1.205367e-01
   outer loop
     vertex -1.941884e-02  0.000000e+00 -4.786313e-03
     vertex -2.000000e-02  1.000000e+00  2.021286e-17
     vertex -1.941884e-02  1.000000e+00 -4.786313e-03
   endloop
 endfacet
 facet normal -9.927089e-01  0.000000e+00 -1.205367e-01
   outer loop
     vertex -1.941884e-02  0.000000e+00 -4.786313e-03
     vertex -2.000000e-02  0.000000e+00  2.021286e-17
     vertex -2.000000e-02  1.000000e+00  2.021286e-17
   endloop
 endfacet
 facet normal -9.350162e-01  0.000000e+00 -3.546049e-01
   outer loop
     vertex -1.941884e-02  0.000000e+00 -4.786313e-03
     vertex -1.941884e-02  1.000000e+00 -4.786313e-03
     vertex -1.770912e-02  1.000000e+00 -9.294463e-03
   endloop
 endfacet
 facet normal -9.350162e-01  0.000000e+00 -3.546049e-01
   outer loop
     vertex -1.770912e-02  0.000000e+00 -9.294463e-03
     vertex -1.941884e-02  0.000000e+00 -4.786313e-03
     vertex -1.770912e-02  1.000000e+00 -9.294463e-03
   endloop
 endfacet
 facet normal -8.229839e-01  0.000000e+00 -5.680647e-01
   outer loop
     vertex -1.497021e-02  0.000000e+00 -1.326245e-02
     vertex -1.770912e-02  1.000000e+00 -9.294463e-03
     vertex -1.497021e-02  1.000000e+00 -1.326245e-02
   endloop
 endfacet
 facet normal -6.631227e-01  0.000000e+00 -7.485107e-01
   outer loop
     vertex -1.497021e-02  0.000000e+00 -1.326245e-02
     vertex -1.497021e-02  1.000000e+00 -1.326245e-02
     vertex -1.136129e-02  1.000000e+00 -1.645968e-02
   endloop
 endfacet
 facet normal -8.229839e-01  0.000000e+00 -5.680647e-01
   outer loop
     vertex -1.497021e-02  0.000000e+00 -1.326245e-02
     vertex -1.770912e-02  0.000000e+00 -9.294463e-03
     vertex -1.770912e-02  1.000000e+00 -9.294463e-03
   endloop
 endfacet
 facet normal -6.631227e-01  0.000000e+00 -7.485107e-01
   outer loop
     vertex -1.136129e-02  0.000000e+00 -1.645968e-02
     vertex -1.497021e-02  0.000000e+00 -1.326245e-02
     vertex -1.136129e-02  1.000000e+00 -1.645968e-02
   endloop
 endfacet
 facet normal -4.647232e-01  0.000000e+00 -8.854560e-01
   outer loop
     vertex -7.092098e-03  0.000000e+00 -1.870032e-02
     vertex -1.136129e-02  1.000000e+00 -1.645968e-02
     vertex -7.092098e-03  1.000000e+00 -1.870032e-02
   endloop
 endfacet
 facet normal -4.647232e-01  0.000000e+00 -8.854560e-01
   outer loop
     vertex -7.092098e-03  0.000000e+00 -1.870032e-02
     vertex -1.136129e-02  0.000000e+00 -1.645968e-02
     vertex -1.136129e-02  1.000000e+00 -1.645968e-02
   endloop
 endfacet
 facet normal -2.393157e-01  0.000000e+00 -9.709418e-01
   outer loop
     vertex -2.410734e-03  0.000000e+00 -1.985418e-02
     vertex -7.092098e-03  1.000000e+00 -1.870032e-02
     vertex -2.410734e-03  1.000000e+00 -1.985418e-02
   endloop
 endfacet
 facet normal -2.158750e-15  0.000000e+00 -1.000000e+00
   outer loop
     vertex -2.410734e-03  0.000000e+00 -1.985418e-02
     vertex -2.410734e-03  1.000000e+00 -1.985418e-02
     vertex  2.410734e-03  1.000000e+00 -1.985418e-02
   endloop
 endfacet
 facet normal -2.393157e-01  0.000000e+00 -9.709418e-01
   outer loop
     vertex -2.410734e-03  0.000000e+00 -1.985418e-02
     vertex -7.092098e-03  0.000000e+00 -1.870032e-02
     vertex -7.092098e-03  1.000000e+00 -1.870032e-02
   endloop
 endfacet
 facet normal -2.158750e-15  0.000000e+00 -1.000000e+00
   outer loop
     vertex  2.410734e-03  0.000000e+00 -1.985418e-02
     vertex -2.410734e-03  0.000000e+00 -1.985418e-02
     vertex  2.410734e-03  1.000000e+00 -1.985418e-02
   endloop
 endfacet
 facet normal  2.393157e-01  0.000000e+00 -9.709418e-01
   outer loop
     vertex  7.092098e-03  0.000000e+00 -1.870032e-02
     vertex  2.410734e-03  1.000000e+00 -1.985418e-02
     vertex  7.092098e-03  1.000000e+00 -1.870032e-02
   endloop
 endfacet
 facet normal  4.647232e-01  0.000000e+00 -8.854560e-01
   outer loop
     vertex  7.092098e-03  0.000000e+00 -1.870032e-02
     vertex  7.092098e-03  1.000000e+00 -1.870032e-02
     vertex  1.136129e-02  1.000000e+00 -1.645968e-02
   endloop
 endfacet
 facet normal  2.393157e-01  0.000000e+00 -9.709418e-01
   outer loop
     vertex  7.092098e-03  0.000000e+00 -1.870032e-02
     vertex  2.410734e-03  0.000000e+00 -1.985418e-02
     vertex  2.410734e-03  1.000000e+00 -1.985418e-02
   endloop
 endfacet
 facet normal  4.647232e-01  0.000000e+00 -8.854560e-01
   outer loop
     vertex  1.136129e-02  0.000000e+00 -1.645968e-02
     vertex  7.092098e-03  0.000000e+00 -1.870032e-02
     vertex  1.136129e-02  1.000000e+00 -1.645968e-02
   endloop
 endfacet
 facet normal  6.631227e-01  0.000000e+00 -7.485107e-01
   outer loop
     vertex  1.497021e-02  0.000000e+00 -1.326245e-02
     vertex  1.136129e-02  1.000000e+00 -1.645968e-02
     vertex  1.497021e-02  1.000000e+00 -1.326245e-02
   endloop
 endfacet
 facet normal  8.229839e-01  0.000000e+00 -5.680647e-01
   outer loop
     vertex  1.497021e-02  0.000000e+00 -1.326245e-02
     vertex  1.497021e-02  1.000000e+00 -1.326245e-02
     vertex  1.770912e-02  1.000000e+00 -9.294463e-03
   endloop
 endfacet
 facet normal  6.631227e-01  0.000000e+00 -7.485107e-01
   outer loop
     vertex  1.497021e-02  0.000000e+00 -1.326245e-02
     vertex  1.136129e-02  0.000000e+00 -1.645968e-02
     vertex  1.136129e-02  1.000000e+00 -1.645968e-02
   endloop
 endfacet
 facet normal  8.229839e-01  0.000000e+00 -5.680647e-01
   outer loop
     vertex  1.770912e-02  0.000000e+00 -9.294463e-03
     vertex  1.497021e-02  0.000000e+00 -1.326245e-02
     vertex  1.770912e-02  1.000000e+00 -9.294463e-03
   endloop
 endfacet
 facet normal  9.350162e-01  0.000000e+00 -3.546049e-01
   outer loop
     vertex  1.941884e-02  0.000000e+00 -4.786313e-03
     vertex  1.770912e-02  1.000000e+00 -9.294463e-03
     vertex  1.941884e-02  1.000000e+00 -4.786313e-03
   endloop
 endfacet
 facet normal  9.350162e-01  0.000000e+00 -3.546049e-01
   outer loop
     vertex  1.941884e-02  0.000000e+00 -4.786313e-03
     vertex  1.770912e-02  0.000000e+00 -9.294463e-03
     vertex  1.770912e-02  1.000000e+00 -9.294463e-03
   endloop
 endfacet
 facet normal  9.927089e-01  0.000000e+00 -1.205367e-01
   outer loop
     vertex  2.000000e-02  0.000000e+00  0.000000e+00
     vertex  1.941884e-02  1.000000e+00 -4.786313e-03
     vertex  2.000000e-02  1.000000e+00  0.000000e+00
   endloop
 endfacet
 facet normal  9.927089e-01  0.000000e+00 -1.205367e-01
   outer loop
     vertex  2.000000e-02  0.000000e+00  0.000000e+00
     vertex  1.941884e-02  0.000000e+00 -4.786313e-03
     vertex  1.941884e-02  1.000000e+00 -4.786313e-03
   endloop
 endfacet
 facet normal  0.000000e+00 -1.000000e+00  0.000000e+00
   outer loop
     vertex  1.497021e-02  0.000000e+00  1.326245e-02
     vertex  2.000000e-02  0.000000e+00  0.000000e+00
     vertex  1.941884e-02  0.000000e+00  4.786313e-03
   endloop
 endfacet
 facet normal  0.000000e+00 -1.000000e+00  0.000000e+00
   outer loop
     vertex  1.497021e-02  0.000000e+00  1.326245e-02
     vertex  1.941884e-02  0.000000e+00  4.786313e-03
     vertex  1.770912e-02  0.000000e+00  9.294463e-03
   endloop
 endfacet
 facet normal  0.000000e+00 -1.000000e+00  0.000000e+00
   outer loop
     vertex  1.497021e-02  0.000000e+00  1.326245e-02
     vertex  1.136129e-02  0.000000e+00  1.645968e-02
     vertex  7.092098e-03  0.000000e+00  1.870032e-02
   endloop
 endfacet
 facet normal  0.000000e+00 -1.000000e+00  0.000000e+00
   outer loop
     vertex  1.497021e-02  0.000000e+00  1.326245e-02
     vertex  7.092098e-03  0.000000e+00  1.870032e-02
     vertex  2.410734e-03  0.000000e+00  1.985418e-02
   endloop
 endfacet
 facet normal  0.000000e+00 -1.000000e+00  0.000000e+00
   outer loop
     vertex  1.497021e-02  0.000000e+00  1.326245e-02
     vertex  2.410734e-03  0.000000e+00  1.985418e-02
     vertex -2.410734e-03  0.000000e+00  1.985418e-02
   endloop
 endfacet
 facet normal  0.000000e+00 -1.000000e+00  0.000000e+00
   outer loop
     vertex  1.497021e-02  0.000000e+00  1.326245e-02
     vertex -2.410734e-03  0.000000e+00  1.985418e-02
     vertex -7.092098e-03  0.000000e+00  1.870032e-02
   endloop
 endfacet
 facet normal  0.000000e+00 -1.000000e+00  0.000000e+00
   outer loop
     vertex  1.497021e-02  0.000000e+00  1.326245e-02
     vertex -7.092098e-03  0.000000e+00  1.870032e-02
     vertex -1.136129e-02  0.000000e+00  1.645968e-02
   endloop
 endfacet
 facet normal  0.000000e+00 -1.000000e+00  0.000000e+00
   outer loop
     vertex  1.497021e-02  0.000000e+00  1.326245e-02
     vertex -1.136129e-02  0.000000e+00  1.645968e-02
     vertex -1.497021e-02  0.000000e+00  1.326245e-02
   endloop
 endfacet
 facet normal -0.000000e+00 -1.000000e+00  0.000000e+00
   outer loop
     vertex  1.497021e-02  0.000000e+00  1.326245e-02
     vertex -1.497021e-02  0.000000e+00  1.326245e-02
     vertex -1.770912e-02  0.000000e+00  9.294463e-03
   endloop
 endfacet
 facet normal  0.000000e+00 -1.000000e+00  0.000000e+00
   outer loop
     vertex  1.497021e-02  0.000000e+00  1.326245e-02
     vertex -1.770912e-02  0.000000e+00  9.294463e-03
     vertex -1.941884e-02  0.000000e+00  4.786313e-03
   endloop
 endfacet
 facet normal  0.000000e+00 -1.000000e+00  0.000000e+00
   outer loop
     vertex  1.497021e-02  0.000000e+00  1.326245e-02
     vertex -1.941884e-02  0.000000e+00  4.786313e-03
     vertex -2.000000e-02  0.000000e+00  2.021286e-17
   endloop
 endfacet
 facet normal  0.000000e+00 -1.000000e+00  0.000000e+00
   outer loop
     vertex  1.497021e-02  0.000000e+00  1.326245e-02
     vertex -2.000000e-02  0.000000e+00  2.021286e-17
     vertex -1.941884e-02  0.000000e+00 -4.786313e-03
   endloop
 endfacet
 facet normal  0.000000e+00 -1.000000e+00  0.000000e+00
   outer loop
     vertex  1.497021e-02  0.000000e+00  1.326245e-02
     vertex -1.941884e-02  0.000000e+00 -4.786313e-03
     vertex -1.770912e-02  0.000000e+00 -9.294463e-03
   endloop
 endfacet
 facet normal  0.000000e+00 -1.000000e+00  0.000000e+00
   outer loop
     vertex  1.497021e-02  0.000000e+00  1.326245e-02
     vertex -1.770912e-02  0.000000e+00 -9.294463e-03
     vertex -1.497021e-02  0.000000e+00 -1.326245e-02
   endloop
 endfacet
 facet normal  0.000000e+00 -1.000000e+00  0.000000e+00
   outer loop
     vertex  1.497021e-02  0.000000e+00  1.326245e-02
     vertex -1.497021e-02  0.000000e+00 -1.326245e-02
     vertex -1.136129e-02  0.000000e+00 -1.645968e-02
   endloop
 endfacet
 facet normal  0.000000e+00 -1.000000e+00  0.000000e+00
   outer loop
     vertex  1.497021e-02  0.000000e+00  1.326245e-02
     vertex -1.136129e-02  0.000000e+00 -1.645968e-02
     vertex -7.092098e-03  0.000000e+00 -1.870032e-02
   endloop
 endfacet
 facet normal  0.000000e+00 -1.000000e+00  0.000000e+00
   outer loop
     vertex  1.497021e-02  0.000000e+00  1.326245e-02
     vertex -7.092098e-03  0.000000e+00 -1.870032e-02
     vertex -2.410734e-03  0.000000e+00 -1.985418e-02
   endloop
 endfacet
 facet normal  0.000000e+00 -1.000000e+00  0.000000e+00
   outer loop
     vertex  1.497021e-02  0.000000e+00  1.326245e-02
     vertex -2.410734e-03  0.000000e+00 -1.985418e-02
     vertex  2.410734e-03  0.000000e+00 -1.985418e-02
   endloop
 endfacet
 facet normal  0.000000e+00 -1.000000e+00  0.000000e+00
   outer loop
     vertex  1.497021e-02  0.000000e+00  1.326245e-02
     vertex  2.410734e-03  0.000000e+00 -1.985418e-02
     vertex  7.092098e-03  0.000000e+00 -1.870032e-02
   endloop
 endfacet
 facet normal  0.000000e+00 -1.000000e+00  0.000000e+00
   outer loop
     vertex  1.497021e-02  0.000000e+00  1.326245e-02
     vertex  7.092098e-03  0.000000e+00 -1.870032e-02
     vertex  1.136129e-02  0.000000e+00 -1.645968e-02
   endloop
 endfacet
 facet normal  0.000000e+00 -1.000000e+00  0.000000e+00
   outer loop
     vertex  1.497021e-02  0.000000e+00  1.326245e-02
     vertex  1.136129e-02  0.000000e+00 -1.645968e-02
     vertex  1.497021e-02  0.000000e+00 -1.326245e-02
   endloop
 endfacet
 facet normal  0.000000e+00 -1.000000e+00 -0.000000e+00
   outer loop
     vertex  1.497021e-02  0.000000e+00  1.326245e-02
     vertex  1.497021e-02  0.000000e+00 -1.326245e-02
     vertex  1.770912e-02  0.000000e+00 -9.294463e-03
   endloop
 endfacet
 facet normal  0.000000e+00 -1.000000e+00  0.000000e+00
   outer loop
     vertex  1.497021e-02  0.000000e+00  1.326245e-02
     vertex  1.770912e-02  0.000000e+00 -9.294463e-03
     vertex  1.941884e-02  0.000000e+00 -4.786313e-03
   endloop
 endfacet
 facet normal  0.000000e+00 -1.000000e+00  0.000000e+00
   outer loop
     vertex  1.497021e-02  0.000000e+00  1.326245e-02
     vertex  1.941884e-02  0.000000e+00 -4.786313e-03
     vertex  2.000000e-02  0.000000e+00  0.000000e+00
   endloop
 endfacet
 facet normal  0.000000e+00  1.000000e+00  0.000000e+00
   outer loop
     vertex  1.497021e-02  1.000000e+00  1.326245e-02
     vertex  1.941884e-02  1.000000e+00  4.786313e-03
     vertex  2.000000e-02  1.000000e+00  0.000000e+00
   endloop
 endfacet
 facet normal  0.000000e+00  1.000000e+00  0.000000e+00
   outer loop
     vertex  1.497021e-02  1.000000e+00  1.326245e-02
     vertex  1.770912e-02  1.000000e+00  9.294463e-03
     vertex  1.941884e-02  1.000000e+00  4.786313e-03
   endloop
 endfacet
 facet normal  0.000000e+00  1.000000e+00  0.000000e+00
   outer loop
     vertex  1.497021e-02  1.000000e+00  1.326245e-02
     vertex  7.092098e-03  1.000000e+00  1.870032e-02
     vertex  1.136129e-02  1.000000e+00  1.645968e-02
   endloop
 endfacet
 facet normal  0.000000e+00  1.000000e+00  0.000000e+00
   outer loop
     vertex  1.497021e-02  1.000000e+00  1.326245e-02
     vertex  2.410734e-03  1.000000e+00  1.985418e-02
     vertex  7.092098e-03  1.000000e+00  1.870032e-02
   endloop
 endfacet
 facet normal  0.000000e+00  1.000000e+00  0.000000e+00
   outer loop
     vertex  1.497021e-02  1.000000e+00  1.326245e-02
     vertex -2.410734e-03  1.000000e+00  1.985418e-02
     vertex  2.410734e-03  1.000000e+00  1.985418e-02
   endloop
 endfacet
 facet normal  0.000000e+00  1.000000e+00  0.000000e+00
   outer loop
     vertex  1.497021e-02  1.000000e+00  1.326245e-02
     vertex -7.092098e-03  1.000000e+00  1.870032e-02
     vertex -2.410734e-03  1.000000e+00  1.985418e-02
   endloop
 endfacet
 facet normal  0.000000e+00  1.000000e+00  0.000000e+00
   outer loop
     vertex  1.497021e-02  1.000000e+00  1.326245e-02
     vertex -1.136129e-02  1.000000e+00  1.645968e-02
     vertex -7.092098e-03  1.000000e+00  1.870032e-02
   endloop
 endfacet
 facet normal  0.000000e+00  1.000000e+00  0.000000e+00
   outer loop
     vertex  1.497021e-02  1.000000e+00  1.326245e-02
     vertex -1.497021e-02  1.000000e+00  1.326245e-02
     vertex -1.136129e-02  1.000000e+00  1.645968e-02
   endloop
 endfacet
 facet normal  0.000000e+00  1.000000e+00  0.000000e+00
   outer loop
     vertex  1.497021e-02  1.000000e+00  1.326245e-02
     vertex -1.770912e-02  1.000000e+00  9.294463e-03
     vertex -1.497021e-02  1.000000e+00  1.326245e-02
   endloop
 endfacet
 facet normal  0.000000e+00  1.000000e+00  0.000000e+00
   outer loop
     vertex  1.497021e-02  1.000000e+00  1.326245e-02
     vertex -1.941884e-02  1.000000e+00  4.786313e-03
     vertex -1.770912e-02  1.000000e+00  9.294463e-03
   endloop
 endfacet
 facet normal  0.000000e+00  1.000000e+00  0.000000e+00
   outer loop
     vertex  1.497021e-02  1.000000e+00  1.326245e-02
     vertex -2.000000e-02  1.000000e+00  2.021286e-17
     vertex -1.941884e-02  1.000000e+00  4.786313e-03
   endloop
 endfacet
 facet normal  0.000000e+00  1.000000e+00  0.000000e+00
   outer loop
     vertex  1.497021e-02  1.000000e+00  1.326245e-02
     vertex -1.941884e-02  1.000000e+00 -4.786313e-03
     vertex -2.000000e-02  1.000000e+00  2.021286e-17
   endloop
 endfacet
 facet normal  0.000000e+00  1.000000e+00  0.000000e+00
   outer loop
     vertex  1.497021e-02  1.000000e+00  1.326245e-02
     vertex -1.770912e-02  1.000000e+00 -9.294463e-03
     vertex -1.941884e-02  1.000000e+00 -4.786313e-03
   endloop
 endfacet
 facet normal  0.000000e+00  1.000000e+00  0.000000e+00
   outer loop
     vertex  1.497021e-02  1.000000e+00  1.326245e-02
     vertex -1.497021e-02  1.000000e+00 -1.326245e-02
     vertex -1.770912e-02  1.000000e+00 -9.294463e-03
   endloop
 endfacet
 facet normal  0.000000e+00  1.000000e+00  0.000000e+00
   outer loop
     vertex  1.497021e-02  1.000000e+00  1.326245e-02
     vertex -1.136129e-02  1.000000e+00 -1.645968e-02
     vertex -1.497021e-02  1.000000e+00 -1.326245e-02
   endloop
 endfacet
 facet normal  0.000000e+00  1.000000e+00  0.000000e+00
   outer loop
     vertex  1.497021e-02  1.000000e+00  1.326245e-02
     vertex -7.092098e-03  1.000000e+00 -1.870032e-02
     vertex -1.136129e-02  1.000000e+00 -1.645968e-02
   endloop
 endfacet
 facet normal  0.000000e+00  1.000000e+00  0.000000e+00
   outer loop
     vertex  1.497021e-02  1.000000e+00  1.326245e-02
     vertex -2.410734e-03  1.000000e+00 -1.985418e-02
     vertex -7.092098e-03  1.000000e+00 -1.870032e-02
   endloop
 endfacet
 facet normal  0.000000e+00  1.000000e+00  0.000000e+00
   outer loop
     vertex  1.497021e-02  1.000000e+00  1.326245e-02
     vertex  2.410734e-03  1.000000e+00 -1.985418e-02
     vertex -2.410734e-03  1.000000e+00 -1.985418e-02
   endloop
 endfacet
 facet normal  0.000000e+00  1.000000e+00  0.000000e+00
   outer loop
     vertex  1.497021e-02  1.000000e+00  1.326245e-02
     vertex  7.092098e-03  1.000000e+00 -1.870032e-02
     vertex  2.410734e-03  1.000000e+00 -1.985418e-02
   endloop
 endfacet
 facet normal  0.000000e+00  1.000000e+00  0.000000e+00
   outer loop
     vertex  1.497021e-02  1.000000e+00  1.326245e-02
     vertex  1.136129e-02  1.000000e+00 -1.645968e-02
     vertex  7.092098e-03  1.000000e+00 -1.870032e-02
   endloop
 endfacet
 facet normal  0.000000e+00  1.000000e+00  0.000000e+00
   outer loop
     vertex  1.497021e-02  1.000000e+00  1.326245e-02
     vertex  1.497021e-02  1.000000e+00 -1.326245e-02
     vertex  1.136129e-02  1.000000e+00 -1.645968e-02
   endloop
 endfacet
 facet normal  0.000000e+00  1.000000e+00  0.000000e+00
   outer loop
     vertex  1.497021e-02  1.000000e+00  1.326245e-02
     vertex  1.770912e-02  1.000000e+00 -9.294463e-03
     vertex  1.497021e-02  1.000000e+00 -1.326245e-02
   endloop
 endfacet
 facet normal  0.000000e+00  1.000000e+00  0.000000e+00
   outer loop
     vertex  1.497021e-02  1.000000e+00  1.326245e-02
     vertex  1.941884e-02  1.000000e+00 -4.786313e-03
     vertex  1.770912e-02  1.000000e+00 -9.294463e-03
   endloop
 endfacet
 facet normal  0.000000e+00  1.000000e+00  0.000000e+00
   outer loop
     vertex  1.497021e-02  1.000000e+00  1.326245e-02
     vertex  2.000000e-02  1.000000e+00  0.000000e+00
     vertex  1.941884e-02  1.000000e+00 -4.786313e-03
   endloop
 endfacet
endsolid
