solid 
 facet normal  0.000000e+00 -1.000000e+00  0.000000e+00
   outer loop
     vertex  9.800000e-01  0.000000e+00  0.000000e+00
     vertex -9.800000e-01  0.000000e+00  1.000000e+00
     vertex -9.800000e-01  0.000000e+00  0.000000e+00
   endloop
 endfacet
 facet normal  0.000000e+00 -1.000000e+00  0.000000e+00
   outer loop
     vertex  9.800000e-01  0.000000e+00  0.000000e+00
     vertex  9.800000e-01  0.000000e+00  1.000000e+00
     vertex -9.800000e-01  0.000000e+00  1.000000e+00
   endloop
 endfacet
 facet normal  1.000000e+00  0.000000e+00  0.000000e+00
   outer loop
     vertex  9.800000e-01  1.150000e-01  0.000000e+00
     vertex  9.800000e-01  0.000000e+00  1.000000e+00
     vertex  9.800000e-01  0.000000e+00  0.000000e+00
   endloop
 endfacet
 facet normal  1.000000e+00  0.000000e+00 -0.000000e+00
   outer loop
     vertex  9.800000e-01  1.150000e-01  0.000000e+00
     vertex  9.800000e-01  1.150000e-01  1.000000e+00
     vertex  9.800000e-01  0.000000e+00  1.000000e+00
   endloop
 endfacet
 facet normal  1.040244e-01  9.945747e-01  0.000000e+00
   outer loop
     vertex  9.800000e-01  1.150000e-01  0.000000e+00
     vertex -9.800000e-01  3.200000e-01  0.000000e+00
     vertex -9.800000e-01  3.200000e-01  1.000000e+00
   endloop
 endfacet
 facet normal  1.040244e-01  9.945747e-01 -0.000000e+00
   outer loop
     vertex  9.800000e-01  1.150000e-01  0.000000e+00
     vertex -9.800000e-01  3.200000e-01  1.000000e+00
     vertex  9.800000e-01  1.150000e-01  1.000000e+00
   endloop
 endfacet
 facet normal -1.000000e+00  0.000000e+00  0.000000e+00
   outer loop
     vertex -9.800000e-01  3.200000e-01  0.000000e+00
     vertex -9.800000e-01  0.000000e+00  0.000000e+00
     vertex -9.800000e-01  0.000000e+00  1.000000e+00
   endloop
 endfacet
 facet normal -1.000000e+00  0.000000e+00  0.000000e+00
   outer loop
     vertex -9.800000e-01  3.200000e-01  0.000000e+00
     vertex -9.800000e-01  0.000000e+00  1.000000e+00
     vertex -9.800000e-01  3.200000e-01  1.000000e+00
   endloop
 endfacet
 facet normal  0.000000e+00 -0.000000e+00 -1.000000e+00
   outer loop
     vertex  9.800000e-01  1.150000e-01  0.000000e+00
     vertex  9.800000e-01  0.000000e+00  0.000000e+00
     vertex -9.800000e-01  0.000000e+00  0.000000e+00
   endloop
 endfacet
 facet normal -0.000000e+00  0.000000e+00 -1.000000e+00
   outer loop
     vertex  9.800000e-01  1.150000e-01  0.000000e+00
     vertex -9.800000e-01  0.000000e+00  0.000000e+00
     vertex -9.800000e-01  3.200000e-01  0.000000e+00
   endloop
 endfacet
 facet normal  0.000000e+00  0.000000e+00  1.000000e+00
   outer loop
     vertex  9.800000e-01  1.150000e-01  1.000000e+00
     vertex -9.800000e-01  0.000000e+00  1.000000e+00
     vertex  9.800000e-01  0.000000e+00  1.000000e+00
   endloop
 endfacet
 facet normal  0.000000e+00  0.000000e+00  1.000000e+00
   outer loop
     vertex  9.800000e-01  1.150000e-01  1.000000e+00
     vertex -9.800000e-01  3.200000e-01  1.000000e+00
     vertex -9.800000e-01  0.000000e+00  1.000000e+00
   endloop
 endfacet
endsolid
