solid 
 facet normal  6.801612e-01  7.330626e-01  0.000000e+00
   outer loop
     vertex -9.800000e-01  9.800000e-01  0.000000e+00
     vertex -1.000000e-02  8.000000e-02  1.000000e+00
     vertex -1.000000e-02  8.000000e-02  0.000000e+00
   endloop
 endfacet
 facet normal  6.801612e-01  7.330626e-01 -0.000000e+00
   outer loop
     vertex -9.800000e-01  9.800000e-01  0.000000e+00
     vertex -9.800000e-01  9.800000e-01  1.000000e+00
     vertex -1.000000e-02  8.000000e-02  1.000000e+00
   endloop
 endfacet
 facet normal -9.712973e-01 -2.378687e-01  0.000000e+00
   outer loop
     vertex -5.000000e-01 -9.800000e-01  0.000000e+00
     vertex -9.800000e-01  9.800000e-01  1.000000e+00
     vertex -9.800000e-01  9.800000e-01  0.000000e+00
   endloop
 endfacet
 facet normal -9.712973e-01 -2.378687e-01  0.000000e+00
   outer loop
     vertex -5.000000e-01 -9.800000e-01  0.000000e+00
     vertex -5.000000e-01 -9.800000e-01  1.000000e+00
     vertex -9.800000e-01  9.800000e-01  1.000000e+00
   endloop
 endfacet
 facet normal  9.077086e-01 -4.196011e-01  0.000000e+00
   outer loop
     vertex -5.000000e-01 -9.800000e-01  0.000000e+00
     vertex -1.000000e-02  8.000000e-02  0.000000e+00
     vertex -1.000000e-02  8.000000e-02  1.000000e+00
   endloop
 endfacet
 facet normal  9.077086e-01 -4.196011e-01  0.000000e+00
   outer loop
     vertex -5.000000e-01 -9.800000e-01  0.000000e+00
     vertex -1.000000e-02  8.000000e-02  1.000000e+00
     vertex -5.000000e-01 -9.800000e-01  1.000000e+00
   endloop
 endfacet
 facet normal -0.000000e+00  0.000000e+00 -1.000000e+00
   outer loop
     vertex -1.000000e-02  8.000000e-02  0.000000e+00
     vertex -5.000000e-01 -9.800000e-01  0.000000e+00
     vertex -9.800000e-01  9.800000e-01  0.000000e+00
   endloop
 endfacet
 facet normal  0.000000e+00  0.000000e+00  1.000000e+00
   outer loop
     vertex -1.000000e-02  8.000000e-02  1.000000e+00
     vertex -9.800000e-01  9.800000e-01  1.000000e+00
     vertex -5.000000e-01 -9.800000e-01  1.000000e+00
   endloop
 endfacet
endsolid
