solid 
 facet normal  9.974521e-01  7.133918e-02  0.000000e+00
   outer loop
     vertex  1.930152e-01  2.775139e-02  0.000000e+00
     vertex  1.950000e-01  0.000000e+00  1.000000e+00
     vertex  1.950000e-01  0.000000e+00  0.000000e+00
   endloop
 endfacet
 facet normal  9.974521e-01  7.133918e-02 -0.000000e+00
   outer loop
     vertex  1.930152e-01  2.775139e-02  0.000000e+00
     vertex  1.930152e-01  2.775139e-02  1.000000e+00
     vertex  1.950000e-01  0.000000e+00  1.000000e+00
   endloop
 endfacet
 facet normal  9.771469e-01  2.125653e-01 -0.000000e+00
   outer loop
     vertex  1.871011e-01  5.493785e-02  0.000000e+00
     vertex  1.871011e-01  5.493785e-02  1.000000e+00
     vertex  1.930152e-01  2.775139e-02  1.000000e+00
   endloop
 endfacet
 facet normal  9.771469e-01  2.125653e-01  0.000000e+00
   outer loop
     vertex  1.871011e-01  5.493785e-02  0.000000e+00
     vertex  1.930152e-01  2.775139e-02  1.000000e+00
     vertex  1.930152e-01  2.775139e-02  0.000000e+00
   endloop
 endfacet
 facet normal  9.369497e-01  3.494642e-01  0.000000e+00
   outer loop
     vertex  1.773782e-01  8.100593e-02  0.000000e+00
     vertex  1.871011e-01  5.493785e-02  1.000000e+00
     vertex  1.871011e-01  5.493785e-02  0.000000e+00
   endloop
 endfacet
 facet normal  9.369497e-01  3.494642e-01 -0.000000e+00
   outer loop
     vertex  1.773782e-01  8.100593e-02  0.000000e+00
     vertex  1.773782e-01  8.100593e-02  1.000000e+00
     vertex  1.871011e-01  5.493785e-02  1.000000e+00
   endloop
 endfacet
 facet normal  8.776790e-01  4.792490e-01 -0.000000e+00
   outer loop
     vertex  1.640444e-01  1.054250e-01  0.000000e+00
     vertex  1.640444e-01  1.054250e-01  1.000000e+00
     vertex  1.773782e-01  8.100593e-02  1.000000e+00
   endloop
 endfacet
 facet normal  8.776790e-01  4.792490e-01  0.000000e+00
   outer loop
     vertex  1.640444e-01  1.054250e-01  0.000000e+00
     vertex  1.773782e-01  8.100593e-02  1.000000e+00
     vertex  1.773782e-01  8.100593e-02  0.000000e+00
   endloop
 endfacet
 facet normal  8.005412e-01  5.992777e-01 -0.000000e+00
   outer loop
     vertex  1.473712e-01  1.276978e-01  0.000000e+00
     vertex  1.473712e-01  1.276978e-01  1.000000e+00
     vertex  1.640444e-01  1.054250e-01  1.000000e+00
   endloop
 endfacet
 facet normal  8.005412e-01  5.992777e-01  0.000000e+00
   outer loop
     vertex  1.473712e-01  1.276978e-01  0.000000e+00
     vertex  1.640444e-01  1.054250e-01  1.000000e+00
     vertex  1.640444e-01  1.054250e-01  0.000000e+00
   endloop
 endfacet
 facet normal  7.071068e-01  7.071068e-01 -0.000000e+00
   outer loop
     vertex  1.276978e-01  1.473712e-01  0.000000e+00
     vertex  1.276978e-01  1.473712e-01  1.000000e+00
     vertex  1.473712e-01  1.276978e-01  1.000000e+00
   endloop
 endfacet
 facet normal  7.071068e-01  7.071068e-01  0.000000e+00
   outer loop
     vertex  1.276978e-01  1.473712e-01  0.000000e+00
     vertex  1.473712e-01  1.276978e-01  1.000000e+00
     vertex  1.473712e-01  1.276978e-01  0.000000e+00
   endloop
 endfacet
 facet normal  5.992777e-01  8.005412e-01 -0.000000e+00
   outer loop
     vertex  1.054250e-01  1.640444e-01  0.000000e+00
     vertex  1.054250e-01  1.640444e-01  1.000000e+00
     vertex  1.276978e-01  1.473712e-01  1.000000e+00
   endloop
 endfacet
 facet normal  5.992777e-01  8.005412e-01  0.000000e+00
   outer loop
     vertex  1.054250e-01  1.640444e-01  0.000000e+00
     vertex  1.276978e-01  1.473712e-01  1.000000e+00
     vertex  1.276978e-01  1.473712e-01  0.000000e+00
   endloop
 endfacet
 facet normal  4.792490e-01  8.776790e-01 -0.000000e+00
   outer loop
     vertex  8.100593e-02  1.773782e-01  0.000000e+00
     vertex  8.100593e-02  1.773782e-01  1.000000e+00
     vertex  1.054250e-01  1.640444e-01  1.000000e+00
   endloop
 endfacet
 facet normal  4.792490e-01  8.776790e-01  0.000000e+00
   outer loop
     vertex  8.100593e-02  1.773782e-01  0.000000e+00
     vertex  1.054250e-01  1.640444e-01  1.000000e+00
     vertex  1.054250e-01  1.640444e-01  0.000000e+00
   endloop
 endfacet
 facet normal  3.494642e-01  9.369497e-01 -0.000000e+00
   outer loop
     vertex  5.493785e-02  1.871011e-01  0.000000e+00
     vertex  5.493785e-02  1.871011e-01  1.000000e+00
     vertex  8.100593e-02  1.773782e-01  1.000000e+00
   endloop
 endfacet
 facet normal  3.494642e-01  9.369497e-01  0.000000e+00
   outer loop
     vertex  5.493785e-02  1.871011e-01  0.000000e+00
     vertex  8.100593e-02  1.773782e-01  1.000000e+00
     vertex  8.100593e-02  1.773782e-01  0.000000e+00
   endloop
 endfacet
 facet normal  2.125653e-01  9.771469e-01 -0.000000e+00
   outer loop
     vertex  2.775139e-02  1.930152e-01  0.000000e+00
     vertex  2.775139e-02  1.930152e-01  1.000000e+00
     vertex  5.493785e-02  1.871011e-01  1.000000e+00
   endloop
 endfacet
 facet normal  7.133918e-02  9.974521e-01 -0.000000e+00
   outer loop
     vertex  2.775139e-02  1.930152e-01  0.000000e+00
     vertex  5.523900e-17  1.950000e-01  1.000000e+00
     vertex  2.775139e-02  1.930152e-01  1.000000e+00
   endloop
 endfacet
 facet normal  2.125653e-01  9.771469e-01  0.000000e+00
   outer loop
     vertex  2.775139e-02  1.930152e-01  0.000000e+00
     vertex  5.493785e-02  1.871011e-01  1.000000e+00
     vertex  5.493785e-02  1.871011e-01  0.000000e+00
   endloop
 endfacet
 facet normal -7.133918e-02  9.974521e-01  0.000000e+00
   outer loop
     vertex  5.523900e-17  1.950000e-01  0.000000e+00
     vertex -2.775139e-02  1.930152e-01  1.000000e+00
     vertex  5.523900e-17  1.950000e-01  1.000000e+00
   endloop
 endfacet
 facet normal  7.133918e-02  9.974521e-01 -0.000000e+00
   outer loop
     vertex  5.523900e-17  1.950000e-01  0.000000e+00
     vertex  5.523900e-17  1.950000e-01  1.000000e+00
     vertex  2.775139e-02  1.930152e-01  0.000000e+00
   endloop
 endfacet
 facet normal -7.133918e-02  9.974521e-01  0.000000e+00
   outer loop
     vertex -2.775139e-02  1.930152e-01  0.000000e+00
     vertex -2.775139e-02  1.930152e-01  1.000000e+00
     vertex  5.523900e-17  1.950000e-01  0.000000e+00
   endloop
 endfacet
 facet normal -2.125653e-01  9.771469e-01  0.000000e+00
   outer loop
     vertex -5.493785e-02  1.871011e-01  0.000000e+00
     vertex -5.493785e-02  1.871011e-01  1.000000e+00
     vertex -2.775139e-02  1.930152e-01  1.000000e+00
   endloop
 endfacet
 facet normal -2.125653e-01  9.771469e-01  0.000000e+00
   outer loop
     vertex -5.493785e-02  1.871011e-01  0.000000e+00
     vertex -2.775139e-02  1.930152e-01  1.000000e+00
     vertex -2.775139e-02  1.930152e-01  0.000000e+00
   endloop
 endfacet
 facet normal -3.494642e-01  9.369497e-01  0.000000e+00
   outer loop
     vertex -8.100593e-02  1.773782e-01  0.000000e+00
     vertex -8.100593e-02  1.773782e-01  1.000000e+00
     vertex -5.493785e-02  1.871011e-01  1.000000e+00
   endloop
 endfacet
 facet normal -4.792490e-01  8.776790e-01  0.000000e+00
   outer loop
     vertex -8.100593e-02  1.773782e-01  0.000000e+00
     vertex -1.054250e-01  1.640444e-01  1.000000e+00
     vertex -8.100593e-02  1.773782e-01  1.000000e+00
   endloop
 endfacet
 facet normal -3.494642e-01  9.369497e-01  0.000000e+00
   outer loop
     vertex -8.100593e-02  1.773782e-01  0.000000e+00
     vertex -5.493785e-02  1.871011e-01  1.000000e+00
     vertex -5.493785e-02  1.871011e-01  0.000000e+00
   endloop
 endfacet
 facet normal -4.792490e-01  8.776790e-01  0.000000e+00
   outer loop
     vertex -1.054250e-01  1.640444e-01  0.000000e+00
     vertex -1.054250e-01  1.640444e-01  1.000000e+00
     vertex -8.100593e-02  1.773782e-01  0.000000e+00
   endloop
 endfacet
 facet normal -5.992777e-01  8.005412e-01  0.000000e+00
   outer loop
     vertex -1.276978e-01  1.473712e-01  0.000000e+00
     vertex -1.276978e-01  1.473712e-01  1.000000e+00
     vertex -1.054250e-01  1.640444e-01  1.000000e+00
   endloop
 endfacet
 facet normal -5.992777e-01  8.005412e-01  0.000000e+00
   outer loop
     vertex -1.276978e-01  1.473712e-01  0.000000e+00
     vertex -1.054250e-01  1.640444e-01  1.000000e+00
     vertex -1.054250e-01  1.640444e-01  0.000000e+00
   endloop
 endfacet
 facet normal -7.071068e-01  7.071068e-01  0.000000e+00
   outer loop
     vertex -1.473712e-01  1.276978e-01  0.000000e+00
     vertex -1.473712e-01  1.276978e-01  1.000000e+00
     vertex -1.276978e-01  1.473712e-01  1.000000e+00
   endloop
 endfacet
 facet normal -7.071068e-01  7.071068e-01  0.000000e+00
   outer loop
     vertex -1.473712e-01  1.276978e-01  0.000000e+00
     vertex -1.276978e-01  1.473712e-01  1.000000e+00
     vertex -1.276978e-01  1.473712e-01  0.000000e+00
   endloop
 endfacet
 facet normal -8.005412e-01  5.992777e-01  0.000000e+00
   outer loop
     vertex -1.640444e-01  1.054250e-01  0.000000e+00
     vertex -1.640444e-01  1.054250e-01  1.000000e+00
     vertex -1.473712e-01  1.276978e-01  1.000000e+00
   endloop
 endfacet
 facet normal -8.776790e-01  4.792490e-01  0.000000e+00
   outer loop
     vertex -1.640444e-01  1.054250e-01  0.000000e+00
     vertex -1.773782e-01  8.100593e-02  1.000000e+00
     vertex -1.640444e-01  1.054250e-01  1.000000e+00
   endloop
 endfacet
 facet normal -8.005412e-01  5.992777e-01  0.000000e+00
   outer loop
     vertex -1.640444e-01  1.054250e-01  0.000000e+00
     vertex -1.473712e-01  1.276978e-01  1.000000e+00
     vertex -1.473712e-01  1.276978e-01  0.000000e+00
   endloop
 endfacet
 facet normal -8.776790e-01  4.792490e-01  0.000000e+00
   outer loop
     vertex -1.773782e-01  8.100593e-02  0.000000e+00
     vertex -1.773782e-01  8.100593e-02  1.000000e+00
     vertex -1.640444e-01  1.054250e-01  0.000000e+00
   endloop
 endfacet
 facet normal -9.369497e-01  3.494642e-01  0.000000e+00
   outer loop
     vertex -1.871011e-01  5.493785e-02  0.000000e+00
     vertex -1.871011e-01  5.493785e-02  1.000000e+00
     vertex -1.773782e-01  8.100593e-02  1.000000e+00
   endloop
 endfacet
 facet normal -9.369497e-01  3.494642e-01  0.000000e+00
   outer loop
     vertex -1.871011e-01  5.493785e-02  0.000000e+00
     vertex -1.773782e-01  8.100593e-02  1.000000e+00
     vertex -1.773782e-01  8.100593e-02  0.000000e+00
   endloop
 endfacet
 facet normal -9.771469e-01  2.125653e-01  0.000000e+00
   outer loop
     vertex -1.930152e-01  2.775139e-02  0.000000e+00
     vertex -1.930152e-01  2.775139e-02  1.000000e+00
     vertex -1.871011e-01  5.493785e-02  1.000000e+00
   endloop
 endfacet
 facet normal -9.771469e-01  2.125653e-01  0.000000e+00
   outer loop
     vertex -1.930152e-01  2.775139e-02  0.000000e+00
     vertex -1.871011e-01  5.493785e-02  1.000000e+00
     vertex -1.871011e-01  5.493785e-02  0.000000e+00
   endloop
 endfacet
 facet normal -9.974521e-01  7.133918e-02  0.000000e+00
   outer loop
     vertex -1.950000e-01  1.970754e-16  0.000000e+00
     vertex -1.950000e-01  1.970754e-16  1.000000e+00
     vertex -1.930152e-01  2.775139e-02  1.000000e+00
   endloop
 endfacet
 facet normal -9.974521e-01  7.133918e-02  0.000000e+00
   outer loop
     vertex -1.950000e-01  1.970754e-16  0.000000e+00
     vertex -1.930152e-01  2.775139e-02  1.000000e+00
     vertex -1.930152e-01  2.775139e-02  0.000000e+00
   endloop
 endfacet
 facet normal -9.974521e-01 -7.133918e-02  0.000000e+00
   outer loop
     vertex -1.930152e-01 -2.775139e-02  0.000000e+00
     vertex -1.930152e-01 -2.775139e-02  1.000000e+00
     vertex -1.950000e-01  1.970754e-16  1.000000e+00
   endloop
 endfacet
 facet normal -9.771469e-01 -2.125653e-01  0.000000e+00
   outer loop
     vertex -1.930152e-01 -2.775139e-02  0.000000e+00
     vertex -1.871011e-01 -5.493785e-02  1.000000e+00
     vertex -1.930152e-01 -2.775139e-02  1.000000e+00
   endloop
 endfacet
 facet normal -9.974521e-01 -7.133918e-02  0.000000e+00
   outer loop
     vertex -1.930152e-01 -2.775139e-02  0.000000e+00
     vertex -1.950000e-01  1.970754e-16  1.000000e+00
     vertex -1.950000e-01  1.970754e-16  0.000000e+00
   endloop
 endfacet
 facet normal -9.771469e-01 -2.125653e-01  0.000000e+00
   outer loop
     vertex -1.871011e-01 -5.493785e-02  0.000000e+00
     vertex -1.871011e-01 -5.493785e-02  1.000000e+00
     vertex -1.930152e-01 -2.775139e-02  0.000000e+00
   endloop
 endfacet
 facet normal -9.369497e-01 -3.494642e-01  0.000000e+00
   outer loop
     vertex -1.773782e-01 -8.100593e-02  0.000000e+00
     vertex -1.773782e-01 -8.100593e-02  1.000000e+00
     vertex -1.871011e-01 -5.493785e-02  1.000000e+00
   endloop
 endfacet
 facet normal -9.369497e-01 -3.494642e-01  0.000000e+00
   outer loop
     vertex -1.773782e-01 -8.100593e-02  0.000000e+00
     vertex -1.871011e-01 -5.493785e-02  1.000000e+00
     vertex -1.871011e-01 -5.493785e-02  0.000000e+00
   endloop
 endfacet
 facet normal -8.776790e-01 -4.792490e-01  0.000000e+00
   outer loop
     vertex -1.640444e-01 -1.054250e-01  0.000000e+00
     vertex -1.640444e-01 -1.054250e-01  1.000000e+00
     vertex -1.773782e-01 -8.100593e-02  1.000000e+00
   endloop
 endfacet
 facet normal -8.005412e-01 -5.992777e-01  0.000000e+00
   outer loop
     vertex -1.640444e-01 -1.054250e-01  0.000000e+00
     vertex -1.473712e-01 -1.276978e-01  1.000000e+00
     vertex -1.640444e-01 -1.054250e-01  1.000000e+00
   endloop
 endfacet
 facet normal -8.776790e-01 -4.792490e-01  0.000000e+00
   outer loop
     vertex -1.640444e-01 -1.054250e-01  0.000000e+00
     vertex -1.773782e-01 -8.100593e-02  1.000000e+00
     vertex -1.773782e-01 -8.100593e-02  0.000000e+00
   endloop
 endfacet
 facet normal -8.005412e-01 -5.992777e-01  0.000000e+00
   outer loop
     vertex -1.473712e-01 -1.276978e-01  0.000000e+00
     vertex -1.473712e-01 -1.276978e-01  1.000000e+00
     vertex -1.640444e-01 -1.054250e-01  0.000000e+00
   endloop
 endfacet
 facet normal -7.071068e-01 -7.071068e-01  0.000000e+00
   outer loop
     vertex -1.276978e-01 -1.473712e-01  0.000000e+00
     vertex -1.473712e-01 -1.276978e-01  1.000000e+00
     vertex -1.473712e-01 -1.276978e-01  0.000000e+00
   endloop
 endfacet
 facet normal -7.071068e-01 -7.071068e-01  0.000000e+00
   outer loop
     vertex -1.276978e-01 -1.473712e-01  0.000000e+00
     vertex -1.276978e-01 -1.473712e-01  1.000000e+00
     vertex -1.473712e-01 -1.276978e-01  1.000000e+00
   endloop
 endfacet
 facet normal -5.992777e-01 -8.005412e-01  0.000000e+00
   outer loop
     vertex -1.054250e-01 -1.640444e-01  0.000000e+00
     vertex -1.276978e-01 -1.473712e-01  1.000000e+00
     vertex -1.276978e-01 -1.473712e-01  0.000000e+00
   endloop
 endfacet
 facet normal -5.992777e-01 -8.005412e-01  0.000000e+00
   outer loop
     vertex -1.054250e-01 -1.640444e-01  0.000000e+00
     vertex -1.054250e-01 -1.640444e-01  1.000000e+00
     vertex -1.276978e-01 -1.473712e-01  1.000000e+00
   endloop
 endfacet
 facet normal -4.792490e-01 -8.776790e-01  0.000000e+00
   outer loop
     vertex -8.100593e-02 -1.773782e-01  0.000000e+00
     vertex -1.054250e-01 -1.640444e-01  1.000000e+00
     vertex -1.054250e-01 -1.640444e-01  0.000000e+00
   endloop
 endfacet
 facet normal -4.792490e-01 -8.776790e-01  0.000000e+00
   outer loop
     vertex -8.100593e-02 -1.773782e-01  0.000000e+00
     vertex -8.100593e-02 -1.773782e-01  1.000000e+00
     vertex -1.054250e-01 -1.640444e-01  1.000000e+00
   endloop
 endfacet
 facet normal -3.494642e-01 -9.369497e-01  0.000000e+00
   outer loop
     vertex -5.493785e-02 -1.871011e-01  0.000000e+00
     vertex -8.100593e-02 -1.773782e-01  1.000000e+00
     vertex -8.100593e-02 -1.773782e-01  0.000000e+00
   endloop
 endfacet
 facet normal -3.494642e-01 -9.369497e-01  0.000000e+00
   outer loop
     vertex -5.493785e-02 -1.871011e-01  0.000000e+00
     vertex -5.493785e-02 -1.871011e-01  1.000000e+00
     vertex -8.100593e-02 -1.773782e-01  1.000000e+00
   endloop
 endfacet
 facet normal -2.125653e-01 -9.771469e-01  0.000000e+00
   outer loop
     vertex -5.493785e-02 -1.871011e-01  0.000000e+00
     vertex -2.775139e-02 -1.930152e-01  1.000000e+00
     vertex -5.493785e-02 -1.871011e-01  1.000000e+00
   endloop
 endfacet
 facet normal -2.125653e-01 -9.771469e-01  0.000000e+00
   outer loop
     vertex -2.775139e-02 -1.930152e-01  0.000000e+00
     vertex -2.775139e-02 -1.930152e-01  1.000000e+00
     vertex -5.493785e-02 -1.871011e-01  0.000000e+00
   endloop
 endfacet
 facet normal -7.133918e-02 -9.974521e-01  0.000000e+00
   outer loop
     vertex -3.822105e-16 -1.950000e-01  0.000000e+00
     vertex -2.775139e-02 -1.930152e-01  1.000000e+00
     vertex -2.775139e-02 -1.930152e-01  0.000000e+00
   endloop
 endfacet
 facet normal -7.133918e-02 -9.974521e-01  0.000000e+00
   outer loop
     vertex -3.822105e-16 -1.950000e-01  0.000000e+00
     vertex -3.822105e-16 -1.950000e-01  1.000000e+00
     vertex -2.775139e-02 -1.930152e-01  1.000000e+00
   endloop
 endfacet
 facet normal  7.133918e-02 -9.974521e-01  0.000000e+00
   outer loop
     vertex  2.775139e-02 -1.930152e-01  0.000000e+00
     vertex -3.822105e-16 -1.950000e-01  1.000000e+00
     vertex -3.822105e-16 -1.950000e-01  0.000000e+00
   endloop
 endfacet
 facet normal  7.133918e-02 -9.974521e-01  0.000000e+00
   outer loop
     vertex  2.775139e-02 -1.930152e-01  0.000000e+00
     vertex  2.775139e-02 -1.930152e-01  1.000000e+00
     vertex -3.822105e-16 -1.950000e-01  1.000000e+00
   endloop
 endfacet
 facet normal  2.125653e-01 -9.771469e-01  0.000000e+00
   outer loop
     vertex  5.493785e-02 -1.871011e-01  0.000000e+00
     vertex  2.775139e-02 -1.930152e-01  1.000000e+00
     vertex  2.775139e-02 -1.930152e-01  0.000000e+00
   endloop
 endfacet
 facet normal  2.125653e-01 -9.771469e-01  0.000000e+00
   outer loop
     vertex  5.493785e-02 -1.871011e-01  0.000000e+00
     vertex  5.493785e-02 -1.871011e-01  1.000000e+00
     vertex  2.775139e-02 -1.930152e-01  1.000000e+00
   endloop
 endfacet
 facet normal  3.494642e-01 -9.369497e-01  0.000000e+00
   outer loop
     vertex  8.100593e-02 -1.773782e-01  0.000000e+00
     vertex  5.493785e-02 -1.871011e-01  1.000000e+00
     vertex  5.493785e-02 -1.871011e-01  0.000000e+00
   endloop
 endfacet
 facet normal  3.494642e-01 -9.369497e-01  0.000000e+00
   outer loop
     vertex  8.100593e-02 -1.773782e-01  0.000000e+00
     vertex  8.100593e-02 -1.773782e-01  1.000000e+00
     vertex  5.493785e-02 -1.871011e-01  1.000000e+00
   endloop
 endfacet
 facet normal  4.792490e-01 -8.776790e-01  0.000000e+00
   outer loop
     vertex  1.054250e-01 -1.640444e-01  0.000000e+00
     vertex  8.100593e-02 -1.773782e-01  1.000000e+00
     vertex  8.100593e-02 -1.773782e-01  0.000000e+00
   endloop
 endfacet
 facet normal  4.792490e-01 -8.776790e-01  0.000000e+00
   outer loop
     vertex  1.054250e-01 -1.640444e-01  0.000000e+00
     vertex  1.054250e-01 -1.640444e-01  1.000000e+00
     vertex  8.100593e-02 -1.773782e-01  1.000000e+00
   endloop
 endfacet
 facet normal  5.992777e-01 -8.005412e-01  0.000000e+00
   outer loop
     vertex  1.276978e-01 -1.473712e-01  0.000000e+00
     vertex  1.276978e-01 -1.473712e-01  1.000000e+00
     vertex  1.054250e-01 -1.640444e-01  1.000000e+00
   endloop
 endfacet
 facet normal  5.992777e-01 -8.005412e-01  0.000000e+00
   outer loop
     vertex  1.276978e-01 -1.473712e-01  0.000000e+00
     vertex  1.054250e-01 -1.640444e-01  1.000000e+00
     vertex  1.054250e-01 -1.640444e-01  0.000000e+00
   endloop
 endfacet
 facet normal  7.071068e-01 -7.071068e-01  0.000000e+00
   outer loop
     vertex  1.473712e-01 -1.276978e-01  0.000000e+00
     vertex  1.473712e-01 -1.276978e-01  1.000000e+00
     vertex  1.276978e-01 -1.473712e-01  1.000000e+00
   endloop
 endfacet
 facet normal  8.005412e-01 -5.992777e-01  0.000000e+00
   outer loop
     vertex  1.473712e-01 -1.276978e-01  0.000000e+00
     vertex  1.640444e-01 -1.054250e-01  1.000000e+00
     vertex  1.473712e-01 -1.276978e-01  1.000000e+00
   endloop
 endfacet
 facet normal  7.071068e-01 -7.071068e-01  0.000000e+00
   outer loop
     vertex  1.473712e-01 -1.276978e-01  0.000000e+00
     vertex  1.276978e-01 -1.473712e-01  1.000000e+00
     vertex  1.276978e-01 -1.473712e-01  0.000000e+00
   endloop
 endfacet
 facet normal  8.005412e-01 -5.992777e-01  0.000000e+00
   outer loop
     vertex  1.640444e-01 -1.054250e-01  0.000000e+00
     vertex  1.640444e-01 -1.054250e-01  1.000000e+00
     vertex  1.473712e-01 -1.276978e-01  0.000000e+00
   endloop
 endfacet
 facet normal  8.776790e-01 -4.792490e-01  0.000000e+00
   outer loop
     vertex  1.773782e-01 -8.100593e-02  0.000000e+00
     vertex  1.773782e-01 -8.100593e-02  1.000000e+00
     vertex  1.640444e-01 -1.054250e-01  1.000000e+00
   endloop
 endfacet
 facet normal  8.776790e-01 -4.792490e-01  0.000000e+00
   outer loop
     vertex  1.773782e-01 -8.100593e-02  0.000000e+00
     vertex  1.640444e-01 -1.054250e-01  1.000000e+00
     vertex  1.640444e-01 -1.054250e-01  0.000000e+00
   endloop
 endfacet
 facet normal  9.369497e-01 -3.494642e-01  0.000000e+00
   outer loop
     vertex  1.871011e-01 -5.493785e-02  0.000000e+00
     vertex  1.871011e-01 -5.493785e-02  1.000000e+00
     vertex  1.773782e-01 -8.100593e-02  1.000000e+00
   endloop
 endfacet
 facet normal  9.369497e-01 -3.494642e-01  0.000000e+00
   outer loop
     vertex  1.871011e-01 -5.493785e-02  0.000000e+00
     vertex  1.773782e-01 -8.100593e-02  1.000000e+00
     vertex  1.773782e-01 -8.100593e-02  0.000000e+00
   endloop
 endfacet
 facet normal  9.771469e-01 -2.125653e-01  0.000000e+00
   outer loop
     vertex  1.930152e-01 -2.775139e-02  0.000000e+00
     vertex  1.930152e-01 -2.775139e-02  1.000000e+00
     vertex  1.871011e-01 -5.493785e-02  1.000000e+00
   endloop
 endfacet
 facet normal  9.771469e-01 -2.125653e-01  0.000000e+00
   outer loop
     vertex  1.930152e-01 -2.775139e-02  0.000000e+00
     vertex  1.871011e-01 -5.493785e-02  1.000000e+00
     vertex  1.871011e-01 -5.493785e-02  0.000000e+00
   endloop
 endfacet
 facet normal  9.974521e-01 -7.133918e-02  0.000000e+00
   outer loop
     vertex  1.950000e-01  0.000000e+00  0.000000e+00
     vertex  1.950000e-01  0.000000e+00  1.000000e+00
     vertex  1.930152e-01 -2.775139e-02  1.000000e+00
   endloop
 endfacet
 facet normal  9.974521e-01 -7.133918e-02  0.000000e+00
   outer loop
     vertex  1.950000e-01  0.000000e+00  0.000000e+00
     vertex  1.930152e-01 -2.775139e-02  1.000000e+00
     vertex  1.930152e-01 -2.775139e-02  0.000000e+00
   endloop
 endfacet
 facet normal -9.948693e-01 -1.011683e-01  0.000000e+00
   outer loop
     vertex  9.305534e-02  1.912336e-02  0.000000e+00
     vertex  9.500000e-02  0.000000e+00  0.000000e+00
     vertex  9.500000e-02  0.000000e+00  1.000000e+00
   endloop
 endfacet
 facet normal -9.948693e-01 -1.011683e-01  0.000000e+00
   outer loop
     vertex  9.305534e-02  1.912336e-02  0.000000e+00
     vertex  9.500000e-02  0.000000e+00  1.000000e+00
     vertex  9.305534e-02  1.912336e-02  1.000000e+00
   endloop
 endfacet
 facet normal -9.541393e-01 -2.993631e-01  0.000000e+00
   outer loop
     vertex  8.730099e-02  3.746381e-02  0.000000e+00
     vertex  9.305534e-02  1.912336e-02  1.000000e+00
     vertex  8.730099e-02  3.746381e-02  1.000000e+00
   endloop
 endfacet
 facet normal -9.541393e-01 -2.993631e-01  0.000000e+00
   outer loop
     vertex  8.730099e-02  3.746381e-02  0.000000e+00
     vertex  9.305534e-02  1.912336e-02  0.000000e+00
     vertex  9.305534e-02  1.912336e-02  1.000000e+00
   endloop
 endfacet
 facet normal -8.743466e-01 -4.853020e-01  0.000000e+00
   outer loop
     vertex  7.797253e-02  5.427048e-02  0.000000e+00
     vertex  8.730099e-02  3.746381e-02  1.000000e+00
     vertex  7.797253e-02  5.427048e-02  1.000000e+00
   endloop
 endfacet
 facet normal -8.743466e-01 -4.853020e-01  0.000000e+00
   outer loop
     vertex  7.797253e-02  5.427048e-02  0.000000e+00
     vertex  8.730099e-02  3.746381e-02  0.000000e+00
     vertex  8.730099e-02  3.746381e-02  1.000000e+00
   endloop
 endfacet
 facet normal -7.587581e-01 -6.513725e-01  0.000000e+00
   outer loop
     vertex  6.545186e-02  6.885531e-02  0.000000e+00
     vertex  7.797253e-02  5.427048e-02  1.000000e+00
     vertex  6.545186e-02  6.885531e-02  1.000000e+00
   endloop
 endfacet
 facet normal -7.587581e-01 -6.513725e-01  0.000000e+00
   outer loop
     vertex  6.545186e-02  6.885531e-02  0.000000e+00
     vertex  7.797253e-02  5.427048e-02  0.000000e+00
     vertex  7.797253e-02  5.427048e-02  1.000000e+00
   endloop
 endfacet
 facet normal -6.121060e-01 -7.907757e-01  0.000000e+00
   outer loop
     vertex  5.025158e-02  8.062120e-02  0.000000e+00
     vertex  6.545186e-02  6.885531e-02  1.000000e+00
     vertex  5.025158e-02  8.062120e-02  1.000000e+00
   endloop
 endfacet
 facet normal -6.121060e-01 -7.907757e-01  0.000000e+00
   outer loop
     vertex  5.025158e-02  8.062120e-02  0.000000e+00
     vertex  6.545186e-02  6.885531e-02  0.000000e+00
     vertex  6.545186e-02  6.885531e-02  1.000000e+00
   endloop
 endfacet
 facet normal -4.403942e-01 -8.978045e-01  0.000000e+00
   outer loop
     vertex  3.299400e-02  8.908645e-02  0.000000e+00
     vertex  5.025158e-02  8.062120e-02  1.000000e+00
     vertex  3.299400e-02  8.908645e-02  1.000000e+00
   endloop
 endfacet
 facet normal -4.403942e-01 -8.978045e-01  0.000000e+00
   outer loop
     vertex  3.299400e-02  8.908645e-02  0.000000e+00
     vertex  5.025158e-02  8.062120e-02  0.000000e+00
     vertex  5.025158e-02  8.062120e-02  1.000000e+00
   endloop
 endfacet
 facet normal -2.506525e-01 -9.680771e-01  0.000000e+00
   outer loop
     vertex  1.438564e-02  9.390449e-02  0.000000e+00
     vertex  3.299400e-02  8.908645e-02  1.000000e+00
     vertex  1.438564e-02  9.390449e-02  1.000000e+00
   endloop
 endfacet
 facet normal -2.506525e-01 -9.680771e-01  0.000000e+00
   outer loop
     vertex  1.438564e-02  9.390449e-02  0.000000e+00
     vertex  3.299400e-02  8.908645e-02  0.000000e+00
     vertex  3.299400e-02  8.908645e-02  1.000000e+00
   endloop
 endfacet
 facet normal -5.064917e-02 -9.987165e-01  0.000000e+00
   outer loop
     vertex -4.811671e-03  9.487807e-02  0.000000e+00
     vertex  1.438564e-02  9.390449e-02  1.000000e+00
     vertex -4.811671e-03  9.487807e-02  1.000000e+00
   endloop
 endfacet
 facet normal -5.064917e-02 -9.987165e-01  0.000000e+00
   outer loop
     vertex -4.811671e-03  9.487807e-02  0.000000e+00
     vertex  1.438564e-02  9.390449e-02  0.000000e+00
     vertex  1.438564e-02  9.390449e-02  1.000000e+00
   endloop
 endfacet
 facet normal  1.514278e-01 -9.884683e-01  0.000000e+00
   outer loop
     vertex -2.381199e-02  9.196733e-02  0.000000e+00
     vertex -4.811671e-03  9.487807e-02  0.000000e+00
     vertex -4.811671e-03  9.487807e-02  1.000000e+00
   endloop
 endfacet
 facet normal  1.514278e-01 -9.884683e-01  0.000000e+00
   outer loop
     vertex -2.381199e-02  9.196733e-02  0.000000e+00
     vertex -4.811671e-03  9.487807e-02  1.000000e+00
     vertex -2.381199e-02  9.196733e-02  1.000000e+00
   endloop
 endfacet
 facet normal  3.473053e-01 -9.377521e-01  0.000000e+00
   outer loop
     vertex -4.183744e-02  8.529143e-02  0.000000e+00
     vertex -2.381199e-02  9.196733e-02  0.000000e+00
     vertex -2.381199e-02  9.196733e-02  1.000000e+00
   endloop
 endfacet
 facet normal  3.473053e-01 -9.377521e-01  0.000000e+00
   outer loop
     vertex -4.183744e-02  8.529143e-02  0.000000e+00
     vertex -2.381199e-02  9.196733e-02  1.000000e+00
     vertex -4.183744e-02  8.529143e-02  1.000000e+00
   endloop
 endfacet
 facet normal  5.289640e-01 -8.486443e-01  0.000000e+00
   outer loop
     vertex -4.183744e-02  8.529143e-02  0.000000e+00
     vertex -4.183744e-02  8.529143e-02  1.000000e+00
     vertex -5.815007e-02  7.512370e-02  1.000000e+00
   endloop
 endfacet
 facet normal  5.289640e-01 -8.486443e-01  0.000000e+00
   outer loop
     vertex -5.815007e-02  7.512370e-02  0.000000e+00
     vertex -4.183744e-02  8.529143e-02  0.000000e+00
     vertex -5.815007e-02  7.512370e-02  1.000000e+00
   endloop
 endfacet
 facet normal  6.889669e-01 -7.247928e-01  0.000000e+00
   outer loop
     vertex -7.208202e-02  6.188039e-02  0.000000e+00
     vertex -5.815007e-02  7.512370e-02  1.000000e+00
     vertex -7.208202e-02  6.188039e-02  1.000000e+00
   endloop
 endfacet
 facet normal  8.207634e-01 -5.712682e-01  0.000000e+00
   outer loop
     vertex -7.208202e-02  6.188039e-02  0.000000e+00
     vertex -7.208202e-02  6.188039e-02  1.000000e+00
     vertex -8.306293e-02  4.610369e-02  1.000000e+00
   endloop
 endfacet
 facet normal  6.889669e-01 -7.247928e-01  0.000000e+00
   outer loop
     vertex -7.208202e-02  6.188039e-02  0.000000e+00
     vertex -5.815007e-02  7.512370e-02  0.000000e+00
     vertex -5.815007e-02  7.512370e-02  1.000000e+00
   endloop
 endfacet
 facet normal  8.207634e-01 -5.712682e-01  0.000000e+00
   outer loop
     vertex -8.306293e-02  4.610369e-02  0.000000e+00
     vertex -7.208202e-02  6.188039e-02  0.000000e+00
     vertex -8.306293e-02  4.610369e-02  1.000000e+00
   endloop
 endfacet
 facet normal  9.189578e-01 -3.943559e-01  0.000000e+00
   outer loop
     vertex -9.064323e-02  2.843950e-02  0.000000e+00
     vertex -8.306293e-02  4.610369e-02  0.000000e+00
     vertex -8.306293e-02  4.610369e-02  1.000000e+00
   endloop
 endfacet
 facet normal  9.189578e-01 -3.943559e-01  0.000000e+00
   outer loop
     vertex -9.064323e-02  2.843950e-02  0.000000e+00
     vertex -8.306293e-02  4.610369e-02  1.000000e+00
     vertex -9.064323e-02  2.843950e-02  1.000000e+00
   endloop
 endfacet
 facet normal  9.795299e-01 -2.012985e-01  0.000000e+00
   outer loop
     vertex -9.451259e-02  9.610991e-03  0.000000e+00
     vertex -9.064323e-02  2.843950e-02  1.000000e+00
     vertex -9.451259e-02  9.610991e-03  1.000000e+00
   endloop
 endfacet
 facet normal  9.795299e-01 -2.012985e-01  0.000000e+00
   outer loop
     vertex -9.451259e-02  9.610991e-03  0.000000e+00
     vertex -9.064323e-02  2.843950e-02  0.000000e+00
     vertex -9.064323e-02  2.843950e-02  1.000000e+00
   endloop
 endfacet
 facet normal  1.000000e+00  0.000000e+00  0.000000e+00
   outer loop
     vertex -9.451259e-02 -9.610991e-03  0.000000e+00
     vertex -9.451259e-02  9.610991e-03  1.000000e+00
     vertex -9.451259e-02 -9.610991e-03  1.000000e+00
   endloop
 endfacet
 facet normal  9.795299e-01  2.012985e-01 -0.000000e+00
   outer loop
     vertex -9.451259e-02 -9.610991e-03  0.000000e+00
     vertex -9.451259e-02 -9.610991e-03  1.000000e+00
     vertex -9.064323e-02 -2.843950e-02  1.000000e+00
   endloop
 endfacet
 facet normal  1.000000e+00  0.000000e+00  0.000000e+00
   outer loop
     vertex -9.451259e-02 -9.610991e-03  0.000000e+00
     vertex -9.451259e-02  9.610991e-03  0.000000e+00
     vertex -9.451259e-02  9.610991e-03  1.000000e+00
   endloop
 endfacet
 facet normal  9.795299e-01  2.012985e-01 -0.000000e+00
   outer loop
     vertex -9.064323e-02 -2.843950e-02  0.000000e+00
     vertex -9.451259e-02 -9.610991e-03  0.000000e+00
     vertex -9.064323e-02 -2.843950e-02  1.000000e+00
   endloop
 endfacet
 facet normal  9.189578e-01  3.943559e-01 -0.000000e+00
   outer loop
     vertex -8.306293e-02 -4.610369e-02  0.000000e+00
     vertex -9.064323e-02 -2.843950e-02  1.000000e+00
     vertex -8.306293e-02 -4.610369e-02  1.000000e+00
   endloop
 endfacet
 facet normal  9.189578e-01  3.943559e-01  0.000000e+00
   outer loop
     vertex -8.306293e-02 -4.610369e-02  0.000000e+00
     vertex -9.064323e-02 -2.843950e-02  0.000000e+00
     vertex -9.064323e-02 -2.843950e-02  1.000000e+00
   endloop
 endfacet
 facet normal  8.207634e-01  5.712682e-01 -0.000000e+00
   outer loop
     vertex -7.208202e-02 -6.188039e-02  0.000000e+00
     vertex -8.306293e-02 -4.610369e-02  1.000000e+00
     vertex -7.208202e-02 -6.188039e-02  1.000000e+00
   endloop
 endfacet
 facet normal  8.207634e-01  5.712682e-01  0.000000e+00
   outer loop
     vertex -7.208202e-02 -6.188039e-02  0.000000e+00
     vertex -8.306293e-02 -4.610369e-02  0.000000e+00
     vertex -8.306293e-02 -4.610369e-02  1.000000e+00
   endloop
 endfacet
 facet normal  6.889669e-01  7.247928e-01 -0.000000e+00
   outer loop
     vertex -5.815007e-02 -7.512370e-02  0.000000e+00
     vertex -7.208202e-02 -6.188039e-02  1.000000e+00
     vertex -5.815007e-02 -7.512370e-02  1.000000e+00
   endloop
 endfacet
 facet normal  6.889669e-01  7.247928e-01  0.000000e+00
   outer loop
     vertex -5.815007e-02 -7.512370e-02  0.000000e+00
     vertex -7.208202e-02 -6.188039e-02  0.000000e+00
     vertex -7.208202e-02 -6.188039e-02  1.000000e+00
   endloop
 endfacet
 facet normal  5.289640e-01  8.486443e-01 -0.000000e+00
   outer loop
     vertex -4.183744e-02 -8.529143e-02  0.000000e+00
     vertex -5.815007e-02 -7.512370e-02  1.000000e+00
     vertex -4.183744e-02 -8.529143e-02  1.000000e+00
   endloop
 endfacet
 facet normal  5.289640e-01  8.486443e-01  0.000000e+00
   outer loop
     vertex -4.183744e-02 -8.529143e-02  0.000000e+00
     vertex -5.815007e-02 -7.512370e-02  0.000000e+00
     vertex -5.815007e-02 -7.512370e-02  1.000000e+00
   endloop
 endfacet
 facet normal  3.473053e-01  9.377521e-01 -0.000000e+00
   outer loop
     vertex -2.381199e-02 -9.196733e-02  0.000000e+00
     vertex -4.183744e-02 -8.529143e-02  1.000000e+00
     vertex -2.381199e-02 -9.196733e-02  1.000000e+00
   endloop
 endfacet
 facet normal  3.473053e-01  9.377521e-01  0.000000e+00
   outer loop
     vertex -2.381199e-02 -9.196733e-02  0.000000e+00
     vertex -4.183744e-02 -8.529143e-02  0.000000e+00
     vertex -4.183744e-02 -8.529143e-02  1.000000e+00
   endloop
 endfacet
 facet normal  1.514278e-01  9.884683e-01 -0.000000e+00
   outer loop
     vertex -4.811671e-03 -9.487807e-02  0.000000e+00
     vertex -2.381199e-02 -9.196733e-02  1.000000e+00
     vertex -4.811671e-03 -9.487807e-02  1.000000e+00
   endloop
 endfacet
 facet normal  1.514278e-01  9.884683e-01  0.000000e+00
   outer loop
     vertex -4.811671e-03 -9.487807e-02  0.000000e+00
     vertex -2.381199e-02 -9.196733e-02  0.000000e+00
     vertex -2.381199e-02 -9.196733e-02  1.000000e+00
   endloop
 endfacet
 facet normal -5.064917e-02  9.987165e-01  0.000000e+00
   outer loop
     vertex  1.438564e-02 -9.390449e-02  0.000000e+00
     vertex -4.811671e-03 -9.487807e-02  1.000000e+00
     vertex  1.438564e-02 -9.390449e-02  1.000000e+00
   endloop
 endfacet
 facet normal -2.506525e-01  9.680771e-01  0.000000e+00
   outer loop
     vertex  1.438564e-02 -9.390449e-02  0.000000e+00
     vertex  1.438564e-02 -9.390449e-02  1.000000e+00
     vertex  3.299400e-02 -8.908645e-02  1.000000e+00
   endloop
 endfacet
 facet normal -5.064917e-02  9.987165e-01  0.000000e+00
   outer loop
     vertex  1.438564e-02 -9.390449e-02  0.000000e+00
     vertex -4.811671e-03 -9.487807e-02  0.000000e+00
     vertex -4.811671e-03 -9.487807e-02  1.000000e+00
   endloop
 endfacet
 facet normal -2.506525e-01  9.680771e-01  0.000000e+00
   outer loop
     vertex  3.299400e-02 -8.908645e-02  0.000000e+00
     vertex  1.438564e-02 -9.390449e-02  0.000000e+00
     vertex  3.299400e-02 -8.908645e-02  1.000000e+00
   endloop
 endfacet
 facet normal -4.403942e-01  8.978045e-01  0.000000e+00
   outer loop
     vertex  5.025158e-02 -8.062120e-02  0.000000e+00
     vertex  3.299400e-02 -8.908645e-02  1.000000e+00
     vertex  5.025158e-02 -8.062120e-02  1.000000e+00
   endloop
 endfacet
 facet normal -4.403942e-01  8.978045e-01  0.000000e+00
   outer loop
     vertex  5.025158e-02 -8.062120e-02  0.000000e+00
     vertex  3.299400e-02 -8.908645e-02  0.000000e+00
     vertex  3.299400e-02 -8.908645e-02  1.000000e+00
   endloop
 endfacet
 facet normal -6.121060e-01  7.907757e-01  0.000000e+00
   outer loop
     vertex  6.545186e-02 -6.885531e-02  0.000000e+00
     vertex  5.025158e-02 -8.062120e-02  1.000000e+00
     vertex  6.545186e-02 -6.885531e-02  1.000000e+00
   endloop
 endfacet
 facet normal -6.121060e-01  7.907757e-01  0.000000e+00
   outer loop
     vertex  6.545186e-02 -6.885531e-02  0.000000e+00
     vertex  5.025158e-02 -8.062120e-02  0.000000e+00
     vertex  5.025158e-02 -8.062120e-02  1.000000e+00
   endloop
 endfacet
 facet normal -7.587581e-01  6.513725e-01  0.000000e+00
   outer loop
     vertex  7.797253e-02 -5.427048e-02  0.000000e+00
     vertex  6.545186e-02 -6.885531e-02  1.000000e+00
     vertex  7.797253e-02 -5.427048e-02  1.000000e+00
   endloop
 endfacet
 facet normal -7.587581e-01  6.513725e-01  0.000000e+00
   outer loop
     vertex  7.797253e-02 -5.427048e-02  0.000000e+00
     vertex  6.545186e-02 -6.885531e-02  0.000000e+00
     vertex  6.545186e-02 -6.885531e-02  1.000000e+00
   endloop
 endfacet
 facet normal -8.743466e-01  4.853020e-01  0.000000e+00
   outer loop
     vertex  8.730099e-02 -3.746381e-02  0.000000e+00
     vertex  7.797253e-02 -5.427048e-02  1.000000e+00
     vertex  8.730099e-02 -3.746381e-02  1.000000e+00
   endloop
 endfacet
 facet normal -8.743466e-01  4.853020e-01  0.000000e+00
   outer loop
     vertex  8.730099e-02 -3.746381e-02  0.000000e+00
     vertex  7.797253e-02 -5.427048e-02  0.000000e+00
     vertex  7.797253e-02 -5.427048e-02  1.000000e+00
   endloop
 endfacet
 facet normal -9.541393e-01  2.993631e-01  0.000000e+00
   outer loop
     vertex  9.305534e-02 -1.912336e-02  0.000000e+00
     vertex  8.730099e-02 -3.746381e-02  1.000000e+00
     vertex  9.305534e-02 -1.912336e-02  1.000000e+00
   endloop
 endfacet
 facet normal -9.541393e-01  2.993631e-01  0.000000e+00
   outer loop
     vertex  9.305534e-02 -1.912336e-02  0.000000e+00
     vertex  8.730099e-02 -3.746381e-02  0.000000e+00
     vertex  8.730099e-02 -3.746381e-02  1.000000e+00
   endloop
 endfacet
 facet normal -9.948693e-01  1.011683e-01  0.000000e+00
   outer loop
     vertex  9.500000e-02  0.000000e+00  0.000000e+00
     vertex  9.305534e-02 -1.912336e-02  1.000000e+00
     vertex  9.500000e-02  0.000000e+00  1.000000e+00
   endloop
 endfacet
 facet normal -9.948693e-01  1.011683e-01  0.000000e+00
   outer loop
     vertex  9.500000e-02  0.000000e+00  0.000000e+00
     vertex  9.305534e-02 -1.912336e-02  0.000000e+00
     vertex  9.305534e-02 -1.912336e-02  1.000000e+00
   endloop
 endfacet
 facet normal  0.000000e+00  0.000000e+00 -1.000000e+00
   outer loop
     vertex -7.208202e-02 -6.188039e-02  0.000000e+00
     vertex -1.473712e-01 -1.276978e-01  0.000000e+00
     vertex -1.640444e-01 -1.054250e-01  0.000000e+00
   endloop
 endfacet
 facet normal  0.000000e+00  0.000000e+00 -1.000000e+00
   outer loop
     vertex -7.208202e-02 -6.188039e-02  0.000000e+00
     vertex -1.276978e-01 -1.473712e-01  0.000000e+00
     vertex -1.473712e-01 -1.276978e-01  0.000000e+00
   endloop
 endfacet
 facet normal  0.000000e+00  0.000000e+00 -1.000000e+00
   outer loop
     vertex -5.815007e-02 -7.512370e-02  0.000000e+00
     vertex -1.054250e-01 -1.640444e-01  0.000000e+00
     vertex -1.276978e-01 -1.473712e-01  0.000000e+00
   endloop
 endfacet
 facet normal -0.000000e+00  0.000000e+00 -1.000000e+00
   outer loop
     vertex -5.815007e-02 -7.512370e-02  0.000000e+00
     vertex -1.276978e-01 -1.473712e-01  0.000000e+00
     vertex -7.208202e-02 -6.188039e-02  0.000000e+00
   endloop
 endfacet
 facet normal  0.000000e+00  0.000000e+00 -1.000000e+00
   outer loop
     vertex -8.306293e-02 -4.610369e-02  0.000000e+00
     vertex -1.640444e-01 -1.054250e-01  0.000000e+00
     vertex -1.773782e-01 -8.100593e-02  0.000000e+00
   endloop
 endfacet
 facet normal  0.000000e+00 -0.000000e+00 -1.000000e+00
   outer loop
     vertex -8.306293e-02 -4.610369e-02  0.000000e+00
     vertex -7.208202e-02 -6.188039e-02  0.000000e+00
     vertex -1.640444e-01 -1.054250e-01  0.000000e+00
   endloop
 endfacet
 facet normal -0.000000e+00  0.000000e+00 -1.000000e+00
   outer loop
     vertex -4.183744e-02 -8.529143e-02  0.000000e+00
     vertex -1.054250e-01 -1.640444e-01  0.000000e+00
     vertex -5.815007e-02 -7.512370e-02  0.000000e+00
   endloop
 endfacet
 facet normal  0.000000e+00  0.000000e+00 -1.000000e+00
   outer loop
     vertex -4.183744e-02 -8.529143e-02  0.000000e+00
     vertex -8.100593e-02 -1.773782e-01  0.000000e+00
     vertex -1.054250e-01 -1.640444e-01  0.000000e+00
   endloop
 endfacet
 facet normal  0.000000e+00  0.000000e+00 -1.000000e+00
   outer loop
     vertex -4.183744e-02 -8.529143e-02  0.000000e+00
     vertex -5.493785e-02 -1.871011e-01  0.000000e+00
     vertex -8.100593e-02 -1.773782e-01  0.000000e+00
   endloop
 endfacet
 facet normal  0.000000e+00 -0.000000e+00 -1.000000e+00
   outer loop
     vertex -9.064323e-02 -2.843950e-02  0.000000e+00
     vertex -8.306293e-02 -4.610369e-02  0.000000e+00
     vertex -1.773782e-01 -8.100593e-02  0.000000e+00
   endloop
 endfacet
 facet normal -0.000000e+00  0.000000e+00 -1.000000e+00
   outer loop
     vertex -9.064323e-02 -2.843950e-02  0.000000e+00
     vertex -1.871011e-01 -5.493785e-02  0.000000e+00
     vertex -1.930152e-01 -2.775139e-02  0.000000e+00
   endloop
 endfacet
 facet normal  0.000000e+00  0.000000e+00 -1.000000e+00
   outer loop
     vertex -9.064323e-02 -2.843950e-02  0.000000e+00
     vertex -1.773782e-01 -8.100593e-02  0.000000e+00
     vertex -1.871011e-01 -5.493785e-02  0.000000e+00
   endloop
 endfacet
 facet normal -0.000000e+00  0.000000e+00 -1.000000e+00
   outer loop
     vertex -2.381199e-02 -9.196733e-02  0.000000e+00
     vertex -5.493785e-02 -1.871011e-01  0.000000e+00
     vertex -4.183744e-02 -8.529143e-02  0.000000e+00
   endloop
 endfacet
 facet normal  0.000000e+00  0.000000e+00 -1.000000e+00
   outer loop
     vertex -2.381199e-02 -9.196733e-02  0.000000e+00
     vertex -2.775139e-02 -1.930152e-01  0.000000e+00
     vertex -5.493785e-02 -1.871011e-01  0.000000e+00
   endloop
 endfacet
 facet normal -0.000000e+00  0.000000e+00 -1.000000e+00
   outer loop
     vertex -9.451259e-02 -9.610991e-03  0.000000e+00
     vertex -1.930152e-01 -2.775139e-02  0.000000e+00
     vertex -1.950000e-01  1.970754e-16  0.000000e+00
   endloop
 endfacet
 facet normal  0.000000e+00 -0.000000e+00 -1.000000e+00
   outer loop
     vertex -9.451259e-02 -9.610991e-03  0.000000e+00
     vertex -9.064323e-02 -2.843950e-02  0.000000e+00
     vertex -1.930152e-01 -2.775139e-02  0.000000e+00
   endloop
 endfacet
 facet normal -0.000000e+00  0.000000e+00 -1.000000e+00
   outer loop
     vertex -4.811671e-03 -9.487807e-02  0.000000e+00
     vertex -2.775139e-02 -1.930152e-01  0.000000e+00
     vertex -2.381199e-02 -9.196733e-02  0.000000e+00
   endloop
 endfacet
 facet normal  0.000000e+00 -0.000000e+00 -1.000000e+00
   outer loop
     vertex -4.811671e-03 -9.487807e-02  0.000000e+00
     vertex -3.822105e-16 -1.950000e-01  0.000000e+00
     vertex -2.775139e-02 -1.930152e-01  0.000000e+00
   endloop
 endfacet
 facet normal  0.000000e+00 -0.000000e+00 -1.000000e+00
   outer loop
     vertex -9.451259e-02  9.610991e-03  0.000000e+00
     vertex -9.451259e-02 -9.610991e-03  0.000000e+00
     vertex -1.950000e-01  1.970754e-16  0.000000e+00
   endloop
 endfacet
 facet normal -0.000000e+00  0.000000e+00 -1.000000e+00
   outer loop
     vertex -9.451259e-02  9.610991e-03  0.000000e+00
     vertex -1.950000e-01  1.970754e-16  0.000000e+00
     vertex -1.930152e-01  2.775139e-02  0.000000e+00
   endloop
 endfacet
 facet normal  0.000000e+00  0.000000e+00 -1.000000e+00
   outer loop
     vertex  1.438564e-02 -9.390449e-02  0.000000e+00
     vertex -3.822105e-16 -1.950000e-01  0.000000e+00
     vertex -4.811671e-03 -9.487807e-02  0.000000e+00
   endloop
 endfacet
 facet normal  0.000000e+00 -0.000000e+00 -1.000000e+00
   outer loop
     vertex  1.438564e-02 -9.390449e-02  0.000000e+00
     vertex  2.775139e-02 -1.930152e-01  0.000000e+00
     vertex -3.822105e-16 -1.950000e-01  0.000000e+00
   endloop
 endfacet
 facet normal  0.000000e+00  0.000000e+00 -1.000000e+00
   outer loop
     vertex  1.438564e-02 -9.390449e-02  0.000000e+00
     vertex  5.493785e-02 -1.871011e-01  0.000000e+00
     vertex  2.775139e-02 -1.930152e-01  0.000000e+00
   endloop
 endfacet
 facet normal  0.000000e+00  0.000000e+00 -1.000000e+00
   outer loop
     vertex -9.064323e-02  2.843950e-02  0.000000e+00
     vertex -1.871011e-01  5.493785e-02  0.000000e+00
     vertex -1.773782e-01  8.100593e-02  0.000000e+00
   endloop
 endfacet
 facet normal -0.000000e+00  0.000000e+00 -1.000000e+00
   outer loop
     vertex -9.064323e-02  2.843950e-02  0.000000e+00
     vertex -1.930152e-01  2.775139e-02  0.000000e+00
     vertex -1.871011e-01  5.493785e-02  0.000000e+00
   endloop
 endfacet
 facet normal  0.000000e+00  0.000000e+00 -1.000000e+00
   outer loop
     vertex -9.064323e-02  2.843950e-02  0.000000e+00
     vertex -9.451259e-02  9.610991e-03  0.000000e+00
     vertex -1.930152e-01  2.775139e-02  0.000000e+00
   endloop
 endfacet
 facet normal  0.000000e+00  0.000000e+00 -1.000000e+00
   outer loop
     vertex  3.299400e-02 -8.908645e-02  0.000000e+00
     vertex  8.100593e-02 -1.773782e-01  0.000000e+00
     vertex  5.493785e-02 -1.871011e-01  0.000000e+00
   endloop
 endfacet
 facet normal  0.000000e+00 -0.000000e+00 -1.000000e+00
   outer loop
     vertex  3.299400e-02 -8.908645e-02  0.000000e+00
     vertex  5.493785e-02 -1.871011e-01  0.000000e+00
     vertex  1.438564e-02 -9.390449e-02  0.000000e+00
   endloop
 endfacet
 facet normal  0.000000e+00  0.000000e+00 -1.000000e+00
   outer loop
     vertex -8.306293e-02  4.610369e-02  0.000000e+00
     vertex -1.773782e-01  8.100593e-02  0.000000e+00
     vertex -1.640444e-01  1.054250e-01  0.000000e+00
   endloop
 endfacet
 facet normal -0.000000e+00  0.000000e+00 -1.000000e+00
   outer loop
     vertex -8.306293e-02  4.610369e-02  0.000000e+00
     vertex -9.064323e-02  2.843950e-02  0.000000e+00
     vertex -1.773782e-01  8.100593e-02  0.000000e+00
   endloop
 endfacet
 facet normal  0.000000e+00 -0.000000e+00 -1.000000e+00
   outer loop
     vertex  5.025158e-02 -8.062120e-02  0.000000e+00
     vertex  8.100593e-02 -1.773782e-01  0.000000e+00
     vertex  3.299400e-02 -8.908645e-02  0.000000e+00
   endloop
 endfacet
 facet normal  0.000000e+00  0.000000e+00 -1.000000e+00
   outer loop
     vertex  5.025158e-02 -8.062120e-02  0.000000e+00
     vertex  1.054250e-01 -1.640444e-01  0.000000e+00
     vertex  8.100593e-02 -1.773782e-01  0.000000e+00
   endloop
 endfacet
 facet normal -0.000000e+00  0.000000e+00 -1.000000e+00
   outer loop
     vertex  1.276978e-01 -1.473712e-01  0.000000e+00
     vertex  1.054250e-01 -1.640444e-01  0.000000e+00
     vertex  5.025158e-02 -8.062120e-02  0.000000e+00
   endloop
 endfacet
 facet normal -0.000000e+00  0.000000e+00 -1.000000e+00
   outer loop
     vertex -7.208202e-02  6.188039e-02  0.000000e+00
     vertex -8.306293e-02  4.610369e-02  0.000000e+00
     vertex -1.640444e-01  1.054250e-01  0.000000e+00
   endloop
 endfacet
 facet normal  0.000000e+00  0.000000e+00 -1.000000e+00
   outer loop
     vertex -7.208202e-02  6.188039e-02  0.000000e+00
     vertex -1.640444e-01  1.054250e-01  0.000000e+00
     vertex -1.473712e-01  1.276978e-01  0.000000e+00
   endloop
 endfacet
 facet normal  0.000000e+00 -0.000000e+00 -1.000000e+00
   outer loop
     vertex  6.545186e-02 -6.885531e-02  0.000000e+00
     vertex  1.276978e-01 -1.473712e-01  0.000000e+00
     vertex  5.025158e-02 -8.062120e-02  0.000000e+00
   endloop
 endfacet
 facet normal -0.000000e+00  0.000000e+00 -1.000000e+00
   outer loop
     vertex  1.473712e-01 -1.276978e-01  0.000000e+00
     vertex  1.276978e-01 -1.473712e-01  0.000000e+00
     vertex  6.545186e-02 -6.885531e-02  0.000000e+00
   endloop
 endfacet
 facet normal  0.000000e+00 -0.000000e+00 -1.000000e+00
   outer loop
     vertex -1.276978e-01  1.473712e-01  0.000000e+00
     vertex -7.208202e-02  6.188039e-02  0.000000e+00
     vertex -1.473712e-01  1.276978e-01  0.000000e+00
   endloop
 endfacet
 facet normal  0.000000e+00  0.000000e+00 -1.000000e+00
   outer loop
     vertex -1.276978e-01  1.473712e-01  0.000000e+00
     vertex -5.815007e-02  7.512370e-02  0.000000e+00
     vertex -7.208202e-02  6.188039e-02  0.000000e+00
   endloop
 endfacet
 facet normal  0.000000e+00 -0.000000e+00 -1.000000e+00
   outer loop
     vertex  7.797253e-02 -5.427048e-02  0.000000e+00
     vertex  1.473712e-01 -1.276978e-01  0.000000e+00
     vertex  6.545186e-02 -6.885531e-02  0.000000e+00
   endloop
 endfacet
 facet normal -0.000000e+00  0.000000e+00 -1.000000e+00
   outer loop
     vertex  1.640444e-01 -1.054250e-01  0.000000e+00
     vertex  1.473712e-01 -1.276978e-01  0.000000e+00
     vertex  7.797253e-02 -5.427048e-02  0.000000e+00
   endloop
 endfacet
 facet normal  0.000000e+00  0.000000e+00 -1.000000e+00
   outer loop
     vertex  1.640444e-01 -1.054250e-01  0.000000e+00
     vertex  7.797253e-02 -5.427048e-02  0.000000e+00
     vertex  8.730099e-02 -3.746381e-02  0.000000e+00
   endloop
 endfacet
 facet normal  0.000000e+00 -0.000000e+00 -1.000000e+00
   outer loop
     vertex -1.054250e-01  1.640444e-01  0.000000e+00
     vertex -5.815007e-02  7.512370e-02  0.000000e+00
     vertex -1.276978e-01  1.473712e-01  0.000000e+00
   endloop
 endfacet
 facet normal  0.000000e+00  0.000000e+00 -1.000000e+00
   outer loop
     vertex -1.054250e-01  1.640444e-01  0.000000e+00
     vertex -4.183744e-02  8.529143e-02  0.000000e+00
     vertex -5.815007e-02  7.512370e-02  0.000000e+00
   endloop
 endfacet
 facet normal -0.000000e+00  0.000000e+00 -1.000000e+00
   outer loop
     vertex  1.773782e-01 -8.100593e-02  0.000000e+00
     vertex  1.640444e-01 -1.054250e-01  0.000000e+00
     vertex  8.730099e-02 -3.746381e-02  0.000000e+00
   endloop
 endfacet
 facet normal  0.000000e+00 -0.000000e+00 -1.000000e+00
   outer loop
     vertex -8.100593e-02  1.773782e-01  0.000000e+00
     vertex -4.183744e-02  8.529143e-02  0.000000e+00
     vertex -1.054250e-01  1.640444e-01  0.000000e+00
   endloop
 endfacet
 facet normal  0.000000e+00  0.000000e+00 -1.000000e+00
   outer loop
     vertex  1.871011e-01 -5.493785e-02  0.000000e+00
     vertex  8.730099e-02 -3.746381e-02  0.000000e+00
     vertex  9.305534e-02 -1.912336e-02  0.000000e+00
   endloop
 endfacet
 facet normal -0.000000e+00  0.000000e+00 -1.000000e+00
   outer loop
     vertex  1.871011e-01 -5.493785e-02  0.000000e+00
     vertex  1.773782e-01 -8.100593e-02  0.000000e+00
     vertex  8.730099e-02 -3.746381e-02  0.000000e+00
   endloop
 endfacet
 facet normal  0.000000e+00  0.000000e+00 -1.000000e+00
   outer loop
     vertex -5.493785e-02  1.871011e-01  0.000000e+00
     vertex -2.381199e-02  9.196733e-02  0.000000e+00
     vertex -4.183744e-02  8.529143e-02  0.000000e+00
   endloop
 endfacet
 facet normal  0.000000e+00 -0.000000e+00 -1.000000e+00
   outer loop
     vertex -5.493785e-02  1.871011e-01  0.000000e+00
     vertex -4.183744e-02  8.529143e-02  0.000000e+00
     vertex -8.100593e-02  1.773782e-01  0.000000e+00
   endloop
 endfacet
 facet normal  0.000000e+00  0.000000e+00 -1.000000e+00
   outer loop
     vertex  1.930152e-01 -2.775139e-02  0.000000e+00
     vertex  9.305534e-02 -1.912336e-02  0.000000e+00
     vertex  9.500000e-02  0.000000e+00  0.000000e+00
   endloop
 endfacet
 facet normal -0.000000e+00  0.000000e+00 -1.000000e+00
   outer loop
     vertex  1.930152e-01 -2.775139e-02  0.000000e+00
     vertex  1.871011e-01 -5.493785e-02  0.000000e+00
     vertex  9.305534e-02 -1.912336e-02  0.000000e+00
   endloop
 endfacet
 facet normal  0.000000e+00  0.000000e+00 -1.000000e+00
   outer loop
     vertex -2.775139e-02  1.930152e-01  0.000000e+00
     vertex -4.811671e-03  9.487807e-02  0.000000e+00
     vertex -2.381199e-02  9.196733e-02  0.000000e+00
   endloop
 endfacet
 facet normal  0.000000e+00 -0.000000e+00 -1.000000e+00
   outer loop
     vertex -2.775139e-02  1.930152e-01  0.000000e+00
     vertex -2.381199e-02  9.196733e-02  0.000000e+00
     vertex -5.493785e-02  1.871011e-01  0.000000e+00
   endloop
 endfacet
 facet normal -0.000000e+00  0.000000e+00 -1.000000e+00
   outer loop
     vertex  1.950000e-01  0.000000e+00  0.000000e+00
     vertex  1.930152e-01 -2.775139e-02  0.000000e+00
     vertex  9.500000e-02  0.000000e+00  0.000000e+00
   endloop
 endfacet
 facet normal  0.000000e+00 -0.000000e+00 -1.000000e+00
   outer loop
     vertex  5.523900e-17  1.950000e-01  0.000000e+00
     vertex  1.438564e-02  9.390449e-02  0.000000e+00
     vertex -4.811671e-03  9.487807e-02  0.000000e+00
   endloop
 endfacet
 facet normal  0.000000e+00  0.000000e+00 -1.000000e+00
   outer loop
     vertex  5.523900e-17  1.950000e-01  0.000000e+00
     vertex -4.811671e-03  9.487807e-02  0.000000e+00
     vertex -2.775139e-02  1.930152e-01  0.000000e+00
   endloop
 endfacet
 facet normal  0.000000e+00  0.000000e+00 -1.000000e+00
   outer loop
     vertex  1.930152e-01  2.775139e-02  0.000000e+00
     vertex  9.500000e-02  0.000000e+00  0.000000e+00
     vertex  9.305534e-02  1.912336e-02  0.000000e+00
   endloop
 endfacet
 facet normal  0.000000e+00 -0.000000e+00 -1.000000e+00
   outer loop
     vertex  1.930152e-01  2.775139e-02  0.000000e+00
     vertex  1.950000e-01  0.000000e+00  0.000000e+00
     vertex  9.500000e-02  0.000000e+00  0.000000e+00
   endloop
 endfacet
 facet normal -0.000000e+00  0.000000e+00 -1.000000e+00
   outer loop
     vertex  2.775139e-02  1.930152e-01  0.000000e+00
     vertex  1.438564e-02  9.390449e-02  0.000000e+00
     vertex  5.523900e-17  1.950000e-01  0.000000e+00
   endloop
 endfacet
 facet normal -0.000000e+00  0.000000e+00 -1.000000e+00
   outer loop
     vertex  5.493785e-02  1.871011e-01  0.000000e+00
     vertex  1.438564e-02  9.390449e-02  0.000000e+00
     vertex  2.775139e-02  1.930152e-01  0.000000e+00
   endloop
 endfacet
 facet normal  0.000000e+00  0.000000e+00 -1.000000e+00
   outer loop
     vertex  5.493785e-02  1.871011e-01  0.000000e+00
     vertex  3.299400e-02  8.908645e-02  0.000000e+00
     vertex  1.438564e-02  9.390449e-02  0.000000e+00
   endloop
 endfacet
 facet normal  0.000000e+00 -0.000000e+00 -1.000000e+00
   outer loop
     vertex  1.871011e-01  5.493785e-02  0.000000e+00
     vertex  1.930152e-01  2.775139e-02  0.000000e+00
     vertex  9.305534e-02  1.912336e-02  0.000000e+00
   endloop
 endfacet
 facet normal  0.000000e+00  0.000000e+00 -1.000000e+00
   outer loop
     vertex  1.871011e-01  5.493785e-02  0.000000e+00
     vertex  9.305534e-02  1.912336e-02  0.000000e+00
     vertex  8.730099e-02  3.746381e-02  0.000000e+00
   endloop
 endfacet
 facet normal -0.000000e+00  0.000000e+00 -1.000000e+00
   outer loop
     vertex  8.100593e-02  1.773782e-01  0.000000e+00
     vertex  3.299400e-02  8.908645e-02  0.000000e+00
     vertex  5.493785e-02  1.871011e-01  0.000000e+00
   endloop
 endfacet
 facet normal  0.000000e+00  0.000000e+00 -1.000000e+00
   outer loop
     vertex  8.100593e-02  1.773782e-01  0.000000e+00
     vertex  5.025158e-02  8.062120e-02  0.000000e+00
     vertex  3.299400e-02  8.908645e-02  0.000000e+00
   endloop
 endfacet
 facet normal  0.000000e+00 -0.000000e+00 -1.000000e+00
   outer loop
     vertex  1.773782e-01  8.100593e-02  0.000000e+00
     vertex  1.871011e-01  5.493785e-02  0.000000e+00
     vertex  8.730099e-02  3.746381e-02  0.000000e+00
   endloop
 endfacet
 facet normal -0.000000e+00  0.000000e+00 -1.000000e+00
   outer loop
     vertex  1.054250e-01  1.640444e-01  0.000000e+00
     vertex  5.025158e-02  8.062120e-02  0.000000e+00
     vertex  8.100593e-02  1.773782e-01  0.000000e+00
   endloop
 endfacet
 facet normal  0.000000e+00 -0.000000e+00 -1.000000e+00
   outer loop
     vertex  1.640444e-01  1.054250e-01  0.000000e+00
     vertex  1.773782e-01  8.100593e-02  0.000000e+00
     vertex  8.730099e-02  3.746381e-02  0.000000e+00
   endloop
 endfacet
 facet normal  0.000000e+00  0.000000e+00 -1.000000e+00
   outer loop
     vertex  1.640444e-01  1.054250e-01  0.000000e+00
     vertex  8.730099e-02  3.746381e-02  0.000000e+00
     vertex  7.797253e-02  5.427048e-02  0.000000e+00
   endloop
 endfacet
 facet normal  0.000000e+00 -0.000000e+00 -1.000000e+00
   outer loop
     vertex  1.473712e-01  1.276978e-01  0.000000e+00
     vertex  1.640444e-01  1.054250e-01  0.000000e+00
     vertex  7.797253e-02  5.427048e-02  0.000000e+00
   endloop
 endfacet
 facet normal  0.000000e+00  0.000000e+00 -1.000000e+00
   outer loop
     vertex  1.473712e-01  1.276978e-01  0.000000e+00
     vertex  7.797253e-02  5.427048e-02  0.000000e+00
     vertex  6.545186e-02  6.885531e-02  0.000000e+00
   endloop
 endfacet
 facet normal -0.000000e+00  0.000000e+00 -1.000000e+00
   outer loop
     vertex  1.276978e-01  1.473712e-01  0.000000e+00
     vertex  5.025158e-02  8.062120e-02  0.000000e+00
     vertex  1.054250e-01  1.640444e-01  0.000000e+00
   endloop
 endfacet
 facet normal  0.000000e+00 -0.000000e+00 -1.000000e+00
   outer loop
     vertex  1.276978e-01  1.473712e-01  0.000000e+00
     vertex  1.473712e-01  1.276978e-01  0.000000e+00
     vertex  6.545186e-02  6.885531e-02  0.000000e+00
   endloop
 endfacet
 facet normal  0.000000e+00  0.000000e+00 -1.000000e+00
   outer loop
     vertex  1.276978e-01  1.473712e-01  0.000000e+00
     vertex  6.545186e-02  6.885531e-02  0.000000e+00
     vertex  5.025158e-02  8.062120e-02  0.000000e+00
   endloop
 endfacet
 facet normal  0.000000e+00  0.000000e+00  1.000000e+00
   outer loop
     vertex -7.208202e-02 -6.188039e-02  1.000000e+00
     vertex -1.640444e-01 -1.054250e-01  1.000000e+00
     vertex -1.473712e-01 -1.276978e-01  1.000000e+00
   endloop
 endfacet
 facet normal  0.000000e+00  0.000000e+00  1.000000e+00
   outer loop
     vertex -7.208202e-02 -6.188039e-02  1.000000e+00
     vertex -1.473712e-01 -1.276978e-01  1.000000e+00
     vertex -1.276978e-01 -1.473712e-01  1.000000e+00
   endloop
 endfacet
 facet normal  0.000000e+00  0.000000e+00  1.000000e+00
   outer loop
     vertex -5.815007e-02 -7.512370e-02  1.000000e+00
     vertex -1.276978e-01 -1.473712e-01  1.000000e+00
     vertex -1.054250e-01 -1.640444e-01  1.000000e+00
   endloop
 endfacet
 facet normal  0.000000e+00  0.000000e+00  1.000000e+00
   outer loop
     vertex -5.815007e-02 -7.512370e-02  1.000000e+00
     vertex -7.208202e-02 -6.188039e-02  1.000000e+00
     vertex -1.276978e-01 -1.473712e-01  1.000000e+00
   endloop
 endfacet
 facet normal  0.000000e+00  0.000000e+00  1.000000e+00
   outer loop
     vertex -8.306293e-02 -4.610369e-02  1.000000e+00
     vertex -1.773782e-01 -8.100593e-02  1.000000e+00
     vertex -1.640444e-01 -1.054250e-01  1.000000e+00
   endloop
 endfacet
 facet normal  0.000000e+00  0.000000e+00  1.000000e+00
   outer loop
     vertex -8.306293e-02 -4.610369e-02  1.000000e+00
     vertex -1.640444e-01 -1.054250e-01  1.000000e+00
     vertex -7.208202e-02 -6.188039e-02  1.000000e+00
   endloop
 endfacet
 facet normal  0.000000e+00  0.000000e+00  1.000000e+00
   outer loop
     vertex -4.183744e-02 -8.529143e-02  1.000000e+00
     vertex -5.815007e-02 -7.512370e-02  1.000000e+00
     vertex -1.054250e-01 -1.640444e-01  1.000000e+00
   endloop
 endfacet
 facet normal  0.000000e+00  0.000000e+00  1.000000e+00
   outer loop
     vertex -4.183744e-02 -8.529143e-02  1.000000e+00
     vertex -1.054250e-01 -1.640444e-01  1.000000e+00
     vertex -8.100593e-02 -1.773782e-01  1.000000e+00
   endloop
 endfacet
 facet normal  0.000000e+00  0.000000e+00  1.000000e+00
   outer loop
     vertex -4.183744e-02 -8.529143e-02  1.000000e+00
     vertex -8.100593e-02 -1.773782e-01  1.000000e+00
     vertex -5.493785e-02 -1.871011e-01  1.000000e+00
   endloop
 endfacet
 facet normal  0.000000e+00  0.000000e+00  1.000000e+00
   outer loop
     vertex -9.064323e-02 -2.843950e-02  1.000000e+00
     vertex -1.773782e-01 -8.100593e-02  1.000000e+00
     vertex -8.306293e-02 -4.610369e-02  1.000000e+00
   endloop
 endfacet
 facet normal  0.000000e+00  0.000000e+00  1.000000e+00
   outer loop
     vertex -9.064323e-02 -2.843950e-02  1.000000e+00
     vertex -1.930152e-01 -2.775139e-02  1.000000e+00
     vertex -1.871011e-01 -5.493785e-02  1.000000e+00
   endloop
 endfacet
 facet normal  0.000000e+00  0.000000e+00  1.000000e+00
   outer loop
     vertex -9.064323e-02 -2.843950e-02  1.000000e+00
     vertex -1.871011e-01 -5.493785e-02  1.000000e+00
     vertex -1.773782e-01 -8.100593e-02  1.000000e+00
   endloop
 endfacet
 facet normal  0.000000e+00  0.000000e+00  1.000000e+00
   outer loop
     vertex -2.381199e-02 -9.196733e-02  1.000000e+00
     vertex -4.183744e-02 -8.529143e-02  1.000000e+00
     vertex -5.493785e-02 -1.871011e-01  1.000000e+00
   endloop
 endfacet
 facet normal  0.000000e+00  0.000000e+00  1.000000e+00
   outer loop
     vertex -2.381199e-02 -9.196733e-02  1.000000e+00
     vertex -5.493785e-02 -1.871011e-01  1.000000e+00
     vertex -2.775139e-02 -1.930152e-01  1.000000e+00
   endloop
 endfacet
 facet normal  0.000000e+00  0.000000e+00  1.000000e+00
   outer loop
     vertex -9.451259e-02 -9.610991e-03  1.000000e+00
     vertex -1.950000e-01  1.970754e-16  1.000000e+00
     vertex -1.930152e-01 -2.775139e-02  1.000000e+00
   endloop
 endfacet
 facet normal  0.000000e+00  0.000000e+00  1.000000e+00
   outer loop
     vertex -9.451259e-02 -9.610991e-03  1.000000e+00
     vertex -1.930152e-01 -2.775139e-02  1.000000e+00
     vertex -9.064323e-02 -2.843950e-02  1.000000e+00
   endloop
 endfacet
 facet normal  0.000000e+00  0.000000e+00  1.000000e+00
   outer loop
     vertex -4.811671e-03 -9.487807e-02  1.000000e+00
     vertex -2.381199e-02 -9.196733e-02  1.000000e+00
     vertex -2.775139e-02 -1.930152e-01  1.000000e+00
   endloop
 endfacet
 facet normal  0.000000e+00  0.000000e+00  1.000000e+00
   outer loop
     vertex -4.811671e-03 -9.487807e-02  1.000000e+00
     vertex -2.775139e-02 -1.930152e-01  1.000000e+00
     vertex -3.822105e-16 -1.950000e-01  1.000000e+00
   endloop
 endfacet
 facet normal  0.000000e+00  0.000000e+00  1.000000e+00
   outer loop
     vertex -9.451259e-02  9.610991e-03  1.000000e+00
     vertex -1.950000e-01  1.970754e-16  1.000000e+00
     vertex -9.451259e-02 -9.610991e-03  1.000000e+00
   endloop
 endfacet
 facet normal  0.000000e+00  0.000000e+00  1.000000e+00
   outer loop
     vertex -9.451259e-02  9.610991e-03  1.000000e+00
     vertex -1.930152e-01  2.775139e-02  1.000000e+00
     vertex -1.950000e-01  1.970754e-16  1.000000e+00
   endloop
 endfacet
 facet normal  0.000000e+00  0.000000e+00  1.000000e+00
   outer loop
     vertex  1.438564e-02 -9.390449e-02  1.000000e+00
     vertex -4.811671e-03 -9.487807e-02  1.000000e+00
     vertex -3.822105e-16 -1.950000e-01  1.000000e+00
   endloop
 endfacet
 facet normal  0.000000e+00  0.000000e+00  1.000000e+00
   outer loop
     vertex  1.438564e-02 -9.390449e-02  1.000000e+00
     vertex -3.822105e-16 -1.950000e-01  1.000000e+00
     vertex  2.775139e-02 -1.930152e-01  1.000000e+00
   endloop
 endfacet
 facet normal  0.000000e+00  0.000000e+00  1.000000e+00
   outer loop
     vertex  1.438564e-02 -9.390449e-02  1.000000e+00
     vertex  2.775139e-02 -1.930152e-01  1.000000e+00
     vertex  5.493785e-02 -1.871011e-01  1.000000e+00
   endloop
 endfacet
 facet normal  0.000000e+00  0.000000e+00  1.000000e+00
   outer loop
     vertex -9.064323e-02  2.843950e-02  1.000000e+00
     vertex -1.773782e-01  8.100593e-02  1.000000e+00
     vertex -1.871011e-01  5.493785e-02  1.000000e+00
   endloop
 endfacet
 facet normal  0.000000e+00  0.000000e+00  1.000000e+00
   outer loop
     vertex -9.064323e-02  2.843950e-02  1.000000e+00
     vertex -1.871011e-01  5.493785e-02  1.000000e+00
     vertex -1.930152e-01  2.775139e-02  1.000000e+00
   endloop
 endfacet
 facet normal  0.000000e+00  0.000000e+00  1.000000e+00
   outer loop
     vertex -9.064323e-02  2.843950e-02  1.000000e+00
     vertex -1.930152e-01  2.775139e-02  1.000000e+00
     vertex -9.451259e-02  9.610991e-03  1.000000e+00
   endloop
 endfacet
 facet normal  0.000000e+00  0.000000e+00  1.000000e+00
   outer loop
     vertex  3.299400e-02 -8.908645e-02  1.000000e+00
     vertex  5.493785e-02 -1.871011e-01  1.000000e+00
     vertex  8.100593e-02 -1.773782e-01  1.000000e+00
   endloop
 endfacet
 facet normal  0.000000e+00  0.000000e+00  1.000000e+00
   outer loop
     vertex  3.299400e-02 -8.908645e-02  1.000000e+00
     vertex  1.438564e-02 -9.390449e-02  1.000000e+00
     vertex  5.493785e-02 -1.871011e-01  1.000000e+00
   endloop
 endfacet
 facet normal  0.000000e+00  0.000000e+00  1.000000e+00
   outer loop
     vertex -8.306293e-02  4.610369e-02  1.000000e+00
     vertex -1.640444e-01  1.054250e-01  1.000000e+00
     vertex -1.773782e-01  8.100593e-02  1.000000e+00
   endloop
 endfacet
 facet normal  0.000000e+00  0.000000e+00  1.000000e+00
   outer loop
     vertex -8.306293e-02  4.610369e-02  1.000000e+00
     vertex -1.773782e-01  8.100593e-02  1.000000e+00
     vertex -9.064323e-02  2.843950e-02  1.000000e+00
   endloop
 endfacet
 facet normal  0.000000e+00  0.000000e+00  1.000000e+00
   outer loop
     vertex  5.025158e-02 -8.062120e-02  1.000000e+00
     vertex  3.299400e-02 -8.908645e-02  1.000000e+00
     vertex  8.100593e-02 -1.773782e-01  1.000000e+00
   endloop
 endfacet
 facet normal  0.000000e+00  0.000000e+00  1.000000e+00
   outer loop
     vertex  5.025158e-02 -8.062120e-02  1.000000e+00
     vertex  8.100593e-02 -1.773782e-01  1.000000e+00
     vertex  1.054250e-01 -1.640444e-01  1.000000e+00
   endloop
 endfacet
 facet normal  0.000000e+00  0.000000e+00  1.000000e+00
   outer loop
     vertex  1.276978e-01 -1.473712e-01  1.000000e+00
     vertex  5.025158e-02 -8.062120e-02  1.000000e+00
     vertex  1.054250e-01 -1.640444e-01  1.000000e+00
   endloop
 endfacet
 facet normal  0.000000e+00  0.000000e+00  1.000000e+00
   outer loop
     vertex -7.208202e-02  6.188039e-02  1.000000e+00
     vertex -1.640444e-01  1.054250e-01  1.000000e+00
     vertex -8.306293e-02  4.610369e-02  1.000000e+00
   endloop
 endfacet
 facet normal  0.000000e+00  0.000000e+00  1.000000e+00
   outer loop
     vertex -7.208202e-02  6.188039e-02  1.000000e+00
     vertex -1.473712e-01  1.276978e-01  1.000000e+00
     vertex -1.640444e-01  1.054250e-01  1.000000e+00
   endloop
 endfacet
 facet normal  0.000000e+00  0.000000e+00  1.000000e+00
   outer loop
     vertex  6.545186e-02 -6.885531e-02  1.000000e+00
     vertex  5.025158e-02 -8.062120e-02  1.000000e+00
     vertex  1.276978e-01 -1.473712e-01  1.000000e+00
   endloop
 endfacet
 facet normal  0.000000e+00  0.000000e+00  1.000000e+00
   outer loop
     vertex  1.473712e-01 -1.276978e-01  1.000000e+00
     vertex  6.545186e-02 -6.885531e-02  1.000000e+00
     vertex  1.276978e-01 -1.473712e-01  1.000000e+00
   endloop
 endfacet
 facet normal  0.000000e+00  0.000000e+00  1.000000e+00
   outer loop
     vertex -1.276978e-01  1.473712e-01  1.000000e+00
     vertex -1.473712e-01  1.276978e-01  1.000000e+00
     vertex -7.208202e-02  6.188039e-02  1.000000e+00
   endloop
 endfacet
 facet normal  0.000000e+00  0.000000e+00  1.000000e+00
   outer loop
     vertex -1.276978e-01  1.473712e-01  1.000000e+00
     vertex -7.208202e-02  6.188039e-02  1.000000e+00
     vertex -5.815007e-02  7.512370e-02  1.000000e+00
   endloop
 endfacet
 facet normal  0.000000e+00  0.000000e+00  1.000000e+00
   outer loop
     vertex  7.797253e-02 -5.427048e-02  1.000000e+00
     vertex  6.545186e-02 -6.885531e-02  1.000000e+00
     vertex  1.473712e-01 -1.276978e-01  1.000000e+00
   endloop
 endfacet
 facet normal  0.000000e+00  0.000000e+00  1.000000e+00
   outer loop
     vertex  1.640444e-01 -1.054250e-01  1.000000e+00
     vertex  7.797253e-02 -5.427048e-02  1.000000e+00
     vertex  1.473712e-01 -1.276978e-01  1.000000e+00
   endloop
 endfacet
 facet normal  0.000000e+00  0.000000e+00  1.000000e+00
   outer loop
     vertex  1.640444e-01 -1.054250e-01  1.000000e+00
     vertex  8.730099e-02 -3.746381e-02  1.000000e+00
     vertex  7.797253e-02 -5.427048e-02  1.000000e+00
   endloop
 endfacet
 facet normal  0.000000e+00  0.000000e+00  1.000000e+00
   outer loop
     vertex -1.054250e-01  1.640444e-01  1.000000e+00
     vertex -1.276978e-01  1.473712e-01  1.000000e+00
     vertex -5.815007e-02  7.512370e-02  1.000000e+00
   endloop
 endfacet
 facet normal  0.000000e+00  0.000000e+00  1.000000e+00
   outer loop
     vertex -1.054250e-01  1.640444e-01  1.000000e+00
     vertex -5.815007e-02  7.512370e-02  1.000000e+00
     vertex -4.183744e-02  8.529143e-02  1.000000e+00
   endloop
 endfacet
 facet normal  0.000000e+00  0.000000e+00  1.000000e+00
   outer loop
     vertex  1.773782e-01 -8.100593e-02  1.000000e+00
     vertex  8.730099e-02 -3.746381e-02  1.000000e+00
     vertex  1.640444e-01 -1.054250e-01  1.000000e+00
   endloop
 endfacet
 facet normal  0.000000e+00  0.000000e+00  1.000000e+00
   outer loop
     vertex -8.100593e-02  1.773782e-01  1.000000e+00
     vertex -1.054250e-01  1.640444e-01  1.000000e+00
     vertex -4.183744e-02  8.529143e-02  1.000000e+00
   endloop
 endfacet
 facet normal  0.000000e+00  0.000000e+00  1.000000e+00
   outer loop
     vertex  1.871011e-01 -5.493785e-02  1.000000e+00
     vertex  9.305534e-02 -1.912336e-02  1.000000e+00
     vertex  8.730099e-02 -3.746381e-02  1.000000e+00
   endloop
 endfacet
 facet normal  0.000000e+00  0.000000e+00  1.000000e+00
   outer loop
     vertex  1.871011e-01 -5.493785e-02  1.000000e+00
     vertex  8.730099e-02 -3.746381e-02  1.000000e+00
     vertex  1.773782e-01 -8.100593e-02  1.000000e+00
   endloop
 endfacet
 facet normal  0.000000e+00  0.000000e+00  1.000000e+00
   outer loop
     vertex -5.493785e-02  1.871011e-01  1.000000e+00
     vertex -4.183744e-02  8.529143e-02  1.000000e+00
     vertex -2.381199e-02  9.196733e-02  1.000000e+00
   endloop
 endfacet
 facet normal  0.000000e+00  0.000000e+00  1.000000e+00
   outer loop
     vertex -5.493785e-02  1.871011e-01  1.000000e+00
     vertex -8.100593e-02  1.773782e-01  1.000000e+00
     vertex -4.183744e-02  8.529143e-02  1.000000e+00
   endloop
 endfacet
 facet normal  0.000000e+00  0.000000e+00  1.000000e+00
   outer loop
     vertex  1.930152e-01 -2.775139e-02  1.000000e+00
     vertex  9.500000e-02  0.000000e+00  1.000000e+00
     vertex  9.305534e-02 -1.912336e-02  1.000000e+00
   endloop
 endfacet
 facet normal  0.000000e+00  0.000000e+00  1.000000e+00
   outer loop
     vertex  1.930152e-01 -2.775139e-02  1.000000e+00
     vertex  9.305534e-02 -1.912336e-02  1.000000e+00
     vertex  1.871011e-01 -5.493785e-02  1.000000e+00
   endloop
 endfacet
 facet normal  0.000000e+00  0.000000e+00  1.000000e+00
   outer loop
     vertex -2.775139e-02  1.930152e-01  1.000000e+00
     vertex -2.381199e-02  9.196733e-02  1.000000e+00
     vertex -4.811671e-03  9.487807e-02  1.000000e+00
   endloop
 endfacet
 facet normal  0.000000e+00  0.000000e+00  1.000000e+00
   outer loop
     vertex -2.775139e-02  1.930152e-01  1.000000e+00
     vertex -5.493785e-02  1.871011e-01  1.000000e+00
     vertex -2.381199e-02  9.196733e-02  1.000000e+00
   endloop
 endfacet
 facet normal  0.000000e+00  0.000000e+00  1.000000e+00
   outer loop
     vertex  1.950000e-01  0.000000e+00  1.000000e+00
     vertex  9.500000e-02  0.000000e+00  1.000000e+00
     vertex  1.930152e-01 -2.775139e-02  1.000000e+00
   endloop
 endfacet
 facet normal  0.000000e+00  0.000000e+00  1.000000e+00
   outer loop
     vertex  5.523900e-17  1.950000e-01  1.000000e+00
     vertex -4.811671e-03  9.487807e-02  1.000000e+00
     vertex  1.438564e-02  9.390449e-02  1.000000e+00
   endloop
 endfacet
 facet normal  0.000000e+00  0.000000e+00  1.000000e+00
   outer loop
     vertex  5.523900e-17  1.950000e-01  1.000000e+00
     vertex -2.775139e-02  1.930152e-01  1.000000e+00
     vertex -4.811671e-03  9.487807e-02  1.000000e+00
   endloop
 endfacet
 facet normal  0.000000e+00  0.000000e+00  1.000000e+00
   outer loop
     vertex  1.930152e-01  2.775139e-02  1.000000e+00
     vertex  9.305534e-02  1.912336e-02  1.000000e+00
     vertex  9.500000e-02  0.000000e+00  1.000000e+00
   endloop
 endfacet
 facet normal  0.000000e+00  0.000000e+00  1.000000e+00
   outer loop
     vertex  1.930152e-01  2.775139e-02  1.000000e+00
     vertex  9.500000e-02  0.000000e+00  1.000000e+00
     vertex  1.950000e-01  0.000000e+00  1.000000e+00
   endloop
 endfacet
 facet normal  0.000000e+00  0.000000e+00  1.000000e+00
   outer loop
     vertex  2.775139e-02  1.930152e-01  1.000000e+00
     vertex  5.523900e-17  1.950000e-01  1.000000e+00
     vertex  1.438564e-02  9.390449e-02  1.000000e+00
   endloop
 endfacet
 facet normal  0.000000e+00  0.000000e+00  1.000000e+00
   outer loop
     vertex  5.493785e-02  1.871011e-01  1.000000e+00
     vertex  2.775139e-02  1.930152e-01  1.000000e+00
     vertex  1.438564e-02  9.390449e-02  1.000000e+00
   endloop
 endfacet
 facet normal  0.000000e+00  0.000000e+00  1.000000e+00
   outer loop
     vertex  5.493785e-02  1.871011e-01  1.000000e+00
     vertex  1.438564e-02  9.390449e-02  1.000000e+00
     vertex  3.299400e-02  8.908645e-02  1.000000e+00
   endloop
 endfacet
 facet normal  0.000000e+00  0.000000e+00  1.000000e+00
   outer loop
     vertex  1.871011e-01  5.493785e-02  1.000000e+00
     vertex  9.305534e-02  1.912336e-02  1.000000e+00
     vertex  1.930152e-01  2.775139e-02  1.000000e+00
   endloop
 endfacet
 facet normal  0.000000e+00  0.000000e+00  1.000000e+00
   outer loop
     vertex  1.871011e-01  5.493785e-02  1.000000e+00
     vertex  8.730099e-02  3.746381e-02  1.000000e+00
     vertex  9.305534e-02  1.912336e-02  1.000000e+00
   endloop
 endfacet
 facet normal  0.000000e+00  0.000000e+00  1.000000e+00
   outer loop
     vertex  8.100593e-02  1.773782e-01  1.000000e+00
     vertex  5.493785e-02  1.871011e-01  1.000000e+00
     vertex  3.299400e-02  8.908645e-02  1.000000e+00
   endloop
 endfacet
 facet normal  0.000000e+00  0.000000e+00  1.000000e+00
   outer loop
     vertex  8.100593e-02  1.773782e-01  1.000000e+00
     vertex  3.299400e-02  8.908645e-02  1.000000e+00
     vertex  5.025158e-02  8.062120e-02  1.000000e+00
   endloop
 endfacet
 facet normal  0.000000e+00  0.000000e+00  1.000000e+00
   outer loop
     vertex  1.773782e-01  8.100593e-02  1.000000e+00
     vertex  8.730099e-02  3.746381e-02  1.000000e+00
     vertex  1.871011e-01  5.493785e-02  1.000000e+00
   endloop
 endfacet
 facet normal  0.000000e+00  0.000000e+00  1.000000e+00
   outer loop
     vertex  1.054250e-01  1.640444e-01  1.000000e+00
     vertex  8.100593e-02  1.773782e-01  1.000000e+00
     vertex  5.025158e-02  8.062120e-02  1.000000e+00
   endloop
 endfacet
 facet normal  0.000000e+00  0.000000e+00  1.000000e+00
   outer loop
     vertex  1.640444e-01  1.054250e-01  1.000000e+00
     vertex  8.730099e-02  3.746381e-02  1.000000e+00
     vertex  1.773782e-01  8.100593e-02  1.000000e+00
   endloop
 endfacet
 facet normal  0.000000e+00  0.000000e+00  1.000000e+00
   outer loop
     vertex  1.640444e-01  1.054250e-01  1.000000e+00
     vertex  7.797253e-02  5.427048e-02  1.000000e+00
     vertex  8.730099e-02  3.746381e-02  1.000000e+00
   endloop
 endfacet
 facet normal  0.000000e+00  0.000000e+00  1.000000e+00
   outer loop
     vertex  1.473712e-01  1.276978e-01  1.000000e+00
     vertex  7.797253e-02  5.427048e-02  1.000000e+00
     vertex  1.640444e-01  1.054250e-01  1.000000e+00
   endloop
 endfacet
 facet normal  0.000000e+00  0.000000e+00  1.000000e+00
   outer loop
     vertex  1.473712e-01  1.276978e-01  1.000000e+00
     vertex  6.545186e-02  6.885531e-02  1.000000e+00
     vertex  7.797253e-02  5.427048e-02  1.000000e+00
   endloop
 endfacet
 facet normal  0.000000e+00  0.000000e+00  1.000000e+00
   outer loop
     vertex  1.276978e-01  1.473712e-01  1.000000e+00
     vertex  1.054250e-01  1.640444e-01  1.000000e+00
     vertex  5.025158e-02  8.062120e-02  1.000000e+00
   endloop
 endfacet
 facet normal  0.000000e+00  0.000000e+00  1.000000e+00
   outer loop
     vertex  1.276978e-01  1.473712e-01  1.000000e+00
     vertex  6.545186e-02  6.885531e-02  1.000000e+00
     vertex  1.473712e-01  1.276978e-01  1.000000e+00
   endloop
 endfacet
 facet normal  0.000000e+00  0.000000e+00  1.000000e+00
   outer loop
     vertex  1.276978e-01  1.473712e-01  1.000000e+00
     vertex  5.025158e-02  8.062120e-02  1.000000e+00
     vertex  6.545186e-02  6.885531e-02  1.000000e+00
   endloop
 endfacet
endsolid
