solid 
 facet normal  9.927089e-01  1.205367e-01  0.000000e+00
   outer loop
     vertex -8.807265e-01  2.759829e-01  0.000000e+00
     vertex -8.800000e-01  2.700000e-01  4.750000e-01
     vertex -8.800000e-01  2.700000e-01  0.000000e+00
   endloop
 endfacet
 facet normal  9.927089e-01  1.205367e-01 -0.000000e+00
   outer loop
     vertex -8.807265e-01  2.759829e-01  0.000000e+00
     vertex -8.807265e-01  2.759829e-01  4.750000e-01
     vertex -8.800000e-01  2.700000e-01  4.750000e-01
   endloop
 endfacet
 facet normal  9.350162e-01  3.546049e-01 -0.000000e+00
   outer loop
     vertex -8.828636e-01  2.816181e-01  0.000000e+00
     vertex -8.828636e-01  2.816181e-01  4.750000e-01
     vertex -8.807265e-01  2.759829e-01  4.750000e-01
   endloop
 endfacet
 facet normal  9.350162e-01  3.546049e-01  0.000000e+00
   outer loop
     vertex -8.828636e-01  2.816181e-01  0.000000e+00
     vertex -8.807265e-01  2.759829e-01  4.750000e-01
     vertex -8.807265e-01  2.759829e-01  0.000000e+00
   endloop
 endfacet
 facet normal  8.229839e-01  5.680647e-01 -0.000000e+00
   outer loop
     vertex -8.862872e-01  2.865781e-01  0.000000e+00
     vertex -8.862872e-01  2.865781e-01  4.750000e-01
     vertex -8.828636e-01  2.816181e-01  4.750000e-01
   endloop
 endfacet
 facet normal  8.229839e-01  5.680647e-01  0.000000e+00
   outer loop
     vertex -8.862872e-01  2.865781e-01  0.000000e+00
     vertex -8.828636e-01  2.816181e-01  4.750000e-01
     vertex -8.828636e-01  2.816181e-01  0.000000e+00
   endloop
 endfacet
 facet normal  6.631227e-01  7.485107e-01 -0.000000e+00
   outer loop
     vertex -8.907984e-01  2.905746e-01  0.000000e+00
     vertex -8.907984e-01  2.905746e-01  4.750000e-01
     vertex -8.862872e-01  2.865781e-01  4.750000e-01
   endloop
 endfacet
 facet normal  6.631227e-01  7.485107e-01  0.000000e+00
   outer loop
     vertex -8.907984e-01  2.905746e-01  0.000000e+00
     vertex -8.862872e-01  2.865781e-01  4.750000e-01
     vertex -8.862872e-01  2.865781e-01  0.000000e+00
   endloop
 endfacet
 facet normal  4.647232e-01  8.854560e-01 -0.000000e+00
   outer loop
     vertex -8.961349e-01  2.933754e-01  0.000000e+00
     vertex -8.961349e-01  2.933754e-01  4.750000e-01
     vertex -8.907984e-01  2.905746e-01  4.750000e-01
   endloop
 endfacet
 facet normal  4.647232e-01  8.854560e-01  0.000000e+00
   outer loop
     vertex -8.961349e-01  2.933754e-01  0.000000e+00
     vertex -8.907984e-01  2.905746e-01  4.750000e-01
     vertex -8.907984e-01  2.905746e-01  0.000000e+00
   endloop
 endfacet
 facet normal  2.393157e-01  9.709418e-01 -0.000000e+00
   outer loop
     vertex -9.019866e-01  2.948177e-01  0.000000e+00
     vertex -9.019866e-01  2.948177e-01  4.750000e-01
     vertex -8.961349e-01  2.933754e-01  4.750000e-01
   endloop
 endfacet
 facet normal  2.393157e-01  9.709418e-01  0.000000e+00
   outer loop
     vertex -9.019866e-01  2.948177e-01  0.000000e+00
     vertex -8.961349e-01  2.933754e-01  4.750000e-01
     vertex -8.961349e-01  2.933754e-01  0.000000e+00
   endloop
 endfacet
 facet normal  0.000000e+00  1.000000e+00  0.000000e+00
   outer loop
     vertex -9.080134e-01  2.948177e-01  0.000000e+00
     vertex -9.080134e-01  2.948177e-01  4.750000e-01
     vertex -9.019866e-01  2.948177e-01  4.750000e-01
   endloop
 endfacet
 facet normal  0.000000e+00  1.000000e+00  0.000000e+00
   outer loop
     vertex -9.080134e-01  2.948177e-01  0.000000e+00
     vertex -9.019866e-01  2.948177e-01  4.750000e-01
     vertex -9.019866e-01  2.948177e-01  0.000000e+00
   endloop
 endfacet
 facet normal -2.393157e-01  9.709418e-01  0.000000e+00
   outer loop
     vertex -9.138651e-01  2.933754e-01  0.000000e+00
     vertex -9.138651e-01  2.933754e-01  4.750000e-01
     vertex -9.080134e-01  2.948177e-01  4.750000e-01
   endloop
 endfacet
 facet normal -2.393157e-01  9.709418e-01  0.000000e+00
   outer loop
     vertex -9.138651e-01  2.933754e-01  0.000000e+00
     vertex -9.080134e-01  2.948177e-01  4.750000e-01
     vertex -9.080134e-01  2.948177e-01  0.000000e+00
   endloop
 endfacet
 facet normal -4.647232e-01  8.854560e-01  0.000000e+00
   outer loop
     vertex -9.192016e-01  2.905746e-01  0.000000e+00
     vertex -9.192016e-01  2.905746e-01  4.750000e-01
     vertex -9.138651e-01  2.933754e-01  4.750000e-01
   endloop
 endfacet
 facet normal -4.647232e-01  8.854560e-01  0.000000e+00
   outer loop
     vertex -9.192016e-01  2.905746e-01  0.000000e+00
     vertex -9.138651e-01  2.933754e-01  4.750000e-01
     vertex -9.138651e-01  2.933754e-01  0.000000e+00
   endloop
 endfacet
 facet normal -6.631227e-01  7.485107e-01  0.000000e+00
   outer loop
     vertex -9.237128e-01  2.865781e-01  0.000000e+00
     vertex -9.237128e-01  2.865781e-01  4.750000e-01
     vertex -9.192016e-01  2.905746e-01  4.750000e-01
   endloop
 endfacet
 facet normal -8.229839e-01  5.680647e-01  0.000000e+00
   outer loop
     vertex -9.237128e-01  2.865781e-01  0.000000e+00
     vertex -9.271364e-01  2.816181e-01  4.750000e-01
     vertex -9.237128e-01  2.865781e-01  4.750000e-01
   endloop
 endfacet
 facet normal -6.631227e-01  7.485107e-01  0.000000e+00
   outer loop
     vertex -9.237128e-01  2.865781e-01  0.000000e+00
     vertex -9.192016e-01  2.905746e-01  4.750000e-01
     vertex -9.192016e-01  2.905746e-01  0.000000e+00
   endloop
 endfacet
 facet normal -8.229839e-01  5.680647e-01  0.000000e+00
   outer loop
     vertex -9.271364e-01  2.816181e-01  0.000000e+00
     vertex -9.271364e-01  2.816181e-01  4.750000e-01
     vertex -9.237128e-01  2.865781e-01  0.000000e+00
   endloop
 endfacet
 facet normal -9.350162e-01  3.546049e-01  0.000000e+00
   outer loop
     vertex -9.292735e-01  2.759829e-01  0.000000e+00
     vertex -9.271364e-01  2.816181e-01  4.750000e-01
     vertex -9.271364e-01  2.816181e-01  0.000000e+00
   endloop
 endfacet
 facet normal -9.350162e-01  3.546049e-01  0.000000e+00
   outer loop
     vertex -9.292735e-01  2.759829e-01  0.000000e+00
     vertex -9.292735e-01  2.759829e-01  4.750000e-01
     vertex -9.271364e-01  2.816181e-01  4.750000e-01
   endloop
 endfacet
 facet normal -9.927089e-01  1.205367e-01  0.000000e+00
   outer loop
     vertex -9.300000e-01  2.700000e-01  0.000000e+00
     vertex -9.292735e-01  2.759829e-01  4.750000e-01
     vertex -9.292735e-01  2.759829e-01  0.000000e+00
   endloop
 endfacet
 facet normal -9.927089e-01  1.205367e-01  0.000000e+00
   outer loop
     vertex -9.300000e-01  2.700000e-01  0.000000e+00
     vertex -9.300000e-01  2.700000e-01  4.750000e-01
     vertex -9.292735e-01  2.759829e-01  4.750000e-01
   endloop
 endfacet
 facet normal -9.927089e-01 -1.205367e-01  0.000000e+00
   outer loop
     vertex -9.292735e-01  2.640171e-01  0.000000e+00
     vertex -9.292735e-01  2.640171e-01  4.750000e-01
     vertex -9.300000e-01  2.700000e-01  4.750000e-01
   endloop
 endfacet
 facet normal -9.927089e-01 -1.205367e-01  0.000000e+00
   outer loop
     vertex -9.292735e-01  2.640171e-01  0.000000e+00
     vertex -9.300000e-01  2.700000e-01  4.750000e-01
     vertex -9.300000e-01  2.700000e-01  0.000000e+00
   endloop
 endfacet
 facet normal -9.350162e-01 -3.546049e-01  0.000000e+00
   outer loop
     vertex -9.271364e-01  2.583819e-01  0.000000e+00
     vertex -9.271364e-01  2.583819e-01  4.750000e-01
     vertex -9.292735e-01  2.640171e-01  4.750000e-01
   endloop
 endfacet
 facet normal -9.350162e-01 -3.546049e-01  0.000000e+00
   outer loop
     vertex -9.271364e-01  2.583819e-01  0.000000e+00
     vertex -9.292735e-01  2.640171e-01  4.750000e-01
     vertex -9.292735e-01  2.640171e-01  0.000000e+00
   endloop
 endfacet
 facet normal -8.229839e-01 -5.680647e-01  0.000000e+00
   outer loop
     vertex -9.237128e-01  2.534219e-01  0.000000e+00
     vertex -9.237128e-01  2.534219e-01  4.750000e-01
     vertex -9.271364e-01  2.583819e-01  4.750000e-01
   endloop
 endfacet
 facet normal -8.229839e-01 -5.680647e-01  0.000000e+00
   outer loop
     vertex -9.237128e-01  2.534219e-01  0.000000e+00
     vertex -9.271364e-01  2.583819e-01  4.750000e-01
     vertex -9.271364e-01  2.583819e-01  0.000000e+00
   endloop
 endfacet
 facet normal -6.631227e-01 -7.485107e-01  0.000000e+00
   outer loop
     vertex -9.192016e-01  2.494254e-01  0.000000e+00
     vertex -9.192016e-01  2.494254e-01  4.750000e-01
     vertex -9.237128e-01  2.534219e-01  4.750000e-01
   endloop
 endfacet
 facet normal -4.647232e-01 -8.854560e-01  0.000000e+00
   outer loop
     vertex -9.192016e-01  2.494254e-01  0.000000e+00
     vertex -9.138651e-01  2.466246e-01  4.750000e-01
     vertex -9.192016e-01  2.494254e-01  4.750000e-01
   endloop
 endfacet
 facet normal -6.631227e-01 -7.485107e-01  0.000000e+00
   outer loop
     vertex -9.192016e-01  2.494254e-01  0.000000e+00
     vertex -9.237128e-01  2.534219e-01  4.750000e-01
     vertex -9.237128e-01  2.534219e-01  0.000000e+00
   endloop
 endfacet
 facet normal -4.647232e-01 -8.854560e-01  0.000000e+00
   outer loop
     vertex -9.138651e-01  2.466246e-01  0.000000e+00
     vertex -9.138651e-01  2.466246e-01  4.750000e-01
     vertex -9.192016e-01  2.494254e-01  0.000000e+00
   endloop
 endfacet
 facet normal -2.393157e-01 -9.709418e-01  0.000000e+00
   outer loop
     vertex -9.080134e-01  2.451823e-01  0.000000e+00
     vertex -9.080134e-01  2.451823e-01  4.750000e-01
     vertex -9.138651e-01  2.466246e-01  4.750000e-01
   endloop
 endfacet
 facet normal -2.393157e-01 -9.709418e-01  0.000000e+00
   outer loop
     vertex -9.080134e-01  2.451823e-01  0.000000e+00
     vertex -9.138651e-01  2.466246e-01  4.750000e-01
     vertex -9.138651e-01  2.466246e-01  0.000000e+00
   endloop
 endfacet
 facet normal  0.000000e+00 -1.000000e+00  0.000000e+00
   outer loop
     vertex -9.019866e-01  2.451823e-01  0.000000e+00
     vertex -9.019866e-01  2.451823e-01  4.750000e-01
     vertex -9.080134e-01  2.451823e-01  4.750000e-01
   endloop
 endfacet
 facet normal  2.393157e-01 -9.709418e-01  0.000000e+00
   outer loop
     vertex -9.019866e-01  2.451823e-01  0.000000e+00
     vertex -8.961349e-01  2.466246e-01  4.750000e-01
     vertex -9.019866e-01  2.451823e-01  4.750000e-01
   endloop
 endfacet
 facet normal  0.000000e+00 -1.000000e+00  0.000000e+00
   outer loop
     vertex -9.019866e-01  2.451823e-01  0.000000e+00
     vertex -9.080134e-01  2.451823e-01  4.750000e-01
     vertex -9.080134e-01  2.451823e-01  0.000000e+00
   endloop
 endfacet
 facet normal  2.393157e-01 -9.709418e-01  0.000000e+00
   outer loop
     vertex -8.961349e-01  2.466246e-01  0.000000e+00
     vertex -8.961349e-01  2.466246e-01  4.750000e-01
     vertex -9.019866e-01  2.451823e-01  0.000000e+00
   endloop
 endfacet
 facet normal  4.647232e-01 -8.854560e-01  0.000000e+00
   outer loop
     vertex -8.907984e-01  2.494254e-01  0.000000e+00
     vertex -8.907984e-01  2.494254e-01  4.750000e-01
     vertex -8.961349e-01  2.466246e-01  4.750000e-01
   endloop
 endfacet
 facet normal  4.647232e-01 -8.854560e-01  0.000000e+00
   outer loop
     vertex -8.907984e-01  2.494254e-01  0.000000e+00
     vertex -8.961349e-01  2.466246e-01  4.750000e-01
     vertex -8.961349e-01  2.466246e-01  0.000000e+00
   endloop
 endfacet
 facet normal  6.631227e-01 -7.485107e-01  0.000000e+00
   outer loop
     vertex -8.862872e-01  2.534219e-01  0.000000e+00
     vertex -8.862872e-01  2.534219e-01  4.750000e-01
     vertex -8.907984e-01  2.494254e-01  4.750000e-01
   endloop
 endfacet
 facet normal  6.631227e-01 -7.485107e-01  0.000000e+00
   outer loop
     vertex -8.862872e-01  2.534219e-01  0.000000e+00
     vertex -8.907984e-01  2.494254e-01  4.750000e-01
     vertex -8.907984e-01  2.494254e-01  0.000000e+00
   endloop
 endfacet
 facet normal  8.229839e-01 -5.680647e-01  0.000000e+00
   outer loop
     vertex -8.828636e-01  2.583819e-01  0.000000e+00
     vertex -8.828636e-01  2.583819e-01  4.750000e-01
     vertex -8.862872e-01  2.534219e-01  4.750000e-01
   endloop
 endfacet
 facet normal  9.350162e-01 -3.546049e-01  0.000000e+00
   outer loop
     vertex -8.828636e-01  2.583819e-01  0.000000e+00
     vertex -8.807265e-01  2.640171e-01  4.750000e-01
     vertex -8.828636e-01  2.583819e-01  4.750000e-01
   endloop
 endfacet
 facet normal  8.229839e-01 -5.680647e-01  0.000000e+00
   outer loop
     vertex -8.828636e-01  2.583819e-01  0.000000e+00
     vertex -8.862872e-01  2.534219e-01  4.750000e-01
     vertex -8.862872e-01  2.534219e-01  0.000000e+00
   endloop
 endfacet
 facet normal  9.350162e-01 -3.546049e-01  0.000000e+00
   outer loop
     vertex -8.807265e-01  2.640171e-01  0.000000e+00
     vertex -8.807265e-01  2.640171e-01  4.750000e-01
     vertex -8.828636e-01  2.583819e-01  0.000000e+00
   endloop
 endfacet
 facet normal  9.927089e-01 -1.205367e-01  0.000000e+00
   outer loop
     vertex -8.800000e-01  2.700000e-01  0.000000e+00
     vertex -8.800000e-01  2.700000e-01  4.750000e-01
     vertex -8.807265e-01  2.640171e-01  4.750000e-01
   endloop
 endfacet
 facet normal  9.927089e-01 -1.205367e-01  0.000000e+00
   outer loop
     vertex -8.800000e-01  2.700000e-01  0.000000e+00
     vertex -8.807265e-01  2.640171e-01  4.750000e-01
     vertex -8.807265e-01  2.640171e-01  0.000000e+00
   endloop
 endfacet
 facet normal  0.000000e+00  0.000000e+00 -1.000000e+00
   outer loop
     vertex -8.862872e-01  2.865781e-01  0.000000e+00
     vertex -8.807265e-01  2.759829e-01  0.000000e+00
     vertex -8.800000e-01  2.700000e-01  0.000000e+00
   endloop
 endfacet
 facet normal  0.000000e+00  0.000000e+00 -1.000000e+00
   outer loop
     vertex -8.862872e-01  2.865781e-01  0.000000e+00
     vertex -8.828636e-01  2.816181e-01  0.000000e+00
     vertex -8.807265e-01  2.759829e-01  0.000000e+00
   endloop
 endfacet
 facet normal  0.000000e+00  0.000000e+00 -1.000000e+00
   outer loop
     vertex -8.862872e-01  2.865781e-01  0.000000e+00
     vertex -8.961349e-01  2.933754e-01  0.000000e+00
     vertex -8.907984e-01  2.905746e-01  0.000000e+00
   endloop
 endfacet
 facet normal  0.000000e+00  0.000000e+00 -1.000000e+00
   outer loop
     vertex -8.862872e-01  2.865781e-01  0.000000e+00
     vertex -9.019866e-01  2.948177e-01  0.000000e+00
     vertex -8.961349e-01  2.933754e-01  0.000000e+00
   endloop
 endfacet
 facet normal  0.000000e+00  0.000000e+00 -1.000000e+00
   outer loop
     vertex -8.862872e-01  2.865781e-01  0.000000e+00
     vertex -9.080134e-01  2.948177e-01  0.000000e+00
     vertex -9.019866e-01  2.948177e-01  0.000000e+00
   endloop
 endfacet
 facet normal  0.000000e+00  0.000000e+00 -1.000000e+00
   outer loop
     vertex -8.862872e-01  2.865781e-01  0.000000e+00
     vertex -9.138651e-01  2.933754e-01  0.000000e+00
     vertex -9.080134e-01  2.948177e-01  0.000000e+00
   endloop
 endfacet
 facet normal  0.000000e+00  0.000000e+00 -1.000000e+00
   outer loop
     vertex -8.862872e-01  2.865781e-01  0.000000e+00
     vertex -9.192016e-01  2.905746e-01  0.000000e+00
     vertex -9.138651e-01  2.933754e-01  0.000000e+00
   endloop
 endfacet
 facet normal  0.000000e+00  0.000000e+00 -1.000000e+00
   outer loop
     vertex -8.862872e-01  2.865781e-01  0.000000e+00
     vertex -9.237128e-01  2.865781e-01  0.000000e+00
     vertex -9.192016e-01  2.905746e-01  0.000000e+00
   endloop
 endfacet
 facet normal -0.000000e+00  0.000000e+00 -1.000000e+00
   outer loop
     vertex -8.862872e-01  2.865781e-01  0.000000e+00
     vertex -9.271364e-01  2.816181e-01  0.000000e+00
     vertex -9.237128e-01  2.865781e-01  0.000000e+00
   endloop
 endfacet
 facet normal  0.000000e+00  0.000000e+00 -1.000000e+00
   outer loop
     vertex -8.862872e-01  2.865781e-01  0.000000e+00
     vertex -9.292735e-01  2.759829e-01  0.000000e+00
     vertex -9.271364e-01  2.816181e-01  0.000000e+00
   endloop
 endfacet
 facet normal  0.000000e+00  0.000000e+00 -1.000000e+00
   outer loop
     vertex -8.862872e-01  2.865781e-01  0.000000e+00
     vertex -9.300000e-01  2.700000e-01  0.000000e+00
     vertex -9.292735e-01  2.759829e-01  0.000000e+00
   endloop
 endfacet
 facet normal  0.000000e+00  0.000000e+00 -1.000000e+00
   outer loop
     vertex -8.862872e-01  2.865781e-01  0.000000e+00
     vertex -9.292735e-01  2.640171e-01  0.000000e+00
     vertex -9.300000e-01  2.700000e-01  0.000000e+00
   endloop
 endfacet
 facet normal  0.000000e+00  0.000000e+00 -1.000000e+00
   outer loop
     vertex -8.862872e-01  2.865781e-01  0.000000e+00
     vertex -9.271364e-01  2.583819e-01  0.000000e+00
     vertex -9.292735e-01  2.640171e-01  0.000000e+00
   endloop
 endfacet
 facet normal  0.000000e+00  0.000000e+00 -1.000000e+00
   outer loop
     vertex -8.862872e-01  2.865781e-01  0.000000e+00
     vertex -9.237128e-01  2.534219e-01  0.000000e+00
     vertex -9.271364e-01  2.583819e-01  0.000000e+00
   endloop
 endfacet
 facet normal  0.000000e+00  0.000000e+00 -1.000000e+00
   outer loop
     vertex -8.862872e-01  2.865781e-01  0.000000e+00
     vertex -9.192016e-01  2.494254e-01  0.000000e+00
     vertex -9.237128e-01  2.534219e-01  0.000000e+00
   endloop
 endfacet
 facet normal  0.000000e+00  0.000000e+00 -1.000000e+00
   outer loop
     vertex -8.862872e-01  2.865781e-01  0.000000e+00
     vertex -9.138651e-01  2.466246e-01  0.000000e+00
     vertex -9.192016e-01  2.494254e-01  0.000000e+00
   endloop
 endfacet
 facet normal  0.000000e+00  0.000000e+00 -1.000000e+00
   outer loop
     vertex -8.862872e-01  2.865781e-01  0.000000e+00
     vertex -9.080134e-01  2.451823e-01  0.000000e+00
     vertex -9.138651e-01  2.466246e-01  0.000000e+00
   endloop
 endfacet
 facet normal  0.000000e+00  0.000000e+00 -1.000000e+00
   outer loop
     vertex -8.862872e-01  2.865781e-01  0.000000e+00
     vertex -9.019866e-01  2.451823e-01  0.000000e+00
     vertex -9.080134e-01  2.451823e-01  0.000000e+00
   endloop
 endfacet
 facet normal  0.000000e+00  0.000000e+00 -1.000000e+00
   outer loop
     vertex -8.862872e-01  2.865781e-01  0.000000e+00
     vertex -8.961349e-01  2.466246e-01  0.000000e+00
     vertex -9.019866e-01  2.451823e-01  0.000000e+00
   endloop
 endfacet
 facet normal  0.000000e+00  0.000000e+00 -1.000000e+00
   outer loop
     vertex -8.862872e-01  2.865781e-01  0.000000e+00
     vertex -8.907984e-01  2.494254e-01  0.000000e+00
     vertex -8.961349e-01  2.466246e-01  0.000000e+00
   endloop
 endfacet
 facet normal  0.000000e+00 -0.000000e+00 -1.000000e+00
   outer loop
     vertex -8.862872e-01  2.865781e-01  0.000000e+00
     vertex -8.862872e-01  2.534219e-01  0.000000e+00
     vertex -8.907984e-01  2.494254e-01  0.000000e+00
   endloop
 endfacet
 facet normal  0.000000e+00  0.000000e+00 -1.000000e+00
   outer loop
     vertex -8.862872e-01  2.865781e-01  0.000000e+00
     vertex -8.828636e-01  2.583819e-01  0.000000e+00
     vertex -8.862872e-01  2.534219e-01  0.000000e+00
   endloop
 endfacet
 facet normal  0.000000e+00  0.000000e+00 -1.000000e+00
   outer loop
     vertex -8.862872e-01  2.865781e-01  0.000000e+00
     vertex -8.807265e-01  2.640171e-01  0.000000e+00
     vertex -8.828636e-01  2.583819e-01  0.000000e+00
   endloop
 endfacet
 facet normal  0.000000e+00  0.000000e+00 -1.000000e+00
   outer loop
     vertex -8.862872e-01  2.865781e-01  0.000000e+00
     vertex -8.800000e-01  2.700000e-01  0.000000e+00
     vertex -8.807265e-01  2.640171e-01  0.000000e+00
   endloop
 endfacet
 facet normal  0.000000e+00  0.000000e+00  1.000000e+00
   outer loop
     vertex -8.862872e-01  2.865781e-01  4.750000e-01
     vertex -8.800000e-01  2.700000e-01  4.750000e-01
     vertex -8.807265e-01  2.759829e-01  4.750000e-01
   endloop
 endfacet
 facet normal  0.000000e+00  0.000000e+00  1.000000e+00
   outer loop
     vertex -8.862872e-01  2.865781e-01  4.750000e-01
     vertex -8.807265e-01  2.759829e-01  4.750000e-01
     vertex -8.828636e-01  2.816181e-01  4.750000e-01
   endloop
 endfacet
 facet normal  0.000000e+00  0.000000e+00  1.000000e+00
   outer loop
     vertex -8.862872e-01  2.865781e-01  4.750000e-01
     vertex -8.907984e-01  2.905746e-01  4.750000e-01
     vertex -8.961349e-01  2.933754e-01  4.750000e-01
   endloop
 endfacet
 facet normal  0.000000e+00  0.000000e+00  1.000000e+00
   outer loop
     vertex -8.862872e-01  2.865781e-01  4.750000e-01
     vertex -8.961349e-01  2.933754e-01  4.750000e-01
     vertex -9.019866e-01  2.948177e-01  4.750000e-01
   endloop
 endfacet
 facet normal  0.000000e+00  0.000000e+00  1.000000e+00
   outer loop
     vertex -8.862872e-01  2.865781e-01  4.750000e-01
     vertex -9.019866e-01  2.948177e-01  4.750000e-01
     vertex -9.080134e-01  2.948177e-01  4.750000e-01
   endloop
 endfacet
 facet normal  0.000000e+00  0.000000e+00  1.000000e+00
   outer loop
     vertex -8.862872e-01  2.865781e-01  4.750000e-01
     vertex -9.080134e-01  2.948177e-01  4.750000e-01
     vertex -9.138651e-01  2.933754e-01  4.750000e-01
   endloop
 endfacet
 facet normal  0.000000e+00  0.000000e+00  1.000000e+00
   outer loop
     vertex -8.862872e-01  2.865781e-01  4.750000e-01
     vertex -9.138651e-01  2.933754e-01  4.750000e-01
     vertex -9.192016e-01  2.905746e-01  4.750000e-01
   endloop
 endfacet
 facet normal  0.000000e+00  0.000000e+00  1.000000e+00
   outer loop
     vertex -8.862872e-01  2.865781e-01  4.750000e-01
     vertex -9.192016e-01  2.905746e-01  4.750000e-01
     vertex -9.237128e-01  2.865781e-01  4.750000e-01
   endloop
 endfacet
 facet normal  0.000000e+00  0.000000e+00  1.000000e+00
   outer loop
     vertex -8.862872e-01  2.865781e-01  4.750000e-01
     vertex -9.237128e-01  2.865781e-01  4.750000e-01
     vertex -9.271364e-01  2.816181e-01  4.750000e-01
   endloop
 endfacet
 facet normal  0.000000e+00  0.000000e+00  1.000000e+00
   outer loop
     vertex -8.862872e-01  2.865781e-01  4.750000e-01
     vertex -9.271364e-01  2.816181e-01  4.750000e-01
     vertex -9.292735e-01  2.759829e-01  4.750000e-01
   endloop
 endfacet
 facet normal  0.000000e+00  0.000000e+00  1.000000e+00
   outer loop
     vertex -8.862872e-01  2.865781e-01  4.750000e-01
     vertex -9.292735e-01  2.759829e-01  4.750000e-01
     vertex -9.300000e-01  2.700000e-01  4.750000e-01
   endloop
 endfacet
 facet normal  0.000000e+00  0.000000e+00  1.000000e+00
   outer loop
     vertex -8.862872e-01  2.865781e-01  4.750000e-01
     vertex -9.300000e-01  2.700000e-01  4.750000e-01
     vertex -9.292735e-01  2.640171e-01  4.750000e-01
   endloop
 endfacet
 facet normal  0.000000e+00  0.000000e+00  1.000000e+00
   outer loop
     vertex -8.862872e-01  2.865781e-01  4.750000e-01
     vertex -9.292735e-01  2.640171e-01  4.750000e-01
     vertex -9.271364e-01  2.583819e-01  4.750000e-01
   endloop
 endfacet
 facet normal  0.000000e+00  0.000000e+00  1.000000e+00
   outer loop
     vertex -8.862872e-01  2.865781e-01  4.750000e-01
     vertex -9.271364e-01  2.583819e-01  4.750000e-01
     vertex -9.237128e-01  2.534219e-01  4.750000e-01
   endloop
 endfacet
 facet normal  0.000000e+00  0.000000e+00  1.000000e+00
   outer loop
     vertex -8.862872e-01  2.865781e-01  4.750000e-01
     vertex -9.237128e-01  2.534219e-01  4.750000e-01
     vertex -9.192016e-01  2.494254e-01  4.750000e-01
   endloop
 endfacet
 facet normal  0.000000e+00  0.000000e+00  1.000000e+00
   outer loop
     vertex -8.862872e-01  2.865781e-01  4.750000e-01
     vertex -9.192016e-01  2.494254e-01  4.750000e-01
     vertex -9.138651e-01  2.466246e-01  4.750000e-01
   endloop
 endfacet
 facet normal  0.000000e+00  0.000000e+00  1.000000e+00
   outer loop
     vertex -8.862872e-01  2.865781e-01  4.750000e-01
     vertex -9.138651e-01  2.466246e-01  4.750000e-01
     vertex -9.080134e-01  2.451823e-01  4.750000e-01
   endloop
 endfacet
 facet normal  0.000000e+00  0.000000e+00  1.000000e+00
   outer loop
     vertex -8.862872e-01  2.865781e-01  4.750000e-01
     vertex -9.080134e-01  2.451823e-01  4.750000e-01
     vertex -9.019866e-01  2.451823e-01  4.750000e-01
   endloop
 endfacet
 facet normal  0.000000e+00  0.000000e+00  1.000000e+00
   outer loop
     vertex -8.862872e-01  2.865781e-01  4.750000e-01
     vertex -9.019866e-01  2.451823e-01  4.750000e-01
     vertex -8.961349e-01  2.466246e-01  4.750000e-01
   endloop
 endfacet
 facet normal  0.000000e+00  0.000000e+00  1.000000e+00
   outer loop
     vertex -8.862872e-01  2.865781e-01  4.750000e-01
     vertex -8.961349e-01  2.466246e-01  4.750000e-01
     vertex -8.907984e-01  2.494254e-01  4.750000e-01
   endloop
 endfacet
 facet normal  0.000000e+00  0.000000e+00  1.000000e+00
   outer loop
     vertex -8.862872e-01  2.865781e-01  4.750000e-01
     vertex -8.907984e-01  2.494254e-01  4.750000e-01
     vertex -8.862872e-01  2.534219e-01  4.750000e-01
   endloop
 endfacet
 facet normal  0.000000e+00  0.000000e+00  1.000000e+00
   outer loop
     vertex -8.862872e-01  2.865781e-01  4.750000e-01
     vertex -8.862872e-01  2.534219e-01  4.750000e-01
     vertex -8.828636e-01  2.583819e-01  4.750000e-01
   endloop
 endfacet
 facet normal  0.000000e+00  0.000000e+00  1.000000e+00
   outer loop
     vertex -8.862872e-01  2.865781e-01  4.750000e-01
     vertex -8.828636e-01  2.583819e-01  4.750000e-01
     vertex -8.807265e-01  2.640171e-01  4.750000e-01
   endloop
 endfacet
 facet normal  0.000000e+00  0.000000e+00  1.000000e+00
   outer loop
     vertex -8.862872e-01  2.865781e-01  4.750000e-01
     vertex -8.807265e-01  2.640171e-01  4.750000e-01
     vertex -8.800000e-01  2.700000e-01  4.750000e-01
   endloop
 endfacet
 facet normal  9.927089e-01  1.205367e-01  0.000000e+00
   outer loop
     vertex -5.357265e-01  2.759829e-01  0.000000e+00
     vertex -5.350000e-01  2.700000e-01  4.750000e-01
     vertex -5.350000e-01  2.700000e-01  0.000000e+00
   endloop
 endfacet
 facet normal  9.927089e-01  1.205367e-01 -0.000000e+00
   outer loop
     vertex -5.357265e-01  2.759829e-01  0.000000e+00
     vertex -5.357265e-01  2.759829e-01  4.750000e-01
     vertex -5.350000e-01  2.700000e-01  4.750000e-01
   endloop
 endfacet
 facet normal  9.350162e-01  3.546049e-01 -0.000000e+00
   outer loop
     vertex -5.378636e-01  2.816181e-01  0.000000e+00
     vertex -5.378636e-01  2.816181e-01  4.750000e-01
     vertex -5.357265e-01  2.759829e-01  4.750000e-01
   endloop
 endfacet
 facet normal  9.350162e-01  3.546049e-01  0.000000e+00
   outer loop
     vertex -5.378636e-01  2.816181e-01  0.000000e+00
     vertex -5.357265e-01  2.759829e-01  4.750000e-01
     vertex -5.357265e-01  2.759829e-01  0.000000e+00
   endloop
 endfacet
 facet normal  8.229839e-01  5.680647e-01 -0.000000e+00
   outer loop
     vertex -5.412872e-01  2.865781e-01  0.000000e+00
     vertex -5.412872e-01  2.865781e-01  4.750000e-01
     vertex -5.378636e-01  2.816181e-01  4.750000e-01
   endloop
 endfacet
 facet normal  8.229839e-01  5.680647e-01  0.000000e+00
   outer loop
     vertex -5.412872e-01  2.865781e-01  0.000000e+00
     vertex -5.378636e-01  2.816181e-01  4.750000e-01
     vertex -5.378636e-01  2.816181e-01  0.000000e+00
   endloop
 endfacet
 facet normal  6.631227e-01  7.485107e-01 -0.000000e+00
   outer loop
     vertex -5.457984e-01  2.905746e-01  0.000000e+00
     vertex -5.457984e-01  2.905746e-01  4.750000e-01
     vertex -5.412872e-01  2.865781e-01  4.750000e-01
   endloop
 endfacet
 facet normal  6.631227e-01  7.485107e-01  0.000000e+00
   outer loop
     vertex -5.457984e-01  2.905746e-01  0.000000e+00
     vertex -5.412872e-01  2.865781e-01  4.750000e-01
     vertex -5.412872e-01  2.865781e-01  0.000000e+00
   endloop
 endfacet
 facet normal  4.647232e-01  8.854560e-01 -0.000000e+00
   outer loop
     vertex -5.511349e-01  2.933754e-01  0.000000e+00
     vertex -5.511349e-01  2.933754e-01  4.750000e-01
     vertex -5.457984e-01  2.905746e-01  4.750000e-01
   endloop
 endfacet
 facet normal  4.647232e-01  8.854560e-01  0.000000e+00
   outer loop
     vertex -5.511349e-01  2.933754e-01  0.000000e+00
     vertex -5.457984e-01  2.905746e-01  4.750000e-01
     vertex -5.457984e-01  2.905746e-01  0.000000e+00
   endloop
 endfacet
 facet normal  2.393157e-01  9.709418e-01 -0.000000e+00
   outer loop
     vertex -5.569866e-01  2.948177e-01  0.000000e+00
     vertex -5.569866e-01  2.948177e-01  4.750000e-01
     vertex -5.511349e-01  2.933754e-01  4.750000e-01
   endloop
 endfacet
 facet normal  2.393157e-01  9.709418e-01  0.000000e+00
   outer loop
     vertex -5.569866e-01  2.948177e-01  0.000000e+00
     vertex -5.511349e-01  2.933754e-01  4.750000e-01
     vertex -5.511349e-01  2.933754e-01  0.000000e+00
   endloop
 endfacet
 facet normal  0.000000e+00  1.000000e+00  0.000000e+00
   outer loop
     vertex -5.630134e-01  2.948177e-01  0.000000e+00
     vertex -5.630134e-01  2.948177e-01  4.750000e-01
     vertex -5.569866e-01  2.948177e-01  4.750000e-01
   endloop
 endfacet
 facet normal  0.000000e+00  1.000000e+00  0.000000e+00
   outer loop
     vertex -5.630134e-01  2.948177e-01  0.000000e+00
     vertex -5.569866e-01  2.948177e-01  4.750000e-01
     vertex -5.569866e-01  2.948177e-01  0.000000e+00
   endloop
 endfacet
 facet normal -2.393157e-01  9.709418e-01  0.000000e+00
   outer loop
     vertex -5.688651e-01  2.933754e-01  0.000000e+00
     vertex -5.688651e-01  2.933754e-01  4.750000e-01
     vertex -5.630134e-01  2.948177e-01  4.750000e-01
   endloop
 endfacet
 facet normal -2.393157e-01  9.709418e-01  0.000000e+00
   outer loop
     vertex -5.688651e-01  2.933754e-01  0.000000e+00
     vertex -5.630134e-01  2.948177e-01  4.750000e-01
     vertex -5.630134e-01  2.948177e-01  0.000000e+00
   endloop
 endfacet
 facet normal -4.647232e-01  8.854560e-01  0.000000e+00
   outer loop
     vertex -5.742016e-01  2.905746e-01  0.000000e+00
     vertex -5.742016e-01  2.905746e-01  4.750000e-01
     vertex -5.688651e-01  2.933754e-01  4.750000e-01
   endloop
 endfacet
 facet normal -4.647232e-01  8.854560e-01  0.000000e+00
   outer loop
     vertex -5.742016e-01  2.905746e-01  0.000000e+00
     vertex -5.688651e-01  2.933754e-01  4.750000e-01
     vertex -5.688651e-01  2.933754e-01  0.000000e+00
   endloop
 endfacet
 facet normal -6.631227e-01  7.485107e-01  0.000000e+00
   outer loop
     vertex -5.787128e-01  2.865781e-01  0.000000e+00
     vertex -5.787128e-01  2.865781e-01  4.750000e-01
     vertex -5.742016e-01  2.905746e-01  4.750000e-01
   endloop
 endfacet
 facet normal -8.229839e-01  5.680647e-01  0.000000e+00
   outer loop
     vertex -5.787128e-01  2.865781e-01  0.000000e+00
     vertex -5.821364e-01  2.816181e-01  4.750000e-01
     vertex -5.787128e-01  2.865781e-01  4.750000e-01
   endloop
 endfacet
 facet normal -6.631227e-01  7.485107e-01  0.000000e+00
   outer loop
     vertex -5.787128e-01  2.865781e-01  0.000000e+00
     vertex -5.742016e-01  2.905746e-01  4.750000e-01
     vertex -5.742016e-01  2.905746e-01  0.000000e+00
   endloop
 endfacet
 facet normal -8.229839e-01  5.680647e-01  0.000000e+00
   outer loop
     vertex -5.821364e-01  2.816181e-01  0.000000e+00
     vertex -5.821364e-01  2.816181e-01  4.750000e-01
     vertex -5.787128e-01  2.865781e-01  0.000000e+00
   endloop
 endfacet
 facet normal -9.350162e-01  3.546049e-01  0.000000e+00
   outer loop
     vertex -5.842735e-01  2.759829e-01  0.000000e+00
     vertex -5.821364e-01  2.816181e-01  4.750000e-01
     vertex -5.821364e-01  2.816181e-01  0.000000e+00
   endloop
 endfacet
 facet normal -9.350162e-01  3.546049e-01  0.000000e+00
   outer loop
     vertex -5.842735e-01  2.759829e-01  0.000000e+00
     vertex -5.842735e-01  2.759829e-01  4.750000e-01
     vertex -5.821364e-01  2.816181e-01  4.750000e-01
   endloop
 endfacet
 facet normal -9.927089e-01  1.205367e-01  0.000000e+00
   outer loop
     vertex -5.850000e-01  2.700000e-01  0.000000e+00
     vertex -5.842735e-01  2.759829e-01  4.750000e-01
     vertex -5.842735e-01  2.759829e-01  0.000000e+00
   endloop
 endfacet
 facet normal -9.927089e-01  1.205367e-01  0.000000e+00
   outer loop
     vertex -5.850000e-01  2.700000e-01  0.000000e+00
     vertex -5.850000e-01  2.700000e-01  4.750000e-01
     vertex -5.842735e-01  2.759829e-01  4.750000e-01
   endloop
 endfacet
 facet normal -9.927089e-01 -1.205367e-01  0.000000e+00
   outer loop
     vertex -5.842735e-01  2.640171e-01  0.000000e+00
     vertex -5.842735e-01  2.640171e-01  4.750000e-01
     vertex -5.850000e-01  2.700000e-01  4.750000e-01
   endloop
 endfacet
 facet normal -9.927089e-01 -1.205367e-01  0.000000e+00
   outer loop
     vertex -5.842735e-01  2.640171e-01  0.000000e+00
     vertex -5.850000e-01  2.700000e-01  4.750000e-01
     vertex -5.850000e-01  2.700000e-01  0.000000e+00
   endloop
 endfacet
 facet normal -9.350162e-01 -3.546049e-01  0.000000e+00
   outer loop
     vertex -5.821364e-01  2.583819e-01  0.000000e+00
     vertex -5.821364e-01  2.583819e-01  4.750000e-01
     vertex -5.842735e-01  2.640171e-01  4.750000e-01
   endloop
 endfacet
 facet normal -9.350162e-01 -3.546049e-01  0.000000e+00
   outer loop
     vertex -5.821364e-01  2.583819e-01  0.000000e+00
     vertex -5.842735e-01  2.640171e-01  4.750000e-01
     vertex -5.842735e-01  2.640171e-01  0.000000e+00
   endloop
 endfacet
 facet normal -8.229839e-01 -5.680647e-01  0.000000e+00
   outer loop
     vertex -5.787128e-01  2.534219e-01  0.000000e+00
     vertex -5.787128e-01  2.534219e-01  4.750000e-01
     vertex -5.821364e-01  2.583819e-01  4.750000e-01
   endloop
 endfacet
 facet normal -8.229839e-01 -5.680647e-01  0.000000e+00
   outer loop
     vertex -5.787128e-01  2.534219e-01  0.000000e+00
     vertex -5.821364e-01  2.583819e-01  4.750000e-01
     vertex -5.821364e-01  2.583819e-01  0.000000e+00
   endloop
 endfacet
 facet normal -6.631227e-01 -7.485107e-01  0.000000e+00
   outer loop
     vertex -5.742016e-01  2.494254e-01  0.000000e+00
     vertex -5.742016e-01  2.494254e-01  4.750000e-01
     vertex -5.787128e-01  2.534219e-01  4.750000e-01
   endloop
 endfacet
 facet normal -4.647232e-01 -8.854560e-01  0.000000e+00
   outer loop
     vertex -5.742016e-01  2.494254e-01  0.000000e+00
     vertex -5.688651e-01  2.466246e-01  4.750000e-01
     vertex -5.742016e-01  2.494254e-01  4.750000e-01
   endloop
 endfacet
 facet normal -6.631227e-01 -7.485107e-01  0.000000e+00
   outer loop
     vertex -5.742016e-01  2.494254e-01  0.000000e+00
     vertex -5.787128e-01  2.534219e-01  4.750000e-01
     vertex -5.787128e-01  2.534219e-01  0.000000e+00
   endloop
 endfacet
 facet normal -4.647232e-01 -8.854560e-01  0.000000e+00
   outer loop
     vertex -5.688651e-01  2.466246e-01  0.000000e+00
     vertex -5.688651e-01  2.466246e-01  4.750000e-01
     vertex -5.742016e-01  2.494254e-01  0.000000e+00
   endloop
 endfacet
 facet normal -2.393157e-01 -9.709418e-01  0.000000e+00
   outer loop
     vertex -5.630134e-01  2.451823e-01  0.000000e+00
     vertex -5.630134e-01  2.451823e-01  4.750000e-01
     vertex -5.688651e-01  2.466246e-01  4.750000e-01
   endloop
 endfacet
 facet normal -2.393157e-01 -9.709418e-01  0.000000e+00
   outer loop
     vertex -5.630134e-01  2.451823e-01  0.000000e+00
     vertex -5.688651e-01  2.466246e-01  4.750000e-01
     vertex -5.688651e-01  2.466246e-01  0.000000e+00
   endloop
 endfacet
 facet normal  0.000000e+00 -1.000000e+00  0.000000e+00
   outer loop
     vertex -5.569866e-01  2.451823e-01  0.000000e+00
     vertex -5.569866e-01  2.451823e-01  4.750000e-01
     vertex -5.630134e-01  2.451823e-01  4.750000e-01
   endloop
 endfacet
 facet normal  2.393157e-01 -9.709418e-01  0.000000e+00
   outer loop
     vertex -5.569866e-01  2.451823e-01  0.000000e+00
     vertex -5.511349e-01  2.466246e-01  4.750000e-01
     vertex -5.569866e-01  2.451823e-01  4.750000e-01
   endloop
 endfacet
 facet normal  0.000000e+00 -1.000000e+00  0.000000e+00
   outer loop
     vertex -5.569866e-01  2.451823e-01  0.000000e+00
     vertex -5.630134e-01  2.451823e-01  4.750000e-01
     vertex -5.630134e-01  2.451823e-01  0.000000e+00
   endloop
 endfacet
 facet normal  2.393157e-01 -9.709418e-01  0.000000e+00
   outer loop
     vertex -5.511349e-01  2.466246e-01  0.000000e+00
     vertex -5.511349e-01  2.466246e-01  4.750000e-01
     vertex -5.569866e-01  2.451823e-01  0.000000e+00
   endloop
 endfacet
 facet normal  4.647232e-01 -8.854560e-01  0.000000e+00
   outer loop
     vertex -5.457984e-01  2.494254e-01  0.000000e+00
     vertex -5.457984e-01  2.494254e-01  4.750000e-01
     vertex -5.511349e-01  2.466246e-01  4.750000e-01
   endloop
 endfacet
 facet normal  4.647232e-01 -8.854560e-01  0.000000e+00
   outer loop
     vertex -5.457984e-01  2.494254e-01  0.000000e+00
     vertex -5.511349e-01  2.466246e-01  4.750000e-01
     vertex -5.511349e-01  2.466246e-01  0.000000e+00
   endloop
 endfacet
 facet normal  6.631227e-01 -7.485107e-01  0.000000e+00
   outer loop
     vertex -5.412872e-01  2.534219e-01  0.000000e+00
     vertex -5.412872e-01  2.534219e-01  4.750000e-01
     vertex -5.457984e-01  2.494254e-01  4.750000e-01
   endloop
 endfacet
 facet normal  6.631227e-01 -7.485107e-01  0.000000e+00
   outer loop
     vertex -5.412872e-01  2.534219e-01  0.000000e+00
     vertex -5.457984e-01  2.494254e-01  4.750000e-01
     vertex -5.457984e-01  2.494254e-01  0.000000e+00
   endloop
 endfacet
 facet normal  8.229839e-01 -5.680647e-01  0.000000e+00
   outer loop
     vertex -5.378636e-01  2.583819e-01  0.000000e+00
     vertex -5.378636e-01  2.583819e-01  4.750000e-01
     vertex -5.412872e-01  2.534219e-01  4.750000e-01
   endloop
 endfacet
 facet normal  9.350162e-01 -3.546049e-01  0.000000e+00
   outer loop
     vertex -5.378636e-01  2.583819e-01  0.000000e+00
     vertex -5.357265e-01  2.640171e-01  4.750000e-01
     vertex -5.378636e-01  2.583819e-01  4.750000e-01
   endloop
 endfacet
 facet normal  8.229839e-01 -5.680647e-01  0.000000e+00
   outer loop
     vertex -5.378636e-01  2.583819e-01  0.000000e+00
     vertex -5.412872e-01  2.534219e-01  4.750000e-01
     vertex -5.412872e-01  2.534219e-01  0.000000e+00
   endloop
 endfacet
 facet normal  9.350162e-01 -3.546049e-01  0.000000e+00
   outer loop
     vertex -5.357265e-01  2.640171e-01  0.000000e+00
     vertex -5.357265e-01  2.640171e-01  4.750000e-01
     vertex -5.378636e-01  2.583819e-01  0.000000e+00
   endloop
 endfacet
 facet normal  9.927089e-01 -1.205367e-01  0.000000e+00
   outer loop
     vertex -5.350000e-01  2.700000e-01  0.000000e+00
     vertex -5.350000e-01  2.700000e-01  4.750000e-01
     vertex -5.357265e-01  2.640171e-01  4.750000e-01
   endloop
 endfacet
 facet normal  9.927089e-01 -1.205367e-01  0.000000e+00
   outer loop
     vertex -5.350000e-01  2.700000e-01  0.000000e+00
     vertex -5.357265e-01  2.640171e-01  4.750000e-01
     vertex -5.357265e-01  2.640171e-01  0.000000e+00
   endloop
 endfacet
 facet normal  0.000000e+00  0.000000e+00 -1.000000e+00
   outer loop
     vertex -5.412872e-01  2.865781e-01  0.000000e+00
     vertex -5.357265e-01  2.759829e-01  0.000000e+00
     vertex -5.350000e-01  2.700000e-01  0.000000e+00
   endloop
 endfacet
 facet normal  0.000000e+00  0.000000e+00 -1.000000e+00
   outer loop
     vertex -5.412872e-01  2.865781e-01  0.000000e+00
     vertex -5.378636e-01  2.816181e-01  0.000000e+00
     vertex -5.357265e-01  2.759829e-01  0.000000e+00
   endloop
 endfacet
 facet normal  0.000000e+00  0.000000e+00 -1.000000e+00
   outer loop
     vertex -5.412872e-01  2.865781e-01  0.000000e+00
     vertex -5.511349e-01  2.933754e-01  0.000000e+00
     vertex -5.457984e-01  2.905746e-01  0.000000e+00
   endloop
 endfacet
 facet normal  0.000000e+00  0.000000e+00 -1.000000e+00
   outer loop
     vertex -5.412872e-01  2.865781e-01  0.000000e+00
     vertex -5.569866e-01  2.948177e-01  0.000000e+00
     vertex -5.511349e-01  2.933754e-01  0.000000e+00
   endloop
 endfacet
 facet normal  0.000000e+00  0.000000e+00 -1.000000e+00
   outer loop
     vertex -5.412872e-01  2.865781e-01  0.000000e+00
     vertex -5.630134e-01  2.948177e-01  0.000000e+00
     vertex -5.569866e-01  2.948177e-01  0.000000e+00
   endloop
 endfacet
 facet normal  0.000000e+00  0.000000e+00 -1.000000e+00
   outer loop
     vertex -5.412872e-01  2.865781e-01  0.000000e+00
     vertex -5.688651e-01  2.933754e-01  0.000000e+00
     vertex -5.630134e-01  2.948177e-01  0.000000e+00
   endloop
 endfacet
 facet normal  0.000000e+00  0.000000e+00 -1.000000e+00
   outer loop
     vertex -5.412872e-01  2.865781e-01  0.000000e+00
     vertex -5.742016e-01  2.905746e-01  0.000000e+00
     vertex -5.688651e-01  2.933754e-01  0.000000e+00
   endloop
 endfacet
 facet normal  0.000000e+00  0.000000e+00 -1.000000e+00
   outer loop
     vertex -5.412872e-01  2.865781e-01  0.000000e+00
     vertex -5.787128e-01  2.865781e-01  0.000000e+00
     vertex -5.742016e-01  2.905746e-01  0.000000e+00
   endloop
 endfacet
 facet normal -0.000000e+00  0.000000e+00 -1.000000e+00
   outer loop
     vertex -5.412872e-01  2.865781e-01  0.000000e+00
     vertex -5.821364e-01  2.816181e-01  0.000000e+00
     vertex -5.787128e-01  2.865781e-01  0.000000e+00
   endloop
 endfacet
 facet normal  0.000000e+00  0.000000e+00 -1.000000e+00
   outer loop
     vertex -5.412872e-01  2.865781e-01  0.000000e+00
     vertex -5.842735e-01  2.759829e-01  0.000000e+00
     vertex -5.821364e-01  2.816181e-01  0.000000e+00
   endloop
 endfacet
 facet normal  0.000000e+00  0.000000e+00 -1.000000e+00
   outer loop
     vertex -5.412872e-01  2.865781e-01  0.000000e+00
     vertex -5.850000e-01  2.700000e-01  0.000000e+00
     vertex -5.842735e-01  2.759829e-01  0.000000e+00
   endloop
 endfacet
 facet normal  0.000000e+00  0.000000e+00 -1.000000e+00
   outer loop
     vertex -5.412872e-01  2.865781e-01  0.000000e+00
     vertex -5.842735e-01  2.640171e-01  0.000000e+00
     vertex -5.850000e-01  2.700000e-01  0.000000e+00
   endloop
 endfacet
 facet normal  0.000000e+00  0.000000e+00 -1.000000e+00
   outer loop
     vertex -5.412872e-01  2.865781e-01  0.000000e+00
     vertex -5.821364e-01  2.583819e-01  0.000000e+00
     vertex -5.842735e-01  2.640171e-01  0.000000e+00
   endloop
 endfacet
 facet normal  0.000000e+00  0.000000e+00 -1.000000e+00
   outer loop
     vertex -5.412872e-01  2.865781e-01  0.000000e+00
     vertex -5.787128e-01  2.534219e-01  0.000000e+00
     vertex -5.821364e-01  2.583819e-01  0.000000e+00
   endloop
 endfacet
 facet normal  0.000000e+00  0.000000e+00 -1.000000e+00
   outer loop
     vertex -5.412872e-01  2.865781e-01  0.000000e+00
     vertex -5.742016e-01  2.494254e-01  0.000000e+00
     vertex -5.787128e-01  2.534219e-01  0.000000e+00
   endloop
 endfacet
 facet normal  0.000000e+00  0.000000e+00 -1.000000e+00
   outer loop
     vertex -5.412872e-01  2.865781e-01  0.000000e+00
     vertex -5.688651e-01  2.466246e-01  0.000000e+00
     vertex -5.742016e-01  2.494254e-01  0.000000e+00
   endloop
 endfacet
 facet normal  0.000000e+00  0.000000e+00 -1.000000e+00
   outer loop
     vertex -5.412872e-01  2.865781e-01  0.000000e+00
     vertex -5.630134e-01  2.451823e-01  0.000000e+00
     vertex -5.688651e-01  2.466246e-01  0.000000e+00
   endloop
 endfacet
 facet normal  0.000000e+00  0.000000e+00 -1.000000e+00
   outer loop
     vertex -5.412872e-01  2.865781e-01  0.000000e+00
     vertex -5.569866e-01  2.451823e-01  0.000000e+00
     vertex -5.630134e-01  2.451823e-01  0.000000e+00
   endloop
 endfacet
 facet normal  0.000000e+00  0.000000e+00 -1.000000e+00
   outer loop
     vertex -5.412872e-01  2.865781e-01  0.000000e+00
     vertex -5.511349e-01  2.466246e-01  0.000000e+00
     vertex -5.569866e-01  2.451823e-01  0.000000e+00
   endloop
 endfacet
 facet normal  0.000000e+00  0.000000e+00 -1.000000e+00
   outer loop
     vertex -5.412872e-01  2.865781e-01  0.000000e+00
     vertex -5.457984e-01  2.494254e-01  0.000000e+00
     vertex -5.511349e-01  2.466246e-01  0.000000e+00
   endloop
 endfacet
 facet normal  0.000000e+00 -0.000000e+00 -1.000000e+00
   outer loop
     vertex -5.412872e-01  2.865781e-01  0.000000e+00
     vertex -5.412872e-01  2.534219e-01  0.000000e+00
     vertex -5.457984e-01  2.494254e-01  0.000000e+00
   endloop
 endfacet
 facet normal  0.000000e+00  0.000000e+00 -1.000000e+00
   outer loop
     vertex -5.412872e-01  2.865781e-01  0.000000e+00
     vertex -5.378636e-01  2.583819e-01  0.000000e+00
     vertex -5.412872e-01  2.534219e-01  0.000000e+00
   endloop
 endfacet
 facet normal  0.000000e+00  0.000000e+00 -1.000000e+00
   outer loop
     vertex -5.412872e-01  2.865781e-01  0.000000e+00
     vertex -5.357265e-01  2.640171e-01  0.000000e+00
     vertex -5.378636e-01  2.583819e-01  0.000000e+00
   endloop
 endfacet
 facet normal  0.000000e+00  0.000000e+00 -1.000000e+00
   outer loop
     vertex -5.412872e-01  2.865781e-01  0.000000e+00
     vertex -5.350000e-01  2.700000e-01  0.000000e+00
     vertex -5.357265e-01  2.640171e-01  0.000000e+00
   endloop
 endfacet
 facet normal  0.000000e+00  0.000000e+00  1.000000e+00
   outer loop
     vertex -5.412872e-01  2.865781e-01  4.750000e-01
     vertex -5.350000e-01  2.700000e-01  4.750000e-01
     vertex -5.357265e-01  2.759829e-01  4.750000e-01
   endloop
 endfacet
 facet normal  0.000000e+00  0.000000e+00  1.000000e+00
   outer loop
     vertex -5.412872e-01  2.865781e-01  4.750000e-01
     vertex -5.357265e-01  2.759829e-01  4.750000e-01
     vertex -5.378636e-01  2.816181e-01  4.750000e-01
   endloop
 endfacet
 facet normal  0.000000e+00  0.000000e+00  1.000000e+00
   outer loop
     vertex -5.412872e-01  2.865781e-01  4.750000e-01
     vertex -5.457984e-01  2.905746e-01  4.750000e-01
     vertex -5.511349e-01  2.933754e-01  4.750000e-01
   endloop
 endfacet
 facet normal  0.000000e+00  0.000000e+00  1.000000e+00
   outer loop
     vertex -5.412872e-01  2.865781e-01  4.750000e-01
     vertex -5.511349e-01  2.933754e-01  4.750000e-01
     vertex -5.569866e-01  2.948177e-01  4.750000e-01
   endloop
 endfacet
 facet normal  0.000000e+00  0.000000e+00  1.000000e+00
   outer loop
     vertex -5.412872e-01  2.865781e-01  4.750000e-01
     vertex -5.569866e-01  2.948177e-01  4.750000e-01
     vertex -5.630134e-01  2.948177e-01  4.750000e-01
   endloop
 endfacet
 facet normal  0.000000e+00  0.000000e+00  1.000000e+00
   outer loop
     vertex -5.412872e-01  2.865781e-01  4.750000e-01
     vertex -5.630134e-01  2.948177e-01  4.750000e-01
     vertex -5.688651e-01  2.933754e-01  4.750000e-01
   endloop
 endfacet
 facet normal  0.000000e+00  0.000000e+00  1.000000e+00
   outer loop
     vertex -5.412872e-01  2.865781e-01  4.750000e-01
     vertex -5.688651e-01  2.933754e-01  4.750000e-01
     vertex -5.742016e-01  2.905746e-01  4.750000e-01
   endloop
 endfacet
 facet normal  0.000000e+00  0.000000e+00  1.000000e+00
   outer loop
     vertex -5.412872e-01  2.865781e-01  4.750000e-01
     vertex -5.742016e-01  2.905746e-01  4.750000e-01
     vertex -5.787128e-01  2.865781e-01  4.750000e-01
   endloop
 endfacet
 facet normal  0.000000e+00  0.000000e+00  1.000000e+00
   outer loop
     vertex -5.412872e-01  2.865781e-01  4.750000e-01
     vertex -5.787128e-01  2.865781e-01  4.750000e-01
     vertex -5.821364e-01  2.816181e-01  4.750000e-01
   endloop
 endfacet
 facet normal  0.000000e+00  0.000000e+00  1.000000e+00
   outer loop
     vertex -5.412872e-01  2.865781e-01  4.750000e-01
     vertex -5.821364e-01  2.816181e-01  4.750000e-01
     vertex -5.842735e-01  2.759829e-01  4.750000e-01
   endloop
 endfacet
 facet normal  0.000000e+00  0.000000e+00  1.000000e+00
   outer loop
     vertex -5.412872e-01  2.865781e-01  4.750000e-01
     vertex -5.842735e-01  2.759829e-01  4.750000e-01
     vertex -5.850000e-01  2.700000e-01  4.750000e-01
   endloop
 endfacet
 facet normal  0.000000e+00  0.000000e+00  1.000000e+00
   outer loop
     vertex -5.412872e-01  2.865781e-01  4.750000e-01
     vertex -5.850000e-01  2.700000e-01  4.750000e-01
     vertex -5.842735e-01  2.640171e-01  4.750000e-01
   endloop
 endfacet
 facet normal  0.000000e+00  0.000000e+00  1.000000e+00
   outer loop
     vertex -5.412872e-01  2.865781e-01  4.750000e-01
     vertex -5.842735e-01  2.640171e-01  4.750000e-01
     vertex -5.821364e-01  2.583819e-01  4.750000e-01
   endloop
 endfacet
 facet normal  0.000000e+00  0.000000e+00  1.000000e+00
   outer loop
     vertex -5.412872e-01  2.865781e-01  4.750000e-01
     vertex -5.821364e-01  2.583819e-01  4.750000e-01
     vertex -5.787128e-01  2.534219e-01  4.750000e-01
   endloop
 endfacet
 facet normal  0.000000e+00  0.000000e+00  1.000000e+00
   outer loop
     vertex -5.412872e-01  2.865781e-01  4.750000e-01
     vertex -5.787128e-01  2.534219e-01  4.750000e-01
     vertex -5.742016e-01  2.494254e-01  4.750000e-01
   endloop
 endfacet
 facet normal  0.000000e+00  0.000000e+00  1.000000e+00
   outer loop
     vertex -5.412872e-01  2.865781e-01  4.750000e-01
     vertex -5.742016e-01  2.494254e-01  4.750000e-01
     vertex -5.688651e-01  2.466246e-01  4.750000e-01
   endloop
 endfacet
 facet normal  0.000000e+00  0.000000e+00  1.000000e+00
   outer loop
     vertex -5.412872e-01  2.865781e-01  4.750000e-01
     vertex -5.688651e-01  2.466246e-01  4.750000e-01
     vertex -5.630134e-01  2.451823e-01  4.750000e-01
   endloop
 endfacet
 facet normal  0.000000e+00  0.000000e+00  1.000000e+00
   outer loop
     vertex -5.412872e-01  2.865781e-01  4.750000e-01
     vertex -5.630134e-01  2.451823e-01  4.750000e-01
     vertex -5.569866e-01  2.451823e-01  4.750000e-01
   endloop
 endfacet
 facet normal  0.000000e+00  0.000000e+00  1.000000e+00
   outer loop
     vertex -5.412872e-01  2.865781e-01  4.750000e-01
     vertex -5.569866e-01  2.451823e-01  4.750000e-01
     vertex -5.511349e-01  2.466246e-01  4.750000e-01
   endloop
 endfacet
 facet normal  0.000000e+00  0.000000e+00  1.000000e+00
   outer loop
     vertex -5.412872e-01  2.865781e-01  4.750000e-01
     vertex -5.511349e-01  2.466246e-01  4.750000e-01
     vertex -5.457984e-01  2.494254e-01  4.750000e-01
   endloop
 endfacet
 facet normal  0.000000e+00  0.000000e+00  1.000000e+00
   outer loop
     vertex -5.412872e-01  2.865781e-01  4.750000e-01
     vertex -5.457984e-01  2.494254e-01  4.750000e-01
     vertex -5.412872e-01  2.534219e-01  4.750000e-01
   endloop
 endfacet
 facet normal  0.000000e+00  0.000000e+00  1.000000e+00
   outer loop
     vertex -5.412872e-01  2.865781e-01  4.750000e-01
     vertex -5.412872e-01  2.534219e-01  4.750000e-01
     vertex -5.378636e-01  2.583819e-01  4.750000e-01
   endloop
 endfacet
 facet normal  0.000000e+00  0.000000e+00  1.000000e+00
   outer loop
     vertex -5.412872e-01  2.865781e-01  4.750000e-01
     vertex -5.378636e-01  2.583819e-01  4.750000e-01
     vertex -5.357265e-01  2.640171e-01  4.750000e-01
   endloop
 endfacet
 facet normal  0.000000e+00  0.000000e+00  1.000000e+00
   outer loop
     vertex -5.412872e-01  2.865781e-01  4.750000e-01
     vertex -5.357265e-01  2.640171e-01  4.750000e-01
     vertex -5.350000e-01  2.700000e-01  4.750000e-01
   endloop
 endfacet
endsolid
