solid 
 facet normal  0.000000e+00 -1.000000e+00  0.000000e+00
   outer loop
     vertex -9.800000e-01  0.000000e+00  0.000000e+00
     vertex  0.000000e+00  0.000000e+00  0.000000e+00
     vertex  0.000000e+00  0.000000e+00  1.000000e+00
   endloop
 endfacet
 facet normal  0.000000e+00 -1.000000e+00  0.000000e+00
   outer loop
     vertex -9.800000e-01  0.000000e+00  0.000000e+00
     vertex  0.000000e+00  0.000000e+00  1.000000e+00
     vertex -9.800000e-01  0.000000e+00  1.000000e+00
   endloop
 endfacet
 facet normal -1.000000e+00  0.000000e+00  0.000000e+00
   outer loop
     vertex -9.800000e-01  4.900000e-01  0.000000e+00
     vertex -9.800000e-01  0.000000e+00  0.000000e+00
     vertex -9.800000e-01  0.000000e+00  1.000000e+00
   endloop
 endfacet
 facet normal -1.000000e+00  0.000000e+00  0.000000e+00
   outer loop
     vertex -9.800000e-01  4.900000e-01  0.000000e+00
     vertex -9.800000e-01  0.000000e+00  1.000000e+00
     vertex -9.800000e-01  4.900000e-01  1.000000e+00
   endloop
 endfacet
 facet normal  4.057057e-01  9.140037e-01  0.000000e+00
   outer loop
     vertex -9.800000e-01  4.900000e-01  0.000000e+00
     vertex  0.000000e+00  5.500000e-02  1.000000e+00
     vertex  0.000000e+00  5.500000e-02  0.000000e+00
   endloop
 endfacet
 facet normal  4.057057e-01  9.140037e-01 -0.000000e+00
   outer loop
     vertex -9.800000e-01  4.900000e-01  0.000000e+00
     vertex -9.800000e-01  4.900000e-01  1.000000e+00
     vertex  0.000000e+00  5.500000e-02  1.000000e+00
   endloop
 endfacet
 facet normal  1.000000e+00  0.000000e+00  0.000000e+00
   outer loop
     vertex  0.000000e+00  5.500000e-02  0.000000e+00
     vertex  0.000000e+00  0.000000e+00  1.000000e+00
     vertex  0.000000e+00  0.000000e+00  0.000000e+00
   endloop
 endfacet
 facet normal  1.000000e+00  0.000000e+00 -0.000000e+00
   outer loop
     vertex  0.000000e+00  5.500000e-02  0.000000e+00
     vertex  0.000000e+00  5.500000e-02  1.000000e+00
     vertex  0.000000e+00  0.000000e+00  1.000000e+00
   endloop
 endfacet
 facet normal -0.000000e+00  0.000000e+00 -1.000000e+00
   outer loop
     vertex  0.000000e+00  5.500000e-02  0.000000e+00
     vertex -9.800000e-01  0.000000e+00  0.000000e+00
     vertex -9.800000e-01  4.900000e-01  0.000000e+00
   endloop
 endfacet
 facet normal  0.000000e+00 -0.000000e+00 -1.000000e+00
   outer loop
     vertex  0.000000e+00  5.500000e-02  0.000000e+00
     vertex  0.000000e+00  0.000000e+00  0.000000e+00
     vertex -9.800000e-01  0.000000e+00  0.000000e+00
   endloop
 endfacet
 facet normal  0.000000e+00  0.000000e+00  1.000000e+00
   outer loop
     vertex  0.000000e+00  5.500000e-02  1.000000e+00
     vertex -9.800000e-01  4.900000e-01  1.000000e+00
     vertex -9.800000e-01  0.000000e+00  1.000000e+00
   endloop
 endfacet
 facet normal  0.000000e+00  0.000000e+00  1.000000e+00
   outer loop
     vertex  0.000000e+00  5.500000e-02  1.000000e+00
     vertex -9.800000e-01  0.000000e+00  1.000000e+00
     vertex  0.000000e+00  0.000000e+00  1.000000e+00
   endloop
 endfacet
endsolid
