solid 
 facet normal  0.000000e+00 -1.000000e+00  0.000000e+00
   outer loop
     vertex  9.800000e-01  0.000000e+00  0.000000e+00
     vertex  0.000000e+00  0.000000e+00  5.600000e-01
     vertex  0.000000e+00  0.000000e+00  0.000000e+00
   endloop
 endfacet
 facet normal  0.000000e+00 -1.000000e+00  0.000000e+00
   outer loop
     vertex  9.800000e-01  0.000000e+00  0.000000e+00
     vertex  9.800000e-01  0.000000e+00  5.600000e-01
     vertex  0.000000e+00  0.000000e+00  5.600000e-01
   endloop
 endfacet
 facet normal  1.000000e+00  0.000000e+00  0.000000e+00
   outer loop
     vertex  9.800000e-01  9.800000e-01  0.000000e+00
     vertex  9.800000e-01  0.000000e+00  5.600000e-01
     vertex  9.800000e-01  0.000000e+00  0.000000e+00
   endloop
 endfacet
 facet normal  1.000000e+00  0.000000e+00 -0.000000e+00
   outer loop
     vertex  9.800000e-01  9.800000e-01  0.000000e+00
     vertex  9.800000e-01  9.800000e-01  5.600000e-01
     vertex  9.800000e-01  0.000000e+00  5.600000e-01
   endloop
 endfacet
 facet normal  0.000000e+00  1.000000e+00  0.000000e+00
   outer loop
     vertex  9.800000e-01  9.800000e-01  0.000000e+00
     vertex  0.000000e+00  9.800000e-01  0.000000e+00
     vertex  0.000000e+00  9.800000e-01  5.600000e-01
   endloop
 endfacet
 facet normal  0.000000e+00  1.000000e+00 -0.000000e+00
   outer loop
     vertex  9.800000e-01  9.800000e-01  0.000000e+00
     vertex  0.000000e+00  9.800000e-01  5.600000e-01
     vertex  9.800000e-01  9.800000e-01  5.600000e-01
   endloop
 endfacet
 facet normal -1.000000e+00  0.000000e+00  0.000000e+00
   outer loop
     vertex  0.000000e+00  9.800000e-01  0.000000e+00
     vertex  0.000000e+00  0.000000e+00  0.000000e+00
     vertex  0.000000e+00  0.000000e+00  5.600000e-01
   endloop
 endfacet
 facet normal -1.000000e+00  0.000000e+00  0.000000e+00
   outer loop
     vertex  0.000000e+00  9.800000e-01  0.000000e+00
     vertex  0.000000e+00  0.000000e+00  5.600000e-01
     vertex  0.000000e+00  9.800000e-01  5.600000e-01
   endloop
 endfacet
 facet normal  0.000000e+00 -0.000000e+00 -1.000000e+00
   outer loop
     vertex  9.800000e-01  9.800000e-01  0.000000e+00
     vertex  9.800000e-01  0.000000e+00  0.000000e+00
     vertex  0.000000e+00  0.000000e+00  0.000000e+00
   endloop
 endfacet
 facet normal -0.000000e+00  0.000000e+00 -1.000000e+00
   outer loop
     vertex  9.800000e-01  9.800000e-01  0.000000e+00
     vertex  0.000000e+00  0.000000e+00  0.000000e+00
     vertex  0.000000e+00  9.800000e-01  0.000000e+00
   endloop
 endfacet
 facet normal  0.000000e+00  0.000000e+00  1.000000e+00
   outer loop
     vertex  9.800000e-01  9.800000e-01  5.600000e-01
     vertex  0.000000e+00  0.000000e+00  5.600000e-01
     vertex  9.800000e-01  0.000000e+00  5.600000e-01
   endloop
 endfacet
 facet normal  0.000000e+00  0.000000e+00  1.000000e+00
   outer loop
     vertex  9.800000e-01  9.800000e-01  5.600000e-01
     vertex  0.000000e+00  9.800000e-01  5.600000e-01
     vertex  0.000000e+00  0.000000e+00  5.600000e-01
   endloop
 endfacet
 facet normal  9.965845e-01  8.257935e-02  0.000000e+00
   outer loop
     vertex  9.813809e+01  9.802304e+01  1.120000e+02
     vertex  9.814000e+01  9.800000e+01  1.120000e+02
     vertex  9.814000e+01  9.800000e+01  1.118600e+02
   endloop
 endfacet
 facet normal  9.965845e-01  8.257935e-02  0.000000e+00
   outer loop
     vertex  9.813809e+01  9.802304e+01  1.120000e+02
     vertex  9.814000e+01  9.800000e+01  1.118600e+02
     vertex  9.813809e+01  9.802304e+01  1.118600e+02
   endloop
 endfacet
 facet normal  9.694003e-01  2.454855e-01  0.000000e+00
   outer loop
     vertex  9.813241e+01  9.804546e+01  1.120000e+02
     vertex  9.813809e+01  9.802304e+01  1.118600e+02
     vertex  9.813241e+01  9.804546e+01  1.118600e+02
   endloop
 endfacet
 facet normal  9.694003e-01  2.454855e-01  0.000000e+00
   outer loop
     vertex  9.813241e+01  9.804546e+01  1.120000e+02
     vertex  9.813809e+01  9.802304e+01  1.120000e+02
     vertex  9.813809e+01  9.802304e+01  1.118600e+02
   endloop
 endfacet
 facet normal  9.157733e-01  4.016954e-01  0.000000e+00
   outer loop
     vertex  9.812313e+01  9.806663e+01  1.120000e+02
     vertex  9.813241e+01  9.804546e+01  1.118600e+02
     vertex  9.812313e+01  9.806663e+01  1.118600e+02
   endloop
 endfacet
 facet normal  9.157733e-01  4.016954e-01  0.000000e+00
   outer loop
     vertex  9.812313e+01  9.806663e+01  1.120000e+02
     vertex  9.813241e+01  9.804546e+01  1.120000e+02
     vertex  9.813241e+01  9.804546e+01  1.118600e+02
   endloop
 endfacet
 facet normal  8.371665e-01  5.469482e-01  0.000000e+00
   outer loop
     vertex  9.811048e+01  9.808599e+01  1.120000e+02
     vertex  9.812313e+01  9.806663e+01  1.118600e+02
     vertex  9.811048e+01  9.808599e+01  1.118600e+02
   endloop
 endfacet
 facet normal  8.371665e-01  5.469482e-01  0.000000e+00
   outer loop
     vertex  9.811048e+01  9.808599e+01  1.120000e+02
     vertex  9.812313e+01  9.806663e+01  1.120000e+02
     vertex  9.812313e+01  9.806663e+01  1.118600e+02
   endloop
 endfacet
 facet normal  7.357239e-01  6.772816e-01  0.000000e+00
   outer loop
     vertex  9.809482e+01  9.810300e+01  1.120000e+02
     vertex  9.811048e+01  9.808599e+01  1.120000e+02
     vertex  9.811048e+01  9.808599e+01  1.118600e+02
   endloop
 endfacet
 facet normal  7.357239e-01  6.772816e-01  0.000000e+00
   outer loop
     vertex  9.809482e+01  9.810300e+01  1.120000e+02
     vertex  9.811048e+01  9.808599e+01  1.118600e+02
     vertex  9.809482e+01  9.810300e+01  1.118600e+02
   endloop
 endfacet
 facet normal  6.142127e-01  7.891405e-01  0.000000e+00
   outer loop
     vertex  9.807657e+01  9.811720e+01  1.120000e+02
     vertex  9.809482e+01  9.810300e+01  1.118600e+02
     vertex  9.807657e+01  9.811720e+01  1.118600e+02
   endloop
 endfacet
 facet normal  6.142127e-01  7.891405e-01  0.000000e+00
   outer loop
     vertex  9.807657e+01  9.811720e+01  1.120000e+02
     vertex  9.809482e+01  9.810300e+01  1.120000e+02
     vertex  9.809482e+01  9.810300e+01  1.118600e+02
   endloop
 endfacet
 facet normal  4.759474e-01  8.794738e-01  0.000000e+00
   outer loop
     vertex  9.805624e+01  9.812821e+01  1.120000e+02
     vertex  9.807657e+01  9.811720e+01  1.118600e+02
     vertex  9.805624e+01  9.812821e+01  1.118600e+02
   endloop
 endfacet
 facet normal  4.759474e-01  8.794738e-01  0.000000e+00
   outer loop
     vertex  9.805624e+01  9.812821e+01  1.120000e+02
     vertex  9.807657e+01  9.811720e+01  1.120000e+02
     vertex  9.807657e+01  9.811720e+01  1.118600e+02
   endloop
 endfacet
 facet normal  3.246995e-01  9.458172e-01  0.000000e+00
   outer loop
     vertex  9.803437e+01  9.813572e+01  1.120000e+02
     vertex  9.805624e+01  9.812821e+01  1.118600e+02
     vertex  9.803437e+01  9.813572e+01  1.118600e+02
   endloop
 endfacet
 facet normal  1.645946e-01  9.863613e-01  0.000000e+00
   outer loop
     vertex  9.803437e+01  9.813572e+01  1.120000e+02
     vertex  9.803437e+01  9.813572e+01  1.118600e+02
     vertex  9.801156e+01  9.813952e+01  1.118600e+02
   endloop
 endfacet
 facet normal  3.246995e-01  9.458172e-01  0.000000e+00
   outer loop
     vertex  9.803437e+01  9.813572e+01  1.120000e+02
     vertex  9.805624e+01  9.812821e+01  1.120000e+02
     vertex  9.805624e+01  9.812821e+01  1.118600e+02
   endloop
 endfacet
 facet normal  1.645946e-01  9.863613e-01  0.000000e+00
   outer loop
     vertex  9.801156e+01  9.813952e+01  1.120000e+02
     vertex  9.803437e+01  9.813572e+01  1.120000e+02
     vertex  9.801156e+01  9.813952e+01  1.118600e+02
   endloop
 endfacet
 facet normal  0.000000e+00  1.000000e+00  0.000000e+00
   outer loop
     vertex  9.798844e+01  9.813952e+01  1.120000e+02
     vertex  9.801156e+01  9.813952e+01  1.118600e+02
     vertex  9.798844e+01  9.813952e+01  1.118600e+02
   endloop
 endfacet
 facet normal -0.000000e+00  1.000000e+00  0.000000e+00
   outer loop
     vertex  9.798844e+01  9.813952e+01  1.120000e+02
     vertex  9.801156e+01  9.813952e+01  1.120000e+02
     vertex  9.801156e+01  9.813952e+01  1.118600e+02
   endloop
 endfacet
 facet normal -1.645946e-01  9.863613e-01  0.000000e+00
   outer loop
     vertex  9.796563e+01  9.813572e+01  1.120000e+02
     vertex  9.798844e+01  9.813952e+01  1.118600e+02
     vertex  9.796563e+01  9.813572e+01  1.118600e+02
   endloop
 endfacet
 facet normal -1.645946e-01  9.863613e-01  0.000000e+00
   outer loop
     vertex  9.796563e+01  9.813572e+01  1.120000e+02
     vertex  9.798844e+01  9.813952e+01  1.120000e+02
     vertex  9.798844e+01  9.813952e+01  1.118600e+02
   endloop
 endfacet
 facet normal -3.246995e-01  9.458172e-01  0.000000e+00
   outer loop
     vertex  9.794376e+01  9.812821e+01  1.120000e+02
     vertex  9.796563e+01  9.813572e+01  1.118600e+02
     vertex  9.794376e+01  9.812821e+01  1.118600e+02
   endloop
 endfacet
 facet normal -3.246995e-01  9.458172e-01  0.000000e+00
   outer loop
     vertex  9.794376e+01  9.812821e+01  1.120000e+02
     vertex  9.796563e+01  9.813572e+01  1.120000e+02
     vertex  9.796563e+01  9.813572e+01  1.118600e+02
   endloop
 endfacet
 facet normal -4.759474e-01  8.794738e-01  0.000000e+00
   outer loop
     vertex  9.792343e+01  9.811720e+01  1.120000e+02
     vertex  9.794376e+01  9.812821e+01  1.118600e+02
     vertex  9.792343e+01  9.811720e+01  1.118600e+02
   endloop
 endfacet
 facet normal -4.759474e-01  8.794738e-01  0.000000e+00
   outer loop
     vertex  9.792343e+01  9.811720e+01  1.120000e+02
     vertex  9.794376e+01  9.812821e+01  1.120000e+02
     vertex  9.794376e+01  9.812821e+01  1.118600e+02
   endloop
 endfacet
 facet normal -6.142127e-01  7.891405e-01  0.000000e+00
   outer loop
     vertex  9.790518e+01  9.810300e+01  1.120000e+02
     vertex  9.792343e+01  9.811720e+01  1.118600e+02
     vertex  9.790518e+01  9.810300e+01  1.118600e+02
   endloop
 endfacet
 facet normal -7.357239e-01  6.772816e-01  0.000000e+00
   outer loop
     vertex  9.790518e+01  9.810300e+01  1.120000e+02
     vertex  9.790518e+01  9.810300e+01  1.118600e+02
     vertex  9.788952e+01  9.808599e+01  1.118600e+02
   endloop
 endfacet
 facet normal -6.142127e-01  7.891405e-01  0.000000e+00
   outer loop
     vertex  9.790518e+01  9.810300e+01  1.120000e+02
     vertex  9.792343e+01  9.811720e+01  1.120000e+02
     vertex  9.792343e+01  9.811720e+01  1.118600e+02
   endloop
 endfacet
 facet normal -7.357239e-01  6.772816e-01  0.000000e+00
   outer loop
     vertex  9.788952e+01  9.808599e+01  1.120000e+02
     vertex  9.790518e+01  9.810300e+01  1.120000e+02
     vertex  9.788952e+01  9.808599e+01  1.118600e+02
   endloop
 endfacet
 facet normal -8.371665e-01  5.469482e-01  0.000000e+00
   outer loop
     vertex  9.787687e+01  9.806663e+01  1.120000e+02
     vertex  9.788952e+01  9.808599e+01  1.118600e+02
     vertex  9.787687e+01  9.806663e+01  1.118600e+02
   endloop
 endfacet
 facet normal -9.157733e-01  4.016954e-01  0.000000e+00
   outer loop
     vertex  9.787687e+01  9.806663e+01  1.120000e+02
     vertex  9.787687e+01  9.806663e+01  1.118600e+02
     vertex  9.786759e+01  9.804546e+01  1.118600e+02
   endloop
 endfacet
 facet normal -8.371665e-01  5.469482e-01  0.000000e+00
   outer loop
     vertex  9.787687e+01  9.806663e+01  1.120000e+02
     vertex  9.788952e+01  9.808599e+01  1.120000e+02
     vertex  9.788952e+01  9.808599e+01  1.118600e+02
   endloop
 endfacet
 facet normal -9.157733e-01  4.016954e-01  0.000000e+00
   outer loop
     vertex  9.786759e+01  9.804546e+01  1.120000e+02
     vertex  9.787687e+01  9.806663e+01  1.120000e+02
     vertex  9.786759e+01  9.804546e+01  1.118600e+02
   endloop
 endfacet
 facet normal -9.694003e-01  2.454855e-01  0.000000e+00
   outer loop
     vertex  9.786191e+01  9.802304e+01  1.120000e+02
     vertex  9.786759e+01  9.804546e+01  1.118600e+02
     vertex  9.786191e+01  9.802304e+01  1.118600e+02
   endloop
 endfacet
 facet normal -9.694003e-01  2.454855e-01  0.000000e+00
   outer loop
     vertex  9.786191e+01  9.802304e+01  1.120000e+02
     vertex  9.786759e+01  9.804546e+01  1.120000e+02
     vertex  9.786759e+01  9.804546e+01  1.118600e+02
   endloop
 endfacet
 facet normal -9.965845e-01  8.257935e-02  0.000000e+00
   outer loop
     vertex  9.786000e+01  9.800000e+01  1.120000e+02
     vertex  9.786191e+01  9.802304e+01  1.118600e+02
     vertex  9.786000e+01  9.800000e+01  1.118600e+02
   endloop
 endfacet
 facet normal -9.965845e-01  8.257935e-02  0.000000e+00
   outer loop
     vertex  9.786000e+01  9.800000e+01  1.120000e+02
     vertex  9.786191e+01  9.802304e+01  1.120000e+02
     vertex  9.786191e+01  9.802304e+01  1.118600e+02
   endloop
 endfacet
 facet normal -9.965845e-01 -8.257935e-02 -0.000000e+00
   outer loop
     vertex  9.786191e+01  9.797696e+01  1.120000e+02
     vertex  9.786000e+01  9.800000e+01  1.118600e+02
     vertex  9.786191e+01  9.797696e+01  1.118600e+02
   endloop
 endfacet
 facet normal -9.965845e-01 -8.257935e-02  0.000000e+00
   outer loop
     vertex  9.786191e+01  9.797696e+01  1.120000e+02
     vertex  9.786000e+01  9.800000e+01  1.120000e+02
     vertex  9.786000e+01  9.800000e+01  1.118600e+02
   endloop
 endfacet
 facet normal -9.694003e-01 -2.454855e-01 -0.000000e+00
   outer loop
     vertex  9.786759e+01  9.795454e+01  1.120000e+02
     vertex  9.786191e+01  9.797696e+01  1.118600e+02
     vertex  9.786759e+01  9.795454e+01  1.118600e+02
   endloop
 endfacet
 facet normal -9.157733e-01 -4.016954e-01 -0.000000e+00
   outer loop
     vertex  9.786759e+01  9.795454e+01  1.120000e+02
     vertex  9.786759e+01  9.795454e+01  1.118600e+02
     vertex  9.787687e+01  9.793337e+01  1.118600e+02
   endloop
 endfacet
 facet normal -9.694003e-01 -2.454855e-01  0.000000e+00
   outer loop
     vertex  9.786759e+01  9.795454e+01  1.120000e+02
     vertex  9.786191e+01  9.797696e+01  1.120000e+02
     vertex  9.786191e+01  9.797696e+01  1.118600e+02
   endloop
 endfacet
 facet normal -9.157733e-01 -4.016954e-01 -0.000000e+00
   outer loop
     vertex  9.787687e+01  9.793337e+01  1.120000e+02
     vertex  9.786759e+01  9.795454e+01  1.120000e+02
     vertex  9.787687e+01  9.793337e+01  1.118600e+02
   endloop
 endfacet
 facet normal -8.371665e-01 -5.469482e-01 -0.000000e+00
   outer loop
     vertex  9.788952e+01  9.791401e+01  1.120000e+02
     vertex  9.787687e+01  9.793337e+01  1.118600e+02
     vertex  9.788952e+01  9.791401e+01  1.118600e+02
   endloop
 endfacet
 facet normal -8.371665e-01 -5.469482e-01  0.000000e+00
   outer loop
     vertex  9.788952e+01  9.791401e+01  1.120000e+02
     vertex  9.787687e+01  9.793337e+01  1.120000e+02
     vertex  9.787687e+01  9.793337e+01  1.118600e+02
   endloop
 endfacet
 facet normal -7.357239e-01 -6.772816e-01 -0.000000e+00
   outer loop
     vertex  9.790518e+01  9.789700e+01  1.120000e+02
     vertex  9.788952e+01  9.791401e+01  1.118600e+02
     vertex  9.790518e+01  9.789700e+01  1.118600e+02
   endloop
 endfacet
 facet normal -7.357239e-01 -6.772816e-01  0.000000e+00
   outer loop
     vertex  9.790518e+01  9.789700e+01  1.120000e+02
     vertex  9.788952e+01  9.791401e+01  1.120000e+02
     vertex  9.788952e+01  9.791401e+01  1.118600e+02
   endloop
 endfacet
 facet normal -6.142127e-01 -7.891405e-01 -0.000000e+00
   outer loop
     vertex  9.792343e+01  9.788280e+01  1.120000e+02
     vertex  9.790518e+01  9.789700e+01  1.118600e+02
     vertex  9.792343e+01  9.788280e+01  1.118600e+02
   endloop
 endfacet
 facet normal -4.759474e-01 -8.794738e-01 -0.000000e+00
   outer loop
     vertex  9.792343e+01  9.788280e+01  1.120000e+02
     vertex  9.792343e+01  9.788280e+01  1.118600e+02
     vertex  9.794376e+01  9.787179e+01  1.118600e+02
   endloop
 endfacet
 facet normal -6.142127e-01 -7.891405e-01  0.000000e+00
   outer loop
     vertex  9.792343e+01  9.788280e+01  1.120000e+02
     vertex  9.790518e+01  9.789700e+01  1.120000e+02
     vertex  9.790518e+01  9.789700e+01  1.118600e+02
   endloop
 endfacet
 facet normal -3.246995e-01 -9.458172e-01 -0.000000e+00
   outer loop
     vertex  9.794376e+01  9.787179e+01  1.120000e+02
     vertex  9.794376e+01  9.787179e+01  1.118600e+02
     vertex  9.796563e+01  9.786428e+01  1.118600e+02
   endloop
 endfacet
 facet normal -4.759474e-01 -8.794738e-01 -0.000000e+00
   outer loop
     vertex  9.794376e+01  9.787179e+01  1.120000e+02
     vertex  9.792343e+01  9.788280e+01  1.120000e+02
     vertex  9.794376e+01  9.787179e+01  1.118600e+02
   endloop
 endfacet
 facet normal -3.246995e-01 -9.458172e-01 -0.000000e+00
   outer loop
     vertex  9.796563e+01  9.786428e+01  1.120000e+02
     vertex  9.794376e+01  9.787179e+01  1.120000e+02
     vertex  9.796563e+01  9.786428e+01  1.118600e+02
   endloop
 endfacet
 facet normal -1.645946e-01 -9.863613e-01 -0.000000e+00
   outer loop
     vertex  9.798844e+01  9.786048e+01  1.120000e+02
     vertex  9.796563e+01  9.786428e+01  1.118600e+02
     vertex  9.798844e+01  9.786048e+01  1.118600e+02
   endloop
 endfacet
 facet normal  0.000000e+00 -1.000000e+00  0.000000e+00
   outer loop
     vertex  9.798844e+01  9.786048e+01  1.120000e+02
     vertex  9.798844e+01  9.786048e+01  1.118600e+02
     vertex  9.801156e+01  9.786048e+01  1.118600e+02
   endloop
 endfacet
 facet normal -1.645946e-01 -9.863613e-01  0.000000e+00
   outer loop
     vertex  9.798844e+01  9.786048e+01  1.120000e+02
     vertex  9.796563e+01  9.786428e+01  1.120000e+02
     vertex  9.796563e+01  9.786428e+01  1.118600e+02
   endloop
 endfacet
 facet normal -0.000000e+00 -1.000000e+00 -0.000000e+00
   outer loop
     vertex  9.801156e+01  9.786048e+01  1.120000e+02
     vertex  9.798844e+01  9.786048e+01  1.120000e+02
     vertex  9.801156e+01  9.786048e+01  1.118600e+02
   endloop
 endfacet
 facet normal  1.645946e-01 -9.863613e-01  0.000000e+00
   outer loop
     vertex  9.803437e+01  9.786428e+01  1.120000e+02
     vertex  9.801156e+01  9.786048e+01  1.120000e+02
     vertex  9.801156e+01  9.786048e+01  1.118600e+02
   endloop
 endfacet
 facet normal  1.645946e-01 -9.863613e-01  0.000000e+00
   outer loop
     vertex  9.803437e+01  9.786428e+01  1.120000e+02
     vertex  9.801156e+01  9.786048e+01  1.118600e+02
     vertex  9.803437e+01  9.786428e+01  1.118600e+02
   endloop
 endfacet
 facet normal  3.246995e-01 -9.458172e-01  0.000000e+00
   outer loop
     vertex  9.805624e+01  9.787179e+01  1.120000e+02
     vertex  9.803437e+01  9.786428e+01  1.120000e+02
     vertex  9.803437e+01  9.786428e+01  1.118600e+02
   endloop
 endfacet
 facet normal  3.246995e-01 -9.458172e-01  0.000000e+00
   outer loop
     vertex  9.805624e+01  9.787179e+01  1.120000e+02
     vertex  9.803437e+01  9.786428e+01  1.118600e+02
     vertex  9.805624e+01  9.787179e+01  1.118600e+02
   endloop
 endfacet
 facet normal  4.759474e-01 -8.794738e-01  0.000000e+00
   outer loop
     vertex  9.807657e+01  9.788280e+01  1.120000e+02
     vertex  9.805624e+01  9.787179e+01  1.120000e+02
     vertex  9.805624e+01  9.787179e+01  1.118600e+02
   endloop
 endfacet
 facet normal  4.759474e-01 -8.794738e-01  0.000000e+00
   outer loop
     vertex  9.807657e+01  9.788280e+01  1.120000e+02
     vertex  9.805624e+01  9.787179e+01  1.118600e+02
     vertex  9.807657e+01  9.788280e+01  1.118600e+02
   endloop
 endfacet
 facet normal  6.142127e-01 -7.891405e-01  0.000000e+00
   outer loop
     vertex  9.809482e+01  9.789700e+01  1.120000e+02
     vertex  9.807657e+01  9.788280e+01  1.120000e+02
     vertex  9.807657e+01  9.788280e+01  1.118600e+02
   endloop
 endfacet
 facet normal  6.142127e-01 -7.891405e-01  0.000000e+00
   outer loop
     vertex  9.809482e+01  9.789700e+01  1.120000e+02
     vertex  9.807657e+01  9.788280e+01  1.118600e+02
     vertex  9.809482e+01  9.789700e+01  1.118600e+02
   endloop
 endfacet
 facet normal  7.357239e-01 -6.772816e-01  0.000000e+00
   outer loop
     vertex  9.811048e+01  9.791401e+01  1.120000e+02
     vertex  9.809482e+01  9.789700e+01  1.120000e+02
     vertex  9.809482e+01  9.789700e+01  1.118600e+02
   endloop
 endfacet
 facet normal  7.357239e-01 -6.772816e-01  0.000000e+00
   outer loop
     vertex  9.811048e+01  9.791401e+01  1.120000e+02
     vertex  9.809482e+01  9.789700e+01  1.118600e+02
     vertex  9.811048e+01  9.791401e+01  1.118600e+02
   endloop
 endfacet
 facet normal  8.371665e-01 -5.469482e-01  0.000000e+00
   outer loop
     vertex  9.812313e+01  9.793337e+01  1.120000e+02
     vertex  9.811048e+01  9.791401e+01  1.120000e+02
     vertex  9.811048e+01  9.791401e+01  1.118600e+02
   endloop
 endfacet
 facet normal  8.371665e-01 -5.469482e-01  0.000000e+00
   outer loop
     vertex  9.812313e+01  9.793337e+01  1.120000e+02
     vertex  9.811048e+01  9.791401e+01  1.118600e+02
     vertex  9.812313e+01  9.793337e+01  1.118600e+02
   endloop
 endfacet
 facet normal  9.157733e-01 -4.016954e-01  0.000000e+00
   outer loop
     vertex  9.813241e+01  9.795454e+01  1.120000e+02
     vertex  9.812313e+01  9.793337e+01  1.120000e+02
     vertex  9.812313e+01  9.793337e+01  1.118600e+02
   endloop
 endfacet
 facet normal  9.157733e-01 -4.016954e-01  0.000000e+00
   outer loop
     vertex  9.813241e+01  9.795454e+01  1.120000e+02
     vertex  9.812313e+01  9.793337e+01  1.118600e+02
     vertex  9.813241e+01  9.795454e+01  1.118600e+02
   endloop
 endfacet
 facet normal  9.694003e-01 -2.454855e-01  0.000000e+00
   outer loop
     vertex  9.813809e+01  9.797696e+01  1.120000e+02
     vertex  9.813241e+01  9.795454e+01  1.120000e+02
     vertex  9.813241e+01  9.795454e+01  1.118600e+02
   endloop
 endfacet
 facet normal  9.694003e-01 -2.454855e-01  0.000000e+00
   outer loop
     vertex  9.813809e+01  9.797696e+01  1.120000e+02
     vertex  9.813241e+01  9.795454e+01  1.118600e+02
     vertex  9.813809e+01  9.797696e+01  1.118600e+02
   endloop
 endfacet
 facet normal  9.965845e-01 -8.257935e-02  0.000000e+00
   outer loop
     vertex  9.813809e+01  9.797696e+01  1.120000e+02
     vertex  9.813809e+01  9.797696e+01  1.118600e+02
     vertex  9.814000e+01  9.800000e+01  1.118600e+02
   endloop
 endfacet
 facet normal  9.965845e-01 -8.257935e-02  0.000000e+00
   outer loop
     vertex  9.814000e+01  9.800000e+01  1.120000e+02
     vertex  9.813809e+01  9.797696e+01  1.120000e+02
     vertex  9.814000e+01  9.800000e+01  1.118600e+02
   endloop
 endfacet
 facet normal  0.000000e+00  0.000000e+00  1.000000e+00
   outer loop
     vertex  9.811048e+01  9.808599e+01  1.120000e+02
     vertex  9.814000e+01  9.800000e+01  1.120000e+02
     vertex  9.813809e+01  9.802304e+01  1.120000e+02
   endloop
 endfacet
 facet normal  0.000000e+00  0.000000e+00  1.000000e+00
   outer loop
     vertex  9.811048e+01  9.808599e+01  1.120000e+02
     vertex  9.813809e+01  9.802304e+01  1.120000e+02
     vertex  9.813241e+01  9.804546e+01  1.120000e+02
   endloop
 endfacet
 facet normal  0.000000e+00  0.000000e+00  1.000000e+00
   outer loop
     vertex  9.811048e+01  9.808599e+01  1.120000e+02
     vertex  9.813241e+01  9.804546e+01  1.120000e+02
     vertex  9.812313e+01  9.806663e+01  1.120000e+02
   endloop
 endfacet
 facet normal  0.000000e+00  0.000000e+00  1.000000e+00
   outer loop
     vertex  9.811048e+01  9.808599e+01  1.120000e+02
     vertex  9.787687e+01  9.793337e+01  1.120000e+02
     vertex  9.788952e+01  9.791401e+01  1.120000e+02
   endloop
 endfacet
 facet normal  0.000000e+00  0.000000e+00  1.000000e+00
   outer loop
     vertex  9.811048e+01  9.808599e+01  1.120000e+02
     vertex  9.788952e+01  9.791401e+01  1.120000e+02
     vertex  9.790518e+01  9.789700e+01  1.120000e+02
   endloop
 endfacet
 facet normal  0.000000e+00  0.000000e+00  1.000000e+00
   outer loop
     vertex  9.811048e+01  9.808599e+01  1.120000e+02
     vertex  9.790518e+01  9.789700e+01  1.120000e+02
     vertex  9.792343e+01  9.788280e+01  1.120000e+02
   endloop
 endfacet
 facet normal  0.000000e+00  0.000000e+00  1.000000e+00
   outer loop
     vertex  9.811048e+01  9.808599e+01  1.120000e+02
     vertex  9.792343e+01  9.788280e+01  1.120000e+02
     vertex  9.794376e+01  9.787179e+01  1.120000e+02
   endloop
 endfacet
 facet normal  0.000000e+00  0.000000e+00  1.000000e+00
   outer loop
     vertex  9.811048e+01  9.808599e+01  1.120000e+02
     vertex  9.794376e+01  9.787179e+01  1.120000e+02
     vertex  9.796563e+01  9.786428e+01  1.120000e+02
   endloop
 endfacet
 facet normal  0.000000e+00  0.000000e+00  1.000000e+00
   outer loop
     vertex  9.811048e+01  9.808599e+01  1.120000e+02
     vertex  9.796563e+01  9.786428e+01  1.120000e+02
     vertex  9.798844e+01  9.786048e+01  1.120000e+02
   endloop
 endfacet
 facet normal  0.000000e+00  0.000000e+00  1.000000e+00
   outer loop
     vertex  9.811048e+01  9.808599e+01  1.120000e+02
     vertex  9.798844e+01  9.786048e+01  1.120000e+02
     vertex  9.801156e+01  9.786048e+01  1.120000e+02
   endloop
 endfacet
 facet normal  0.000000e+00  0.000000e+00  1.000000e+00
   outer loop
     vertex  9.811048e+01  9.808599e+01  1.120000e+02
     vertex  9.801156e+01  9.786048e+01  1.120000e+02
     vertex  9.803437e+01  9.786428e+01  1.120000e+02
   endloop
 endfacet
 facet normal  0.000000e+00  0.000000e+00  1.000000e+00
   outer loop
     vertex  9.811048e+01  9.808599e+01  1.120000e+02
     vertex  9.803437e+01  9.786428e+01  1.120000e+02
     vertex  9.805624e+01  9.787179e+01  1.120000e+02
   endloop
 endfacet
 facet normal  0.000000e+00  0.000000e+00  1.000000e+00
   outer loop
     vertex  9.811048e+01  9.808599e+01  1.120000e+02
     vertex  9.805624e+01  9.787179e+01  1.120000e+02
     vertex  9.807657e+01  9.788280e+01  1.120000e+02
   endloop
 endfacet
 facet normal  0.000000e+00  0.000000e+00  1.000000e+00
   outer loop
     vertex  9.811048e+01  9.808599e+01  1.120000e+02
     vertex  9.807657e+01  9.788280e+01  1.120000e+02
     vertex  9.809482e+01  9.789700e+01  1.120000e+02
   endloop
 endfacet
 facet normal  0.000000e+00  0.000000e+00  1.000000e+00
   outer loop
     vertex  9.811048e+01  9.808599e+01  1.120000e+02
     vertex  9.809482e+01  9.789700e+01  1.120000e+02
     vertex  9.811048e+01  9.791401e+01  1.120000e+02
   endloop
 endfacet
 facet normal  0.000000e+00  0.000000e+00  1.000000e+00
   outer loop
     vertex  9.811048e+01  9.808599e+01  1.120000e+02
     vertex  9.811048e+01  9.791401e+01  1.120000e+02
     vertex  9.812313e+01  9.793337e+01  1.120000e+02
   endloop
 endfacet
 facet normal  0.000000e+00  0.000000e+00  1.000000e+00
   outer loop
     vertex  9.811048e+01  9.808599e+01  1.120000e+02
     vertex  9.812313e+01  9.793337e+01  1.120000e+02
     vertex  9.813241e+01  9.795454e+01  1.120000e+02
   endloop
 endfacet
 facet normal  0.000000e+00  0.000000e+00  1.000000e+00
   outer loop
     vertex  9.811048e+01  9.808599e+01  1.120000e+02
     vertex  9.813241e+01  9.795454e+01  1.120000e+02
     vertex  9.813809e+01  9.797696e+01  1.120000e+02
   endloop
 endfacet
 facet normal  0.000000e+00  0.000000e+00  1.000000e+00
   outer loop
     vertex  9.811048e+01  9.808599e+01  1.120000e+02
     vertex  9.813809e+01  9.797696e+01  1.120000e+02
     vertex  9.814000e+01  9.800000e+01  1.120000e+02
   endloop
 endfacet
 facet normal  0.000000e+00  0.000000e+00  1.000000e+00
   outer loop
     vertex  9.809482e+01  9.810300e+01  1.120000e+02
     vertex  9.807657e+01  9.811720e+01  1.120000e+02
     vertex  9.805624e+01  9.812821e+01  1.120000e+02
   endloop
 endfacet
 facet normal  0.000000e+00  0.000000e+00  1.000000e+00
   outer loop
     vertex  9.809482e+01  9.810300e+01  1.120000e+02
     vertex  9.805624e+01  9.812821e+01  1.120000e+02
     vertex  9.803437e+01  9.813572e+01  1.120000e+02
   endloop
 endfacet
 facet normal  0.000000e+00  0.000000e+00  1.000000e+00
   outer loop
     vertex  9.809482e+01  9.810300e+01  1.120000e+02
     vertex  9.803437e+01  9.813572e+01  1.120000e+02
     vertex  9.801156e+01  9.813952e+01  1.120000e+02
   endloop
 endfacet
 facet normal  0.000000e+00  0.000000e+00  1.000000e+00
   outer loop
     vertex  9.809482e+01  9.810300e+01  1.120000e+02
     vertex  9.801156e+01  9.813952e+01  1.120000e+02
     vertex  9.798844e+01  9.813952e+01  1.120000e+02
   endloop
 endfacet
 facet normal  0.000000e+00  0.000000e+00  1.000000e+00
   outer loop
     vertex  9.809482e+01  9.810300e+01  1.120000e+02
     vertex  9.798844e+01  9.813952e+01  1.120000e+02
     vertex  9.796563e+01  9.813572e+01  1.120000e+02
   endloop
 endfacet
 facet normal  0.000000e+00  0.000000e+00  1.000000e+00
   outer loop
     vertex  9.809482e+01  9.810300e+01  1.120000e+02
     vertex  9.796563e+01  9.813572e+01  1.120000e+02
     vertex  9.794376e+01  9.812821e+01  1.120000e+02
   endloop
 endfacet
 facet normal  0.000000e+00  0.000000e+00  1.000000e+00
   outer loop
     vertex  9.809482e+01  9.810300e+01  1.120000e+02
     vertex  9.794376e+01  9.812821e+01  1.120000e+02
     vertex  9.792343e+01  9.811720e+01  1.120000e+02
   endloop
 endfacet
 facet normal  0.000000e+00  0.000000e+00  1.000000e+00
   outer loop
     vertex  9.809482e+01  9.810300e+01  1.120000e+02
     vertex  9.792343e+01  9.811720e+01  1.120000e+02
     vertex  9.790518e+01  9.810300e+01  1.120000e+02
   endloop
 endfacet
 facet normal  0.000000e+00  0.000000e+00  1.000000e+00
   outer loop
     vertex  9.809482e+01  9.810300e+01  1.120000e+02
     vertex  9.790518e+01  9.810300e+01  1.120000e+02
     vertex  9.788952e+01  9.808599e+01  1.120000e+02
   endloop
 endfacet
 facet normal  0.000000e+00  0.000000e+00  1.000000e+00
   outer loop
     vertex  9.809482e+01  9.810300e+01  1.120000e+02
     vertex  9.788952e+01  9.808599e+01  1.120000e+02
     vertex  9.787687e+01  9.806663e+01  1.120000e+02
   endloop
 endfacet
 facet normal  0.000000e+00  0.000000e+00  1.000000e+00
   outer loop
     vertex  9.809482e+01  9.810300e+01  1.120000e+02
     vertex  9.787687e+01  9.806663e+01  1.120000e+02
     vertex  9.786759e+01  9.804546e+01  1.120000e+02
   endloop
 endfacet
 facet normal  0.000000e+00  0.000000e+00  1.000000e+00
   outer loop
     vertex  9.809482e+01  9.810300e+01  1.120000e+02
     vertex  9.786759e+01  9.804546e+01  1.120000e+02
     vertex  9.786191e+01  9.802304e+01  1.120000e+02
   endloop
 endfacet
 facet normal  0.000000e+00  0.000000e+00  1.000000e+00
   outer loop
     vertex  9.809482e+01  9.810300e+01  1.120000e+02
     vertex  9.786191e+01  9.802304e+01  1.120000e+02
     vertex  9.786000e+01  9.800000e+01  1.120000e+02
   endloop
 endfacet
 facet normal  0.000000e+00  0.000000e+00  1.000000e+00
   outer loop
     vertex  9.809482e+01  9.810300e+01  1.120000e+02
     vertex  9.786000e+01  9.800000e+01  1.120000e+02
     vertex  9.786191e+01  9.797696e+01  1.120000e+02
   endloop
 endfacet
 facet normal  0.000000e+00  0.000000e+00  1.000000e+00
   outer loop
     vertex  9.809482e+01  9.810300e+01  1.120000e+02
     vertex  9.786191e+01  9.797696e+01  1.120000e+02
     vertex  9.786759e+01  9.795454e+01  1.120000e+02
   endloop
 endfacet
 facet normal  0.000000e+00  0.000000e+00  1.000000e+00
   outer loop
     vertex  9.809482e+01  9.810300e+01  1.120000e+02
     vertex  9.786759e+01  9.795454e+01  1.120000e+02
     vertex  9.787687e+01  9.793337e+01  1.120000e+02
   endloop
 endfacet
 facet normal  0.000000e+00  0.000000e+00  1.000000e+00
   outer loop
     vertex  9.809482e+01  9.810300e+01  1.120000e+02
     vertex  9.787687e+01  9.793337e+01  1.120000e+02
     vertex  9.811048e+01  9.808599e+01  1.120000e+02
   endloop
 endfacet
 facet normal  0.000000e+00  0.000000e+00 -1.000000e+00
   outer loop
     vertex  9.811048e+01  9.808599e+01  1.118600e+02
     vertex  9.813809e+01  9.802304e+01  1.118600e+02
     vertex  9.814000e+01  9.800000e+01  1.118600e+02
   endloop
 endfacet
 facet normal  0.000000e+00  0.000000e+00 -1.000000e+00
   outer loop
     vertex  9.811048e+01  9.808599e+01  1.118600e+02
     vertex  9.813241e+01  9.804546e+01  1.118600e+02
     vertex  9.813809e+01  9.802304e+01  1.118600e+02
   endloop
 endfacet
 facet normal  0.000000e+00  0.000000e+00 -1.000000e+00
   outer loop
     vertex  9.811048e+01  9.808599e+01  1.118600e+02
     vertex  9.812313e+01  9.806663e+01  1.118600e+02
     vertex  9.813241e+01  9.804546e+01  1.118600e+02
   endloop
 endfacet
 facet normal  0.000000e+00  0.000000e+00 -1.000000e+00
   outer loop
     vertex  9.811048e+01  9.808599e+01  1.118600e+02
     vertex  9.788952e+01  9.791401e+01  1.118600e+02
     vertex  9.787687e+01  9.793337e+01  1.118600e+02
   endloop
 endfacet
 facet normal  0.000000e+00  0.000000e+00 -1.000000e+00
   outer loop
     vertex  9.811048e+01  9.808599e+01  1.118600e+02
     vertex  9.790518e+01  9.789700e+01  1.118600e+02
     vertex  9.788952e+01  9.791401e+01  1.118600e+02
   endloop
 endfacet
 facet normal  0.000000e+00  0.000000e+00 -1.000000e+00
   outer loop
     vertex  9.811048e+01  9.808599e+01  1.118600e+02
     vertex  9.792343e+01  9.788280e+01  1.118600e+02
     vertex  9.790518e+01  9.789700e+01  1.118600e+02
   endloop
 endfacet
 facet normal  0.000000e+00  0.000000e+00 -1.000000e+00
   outer loop
     vertex  9.811048e+01  9.808599e+01  1.118600e+02
     vertex  9.794376e+01  9.787179e+01  1.118600e+02
     vertex  9.792343e+01  9.788280e+01  1.118600e+02
   endloop
 endfacet
 facet normal  0.000000e+00  0.000000e+00 -1.000000e+00
   outer loop
     vertex  9.811048e+01  9.808599e+01  1.118600e+02
     vertex  9.796563e+01  9.786428e+01  1.118600e+02
     vertex  9.794376e+01  9.787179e+01  1.118600e+02
   endloop
 endfacet
 facet normal  0.000000e+00  0.000000e+00 -1.000000e+00
   outer loop
     vertex  9.811048e+01  9.808599e+01  1.118600e+02
     vertex  9.798844e+01  9.786048e+01  1.118600e+02
     vertex  9.796563e+01  9.786428e+01  1.118600e+02
   endloop
 endfacet
 facet normal  0.000000e+00  0.000000e+00 -1.000000e+00
   outer loop
     vertex  9.811048e+01  9.808599e+01  1.118600e+02
     vertex  9.801156e+01  9.786048e+01  1.118600e+02
     vertex  9.798844e+01  9.786048e+01  1.118600e+02
   endloop
 endfacet
 facet normal  0.000000e+00  0.000000e+00 -1.000000e+00
   outer loop
     vertex  9.811048e+01  9.808599e+01  1.118600e+02
     vertex  9.803437e+01  9.786428e+01  1.118600e+02
     vertex  9.801156e+01  9.786048e+01  1.118600e+02
   endloop
 endfacet
 facet normal  0.000000e+00  0.000000e+00 -1.000000e+00
   outer loop
     vertex  9.811048e+01  9.808599e+01  1.118600e+02
     vertex  9.805624e+01  9.787179e+01  1.118600e+02
     vertex  9.803437e+01  9.786428e+01  1.118600e+02
   endloop
 endfacet
 facet normal  0.000000e+00  0.000000e+00 -1.000000e+00
   outer loop
     vertex  9.811048e+01  9.808599e+01  1.118600e+02
     vertex  9.807657e+01  9.788280e+01  1.118600e+02
     vertex  9.805624e+01  9.787179e+01  1.118600e+02
   endloop
 endfacet
 facet normal  0.000000e+00  0.000000e+00 -1.000000e+00
   outer loop
     vertex  9.811048e+01  9.808599e+01  1.118600e+02
     vertex  9.809482e+01  9.789700e+01  1.118600e+02
     vertex  9.807657e+01  9.788280e+01  1.118600e+02
   endloop
 endfacet
 facet normal  0.000000e+00 -0.000000e+00 -1.000000e+00
   outer loop
     vertex  9.811048e+01  9.808599e+01  1.118600e+02
     vertex  9.811048e+01  9.791401e+01  1.118600e+02
     vertex  9.809482e+01  9.789700e+01  1.118600e+02
   endloop
 endfacet
 facet normal  0.000000e+00  0.000000e+00 -1.000000e+00
   outer loop
     vertex  9.811048e+01  9.808599e+01  1.118600e+02
     vertex  9.812313e+01  9.793337e+01  1.118600e+02
     vertex  9.811048e+01  9.791401e+01  1.118600e+02
   endloop
 endfacet
 facet normal  0.000000e+00  0.000000e+00 -1.000000e+00
   outer loop
     vertex  9.811048e+01  9.808599e+01  1.118600e+02
     vertex  9.813241e+01  9.795454e+01  1.118600e+02
     vertex  9.812313e+01  9.793337e+01  1.118600e+02
   endloop
 endfacet
 facet normal  0.000000e+00  0.000000e+00 -1.000000e+00
   outer loop
     vertex  9.811048e+01  9.808599e+01  1.118600e+02
     vertex  9.813809e+01  9.797696e+01  1.118600e+02
     vertex  9.813241e+01  9.795454e+01  1.118600e+02
   endloop
 endfacet
 facet normal  0.000000e+00  0.000000e+00 -1.000000e+00
   outer loop
     vertex  9.811048e+01  9.808599e+01  1.118600e+02
     vertex  9.814000e+01  9.800000e+01  1.118600e+02
     vertex  9.813809e+01  9.797696e+01  1.118600e+02
   endloop
 endfacet
 facet normal  0.000000e+00  0.000000e+00 -1.000000e+00
   outer loop
     vertex  9.809482e+01  9.810300e+01  1.118600e+02
     vertex  9.805624e+01  9.812821e+01  1.118600e+02
     vertex  9.807657e+01  9.811720e+01  1.118600e+02
   endloop
 endfacet
 facet normal  0.000000e+00  0.000000e+00 -1.000000e+00
   outer loop
     vertex  9.809482e+01  9.810300e+01  1.118600e+02
     vertex  9.803437e+01  9.813572e+01  1.118600e+02
     vertex  9.805624e+01  9.812821e+01  1.118600e+02
   endloop
 endfacet
 facet normal  0.000000e+00  0.000000e+00 -1.000000e+00
   outer loop
     vertex  9.809482e+01  9.810300e+01  1.118600e+02
     vertex  9.801156e+01  9.813952e+01  1.118600e+02
     vertex  9.803437e+01  9.813572e+01  1.118600e+02
   endloop
 endfacet
 facet normal  0.000000e+00  0.000000e+00 -1.000000e+00
   outer loop
     vertex  9.809482e+01  9.810300e+01  1.118600e+02
     vertex  9.798844e+01  9.813952e+01  1.118600e+02
     vertex  9.801156e+01  9.813952e+01  1.118600e+02
   endloop
 endfacet
 facet normal  0.000000e+00  0.000000e+00 -1.000000e+00
   outer loop
     vertex  9.809482e+01  9.810300e+01  1.118600e+02
     vertex  9.796563e+01  9.813572e+01  1.118600e+02
     vertex  9.798844e+01  9.813952e+01  1.118600e+02
   endloop
 endfacet
 facet normal  0.000000e+00  0.000000e+00 -1.000000e+00
   outer loop
     vertex  9.809482e+01  9.810300e+01  1.118600e+02
     vertex  9.794376e+01  9.812821e+01  1.118600e+02
     vertex  9.796563e+01  9.813572e+01  1.118600e+02
   endloop
 endfacet
 facet normal  0.000000e+00  0.000000e+00 -1.000000e+00
   outer loop
     vertex  9.809482e+01  9.810300e+01  1.118600e+02
     vertex  9.792343e+01  9.811720e+01  1.118600e+02
     vertex  9.794376e+01  9.812821e+01  1.118600e+02
   endloop
 endfacet
 facet normal  0.000000e+00  0.000000e+00 -1.000000e+00
   outer loop
     vertex  9.809482e+01  9.810300e+01  1.118600e+02
     vertex  9.790518e+01  9.810300e+01  1.118600e+02
     vertex  9.792343e+01  9.811720e+01  1.118600e+02
   endloop
 endfacet
 facet normal -0.000000e+00  0.000000e+00 -1.000000e+00
   outer loop
     vertex  9.809482e+01  9.810300e+01  1.118600e+02
     vertex  9.788952e+01  9.808599e+01  1.118600e+02
     vertex  9.790518e+01  9.810300e+01  1.118600e+02
   endloop
 endfacet
 facet normal  0.000000e+00  0.000000e+00 -1.000000e+00
   outer loop
     vertex  9.809482e+01  9.810300e+01  1.118600e+02
     vertex  9.787687e+01  9.806663e+01  1.118600e+02
     vertex  9.788952e+01  9.808599e+01  1.118600e+02
   endloop
 endfacet
 facet normal  0.000000e+00  0.000000e+00 -1.000000e+00
   outer loop
     vertex  9.809482e+01  9.810300e+01  1.118600e+02
     vertex  9.786759e+01  9.804546e+01  1.118600e+02
     vertex  9.787687e+01  9.806663e+01  1.118600e+02
   endloop
 endfacet
 facet normal  0.000000e+00  0.000000e+00 -1.000000e+00
   outer loop
     vertex  9.809482e+01  9.810300e+01  1.118600e+02
     vertex  9.786191e+01  9.802304e+01  1.118600e+02
     vertex  9.786759e+01  9.804546e+01  1.118600e+02
   endloop
 endfacet
 facet normal  0.000000e+00  0.000000e+00 -1.000000e+00
   outer loop
     vertex  9.809482e+01  9.810300e+01  1.118600e+02
     vertex  9.786000e+01  9.800000e+01  1.118600e+02
     vertex  9.786191e+01  9.802304e+01  1.118600e+02
   endloop
 endfacet
 facet normal  0.000000e+00  0.000000e+00 -1.000000e+00
   outer loop
     vertex  9.809482e+01  9.810300e+01  1.118600e+02
     vertex  9.786191e+01  9.797696e+01  1.118600e+02
     vertex  9.786000e+01  9.800000e+01  1.118600e+02
   endloop
 endfacet
 facet normal  0.000000e+00  0.000000e+00 -1.000000e+00
   outer loop
     vertex  9.809482e+01  9.810300e+01  1.118600e+02
     vertex  9.786759e+01  9.795454e+01  1.118600e+02
     vertex  9.786191e+01  9.797696e+01  1.118600e+02
   endloop
 endfacet
 facet normal  0.000000e+00  0.000000e+00 -1.000000e+00
   outer loop
     vertex  9.809482e+01  9.810300e+01  1.118600e+02
     vertex  9.787687e+01  9.793337e+01  1.118600e+02
     vertex  9.786759e+01  9.795454e+01  1.118600e+02
   endloop
 endfacet
 facet normal  0.000000e+00 -0.000000e+00 -1.000000e+00
   outer loop
     vertex  9.809482e+01  9.810300e+01  1.118600e+02
     vertex  9.811048e+01  9.808599e+01  1.118600e+02
     vertex  9.787687e+01  9.793337e+01  1.118600e+02
   endloop
 endfacet
endsolid
