solid 
 facet normal  9.927089e-01  0.000000e+00  1.205367e-01
   outer loop
     vertex -8.943888e-01 -1.587302e-02  2.584587e-01
     vertex -8.936508e-01 -4.761905e-01  2.523808e-01
     vertex -8.936508e-01 -1.587302e-02  2.523808e-01
   endloop
 endfacet
 facet normal  9.927089e-01  0.000000e+00  1.205367e-01
   outer loop
     vertex -8.943888e-01 -1.587302e-02  2.584587e-01
     vertex -8.943888e-01 -4.761905e-01  2.584587e-01
     vertex -8.936508e-01 -4.761905e-01  2.523808e-01
   endloop
 endfacet
 facet normal  9.350162e-01  0.000000e+00  3.546049e-01
   outer loop
     vertex -8.965598e-01 -1.587302e-02  2.641833e-01
     vertex -8.965598e-01 -4.761905e-01  2.641833e-01
     vertex -8.943888e-01 -4.761905e-01  2.584587e-01
   endloop
 endfacet
 facet normal  9.350162e-01  0.000000e+00  3.546049e-01
   outer loop
     vertex -8.965598e-01 -1.587302e-02  2.641833e-01
     vertex -8.943888e-01 -4.761905e-01  2.584587e-01
     vertex -8.943888e-01 -1.587302e-02  2.584587e-01
   endloop
 endfacet
 facet normal  8.229839e-01  0.000000e+00  5.680647e-01
   outer loop
     vertex -9.000378e-01 -1.587302e-02  2.692221e-01
     vertex -9.000378e-01 -4.761905e-01  2.692221e-01
     vertex -8.965598e-01 -4.761905e-01  2.641833e-01
   endloop
 endfacet
 facet normal  8.229839e-01  0.000000e+00  5.680647e-01
   outer loop
     vertex -9.000378e-01 -1.587302e-02  2.692221e-01
     vertex -8.965598e-01 -4.761905e-01  2.641833e-01
     vertex -8.965598e-01 -1.587302e-02  2.641833e-01
   endloop
 endfacet
 facet normal  6.631227e-01  0.000000e+00  7.485107e-01
   outer loop
     vertex -9.046206e-01 -1.587302e-02  2.732820e-01
     vertex -9.046206e-01 -4.761905e-01  2.732820e-01
     vertex -9.000378e-01 -4.761905e-01  2.692221e-01
   endloop
 endfacet
 facet normal  6.631227e-01  0.000000e+00  7.485107e-01
   outer loop
     vertex -9.046206e-01 -1.587302e-02  2.732820e-01
     vertex -9.000378e-01 -4.761905e-01  2.692221e-01
     vertex -9.000378e-01 -1.587302e-02  2.692221e-01
   endloop
 endfacet
 facet normal  4.647232e-01  0.000000e+00  8.854560e-01
   outer loop
     vertex -9.100418e-01 -1.587302e-02  2.761273e-01
     vertex -9.100418e-01 -4.761905e-01  2.761273e-01
     vertex -9.046206e-01 -4.761905e-01  2.732820e-01
   endloop
 endfacet
 facet normal  4.647232e-01  0.000000e+00  8.854560e-01
   outer loop
     vertex -9.100418e-01 -1.587302e-02  2.761273e-01
     vertex -9.046206e-01 -4.761905e-01  2.732820e-01
     vertex -9.046206e-01 -1.587302e-02  2.732820e-01
   endloop
 endfacet
 facet normal  2.393157e-01  0.000000e+00  9.709418e-01
   outer loop
     vertex -9.159864e-01 -1.587302e-02  2.775925e-01
     vertex -9.159864e-01 -4.761905e-01  2.775925e-01
     vertex -9.100418e-01 -4.761905e-01  2.761273e-01
   endloop
 endfacet
 facet normal  2.393157e-01  0.000000e+00  9.709418e-01
   outer loop
     vertex -9.159864e-01 -1.587302e-02  2.775925e-01
     vertex -9.100418e-01 -4.761905e-01  2.761273e-01
     vertex -9.100418e-01 -1.587302e-02  2.761273e-01
   endloop
 endfacet
 facet normal  0.000000e+00  0.000000e+00  1.000000e+00
   outer loop
     vertex -9.221089e-01 -1.587302e-02  2.775925e-01
     vertex -9.221089e-01 -4.761905e-01  2.775925e-01
     vertex -9.159864e-01 -4.761905e-01  2.775925e-01
   endloop
 endfacet
 facet normal -0.000000e+00  0.000000e+00  1.000000e+00
   outer loop
     vertex -9.221089e-01 -1.587302e-02  2.775925e-01
     vertex -9.159864e-01 -4.761905e-01  2.775925e-01
     vertex -9.159864e-01 -1.587302e-02  2.775925e-01
   endloop
 endfacet
 facet normal -2.393157e-01  0.000000e+00  9.709418e-01
   outer loop
     vertex -9.280534e-01 -1.587302e-02  2.761273e-01
     vertex -9.280534e-01 -4.761905e-01  2.761273e-01
     vertex -9.221089e-01 -4.761905e-01  2.775925e-01
   endloop
 endfacet
 facet normal -4.647232e-01  0.000000e+00  8.854560e-01
   outer loop
     vertex -9.280534e-01 -1.587302e-02  2.761273e-01
     vertex -9.334746e-01 -4.761905e-01  2.732820e-01
     vertex -9.280534e-01 -4.761905e-01  2.761273e-01
   endloop
 endfacet
 facet normal -2.393157e-01  0.000000e+00  9.709418e-01
   outer loop
     vertex -9.280534e-01 -1.587302e-02  2.761273e-01
     vertex -9.221089e-01 -4.761905e-01  2.775925e-01
     vertex -9.221089e-01 -1.587302e-02  2.775925e-01
   endloop
 endfacet
 facet normal -4.647232e-01  0.000000e+00  8.854560e-01
   outer loop
     vertex -9.334746e-01 -1.587302e-02  2.732820e-01
     vertex -9.334746e-01 -4.761905e-01  2.732820e-01
     vertex -9.280534e-01 -1.587302e-02  2.761273e-01
   endloop
 endfacet
 facet normal -6.631227e-01  0.000000e+00  7.485107e-01
   outer loop
     vertex -9.380574e-01 -1.587302e-02  2.692221e-01
     vertex -9.380574e-01 -4.761905e-01  2.692221e-01
     vertex -9.334746e-01 -4.761905e-01  2.732820e-01
   endloop
 endfacet
 facet normal -8.229839e-01  0.000000e+00  5.680647e-01
   outer loop
     vertex -9.380574e-01 -1.587302e-02  2.692221e-01
     vertex -9.415354e-01 -4.761905e-01  2.641833e-01
     vertex -9.380574e-01 -4.761905e-01  2.692221e-01
   endloop
 endfacet
 facet normal -6.631227e-01  0.000000e+00  7.485107e-01
   outer loop
     vertex -9.380574e-01 -1.587302e-02  2.692221e-01
     vertex -9.334746e-01 -4.761905e-01  2.732820e-01
     vertex -9.334746e-01 -1.587302e-02  2.732820e-01
   endloop
 endfacet
 facet normal -8.229839e-01  0.000000e+00  5.680647e-01
   outer loop
     vertex -9.415354e-01 -1.587302e-02  2.641833e-01
     vertex -9.415354e-01 -4.761905e-01  2.641833e-01
     vertex -9.380574e-01 -1.587302e-02  2.692221e-01
   endloop
 endfacet
 facet normal -9.350162e-01  0.000000e+00  3.546049e-01
   outer loop
     vertex -9.437064e-01 -1.587302e-02  2.584587e-01
     vertex -9.415354e-01 -4.761905e-01  2.641833e-01
     vertex -9.415354e-01 -1.587302e-02  2.641833e-01
   endloop
 endfacet
 facet normal -9.350162e-01  0.000000e+00  3.546049e-01
   outer loop
     vertex -9.437064e-01 -1.587302e-02  2.584587e-01
     vertex -9.437064e-01 -4.761905e-01  2.584587e-01
     vertex -9.415354e-01 -4.761905e-01  2.641833e-01
   endloop
 endfacet
 facet normal -9.927089e-01  0.000000e+00  1.205367e-01
   outer loop
     vertex -9.444444e-01 -1.587302e-02  2.523808e-01
     vertex -9.437064e-01 -4.761905e-01  2.584587e-01
     vertex -9.437064e-01 -1.587302e-02  2.584587e-01
   endloop
 endfacet
 facet normal -9.927089e-01  0.000000e+00  1.205367e-01
   outer loop
     vertex -9.444444e-01 -1.587302e-02  2.523808e-01
     vertex -9.444444e-01 -4.761905e-01  2.523808e-01
     vertex -9.437064e-01 -4.761905e-01  2.584587e-01
   endloop
 endfacet
 facet normal -9.927089e-01 -0.000000e+00 -1.205367e-01
   outer loop
     vertex -9.437064e-01 -1.587302e-02  2.463030e-01
     vertex -9.437064e-01 -4.761905e-01  2.463030e-01
     vertex -9.444444e-01 -4.761905e-01  2.523808e-01
   endloop
 endfacet
 facet normal -9.927089e-01  0.000000e+00 -1.205367e-01
   outer loop
     vertex -9.437064e-01 -1.587302e-02  2.463030e-01
     vertex -9.444444e-01 -4.761905e-01  2.523808e-01
     vertex -9.444444e-01 -1.587302e-02  2.523808e-01
   endloop
 endfacet
 facet normal -9.350162e-01 -0.000000e+00 -3.546049e-01
   outer loop
     vertex -9.437064e-01 -1.587302e-02  2.463030e-01
     vertex -9.415354e-01 -4.761905e-01  2.405784e-01
     vertex -9.437064e-01 -4.761905e-01  2.463030e-01
   endloop
 endfacet
 facet normal -9.350162e-01 -0.000000e+00 -3.546049e-01
   outer loop
     vertex -9.415354e-01 -1.587302e-02  2.405784e-01
     vertex -9.415354e-01 -4.761905e-01  2.405784e-01
     vertex -9.437064e-01 -1.587302e-02  2.463030e-01
   endloop
 endfacet
 facet normal -8.229839e-01 -0.000000e+00 -5.680647e-01
   outer loop
     vertex -9.380574e-01 -1.587302e-02  2.355396e-01
     vertex -9.380574e-01 -4.761905e-01  2.355396e-01
     vertex -9.415354e-01 -4.761905e-01  2.405784e-01
   endloop
 endfacet
 facet normal -8.229839e-01  0.000000e+00 -5.680647e-01
   outer loop
     vertex -9.380574e-01 -1.587302e-02  2.355396e-01
     vertex -9.415354e-01 -4.761905e-01  2.405784e-01
     vertex -9.415354e-01 -1.587302e-02  2.405784e-01
   endloop
 endfacet
 facet normal -6.631227e-01 -0.000000e+00 -7.485107e-01
   outer loop
     vertex -9.334746e-01 -1.587302e-02  2.314797e-01
     vertex -9.334746e-01 -4.761905e-01  2.314797e-01
     vertex -9.380574e-01 -4.761905e-01  2.355396e-01
   endloop
 endfacet
 facet normal -6.631227e-01  0.000000e+00 -7.485107e-01
   outer loop
     vertex -9.334746e-01 -1.587302e-02  2.314797e-01
     vertex -9.380574e-01 -4.761905e-01  2.355396e-01
     vertex -9.380574e-01 -1.587302e-02  2.355396e-01
   endloop
 endfacet
 facet normal -4.647232e-01 -0.000000e+00 -8.854560e-01
   outer loop
     vertex -9.280534e-01 -1.587302e-02  2.286344e-01
     vertex -9.280534e-01 -4.761905e-01  2.286344e-01
     vertex -9.334746e-01 -4.761905e-01  2.314797e-01
   endloop
 endfacet
 facet normal -4.647232e-01  0.000000e+00 -8.854560e-01
   outer loop
     vertex -9.280534e-01 -1.587302e-02  2.286344e-01
     vertex -9.334746e-01 -4.761905e-01  2.314797e-01
     vertex -9.334746e-01 -1.587302e-02  2.314797e-01
   endloop
 endfacet
 facet normal -2.393157e-01 -0.000000e+00 -9.709418e-01
   outer loop
     vertex -9.221089e-01 -1.587302e-02  2.271692e-01
     vertex -9.221089e-01 -4.761905e-01  2.271692e-01
     vertex -9.280534e-01 -4.761905e-01  2.286344e-01
   endloop
 endfacet
 facet normal -2.393157e-01  0.000000e+00 -9.709418e-01
   outer loop
     vertex -9.221089e-01 -1.587302e-02  2.271692e-01
     vertex -9.280534e-01 -4.761905e-01  2.286344e-01
     vertex -9.280534e-01 -1.587302e-02  2.286344e-01
   endloop
 endfacet
 facet normal -4.533374e-15 -0.000000e+00 -1.000000e+00
   outer loop
     vertex -9.159864e-01 -1.587302e-02  2.271692e-01
     vertex -9.159864e-01 -4.761905e-01  2.271692e-01
     vertex -9.221089e-01 -4.761905e-01  2.271692e-01
   endloop
 endfacet
 facet normal -4.533374e-15  0.000000e+00 -1.000000e+00
   outer loop
     vertex -9.159864e-01 -1.587302e-02  2.271692e-01
     vertex -9.221089e-01 -4.761905e-01  2.271692e-01
     vertex -9.221089e-01 -1.587302e-02  2.271692e-01
   endloop
 endfacet
 facet normal  2.393157e-01  0.000000e+00 -9.709418e-01
   outer loop
     vertex -9.100418e-01 -1.587302e-02  2.286344e-01
     vertex -9.100418e-01 -4.761905e-01  2.286344e-01
     vertex -9.159864e-01 -4.761905e-01  2.271692e-01
   endloop
 endfacet
 facet normal  2.393157e-01  0.000000e+00 -9.709418e-01
   outer loop
     vertex -9.100418e-01 -1.587302e-02  2.286344e-01
     vertex -9.159864e-01 -4.761905e-01  2.271692e-01
     vertex -9.159864e-01 -1.587302e-02  2.271692e-01
   endloop
 endfacet
 facet normal  4.647232e-01  0.000000e+00 -8.854560e-01
   outer loop
     vertex -9.046206e-01 -1.587302e-02  2.314797e-01
     vertex -9.046206e-01 -4.761905e-01  2.314797e-01
     vertex -9.100418e-01 -4.761905e-01  2.286344e-01
   endloop
 endfacet
 facet normal  4.647232e-01  0.000000e+00 -8.854560e-01
   outer loop
     vertex -9.046206e-01 -1.587302e-02  2.314797e-01
     vertex -9.100418e-01 -4.761905e-01  2.286344e-01
     vertex -9.100418e-01 -1.587302e-02  2.286344e-01
   endloop
 endfacet
 facet normal  6.631227e-01  0.000000e+00 -7.485107e-01
   outer loop
     vertex -9.000378e-01 -1.587302e-02  2.355396e-01
     vertex -9.000378e-01 -4.761905e-01  2.355396e-01
     vertex -9.046206e-01 -4.761905e-01  2.314797e-01
   endloop
 endfacet
 facet normal  6.631227e-01  0.000000e+00 -7.485107e-01
   outer loop
     vertex -9.000378e-01 -1.587302e-02  2.355396e-01
     vertex -9.046206e-01 -4.761905e-01  2.314797e-01
     vertex -9.046206e-01 -1.587302e-02  2.314797e-01
   endloop
 endfacet
 facet normal  8.229839e-01  0.000000e+00 -5.680647e-01
   outer loop
     vertex -8.965598e-01 -1.587302e-02  2.405784e-01
     vertex -8.965598e-01 -4.761905e-01  2.405784e-01
     vertex -9.000378e-01 -4.761905e-01  2.355396e-01
   endloop
 endfacet
 facet normal  8.229839e-01  0.000000e+00 -5.680647e-01
   outer loop
     vertex -8.965598e-01 -1.587302e-02  2.405784e-01
     vertex -9.000378e-01 -4.761905e-01  2.355396e-01
     vertex -9.000378e-01 -1.587302e-02  2.355396e-01
   endloop
 endfacet
 facet normal  9.350162e-01  0.000000e+00 -3.546049e-01
   outer loop
     vertex -8.943888e-01 -1.587302e-02  2.463030e-01
     vertex -8.943888e-01 -4.761905e-01  2.463030e-01
     vertex -8.965598e-01 -4.761905e-01  2.405784e-01
   endloop
 endfacet
 facet normal  9.927089e-01  0.000000e+00 -1.205367e-01
   outer loop
     vertex -8.943888e-01 -1.587302e-02  2.463030e-01
     vertex -8.936508e-01 -4.761905e-01  2.523808e-01
     vertex -8.943888e-01 -4.761905e-01  2.463030e-01
   endloop
 endfacet
 facet normal  9.350162e-01  0.000000e+00 -3.546049e-01
   outer loop
     vertex -8.943888e-01 -1.587302e-02  2.463030e-01
     vertex -8.965598e-01 -4.761905e-01  2.405784e-01
     vertex -8.965598e-01 -1.587302e-02  2.405784e-01
   endloop
 endfacet
 facet normal  9.927089e-01  0.000000e+00 -1.205367e-01
   outer loop
     vertex -8.936508e-01 -1.587302e-02  2.523808e-01
     vertex -8.936508e-01 -4.761905e-01  2.523808e-01
     vertex -8.943888e-01 -1.587302e-02  2.463030e-01
   endloop
 endfacet
 facet normal  9.927089e-01  0.000000e+00  1.205367e-01
   outer loop
     vertex -8.943888e-01 -1.587302e-02  2.584587e-01
     vertex -8.936508e-01 -1.587302e-02  2.523808e-01
     vertex -8.936508e-01  0.000000e+00  2.523808e-01
   endloop
 endfacet
 facet normal  9.927089e-01 -0.000000e+00  1.205367e-01
   outer loop
     vertex -8.943888e-01 -1.587302e-02  2.584587e-01
     vertex -8.936508e-01  0.000000e+00  2.523808e-01
     vertex -8.943888e-01  0.000000e+00  2.584587e-01
   endloop
 endfacet
 facet normal  9.350162e-01 -0.000000e+00  3.546049e-01
   outer loop
     vertex -8.965598e-01 -1.587302e-02  2.641833e-01
     vertex -8.943888e-01  0.000000e+00  2.584587e-01
     vertex -8.965598e-01  0.000000e+00  2.641833e-01
   endloop
 endfacet
 facet normal  9.350162e-01  0.000000e+00  3.546049e-01
   outer loop
     vertex -8.965598e-01 -1.587302e-02  2.641833e-01
     vertex -8.943888e-01 -1.587302e-02  2.584587e-01
     vertex -8.943888e-01  0.000000e+00  2.584587e-01
   endloop
 endfacet
 facet normal  8.229839e-01 -0.000000e+00  5.680647e-01
   outer loop
     vertex -9.000378e-01 -1.587302e-02  2.692221e-01
     vertex -8.965598e-01  0.000000e+00  2.641833e-01
     vertex -9.000378e-01  0.000000e+00  2.692221e-01
   endloop
 endfacet
 facet normal  8.229839e-01  0.000000e+00  5.680647e-01
   outer loop
     vertex -9.000378e-01 -1.587302e-02  2.692221e-01
     vertex -8.965598e-01 -1.587302e-02  2.641833e-01
     vertex -8.965598e-01  0.000000e+00  2.641833e-01
   endloop
 endfacet
 facet normal  6.631227e-01 -0.000000e+00  7.485107e-01
   outer loop
     vertex -9.046206e-01 -1.587302e-02  2.732820e-01
     vertex -9.000378e-01  0.000000e+00  2.692221e-01
     vertex -9.046206e-01  0.000000e+00  2.732820e-01
   endloop
 endfacet
 facet normal  6.631227e-01  0.000000e+00  7.485107e-01
   outer loop
     vertex -9.046206e-01 -1.587302e-02  2.732820e-01
     vertex -9.000378e-01 -1.587302e-02  2.692221e-01
     vertex -9.000378e-01  0.000000e+00  2.692221e-01
   endloop
 endfacet
 facet normal  4.647232e-01 -0.000000e+00  8.854560e-01
   outer loop
     vertex -9.100418e-01 -1.587302e-02  2.761273e-01
     vertex -9.046206e-01  0.000000e+00  2.732820e-01
     vertex -9.100418e-01  0.000000e+00  2.761273e-01
   endloop
 endfacet
 facet normal  4.647232e-01  0.000000e+00  8.854560e-01
   outer loop
     vertex -9.100418e-01 -1.587302e-02  2.761273e-01
     vertex -9.046206e-01 -1.587302e-02  2.732820e-01
     vertex -9.046206e-01  0.000000e+00  2.732820e-01
   endloop
 endfacet
 facet normal  2.393157e-01 -0.000000e+00  9.709418e-01
   outer loop
     vertex -9.159864e-01 -1.587302e-02  2.775925e-01
     vertex -9.100418e-01  0.000000e+00  2.761273e-01
     vertex -9.159864e-01  0.000000e+00  2.775925e-01
   endloop
 endfacet
 facet normal  2.393157e-01  0.000000e+00  9.709418e-01
   outer loop
     vertex -9.159864e-01 -1.587302e-02  2.775925e-01
     vertex -9.100418e-01 -1.587302e-02  2.761273e-01
     vertex -9.100418e-01  0.000000e+00  2.761273e-01
   endloop
 endfacet
 facet normal  0.000000e+00  0.000000e+00  1.000000e+00
   outer loop
     vertex -9.221089e-01 -1.587302e-02  2.775925e-01
     vertex -9.159864e-01  0.000000e+00  2.775925e-01
     vertex -9.221089e-01  0.000000e+00  2.775925e-01
   endloop
 endfacet
 facet normal  0.000000e+00  0.000000e+00  1.000000e+00
   outer loop
     vertex -9.221089e-01 -1.587302e-02  2.775925e-01
     vertex -9.159864e-01 -1.587302e-02  2.775925e-01
     vertex -9.159864e-01  0.000000e+00  2.775925e-01
   endloop
 endfacet
 facet normal -2.393157e-01  0.000000e+00  9.709418e-01
   outer loop
     vertex -9.280534e-01 -1.587302e-02  2.761273e-01
     vertex -9.221089e-01  0.000000e+00  2.775925e-01
     vertex -9.280534e-01  0.000000e+00  2.761273e-01
   endloop
 endfacet
 facet normal -2.393157e-01  0.000000e+00  9.709418e-01
   outer loop
     vertex -9.280534e-01 -1.587302e-02  2.761273e-01
     vertex -9.221089e-01 -1.587302e-02  2.775925e-01
     vertex -9.221089e-01  0.000000e+00  2.775925e-01
   endloop
 endfacet
 facet normal -4.647232e-01  0.000000e+00  8.854560e-01
   outer loop
     vertex -9.334746e-01 -1.587302e-02  2.732820e-01
     vertex -9.280534e-01  0.000000e+00  2.761273e-01
     vertex -9.334746e-01  0.000000e+00  2.732820e-01
   endloop
 endfacet
 facet normal -4.647232e-01  0.000000e+00  8.854560e-01
   outer loop
     vertex -9.334746e-01 -1.587302e-02  2.732820e-01
     vertex -9.280534e-01 -1.587302e-02  2.761273e-01
     vertex -9.280534e-01  0.000000e+00  2.761273e-01
   endloop
 endfacet
 facet normal -6.631227e-01  0.000000e+00  7.485107e-01
   outer loop
     vertex -9.380574e-01 -1.587302e-02  2.692221e-01
     vertex -9.334746e-01  0.000000e+00  2.732820e-01
     vertex -9.380574e-01  0.000000e+00  2.692221e-01
   endloop
 endfacet
 facet normal -6.631227e-01  0.000000e+00  7.485107e-01
   outer loop
     vertex -9.380574e-01 -1.587302e-02  2.692221e-01
     vertex -9.334746e-01 -1.587302e-02  2.732820e-01
     vertex -9.334746e-01  0.000000e+00  2.732820e-01
   endloop
 endfacet
 facet normal -8.229839e-01  0.000000e+00  5.680647e-01
   outer loop
     vertex -9.415354e-01 -1.587302e-02  2.641833e-01
     vertex -9.380574e-01  0.000000e+00  2.692221e-01
     vertex -9.415354e-01  0.000000e+00  2.641833e-01
   endloop
 endfacet
 facet normal -8.229839e-01  0.000000e+00  5.680647e-01
   outer loop
     vertex -9.415354e-01 -1.587302e-02  2.641833e-01
     vertex -9.380574e-01 -1.587302e-02  2.692221e-01
     vertex -9.380574e-01  0.000000e+00  2.692221e-01
   endloop
 endfacet
 facet normal -9.350162e-01  0.000000e+00  3.546049e-01
   outer loop
     vertex -9.437064e-01 -1.587302e-02  2.584587e-01
     vertex -9.415354e-01 -1.587302e-02  2.641833e-01
     vertex -9.415354e-01  0.000000e+00  2.641833e-01
   endloop
 endfacet
 facet normal -9.350162e-01  0.000000e+00  3.546049e-01
   outer loop
     vertex -9.437064e-01 -1.587302e-02  2.584587e-01
     vertex -9.415354e-01  0.000000e+00  2.641833e-01
     vertex -9.437064e-01  0.000000e+00  2.584587e-01
   endloop
 endfacet
 facet normal -9.927089e-01  0.000000e+00  1.205367e-01
   outer loop
     vertex -9.444444e-01 -1.587302e-02  2.523808e-01
     vertex -9.437064e-01 -1.587302e-02  2.584587e-01
     vertex -9.437064e-01  0.000000e+00  2.584587e-01
   endloop
 endfacet
 facet normal -9.927089e-01  0.000000e+00  1.205367e-01
   outer loop
     vertex -9.444444e-01 -1.587302e-02  2.523808e-01
     vertex -9.437064e-01  0.000000e+00  2.584587e-01
     vertex -9.444444e-01  0.000000e+00  2.523808e-01
   endloop
 endfacet
 facet normal -9.927089e-01  0.000000e+00 -1.205367e-01
   outer loop
     vertex -9.437064e-01 -1.587302e-02  2.463030e-01
     vertex -9.444444e-01  0.000000e+00  2.523808e-01
     vertex -9.437064e-01  0.000000e+00  2.463030e-01
   endloop
 endfacet
 facet normal -9.927089e-01  0.000000e+00 -1.205367e-01
   outer loop
     vertex -9.437064e-01 -1.587302e-02  2.463030e-01
     vertex -9.444444e-01 -1.587302e-02  2.523808e-01
     vertex -9.444444e-01  0.000000e+00  2.523808e-01
   endloop
 endfacet
 facet normal -9.350162e-01  0.000000e+00 -3.546049e-01
   outer loop
     vertex -9.415354e-01 -1.587302e-02  2.405784e-01
     vertex -9.437064e-01  0.000000e+00  2.463030e-01
     vertex -9.415354e-01  0.000000e+00  2.405784e-01
   endloop
 endfacet
 facet normal -9.350162e-01  0.000000e+00 -3.546049e-01
   outer loop
     vertex -9.415354e-01 -1.587302e-02  2.405784e-01
     vertex -9.437064e-01 -1.587302e-02  2.463030e-01
     vertex -9.437064e-01  0.000000e+00  2.463030e-01
   endloop
 endfacet
 facet normal -8.229839e-01  0.000000e+00 -5.680647e-01
   outer loop
     vertex -9.380574e-01 -1.587302e-02  2.355396e-01
     vertex -9.415354e-01  0.000000e+00  2.405784e-01
     vertex -9.380574e-01  0.000000e+00  2.355396e-01
   endloop
 endfacet
 facet normal -8.229839e-01  0.000000e+00 -5.680647e-01
   outer loop
     vertex -9.380574e-01 -1.587302e-02  2.355396e-01
     vertex -9.415354e-01 -1.587302e-02  2.405784e-01
     vertex -9.415354e-01  0.000000e+00  2.405784e-01
   endloop
 endfacet
 facet normal -6.631227e-01  0.000000e+00 -7.485107e-01
   outer loop
     vertex -9.334746e-01 -1.587302e-02  2.314797e-01
     vertex -9.380574e-01  0.000000e+00  2.355396e-01
     vertex -9.334746e-01  0.000000e+00  2.314797e-01
   endloop
 endfacet
 facet normal -6.631227e-01  0.000000e+00 -7.485107e-01
   outer loop
     vertex -9.334746e-01 -1.587302e-02  2.314797e-01
     vertex -9.380574e-01 -1.587302e-02  2.355396e-01
     vertex -9.380574e-01  0.000000e+00  2.355396e-01
   endloop
 endfacet
 facet normal -4.647232e-01  0.000000e+00 -8.854560e-01
   outer loop
     vertex -9.280534e-01 -1.587302e-02  2.286344e-01
     vertex -9.334746e-01  0.000000e+00  2.314797e-01
     vertex -9.280534e-01  0.000000e+00  2.286344e-01
   endloop
 endfacet
 facet normal -4.647232e-01  0.000000e+00 -8.854560e-01
   outer loop
     vertex -9.280534e-01 -1.587302e-02  2.286344e-01
     vertex -9.334746e-01 -1.587302e-02  2.314797e-01
     vertex -9.334746e-01  0.000000e+00  2.314797e-01
   endloop
 endfacet
 facet normal -2.393157e-01  0.000000e+00 -9.709418e-01
   outer loop
     vertex -9.221089e-01 -1.587302e-02  2.271692e-01
     vertex -9.280534e-01  0.000000e+00  2.286344e-01
     vertex -9.221089e-01  0.000000e+00  2.271692e-01
   endloop
 endfacet
 facet normal -2.393157e-01  0.000000e+00 -9.709418e-01
   outer loop
     vertex -9.221089e-01 -1.587302e-02  2.271692e-01
     vertex -9.280534e-01 -1.587302e-02  2.286344e-01
     vertex -9.280534e-01  0.000000e+00  2.286344e-01
   endloop
 endfacet
 facet normal -4.533374e-15  0.000000e+00 -1.000000e+00
   outer loop
     vertex -9.159864e-01 -1.587302e-02  2.271692e-01
     vertex -9.221089e-01  0.000000e+00  2.271692e-01
     vertex -9.159864e-01  0.000000e+00  2.271692e-01
   endloop
 endfacet
 facet normal -4.533374e-15  0.000000e+00 -1.000000e+00
   outer loop
     vertex -9.159864e-01 -1.587302e-02  2.271692e-01
     vertex -9.221089e-01 -1.587302e-02  2.271692e-01
     vertex -9.221089e-01  0.000000e+00  2.271692e-01
   endloop
 endfacet
 facet normal  2.393157e-01  0.000000e+00 -9.709418e-01
   outer loop
     vertex -9.100418e-01 -1.587302e-02  2.286344e-01
     vertex -9.159864e-01  0.000000e+00  2.271692e-01
     vertex -9.100418e-01  0.000000e+00  2.286344e-01
   endloop
 endfacet
 facet normal  2.393157e-01  0.000000e+00 -9.709418e-01
   outer loop
     vertex -9.100418e-01 -1.587302e-02  2.286344e-01
     vertex -9.159864e-01 -1.587302e-02  2.271692e-01
     vertex -9.159864e-01  0.000000e+00  2.271692e-01
   endloop
 endfacet
 facet normal  4.647232e-01  0.000000e+00 -8.854560e-01
   outer loop
     vertex -9.046206e-01 -1.587302e-02  2.314797e-01
     vertex -9.100418e-01  0.000000e+00  2.286344e-01
     vertex -9.046206e-01  0.000000e+00  2.314797e-01
   endloop
 endfacet
 facet normal  4.647232e-01  0.000000e+00 -8.854560e-01
   outer loop
     vertex -9.046206e-01 -1.587302e-02  2.314797e-01
     vertex -9.100418e-01 -1.587302e-02  2.286344e-01
     vertex -9.100418e-01  0.000000e+00  2.286344e-01
   endloop
 endfacet
 facet normal  6.631227e-01  0.000000e+00 -7.485107e-01
   outer loop
     vertex -9.000378e-01 -1.587302e-02  2.355396e-01
     vertex -9.046206e-01  0.000000e+00  2.314797e-01
     vertex -9.000378e-01  0.000000e+00  2.355396e-01
   endloop
 endfacet
 facet normal  6.631227e-01  0.000000e+00 -7.485107e-01
   outer loop
     vertex -9.000378e-01 -1.587302e-02  2.355396e-01
     vertex -9.046206e-01 -1.587302e-02  2.314797e-01
     vertex -9.046206e-01  0.000000e+00  2.314797e-01
   endloop
 endfacet
 facet normal  8.229839e-01  0.000000e+00 -5.680647e-01
   outer loop
     vertex -8.965598e-01 -1.587302e-02  2.405784e-01
     vertex -9.000378e-01  0.000000e+00  2.355396e-01
     vertex -8.965598e-01  0.000000e+00  2.405784e-01
   endloop
 endfacet
 facet normal  8.229839e-01  0.000000e+00 -5.680647e-01
   outer loop
     vertex -8.965598e-01 -1.587302e-02  2.405784e-01
     vertex -9.000378e-01 -1.587302e-02  2.355396e-01
     vertex -9.000378e-01  0.000000e+00  2.355396e-01
   endloop
 endfacet
 facet normal  9.350162e-01  0.000000e+00 -3.546049e-01
   outer loop
     vertex -8.943888e-01 -1.587302e-02  2.463030e-01
     vertex -8.965598e-01  0.000000e+00  2.405784e-01
     vertex -8.943888e-01  0.000000e+00  2.463030e-01
   endloop
 endfacet
 facet normal  9.350162e-01  0.000000e+00 -3.546049e-01
   outer loop
     vertex -8.943888e-01 -1.587302e-02  2.463030e-01
     vertex -8.965598e-01 -1.587302e-02  2.405784e-01
     vertex -8.965598e-01  0.000000e+00  2.405784e-01
   endloop
 endfacet
 facet normal  9.927089e-01  0.000000e+00 -1.205367e-01
   outer loop
     vertex -8.936508e-01 -1.587302e-02  2.523808e-01
     vertex -8.943888e-01  0.000000e+00  2.463030e-01
     vertex -8.936508e-01  0.000000e+00  2.523808e-01
   endloop
 endfacet
 facet normal  9.927089e-01  0.000000e+00 -1.205367e-01
   outer loop
     vertex -8.936508e-01 -1.587302e-02  2.523808e-01
     vertex -8.943888e-01 -1.587302e-02  2.463030e-01
     vertex -8.943888e-01  0.000000e+00  2.463030e-01
   endloop
 endfacet
 facet normal  0.000000e+00 -1.000000e+00  0.000000e+00
   outer loop
     vertex -9.000378e-01 -4.761905e-01  2.692221e-01
     vertex -8.936508e-01 -4.761905e-01  2.523808e-01
     vertex -8.943888e-01 -4.761905e-01  2.584587e-01
   endloop
 endfacet
 facet normal  0.000000e+00 -1.000000e+00  0.000000e+00
   outer loop
     vertex -9.000378e-01 -4.761905e-01  2.692221e-01
     vertex -8.943888e-01 -4.761905e-01  2.584587e-01
     vertex -8.965598e-01 -4.761905e-01  2.641833e-01
   endloop
 endfacet
 facet normal  0.000000e+00 -1.000000e+00  0.000000e+00
   outer loop
     vertex -9.000378e-01 -4.761905e-01  2.692221e-01
     vertex -9.046206e-01 -4.761905e-01  2.732820e-01
     vertex -9.100418e-01 -4.761905e-01  2.761273e-01
   endloop
 endfacet
 facet normal  0.000000e+00 -1.000000e+00  0.000000e+00
   outer loop
     vertex -9.000378e-01 -4.761905e-01  2.692221e-01
     vertex -9.100418e-01 -4.761905e-01  2.761273e-01
     vertex -9.159864e-01 -4.761905e-01  2.775925e-01
   endloop
 endfacet
 facet normal  0.000000e+00 -1.000000e+00  0.000000e+00
   outer loop
     vertex -9.000378e-01 -4.761905e-01  2.692221e-01
     vertex -9.159864e-01 -4.761905e-01  2.775925e-01
     vertex -9.221089e-01 -4.761905e-01  2.775925e-01
   endloop
 endfacet
 facet normal  0.000000e+00 -1.000000e+00  0.000000e+00
   outer loop
     vertex -9.000378e-01 -4.761905e-01  2.692221e-01
     vertex -9.221089e-01 -4.761905e-01  2.775925e-01
     vertex -9.280534e-01 -4.761905e-01  2.761273e-01
   endloop
 endfacet
 facet normal  0.000000e+00 -1.000000e+00  0.000000e+00
   outer loop
     vertex -9.000378e-01 -4.761905e-01  2.692221e-01
     vertex -9.280534e-01 -4.761905e-01  2.761273e-01
     vertex -9.334746e-01 -4.761905e-01  2.732820e-01
   endloop
 endfacet
 facet normal  0.000000e+00 -1.000000e+00  0.000000e+00
   outer loop
     vertex -9.000378e-01 -4.761905e-01  2.692221e-01
     vertex -9.334746e-01 -4.761905e-01  2.732820e-01
     vertex -9.380574e-01 -4.761905e-01  2.692221e-01
   endloop
 endfacet
 facet normal -0.000000e+00 -1.000000e+00  0.000000e+00
   outer loop
     vertex -9.000378e-01 -4.761905e-01  2.692221e-01
     vertex -9.380574e-01 -4.761905e-01  2.692221e-01
     vertex -9.415354e-01 -4.761905e-01  2.641833e-01
   endloop
 endfacet
 facet normal  0.000000e+00 -1.000000e+00  0.000000e+00
   outer loop
     vertex -9.000378e-01 -4.761905e-01  2.692221e-01
     vertex -9.415354e-01 -4.761905e-01  2.641833e-01
     vertex -9.437064e-01 -4.761905e-01  2.584587e-01
   endloop
 endfacet
 facet normal  0.000000e+00 -1.000000e+00  0.000000e+00
   outer loop
     vertex -9.000378e-01 -4.761905e-01  2.692221e-01
     vertex -9.437064e-01 -4.761905e-01  2.584587e-01
     vertex -9.444444e-01 -4.761905e-01  2.523808e-01
   endloop
 endfacet
 facet normal  0.000000e+00 -1.000000e+00  0.000000e+00
   outer loop
     vertex -9.000378e-01 -4.761905e-01  2.692221e-01
     vertex -9.444444e-01 -4.761905e-01  2.523808e-01
     vertex -9.437064e-01 -4.761905e-01  2.463030e-01
   endloop
 endfacet
 facet normal  0.000000e+00 -1.000000e+00  0.000000e+00
   outer loop
     vertex -9.000378e-01 -4.761905e-01  2.692221e-01
     vertex -9.437064e-01 -4.761905e-01  2.463030e-01
     vertex -9.415354e-01 -4.761905e-01  2.405784e-01
   endloop
 endfacet
 facet normal  0.000000e+00 -1.000000e+00  0.000000e+00
   outer loop
     vertex -9.000378e-01 -4.761905e-01  2.692221e-01
     vertex -9.415354e-01 -4.761905e-01  2.405784e-01
     vertex -9.380574e-01 -4.761905e-01  2.355396e-01
   endloop
 endfacet
 facet normal  0.000000e+00 -1.000000e+00  0.000000e+00
   outer loop
     vertex -9.000378e-01 -4.761905e-01  2.692221e-01
     vertex -9.380574e-01 -4.761905e-01  2.355396e-01
     vertex -9.334746e-01 -4.761905e-01  2.314797e-01
   endloop
 endfacet
 facet normal  0.000000e+00 -1.000000e+00  0.000000e+00
   outer loop
     vertex -9.000378e-01 -4.761905e-01  2.692221e-01
     vertex -9.334746e-01 -4.761905e-01  2.314797e-01
     vertex -9.280534e-01 -4.761905e-01  2.286344e-01
   endloop
 endfacet
 facet normal  0.000000e+00 -1.000000e+00  0.000000e+00
   outer loop
     vertex -9.000378e-01 -4.761905e-01  2.692221e-01
     vertex -9.280534e-01 -4.761905e-01  2.286344e-01
     vertex -9.221089e-01 -4.761905e-01  2.271692e-01
   endloop
 endfacet
 facet normal  0.000000e+00 -1.000000e+00  0.000000e+00
   outer loop
     vertex -9.000378e-01 -4.761905e-01  2.692221e-01
     vertex -9.221089e-01 -4.761905e-01  2.271692e-01
     vertex -9.159864e-01 -4.761905e-01  2.271692e-01
   endloop
 endfacet
 facet normal  0.000000e+00 -1.000000e+00  0.000000e+00
   outer loop
     vertex -9.000378e-01 -4.761905e-01  2.692221e-01
     vertex -9.159864e-01 -4.761905e-01  2.271692e-01
     vertex -9.100418e-01 -4.761905e-01  2.286344e-01
   endloop
 endfacet
 facet normal  0.000000e+00 -1.000000e+00  0.000000e+00
   outer loop
     vertex -9.000378e-01 -4.761905e-01  2.692221e-01
     vertex -9.100418e-01 -4.761905e-01  2.286344e-01
     vertex -9.046206e-01 -4.761905e-01  2.314797e-01
   endloop
 endfacet
 facet normal  0.000000e+00 -1.000000e+00 -0.000000e+00
   outer loop
     vertex -9.000378e-01 -4.761905e-01  2.692221e-01
     vertex -9.046206e-01 -4.761905e-01  2.314797e-01
     vertex -9.000378e-01 -4.761905e-01  2.355396e-01
   endloop
 endfacet
 facet normal  0.000000e+00 -1.000000e+00  0.000000e+00
   outer loop
     vertex -9.000378e-01 -4.761905e-01  2.692221e-01
     vertex -9.000378e-01 -4.761905e-01  2.355396e-01
     vertex -8.965598e-01 -4.761905e-01  2.405784e-01
   endloop
 endfacet
 facet normal  0.000000e+00 -1.000000e+00  0.000000e+00
   outer loop
     vertex -9.000378e-01 -4.761905e-01  2.692221e-01
     vertex -8.965598e-01 -4.761905e-01  2.405784e-01
     vertex -8.943888e-01 -4.761905e-01  2.463030e-01
   endloop
 endfacet
 facet normal  0.000000e+00 -1.000000e+00  0.000000e+00
   outer loop
     vertex -9.000378e-01 -4.761905e-01  2.692221e-01
     vertex -8.943888e-01 -4.761905e-01  2.463030e-01
     vertex -8.936508e-01 -4.761905e-01  2.523808e-01
   endloop
 endfacet
 facet normal  0.000000e+00  1.000000e+00  0.000000e+00
   outer loop
     vertex -9.000378e-01  1.040834e-17  2.692221e-01
     vertex -8.943888e-01  1.040834e-17  2.584587e-01
     vertex -8.936508e-01  1.040834e-17  2.523808e-01
   endloop
 endfacet
 facet normal  0.000000e+00  1.000000e+00  0.000000e+00
   outer loop
     vertex -9.000378e-01  1.040834e-17  2.692221e-01
     vertex -8.965598e-01  1.040834e-17  2.641833e-01
     vertex -8.943888e-01  1.040834e-17  2.584587e-01
   endloop
 endfacet
 facet normal  0.000000e+00  1.000000e+00  0.000000e+00
   outer loop
     vertex -9.000378e-01  1.040834e-17  2.692221e-01
     vertex -9.100418e-01  1.040834e-17  2.761273e-01
     vertex -9.046206e-01  1.040834e-17  2.732820e-01
   endloop
 endfacet
 facet normal  0.000000e+00  1.000000e+00  0.000000e+00
   outer loop
     vertex -9.000378e-01  1.040834e-17  2.692221e-01
     vertex -9.159864e-01  1.040834e-17  2.775925e-01
     vertex -9.100418e-01  1.040834e-17  2.761273e-01
   endloop
 endfacet
 facet normal  0.000000e+00  1.000000e+00  0.000000e+00
   outer loop
     vertex -9.000378e-01  1.040834e-17  2.692221e-01
     vertex -9.221089e-01  1.040834e-17  2.775925e-01
     vertex -9.159864e-01  1.040834e-17  2.775925e-01
   endloop
 endfacet
 facet normal  0.000000e+00  1.000000e+00  0.000000e+00
   outer loop
     vertex -9.000378e-01  1.040834e-17  2.692221e-01
     vertex -9.280534e-01  1.040834e-17  2.761273e-01
     vertex -9.221089e-01  1.040834e-17  2.775925e-01
   endloop
 endfacet
 facet normal  0.000000e+00  1.000000e+00  0.000000e+00
   outer loop
     vertex -9.000378e-01  1.040834e-17  2.692221e-01
     vertex -9.334746e-01  1.040834e-17  2.732820e-01
     vertex -9.280534e-01  1.040834e-17  2.761273e-01
   endloop
 endfacet
 facet normal  0.000000e+00  1.000000e+00  0.000000e+00
   outer loop
     vertex -9.000378e-01  1.040834e-17  2.692221e-01
     vertex -9.380574e-01  1.040834e-17  2.692221e-01
     vertex -9.334746e-01  1.040834e-17  2.732820e-01
   endloop
 endfacet
 facet normal  0.000000e+00  1.000000e+00  0.000000e+00
   outer loop
     vertex -9.000378e-01  1.040834e-17  2.692221e-01
     vertex -9.415354e-01  1.040834e-17  2.641833e-01
     vertex -9.380574e-01  1.040834e-17  2.692221e-01
   endloop
 endfacet
 facet normal  0.000000e+00  1.000000e+00  0.000000e+00
   outer loop
     vertex -9.000378e-01  1.040834e-17  2.692221e-01
     vertex -9.437064e-01  1.040834e-17  2.584587e-01
     vertex -9.415354e-01  1.040834e-17  2.641833e-01
   endloop
 endfacet
 facet normal  0.000000e+00  1.000000e+00  0.000000e+00
   outer loop
     vertex -9.000378e-01  1.040834e-17  2.692221e-01
     vertex -9.444444e-01  1.040834e-17  2.523808e-01
     vertex -9.437064e-01  1.040834e-17  2.584587e-01
   endloop
 endfacet
 facet normal  0.000000e+00  1.000000e+00  0.000000e+00
   outer loop
     vertex -9.000378e-01  1.040834e-17  2.692221e-01
     vertex -9.437064e-01  1.040834e-17  2.463030e-01
     vertex -9.444444e-01  1.040834e-17  2.523808e-01
   endloop
 endfacet
 facet normal  0.000000e+00  1.000000e+00  0.000000e+00
   outer loop
     vertex -9.000378e-01  1.040834e-17  2.692221e-01
     vertex -9.415354e-01  1.040834e-17  2.405784e-01
     vertex -9.437064e-01  1.040834e-17  2.463030e-01
   endloop
 endfacet
 facet normal  0.000000e+00  1.000000e+00  0.000000e+00
   outer loop
     vertex -9.000378e-01  1.040834e-17  2.692221e-01
     vertex -9.380574e-01  1.040834e-17  2.355396e-01
     vertex -9.415354e-01  1.040834e-17  2.405784e-01
   endloop
 endfacet
 facet normal  0.000000e+00  1.000000e+00  0.000000e+00
   outer loop
     vertex -9.000378e-01  1.040834e-17  2.692221e-01
     vertex -9.334746e-01  1.040834e-17  2.314797e-01
     vertex -9.380574e-01  1.040834e-17  2.355396e-01
   endloop
 endfacet
 facet normal  0.000000e+00  1.000000e+00  0.000000e+00
   outer loop
     vertex -9.000378e-01  1.040834e-17  2.692221e-01
     vertex -9.280534e-01  1.040834e-17  2.286344e-01
     vertex -9.334746e-01  1.040834e-17  2.314797e-01
   endloop
 endfacet
 facet normal  0.000000e+00  1.000000e+00  0.000000e+00
   outer loop
     vertex -9.000378e-01  1.040834e-17  2.692221e-01
     vertex -9.221089e-01  1.040834e-17  2.271692e-01
     vertex -9.280534e-01  1.040834e-17  2.286344e-01
   endloop
 endfacet
 facet normal  0.000000e+00  1.000000e+00  0.000000e+00
   outer loop
     vertex -9.000378e-01  1.040834e-17  2.692221e-01
     vertex -9.159864e-01  1.040834e-17  2.271692e-01
     vertex -9.221089e-01  1.040834e-17  2.271692e-01
   endloop
 endfacet
 facet normal  0.000000e+00  1.000000e+00  0.000000e+00
   outer loop
     vertex -9.000378e-01  1.040834e-17  2.692221e-01
     vertex -9.100418e-01  1.040834e-17  2.286344e-01
     vertex -9.159864e-01  1.040834e-17  2.271692e-01
   endloop
 endfacet
 facet normal  0.000000e+00  1.000000e+00  0.000000e+00
   outer loop
     vertex -9.000378e-01  1.040834e-17  2.692221e-01
     vertex -9.046206e-01  1.040834e-17  2.314797e-01
     vertex -9.100418e-01  1.040834e-17  2.286344e-01
   endloop
 endfacet
 facet normal  0.000000e+00  1.000000e+00  0.000000e+00
   outer loop
     vertex -9.000378e-01  1.040834e-17  2.692221e-01
     vertex -9.000378e-01  1.040834e-17  2.355396e-01
     vertex -9.046206e-01  1.040834e-17  2.314797e-01
   endloop
 endfacet
 facet normal  0.000000e+00  1.000000e+00  0.000000e+00
   outer loop
     vertex -9.000378e-01  1.040834e-17  2.692221e-01
     vertex -8.965598e-01  1.040834e-17  2.405784e-01
     vertex -9.000378e-01  1.040834e-17  2.355396e-01
   endloop
 endfacet
 facet normal  0.000000e+00  1.000000e+00  0.000000e+00
   outer loop
     vertex -9.000378e-01  1.040834e-17  2.692221e-01
     vertex -8.943888e-01  1.040834e-17  2.463030e-01
     vertex -8.965598e-01  1.040834e-17  2.405784e-01
   endloop
 endfacet
 facet normal  0.000000e+00  1.000000e+00  0.000000e+00
   outer loop
     vertex -9.000378e-01  1.040834e-17  2.692221e-01
     vertex -8.936508e-01  1.040834e-17  2.523808e-01
     vertex -8.943888e-01  1.040834e-17  2.463030e-01
   endloop
 endfacet
 facet normal  9.927089e-01  0.000000e+00  1.205367e-01
   outer loop
     vertex -5.515316e-01 -1.587302e-02  2.584587e-01
     vertex -5.507936e-01 -4.761905e-01  2.523808e-01
     vertex -5.507936e-01 -1.587302e-02  2.523808e-01
   endloop
 endfacet
 facet normal  9.927089e-01  0.000000e+00  1.205367e-01
   outer loop
     vertex -5.515316e-01 -1.587302e-02  2.584587e-01
     vertex -5.515316e-01 -4.761905e-01  2.584587e-01
     vertex -5.507936e-01 -4.761905e-01  2.523808e-01
   endloop
 endfacet
 facet normal  9.350162e-01  0.000000e+00  3.546049e-01
   outer loop
     vertex -5.537027e-01 -1.587302e-02  2.641833e-01
     vertex -5.537027e-01 -4.761905e-01  2.641833e-01
     vertex -5.515316e-01 -4.761905e-01  2.584587e-01
   endloop
 endfacet
 facet normal  9.350162e-01  0.000000e+00  3.546049e-01
   outer loop
     vertex -5.537027e-01 -1.587302e-02  2.641833e-01
     vertex -5.515316e-01 -4.761905e-01  2.584587e-01
     vertex -5.515316e-01 -1.587302e-02  2.584587e-01
   endloop
 endfacet
 facet normal  8.229839e-01  0.000000e+00  5.680647e-01
   outer loop
     vertex -5.571807e-01 -1.587302e-02  2.692221e-01
     vertex -5.571807e-01 -4.761905e-01  2.692221e-01
     vertex -5.537027e-01 -4.761905e-01  2.641833e-01
   endloop
 endfacet
 facet normal  8.229839e-01  0.000000e+00  5.680647e-01
   outer loop
     vertex -5.571807e-01 -1.587302e-02  2.692221e-01
     vertex -5.537027e-01 -4.761905e-01  2.641833e-01
     vertex -5.537027e-01 -1.587302e-02  2.641833e-01
   endloop
 endfacet
 facet normal  6.631227e-01  0.000000e+00  7.485107e-01
   outer loop
     vertex -5.617634e-01 -1.587302e-02  2.732820e-01
     vertex -5.617634e-01 -4.761905e-01  2.732820e-01
     vertex -5.571807e-01 -4.761905e-01  2.692221e-01
   endloop
 endfacet
 facet normal  6.631227e-01  0.000000e+00  7.485107e-01
   outer loop
     vertex -5.617634e-01 -1.587302e-02  2.732820e-01
     vertex -5.571807e-01 -4.761905e-01  2.692221e-01
     vertex -5.571807e-01 -1.587302e-02  2.692221e-01
   endloop
 endfacet
 facet normal  4.647232e-01  0.000000e+00  8.854560e-01
   outer loop
     vertex -5.671846e-01 -1.587302e-02  2.761273e-01
     vertex -5.671846e-01 -4.761905e-01  2.761273e-01
     vertex -5.617634e-01 -4.761905e-01  2.732820e-01
   endloop
 endfacet
 facet normal  4.647232e-01  0.000000e+00  8.854560e-01
   outer loop
     vertex -5.671846e-01 -1.587302e-02  2.761273e-01
     vertex -5.617634e-01 -4.761905e-01  2.732820e-01
     vertex -5.617634e-01 -1.587302e-02  2.732820e-01
   endloop
 endfacet
 facet normal  2.393157e-01  0.000000e+00  9.709418e-01
   outer loop
     vertex -5.731292e-01 -1.587302e-02  2.775925e-01
     vertex -5.731292e-01 -4.761905e-01  2.775925e-01
     vertex -5.671846e-01 -4.761905e-01  2.761273e-01
   endloop
 endfacet
 facet normal  2.393157e-01  0.000000e+00  9.709418e-01
   outer loop
     vertex -5.731292e-01 -1.587302e-02  2.775925e-01
     vertex -5.671846e-01 -4.761905e-01  2.761273e-01
     vertex -5.671846e-01 -1.587302e-02  2.761273e-01
   endloop
 endfacet
 facet normal  0.000000e+00  0.000000e+00  1.000000e+00
   outer loop
     vertex -5.792517e-01 -1.587302e-02  2.775925e-01
     vertex -5.792517e-01 -4.761905e-01  2.775925e-01
     vertex -5.731292e-01 -4.761905e-01  2.775925e-01
   endloop
 endfacet
 facet normal -0.000000e+00  0.000000e+00  1.000000e+00
   outer loop
     vertex -5.792517e-01 -1.587302e-02  2.775925e-01
     vertex -5.731292e-01 -4.761905e-01  2.775925e-01
     vertex -5.731292e-01 -1.587302e-02  2.775925e-01
   endloop
 endfacet
 facet normal -2.393157e-01  0.000000e+00  9.709418e-01
   outer loop
     vertex -5.851963e-01 -1.587302e-02  2.761273e-01
     vertex -5.851963e-01 -4.761905e-01  2.761273e-01
     vertex -5.792517e-01 -4.761905e-01  2.775925e-01
   endloop
 endfacet
 facet normal -4.647232e-01  0.000000e+00  8.854560e-01
   outer loop
     vertex -5.851963e-01 -1.587302e-02  2.761273e-01
     vertex -5.906175e-01 -4.761905e-01  2.732820e-01
     vertex -5.851963e-01 -4.761905e-01  2.761273e-01
   endloop
 endfacet
 facet normal -2.393157e-01  0.000000e+00  9.709418e-01
   outer loop
     vertex -5.851963e-01 -1.587302e-02  2.761273e-01
     vertex -5.792517e-01 -4.761905e-01  2.775925e-01
     vertex -5.792517e-01 -1.587302e-02  2.775925e-01
   endloop
 endfacet
 facet normal -4.647232e-01  0.000000e+00  8.854560e-01
   outer loop
     vertex -5.906175e-01 -1.587302e-02  2.732820e-01
     vertex -5.906175e-01 -4.761905e-01  2.732820e-01
     vertex -5.851963e-01 -1.587302e-02  2.761273e-01
   endloop
 endfacet
 facet normal -6.631227e-01  0.000000e+00  7.485107e-01
   outer loop
     vertex -5.952003e-01 -1.587302e-02  2.692221e-01
     vertex -5.952003e-01 -4.761905e-01  2.692221e-01
     vertex -5.906175e-01 -4.761905e-01  2.732820e-01
   endloop
 endfacet
 facet normal -8.229839e-01  0.000000e+00  5.680647e-01
   outer loop
     vertex -5.952003e-01 -1.587302e-02  2.692221e-01
     vertex -5.986782e-01 -4.761905e-01  2.641833e-01
     vertex -5.952003e-01 -4.761905e-01  2.692221e-01
   endloop
 endfacet
 facet normal -6.631227e-01  0.000000e+00  7.485107e-01
   outer loop
     vertex -5.952003e-01 -1.587302e-02  2.692221e-01
     vertex -5.906175e-01 -4.761905e-01  2.732820e-01
     vertex -5.906175e-01 -1.587302e-02  2.732820e-01
   endloop
 endfacet
 facet normal -8.229839e-01  0.000000e+00  5.680647e-01
   outer loop
     vertex -5.986782e-01 -1.587302e-02  2.641833e-01
     vertex -5.986782e-01 -4.761905e-01  2.641833e-01
     vertex -5.952003e-01 -1.587302e-02  2.692221e-01
   endloop
 endfacet
 facet normal -9.350162e-01  0.000000e+00  3.546049e-01
   outer loop
     vertex -6.008493e-01 -1.587302e-02  2.584587e-01
     vertex -5.986782e-01 -4.761905e-01  2.641833e-01
     vertex -5.986782e-01 -1.587302e-02  2.641833e-01
   endloop
 endfacet
 facet normal -9.350162e-01  0.000000e+00  3.546049e-01
   outer loop
     vertex -6.008493e-01 -1.587302e-02  2.584587e-01
     vertex -6.008493e-01 -4.761905e-01  2.584587e-01
     vertex -5.986782e-01 -4.761905e-01  2.641833e-01
   endloop
 endfacet
 facet normal -9.927089e-01  0.000000e+00  1.205367e-01
   outer loop
     vertex -6.015873e-01 -1.587302e-02  2.523808e-01
     vertex -6.008493e-01 -4.761905e-01  2.584587e-01
     vertex -6.008493e-01 -1.587302e-02  2.584587e-01
   endloop
 endfacet
 facet normal -9.927089e-01  0.000000e+00  1.205367e-01
   outer loop
     vertex -6.015873e-01 -1.587302e-02  2.523808e-01
     vertex -6.015873e-01 -4.761905e-01  2.523808e-01
     vertex -6.008493e-01 -4.761905e-01  2.584587e-01
   endloop
 endfacet
 facet normal -9.927089e-01 -0.000000e+00 -1.205367e-01
   outer loop
     vertex -6.008493e-01 -1.587302e-02  2.463030e-01
     vertex -6.008493e-01 -4.761905e-01  2.463030e-01
     vertex -6.015873e-01 -4.761905e-01  2.523808e-01
   endloop
 endfacet
 facet normal -9.927089e-01  0.000000e+00 -1.205367e-01
   outer loop
     vertex -6.008493e-01 -1.587302e-02  2.463030e-01
     vertex -6.015873e-01 -4.761905e-01  2.523808e-01
     vertex -6.015873e-01 -1.587302e-02  2.523808e-01
   endloop
 endfacet
 facet normal -9.350162e-01 -0.000000e+00 -3.546049e-01
   outer loop
     vertex -6.008493e-01 -1.587302e-02  2.463030e-01
     vertex -5.986782e-01 -4.761905e-01  2.405784e-01
     vertex -6.008493e-01 -4.761905e-01  2.463030e-01
   endloop
 endfacet
 facet normal -9.350162e-01 -0.000000e+00 -3.546049e-01
   outer loop
     vertex -5.986782e-01 -1.587302e-02  2.405784e-01
     vertex -5.986782e-01 -4.761905e-01  2.405784e-01
     vertex -6.008493e-01 -1.587302e-02  2.463030e-01
   endloop
 endfacet
 facet normal -8.229839e-01 -0.000000e+00 -5.680647e-01
   outer loop
     vertex -5.952003e-01 -1.587302e-02  2.355396e-01
     vertex -5.952003e-01 -4.761905e-01  2.355396e-01
     vertex -5.986782e-01 -4.761905e-01  2.405784e-01
   endloop
 endfacet
 facet normal -8.229839e-01  0.000000e+00 -5.680647e-01
   outer loop
     vertex -5.952003e-01 -1.587302e-02  2.355396e-01
     vertex -5.986782e-01 -4.761905e-01  2.405784e-01
     vertex -5.986782e-01 -1.587302e-02  2.405784e-01
   endloop
 endfacet
 facet normal -6.631227e-01 -0.000000e+00 -7.485107e-01
   outer loop
     vertex -5.906175e-01 -1.587302e-02  2.314797e-01
     vertex -5.906175e-01 -4.761905e-01  2.314797e-01
     vertex -5.952003e-01 -4.761905e-01  2.355396e-01
   endloop
 endfacet
 facet normal -6.631227e-01  0.000000e+00 -7.485107e-01
   outer loop
     vertex -5.906175e-01 -1.587302e-02  2.314797e-01
     vertex -5.952003e-01 -4.761905e-01  2.355396e-01
     vertex -5.952003e-01 -1.587302e-02  2.355396e-01
   endloop
 endfacet
 facet normal -4.647232e-01 -0.000000e+00 -8.854560e-01
   outer loop
     vertex -5.851963e-01 -1.587302e-02  2.286344e-01
     vertex -5.851963e-01 -4.761905e-01  2.286344e-01
     vertex -5.906175e-01 -4.761905e-01  2.314797e-01
   endloop
 endfacet
 facet normal -4.647232e-01  0.000000e+00 -8.854560e-01
   outer loop
     vertex -5.851963e-01 -1.587302e-02  2.286344e-01
     vertex -5.906175e-01 -4.761905e-01  2.314797e-01
     vertex -5.906175e-01 -1.587302e-02  2.314797e-01
   endloop
 endfacet
 facet normal -2.393157e-01 -0.000000e+00 -9.709418e-01
   outer loop
     vertex -5.792517e-01 -1.587302e-02  2.271692e-01
     vertex -5.792517e-01 -4.761905e-01  2.271692e-01
     vertex -5.851963e-01 -4.761905e-01  2.286344e-01
   endloop
 endfacet
 facet normal -2.393157e-01  0.000000e+00 -9.709418e-01
   outer loop
     vertex -5.792517e-01 -1.587302e-02  2.271692e-01
     vertex -5.851963e-01 -4.761905e-01  2.286344e-01
     vertex -5.851963e-01 -1.587302e-02  2.286344e-01
   endloop
 endfacet
 facet normal -4.533374e-15 -0.000000e+00 -1.000000e+00
   outer loop
     vertex -5.731292e-01 -1.587302e-02  2.271692e-01
     vertex -5.731292e-01 -4.761905e-01  2.271692e-01
     vertex -5.792517e-01 -4.761905e-01  2.271692e-01
   endloop
 endfacet
 facet normal -4.533374e-15  0.000000e+00 -1.000000e+00
   outer loop
     vertex -5.731292e-01 -1.587302e-02  2.271692e-01
     vertex -5.792517e-01 -4.761905e-01  2.271692e-01
     vertex -5.792517e-01 -1.587302e-02  2.271692e-01
   endloop
 endfacet
 facet normal  2.393157e-01  0.000000e+00 -9.709418e-01
   outer loop
     vertex -5.671846e-01 -1.587302e-02  2.286344e-01
     vertex -5.671846e-01 -4.761905e-01  2.286344e-01
     vertex -5.731292e-01 -4.761905e-01  2.271692e-01
   endloop
 endfacet
 facet normal  2.393157e-01  0.000000e+00 -9.709418e-01
   outer loop
     vertex -5.671846e-01 -1.587302e-02  2.286344e-01
     vertex -5.731292e-01 -4.761905e-01  2.271692e-01
     vertex -5.731292e-01 -1.587302e-02  2.271692e-01
   endloop
 endfacet
 facet normal  4.647232e-01  0.000000e+00 -8.854560e-01
   outer loop
     vertex -5.617634e-01 -1.587302e-02  2.314797e-01
     vertex -5.617634e-01 -4.761905e-01  2.314797e-01
     vertex -5.671846e-01 -4.761905e-01  2.286344e-01
   endloop
 endfacet
 facet normal  4.647232e-01  0.000000e+00 -8.854560e-01
   outer loop
     vertex -5.617634e-01 -1.587302e-02  2.314797e-01
     vertex -5.671846e-01 -4.761905e-01  2.286344e-01
     vertex -5.671846e-01 -1.587302e-02  2.286344e-01
   endloop
 endfacet
 facet normal  6.631227e-01  0.000000e+00 -7.485107e-01
   outer loop
     vertex -5.571807e-01 -1.587302e-02  2.355396e-01
     vertex -5.571807e-01 -4.761905e-01  2.355396e-01
     vertex -5.617634e-01 -4.761905e-01  2.314797e-01
   endloop
 endfacet
 facet normal  6.631227e-01  0.000000e+00 -7.485107e-01
   outer loop
     vertex -5.571807e-01 -1.587302e-02  2.355396e-01
     vertex -5.617634e-01 -4.761905e-01  2.314797e-01
     vertex -5.617634e-01 -1.587302e-02  2.314797e-01
   endloop
 endfacet
 facet normal  8.229839e-01  0.000000e+00 -5.680647e-01
   outer loop
     vertex -5.537027e-01 -1.587302e-02  2.405784e-01
     vertex -5.537027e-01 -4.761905e-01  2.405784e-01
     vertex -5.571807e-01 -4.761905e-01  2.355396e-01
   endloop
 endfacet
 facet normal  8.229839e-01  0.000000e+00 -5.680647e-01
   outer loop
     vertex -5.537027e-01 -1.587302e-02  2.405784e-01
     vertex -5.571807e-01 -4.761905e-01  2.355396e-01
     vertex -5.571807e-01 -1.587302e-02  2.355396e-01
   endloop
 endfacet
 facet normal  9.350162e-01  0.000000e+00 -3.546049e-01
   outer loop
     vertex -5.515316e-01 -1.587302e-02  2.463030e-01
     vertex -5.515316e-01 -4.761905e-01  2.463030e-01
     vertex -5.537027e-01 -4.761905e-01  2.405784e-01
   endloop
 endfacet
 facet normal  9.927089e-01  0.000000e+00 -1.205367e-01
   outer loop
     vertex -5.515316e-01 -1.587302e-02  2.463030e-01
     vertex -5.507936e-01 -4.761905e-01  2.523808e-01
     vertex -5.515316e-01 -4.761905e-01  2.463030e-01
   endloop
 endfacet
 facet normal  9.350162e-01  0.000000e+00 -3.546049e-01
   outer loop
     vertex -5.515316e-01 -1.587302e-02  2.463030e-01
     vertex -5.537027e-01 -4.761905e-01  2.405784e-01
     vertex -5.537027e-01 -1.587302e-02  2.405784e-01
   endloop
 endfacet
 facet normal  9.927089e-01  0.000000e+00 -1.205367e-01
   outer loop
     vertex -5.507936e-01 -1.587302e-02  2.523808e-01
     vertex -5.507936e-01 -4.761905e-01  2.523808e-01
     vertex -5.515316e-01 -1.587302e-02  2.463030e-01
   endloop
 endfacet
 facet normal  9.927089e-01  0.000000e+00  1.205367e-01
   outer loop
     vertex -5.515316e-01 -1.587302e-02  2.584587e-01
     vertex -5.507936e-01 -1.587302e-02  2.523808e-01
     vertex -5.507936e-01  0.000000e+00  2.523808e-01
   endloop
 endfacet
 facet normal  9.927089e-01 -0.000000e+00  1.205367e-01
   outer loop
     vertex -5.515316e-01 -1.587302e-02  2.584587e-01
     vertex -5.507936e-01  0.000000e+00  2.523808e-01
     vertex -5.515316e-01  0.000000e+00  2.584587e-01
   endloop
 endfacet
 facet normal  9.350162e-01 -0.000000e+00  3.546049e-01
   outer loop
     vertex -5.537027e-01 -1.587302e-02  2.641833e-01
     vertex -5.515316e-01  0.000000e+00  2.584587e-01
     vertex -5.537027e-01  0.000000e+00  2.641833e-01
   endloop
 endfacet
 facet normal  9.350162e-01  0.000000e+00  3.546049e-01
   outer loop
     vertex -5.537027e-01 -1.587302e-02  2.641833e-01
     vertex -5.515316e-01 -1.587302e-02  2.584587e-01
     vertex -5.515316e-01  0.000000e+00  2.584587e-01
   endloop
 endfacet
 facet normal  8.229839e-01 -0.000000e+00  5.680647e-01
   outer loop
     vertex -5.571807e-01 -1.587302e-02  2.692221e-01
     vertex -5.537027e-01  0.000000e+00  2.641833e-01
     vertex -5.571807e-01  0.000000e+00  2.692221e-01
   endloop
 endfacet
 facet normal  8.229839e-01  0.000000e+00  5.680647e-01
   outer loop
     vertex -5.571807e-01 -1.587302e-02  2.692221e-01
     vertex -5.537027e-01 -1.587302e-02  2.641833e-01
     vertex -5.537027e-01  0.000000e+00  2.641833e-01
   endloop
 endfacet
 facet normal  6.631227e-01 -0.000000e+00  7.485107e-01
   outer loop
     vertex -5.617634e-01 -1.587302e-02  2.732820e-01
     vertex -5.571807e-01  0.000000e+00  2.692221e-01
     vertex -5.617634e-01  0.000000e+00  2.732820e-01
   endloop
 endfacet
 facet normal  6.631227e-01  0.000000e+00  7.485107e-01
   outer loop
     vertex -5.617634e-01 -1.587302e-02  2.732820e-01
     vertex -5.571807e-01 -1.587302e-02  2.692221e-01
     vertex -5.571807e-01  0.000000e+00  2.692221e-01
   endloop
 endfacet
 facet normal  4.647232e-01 -0.000000e+00  8.854560e-01
   outer loop
     vertex -5.671846e-01 -1.587302e-02  2.761273e-01
     vertex -5.617634e-01  0.000000e+00  2.732820e-01
     vertex -5.671846e-01  0.000000e+00  2.761273e-01
   endloop
 endfacet
 facet normal  4.647232e-01  0.000000e+00  8.854560e-01
   outer loop
     vertex -5.671846e-01 -1.587302e-02  2.761273e-01
     vertex -5.617634e-01 -1.587302e-02  2.732820e-01
     vertex -5.617634e-01  0.000000e+00  2.732820e-01
   endloop
 endfacet
 facet normal  2.393157e-01 -0.000000e+00  9.709418e-01
   outer loop
     vertex -5.731292e-01 -1.587302e-02  2.775925e-01
     vertex -5.671846e-01  0.000000e+00  2.761273e-01
     vertex -5.731292e-01  0.000000e+00  2.775925e-01
   endloop
 endfacet
 facet normal  2.393157e-01  0.000000e+00  9.709418e-01
   outer loop
     vertex -5.731292e-01 -1.587302e-02  2.775925e-01
     vertex -5.671846e-01 -1.587302e-02  2.761273e-01
     vertex -5.671846e-01  0.000000e+00  2.761273e-01
   endloop
 endfacet
 facet normal  0.000000e+00  0.000000e+00  1.000000e+00
   outer loop
     vertex -5.792517e-01 -1.587302e-02  2.775925e-01
     vertex -5.731292e-01  0.000000e+00  2.775925e-01
     vertex -5.792517e-01  0.000000e+00  2.775925e-01
   endloop
 endfacet
 facet normal  0.000000e+00  0.000000e+00  1.000000e+00
   outer loop
     vertex -5.792517e-01 -1.587302e-02  2.775925e-01
     vertex -5.731292e-01 -1.587302e-02  2.775925e-01
     vertex -5.731292e-01  0.000000e+00  2.775925e-01
   endloop
 endfacet
 facet normal -2.393157e-01  0.000000e+00  9.709418e-01
   outer loop
     vertex -5.851963e-01 -1.587302e-02  2.761273e-01
     vertex -5.792517e-01  0.000000e+00  2.775925e-01
     vertex -5.851963e-01  0.000000e+00  2.761273e-01
   endloop
 endfacet
 facet normal -2.393157e-01  0.000000e+00  9.709418e-01
   outer loop
     vertex -5.851963e-01 -1.587302e-02  2.761273e-01
     vertex -5.792517e-01 -1.587302e-02  2.775925e-01
     vertex -5.792517e-01  0.000000e+00  2.775925e-01
   endloop
 endfacet
 facet normal -4.647232e-01  0.000000e+00  8.854560e-01
   outer loop
     vertex -5.906175e-01 -1.587302e-02  2.732820e-01
     vertex -5.851963e-01  0.000000e+00  2.761273e-01
     vertex -5.906175e-01  0.000000e+00  2.732820e-01
   endloop
 endfacet
 facet normal -4.647232e-01  0.000000e+00  8.854560e-01
   outer loop
     vertex -5.906175e-01 -1.587302e-02  2.732820e-01
     vertex -5.851963e-01 -1.587302e-02  2.761273e-01
     vertex -5.851963e-01  0.000000e+00  2.761273e-01
   endloop
 endfacet
 facet normal -6.631227e-01  0.000000e+00  7.485107e-01
   outer loop
     vertex -5.952003e-01 -1.587302e-02  2.692221e-01
     vertex -5.906175e-01  0.000000e+00  2.732820e-01
     vertex -5.952003e-01  0.000000e+00  2.692221e-01
   endloop
 endfacet
 facet normal -6.631227e-01  0.000000e+00  7.485107e-01
   outer loop
     vertex -5.952003e-01 -1.587302e-02  2.692221e-01
     vertex -5.906175e-01 -1.587302e-02  2.732820e-01
     vertex -5.906175e-01  0.000000e+00  2.732820e-01
   endloop
 endfacet
 facet normal -8.229839e-01  0.000000e+00  5.680647e-01
   outer loop
     vertex -5.986782e-01 -1.587302e-02  2.641833e-01
     vertex -5.952003e-01  0.000000e+00  2.692221e-01
     vertex -5.986782e-01  0.000000e+00  2.641833e-01
   endloop
 endfacet
 facet normal -8.229839e-01  0.000000e+00  5.680647e-01
   outer loop
     vertex -5.986782e-01 -1.587302e-02  2.641833e-01
     vertex -5.952003e-01 -1.587302e-02  2.692221e-01
     vertex -5.952003e-01  0.000000e+00  2.692221e-01
   endloop
 endfacet
 facet normal -9.350162e-01  0.000000e+00  3.546049e-01
   outer loop
     vertex -6.008493e-01 -1.587302e-02  2.584587e-01
     vertex -5.986782e-01 -1.587302e-02  2.641833e-01
     vertex -5.986782e-01  0.000000e+00  2.641833e-01
   endloop
 endfacet
 facet normal -9.350162e-01  0.000000e+00  3.546049e-01
   outer loop
     vertex -6.008493e-01 -1.587302e-02  2.584587e-01
     vertex -5.986782e-01  0.000000e+00  2.641833e-01
     vertex -6.008493e-01  0.000000e+00  2.584587e-01
   endloop
 endfacet
 facet normal -9.927089e-01  0.000000e+00  1.205367e-01
   outer loop
     vertex -6.015873e-01 -1.587302e-02  2.523808e-01
     vertex -6.008493e-01 -1.587302e-02  2.584587e-01
     vertex -6.008493e-01  0.000000e+00  2.584587e-01
   endloop
 endfacet
 facet normal -9.927089e-01  0.000000e+00  1.205367e-01
   outer loop
     vertex -6.015873e-01 -1.587302e-02  2.523808e-01
     vertex -6.008493e-01  0.000000e+00  2.584587e-01
     vertex -6.015873e-01  0.000000e+00  2.523808e-01
   endloop
 endfacet
 facet normal -9.927089e-01  0.000000e+00 -1.205367e-01
   outer loop
     vertex -6.008493e-01 -1.587302e-02  2.463030e-01
     vertex -6.015873e-01  0.000000e+00  2.523808e-01
     vertex -6.008493e-01  0.000000e+00  2.463030e-01
   endloop
 endfacet
 facet normal -9.927089e-01  0.000000e+00 -1.205367e-01
   outer loop
     vertex -6.008493e-01 -1.587302e-02  2.463030e-01
     vertex -6.015873e-01 -1.587302e-02  2.523808e-01
     vertex -6.015873e-01  0.000000e+00  2.523808e-01
   endloop
 endfacet
 facet normal -9.350162e-01  0.000000e+00 -3.546049e-01
   outer loop
     vertex -5.986782e-01 -1.587302e-02  2.405784e-01
     vertex -6.008493e-01  0.000000e+00  2.463030e-01
     vertex -5.986782e-01  0.000000e+00  2.405784e-01
   endloop
 endfacet
 facet normal -9.350162e-01  0.000000e+00 -3.546049e-01
   outer loop
     vertex -5.986782e-01 -1.587302e-02  2.405784e-01
     vertex -6.008493e-01 -1.587302e-02  2.463030e-01
     vertex -6.008493e-01  0.000000e+00  2.463030e-01
   endloop
 endfacet
 facet normal -8.229839e-01  0.000000e+00 -5.680647e-01
   outer loop
     vertex -5.952003e-01 -1.587302e-02  2.355396e-01
     vertex -5.986782e-01  0.000000e+00  2.405784e-01
     vertex -5.952003e-01  0.000000e+00  2.355396e-01
   endloop
 endfacet
 facet normal -8.229839e-01  0.000000e+00 -5.680647e-01
   outer loop
     vertex -5.952003e-01 -1.587302e-02  2.355396e-01
     vertex -5.986782e-01 -1.587302e-02  2.405784e-01
     vertex -5.986782e-01  0.000000e+00  2.405784e-01
   endloop
 endfacet
 facet normal -6.631227e-01  0.000000e+00 -7.485107e-01
   outer loop
     vertex -5.906175e-01 -1.587302e-02  2.314797e-01
     vertex -5.952003e-01  0.000000e+00  2.355396e-01
     vertex -5.906175e-01  0.000000e+00  2.314797e-01
   endloop
 endfacet
 facet normal -6.631227e-01  0.000000e+00 -7.485107e-01
   outer loop
     vertex -5.906175e-01 -1.587302e-02  2.314797e-01
     vertex -5.952003e-01 -1.587302e-02  2.355396e-01
     vertex -5.952003e-01  0.000000e+00  2.355396e-01
   endloop
 endfacet
 facet normal -4.647232e-01  0.000000e+00 -8.854560e-01
   outer loop
     vertex -5.851963e-01 -1.587302e-02  2.286344e-01
     vertex -5.906175e-01  0.000000e+00  2.314797e-01
     vertex -5.851963e-01  0.000000e+00  2.286344e-01
   endloop
 endfacet
 facet normal -4.647232e-01  0.000000e+00 -8.854560e-01
   outer loop
     vertex -5.851963e-01 -1.587302e-02  2.286344e-01
     vertex -5.906175e-01 -1.587302e-02  2.314797e-01
     vertex -5.906175e-01  0.000000e+00  2.314797e-01
   endloop
 endfacet
 facet normal -2.393157e-01  0.000000e+00 -9.709418e-01
   outer loop
     vertex -5.792517e-01 -1.587302e-02  2.271692e-01
     vertex -5.851963e-01  0.000000e+00  2.286344e-01
     vertex -5.792517e-01  0.000000e+00  2.271692e-01
   endloop
 endfacet
 facet normal -2.393157e-01  0.000000e+00 -9.709418e-01
   outer loop
     vertex -5.792517e-01 -1.587302e-02  2.271692e-01
     vertex -5.851963e-01 -1.587302e-02  2.286344e-01
     vertex -5.851963e-01  0.000000e+00  2.286344e-01
   endloop
 endfacet
 facet normal -4.533374e-15  0.000000e+00 -1.000000e+00
   outer loop
     vertex -5.731292e-01 -1.587302e-02  2.271692e-01
     vertex -5.792517e-01  0.000000e+00  2.271692e-01
     vertex -5.731292e-01  0.000000e+00  2.271692e-01
   endloop
 endfacet
 facet normal -4.533374e-15  0.000000e+00 -1.000000e+00
   outer loop
     vertex -5.731292e-01 -1.587302e-02  2.271692e-01
     vertex -5.792517e-01 -1.587302e-02  2.271692e-01
     vertex -5.792517e-01  0.000000e+00  2.271692e-01
   endloop
 endfacet
 facet normal  2.393157e-01  0.000000e+00 -9.709418e-01
   outer loop
     vertex -5.671846e-01 -1.587302e-02  2.286344e-01
     vertex -5.731292e-01  0.000000e+00  2.271692e-01
     vertex -5.671846e-01  0.000000e+00  2.286344e-01
   endloop
 endfacet
 facet normal  2.393157e-01  0.000000e+00 -9.709418e-01
   outer loop
     vertex -5.671846e-01 -1.587302e-02  2.286344e-01
     vertex -5.731292e-01 -1.587302e-02  2.271692e-01
     vertex -5.731292e-01  0.000000e+00  2.271692e-01
   endloop
 endfacet
 facet normal  4.647232e-01  0.000000e+00 -8.854560e-01
   outer loop
     vertex -5.617634e-01 -1.587302e-02  2.314797e-01
     vertex -5.671846e-01  0.000000e+00  2.286344e-01
     vertex -5.617634e-01  0.000000e+00  2.314797e-01
   endloop
 endfacet
 facet normal  4.647232e-01  0.000000e+00 -8.854560e-01
   outer loop
     vertex -5.617634e-01 -1.587302e-02  2.314797e-01
     vertex -5.671846e-01 -1.587302e-02  2.286344e-01
     vertex -5.671846e-01  0.000000e+00  2.286344e-01
   endloop
 endfacet
 facet normal  6.631227e-01  0.000000e+00 -7.485107e-01
   outer loop
     vertex -5.571807e-01 -1.587302e-02  2.355396e-01
     vertex -5.617634e-01  0.000000e+00  2.314797e-01
     vertex -5.571807e-01  0.000000e+00  2.355396e-01
   endloop
 endfacet
 facet normal  6.631227e-01  0.000000e+00 -7.485107e-01
   outer loop
     vertex -5.571807e-01 -1.587302e-02  2.355396e-01
     vertex -5.617634e-01 -1.587302e-02  2.314797e-01
     vertex -5.617634e-01  0.000000e+00  2.314797e-01
   endloop
 endfacet
 facet normal  8.229839e-01  0.000000e+00 -5.680647e-01
   outer loop
     vertex -5.537027e-01 -1.587302e-02  2.405784e-01
     vertex -5.571807e-01  0.000000e+00  2.355396e-01
     vertex -5.537027e-01  0.000000e+00  2.405784e-01
   endloop
 endfacet
 facet normal  8.229839e-01  0.000000e+00 -5.680647e-01
   outer loop
     vertex -5.537027e-01 -1.587302e-02  2.405784e-01
     vertex -5.571807e-01 -1.587302e-02  2.355396e-01
     vertex -5.571807e-01  0.000000e+00  2.355396e-01
   endloop
 endfacet
 facet normal  9.350162e-01  0.000000e+00 -3.546049e-01
   outer loop
     vertex -5.515316e-01 -1.587302e-02  2.463030e-01
     vertex -5.537027e-01  0.000000e+00  2.405784e-01
     vertex -5.515316e-01  0.000000e+00  2.463030e-01
   endloop
 endfacet
 facet normal  9.350162e-01  0.000000e+00 -3.546049e-01
   outer loop
     vertex -5.515316e-01 -1.587302e-02  2.463030e-01
     vertex -5.537027e-01 -1.587302e-02  2.405784e-01
     vertex -5.537027e-01  0.000000e+00  2.405784e-01
   endloop
 endfacet
 facet normal  9.927089e-01  0.000000e+00 -1.205367e-01
   outer loop
     vertex -5.507936e-01 -1.587302e-02  2.523808e-01
     vertex -5.515316e-01  0.000000e+00  2.463030e-01
     vertex -5.507936e-01  0.000000e+00  2.523808e-01
   endloop
 endfacet
 facet normal  9.927089e-01  0.000000e+00 -1.205367e-01
   outer loop
     vertex -5.507936e-01 -1.587302e-02  2.523808e-01
     vertex -5.515316e-01 -1.587302e-02  2.463030e-01
     vertex -5.515316e-01  0.000000e+00  2.463030e-01
   endloop
 endfacet
 facet normal  0.000000e+00 -1.000000e+00  0.000000e+00
   outer loop
     vertex -5.571807e-01 -4.761905e-01  2.692221e-01
     vertex -5.507936e-01 -4.761905e-01  2.523808e-01
     vertex -5.515316e-01 -4.761905e-01  2.584587e-01
   endloop
 endfacet
 facet normal  0.000000e+00 -1.000000e+00  0.000000e+00
   outer loop
     vertex -5.571807e-01 -4.761905e-01  2.692221e-01
     vertex -5.515316e-01 -4.761905e-01  2.584587e-01
     vertex -5.537027e-01 -4.761905e-01  2.641833e-01
   endloop
 endfacet
 facet normal  0.000000e+00 -1.000000e+00  0.000000e+00
   outer loop
     vertex -5.571807e-01 -4.761905e-01  2.692221e-01
     vertex -5.617634e-01 -4.761905e-01  2.732820e-01
     vertex -5.671846e-01 -4.761905e-01  2.761273e-01
   endloop
 endfacet
 facet normal  0.000000e+00 -1.000000e+00  0.000000e+00
   outer loop
     vertex -5.571807e-01 -4.761905e-01  2.692221e-01
     vertex -5.671846e-01 -4.761905e-01  2.761273e-01
     vertex -5.731292e-01 -4.761905e-01  2.775925e-01
   endloop
 endfacet
 facet normal  0.000000e+00 -1.000000e+00  0.000000e+00
   outer loop
     vertex -5.571807e-01 -4.761905e-01  2.692221e-01
     vertex -5.731292e-01 -4.761905e-01  2.775925e-01
     vertex -5.792517e-01 -4.761905e-01  2.775925e-01
   endloop
 endfacet
 facet normal  0.000000e+00 -1.000000e+00  0.000000e+00
   outer loop
     vertex -5.571807e-01 -4.761905e-01  2.692221e-01
     vertex -5.792517e-01 -4.761905e-01  2.775925e-01
     vertex -5.851963e-01 -4.761905e-01  2.761273e-01
   endloop
 endfacet
 facet normal  0.000000e+00 -1.000000e+00  0.000000e+00
   outer loop
     vertex -5.571807e-01 -4.761905e-01  2.692221e-01
     vertex -5.851963e-01 -4.761905e-01  2.761273e-01
     vertex -5.906175e-01 -4.761905e-01  2.732820e-01
   endloop
 endfacet
 facet normal  0.000000e+00 -1.000000e+00  0.000000e+00
   outer loop
     vertex -5.571807e-01 -4.761905e-01  2.692221e-01
     vertex -5.906175e-01 -4.761905e-01  2.732820e-01
     vertex -5.952003e-01 -4.761905e-01  2.692221e-01
   endloop
 endfacet
 facet normal -0.000000e+00 -1.000000e+00  0.000000e+00
   outer loop
     vertex -5.571807e-01 -4.761905e-01  2.692221e-01
     vertex -5.952003e-01 -4.761905e-01  2.692221e-01
     vertex -5.986782e-01 -4.761905e-01  2.641833e-01
   endloop
 endfacet
 facet normal  0.000000e+00 -1.000000e+00  0.000000e+00
   outer loop
     vertex -5.571807e-01 -4.761905e-01  2.692221e-01
     vertex -5.986782e-01 -4.761905e-01  2.641833e-01
     vertex -6.008493e-01 -4.761905e-01  2.584587e-01
   endloop
 endfacet
 facet normal  0.000000e+00 -1.000000e+00  0.000000e+00
   outer loop
     vertex -5.571807e-01 -4.761905e-01  2.692221e-01
     vertex -6.008493e-01 -4.761905e-01  2.584587e-01
     vertex -6.015873e-01 -4.761905e-01  2.523808e-01
   endloop
 endfacet
 facet normal  0.000000e+00 -1.000000e+00  0.000000e+00
   outer loop
     vertex -5.571807e-01 -4.761905e-01  2.692221e-01
     vertex -6.015873e-01 -4.761905e-01  2.523808e-01
     vertex -6.008493e-01 -4.761905e-01  2.463030e-01
   endloop
 endfacet
 facet normal  0.000000e+00 -1.000000e+00  0.000000e+00
   outer loop
     vertex -5.571807e-01 -4.761905e-01  2.692221e-01
     vertex -6.008493e-01 -4.761905e-01  2.463030e-01
     vertex -5.986782e-01 -4.761905e-01  2.405784e-01
   endloop
 endfacet
 facet normal  0.000000e+00 -1.000000e+00  0.000000e+00
   outer loop
     vertex -5.571807e-01 -4.761905e-01  2.692221e-01
     vertex -5.986782e-01 -4.761905e-01  2.405784e-01
     vertex -5.952003e-01 -4.761905e-01  2.355396e-01
   endloop
 endfacet
 facet normal  0.000000e+00 -1.000000e+00  0.000000e+00
   outer loop
     vertex -5.571807e-01 -4.761905e-01  2.692221e-01
     vertex -5.952003e-01 -4.761905e-01  2.355396e-01
     vertex -5.906175e-01 -4.761905e-01  2.314797e-01
   endloop
 endfacet
 facet normal  0.000000e+00 -1.000000e+00  0.000000e+00
   outer loop
     vertex -5.571807e-01 -4.761905e-01  2.692221e-01
     vertex -5.906175e-01 -4.761905e-01  2.314797e-01
     vertex -5.851963e-01 -4.761905e-01  2.286344e-01
   endloop
 endfacet
 facet normal  0.000000e+00 -1.000000e+00  0.000000e+00
   outer loop
     vertex -5.571807e-01 -4.761905e-01  2.692221e-01
     vertex -5.851963e-01 -4.761905e-01  2.286344e-01
     vertex -5.792517e-01 -4.761905e-01  2.271692e-01
   endloop
 endfacet
 facet normal  0.000000e+00 -1.000000e+00  0.000000e+00
   outer loop
     vertex -5.571807e-01 -4.761905e-01  2.692221e-01
     vertex -5.792517e-01 -4.761905e-01  2.271692e-01
     vertex -5.731292e-01 -4.761905e-01  2.271692e-01
   endloop
 endfacet
 facet normal  0.000000e+00 -1.000000e+00  0.000000e+00
   outer loop
     vertex -5.571807e-01 -4.761905e-01  2.692221e-01
     vertex -5.731292e-01 -4.761905e-01  2.271692e-01
     vertex -5.671846e-01 -4.761905e-01  2.286344e-01
   endloop
 endfacet
 facet normal  0.000000e+00 -1.000000e+00  0.000000e+00
   outer loop
     vertex -5.571807e-01 -4.761905e-01  2.692221e-01
     vertex -5.671846e-01 -4.761905e-01  2.286344e-01
     vertex -5.617634e-01 -4.761905e-01  2.314797e-01
   endloop
 endfacet
 facet normal  0.000000e+00 -1.000000e+00 -0.000000e+00
   outer loop
     vertex -5.571807e-01 -4.761905e-01  2.692221e-01
     vertex -5.617634e-01 -4.761905e-01  2.314797e-01
     vertex -5.571807e-01 -4.761905e-01  2.355396e-01
   endloop
 endfacet
 facet normal  0.000000e+00 -1.000000e+00  0.000000e+00
   outer loop
     vertex -5.571807e-01 -4.761905e-01  2.692221e-01
     vertex -5.571807e-01 -4.761905e-01  2.355396e-01
     vertex -5.537027e-01 -4.761905e-01  2.405784e-01
   endloop
 endfacet
 facet normal  0.000000e+00 -1.000000e+00  0.000000e+00
   outer loop
     vertex -5.571807e-01 -4.761905e-01  2.692221e-01
     vertex -5.537027e-01 -4.761905e-01  2.405784e-01
     vertex -5.515316e-01 -4.761905e-01  2.463030e-01
   endloop
 endfacet
 facet normal  0.000000e+00 -1.000000e+00  0.000000e+00
   outer loop
     vertex -5.571807e-01 -4.761905e-01  2.692221e-01
     vertex -5.515316e-01 -4.761905e-01  2.463030e-01
     vertex -5.507936e-01 -4.761905e-01  2.523808e-01
   endloop
 endfacet
 facet normal  0.000000e+00  1.000000e+00  0.000000e+00
   outer loop
     vertex -5.571807e-01  1.040834e-17  2.692221e-01
     vertex -5.515316e-01  1.040834e-17  2.584587e-01
     vertex -5.507936e-01  1.040834e-17  2.523808e-01
   endloop
 endfacet
 facet normal  0.000000e+00  1.000000e+00  0.000000e+00
   outer loop
     vertex -5.571807e-01  1.040834e-17  2.692221e-01
     vertex -5.537027e-01  1.040834e-17  2.641833e-01
     vertex -5.515316e-01  1.040834e-17  2.584587e-01
   endloop
 endfacet
 facet normal  0.000000e+00  1.000000e+00  0.000000e+00
   outer loop
     vertex -5.571807e-01  1.040834e-17  2.692221e-01
     vertex -5.671846e-01  1.040834e-17  2.761273e-01
     vertex -5.617634e-01  1.040834e-17  2.732820e-01
   endloop
 endfacet
 facet normal  0.000000e+00  1.000000e+00  0.000000e+00
   outer loop
     vertex -5.571807e-01  1.040834e-17  2.692221e-01
     vertex -5.731292e-01  1.040834e-17  2.775925e-01
     vertex -5.671846e-01  1.040834e-17  2.761273e-01
   endloop
 endfacet
 facet normal  0.000000e+00  1.000000e+00  0.000000e+00
   outer loop
     vertex -5.571807e-01  1.040834e-17  2.692221e-01
     vertex -5.792517e-01  1.040834e-17  2.775925e-01
     vertex -5.731292e-01  1.040834e-17  2.775925e-01
   endloop
 endfacet
 facet normal  0.000000e+00  1.000000e+00  0.000000e+00
   outer loop
     vertex -5.571807e-01  1.040834e-17  2.692221e-01
     vertex -5.851963e-01  1.040834e-17  2.761273e-01
     vertex -5.792517e-01  1.040834e-17  2.775925e-01
   endloop
 endfacet
 facet normal  0.000000e+00  1.000000e+00  0.000000e+00
   outer loop
     vertex -5.571807e-01  1.040834e-17  2.692221e-01
     vertex -5.906175e-01  1.040834e-17  2.732820e-01
     vertex -5.851963e-01  1.040834e-17  2.761273e-01
   endloop
 endfacet
 facet normal  0.000000e+00  1.000000e+00  0.000000e+00
   outer loop
     vertex -5.571807e-01  1.040834e-17  2.692221e-01
     vertex -5.952003e-01  1.040834e-17  2.692221e-01
     vertex -5.906175e-01  1.040834e-17  2.732820e-01
   endloop
 endfacet
 facet normal  0.000000e+00  1.000000e+00  0.000000e+00
   outer loop
     vertex -5.571807e-01  1.040834e-17  2.692221e-01
     vertex -5.986782e-01  1.040834e-17  2.641833e-01
     vertex -5.952003e-01  1.040834e-17  2.692221e-01
   endloop
 endfacet
 facet normal  0.000000e+00  1.000000e+00  0.000000e+00
   outer loop
     vertex -5.571807e-01  1.040834e-17  2.692221e-01
     vertex -6.008493e-01  1.040834e-17  2.584587e-01
     vertex -5.986782e-01  1.040834e-17  2.641833e-01
   endloop
 endfacet
 facet normal  0.000000e+00  1.000000e+00  0.000000e+00
   outer loop
     vertex -5.571807e-01  1.040834e-17  2.692221e-01
     vertex -6.015873e-01  1.040834e-17  2.523808e-01
     vertex -6.008493e-01  1.040834e-17  2.584587e-01
   endloop
 endfacet
 facet normal  0.000000e+00  1.000000e+00  0.000000e+00
   outer loop
     vertex -5.571807e-01  1.040834e-17  2.692221e-01
     vertex -6.008493e-01  1.040834e-17  2.463030e-01
     vertex -6.015873e-01  1.040834e-17  2.523808e-01
   endloop
 endfacet
 facet normal  0.000000e+00  1.000000e+00  0.000000e+00
   outer loop
     vertex -5.571807e-01  1.040834e-17  2.692221e-01
     vertex -5.986782e-01  1.040834e-17  2.405784e-01
     vertex -6.008493e-01  1.040834e-17  2.463030e-01
   endloop
 endfacet
 facet normal  0.000000e+00  1.000000e+00  0.000000e+00
   outer loop
     vertex -5.571807e-01  1.040834e-17  2.692221e-01
     vertex -5.952003e-01  1.040834e-17  2.355396e-01
     vertex -5.986782e-01  1.040834e-17  2.405784e-01
   endloop
 endfacet
 facet normal  0.000000e+00  1.000000e+00  0.000000e+00
   outer loop
     vertex -5.571807e-01  1.040834e-17  2.692221e-01
     vertex -5.906175e-01  1.040834e-17  2.314797e-01
     vertex -5.952003e-01  1.040834e-17  2.355396e-01
   endloop
 endfacet
 facet normal  0.000000e+00  1.000000e+00  0.000000e+00
   outer loop
     vertex -5.571807e-01  1.040834e-17  2.692221e-01
     vertex -5.851963e-01  1.040834e-17  2.286344e-01
     vertex -5.906175e-01  1.040834e-17  2.314797e-01
   endloop
 endfacet
 facet normal  0.000000e+00  1.000000e+00  0.000000e+00
   outer loop
     vertex -5.571807e-01  1.040834e-17  2.692221e-01
     vertex -5.792517e-01  1.040834e-17  2.271692e-01
     vertex -5.851963e-01  1.040834e-17  2.286344e-01
   endloop
 endfacet
 facet normal  0.000000e+00  1.000000e+00  0.000000e+00
   outer loop
     vertex -5.571807e-01  1.040834e-17  2.692221e-01
     vertex -5.731292e-01  1.040834e-17  2.271692e-01
     vertex -5.792517e-01  1.040834e-17  2.271692e-01
   endloop
 endfacet
 facet normal  0.000000e+00  1.000000e+00  0.000000e+00
   outer loop
     vertex -5.571807e-01  1.040834e-17  2.692221e-01
     vertex -5.671846e-01  1.040834e-17  2.286344e-01
     vertex -5.731292e-01  1.040834e-17  2.271692e-01
   endloop
 endfacet
 facet normal  0.000000e+00  1.000000e+00  0.000000e+00
   outer loop
     vertex -5.571807e-01  1.040834e-17  2.692221e-01
     vertex -5.617634e-01  1.040834e-17  2.314797e-01
     vertex -5.671846e-01  1.040834e-17  2.286344e-01
   endloop
 endfacet
 facet normal  0.000000e+00  1.000000e+00  0.000000e+00
   outer loop
     vertex -5.571807e-01  1.040834e-17  2.692221e-01
     vertex -5.571807e-01  1.040834e-17  2.355396e-01
     vertex -5.617634e-01  1.040834e-17  2.314797e-01
   endloop
 endfacet
 facet normal  0.000000e+00  1.000000e+00  0.000000e+00
   outer loop
     vertex -5.571807e-01  1.040834e-17  2.692221e-01
     vertex -5.537027e-01  1.040834e-17  2.405784e-01
     vertex -5.571807e-01  1.040834e-17  2.355396e-01
   endloop
 endfacet
 facet normal  0.000000e+00  1.000000e+00  0.000000e+00
   outer loop
     vertex -5.571807e-01  1.040834e-17  2.692221e-01
     vertex -5.515316e-01  1.040834e-17  2.463030e-01
     vertex -5.537027e-01  1.040834e-17  2.405784e-01
   endloop
 endfacet
 facet normal  0.000000e+00  1.000000e+00  0.000000e+00
   outer loop
     vertex -5.571807e-01  1.040834e-17  2.692221e-01
     vertex -5.507936e-01  1.040834e-17  2.523808e-01
     vertex -5.515316e-01  1.040834e-17  2.463030e-01
   endloop
 endfacet
endsolid
